G04 (created by PCBNEW-RS274X (2012-08-04 BZR 3667)-testing) date 10/19/2012 7:17:05 PM*
%MOIN*%
G04 Gerber Fmt 3.4, Leading zero omitted, Abs format*
%FSLAX34Y34*%
G01*
G70*
G90*
G04 APERTURE LIST*
%ADD10C,0.0017*%
%ADD11C,0.0059*%
%ADD12C,0.0077*%
%ADD13C,0.0195*%
%ADD14C,0.0157*%
%ADD15C,0.0354*%
%ADD16C,0.2165*%
%ADD17C,0.051*%
%ADD18C,0.055*%
%ADD19C,0.0597*%
%ADD20R,0.0597X0.0597*%
%ADD21C,0.0432*%
%ADD22C,0.0196*%
%ADD23C,0.0118*%
%ADD24C,0.0117*%
%ADD25C,0.0195*%
%ADD26C,0.0117*%
%ADD27C,0.0078*%
%ADD28C,0.0039*%
G04 APERTURE END LIST*
G54D10*
G54D11*
X41831Y-53937D02*
G75*
G03X41831Y-53937I-492J0D01*
G74*
G01*
X40355Y-53937D02*
X42323Y-53937D01*
X41339Y-52953D02*
X41339Y-54921D01*
X70964Y-26378D02*
G75*
G03X70964Y-26378I-492J0D01*
G74*
G01*
X69488Y-26378D02*
X71456Y-26378D01*
X70472Y-25394D02*
X70472Y-27362D01*
X41831Y-26378D02*
G75*
G03X41831Y-26378I-492J0D01*
G74*
G01*
X40355Y-26378D02*
X42323Y-26378D01*
X41339Y-25394D02*
X41339Y-27362D01*
G54D12*
X42606Y-52483D02*
X42606Y-27680D01*
X68983Y-52483D02*
X42606Y-52483D01*
X68983Y-27680D02*
X68983Y-52483D01*
X42606Y-27680D02*
X68983Y-27680D01*
X66228Y-30437D02*
X66228Y-39492D01*
X57764Y-30437D02*
X66228Y-30437D01*
X57764Y-29650D02*
X57764Y-30437D01*
X67016Y-29650D02*
X57764Y-29650D01*
X67016Y-39492D02*
X67016Y-29650D01*
X66228Y-39492D02*
X67016Y-39492D01*
X57764Y-50515D02*
X57764Y-49728D01*
X67016Y-50515D02*
X57764Y-50515D01*
X67016Y-40948D02*
X67016Y-50515D01*
X66228Y-40948D02*
X67016Y-40948D01*
X66228Y-49728D02*
X66228Y-40948D01*
X57764Y-49728D02*
X66228Y-49728D01*
X46936Y-50515D02*
X46936Y-44413D01*
X56386Y-50515D02*
X46936Y-50515D01*
X56386Y-49728D02*
X56386Y-50515D01*
X47724Y-49728D02*
X56386Y-49728D01*
X47724Y-44413D02*
X47724Y-49728D01*
X46936Y-44413D02*
X47724Y-44413D01*
X46936Y-43390D02*
X46936Y-35555D01*
X47724Y-43390D02*
X46936Y-43390D01*
X47724Y-35555D02*
X47724Y-43390D01*
X46936Y-35555D02*
X47724Y-35555D01*
X47724Y-30437D02*
X47724Y-34570D01*
X46936Y-34570D02*
X47724Y-34570D01*
X46936Y-29648D02*
X46936Y-34570D01*
X46936Y-29648D02*
X56384Y-29648D01*
X56384Y-29648D02*
X56384Y-30437D01*
X47724Y-30437D02*
X56384Y-30437D01*
G54D13*
X56102Y-43975D03*
G54D14*
X61013Y-44997D03*
X61363Y-45005D03*
X61158Y-45292D03*
X61386Y-35540D03*
X61024Y-35536D03*
X61024Y-35198D03*
X61394Y-35193D03*
X56791Y-43535D03*
X63583Y-34409D03*
G54D15*
X47725Y-34630D03*
X47725Y-35063D03*
X47725Y-35496D03*
X47725Y-44335D03*
X47725Y-43902D03*
X47725Y-43469D03*
X66268Y-39571D03*
X66268Y-40004D03*
X66268Y-40437D03*
X66268Y-40870D03*
G54D14*
X58185Y-40460D03*
X58185Y-40027D03*
X57968Y-40244D03*
X58401Y-40244D03*
X61129Y-38252D03*
X61011Y-37386D03*
X63553Y-36201D03*
X63571Y-36520D03*
X63571Y-36993D03*
X52273Y-32898D03*
X52272Y-33331D03*
X51445Y-33331D03*
X51446Y-32898D03*
X59398Y-33803D03*
X59005Y-33804D03*
X61367Y-33804D03*
X61760Y-33803D03*
X64005Y-31204D03*
X65736Y-31283D03*
X53610Y-30890D03*
X53059Y-30890D03*
X59791Y-30889D03*
X59201Y-30889D03*
X58571Y-30889D03*
X57901Y-30889D03*
X57311Y-30890D03*
X54240Y-30890D03*
X54831Y-30890D03*
X55461Y-30890D03*
X56130Y-30890D03*
X56721Y-30890D03*
X62783Y-30889D03*
X62193Y-30889D03*
X61563Y-30889D03*
X60893Y-30889D03*
X60382Y-30890D03*
X63335Y-30890D03*
X63846Y-30889D03*
X64516Y-30889D03*
X65146Y-30889D03*
X65736Y-30889D03*
X63127Y-32925D03*
X63138Y-33292D03*
X63600Y-33280D03*
X62655Y-33280D03*
X63453Y-32544D03*
X61484Y-32544D03*
X62065Y-32532D03*
X60894Y-32544D03*
X62744Y-32544D03*
X60658Y-33292D03*
X61120Y-33280D03*
X62065Y-33280D03*
X61603Y-33292D03*
X59752Y-33292D03*
X60214Y-33280D03*
X55953Y-33291D03*
X55312Y-33271D03*
X60343Y-32544D03*
X59269Y-33280D03*
X56465Y-33291D03*
X56965Y-33280D03*
X54289Y-33271D03*
X54762Y-33271D03*
X58807Y-33292D03*
X57410Y-33291D03*
X50618Y-30929D03*
X50895Y-32898D03*
X50894Y-33331D03*
X49281Y-33527D03*
X50028Y-30929D03*
X49950Y-33567D03*
X49398Y-30929D03*
X48728Y-30929D03*
X48256Y-35103D03*
X48650Y-35102D03*
X48650Y-34552D03*
X48256Y-34552D03*
X48256Y-33410D03*
X48650Y-33410D03*
X48650Y-33961D03*
X48256Y-33961D03*
X48255Y-32898D03*
X48255Y-32504D03*
X48255Y-32032D03*
X48255Y-31520D03*
X48256Y-30929D03*
X52627Y-36166D03*
X51995Y-39173D03*
X51680Y-39173D03*
X51365Y-39173D03*
X51010Y-39212D03*
X51004Y-38953D03*
X51012Y-39551D03*
X51012Y-40181D03*
X55718Y-42968D03*
X55450Y-43472D03*
X54248Y-41252D03*
X53937Y-41520D03*
X53925Y-41248D03*
X52413Y-41387D03*
X51196Y-41394D03*
X63602Y-33632D03*
X63612Y-33967D03*
X64016Y-36220D03*
X64043Y-36559D03*
X64035Y-34409D03*
X64043Y-34039D03*
X65462Y-33764D03*
X65776Y-33764D03*
X65146Y-33764D03*
X64832Y-33764D03*
X64202Y-33764D03*
X64516Y-33764D03*
X64516Y-36835D03*
X64202Y-36835D03*
X64832Y-36835D03*
X65146Y-36835D03*
X65776Y-36835D03*
X65462Y-36835D03*
X65697Y-42268D03*
X65696Y-41677D03*
X65696Y-41087D03*
X65696Y-40535D03*
X65697Y-37977D03*
X65697Y-38646D03*
X65697Y-39906D03*
X63570Y-40024D03*
X63570Y-39591D03*
X63571Y-39079D03*
X63571Y-38528D03*
X63571Y-37977D03*
X63570Y-42937D03*
X63570Y-40535D03*
X63570Y-41087D03*
X63570Y-41677D03*
X63571Y-42268D03*
X63137Y-42584D03*
X63138Y-42230D03*
X63138Y-39867D03*
X63137Y-40221D03*
X63136Y-37859D03*
X63137Y-37505D03*
X62626Y-36717D03*
X62626Y-36205D03*
X62626Y-35772D03*
X62626Y-37229D03*
X62626Y-37858D03*
X63571Y-37504D03*
X62114Y-38488D03*
X62665Y-38488D03*
X62114Y-37858D03*
X62114Y-37229D03*
X61169Y-44473D03*
X61721Y-43882D03*
X61681Y-44355D03*
X62274Y-40728D03*
X62271Y-41166D03*
X62271Y-41756D03*
X62271Y-42307D03*
X62271Y-44315D03*
X62272Y-43646D03*
X62271Y-42937D03*
X62704Y-42307D03*
X62704Y-41756D03*
X62704Y-41166D03*
X62697Y-40728D03*
X62704Y-42937D03*
X62705Y-43646D03*
X62704Y-44315D03*
X58618Y-40460D03*
X57752Y-40460D03*
X57319Y-40460D03*
X56886Y-40460D03*
X56669Y-40677D03*
X57102Y-40677D03*
X57539Y-40677D03*
X57968Y-40677D03*
X58401Y-40677D03*
X58834Y-40677D03*
X58834Y-41110D03*
X58401Y-41110D03*
X57968Y-41110D03*
X57539Y-41110D03*
X57102Y-41110D03*
X56669Y-41110D03*
X56886Y-40893D03*
X57319Y-40893D03*
X58185Y-40893D03*
X57752Y-40893D03*
X58618Y-40893D03*
X58618Y-40027D03*
X57752Y-40027D03*
X57319Y-40027D03*
X56886Y-40027D03*
X56669Y-40244D03*
X57102Y-40244D03*
X57539Y-40244D03*
X58834Y-40244D03*
X58834Y-39811D03*
X58401Y-39811D03*
X57968Y-39811D03*
X57539Y-39811D03*
X57102Y-39811D03*
X56669Y-39811D03*
X56886Y-39594D03*
X57319Y-39594D03*
X58185Y-39594D03*
X57752Y-39594D03*
X58618Y-39594D03*
X58618Y-39161D03*
X57752Y-39161D03*
X58185Y-39161D03*
X57319Y-39161D03*
X56886Y-39161D03*
X56669Y-39378D03*
X57102Y-39378D03*
X57539Y-39378D03*
X57968Y-39378D03*
X58401Y-39378D03*
X58834Y-39378D03*
X58834Y-38945D03*
X58401Y-38945D03*
X57968Y-38945D03*
X57539Y-38945D03*
X57102Y-38945D03*
X56669Y-38945D03*
X64055Y-43533D03*
X64045Y-43858D03*
X64555Y-43282D03*
X64241Y-43282D03*
X64871Y-43282D03*
X65185Y-43282D03*
X65815Y-43282D03*
X65501Y-43282D03*
X65510Y-46353D03*
X65824Y-46353D03*
X65194Y-46353D03*
X64880Y-46353D03*
X64065Y-46083D03*
X64035Y-45758D03*
X63514Y-46358D03*
X64250Y-46353D03*
X64564Y-46353D03*
X63553Y-43435D03*
X63553Y-43907D03*
X63494Y-45856D03*
X60472Y-44461D03*
X57598Y-45152D03*
X57598Y-44837D03*
X56249Y-44866D03*
X55658Y-44866D03*
X54516Y-38173D03*
X54516Y-37858D03*
X54005Y-37858D03*
X55028Y-44236D03*
X54162Y-43488D03*
X54756Y-43909D03*
X65736Y-47032D03*
X64319Y-49355D03*
X65736Y-49355D03*
X65106Y-49355D03*
X60622Y-47855D03*
X62889Y-49028D03*
X62889Y-49343D03*
X63480Y-49343D03*
X63480Y-49028D03*
X60566Y-49028D03*
X60566Y-49343D03*
X61118Y-49343D03*
X61118Y-49028D03*
X62260Y-49028D03*
X62260Y-49343D03*
X61709Y-49343D03*
X61709Y-49028D03*
X59465Y-49028D03*
X59465Y-49343D03*
X60016Y-49343D03*
X60016Y-49028D03*
X58914Y-49028D03*
X58914Y-49343D03*
X58323Y-49343D03*
X58323Y-49028D03*
X58335Y-48567D03*
X63138Y-46953D03*
X62587Y-46953D03*
X61012Y-46941D03*
X62004Y-46957D03*
X58465Y-46850D03*
X58099Y-46835D03*
X57547Y-46835D03*
X56996Y-46835D03*
X56484Y-46835D03*
X56012Y-46835D03*
X53932Y-47357D03*
X59417Y-46406D03*
X61760Y-46284D03*
X61406Y-46284D03*
X56642Y-46284D03*
X56996Y-46284D03*
X52378Y-46382D03*
X52031Y-46382D03*
X50539Y-46873D03*
X49870Y-46676D03*
X49240Y-46755D03*
X48295Y-45968D03*
X48689Y-45968D03*
X48689Y-45496D03*
X48295Y-45496D03*
X48295Y-46441D03*
X48689Y-46441D03*
X48689Y-46913D03*
X48295Y-46913D03*
X48295Y-47386D03*
X48295Y-47937D03*
X48295Y-48449D03*
X48295Y-48921D03*
X48295Y-49315D03*
X48965Y-49315D03*
X49673Y-49315D03*
X50382Y-49315D03*
G54D13*
X48861Y-45087D03*
X48546Y-45087D03*
X48231Y-45087D03*
X52389Y-43424D03*
X52744Y-43424D03*
X52941Y-43620D03*
X52586Y-43621D03*
X52782Y-45375D03*
X52782Y-45690D03*
X52584Y-45927D03*
X52190Y-45927D03*
X51994Y-45690D03*
X51994Y-45375D03*
G54D16*
X49752Y-32228D03*
X64791Y-32228D03*
X64791Y-47975D03*
X49752Y-47975D03*
G54D13*
X56378Y-43975D03*
X52232Y-43621D03*
X52112Y-49195D03*
X51720Y-49197D03*
X52507Y-49197D03*
X51325Y-49197D03*
X52902Y-49197D03*
X51325Y-48802D03*
X51325Y-48410D03*
X51325Y-48015D03*
X51325Y-47622D03*
X51325Y-47267D03*
X51720Y-47267D03*
X52114Y-47267D03*
X52507Y-47267D03*
X52900Y-47267D03*
X52900Y-47622D03*
X52900Y-48015D03*
X52900Y-48410D03*
X52900Y-48802D03*
G54D15*
X56426Y-49768D03*
X56859Y-49768D03*
X57292Y-49768D03*
X57726Y-49768D03*
X56425Y-30437D03*
X56858Y-30437D03*
X57291Y-30437D03*
X57725Y-30437D03*
G54D13*
X54516Y-48607D03*
X54831Y-48607D03*
X55146Y-48607D03*
X55461Y-48607D03*
X59419Y-47520D03*
X60512Y-47510D03*
X62312Y-47426D03*
X63336Y-47426D03*
G54D17*
X51299Y-32217D03*
X52299Y-32217D03*
X52299Y-31217D03*
X51299Y-31217D03*
G54D18*
X51799Y-31717D03*
G54D19*
X58307Y-31834D03*
X57307Y-31834D03*
X56307Y-31834D03*
X55307Y-31834D03*
G54D20*
X53307Y-31814D03*
G54D19*
X54307Y-31834D03*
G54D20*
X57576Y-49079D03*
G54D19*
X56576Y-49079D03*
G54D21*
X49554Y-45454D03*
X49554Y-35062D03*
G54D19*
X63314Y-31834D03*
X62314Y-31834D03*
X61314Y-31834D03*
G54D20*
X59314Y-31814D03*
G54D19*
X60314Y-31834D03*
X63043Y-48350D03*
X62043Y-48350D03*
X61043Y-48350D03*
G54D20*
X59043Y-48330D03*
G54D19*
X60043Y-48350D03*
G54D13*
X56783Y-43173D03*
X61728Y-40646D03*
X61398Y-43563D03*
X61821Y-42018D03*
X61594Y-38083D03*
X55748Y-43512D03*
X55032Y-45276D03*
X58976Y-46772D03*
G54D14*
X60177Y-35130D03*
G54D13*
X54949Y-37343D03*
G54D14*
X52646Y-37508D03*
G54D13*
X54221Y-34441D03*
X51169Y-34244D03*
X57756Y-43449D03*
G54D14*
X56949Y-42618D03*
G54D13*
X58264Y-43146D03*
X61614Y-45787D03*
X60142Y-42921D03*
G54D14*
X55299Y-38228D03*
G54D13*
X62039Y-39803D03*
X59910Y-37815D03*
X62036Y-39500D03*
G54D14*
X49256Y-36028D03*
X53323Y-36453D03*
G54D13*
X58002Y-47500D03*
G54D14*
X59961Y-44311D03*
X58626Y-44390D03*
X58413Y-43508D03*
X60205Y-43484D03*
X61614Y-45291D03*
X60531Y-45295D03*
X59882Y-37386D03*
X58256Y-36228D03*
X57106Y-36587D03*
G54D13*
X58616Y-45230D03*
G54D14*
X61102Y-40835D03*
G54D13*
X57668Y-44518D03*
G54D14*
X52012Y-34799D03*
G54D13*
X50921Y-43799D03*
X51012Y-36701D03*
G54D14*
X48154Y-36225D03*
X48154Y-35831D03*
G54D13*
X48158Y-36717D03*
X48150Y-39079D03*
X48189Y-41437D03*
G54D14*
X48032Y-37599D03*
X48047Y-38189D03*
X48024Y-39571D03*
X48028Y-40551D03*
X48032Y-41933D03*
X48032Y-42918D03*
X48197Y-43508D03*
G54D13*
X48138Y-43807D03*
G54D14*
X61264Y-40071D03*
X54457Y-43477D03*
G54D13*
X53465Y-45815D03*
G54D14*
X54579Y-44225D03*
G54D13*
X54268Y-46508D03*
G54D14*
X48102Y-44492D03*
X50921Y-44492D03*
X60441Y-34681D03*
G54D13*
X57984Y-48284D03*
G54D14*
X61957Y-34823D03*
X60906Y-36260D03*
X61957Y-35933D03*
X62154Y-36559D03*
X61228Y-42177D03*
X60882Y-38087D03*
X60780Y-39406D03*
X59350Y-37213D03*
G54D22*
X56091Y-35378D03*
X55579Y-35130D03*
G54D14*
X59508Y-36051D03*
X59650Y-35925D03*
X57094Y-35291D03*
X58354Y-35528D03*
X58370Y-36783D03*
X48165Y-37402D03*
X60266Y-35482D03*
X48193Y-37205D03*
X60246Y-35719D03*
X49132Y-37012D03*
X49565Y-42918D03*
X62392Y-45541D03*
G54D13*
X55217Y-44988D03*
G54D14*
X60030Y-41211D03*
G54D23*
X59228Y-39933D03*
G54D14*
X56957Y-42059D03*
G54D23*
X56665Y-41504D03*
G54D14*
X60319Y-39984D03*
G54D23*
X56866Y-38555D03*
G54D14*
X55981Y-37386D03*
G54D23*
X59228Y-38752D03*
G54D13*
X52811Y-44992D03*
X53539Y-43862D03*
X53539Y-44197D03*
G54D23*
X59228Y-41114D03*
G54D14*
X60039Y-41437D03*
X55638Y-36756D03*
G54D23*
X57063Y-38555D03*
G54D14*
X59272Y-41807D03*
X59748Y-39020D03*
G54D23*
X58240Y-41504D03*
X59225Y-39146D03*
X59228Y-38949D03*
X59228Y-40130D03*
X57847Y-38555D03*
G54D14*
X59150Y-37972D03*
G54D23*
X57059Y-41504D03*
G54D14*
X55933Y-38528D03*
G54D24*
X56276Y-39736D03*
X56276Y-40327D03*
G54D14*
X56260Y-42953D03*
G54D23*
X56858Y-41504D03*
G54D13*
X60154Y-42638D03*
G54D23*
X59228Y-41311D03*
G54D14*
X55394Y-39638D03*
X53650Y-41536D03*
G54D23*
X56276Y-41110D03*
G54D14*
X53583Y-40201D03*
G54D23*
X56280Y-39933D03*
G54D14*
X55831Y-39047D03*
G54D23*
X56276Y-40914D03*
G54D14*
X53579Y-41925D03*
X53602Y-40559D03*
G54D23*
X56276Y-40130D03*
G54D14*
X55303Y-40032D03*
X53662Y-38355D03*
G54D23*
X56276Y-38748D03*
G54D14*
X55709Y-39445D03*
X52193Y-35890D03*
X59740Y-40740D03*
X54453Y-37319D03*
X51721Y-37508D03*
X54721Y-36075D03*
X59787Y-39870D03*
X55555Y-39028D03*
X53662Y-38555D03*
G54D23*
X56276Y-38945D03*
G54D14*
X53610Y-39571D03*
G54D23*
X56276Y-39540D03*
G54D14*
X53626Y-39370D03*
G54D23*
X56280Y-39343D03*
G54D14*
X53579Y-42122D03*
G54D23*
X56276Y-40717D03*
G54D14*
X55772Y-40232D03*
X55890Y-41016D03*
X55260Y-41209D03*
X55815Y-41406D03*
X55445Y-41846D03*
X56303Y-41937D03*
X53650Y-38981D03*
G54D23*
X56276Y-39138D03*
G54D14*
X53587Y-41040D03*
G54D23*
X56276Y-40524D03*
G54D14*
X55288Y-40421D03*
X55701Y-40618D03*
X55366Y-40819D03*
X55705Y-41839D03*
G54D23*
X59228Y-40327D03*
G54D14*
X51732Y-36461D03*
G54D23*
X56276Y-41307D03*
G54D14*
X53591Y-41236D03*
X59951Y-40876D03*
X51728Y-36957D03*
G54D23*
X59232Y-40524D03*
G54D14*
X52870Y-37327D03*
X51728Y-37240D03*
X52870Y-36752D03*
X59669Y-40425D03*
X55736Y-39831D03*
X53906Y-34843D03*
X48193Y-37984D03*
X52906Y-35095D03*
X52543Y-37827D03*
X57205Y-42071D03*
X60473Y-41000D03*
G54D23*
X59232Y-40918D03*
G54D14*
X60339Y-39244D03*
G54D23*
X59228Y-39343D03*
X57252Y-41504D03*
G54D14*
X57465Y-41937D03*
X59646Y-40225D03*
X54736Y-36331D03*
X49354Y-37402D03*
X53071Y-34862D03*
X52276Y-40847D03*
X52248Y-40394D03*
X48185Y-39965D03*
X48221Y-38386D03*
X52516Y-38162D03*
X48201Y-39768D03*
X52232Y-40016D03*
X48197Y-39370D03*
X52402Y-39815D03*
X48079Y-38783D03*
X52386Y-39181D03*
X48193Y-38591D03*
X52366Y-38772D03*
G54D23*
X59228Y-39732D03*
G54D14*
X51445Y-35929D03*
X52213Y-40654D03*
X48181Y-40355D03*
X55984Y-38016D03*
X56319Y-38122D03*
X56575Y-38130D03*
G54D23*
X56669Y-38555D03*
G54D14*
X49744Y-36425D03*
X49634Y-37205D03*
X49917Y-37012D03*
X49748Y-36225D03*
X51717Y-37992D03*
X52535Y-41732D03*
X48173Y-42331D03*
X52118Y-42354D03*
X54984Y-43063D03*
X48173Y-40748D03*
X55453Y-43067D03*
X51752Y-40748D03*
X48181Y-42130D03*
X51917Y-42355D03*
X48197Y-41732D03*
X51398Y-42355D03*
X48075Y-41142D03*
X51638Y-42355D03*
X48201Y-40949D03*
X54721Y-43055D03*
X51091Y-40949D03*
X55225Y-43067D03*
G54D23*
X59228Y-40721D03*
G54D14*
X51669Y-35288D03*
G54D23*
X58437Y-41508D03*
G54D14*
X58536Y-41973D03*
X59281Y-42067D03*
X58740Y-41969D03*
X52465Y-41043D03*
X49535Y-42618D03*
X48154Y-42725D03*
G54D13*
X51169Y-44827D03*
X51169Y-45063D03*
G54D25*
X61821Y-42018D02*
X61821Y-40739D01*
X61821Y-40739D02*
X61728Y-40646D01*
G54D26*
X56402Y-43948D02*
X56402Y-43582D01*
G54D25*
X60984Y-43976D02*
X61398Y-43563D01*
G54D26*
X56791Y-43165D02*
X56402Y-43582D01*
X56783Y-43173D02*
X56791Y-43165D01*
G54D25*
X56063Y-43976D02*
X60984Y-43976D01*
X61398Y-43563D02*
X61388Y-43573D01*
X61388Y-43573D02*
X61821Y-43140D01*
X61821Y-43140D02*
X61821Y-42018D01*
X61728Y-40449D02*
X61728Y-40646D01*
X61728Y-40449D02*
X61909Y-40378D01*
X61909Y-40378D02*
X62098Y-40291D01*
X62098Y-40291D02*
X62559Y-40079D01*
X62559Y-40079D02*
X62559Y-39331D01*
X62559Y-39331D02*
X62358Y-39256D01*
X62358Y-39256D02*
X61854Y-39079D01*
X61854Y-39079D02*
X61594Y-38583D01*
X61594Y-38583D02*
X61594Y-38083D01*
G54D26*
X52646Y-37508D02*
X54531Y-37508D01*
X54531Y-37508D02*
X55299Y-38228D01*
X56276Y-40327D02*
X56161Y-40327D01*
X56083Y-42795D02*
X56260Y-42953D01*
X56083Y-40406D02*
X56083Y-42795D01*
X56161Y-40327D02*
X56083Y-40406D01*
G54D10*
G36*
X53072Y-49315D02*
X53015Y-49371D01*
X51197Y-49371D01*
X51140Y-49315D01*
X51140Y-47260D01*
X51849Y-46551D01*
X51849Y-46444D01*
X51868Y-46491D01*
X51922Y-46545D01*
X51993Y-46574D01*
X52069Y-46574D01*
X52140Y-46545D01*
X52194Y-46491D01*
X52204Y-46465D01*
X52215Y-46491D01*
X52269Y-46545D01*
X52340Y-46574D01*
X52416Y-46574D01*
X52487Y-46545D01*
X52541Y-46491D01*
X52570Y-46420D01*
X52570Y-46344D01*
X52541Y-46273D01*
X52487Y-46219D01*
X52416Y-46190D01*
X52340Y-46190D01*
X52269Y-46219D01*
X52215Y-46273D01*
X52204Y-46298D01*
X52194Y-46273D01*
X52140Y-46219D01*
X52069Y-46190D01*
X51993Y-46190D01*
X51922Y-46219D01*
X51868Y-46273D01*
X51849Y-46319D01*
X51849Y-45370D01*
X51985Y-45235D01*
X52858Y-45235D01*
X52915Y-45292D01*
X52915Y-47063D01*
X53072Y-47221D01*
X53072Y-49315D01*
X53072Y-49315D01*
G37*
G54D12*
X53072Y-49315D02*
X53015Y-49371D01*
X51197Y-49371D01*
X51140Y-49315D01*
X51140Y-47260D01*
X51849Y-46551D01*
X51849Y-46444D01*
X51868Y-46491D01*
X51922Y-46545D01*
X51993Y-46574D01*
X52069Y-46574D01*
X52140Y-46545D01*
X52194Y-46491D01*
X52204Y-46465D01*
X52215Y-46491D01*
X52269Y-46545D01*
X52340Y-46574D01*
X52416Y-46574D01*
X52487Y-46545D01*
X52541Y-46491D01*
X52570Y-46420D01*
X52570Y-46344D01*
X52541Y-46273D01*
X52487Y-46219D01*
X52416Y-46190D01*
X52340Y-46190D01*
X52269Y-46219D01*
X52215Y-46273D01*
X52204Y-46298D01*
X52194Y-46273D01*
X52140Y-46219D01*
X52069Y-46190D01*
X51993Y-46190D01*
X51922Y-46219D01*
X51868Y-46273D01*
X51849Y-46319D01*
X51849Y-45370D01*
X51985Y-45235D01*
X52858Y-45235D01*
X52915Y-45292D01*
X52915Y-47063D01*
X53072Y-47221D01*
X53072Y-49315D01*
G54D10*
G36*
X57008Y-49393D02*
X56953Y-49449D01*
X56197Y-49449D01*
X56141Y-49393D01*
X56141Y-48723D01*
X55606Y-48229D01*
X55369Y-48229D01*
X54481Y-47403D01*
X54481Y-46551D01*
X54481Y-46466D01*
X54449Y-46388D01*
X54389Y-46328D01*
X54311Y-46295D01*
X54226Y-46295D01*
X54148Y-46327D01*
X54088Y-46387D01*
X54055Y-46465D01*
X54055Y-46550D01*
X54087Y-46628D01*
X54147Y-46688D01*
X54225Y-46721D01*
X54310Y-46721D01*
X54388Y-46689D01*
X54448Y-46629D01*
X54481Y-46551D01*
X54481Y-47403D01*
X53678Y-46656D01*
X53678Y-45858D01*
X53678Y-45773D01*
X53646Y-45695D01*
X53586Y-45635D01*
X53508Y-45602D01*
X53423Y-45602D01*
X53345Y-45634D01*
X53285Y-45694D01*
X53252Y-45772D01*
X53252Y-45857D01*
X53284Y-45935D01*
X53344Y-45995D01*
X53422Y-46028D01*
X53507Y-46028D01*
X53585Y-45996D01*
X53645Y-45936D01*
X53678Y-45858D01*
X53678Y-46656D01*
X53149Y-46164D01*
X53149Y-45181D01*
X53017Y-45049D01*
X53024Y-45035D01*
X53024Y-44950D01*
X52992Y-44872D01*
X52932Y-44812D01*
X52854Y-44779D01*
X52769Y-44779D01*
X52691Y-44811D01*
X52631Y-44871D01*
X52598Y-44949D01*
X52598Y-45000D01*
X51874Y-45000D01*
X51638Y-45237D01*
X49806Y-45237D01*
X49742Y-45173D01*
X49620Y-45122D01*
X49488Y-45122D01*
X49366Y-45173D01*
X49302Y-45237D01*
X48126Y-45237D01*
X48070Y-45181D01*
X48070Y-44685D01*
X48140Y-44685D01*
X48211Y-44656D01*
X48261Y-44606D01*
X50762Y-44606D01*
X50811Y-44655D01*
X50882Y-44685D01*
X50959Y-44685D01*
X51030Y-44656D01*
X51080Y-44606D01*
X53055Y-44606D01*
X57008Y-48520D01*
X57008Y-49393D01*
X57008Y-49393D01*
G37*
G54D27*
X57008Y-49393D02*
X56953Y-49449D01*
X56197Y-49449D01*
X56141Y-49393D01*
X56141Y-48723D01*
X55606Y-48229D01*
X55369Y-48229D01*
X54481Y-47403D01*
X54481Y-46551D01*
X54481Y-46466D01*
X54449Y-46388D01*
X54389Y-46328D01*
X54311Y-46295D01*
X54226Y-46295D01*
X54148Y-46327D01*
X54088Y-46387D01*
X54055Y-46465D01*
X54055Y-46550D01*
X54087Y-46628D01*
X54147Y-46688D01*
X54225Y-46721D01*
X54310Y-46721D01*
X54388Y-46689D01*
X54448Y-46629D01*
X54481Y-46551D01*
X54481Y-47403D01*
X53678Y-46656D01*
X53678Y-45858D01*
X53678Y-45773D01*
X53646Y-45695D01*
X53586Y-45635D01*
X53508Y-45602D01*
X53423Y-45602D01*
X53345Y-45634D01*
X53285Y-45694D01*
X53252Y-45772D01*
X53252Y-45857D01*
X53284Y-45935D01*
X53344Y-45995D01*
X53422Y-46028D01*
X53507Y-46028D01*
X53585Y-45996D01*
X53645Y-45936D01*
X53678Y-45858D01*
X53678Y-46656D01*
X53149Y-46164D01*
X53149Y-45181D01*
X53017Y-45049D01*
X53024Y-45035D01*
X53024Y-44950D01*
X52992Y-44872D01*
X52932Y-44812D01*
X52854Y-44779D01*
X52769Y-44779D01*
X52691Y-44811D01*
X52631Y-44871D01*
X52598Y-44949D01*
X52598Y-45000D01*
X51874Y-45000D01*
X51638Y-45237D01*
X49806Y-45237D01*
X49742Y-45173D01*
X49620Y-45122D01*
X49488Y-45122D01*
X49366Y-45173D01*
X49302Y-45237D01*
X48126Y-45237D01*
X48070Y-45181D01*
X48070Y-44685D01*
X48140Y-44685D01*
X48211Y-44656D01*
X48261Y-44606D01*
X50762Y-44606D01*
X50811Y-44655D01*
X50882Y-44685D01*
X50959Y-44685D01*
X51030Y-44656D01*
X51080Y-44606D01*
X53055Y-44606D01*
X57008Y-48520D01*
X57008Y-49393D01*
G54D10*
G36*
X62264Y-39908D02*
X61438Y-40263D01*
X61438Y-40106D01*
X61438Y-40037D01*
X61412Y-39973D01*
X61363Y-39924D01*
X61299Y-39897D01*
X61230Y-39897D01*
X61166Y-39923D01*
X61117Y-39972D01*
X61090Y-40036D01*
X61090Y-40105D01*
X61116Y-40169D01*
X61165Y-40218D01*
X61229Y-40245D01*
X61298Y-40245D01*
X61362Y-40219D01*
X61411Y-40170D01*
X61438Y-40106D01*
X61438Y-40263D01*
X61438Y-40756D01*
X61556Y-40874D01*
X61556Y-42984D01*
X61402Y-43138D01*
X61402Y-42212D01*
X61402Y-42143D01*
X61376Y-42079D01*
X61327Y-42030D01*
X61276Y-42008D01*
X61276Y-40870D01*
X61276Y-40801D01*
X61250Y-40737D01*
X61201Y-40688D01*
X61137Y-40661D01*
X61068Y-40661D01*
X61004Y-40687D01*
X60955Y-40736D01*
X60954Y-40738D01*
X60954Y-39441D01*
X60954Y-39372D01*
X60928Y-39308D01*
X60879Y-39259D01*
X60815Y-39232D01*
X60746Y-39232D01*
X60682Y-39258D01*
X60633Y-39307D01*
X60606Y-39371D01*
X60606Y-39440D01*
X60632Y-39504D01*
X60681Y-39553D01*
X60745Y-39580D01*
X60814Y-39580D01*
X60878Y-39554D01*
X60927Y-39505D01*
X60954Y-39441D01*
X60954Y-40738D01*
X60928Y-40800D01*
X60928Y-40869D01*
X60954Y-40933D01*
X61003Y-40982D01*
X61067Y-41009D01*
X61136Y-41009D01*
X61200Y-40983D01*
X61249Y-40934D01*
X61276Y-40870D01*
X61276Y-42008D01*
X61263Y-42003D01*
X61194Y-42003D01*
X61130Y-42029D01*
X61081Y-42078D01*
X61054Y-42142D01*
X61054Y-42211D01*
X61080Y-42275D01*
X61129Y-42324D01*
X61193Y-42351D01*
X61262Y-42351D01*
X61326Y-42325D01*
X61375Y-42276D01*
X61402Y-42212D01*
X61402Y-43138D01*
X60858Y-43682D01*
X60647Y-43682D01*
X60647Y-41035D01*
X60647Y-40966D01*
X60621Y-40902D01*
X60572Y-40853D01*
X60513Y-40828D01*
X60513Y-39279D01*
X60513Y-39210D01*
X60487Y-39146D01*
X60440Y-39099D01*
X60440Y-35517D01*
X60440Y-35448D01*
X60414Y-35384D01*
X60365Y-35335D01*
X60301Y-35308D01*
X60232Y-35308D01*
X60168Y-35334D01*
X60119Y-35383D01*
X60092Y-35447D01*
X60092Y-35516D01*
X60118Y-35580D01*
X60128Y-35590D01*
X60099Y-35620D01*
X60072Y-35684D01*
X60072Y-35753D01*
X60098Y-35817D01*
X60147Y-35866D01*
X60211Y-35893D01*
X60280Y-35893D01*
X60344Y-35867D01*
X60393Y-35818D01*
X60420Y-35754D01*
X60420Y-35685D01*
X60394Y-35621D01*
X60383Y-35610D01*
X60413Y-35581D01*
X60440Y-35517D01*
X60440Y-39099D01*
X60438Y-39097D01*
X60374Y-39070D01*
X60305Y-39070D01*
X60241Y-39096D01*
X60192Y-39145D01*
X60165Y-39209D01*
X60165Y-39278D01*
X60191Y-39342D01*
X60240Y-39391D01*
X60304Y-39418D01*
X60373Y-39418D01*
X60437Y-39392D01*
X60486Y-39343D01*
X60513Y-39279D01*
X60513Y-40828D01*
X60508Y-40826D01*
X60493Y-40826D01*
X60493Y-40019D01*
X60493Y-39950D01*
X60467Y-39886D01*
X60418Y-39837D01*
X60354Y-39810D01*
X60285Y-39810D01*
X60221Y-39836D01*
X60172Y-39885D01*
X60145Y-39949D01*
X60145Y-40018D01*
X60171Y-40082D01*
X60220Y-40131D01*
X60284Y-40158D01*
X60353Y-40158D01*
X60417Y-40132D01*
X60466Y-40083D01*
X60493Y-40019D01*
X60493Y-40826D01*
X60439Y-40826D01*
X60375Y-40852D01*
X60326Y-40901D01*
X60299Y-40965D01*
X60299Y-41034D01*
X60325Y-41098D01*
X60374Y-41147D01*
X60438Y-41174D01*
X60507Y-41174D01*
X60571Y-41148D01*
X60620Y-41099D01*
X60647Y-41035D01*
X60647Y-43682D01*
X60379Y-43682D01*
X60379Y-43519D01*
X60379Y-43450D01*
X60353Y-43386D01*
X60346Y-43379D01*
X60346Y-42676D01*
X60346Y-42600D01*
X60317Y-42529D01*
X60263Y-42475D01*
X60213Y-42454D01*
X60213Y-41472D01*
X60213Y-41403D01*
X60187Y-41339D01*
X60167Y-41319D01*
X60177Y-41310D01*
X60204Y-41246D01*
X60204Y-41177D01*
X60178Y-41113D01*
X60129Y-41064D01*
X60065Y-41037D01*
X60017Y-41037D01*
X60049Y-41024D01*
X60098Y-40975D01*
X60125Y-40911D01*
X60125Y-40842D01*
X60099Y-40778D01*
X60056Y-40735D01*
X60056Y-37421D01*
X60056Y-37352D01*
X60030Y-37288D01*
X59981Y-37239D01*
X59917Y-37212D01*
X59848Y-37212D01*
X59784Y-37238D01*
X59735Y-37287D01*
X59708Y-37351D01*
X59708Y-37420D01*
X59734Y-37484D01*
X59783Y-37533D01*
X59847Y-37560D01*
X59916Y-37560D01*
X59980Y-37534D01*
X60029Y-37485D01*
X60056Y-37421D01*
X60056Y-40735D01*
X60050Y-40729D01*
X59986Y-40702D01*
X59961Y-40702D01*
X59961Y-39905D01*
X59961Y-39836D01*
X59935Y-39772D01*
X59922Y-39759D01*
X59922Y-39055D01*
X59922Y-38986D01*
X59896Y-38922D01*
X59847Y-38873D01*
X59783Y-38846D01*
X59714Y-38846D01*
X59650Y-38872D01*
X59601Y-38921D01*
X59574Y-38985D01*
X59574Y-39054D01*
X59600Y-39118D01*
X59649Y-39167D01*
X59713Y-39194D01*
X59782Y-39194D01*
X59846Y-39168D01*
X59895Y-39119D01*
X59922Y-39055D01*
X59922Y-39759D01*
X59886Y-39723D01*
X59822Y-39696D01*
X59753Y-39696D01*
X59689Y-39722D01*
X59640Y-39771D01*
X59613Y-39835D01*
X59613Y-39904D01*
X59639Y-39968D01*
X59688Y-40017D01*
X59752Y-40044D01*
X59821Y-40044D01*
X59885Y-40018D01*
X59934Y-39969D01*
X59961Y-39905D01*
X59961Y-40702D01*
X59917Y-40702D01*
X59913Y-40703D01*
X59888Y-40642D01*
X59839Y-40593D01*
X59775Y-40566D01*
X59774Y-40566D01*
X59816Y-40524D01*
X59843Y-40460D01*
X59843Y-40391D01*
X59817Y-40327D01*
X59799Y-40309D01*
X59820Y-40260D01*
X59820Y-40191D01*
X59794Y-40127D01*
X59745Y-40078D01*
X59681Y-40051D01*
X59612Y-40051D01*
X59548Y-40077D01*
X59499Y-40126D01*
X59472Y-40190D01*
X59472Y-40259D01*
X59498Y-40323D01*
X59515Y-40340D01*
X59495Y-40390D01*
X59495Y-40459D01*
X59521Y-40523D01*
X59570Y-40572D01*
X59634Y-40599D01*
X59593Y-40641D01*
X59566Y-40705D01*
X59566Y-40774D01*
X59592Y-40838D01*
X59641Y-40887D01*
X59705Y-40914D01*
X59774Y-40914D01*
X59777Y-40912D01*
X59803Y-40974D01*
X59852Y-41023D01*
X59916Y-41050D01*
X59964Y-41050D01*
X59932Y-41063D01*
X59883Y-41112D01*
X59856Y-41176D01*
X59856Y-41245D01*
X59882Y-41309D01*
X59901Y-41328D01*
X59892Y-41338D01*
X59865Y-41402D01*
X59865Y-41471D01*
X59891Y-41535D01*
X59940Y-41584D01*
X60004Y-41611D01*
X60073Y-41611D01*
X60137Y-41585D01*
X60186Y-41536D01*
X60213Y-41472D01*
X60213Y-42454D01*
X60192Y-42446D01*
X60116Y-42446D01*
X60045Y-42475D01*
X59991Y-42529D01*
X59962Y-42600D01*
X59962Y-42676D01*
X59991Y-42747D01*
X60045Y-42801D01*
X60116Y-42830D01*
X60192Y-42830D01*
X60263Y-42801D01*
X60317Y-42747D01*
X60346Y-42676D01*
X60346Y-43379D01*
X60304Y-43337D01*
X60240Y-43310D01*
X60171Y-43310D01*
X60107Y-43336D01*
X60058Y-43385D01*
X60031Y-43449D01*
X60031Y-43518D01*
X60057Y-43582D01*
X60106Y-43631D01*
X60170Y-43658D01*
X60239Y-43658D01*
X60303Y-43632D01*
X60352Y-43583D01*
X60379Y-43519D01*
X60379Y-43682D01*
X59455Y-43682D01*
X59455Y-42102D01*
X59455Y-42033D01*
X59429Y-41969D01*
X59392Y-41932D01*
X59419Y-41906D01*
X59446Y-41842D01*
X59446Y-41773D01*
X59420Y-41709D01*
X59377Y-41666D01*
X59373Y-41662D01*
X59373Y-41365D01*
X59377Y-41356D01*
X59383Y-41342D01*
X59383Y-41280D01*
X59377Y-41265D01*
X59373Y-41257D01*
X59373Y-41168D01*
X59377Y-41159D01*
X59383Y-41145D01*
X59383Y-41083D01*
X59377Y-41068D01*
X59373Y-41061D01*
X59373Y-40981D01*
X59377Y-40973D01*
X59387Y-40949D01*
X59387Y-40887D01*
X59377Y-40863D01*
X59374Y-40856D01*
X59374Y-40773D01*
X59377Y-40766D01*
X59383Y-40752D01*
X59383Y-40690D01*
X59377Y-40675D01*
X59374Y-40669D01*
X59374Y-40586D01*
X59377Y-40579D01*
X59387Y-40555D01*
X59387Y-40493D01*
X59377Y-40469D01*
X59374Y-40463D01*
X59374Y-40378D01*
X59377Y-40372D01*
X59383Y-40358D01*
X59383Y-40296D01*
X59377Y-40281D01*
X59374Y-40276D01*
X59374Y-40181D01*
X59377Y-40175D01*
X59383Y-40161D01*
X59383Y-40099D01*
X59377Y-40084D01*
X59375Y-40080D01*
X59375Y-39983D01*
X59377Y-39978D01*
X59383Y-39964D01*
X59383Y-39902D01*
X59377Y-39887D01*
X59375Y-39883D01*
X59375Y-39781D01*
X59377Y-39777D01*
X59383Y-39763D01*
X59383Y-39701D01*
X59377Y-39686D01*
X59375Y-39683D01*
X59375Y-39391D01*
X59377Y-39388D01*
X59383Y-39374D01*
X59383Y-39312D01*
X59377Y-39297D01*
X59376Y-39295D01*
X59376Y-39186D01*
X59377Y-39184D01*
X59380Y-39177D01*
X59380Y-39115D01*
X59377Y-39107D01*
X59376Y-39106D01*
X59376Y-38996D01*
X59377Y-38994D01*
X59383Y-38980D01*
X59383Y-38918D01*
X59377Y-38903D01*
X59376Y-38902D01*
X59376Y-38798D01*
X59377Y-38797D01*
X59383Y-38783D01*
X59383Y-38721D01*
X59377Y-38706D01*
X59376Y-38706D01*
X59377Y-38513D01*
X59324Y-38512D01*
X59324Y-38007D01*
X59324Y-37938D01*
X59298Y-37874D01*
X59249Y-37825D01*
X59185Y-37798D01*
X59116Y-37798D01*
X59052Y-37824D01*
X59003Y-37873D01*
X58976Y-37937D01*
X58976Y-38006D01*
X59002Y-38070D01*
X59051Y-38119D01*
X59115Y-38146D01*
X59184Y-38146D01*
X59248Y-38120D01*
X59297Y-38071D01*
X59324Y-38007D01*
X59324Y-38512D01*
X57995Y-38507D01*
X57978Y-38467D01*
X57935Y-38423D01*
X57878Y-38400D01*
X57816Y-38400D01*
X57759Y-38424D01*
X57715Y-38467D01*
X57698Y-38506D01*
X57210Y-38505D01*
X57194Y-38467D01*
X57151Y-38423D01*
X57094Y-38400D01*
X57032Y-38400D01*
X56975Y-38424D01*
X56964Y-38434D01*
X56954Y-38423D01*
X56897Y-38400D01*
X56835Y-38400D01*
X56778Y-38424D01*
X56767Y-38434D01*
X56757Y-38423D01*
X56749Y-38419D01*
X56749Y-38165D01*
X56749Y-38096D01*
X56723Y-38032D01*
X56674Y-37983D01*
X56610Y-37956D01*
X56541Y-37956D01*
X56477Y-37982D01*
X56451Y-38008D01*
X56418Y-37975D01*
X56354Y-37948D01*
X56285Y-37948D01*
X56284Y-37948D01*
X56284Y-35417D01*
X56284Y-35340D01*
X56255Y-35269D01*
X56201Y-35215D01*
X56130Y-35185D01*
X56053Y-35185D01*
X55982Y-35214D01*
X55928Y-35268D01*
X55898Y-35339D01*
X55898Y-35416D01*
X55927Y-35487D01*
X55981Y-35541D01*
X56052Y-35571D01*
X56129Y-35571D01*
X56200Y-35542D01*
X56254Y-35488D01*
X56284Y-35417D01*
X56284Y-37948D01*
X56221Y-37974D01*
X56172Y-38023D01*
X56158Y-38056D01*
X56158Y-38051D01*
X56158Y-37982D01*
X56155Y-37974D01*
X56155Y-37421D01*
X56155Y-37352D01*
X56129Y-37288D01*
X56080Y-37239D01*
X56016Y-37212D01*
X55947Y-37212D01*
X55883Y-37238D01*
X55834Y-37287D01*
X55812Y-37339D01*
X55812Y-36791D01*
X55812Y-36722D01*
X55786Y-36658D01*
X55772Y-36644D01*
X55772Y-35169D01*
X55772Y-35092D01*
X55743Y-35021D01*
X55689Y-34967D01*
X55618Y-34937D01*
X55541Y-34937D01*
X55470Y-34966D01*
X55416Y-35020D01*
X55386Y-35091D01*
X55386Y-35168D01*
X55415Y-35239D01*
X55469Y-35293D01*
X55540Y-35323D01*
X55617Y-35323D01*
X55688Y-35294D01*
X55742Y-35240D01*
X55772Y-35169D01*
X55772Y-36644D01*
X55737Y-36609D01*
X55673Y-36582D01*
X55604Y-36582D01*
X55540Y-36608D01*
X55491Y-36657D01*
X55464Y-36721D01*
X55464Y-36790D01*
X55490Y-36854D01*
X55539Y-36903D01*
X55603Y-36930D01*
X55672Y-36930D01*
X55736Y-36904D01*
X55785Y-36855D01*
X55812Y-36791D01*
X55812Y-37339D01*
X55807Y-37351D01*
X55807Y-37420D01*
X55833Y-37484D01*
X55882Y-37533D01*
X55946Y-37560D01*
X56015Y-37560D01*
X56079Y-37534D01*
X56128Y-37485D01*
X56155Y-37421D01*
X56155Y-37974D01*
X56132Y-37918D01*
X56083Y-37869D01*
X56019Y-37842D01*
X55950Y-37842D01*
X55886Y-37868D01*
X55837Y-37917D01*
X55810Y-37981D01*
X55810Y-38050D01*
X55836Y-38114D01*
X55885Y-38163D01*
X55949Y-38190D01*
X56018Y-38190D01*
X56082Y-38164D01*
X56131Y-38115D01*
X56158Y-38051D01*
X56158Y-38056D01*
X56145Y-38087D01*
X56145Y-38156D01*
X56171Y-38220D01*
X56220Y-38269D01*
X56284Y-38296D01*
X56353Y-38296D01*
X56417Y-38270D01*
X56443Y-38244D01*
X56476Y-38277D01*
X56540Y-38304D01*
X56609Y-38304D01*
X56673Y-38278D01*
X56722Y-38229D01*
X56749Y-38165D01*
X56749Y-38419D01*
X56700Y-38400D01*
X56638Y-38400D01*
X56581Y-38424D01*
X56537Y-38467D01*
X56522Y-38502D01*
X56123Y-38501D01*
X56121Y-38714D01*
X56121Y-38717D01*
X56121Y-38779D01*
X56121Y-38780D01*
X56114Y-40182D01*
X56107Y-40183D01*
X56107Y-38563D01*
X56107Y-38494D01*
X56081Y-38430D01*
X56032Y-38381D01*
X55968Y-38354D01*
X55899Y-38354D01*
X55835Y-38380D01*
X55786Y-38429D01*
X55759Y-38493D01*
X55759Y-38562D01*
X55785Y-38626D01*
X55834Y-38675D01*
X55898Y-38702D01*
X55967Y-38702D01*
X56031Y-38676D01*
X56080Y-38627D01*
X56107Y-38563D01*
X56107Y-40183D01*
X56101Y-40185D01*
X56068Y-40207D01*
X56052Y-40218D01*
X56051Y-40218D01*
X56051Y-40219D01*
X56005Y-40265D01*
X56005Y-39082D01*
X56005Y-39013D01*
X55979Y-38949D01*
X55930Y-38900D01*
X55866Y-38873D01*
X55797Y-38873D01*
X55733Y-38899D01*
X55702Y-38929D01*
X55654Y-38881D01*
X55590Y-38854D01*
X55521Y-38854D01*
X55457Y-38880D01*
X55408Y-38929D01*
X55381Y-38993D01*
X55381Y-39062D01*
X55407Y-39126D01*
X55456Y-39175D01*
X55520Y-39202D01*
X55589Y-39202D01*
X55653Y-39176D01*
X55683Y-39145D01*
X55732Y-39194D01*
X55796Y-39221D01*
X55865Y-39221D01*
X55929Y-39195D01*
X55978Y-39146D01*
X56005Y-39082D01*
X56005Y-40265D01*
X55973Y-40298D01*
X55946Y-40338D01*
X55946Y-40267D01*
X55946Y-40198D01*
X55920Y-40134D01*
X55910Y-40124D01*
X55910Y-39866D01*
X55910Y-39797D01*
X55884Y-39733D01*
X55883Y-39732D01*
X55883Y-39480D01*
X55883Y-39411D01*
X55857Y-39347D01*
X55808Y-39298D01*
X55744Y-39271D01*
X55675Y-39271D01*
X55611Y-39297D01*
X55562Y-39346D01*
X55535Y-39410D01*
X55535Y-39479D01*
X55561Y-39543D01*
X55610Y-39592D01*
X55674Y-39619D01*
X55743Y-39619D01*
X55807Y-39593D01*
X55856Y-39544D01*
X55883Y-39480D01*
X55883Y-39732D01*
X55835Y-39684D01*
X55771Y-39657D01*
X55702Y-39657D01*
X55638Y-39683D01*
X55589Y-39732D01*
X55568Y-39781D01*
X55568Y-39673D01*
X55568Y-39604D01*
X55542Y-39540D01*
X55493Y-39491D01*
X55429Y-39464D01*
X55360Y-39464D01*
X55296Y-39490D01*
X55247Y-39539D01*
X55220Y-39603D01*
X55220Y-39672D01*
X55246Y-39736D01*
X55295Y-39785D01*
X55359Y-39812D01*
X55428Y-39812D01*
X55492Y-39786D01*
X55541Y-39737D01*
X55568Y-39673D01*
X55568Y-39781D01*
X55562Y-39796D01*
X55562Y-39865D01*
X55588Y-39929D01*
X55637Y-39978D01*
X55701Y-40005D01*
X55770Y-40005D01*
X55834Y-39979D01*
X55883Y-39930D01*
X55910Y-39866D01*
X55910Y-40124D01*
X55871Y-40085D01*
X55807Y-40058D01*
X55738Y-40058D01*
X55674Y-40084D01*
X55625Y-40133D01*
X55598Y-40197D01*
X55598Y-40266D01*
X55624Y-40330D01*
X55673Y-40379D01*
X55737Y-40406D01*
X55806Y-40406D01*
X55870Y-40380D01*
X55919Y-40331D01*
X55946Y-40267D01*
X55946Y-40338D01*
X55940Y-40348D01*
X55931Y-40395D01*
X55929Y-40406D01*
X55929Y-40407D01*
X55929Y-40843D01*
X55925Y-40842D01*
X55875Y-40842D01*
X55875Y-40653D01*
X55875Y-40584D01*
X55849Y-40520D01*
X55800Y-40471D01*
X55736Y-40444D01*
X55667Y-40444D01*
X55603Y-40470D01*
X55554Y-40519D01*
X55527Y-40583D01*
X55527Y-40652D01*
X55553Y-40716D01*
X55602Y-40765D01*
X55666Y-40792D01*
X55735Y-40792D01*
X55799Y-40766D01*
X55848Y-40717D01*
X55875Y-40653D01*
X55875Y-40842D01*
X55856Y-40842D01*
X55792Y-40868D01*
X55743Y-40917D01*
X55716Y-40981D01*
X55716Y-41050D01*
X55742Y-41114D01*
X55791Y-41163D01*
X55855Y-41190D01*
X55924Y-41190D01*
X55929Y-41187D01*
X55929Y-41274D01*
X55914Y-41259D01*
X55850Y-41232D01*
X55781Y-41232D01*
X55717Y-41258D01*
X55668Y-41307D01*
X55641Y-41371D01*
X55641Y-41440D01*
X55667Y-41504D01*
X55716Y-41553D01*
X55780Y-41580D01*
X55849Y-41580D01*
X55913Y-41554D01*
X55929Y-41538D01*
X55929Y-42795D01*
X55929Y-42798D01*
X55929Y-42804D01*
X55937Y-42837D01*
X55941Y-42854D01*
X55942Y-42856D01*
X55944Y-42862D01*
X55963Y-42887D01*
X55974Y-42904D01*
X55976Y-42905D01*
X55980Y-42910D01*
X56097Y-43014D01*
X56112Y-43051D01*
X56161Y-43100D01*
X56225Y-43127D01*
X56294Y-43127D01*
X56358Y-43101D01*
X56407Y-43052D01*
X56434Y-42988D01*
X56434Y-42919D01*
X56408Y-42855D01*
X56359Y-42806D01*
X56297Y-42780D01*
X56237Y-42725D01*
X56237Y-42097D01*
X56268Y-42111D01*
X56337Y-42111D01*
X56401Y-42085D01*
X56450Y-42036D01*
X56477Y-41972D01*
X56477Y-41903D01*
X56451Y-41839D01*
X56402Y-41790D01*
X56338Y-41763D01*
X56269Y-41763D01*
X56237Y-41776D01*
X56237Y-41677D01*
X59156Y-41677D01*
X59125Y-41708D01*
X59098Y-41772D01*
X59098Y-41841D01*
X59124Y-41905D01*
X59160Y-41941D01*
X59134Y-41968D01*
X59107Y-42032D01*
X59107Y-42101D01*
X59133Y-42165D01*
X59182Y-42214D01*
X59246Y-42241D01*
X59315Y-42241D01*
X59377Y-42215D01*
X59379Y-42215D01*
X59428Y-42166D01*
X59455Y-42102D01*
X59455Y-43682D01*
X59377Y-43682D01*
X59358Y-43682D01*
X58914Y-43682D01*
X58914Y-42004D01*
X58914Y-41935D01*
X58888Y-41871D01*
X58839Y-41822D01*
X58775Y-41795D01*
X58706Y-41795D01*
X58642Y-41821D01*
X58636Y-41827D01*
X58635Y-41826D01*
X58571Y-41799D01*
X58502Y-41799D01*
X58438Y-41825D01*
X58389Y-41874D01*
X58362Y-41938D01*
X58362Y-42007D01*
X58388Y-42071D01*
X58437Y-42120D01*
X58501Y-42147D01*
X58570Y-42147D01*
X58634Y-42121D01*
X58640Y-42115D01*
X58641Y-42116D01*
X58705Y-42143D01*
X58774Y-42143D01*
X58838Y-42117D01*
X58887Y-42068D01*
X58914Y-42004D01*
X58914Y-43682D01*
X58447Y-43682D01*
X58511Y-43656D01*
X58560Y-43607D01*
X58587Y-43543D01*
X58587Y-43474D01*
X58561Y-43410D01*
X58512Y-43361D01*
X58448Y-43334D01*
X58379Y-43334D01*
X58315Y-43360D01*
X58266Y-43409D01*
X58239Y-43473D01*
X58239Y-43542D01*
X58265Y-43606D01*
X58314Y-43655D01*
X58378Y-43682D01*
X57639Y-43682D01*
X57639Y-41972D01*
X57639Y-41903D01*
X57613Y-41839D01*
X57564Y-41790D01*
X57500Y-41763D01*
X57431Y-41763D01*
X57367Y-41789D01*
X57318Y-41838D01*
X57291Y-41902D01*
X57291Y-41918D01*
X57240Y-41897D01*
X57171Y-41897D01*
X57107Y-41923D01*
X57087Y-41943D01*
X57056Y-41912D01*
X56992Y-41885D01*
X56923Y-41885D01*
X56859Y-41911D01*
X56810Y-41960D01*
X56783Y-42024D01*
X56783Y-42093D01*
X56809Y-42157D01*
X56858Y-42206D01*
X56922Y-42233D01*
X56991Y-42233D01*
X57055Y-42207D01*
X57075Y-42187D01*
X57106Y-42218D01*
X57170Y-42245D01*
X57239Y-42245D01*
X57303Y-42219D01*
X57352Y-42170D01*
X57379Y-42106D01*
X57379Y-42089D01*
X57430Y-42111D01*
X57499Y-42111D01*
X57563Y-42085D01*
X57612Y-42036D01*
X57639Y-41972D01*
X57639Y-43682D01*
X56890Y-43682D01*
X56938Y-43634D01*
X56965Y-43570D01*
X56965Y-43501D01*
X56939Y-43437D01*
X56890Y-43388D01*
X56828Y-43361D01*
X56892Y-43336D01*
X56946Y-43282D01*
X56975Y-43211D01*
X56975Y-43135D01*
X56946Y-43064D01*
X56892Y-43010D01*
X56821Y-42981D01*
X56745Y-42981D01*
X56674Y-43010D01*
X56620Y-43064D01*
X56591Y-43135D01*
X56591Y-43153D01*
X56289Y-43477D01*
X56273Y-43503D01*
X56260Y-43523D01*
X56259Y-43525D01*
X56258Y-43528D01*
X56253Y-43557D01*
X56248Y-43582D01*
X56248Y-43587D01*
X56248Y-43682D01*
X55976Y-43682D01*
X55940Y-43718D01*
X55940Y-43550D01*
X55940Y-43474D01*
X55911Y-43403D01*
X55892Y-43384D01*
X55892Y-43003D01*
X55892Y-42934D01*
X55879Y-42902D01*
X55879Y-41874D01*
X55879Y-41805D01*
X55853Y-41741D01*
X55804Y-41692D01*
X55740Y-41665D01*
X55671Y-41665D01*
X55607Y-41691D01*
X55571Y-41726D01*
X55544Y-41699D01*
X55540Y-41697D01*
X55540Y-40854D01*
X55540Y-40785D01*
X55514Y-40721D01*
X55477Y-40684D01*
X55477Y-40067D01*
X55477Y-39998D01*
X55451Y-39934D01*
X55402Y-39885D01*
X55338Y-39858D01*
X55269Y-39858D01*
X55205Y-39884D01*
X55156Y-39933D01*
X55129Y-39997D01*
X55129Y-40066D01*
X55155Y-40130D01*
X55204Y-40179D01*
X55268Y-40206D01*
X55337Y-40206D01*
X55401Y-40180D01*
X55450Y-40131D01*
X55477Y-40067D01*
X55477Y-40684D01*
X55465Y-40672D01*
X55462Y-40670D01*
X55462Y-40456D01*
X55462Y-40387D01*
X55436Y-40323D01*
X55387Y-40274D01*
X55323Y-40247D01*
X55254Y-40247D01*
X55190Y-40273D01*
X55141Y-40322D01*
X55114Y-40386D01*
X55114Y-40455D01*
X55140Y-40519D01*
X55189Y-40568D01*
X55253Y-40595D01*
X55322Y-40595D01*
X55386Y-40569D01*
X55435Y-40520D01*
X55462Y-40456D01*
X55462Y-40670D01*
X55401Y-40645D01*
X55332Y-40645D01*
X55268Y-40671D01*
X55219Y-40720D01*
X55192Y-40784D01*
X55192Y-40853D01*
X55218Y-40917D01*
X55267Y-40966D01*
X55331Y-40993D01*
X55400Y-40993D01*
X55464Y-40967D01*
X55513Y-40918D01*
X55540Y-40854D01*
X55540Y-41697D01*
X55480Y-41672D01*
X55434Y-41672D01*
X55434Y-41244D01*
X55434Y-41175D01*
X55408Y-41111D01*
X55359Y-41062D01*
X55295Y-41035D01*
X55226Y-41035D01*
X55162Y-41061D01*
X55113Y-41110D01*
X55086Y-41174D01*
X55086Y-41243D01*
X55112Y-41307D01*
X55161Y-41356D01*
X55225Y-41383D01*
X55294Y-41383D01*
X55358Y-41357D01*
X55407Y-41308D01*
X55434Y-41244D01*
X55434Y-41672D01*
X55411Y-41672D01*
X55347Y-41698D01*
X55298Y-41747D01*
X55271Y-41811D01*
X55271Y-41880D01*
X55297Y-41944D01*
X55346Y-41993D01*
X55410Y-42020D01*
X55479Y-42020D01*
X55543Y-41994D01*
X55578Y-41958D01*
X55606Y-41986D01*
X55670Y-42013D01*
X55739Y-42013D01*
X55803Y-41987D01*
X55852Y-41938D01*
X55879Y-41874D01*
X55879Y-42902D01*
X55866Y-42870D01*
X55817Y-42821D01*
X55753Y-42794D01*
X55684Y-42794D01*
X55620Y-42820D01*
X55571Y-42869D01*
X55549Y-42919D01*
X55488Y-42893D01*
X55419Y-42893D01*
X55355Y-42919D01*
X55339Y-42935D01*
X55324Y-42920D01*
X55260Y-42893D01*
X55191Y-42893D01*
X55127Y-42919D01*
X55106Y-42939D01*
X55083Y-42916D01*
X55019Y-42889D01*
X54950Y-42889D01*
X54910Y-42905D01*
X54910Y-36366D01*
X54910Y-36297D01*
X54884Y-36233D01*
X54846Y-36195D01*
X54868Y-36174D01*
X54895Y-36110D01*
X54895Y-36041D01*
X54869Y-35977D01*
X54820Y-35928D01*
X54756Y-35901D01*
X54687Y-35901D01*
X54623Y-35927D01*
X54574Y-35976D01*
X54547Y-36040D01*
X54547Y-36109D01*
X54573Y-36173D01*
X54610Y-36210D01*
X54589Y-36232D01*
X54562Y-36296D01*
X54562Y-36365D01*
X54588Y-36429D01*
X54637Y-36478D01*
X54701Y-36505D01*
X54770Y-36505D01*
X54834Y-36479D01*
X54883Y-36430D01*
X54910Y-36366D01*
X54910Y-42905D01*
X54886Y-42915D01*
X54856Y-42944D01*
X54820Y-42908D01*
X54756Y-42881D01*
X54690Y-42881D01*
X54690Y-38208D01*
X54690Y-38139D01*
X54664Y-38075D01*
X54615Y-38026D01*
X54590Y-38015D01*
X54614Y-38006D01*
X54663Y-37957D01*
X54690Y-37893D01*
X54690Y-37824D01*
X54664Y-37760D01*
X54627Y-37723D01*
X54627Y-37354D01*
X54627Y-37285D01*
X54601Y-37221D01*
X54552Y-37172D01*
X54488Y-37145D01*
X54419Y-37145D01*
X54355Y-37171D01*
X54306Y-37220D01*
X54279Y-37284D01*
X54279Y-37353D01*
X54305Y-37417D01*
X54354Y-37466D01*
X54418Y-37493D01*
X54487Y-37493D01*
X54551Y-37467D01*
X54600Y-37418D01*
X54627Y-37354D01*
X54627Y-37723D01*
X54615Y-37711D01*
X54551Y-37684D01*
X54482Y-37684D01*
X54418Y-37710D01*
X54369Y-37759D01*
X54342Y-37823D01*
X54342Y-37892D01*
X54368Y-37956D01*
X54417Y-38005D01*
X54441Y-38015D01*
X54418Y-38025D01*
X54369Y-38074D01*
X54342Y-38138D01*
X54342Y-38207D01*
X54368Y-38271D01*
X54417Y-38320D01*
X54481Y-38347D01*
X54550Y-38347D01*
X54614Y-38321D01*
X54663Y-38272D01*
X54690Y-38208D01*
X54690Y-42881D01*
X54687Y-42881D01*
X54623Y-42907D01*
X54574Y-42956D01*
X54547Y-43020D01*
X54547Y-43089D01*
X54573Y-43153D01*
X54622Y-43202D01*
X54686Y-43229D01*
X54755Y-43229D01*
X54819Y-43203D01*
X54848Y-43173D01*
X54885Y-43210D01*
X54949Y-43237D01*
X55018Y-43237D01*
X55082Y-43211D01*
X55102Y-43190D01*
X55126Y-43214D01*
X55190Y-43241D01*
X55259Y-43241D01*
X55323Y-43215D01*
X55339Y-43199D01*
X55354Y-43214D01*
X55418Y-43241D01*
X55487Y-43241D01*
X55551Y-43215D01*
X55600Y-43166D01*
X55621Y-43115D01*
X55683Y-43142D01*
X55752Y-43142D01*
X55816Y-43116D01*
X55865Y-43067D01*
X55892Y-43003D01*
X55892Y-43384D01*
X55857Y-43349D01*
X55786Y-43320D01*
X55710Y-43320D01*
X55639Y-43349D01*
X55602Y-43385D01*
X55598Y-43374D01*
X55549Y-43325D01*
X55485Y-43298D01*
X55416Y-43298D01*
X55352Y-43324D01*
X55303Y-43373D01*
X55276Y-43437D01*
X55276Y-43506D01*
X55302Y-43570D01*
X55351Y-43619D01*
X55415Y-43646D01*
X55484Y-43646D01*
X55548Y-43620D01*
X55573Y-43594D01*
X55585Y-43621D01*
X55639Y-43675D01*
X55710Y-43704D01*
X55786Y-43704D01*
X55857Y-43675D01*
X55911Y-43621D01*
X55940Y-43550D01*
X55940Y-43718D01*
X55847Y-43811D01*
X55847Y-44102D01*
X55976Y-44232D01*
X58552Y-44232D01*
X58528Y-44242D01*
X58479Y-44291D01*
X58452Y-44355D01*
X58452Y-44424D01*
X58478Y-44488D01*
X58527Y-44537D01*
X58591Y-44564D01*
X58660Y-44564D01*
X58724Y-44538D01*
X58773Y-44489D01*
X58800Y-44425D01*
X58800Y-44356D01*
X58774Y-44292D01*
X58725Y-44243D01*
X58698Y-44232D01*
X59805Y-44232D01*
X59787Y-44276D01*
X59787Y-44345D01*
X59813Y-44409D01*
X59862Y-44458D01*
X59926Y-44485D01*
X59995Y-44485D01*
X60059Y-44459D01*
X60108Y-44410D01*
X60135Y-44346D01*
X60135Y-44277D01*
X60116Y-44232D01*
X61110Y-44232D01*
X61569Y-43793D01*
X61547Y-43847D01*
X61547Y-43916D01*
X61573Y-43980D01*
X61622Y-44029D01*
X61686Y-44056D01*
X61755Y-44056D01*
X61819Y-44030D01*
X61868Y-43981D01*
X61895Y-43917D01*
X61895Y-43848D01*
X61869Y-43784D01*
X61820Y-43735D01*
X61756Y-43708D01*
X61687Y-43708D01*
X61638Y-43727D01*
X61910Y-43469D01*
X61910Y-46190D01*
X61908Y-46186D01*
X61859Y-46137D01*
X61855Y-46135D01*
X61855Y-44390D01*
X61855Y-44321D01*
X61829Y-44257D01*
X61780Y-44208D01*
X61716Y-44181D01*
X61647Y-44181D01*
X61583Y-44207D01*
X61534Y-44256D01*
X61507Y-44320D01*
X61507Y-44389D01*
X61533Y-44453D01*
X61582Y-44502D01*
X61646Y-44529D01*
X61715Y-44529D01*
X61779Y-44503D01*
X61828Y-44454D01*
X61855Y-44390D01*
X61855Y-46135D01*
X61795Y-46110D01*
X61788Y-46110D01*
X61788Y-45326D01*
X61788Y-45257D01*
X61762Y-45193D01*
X61713Y-45144D01*
X61649Y-45117D01*
X61580Y-45117D01*
X61537Y-45134D01*
X61537Y-45040D01*
X61537Y-44971D01*
X61511Y-44907D01*
X61462Y-44858D01*
X61398Y-44831D01*
X61343Y-44831D01*
X61343Y-44508D01*
X61343Y-44439D01*
X61317Y-44375D01*
X61268Y-44326D01*
X61204Y-44299D01*
X61135Y-44299D01*
X61071Y-44325D01*
X61022Y-44374D01*
X60995Y-44438D01*
X60995Y-44507D01*
X61021Y-44571D01*
X61070Y-44620D01*
X61134Y-44647D01*
X61203Y-44647D01*
X61267Y-44621D01*
X61316Y-44572D01*
X61343Y-44508D01*
X61343Y-44831D01*
X61329Y-44831D01*
X61265Y-44857D01*
X61216Y-44906D01*
X61189Y-44970D01*
X61189Y-45039D01*
X61215Y-45103D01*
X61257Y-45145D01*
X61193Y-45118D01*
X61138Y-45118D01*
X61160Y-45096D01*
X61187Y-45032D01*
X61187Y-44963D01*
X61161Y-44899D01*
X61112Y-44850D01*
X61048Y-44823D01*
X60979Y-44823D01*
X60915Y-44849D01*
X60866Y-44898D01*
X60839Y-44962D01*
X60839Y-45031D01*
X60865Y-45095D01*
X60914Y-45144D01*
X60978Y-45171D01*
X61033Y-45171D01*
X61011Y-45193D01*
X60984Y-45257D01*
X60984Y-45326D01*
X61010Y-45390D01*
X61059Y-45439D01*
X61123Y-45466D01*
X61192Y-45466D01*
X61256Y-45440D01*
X61305Y-45391D01*
X61332Y-45327D01*
X61332Y-45258D01*
X61306Y-45194D01*
X61264Y-45152D01*
X61328Y-45179D01*
X61397Y-45179D01*
X61461Y-45153D01*
X61510Y-45104D01*
X61537Y-45040D01*
X61537Y-45134D01*
X61516Y-45143D01*
X61467Y-45192D01*
X61440Y-45256D01*
X61440Y-45325D01*
X61466Y-45389D01*
X61515Y-45438D01*
X61579Y-45465D01*
X61648Y-45465D01*
X61712Y-45439D01*
X61761Y-45390D01*
X61788Y-45326D01*
X61788Y-46110D01*
X61726Y-46110D01*
X61662Y-46136D01*
X61613Y-46185D01*
X61586Y-46249D01*
X61586Y-46318D01*
X61612Y-46382D01*
X61661Y-46431D01*
X61725Y-46458D01*
X61750Y-46458D01*
X61580Y-46636D01*
X61580Y-46319D01*
X61580Y-46250D01*
X61554Y-46186D01*
X61505Y-46137D01*
X61441Y-46110D01*
X61372Y-46110D01*
X61308Y-46136D01*
X61259Y-46185D01*
X61232Y-46249D01*
X61232Y-46318D01*
X61258Y-46382D01*
X61307Y-46431D01*
X61371Y-46458D01*
X61440Y-46458D01*
X61504Y-46432D01*
X61553Y-46383D01*
X61580Y-46319D01*
X61580Y-46636D01*
X61186Y-47049D01*
X61186Y-46976D01*
X61186Y-46907D01*
X61160Y-46843D01*
X61111Y-46794D01*
X61047Y-46767D01*
X60978Y-46767D01*
X60914Y-46793D01*
X60865Y-46842D01*
X60838Y-46906D01*
X60838Y-46975D01*
X60864Y-47039D01*
X60913Y-47088D01*
X60977Y-47115D01*
X61046Y-47115D01*
X61110Y-47089D01*
X61159Y-47040D01*
X61186Y-46976D01*
X61186Y-47049D01*
X61094Y-47146D01*
X60705Y-47146D01*
X60705Y-45330D01*
X60705Y-45261D01*
X60679Y-45197D01*
X60646Y-45164D01*
X60646Y-44496D01*
X60646Y-44427D01*
X60620Y-44363D01*
X60571Y-44314D01*
X60507Y-44287D01*
X60438Y-44287D01*
X60374Y-44313D01*
X60325Y-44362D01*
X60298Y-44426D01*
X60298Y-44495D01*
X60324Y-44559D01*
X60373Y-44608D01*
X60437Y-44635D01*
X60506Y-44635D01*
X60570Y-44609D01*
X60619Y-44560D01*
X60646Y-44496D01*
X60646Y-45164D01*
X60630Y-45148D01*
X60566Y-45121D01*
X60497Y-45121D01*
X60433Y-45147D01*
X60384Y-45196D01*
X60357Y-45260D01*
X60357Y-45329D01*
X60383Y-45393D01*
X60432Y-45442D01*
X60496Y-45469D01*
X60565Y-45469D01*
X60629Y-45443D01*
X60678Y-45394D01*
X60705Y-45330D01*
X60705Y-47146D01*
X59591Y-47146D01*
X59591Y-46441D01*
X59591Y-46372D01*
X59565Y-46308D01*
X59516Y-46259D01*
X59452Y-46232D01*
X59383Y-46232D01*
X59319Y-46258D01*
X59270Y-46307D01*
X59243Y-46371D01*
X59243Y-46440D01*
X59269Y-46504D01*
X59318Y-46553D01*
X59382Y-46580D01*
X59451Y-46580D01*
X59515Y-46554D01*
X59564Y-46505D01*
X59591Y-46441D01*
X59591Y-47146D01*
X58808Y-47146D01*
X58808Y-45268D01*
X58808Y-45192D01*
X58779Y-45121D01*
X58725Y-45067D01*
X58654Y-45038D01*
X58578Y-45038D01*
X58507Y-45067D01*
X58453Y-45121D01*
X58424Y-45192D01*
X58424Y-45268D01*
X58453Y-45339D01*
X58507Y-45393D01*
X58578Y-45422D01*
X58654Y-45422D01*
X58725Y-45393D01*
X58779Y-45339D01*
X58808Y-45268D01*
X58808Y-47146D01*
X58639Y-47146D01*
X58639Y-46885D01*
X58639Y-46816D01*
X58613Y-46752D01*
X58564Y-46703D01*
X58500Y-46676D01*
X58431Y-46676D01*
X58367Y-46702D01*
X58318Y-46751D01*
X58291Y-46815D01*
X58291Y-46884D01*
X58317Y-46948D01*
X58366Y-46997D01*
X58430Y-47024D01*
X58499Y-47024D01*
X58563Y-46998D01*
X58612Y-46949D01*
X58639Y-46885D01*
X58639Y-47146D01*
X58273Y-47146D01*
X58273Y-46870D01*
X58273Y-46801D01*
X58247Y-46737D01*
X58198Y-46688D01*
X58134Y-46661D01*
X58065Y-46661D01*
X58001Y-46687D01*
X57952Y-46736D01*
X57925Y-46800D01*
X57925Y-46869D01*
X57951Y-46933D01*
X58000Y-46982D01*
X58064Y-47009D01*
X58133Y-47009D01*
X58197Y-46983D01*
X58246Y-46934D01*
X58273Y-46870D01*
X58273Y-47146D01*
X57860Y-47146D01*
X57860Y-44556D01*
X57860Y-44480D01*
X57831Y-44409D01*
X57777Y-44355D01*
X57706Y-44326D01*
X57630Y-44326D01*
X57559Y-44355D01*
X57505Y-44409D01*
X57476Y-44480D01*
X57476Y-44556D01*
X57505Y-44627D01*
X57547Y-44669D01*
X57500Y-44689D01*
X57451Y-44738D01*
X57424Y-44802D01*
X57424Y-44871D01*
X57450Y-44935D01*
X57499Y-44984D01*
X57523Y-44994D01*
X57500Y-45004D01*
X57451Y-45053D01*
X57424Y-45117D01*
X57424Y-45186D01*
X57450Y-45250D01*
X57499Y-45299D01*
X57563Y-45326D01*
X57632Y-45326D01*
X57696Y-45300D01*
X57745Y-45251D01*
X57772Y-45187D01*
X57772Y-45118D01*
X57746Y-45054D01*
X57697Y-45005D01*
X57672Y-44994D01*
X57696Y-44985D01*
X57745Y-44936D01*
X57772Y-44872D01*
X57772Y-44803D01*
X57746Y-44739D01*
X57713Y-44706D01*
X57777Y-44681D01*
X57831Y-44627D01*
X57860Y-44556D01*
X57860Y-47146D01*
X57721Y-47146D01*
X57721Y-46870D01*
X57721Y-46801D01*
X57695Y-46737D01*
X57646Y-46688D01*
X57582Y-46661D01*
X57513Y-46661D01*
X57449Y-46687D01*
X57400Y-46736D01*
X57373Y-46800D01*
X57373Y-46869D01*
X57399Y-46933D01*
X57448Y-46982D01*
X57512Y-47009D01*
X57581Y-47009D01*
X57645Y-46983D01*
X57694Y-46934D01*
X57721Y-46870D01*
X57721Y-47146D01*
X57170Y-47146D01*
X57170Y-46870D01*
X57170Y-46801D01*
X57170Y-46319D01*
X57170Y-46250D01*
X57144Y-46186D01*
X57095Y-46137D01*
X57031Y-46110D01*
X56962Y-46110D01*
X56898Y-46136D01*
X56849Y-46185D01*
X56822Y-46249D01*
X56822Y-46318D01*
X56848Y-46382D01*
X56897Y-46431D01*
X56961Y-46458D01*
X57030Y-46458D01*
X57094Y-46432D01*
X57143Y-46383D01*
X57170Y-46319D01*
X57170Y-46801D01*
X57144Y-46737D01*
X57095Y-46688D01*
X57031Y-46661D01*
X56962Y-46661D01*
X56898Y-46687D01*
X56849Y-46736D01*
X56822Y-46800D01*
X56822Y-46869D01*
X56848Y-46933D01*
X56897Y-46982D01*
X56961Y-47009D01*
X57030Y-47009D01*
X57094Y-46983D01*
X57143Y-46934D01*
X57170Y-46870D01*
X57170Y-47146D01*
X56816Y-47146D01*
X56816Y-46319D01*
X56816Y-46250D01*
X56790Y-46186D01*
X56741Y-46137D01*
X56677Y-46110D01*
X56608Y-46110D01*
X56544Y-46136D01*
X56495Y-46185D01*
X56468Y-46249D01*
X56468Y-46318D01*
X56494Y-46382D01*
X56543Y-46431D01*
X56607Y-46458D01*
X56676Y-46458D01*
X56740Y-46432D01*
X56789Y-46383D01*
X56816Y-46319D01*
X56816Y-47146D01*
X56658Y-47146D01*
X56658Y-46870D01*
X56658Y-46801D01*
X56632Y-46737D01*
X56583Y-46688D01*
X56519Y-46661D01*
X56450Y-46661D01*
X56423Y-46671D01*
X56423Y-44901D01*
X56423Y-44832D01*
X56397Y-44768D01*
X56348Y-44719D01*
X56284Y-44692D01*
X56215Y-44692D01*
X56151Y-44718D01*
X56102Y-44767D01*
X56075Y-44831D01*
X56075Y-44900D01*
X56101Y-44964D01*
X56150Y-45013D01*
X56214Y-45040D01*
X56283Y-45040D01*
X56347Y-45014D01*
X56396Y-44965D01*
X56423Y-44901D01*
X56423Y-46671D01*
X56386Y-46687D01*
X56337Y-46736D01*
X56310Y-46800D01*
X56310Y-46869D01*
X56336Y-46933D01*
X56385Y-46982D01*
X56449Y-47009D01*
X56518Y-47009D01*
X56582Y-46983D01*
X56631Y-46934D01*
X56658Y-46870D01*
X56658Y-47146D01*
X56186Y-47146D01*
X56186Y-46870D01*
X56186Y-46801D01*
X56160Y-46737D01*
X56111Y-46688D01*
X56047Y-46661D01*
X55978Y-46661D01*
X55914Y-46687D01*
X55865Y-46736D01*
X55838Y-46800D01*
X55838Y-46869D01*
X55864Y-46933D01*
X55913Y-46982D01*
X55977Y-47009D01*
X56046Y-47009D01*
X56110Y-46983D01*
X56159Y-46934D01*
X56186Y-46870D01*
X56186Y-47146D01*
X55953Y-47146D01*
X55832Y-47026D01*
X55832Y-44901D01*
X55832Y-44832D01*
X55806Y-44768D01*
X55757Y-44719D01*
X55693Y-44692D01*
X55624Y-44692D01*
X55560Y-44718D01*
X55511Y-44767D01*
X55484Y-44831D01*
X55484Y-44900D01*
X55510Y-44964D01*
X55559Y-45013D01*
X55623Y-45040D01*
X55692Y-45040D01*
X55756Y-45014D01*
X55805Y-44965D01*
X55832Y-44901D01*
X55832Y-47026D01*
X55409Y-46609D01*
X55409Y-45026D01*
X55409Y-44950D01*
X55380Y-44879D01*
X55326Y-44825D01*
X55255Y-44796D01*
X55202Y-44796D01*
X55202Y-44271D01*
X55202Y-44202D01*
X55176Y-44138D01*
X55127Y-44089D01*
X55063Y-44062D01*
X54994Y-44062D01*
X54930Y-44088D01*
X54930Y-43944D01*
X54930Y-43875D01*
X54904Y-43811D01*
X54855Y-43762D01*
X54791Y-43735D01*
X54722Y-43735D01*
X54658Y-43761D01*
X54631Y-43788D01*
X54631Y-43512D01*
X54631Y-43443D01*
X54605Y-43379D01*
X54556Y-43330D01*
X54492Y-43303D01*
X54423Y-43303D01*
X54422Y-43303D01*
X54422Y-41287D01*
X54422Y-41218D01*
X54396Y-41154D01*
X54347Y-41105D01*
X54283Y-41078D01*
X54214Y-41078D01*
X54179Y-41092D01*
X54179Y-37893D01*
X54179Y-37824D01*
X54153Y-37760D01*
X54104Y-37711D01*
X54040Y-37684D01*
X53971Y-37684D01*
X53907Y-37710D01*
X53858Y-37759D01*
X53831Y-37823D01*
X53831Y-37892D01*
X53857Y-37956D01*
X53906Y-38005D01*
X53970Y-38032D01*
X54039Y-38032D01*
X54103Y-38006D01*
X54152Y-37957D01*
X54179Y-37893D01*
X54179Y-41092D01*
X54150Y-41104D01*
X54101Y-41153D01*
X54087Y-41185D01*
X54073Y-41150D01*
X54024Y-41101D01*
X53960Y-41074D01*
X53891Y-41074D01*
X53836Y-41096D01*
X53836Y-38590D01*
X53836Y-38521D01*
X53810Y-38457D01*
X53808Y-38455D01*
X53809Y-38454D01*
X53836Y-38390D01*
X53836Y-38321D01*
X53810Y-38257D01*
X53761Y-38208D01*
X53697Y-38181D01*
X53628Y-38181D01*
X53564Y-38207D01*
X53515Y-38256D01*
X53488Y-38320D01*
X53488Y-38389D01*
X53514Y-38453D01*
X53516Y-38455D01*
X53515Y-38456D01*
X53488Y-38520D01*
X53488Y-38589D01*
X53514Y-38653D01*
X53563Y-38702D01*
X53627Y-38729D01*
X53696Y-38729D01*
X53760Y-38703D01*
X53809Y-38654D01*
X53836Y-38590D01*
X53836Y-41096D01*
X53827Y-41100D01*
X53778Y-41149D01*
X53760Y-41190D01*
X53739Y-41138D01*
X53735Y-41134D01*
X53761Y-41075D01*
X53761Y-41006D01*
X53735Y-40942D01*
X53686Y-40893D01*
X53622Y-40866D01*
X53553Y-40866D01*
X53489Y-40892D01*
X53440Y-40941D01*
X53413Y-41005D01*
X53413Y-41074D01*
X53439Y-41138D01*
X53442Y-41141D01*
X53417Y-41201D01*
X53417Y-41270D01*
X53443Y-41334D01*
X53492Y-41383D01*
X53537Y-41402D01*
X53503Y-41437D01*
X53476Y-41501D01*
X53476Y-41570D01*
X53502Y-41634D01*
X53551Y-41683D01*
X53615Y-41710D01*
X53684Y-41710D01*
X53748Y-41684D01*
X53797Y-41635D01*
X53799Y-41628D01*
X53838Y-41667D01*
X53902Y-41694D01*
X53971Y-41694D01*
X54035Y-41668D01*
X54084Y-41619D01*
X54111Y-41555D01*
X54111Y-41486D01*
X54085Y-41422D01*
X54041Y-41378D01*
X54072Y-41347D01*
X54085Y-41314D01*
X54100Y-41350D01*
X54149Y-41399D01*
X54213Y-41426D01*
X54282Y-41426D01*
X54346Y-41400D01*
X54395Y-41351D01*
X54422Y-41287D01*
X54422Y-43303D01*
X54359Y-43329D01*
X54310Y-43378D01*
X54306Y-43386D01*
X54261Y-43341D01*
X54197Y-43314D01*
X54128Y-43314D01*
X54064Y-43340D01*
X54015Y-43389D01*
X53988Y-43453D01*
X53988Y-43522D01*
X54014Y-43586D01*
X54063Y-43635D01*
X54127Y-43662D01*
X54196Y-43662D01*
X54260Y-43636D01*
X54309Y-43587D01*
X54312Y-43578D01*
X54358Y-43624D01*
X54422Y-43651D01*
X54491Y-43651D01*
X54555Y-43625D01*
X54604Y-43576D01*
X54631Y-43512D01*
X54631Y-43788D01*
X54609Y-43810D01*
X54582Y-43874D01*
X54582Y-43943D01*
X54608Y-44007D01*
X54657Y-44056D01*
X54721Y-44083D01*
X54790Y-44083D01*
X54854Y-44057D01*
X54903Y-44008D01*
X54930Y-43944D01*
X54930Y-44088D01*
X54881Y-44137D01*
X54854Y-44201D01*
X54854Y-44270D01*
X54880Y-44334D01*
X54929Y-44383D01*
X54993Y-44410D01*
X55062Y-44410D01*
X55126Y-44384D01*
X55175Y-44335D01*
X55202Y-44271D01*
X55202Y-44796D01*
X55179Y-44796D01*
X55108Y-44825D01*
X55054Y-44879D01*
X55025Y-44950D01*
X55025Y-45026D01*
X55048Y-45084D01*
X54994Y-45084D01*
X54923Y-45113D01*
X54869Y-45167D01*
X54840Y-45238D01*
X54840Y-45314D01*
X54869Y-45385D01*
X54923Y-45439D01*
X54994Y-45468D01*
X55070Y-45468D01*
X55141Y-45439D01*
X55195Y-45385D01*
X55224Y-45314D01*
X55224Y-45238D01*
X55200Y-45180D01*
X55255Y-45180D01*
X55326Y-45151D01*
X55380Y-45097D01*
X55409Y-45026D01*
X55409Y-46609D01*
X54753Y-45962D01*
X54753Y-44260D01*
X54753Y-44191D01*
X54727Y-44127D01*
X54678Y-44078D01*
X54614Y-44051D01*
X54545Y-44051D01*
X54481Y-44077D01*
X54432Y-44126D01*
X54405Y-44190D01*
X54405Y-44259D01*
X54431Y-44323D01*
X54480Y-44372D01*
X54544Y-44399D01*
X54613Y-44399D01*
X54677Y-44373D01*
X54726Y-44324D01*
X54753Y-44260D01*
X54753Y-45962D01*
X53753Y-44976D01*
X53753Y-42157D01*
X53753Y-42088D01*
X53727Y-42024D01*
X53726Y-42023D01*
X53753Y-41960D01*
X53753Y-41891D01*
X53727Y-41827D01*
X53678Y-41778D01*
X53614Y-41751D01*
X53545Y-41751D01*
X53481Y-41777D01*
X53432Y-41826D01*
X53405Y-41890D01*
X53405Y-41959D01*
X53431Y-42023D01*
X53405Y-42087D01*
X53405Y-42156D01*
X53431Y-42220D01*
X53480Y-42269D01*
X53544Y-42296D01*
X53613Y-42296D01*
X53677Y-42270D01*
X53726Y-42221D01*
X53753Y-42157D01*
X53753Y-44976D01*
X53731Y-44955D01*
X53731Y-44235D01*
X53731Y-44159D01*
X53702Y-44088D01*
X53648Y-44034D01*
X53636Y-44029D01*
X53648Y-44025D01*
X53702Y-43971D01*
X53731Y-43900D01*
X53731Y-43824D01*
X53702Y-43753D01*
X53648Y-43699D01*
X53577Y-43670D01*
X53501Y-43670D01*
X53430Y-43699D01*
X53376Y-43753D01*
X53347Y-43824D01*
X53347Y-43900D01*
X53376Y-43971D01*
X53430Y-44025D01*
X53441Y-44029D01*
X53430Y-44034D01*
X53376Y-44088D01*
X53347Y-44159D01*
X53347Y-44235D01*
X53376Y-44306D01*
X53430Y-44360D01*
X53501Y-44389D01*
X53577Y-44389D01*
X53648Y-44360D01*
X53702Y-44306D01*
X53731Y-44235D01*
X53731Y-44955D01*
X53158Y-44390D01*
X52213Y-44390D01*
X52145Y-44323D01*
X52145Y-43433D01*
X53090Y-42449D01*
X53090Y-41188D01*
X53484Y-40716D01*
X53484Y-40687D01*
X53503Y-40706D01*
X53567Y-40733D01*
X53636Y-40733D01*
X53700Y-40707D01*
X53749Y-40658D01*
X53776Y-40594D01*
X53776Y-40525D01*
X53750Y-40461D01*
X53701Y-40412D01*
X53637Y-40385D01*
X53568Y-40385D01*
X53504Y-40411D01*
X53484Y-40431D01*
X53484Y-40348D01*
X53548Y-40375D01*
X53617Y-40375D01*
X53681Y-40349D01*
X53730Y-40300D01*
X53757Y-40236D01*
X53757Y-40167D01*
X53731Y-40103D01*
X53682Y-40054D01*
X53618Y-40027D01*
X53549Y-40027D01*
X53485Y-40053D01*
X53484Y-40054D01*
X53484Y-39691D01*
X53511Y-39718D01*
X53575Y-39745D01*
X53644Y-39745D01*
X53708Y-39719D01*
X53757Y-39670D01*
X53784Y-39606D01*
X53784Y-39537D01*
X53761Y-39480D01*
X53773Y-39469D01*
X53800Y-39405D01*
X53800Y-39336D01*
X53774Y-39272D01*
X53725Y-39223D01*
X53661Y-39196D01*
X53592Y-39196D01*
X53528Y-39222D01*
X53484Y-39266D01*
X53484Y-39034D01*
X53502Y-39079D01*
X53551Y-39128D01*
X53615Y-39155D01*
X53684Y-39155D01*
X53748Y-39129D01*
X53797Y-39080D01*
X53824Y-39016D01*
X53824Y-38947D01*
X53798Y-38883D01*
X53749Y-38834D01*
X53685Y-38807D01*
X53616Y-38807D01*
X53552Y-38833D01*
X53503Y-38882D01*
X53484Y-38927D01*
X53484Y-37097D01*
X54468Y-36467D01*
X54468Y-34753D01*
X53942Y-34469D01*
X52083Y-34469D01*
X51610Y-34666D01*
X51071Y-34666D01*
X50964Y-34559D01*
X50964Y-34299D01*
X51110Y-34153D01*
X55901Y-34153D01*
X56595Y-34539D01*
X56595Y-36857D01*
X56845Y-37149D01*
X59127Y-37149D01*
X59217Y-37099D01*
X59203Y-37114D01*
X59176Y-37178D01*
X59176Y-37247D01*
X59202Y-37311D01*
X59251Y-37360D01*
X59315Y-37387D01*
X59384Y-37387D01*
X59448Y-37361D01*
X59497Y-37312D01*
X59524Y-37248D01*
X59524Y-37179D01*
X59498Y-37115D01*
X59449Y-37066D01*
X59385Y-37039D01*
X59327Y-37039D01*
X59940Y-36704D01*
X59940Y-35126D01*
X60087Y-34980D01*
X60425Y-34980D01*
X60572Y-35126D01*
X60572Y-38393D01*
X61249Y-39230D01*
X62264Y-39503D01*
X62264Y-39908D01*
X62264Y-39908D01*
G37*
G54D28*
X62264Y-39908D02*
X61438Y-40263D01*
X61438Y-40106D01*
X61438Y-40037D01*
X61412Y-39973D01*
X61363Y-39924D01*
X61299Y-39897D01*
X61230Y-39897D01*
X61166Y-39923D01*
X61117Y-39972D01*
X61090Y-40036D01*
X61090Y-40105D01*
X61116Y-40169D01*
X61165Y-40218D01*
X61229Y-40245D01*
X61298Y-40245D01*
X61362Y-40219D01*
X61411Y-40170D01*
X61438Y-40106D01*
X61438Y-40263D01*
X61438Y-40756D01*
X61556Y-40874D01*
X61556Y-42984D01*
X61402Y-43138D01*
X61402Y-42212D01*
X61402Y-42143D01*
X61376Y-42079D01*
X61327Y-42030D01*
X61276Y-42008D01*
X61276Y-40870D01*
X61276Y-40801D01*
X61250Y-40737D01*
X61201Y-40688D01*
X61137Y-40661D01*
X61068Y-40661D01*
X61004Y-40687D01*
X60955Y-40736D01*
X60954Y-40738D01*
X60954Y-39441D01*
X60954Y-39372D01*
X60928Y-39308D01*
X60879Y-39259D01*
X60815Y-39232D01*
X60746Y-39232D01*
X60682Y-39258D01*
X60633Y-39307D01*
X60606Y-39371D01*
X60606Y-39440D01*
X60632Y-39504D01*
X60681Y-39553D01*
X60745Y-39580D01*
X60814Y-39580D01*
X60878Y-39554D01*
X60927Y-39505D01*
X60954Y-39441D01*
X60954Y-40738D01*
X60928Y-40800D01*
X60928Y-40869D01*
X60954Y-40933D01*
X61003Y-40982D01*
X61067Y-41009D01*
X61136Y-41009D01*
X61200Y-40983D01*
X61249Y-40934D01*
X61276Y-40870D01*
X61276Y-42008D01*
X61263Y-42003D01*
X61194Y-42003D01*
X61130Y-42029D01*
X61081Y-42078D01*
X61054Y-42142D01*
X61054Y-42211D01*
X61080Y-42275D01*
X61129Y-42324D01*
X61193Y-42351D01*
X61262Y-42351D01*
X61326Y-42325D01*
X61375Y-42276D01*
X61402Y-42212D01*
X61402Y-43138D01*
X60858Y-43682D01*
X60647Y-43682D01*
X60647Y-41035D01*
X60647Y-40966D01*
X60621Y-40902D01*
X60572Y-40853D01*
X60513Y-40828D01*
X60513Y-39279D01*
X60513Y-39210D01*
X60487Y-39146D01*
X60440Y-39099D01*
X60440Y-35517D01*
X60440Y-35448D01*
X60414Y-35384D01*
X60365Y-35335D01*
X60301Y-35308D01*
X60232Y-35308D01*
X60168Y-35334D01*
X60119Y-35383D01*
X60092Y-35447D01*
X60092Y-35516D01*
X60118Y-35580D01*
X60128Y-35590D01*
X60099Y-35620D01*
X60072Y-35684D01*
X60072Y-35753D01*
X60098Y-35817D01*
X60147Y-35866D01*
X60211Y-35893D01*
X60280Y-35893D01*
X60344Y-35867D01*
X60393Y-35818D01*
X60420Y-35754D01*
X60420Y-35685D01*
X60394Y-35621D01*
X60383Y-35610D01*
X60413Y-35581D01*
X60440Y-35517D01*
X60440Y-39099D01*
X60438Y-39097D01*
X60374Y-39070D01*
X60305Y-39070D01*
X60241Y-39096D01*
X60192Y-39145D01*
X60165Y-39209D01*
X60165Y-39278D01*
X60191Y-39342D01*
X60240Y-39391D01*
X60304Y-39418D01*
X60373Y-39418D01*
X60437Y-39392D01*
X60486Y-39343D01*
X60513Y-39279D01*
X60513Y-40828D01*
X60508Y-40826D01*
X60493Y-40826D01*
X60493Y-40019D01*
X60493Y-39950D01*
X60467Y-39886D01*
X60418Y-39837D01*
X60354Y-39810D01*
X60285Y-39810D01*
X60221Y-39836D01*
X60172Y-39885D01*
X60145Y-39949D01*
X60145Y-40018D01*
X60171Y-40082D01*
X60220Y-40131D01*
X60284Y-40158D01*
X60353Y-40158D01*
X60417Y-40132D01*
X60466Y-40083D01*
X60493Y-40019D01*
X60493Y-40826D01*
X60439Y-40826D01*
X60375Y-40852D01*
X60326Y-40901D01*
X60299Y-40965D01*
X60299Y-41034D01*
X60325Y-41098D01*
X60374Y-41147D01*
X60438Y-41174D01*
X60507Y-41174D01*
X60571Y-41148D01*
X60620Y-41099D01*
X60647Y-41035D01*
X60647Y-43682D01*
X60379Y-43682D01*
X60379Y-43519D01*
X60379Y-43450D01*
X60353Y-43386D01*
X60346Y-43379D01*
X60346Y-42676D01*
X60346Y-42600D01*
X60317Y-42529D01*
X60263Y-42475D01*
X60213Y-42454D01*
X60213Y-41472D01*
X60213Y-41403D01*
X60187Y-41339D01*
X60167Y-41319D01*
X60177Y-41310D01*
X60204Y-41246D01*
X60204Y-41177D01*
X60178Y-41113D01*
X60129Y-41064D01*
X60065Y-41037D01*
X60017Y-41037D01*
X60049Y-41024D01*
X60098Y-40975D01*
X60125Y-40911D01*
X60125Y-40842D01*
X60099Y-40778D01*
X60056Y-40735D01*
X60056Y-37421D01*
X60056Y-37352D01*
X60030Y-37288D01*
X59981Y-37239D01*
X59917Y-37212D01*
X59848Y-37212D01*
X59784Y-37238D01*
X59735Y-37287D01*
X59708Y-37351D01*
X59708Y-37420D01*
X59734Y-37484D01*
X59783Y-37533D01*
X59847Y-37560D01*
X59916Y-37560D01*
X59980Y-37534D01*
X60029Y-37485D01*
X60056Y-37421D01*
X60056Y-40735D01*
X60050Y-40729D01*
X59986Y-40702D01*
X59961Y-40702D01*
X59961Y-39905D01*
X59961Y-39836D01*
X59935Y-39772D01*
X59922Y-39759D01*
X59922Y-39055D01*
X59922Y-38986D01*
X59896Y-38922D01*
X59847Y-38873D01*
X59783Y-38846D01*
X59714Y-38846D01*
X59650Y-38872D01*
X59601Y-38921D01*
X59574Y-38985D01*
X59574Y-39054D01*
X59600Y-39118D01*
X59649Y-39167D01*
X59713Y-39194D01*
X59782Y-39194D01*
X59846Y-39168D01*
X59895Y-39119D01*
X59922Y-39055D01*
X59922Y-39759D01*
X59886Y-39723D01*
X59822Y-39696D01*
X59753Y-39696D01*
X59689Y-39722D01*
X59640Y-39771D01*
X59613Y-39835D01*
X59613Y-39904D01*
X59639Y-39968D01*
X59688Y-40017D01*
X59752Y-40044D01*
X59821Y-40044D01*
X59885Y-40018D01*
X59934Y-39969D01*
X59961Y-39905D01*
X59961Y-40702D01*
X59917Y-40702D01*
X59913Y-40703D01*
X59888Y-40642D01*
X59839Y-40593D01*
X59775Y-40566D01*
X59774Y-40566D01*
X59816Y-40524D01*
X59843Y-40460D01*
X59843Y-40391D01*
X59817Y-40327D01*
X59799Y-40309D01*
X59820Y-40260D01*
X59820Y-40191D01*
X59794Y-40127D01*
X59745Y-40078D01*
X59681Y-40051D01*
X59612Y-40051D01*
X59548Y-40077D01*
X59499Y-40126D01*
X59472Y-40190D01*
X59472Y-40259D01*
X59498Y-40323D01*
X59515Y-40340D01*
X59495Y-40390D01*
X59495Y-40459D01*
X59521Y-40523D01*
X59570Y-40572D01*
X59634Y-40599D01*
X59593Y-40641D01*
X59566Y-40705D01*
X59566Y-40774D01*
X59592Y-40838D01*
X59641Y-40887D01*
X59705Y-40914D01*
X59774Y-40914D01*
X59777Y-40912D01*
X59803Y-40974D01*
X59852Y-41023D01*
X59916Y-41050D01*
X59964Y-41050D01*
X59932Y-41063D01*
X59883Y-41112D01*
X59856Y-41176D01*
X59856Y-41245D01*
X59882Y-41309D01*
X59901Y-41328D01*
X59892Y-41338D01*
X59865Y-41402D01*
X59865Y-41471D01*
X59891Y-41535D01*
X59940Y-41584D01*
X60004Y-41611D01*
X60073Y-41611D01*
X60137Y-41585D01*
X60186Y-41536D01*
X60213Y-41472D01*
X60213Y-42454D01*
X60192Y-42446D01*
X60116Y-42446D01*
X60045Y-42475D01*
X59991Y-42529D01*
X59962Y-42600D01*
X59962Y-42676D01*
X59991Y-42747D01*
X60045Y-42801D01*
X60116Y-42830D01*
X60192Y-42830D01*
X60263Y-42801D01*
X60317Y-42747D01*
X60346Y-42676D01*
X60346Y-43379D01*
X60304Y-43337D01*
X60240Y-43310D01*
X60171Y-43310D01*
X60107Y-43336D01*
X60058Y-43385D01*
X60031Y-43449D01*
X60031Y-43518D01*
X60057Y-43582D01*
X60106Y-43631D01*
X60170Y-43658D01*
X60239Y-43658D01*
X60303Y-43632D01*
X60352Y-43583D01*
X60379Y-43519D01*
X60379Y-43682D01*
X59455Y-43682D01*
X59455Y-42102D01*
X59455Y-42033D01*
X59429Y-41969D01*
X59392Y-41932D01*
X59419Y-41906D01*
X59446Y-41842D01*
X59446Y-41773D01*
X59420Y-41709D01*
X59377Y-41666D01*
X59373Y-41662D01*
X59373Y-41365D01*
X59377Y-41356D01*
X59383Y-41342D01*
X59383Y-41280D01*
X59377Y-41265D01*
X59373Y-41257D01*
X59373Y-41168D01*
X59377Y-41159D01*
X59383Y-41145D01*
X59383Y-41083D01*
X59377Y-41068D01*
X59373Y-41061D01*
X59373Y-40981D01*
X59377Y-40973D01*
X59387Y-40949D01*
X59387Y-40887D01*
X59377Y-40863D01*
X59374Y-40856D01*
X59374Y-40773D01*
X59377Y-40766D01*
X59383Y-40752D01*
X59383Y-40690D01*
X59377Y-40675D01*
X59374Y-40669D01*
X59374Y-40586D01*
X59377Y-40579D01*
X59387Y-40555D01*
X59387Y-40493D01*
X59377Y-40469D01*
X59374Y-40463D01*
X59374Y-40378D01*
X59377Y-40372D01*
X59383Y-40358D01*
X59383Y-40296D01*
X59377Y-40281D01*
X59374Y-40276D01*
X59374Y-40181D01*
X59377Y-40175D01*
X59383Y-40161D01*
X59383Y-40099D01*
X59377Y-40084D01*
X59375Y-40080D01*
X59375Y-39983D01*
X59377Y-39978D01*
X59383Y-39964D01*
X59383Y-39902D01*
X59377Y-39887D01*
X59375Y-39883D01*
X59375Y-39781D01*
X59377Y-39777D01*
X59383Y-39763D01*
X59383Y-39701D01*
X59377Y-39686D01*
X59375Y-39683D01*
X59375Y-39391D01*
X59377Y-39388D01*
X59383Y-39374D01*
X59383Y-39312D01*
X59377Y-39297D01*
X59376Y-39295D01*
X59376Y-39186D01*
X59377Y-39184D01*
X59380Y-39177D01*
X59380Y-39115D01*
X59377Y-39107D01*
X59376Y-39106D01*
X59376Y-38996D01*
X59377Y-38994D01*
X59383Y-38980D01*
X59383Y-38918D01*
X59377Y-38903D01*
X59376Y-38902D01*
X59376Y-38798D01*
X59377Y-38797D01*
X59383Y-38783D01*
X59383Y-38721D01*
X59377Y-38706D01*
X59376Y-38706D01*
X59377Y-38513D01*
X59324Y-38512D01*
X59324Y-38007D01*
X59324Y-37938D01*
X59298Y-37874D01*
X59249Y-37825D01*
X59185Y-37798D01*
X59116Y-37798D01*
X59052Y-37824D01*
X59003Y-37873D01*
X58976Y-37937D01*
X58976Y-38006D01*
X59002Y-38070D01*
X59051Y-38119D01*
X59115Y-38146D01*
X59184Y-38146D01*
X59248Y-38120D01*
X59297Y-38071D01*
X59324Y-38007D01*
X59324Y-38512D01*
X57995Y-38507D01*
X57978Y-38467D01*
X57935Y-38423D01*
X57878Y-38400D01*
X57816Y-38400D01*
X57759Y-38424D01*
X57715Y-38467D01*
X57698Y-38506D01*
X57210Y-38505D01*
X57194Y-38467D01*
X57151Y-38423D01*
X57094Y-38400D01*
X57032Y-38400D01*
X56975Y-38424D01*
X56964Y-38434D01*
X56954Y-38423D01*
X56897Y-38400D01*
X56835Y-38400D01*
X56778Y-38424D01*
X56767Y-38434D01*
X56757Y-38423D01*
X56749Y-38419D01*
X56749Y-38165D01*
X56749Y-38096D01*
X56723Y-38032D01*
X56674Y-37983D01*
X56610Y-37956D01*
X56541Y-37956D01*
X56477Y-37982D01*
X56451Y-38008D01*
X56418Y-37975D01*
X56354Y-37948D01*
X56285Y-37948D01*
X56284Y-37948D01*
X56284Y-35417D01*
X56284Y-35340D01*
X56255Y-35269D01*
X56201Y-35215D01*
X56130Y-35185D01*
X56053Y-35185D01*
X55982Y-35214D01*
X55928Y-35268D01*
X55898Y-35339D01*
X55898Y-35416D01*
X55927Y-35487D01*
X55981Y-35541D01*
X56052Y-35571D01*
X56129Y-35571D01*
X56200Y-35542D01*
X56254Y-35488D01*
X56284Y-35417D01*
X56284Y-37948D01*
X56221Y-37974D01*
X56172Y-38023D01*
X56158Y-38056D01*
X56158Y-38051D01*
X56158Y-37982D01*
X56155Y-37974D01*
X56155Y-37421D01*
X56155Y-37352D01*
X56129Y-37288D01*
X56080Y-37239D01*
X56016Y-37212D01*
X55947Y-37212D01*
X55883Y-37238D01*
X55834Y-37287D01*
X55812Y-37339D01*
X55812Y-36791D01*
X55812Y-36722D01*
X55786Y-36658D01*
X55772Y-36644D01*
X55772Y-35169D01*
X55772Y-35092D01*
X55743Y-35021D01*
X55689Y-34967D01*
X55618Y-34937D01*
X55541Y-34937D01*
X55470Y-34966D01*
X55416Y-35020D01*
X55386Y-35091D01*
X55386Y-35168D01*
X55415Y-35239D01*
X55469Y-35293D01*
X55540Y-35323D01*
X55617Y-35323D01*
X55688Y-35294D01*
X55742Y-35240D01*
X55772Y-35169D01*
X55772Y-36644D01*
X55737Y-36609D01*
X55673Y-36582D01*
X55604Y-36582D01*
X55540Y-36608D01*
X55491Y-36657D01*
X55464Y-36721D01*
X55464Y-36790D01*
X55490Y-36854D01*
X55539Y-36903D01*
X55603Y-36930D01*
X55672Y-36930D01*
X55736Y-36904D01*
X55785Y-36855D01*
X55812Y-36791D01*
X55812Y-37339D01*
X55807Y-37351D01*
X55807Y-37420D01*
X55833Y-37484D01*
X55882Y-37533D01*
X55946Y-37560D01*
X56015Y-37560D01*
X56079Y-37534D01*
X56128Y-37485D01*
X56155Y-37421D01*
X56155Y-37974D01*
X56132Y-37918D01*
X56083Y-37869D01*
X56019Y-37842D01*
X55950Y-37842D01*
X55886Y-37868D01*
X55837Y-37917D01*
X55810Y-37981D01*
X55810Y-38050D01*
X55836Y-38114D01*
X55885Y-38163D01*
X55949Y-38190D01*
X56018Y-38190D01*
X56082Y-38164D01*
X56131Y-38115D01*
X56158Y-38051D01*
X56158Y-38056D01*
X56145Y-38087D01*
X56145Y-38156D01*
X56171Y-38220D01*
X56220Y-38269D01*
X56284Y-38296D01*
X56353Y-38296D01*
X56417Y-38270D01*
X56443Y-38244D01*
X56476Y-38277D01*
X56540Y-38304D01*
X56609Y-38304D01*
X56673Y-38278D01*
X56722Y-38229D01*
X56749Y-38165D01*
X56749Y-38419D01*
X56700Y-38400D01*
X56638Y-38400D01*
X56581Y-38424D01*
X56537Y-38467D01*
X56522Y-38502D01*
X56123Y-38501D01*
X56121Y-38714D01*
X56121Y-38717D01*
X56121Y-38779D01*
X56121Y-38780D01*
X56114Y-40182D01*
X56107Y-40183D01*
X56107Y-38563D01*
X56107Y-38494D01*
X56081Y-38430D01*
X56032Y-38381D01*
X55968Y-38354D01*
X55899Y-38354D01*
X55835Y-38380D01*
X55786Y-38429D01*
X55759Y-38493D01*
X55759Y-38562D01*
X55785Y-38626D01*
X55834Y-38675D01*
X55898Y-38702D01*
X55967Y-38702D01*
X56031Y-38676D01*
X56080Y-38627D01*
X56107Y-38563D01*
X56107Y-40183D01*
X56101Y-40185D01*
X56068Y-40207D01*
X56052Y-40218D01*
X56051Y-40218D01*
X56051Y-40219D01*
X56005Y-40265D01*
X56005Y-39082D01*
X56005Y-39013D01*
X55979Y-38949D01*
X55930Y-38900D01*
X55866Y-38873D01*
X55797Y-38873D01*
X55733Y-38899D01*
X55702Y-38929D01*
X55654Y-38881D01*
X55590Y-38854D01*
X55521Y-38854D01*
X55457Y-38880D01*
X55408Y-38929D01*
X55381Y-38993D01*
X55381Y-39062D01*
X55407Y-39126D01*
X55456Y-39175D01*
X55520Y-39202D01*
X55589Y-39202D01*
X55653Y-39176D01*
X55683Y-39145D01*
X55732Y-39194D01*
X55796Y-39221D01*
X55865Y-39221D01*
X55929Y-39195D01*
X55978Y-39146D01*
X56005Y-39082D01*
X56005Y-40265D01*
X55973Y-40298D01*
X55946Y-40338D01*
X55946Y-40267D01*
X55946Y-40198D01*
X55920Y-40134D01*
X55910Y-40124D01*
X55910Y-39866D01*
X55910Y-39797D01*
X55884Y-39733D01*
X55883Y-39732D01*
X55883Y-39480D01*
X55883Y-39411D01*
X55857Y-39347D01*
X55808Y-39298D01*
X55744Y-39271D01*
X55675Y-39271D01*
X55611Y-39297D01*
X55562Y-39346D01*
X55535Y-39410D01*
X55535Y-39479D01*
X55561Y-39543D01*
X55610Y-39592D01*
X55674Y-39619D01*
X55743Y-39619D01*
X55807Y-39593D01*
X55856Y-39544D01*
X55883Y-39480D01*
X55883Y-39732D01*
X55835Y-39684D01*
X55771Y-39657D01*
X55702Y-39657D01*
X55638Y-39683D01*
X55589Y-39732D01*
X55568Y-39781D01*
X55568Y-39673D01*
X55568Y-39604D01*
X55542Y-39540D01*
X55493Y-39491D01*
X55429Y-39464D01*
X55360Y-39464D01*
X55296Y-39490D01*
X55247Y-39539D01*
X55220Y-39603D01*
X55220Y-39672D01*
X55246Y-39736D01*
X55295Y-39785D01*
X55359Y-39812D01*
X55428Y-39812D01*
X55492Y-39786D01*
X55541Y-39737D01*
X55568Y-39673D01*
X55568Y-39781D01*
X55562Y-39796D01*
X55562Y-39865D01*
X55588Y-39929D01*
X55637Y-39978D01*
X55701Y-40005D01*
X55770Y-40005D01*
X55834Y-39979D01*
X55883Y-39930D01*
X55910Y-39866D01*
X55910Y-40124D01*
X55871Y-40085D01*
X55807Y-40058D01*
X55738Y-40058D01*
X55674Y-40084D01*
X55625Y-40133D01*
X55598Y-40197D01*
X55598Y-40266D01*
X55624Y-40330D01*
X55673Y-40379D01*
X55737Y-40406D01*
X55806Y-40406D01*
X55870Y-40380D01*
X55919Y-40331D01*
X55946Y-40267D01*
X55946Y-40338D01*
X55940Y-40348D01*
X55931Y-40395D01*
X55929Y-40406D01*
X55929Y-40407D01*
X55929Y-40843D01*
X55925Y-40842D01*
X55875Y-40842D01*
X55875Y-40653D01*
X55875Y-40584D01*
X55849Y-40520D01*
X55800Y-40471D01*
X55736Y-40444D01*
X55667Y-40444D01*
X55603Y-40470D01*
X55554Y-40519D01*
X55527Y-40583D01*
X55527Y-40652D01*
X55553Y-40716D01*
X55602Y-40765D01*
X55666Y-40792D01*
X55735Y-40792D01*
X55799Y-40766D01*
X55848Y-40717D01*
X55875Y-40653D01*
X55875Y-40842D01*
X55856Y-40842D01*
X55792Y-40868D01*
X55743Y-40917D01*
X55716Y-40981D01*
X55716Y-41050D01*
X55742Y-41114D01*
X55791Y-41163D01*
X55855Y-41190D01*
X55924Y-41190D01*
X55929Y-41187D01*
X55929Y-41274D01*
X55914Y-41259D01*
X55850Y-41232D01*
X55781Y-41232D01*
X55717Y-41258D01*
X55668Y-41307D01*
X55641Y-41371D01*
X55641Y-41440D01*
X55667Y-41504D01*
X55716Y-41553D01*
X55780Y-41580D01*
X55849Y-41580D01*
X55913Y-41554D01*
X55929Y-41538D01*
X55929Y-42795D01*
X55929Y-42798D01*
X55929Y-42804D01*
X55937Y-42837D01*
X55941Y-42854D01*
X55942Y-42856D01*
X55944Y-42862D01*
X55963Y-42887D01*
X55974Y-42904D01*
X55976Y-42905D01*
X55980Y-42910D01*
X56097Y-43014D01*
X56112Y-43051D01*
X56161Y-43100D01*
X56225Y-43127D01*
X56294Y-43127D01*
X56358Y-43101D01*
X56407Y-43052D01*
X56434Y-42988D01*
X56434Y-42919D01*
X56408Y-42855D01*
X56359Y-42806D01*
X56297Y-42780D01*
X56237Y-42725D01*
X56237Y-42097D01*
X56268Y-42111D01*
X56337Y-42111D01*
X56401Y-42085D01*
X56450Y-42036D01*
X56477Y-41972D01*
X56477Y-41903D01*
X56451Y-41839D01*
X56402Y-41790D01*
X56338Y-41763D01*
X56269Y-41763D01*
X56237Y-41776D01*
X56237Y-41677D01*
X59156Y-41677D01*
X59125Y-41708D01*
X59098Y-41772D01*
X59098Y-41841D01*
X59124Y-41905D01*
X59160Y-41941D01*
X59134Y-41968D01*
X59107Y-42032D01*
X59107Y-42101D01*
X59133Y-42165D01*
X59182Y-42214D01*
X59246Y-42241D01*
X59315Y-42241D01*
X59377Y-42215D01*
X59379Y-42215D01*
X59428Y-42166D01*
X59455Y-42102D01*
X59455Y-43682D01*
X59377Y-43682D01*
X59358Y-43682D01*
X58914Y-43682D01*
X58914Y-42004D01*
X58914Y-41935D01*
X58888Y-41871D01*
X58839Y-41822D01*
X58775Y-41795D01*
X58706Y-41795D01*
X58642Y-41821D01*
X58636Y-41827D01*
X58635Y-41826D01*
X58571Y-41799D01*
X58502Y-41799D01*
X58438Y-41825D01*
X58389Y-41874D01*
X58362Y-41938D01*
X58362Y-42007D01*
X58388Y-42071D01*
X58437Y-42120D01*
X58501Y-42147D01*
X58570Y-42147D01*
X58634Y-42121D01*
X58640Y-42115D01*
X58641Y-42116D01*
X58705Y-42143D01*
X58774Y-42143D01*
X58838Y-42117D01*
X58887Y-42068D01*
X58914Y-42004D01*
X58914Y-43682D01*
X58447Y-43682D01*
X58511Y-43656D01*
X58560Y-43607D01*
X58587Y-43543D01*
X58587Y-43474D01*
X58561Y-43410D01*
X58512Y-43361D01*
X58448Y-43334D01*
X58379Y-43334D01*
X58315Y-43360D01*
X58266Y-43409D01*
X58239Y-43473D01*
X58239Y-43542D01*
X58265Y-43606D01*
X58314Y-43655D01*
X58378Y-43682D01*
X57639Y-43682D01*
X57639Y-41972D01*
X57639Y-41903D01*
X57613Y-41839D01*
X57564Y-41790D01*
X57500Y-41763D01*
X57431Y-41763D01*
X57367Y-41789D01*
X57318Y-41838D01*
X57291Y-41902D01*
X57291Y-41918D01*
X57240Y-41897D01*
X57171Y-41897D01*
X57107Y-41923D01*
X57087Y-41943D01*
X57056Y-41912D01*
X56992Y-41885D01*
X56923Y-41885D01*
X56859Y-41911D01*
X56810Y-41960D01*
X56783Y-42024D01*
X56783Y-42093D01*
X56809Y-42157D01*
X56858Y-42206D01*
X56922Y-42233D01*
X56991Y-42233D01*
X57055Y-42207D01*
X57075Y-42187D01*
X57106Y-42218D01*
X57170Y-42245D01*
X57239Y-42245D01*
X57303Y-42219D01*
X57352Y-42170D01*
X57379Y-42106D01*
X57379Y-42089D01*
X57430Y-42111D01*
X57499Y-42111D01*
X57563Y-42085D01*
X57612Y-42036D01*
X57639Y-41972D01*
X57639Y-43682D01*
X56890Y-43682D01*
X56938Y-43634D01*
X56965Y-43570D01*
X56965Y-43501D01*
X56939Y-43437D01*
X56890Y-43388D01*
X56828Y-43361D01*
X56892Y-43336D01*
X56946Y-43282D01*
X56975Y-43211D01*
X56975Y-43135D01*
X56946Y-43064D01*
X56892Y-43010D01*
X56821Y-42981D01*
X56745Y-42981D01*
X56674Y-43010D01*
X56620Y-43064D01*
X56591Y-43135D01*
X56591Y-43153D01*
X56289Y-43477D01*
X56273Y-43503D01*
X56260Y-43523D01*
X56259Y-43525D01*
X56258Y-43528D01*
X56253Y-43557D01*
X56248Y-43582D01*
X56248Y-43587D01*
X56248Y-43682D01*
X55976Y-43682D01*
X55940Y-43718D01*
X55940Y-43550D01*
X55940Y-43474D01*
X55911Y-43403D01*
X55892Y-43384D01*
X55892Y-43003D01*
X55892Y-42934D01*
X55879Y-42902D01*
X55879Y-41874D01*
X55879Y-41805D01*
X55853Y-41741D01*
X55804Y-41692D01*
X55740Y-41665D01*
X55671Y-41665D01*
X55607Y-41691D01*
X55571Y-41726D01*
X55544Y-41699D01*
X55540Y-41697D01*
X55540Y-40854D01*
X55540Y-40785D01*
X55514Y-40721D01*
X55477Y-40684D01*
X55477Y-40067D01*
X55477Y-39998D01*
X55451Y-39934D01*
X55402Y-39885D01*
X55338Y-39858D01*
X55269Y-39858D01*
X55205Y-39884D01*
X55156Y-39933D01*
X55129Y-39997D01*
X55129Y-40066D01*
X55155Y-40130D01*
X55204Y-40179D01*
X55268Y-40206D01*
X55337Y-40206D01*
X55401Y-40180D01*
X55450Y-40131D01*
X55477Y-40067D01*
X55477Y-40684D01*
X55465Y-40672D01*
X55462Y-40670D01*
X55462Y-40456D01*
X55462Y-40387D01*
X55436Y-40323D01*
X55387Y-40274D01*
X55323Y-40247D01*
X55254Y-40247D01*
X55190Y-40273D01*
X55141Y-40322D01*
X55114Y-40386D01*
X55114Y-40455D01*
X55140Y-40519D01*
X55189Y-40568D01*
X55253Y-40595D01*
X55322Y-40595D01*
X55386Y-40569D01*
X55435Y-40520D01*
X55462Y-40456D01*
X55462Y-40670D01*
X55401Y-40645D01*
X55332Y-40645D01*
X55268Y-40671D01*
X55219Y-40720D01*
X55192Y-40784D01*
X55192Y-40853D01*
X55218Y-40917D01*
X55267Y-40966D01*
X55331Y-40993D01*
X55400Y-40993D01*
X55464Y-40967D01*
X55513Y-40918D01*
X55540Y-40854D01*
X55540Y-41697D01*
X55480Y-41672D01*
X55434Y-41672D01*
X55434Y-41244D01*
X55434Y-41175D01*
X55408Y-41111D01*
X55359Y-41062D01*
X55295Y-41035D01*
X55226Y-41035D01*
X55162Y-41061D01*
X55113Y-41110D01*
X55086Y-41174D01*
X55086Y-41243D01*
X55112Y-41307D01*
X55161Y-41356D01*
X55225Y-41383D01*
X55294Y-41383D01*
X55358Y-41357D01*
X55407Y-41308D01*
X55434Y-41244D01*
X55434Y-41672D01*
X55411Y-41672D01*
X55347Y-41698D01*
X55298Y-41747D01*
X55271Y-41811D01*
X55271Y-41880D01*
X55297Y-41944D01*
X55346Y-41993D01*
X55410Y-42020D01*
X55479Y-42020D01*
X55543Y-41994D01*
X55578Y-41958D01*
X55606Y-41986D01*
X55670Y-42013D01*
X55739Y-42013D01*
X55803Y-41987D01*
X55852Y-41938D01*
X55879Y-41874D01*
X55879Y-42902D01*
X55866Y-42870D01*
X55817Y-42821D01*
X55753Y-42794D01*
X55684Y-42794D01*
X55620Y-42820D01*
X55571Y-42869D01*
X55549Y-42919D01*
X55488Y-42893D01*
X55419Y-42893D01*
X55355Y-42919D01*
X55339Y-42935D01*
X55324Y-42920D01*
X55260Y-42893D01*
X55191Y-42893D01*
X55127Y-42919D01*
X55106Y-42939D01*
X55083Y-42916D01*
X55019Y-42889D01*
X54950Y-42889D01*
X54910Y-42905D01*
X54910Y-36366D01*
X54910Y-36297D01*
X54884Y-36233D01*
X54846Y-36195D01*
X54868Y-36174D01*
X54895Y-36110D01*
X54895Y-36041D01*
X54869Y-35977D01*
X54820Y-35928D01*
X54756Y-35901D01*
X54687Y-35901D01*
X54623Y-35927D01*
X54574Y-35976D01*
X54547Y-36040D01*
X54547Y-36109D01*
X54573Y-36173D01*
X54610Y-36210D01*
X54589Y-36232D01*
X54562Y-36296D01*
X54562Y-36365D01*
X54588Y-36429D01*
X54637Y-36478D01*
X54701Y-36505D01*
X54770Y-36505D01*
X54834Y-36479D01*
X54883Y-36430D01*
X54910Y-36366D01*
X54910Y-42905D01*
X54886Y-42915D01*
X54856Y-42944D01*
X54820Y-42908D01*
X54756Y-42881D01*
X54690Y-42881D01*
X54690Y-38208D01*
X54690Y-38139D01*
X54664Y-38075D01*
X54615Y-38026D01*
X54590Y-38015D01*
X54614Y-38006D01*
X54663Y-37957D01*
X54690Y-37893D01*
X54690Y-37824D01*
X54664Y-37760D01*
X54627Y-37723D01*
X54627Y-37354D01*
X54627Y-37285D01*
X54601Y-37221D01*
X54552Y-37172D01*
X54488Y-37145D01*
X54419Y-37145D01*
X54355Y-37171D01*
X54306Y-37220D01*
X54279Y-37284D01*
X54279Y-37353D01*
X54305Y-37417D01*
X54354Y-37466D01*
X54418Y-37493D01*
X54487Y-37493D01*
X54551Y-37467D01*
X54600Y-37418D01*
X54627Y-37354D01*
X54627Y-37723D01*
X54615Y-37711D01*
X54551Y-37684D01*
X54482Y-37684D01*
X54418Y-37710D01*
X54369Y-37759D01*
X54342Y-37823D01*
X54342Y-37892D01*
X54368Y-37956D01*
X54417Y-38005D01*
X54441Y-38015D01*
X54418Y-38025D01*
X54369Y-38074D01*
X54342Y-38138D01*
X54342Y-38207D01*
X54368Y-38271D01*
X54417Y-38320D01*
X54481Y-38347D01*
X54550Y-38347D01*
X54614Y-38321D01*
X54663Y-38272D01*
X54690Y-38208D01*
X54690Y-42881D01*
X54687Y-42881D01*
X54623Y-42907D01*
X54574Y-42956D01*
X54547Y-43020D01*
X54547Y-43089D01*
X54573Y-43153D01*
X54622Y-43202D01*
X54686Y-43229D01*
X54755Y-43229D01*
X54819Y-43203D01*
X54848Y-43173D01*
X54885Y-43210D01*
X54949Y-43237D01*
X55018Y-43237D01*
X55082Y-43211D01*
X55102Y-43190D01*
X55126Y-43214D01*
X55190Y-43241D01*
X55259Y-43241D01*
X55323Y-43215D01*
X55339Y-43199D01*
X55354Y-43214D01*
X55418Y-43241D01*
X55487Y-43241D01*
X55551Y-43215D01*
X55600Y-43166D01*
X55621Y-43115D01*
X55683Y-43142D01*
X55752Y-43142D01*
X55816Y-43116D01*
X55865Y-43067D01*
X55892Y-43003D01*
X55892Y-43384D01*
X55857Y-43349D01*
X55786Y-43320D01*
X55710Y-43320D01*
X55639Y-43349D01*
X55602Y-43385D01*
X55598Y-43374D01*
X55549Y-43325D01*
X55485Y-43298D01*
X55416Y-43298D01*
X55352Y-43324D01*
X55303Y-43373D01*
X55276Y-43437D01*
X55276Y-43506D01*
X55302Y-43570D01*
X55351Y-43619D01*
X55415Y-43646D01*
X55484Y-43646D01*
X55548Y-43620D01*
X55573Y-43594D01*
X55585Y-43621D01*
X55639Y-43675D01*
X55710Y-43704D01*
X55786Y-43704D01*
X55857Y-43675D01*
X55911Y-43621D01*
X55940Y-43550D01*
X55940Y-43718D01*
X55847Y-43811D01*
X55847Y-44102D01*
X55976Y-44232D01*
X58552Y-44232D01*
X58528Y-44242D01*
X58479Y-44291D01*
X58452Y-44355D01*
X58452Y-44424D01*
X58478Y-44488D01*
X58527Y-44537D01*
X58591Y-44564D01*
X58660Y-44564D01*
X58724Y-44538D01*
X58773Y-44489D01*
X58800Y-44425D01*
X58800Y-44356D01*
X58774Y-44292D01*
X58725Y-44243D01*
X58698Y-44232D01*
X59805Y-44232D01*
X59787Y-44276D01*
X59787Y-44345D01*
X59813Y-44409D01*
X59862Y-44458D01*
X59926Y-44485D01*
X59995Y-44485D01*
X60059Y-44459D01*
X60108Y-44410D01*
X60135Y-44346D01*
X60135Y-44277D01*
X60116Y-44232D01*
X61110Y-44232D01*
X61569Y-43793D01*
X61547Y-43847D01*
X61547Y-43916D01*
X61573Y-43980D01*
X61622Y-44029D01*
X61686Y-44056D01*
X61755Y-44056D01*
X61819Y-44030D01*
X61868Y-43981D01*
X61895Y-43917D01*
X61895Y-43848D01*
X61869Y-43784D01*
X61820Y-43735D01*
X61756Y-43708D01*
X61687Y-43708D01*
X61638Y-43727D01*
X61910Y-43469D01*
X61910Y-46190D01*
X61908Y-46186D01*
X61859Y-46137D01*
X61855Y-46135D01*
X61855Y-44390D01*
X61855Y-44321D01*
X61829Y-44257D01*
X61780Y-44208D01*
X61716Y-44181D01*
X61647Y-44181D01*
X61583Y-44207D01*
X61534Y-44256D01*
X61507Y-44320D01*
X61507Y-44389D01*
X61533Y-44453D01*
X61582Y-44502D01*
X61646Y-44529D01*
X61715Y-44529D01*
X61779Y-44503D01*
X61828Y-44454D01*
X61855Y-44390D01*
X61855Y-46135D01*
X61795Y-46110D01*
X61788Y-46110D01*
X61788Y-45326D01*
X61788Y-45257D01*
X61762Y-45193D01*
X61713Y-45144D01*
X61649Y-45117D01*
X61580Y-45117D01*
X61537Y-45134D01*
X61537Y-45040D01*
X61537Y-44971D01*
X61511Y-44907D01*
X61462Y-44858D01*
X61398Y-44831D01*
X61343Y-44831D01*
X61343Y-44508D01*
X61343Y-44439D01*
X61317Y-44375D01*
X61268Y-44326D01*
X61204Y-44299D01*
X61135Y-44299D01*
X61071Y-44325D01*
X61022Y-44374D01*
X60995Y-44438D01*
X60995Y-44507D01*
X61021Y-44571D01*
X61070Y-44620D01*
X61134Y-44647D01*
X61203Y-44647D01*
X61267Y-44621D01*
X61316Y-44572D01*
X61343Y-44508D01*
X61343Y-44831D01*
X61329Y-44831D01*
X61265Y-44857D01*
X61216Y-44906D01*
X61189Y-44970D01*
X61189Y-45039D01*
X61215Y-45103D01*
X61257Y-45145D01*
X61193Y-45118D01*
X61138Y-45118D01*
X61160Y-45096D01*
X61187Y-45032D01*
X61187Y-44963D01*
X61161Y-44899D01*
X61112Y-44850D01*
X61048Y-44823D01*
X60979Y-44823D01*
X60915Y-44849D01*
X60866Y-44898D01*
X60839Y-44962D01*
X60839Y-45031D01*
X60865Y-45095D01*
X60914Y-45144D01*
X60978Y-45171D01*
X61033Y-45171D01*
X61011Y-45193D01*
X60984Y-45257D01*
X60984Y-45326D01*
X61010Y-45390D01*
X61059Y-45439D01*
X61123Y-45466D01*
X61192Y-45466D01*
X61256Y-45440D01*
X61305Y-45391D01*
X61332Y-45327D01*
X61332Y-45258D01*
X61306Y-45194D01*
X61264Y-45152D01*
X61328Y-45179D01*
X61397Y-45179D01*
X61461Y-45153D01*
X61510Y-45104D01*
X61537Y-45040D01*
X61537Y-45134D01*
X61516Y-45143D01*
X61467Y-45192D01*
X61440Y-45256D01*
X61440Y-45325D01*
X61466Y-45389D01*
X61515Y-45438D01*
X61579Y-45465D01*
X61648Y-45465D01*
X61712Y-45439D01*
X61761Y-45390D01*
X61788Y-45326D01*
X61788Y-46110D01*
X61726Y-46110D01*
X61662Y-46136D01*
X61613Y-46185D01*
X61586Y-46249D01*
X61586Y-46318D01*
X61612Y-46382D01*
X61661Y-46431D01*
X61725Y-46458D01*
X61750Y-46458D01*
X61580Y-46636D01*
X61580Y-46319D01*
X61580Y-46250D01*
X61554Y-46186D01*
X61505Y-46137D01*
X61441Y-46110D01*
X61372Y-46110D01*
X61308Y-46136D01*
X61259Y-46185D01*
X61232Y-46249D01*
X61232Y-46318D01*
X61258Y-46382D01*
X61307Y-46431D01*
X61371Y-46458D01*
X61440Y-46458D01*
X61504Y-46432D01*
X61553Y-46383D01*
X61580Y-46319D01*
X61580Y-46636D01*
X61186Y-47049D01*
X61186Y-46976D01*
X61186Y-46907D01*
X61160Y-46843D01*
X61111Y-46794D01*
X61047Y-46767D01*
X60978Y-46767D01*
X60914Y-46793D01*
X60865Y-46842D01*
X60838Y-46906D01*
X60838Y-46975D01*
X60864Y-47039D01*
X60913Y-47088D01*
X60977Y-47115D01*
X61046Y-47115D01*
X61110Y-47089D01*
X61159Y-47040D01*
X61186Y-46976D01*
X61186Y-47049D01*
X61094Y-47146D01*
X60705Y-47146D01*
X60705Y-45330D01*
X60705Y-45261D01*
X60679Y-45197D01*
X60646Y-45164D01*
X60646Y-44496D01*
X60646Y-44427D01*
X60620Y-44363D01*
X60571Y-44314D01*
X60507Y-44287D01*
X60438Y-44287D01*
X60374Y-44313D01*
X60325Y-44362D01*
X60298Y-44426D01*
X60298Y-44495D01*
X60324Y-44559D01*
X60373Y-44608D01*
X60437Y-44635D01*
X60506Y-44635D01*
X60570Y-44609D01*
X60619Y-44560D01*
X60646Y-44496D01*
X60646Y-45164D01*
X60630Y-45148D01*
X60566Y-45121D01*
X60497Y-45121D01*
X60433Y-45147D01*
X60384Y-45196D01*
X60357Y-45260D01*
X60357Y-45329D01*
X60383Y-45393D01*
X60432Y-45442D01*
X60496Y-45469D01*
X60565Y-45469D01*
X60629Y-45443D01*
X60678Y-45394D01*
X60705Y-45330D01*
X60705Y-47146D01*
X59591Y-47146D01*
X59591Y-46441D01*
X59591Y-46372D01*
X59565Y-46308D01*
X59516Y-46259D01*
X59452Y-46232D01*
X59383Y-46232D01*
X59319Y-46258D01*
X59270Y-46307D01*
X59243Y-46371D01*
X59243Y-46440D01*
X59269Y-46504D01*
X59318Y-46553D01*
X59382Y-46580D01*
X59451Y-46580D01*
X59515Y-46554D01*
X59564Y-46505D01*
X59591Y-46441D01*
X59591Y-47146D01*
X58808Y-47146D01*
X58808Y-45268D01*
X58808Y-45192D01*
X58779Y-45121D01*
X58725Y-45067D01*
X58654Y-45038D01*
X58578Y-45038D01*
X58507Y-45067D01*
X58453Y-45121D01*
X58424Y-45192D01*
X58424Y-45268D01*
X58453Y-45339D01*
X58507Y-45393D01*
X58578Y-45422D01*
X58654Y-45422D01*
X58725Y-45393D01*
X58779Y-45339D01*
X58808Y-45268D01*
X58808Y-47146D01*
X58639Y-47146D01*
X58639Y-46885D01*
X58639Y-46816D01*
X58613Y-46752D01*
X58564Y-46703D01*
X58500Y-46676D01*
X58431Y-46676D01*
X58367Y-46702D01*
X58318Y-46751D01*
X58291Y-46815D01*
X58291Y-46884D01*
X58317Y-46948D01*
X58366Y-46997D01*
X58430Y-47024D01*
X58499Y-47024D01*
X58563Y-46998D01*
X58612Y-46949D01*
X58639Y-46885D01*
X58639Y-47146D01*
X58273Y-47146D01*
X58273Y-46870D01*
X58273Y-46801D01*
X58247Y-46737D01*
X58198Y-46688D01*
X58134Y-46661D01*
X58065Y-46661D01*
X58001Y-46687D01*
X57952Y-46736D01*
X57925Y-46800D01*
X57925Y-46869D01*
X57951Y-46933D01*
X58000Y-46982D01*
X58064Y-47009D01*
X58133Y-47009D01*
X58197Y-46983D01*
X58246Y-46934D01*
X58273Y-46870D01*
X58273Y-47146D01*
X57860Y-47146D01*
X57860Y-44556D01*
X57860Y-44480D01*
X57831Y-44409D01*
X57777Y-44355D01*
X57706Y-44326D01*
X57630Y-44326D01*
X57559Y-44355D01*
X57505Y-44409D01*
X57476Y-44480D01*
X57476Y-44556D01*
X57505Y-44627D01*
X57547Y-44669D01*
X57500Y-44689D01*
X57451Y-44738D01*
X57424Y-44802D01*
X57424Y-44871D01*
X57450Y-44935D01*
X57499Y-44984D01*
X57523Y-44994D01*
X57500Y-45004D01*
X57451Y-45053D01*
X57424Y-45117D01*
X57424Y-45186D01*
X57450Y-45250D01*
X57499Y-45299D01*
X57563Y-45326D01*
X57632Y-45326D01*
X57696Y-45300D01*
X57745Y-45251D01*
X57772Y-45187D01*
X57772Y-45118D01*
X57746Y-45054D01*
X57697Y-45005D01*
X57672Y-44994D01*
X57696Y-44985D01*
X57745Y-44936D01*
X57772Y-44872D01*
X57772Y-44803D01*
X57746Y-44739D01*
X57713Y-44706D01*
X57777Y-44681D01*
X57831Y-44627D01*
X57860Y-44556D01*
X57860Y-47146D01*
X57721Y-47146D01*
X57721Y-46870D01*
X57721Y-46801D01*
X57695Y-46737D01*
X57646Y-46688D01*
X57582Y-46661D01*
X57513Y-46661D01*
X57449Y-46687D01*
X57400Y-46736D01*
X57373Y-46800D01*
X57373Y-46869D01*
X57399Y-46933D01*
X57448Y-46982D01*
X57512Y-47009D01*
X57581Y-47009D01*
X57645Y-46983D01*
X57694Y-46934D01*
X57721Y-46870D01*
X57721Y-47146D01*
X57170Y-47146D01*
X57170Y-46870D01*
X57170Y-46801D01*
X57170Y-46319D01*
X57170Y-46250D01*
X57144Y-46186D01*
X57095Y-46137D01*
X57031Y-46110D01*
X56962Y-46110D01*
X56898Y-46136D01*
X56849Y-46185D01*
X56822Y-46249D01*
X56822Y-46318D01*
X56848Y-46382D01*
X56897Y-46431D01*
X56961Y-46458D01*
X57030Y-46458D01*
X57094Y-46432D01*
X57143Y-46383D01*
X57170Y-46319D01*
X57170Y-46801D01*
X57144Y-46737D01*
X57095Y-46688D01*
X57031Y-46661D01*
X56962Y-46661D01*
X56898Y-46687D01*
X56849Y-46736D01*
X56822Y-46800D01*
X56822Y-46869D01*
X56848Y-46933D01*
X56897Y-46982D01*
X56961Y-47009D01*
X57030Y-47009D01*
X57094Y-46983D01*
X57143Y-46934D01*
X57170Y-46870D01*
X57170Y-47146D01*
X56816Y-47146D01*
X56816Y-46319D01*
X56816Y-46250D01*
X56790Y-46186D01*
X56741Y-46137D01*
X56677Y-46110D01*
X56608Y-46110D01*
X56544Y-46136D01*
X56495Y-46185D01*
X56468Y-46249D01*
X56468Y-46318D01*
X56494Y-46382D01*
X56543Y-46431D01*
X56607Y-46458D01*
X56676Y-46458D01*
X56740Y-46432D01*
X56789Y-46383D01*
X56816Y-46319D01*
X56816Y-47146D01*
X56658Y-47146D01*
X56658Y-46870D01*
X56658Y-46801D01*
X56632Y-46737D01*
X56583Y-46688D01*
X56519Y-46661D01*
X56450Y-46661D01*
X56423Y-46671D01*
X56423Y-44901D01*
X56423Y-44832D01*
X56397Y-44768D01*
X56348Y-44719D01*
X56284Y-44692D01*
X56215Y-44692D01*
X56151Y-44718D01*
X56102Y-44767D01*
X56075Y-44831D01*
X56075Y-44900D01*
X56101Y-44964D01*
X56150Y-45013D01*
X56214Y-45040D01*
X56283Y-45040D01*
X56347Y-45014D01*
X56396Y-44965D01*
X56423Y-44901D01*
X56423Y-46671D01*
X56386Y-46687D01*
X56337Y-46736D01*
X56310Y-46800D01*
X56310Y-46869D01*
X56336Y-46933D01*
X56385Y-46982D01*
X56449Y-47009D01*
X56518Y-47009D01*
X56582Y-46983D01*
X56631Y-46934D01*
X56658Y-46870D01*
X56658Y-47146D01*
X56186Y-47146D01*
X56186Y-46870D01*
X56186Y-46801D01*
X56160Y-46737D01*
X56111Y-46688D01*
X56047Y-46661D01*
X55978Y-46661D01*
X55914Y-46687D01*
X55865Y-46736D01*
X55838Y-46800D01*
X55838Y-46869D01*
X55864Y-46933D01*
X55913Y-46982D01*
X55977Y-47009D01*
X56046Y-47009D01*
X56110Y-46983D01*
X56159Y-46934D01*
X56186Y-46870D01*
X56186Y-47146D01*
X55953Y-47146D01*
X55832Y-47026D01*
X55832Y-44901D01*
X55832Y-44832D01*
X55806Y-44768D01*
X55757Y-44719D01*
X55693Y-44692D01*
X55624Y-44692D01*
X55560Y-44718D01*
X55511Y-44767D01*
X55484Y-44831D01*
X55484Y-44900D01*
X55510Y-44964D01*
X55559Y-45013D01*
X55623Y-45040D01*
X55692Y-45040D01*
X55756Y-45014D01*
X55805Y-44965D01*
X55832Y-44901D01*
X55832Y-47026D01*
X55409Y-46609D01*
X55409Y-45026D01*
X55409Y-44950D01*
X55380Y-44879D01*
X55326Y-44825D01*
X55255Y-44796D01*
X55202Y-44796D01*
X55202Y-44271D01*
X55202Y-44202D01*
X55176Y-44138D01*
X55127Y-44089D01*
X55063Y-44062D01*
X54994Y-44062D01*
X54930Y-44088D01*
X54930Y-43944D01*
X54930Y-43875D01*
X54904Y-43811D01*
X54855Y-43762D01*
X54791Y-43735D01*
X54722Y-43735D01*
X54658Y-43761D01*
X54631Y-43788D01*
X54631Y-43512D01*
X54631Y-43443D01*
X54605Y-43379D01*
X54556Y-43330D01*
X54492Y-43303D01*
X54423Y-43303D01*
X54422Y-43303D01*
X54422Y-41287D01*
X54422Y-41218D01*
X54396Y-41154D01*
X54347Y-41105D01*
X54283Y-41078D01*
X54214Y-41078D01*
X54179Y-41092D01*
X54179Y-37893D01*
X54179Y-37824D01*
X54153Y-37760D01*
X54104Y-37711D01*
X54040Y-37684D01*
X53971Y-37684D01*
X53907Y-37710D01*
X53858Y-37759D01*
X53831Y-37823D01*
X53831Y-37892D01*
X53857Y-37956D01*
X53906Y-38005D01*
X53970Y-38032D01*
X54039Y-38032D01*
X54103Y-38006D01*
X54152Y-37957D01*
X54179Y-37893D01*
X54179Y-41092D01*
X54150Y-41104D01*
X54101Y-41153D01*
X54087Y-41185D01*
X54073Y-41150D01*
X54024Y-41101D01*
X53960Y-41074D01*
X53891Y-41074D01*
X53836Y-41096D01*
X53836Y-38590D01*
X53836Y-38521D01*
X53810Y-38457D01*
X53808Y-38455D01*
X53809Y-38454D01*
X53836Y-38390D01*
X53836Y-38321D01*
X53810Y-38257D01*
X53761Y-38208D01*
X53697Y-38181D01*
X53628Y-38181D01*
X53564Y-38207D01*
X53515Y-38256D01*
X53488Y-38320D01*
X53488Y-38389D01*
X53514Y-38453D01*
X53516Y-38455D01*
X53515Y-38456D01*
X53488Y-38520D01*
X53488Y-38589D01*
X53514Y-38653D01*
X53563Y-38702D01*
X53627Y-38729D01*
X53696Y-38729D01*
X53760Y-38703D01*
X53809Y-38654D01*
X53836Y-38590D01*
X53836Y-41096D01*
X53827Y-41100D01*
X53778Y-41149D01*
X53760Y-41190D01*
X53739Y-41138D01*
X53735Y-41134D01*
X53761Y-41075D01*
X53761Y-41006D01*
X53735Y-40942D01*
X53686Y-40893D01*
X53622Y-40866D01*
X53553Y-40866D01*
X53489Y-40892D01*
X53440Y-40941D01*
X53413Y-41005D01*
X53413Y-41074D01*
X53439Y-41138D01*
X53442Y-41141D01*
X53417Y-41201D01*
X53417Y-41270D01*
X53443Y-41334D01*
X53492Y-41383D01*
X53537Y-41402D01*
X53503Y-41437D01*
X53476Y-41501D01*
X53476Y-41570D01*
X53502Y-41634D01*
X53551Y-41683D01*
X53615Y-41710D01*
X53684Y-41710D01*
X53748Y-41684D01*
X53797Y-41635D01*
X53799Y-41628D01*
X53838Y-41667D01*
X53902Y-41694D01*
X53971Y-41694D01*
X54035Y-41668D01*
X54084Y-41619D01*
X54111Y-41555D01*
X54111Y-41486D01*
X54085Y-41422D01*
X54041Y-41378D01*
X54072Y-41347D01*
X54085Y-41314D01*
X54100Y-41350D01*
X54149Y-41399D01*
X54213Y-41426D01*
X54282Y-41426D01*
X54346Y-41400D01*
X54395Y-41351D01*
X54422Y-41287D01*
X54422Y-43303D01*
X54359Y-43329D01*
X54310Y-43378D01*
X54306Y-43386D01*
X54261Y-43341D01*
X54197Y-43314D01*
X54128Y-43314D01*
X54064Y-43340D01*
X54015Y-43389D01*
X53988Y-43453D01*
X53988Y-43522D01*
X54014Y-43586D01*
X54063Y-43635D01*
X54127Y-43662D01*
X54196Y-43662D01*
X54260Y-43636D01*
X54309Y-43587D01*
X54312Y-43578D01*
X54358Y-43624D01*
X54422Y-43651D01*
X54491Y-43651D01*
X54555Y-43625D01*
X54604Y-43576D01*
X54631Y-43512D01*
X54631Y-43788D01*
X54609Y-43810D01*
X54582Y-43874D01*
X54582Y-43943D01*
X54608Y-44007D01*
X54657Y-44056D01*
X54721Y-44083D01*
X54790Y-44083D01*
X54854Y-44057D01*
X54903Y-44008D01*
X54930Y-43944D01*
X54930Y-44088D01*
X54881Y-44137D01*
X54854Y-44201D01*
X54854Y-44270D01*
X54880Y-44334D01*
X54929Y-44383D01*
X54993Y-44410D01*
X55062Y-44410D01*
X55126Y-44384D01*
X55175Y-44335D01*
X55202Y-44271D01*
X55202Y-44796D01*
X55179Y-44796D01*
X55108Y-44825D01*
X55054Y-44879D01*
X55025Y-44950D01*
X55025Y-45026D01*
X55048Y-45084D01*
X54994Y-45084D01*
X54923Y-45113D01*
X54869Y-45167D01*
X54840Y-45238D01*
X54840Y-45314D01*
X54869Y-45385D01*
X54923Y-45439D01*
X54994Y-45468D01*
X55070Y-45468D01*
X55141Y-45439D01*
X55195Y-45385D01*
X55224Y-45314D01*
X55224Y-45238D01*
X55200Y-45180D01*
X55255Y-45180D01*
X55326Y-45151D01*
X55380Y-45097D01*
X55409Y-45026D01*
X55409Y-46609D01*
X54753Y-45962D01*
X54753Y-44260D01*
X54753Y-44191D01*
X54727Y-44127D01*
X54678Y-44078D01*
X54614Y-44051D01*
X54545Y-44051D01*
X54481Y-44077D01*
X54432Y-44126D01*
X54405Y-44190D01*
X54405Y-44259D01*
X54431Y-44323D01*
X54480Y-44372D01*
X54544Y-44399D01*
X54613Y-44399D01*
X54677Y-44373D01*
X54726Y-44324D01*
X54753Y-44260D01*
X54753Y-45962D01*
X53753Y-44976D01*
X53753Y-42157D01*
X53753Y-42088D01*
X53727Y-42024D01*
X53726Y-42023D01*
X53753Y-41960D01*
X53753Y-41891D01*
X53727Y-41827D01*
X53678Y-41778D01*
X53614Y-41751D01*
X53545Y-41751D01*
X53481Y-41777D01*
X53432Y-41826D01*
X53405Y-41890D01*
X53405Y-41959D01*
X53431Y-42023D01*
X53405Y-42087D01*
X53405Y-42156D01*
X53431Y-42220D01*
X53480Y-42269D01*
X53544Y-42296D01*
X53613Y-42296D01*
X53677Y-42270D01*
X53726Y-42221D01*
X53753Y-42157D01*
X53753Y-44976D01*
X53731Y-44955D01*
X53731Y-44235D01*
X53731Y-44159D01*
X53702Y-44088D01*
X53648Y-44034D01*
X53636Y-44029D01*
X53648Y-44025D01*
X53702Y-43971D01*
X53731Y-43900D01*
X53731Y-43824D01*
X53702Y-43753D01*
X53648Y-43699D01*
X53577Y-43670D01*
X53501Y-43670D01*
X53430Y-43699D01*
X53376Y-43753D01*
X53347Y-43824D01*
X53347Y-43900D01*
X53376Y-43971D01*
X53430Y-44025D01*
X53441Y-44029D01*
X53430Y-44034D01*
X53376Y-44088D01*
X53347Y-44159D01*
X53347Y-44235D01*
X53376Y-44306D01*
X53430Y-44360D01*
X53501Y-44389D01*
X53577Y-44389D01*
X53648Y-44360D01*
X53702Y-44306D01*
X53731Y-44235D01*
X53731Y-44955D01*
X53158Y-44390D01*
X52213Y-44390D01*
X52145Y-44323D01*
X52145Y-43433D01*
X53090Y-42449D01*
X53090Y-41188D01*
X53484Y-40716D01*
X53484Y-40687D01*
X53503Y-40706D01*
X53567Y-40733D01*
X53636Y-40733D01*
X53700Y-40707D01*
X53749Y-40658D01*
X53776Y-40594D01*
X53776Y-40525D01*
X53750Y-40461D01*
X53701Y-40412D01*
X53637Y-40385D01*
X53568Y-40385D01*
X53504Y-40411D01*
X53484Y-40431D01*
X53484Y-40348D01*
X53548Y-40375D01*
X53617Y-40375D01*
X53681Y-40349D01*
X53730Y-40300D01*
X53757Y-40236D01*
X53757Y-40167D01*
X53731Y-40103D01*
X53682Y-40054D01*
X53618Y-40027D01*
X53549Y-40027D01*
X53485Y-40053D01*
X53484Y-40054D01*
X53484Y-39691D01*
X53511Y-39718D01*
X53575Y-39745D01*
X53644Y-39745D01*
X53708Y-39719D01*
X53757Y-39670D01*
X53784Y-39606D01*
X53784Y-39537D01*
X53761Y-39480D01*
X53773Y-39469D01*
X53800Y-39405D01*
X53800Y-39336D01*
X53774Y-39272D01*
X53725Y-39223D01*
X53661Y-39196D01*
X53592Y-39196D01*
X53528Y-39222D01*
X53484Y-39266D01*
X53484Y-39034D01*
X53502Y-39079D01*
X53551Y-39128D01*
X53615Y-39155D01*
X53684Y-39155D01*
X53748Y-39129D01*
X53797Y-39080D01*
X53824Y-39016D01*
X53824Y-38947D01*
X53798Y-38883D01*
X53749Y-38834D01*
X53685Y-38807D01*
X53616Y-38807D01*
X53552Y-38833D01*
X53503Y-38882D01*
X53484Y-38927D01*
X53484Y-37097D01*
X54468Y-36467D01*
X54468Y-34753D01*
X53942Y-34469D01*
X52083Y-34469D01*
X51610Y-34666D01*
X51071Y-34666D01*
X50964Y-34559D01*
X50964Y-34299D01*
X51110Y-34153D01*
X55901Y-34153D01*
X56595Y-34539D01*
X56595Y-36857D01*
X56845Y-37149D01*
X59127Y-37149D01*
X59217Y-37099D01*
X59203Y-37114D01*
X59176Y-37178D01*
X59176Y-37247D01*
X59202Y-37311D01*
X59251Y-37360D01*
X59315Y-37387D01*
X59384Y-37387D01*
X59448Y-37361D01*
X59497Y-37312D01*
X59524Y-37248D01*
X59524Y-37179D01*
X59498Y-37115D01*
X59449Y-37066D01*
X59385Y-37039D01*
X59327Y-37039D01*
X59940Y-36704D01*
X59940Y-35126D01*
X60087Y-34980D01*
X60425Y-34980D01*
X60572Y-35126D01*
X60572Y-38393D01*
X61249Y-39230D01*
X62264Y-39503D01*
X62264Y-39908D01*
G54D10*
G36*
X66005Y-49509D02*
X63707Y-49509D01*
X63707Y-31912D01*
X63707Y-31756D01*
X63647Y-31612D01*
X63537Y-31501D01*
X63392Y-31441D01*
X63236Y-31441D01*
X63092Y-31501D01*
X62981Y-31611D01*
X62921Y-31756D01*
X62921Y-31912D01*
X62981Y-32056D01*
X63091Y-32167D01*
X63236Y-32227D01*
X63392Y-32227D01*
X63536Y-32167D01*
X63647Y-32057D01*
X63707Y-31912D01*
X63707Y-49509D01*
X63436Y-49509D01*
X63436Y-48428D01*
X63436Y-48272D01*
X63376Y-48128D01*
X63266Y-48017D01*
X63121Y-47957D01*
X62965Y-47957D01*
X62821Y-48017D01*
X62710Y-48127D01*
X62650Y-48272D01*
X62650Y-48428D01*
X62710Y-48572D01*
X62820Y-48683D01*
X62965Y-48743D01*
X63121Y-48743D01*
X63265Y-48683D01*
X63376Y-48573D01*
X63436Y-48428D01*
X63436Y-49509D01*
X62566Y-49509D01*
X62566Y-45576D01*
X62566Y-45507D01*
X62540Y-45443D01*
X62491Y-45394D01*
X62427Y-45367D01*
X62358Y-45367D01*
X62294Y-45393D01*
X62245Y-45442D01*
X62218Y-45506D01*
X62218Y-45575D01*
X62244Y-45639D01*
X62293Y-45688D01*
X62357Y-45715D01*
X62426Y-45715D01*
X62490Y-45689D01*
X62539Y-45640D01*
X62566Y-45576D01*
X62566Y-49509D01*
X62436Y-49509D01*
X62436Y-48428D01*
X62436Y-48272D01*
X62376Y-48128D01*
X62266Y-48017D01*
X62121Y-47957D01*
X61965Y-47957D01*
X61821Y-48017D01*
X61710Y-48127D01*
X61650Y-48272D01*
X61650Y-48428D01*
X61710Y-48572D01*
X61820Y-48683D01*
X61965Y-48743D01*
X62121Y-48743D01*
X62265Y-48683D01*
X62376Y-48573D01*
X62436Y-48428D01*
X62436Y-49509D01*
X60436Y-49509D01*
X60436Y-48428D01*
X60436Y-48272D01*
X60376Y-48128D01*
X60266Y-48017D01*
X60121Y-47957D01*
X59965Y-47957D01*
X59821Y-48017D01*
X59710Y-48127D01*
X59650Y-48272D01*
X59650Y-48428D01*
X59710Y-48572D01*
X59820Y-48683D01*
X59965Y-48743D01*
X60121Y-48743D01*
X60265Y-48683D01*
X60376Y-48573D01*
X60436Y-48428D01*
X60436Y-49509D01*
X59436Y-49509D01*
X59436Y-48647D01*
X59436Y-48609D01*
X59436Y-48013D01*
X59421Y-47978D01*
X59395Y-47951D01*
X59360Y-47937D01*
X59322Y-47937D01*
X58726Y-47937D01*
X58691Y-47952D01*
X58664Y-47978D01*
X58650Y-48013D01*
X58650Y-48051D01*
X58650Y-48647D01*
X58665Y-48682D01*
X58691Y-48709D01*
X58726Y-48723D01*
X58764Y-48723D01*
X59360Y-48723D01*
X59395Y-48708D01*
X59422Y-48682D01*
X59436Y-48647D01*
X59436Y-49509D01*
X57814Y-49509D01*
X57781Y-49495D01*
X57672Y-49495D01*
X57637Y-49509D01*
X57380Y-49509D01*
X57347Y-49495D01*
X57238Y-49495D01*
X57215Y-49504D01*
X57224Y-49496D01*
X57224Y-48417D01*
X56148Y-47342D01*
X61189Y-47342D01*
X62106Y-46386D01*
X62106Y-40680D01*
X62854Y-40287D01*
X62854Y-39120D01*
X62707Y-39073D01*
X62707Y-31912D01*
X62707Y-31756D01*
X62647Y-31612D01*
X62537Y-31501D01*
X62392Y-31441D01*
X62236Y-31441D01*
X62092Y-31501D01*
X61981Y-31611D01*
X61921Y-31756D01*
X61921Y-31912D01*
X61981Y-32056D01*
X62091Y-32167D01*
X62236Y-32227D01*
X62392Y-32227D01*
X62536Y-32167D01*
X62647Y-32057D01*
X62707Y-31912D01*
X62707Y-39073D01*
X62100Y-38882D01*
X61869Y-38460D01*
X61869Y-37945D01*
X61740Y-37816D01*
X61697Y-37816D01*
X61697Y-31849D01*
X61673Y-31701D01*
X61662Y-31674D01*
X61619Y-31635D01*
X61513Y-31741D01*
X61513Y-31529D01*
X61474Y-31486D01*
X61329Y-31451D01*
X61181Y-31475D01*
X61154Y-31486D01*
X61115Y-31529D01*
X61314Y-31728D01*
X61513Y-31529D01*
X61513Y-31741D01*
X61420Y-31834D01*
X61619Y-32033D01*
X61662Y-31994D01*
X61697Y-31849D01*
X61697Y-37816D01*
X61513Y-37816D01*
X61513Y-32139D01*
X61314Y-31940D01*
X61208Y-32046D01*
X61208Y-31834D01*
X61009Y-31635D01*
X60966Y-31674D01*
X60931Y-31819D01*
X60955Y-31967D01*
X60966Y-31994D01*
X61009Y-32033D01*
X61208Y-31834D01*
X61208Y-32046D01*
X61115Y-32139D01*
X61154Y-32182D01*
X61299Y-32217D01*
X61447Y-32193D01*
X61474Y-32182D01*
X61513Y-32139D01*
X61513Y-37816D01*
X61449Y-37816D01*
X61320Y-37945D01*
X61320Y-38587D01*
X61578Y-39104D01*
X61350Y-39038D01*
X60767Y-38300D01*
X60767Y-35031D01*
X60707Y-34971D01*
X60707Y-31912D01*
X60707Y-31756D01*
X60647Y-31612D01*
X60537Y-31501D01*
X60392Y-31441D01*
X60236Y-31441D01*
X60092Y-31501D01*
X59981Y-31611D01*
X59921Y-31756D01*
X59921Y-31912D01*
X59981Y-32056D01*
X60091Y-32167D01*
X60236Y-32227D01*
X60392Y-32227D01*
X60536Y-32167D01*
X60647Y-32057D01*
X60707Y-31912D01*
X60707Y-34971D01*
X60520Y-34784D01*
X59992Y-34784D01*
X59745Y-35031D01*
X59745Y-36602D01*
X59707Y-36621D01*
X59707Y-32131D01*
X59707Y-32093D01*
X59707Y-31497D01*
X59692Y-31462D01*
X59666Y-31435D01*
X59631Y-31421D01*
X59593Y-31421D01*
X58997Y-31421D01*
X58962Y-31436D01*
X58935Y-31462D01*
X58921Y-31497D01*
X58921Y-31535D01*
X58921Y-32131D01*
X58936Y-32166D01*
X58962Y-32193D01*
X58997Y-32207D01*
X59035Y-32207D01*
X59631Y-32207D01*
X59666Y-32192D01*
X59693Y-32166D01*
X59707Y-32131D01*
X59707Y-36621D01*
X59051Y-36950D01*
X58700Y-36950D01*
X58700Y-31912D01*
X58700Y-31756D01*
X58640Y-31612D01*
X58530Y-31501D01*
X58385Y-31441D01*
X58229Y-31441D01*
X58085Y-31501D01*
X57974Y-31611D01*
X57914Y-31756D01*
X57914Y-31912D01*
X57974Y-32056D01*
X58084Y-32167D01*
X58229Y-32227D01*
X58385Y-32227D01*
X58529Y-32167D01*
X58640Y-32057D01*
X58700Y-31912D01*
X58700Y-36950D01*
X57700Y-36950D01*
X57700Y-31912D01*
X57700Y-31756D01*
X57640Y-31612D01*
X57530Y-31501D01*
X57385Y-31441D01*
X57229Y-31441D01*
X57085Y-31501D01*
X56974Y-31611D01*
X56914Y-31756D01*
X56914Y-31912D01*
X56974Y-32056D01*
X57084Y-32167D01*
X57229Y-32227D01*
X57385Y-32227D01*
X57529Y-32167D01*
X57640Y-32057D01*
X57700Y-31912D01*
X57700Y-36950D01*
X56938Y-36950D01*
X56791Y-36765D01*
X56791Y-34438D01*
X56700Y-34383D01*
X56700Y-31912D01*
X56700Y-31756D01*
X56640Y-31612D01*
X56530Y-31501D01*
X56385Y-31441D01*
X56229Y-31441D01*
X56085Y-31501D01*
X55974Y-31611D01*
X55914Y-31756D01*
X55914Y-31912D01*
X55974Y-32056D01*
X56084Y-32167D01*
X56229Y-32227D01*
X56385Y-32227D01*
X56529Y-32167D01*
X56640Y-32057D01*
X56700Y-31912D01*
X56700Y-34383D01*
X55989Y-33957D01*
X55700Y-33957D01*
X55700Y-31912D01*
X55700Y-31756D01*
X55640Y-31612D01*
X55530Y-31501D01*
X55385Y-31441D01*
X55229Y-31441D01*
X55085Y-31501D01*
X54974Y-31611D01*
X54914Y-31756D01*
X54914Y-31912D01*
X54974Y-32056D01*
X55084Y-32167D01*
X55229Y-32227D01*
X55385Y-32227D01*
X55529Y-32167D01*
X55640Y-32057D01*
X55700Y-31912D01*
X55700Y-33957D01*
X54700Y-33957D01*
X54700Y-31912D01*
X54700Y-31756D01*
X54640Y-31612D01*
X54530Y-31501D01*
X54385Y-31441D01*
X54229Y-31441D01*
X54085Y-31501D01*
X53974Y-31611D01*
X53914Y-31756D01*
X53914Y-31912D01*
X53974Y-32056D01*
X54084Y-32167D01*
X54229Y-32227D01*
X54385Y-32227D01*
X54529Y-32167D01*
X54640Y-32057D01*
X54700Y-31912D01*
X54700Y-33957D01*
X52170Y-33957D01*
X52170Y-31792D01*
X52170Y-31644D01*
X52114Y-31508D01*
X52010Y-31403D01*
X51874Y-31346D01*
X51726Y-31346D01*
X51590Y-31402D01*
X51485Y-31506D01*
X51428Y-31642D01*
X51428Y-31790D01*
X51484Y-31926D01*
X51588Y-32031D01*
X51724Y-32088D01*
X51872Y-32088D01*
X52008Y-32032D01*
X52113Y-31928D01*
X52170Y-31792D01*
X52170Y-33957D01*
X51016Y-33957D01*
X50768Y-34205D01*
X50768Y-34654D01*
X50976Y-34862D01*
X51697Y-34862D01*
X52169Y-34665D01*
X53853Y-34665D01*
X53865Y-34671D01*
X53808Y-34695D01*
X53759Y-34744D01*
X53732Y-34808D01*
X53732Y-34877D01*
X53758Y-34941D01*
X53807Y-34990D01*
X53871Y-35017D01*
X53940Y-35017D01*
X54004Y-34991D01*
X54053Y-34942D01*
X54080Y-34878D01*
X54080Y-34809D01*
X54069Y-34782D01*
X54272Y-34893D01*
X54272Y-36368D01*
X53497Y-36864D01*
X53497Y-36488D01*
X53497Y-36419D01*
X53471Y-36355D01*
X53422Y-36306D01*
X53358Y-36279D01*
X53289Y-36279D01*
X53245Y-36296D01*
X53245Y-34897D01*
X53245Y-34828D01*
X53219Y-34764D01*
X53170Y-34715D01*
X53106Y-34688D01*
X53037Y-34688D01*
X52973Y-34714D01*
X52924Y-34763D01*
X52897Y-34827D01*
X52897Y-34896D01*
X52907Y-34921D01*
X52872Y-34921D01*
X52808Y-34947D01*
X52759Y-34996D01*
X52732Y-35060D01*
X52732Y-35129D01*
X52758Y-35193D01*
X52807Y-35242D01*
X52871Y-35269D01*
X52940Y-35269D01*
X53004Y-35243D01*
X53053Y-35194D01*
X53080Y-35130D01*
X53080Y-35061D01*
X53069Y-35036D01*
X53105Y-35036D01*
X53169Y-35010D01*
X53218Y-34961D01*
X53245Y-34897D01*
X53245Y-36296D01*
X53225Y-36305D01*
X53176Y-36354D01*
X53149Y-36418D01*
X53149Y-36487D01*
X53175Y-36551D01*
X53224Y-36600D01*
X53288Y-36627D01*
X53357Y-36627D01*
X53421Y-36601D01*
X53470Y-36552D01*
X53497Y-36488D01*
X53497Y-36864D01*
X53288Y-36998D01*
X53288Y-37354D01*
X53044Y-37354D01*
X53044Y-37293D01*
X53044Y-36787D01*
X53044Y-36718D01*
X53018Y-36654D01*
X52969Y-36605D01*
X52905Y-36578D01*
X52836Y-36578D01*
X52772Y-36604D01*
X52723Y-36653D01*
X52696Y-36717D01*
X52696Y-36786D01*
X52722Y-36850D01*
X52771Y-36899D01*
X52835Y-36926D01*
X52904Y-36926D01*
X52968Y-36900D01*
X53017Y-36851D01*
X53044Y-36787D01*
X53044Y-37293D01*
X53018Y-37229D01*
X52969Y-37180D01*
X52905Y-37153D01*
X52836Y-37153D01*
X52772Y-37179D01*
X52723Y-37228D01*
X52696Y-37292D01*
X52696Y-37340D01*
X52681Y-37334D01*
X52612Y-37334D01*
X52548Y-37360D01*
X52499Y-37409D01*
X52472Y-37473D01*
X52472Y-37542D01*
X52498Y-37606D01*
X52545Y-37653D01*
X52509Y-37653D01*
X52445Y-37679D01*
X52396Y-37728D01*
X52369Y-37792D01*
X52369Y-37861D01*
X52395Y-37925D01*
X52444Y-37974D01*
X52479Y-37988D01*
X52418Y-38014D01*
X52369Y-38063D01*
X52367Y-38067D01*
X52367Y-35925D01*
X52367Y-35856D01*
X52341Y-35792D01*
X52292Y-35743D01*
X52228Y-35716D01*
X52159Y-35716D01*
X52095Y-35742D01*
X52046Y-35791D01*
X52019Y-35855D01*
X52019Y-35924D01*
X52045Y-35988D01*
X52094Y-36037D01*
X52158Y-36064D01*
X52227Y-36064D01*
X52291Y-36038D01*
X52340Y-35989D01*
X52367Y-35925D01*
X52367Y-38067D01*
X52342Y-38127D01*
X52342Y-38196D01*
X52368Y-38260D01*
X52417Y-38309D01*
X52481Y-38336D01*
X52550Y-38336D01*
X52614Y-38310D01*
X52663Y-38261D01*
X52690Y-38197D01*
X52690Y-38128D01*
X52664Y-38064D01*
X52615Y-38015D01*
X52579Y-38000D01*
X52641Y-37975D01*
X52690Y-37926D01*
X52717Y-37862D01*
X52717Y-37793D01*
X52691Y-37729D01*
X52644Y-37682D01*
X52680Y-37682D01*
X52729Y-37662D01*
X53288Y-37662D01*
X53288Y-40623D01*
X52894Y-41095D01*
X52894Y-42354D01*
X52709Y-42546D01*
X52709Y-41767D01*
X52709Y-41698D01*
X52683Y-41634D01*
X52639Y-41590D01*
X52639Y-41078D01*
X52639Y-41009D01*
X52613Y-40945D01*
X52576Y-40908D01*
X52576Y-39850D01*
X52576Y-39781D01*
X52560Y-39741D01*
X52560Y-39216D01*
X52560Y-39147D01*
X52540Y-39097D01*
X52540Y-38807D01*
X52540Y-38738D01*
X52514Y-38674D01*
X52465Y-38625D01*
X52401Y-38598D01*
X52332Y-38598D01*
X52268Y-38624D01*
X52219Y-38673D01*
X52192Y-38737D01*
X52192Y-38806D01*
X52218Y-38870D01*
X52267Y-38919D01*
X52331Y-38946D01*
X52400Y-38946D01*
X52464Y-38920D01*
X52513Y-38871D01*
X52540Y-38807D01*
X52540Y-39097D01*
X52534Y-39083D01*
X52485Y-39034D01*
X52421Y-39007D01*
X52352Y-39007D01*
X52288Y-39033D01*
X52239Y-39082D01*
X52212Y-39146D01*
X52212Y-39215D01*
X52238Y-39279D01*
X52287Y-39328D01*
X52351Y-39355D01*
X52420Y-39355D01*
X52484Y-39329D01*
X52533Y-39280D01*
X52560Y-39216D01*
X52560Y-39741D01*
X52550Y-39717D01*
X52501Y-39668D01*
X52437Y-39641D01*
X52368Y-39641D01*
X52304Y-39667D01*
X52255Y-39716D01*
X52228Y-39780D01*
X52228Y-39842D01*
X52198Y-39842D01*
X52134Y-39868D01*
X52085Y-39917D01*
X52058Y-39981D01*
X52058Y-40050D01*
X52084Y-40114D01*
X52133Y-40163D01*
X52197Y-40190D01*
X52266Y-40190D01*
X52330Y-40164D01*
X52379Y-40115D01*
X52406Y-40051D01*
X52406Y-39989D01*
X52436Y-39989D01*
X52500Y-39963D01*
X52549Y-39914D01*
X52576Y-39850D01*
X52576Y-40908D01*
X52564Y-40896D01*
X52500Y-40869D01*
X52450Y-40869D01*
X52450Y-40813D01*
X52424Y-40749D01*
X52380Y-40705D01*
X52387Y-40689D01*
X52387Y-40620D01*
X52361Y-40556D01*
X52346Y-40541D01*
X52395Y-40493D01*
X52422Y-40429D01*
X52422Y-40360D01*
X52396Y-40296D01*
X52347Y-40247D01*
X52283Y-40220D01*
X52214Y-40220D01*
X52150Y-40246D01*
X52101Y-40295D01*
X52074Y-40359D01*
X52074Y-40428D01*
X52100Y-40492D01*
X52114Y-40506D01*
X52066Y-40555D01*
X52039Y-40619D01*
X52039Y-40688D01*
X52065Y-40752D01*
X52108Y-40795D01*
X52102Y-40812D01*
X52102Y-40881D01*
X52128Y-40945D01*
X52177Y-40994D01*
X52241Y-41021D01*
X52291Y-41021D01*
X52291Y-41077D01*
X52317Y-41141D01*
X52366Y-41190D01*
X52430Y-41217D01*
X52499Y-41217D01*
X52563Y-41191D01*
X52612Y-41142D01*
X52639Y-41078D01*
X52639Y-41590D01*
X52634Y-41585D01*
X52570Y-41558D01*
X52501Y-41558D01*
X52437Y-41584D01*
X52388Y-41633D01*
X52361Y-41697D01*
X52361Y-41766D01*
X52387Y-41830D01*
X52436Y-41879D01*
X52500Y-41906D01*
X52569Y-41906D01*
X52633Y-41880D01*
X52682Y-41831D01*
X52709Y-41767D01*
X52709Y-42546D01*
X52292Y-42981D01*
X52292Y-42389D01*
X52292Y-42320D01*
X52266Y-42256D01*
X52217Y-42207D01*
X52153Y-42180D01*
X52084Y-42180D01*
X52020Y-42206D01*
X52017Y-42209D01*
X52016Y-42208D01*
X51952Y-42181D01*
X51926Y-42181D01*
X51926Y-40783D01*
X51926Y-40714D01*
X51906Y-40664D01*
X51906Y-36496D01*
X51906Y-36427D01*
X51880Y-36363D01*
X51843Y-36326D01*
X51843Y-35323D01*
X51843Y-35254D01*
X51817Y-35190D01*
X51768Y-35141D01*
X51704Y-35114D01*
X51635Y-35114D01*
X51571Y-35140D01*
X51522Y-35189D01*
X51495Y-35253D01*
X51495Y-35322D01*
X51521Y-35386D01*
X51570Y-35435D01*
X51634Y-35462D01*
X51703Y-35462D01*
X51767Y-35436D01*
X51816Y-35387D01*
X51843Y-35323D01*
X51843Y-36326D01*
X51831Y-36314D01*
X51767Y-36287D01*
X51698Y-36287D01*
X51634Y-36313D01*
X51619Y-36328D01*
X51619Y-35964D01*
X51619Y-35895D01*
X51593Y-35831D01*
X51544Y-35782D01*
X51480Y-35755D01*
X51411Y-35755D01*
X51347Y-35781D01*
X51298Y-35830D01*
X51271Y-35894D01*
X51271Y-35963D01*
X51297Y-36027D01*
X51346Y-36076D01*
X51410Y-36103D01*
X51479Y-36103D01*
X51543Y-36077D01*
X51592Y-36028D01*
X51619Y-35964D01*
X51619Y-36328D01*
X51585Y-36362D01*
X51558Y-36426D01*
X51558Y-36495D01*
X51584Y-36559D01*
X51633Y-36608D01*
X51697Y-36635D01*
X51766Y-36635D01*
X51830Y-36609D01*
X51879Y-36560D01*
X51906Y-36496D01*
X51906Y-40664D01*
X51902Y-40654D01*
X51902Y-37275D01*
X51902Y-37206D01*
X51876Y-37142D01*
X51832Y-37098D01*
X51875Y-37056D01*
X51902Y-36992D01*
X51902Y-36923D01*
X51876Y-36859D01*
X51827Y-36810D01*
X51763Y-36783D01*
X51694Y-36783D01*
X51630Y-36809D01*
X51581Y-36858D01*
X51554Y-36922D01*
X51554Y-36991D01*
X51580Y-37055D01*
X51623Y-37098D01*
X51581Y-37141D01*
X51554Y-37205D01*
X51554Y-37274D01*
X51580Y-37338D01*
X51612Y-37370D01*
X51574Y-37409D01*
X51547Y-37473D01*
X51547Y-37542D01*
X51573Y-37606D01*
X51622Y-37655D01*
X51686Y-37682D01*
X51755Y-37682D01*
X51819Y-37656D01*
X51868Y-37607D01*
X51895Y-37543D01*
X51895Y-37474D01*
X51869Y-37410D01*
X51836Y-37377D01*
X51875Y-37339D01*
X51902Y-37275D01*
X51902Y-40654D01*
X51900Y-40650D01*
X51891Y-40641D01*
X51891Y-38027D01*
X51891Y-37958D01*
X51865Y-37894D01*
X51816Y-37845D01*
X51752Y-37818D01*
X51683Y-37818D01*
X51619Y-37844D01*
X51570Y-37893D01*
X51543Y-37957D01*
X51543Y-38026D01*
X51569Y-38090D01*
X51618Y-38139D01*
X51682Y-38166D01*
X51751Y-38166D01*
X51815Y-38140D01*
X51864Y-38091D01*
X51891Y-38027D01*
X51891Y-40641D01*
X51851Y-40601D01*
X51787Y-40574D01*
X51718Y-40574D01*
X51654Y-40600D01*
X51605Y-40649D01*
X51578Y-40713D01*
X51578Y-40782D01*
X51604Y-40846D01*
X51653Y-40895D01*
X51717Y-40922D01*
X51786Y-40922D01*
X51850Y-40896D01*
X51899Y-40847D01*
X51926Y-40783D01*
X51926Y-42181D01*
X51883Y-42181D01*
X51819Y-42207D01*
X51777Y-42248D01*
X51737Y-42208D01*
X51673Y-42181D01*
X51604Y-42181D01*
X51540Y-42207D01*
X51518Y-42229D01*
X51497Y-42208D01*
X51433Y-42181D01*
X51364Y-42181D01*
X51300Y-42207D01*
X51265Y-42242D01*
X51265Y-40984D01*
X51265Y-40915D01*
X51239Y-40851D01*
X51190Y-40802D01*
X51126Y-40775D01*
X51057Y-40775D01*
X50993Y-40801D01*
X50944Y-40850D01*
X50917Y-40914D01*
X50917Y-40983D01*
X50943Y-41047D01*
X50992Y-41096D01*
X51056Y-41123D01*
X51125Y-41123D01*
X51189Y-41097D01*
X51238Y-41048D01*
X51265Y-40984D01*
X51265Y-42242D01*
X51251Y-42256D01*
X51224Y-42320D01*
X51224Y-42389D01*
X51250Y-42453D01*
X51299Y-42502D01*
X51363Y-42529D01*
X51432Y-42529D01*
X51496Y-42503D01*
X51518Y-42481D01*
X51539Y-42502D01*
X51603Y-42529D01*
X51672Y-42529D01*
X51736Y-42503D01*
X51777Y-42461D01*
X51818Y-42502D01*
X51882Y-42529D01*
X51951Y-42529D01*
X52015Y-42503D01*
X52018Y-42500D01*
X52019Y-42501D01*
X52083Y-42528D01*
X52152Y-42528D01*
X52216Y-42502D01*
X52265Y-42453D01*
X52292Y-42389D01*
X52292Y-42981D01*
X51950Y-43338D01*
X51950Y-44323D01*
X51882Y-44390D01*
X50091Y-44390D01*
X50091Y-37047D01*
X50091Y-36978D01*
X50065Y-36914D01*
X50016Y-36865D01*
X49952Y-36838D01*
X49922Y-36838D01*
X49922Y-36260D01*
X49922Y-36191D01*
X49896Y-36127D01*
X49847Y-36078D01*
X49783Y-36051D01*
X49714Y-36051D01*
X49650Y-36077D01*
X49601Y-36126D01*
X49574Y-36190D01*
X49574Y-36259D01*
X49600Y-36323D01*
X49597Y-36326D01*
X49570Y-36390D01*
X49570Y-36459D01*
X49596Y-36523D01*
X49645Y-36572D01*
X49709Y-36599D01*
X49778Y-36599D01*
X49842Y-36573D01*
X49891Y-36524D01*
X49918Y-36460D01*
X49918Y-36391D01*
X49892Y-36327D01*
X49895Y-36324D01*
X49922Y-36260D01*
X49922Y-36838D01*
X49883Y-36838D01*
X49819Y-36864D01*
X49770Y-36913D01*
X49743Y-36977D01*
X49743Y-37046D01*
X49758Y-37083D01*
X49733Y-37058D01*
X49669Y-37031D01*
X49600Y-37031D01*
X49536Y-37057D01*
X49487Y-37106D01*
X49460Y-37170D01*
X49460Y-37239D01*
X49475Y-37277D01*
X49453Y-37255D01*
X49430Y-37245D01*
X49430Y-36063D01*
X49430Y-35994D01*
X49404Y-35930D01*
X49355Y-35881D01*
X49291Y-35854D01*
X49222Y-35854D01*
X49158Y-35880D01*
X49109Y-35929D01*
X49082Y-35993D01*
X49082Y-36062D01*
X49108Y-36126D01*
X49157Y-36175D01*
X49221Y-36202D01*
X49290Y-36202D01*
X49354Y-36176D01*
X49403Y-36127D01*
X49430Y-36063D01*
X49430Y-37245D01*
X49389Y-37228D01*
X49320Y-37228D01*
X49306Y-37233D01*
X49306Y-37047D01*
X49306Y-36978D01*
X49280Y-36914D01*
X49231Y-36865D01*
X49167Y-36838D01*
X49098Y-36838D01*
X49034Y-36864D01*
X48985Y-36913D01*
X48958Y-36977D01*
X48958Y-37046D01*
X48984Y-37110D01*
X49033Y-37159D01*
X49097Y-37186D01*
X49166Y-37186D01*
X49230Y-37160D01*
X49279Y-37111D01*
X49306Y-37047D01*
X49306Y-37233D01*
X49256Y-37254D01*
X49207Y-37303D01*
X49180Y-37367D01*
X49180Y-37436D01*
X49206Y-37500D01*
X49255Y-37549D01*
X49319Y-37576D01*
X49388Y-37576D01*
X49452Y-37550D01*
X49501Y-37501D01*
X49528Y-37437D01*
X49528Y-37368D01*
X49512Y-37329D01*
X49535Y-37352D01*
X49599Y-37379D01*
X49668Y-37379D01*
X49732Y-37353D01*
X49781Y-37304D01*
X49808Y-37240D01*
X49808Y-37171D01*
X49792Y-37133D01*
X49818Y-37159D01*
X49882Y-37186D01*
X49951Y-37186D01*
X50015Y-37160D01*
X50064Y-37111D01*
X50091Y-37047D01*
X50091Y-44390D01*
X49739Y-44390D01*
X49739Y-42953D01*
X49739Y-42884D01*
X49713Y-42820D01*
X49664Y-42771D01*
X49638Y-42760D01*
X49682Y-42717D01*
X49709Y-42653D01*
X49709Y-42584D01*
X49683Y-42520D01*
X49634Y-42471D01*
X49570Y-42444D01*
X49501Y-42444D01*
X49437Y-42470D01*
X49388Y-42519D01*
X49361Y-42583D01*
X49361Y-42652D01*
X49387Y-42716D01*
X49436Y-42765D01*
X49461Y-42775D01*
X49418Y-42819D01*
X49391Y-42883D01*
X49391Y-42952D01*
X49417Y-43016D01*
X49466Y-43065D01*
X49530Y-43092D01*
X49599Y-43092D01*
X49663Y-43066D01*
X49712Y-43017D01*
X49739Y-42953D01*
X49739Y-44390D01*
X48371Y-44390D01*
X48371Y-41767D01*
X48371Y-41698D01*
X48345Y-41634D01*
X48296Y-41585D01*
X48232Y-41558D01*
X48163Y-41558D01*
X48099Y-41584D01*
X48050Y-41633D01*
X48023Y-41697D01*
X48023Y-41766D01*
X48049Y-41830D01*
X48098Y-41879D01*
X48162Y-41906D01*
X48231Y-41906D01*
X48295Y-41880D01*
X48344Y-41831D01*
X48371Y-41767D01*
X48371Y-44390D01*
X48355Y-44390D01*
X48355Y-42165D01*
X48355Y-42096D01*
X48329Y-42032D01*
X48280Y-41983D01*
X48216Y-41956D01*
X48147Y-41956D01*
X48083Y-41982D01*
X48034Y-42031D01*
X48007Y-42095D01*
X48007Y-42164D01*
X48032Y-42225D01*
X48026Y-42232D01*
X47999Y-42296D01*
X47999Y-42365D01*
X48025Y-42429D01*
X48074Y-42478D01*
X48138Y-42505D01*
X48207Y-42505D01*
X48271Y-42479D01*
X48320Y-42430D01*
X48347Y-42366D01*
X48347Y-42297D01*
X48321Y-42235D01*
X48328Y-42229D01*
X48355Y-42165D01*
X48355Y-44390D01*
X48328Y-44390D01*
X48328Y-42760D01*
X48328Y-42691D01*
X48302Y-42627D01*
X48253Y-42578D01*
X48189Y-42551D01*
X48120Y-42551D01*
X48056Y-42577D01*
X48007Y-42626D01*
X47980Y-42690D01*
X47980Y-42759D01*
X48006Y-42823D01*
X48055Y-42872D01*
X48119Y-42899D01*
X48188Y-42899D01*
X48252Y-42873D01*
X48301Y-42824D01*
X48328Y-42760D01*
X48328Y-44390D01*
X47998Y-44390D01*
X47998Y-44281D01*
X47972Y-44217D01*
X47972Y-44018D01*
X47998Y-43957D01*
X47998Y-43848D01*
X47972Y-43784D01*
X47972Y-43585D01*
X47998Y-43524D01*
X47998Y-43415D01*
X47972Y-43351D01*
X47972Y-41285D01*
X47976Y-41289D01*
X48040Y-41316D01*
X48109Y-41316D01*
X48173Y-41290D01*
X48222Y-41241D01*
X48249Y-41177D01*
X48249Y-41117D01*
X48299Y-41097D01*
X48348Y-41048D01*
X48375Y-40984D01*
X48375Y-40915D01*
X48375Y-39803D01*
X48375Y-39734D01*
X48371Y-39724D01*
X48371Y-39405D01*
X48371Y-39336D01*
X48345Y-39272D01*
X48296Y-39223D01*
X48232Y-39196D01*
X48163Y-39196D01*
X48099Y-39222D01*
X48050Y-39271D01*
X48023Y-39335D01*
X48023Y-39404D01*
X48049Y-39468D01*
X48098Y-39517D01*
X48162Y-39544D01*
X48231Y-39544D01*
X48295Y-39518D01*
X48344Y-39469D01*
X48371Y-39405D01*
X48371Y-39724D01*
X48349Y-39670D01*
X48300Y-39621D01*
X48236Y-39594D01*
X48167Y-39594D01*
X48103Y-39620D01*
X48054Y-39669D01*
X48027Y-39733D01*
X48027Y-39802D01*
X48048Y-39855D01*
X48038Y-39866D01*
X48011Y-39930D01*
X48011Y-39999D01*
X48037Y-40063D01*
X48086Y-40112D01*
X48150Y-40139D01*
X48219Y-40139D01*
X48283Y-40113D01*
X48332Y-40064D01*
X48359Y-40000D01*
X48359Y-39931D01*
X48337Y-39877D01*
X48348Y-39867D01*
X48375Y-39803D01*
X48375Y-40915D01*
X48355Y-40865D01*
X48355Y-40390D01*
X48355Y-40321D01*
X48329Y-40257D01*
X48280Y-40208D01*
X48216Y-40181D01*
X48147Y-40181D01*
X48083Y-40207D01*
X48034Y-40256D01*
X48007Y-40320D01*
X48007Y-40389D01*
X48033Y-40453D01*
X48082Y-40502D01*
X48146Y-40529D01*
X48215Y-40529D01*
X48279Y-40503D01*
X48328Y-40454D01*
X48355Y-40390D01*
X48355Y-40865D01*
X48349Y-40851D01*
X48327Y-40829D01*
X48347Y-40783D01*
X48347Y-40714D01*
X48321Y-40650D01*
X48272Y-40601D01*
X48208Y-40574D01*
X48139Y-40574D01*
X48075Y-40600D01*
X48026Y-40649D01*
X47999Y-40713D01*
X47999Y-40782D01*
X48025Y-40846D01*
X48046Y-40867D01*
X48027Y-40914D01*
X48027Y-40973D01*
X47977Y-40994D01*
X47972Y-40999D01*
X47972Y-38922D01*
X47980Y-38930D01*
X48044Y-38957D01*
X48113Y-38957D01*
X48177Y-38931D01*
X48226Y-38882D01*
X48253Y-38818D01*
X48253Y-38754D01*
X48291Y-38739D01*
X48340Y-38690D01*
X48367Y-38626D01*
X48367Y-38557D01*
X48346Y-38506D01*
X48368Y-38485D01*
X48395Y-38421D01*
X48395Y-38352D01*
X48369Y-38288D01*
X48367Y-38286D01*
X48367Y-38019D01*
X48367Y-37950D01*
X48367Y-37240D01*
X48367Y-37171D01*
X48341Y-37107D01*
X48292Y-37058D01*
X48228Y-37031D01*
X48159Y-37031D01*
X48095Y-37057D01*
X48046Y-37106D01*
X48019Y-37170D01*
X48019Y-37239D01*
X48037Y-37283D01*
X48018Y-37303D01*
X47991Y-37367D01*
X47991Y-37436D01*
X48017Y-37500D01*
X48066Y-37549D01*
X48130Y-37576D01*
X48199Y-37576D01*
X48263Y-37550D01*
X48312Y-37501D01*
X48339Y-37437D01*
X48339Y-37368D01*
X48320Y-37323D01*
X48340Y-37304D01*
X48367Y-37240D01*
X48367Y-37950D01*
X48341Y-37886D01*
X48292Y-37837D01*
X48228Y-37810D01*
X48159Y-37810D01*
X48095Y-37836D01*
X48046Y-37885D01*
X48019Y-37949D01*
X48019Y-38018D01*
X48045Y-38082D01*
X48094Y-38131D01*
X48158Y-38158D01*
X48227Y-38158D01*
X48291Y-38132D01*
X48340Y-38083D01*
X48367Y-38019D01*
X48367Y-38286D01*
X48320Y-38239D01*
X48256Y-38212D01*
X48187Y-38212D01*
X48123Y-38238D01*
X48074Y-38287D01*
X48047Y-38351D01*
X48047Y-38420D01*
X48067Y-38470D01*
X48046Y-38492D01*
X48019Y-38556D01*
X48019Y-38619D01*
X47981Y-38635D01*
X47972Y-38644D01*
X47972Y-35612D01*
X47998Y-35551D01*
X47998Y-35442D01*
X47972Y-35378D01*
X47972Y-35179D01*
X47998Y-35118D01*
X47998Y-35009D01*
X47972Y-34945D01*
X47972Y-34746D01*
X47998Y-34685D01*
X47998Y-34576D01*
X47972Y-34512D01*
X47972Y-30688D01*
X56317Y-30688D01*
X56370Y-30710D01*
X56479Y-30710D01*
X56532Y-30688D01*
X56750Y-30688D01*
X56803Y-30710D01*
X56912Y-30710D01*
X56965Y-30688D01*
X57183Y-30688D01*
X57236Y-30710D01*
X57345Y-30710D01*
X57398Y-30688D01*
X57617Y-30688D01*
X57670Y-30710D01*
X57779Y-30710D01*
X57832Y-30688D01*
X66005Y-30688D01*
X66005Y-39492D01*
X65995Y-39516D01*
X65995Y-39625D01*
X66005Y-39649D01*
X66005Y-39925D01*
X65995Y-39949D01*
X65995Y-40058D01*
X66005Y-40082D01*
X66005Y-40358D01*
X65995Y-40382D01*
X65995Y-40491D01*
X66005Y-40515D01*
X66005Y-40791D01*
X65995Y-40815D01*
X65995Y-40924D01*
X66005Y-40948D01*
X66005Y-49509D01*
X66005Y-49509D01*
G37*
G54D28*
X66005Y-49509D02*
X63707Y-49509D01*
X63707Y-31912D01*
X63707Y-31756D01*
X63647Y-31612D01*
X63537Y-31501D01*
X63392Y-31441D01*
X63236Y-31441D01*
X63092Y-31501D01*
X62981Y-31611D01*
X62921Y-31756D01*
X62921Y-31912D01*
X62981Y-32056D01*
X63091Y-32167D01*
X63236Y-32227D01*
X63392Y-32227D01*
X63536Y-32167D01*
X63647Y-32057D01*
X63707Y-31912D01*
X63707Y-49509D01*
X63436Y-49509D01*
X63436Y-48428D01*
X63436Y-48272D01*
X63376Y-48128D01*
X63266Y-48017D01*
X63121Y-47957D01*
X62965Y-47957D01*
X62821Y-48017D01*
X62710Y-48127D01*
X62650Y-48272D01*
X62650Y-48428D01*
X62710Y-48572D01*
X62820Y-48683D01*
X62965Y-48743D01*
X63121Y-48743D01*
X63265Y-48683D01*
X63376Y-48573D01*
X63436Y-48428D01*
X63436Y-49509D01*
X62566Y-49509D01*
X62566Y-45576D01*
X62566Y-45507D01*
X62540Y-45443D01*
X62491Y-45394D01*
X62427Y-45367D01*
X62358Y-45367D01*
X62294Y-45393D01*
X62245Y-45442D01*
X62218Y-45506D01*
X62218Y-45575D01*
X62244Y-45639D01*
X62293Y-45688D01*
X62357Y-45715D01*
X62426Y-45715D01*
X62490Y-45689D01*
X62539Y-45640D01*
X62566Y-45576D01*
X62566Y-49509D01*
X62436Y-49509D01*
X62436Y-48428D01*
X62436Y-48272D01*
X62376Y-48128D01*
X62266Y-48017D01*
X62121Y-47957D01*
X61965Y-47957D01*
X61821Y-48017D01*
X61710Y-48127D01*
X61650Y-48272D01*
X61650Y-48428D01*
X61710Y-48572D01*
X61820Y-48683D01*
X61965Y-48743D01*
X62121Y-48743D01*
X62265Y-48683D01*
X62376Y-48573D01*
X62436Y-48428D01*
X62436Y-49509D01*
X60436Y-49509D01*
X60436Y-48428D01*
X60436Y-48272D01*
X60376Y-48128D01*
X60266Y-48017D01*
X60121Y-47957D01*
X59965Y-47957D01*
X59821Y-48017D01*
X59710Y-48127D01*
X59650Y-48272D01*
X59650Y-48428D01*
X59710Y-48572D01*
X59820Y-48683D01*
X59965Y-48743D01*
X60121Y-48743D01*
X60265Y-48683D01*
X60376Y-48573D01*
X60436Y-48428D01*
X60436Y-49509D01*
X59436Y-49509D01*
X59436Y-48647D01*
X59436Y-48609D01*
X59436Y-48013D01*
X59421Y-47978D01*
X59395Y-47951D01*
X59360Y-47937D01*
X59322Y-47937D01*
X58726Y-47937D01*
X58691Y-47952D01*
X58664Y-47978D01*
X58650Y-48013D01*
X58650Y-48051D01*
X58650Y-48647D01*
X58665Y-48682D01*
X58691Y-48709D01*
X58726Y-48723D01*
X58764Y-48723D01*
X59360Y-48723D01*
X59395Y-48708D01*
X59422Y-48682D01*
X59436Y-48647D01*
X59436Y-49509D01*
X57814Y-49509D01*
X57781Y-49495D01*
X57672Y-49495D01*
X57637Y-49509D01*
X57380Y-49509D01*
X57347Y-49495D01*
X57238Y-49495D01*
X57215Y-49504D01*
X57224Y-49496D01*
X57224Y-48417D01*
X56148Y-47342D01*
X61189Y-47342D01*
X62106Y-46386D01*
X62106Y-40680D01*
X62854Y-40287D01*
X62854Y-39120D01*
X62707Y-39073D01*
X62707Y-31912D01*
X62707Y-31756D01*
X62647Y-31612D01*
X62537Y-31501D01*
X62392Y-31441D01*
X62236Y-31441D01*
X62092Y-31501D01*
X61981Y-31611D01*
X61921Y-31756D01*
X61921Y-31912D01*
X61981Y-32056D01*
X62091Y-32167D01*
X62236Y-32227D01*
X62392Y-32227D01*
X62536Y-32167D01*
X62647Y-32057D01*
X62707Y-31912D01*
X62707Y-39073D01*
X62100Y-38882D01*
X61869Y-38460D01*
X61869Y-37945D01*
X61740Y-37816D01*
X61697Y-37816D01*
X61697Y-31849D01*
X61673Y-31701D01*
X61662Y-31674D01*
X61619Y-31635D01*
X61513Y-31741D01*
X61513Y-31529D01*
X61474Y-31486D01*
X61329Y-31451D01*
X61181Y-31475D01*
X61154Y-31486D01*
X61115Y-31529D01*
X61314Y-31728D01*
X61513Y-31529D01*
X61513Y-31741D01*
X61420Y-31834D01*
X61619Y-32033D01*
X61662Y-31994D01*
X61697Y-31849D01*
X61697Y-37816D01*
X61513Y-37816D01*
X61513Y-32139D01*
X61314Y-31940D01*
X61208Y-32046D01*
X61208Y-31834D01*
X61009Y-31635D01*
X60966Y-31674D01*
X60931Y-31819D01*
X60955Y-31967D01*
X60966Y-31994D01*
X61009Y-32033D01*
X61208Y-31834D01*
X61208Y-32046D01*
X61115Y-32139D01*
X61154Y-32182D01*
X61299Y-32217D01*
X61447Y-32193D01*
X61474Y-32182D01*
X61513Y-32139D01*
X61513Y-37816D01*
X61449Y-37816D01*
X61320Y-37945D01*
X61320Y-38587D01*
X61578Y-39104D01*
X61350Y-39038D01*
X60767Y-38300D01*
X60767Y-35031D01*
X60707Y-34971D01*
X60707Y-31912D01*
X60707Y-31756D01*
X60647Y-31612D01*
X60537Y-31501D01*
X60392Y-31441D01*
X60236Y-31441D01*
X60092Y-31501D01*
X59981Y-31611D01*
X59921Y-31756D01*
X59921Y-31912D01*
X59981Y-32056D01*
X60091Y-32167D01*
X60236Y-32227D01*
X60392Y-32227D01*
X60536Y-32167D01*
X60647Y-32057D01*
X60707Y-31912D01*
X60707Y-34971D01*
X60520Y-34784D01*
X59992Y-34784D01*
X59745Y-35031D01*
X59745Y-36602D01*
X59707Y-36621D01*
X59707Y-32131D01*
X59707Y-32093D01*
X59707Y-31497D01*
X59692Y-31462D01*
X59666Y-31435D01*
X59631Y-31421D01*
X59593Y-31421D01*
X58997Y-31421D01*
X58962Y-31436D01*
X58935Y-31462D01*
X58921Y-31497D01*
X58921Y-31535D01*
X58921Y-32131D01*
X58936Y-32166D01*
X58962Y-32193D01*
X58997Y-32207D01*
X59035Y-32207D01*
X59631Y-32207D01*
X59666Y-32192D01*
X59693Y-32166D01*
X59707Y-32131D01*
X59707Y-36621D01*
X59051Y-36950D01*
X58700Y-36950D01*
X58700Y-31912D01*
X58700Y-31756D01*
X58640Y-31612D01*
X58530Y-31501D01*
X58385Y-31441D01*
X58229Y-31441D01*
X58085Y-31501D01*
X57974Y-31611D01*
X57914Y-31756D01*
X57914Y-31912D01*
X57974Y-32056D01*
X58084Y-32167D01*
X58229Y-32227D01*
X58385Y-32227D01*
X58529Y-32167D01*
X58640Y-32057D01*
X58700Y-31912D01*
X58700Y-36950D01*
X57700Y-36950D01*
X57700Y-31912D01*
X57700Y-31756D01*
X57640Y-31612D01*
X57530Y-31501D01*
X57385Y-31441D01*
X57229Y-31441D01*
X57085Y-31501D01*
X56974Y-31611D01*
X56914Y-31756D01*
X56914Y-31912D01*
X56974Y-32056D01*
X57084Y-32167D01*
X57229Y-32227D01*
X57385Y-32227D01*
X57529Y-32167D01*
X57640Y-32057D01*
X57700Y-31912D01*
X57700Y-36950D01*
X56938Y-36950D01*
X56791Y-36765D01*
X56791Y-34438D01*
X56700Y-34383D01*
X56700Y-31912D01*
X56700Y-31756D01*
X56640Y-31612D01*
X56530Y-31501D01*
X56385Y-31441D01*
X56229Y-31441D01*
X56085Y-31501D01*
X55974Y-31611D01*
X55914Y-31756D01*
X55914Y-31912D01*
X55974Y-32056D01*
X56084Y-32167D01*
X56229Y-32227D01*
X56385Y-32227D01*
X56529Y-32167D01*
X56640Y-32057D01*
X56700Y-31912D01*
X56700Y-34383D01*
X55989Y-33957D01*
X55700Y-33957D01*
X55700Y-31912D01*
X55700Y-31756D01*
X55640Y-31612D01*
X55530Y-31501D01*
X55385Y-31441D01*
X55229Y-31441D01*
X55085Y-31501D01*
X54974Y-31611D01*
X54914Y-31756D01*
X54914Y-31912D01*
X54974Y-32056D01*
X55084Y-32167D01*
X55229Y-32227D01*
X55385Y-32227D01*
X55529Y-32167D01*
X55640Y-32057D01*
X55700Y-31912D01*
X55700Y-33957D01*
X54700Y-33957D01*
X54700Y-31912D01*
X54700Y-31756D01*
X54640Y-31612D01*
X54530Y-31501D01*
X54385Y-31441D01*
X54229Y-31441D01*
X54085Y-31501D01*
X53974Y-31611D01*
X53914Y-31756D01*
X53914Y-31912D01*
X53974Y-32056D01*
X54084Y-32167D01*
X54229Y-32227D01*
X54385Y-32227D01*
X54529Y-32167D01*
X54640Y-32057D01*
X54700Y-31912D01*
X54700Y-33957D01*
X52170Y-33957D01*
X52170Y-31792D01*
X52170Y-31644D01*
X52114Y-31508D01*
X52010Y-31403D01*
X51874Y-31346D01*
X51726Y-31346D01*
X51590Y-31402D01*
X51485Y-31506D01*
X51428Y-31642D01*
X51428Y-31790D01*
X51484Y-31926D01*
X51588Y-32031D01*
X51724Y-32088D01*
X51872Y-32088D01*
X52008Y-32032D01*
X52113Y-31928D01*
X52170Y-31792D01*
X52170Y-33957D01*
X51016Y-33957D01*
X50768Y-34205D01*
X50768Y-34654D01*
X50976Y-34862D01*
X51697Y-34862D01*
X52169Y-34665D01*
X53853Y-34665D01*
X53865Y-34671D01*
X53808Y-34695D01*
X53759Y-34744D01*
X53732Y-34808D01*
X53732Y-34877D01*
X53758Y-34941D01*
X53807Y-34990D01*
X53871Y-35017D01*
X53940Y-35017D01*
X54004Y-34991D01*
X54053Y-34942D01*
X54080Y-34878D01*
X54080Y-34809D01*
X54069Y-34782D01*
X54272Y-34893D01*
X54272Y-36368D01*
X53497Y-36864D01*
X53497Y-36488D01*
X53497Y-36419D01*
X53471Y-36355D01*
X53422Y-36306D01*
X53358Y-36279D01*
X53289Y-36279D01*
X53245Y-36296D01*
X53245Y-34897D01*
X53245Y-34828D01*
X53219Y-34764D01*
X53170Y-34715D01*
X53106Y-34688D01*
X53037Y-34688D01*
X52973Y-34714D01*
X52924Y-34763D01*
X52897Y-34827D01*
X52897Y-34896D01*
X52907Y-34921D01*
X52872Y-34921D01*
X52808Y-34947D01*
X52759Y-34996D01*
X52732Y-35060D01*
X52732Y-35129D01*
X52758Y-35193D01*
X52807Y-35242D01*
X52871Y-35269D01*
X52940Y-35269D01*
X53004Y-35243D01*
X53053Y-35194D01*
X53080Y-35130D01*
X53080Y-35061D01*
X53069Y-35036D01*
X53105Y-35036D01*
X53169Y-35010D01*
X53218Y-34961D01*
X53245Y-34897D01*
X53245Y-36296D01*
X53225Y-36305D01*
X53176Y-36354D01*
X53149Y-36418D01*
X53149Y-36487D01*
X53175Y-36551D01*
X53224Y-36600D01*
X53288Y-36627D01*
X53357Y-36627D01*
X53421Y-36601D01*
X53470Y-36552D01*
X53497Y-36488D01*
X53497Y-36864D01*
X53288Y-36998D01*
X53288Y-37354D01*
X53044Y-37354D01*
X53044Y-37293D01*
X53044Y-36787D01*
X53044Y-36718D01*
X53018Y-36654D01*
X52969Y-36605D01*
X52905Y-36578D01*
X52836Y-36578D01*
X52772Y-36604D01*
X52723Y-36653D01*
X52696Y-36717D01*
X52696Y-36786D01*
X52722Y-36850D01*
X52771Y-36899D01*
X52835Y-36926D01*
X52904Y-36926D01*
X52968Y-36900D01*
X53017Y-36851D01*
X53044Y-36787D01*
X53044Y-37293D01*
X53018Y-37229D01*
X52969Y-37180D01*
X52905Y-37153D01*
X52836Y-37153D01*
X52772Y-37179D01*
X52723Y-37228D01*
X52696Y-37292D01*
X52696Y-37340D01*
X52681Y-37334D01*
X52612Y-37334D01*
X52548Y-37360D01*
X52499Y-37409D01*
X52472Y-37473D01*
X52472Y-37542D01*
X52498Y-37606D01*
X52545Y-37653D01*
X52509Y-37653D01*
X52445Y-37679D01*
X52396Y-37728D01*
X52369Y-37792D01*
X52369Y-37861D01*
X52395Y-37925D01*
X52444Y-37974D01*
X52479Y-37988D01*
X52418Y-38014D01*
X52369Y-38063D01*
X52367Y-38067D01*
X52367Y-35925D01*
X52367Y-35856D01*
X52341Y-35792D01*
X52292Y-35743D01*
X52228Y-35716D01*
X52159Y-35716D01*
X52095Y-35742D01*
X52046Y-35791D01*
X52019Y-35855D01*
X52019Y-35924D01*
X52045Y-35988D01*
X52094Y-36037D01*
X52158Y-36064D01*
X52227Y-36064D01*
X52291Y-36038D01*
X52340Y-35989D01*
X52367Y-35925D01*
X52367Y-38067D01*
X52342Y-38127D01*
X52342Y-38196D01*
X52368Y-38260D01*
X52417Y-38309D01*
X52481Y-38336D01*
X52550Y-38336D01*
X52614Y-38310D01*
X52663Y-38261D01*
X52690Y-38197D01*
X52690Y-38128D01*
X52664Y-38064D01*
X52615Y-38015D01*
X52579Y-38000D01*
X52641Y-37975D01*
X52690Y-37926D01*
X52717Y-37862D01*
X52717Y-37793D01*
X52691Y-37729D01*
X52644Y-37682D01*
X52680Y-37682D01*
X52729Y-37662D01*
X53288Y-37662D01*
X53288Y-40623D01*
X52894Y-41095D01*
X52894Y-42354D01*
X52709Y-42546D01*
X52709Y-41767D01*
X52709Y-41698D01*
X52683Y-41634D01*
X52639Y-41590D01*
X52639Y-41078D01*
X52639Y-41009D01*
X52613Y-40945D01*
X52576Y-40908D01*
X52576Y-39850D01*
X52576Y-39781D01*
X52560Y-39741D01*
X52560Y-39216D01*
X52560Y-39147D01*
X52540Y-39097D01*
X52540Y-38807D01*
X52540Y-38738D01*
X52514Y-38674D01*
X52465Y-38625D01*
X52401Y-38598D01*
X52332Y-38598D01*
X52268Y-38624D01*
X52219Y-38673D01*
X52192Y-38737D01*
X52192Y-38806D01*
X52218Y-38870D01*
X52267Y-38919D01*
X52331Y-38946D01*
X52400Y-38946D01*
X52464Y-38920D01*
X52513Y-38871D01*
X52540Y-38807D01*
X52540Y-39097D01*
X52534Y-39083D01*
X52485Y-39034D01*
X52421Y-39007D01*
X52352Y-39007D01*
X52288Y-39033D01*
X52239Y-39082D01*
X52212Y-39146D01*
X52212Y-39215D01*
X52238Y-39279D01*
X52287Y-39328D01*
X52351Y-39355D01*
X52420Y-39355D01*
X52484Y-39329D01*
X52533Y-39280D01*
X52560Y-39216D01*
X52560Y-39741D01*
X52550Y-39717D01*
X52501Y-39668D01*
X52437Y-39641D01*
X52368Y-39641D01*
X52304Y-39667D01*
X52255Y-39716D01*
X52228Y-39780D01*
X52228Y-39842D01*
X52198Y-39842D01*
X52134Y-39868D01*
X52085Y-39917D01*
X52058Y-39981D01*
X52058Y-40050D01*
X52084Y-40114D01*
X52133Y-40163D01*
X52197Y-40190D01*
X52266Y-40190D01*
X52330Y-40164D01*
X52379Y-40115D01*
X52406Y-40051D01*
X52406Y-39989D01*
X52436Y-39989D01*
X52500Y-39963D01*
X52549Y-39914D01*
X52576Y-39850D01*
X52576Y-40908D01*
X52564Y-40896D01*
X52500Y-40869D01*
X52450Y-40869D01*
X52450Y-40813D01*
X52424Y-40749D01*
X52380Y-40705D01*
X52387Y-40689D01*
X52387Y-40620D01*
X52361Y-40556D01*
X52346Y-40541D01*
X52395Y-40493D01*
X52422Y-40429D01*
X52422Y-40360D01*
X52396Y-40296D01*
X52347Y-40247D01*
X52283Y-40220D01*
X52214Y-40220D01*
X52150Y-40246D01*
X52101Y-40295D01*
X52074Y-40359D01*
X52074Y-40428D01*
X52100Y-40492D01*
X52114Y-40506D01*
X52066Y-40555D01*
X52039Y-40619D01*
X52039Y-40688D01*
X52065Y-40752D01*
X52108Y-40795D01*
X52102Y-40812D01*
X52102Y-40881D01*
X52128Y-40945D01*
X52177Y-40994D01*
X52241Y-41021D01*
X52291Y-41021D01*
X52291Y-41077D01*
X52317Y-41141D01*
X52366Y-41190D01*
X52430Y-41217D01*
X52499Y-41217D01*
X52563Y-41191D01*
X52612Y-41142D01*
X52639Y-41078D01*
X52639Y-41590D01*
X52634Y-41585D01*
X52570Y-41558D01*
X52501Y-41558D01*
X52437Y-41584D01*
X52388Y-41633D01*
X52361Y-41697D01*
X52361Y-41766D01*
X52387Y-41830D01*
X52436Y-41879D01*
X52500Y-41906D01*
X52569Y-41906D01*
X52633Y-41880D01*
X52682Y-41831D01*
X52709Y-41767D01*
X52709Y-42546D01*
X52292Y-42981D01*
X52292Y-42389D01*
X52292Y-42320D01*
X52266Y-42256D01*
X52217Y-42207D01*
X52153Y-42180D01*
X52084Y-42180D01*
X52020Y-42206D01*
X52017Y-42209D01*
X52016Y-42208D01*
X51952Y-42181D01*
X51926Y-42181D01*
X51926Y-40783D01*
X51926Y-40714D01*
X51906Y-40664D01*
X51906Y-36496D01*
X51906Y-36427D01*
X51880Y-36363D01*
X51843Y-36326D01*
X51843Y-35323D01*
X51843Y-35254D01*
X51817Y-35190D01*
X51768Y-35141D01*
X51704Y-35114D01*
X51635Y-35114D01*
X51571Y-35140D01*
X51522Y-35189D01*
X51495Y-35253D01*
X51495Y-35322D01*
X51521Y-35386D01*
X51570Y-35435D01*
X51634Y-35462D01*
X51703Y-35462D01*
X51767Y-35436D01*
X51816Y-35387D01*
X51843Y-35323D01*
X51843Y-36326D01*
X51831Y-36314D01*
X51767Y-36287D01*
X51698Y-36287D01*
X51634Y-36313D01*
X51619Y-36328D01*
X51619Y-35964D01*
X51619Y-35895D01*
X51593Y-35831D01*
X51544Y-35782D01*
X51480Y-35755D01*
X51411Y-35755D01*
X51347Y-35781D01*
X51298Y-35830D01*
X51271Y-35894D01*
X51271Y-35963D01*
X51297Y-36027D01*
X51346Y-36076D01*
X51410Y-36103D01*
X51479Y-36103D01*
X51543Y-36077D01*
X51592Y-36028D01*
X51619Y-35964D01*
X51619Y-36328D01*
X51585Y-36362D01*
X51558Y-36426D01*
X51558Y-36495D01*
X51584Y-36559D01*
X51633Y-36608D01*
X51697Y-36635D01*
X51766Y-36635D01*
X51830Y-36609D01*
X51879Y-36560D01*
X51906Y-36496D01*
X51906Y-40664D01*
X51902Y-40654D01*
X51902Y-37275D01*
X51902Y-37206D01*
X51876Y-37142D01*
X51832Y-37098D01*
X51875Y-37056D01*
X51902Y-36992D01*
X51902Y-36923D01*
X51876Y-36859D01*
X51827Y-36810D01*
X51763Y-36783D01*
X51694Y-36783D01*
X51630Y-36809D01*
X51581Y-36858D01*
X51554Y-36922D01*
X51554Y-36991D01*
X51580Y-37055D01*
X51623Y-37098D01*
X51581Y-37141D01*
X51554Y-37205D01*
X51554Y-37274D01*
X51580Y-37338D01*
X51612Y-37370D01*
X51574Y-37409D01*
X51547Y-37473D01*
X51547Y-37542D01*
X51573Y-37606D01*
X51622Y-37655D01*
X51686Y-37682D01*
X51755Y-37682D01*
X51819Y-37656D01*
X51868Y-37607D01*
X51895Y-37543D01*
X51895Y-37474D01*
X51869Y-37410D01*
X51836Y-37377D01*
X51875Y-37339D01*
X51902Y-37275D01*
X51902Y-40654D01*
X51900Y-40650D01*
X51891Y-40641D01*
X51891Y-38027D01*
X51891Y-37958D01*
X51865Y-37894D01*
X51816Y-37845D01*
X51752Y-37818D01*
X51683Y-37818D01*
X51619Y-37844D01*
X51570Y-37893D01*
X51543Y-37957D01*
X51543Y-38026D01*
X51569Y-38090D01*
X51618Y-38139D01*
X51682Y-38166D01*
X51751Y-38166D01*
X51815Y-38140D01*
X51864Y-38091D01*
X51891Y-38027D01*
X51891Y-40641D01*
X51851Y-40601D01*
X51787Y-40574D01*
X51718Y-40574D01*
X51654Y-40600D01*
X51605Y-40649D01*
X51578Y-40713D01*
X51578Y-40782D01*
X51604Y-40846D01*
X51653Y-40895D01*
X51717Y-40922D01*
X51786Y-40922D01*
X51850Y-40896D01*
X51899Y-40847D01*
X51926Y-40783D01*
X51926Y-42181D01*
X51883Y-42181D01*
X51819Y-42207D01*
X51777Y-42248D01*
X51737Y-42208D01*
X51673Y-42181D01*
X51604Y-42181D01*
X51540Y-42207D01*
X51518Y-42229D01*
X51497Y-42208D01*
X51433Y-42181D01*
X51364Y-42181D01*
X51300Y-42207D01*
X51265Y-42242D01*
X51265Y-40984D01*
X51265Y-40915D01*
X51239Y-40851D01*
X51190Y-40802D01*
X51126Y-40775D01*
X51057Y-40775D01*
X50993Y-40801D01*
X50944Y-40850D01*
X50917Y-40914D01*
X50917Y-40983D01*
X50943Y-41047D01*
X50992Y-41096D01*
X51056Y-41123D01*
X51125Y-41123D01*
X51189Y-41097D01*
X51238Y-41048D01*
X51265Y-40984D01*
X51265Y-42242D01*
X51251Y-42256D01*
X51224Y-42320D01*
X51224Y-42389D01*
X51250Y-42453D01*
X51299Y-42502D01*
X51363Y-42529D01*
X51432Y-42529D01*
X51496Y-42503D01*
X51518Y-42481D01*
X51539Y-42502D01*
X51603Y-42529D01*
X51672Y-42529D01*
X51736Y-42503D01*
X51777Y-42461D01*
X51818Y-42502D01*
X51882Y-42529D01*
X51951Y-42529D01*
X52015Y-42503D01*
X52018Y-42500D01*
X52019Y-42501D01*
X52083Y-42528D01*
X52152Y-42528D01*
X52216Y-42502D01*
X52265Y-42453D01*
X52292Y-42389D01*
X52292Y-42981D01*
X51950Y-43338D01*
X51950Y-44323D01*
X51882Y-44390D01*
X50091Y-44390D01*
X50091Y-37047D01*
X50091Y-36978D01*
X50065Y-36914D01*
X50016Y-36865D01*
X49952Y-36838D01*
X49922Y-36838D01*
X49922Y-36260D01*
X49922Y-36191D01*
X49896Y-36127D01*
X49847Y-36078D01*
X49783Y-36051D01*
X49714Y-36051D01*
X49650Y-36077D01*
X49601Y-36126D01*
X49574Y-36190D01*
X49574Y-36259D01*
X49600Y-36323D01*
X49597Y-36326D01*
X49570Y-36390D01*
X49570Y-36459D01*
X49596Y-36523D01*
X49645Y-36572D01*
X49709Y-36599D01*
X49778Y-36599D01*
X49842Y-36573D01*
X49891Y-36524D01*
X49918Y-36460D01*
X49918Y-36391D01*
X49892Y-36327D01*
X49895Y-36324D01*
X49922Y-36260D01*
X49922Y-36838D01*
X49883Y-36838D01*
X49819Y-36864D01*
X49770Y-36913D01*
X49743Y-36977D01*
X49743Y-37046D01*
X49758Y-37083D01*
X49733Y-37058D01*
X49669Y-37031D01*
X49600Y-37031D01*
X49536Y-37057D01*
X49487Y-37106D01*
X49460Y-37170D01*
X49460Y-37239D01*
X49475Y-37277D01*
X49453Y-37255D01*
X49430Y-37245D01*
X49430Y-36063D01*
X49430Y-35994D01*
X49404Y-35930D01*
X49355Y-35881D01*
X49291Y-35854D01*
X49222Y-35854D01*
X49158Y-35880D01*
X49109Y-35929D01*
X49082Y-35993D01*
X49082Y-36062D01*
X49108Y-36126D01*
X49157Y-36175D01*
X49221Y-36202D01*
X49290Y-36202D01*
X49354Y-36176D01*
X49403Y-36127D01*
X49430Y-36063D01*
X49430Y-37245D01*
X49389Y-37228D01*
X49320Y-37228D01*
X49306Y-37233D01*
X49306Y-37047D01*
X49306Y-36978D01*
X49280Y-36914D01*
X49231Y-36865D01*
X49167Y-36838D01*
X49098Y-36838D01*
X49034Y-36864D01*
X48985Y-36913D01*
X48958Y-36977D01*
X48958Y-37046D01*
X48984Y-37110D01*
X49033Y-37159D01*
X49097Y-37186D01*
X49166Y-37186D01*
X49230Y-37160D01*
X49279Y-37111D01*
X49306Y-37047D01*
X49306Y-37233D01*
X49256Y-37254D01*
X49207Y-37303D01*
X49180Y-37367D01*
X49180Y-37436D01*
X49206Y-37500D01*
X49255Y-37549D01*
X49319Y-37576D01*
X49388Y-37576D01*
X49452Y-37550D01*
X49501Y-37501D01*
X49528Y-37437D01*
X49528Y-37368D01*
X49512Y-37329D01*
X49535Y-37352D01*
X49599Y-37379D01*
X49668Y-37379D01*
X49732Y-37353D01*
X49781Y-37304D01*
X49808Y-37240D01*
X49808Y-37171D01*
X49792Y-37133D01*
X49818Y-37159D01*
X49882Y-37186D01*
X49951Y-37186D01*
X50015Y-37160D01*
X50064Y-37111D01*
X50091Y-37047D01*
X50091Y-44390D01*
X49739Y-44390D01*
X49739Y-42953D01*
X49739Y-42884D01*
X49713Y-42820D01*
X49664Y-42771D01*
X49638Y-42760D01*
X49682Y-42717D01*
X49709Y-42653D01*
X49709Y-42584D01*
X49683Y-42520D01*
X49634Y-42471D01*
X49570Y-42444D01*
X49501Y-42444D01*
X49437Y-42470D01*
X49388Y-42519D01*
X49361Y-42583D01*
X49361Y-42652D01*
X49387Y-42716D01*
X49436Y-42765D01*
X49461Y-42775D01*
X49418Y-42819D01*
X49391Y-42883D01*
X49391Y-42952D01*
X49417Y-43016D01*
X49466Y-43065D01*
X49530Y-43092D01*
X49599Y-43092D01*
X49663Y-43066D01*
X49712Y-43017D01*
X49739Y-42953D01*
X49739Y-44390D01*
X48371Y-44390D01*
X48371Y-41767D01*
X48371Y-41698D01*
X48345Y-41634D01*
X48296Y-41585D01*
X48232Y-41558D01*
X48163Y-41558D01*
X48099Y-41584D01*
X48050Y-41633D01*
X48023Y-41697D01*
X48023Y-41766D01*
X48049Y-41830D01*
X48098Y-41879D01*
X48162Y-41906D01*
X48231Y-41906D01*
X48295Y-41880D01*
X48344Y-41831D01*
X48371Y-41767D01*
X48371Y-44390D01*
X48355Y-44390D01*
X48355Y-42165D01*
X48355Y-42096D01*
X48329Y-42032D01*
X48280Y-41983D01*
X48216Y-41956D01*
X48147Y-41956D01*
X48083Y-41982D01*
X48034Y-42031D01*
X48007Y-42095D01*
X48007Y-42164D01*
X48032Y-42225D01*
X48026Y-42232D01*
X47999Y-42296D01*
X47999Y-42365D01*
X48025Y-42429D01*
X48074Y-42478D01*
X48138Y-42505D01*
X48207Y-42505D01*
X48271Y-42479D01*
X48320Y-42430D01*
X48347Y-42366D01*
X48347Y-42297D01*
X48321Y-42235D01*
X48328Y-42229D01*
X48355Y-42165D01*
X48355Y-44390D01*
X48328Y-44390D01*
X48328Y-42760D01*
X48328Y-42691D01*
X48302Y-42627D01*
X48253Y-42578D01*
X48189Y-42551D01*
X48120Y-42551D01*
X48056Y-42577D01*
X48007Y-42626D01*
X47980Y-42690D01*
X47980Y-42759D01*
X48006Y-42823D01*
X48055Y-42872D01*
X48119Y-42899D01*
X48188Y-42899D01*
X48252Y-42873D01*
X48301Y-42824D01*
X48328Y-42760D01*
X48328Y-44390D01*
X47998Y-44390D01*
X47998Y-44281D01*
X47972Y-44217D01*
X47972Y-44018D01*
X47998Y-43957D01*
X47998Y-43848D01*
X47972Y-43784D01*
X47972Y-43585D01*
X47998Y-43524D01*
X47998Y-43415D01*
X47972Y-43351D01*
X47972Y-41285D01*
X47976Y-41289D01*
X48040Y-41316D01*
X48109Y-41316D01*
X48173Y-41290D01*
X48222Y-41241D01*
X48249Y-41177D01*
X48249Y-41117D01*
X48299Y-41097D01*
X48348Y-41048D01*
X48375Y-40984D01*
X48375Y-40915D01*
X48375Y-39803D01*
X48375Y-39734D01*
X48371Y-39724D01*
X48371Y-39405D01*
X48371Y-39336D01*
X48345Y-39272D01*
X48296Y-39223D01*
X48232Y-39196D01*
X48163Y-39196D01*
X48099Y-39222D01*
X48050Y-39271D01*
X48023Y-39335D01*
X48023Y-39404D01*
X48049Y-39468D01*
X48098Y-39517D01*
X48162Y-39544D01*
X48231Y-39544D01*
X48295Y-39518D01*
X48344Y-39469D01*
X48371Y-39405D01*
X48371Y-39724D01*
X48349Y-39670D01*
X48300Y-39621D01*
X48236Y-39594D01*
X48167Y-39594D01*
X48103Y-39620D01*
X48054Y-39669D01*
X48027Y-39733D01*
X48027Y-39802D01*
X48048Y-39855D01*
X48038Y-39866D01*
X48011Y-39930D01*
X48011Y-39999D01*
X48037Y-40063D01*
X48086Y-40112D01*
X48150Y-40139D01*
X48219Y-40139D01*
X48283Y-40113D01*
X48332Y-40064D01*
X48359Y-40000D01*
X48359Y-39931D01*
X48337Y-39877D01*
X48348Y-39867D01*
X48375Y-39803D01*
X48375Y-40915D01*
X48355Y-40865D01*
X48355Y-40390D01*
X48355Y-40321D01*
X48329Y-40257D01*
X48280Y-40208D01*
X48216Y-40181D01*
X48147Y-40181D01*
X48083Y-40207D01*
X48034Y-40256D01*
X48007Y-40320D01*
X48007Y-40389D01*
X48033Y-40453D01*
X48082Y-40502D01*
X48146Y-40529D01*
X48215Y-40529D01*
X48279Y-40503D01*
X48328Y-40454D01*
X48355Y-40390D01*
X48355Y-40865D01*
X48349Y-40851D01*
X48327Y-40829D01*
X48347Y-40783D01*
X48347Y-40714D01*
X48321Y-40650D01*
X48272Y-40601D01*
X48208Y-40574D01*
X48139Y-40574D01*
X48075Y-40600D01*
X48026Y-40649D01*
X47999Y-40713D01*
X47999Y-40782D01*
X48025Y-40846D01*
X48046Y-40867D01*
X48027Y-40914D01*
X48027Y-40973D01*
X47977Y-40994D01*
X47972Y-40999D01*
X47972Y-38922D01*
X47980Y-38930D01*
X48044Y-38957D01*
X48113Y-38957D01*
X48177Y-38931D01*
X48226Y-38882D01*
X48253Y-38818D01*
X48253Y-38754D01*
X48291Y-38739D01*
X48340Y-38690D01*
X48367Y-38626D01*
X48367Y-38557D01*
X48346Y-38506D01*
X48368Y-38485D01*
X48395Y-38421D01*
X48395Y-38352D01*
X48369Y-38288D01*
X48367Y-38286D01*
X48367Y-38019D01*
X48367Y-37950D01*
X48367Y-37240D01*
X48367Y-37171D01*
X48341Y-37107D01*
X48292Y-37058D01*
X48228Y-37031D01*
X48159Y-37031D01*
X48095Y-37057D01*
X48046Y-37106D01*
X48019Y-37170D01*
X48019Y-37239D01*
X48037Y-37283D01*
X48018Y-37303D01*
X47991Y-37367D01*
X47991Y-37436D01*
X48017Y-37500D01*
X48066Y-37549D01*
X48130Y-37576D01*
X48199Y-37576D01*
X48263Y-37550D01*
X48312Y-37501D01*
X48339Y-37437D01*
X48339Y-37368D01*
X48320Y-37323D01*
X48340Y-37304D01*
X48367Y-37240D01*
X48367Y-37950D01*
X48341Y-37886D01*
X48292Y-37837D01*
X48228Y-37810D01*
X48159Y-37810D01*
X48095Y-37836D01*
X48046Y-37885D01*
X48019Y-37949D01*
X48019Y-38018D01*
X48045Y-38082D01*
X48094Y-38131D01*
X48158Y-38158D01*
X48227Y-38158D01*
X48291Y-38132D01*
X48340Y-38083D01*
X48367Y-38019D01*
X48367Y-38286D01*
X48320Y-38239D01*
X48256Y-38212D01*
X48187Y-38212D01*
X48123Y-38238D01*
X48074Y-38287D01*
X48047Y-38351D01*
X48047Y-38420D01*
X48067Y-38470D01*
X48046Y-38492D01*
X48019Y-38556D01*
X48019Y-38619D01*
X47981Y-38635D01*
X47972Y-38644D01*
X47972Y-35612D01*
X47998Y-35551D01*
X47998Y-35442D01*
X47972Y-35378D01*
X47972Y-35179D01*
X47998Y-35118D01*
X47998Y-35009D01*
X47972Y-34945D01*
X47972Y-34746D01*
X47998Y-34685D01*
X47998Y-34576D01*
X47972Y-34512D01*
X47972Y-30688D01*
X56317Y-30688D01*
X56370Y-30710D01*
X56479Y-30710D01*
X56532Y-30688D01*
X56750Y-30688D01*
X56803Y-30710D01*
X56912Y-30710D01*
X56965Y-30688D01*
X57183Y-30688D01*
X57236Y-30710D01*
X57345Y-30710D01*
X57398Y-30688D01*
X57617Y-30688D01*
X57670Y-30710D01*
X57779Y-30710D01*
X57832Y-30688D01*
X66005Y-30688D01*
X66005Y-39492D01*
X65995Y-39516D01*
X65995Y-39625D01*
X66005Y-39649D01*
X66005Y-39925D01*
X65995Y-39949D01*
X65995Y-40058D01*
X66005Y-40082D01*
X66005Y-40358D01*
X65995Y-40382D01*
X65995Y-40491D01*
X66005Y-40515D01*
X66005Y-40791D01*
X65995Y-40815D01*
X65995Y-40924D01*
X66005Y-40948D01*
X66005Y-49509D01*
G54D10*
G36*
X55939Y-49509D02*
X53354Y-49509D01*
X53287Y-49441D01*
X53287Y-47157D01*
X53129Y-47000D01*
X53129Y-46383D01*
X55307Y-48444D01*
X55505Y-48444D01*
X55926Y-48827D01*
X55926Y-49496D01*
X55939Y-49509D01*
X55939Y-49509D01*
G37*
G54D28*
X55939Y-49509D02*
X53354Y-49509D01*
X53287Y-49441D01*
X53287Y-47157D01*
X53129Y-47000D01*
X53129Y-46383D01*
X55307Y-48444D01*
X55505Y-48444D01*
X55926Y-48827D01*
X55926Y-49496D01*
X55939Y-49509D01*
G54D10*
G36*
X51635Y-46488D02*
X50926Y-47197D01*
X50926Y-49441D01*
X50858Y-49509D01*
X47972Y-49509D01*
X47972Y-45452D01*
X51567Y-45452D01*
X51635Y-45520D01*
X51635Y-46488D01*
X51635Y-46488D01*
G37*
G54D28*
X51635Y-46488D02*
X50926Y-47197D01*
X50926Y-49441D01*
X50858Y-49509D01*
X47972Y-49509D01*
X47972Y-45452D01*
X51567Y-45452D01*
X51635Y-45520D01*
X51635Y-46488D01*
G54D10*
G36*
X59075Y-41359D02*
X56436Y-41359D01*
X56436Y-38720D01*
X59075Y-38720D01*
X59075Y-41359D01*
X59075Y-41359D01*
G37*
G54D28*
X59075Y-41359D02*
X56436Y-41359D01*
X56436Y-38720D01*
X59075Y-38720D01*
X59075Y-41359D01*
M02*
