M48
METRIC,LZ
T1C0.196
T2C0.198
T3C0.297
T4C0.300
T5C0.798
T6C0.899
T7C1.097
T8C3.198
%
G90
G05
T1
X121981Y-10051
X121991Y-103
X122001Y-095501
X122001Y-10651
X122001Y-109012
X122039Y-097
X12211Y-104501
X122121Y-098509
X122179Y-11301
X122311Y-091011
X122311Y-092011
X122311Y-108522
X122339Y-095001
X122359Y-1035
X122359Y-107521
X12238Y-102502
X12238Y-10701
X12239Y-101511
X12241Y-094501
X12241Y-096479
X12241Y-098021
X12242Y-1
X12242Y-105999
X12242Y-11051
X122431Y-101011
X122431Y-10401
X122481Y-0975
X122568Y-080061
X122568Y-081361
X122568Y-08256
X122568Y-083561
X12257Y-07856
X12257Y-084861
X12257Y-086261
X12257Y-087762
X12257Y-089162
X122669Y-11556
X122669Y-116759
X122669Y-11796
X122669Y-119159
X122669Y-12036
X122669Y-12176
X122669Y-12306
X122669Y-124259
X122669Y-12526
X123571Y-084861
X123571Y-086261
X123571Y-087762
X123571Y-089159
X12367Y-11556
X12367Y-116759
X12367Y-11796
X12367Y-119159
X123769Y-07856
X124371Y-12526
X124795Y-09401
X12507Y-118758
X12511Y-091511
X125174Y-085159
X125359Y-095001
X125471Y-07856
X125819Y-10825
X125895Y-109012
X12607Y-094501
X126169Y-12526
X12635Y-092519
X12636Y-092011
X12667Y-118557
X126789Y-09401
X126873Y-08526
X127071Y-07856
X12797Y-12526
X128369Y-119057
X12857Y-07856
X129271Y-084661
X129273Y-083561
X129339Y-11301
X12955Y-098941
X129565Y-099598
X12957Y-10046
X12957Y-10206
X129771Y-10401
X130038Y-105141
X130467Y-099499
X130551Y-107582
X13067Y-084661
X13067Y-09126
X130673Y-083561
X131161Y-107582
X131239Y-089632
X131267Y-099499
X131361Y-0965
X131371Y-09527
X131389Y-093871
X131389Y-09459
X131399Y-092611
X13145Y-1035
X131869Y-107582
X132067Y-099499
X13211Y-088389
X132159Y-11781
X13238Y-107579
X13257Y-091161
X132621Y-103261
X132669Y-101641
X13271Y-102601
X132771Y-084661
X132773Y-083561
X132781Y-103751
X13301Y-098481
X13304Y-11781
X13306Y-09952
X133101Y-10113
X133129Y-105123
X133261Y-104249
X133391Y-096931
X133439Y-105999
X133459Y-096081
X133673Y-091862
X133721Y-09527
X13429Y-09335
X13429Y-094811
X134381Y-089141
X13477Y-078461
X1348Y-088549
X13544Y-092591
X136091Y-10649
X136091Y-10699
X136101Y-102111
X136111Y-104242
X136121Y-104739
X136149Y-10302
X136169Y-078461
X136169Y-10051
X13621Y-1
X136271Y-099012
X136271Y-105501
X136301Y-097422
X136301Y-09793
X136921Y-088501
X136969Y-10477
X136987Y-120287
X137Y-105461
X137173Y-096159
X137571Y-11046
X13777Y-078461
X13779Y-10478
X137894Y-084508
X138311Y-09479
X138321Y-110432
X138471Y-096159
X138471Y-096959
X138631Y-112331
X138991Y-091631
X138991Y-10936
X139029Y-092281
X13908Y-111529
X139095Y-084508
X139271Y-078461
X139659Y-10938
X139771Y-112359
X140271Y-10939
X14036Y-104671
X140432Y-102669
X140459Y-097099
X14047Y-101681
X140492Y-084508
X14063Y-10368
X140701Y-100681
X14083Y-106289
X140843Y-110419
X140851Y-10939
X140871Y-078461
X14111Y-099131
X141321Y-09336
X141371Y-11396
X141481Y-10317
X141491Y-106271
X141501Y-10019
X141524Y-109139
X141569Y-101171
X141661Y-102189
X14177Y-105171
X141811Y-099179
X141961Y-104181
X14207Y-097861
X142121Y-084559
X142192Y-09496
X142199Y-096561
X14227Y-118961
X14257Y-078461
X142872Y-11396
X1429Y-109101
X142941Y-100929
X142941Y-102431
X14301Y-10652
X14305Y-09683
X143421Y-084559
X143469Y-118961
X1437Y-09685
X143871Y-117561
X143939Y-09892
X143939Y-10002
X143939Y-10112
X143939Y-10222
X143939Y-10332
X143939Y-104419
X144071Y-078461
X144249Y-110579
X14449Y-099469
X14449Y-100569
X14449Y-101669
X14449Y-102768
X14449Y-103868
X14465Y-10825
X144671Y-10683
X144691Y-084531
X14477Y-117561
X14477Y-118961
X145019Y-089639
X145039Y-09892
X145039Y-10002
X145039Y-10112
X145039Y-10222
X145039Y-10332
X145039Y-104419
X145049Y-092931
X145301Y-10686
X14557Y-078461
X14559Y-099469
X14559Y-100569
X14559Y-101669
X14559Y-102768
X14559Y-103868
X145821Y-084559
X145961Y-10652
X146149Y-09892
X146149Y-10002
X146149Y-10112
X146149Y-10222
X146149Y-10332
X146149Y-104419
X146169Y-118961
X146299Y-113886
X146299Y-114686
X14669Y-099469
X14669Y-100569
X14669Y-101669
X14669Y-102768
X14669Y-103868
X147069Y-078458
X147239Y-09892
X147239Y-10002
X147239Y-10112
X147239Y-10222
X147239Y-10332
X147239Y-104419
X147571Y-118961
X14779Y-099469
X14779Y-100569
X14779Y-101669
X14779Y-102768
X14779Y-103868
X14797Y-092019
X14814Y-124531
X14814Y-125331
X148171Y-12336
X148219Y-090241
X14826Y-093429
X148339Y-09892
X148339Y-10002
X148339Y-10112
X148339Y-10222
X148339Y-10332
X148339Y-104419
X148369Y-11051
X148501Y-118999
X148681Y-106611
X14877Y-078458
X14889Y-099469
X14889Y-100569
X14889Y-101669
X14889Y-102768
X14889Y-103868
X14891Y-112751
X1492Y-106601
X14937Y-084562
X149438Y-09892
X149438Y-10002
X149438Y-10112
X149438Y-10222
X149438Y-10332
X149438Y-104419
X149642Y-124531
X149642Y-125331
X149873Y-085862
X150241Y-096449
X150371Y-078458
X150543Y-084531
X150551Y-10619
X150574Y-10685
X150871Y-08586
X150919Y-117871
X151041Y-124531
X151041Y-125331
X15115Y-09157
X151501Y-102172
X151511Y-091249
X151559Y-102679
X15177Y-084562
X151859Y-10127
X151869Y-078458
X152276Y-103825
X152301Y-11255
X152441Y-124531
X152441Y-125331
X15285Y-08923
X152921Y-110449
X152944Y-084531
X153025Y-090726
X153076Y-090124
X153271Y-082662
X15337Y-078461
X153599Y-112931
X153749Y-115049
X153838Y-124531
X153838Y-125331
X15398Y-121552
X154071Y-084562
X15464Y-096741
X154668Y-078458
X154671Y-082662
X154968Y-09496
X15497Y-11923
X154973Y-114292
X155001Y-089403
X155001Y-090261
X15524Y-124531
X15524Y-125331
X155245Y-084531
X155268Y-09716
X155341Y-115042
X155369Y-112961
X155611Y-10178
X155862Y-114313
X155872Y-085862
X15592Y-090272
X155941Y-08939
X155971Y-117561
X156169Y-082662
X15637Y-078458
X156472Y-084562
X1565Y-115039
X15667Y-112662
X156741Y-124531
X156741Y-125331
X156771Y-11146
X15687Y-08586
X15687Y-117561
X15749Y-119271
X157645Y-082631
X157645Y-084531
X15777Y-094562
X15777Y-096159
X15777Y-09776
X157871Y-09286
X15797Y-078458
X15814Y-124531
X15814Y-125331
X158168Y-104562
X158168Y-10606
X158168Y-10746
X158168Y-10906
X158168Y-11256
X158171Y-110861
X158176Y-103449
X158476Y-115674
X158971Y-119261
X15907Y-090861
X15907Y-091961
X15907Y-093261
X15907Y-094562
X15907Y-096159
X159144Y-084531
X159169Y-09776
X15925Y-103449
X159268Y-104562
X159268Y-10606
X159268Y-10746
X159268Y-10906
X159268Y-11256
X159271Y-110861
X15937Y-082662
X159469Y-078458
X159738Y-124531
X159738Y-125331
X160343Y-083629
X160365Y-096162
X160368Y-095263
X160368Y-102161
X160368Y-108163
X160371Y-084562
X160371Y-101262
X160371Y-107264
X160371Y-119261
X160871Y-078461
X161171Y-082662
X161239Y-124531
X161239Y-125331
X161275Y-116474
X161326Y-117749
X161425Y-091951
X161425Y-110325
X161425Y-111524
X161468Y-100561
X161468Y-101661
X161468Y-102959
X161468Y-104361
X161468Y-10586
X161468Y-10906
X16147Y-092761
X16147Y-093962
X16147Y-09526
X16147Y-096462
X16147Y-097861
X16147Y-099261
X16147Y-107361
X161501Y-087399
X161544Y-084531
X161549Y-085425
X161574Y-086276
X162169Y-078458
X162573Y-079258
X162601Y-091999
X162649Y-087399
X162649Y-116225
X162669Y-086459
X162669Y-09286
X162674Y-111399
X1627Y-110574
X162725Y-117051
X163073Y-085761
X163073Y-093561
X163172Y-109936
X163195Y-117737
X16337Y-125362
X163871Y-078458
X163871Y-085761
X163871Y-093561
X16397Y-109936
X163993Y-117737
X164673Y-085761
X164673Y-093561
X164772Y-109936
X164795Y-117737
X165369Y-125362
X165471Y-078458
X165471Y-085761
X165471Y-093561
X16557Y-109936
X165593Y-117737
X166273Y-085761
X166273Y-093561
X166373Y-109936
X166395Y-117737
X166868Y-102959
X166868Y-104361
X166868Y-10586
X16687Y-096462
X16687Y-098161
X16687Y-101361
X16687Y-107361
X166969Y-078458
X166969Y-079459
X166969Y-119461
X166969Y-125362
X167071Y-085761
X167071Y-093561
X16717Y-109936
X167193Y-117737
T2
X142941Y-09842
X142941Y-09892
X142941Y-099411
X142941Y-100432
X142941Y-10193
X142941Y-102931
X142941Y-103421
X142941Y-103922
X142941Y-104419
X142941Y-10492
X142951Y-099931
X142951Y-10143
X143929Y-10542
X143939Y-09793
X144419Y-10542
X14444Y-09793
X14493Y-10542
X14494Y-09793
X14542Y-10542
X146931Y-09793
X14793Y-10542
X14843Y-10543
X150431Y-099431
X150439Y-09843
X150439Y-09893
X150439Y-099931
X150439Y-100919
X150439Y-10143
X150439Y-10193
X150439Y-102431
X150439Y-103431
X150439Y-10443
X150439Y-10493
X150449Y-102931
X150449Y-103932
X150749Y-094521
X15174Y-10348
X15176Y-099111
X1521Y-09496
X152476Y-104676
X152499Y-10525
X15321Y-101559
X153261Y-09968
X15352Y-08809
X153601Y-10414
X154381Y-100091
X154701Y-0921
X155199Y-103721
X155519Y-10713
X157371Y-08845
X157371Y-09127
T3
X122271Y-11127
X122301Y-099261
X122321Y-093261
X1224Y-10525
X122507Y-114521
X123307Y-114521
X124107Y-114521
X129339Y-111249
X12957Y-093221
X129969Y-08698
X129969Y-113861
X129969Y-11446
X130366Y-120058
X130366Y-12096
X130366Y-121958
X130366Y-122961
X130366Y-123957
X130366Y-12496
X131369Y-120058
X131369Y-12496
X132065Y-115252
X132065Y-116053
X132364Y-124955
X13237Y-120058
X132563Y-116655
X132669Y-110797
X133068Y-110297
X133368Y-120058
X133368Y-12496
X133563Y-116655
X133568Y-110797
X13397Y-110297
X134066Y-115252
X134066Y-116053
X13414Y-11428
X134366Y-120058
X134366Y-12096
X134366Y-121958
X134366Y-122961
X134366Y-123957
X134371Y-12496
X13447Y-110795
X135801Y-11637
X135989Y-111409
X135989Y-11226
X137721Y-08748
X137841Y-11813
X138471Y-123462
X139271Y-123462
X13957Y-094851
X139781Y-115001
X140071Y-123462
X140251Y-11427
X140871Y-123462
X1416Y-11052
X142499Y-111697
X1432Y-111697
X144229Y-109659
X146477Y-113076
X1467Y-11036
X147279Y-122641
X147325Y-12065
X147991Y-109591
X148885Y-114884
X149799Y-118801
X150924Y-120701
X152171Y-09605
X152761Y-109019
X152791Y-108301
X1537Y-120675
X155951Y-11065
X156449Y-096731
X1565Y-116299
X156789Y-103241
X157025Y-106726
X157571Y-10033
X157579Y-1011
X158272Y-120462
X160873Y-120462
T4
X141171Y-08923
X142471Y-08986
T5
X130299Y-079291
X130299Y-081831
X131569Y-080561
X132839Y-079291
X132839Y-081831
T6
X121222Y-08796
X121222Y-08906
X121222Y-09016
X121222Y-110411
X121222Y-111511
X121222Y-112611
X1354Y-080808
X13794Y-080858
X14048Y-080858
X14302Y-080858
X143319Y-07731
X143322Y-126411
X143703Y-124661
X144419Y-07731
X144422Y-126411
X145519Y-07731
X145522Y-126411
X14556Y-080858
X146243Y-124661
X146622Y-07731
X146624Y-126411
X1481Y-080858
X149969Y-122758
X150658Y-080808
X152509Y-122809
X153198Y-080858
X155049Y-122809
X155738Y-080858
X157589Y-122809
X158278Y-080858
X160129Y-122809
X160818Y-080858
X168321Y-10051
X168321Y-10161
X168321Y-10271
X168321Y-10381
T7
X125867Y-089057
X125867Y-115453
T8
X12637Y-081859
X12637Y-121856
X164569Y-081859
X164569Y-121856
T0
M30
