G04 (created by PCBNEW (2013-05-31 BZR 4019)-stable) date 03/03/2014 21:16:57*
%MOIN*%
G04 Gerber Fmt 3.4, Leading zero omitted, Abs format*
%FSLAX34Y34*%
G01*
G70*
G90*
G04 APERTURE LIST*
%ADD10C,0.00590551*%
%ADD11C,0.0077*%
%ADD12C,0.0157*%
%ADD13C,0.0432*%
%ADD14C,0.0195*%
%ADD15C,0.0354*%
%ADD16C,0.2165*%
%ADD17C,0.051*%
%ADD18C,0.055*%
%ADD19C,0.0597*%
%ADD20R,0.0597X0.0597*%
%ADD21C,0.0117*%
%ADD22C,0.0077*%
%ADD23C,0.0196*%
%ADD24C,0.0138*%
%ADD25C,0.0195*%
%ADD26C,0.0039*%
%ADD27C,0.0117*%
G04 APERTURE END LIST*
G54D10*
G54D11*
X42606Y-52483D02*
X42606Y-27680D01*
X68983Y-52483D02*
X42606Y-52483D01*
X68983Y-27680D02*
X68983Y-52483D01*
X42606Y-27680D02*
X68983Y-27680D01*
X66228Y-30437D02*
X66228Y-39492D01*
X57764Y-30437D02*
X66228Y-30437D01*
X57764Y-29650D02*
X57764Y-30437D01*
X67016Y-29650D02*
X57764Y-29650D01*
X67016Y-39492D02*
X67016Y-29650D01*
X66228Y-39492D02*
X67016Y-39492D01*
X57764Y-50515D02*
X57764Y-49728D01*
X67016Y-50515D02*
X57764Y-50515D01*
X67016Y-40948D02*
X67016Y-50515D01*
X66228Y-40948D02*
X67016Y-40948D01*
X66228Y-49728D02*
X66228Y-40948D01*
X57764Y-49728D02*
X66228Y-49728D01*
X46936Y-50515D02*
X46936Y-44413D01*
X56386Y-50515D02*
X46936Y-50515D01*
X56386Y-49728D02*
X56386Y-50515D01*
X47724Y-49728D02*
X56386Y-49728D01*
X47724Y-44413D02*
X47724Y-49728D01*
X46936Y-44413D02*
X47724Y-44413D01*
X46936Y-43390D02*
X46936Y-35555D01*
X47724Y-43390D02*
X46936Y-43390D01*
X47724Y-35555D02*
X47724Y-43390D01*
X46936Y-35555D02*
X47724Y-35555D01*
X47724Y-30437D02*
X47724Y-34570D01*
X46936Y-34570D02*
X47724Y-34570D01*
X46936Y-29648D02*
X46936Y-34570D01*
X46936Y-29648D02*
X56384Y-29648D01*
X56384Y-29648D02*
X56384Y-30437D01*
X47724Y-30437D02*
X56384Y-30437D01*
G54D12*
X61338Y-33307D03*
X60708Y-32598D03*
X61181Y-32598D03*
X60787Y-33307D03*
X62598Y-33307D03*
X62677Y-32598D03*
X62047Y-32598D03*
X62047Y-33307D03*
X64448Y-30866D03*
X63523Y-31023D03*
X63917Y-31023D03*
X64842Y-30866D03*
X63937Y-33228D03*
X63444Y-32637D03*
X60236Y-32598D03*
X63307Y-33228D03*
X54409Y-33307D03*
X54409Y-32992D03*
X54803Y-32992D03*
X54803Y-33307D03*
X55669Y-33307D03*
X55669Y-32992D03*
X55275Y-32992D03*
X55275Y-33307D03*
X52047Y-32913D03*
X59763Y-33307D03*
X60157Y-33307D03*
X52440Y-32913D03*
X51574Y-32913D03*
X59291Y-33307D03*
X58818Y-33307D03*
X51181Y-32913D03*
X56574Y-31023D03*
X60118Y-31023D03*
X60511Y-31023D03*
X56968Y-31023D03*
X57834Y-31023D03*
X61377Y-31023D03*
X60984Y-31023D03*
X57440Y-31023D03*
X59173Y-31023D03*
X62716Y-31023D03*
X63110Y-31023D03*
X59566Y-31023D03*
X58700Y-31023D03*
X62244Y-31023D03*
X61850Y-31023D03*
X58307Y-31023D03*
X49842Y-30826D03*
X54803Y-31003D03*
X55196Y-31003D03*
X50236Y-30826D03*
X48917Y-31200D03*
X56062Y-31003D03*
X55669Y-31003D03*
X50708Y-30826D03*
X48976Y-30826D03*
X53937Y-31003D03*
X54330Y-31003D03*
X49370Y-30826D03*
X48503Y-30826D03*
X53464Y-31003D03*
X53070Y-31003D03*
X48110Y-30826D03*
X56141Y-33307D03*
X56141Y-32992D03*
X56535Y-32992D03*
X56535Y-33307D03*
X57401Y-33307D03*
X57401Y-32992D03*
X57007Y-32992D03*
X57007Y-33307D03*
X49606Y-33858D03*
X49606Y-33543D03*
X50000Y-33543D03*
X50000Y-33858D03*
X49133Y-33858D03*
X49133Y-33543D03*
X48740Y-33543D03*
X48740Y-33858D03*
X64488Y-49370D03*
X64251Y-46535D03*
X64645Y-46535D03*
X64881Y-49370D03*
X65748Y-49370D03*
X65511Y-46535D03*
X65118Y-46535D03*
X65354Y-49370D03*
X62992Y-47086D03*
X62992Y-46771D03*
X63385Y-46771D03*
X63385Y-47086D03*
X62519Y-47086D03*
X62519Y-46771D03*
X62125Y-46771D03*
X62125Y-47086D03*
X63543Y-46141D03*
X63543Y-45826D03*
X63937Y-45826D03*
X63937Y-46141D03*
X63937Y-43858D03*
X63937Y-43543D03*
X63543Y-43543D03*
X63543Y-43858D03*
X63543Y-34409D03*
X63543Y-34094D03*
X63937Y-34094D03*
X63937Y-34409D03*
X63937Y-36535D03*
X63937Y-36220D03*
X63543Y-36220D03*
X63543Y-36535D03*
X64173Y-33779D03*
X64330Y-36850D03*
X64724Y-36850D03*
X64566Y-33779D03*
X65433Y-33779D03*
X65590Y-36850D03*
X65196Y-36850D03*
X65039Y-33779D03*
X52047Y-33307D03*
X65118Y-43307D03*
X65511Y-43307D03*
X52440Y-33307D03*
X51574Y-33307D03*
X64645Y-43307D03*
X64251Y-43307D03*
X51181Y-33307D03*
X65511Y-46850D03*
X65826Y-46850D03*
X65826Y-46535D03*
X65826Y-47165D03*
X60314Y-49370D03*
X60314Y-49055D03*
X60708Y-49055D03*
X60708Y-49370D03*
X61574Y-49370D03*
X61574Y-49055D03*
X61181Y-49055D03*
X61181Y-49370D03*
X62913Y-49370D03*
X62913Y-49055D03*
X63307Y-49055D03*
X63307Y-49370D03*
X62440Y-49370D03*
X62440Y-49055D03*
X62047Y-49055D03*
X62047Y-49370D03*
X58661Y-49370D03*
X58661Y-49055D03*
X64015Y-49370D03*
X65905Y-48661D03*
X65590Y-49055D03*
X65905Y-49055D03*
X63464Y-47559D03*
X63779Y-47086D03*
X59921Y-49370D03*
X59921Y-49055D03*
X58188Y-49055D03*
X58188Y-49370D03*
X59448Y-49370D03*
X59448Y-49055D03*
X59055Y-49055D03*
X59055Y-49370D03*
X54409Y-48661D03*
X57007Y-46299D03*
X56614Y-46299D03*
X54803Y-48661D03*
X55669Y-48661D03*
X59448Y-46299D03*
X59055Y-46299D03*
X55275Y-48661D03*
X50236Y-49370D03*
X48976Y-49370D03*
X48818Y-49055D03*
X53937Y-48661D03*
X49763Y-49370D03*
X48503Y-49370D03*
X48110Y-49370D03*
X49370Y-49370D03*
X55433Y-46771D03*
X54173Y-48346D03*
X54566Y-48346D03*
X55826Y-46771D03*
X56692Y-46771D03*
X53779Y-47795D03*
X55039Y-48346D03*
X56299Y-46771D03*
X58031Y-46771D03*
X58425Y-46771D03*
X57559Y-46771D03*
X53779Y-47244D03*
X54251Y-47795D03*
X57165Y-46771D03*
X48976Y-35354D03*
X49527Y-36692D03*
X49133Y-36456D03*
X48897Y-35039D03*
X48976Y-43543D03*
X49291Y-43543D03*
X49291Y-43149D03*
X48976Y-43149D03*
X53779Y-37795D03*
X54330Y-37795D03*
X54173Y-39133D03*
X54015Y-41338D03*
X49763Y-43543D03*
X50078Y-43543D03*
X50078Y-43149D03*
X49763Y-43149D03*
X54803Y-44094D03*
X55669Y-44960D03*
X55433Y-43464D03*
X54566Y-42362D03*
X48110Y-34724D03*
X48582Y-34409D03*
X48582Y-34803D03*
X48110Y-35118D03*
X48110Y-45669D03*
X48425Y-45669D03*
X48582Y-35275D03*
X48110Y-35590D03*
X48110Y-47007D03*
X48425Y-47007D03*
X48425Y-47401D03*
X48110Y-47401D03*
X48110Y-46535D03*
X48425Y-46535D03*
X48425Y-46141D03*
X48110Y-46141D03*
X48110Y-33543D03*
X48110Y-31181D03*
X48110Y-31574D03*
X48110Y-33937D03*
X48818Y-33228D03*
X50787Y-32992D03*
X50629Y-31259D03*
X48110Y-34409D03*
X48110Y-32755D03*
X48425Y-32755D03*
X48425Y-33149D03*
X48110Y-33149D03*
X48110Y-32283D03*
X48425Y-32283D03*
X48425Y-31889D03*
X48110Y-31889D03*
X48110Y-47795D03*
X48425Y-47795D03*
X48425Y-48188D03*
X48110Y-48188D03*
X48110Y-49055D03*
X48425Y-49055D03*
X48425Y-48661D03*
X48110Y-48661D03*
X50787Y-48818D03*
X50314Y-46771D03*
X50708Y-47086D03*
X50393Y-49133D03*
X48740Y-47086D03*
X49763Y-46692D03*
X49212Y-46771D03*
X48897Y-46771D03*
X49448Y-39133D03*
X49763Y-39133D03*
X49763Y-39527D03*
X49448Y-39527D03*
X49370Y-38031D03*
X49763Y-38188D03*
X48976Y-38188D03*
X50157Y-38031D03*
X49527Y-40157D03*
X49842Y-40157D03*
X49842Y-40551D03*
X49527Y-40551D03*
X49370Y-41417D03*
X49921Y-41417D03*
X49921Y-41889D03*
X49370Y-41889D03*
X65826Y-33700D03*
X65826Y-33228D03*
X65433Y-33385D03*
X65905Y-31496D03*
X65826Y-38425D03*
X65826Y-41181D03*
X65826Y-40787D03*
X65826Y-38031D03*
X65826Y-39763D03*
X54566Y-33779D03*
X56771Y-33779D03*
X65826Y-40157D03*
X65826Y-39291D03*
X65826Y-42047D03*
X65826Y-41653D03*
X65826Y-38897D03*
X65905Y-36850D03*
X63700Y-33700D03*
X63622Y-40393D03*
X63543Y-38267D03*
X63543Y-38661D03*
X63622Y-40787D03*
X63622Y-41653D03*
X63543Y-39527D03*
X63543Y-39133D03*
X63622Y-41259D03*
X63622Y-42992D03*
X63149Y-42204D03*
X63070Y-39842D03*
X63149Y-42598D03*
X63622Y-42519D03*
X65905Y-43307D03*
X63543Y-40000D03*
X63622Y-42125D03*
X63070Y-40236D03*
X63543Y-37401D03*
X63070Y-37480D03*
X63070Y-37874D03*
X63543Y-37795D03*
X63543Y-36929D03*
X61653Y-33779D03*
X59212Y-33779D03*
X63937Y-36850D03*
X61496Y-46377D03*
X58346Y-47795D03*
X58346Y-48661D03*
X63622Y-46535D03*
X63858Y-46771D03*
X58346Y-48267D03*
G54D13*
X49554Y-45454D03*
X49554Y-35062D03*
G54D14*
X56102Y-43975D03*
G54D12*
X61386Y-35540D03*
X61024Y-35536D03*
X61024Y-35198D03*
X61394Y-35193D03*
G54D15*
X47725Y-34630D03*
X47725Y-35063D03*
X47725Y-35496D03*
X47725Y-44335D03*
X47725Y-43902D03*
X47725Y-43469D03*
X66268Y-39571D03*
X66268Y-40004D03*
X66268Y-40437D03*
X66268Y-40870D03*
G54D12*
X58299Y-40354D03*
X58299Y-39921D03*
X58082Y-40138D03*
X58515Y-40138D03*
X61011Y-37386D03*
X62078Y-44708D03*
X62275Y-44901D03*
X58732Y-40354D03*
X57866Y-40354D03*
X57433Y-40354D03*
X57000Y-40354D03*
X56783Y-40571D03*
X57216Y-40571D03*
X57653Y-40571D03*
X58082Y-40571D03*
X58515Y-40571D03*
X58515Y-41004D03*
X58082Y-41004D03*
X57653Y-41004D03*
X57216Y-41004D03*
X56783Y-41004D03*
X57000Y-40787D03*
X57433Y-40787D03*
X58299Y-40787D03*
X57866Y-40787D03*
X58732Y-40787D03*
X58732Y-39921D03*
X57866Y-39921D03*
X57433Y-39921D03*
X57000Y-39921D03*
X56783Y-40138D03*
X57216Y-40138D03*
X57653Y-40138D03*
X58515Y-39705D03*
X58082Y-39705D03*
X57653Y-39705D03*
X57216Y-39705D03*
X56783Y-39705D03*
X57000Y-39488D03*
X57433Y-39488D03*
X58299Y-39488D03*
X57866Y-39488D03*
X58732Y-39488D03*
X58732Y-39055D03*
X57866Y-39055D03*
X58299Y-39055D03*
X57433Y-39055D03*
X57000Y-39055D03*
X56783Y-39272D03*
X57216Y-39272D03*
X57653Y-39272D03*
X58082Y-39272D03*
X58515Y-39272D03*
G54D14*
X48861Y-45087D03*
X48546Y-45087D03*
X48231Y-45087D03*
X52389Y-43424D03*
X52744Y-43424D03*
X52941Y-43620D03*
X52586Y-43621D03*
X52782Y-45375D03*
X52782Y-45690D03*
X52584Y-45927D03*
X52190Y-45927D03*
X51994Y-45690D03*
X51994Y-45375D03*
G54D16*
X49752Y-32228D03*
X64791Y-32228D03*
X64791Y-47975D03*
X49752Y-47975D03*
G54D14*
X56378Y-43975D03*
X52232Y-43621D03*
X52112Y-49195D03*
X51720Y-49197D03*
X52507Y-49197D03*
X51325Y-49197D03*
X52902Y-49197D03*
X51325Y-48802D03*
X51325Y-48410D03*
X51325Y-48015D03*
X51325Y-47622D03*
X51325Y-47267D03*
X51720Y-47267D03*
X52114Y-47267D03*
X52507Y-47267D03*
X52900Y-47267D03*
X52900Y-47622D03*
X52900Y-48015D03*
X52900Y-48410D03*
X52900Y-48802D03*
G54D15*
X56426Y-49768D03*
X56859Y-49768D03*
X57292Y-49768D03*
X57726Y-49768D03*
X56425Y-30437D03*
X56858Y-30437D03*
X57291Y-30437D03*
X57725Y-30437D03*
G54D17*
X51299Y-32217D03*
X52299Y-32217D03*
X52299Y-31217D03*
X51299Y-31217D03*
G54D18*
X51799Y-31717D03*
G54D19*
X58307Y-31834D03*
X57307Y-31834D03*
X56307Y-31834D03*
X55307Y-31834D03*
G54D20*
X53307Y-31814D03*
G54D19*
X54307Y-31834D03*
G54D20*
X57576Y-49079D03*
G54D19*
X56576Y-49079D03*
X63314Y-31834D03*
X62314Y-31834D03*
X61314Y-31834D03*
G54D20*
X59314Y-31814D03*
G54D19*
X60314Y-31834D03*
X63043Y-48350D03*
X62043Y-48350D03*
X61043Y-48350D03*
G54D20*
X59043Y-48330D03*
G54D19*
X60043Y-48350D03*
G54D21*
X61685Y-43255D03*
G54D14*
X56783Y-43173D03*
X61728Y-40646D03*
X61821Y-42018D03*
X61594Y-38083D03*
X55748Y-43512D03*
X55032Y-45276D03*
G54D22*
X61488Y-45011D03*
G54D14*
X58976Y-46772D03*
G54D12*
X60177Y-35130D03*
G54D14*
X54949Y-37343D03*
G54D12*
X52646Y-37508D03*
G54D14*
X54221Y-34441D03*
X51169Y-34244D03*
X57756Y-43449D03*
G54D12*
X56949Y-42618D03*
G54D14*
X58264Y-43146D03*
X60142Y-42921D03*
G54D12*
X55299Y-38228D03*
G54D14*
X62039Y-39803D03*
X59910Y-37815D03*
X62036Y-39500D03*
G54D12*
X49256Y-36028D03*
X53323Y-36453D03*
G54D22*
X60677Y-34807D03*
X61854Y-44421D03*
X62578Y-44440D03*
X61988Y-45425D03*
G54D14*
X50921Y-43799D03*
X51012Y-36701D03*
G54D12*
X48154Y-36225D03*
X48154Y-35831D03*
G54D14*
X48158Y-36717D03*
X48150Y-39079D03*
X48189Y-41437D03*
G54D12*
X48032Y-37599D03*
X48047Y-38189D03*
X48024Y-39571D03*
X48028Y-40551D03*
X48032Y-41933D03*
X48032Y-42918D03*
X48197Y-43508D03*
G54D14*
X48138Y-43807D03*
G54D12*
X48102Y-44492D03*
X50921Y-44492D03*
G54D14*
X58002Y-47500D03*
G54D12*
X59961Y-44311D03*
X58626Y-44390D03*
X58413Y-43508D03*
X60205Y-43484D03*
X59882Y-37386D03*
X58256Y-36228D03*
X57106Y-36587D03*
G54D14*
X58616Y-45230D03*
G54D12*
X61102Y-40835D03*
G54D14*
X57668Y-44518D03*
G54D12*
X52012Y-34799D03*
X61264Y-40071D03*
X54457Y-43477D03*
G54D14*
X53465Y-45815D03*
G54D12*
X54579Y-44225D03*
G54D14*
X54268Y-46508D03*
X57984Y-48284D03*
G54D12*
X61957Y-34823D03*
X60906Y-36260D03*
X61957Y-35933D03*
X62154Y-36559D03*
X61228Y-42177D03*
X60882Y-38087D03*
X60780Y-39406D03*
X59350Y-37213D03*
G54D23*
X56091Y-35378D03*
X55579Y-35130D03*
G54D12*
X59508Y-36051D03*
X59650Y-35925D03*
X57094Y-35291D03*
X58354Y-35528D03*
X58370Y-36783D03*
X48165Y-37402D03*
X60266Y-35482D03*
X48193Y-37205D03*
X60246Y-35719D03*
X49565Y-42918D03*
X49132Y-37012D03*
G54D22*
X61511Y-44618D03*
G54D14*
X55217Y-44988D03*
G54D12*
X55288Y-40421D03*
X55701Y-40618D03*
X55366Y-40819D03*
X55705Y-41839D03*
G54D24*
X59065Y-40325D03*
G54D12*
X51732Y-36461D03*
X53591Y-41236D03*
G54D24*
X56447Y-41309D03*
G54D12*
X59951Y-40876D03*
X51728Y-36957D03*
G54D24*
X59065Y-40522D03*
G54D12*
X52870Y-37327D03*
X51728Y-37240D03*
X52870Y-36752D03*
X59669Y-40425D03*
X55736Y-39831D03*
X53906Y-34843D03*
X48193Y-37984D03*
X60319Y-39984D03*
X52906Y-35095D03*
X52543Y-37827D03*
G54D24*
X56870Y-38720D03*
G54D12*
X55981Y-37386D03*
G54D24*
X59065Y-38750D03*
G54D12*
X57205Y-42071D03*
X60473Y-41000D03*
G54D24*
X59065Y-40915D03*
X59065Y-39341D03*
G54D12*
X60339Y-39244D03*
X57465Y-41937D03*
G54D24*
X57254Y-41339D03*
G54D14*
X52811Y-44992D03*
X53539Y-43862D03*
X53539Y-44197D03*
G54D12*
X60030Y-41211D03*
G54D24*
X59075Y-41112D03*
G54D12*
X60039Y-41437D03*
X55638Y-36756D03*
G54D24*
X57067Y-38720D03*
G54D12*
X59272Y-41807D03*
X59748Y-39020D03*
G54D24*
X58238Y-41339D03*
X59065Y-39144D03*
X59065Y-38947D03*
X59055Y-40128D03*
X57854Y-38720D03*
G54D12*
X59150Y-37972D03*
G54D24*
X57057Y-41339D03*
G54D12*
X55933Y-38528D03*
G54D24*
X56437Y-39734D03*
X56437Y-40325D03*
G54D12*
X56260Y-42953D03*
G54D24*
X56860Y-41339D03*
G54D14*
X60154Y-42638D03*
G54D24*
X59065Y-41309D03*
X59065Y-39931D03*
G54D12*
X55394Y-39638D03*
X53650Y-41536D03*
G54D24*
X56437Y-41112D03*
G54D12*
X53583Y-40201D03*
G54D24*
X56437Y-39931D03*
G54D12*
X55831Y-39047D03*
G54D24*
X56437Y-40915D03*
G54D12*
X53579Y-41925D03*
X53602Y-40559D03*
G54D24*
X56437Y-40128D03*
G54D12*
X55303Y-40032D03*
X53662Y-38355D03*
G54D24*
X56437Y-38750D03*
G54D12*
X55709Y-39445D03*
X56957Y-42059D03*
G54D24*
X56663Y-41339D03*
G54D12*
X52193Y-35890D03*
X59740Y-40740D03*
X54453Y-37319D03*
X51721Y-37508D03*
X54721Y-36075D03*
X59787Y-39870D03*
X55555Y-39028D03*
G54D24*
X56437Y-38947D03*
G54D12*
X53662Y-38555D03*
X53610Y-39571D03*
G54D24*
X56437Y-39537D03*
G54D12*
X53626Y-39370D03*
G54D24*
X56437Y-39341D03*
G54D12*
X53579Y-42122D03*
G54D24*
X56437Y-40719D03*
G54D12*
X55772Y-40232D03*
X55890Y-41016D03*
X55260Y-41209D03*
X55815Y-41406D03*
X55445Y-41846D03*
X56303Y-41937D03*
X53650Y-38981D03*
G54D24*
X56437Y-39144D03*
G54D12*
X53587Y-41040D03*
G54D24*
X56437Y-40522D03*
G54D12*
X59646Y-40225D03*
X54736Y-36331D03*
X49354Y-37402D03*
X53071Y-34862D03*
X52276Y-40847D03*
X52248Y-40394D03*
X48185Y-39965D03*
X48221Y-38386D03*
X52516Y-38162D03*
X48201Y-39768D03*
X52232Y-40016D03*
X48197Y-39370D03*
X52402Y-39815D03*
X48079Y-38783D03*
X52386Y-39181D03*
X48193Y-38591D03*
X52366Y-38772D03*
G54D24*
X59065Y-39734D03*
G54D12*
X51445Y-35929D03*
X52213Y-40654D03*
X48181Y-40355D03*
X55984Y-38016D03*
X56319Y-38122D03*
X56575Y-38130D03*
G54D24*
X56673Y-38711D03*
G54D12*
X49744Y-36425D03*
X49634Y-37205D03*
X49917Y-37012D03*
X49748Y-36225D03*
X51717Y-37992D03*
X52535Y-41732D03*
X48173Y-42331D03*
X52118Y-42354D03*
X54984Y-43063D03*
X48173Y-40748D03*
X55453Y-43067D03*
X51752Y-40748D03*
X48181Y-42130D03*
X51917Y-42355D03*
X48197Y-41732D03*
X51398Y-42355D03*
X48075Y-41142D03*
X51638Y-42355D03*
X48201Y-40949D03*
X54721Y-43055D03*
X51091Y-40949D03*
X55225Y-43067D03*
G54D24*
X59065Y-40719D03*
G54D12*
X51669Y-35288D03*
G54D24*
X58435Y-41339D03*
G54D12*
X58536Y-41973D03*
X59281Y-42067D03*
X58740Y-41969D03*
X52465Y-41043D03*
X49535Y-42618D03*
X48154Y-42725D03*
G54D14*
X51169Y-44827D03*
X51169Y-45063D03*
G54D25*
X55032Y-45276D02*
X55032Y-45197D01*
X55748Y-44079D02*
X55748Y-43512D01*
X54965Y-44862D02*
X55748Y-44079D01*
X54965Y-45130D02*
X54965Y-44862D01*
X55032Y-45197D02*
X54965Y-45130D01*
G54D26*
X48165Y-37402D02*
X48887Y-37402D01*
X60148Y-35364D02*
X60266Y-35482D01*
X58236Y-35362D02*
X60148Y-35364D01*
X57965Y-35638D02*
X58236Y-35362D01*
X52594Y-35634D02*
X57965Y-35638D01*
X52000Y-35043D02*
X52594Y-35634D01*
X51355Y-35043D02*
X52000Y-35043D01*
X51185Y-35213D02*
X51355Y-35043D01*
X51185Y-37708D02*
X51185Y-35213D01*
X51098Y-37795D02*
X51185Y-37708D01*
X49280Y-37795D02*
X51098Y-37795D01*
X48887Y-37402D02*
X49280Y-37795D01*
X48193Y-37205D02*
X48894Y-37205D01*
X60413Y-35719D02*
X60246Y-35719D01*
X60587Y-35539D02*
X60413Y-35719D01*
X60587Y-35430D02*
X60587Y-35539D01*
X60429Y-35272D02*
X60587Y-35430D01*
X58134Y-35274D02*
X60429Y-35272D01*
X57852Y-35547D02*
X58134Y-35274D01*
X52681Y-35547D02*
X57852Y-35547D01*
X52083Y-34949D02*
X52681Y-35547D01*
X51291Y-34949D02*
X52083Y-34949D01*
X50843Y-35397D02*
X51291Y-34949D01*
X50843Y-37472D02*
X50843Y-35397D01*
X50677Y-37638D02*
X50843Y-37472D01*
X49327Y-37638D02*
X50677Y-37638D01*
X48894Y-37205D02*
X49327Y-37638D01*
X53899Y-45541D02*
X60588Y-45541D01*
X52642Y-42918D02*
X53201Y-43477D01*
X53201Y-43477D02*
X53201Y-44843D01*
X53201Y-44843D02*
X53899Y-45541D01*
X49565Y-42918D02*
X52642Y-42918D01*
X60588Y-45541D02*
X61511Y-44618D01*
X57197Y-38563D02*
X57197Y-37803D01*
X57197Y-37803D02*
X55988Y-36594D01*
X55461Y-36594D02*
X54894Y-37161D01*
X55988Y-36594D02*
X55461Y-36594D01*
X52433Y-37161D02*
X51732Y-36461D01*
X54894Y-37161D02*
X52433Y-37161D01*
X59065Y-40325D02*
X59087Y-40327D01*
X59087Y-40327D02*
X58878Y-40167D01*
X58878Y-40167D02*
X58878Y-38947D01*
X58878Y-38947D02*
X58819Y-38888D01*
X58819Y-38888D02*
X57490Y-38888D01*
X57490Y-38888D02*
X57197Y-38563D01*
X56280Y-41618D02*
X56447Y-41309D01*
X55689Y-42209D02*
X56280Y-41618D01*
X55689Y-42567D02*
X55689Y-42209D01*
X53591Y-41236D02*
X53261Y-41236D01*
X55535Y-42721D02*
X55689Y-42567D01*
X54508Y-42724D02*
X55535Y-42721D01*
X54335Y-42898D02*
X54508Y-42724D01*
X53469Y-42898D02*
X54335Y-42898D01*
X52972Y-42398D02*
X53469Y-42898D01*
X52972Y-41528D02*
X52972Y-42398D01*
X53261Y-41236D02*
X52972Y-41528D01*
X51555Y-36961D02*
X51287Y-36693D01*
X51287Y-36693D02*
X51287Y-35263D01*
X51287Y-35263D02*
X51429Y-35142D01*
X51429Y-35142D02*
X51921Y-35142D01*
X51921Y-35142D02*
X52499Y-35720D01*
X52499Y-35720D02*
X56480Y-35720D01*
X56480Y-35720D02*
X58284Y-37524D01*
X58284Y-37524D02*
X59276Y-37524D01*
X59276Y-37524D02*
X60508Y-38756D01*
X60508Y-38756D02*
X60512Y-40315D01*
X60512Y-40315D02*
X59951Y-40876D01*
X51555Y-36961D02*
X51728Y-36957D01*
X52870Y-36752D02*
X54768Y-36752D01*
X52732Y-37240D02*
X52870Y-37327D01*
X51728Y-37240D02*
X52732Y-37240D01*
X59547Y-40425D02*
X59669Y-40425D01*
X59453Y-40327D02*
X59547Y-40425D01*
X59453Y-39870D02*
X59453Y-40327D01*
X59512Y-39811D02*
X59453Y-39870D01*
X59512Y-38531D02*
X59512Y-39811D01*
X59220Y-38240D02*
X59512Y-38531D01*
X57683Y-38240D02*
X59220Y-38240D01*
X57583Y-38140D02*
X57683Y-38240D01*
X57583Y-37788D02*
X57583Y-38140D01*
X56118Y-36323D02*
X57583Y-37788D01*
X55197Y-36323D02*
X56118Y-36323D01*
X54768Y-36752D02*
X55197Y-36323D01*
G54D27*
X55981Y-37386D02*
X56303Y-37386D01*
X56866Y-37949D02*
X56870Y-38720D01*
X56303Y-37386D02*
X56866Y-37949D01*
X57465Y-41937D02*
X57465Y-41882D01*
X57252Y-41669D02*
X57254Y-41339D01*
X57465Y-41882D02*
X57252Y-41669D01*
X55638Y-36756D02*
X55941Y-36756D01*
X55941Y-36756D02*
X57063Y-37878D01*
X57063Y-37878D02*
X57067Y-38720D01*
X60154Y-42638D02*
X59776Y-41823D01*
X59776Y-41823D02*
X59065Y-41309D01*
G54D26*
X53650Y-41536D02*
X53295Y-41536D01*
X56075Y-41307D02*
X56437Y-41112D01*
X56075Y-41693D02*
X56075Y-41622D01*
X56075Y-41622D02*
X56075Y-41307D01*
X55146Y-42630D02*
X56075Y-41693D01*
X53395Y-42630D02*
X55146Y-42630D01*
X53102Y-42337D02*
X53395Y-42630D01*
X53102Y-41729D02*
X53102Y-42337D01*
X53295Y-41536D02*
X53102Y-41729D01*
X53583Y-40201D02*
X55547Y-40205D01*
X55913Y-39933D02*
X56437Y-39931D01*
X55547Y-40205D02*
X55913Y-39933D01*
X53579Y-41925D02*
X55000Y-41925D01*
X55989Y-41201D02*
X56437Y-40915D01*
X55724Y-41201D02*
X55989Y-41201D01*
X55000Y-41925D02*
X55724Y-41201D01*
X53602Y-40559D02*
X55505Y-40559D01*
X56118Y-40130D02*
X56437Y-40128D01*
X55854Y-40394D02*
X56118Y-40130D01*
X55670Y-40394D02*
X55854Y-40394D01*
X55505Y-40559D02*
X55670Y-40394D01*
X53662Y-38355D02*
X55194Y-38355D01*
X55587Y-38748D02*
X56437Y-38750D01*
X55194Y-38355D02*
X55587Y-38748D01*
G54D27*
X56957Y-42059D02*
X56961Y-41878D01*
X56665Y-41654D02*
X56663Y-41339D01*
X56961Y-41878D02*
X56665Y-41654D01*
G54D26*
X59740Y-40740D02*
X59740Y-40607D01*
X56193Y-35890D02*
X52193Y-35890D01*
X57917Y-37614D02*
X56193Y-35890D01*
X59185Y-37614D02*
X57917Y-37614D01*
X60161Y-38590D02*
X59185Y-37614D01*
X60161Y-40186D02*
X60161Y-38590D01*
X59740Y-40607D02*
X60161Y-40186D01*
X59787Y-39870D02*
X59787Y-39445D01*
X52178Y-37508D02*
X52336Y-37666D01*
X52336Y-37666D02*
X52799Y-37666D01*
X52799Y-37666D02*
X53146Y-37319D01*
X53146Y-37319D02*
X54453Y-37319D01*
X51721Y-37508D02*
X52178Y-37508D01*
X56217Y-36075D02*
X54721Y-36075D01*
X57902Y-37760D02*
X56217Y-36075D01*
X59193Y-37760D02*
X57902Y-37760D01*
X60051Y-38618D02*
X59193Y-37760D01*
X60051Y-39181D02*
X60051Y-38618D01*
X59787Y-39445D02*
X60051Y-39181D01*
X55244Y-38555D02*
X55539Y-38843D01*
X56173Y-38843D02*
X56437Y-38947D01*
X55539Y-38843D02*
X56173Y-38843D01*
X53662Y-38555D02*
X55244Y-38555D01*
X53610Y-39571D02*
X55086Y-39571D01*
X55913Y-39540D02*
X56437Y-39537D01*
X55555Y-39783D02*
X55913Y-39540D01*
X55299Y-39784D02*
X55555Y-39783D01*
X55086Y-39571D02*
X55299Y-39784D01*
X53626Y-39370D02*
X55449Y-39366D01*
X56083Y-39343D02*
X56437Y-39341D01*
X56032Y-39292D02*
X56083Y-39343D01*
X55524Y-39291D02*
X56032Y-39292D01*
X55449Y-39366D02*
X55524Y-39291D01*
X53579Y-42122D02*
X53401Y-42122D01*
X55945Y-40717D02*
X56437Y-40719D01*
X54984Y-41744D02*
X55945Y-40717D01*
X53421Y-41744D02*
X54984Y-41744D01*
X53307Y-41858D02*
X53421Y-41744D01*
X53307Y-42028D02*
X53307Y-41858D01*
X53401Y-42122D02*
X53307Y-42028D01*
X53650Y-38981D02*
X55308Y-38981D01*
X56111Y-39138D02*
X56437Y-39144D01*
X56048Y-39201D02*
X56111Y-39138D01*
X55528Y-39201D02*
X56048Y-39201D01*
X55308Y-38981D02*
X55528Y-39201D01*
X53587Y-41040D02*
X55488Y-41040D01*
X56004Y-40524D02*
X56437Y-40522D01*
X55488Y-41040D02*
X56004Y-40524D01*
G54D11*
X59646Y-40225D02*
X59646Y-39977D01*
X54862Y-36205D02*
X54736Y-36331D01*
X56166Y-36205D02*
X54862Y-36205D01*
X58095Y-38134D02*
X56166Y-36205D01*
X59260Y-38134D02*
X58095Y-38134D01*
X59949Y-38823D02*
X59260Y-38134D01*
X59949Y-39074D02*
X59949Y-38823D01*
X59622Y-39401D02*
X59949Y-39074D01*
X59622Y-39953D02*
X59622Y-39401D01*
X59646Y-39977D02*
X59622Y-39953D01*
G54D26*
X49354Y-37402D02*
X49354Y-36324D01*
X52291Y-33850D02*
X54307Y-31834D01*
X51130Y-33850D02*
X52291Y-33850D01*
X50264Y-34716D02*
X51130Y-33850D01*
X50264Y-35732D02*
X50264Y-34716D01*
X50027Y-35969D02*
X50264Y-35732D01*
X49709Y-35969D02*
X50027Y-35969D01*
X49354Y-36324D02*
X49709Y-35969D01*
X48185Y-39965D02*
X51819Y-39965D01*
X51819Y-39965D02*
X52248Y-40394D01*
X48221Y-38386D02*
X52292Y-38386D01*
X52292Y-38386D02*
X52516Y-38162D01*
X48201Y-39768D02*
X51984Y-39768D01*
X51984Y-39768D02*
X52232Y-40016D01*
X48197Y-39370D02*
X51957Y-39370D01*
X51957Y-39370D02*
X52402Y-39815D01*
X48079Y-38783D02*
X51989Y-38784D01*
X51989Y-38784D02*
X52386Y-39181D01*
X48193Y-38591D02*
X52185Y-38591D01*
X52185Y-38591D02*
X52366Y-38772D01*
X59065Y-39734D02*
X59299Y-39732D01*
X52524Y-37008D02*
X51445Y-35929D01*
X54873Y-37008D02*
X52524Y-37008D01*
X55377Y-36504D02*
X54873Y-37008D01*
X56039Y-36504D02*
X55377Y-36504D01*
X57319Y-37784D02*
X56039Y-36504D01*
X57319Y-38331D02*
X57319Y-37784D01*
X57421Y-38433D02*
X57319Y-38331D01*
X59149Y-38433D02*
X57421Y-38433D01*
X59350Y-38638D02*
X59149Y-38433D01*
X59350Y-39681D02*
X59350Y-38638D01*
X59299Y-39732D02*
X59350Y-39681D01*
X48181Y-40355D02*
X51914Y-40355D01*
X51914Y-40355D02*
X52213Y-40654D01*
X49744Y-36425D02*
X50248Y-36425D01*
X52385Y-34121D02*
X54094Y-32421D01*
X54094Y-32421D02*
X55758Y-32421D01*
X55758Y-32421D02*
X56307Y-31834D01*
X51545Y-34123D02*
X52385Y-34121D01*
X50484Y-35213D02*
X51545Y-34123D01*
X50484Y-36189D02*
X50484Y-35213D01*
X50248Y-36425D02*
X50484Y-36189D01*
X49634Y-37205D02*
X49634Y-36995D01*
X56555Y-32569D02*
X57307Y-31834D01*
X54124Y-32569D02*
X56555Y-32569D01*
X52165Y-34528D02*
X54124Y-32569D01*
X51335Y-34528D02*
X52165Y-34528D01*
X50606Y-35257D02*
X51335Y-34528D01*
X50606Y-36650D02*
X50606Y-35257D01*
X50433Y-36823D02*
X50606Y-36650D01*
X49806Y-36823D02*
X50433Y-36823D01*
X49634Y-36995D02*
X49806Y-36823D01*
X49917Y-37012D02*
X50531Y-37012D01*
X52283Y-34656D02*
X54193Y-32746D01*
X54193Y-32746D02*
X57028Y-32746D01*
X57028Y-32746D02*
X58307Y-31834D01*
X51358Y-34661D02*
X52283Y-34656D01*
X50713Y-35306D02*
X51358Y-34661D01*
X50713Y-36830D02*
X50713Y-35306D01*
X50531Y-37012D02*
X50713Y-36830D01*
X49748Y-36225D02*
X50086Y-36225D01*
X52366Y-33965D02*
X54055Y-32276D01*
X54055Y-32276D02*
X54866Y-32276D01*
X54866Y-32276D02*
X55307Y-31834D01*
X51149Y-33965D02*
X52366Y-33965D01*
X50386Y-34728D02*
X51149Y-33965D01*
X50386Y-35925D02*
X50386Y-34728D01*
X50086Y-36225D02*
X50386Y-35925D01*
X52898Y-37992D02*
X51717Y-37992D01*
X53063Y-38157D02*
X52898Y-37992D01*
X53063Y-41260D02*
X53063Y-38157D01*
X52591Y-41732D02*
X53063Y-41260D01*
X52535Y-41732D02*
X52591Y-41732D01*
X48173Y-42331D02*
X50886Y-42331D01*
X52118Y-42528D02*
X52118Y-42354D01*
X52004Y-42642D02*
X52118Y-42528D01*
X51197Y-42642D02*
X52004Y-42642D01*
X50886Y-42331D02*
X51197Y-42642D01*
X48173Y-40748D02*
X50792Y-40748D01*
X54834Y-42913D02*
X54984Y-43063D01*
X54631Y-42913D02*
X54834Y-42913D01*
X54461Y-43083D02*
X54631Y-42913D01*
X53410Y-43083D02*
X54461Y-43083D01*
X51921Y-41610D02*
X53410Y-43083D01*
X51921Y-41146D02*
X51921Y-41610D01*
X51422Y-40642D02*
X51921Y-41146D01*
X50898Y-40642D02*
X51422Y-40642D01*
X50792Y-40748D02*
X50898Y-40642D01*
X51752Y-40748D02*
X51752Y-40854D01*
X55201Y-42815D02*
X55453Y-43067D01*
X54579Y-42815D02*
X55201Y-42815D01*
X54410Y-42984D02*
X54579Y-42815D01*
X53441Y-42984D02*
X54410Y-42984D01*
X52028Y-41571D02*
X53441Y-42984D01*
X52028Y-41130D02*
X52028Y-41571D01*
X51752Y-40854D02*
X52028Y-41130D01*
X48181Y-42130D02*
X50871Y-42130D01*
X51725Y-42547D02*
X51917Y-42355D01*
X51288Y-42547D02*
X51725Y-42547D01*
X50871Y-42130D02*
X51288Y-42547D01*
X48197Y-41732D02*
X50941Y-41732D01*
X51398Y-42189D02*
X51398Y-42355D01*
X50941Y-41732D02*
X51398Y-42189D01*
X48075Y-41142D02*
X50673Y-41142D01*
X51638Y-42107D02*
X51638Y-42355D01*
X50673Y-41142D02*
X51638Y-42107D01*
X48201Y-40949D02*
X50862Y-40949D01*
X54571Y-43205D02*
X54721Y-43055D01*
X53323Y-43205D02*
X54571Y-43205D01*
X51760Y-41587D02*
X53323Y-43205D01*
X51764Y-41146D02*
X51760Y-41587D01*
X51366Y-40744D02*
X51764Y-41146D01*
X51067Y-40744D02*
X51366Y-40744D01*
X50862Y-40949D02*
X51067Y-40744D01*
X51091Y-40949D02*
X51323Y-40949D01*
X54969Y-43323D02*
X55225Y-43067D01*
X53304Y-43323D02*
X54969Y-43323D01*
X52796Y-42815D02*
X53304Y-43323D01*
X52457Y-42815D02*
X52796Y-42815D01*
X52350Y-42708D02*
X52457Y-42815D01*
X52350Y-42315D02*
X52350Y-42708D01*
X52236Y-42201D02*
X52350Y-42315D01*
X51926Y-42201D02*
X52236Y-42201D01*
X51547Y-41822D02*
X51926Y-42201D01*
X51547Y-41173D02*
X51547Y-41822D01*
X51323Y-40949D02*
X51547Y-41173D01*
X59065Y-40719D02*
X59303Y-40718D01*
X51669Y-35902D02*
X51669Y-35288D01*
X52669Y-36902D02*
X51669Y-35902D01*
X54802Y-36902D02*
X52669Y-36902D01*
X55283Y-36421D02*
X54802Y-36902D01*
X56102Y-36421D02*
X55283Y-36421D01*
X57441Y-37760D02*
X56102Y-36421D01*
X57441Y-38252D02*
X57441Y-37760D01*
X57520Y-38331D02*
X57441Y-38252D01*
X59193Y-38331D02*
X57520Y-38331D01*
X59429Y-38571D02*
X59193Y-38331D01*
X59429Y-39728D02*
X59429Y-38571D01*
X59362Y-39795D02*
X59429Y-39728D01*
X59364Y-40659D02*
X59362Y-39795D01*
X59303Y-40718D02*
X59364Y-40659D01*
X49428Y-42725D02*
X49535Y-42618D01*
X48154Y-42725D02*
X49428Y-42725D01*
G54D10*
G36*
X50493Y-36603D02*
X50386Y-36710D01*
X49806Y-36710D01*
X49762Y-36718D01*
X49726Y-36743D01*
X49726Y-36743D01*
X49554Y-36915D01*
X49529Y-36951D01*
X49521Y-36995D01*
X49521Y-37074D01*
X49488Y-37107D01*
X49467Y-37158D01*
X49467Y-36370D01*
X49576Y-36261D01*
X49602Y-36322D01*
X49602Y-36322D01*
X49598Y-36327D01*
X49572Y-36390D01*
X49571Y-36459D01*
X49598Y-36522D01*
X49646Y-36570D01*
X49709Y-36596D01*
X49778Y-36597D01*
X49841Y-36570D01*
X49874Y-36538D01*
X50248Y-36538D01*
X50291Y-36529D01*
X50327Y-36504D01*
X50493Y-36339D01*
X50493Y-36603D01*
X50493Y-36603D01*
G37*
G54D26*
X50493Y-36603D02*
X50386Y-36710D01*
X49806Y-36710D01*
X49762Y-36718D01*
X49726Y-36743D01*
X49726Y-36743D01*
X49554Y-36915D01*
X49529Y-36951D01*
X49521Y-36995D01*
X49521Y-37074D01*
X49488Y-37107D01*
X49467Y-37158D01*
X49467Y-36370D01*
X49576Y-36261D01*
X49602Y-36322D01*
X49602Y-36322D01*
X49598Y-36327D01*
X49572Y-36390D01*
X49571Y-36459D01*
X49598Y-36522D01*
X49646Y-36570D01*
X49709Y-36596D01*
X49778Y-36597D01*
X49841Y-36570D01*
X49874Y-36538D01*
X50248Y-36538D01*
X50291Y-36529D01*
X50327Y-36504D01*
X50493Y-36339D01*
X50493Y-36603D01*
G54D10*
G36*
X51072Y-37661D02*
X51051Y-37682D01*
X50792Y-37682D01*
X50922Y-37551D01*
X50947Y-37515D01*
X50956Y-37472D01*
X50956Y-35443D01*
X51072Y-35327D01*
X51072Y-37661D01*
X51072Y-37661D01*
G37*
G54D26*
X51072Y-37661D02*
X51051Y-37682D01*
X50792Y-37682D01*
X50922Y-37551D01*
X50947Y-37515D01*
X50956Y-37472D01*
X50956Y-35443D01*
X51072Y-35327D01*
X51072Y-37661D01*
G54D10*
G36*
X52950Y-41213D02*
X52637Y-41526D01*
X52637Y-41008D01*
X52610Y-40945D01*
X52562Y-40897D01*
X52499Y-40871D01*
X52447Y-40870D01*
X52448Y-40812D01*
X52421Y-40749D01*
X52377Y-40705D01*
X52384Y-40688D01*
X52385Y-40619D01*
X52358Y-40556D01*
X52343Y-40540D01*
X52345Y-40539D01*
X52393Y-40491D01*
X52419Y-40428D01*
X52420Y-40359D01*
X52393Y-40296D01*
X52345Y-40248D01*
X52282Y-40222D01*
X52235Y-40221D01*
X52201Y-40187D01*
X52266Y-40188D01*
X52329Y-40161D01*
X52377Y-40113D01*
X52403Y-40050D01*
X52404Y-39987D01*
X52436Y-39987D01*
X52499Y-39960D01*
X52547Y-39912D01*
X52573Y-39849D01*
X52574Y-39780D01*
X52547Y-39717D01*
X52499Y-39669D01*
X52436Y-39643D01*
X52389Y-39642D01*
X52036Y-39290D01*
X52000Y-39265D01*
X51957Y-39257D01*
X48327Y-39257D01*
X48294Y-39224D01*
X48231Y-39198D01*
X48162Y-39197D01*
X48099Y-39224D01*
X48051Y-39272D01*
X48025Y-39335D01*
X48024Y-39404D01*
X48051Y-39467D01*
X48099Y-39515D01*
X48162Y-39541D01*
X48231Y-39542D01*
X48294Y-39515D01*
X48327Y-39483D01*
X51910Y-39483D01*
X52230Y-39802D01*
X52229Y-39843D01*
X52219Y-39843D01*
X52063Y-39688D01*
X52027Y-39663D01*
X51984Y-39655D01*
X48331Y-39655D01*
X48298Y-39622D01*
X48235Y-39596D01*
X48166Y-39595D01*
X48103Y-39622D01*
X48055Y-39670D01*
X48029Y-39733D01*
X48028Y-39802D01*
X48051Y-39855D01*
X48039Y-39867D01*
X48013Y-39930D01*
X48012Y-39999D01*
X48039Y-40062D01*
X48087Y-40110D01*
X48150Y-40136D01*
X48219Y-40137D01*
X48282Y-40110D01*
X48315Y-40078D01*
X51772Y-40078D01*
X51941Y-40247D01*
X51914Y-40242D01*
X48311Y-40242D01*
X48278Y-40209D01*
X48215Y-40183D01*
X48146Y-40182D01*
X48083Y-40209D01*
X48035Y-40257D01*
X48009Y-40320D01*
X48008Y-40389D01*
X48035Y-40452D01*
X48083Y-40500D01*
X48146Y-40526D01*
X48215Y-40527D01*
X48278Y-40500D01*
X48311Y-40468D01*
X51867Y-40468D01*
X52041Y-40641D01*
X52040Y-40688D01*
X52067Y-40751D01*
X52111Y-40795D01*
X52104Y-40812D01*
X52103Y-40881D01*
X52130Y-40944D01*
X52178Y-40992D01*
X52241Y-41018D01*
X52293Y-41019D01*
X52292Y-41077D01*
X52319Y-41140D01*
X52367Y-41188D01*
X52430Y-41214D01*
X52499Y-41215D01*
X52562Y-41188D01*
X52610Y-41140D01*
X52636Y-41077D01*
X52637Y-41008D01*
X52637Y-41526D01*
X52593Y-41569D01*
X52569Y-41560D01*
X52500Y-41559D01*
X52437Y-41586D01*
X52389Y-41634D01*
X52363Y-41697D01*
X52362Y-41746D01*
X52141Y-41524D01*
X52141Y-41130D01*
X52132Y-41086D01*
X52107Y-41050D01*
X51899Y-40841D01*
X51923Y-40782D01*
X51924Y-40713D01*
X51897Y-40650D01*
X51849Y-40602D01*
X51786Y-40576D01*
X51717Y-40575D01*
X51654Y-40602D01*
X51606Y-40650D01*
X51601Y-40662D01*
X51502Y-40562D01*
X51502Y-40562D01*
X51501Y-40562D01*
X51483Y-40549D01*
X51465Y-40537D01*
X51465Y-40537D01*
X51465Y-40537D01*
X51443Y-40533D01*
X51422Y-40529D01*
X51422Y-40529D01*
X51422Y-40529D01*
X50898Y-40529D01*
X50897Y-40529D01*
X50854Y-40537D01*
X50818Y-40562D01*
X50818Y-40562D01*
X50745Y-40635D01*
X48303Y-40635D01*
X48270Y-40602D01*
X48207Y-40576D01*
X48138Y-40575D01*
X48075Y-40602D01*
X48027Y-40650D01*
X48001Y-40713D01*
X48000Y-40782D01*
X48027Y-40845D01*
X48048Y-40867D01*
X48029Y-40914D01*
X48028Y-40974D01*
X47977Y-40996D01*
X47972Y-41001D01*
X47972Y-38919D01*
X47981Y-38928D01*
X48044Y-38954D01*
X48113Y-38955D01*
X48176Y-38928D01*
X48209Y-38896D01*
X51941Y-38896D01*
X52214Y-39168D01*
X52213Y-39215D01*
X52240Y-39278D01*
X52288Y-39326D01*
X52351Y-39352D01*
X52420Y-39353D01*
X52483Y-39326D01*
X52531Y-39278D01*
X52557Y-39215D01*
X52558Y-39146D01*
X52531Y-39083D01*
X52483Y-39035D01*
X52420Y-39009D01*
X52373Y-39008D01*
X52292Y-38927D01*
X52331Y-38943D01*
X52400Y-38944D01*
X52463Y-38917D01*
X52511Y-38869D01*
X52537Y-38806D01*
X52538Y-38737D01*
X52511Y-38674D01*
X52463Y-38626D01*
X52400Y-38600D01*
X52353Y-38599D01*
X52264Y-38511D01*
X52246Y-38499D01*
X52292Y-38499D01*
X52335Y-38490D01*
X52371Y-38465D01*
X52503Y-38333D01*
X52550Y-38334D01*
X52613Y-38307D01*
X52661Y-38259D01*
X52687Y-38196D01*
X52688Y-38127D01*
X52678Y-38105D01*
X52851Y-38105D01*
X52950Y-38203D01*
X52950Y-41213D01*
X52950Y-41213D01*
G37*
G54D26*
X52950Y-41213D02*
X52637Y-41526D01*
X52637Y-41008D01*
X52610Y-40945D01*
X52562Y-40897D01*
X52499Y-40871D01*
X52447Y-40870D01*
X52448Y-40812D01*
X52421Y-40749D01*
X52377Y-40705D01*
X52384Y-40688D01*
X52385Y-40619D01*
X52358Y-40556D01*
X52343Y-40540D01*
X52345Y-40539D01*
X52393Y-40491D01*
X52419Y-40428D01*
X52420Y-40359D01*
X52393Y-40296D01*
X52345Y-40248D01*
X52282Y-40222D01*
X52235Y-40221D01*
X52201Y-40187D01*
X52266Y-40188D01*
X52329Y-40161D01*
X52377Y-40113D01*
X52403Y-40050D01*
X52404Y-39987D01*
X52436Y-39987D01*
X52499Y-39960D01*
X52547Y-39912D01*
X52573Y-39849D01*
X52574Y-39780D01*
X52547Y-39717D01*
X52499Y-39669D01*
X52436Y-39643D01*
X52389Y-39642D01*
X52036Y-39290D01*
X52000Y-39265D01*
X51957Y-39257D01*
X48327Y-39257D01*
X48294Y-39224D01*
X48231Y-39198D01*
X48162Y-39197D01*
X48099Y-39224D01*
X48051Y-39272D01*
X48025Y-39335D01*
X48024Y-39404D01*
X48051Y-39467D01*
X48099Y-39515D01*
X48162Y-39541D01*
X48231Y-39542D01*
X48294Y-39515D01*
X48327Y-39483D01*
X51910Y-39483D01*
X52230Y-39802D01*
X52229Y-39843D01*
X52219Y-39843D01*
X52063Y-39688D01*
X52027Y-39663D01*
X51984Y-39655D01*
X48331Y-39655D01*
X48298Y-39622D01*
X48235Y-39596D01*
X48166Y-39595D01*
X48103Y-39622D01*
X48055Y-39670D01*
X48029Y-39733D01*
X48028Y-39802D01*
X48051Y-39855D01*
X48039Y-39867D01*
X48013Y-39930D01*
X48012Y-39999D01*
X48039Y-40062D01*
X48087Y-40110D01*
X48150Y-40136D01*
X48219Y-40137D01*
X48282Y-40110D01*
X48315Y-40078D01*
X51772Y-40078D01*
X51941Y-40247D01*
X51914Y-40242D01*
X48311Y-40242D01*
X48278Y-40209D01*
X48215Y-40183D01*
X48146Y-40182D01*
X48083Y-40209D01*
X48035Y-40257D01*
X48009Y-40320D01*
X48008Y-40389D01*
X48035Y-40452D01*
X48083Y-40500D01*
X48146Y-40526D01*
X48215Y-40527D01*
X48278Y-40500D01*
X48311Y-40468D01*
X51867Y-40468D01*
X52041Y-40641D01*
X52040Y-40688D01*
X52067Y-40751D01*
X52111Y-40795D01*
X52104Y-40812D01*
X52103Y-40881D01*
X52130Y-40944D01*
X52178Y-40992D01*
X52241Y-41018D01*
X52293Y-41019D01*
X52292Y-41077D01*
X52319Y-41140D01*
X52367Y-41188D01*
X52430Y-41214D01*
X52499Y-41215D01*
X52562Y-41188D01*
X52610Y-41140D01*
X52636Y-41077D01*
X52637Y-41008D01*
X52637Y-41526D01*
X52593Y-41569D01*
X52569Y-41560D01*
X52500Y-41559D01*
X52437Y-41586D01*
X52389Y-41634D01*
X52363Y-41697D01*
X52362Y-41746D01*
X52141Y-41524D01*
X52141Y-41130D01*
X52132Y-41086D01*
X52107Y-41050D01*
X51899Y-40841D01*
X51923Y-40782D01*
X51924Y-40713D01*
X51897Y-40650D01*
X51849Y-40602D01*
X51786Y-40576D01*
X51717Y-40575D01*
X51654Y-40602D01*
X51606Y-40650D01*
X51601Y-40662D01*
X51502Y-40562D01*
X51502Y-40562D01*
X51501Y-40562D01*
X51483Y-40549D01*
X51465Y-40537D01*
X51465Y-40537D01*
X51465Y-40537D01*
X51443Y-40533D01*
X51422Y-40529D01*
X51422Y-40529D01*
X51422Y-40529D01*
X50898Y-40529D01*
X50897Y-40529D01*
X50854Y-40537D01*
X50818Y-40562D01*
X50818Y-40562D01*
X50745Y-40635D01*
X48303Y-40635D01*
X48270Y-40602D01*
X48207Y-40576D01*
X48138Y-40575D01*
X48075Y-40602D01*
X48027Y-40650D01*
X48001Y-40713D01*
X48000Y-40782D01*
X48027Y-40845D01*
X48048Y-40867D01*
X48029Y-40914D01*
X48028Y-40974D01*
X47977Y-40996D01*
X47972Y-41001D01*
X47972Y-38919D01*
X47981Y-38928D01*
X48044Y-38954D01*
X48113Y-38955D01*
X48176Y-38928D01*
X48209Y-38896D01*
X51941Y-38896D01*
X52214Y-39168D01*
X52213Y-39215D01*
X52240Y-39278D01*
X52288Y-39326D01*
X52351Y-39352D01*
X52420Y-39353D01*
X52483Y-39326D01*
X52531Y-39278D01*
X52557Y-39215D01*
X52558Y-39146D01*
X52531Y-39083D01*
X52483Y-39035D01*
X52420Y-39009D01*
X52373Y-39008D01*
X52292Y-38927D01*
X52331Y-38943D01*
X52400Y-38944D01*
X52463Y-38917D01*
X52511Y-38869D01*
X52537Y-38806D01*
X52538Y-38737D01*
X52511Y-38674D01*
X52463Y-38626D01*
X52400Y-38600D01*
X52353Y-38599D01*
X52264Y-38511D01*
X52246Y-38499D01*
X52292Y-38499D01*
X52335Y-38490D01*
X52371Y-38465D01*
X52503Y-38333D01*
X52550Y-38334D01*
X52613Y-38307D01*
X52661Y-38259D01*
X52687Y-38196D01*
X52688Y-38127D01*
X52678Y-38105D01*
X52851Y-38105D01*
X52950Y-38203D01*
X52950Y-41213D01*
G54D10*
G36*
X55184Y-41364D02*
X54934Y-41631D01*
X53796Y-41631D01*
X53821Y-41570D01*
X53822Y-41501D01*
X53795Y-41438D01*
X53747Y-41390D01*
X53699Y-41370D01*
X53736Y-41333D01*
X53762Y-41270D01*
X53763Y-41201D01*
X53742Y-41153D01*
X55097Y-41153D01*
X55088Y-41174D01*
X55087Y-41243D01*
X55114Y-41306D01*
X55162Y-41354D01*
X55184Y-41364D01*
X55184Y-41364D01*
G37*
G54D26*
X55184Y-41364D02*
X54934Y-41631D01*
X53796Y-41631D01*
X53821Y-41570D01*
X53822Y-41501D01*
X53795Y-41438D01*
X53747Y-41390D01*
X53699Y-41370D01*
X53736Y-41333D01*
X53762Y-41270D01*
X53763Y-41201D01*
X53742Y-41153D01*
X55097Y-41153D01*
X55088Y-41174D01*
X55087Y-41243D01*
X55114Y-41306D01*
X55162Y-41354D01*
X55184Y-41364D01*
G54D10*
G36*
X55621Y-41990D02*
X55098Y-42517D01*
X53441Y-42517D01*
X53215Y-42290D01*
X53215Y-42089D01*
X53227Y-42107D01*
X53321Y-42201D01*
X53321Y-42201D01*
X53357Y-42226D01*
X53401Y-42235D01*
X53448Y-42235D01*
X53481Y-42267D01*
X53544Y-42293D01*
X53613Y-42294D01*
X53676Y-42267D01*
X53724Y-42219D01*
X53750Y-42156D01*
X53751Y-42087D01*
X53730Y-42038D01*
X55000Y-42038D01*
X55043Y-42029D01*
X55079Y-42004D01*
X55273Y-41811D01*
X55272Y-41880D01*
X55299Y-41943D01*
X55347Y-41991D01*
X55410Y-42017D01*
X55479Y-42018D01*
X55542Y-41991D01*
X55578Y-41955D01*
X55607Y-41984D01*
X55621Y-41990D01*
X55621Y-41990D01*
G37*
G54D26*
X55621Y-41990D02*
X55098Y-42517D01*
X53441Y-42517D01*
X53215Y-42290D01*
X53215Y-42089D01*
X53227Y-42107D01*
X53321Y-42201D01*
X53321Y-42201D01*
X53357Y-42226D01*
X53401Y-42235D01*
X53448Y-42235D01*
X53481Y-42267D01*
X53544Y-42293D01*
X53613Y-42294D01*
X53676Y-42267D01*
X53724Y-42219D01*
X53750Y-42156D01*
X53751Y-42087D01*
X53730Y-42038D01*
X55000Y-42038D01*
X55043Y-42029D01*
X55079Y-42004D01*
X55273Y-41811D01*
X55272Y-41880D01*
X55299Y-41943D01*
X55347Y-41991D01*
X55410Y-42017D01*
X55479Y-42018D01*
X55542Y-41991D01*
X55578Y-41955D01*
X55607Y-41984D01*
X55621Y-41990D01*
G54D10*
G36*
X56717Y-38553D02*
X56705Y-38548D01*
X56640Y-38548D01*
X56581Y-38573D01*
X56535Y-38618D01*
X56529Y-38612D01*
X56469Y-38587D01*
X56404Y-38587D01*
X56345Y-38612D01*
X56320Y-38636D01*
X56068Y-38635D01*
X56078Y-38625D01*
X56104Y-38562D01*
X56105Y-38493D01*
X56078Y-38430D01*
X56030Y-38382D01*
X55967Y-38356D01*
X55898Y-38355D01*
X55835Y-38382D01*
X55787Y-38430D01*
X55761Y-38493D01*
X55760Y-38562D01*
X55787Y-38625D01*
X55797Y-38635D01*
X55633Y-38635D01*
X55379Y-38380D01*
X55396Y-38373D01*
X55444Y-38325D01*
X55470Y-38262D01*
X55471Y-38193D01*
X55444Y-38130D01*
X55396Y-38082D01*
X55333Y-38056D01*
X55264Y-38055D01*
X55201Y-38082D01*
X55153Y-38130D01*
X55127Y-38193D01*
X55126Y-38242D01*
X53792Y-38242D01*
X53759Y-38209D01*
X53696Y-38183D01*
X53627Y-38182D01*
X53564Y-38209D01*
X53516Y-38257D01*
X53490Y-38320D01*
X53489Y-38389D01*
X53516Y-38452D01*
X53518Y-38454D01*
X53516Y-38457D01*
X53490Y-38520D01*
X53489Y-38589D01*
X53516Y-38652D01*
X53564Y-38700D01*
X53627Y-38726D01*
X53696Y-38727D01*
X53759Y-38700D01*
X53792Y-38668D01*
X55198Y-38668D01*
X55437Y-38901D01*
X55413Y-38926D01*
X55387Y-38901D01*
X55351Y-38876D01*
X55308Y-38868D01*
X53780Y-38868D01*
X53747Y-38835D01*
X53684Y-38809D01*
X53615Y-38808D01*
X53552Y-38835D01*
X53504Y-38883D01*
X53478Y-38946D01*
X53477Y-39015D01*
X53504Y-39078D01*
X53552Y-39126D01*
X53615Y-39152D01*
X53684Y-39153D01*
X53747Y-39126D01*
X53780Y-39094D01*
X55261Y-39094D01*
X55411Y-39243D01*
X55401Y-39253D01*
X53756Y-39256D01*
X53723Y-39224D01*
X53660Y-39198D01*
X53591Y-39197D01*
X53528Y-39224D01*
X53480Y-39272D01*
X53454Y-39335D01*
X53453Y-39404D01*
X53477Y-39460D01*
X53464Y-39473D01*
X53438Y-39536D01*
X53437Y-39605D01*
X53464Y-39668D01*
X53512Y-39716D01*
X53575Y-39742D01*
X53644Y-39743D01*
X53707Y-39716D01*
X53740Y-39684D01*
X55039Y-39684D01*
X55219Y-39863D01*
X55219Y-39864D01*
X55219Y-39864D01*
X55234Y-39874D01*
X55205Y-39886D01*
X55157Y-39934D01*
X55131Y-39997D01*
X55130Y-40066D01*
X55141Y-40090D01*
X53713Y-40088D01*
X53680Y-40055D01*
X53617Y-40029D01*
X53548Y-40028D01*
X53485Y-40055D01*
X53437Y-40103D01*
X53411Y-40166D01*
X53410Y-40235D01*
X53437Y-40298D01*
X53485Y-40346D01*
X53548Y-40372D01*
X53617Y-40373D01*
X53680Y-40346D01*
X53713Y-40314D01*
X55148Y-40316D01*
X55142Y-40323D01*
X55116Y-40386D01*
X55115Y-40446D01*
X53732Y-40446D01*
X53699Y-40413D01*
X53636Y-40387D01*
X53567Y-40386D01*
X53504Y-40413D01*
X53456Y-40461D01*
X53430Y-40524D01*
X53429Y-40593D01*
X53456Y-40656D01*
X53504Y-40704D01*
X53567Y-40730D01*
X53636Y-40731D01*
X53699Y-40704D01*
X53732Y-40672D01*
X55271Y-40672D01*
X55268Y-40673D01*
X55220Y-40721D01*
X55194Y-40784D01*
X55193Y-40853D01*
X55220Y-40916D01*
X55230Y-40927D01*
X53717Y-40927D01*
X53684Y-40894D01*
X53621Y-40868D01*
X53552Y-40867D01*
X53489Y-40894D01*
X53441Y-40942D01*
X53415Y-41005D01*
X53414Y-41074D01*
X53435Y-41123D01*
X53261Y-41123D01*
X53260Y-41123D01*
X53260Y-41122D01*
X53234Y-41128D01*
X53217Y-41131D01*
X53217Y-41131D01*
X53217Y-41131D01*
X53194Y-41147D01*
X53181Y-41156D01*
X53180Y-41156D01*
X53180Y-41156D01*
X53176Y-41161D01*
X53176Y-38157D01*
X53175Y-38156D01*
X53176Y-38156D01*
X53174Y-38149D01*
X53167Y-38113D01*
X53142Y-38077D01*
X53142Y-38077D01*
X52977Y-37912D01*
X52941Y-37887D01*
X52898Y-37879D01*
X52707Y-37879D01*
X52714Y-37861D01*
X52715Y-37792D01*
X52709Y-37779D01*
X52799Y-37779D01*
X52842Y-37770D01*
X52878Y-37745D01*
X53192Y-37432D01*
X54322Y-37432D01*
X54355Y-37464D01*
X54418Y-37490D01*
X54487Y-37491D01*
X54550Y-37464D01*
X54598Y-37416D01*
X54624Y-37353D01*
X54625Y-37284D01*
X54620Y-37274D01*
X54770Y-37274D01*
X54758Y-37304D01*
X54757Y-37380D01*
X54786Y-37451D01*
X54840Y-37504D01*
X54910Y-37533D01*
X54986Y-37534D01*
X55057Y-37505D01*
X55110Y-37451D01*
X55139Y-37381D01*
X55140Y-37305D01*
X55111Y-37234D01*
X55057Y-37181D01*
X55040Y-37174D01*
X55466Y-36748D01*
X55465Y-36790D01*
X55492Y-36853D01*
X55540Y-36901D01*
X55603Y-36927D01*
X55672Y-36928D01*
X55720Y-36908D01*
X55878Y-36908D01*
X56204Y-37234D01*
X56063Y-37234D01*
X56015Y-37214D01*
X55946Y-37213D01*
X55883Y-37240D01*
X55835Y-37288D01*
X55809Y-37351D01*
X55808Y-37420D01*
X55835Y-37483D01*
X55883Y-37531D01*
X55946Y-37557D01*
X56015Y-37558D01*
X56063Y-37538D01*
X56240Y-37538D01*
X56714Y-38012D01*
X56714Y-38026D01*
X56672Y-37984D01*
X56609Y-37958D01*
X56540Y-37957D01*
X56477Y-37984D01*
X56450Y-38010D01*
X56416Y-37976D01*
X56353Y-37950D01*
X56284Y-37949D01*
X56221Y-37976D01*
X56173Y-38024D01*
X56156Y-38065D01*
X56156Y-37981D01*
X56129Y-37918D01*
X56081Y-37870D01*
X56018Y-37844D01*
X55949Y-37843D01*
X55886Y-37870D01*
X55838Y-37918D01*
X55812Y-37981D01*
X55811Y-38050D01*
X55838Y-38113D01*
X55886Y-38161D01*
X55949Y-38187D01*
X56018Y-38188D01*
X56081Y-38161D01*
X56129Y-38113D01*
X56155Y-38050D01*
X56156Y-37981D01*
X56156Y-38065D01*
X56147Y-38087D01*
X56146Y-38156D01*
X56173Y-38219D01*
X56221Y-38267D01*
X56284Y-38293D01*
X56353Y-38294D01*
X56416Y-38267D01*
X56443Y-38241D01*
X56477Y-38275D01*
X56540Y-38301D01*
X56609Y-38302D01*
X56672Y-38275D01*
X56715Y-38232D01*
X56717Y-38553D01*
X56717Y-38553D01*
G37*
G54D26*
X56717Y-38553D02*
X56705Y-38548D01*
X56640Y-38548D01*
X56581Y-38573D01*
X56535Y-38618D01*
X56529Y-38612D01*
X56469Y-38587D01*
X56404Y-38587D01*
X56345Y-38612D01*
X56320Y-38636D01*
X56068Y-38635D01*
X56078Y-38625D01*
X56104Y-38562D01*
X56105Y-38493D01*
X56078Y-38430D01*
X56030Y-38382D01*
X55967Y-38356D01*
X55898Y-38355D01*
X55835Y-38382D01*
X55787Y-38430D01*
X55761Y-38493D01*
X55760Y-38562D01*
X55787Y-38625D01*
X55797Y-38635D01*
X55633Y-38635D01*
X55379Y-38380D01*
X55396Y-38373D01*
X55444Y-38325D01*
X55470Y-38262D01*
X55471Y-38193D01*
X55444Y-38130D01*
X55396Y-38082D01*
X55333Y-38056D01*
X55264Y-38055D01*
X55201Y-38082D01*
X55153Y-38130D01*
X55127Y-38193D01*
X55126Y-38242D01*
X53792Y-38242D01*
X53759Y-38209D01*
X53696Y-38183D01*
X53627Y-38182D01*
X53564Y-38209D01*
X53516Y-38257D01*
X53490Y-38320D01*
X53489Y-38389D01*
X53516Y-38452D01*
X53518Y-38454D01*
X53516Y-38457D01*
X53490Y-38520D01*
X53489Y-38589D01*
X53516Y-38652D01*
X53564Y-38700D01*
X53627Y-38726D01*
X53696Y-38727D01*
X53759Y-38700D01*
X53792Y-38668D01*
X55198Y-38668D01*
X55437Y-38901D01*
X55413Y-38926D01*
X55387Y-38901D01*
X55351Y-38876D01*
X55308Y-38868D01*
X53780Y-38868D01*
X53747Y-38835D01*
X53684Y-38809D01*
X53615Y-38808D01*
X53552Y-38835D01*
X53504Y-38883D01*
X53478Y-38946D01*
X53477Y-39015D01*
X53504Y-39078D01*
X53552Y-39126D01*
X53615Y-39152D01*
X53684Y-39153D01*
X53747Y-39126D01*
X53780Y-39094D01*
X55261Y-39094D01*
X55411Y-39243D01*
X55401Y-39253D01*
X53756Y-39256D01*
X53723Y-39224D01*
X53660Y-39198D01*
X53591Y-39197D01*
X53528Y-39224D01*
X53480Y-39272D01*
X53454Y-39335D01*
X53453Y-39404D01*
X53477Y-39460D01*
X53464Y-39473D01*
X53438Y-39536D01*
X53437Y-39605D01*
X53464Y-39668D01*
X53512Y-39716D01*
X53575Y-39742D01*
X53644Y-39743D01*
X53707Y-39716D01*
X53740Y-39684D01*
X55039Y-39684D01*
X55219Y-39863D01*
X55219Y-39864D01*
X55219Y-39864D01*
X55234Y-39874D01*
X55205Y-39886D01*
X55157Y-39934D01*
X55131Y-39997D01*
X55130Y-40066D01*
X55141Y-40090D01*
X53713Y-40088D01*
X53680Y-40055D01*
X53617Y-40029D01*
X53548Y-40028D01*
X53485Y-40055D01*
X53437Y-40103D01*
X53411Y-40166D01*
X53410Y-40235D01*
X53437Y-40298D01*
X53485Y-40346D01*
X53548Y-40372D01*
X53617Y-40373D01*
X53680Y-40346D01*
X53713Y-40314D01*
X55148Y-40316D01*
X55142Y-40323D01*
X55116Y-40386D01*
X55115Y-40446D01*
X53732Y-40446D01*
X53699Y-40413D01*
X53636Y-40387D01*
X53567Y-40386D01*
X53504Y-40413D01*
X53456Y-40461D01*
X53430Y-40524D01*
X53429Y-40593D01*
X53456Y-40656D01*
X53504Y-40704D01*
X53567Y-40730D01*
X53636Y-40731D01*
X53699Y-40704D01*
X53732Y-40672D01*
X55271Y-40672D01*
X55268Y-40673D01*
X55220Y-40721D01*
X55194Y-40784D01*
X55193Y-40853D01*
X55220Y-40916D01*
X55230Y-40927D01*
X53717Y-40927D01*
X53684Y-40894D01*
X53621Y-40868D01*
X53552Y-40867D01*
X53489Y-40894D01*
X53441Y-40942D01*
X53415Y-41005D01*
X53414Y-41074D01*
X53435Y-41123D01*
X53261Y-41123D01*
X53260Y-41123D01*
X53260Y-41122D01*
X53234Y-41128D01*
X53217Y-41131D01*
X53217Y-41131D01*
X53217Y-41131D01*
X53194Y-41147D01*
X53181Y-41156D01*
X53180Y-41156D01*
X53180Y-41156D01*
X53176Y-41161D01*
X53176Y-38157D01*
X53175Y-38156D01*
X53176Y-38156D01*
X53174Y-38149D01*
X53167Y-38113D01*
X53142Y-38077D01*
X53142Y-38077D01*
X52977Y-37912D01*
X52941Y-37887D01*
X52898Y-37879D01*
X52707Y-37879D01*
X52714Y-37861D01*
X52715Y-37792D01*
X52709Y-37779D01*
X52799Y-37779D01*
X52842Y-37770D01*
X52878Y-37745D01*
X53192Y-37432D01*
X54322Y-37432D01*
X54355Y-37464D01*
X54418Y-37490D01*
X54487Y-37491D01*
X54550Y-37464D01*
X54598Y-37416D01*
X54624Y-37353D01*
X54625Y-37284D01*
X54620Y-37274D01*
X54770Y-37274D01*
X54758Y-37304D01*
X54757Y-37380D01*
X54786Y-37451D01*
X54840Y-37504D01*
X54910Y-37533D01*
X54986Y-37534D01*
X55057Y-37505D01*
X55110Y-37451D01*
X55139Y-37381D01*
X55140Y-37305D01*
X55111Y-37234D01*
X55057Y-37181D01*
X55040Y-37174D01*
X55466Y-36748D01*
X55465Y-36790D01*
X55492Y-36853D01*
X55540Y-36901D01*
X55603Y-36927D01*
X55672Y-36928D01*
X55720Y-36908D01*
X55878Y-36908D01*
X56204Y-37234D01*
X56063Y-37234D01*
X56015Y-37214D01*
X55946Y-37213D01*
X55883Y-37240D01*
X55835Y-37288D01*
X55809Y-37351D01*
X55808Y-37420D01*
X55835Y-37483D01*
X55883Y-37531D01*
X55946Y-37557D01*
X56015Y-37558D01*
X56063Y-37538D01*
X56240Y-37538D01*
X56714Y-38012D01*
X56714Y-38026D01*
X56672Y-37984D01*
X56609Y-37958D01*
X56540Y-37957D01*
X56477Y-37984D01*
X56450Y-38010D01*
X56416Y-37976D01*
X56353Y-37950D01*
X56284Y-37949D01*
X56221Y-37976D01*
X56173Y-38024D01*
X56156Y-38065D01*
X56156Y-37981D01*
X56129Y-37918D01*
X56081Y-37870D01*
X56018Y-37844D01*
X55949Y-37843D01*
X55886Y-37870D01*
X55838Y-37918D01*
X55812Y-37981D01*
X55811Y-38050D01*
X55838Y-38113D01*
X55886Y-38161D01*
X55949Y-38187D01*
X56018Y-38188D01*
X56081Y-38161D01*
X56129Y-38113D01*
X56155Y-38050D01*
X56156Y-37981D01*
X56156Y-38065D01*
X56147Y-38087D01*
X56146Y-38156D01*
X56173Y-38219D01*
X56221Y-38267D01*
X56284Y-38293D01*
X56353Y-38294D01*
X56416Y-38267D01*
X56443Y-38241D01*
X56477Y-38275D01*
X56540Y-38301D01*
X56609Y-38302D01*
X56672Y-38275D01*
X56715Y-38232D01*
X56717Y-38553D01*
G54D10*
G36*
X58101Y-37501D02*
X57963Y-37501D01*
X56295Y-35833D01*
X56433Y-35833D01*
X58101Y-37501D01*
X58101Y-37501D01*
G37*
G54D26*
X58101Y-37501D02*
X57963Y-37501D01*
X56295Y-35833D01*
X56433Y-35833D01*
X58101Y-37501D01*
G54D10*
G36*
X66004Y-49547D02*
X63706Y-49542D01*
X63706Y-31756D01*
X63646Y-31612D01*
X63536Y-31501D01*
X63392Y-31442D01*
X63236Y-31441D01*
X63092Y-31501D01*
X62981Y-31611D01*
X62922Y-31755D01*
X62921Y-31911D01*
X62981Y-32055D01*
X63091Y-32166D01*
X63235Y-32225D01*
X63391Y-32226D01*
X63535Y-32166D01*
X63646Y-32056D01*
X63705Y-31912D01*
X63706Y-31756D01*
X63706Y-49542D01*
X63435Y-49541D01*
X63435Y-48272D01*
X63375Y-48128D01*
X63265Y-48017D01*
X63121Y-47958D01*
X62965Y-47957D01*
X62821Y-48017D01*
X62710Y-48127D01*
X62706Y-48139D01*
X62706Y-31756D01*
X62646Y-31612D01*
X62536Y-31501D01*
X62392Y-31442D01*
X62236Y-31441D01*
X62092Y-31501D01*
X61981Y-31611D01*
X61922Y-31755D01*
X61921Y-31911D01*
X61981Y-32055D01*
X62091Y-32166D01*
X62235Y-32225D01*
X62391Y-32226D01*
X62535Y-32166D01*
X62646Y-32056D01*
X62705Y-31912D01*
X62706Y-31756D01*
X62706Y-48139D01*
X62651Y-48271D01*
X62650Y-48427D01*
X62710Y-48571D01*
X62820Y-48682D01*
X62964Y-48741D01*
X63120Y-48742D01*
X63264Y-48682D01*
X63375Y-48572D01*
X63434Y-48428D01*
X63435Y-48272D01*
X63435Y-49541D01*
X62435Y-49539D01*
X62435Y-48272D01*
X62375Y-48128D01*
X62265Y-48017D01*
X62230Y-48003D01*
X62230Y-39765D01*
X62201Y-39694D01*
X62156Y-39649D01*
X62197Y-39608D01*
X62226Y-39538D01*
X62227Y-39462D01*
X62198Y-39391D01*
X62144Y-39338D01*
X62074Y-39309D01*
X61998Y-39308D01*
X61927Y-39337D01*
X61874Y-39391D01*
X61845Y-39461D01*
X61844Y-39537D01*
X61873Y-39608D01*
X61918Y-39653D01*
X61877Y-39694D01*
X61848Y-39764D01*
X61847Y-39840D01*
X61876Y-39911D01*
X61930Y-39964D01*
X62000Y-39993D01*
X62076Y-39994D01*
X62147Y-39965D01*
X62200Y-39911D01*
X62229Y-39841D01*
X62230Y-39765D01*
X62230Y-48003D01*
X62121Y-47958D01*
X62012Y-47957D01*
X62012Y-41980D01*
X61983Y-41909D01*
X61929Y-41856D01*
X61919Y-41851D01*
X61919Y-40608D01*
X61890Y-40537D01*
X61836Y-40484D01*
X61785Y-40462D01*
X61785Y-38045D01*
X61756Y-37974D01*
X61702Y-37921D01*
X61698Y-37919D01*
X61698Y-31849D01*
X61674Y-31700D01*
X61663Y-31673D01*
X61619Y-31634D01*
X61513Y-31740D01*
X61513Y-31528D01*
X61474Y-31484D01*
X61329Y-31449D01*
X61180Y-31473D01*
X61153Y-31484D01*
X61114Y-31528D01*
X61314Y-31727D01*
X61513Y-31528D01*
X61513Y-31740D01*
X61420Y-31834D01*
X61619Y-32033D01*
X61663Y-31994D01*
X61698Y-31849D01*
X61698Y-37919D01*
X61632Y-37892D01*
X61556Y-37891D01*
X61513Y-37909D01*
X61513Y-32139D01*
X61314Y-31940D01*
X61207Y-32046D01*
X61207Y-31834D01*
X61008Y-31634D01*
X60964Y-31673D01*
X60929Y-31818D01*
X60953Y-31967D01*
X60964Y-31994D01*
X61008Y-32033D01*
X61207Y-31834D01*
X61207Y-32046D01*
X61114Y-32139D01*
X61153Y-32183D01*
X61298Y-32218D01*
X61447Y-32194D01*
X61474Y-32183D01*
X61513Y-32139D01*
X61513Y-37909D01*
X61485Y-37920D01*
X61432Y-37974D01*
X61403Y-38044D01*
X61402Y-38120D01*
X61431Y-38191D01*
X61485Y-38244D01*
X61555Y-38273D01*
X61631Y-38274D01*
X61702Y-38245D01*
X61755Y-38191D01*
X61784Y-38121D01*
X61785Y-38045D01*
X61785Y-40462D01*
X61766Y-40455D01*
X61690Y-40454D01*
X61619Y-40483D01*
X61566Y-40537D01*
X61537Y-40607D01*
X61536Y-40683D01*
X61565Y-40754D01*
X61619Y-40807D01*
X61689Y-40836D01*
X61765Y-40837D01*
X61836Y-40808D01*
X61889Y-40754D01*
X61918Y-40684D01*
X61919Y-40608D01*
X61919Y-41851D01*
X61859Y-41827D01*
X61783Y-41826D01*
X61712Y-41855D01*
X61659Y-41909D01*
X61630Y-41979D01*
X61629Y-42055D01*
X61658Y-42126D01*
X61712Y-42179D01*
X61782Y-42208D01*
X61858Y-42209D01*
X61929Y-42180D01*
X61982Y-42126D01*
X62011Y-42056D01*
X62012Y-41980D01*
X62012Y-47957D01*
X61965Y-47957D01*
X61837Y-48010D01*
X61837Y-43225D01*
X61813Y-43169D01*
X61771Y-43127D01*
X61715Y-43103D01*
X61654Y-43103D01*
X61599Y-43126D01*
X61556Y-43169D01*
X61533Y-43225D01*
X61533Y-43286D01*
X61556Y-43341D01*
X61598Y-43384D01*
X61654Y-43407D01*
X61715Y-43407D01*
X61771Y-43384D01*
X61813Y-43342D01*
X61837Y-43286D01*
X61837Y-43225D01*
X61837Y-48010D01*
X61821Y-48017D01*
X61710Y-48127D01*
X61651Y-48271D01*
X61650Y-48427D01*
X61710Y-48571D01*
X61820Y-48682D01*
X61964Y-48741D01*
X62120Y-48742D01*
X62264Y-48682D01*
X62375Y-48572D01*
X62434Y-48428D01*
X62435Y-48272D01*
X62435Y-49539D01*
X61620Y-49537D01*
X61620Y-44985D01*
X61600Y-44937D01*
X61563Y-44899D01*
X61514Y-44879D01*
X61462Y-44879D01*
X61413Y-44899D01*
X61376Y-44936D01*
X61356Y-44985D01*
X61356Y-45037D01*
X61376Y-45086D01*
X61413Y-45123D01*
X61461Y-45143D01*
X61514Y-45143D01*
X61562Y-45123D01*
X61600Y-45086D01*
X61620Y-45038D01*
X61620Y-44985D01*
X61620Y-49537D01*
X60435Y-49535D01*
X60435Y-48272D01*
X60375Y-48128D01*
X60265Y-48017D01*
X60121Y-47958D01*
X59965Y-47957D01*
X59821Y-48017D01*
X59710Y-48127D01*
X59651Y-48271D01*
X59650Y-48427D01*
X59710Y-48571D01*
X59820Y-48682D01*
X59964Y-48741D01*
X60120Y-48742D01*
X60264Y-48682D01*
X60375Y-48572D01*
X60434Y-48428D01*
X60435Y-48272D01*
X60435Y-49535D01*
X59435Y-49533D01*
X59435Y-48609D01*
X59435Y-48012D01*
X59420Y-47978D01*
X59394Y-47952D01*
X59360Y-47938D01*
X59322Y-47937D01*
X59167Y-47937D01*
X59167Y-46734D01*
X59138Y-46663D01*
X59084Y-46610D01*
X59014Y-46581D01*
X58938Y-46580D01*
X58867Y-46609D01*
X58814Y-46663D01*
X58785Y-46733D01*
X58784Y-46809D01*
X58813Y-46880D01*
X58867Y-46933D01*
X58937Y-46962D01*
X59013Y-46963D01*
X59084Y-46934D01*
X59137Y-46880D01*
X59166Y-46810D01*
X59167Y-46734D01*
X59167Y-47937D01*
X58725Y-47937D01*
X58691Y-47952D01*
X58665Y-47978D01*
X58651Y-48012D01*
X58650Y-48050D01*
X58650Y-48647D01*
X58665Y-48681D01*
X58691Y-48707D01*
X58725Y-48721D01*
X58763Y-48722D01*
X59360Y-48722D01*
X59394Y-48707D01*
X59420Y-48681D01*
X59434Y-48647D01*
X59435Y-48609D01*
X59435Y-49533D01*
X57857Y-49529D01*
X57780Y-49497D01*
X57672Y-49497D01*
X57595Y-49529D01*
X57421Y-49528D01*
X57346Y-49497D01*
X57238Y-49497D01*
X57163Y-49528D01*
X56986Y-49527D01*
X56968Y-49520D01*
X56968Y-49001D01*
X56908Y-48857D01*
X56798Y-48746D01*
X56654Y-48687D01*
X56498Y-48686D01*
X56354Y-48746D01*
X56243Y-48856D01*
X56184Y-49000D01*
X56183Y-49156D01*
X56243Y-49300D01*
X56353Y-49411D01*
X56497Y-49470D01*
X56653Y-49471D01*
X56797Y-49411D01*
X56908Y-49301D01*
X56967Y-49157D01*
X56968Y-49001D01*
X56968Y-49520D01*
X56913Y-49497D01*
X56805Y-49497D01*
X56732Y-49527D01*
X56551Y-49527D01*
X56480Y-49497D01*
X56372Y-49497D01*
X56302Y-49526D01*
X53093Y-49519D01*
X53093Y-49159D01*
X53091Y-49154D01*
X53091Y-48764D01*
X53091Y-48372D01*
X53091Y-47977D01*
X53091Y-47584D01*
X53062Y-47513D01*
X53008Y-47460D01*
X52970Y-47444D01*
X53008Y-47429D01*
X53061Y-47375D01*
X53090Y-47305D01*
X53091Y-47229D01*
X53062Y-47158D01*
X53008Y-47105D01*
X53002Y-47102D01*
X53002Y-44954D01*
X52973Y-44883D01*
X52919Y-44830D01*
X52849Y-44801D01*
X52773Y-44800D01*
X52702Y-44829D01*
X52649Y-44883D01*
X52620Y-44953D01*
X52619Y-45029D01*
X52648Y-45100D01*
X52702Y-45153D01*
X52772Y-45182D01*
X52848Y-45183D01*
X52919Y-45154D01*
X52972Y-45100D01*
X53001Y-45030D01*
X53002Y-44954D01*
X53002Y-47102D01*
X52973Y-47090D01*
X52973Y-45652D01*
X52944Y-45581D01*
X52894Y-45532D01*
X52943Y-45483D01*
X52972Y-45413D01*
X52973Y-45337D01*
X52944Y-45266D01*
X52890Y-45213D01*
X52820Y-45184D01*
X52744Y-45183D01*
X52673Y-45212D01*
X52620Y-45266D01*
X52591Y-45336D01*
X52590Y-45412D01*
X52619Y-45483D01*
X52669Y-45532D01*
X52620Y-45581D01*
X52591Y-45651D01*
X52590Y-45727D01*
X52594Y-45736D01*
X52546Y-45735D01*
X52475Y-45764D01*
X52422Y-45818D01*
X52393Y-45888D01*
X52392Y-45964D01*
X52421Y-46035D01*
X52475Y-46088D01*
X52545Y-46117D01*
X52621Y-46118D01*
X52692Y-46089D01*
X52745Y-46035D01*
X52774Y-45965D01*
X52775Y-45889D01*
X52771Y-45880D01*
X52819Y-45881D01*
X52890Y-45852D01*
X52943Y-45798D01*
X52972Y-45728D01*
X52973Y-45652D01*
X52973Y-47090D01*
X52938Y-47076D01*
X52862Y-47075D01*
X52791Y-47104D01*
X52738Y-47158D01*
X52709Y-47228D01*
X52708Y-47304D01*
X52737Y-47375D01*
X52791Y-47428D01*
X52829Y-47444D01*
X52791Y-47459D01*
X52738Y-47513D01*
X52709Y-47583D01*
X52708Y-47659D01*
X52737Y-47730D01*
X52791Y-47783D01*
X52861Y-47812D01*
X52937Y-47813D01*
X53008Y-47784D01*
X53061Y-47730D01*
X53090Y-47660D01*
X53091Y-47584D01*
X53091Y-47977D01*
X53062Y-47906D01*
X53008Y-47853D01*
X52938Y-47824D01*
X52862Y-47823D01*
X52791Y-47852D01*
X52738Y-47906D01*
X52709Y-47976D01*
X52708Y-48052D01*
X52737Y-48123D01*
X52791Y-48176D01*
X52861Y-48205D01*
X52937Y-48206D01*
X53008Y-48177D01*
X53061Y-48123D01*
X53090Y-48053D01*
X53091Y-47977D01*
X53091Y-48372D01*
X53062Y-48301D01*
X53008Y-48248D01*
X52938Y-48219D01*
X52862Y-48218D01*
X52791Y-48247D01*
X52738Y-48301D01*
X52709Y-48371D01*
X52708Y-48447D01*
X52737Y-48518D01*
X52791Y-48571D01*
X52861Y-48600D01*
X52937Y-48601D01*
X53008Y-48572D01*
X53061Y-48518D01*
X53090Y-48448D01*
X53091Y-48372D01*
X53091Y-48764D01*
X53062Y-48693D01*
X53008Y-48640D01*
X52938Y-48611D01*
X52862Y-48610D01*
X52791Y-48639D01*
X52738Y-48693D01*
X52709Y-48763D01*
X52708Y-48839D01*
X52737Y-48910D01*
X52791Y-48963D01*
X52861Y-48992D01*
X52937Y-48993D01*
X53008Y-48964D01*
X53061Y-48910D01*
X53090Y-48840D01*
X53091Y-48764D01*
X53091Y-49154D01*
X53064Y-49088D01*
X53010Y-49035D01*
X52940Y-49006D01*
X52864Y-49005D01*
X52793Y-49034D01*
X52740Y-49088D01*
X52711Y-49158D01*
X52710Y-49234D01*
X52739Y-49305D01*
X52793Y-49358D01*
X52863Y-49387D01*
X52939Y-49388D01*
X53010Y-49359D01*
X53063Y-49305D01*
X53092Y-49235D01*
X53093Y-49159D01*
X53093Y-49519D01*
X52698Y-49518D01*
X52698Y-49159D01*
X52698Y-47229D01*
X52669Y-47158D01*
X52615Y-47105D01*
X52545Y-47076D01*
X52469Y-47075D01*
X52398Y-47104D01*
X52381Y-47122D01*
X52381Y-45889D01*
X52352Y-45818D01*
X52298Y-45765D01*
X52228Y-45736D01*
X52181Y-45735D01*
X52184Y-45728D01*
X52185Y-45652D01*
X52156Y-45581D01*
X52106Y-45532D01*
X52155Y-45483D01*
X52184Y-45413D01*
X52185Y-45337D01*
X52156Y-45266D01*
X52102Y-45213D01*
X52032Y-45184D01*
X51956Y-45183D01*
X51885Y-45212D01*
X51832Y-45266D01*
X51803Y-45336D01*
X51802Y-45412D01*
X51831Y-45483D01*
X51881Y-45532D01*
X51832Y-45581D01*
X51803Y-45651D01*
X51802Y-45727D01*
X51831Y-45798D01*
X51885Y-45851D01*
X51955Y-45880D01*
X52002Y-45881D01*
X51999Y-45888D01*
X51998Y-45964D01*
X52027Y-46035D01*
X52081Y-46088D01*
X52151Y-46117D01*
X52227Y-46118D01*
X52298Y-46089D01*
X52351Y-46035D01*
X52380Y-45965D01*
X52381Y-45889D01*
X52381Y-47122D01*
X52345Y-47158D01*
X52316Y-47228D01*
X52315Y-47304D01*
X52344Y-47375D01*
X52398Y-47428D01*
X52468Y-47457D01*
X52544Y-47458D01*
X52615Y-47429D01*
X52668Y-47375D01*
X52697Y-47305D01*
X52698Y-47229D01*
X52698Y-49159D01*
X52669Y-49088D01*
X52615Y-49035D01*
X52545Y-49006D01*
X52469Y-49005D01*
X52398Y-49034D01*
X52345Y-49088D01*
X52316Y-49158D01*
X52315Y-49234D01*
X52344Y-49305D01*
X52398Y-49358D01*
X52468Y-49387D01*
X52544Y-49388D01*
X52615Y-49359D01*
X52668Y-49305D01*
X52697Y-49235D01*
X52698Y-49159D01*
X52698Y-49518D01*
X52305Y-49517D01*
X52305Y-47229D01*
X52276Y-47158D01*
X52222Y-47105D01*
X52152Y-47076D01*
X52076Y-47075D01*
X52005Y-47104D01*
X51952Y-47158D01*
X51923Y-47228D01*
X51922Y-47304D01*
X51951Y-47375D01*
X52005Y-47428D01*
X52075Y-47457D01*
X52151Y-47458D01*
X52222Y-47429D01*
X52275Y-47375D01*
X52304Y-47305D01*
X52305Y-47229D01*
X52305Y-49517D01*
X52303Y-49517D01*
X52303Y-49157D01*
X52274Y-49086D01*
X52220Y-49033D01*
X52150Y-49004D01*
X52074Y-49003D01*
X52003Y-49032D01*
X51950Y-49086D01*
X51921Y-49156D01*
X51920Y-49232D01*
X51949Y-49303D01*
X52003Y-49356D01*
X52073Y-49385D01*
X52149Y-49386D01*
X52220Y-49357D01*
X52273Y-49303D01*
X52302Y-49233D01*
X52303Y-49157D01*
X52303Y-49517D01*
X51911Y-49517D01*
X51911Y-49159D01*
X51911Y-47229D01*
X51882Y-47158D01*
X51828Y-47105D01*
X51758Y-47076D01*
X51682Y-47075D01*
X51611Y-47104D01*
X51558Y-47158D01*
X51529Y-47228D01*
X51528Y-47304D01*
X51557Y-47375D01*
X51611Y-47428D01*
X51681Y-47457D01*
X51757Y-47458D01*
X51828Y-47429D01*
X51881Y-47375D01*
X51910Y-47305D01*
X51911Y-47229D01*
X51911Y-49159D01*
X51882Y-49088D01*
X51828Y-49035D01*
X51758Y-49006D01*
X51682Y-49005D01*
X51611Y-49034D01*
X51558Y-49088D01*
X51529Y-49158D01*
X51528Y-49234D01*
X51557Y-49305D01*
X51611Y-49358D01*
X51681Y-49387D01*
X51757Y-49388D01*
X51828Y-49359D01*
X51881Y-49305D01*
X51910Y-49235D01*
X51911Y-49159D01*
X51911Y-49517D01*
X51516Y-49516D01*
X51516Y-49159D01*
X51516Y-48764D01*
X51516Y-48372D01*
X51516Y-47977D01*
X51516Y-47584D01*
X51487Y-47513D01*
X51433Y-47460D01*
X51395Y-47444D01*
X51433Y-47429D01*
X51486Y-47375D01*
X51515Y-47305D01*
X51516Y-47229D01*
X51487Y-47158D01*
X51433Y-47105D01*
X51363Y-47076D01*
X51360Y-47076D01*
X51360Y-45025D01*
X51331Y-44954D01*
X51321Y-44945D01*
X51330Y-44935D01*
X51359Y-44865D01*
X51360Y-44789D01*
X51331Y-44718D01*
X51277Y-44665D01*
X51207Y-44636D01*
X51131Y-44635D01*
X51060Y-44664D01*
X51007Y-44718D01*
X50978Y-44788D01*
X50977Y-44864D01*
X51006Y-44935D01*
X51016Y-44944D01*
X51007Y-44954D01*
X50978Y-45024D01*
X50977Y-45100D01*
X51006Y-45171D01*
X51060Y-45224D01*
X51130Y-45253D01*
X51206Y-45254D01*
X51277Y-45225D01*
X51330Y-45171D01*
X51359Y-45101D01*
X51360Y-45025D01*
X51360Y-47076D01*
X51287Y-47075D01*
X51216Y-47104D01*
X51163Y-47158D01*
X51134Y-47228D01*
X51133Y-47304D01*
X51162Y-47375D01*
X51216Y-47428D01*
X51254Y-47444D01*
X51216Y-47459D01*
X51163Y-47513D01*
X51134Y-47583D01*
X51133Y-47659D01*
X51162Y-47730D01*
X51216Y-47783D01*
X51286Y-47812D01*
X51362Y-47813D01*
X51433Y-47784D01*
X51486Y-47730D01*
X51515Y-47660D01*
X51516Y-47584D01*
X51516Y-47977D01*
X51487Y-47906D01*
X51433Y-47853D01*
X51363Y-47824D01*
X51287Y-47823D01*
X51216Y-47852D01*
X51163Y-47906D01*
X51134Y-47976D01*
X51133Y-48052D01*
X51162Y-48123D01*
X51216Y-48176D01*
X51286Y-48205D01*
X51362Y-48206D01*
X51433Y-48177D01*
X51486Y-48123D01*
X51515Y-48053D01*
X51516Y-47977D01*
X51516Y-48372D01*
X51487Y-48301D01*
X51433Y-48248D01*
X51363Y-48219D01*
X51287Y-48218D01*
X51216Y-48247D01*
X51163Y-48301D01*
X51134Y-48371D01*
X51133Y-48447D01*
X51162Y-48518D01*
X51216Y-48571D01*
X51286Y-48600D01*
X51362Y-48601D01*
X51433Y-48572D01*
X51486Y-48518D01*
X51515Y-48448D01*
X51516Y-48372D01*
X51516Y-48764D01*
X51487Y-48693D01*
X51433Y-48640D01*
X51363Y-48611D01*
X51287Y-48610D01*
X51216Y-48639D01*
X51163Y-48693D01*
X51134Y-48763D01*
X51133Y-48839D01*
X51162Y-48910D01*
X51216Y-48963D01*
X51286Y-48992D01*
X51362Y-48993D01*
X51433Y-48964D01*
X51486Y-48910D01*
X51515Y-48840D01*
X51516Y-48764D01*
X51516Y-49159D01*
X51487Y-49088D01*
X51433Y-49035D01*
X51363Y-49006D01*
X51287Y-49005D01*
X51216Y-49034D01*
X51163Y-49088D01*
X51134Y-49158D01*
X51133Y-49234D01*
X51162Y-49305D01*
X51216Y-49358D01*
X51286Y-49387D01*
X51362Y-49388D01*
X51433Y-49359D01*
X51486Y-49305D01*
X51515Y-49235D01*
X51516Y-49159D01*
X51516Y-49516D01*
X49052Y-49510D01*
X49052Y-45049D01*
X49023Y-44978D01*
X48969Y-44925D01*
X48899Y-44896D01*
X48823Y-44895D01*
X48752Y-44924D01*
X48703Y-44974D01*
X48654Y-44925D01*
X48584Y-44896D01*
X48508Y-44895D01*
X48437Y-44924D01*
X48388Y-44974D01*
X48339Y-44925D01*
X48269Y-44896D01*
X48193Y-44895D01*
X48122Y-44924D01*
X48069Y-44978D01*
X48040Y-45048D01*
X48039Y-45124D01*
X48068Y-45195D01*
X48122Y-45248D01*
X48192Y-45277D01*
X48268Y-45278D01*
X48339Y-45249D01*
X48388Y-45199D01*
X48437Y-45248D01*
X48507Y-45277D01*
X48583Y-45278D01*
X48654Y-45249D01*
X48703Y-45199D01*
X48752Y-45248D01*
X48822Y-45277D01*
X48898Y-45278D01*
X48969Y-45249D01*
X49022Y-45195D01*
X49051Y-45125D01*
X49052Y-45049D01*
X49052Y-49510D01*
X47972Y-49508D01*
X47972Y-44444D01*
X47995Y-44389D01*
X47995Y-44281D01*
X47972Y-44225D01*
X47972Y-44011D01*
X47995Y-43956D01*
X47995Y-43848D01*
X47972Y-43792D01*
X47972Y-43578D01*
X47995Y-43523D01*
X47995Y-43415D01*
X47972Y-43359D01*
X47972Y-41282D01*
X47977Y-41287D01*
X48040Y-41313D01*
X48109Y-41314D01*
X48172Y-41287D01*
X48205Y-41255D01*
X50626Y-41255D01*
X51525Y-42153D01*
X51525Y-42224D01*
X51518Y-42231D01*
X51511Y-42224D01*
X51511Y-42189D01*
X51510Y-42188D01*
X51511Y-42188D01*
X51502Y-42145D01*
X51477Y-42109D01*
X51477Y-42109D01*
X51020Y-41652D01*
X50984Y-41627D01*
X50941Y-41619D01*
X48327Y-41619D01*
X48294Y-41586D01*
X48231Y-41560D01*
X48162Y-41559D01*
X48099Y-41586D01*
X48051Y-41634D01*
X48025Y-41697D01*
X48024Y-41766D01*
X48051Y-41829D01*
X48099Y-41877D01*
X48162Y-41903D01*
X48231Y-41904D01*
X48294Y-41877D01*
X48327Y-41845D01*
X50894Y-41845D01*
X51279Y-42230D01*
X51252Y-42257D01*
X51226Y-42320D01*
X51226Y-42325D01*
X50950Y-42050D01*
X50914Y-42025D01*
X50871Y-42017D01*
X48311Y-42017D01*
X48278Y-41984D01*
X48215Y-41958D01*
X48146Y-41957D01*
X48083Y-41984D01*
X48035Y-42032D01*
X48009Y-42095D01*
X48008Y-42164D01*
X48034Y-42226D01*
X48027Y-42233D01*
X48001Y-42296D01*
X48000Y-42365D01*
X48027Y-42428D01*
X48075Y-42476D01*
X48138Y-42502D01*
X48207Y-42503D01*
X48270Y-42476D01*
X48303Y-42444D01*
X50839Y-42444D01*
X51117Y-42721D01*
X51117Y-42721D01*
X51153Y-42746D01*
X51196Y-42755D01*
X51196Y-42754D01*
X51197Y-42755D01*
X52004Y-42755D01*
X52047Y-42746D01*
X52083Y-42721D01*
X52197Y-42607D01*
X52197Y-42607D01*
X52197Y-42607D01*
X52222Y-42571D01*
X52231Y-42528D01*
X52231Y-42484D01*
X52237Y-42478D01*
X52237Y-42708D01*
X52245Y-42751D01*
X52270Y-42787D01*
X52287Y-42805D01*
X49695Y-42805D01*
X49662Y-42772D01*
X49635Y-42760D01*
X49680Y-42715D01*
X49706Y-42652D01*
X49707Y-42583D01*
X49680Y-42520D01*
X49632Y-42472D01*
X49569Y-42446D01*
X49500Y-42445D01*
X49437Y-42472D01*
X49389Y-42520D01*
X49363Y-42583D01*
X49363Y-42612D01*
X48284Y-42612D01*
X48251Y-42579D01*
X48188Y-42553D01*
X48119Y-42552D01*
X48056Y-42579D01*
X48008Y-42627D01*
X47982Y-42690D01*
X47981Y-42759D01*
X48008Y-42822D01*
X48056Y-42870D01*
X48119Y-42896D01*
X48188Y-42897D01*
X48251Y-42870D01*
X48284Y-42838D01*
X49411Y-42838D01*
X49393Y-42883D01*
X49392Y-42952D01*
X49419Y-43015D01*
X49467Y-43063D01*
X49530Y-43089D01*
X49599Y-43090D01*
X49662Y-43063D01*
X49695Y-43031D01*
X52595Y-43031D01*
X52807Y-43243D01*
X52782Y-43233D01*
X52706Y-43232D01*
X52635Y-43261D01*
X52582Y-43315D01*
X52566Y-43353D01*
X52551Y-43315D01*
X52497Y-43262D01*
X52427Y-43233D01*
X52351Y-43232D01*
X52280Y-43261D01*
X52227Y-43315D01*
X52198Y-43385D01*
X52197Y-43429D01*
X52194Y-43429D01*
X52123Y-43458D01*
X52070Y-43512D01*
X52041Y-43582D01*
X52040Y-43658D01*
X52069Y-43729D01*
X52123Y-43782D01*
X52193Y-43811D01*
X52269Y-43812D01*
X52340Y-43783D01*
X52393Y-43729D01*
X52409Y-43692D01*
X52423Y-43729D01*
X52477Y-43782D01*
X52547Y-43811D01*
X52623Y-43812D01*
X52694Y-43783D01*
X52747Y-43729D01*
X52763Y-43691D01*
X52778Y-43728D01*
X52832Y-43781D01*
X52902Y-43810D01*
X52978Y-43811D01*
X53049Y-43782D01*
X53088Y-43743D01*
X53088Y-44843D01*
X53096Y-44886D01*
X53121Y-44922D01*
X53819Y-45620D01*
X53819Y-45620D01*
X53855Y-45645D01*
X53899Y-45654D01*
X60588Y-45654D01*
X60632Y-45645D01*
X60668Y-45620D01*
X61540Y-44748D01*
X61586Y-44730D01*
X61623Y-44692D01*
X61643Y-44644D01*
X61643Y-44591D01*
X61623Y-44543D01*
X61586Y-44506D01*
X61538Y-44486D01*
X61485Y-44486D01*
X61437Y-44506D01*
X61399Y-44543D01*
X61380Y-44589D01*
X60706Y-45264D01*
X60706Y-31756D01*
X60646Y-31612D01*
X60536Y-31501D01*
X60392Y-31442D01*
X60236Y-31441D01*
X60092Y-31501D01*
X59981Y-31611D01*
X59922Y-31755D01*
X59921Y-31911D01*
X59981Y-32055D01*
X60091Y-32166D01*
X60235Y-32225D01*
X60391Y-32226D01*
X60535Y-32166D01*
X60646Y-32056D01*
X60705Y-31912D01*
X60706Y-31756D01*
X60706Y-45264D01*
X60645Y-45325D01*
X60645Y-40965D01*
X60618Y-40902D01*
X60570Y-40854D01*
X60507Y-40828D01*
X60438Y-40827D01*
X60375Y-40854D01*
X60327Y-40902D01*
X60301Y-40965D01*
X60300Y-41034D01*
X60327Y-41097D01*
X60375Y-41145D01*
X60438Y-41171D01*
X60507Y-41172D01*
X60570Y-41145D01*
X60618Y-41097D01*
X60644Y-41034D01*
X60645Y-40965D01*
X60645Y-45325D01*
X60542Y-45428D01*
X58912Y-45428D01*
X58912Y-41934D01*
X58885Y-41871D01*
X58837Y-41823D01*
X58774Y-41797D01*
X58705Y-41796D01*
X58642Y-41823D01*
X58636Y-41829D01*
X58633Y-41827D01*
X58597Y-41812D01*
X58597Y-41306D01*
X58572Y-41247D01*
X58527Y-41201D01*
X58467Y-41176D01*
X58402Y-41176D01*
X58343Y-41201D01*
X58336Y-41207D01*
X58330Y-41201D01*
X58270Y-41176D01*
X58205Y-41176D01*
X58146Y-41201D01*
X58100Y-41246D01*
X58075Y-41306D01*
X58075Y-41371D01*
X58100Y-41430D01*
X58145Y-41476D01*
X58205Y-41501D01*
X58270Y-41501D01*
X58329Y-41476D01*
X58336Y-41470D01*
X58342Y-41476D01*
X58402Y-41501D01*
X58467Y-41501D01*
X58526Y-41476D01*
X58572Y-41431D01*
X58597Y-41371D01*
X58597Y-41306D01*
X58597Y-41812D01*
X58570Y-41801D01*
X58501Y-41800D01*
X58438Y-41827D01*
X58390Y-41875D01*
X58364Y-41938D01*
X58363Y-42007D01*
X58390Y-42070D01*
X58438Y-42118D01*
X58501Y-42144D01*
X58570Y-42145D01*
X58633Y-42118D01*
X58639Y-42112D01*
X58642Y-42114D01*
X58705Y-42140D01*
X58774Y-42141D01*
X58837Y-42114D01*
X58885Y-42066D01*
X58911Y-42003D01*
X58912Y-41934D01*
X58912Y-45428D01*
X58455Y-45428D01*
X58455Y-43108D01*
X58426Y-43037D01*
X58372Y-42984D01*
X58302Y-42955D01*
X58226Y-42954D01*
X58155Y-42983D01*
X58102Y-43037D01*
X58073Y-43107D01*
X58072Y-43183D01*
X58101Y-43254D01*
X58155Y-43307D01*
X58225Y-43336D01*
X58301Y-43337D01*
X58372Y-43308D01*
X58425Y-43254D01*
X58454Y-43184D01*
X58455Y-43108D01*
X58455Y-45428D01*
X57947Y-45428D01*
X57947Y-43411D01*
X57918Y-43340D01*
X57864Y-43287D01*
X57794Y-43258D01*
X57718Y-43257D01*
X57647Y-43286D01*
X57594Y-43340D01*
X57565Y-43410D01*
X57564Y-43486D01*
X57593Y-43557D01*
X57647Y-43610D01*
X57717Y-43639D01*
X57793Y-43640D01*
X57864Y-43611D01*
X57917Y-43557D01*
X57946Y-43487D01*
X57947Y-43411D01*
X57947Y-45428D01*
X57121Y-45428D01*
X57121Y-42583D01*
X57094Y-42520D01*
X57046Y-42472D01*
X56983Y-42446D01*
X56914Y-42445D01*
X56851Y-42472D01*
X56803Y-42520D01*
X56777Y-42583D01*
X56776Y-42652D01*
X56803Y-42715D01*
X56851Y-42763D01*
X56914Y-42789D01*
X56983Y-42790D01*
X57046Y-42763D01*
X57094Y-42715D01*
X57120Y-42652D01*
X57121Y-42583D01*
X57121Y-45428D01*
X56974Y-45428D01*
X56974Y-43135D01*
X56945Y-43064D01*
X56891Y-43011D01*
X56821Y-42982D01*
X56745Y-42981D01*
X56674Y-43010D01*
X56621Y-43064D01*
X56592Y-43134D01*
X56591Y-43210D01*
X56620Y-43281D01*
X56674Y-43334D01*
X56744Y-43363D01*
X56820Y-43364D01*
X56891Y-43335D01*
X56944Y-43281D01*
X56973Y-43211D01*
X56974Y-43135D01*
X56974Y-45428D01*
X55150Y-45428D01*
X55167Y-45411D01*
X55167Y-45411D01*
X55167Y-45411D01*
X55193Y-45384D01*
X55208Y-45349D01*
X55208Y-45349D01*
X55208Y-45349D01*
X55222Y-45314D01*
X55222Y-45276D01*
X55223Y-45276D01*
X55223Y-45275D01*
X55223Y-45238D01*
X55223Y-45238D01*
X55223Y-45197D01*
X55222Y-45196D01*
X55223Y-45196D01*
X55220Y-45182D01*
X55219Y-45179D01*
X55254Y-45179D01*
X55325Y-45150D01*
X55378Y-45096D01*
X55407Y-45026D01*
X55408Y-44950D01*
X55379Y-44879D01*
X55325Y-44826D01*
X55286Y-44810D01*
X55883Y-44214D01*
X55924Y-44152D01*
X55938Y-44080D01*
X55939Y-44083D01*
X55993Y-44136D01*
X56063Y-44165D01*
X56139Y-44166D01*
X56210Y-44137D01*
X56240Y-44107D01*
X56269Y-44136D01*
X56339Y-44165D01*
X56415Y-44166D01*
X56486Y-44137D01*
X56539Y-44083D01*
X56568Y-44013D01*
X56569Y-43937D01*
X56540Y-43866D01*
X56486Y-43813D01*
X56432Y-43790D01*
X56432Y-42918D01*
X56405Y-42855D01*
X56357Y-42807D01*
X56294Y-42781D01*
X56225Y-42780D01*
X56162Y-42807D01*
X56114Y-42855D01*
X56088Y-42918D01*
X56087Y-42987D01*
X56114Y-43050D01*
X56162Y-43098D01*
X56225Y-43124D01*
X56294Y-43125D01*
X56357Y-43098D01*
X56405Y-43050D01*
X56431Y-42987D01*
X56432Y-42918D01*
X56432Y-43790D01*
X56416Y-43784D01*
X56340Y-43783D01*
X56269Y-43812D01*
X56239Y-43842D01*
X56210Y-43813D01*
X56140Y-43784D01*
X56064Y-43783D01*
X55993Y-43812D01*
X55940Y-43866D01*
X55939Y-43869D01*
X55939Y-43512D01*
X55938Y-43511D01*
X55939Y-43474D01*
X55924Y-43438D01*
X55924Y-43438D01*
X55924Y-43438D01*
X55910Y-43403D01*
X55883Y-43376D01*
X55883Y-43376D01*
X55883Y-43376D01*
X55856Y-43350D01*
X55821Y-43335D01*
X55821Y-43335D01*
X55821Y-43335D01*
X55786Y-43321D01*
X55748Y-43321D01*
X55747Y-43321D01*
X55710Y-43320D01*
X55674Y-43335D01*
X55674Y-43335D01*
X55674Y-43335D01*
X55639Y-43349D01*
X55612Y-43376D01*
X55612Y-43376D01*
X55612Y-43376D01*
X55586Y-43403D01*
X55571Y-43438D01*
X55571Y-43438D01*
X55571Y-43438D01*
X55557Y-43473D01*
X55557Y-43511D01*
X55557Y-43512D01*
X55557Y-43512D01*
X55556Y-43549D01*
X55557Y-43549D01*
X55557Y-43999D01*
X54829Y-44726D01*
X54788Y-44788D01*
X54774Y-44862D01*
X54774Y-45130D01*
X54788Y-45203D01*
X54829Y-45265D01*
X54840Y-45276D01*
X54840Y-45313D01*
X54855Y-45349D01*
X54855Y-45349D01*
X54855Y-45349D01*
X54869Y-45384D01*
X54896Y-45411D01*
X54896Y-45411D01*
X54896Y-45411D01*
X54913Y-45428D01*
X53945Y-45428D01*
X53730Y-45212D01*
X53730Y-44159D01*
X53701Y-44088D01*
X53647Y-44035D01*
X53633Y-44029D01*
X53647Y-44024D01*
X53700Y-43970D01*
X53729Y-43900D01*
X53730Y-43824D01*
X53701Y-43753D01*
X53647Y-43700D01*
X53577Y-43671D01*
X53501Y-43670D01*
X53430Y-43699D01*
X53377Y-43753D01*
X53348Y-43823D01*
X53347Y-43899D01*
X53376Y-43970D01*
X53430Y-44023D01*
X53444Y-44029D01*
X53430Y-44034D01*
X53377Y-44088D01*
X53348Y-44158D01*
X53347Y-44234D01*
X53376Y-44305D01*
X53430Y-44358D01*
X53500Y-44387D01*
X53576Y-44388D01*
X53647Y-44359D01*
X53700Y-44305D01*
X53729Y-44235D01*
X53730Y-44159D01*
X53730Y-45212D01*
X53314Y-44796D01*
X53314Y-43477D01*
X53305Y-43436D01*
X54969Y-43436D01*
X55012Y-43427D01*
X55048Y-43402D01*
X55212Y-43238D01*
X55259Y-43239D01*
X55322Y-43212D01*
X55338Y-43196D01*
X55355Y-43212D01*
X55418Y-43238D01*
X55487Y-43239D01*
X55550Y-43212D01*
X55598Y-43164D01*
X55624Y-43101D01*
X55625Y-43032D01*
X55598Y-42969D01*
X55550Y-42921D01*
X55487Y-42895D01*
X55440Y-42894D01*
X55379Y-42833D01*
X55532Y-42833D01*
X55535Y-42834D01*
X55578Y-42825D01*
X55614Y-42800D01*
X55768Y-42646D01*
X55768Y-42646D01*
X55768Y-42646D01*
X55793Y-42610D01*
X55802Y-42567D01*
X55801Y-42567D01*
X55802Y-42567D01*
X55802Y-42255D01*
X56131Y-41926D01*
X56130Y-41971D01*
X56157Y-42034D01*
X56205Y-42082D01*
X56268Y-42108D01*
X56337Y-42109D01*
X56400Y-42082D01*
X56448Y-42034D01*
X56474Y-41971D01*
X56475Y-41902D01*
X56448Y-41839D01*
X56400Y-41791D01*
X56337Y-41765D01*
X56292Y-41764D01*
X56359Y-41697D01*
X56368Y-41684D01*
X56379Y-41671D01*
X56490Y-41467D01*
X56511Y-41458D01*
X56513Y-41655D01*
X56515Y-41664D01*
X56514Y-41674D01*
X56521Y-41695D01*
X56525Y-41713D01*
X56530Y-41720D01*
X56533Y-41730D01*
X56547Y-41746D01*
X56558Y-41762D01*
X56566Y-41767D01*
X56573Y-41775D01*
X56807Y-41952D01*
X56806Y-41971D01*
X56785Y-42024D01*
X56784Y-42093D01*
X56811Y-42156D01*
X56859Y-42204D01*
X56922Y-42230D01*
X56991Y-42231D01*
X57054Y-42204D01*
X57075Y-42184D01*
X57107Y-42216D01*
X57170Y-42242D01*
X57239Y-42243D01*
X57302Y-42216D01*
X57350Y-42168D01*
X57376Y-42105D01*
X57376Y-42086D01*
X57430Y-42108D01*
X57499Y-42109D01*
X57562Y-42082D01*
X57610Y-42034D01*
X57636Y-41971D01*
X57637Y-41902D01*
X57610Y-41839D01*
X57608Y-41836D01*
X57608Y-41836D01*
X57605Y-41823D01*
X57605Y-41823D01*
X57572Y-41774D01*
X57572Y-41774D01*
X57404Y-41606D01*
X57405Y-41398D01*
X57416Y-41371D01*
X57416Y-41306D01*
X57391Y-41247D01*
X57346Y-41201D01*
X57286Y-41176D01*
X57221Y-41176D01*
X57162Y-41201D01*
X57155Y-41207D01*
X57149Y-41201D01*
X57089Y-41176D01*
X57024Y-41176D01*
X56965Y-41201D01*
X56958Y-41207D01*
X56952Y-41201D01*
X56892Y-41176D01*
X56827Y-41176D01*
X56768Y-41201D01*
X56761Y-41207D01*
X56755Y-41201D01*
X56695Y-41176D01*
X56630Y-41176D01*
X56576Y-41198D01*
X56599Y-41144D01*
X56599Y-41079D01*
X56574Y-41020D01*
X56568Y-41013D01*
X56574Y-41007D01*
X56599Y-40947D01*
X56599Y-40882D01*
X56574Y-40823D01*
X56568Y-40817D01*
X56574Y-40811D01*
X56599Y-40751D01*
X56599Y-40686D01*
X56574Y-40627D01*
X56568Y-40620D01*
X56574Y-40614D01*
X56599Y-40554D01*
X56599Y-40489D01*
X56574Y-40430D01*
X56568Y-40423D01*
X56574Y-40417D01*
X56599Y-40357D01*
X56599Y-40292D01*
X56574Y-40233D01*
X56568Y-40226D01*
X56574Y-40220D01*
X56599Y-40160D01*
X56599Y-40095D01*
X56574Y-40036D01*
X56568Y-40029D01*
X56574Y-40023D01*
X56599Y-39963D01*
X56599Y-39898D01*
X56574Y-39839D01*
X56568Y-39832D01*
X56574Y-39826D01*
X56599Y-39766D01*
X56599Y-39701D01*
X56574Y-39642D01*
X56568Y-39635D01*
X56574Y-39629D01*
X56599Y-39569D01*
X56599Y-39504D01*
X56574Y-39445D01*
X56568Y-39439D01*
X56574Y-39433D01*
X56599Y-39373D01*
X56599Y-39308D01*
X56574Y-39249D01*
X56568Y-39242D01*
X56574Y-39236D01*
X56599Y-39176D01*
X56599Y-39111D01*
X56574Y-39052D01*
X56568Y-39045D01*
X56574Y-39039D01*
X56599Y-38979D01*
X56599Y-38914D01*
X56574Y-38855D01*
X56568Y-38848D01*
X56574Y-38842D01*
X56580Y-38848D01*
X56640Y-38873D01*
X56705Y-38873D01*
X56764Y-38848D01*
X56766Y-38846D01*
X56777Y-38857D01*
X56837Y-38882D01*
X56902Y-38882D01*
X56961Y-38857D01*
X56968Y-38851D01*
X56974Y-38857D01*
X57034Y-38882D01*
X57099Y-38882D01*
X57158Y-38857D01*
X57204Y-38812D01*
X57225Y-38763D01*
X57405Y-38963D01*
X57408Y-38966D01*
X57410Y-38967D01*
X57421Y-38975D01*
X57441Y-38990D01*
X57444Y-38991D01*
X57446Y-38992D01*
X57461Y-38995D01*
X57483Y-39001D01*
X57487Y-39000D01*
X57490Y-39001D01*
X58765Y-39001D01*
X58765Y-40167D01*
X58766Y-40174D01*
X58765Y-40181D01*
X58770Y-40195D01*
X58773Y-40210D01*
X58777Y-40216D01*
X58780Y-40223D01*
X58789Y-40234D01*
X58798Y-40246D01*
X58804Y-40251D01*
X58809Y-40256D01*
X58902Y-40327D01*
X58902Y-40357D01*
X58927Y-40416D01*
X58933Y-40423D01*
X58927Y-40429D01*
X58902Y-40489D01*
X58902Y-40554D01*
X58927Y-40613D01*
X58933Y-40620D01*
X58927Y-40626D01*
X58902Y-40686D01*
X58902Y-40751D01*
X58927Y-40810D01*
X58933Y-40816D01*
X58927Y-40822D01*
X58902Y-40882D01*
X58902Y-40947D01*
X58927Y-41006D01*
X58938Y-41018D01*
X58937Y-41019D01*
X58912Y-41079D01*
X58912Y-41144D01*
X58937Y-41203D01*
X58938Y-41205D01*
X58927Y-41216D01*
X58902Y-41276D01*
X58902Y-41341D01*
X58927Y-41400D01*
X58972Y-41446D01*
X59027Y-41469D01*
X59256Y-41634D01*
X59237Y-41634D01*
X59174Y-41661D01*
X59126Y-41709D01*
X59100Y-41772D01*
X59099Y-41841D01*
X59126Y-41904D01*
X59163Y-41941D01*
X59135Y-41969D01*
X59109Y-42032D01*
X59108Y-42101D01*
X59135Y-42164D01*
X59183Y-42212D01*
X59246Y-42238D01*
X59315Y-42239D01*
X59378Y-42212D01*
X59426Y-42164D01*
X59452Y-42101D01*
X59453Y-42032D01*
X59426Y-41969D01*
X59389Y-41932D01*
X59417Y-41904D01*
X59443Y-41841D01*
X59444Y-41772D01*
X59442Y-41770D01*
X59655Y-41923D01*
X59965Y-42593D01*
X59963Y-42599D01*
X59962Y-42675D01*
X59991Y-42746D01*
X60019Y-42773D01*
X59980Y-42812D01*
X59951Y-42882D01*
X59950Y-42958D01*
X59979Y-43029D01*
X60033Y-43082D01*
X60103Y-43111D01*
X60179Y-43112D01*
X60250Y-43083D01*
X60303Y-43029D01*
X60332Y-42959D01*
X60333Y-42883D01*
X60304Y-42812D01*
X60276Y-42785D01*
X60315Y-42746D01*
X60344Y-42676D01*
X60345Y-42600D01*
X60316Y-42529D01*
X60262Y-42476D01*
X60243Y-42468D01*
X59913Y-41759D01*
X59907Y-41750D01*
X59905Y-41743D01*
X59893Y-41731D01*
X59878Y-41711D01*
X59869Y-41705D01*
X59864Y-41700D01*
X59205Y-41222D01*
X59202Y-41217D01*
X59201Y-41215D01*
X59212Y-41204D01*
X59237Y-41144D01*
X59237Y-41079D01*
X59212Y-41020D01*
X59201Y-41008D01*
X59202Y-41007D01*
X59227Y-40947D01*
X59227Y-40882D01*
X59206Y-40831D01*
X59303Y-40831D01*
X59331Y-40825D01*
X59344Y-40823D01*
X59345Y-40822D01*
X59346Y-40822D01*
X59369Y-40806D01*
X59381Y-40799D01*
X59382Y-40798D01*
X59383Y-40797D01*
X59383Y-40797D01*
X59442Y-40740D01*
X59467Y-40704D01*
X59477Y-40661D01*
X59476Y-40658D01*
X59476Y-40511D01*
X59483Y-40516D01*
X59501Y-40528D01*
X59502Y-40528D01*
X59503Y-40529D01*
X59523Y-40533D01*
X59537Y-40536D01*
X59571Y-40570D01*
X59629Y-40594D01*
X59627Y-40607D01*
X59627Y-40609D01*
X59594Y-40642D01*
X59568Y-40705D01*
X59567Y-40774D01*
X59594Y-40837D01*
X59642Y-40885D01*
X59705Y-40911D01*
X59774Y-40912D01*
X59778Y-40910D01*
X59778Y-40910D01*
X59805Y-40973D01*
X59853Y-41021D01*
X59916Y-41047D01*
X59974Y-41048D01*
X59932Y-41065D01*
X59884Y-41113D01*
X59858Y-41176D01*
X59857Y-41245D01*
X59884Y-41308D01*
X59904Y-41328D01*
X59893Y-41339D01*
X59867Y-41402D01*
X59866Y-41471D01*
X59893Y-41534D01*
X59941Y-41582D01*
X60004Y-41608D01*
X60073Y-41609D01*
X60136Y-41582D01*
X60184Y-41534D01*
X60210Y-41471D01*
X60211Y-41402D01*
X60184Y-41339D01*
X60164Y-41319D01*
X60175Y-41308D01*
X60201Y-41245D01*
X60202Y-41176D01*
X60175Y-41113D01*
X60127Y-41065D01*
X60064Y-41039D01*
X60006Y-41038D01*
X60048Y-41021D01*
X60096Y-40973D01*
X60122Y-40910D01*
X60123Y-40863D01*
X60591Y-40394D01*
X60616Y-40358D01*
X60625Y-40315D01*
X60623Y-40308D01*
X60621Y-38756D01*
X60621Y-38755D01*
X60616Y-38734D01*
X60612Y-38712D01*
X60612Y-38712D01*
X60612Y-38712D01*
X60600Y-38694D01*
X60587Y-38676D01*
X59917Y-38006D01*
X59947Y-38006D01*
X60018Y-37977D01*
X60071Y-37923D01*
X60100Y-37853D01*
X60101Y-37777D01*
X60072Y-37706D01*
X60018Y-37653D01*
X59948Y-37624D01*
X59872Y-37623D01*
X59801Y-37652D01*
X59748Y-37706D01*
X59719Y-37776D01*
X59719Y-37807D01*
X59355Y-37444D01*
X59319Y-37419D01*
X59276Y-37411D01*
X58330Y-37411D01*
X56666Y-35747D01*
X57944Y-35747D01*
X57965Y-35750D01*
X58009Y-35742D01*
X58045Y-35717D01*
X58283Y-35475D01*
X60094Y-35478D01*
X60093Y-35516D01*
X60120Y-35579D01*
X60131Y-35590D01*
X60100Y-35621D01*
X60074Y-35684D01*
X60073Y-35753D01*
X60100Y-35816D01*
X60148Y-35864D01*
X60211Y-35890D01*
X60280Y-35891D01*
X60343Y-35864D01*
X60376Y-35832D01*
X60413Y-35832D01*
X60413Y-35831D01*
X60414Y-35831D01*
X60435Y-35827D01*
X60456Y-35823D01*
X60457Y-35822D01*
X60458Y-35822D01*
X60475Y-35810D01*
X60492Y-35798D01*
X60493Y-35798D01*
X60494Y-35797D01*
X60666Y-35619D01*
X60666Y-35618D01*
X60667Y-35618D01*
X60668Y-35617D01*
X60675Y-35605D01*
X60691Y-35582D01*
X60691Y-35580D01*
X60692Y-35580D01*
X60694Y-35565D01*
X60700Y-35539D01*
X60700Y-35430D01*
X60691Y-35386D01*
X60666Y-35350D01*
X60508Y-35192D01*
X60472Y-35167D01*
X60429Y-35159D01*
X60418Y-35161D01*
X60348Y-35161D01*
X60349Y-35095D01*
X60322Y-35032D01*
X60274Y-34984D01*
X60211Y-34958D01*
X60142Y-34957D01*
X60079Y-34984D01*
X60031Y-35032D01*
X60005Y-35095D01*
X60004Y-35161D01*
X59706Y-35161D01*
X59706Y-32093D01*
X59706Y-31496D01*
X59691Y-31462D01*
X59665Y-31436D01*
X59631Y-31422D01*
X59593Y-31421D01*
X58996Y-31421D01*
X58962Y-31436D01*
X58936Y-31462D01*
X58922Y-31496D01*
X58921Y-31534D01*
X58921Y-32131D01*
X58936Y-32165D01*
X58962Y-32191D01*
X58996Y-32205D01*
X59034Y-32206D01*
X59631Y-32206D01*
X59665Y-32191D01*
X59691Y-32165D01*
X59705Y-32131D01*
X59706Y-32093D01*
X59706Y-35161D01*
X58136Y-35161D01*
X58135Y-35160D01*
X58134Y-35161D01*
X58134Y-35161D01*
X58123Y-35163D01*
X58092Y-35168D01*
X58091Y-35169D01*
X58090Y-35169D01*
X58083Y-35174D01*
X58055Y-35192D01*
X57806Y-35434D01*
X54412Y-35434D01*
X54412Y-34403D01*
X54383Y-34332D01*
X54329Y-34279D01*
X54259Y-34250D01*
X54183Y-34249D01*
X54112Y-34278D01*
X54059Y-34332D01*
X54030Y-34402D01*
X54029Y-34478D01*
X54058Y-34549D01*
X54112Y-34602D01*
X54182Y-34631D01*
X54258Y-34632D01*
X54329Y-34603D01*
X54382Y-34549D01*
X54411Y-34479D01*
X54412Y-34403D01*
X54412Y-35434D01*
X54078Y-35434D01*
X54078Y-34808D01*
X54051Y-34745D01*
X54003Y-34697D01*
X53940Y-34671D01*
X53871Y-34670D01*
X53808Y-34697D01*
X53760Y-34745D01*
X53734Y-34808D01*
X53733Y-34877D01*
X53760Y-34940D01*
X53808Y-34988D01*
X53871Y-35014D01*
X53940Y-35015D01*
X54003Y-34988D01*
X54051Y-34940D01*
X54077Y-34877D01*
X54078Y-34808D01*
X54078Y-35434D01*
X53243Y-35434D01*
X53243Y-34827D01*
X53216Y-34764D01*
X53168Y-34716D01*
X53105Y-34690D01*
X53036Y-34689D01*
X52973Y-34716D01*
X52925Y-34764D01*
X52899Y-34827D01*
X52898Y-34896D01*
X52910Y-34923D01*
X52871Y-34922D01*
X52808Y-34949D01*
X52760Y-34997D01*
X52734Y-35060D01*
X52733Y-35129D01*
X52760Y-35192D01*
X52808Y-35240D01*
X52871Y-35266D01*
X52940Y-35267D01*
X53003Y-35240D01*
X53051Y-35192D01*
X53077Y-35129D01*
X53078Y-35060D01*
X53066Y-35033D01*
X53105Y-35034D01*
X53168Y-35007D01*
X53216Y-34959D01*
X53242Y-34896D01*
X53243Y-34827D01*
X53243Y-35434D01*
X52727Y-35434D01*
X52162Y-34869D01*
X52126Y-34844D01*
X52083Y-34836D01*
X51342Y-34836D01*
X51405Y-34773D01*
X52283Y-34769D01*
X52326Y-34760D01*
X52363Y-34735D01*
X52363Y-34735D01*
X54239Y-32859D01*
X57028Y-32859D01*
X57040Y-32856D01*
X57053Y-32856D01*
X57062Y-32852D01*
X57071Y-32850D01*
X57081Y-32843D01*
X57093Y-32837D01*
X58064Y-32145D01*
X58084Y-32166D01*
X58228Y-32225D01*
X58384Y-32226D01*
X58528Y-32166D01*
X58639Y-32056D01*
X58698Y-31912D01*
X58699Y-31756D01*
X58639Y-31612D01*
X58529Y-31501D01*
X58385Y-31442D01*
X58229Y-31441D01*
X58085Y-31501D01*
X57974Y-31611D01*
X57915Y-31755D01*
X57914Y-31911D01*
X57935Y-31960D01*
X56991Y-32633D01*
X56651Y-32633D01*
X57116Y-32179D01*
X57228Y-32225D01*
X57384Y-32226D01*
X57528Y-32166D01*
X57639Y-32056D01*
X57698Y-31912D01*
X57699Y-31756D01*
X57639Y-31612D01*
X57529Y-31501D01*
X57385Y-31442D01*
X57229Y-31441D01*
X57085Y-31501D01*
X56974Y-31611D01*
X56915Y-31755D01*
X56914Y-31911D01*
X56958Y-32017D01*
X56509Y-32456D01*
X55880Y-32456D01*
X56132Y-32186D01*
X56228Y-32225D01*
X56384Y-32226D01*
X56528Y-32166D01*
X56639Y-32056D01*
X56698Y-31912D01*
X56699Y-31756D01*
X56639Y-31612D01*
X56529Y-31501D01*
X56385Y-31442D01*
X56229Y-31441D01*
X56085Y-31501D01*
X55974Y-31611D01*
X55915Y-31755D01*
X55914Y-31911D01*
X55965Y-32033D01*
X55708Y-32308D01*
X54993Y-32308D01*
X55120Y-32180D01*
X55228Y-32225D01*
X55384Y-32226D01*
X55528Y-32166D01*
X55639Y-32056D01*
X55698Y-31912D01*
X55699Y-31756D01*
X55639Y-31612D01*
X55529Y-31501D01*
X55385Y-31442D01*
X55229Y-31441D01*
X55085Y-31501D01*
X54974Y-31611D01*
X54915Y-31755D01*
X54914Y-31911D01*
X54960Y-32021D01*
X54819Y-32163D01*
X54532Y-32163D01*
X54639Y-32056D01*
X54698Y-31912D01*
X54699Y-31756D01*
X54639Y-31612D01*
X54529Y-31501D01*
X54385Y-31442D01*
X54229Y-31441D01*
X54085Y-31501D01*
X53974Y-31611D01*
X53915Y-31755D01*
X53914Y-31911D01*
X53960Y-32021D01*
X52244Y-33737D01*
X52170Y-33737D01*
X52170Y-31643D01*
X52114Y-31506D01*
X52009Y-31402D01*
X51873Y-31345D01*
X51725Y-31345D01*
X51588Y-31401D01*
X51484Y-31506D01*
X51427Y-31642D01*
X51427Y-31790D01*
X51483Y-31927D01*
X51588Y-32031D01*
X51724Y-32088D01*
X51872Y-32088D01*
X52009Y-32032D01*
X52113Y-31927D01*
X52170Y-31791D01*
X52170Y-31643D01*
X52170Y-33737D01*
X51130Y-33737D01*
X51129Y-33737D01*
X51086Y-33745D01*
X51050Y-33770D01*
X51050Y-33770D01*
X50184Y-34636D01*
X50159Y-34672D01*
X50151Y-34716D01*
X50151Y-35685D01*
X49980Y-35856D01*
X49709Y-35856D01*
X49665Y-35864D01*
X49629Y-35889D01*
X49408Y-36110D01*
X49427Y-36062D01*
X49428Y-35993D01*
X49401Y-35930D01*
X49353Y-35882D01*
X49290Y-35856D01*
X49221Y-35855D01*
X49158Y-35882D01*
X49110Y-35930D01*
X49084Y-35993D01*
X49083Y-36062D01*
X49110Y-36125D01*
X49158Y-36173D01*
X49221Y-36199D01*
X49290Y-36200D01*
X49337Y-36180D01*
X49274Y-36244D01*
X49249Y-36280D01*
X49241Y-36324D01*
X49241Y-36877D01*
X49229Y-36866D01*
X49166Y-36840D01*
X49097Y-36839D01*
X49034Y-36866D01*
X48986Y-36914D01*
X48960Y-36977D01*
X48959Y-37046D01*
X48986Y-37109D01*
X49034Y-37157D01*
X49097Y-37183D01*
X49166Y-37184D01*
X49229Y-37157D01*
X49241Y-37146D01*
X49241Y-37271D01*
X49208Y-37304D01*
X49192Y-37343D01*
X48973Y-37125D01*
X48937Y-37100D01*
X48894Y-37092D01*
X48323Y-37092D01*
X48290Y-37059D01*
X48227Y-37033D01*
X48158Y-37032D01*
X48095Y-37059D01*
X48047Y-37107D01*
X48021Y-37170D01*
X48020Y-37239D01*
X48039Y-37284D01*
X48019Y-37304D01*
X47993Y-37367D01*
X47992Y-37436D01*
X48019Y-37499D01*
X48067Y-37547D01*
X48130Y-37573D01*
X48199Y-37574D01*
X48262Y-37547D01*
X48295Y-37515D01*
X48840Y-37515D01*
X49200Y-37874D01*
X49236Y-37899D01*
X49280Y-37908D01*
X51098Y-37908D01*
X51141Y-37899D01*
X51177Y-37874D01*
X51264Y-37787D01*
X51264Y-37787D01*
X51264Y-37787D01*
X51289Y-37751D01*
X51289Y-37751D01*
X51296Y-37715D01*
X51298Y-37708D01*
X51297Y-37708D01*
X51298Y-37708D01*
X51298Y-36863D01*
X51475Y-37040D01*
X51476Y-37041D01*
X51476Y-37042D01*
X51494Y-37053D01*
X51511Y-37065D01*
X51513Y-37065D01*
X51514Y-37066D01*
X51534Y-37069D01*
X51555Y-37074D01*
X51556Y-37073D01*
X51557Y-37073D01*
X51600Y-37072D01*
X51626Y-37098D01*
X51582Y-37142D01*
X51556Y-37205D01*
X51555Y-37274D01*
X51582Y-37337D01*
X51615Y-37370D01*
X51575Y-37410D01*
X51549Y-37473D01*
X51548Y-37542D01*
X51575Y-37605D01*
X51623Y-37653D01*
X51686Y-37679D01*
X51755Y-37680D01*
X51818Y-37653D01*
X51851Y-37621D01*
X52131Y-37621D01*
X52256Y-37745D01*
X52292Y-37770D01*
X52336Y-37779D01*
X52376Y-37779D01*
X52371Y-37792D01*
X52370Y-37861D01*
X52378Y-37879D01*
X51847Y-37879D01*
X51814Y-37846D01*
X51751Y-37820D01*
X51682Y-37819D01*
X51619Y-37846D01*
X51571Y-37894D01*
X51545Y-37957D01*
X51544Y-38026D01*
X51571Y-38089D01*
X51619Y-38137D01*
X51682Y-38163D01*
X51751Y-38164D01*
X51814Y-38137D01*
X51847Y-38105D01*
X52353Y-38105D01*
X52344Y-38127D01*
X52343Y-38174D01*
X52245Y-38273D01*
X48365Y-38273D01*
X48365Y-37949D01*
X48338Y-37886D01*
X48290Y-37838D01*
X48227Y-37812D01*
X48158Y-37811D01*
X48095Y-37838D01*
X48047Y-37886D01*
X48021Y-37949D01*
X48020Y-38018D01*
X48047Y-38081D01*
X48095Y-38129D01*
X48158Y-38155D01*
X48227Y-38156D01*
X48290Y-38129D01*
X48338Y-38081D01*
X48364Y-38018D01*
X48365Y-37949D01*
X48365Y-38273D01*
X48351Y-38273D01*
X48318Y-38240D01*
X48255Y-38214D01*
X48186Y-38213D01*
X48123Y-38240D01*
X48075Y-38288D01*
X48049Y-38351D01*
X48048Y-38420D01*
X48069Y-38470D01*
X48047Y-38493D01*
X48021Y-38556D01*
X48020Y-38620D01*
X47981Y-38637D01*
X47972Y-38646D01*
X47972Y-35605D01*
X47995Y-35550D01*
X47995Y-35442D01*
X47972Y-35386D01*
X47972Y-35172D01*
X47995Y-35117D01*
X47995Y-35009D01*
X47972Y-34953D01*
X47972Y-34739D01*
X47995Y-34684D01*
X47995Y-34576D01*
X47972Y-34520D01*
X47972Y-30688D01*
X56325Y-30688D01*
X56370Y-30707D01*
X56478Y-30707D01*
X56524Y-30688D01*
X56758Y-30688D01*
X56803Y-30707D01*
X56911Y-30707D01*
X56957Y-30688D01*
X57191Y-30688D01*
X57236Y-30707D01*
X57344Y-30707D01*
X57390Y-30688D01*
X57625Y-30688D01*
X57670Y-30707D01*
X57778Y-30707D01*
X57824Y-30688D01*
X66004Y-30688D01*
X66004Y-39500D01*
X65997Y-39516D01*
X65997Y-39624D01*
X66004Y-39641D01*
X66004Y-39933D01*
X65997Y-39949D01*
X65997Y-40057D01*
X66004Y-40074D01*
X66004Y-40366D01*
X65997Y-40382D01*
X65997Y-40490D01*
X66004Y-40507D01*
X66004Y-40799D01*
X65997Y-40815D01*
X65997Y-40923D01*
X66004Y-40940D01*
X66004Y-49547D01*
X66004Y-49547D01*
G37*
G54D26*
X66004Y-49547D02*
X63706Y-49542D01*
X63706Y-31756D01*
X63646Y-31612D01*
X63536Y-31501D01*
X63392Y-31442D01*
X63236Y-31441D01*
X63092Y-31501D01*
X62981Y-31611D01*
X62922Y-31755D01*
X62921Y-31911D01*
X62981Y-32055D01*
X63091Y-32166D01*
X63235Y-32225D01*
X63391Y-32226D01*
X63535Y-32166D01*
X63646Y-32056D01*
X63705Y-31912D01*
X63706Y-31756D01*
X63706Y-49542D01*
X63435Y-49541D01*
X63435Y-48272D01*
X63375Y-48128D01*
X63265Y-48017D01*
X63121Y-47958D01*
X62965Y-47957D01*
X62821Y-48017D01*
X62710Y-48127D01*
X62706Y-48139D01*
X62706Y-31756D01*
X62646Y-31612D01*
X62536Y-31501D01*
X62392Y-31442D01*
X62236Y-31441D01*
X62092Y-31501D01*
X61981Y-31611D01*
X61922Y-31755D01*
X61921Y-31911D01*
X61981Y-32055D01*
X62091Y-32166D01*
X62235Y-32225D01*
X62391Y-32226D01*
X62535Y-32166D01*
X62646Y-32056D01*
X62705Y-31912D01*
X62706Y-31756D01*
X62706Y-48139D01*
X62651Y-48271D01*
X62650Y-48427D01*
X62710Y-48571D01*
X62820Y-48682D01*
X62964Y-48741D01*
X63120Y-48742D01*
X63264Y-48682D01*
X63375Y-48572D01*
X63434Y-48428D01*
X63435Y-48272D01*
X63435Y-49541D01*
X62435Y-49539D01*
X62435Y-48272D01*
X62375Y-48128D01*
X62265Y-48017D01*
X62230Y-48003D01*
X62230Y-39765D01*
X62201Y-39694D01*
X62156Y-39649D01*
X62197Y-39608D01*
X62226Y-39538D01*
X62227Y-39462D01*
X62198Y-39391D01*
X62144Y-39338D01*
X62074Y-39309D01*
X61998Y-39308D01*
X61927Y-39337D01*
X61874Y-39391D01*
X61845Y-39461D01*
X61844Y-39537D01*
X61873Y-39608D01*
X61918Y-39653D01*
X61877Y-39694D01*
X61848Y-39764D01*
X61847Y-39840D01*
X61876Y-39911D01*
X61930Y-39964D01*
X62000Y-39993D01*
X62076Y-39994D01*
X62147Y-39965D01*
X62200Y-39911D01*
X62229Y-39841D01*
X62230Y-39765D01*
X62230Y-48003D01*
X62121Y-47958D01*
X62012Y-47957D01*
X62012Y-41980D01*
X61983Y-41909D01*
X61929Y-41856D01*
X61919Y-41851D01*
X61919Y-40608D01*
X61890Y-40537D01*
X61836Y-40484D01*
X61785Y-40462D01*
X61785Y-38045D01*
X61756Y-37974D01*
X61702Y-37921D01*
X61698Y-37919D01*
X61698Y-31849D01*
X61674Y-31700D01*
X61663Y-31673D01*
X61619Y-31634D01*
X61513Y-31740D01*
X61513Y-31528D01*
X61474Y-31484D01*
X61329Y-31449D01*
X61180Y-31473D01*
X61153Y-31484D01*
X61114Y-31528D01*
X61314Y-31727D01*
X61513Y-31528D01*
X61513Y-31740D01*
X61420Y-31834D01*
X61619Y-32033D01*
X61663Y-31994D01*
X61698Y-31849D01*
X61698Y-37919D01*
X61632Y-37892D01*
X61556Y-37891D01*
X61513Y-37909D01*
X61513Y-32139D01*
X61314Y-31940D01*
X61207Y-32046D01*
X61207Y-31834D01*
X61008Y-31634D01*
X60964Y-31673D01*
X60929Y-31818D01*
X60953Y-31967D01*
X60964Y-31994D01*
X61008Y-32033D01*
X61207Y-31834D01*
X61207Y-32046D01*
X61114Y-32139D01*
X61153Y-32183D01*
X61298Y-32218D01*
X61447Y-32194D01*
X61474Y-32183D01*
X61513Y-32139D01*
X61513Y-37909D01*
X61485Y-37920D01*
X61432Y-37974D01*
X61403Y-38044D01*
X61402Y-38120D01*
X61431Y-38191D01*
X61485Y-38244D01*
X61555Y-38273D01*
X61631Y-38274D01*
X61702Y-38245D01*
X61755Y-38191D01*
X61784Y-38121D01*
X61785Y-38045D01*
X61785Y-40462D01*
X61766Y-40455D01*
X61690Y-40454D01*
X61619Y-40483D01*
X61566Y-40537D01*
X61537Y-40607D01*
X61536Y-40683D01*
X61565Y-40754D01*
X61619Y-40807D01*
X61689Y-40836D01*
X61765Y-40837D01*
X61836Y-40808D01*
X61889Y-40754D01*
X61918Y-40684D01*
X61919Y-40608D01*
X61919Y-41851D01*
X61859Y-41827D01*
X61783Y-41826D01*
X61712Y-41855D01*
X61659Y-41909D01*
X61630Y-41979D01*
X61629Y-42055D01*
X61658Y-42126D01*
X61712Y-42179D01*
X61782Y-42208D01*
X61858Y-42209D01*
X61929Y-42180D01*
X61982Y-42126D01*
X62011Y-42056D01*
X62012Y-41980D01*
X62012Y-47957D01*
X61965Y-47957D01*
X61837Y-48010D01*
X61837Y-43225D01*
X61813Y-43169D01*
X61771Y-43127D01*
X61715Y-43103D01*
X61654Y-43103D01*
X61599Y-43126D01*
X61556Y-43169D01*
X61533Y-43225D01*
X61533Y-43286D01*
X61556Y-43341D01*
X61598Y-43384D01*
X61654Y-43407D01*
X61715Y-43407D01*
X61771Y-43384D01*
X61813Y-43342D01*
X61837Y-43286D01*
X61837Y-43225D01*
X61837Y-48010D01*
X61821Y-48017D01*
X61710Y-48127D01*
X61651Y-48271D01*
X61650Y-48427D01*
X61710Y-48571D01*
X61820Y-48682D01*
X61964Y-48741D01*
X62120Y-48742D01*
X62264Y-48682D01*
X62375Y-48572D01*
X62434Y-48428D01*
X62435Y-48272D01*
X62435Y-49539D01*
X61620Y-49537D01*
X61620Y-44985D01*
X61600Y-44937D01*
X61563Y-44899D01*
X61514Y-44879D01*
X61462Y-44879D01*
X61413Y-44899D01*
X61376Y-44936D01*
X61356Y-44985D01*
X61356Y-45037D01*
X61376Y-45086D01*
X61413Y-45123D01*
X61461Y-45143D01*
X61514Y-45143D01*
X61562Y-45123D01*
X61600Y-45086D01*
X61620Y-45038D01*
X61620Y-44985D01*
X61620Y-49537D01*
X60435Y-49535D01*
X60435Y-48272D01*
X60375Y-48128D01*
X60265Y-48017D01*
X60121Y-47958D01*
X59965Y-47957D01*
X59821Y-48017D01*
X59710Y-48127D01*
X59651Y-48271D01*
X59650Y-48427D01*
X59710Y-48571D01*
X59820Y-48682D01*
X59964Y-48741D01*
X60120Y-48742D01*
X60264Y-48682D01*
X60375Y-48572D01*
X60434Y-48428D01*
X60435Y-48272D01*
X60435Y-49535D01*
X59435Y-49533D01*
X59435Y-48609D01*
X59435Y-48012D01*
X59420Y-47978D01*
X59394Y-47952D01*
X59360Y-47938D01*
X59322Y-47937D01*
X59167Y-47937D01*
X59167Y-46734D01*
X59138Y-46663D01*
X59084Y-46610D01*
X59014Y-46581D01*
X58938Y-46580D01*
X58867Y-46609D01*
X58814Y-46663D01*
X58785Y-46733D01*
X58784Y-46809D01*
X58813Y-46880D01*
X58867Y-46933D01*
X58937Y-46962D01*
X59013Y-46963D01*
X59084Y-46934D01*
X59137Y-46880D01*
X59166Y-46810D01*
X59167Y-46734D01*
X59167Y-47937D01*
X58725Y-47937D01*
X58691Y-47952D01*
X58665Y-47978D01*
X58651Y-48012D01*
X58650Y-48050D01*
X58650Y-48647D01*
X58665Y-48681D01*
X58691Y-48707D01*
X58725Y-48721D01*
X58763Y-48722D01*
X59360Y-48722D01*
X59394Y-48707D01*
X59420Y-48681D01*
X59434Y-48647D01*
X59435Y-48609D01*
X59435Y-49533D01*
X57857Y-49529D01*
X57780Y-49497D01*
X57672Y-49497D01*
X57595Y-49529D01*
X57421Y-49528D01*
X57346Y-49497D01*
X57238Y-49497D01*
X57163Y-49528D01*
X56986Y-49527D01*
X56968Y-49520D01*
X56968Y-49001D01*
X56908Y-48857D01*
X56798Y-48746D01*
X56654Y-48687D01*
X56498Y-48686D01*
X56354Y-48746D01*
X56243Y-48856D01*
X56184Y-49000D01*
X56183Y-49156D01*
X56243Y-49300D01*
X56353Y-49411D01*
X56497Y-49470D01*
X56653Y-49471D01*
X56797Y-49411D01*
X56908Y-49301D01*
X56967Y-49157D01*
X56968Y-49001D01*
X56968Y-49520D01*
X56913Y-49497D01*
X56805Y-49497D01*
X56732Y-49527D01*
X56551Y-49527D01*
X56480Y-49497D01*
X56372Y-49497D01*
X56302Y-49526D01*
X53093Y-49519D01*
X53093Y-49159D01*
X53091Y-49154D01*
X53091Y-48764D01*
X53091Y-48372D01*
X53091Y-47977D01*
X53091Y-47584D01*
X53062Y-47513D01*
X53008Y-47460D01*
X52970Y-47444D01*
X53008Y-47429D01*
X53061Y-47375D01*
X53090Y-47305D01*
X53091Y-47229D01*
X53062Y-47158D01*
X53008Y-47105D01*
X53002Y-47102D01*
X53002Y-44954D01*
X52973Y-44883D01*
X52919Y-44830D01*
X52849Y-44801D01*
X52773Y-44800D01*
X52702Y-44829D01*
X52649Y-44883D01*
X52620Y-44953D01*
X52619Y-45029D01*
X52648Y-45100D01*
X52702Y-45153D01*
X52772Y-45182D01*
X52848Y-45183D01*
X52919Y-45154D01*
X52972Y-45100D01*
X53001Y-45030D01*
X53002Y-44954D01*
X53002Y-47102D01*
X52973Y-47090D01*
X52973Y-45652D01*
X52944Y-45581D01*
X52894Y-45532D01*
X52943Y-45483D01*
X52972Y-45413D01*
X52973Y-45337D01*
X52944Y-45266D01*
X52890Y-45213D01*
X52820Y-45184D01*
X52744Y-45183D01*
X52673Y-45212D01*
X52620Y-45266D01*
X52591Y-45336D01*
X52590Y-45412D01*
X52619Y-45483D01*
X52669Y-45532D01*
X52620Y-45581D01*
X52591Y-45651D01*
X52590Y-45727D01*
X52594Y-45736D01*
X52546Y-45735D01*
X52475Y-45764D01*
X52422Y-45818D01*
X52393Y-45888D01*
X52392Y-45964D01*
X52421Y-46035D01*
X52475Y-46088D01*
X52545Y-46117D01*
X52621Y-46118D01*
X52692Y-46089D01*
X52745Y-46035D01*
X52774Y-45965D01*
X52775Y-45889D01*
X52771Y-45880D01*
X52819Y-45881D01*
X52890Y-45852D01*
X52943Y-45798D01*
X52972Y-45728D01*
X52973Y-45652D01*
X52973Y-47090D01*
X52938Y-47076D01*
X52862Y-47075D01*
X52791Y-47104D01*
X52738Y-47158D01*
X52709Y-47228D01*
X52708Y-47304D01*
X52737Y-47375D01*
X52791Y-47428D01*
X52829Y-47444D01*
X52791Y-47459D01*
X52738Y-47513D01*
X52709Y-47583D01*
X52708Y-47659D01*
X52737Y-47730D01*
X52791Y-47783D01*
X52861Y-47812D01*
X52937Y-47813D01*
X53008Y-47784D01*
X53061Y-47730D01*
X53090Y-47660D01*
X53091Y-47584D01*
X53091Y-47977D01*
X53062Y-47906D01*
X53008Y-47853D01*
X52938Y-47824D01*
X52862Y-47823D01*
X52791Y-47852D01*
X52738Y-47906D01*
X52709Y-47976D01*
X52708Y-48052D01*
X52737Y-48123D01*
X52791Y-48176D01*
X52861Y-48205D01*
X52937Y-48206D01*
X53008Y-48177D01*
X53061Y-48123D01*
X53090Y-48053D01*
X53091Y-47977D01*
X53091Y-48372D01*
X53062Y-48301D01*
X53008Y-48248D01*
X52938Y-48219D01*
X52862Y-48218D01*
X52791Y-48247D01*
X52738Y-48301D01*
X52709Y-48371D01*
X52708Y-48447D01*
X52737Y-48518D01*
X52791Y-48571D01*
X52861Y-48600D01*
X52937Y-48601D01*
X53008Y-48572D01*
X53061Y-48518D01*
X53090Y-48448D01*
X53091Y-48372D01*
X53091Y-48764D01*
X53062Y-48693D01*
X53008Y-48640D01*
X52938Y-48611D01*
X52862Y-48610D01*
X52791Y-48639D01*
X52738Y-48693D01*
X52709Y-48763D01*
X52708Y-48839D01*
X52737Y-48910D01*
X52791Y-48963D01*
X52861Y-48992D01*
X52937Y-48993D01*
X53008Y-48964D01*
X53061Y-48910D01*
X53090Y-48840D01*
X53091Y-48764D01*
X53091Y-49154D01*
X53064Y-49088D01*
X53010Y-49035D01*
X52940Y-49006D01*
X52864Y-49005D01*
X52793Y-49034D01*
X52740Y-49088D01*
X52711Y-49158D01*
X52710Y-49234D01*
X52739Y-49305D01*
X52793Y-49358D01*
X52863Y-49387D01*
X52939Y-49388D01*
X53010Y-49359D01*
X53063Y-49305D01*
X53092Y-49235D01*
X53093Y-49159D01*
X53093Y-49519D01*
X52698Y-49518D01*
X52698Y-49159D01*
X52698Y-47229D01*
X52669Y-47158D01*
X52615Y-47105D01*
X52545Y-47076D01*
X52469Y-47075D01*
X52398Y-47104D01*
X52381Y-47122D01*
X52381Y-45889D01*
X52352Y-45818D01*
X52298Y-45765D01*
X52228Y-45736D01*
X52181Y-45735D01*
X52184Y-45728D01*
X52185Y-45652D01*
X52156Y-45581D01*
X52106Y-45532D01*
X52155Y-45483D01*
X52184Y-45413D01*
X52185Y-45337D01*
X52156Y-45266D01*
X52102Y-45213D01*
X52032Y-45184D01*
X51956Y-45183D01*
X51885Y-45212D01*
X51832Y-45266D01*
X51803Y-45336D01*
X51802Y-45412D01*
X51831Y-45483D01*
X51881Y-45532D01*
X51832Y-45581D01*
X51803Y-45651D01*
X51802Y-45727D01*
X51831Y-45798D01*
X51885Y-45851D01*
X51955Y-45880D01*
X52002Y-45881D01*
X51999Y-45888D01*
X51998Y-45964D01*
X52027Y-46035D01*
X52081Y-46088D01*
X52151Y-46117D01*
X52227Y-46118D01*
X52298Y-46089D01*
X52351Y-46035D01*
X52380Y-45965D01*
X52381Y-45889D01*
X52381Y-47122D01*
X52345Y-47158D01*
X52316Y-47228D01*
X52315Y-47304D01*
X52344Y-47375D01*
X52398Y-47428D01*
X52468Y-47457D01*
X52544Y-47458D01*
X52615Y-47429D01*
X52668Y-47375D01*
X52697Y-47305D01*
X52698Y-47229D01*
X52698Y-49159D01*
X52669Y-49088D01*
X52615Y-49035D01*
X52545Y-49006D01*
X52469Y-49005D01*
X52398Y-49034D01*
X52345Y-49088D01*
X52316Y-49158D01*
X52315Y-49234D01*
X52344Y-49305D01*
X52398Y-49358D01*
X52468Y-49387D01*
X52544Y-49388D01*
X52615Y-49359D01*
X52668Y-49305D01*
X52697Y-49235D01*
X52698Y-49159D01*
X52698Y-49518D01*
X52305Y-49517D01*
X52305Y-47229D01*
X52276Y-47158D01*
X52222Y-47105D01*
X52152Y-47076D01*
X52076Y-47075D01*
X52005Y-47104D01*
X51952Y-47158D01*
X51923Y-47228D01*
X51922Y-47304D01*
X51951Y-47375D01*
X52005Y-47428D01*
X52075Y-47457D01*
X52151Y-47458D01*
X52222Y-47429D01*
X52275Y-47375D01*
X52304Y-47305D01*
X52305Y-47229D01*
X52305Y-49517D01*
X52303Y-49517D01*
X52303Y-49157D01*
X52274Y-49086D01*
X52220Y-49033D01*
X52150Y-49004D01*
X52074Y-49003D01*
X52003Y-49032D01*
X51950Y-49086D01*
X51921Y-49156D01*
X51920Y-49232D01*
X51949Y-49303D01*
X52003Y-49356D01*
X52073Y-49385D01*
X52149Y-49386D01*
X52220Y-49357D01*
X52273Y-49303D01*
X52302Y-49233D01*
X52303Y-49157D01*
X52303Y-49517D01*
X51911Y-49517D01*
X51911Y-49159D01*
X51911Y-47229D01*
X51882Y-47158D01*
X51828Y-47105D01*
X51758Y-47076D01*
X51682Y-47075D01*
X51611Y-47104D01*
X51558Y-47158D01*
X51529Y-47228D01*
X51528Y-47304D01*
X51557Y-47375D01*
X51611Y-47428D01*
X51681Y-47457D01*
X51757Y-47458D01*
X51828Y-47429D01*
X51881Y-47375D01*
X51910Y-47305D01*
X51911Y-47229D01*
X51911Y-49159D01*
X51882Y-49088D01*
X51828Y-49035D01*
X51758Y-49006D01*
X51682Y-49005D01*
X51611Y-49034D01*
X51558Y-49088D01*
X51529Y-49158D01*
X51528Y-49234D01*
X51557Y-49305D01*
X51611Y-49358D01*
X51681Y-49387D01*
X51757Y-49388D01*
X51828Y-49359D01*
X51881Y-49305D01*
X51910Y-49235D01*
X51911Y-49159D01*
X51911Y-49517D01*
X51516Y-49516D01*
X51516Y-49159D01*
X51516Y-48764D01*
X51516Y-48372D01*
X51516Y-47977D01*
X51516Y-47584D01*
X51487Y-47513D01*
X51433Y-47460D01*
X51395Y-47444D01*
X51433Y-47429D01*
X51486Y-47375D01*
X51515Y-47305D01*
X51516Y-47229D01*
X51487Y-47158D01*
X51433Y-47105D01*
X51363Y-47076D01*
X51360Y-47076D01*
X51360Y-45025D01*
X51331Y-44954D01*
X51321Y-44945D01*
X51330Y-44935D01*
X51359Y-44865D01*
X51360Y-44789D01*
X51331Y-44718D01*
X51277Y-44665D01*
X51207Y-44636D01*
X51131Y-44635D01*
X51060Y-44664D01*
X51007Y-44718D01*
X50978Y-44788D01*
X50977Y-44864D01*
X51006Y-44935D01*
X51016Y-44944D01*
X51007Y-44954D01*
X50978Y-45024D01*
X50977Y-45100D01*
X51006Y-45171D01*
X51060Y-45224D01*
X51130Y-45253D01*
X51206Y-45254D01*
X51277Y-45225D01*
X51330Y-45171D01*
X51359Y-45101D01*
X51360Y-45025D01*
X51360Y-47076D01*
X51287Y-47075D01*
X51216Y-47104D01*
X51163Y-47158D01*
X51134Y-47228D01*
X51133Y-47304D01*
X51162Y-47375D01*
X51216Y-47428D01*
X51254Y-47444D01*
X51216Y-47459D01*
X51163Y-47513D01*
X51134Y-47583D01*
X51133Y-47659D01*
X51162Y-47730D01*
X51216Y-47783D01*
X51286Y-47812D01*
X51362Y-47813D01*
X51433Y-47784D01*
X51486Y-47730D01*
X51515Y-47660D01*
X51516Y-47584D01*
X51516Y-47977D01*
X51487Y-47906D01*
X51433Y-47853D01*
X51363Y-47824D01*
X51287Y-47823D01*
X51216Y-47852D01*
X51163Y-47906D01*
X51134Y-47976D01*
X51133Y-48052D01*
X51162Y-48123D01*
X51216Y-48176D01*
X51286Y-48205D01*
X51362Y-48206D01*
X51433Y-48177D01*
X51486Y-48123D01*
X51515Y-48053D01*
X51516Y-47977D01*
X51516Y-48372D01*
X51487Y-48301D01*
X51433Y-48248D01*
X51363Y-48219D01*
X51287Y-48218D01*
X51216Y-48247D01*
X51163Y-48301D01*
X51134Y-48371D01*
X51133Y-48447D01*
X51162Y-48518D01*
X51216Y-48571D01*
X51286Y-48600D01*
X51362Y-48601D01*
X51433Y-48572D01*
X51486Y-48518D01*
X51515Y-48448D01*
X51516Y-48372D01*
X51516Y-48764D01*
X51487Y-48693D01*
X51433Y-48640D01*
X51363Y-48611D01*
X51287Y-48610D01*
X51216Y-48639D01*
X51163Y-48693D01*
X51134Y-48763D01*
X51133Y-48839D01*
X51162Y-48910D01*
X51216Y-48963D01*
X51286Y-48992D01*
X51362Y-48993D01*
X51433Y-48964D01*
X51486Y-48910D01*
X51515Y-48840D01*
X51516Y-48764D01*
X51516Y-49159D01*
X51487Y-49088D01*
X51433Y-49035D01*
X51363Y-49006D01*
X51287Y-49005D01*
X51216Y-49034D01*
X51163Y-49088D01*
X51134Y-49158D01*
X51133Y-49234D01*
X51162Y-49305D01*
X51216Y-49358D01*
X51286Y-49387D01*
X51362Y-49388D01*
X51433Y-49359D01*
X51486Y-49305D01*
X51515Y-49235D01*
X51516Y-49159D01*
X51516Y-49516D01*
X49052Y-49510D01*
X49052Y-45049D01*
X49023Y-44978D01*
X48969Y-44925D01*
X48899Y-44896D01*
X48823Y-44895D01*
X48752Y-44924D01*
X48703Y-44974D01*
X48654Y-44925D01*
X48584Y-44896D01*
X48508Y-44895D01*
X48437Y-44924D01*
X48388Y-44974D01*
X48339Y-44925D01*
X48269Y-44896D01*
X48193Y-44895D01*
X48122Y-44924D01*
X48069Y-44978D01*
X48040Y-45048D01*
X48039Y-45124D01*
X48068Y-45195D01*
X48122Y-45248D01*
X48192Y-45277D01*
X48268Y-45278D01*
X48339Y-45249D01*
X48388Y-45199D01*
X48437Y-45248D01*
X48507Y-45277D01*
X48583Y-45278D01*
X48654Y-45249D01*
X48703Y-45199D01*
X48752Y-45248D01*
X48822Y-45277D01*
X48898Y-45278D01*
X48969Y-45249D01*
X49022Y-45195D01*
X49051Y-45125D01*
X49052Y-45049D01*
X49052Y-49510D01*
X47972Y-49508D01*
X47972Y-44444D01*
X47995Y-44389D01*
X47995Y-44281D01*
X47972Y-44225D01*
X47972Y-44011D01*
X47995Y-43956D01*
X47995Y-43848D01*
X47972Y-43792D01*
X47972Y-43578D01*
X47995Y-43523D01*
X47995Y-43415D01*
X47972Y-43359D01*
X47972Y-41282D01*
X47977Y-41287D01*
X48040Y-41313D01*
X48109Y-41314D01*
X48172Y-41287D01*
X48205Y-41255D01*
X50626Y-41255D01*
X51525Y-42153D01*
X51525Y-42224D01*
X51518Y-42231D01*
X51511Y-42224D01*
X51511Y-42189D01*
X51510Y-42188D01*
X51511Y-42188D01*
X51502Y-42145D01*
X51477Y-42109D01*
X51477Y-42109D01*
X51020Y-41652D01*
X50984Y-41627D01*
X50941Y-41619D01*
X48327Y-41619D01*
X48294Y-41586D01*
X48231Y-41560D01*
X48162Y-41559D01*
X48099Y-41586D01*
X48051Y-41634D01*
X48025Y-41697D01*
X48024Y-41766D01*
X48051Y-41829D01*
X48099Y-41877D01*
X48162Y-41903D01*
X48231Y-41904D01*
X48294Y-41877D01*
X48327Y-41845D01*
X50894Y-41845D01*
X51279Y-42230D01*
X51252Y-42257D01*
X51226Y-42320D01*
X51226Y-42325D01*
X50950Y-42050D01*
X50914Y-42025D01*
X50871Y-42017D01*
X48311Y-42017D01*
X48278Y-41984D01*
X48215Y-41958D01*
X48146Y-41957D01*
X48083Y-41984D01*
X48035Y-42032D01*
X48009Y-42095D01*
X48008Y-42164D01*
X48034Y-42226D01*
X48027Y-42233D01*
X48001Y-42296D01*
X48000Y-42365D01*
X48027Y-42428D01*
X48075Y-42476D01*
X48138Y-42502D01*
X48207Y-42503D01*
X48270Y-42476D01*
X48303Y-42444D01*
X50839Y-42444D01*
X51117Y-42721D01*
X51117Y-42721D01*
X51153Y-42746D01*
X51196Y-42755D01*
X51196Y-42754D01*
X51197Y-42755D01*
X52004Y-42755D01*
X52047Y-42746D01*
X52083Y-42721D01*
X52197Y-42607D01*
X52197Y-42607D01*
X52197Y-42607D01*
X52222Y-42571D01*
X52231Y-42528D01*
X52231Y-42484D01*
X52237Y-42478D01*
X52237Y-42708D01*
X52245Y-42751D01*
X52270Y-42787D01*
X52287Y-42805D01*
X49695Y-42805D01*
X49662Y-42772D01*
X49635Y-42760D01*
X49680Y-42715D01*
X49706Y-42652D01*
X49707Y-42583D01*
X49680Y-42520D01*
X49632Y-42472D01*
X49569Y-42446D01*
X49500Y-42445D01*
X49437Y-42472D01*
X49389Y-42520D01*
X49363Y-42583D01*
X49363Y-42612D01*
X48284Y-42612D01*
X48251Y-42579D01*
X48188Y-42553D01*
X48119Y-42552D01*
X48056Y-42579D01*
X48008Y-42627D01*
X47982Y-42690D01*
X47981Y-42759D01*
X48008Y-42822D01*
X48056Y-42870D01*
X48119Y-42896D01*
X48188Y-42897D01*
X48251Y-42870D01*
X48284Y-42838D01*
X49411Y-42838D01*
X49393Y-42883D01*
X49392Y-42952D01*
X49419Y-43015D01*
X49467Y-43063D01*
X49530Y-43089D01*
X49599Y-43090D01*
X49662Y-43063D01*
X49695Y-43031D01*
X52595Y-43031D01*
X52807Y-43243D01*
X52782Y-43233D01*
X52706Y-43232D01*
X52635Y-43261D01*
X52582Y-43315D01*
X52566Y-43353D01*
X52551Y-43315D01*
X52497Y-43262D01*
X52427Y-43233D01*
X52351Y-43232D01*
X52280Y-43261D01*
X52227Y-43315D01*
X52198Y-43385D01*
X52197Y-43429D01*
X52194Y-43429D01*
X52123Y-43458D01*
X52070Y-43512D01*
X52041Y-43582D01*
X52040Y-43658D01*
X52069Y-43729D01*
X52123Y-43782D01*
X52193Y-43811D01*
X52269Y-43812D01*
X52340Y-43783D01*
X52393Y-43729D01*
X52409Y-43692D01*
X52423Y-43729D01*
X52477Y-43782D01*
X52547Y-43811D01*
X52623Y-43812D01*
X52694Y-43783D01*
X52747Y-43729D01*
X52763Y-43691D01*
X52778Y-43728D01*
X52832Y-43781D01*
X52902Y-43810D01*
X52978Y-43811D01*
X53049Y-43782D01*
X53088Y-43743D01*
X53088Y-44843D01*
X53096Y-44886D01*
X53121Y-44922D01*
X53819Y-45620D01*
X53819Y-45620D01*
X53855Y-45645D01*
X53899Y-45654D01*
X60588Y-45654D01*
X60632Y-45645D01*
X60668Y-45620D01*
X61540Y-44748D01*
X61586Y-44730D01*
X61623Y-44692D01*
X61643Y-44644D01*
X61643Y-44591D01*
X61623Y-44543D01*
X61586Y-44506D01*
X61538Y-44486D01*
X61485Y-44486D01*
X61437Y-44506D01*
X61399Y-44543D01*
X61380Y-44589D01*
X60706Y-45264D01*
X60706Y-31756D01*
X60646Y-31612D01*
X60536Y-31501D01*
X60392Y-31442D01*
X60236Y-31441D01*
X60092Y-31501D01*
X59981Y-31611D01*
X59922Y-31755D01*
X59921Y-31911D01*
X59981Y-32055D01*
X60091Y-32166D01*
X60235Y-32225D01*
X60391Y-32226D01*
X60535Y-32166D01*
X60646Y-32056D01*
X60705Y-31912D01*
X60706Y-31756D01*
X60706Y-45264D01*
X60645Y-45325D01*
X60645Y-40965D01*
X60618Y-40902D01*
X60570Y-40854D01*
X60507Y-40828D01*
X60438Y-40827D01*
X60375Y-40854D01*
X60327Y-40902D01*
X60301Y-40965D01*
X60300Y-41034D01*
X60327Y-41097D01*
X60375Y-41145D01*
X60438Y-41171D01*
X60507Y-41172D01*
X60570Y-41145D01*
X60618Y-41097D01*
X60644Y-41034D01*
X60645Y-40965D01*
X60645Y-45325D01*
X60542Y-45428D01*
X58912Y-45428D01*
X58912Y-41934D01*
X58885Y-41871D01*
X58837Y-41823D01*
X58774Y-41797D01*
X58705Y-41796D01*
X58642Y-41823D01*
X58636Y-41829D01*
X58633Y-41827D01*
X58597Y-41812D01*
X58597Y-41306D01*
X58572Y-41247D01*
X58527Y-41201D01*
X58467Y-41176D01*
X58402Y-41176D01*
X58343Y-41201D01*
X58336Y-41207D01*
X58330Y-41201D01*
X58270Y-41176D01*
X58205Y-41176D01*
X58146Y-41201D01*
X58100Y-41246D01*
X58075Y-41306D01*
X58075Y-41371D01*
X58100Y-41430D01*
X58145Y-41476D01*
X58205Y-41501D01*
X58270Y-41501D01*
X58329Y-41476D01*
X58336Y-41470D01*
X58342Y-41476D01*
X58402Y-41501D01*
X58467Y-41501D01*
X58526Y-41476D01*
X58572Y-41431D01*
X58597Y-41371D01*
X58597Y-41306D01*
X58597Y-41812D01*
X58570Y-41801D01*
X58501Y-41800D01*
X58438Y-41827D01*
X58390Y-41875D01*
X58364Y-41938D01*
X58363Y-42007D01*
X58390Y-42070D01*
X58438Y-42118D01*
X58501Y-42144D01*
X58570Y-42145D01*
X58633Y-42118D01*
X58639Y-42112D01*
X58642Y-42114D01*
X58705Y-42140D01*
X58774Y-42141D01*
X58837Y-42114D01*
X58885Y-42066D01*
X58911Y-42003D01*
X58912Y-41934D01*
X58912Y-45428D01*
X58455Y-45428D01*
X58455Y-43108D01*
X58426Y-43037D01*
X58372Y-42984D01*
X58302Y-42955D01*
X58226Y-42954D01*
X58155Y-42983D01*
X58102Y-43037D01*
X58073Y-43107D01*
X58072Y-43183D01*
X58101Y-43254D01*
X58155Y-43307D01*
X58225Y-43336D01*
X58301Y-43337D01*
X58372Y-43308D01*
X58425Y-43254D01*
X58454Y-43184D01*
X58455Y-43108D01*
X58455Y-45428D01*
X57947Y-45428D01*
X57947Y-43411D01*
X57918Y-43340D01*
X57864Y-43287D01*
X57794Y-43258D01*
X57718Y-43257D01*
X57647Y-43286D01*
X57594Y-43340D01*
X57565Y-43410D01*
X57564Y-43486D01*
X57593Y-43557D01*
X57647Y-43610D01*
X57717Y-43639D01*
X57793Y-43640D01*
X57864Y-43611D01*
X57917Y-43557D01*
X57946Y-43487D01*
X57947Y-43411D01*
X57947Y-45428D01*
X57121Y-45428D01*
X57121Y-42583D01*
X57094Y-42520D01*
X57046Y-42472D01*
X56983Y-42446D01*
X56914Y-42445D01*
X56851Y-42472D01*
X56803Y-42520D01*
X56777Y-42583D01*
X56776Y-42652D01*
X56803Y-42715D01*
X56851Y-42763D01*
X56914Y-42789D01*
X56983Y-42790D01*
X57046Y-42763D01*
X57094Y-42715D01*
X57120Y-42652D01*
X57121Y-42583D01*
X57121Y-45428D01*
X56974Y-45428D01*
X56974Y-43135D01*
X56945Y-43064D01*
X56891Y-43011D01*
X56821Y-42982D01*
X56745Y-42981D01*
X56674Y-43010D01*
X56621Y-43064D01*
X56592Y-43134D01*
X56591Y-43210D01*
X56620Y-43281D01*
X56674Y-43334D01*
X56744Y-43363D01*
X56820Y-43364D01*
X56891Y-43335D01*
X56944Y-43281D01*
X56973Y-43211D01*
X56974Y-43135D01*
X56974Y-45428D01*
X55150Y-45428D01*
X55167Y-45411D01*
X55167Y-45411D01*
X55167Y-45411D01*
X55193Y-45384D01*
X55208Y-45349D01*
X55208Y-45349D01*
X55208Y-45349D01*
X55222Y-45314D01*
X55222Y-45276D01*
X55223Y-45276D01*
X55223Y-45275D01*
X55223Y-45238D01*
X55223Y-45238D01*
X55223Y-45197D01*
X55222Y-45196D01*
X55223Y-45196D01*
X55220Y-45182D01*
X55219Y-45179D01*
X55254Y-45179D01*
X55325Y-45150D01*
X55378Y-45096D01*
X55407Y-45026D01*
X55408Y-44950D01*
X55379Y-44879D01*
X55325Y-44826D01*
X55286Y-44810D01*
X55883Y-44214D01*
X55924Y-44152D01*
X55938Y-44080D01*
X55939Y-44083D01*
X55993Y-44136D01*
X56063Y-44165D01*
X56139Y-44166D01*
X56210Y-44137D01*
X56240Y-44107D01*
X56269Y-44136D01*
X56339Y-44165D01*
X56415Y-44166D01*
X56486Y-44137D01*
X56539Y-44083D01*
X56568Y-44013D01*
X56569Y-43937D01*
X56540Y-43866D01*
X56486Y-43813D01*
X56432Y-43790D01*
X56432Y-42918D01*
X56405Y-42855D01*
X56357Y-42807D01*
X56294Y-42781D01*
X56225Y-42780D01*
X56162Y-42807D01*
X56114Y-42855D01*
X56088Y-42918D01*
X56087Y-42987D01*
X56114Y-43050D01*
X56162Y-43098D01*
X56225Y-43124D01*
X56294Y-43125D01*
X56357Y-43098D01*
X56405Y-43050D01*
X56431Y-42987D01*
X56432Y-42918D01*
X56432Y-43790D01*
X56416Y-43784D01*
X56340Y-43783D01*
X56269Y-43812D01*
X56239Y-43842D01*
X56210Y-43813D01*
X56140Y-43784D01*
X56064Y-43783D01*
X55993Y-43812D01*
X55940Y-43866D01*
X55939Y-43869D01*
X55939Y-43512D01*
X55938Y-43511D01*
X55939Y-43474D01*
X55924Y-43438D01*
X55924Y-43438D01*
X55924Y-43438D01*
X55910Y-43403D01*
X55883Y-43376D01*
X55883Y-43376D01*
X55883Y-43376D01*
X55856Y-43350D01*
X55821Y-43335D01*
X55821Y-43335D01*
X55821Y-43335D01*
X55786Y-43321D01*
X55748Y-43321D01*
X55747Y-43321D01*
X55710Y-43320D01*
X55674Y-43335D01*
X55674Y-43335D01*
X55674Y-43335D01*
X55639Y-43349D01*
X55612Y-43376D01*
X55612Y-43376D01*
X55612Y-43376D01*
X55586Y-43403D01*
X55571Y-43438D01*
X55571Y-43438D01*
X55571Y-43438D01*
X55557Y-43473D01*
X55557Y-43511D01*
X55557Y-43512D01*
X55557Y-43512D01*
X55556Y-43549D01*
X55557Y-43549D01*
X55557Y-43999D01*
X54829Y-44726D01*
X54788Y-44788D01*
X54774Y-44862D01*
X54774Y-45130D01*
X54788Y-45203D01*
X54829Y-45265D01*
X54840Y-45276D01*
X54840Y-45313D01*
X54855Y-45349D01*
X54855Y-45349D01*
X54855Y-45349D01*
X54869Y-45384D01*
X54896Y-45411D01*
X54896Y-45411D01*
X54896Y-45411D01*
X54913Y-45428D01*
X53945Y-45428D01*
X53730Y-45212D01*
X53730Y-44159D01*
X53701Y-44088D01*
X53647Y-44035D01*
X53633Y-44029D01*
X53647Y-44024D01*
X53700Y-43970D01*
X53729Y-43900D01*
X53730Y-43824D01*
X53701Y-43753D01*
X53647Y-43700D01*
X53577Y-43671D01*
X53501Y-43670D01*
X53430Y-43699D01*
X53377Y-43753D01*
X53348Y-43823D01*
X53347Y-43899D01*
X53376Y-43970D01*
X53430Y-44023D01*
X53444Y-44029D01*
X53430Y-44034D01*
X53377Y-44088D01*
X53348Y-44158D01*
X53347Y-44234D01*
X53376Y-44305D01*
X53430Y-44358D01*
X53500Y-44387D01*
X53576Y-44388D01*
X53647Y-44359D01*
X53700Y-44305D01*
X53729Y-44235D01*
X53730Y-44159D01*
X53730Y-45212D01*
X53314Y-44796D01*
X53314Y-43477D01*
X53305Y-43436D01*
X54969Y-43436D01*
X55012Y-43427D01*
X55048Y-43402D01*
X55212Y-43238D01*
X55259Y-43239D01*
X55322Y-43212D01*
X55338Y-43196D01*
X55355Y-43212D01*
X55418Y-43238D01*
X55487Y-43239D01*
X55550Y-43212D01*
X55598Y-43164D01*
X55624Y-43101D01*
X55625Y-43032D01*
X55598Y-42969D01*
X55550Y-42921D01*
X55487Y-42895D01*
X55440Y-42894D01*
X55379Y-42833D01*
X55532Y-42833D01*
X55535Y-42834D01*
X55578Y-42825D01*
X55614Y-42800D01*
X55768Y-42646D01*
X55768Y-42646D01*
X55768Y-42646D01*
X55793Y-42610D01*
X55802Y-42567D01*
X55801Y-42567D01*
X55802Y-42567D01*
X55802Y-42255D01*
X56131Y-41926D01*
X56130Y-41971D01*
X56157Y-42034D01*
X56205Y-42082D01*
X56268Y-42108D01*
X56337Y-42109D01*
X56400Y-42082D01*
X56448Y-42034D01*
X56474Y-41971D01*
X56475Y-41902D01*
X56448Y-41839D01*
X56400Y-41791D01*
X56337Y-41765D01*
X56292Y-41764D01*
X56359Y-41697D01*
X56368Y-41684D01*
X56379Y-41671D01*
X56490Y-41467D01*
X56511Y-41458D01*
X56513Y-41655D01*
X56515Y-41664D01*
X56514Y-41674D01*
X56521Y-41695D01*
X56525Y-41713D01*
X56530Y-41720D01*
X56533Y-41730D01*
X56547Y-41746D01*
X56558Y-41762D01*
X56566Y-41767D01*
X56573Y-41775D01*
X56807Y-41952D01*
X56806Y-41971D01*
X56785Y-42024D01*
X56784Y-42093D01*
X56811Y-42156D01*
X56859Y-42204D01*
X56922Y-42230D01*
X56991Y-42231D01*
X57054Y-42204D01*
X57075Y-42184D01*
X57107Y-42216D01*
X57170Y-42242D01*
X57239Y-42243D01*
X57302Y-42216D01*
X57350Y-42168D01*
X57376Y-42105D01*
X57376Y-42086D01*
X57430Y-42108D01*
X57499Y-42109D01*
X57562Y-42082D01*
X57610Y-42034D01*
X57636Y-41971D01*
X57637Y-41902D01*
X57610Y-41839D01*
X57608Y-41836D01*
X57608Y-41836D01*
X57605Y-41823D01*
X57605Y-41823D01*
X57572Y-41774D01*
X57572Y-41774D01*
X57404Y-41606D01*
X57405Y-41398D01*
X57416Y-41371D01*
X57416Y-41306D01*
X57391Y-41247D01*
X57346Y-41201D01*
X57286Y-41176D01*
X57221Y-41176D01*
X57162Y-41201D01*
X57155Y-41207D01*
X57149Y-41201D01*
X57089Y-41176D01*
X57024Y-41176D01*
X56965Y-41201D01*
X56958Y-41207D01*
X56952Y-41201D01*
X56892Y-41176D01*
X56827Y-41176D01*
X56768Y-41201D01*
X56761Y-41207D01*
X56755Y-41201D01*
X56695Y-41176D01*
X56630Y-41176D01*
X56576Y-41198D01*
X56599Y-41144D01*
X56599Y-41079D01*
X56574Y-41020D01*
X56568Y-41013D01*
X56574Y-41007D01*
X56599Y-40947D01*
X56599Y-40882D01*
X56574Y-40823D01*
X56568Y-40817D01*
X56574Y-40811D01*
X56599Y-40751D01*
X56599Y-40686D01*
X56574Y-40627D01*
X56568Y-40620D01*
X56574Y-40614D01*
X56599Y-40554D01*
X56599Y-40489D01*
X56574Y-40430D01*
X56568Y-40423D01*
X56574Y-40417D01*
X56599Y-40357D01*
X56599Y-40292D01*
X56574Y-40233D01*
X56568Y-40226D01*
X56574Y-40220D01*
X56599Y-40160D01*
X56599Y-40095D01*
X56574Y-40036D01*
X56568Y-40029D01*
X56574Y-40023D01*
X56599Y-39963D01*
X56599Y-39898D01*
X56574Y-39839D01*
X56568Y-39832D01*
X56574Y-39826D01*
X56599Y-39766D01*
X56599Y-39701D01*
X56574Y-39642D01*
X56568Y-39635D01*
X56574Y-39629D01*
X56599Y-39569D01*
X56599Y-39504D01*
X56574Y-39445D01*
X56568Y-39439D01*
X56574Y-39433D01*
X56599Y-39373D01*
X56599Y-39308D01*
X56574Y-39249D01*
X56568Y-39242D01*
X56574Y-39236D01*
X56599Y-39176D01*
X56599Y-39111D01*
X56574Y-39052D01*
X56568Y-39045D01*
X56574Y-39039D01*
X56599Y-38979D01*
X56599Y-38914D01*
X56574Y-38855D01*
X56568Y-38848D01*
X56574Y-38842D01*
X56580Y-38848D01*
X56640Y-38873D01*
X56705Y-38873D01*
X56764Y-38848D01*
X56766Y-38846D01*
X56777Y-38857D01*
X56837Y-38882D01*
X56902Y-38882D01*
X56961Y-38857D01*
X56968Y-38851D01*
X56974Y-38857D01*
X57034Y-38882D01*
X57099Y-38882D01*
X57158Y-38857D01*
X57204Y-38812D01*
X57225Y-38763D01*
X57405Y-38963D01*
X57408Y-38966D01*
X57410Y-38967D01*
X57421Y-38975D01*
X57441Y-38990D01*
X57444Y-38991D01*
X57446Y-38992D01*
X57461Y-38995D01*
X57483Y-39001D01*
X57487Y-39000D01*
X57490Y-39001D01*
X58765Y-39001D01*
X58765Y-40167D01*
X58766Y-40174D01*
X58765Y-40181D01*
X58770Y-40195D01*
X58773Y-40210D01*
X58777Y-40216D01*
X58780Y-40223D01*
X58789Y-40234D01*
X58798Y-40246D01*
X58804Y-40251D01*
X58809Y-40256D01*
X58902Y-40327D01*
X58902Y-40357D01*
X58927Y-40416D01*
X58933Y-40423D01*
X58927Y-40429D01*
X58902Y-40489D01*
X58902Y-40554D01*
X58927Y-40613D01*
X58933Y-40620D01*
X58927Y-40626D01*
X58902Y-40686D01*
X58902Y-40751D01*
X58927Y-40810D01*
X58933Y-40816D01*
X58927Y-40822D01*
X58902Y-40882D01*
X58902Y-40947D01*
X58927Y-41006D01*
X58938Y-41018D01*
X58937Y-41019D01*
X58912Y-41079D01*
X58912Y-41144D01*
X58937Y-41203D01*
X58938Y-41205D01*
X58927Y-41216D01*
X58902Y-41276D01*
X58902Y-41341D01*
X58927Y-41400D01*
X58972Y-41446D01*
X59027Y-41469D01*
X59256Y-41634D01*
X59237Y-41634D01*
X59174Y-41661D01*
X59126Y-41709D01*
X59100Y-41772D01*
X59099Y-41841D01*
X59126Y-41904D01*
X59163Y-41941D01*
X59135Y-41969D01*
X59109Y-42032D01*
X59108Y-42101D01*
X59135Y-42164D01*
X59183Y-42212D01*
X59246Y-42238D01*
X59315Y-42239D01*
X59378Y-42212D01*
X59426Y-42164D01*
X59452Y-42101D01*
X59453Y-42032D01*
X59426Y-41969D01*
X59389Y-41932D01*
X59417Y-41904D01*
X59443Y-41841D01*
X59444Y-41772D01*
X59442Y-41770D01*
X59655Y-41923D01*
X59965Y-42593D01*
X59963Y-42599D01*
X59962Y-42675D01*
X59991Y-42746D01*
X60019Y-42773D01*
X59980Y-42812D01*
X59951Y-42882D01*
X59950Y-42958D01*
X59979Y-43029D01*
X60033Y-43082D01*
X60103Y-43111D01*
X60179Y-43112D01*
X60250Y-43083D01*
X60303Y-43029D01*
X60332Y-42959D01*
X60333Y-42883D01*
X60304Y-42812D01*
X60276Y-42785D01*
X60315Y-42746D01*
X60344Y-42676D01*
X60345Y-42600D01*
X60316Y-42529D01*
X60262Y-42476D01*
X60243Y-42468D01*
X59913Y-41759D01*
X59907Y-41750D01*
X59905Y-41743D01*
X59893Y-41731D01*
X59878Y-41711D01*
X59869Y-41705D01*
X59864Y-41700D01*
X59205Y-41222D01*
X59202Y-41217D01*
X59201Y-41215D01*
X59212Y-41204D01*
X59237Y-41144D01*
X59237Y-41079D01*
X59212Y-41020D01*
X59201Y-41008D01*
X59202Y-41007D01*
X59227Y-40947D01*
X59227Y-40882D01*
X59206Y-40831D01*
X59303Y-40831D01*
X59331Y-40825D01*
X59344Y-40823D01*
X59345Y-40822D01*
X59346Y-40822D01*
X59369Y-40806D01*
X59381Y-40799D01*
X59382Y-40798D01*
X59383Y-40797D01*
X59383Y-40797D01*
X59442Y-40740D01*
X59467Y-40704D01*
X59477Y-40661D01*
X59476Y-40658D01*
X59476Y-40511D01*
X59483Y-40516D01*
X59501Y-40528D01*
X59502Y-40528D01*
X59503Y-40529D01*
X59523Y-40533D01*
X59537Y-40536D01*
X59571Y-40570D01*
X59629Y-40594D01*
X59627Y-40607D01*
X59627Y-40609D01*
X59594Y-40642D01*
X59568Y-40705D01*
X59567Y-40774D01*
X59594Y-40837D01*
X59642Y-40885D01*
X59705Y-40911D01*
X59774Y-40912D01*
X59778Y-40910D01*
X59778Y-40910D01*
X59805Y-40973D01*
X59853Y-41021D01*
X59916Y-41047D01*
X59974Y-41048D01*
X59932Y-41065D01*
X59884Y-41113D01*
X59858Y-41176D01*
X59857Y-41245D01*
X59884Y-41308D01*
X59904Y-41328D01*
X59893Y-41339D01*
X59867Y-41402D01*
X59866Y-41471D01*
X59893Y-41534D01*
X59941Y-41582D01*
X60004Y-41608D01*
X60073Y-41609D01*
X60136Y-41582D01*
X60184Y-41534D01*
X60210Y-41471D01*
X60211Y-41402D01*
X60184Y-41339D01*
X60164Y-41319D01*
X60175Y-41308D01*
X60201Y-41245D01*
X60202Y-41176D01*
X60175Y-41113D01*
X60127Y-41065D01*
X60064Y-41039D01*
X60006Y-41038D01*
X60048Y-41021D01*
X60096Y-40973D01*
X60122Y-40910D01*
X60123Y-40863D01*
X60591Y-40394D01*
X60616Y-40358D01*
X60625Y-40315D01*
X60623Y-40308D01*
X60621Y-38756D01*
X60621Y-38755D01*
X60616Y-38734D01*
X60612Y-38712D01*
X60612Y-38712D01*
X60612Y-38712D01*
X60600Y-38694D01*
X60587Y-38676D01*
X59917Y-38006D01*
X59947Y-38006D01*
X60018Y-37977D01*
X60071Y-37923D01*
X60100Y-37853D01*
X60101Y-37777D01*
X60072Y-37706D01*
X60018Y-37653D01*
X59948Y-37624D01*
X59872Y-37623D01*
X59801Y-37652D01*
X59748Y-37706D01*
X59719Y-37776D01*
X59719Y-37807D01*
X59355Y-37444D01*
X59319Y-37419D01*
X59276Y-37411D01*
X58330Y-37411D01*
X56666Y-35747D01*
X57944Y-35747D01*
X57965Y-35750D01*
X58009Y-35742D01*
X58045Y-35717D01*
X58283Y-35475D01*
X60094Y-35478D01*
X60093Y-35516D01*
X60120Y-35579D01*
X60131Y-35590D01*
X60100Y-35621D01*
X60074Y-35684D01*
X60073Y-35753D01*
X60100Y-35816D01*
X60148Y-35864D01*
X60211Y-35890D01*
X60280Y-35891D01*
X60343Y-35864D01*
X60376Y-35832D01*
X60413Y-35832D01*
X60413Y-35831D01*
X60414Y-35831D01*
X60435Y-35827D01*
X60456Y-35823D01*
X60457Y-35822D01*
X60458Y-35822D01*
X60475Y-35810D01*
X60492Y-35798D01*
X60493Y-35798D01*
X60494Y-35797D01*
X60666Y-35619D01*
X60666Y-35618D01*
X60667Y-35618D01*
X60668Y-35617D01*
X60675Y-35605D01*
X60691Y-35582D01*
X60691Y-35580D01*
X60692Y-35580D01*
X60694Y-35565D01*
X60700Y-35539D01*
X60700Y-35430D01*
X60691Y-35386D01*
X60666Y-35350D01*
X60508Y-35192D01*
X60472Y-35167D01*
X60429Y-35159D01*
X60418Y-35161D01*
X60348Y-35161D01*
X60349Y-35095D01*
X60322Y-35032D01*
X60274Y-34984D01*
X60211Y-34958D01*
X60142Y-34957D01*
X60079Y-34984D01*
X60031Y-35032D01*
X60005Y-35095D01*
X60004Y-35161D01*
X59706Y-35161D01*
X59706Y-32093D01*
X59706Y-31496D01*
X59691Y-31462D01*
X59665Y-31436D01*
X59631Y-31422D01*
X59593Y-31421D01*
X58996Y-31421D01*
X58962Y-31436D01*
X58936Y-31462D01*
X58922Y-31496D01*
X58921Y-31534D01*
X58921Y-32131D01*
X58936Y-32165D01*
X58962Y-32191D01*
X58996Y-32205D01*
X59034Y-32206D01*
X59631Y-32206D01*
X59665Y-32191D01*
X59691Y-32165D01*
X59705Y-32131D01*
X59706Y-32093D01*
X59706Y-35161D01*
X58136Y-35161D01*
X58135Y-35160D01*
X58134Y-35161D01*
X58134Y-35161D01*
X58123Y-35163D01*
X58092Y-35168D01*
X58091Y-35169D01*
X58090Y-35169D01*
X58083Y-35174D01*
X58055Y-35192D01*
X57806Y-35434D01*
X54412Y-35434D01*
X54412Y-34403D01*
X54383Y-34332D01*
X54329Y-34279D01*
X54259Y-34250D01*
X54183Y-34249D01*
X54112Y-34278D01*
X54059Y-34332D01*
X54030Y-34402D01*
X54029Y-34478D01*
X54058Y-34549D01*
X54112Y-34602D01*
X54182Y-34631D01*
X54258Y-34632D01*
X54329Y-34603D01*
X54382Y-34549D01*
X54411Y-34479D01*
X54412Y-34403D01*
X54412Y-35434D01*
X54078Y-35434D01*
X54078Y-34808D01*
X54051Y-34745D01*
X54003Y-34697D01*
X53940Y-34671D01*
X53871Y-34670D01*
X53808Y-34697D01*
X53760Y-34745D01*
X53734Y-34808D01*
X53733Y-34877D01*
X53760Y-34940D01*
X53808Y-34988D01*
X53871Y-35014D01*
X53940Y-35015D01*
X54003Y-34988D01*
X54051Y-34940D01*
X54077Y-34877D01*
X54078Y-34808D01*
X54078Y-35434D01*
X53243Y-35434D01*
X53243Y-34827D01*
X53216Y-34764D01*
X53168Y-34716D01*
X53105Y-34690D01*
X53036Y-34689D01*
X52973Y-34716D01*
X52925Y-34764D01*
X52899Y-34827D01*
X52898Y-34896D01*
X52910Y-34923D01*
X52871Y-34922D01*
X52808Y-34949D01*
X52760Y-34997D01*
X52734Y-35060D01*
X52733Y-35129D01*
X52760Y-35192D01*
X52808Y-35240D01*
X52871Y-35266D01*
X52940Y-35267D01*
X53003Y-35240D01*
X53051Y-35192D01*
X53077Y-35129D01*
X53078Y-35060D01*
X53066Y-35033D01*
X53105Y-35034D01*
X53168Y-35007D01*
X53216Y-34959D01*
X53242Y-34896D01*
X53243Y-34827D01*
X53243Y-35434D01*
X52727Y-35434D01*
X52162Y-34869D01*
X52126Y-34844D01*
X52083Y-34836D01*
X51342Y-34836D01*
X51405Y-34773D01*
X52283Y-34769D01*
X52326Y-34760D01*
X52363Y-34735D01*
X52363Y-34735D01*
X54239Y-32859D01*
X57028Y-32859D01*
X57040Y-32856D01*
X57053Y-32856D01*
X57062Y-32852D01*
X57071Y-32850D01*
X57081Y-32843D01*
X57093Y-32837D01*
X58064Y-32145D01*
X58084Y-32166D01*
X58228Y-32225D01*
X58384Y-32226D01*
X58528Y-32166D01*
X58639Y-32056D01*
X58698Y-31912D01*
X58699Y-31756D01*
X58639Y-31612D01*
X58529Y-31501D01*
X58385Y-31442D01*
X58229Y-31441D01*
X58085Y-31501D01*
X57974Y-31611D01*
X57915Y-31755D01*
X57914Y-31911D01*
X57935Y-31960D01*
X56991Y-32633D01*
X56651Y-32633D01*
X57116Y-32179D01*
X57228Y-32225D01*
X57384Y-32226D01*
X57528Y-32166D01*
X57639Y-32056D01*
X57698Y-31912D01*
X57699Y-31756D01*
X57639Y-31612D01*
X57529Y-31501D01*
X57385Y-31442D01*
X57229Y-31441D01*
X57085Y-31501D01*
X56974Y-31611D01*
X56915Y-31755D01*
X56914Y-31911D01*
X56958Y-32017D01*
X56509Y-32456D01*
X55880Y-32456D01*
X56132Y-32186D01*
X56228Y-32225D01*
X56384Y-32226D01*
X56528Y-32166D01*
X56639Y-32056D01*
X56698Y-31912D01*
X56699Y-31756D01*
X56639Y-31612D01*
X56529Y-31501D01*
X56385Y-31442D01*
X56229Y-31441D01*
X56085Y-31501D01*
X55974Y-31611D01*
X55915Y-31755D01*
X55914Y-31911D01*
X55965Y-32033D01*
X55708Y-32308D01*
X54993Y-32308D01*
X55120Y-32180D01*
X55228Y-32225D01*
X55384Y-32226D01*
X55528Y-32166D01*
X55639Y-32056D01*
X55698Y-31912D01*
X55699Y-31756D01*
X55639Y-31612D01*
X55529Y-31501D01*
X55385Y-31442D01*
X55229Y-31441D01*
X55085Y-31501D01*
X54974Y-31611D01*
X54915Y-31755D01*
X54914Y-31911D01*
X54960Y-32021D01*
X54819Y-32163D01*
X54532Y-32163D01*
X54639Y-32056D01*
X54698Y-31912D01*
X54699Y-31756D01*
X54639Y-31612D01*
X54529Y-31501D01*
X54385Y-31442D01*
X54229Y-31441D01*
X54085Y-31501D01*
X53974Y-31611D01*
X53915Y-31755D01*
X53914Y-31911D01*
X53960Y-32021D01*
X52244Y-33737D01*
X52170Y-33737D01*
X52170Y-31643D01*
X52114Y-31506D01*
X52009Y-31402D01*
X51873Y-31345D01*
X51725Y-31345D01*
X51588Y-31401D01*
X51484Y-31506D01*
X51427Y-31642D01*
X51427Y-31790D01*
X51483Y-31927D01*
X51588Y-32031D01*
X51724Y-32088D01*
X51872Y-32088D01*
X52009Y-32032D01*
X52113Y-31927D01*
X52170Y-31791D01*
X52170Y-31643D01*
X52170Y-33737D01*
X51130Y-33737D01*
X51129Y-33737D01*
X51086Y-33745D01*
X51050Y-33770D01*
X51050Y-33770D01*
X50184Y-34636D01*
X50159Y-34672D01*
X50151Y-34716D01*
X50151Y-35685D01*
X49980Y-35856D01*
X49709Y-35856D01*
X49665Y-35864D01*
X49629Y-35889D01*
X49408Y-36110D01*
X49427Y-36062D01*
X49428Y-35993D01*
X49401Y-35930D01*
X49353Y-35882D01*
X49290Y-35856D01*
X49221Y-35855D01*
X49158Y-35882D01*
X49110Y-35930D01*
X49084Y-35993D01*
X49083Y-36062D01*
X49110Y-36125D01*
X49158Y-36173D01*
X49221Y-36199D01*
X49290Y-36200D01*
X49337Y-36180D01*
X49274Y-36244D01*
X49249Y-36280D01*
X49241Y-36324D01*
X49241Y-36877D01*
X49229Y-36866D01*
X49166Y-36840D01*
X49097Y-36839D01*
X49034Y-36866D01*
X48986Y-36914D01*
X48960Y-36977D01*
X48959Y-37046D01*
X48986Y-37109D01*
X49034Y-37157D01*
X49097Y-37183D01*
X49166Y-37184D01*
X49229Y-37157D01*
X49241Y-37146D01*
X49241Y-37271D01*
X49208Y-37304D01*
X49192Y-37343D01*
X48973Y-37125D01*
X48937Y-37100D01*
X48894Y-37092D01*
X48323Y-37092D01*
X48290Y-37059D01*
X48227Y-37033D01*
X48158Y-37032D01*
X48095Y-37059D01*
X48047Y-37107D01*
X48021Y-37170D01*
X48020Y-37239D01*
X48039Y-37284D01*
X48019Y-37304D01*
X47993Y-37367D01*
X47992Y-37436D01*
X48019Y-37499D01*
X48067Y-37547D01*
X48130Y-37573D01*
X48199Y-37574D01*
X48262Y-37547D01*
X48295Y-37515D01*
X48840Y-37515D01*
X49200Y-37874D01*
X49236Y-37899D01*
X49280Y-37908D01*
X51098Y-37908D01*
X51141Y-37899D01*
X51177Y-37874D01*
X51264Y-37787D01*
X51264Y-37787D01*
X51264Y-37787D01*
X51289Y-37751D01*
X51289Y-37751D01*
X51296Y-37715D01*
X51298Y-37708D01*
X51297Y-37708D01*
X51298Y-37708D01*
X51298Y-36863D01*
X51475Y-37040D01*
X51476Y-37041D01*
X51476Y-37042D01*
X51494Y-37053D01*
X51511Y-37065D01*
X51513Y-37065D01*
X51514Y-37066D01*
X51534Y-37069D01*
X51555Y-37074D01*
X51556Y-37073D01*
X51557Y-37073D01*
X51600Y-37072D01*
X51626Y-37098D01*
X51582Y-37142D01*
X51556Y-37205D01*
X51555Y-37274D01*
X51582Y-37337D01*
X51615Y-37370D01*
X51575Y-37410D01*
X51549Y-37473D01*
X51548Y-37542D01*
X51575Y-37605D01*
X51623Y-37653D01*
X51686Y-37679D01*
X51755Y-37680D01*
X51818Y-37653D01*
X51851Y-37621D01*
X52131Y-37621D01*
X52256Y-37745D01*
X52292Y-37770D01*
X52336Y-37779D01*
X52376Y-37779D01*
X52371Y-37792D01*
X52370Y-37861D01*
X52378Y-37879D01*
X51847Y-37879D01*
X51814Y-37846D01*
X51751Y-37820D01*
X51682Y-37819D01*
X51619Y-37846D01*
X51571Y-37894D01*
X51545Y-37957D01*
X51544Y-38026D01*
X51571Y-38089D01*
X51619Y-38137D01*
X51682Y-38163D01*
X51751Y-38164D01*
X51814Y-38137D01*
X51847Y-38105D01*
X52353Y-38105D01*
X52344Y-38127D01*
X52343Y-38174D01*
X52245Y-38273D01*
X48365Y-38273D01*
X48365Y-37949D01*
X48338Y-37886D01*
X48290Y-37838D01*
X48227Y-37812D01*
X48158Y-37811D01*
X48095Y-37838D01*
X48047Y-37886D01*
X48021Y-37949D01*
X48020Y-38018D01*
X48047Y-38081D01*
X48095Y-38129D01*
X48158Y-38155D01*
X48227Y-38156D01*
X48290Y-38129D01*
X48338Y-38081D01*
X48364Y-38018D01*
X48365Y-37949D01*
X48365Y-38273D01*
X48351Y-38273D01*
X48318Y-38240D01*
X48255Y-38214D01*
X48186Y-38213D01*
X48123Y-38240D01*
X48075Y-38288D01*
X48049Y-38351D01*
X48048Y-38420D01*
X48069Y-38470D01*
X48047Y-38493D01*
X48021Y-38556D01*
X48020Y-38620D01*
X47981Y-38637D01*
X47972Y-38646D01*
X47972Y-35605D01*
X47995Y-35550D01*
X47995Y-35442D01*
X47972Y-35386D01*
X47972Y-35172D01*
X47995Y-35117D01*
X47995Y-35009D01*
X47972Y-34953D01*
X47972Y-34739D01*
X47995Y-34684D01*
X47995Y-34576D01*
X47972Y-34520D01*
X47972Y-30688D01*
X56325Y-30688D01*
X56370Y-30707D01*
X56478Y-30707D01*
X56524Y-30688D01*
X56758Y-30688D01*
X56803Y-30707D01*
X56911Y-30707D01*
X56957Y-30688D01*
X57191Y-30688D01*
X57236Y-30707D01*
X57344Y-30707D01*
X57390Y-30688D01*
X57625Y-30688D01*
X57670Y-30707D01*
X57778Y-30707D01*
X57824Y-30688D01*
X66004Y-30688D01*
X66004Y-39500D01*
X65997Y-39516D01*
X65997Y-39624D01*
X66004Y-39641D01*
X66004Y-39933D01*
X65997Y-39949D01*
X65997Y-40057D01*
X66004Y-40074D01*
X66004Y-40366D01*
X65997Y-40382D01*
X65997Y-40490D01*
X66004Y-40507D01*
X66004Y-40799D01*
X65997Y-40815D01*
X65997Y-40923D01*
X66004Y-40940D01*
X66004Y-49547D01*
M02*
