G04 (created by PCBNEW (2013-05-31 BZR 4019)-stable) date 03/03/2014 21:16:58*
%MOIN*%
G04 Gerber Fmt 3.4, Leading zero omitted, Abs format*
%FSLAX34Y34*%
G01*
G70*
G90*
G04 APERTURE LIST*
%ADD10C,0.00590551*%
%ADD11C,0.0077*%
%ADD12C,0.0078*%
%ADD13C,0.0079*%
%ADD14C,0.0117*%
%ADD15C,0.0039*%
%ADD16C,0.00787402*%
%ADD17C,0.0097*%
%ADD18C,0.0059*%
%ADD19C,0.0069*%
%ADD20C,0.00785*%
G04 APERTURE END LIST*
G54D10*
G54D11*
X60335Y-43268D02*
X60335Y-42677D01*
X61575Y-43268D02*
X60335Y-43268D01*
X61575Y-42677D02*
X61575Y-43268D01*
X60334Y-42677D02*
X61574Y-42677D01*
X59843Y-37343D02*
X59843Y-36260D01*
X61142Y-37343D02*
X59843Y-37343D01*
X61142Y-36260D02*
X61142Y-37343D01*
X59842Y-36259D02*
X61142Y-36259D01*
X55413Y-37106D02*
X55433Y-37106D01*
X55412Y-37697D02*
X55412Y-37106D01*
X56634Y-37697D02*
X55413Y-37697D01*
X56634Y-37106D02*
X56634Y-37697D01*
X55413Y-37106D02*
X56634Y-37106D01*
X66126Y-37091D02*
X66126Y-37736D01*
X63813Y-37092D02*
X63813Y-37732D01*
X42606Y-52483D02*
X42606Y-27680D01*
X68983Y-52483D02*
X42606Y-52483D01*
X68983Y-27680D02*
X68983Y-52483D01*
X42606Y-27680D02*
X68983Y-27680D01*
X66228Y-30437D02*
X66228Y-39492D01*
X57764Y-30437D02*
X66228Y-30437D01*
X57764Y-29650D02*
X57764Y-30437D01*
X67016Y-29650D02*
X57764Y-29650D01*
X67016Y-39492D02*
X67016Y-29650D01*
X66228Y-39492D02*
X67016Y-39492D01*
X57764Y-50515D02*
X57764Y-49728D01*
X67016Y-50515D02*
X57764Y-50515D01*
X67016Y-40948D02*
X67016Y-50515D01*
X66228Y-40948D02*
X67016Y-40948D01*
X66228Y-49728D02*
X66228Y-40948D01*
X57764Y-49728D02*
X66228Y-49728D01*
X46936Y-50515D02*
X46936Y-44413D01*
X56386Y-50515D02*
X46936Y-50515D01*
X56386Y-49728D02*
X56386Y-50515D01*
X47724Y-49728D02*
X56386Y-49728D01*
X47724Y-44413D02*
X47724Y-49728D01*
X46936Y-44413D02*
X47724Y-44413D01*
X46936Y-43390D02*
X46936Y-35555D01*
X47724Y-43390D02*
X46936Y-43390D01*
X47724Y-35555D02*
X47724Y-43390D01*
X46936Y-35555D02*
X47724Y-35555D01*
X47724Y-30437D02*
X47724Y-34570D01*
X46936Y-34570D02*
X47724Y-34570D01*
X46936Y-29648D02*
X46936Y-34570D01*
X46936Y-29648D02*
X56384Y-29648D01*
X56384Y-29648D02*
X56384Y-30437D01*
X47724Y-30437D02*
X56384Y-30437D01*
G54D12*
X63815Y-37091D02*
X66125Y-37091D01*
G54D13*
X64018Y-42571D02*
X64242Y-42571D01*
X64130Y-42963D02*
X64130Y-42571D01*
X64336Y-42571D02*
X64597Y-42963D01*
X64597Y-42571D02*
X64336Y-42963D01*
X64690Y-42571D02*
X64914Y-42571D01*
X64802Y-42963D02*
X64802Y-42571D01*
X65045Y-42758D02*
X65176Y-42758D01*
X65232Y-42963D02*
X65045Y-42963D01*
X65045Y-42571D01*
X65232Y-42571D01*
X65381Y-42945D02*
X65437Y-42963D01*
X65530Y-42963D01*
X65568Y-42945D01*
X65586Y-42926D01*
X65605Y-42889D01*
X65605Y-42851D01*
X65586Y-42814D01*
X65568Y-42795D01*
X65530Y-42777D01*
X65456Y-42758D01*
X65418Y-42739D01*
X65400Y-42721D01*
X65381Y-42683D01*
X65381Y-42646D01*
X65400Y-42609D01*
X65418Y-42590D01*
X65456Y-42571D01*
X65549Y-42571D01*
X65605Y-42590D01*
X65717Y-42571D02*
X65941Y-42571D01*
X65829Y-42963D02*
X65829Y-42571D01*
G54D12*
X63850Y-43075D02*
X66162Y-43075D01*
G54D11*
X63849Y-42447D02*
X63849Y-43075D01*
G54D12*
X63850Y-42449D02*
X66162Y-42449D01*
G54D11*
X66165Y-42447D02*
X66165Y-43075D01*
G54D12*
X63815Y-37737D02*
X66125Y-37737D01*
G54D13*
X64217Y-37606D02*
X64086Y-37420D01*
X63993Y-37606D02*
X63993Y-37214D01*
X64142Y-37214D01*
X64179Y-37233D01*
X64198Y-37252D01*
X64217Y-37289D01*
X64217Y-37345D01*
X64198Y-37382D01*
X64179Y-37401D01*
X64142Y-37420D01*
X63993Y-37420D01*
X64347Y-37214D02*
X64609Y-37606D01*
X64609Y-37214D02*
X64347Y-37606D01*
X64702Y-37214D02*
X64926Y-37214D01*
X64814Y-37606D02*
X64814Y-37214D01*
X65057Y-37401D02*
X65187Y-37401D01*
X65243Y-37606D02*
X65057Y-37606D01*
X65057Y-37214D01*
X65243Y-37214D01*
X65393Y-37588D02*
X65449Y-37606D01*
X65542Y-37606D01*
X65579Y-37588D01*
X65598Y-37569D01*
X65617Y-37532D01*
X65617Y-37494D01*
X65598Y-37457D01*
X65579Y-37438D01*
X65542Y-37420D01*
X65467Y-37401D01*
X65430Y-37382D01*
X65411Y-37364D01*
X65393Y-37326D01*
X65393Y-37289D01*
X65411Y-37252D01*
X65430Y-37233D01*
X65467Y-37214D01*
X65561Y-37214D01*
X65617Y-37233D01*
X65729Y-37214D02*
X65953Y-37214D01*
X65841Y-37606D02*
X65841Y-37214D01*
G54D14*
X56336Y-47858D02*
X56728Y-47858D01*
X52020Y-43840D02*
X52020Y-44232D01*
X52020Y-44576D02*
X52020Y-44968D01*
G54D11*
X51523Y-35221D02*
X51367Y-35221D01*
X61685Y-36637D02*
X61685Y-36481D01*
X60383Y-41705D02*
X60539Y-41705D01*
X55377Y-38744D02*
X55221Y-38744D01*
X60905Y-41689D02*
X60749Y-41689D01*
X60540Y-38599D02*
X60696Y-38599D01*
X60342Y-38587D02*
X60186Y-38587D01*
X59587Y-37839D02*
X59743Y-37839D01*
X58701Y-42963D02*
X58897Y-42963D01*
X57923Y-36122D02*
X57727Y-36122D01*
X59745Y-42953D02*
X59941Y-42953D01*
X58630Y-35838D02*
X58630Y-35642D01*
X57272Y-36885D02*
X57272Y-36689D01*
X58374Y-36398D02*
X58570Y-36398D01*
X57264Y-35610D02*
X57264Y-35414D01*
X58787Y-37968D02*
X58787Y-37772D01*
X59350Y-36417D02*
X59154Y-36417D01*
X58126Y-42618D02*
X58126Y-42422D01*
X57293Y-42402D02*
X57293Y-42598D01*
X59862Y-44508D02*
X59862Y-44704D01*
X58878Y-44055D02*
X59074Y-44055D01*
X59862Y-43386D02*
X59862Y-43582D01*
X57067Y-38082D02*
X57067Y-37886D01*
X56398Y-36598D02*
X56398Y-36402D01*
X55720Y-36398D02*
X55720Y-36594D01*
X57874Y-38090D02*
X57874Y-37894D01*
X57293Y-47363D02*
X57293Y-47637D01*
X57303Y-48147D02*
X57303Y-48421D01*
X54327Y-45413D02*
X54327Y-45139D01*
X51332Y-43158D02*
X51606Y-43158D01*
X53272Y-44714D02*
X53272Y-44988D01*
X55000Y-44775D02*
X55000Y-44501D01*
X54205Y-43745D02*
X54205Y-44019D01*
X59193Y-35227D02*
X59193Y-35383D01*
X59504Y-44953D02*
X59504Y-45109D01*
X58799Y-44684D02*
X58799Y-44528D01*
X59771Y-44055D02*
X59615Y-44055D01*
X58799Y-43582D02*
X58799Y-43426D01*
X59202Y-42953D02*
X59046Y-42953D01*
X59566Y-42953D02*
X59410Y-42953D01*
X59307Y-42399D02*
X59307Y-42555D01*
X59499Y-36407D02*
X59655Y-36407D01*
X57646Y-45721D02*
X57646Y-45877D01*
X57799Y-34981D02*
X57799Y-35137D01*
X58082Y-43110D02*
X57926Y-43110D01*
X57539Y-43110D02*
X57383Y-43110D01*
X57844Y-42087D02*
X57844Y-42243D01*
X58934Y-37303D02*
X59090Y-37303D01*
X59425Y-35666D02*
X59425Y-35822D01*
X58721Y-36398D02*
X58877Y-36398D01*
X57363Y-36112D02*
X57519Y-36112D01*
X52153Y-36418D02*
X52153Y-36574D01*
X58002Y-35444D02*
X58002Y-35600D01*
X57993Y-37402D02*
X58149Y-37402D01*
X57599Y-37402D02*
X57755Y-37402D01*
X57182Y-37398D02*
X57338Y-37398D01*
X58002Y-36703D02*
X58002Y-36859D01*
X57941Y-34355D02*
X57941Y-34511D01*
X56796Y-37390D02*
X56952Y-37390D01*
X58469Y-37303D02*
X58625Y-37303D01*
X63952Y-35221D02*
X63952Y-35377D01*
X48454Y-36953D02*
X48610Y-36953D01*
X48610Y-37634D02*
X48454Y-37634D01*
X60441Y-38032D02*
X60441Y-38188D01*
X60445Y-39005D02*
X60445Y-39161D01*
X60441Y-39328D02*
X60441Y-39484D01*
X60650Y-40753D02*
X60650Y-40909D01*
X60638Y-42095D02*
X60638Y-42251D01*
X55106Y-39330D02*
X55106Y-39174D01*
X60658Y-41095D02*
X60658Y-41251D01*
X53688Y-46914D02*
X53923Y-46914D01*
X53923Y-46914D02*
X53923Y-49432D01*
X53688Y-49432D02*
X53923Y-49432D01*
X59162Y-47129D02*
X59162Y-46973D01*
G54D15*
X66736Y-43476D02*
X66736Y-46154D01*
X66736Y-46154D02*
X66263Y-46154D01*
X66263Y-43476D02*
X66735Y-43476D01*
X66720Y-33959D02*
X66720Y-36637D01*
X66720Y-36637D02*
X66247Y-36637D01*
X66247Y-33959D02*
X66719Y-33959D01*
G54D12*
X50935Y-30853D02*
X52663Y-30853D01*
X52663Y-30853D02*
X52663Y-32581D01*
X50935Y-32581D02*
X52663Y-32581D01*
X50935Y-30853D02*
X50935Y-32581D01*
X52815Y-31342D02*
X52815Y-32326D01*
X52815Y-31342D02*
X58799Y-31342D01*
X58799Y-31342D02*
X58799Y-32326D01*
X52815Y-32326D02*
X58799Y-32326D01*
X58106Y-49551D02*
X58106Y-48607D01*
X58106Y-49551D02*
X56072Y-49551D01*
X56072Y-49551D02*
X56072Y-48607D01*
X58106Y-48607D02*
X56072Y-48607D01*
X56808Y-45481D02*
X56870Y-45481D01*
X56870Y-43981D02*
X56808Y-43981D01*
X58540Y-43981D02*
X58462Y-43981D01*
X58540Y-43981D02*
X58540Y-45481D01*
X58540Y-45481D02*
X58462Y-45481D01*
X56808Y-43981D02*
X56808Y-45481D01*
G54D14*
X61829Y-34750D02*
X61829Y-34887D01*
X61829Y-34750D02*
X61692Y-34750D01*
X61692Y-36008D02*
X61829Y-36008D01*
X61829Y-36008D02*
X61829Y-35871D01*
X60571Y-35871D02*
X60571Y-36008D01*
X60708Y-36008D02*
X60571Y-36008D01*
X60708Y-34750D02*
X60571Y-34887D01*
X56936Y-34374D02*
X56874Y-34374D01*
X56874Y-35874D02*
X56936Y-35874D01*
X55202Y-35874D02*
X55280Y-35874D01*
X55202Y-35874D02*
X55202Y-34374D01*
X55202Y-34374D02*
X55280Y-34374D01*
X56936Y-35874D02*
X56936Y-34374D01*
G54D12*
X58822Y-31342D02*
X58822Y-32326D01*
X58822Y-31342D02*
X63782Y-31342D01*
X63782Y-31342D02*
X63782Y-32326D01*
X58822Y-32326D02*
X63782Y-32326D01*
X58551Y-47858D02*
X58551Y-48842D01*
X58551Y-47858D02*
X63511Y-47858D01*
X63511Y-47858D02*
X63511Y-48842D01*
X58551Y-48842D02*
X63511Y-48842D01*
G54D16*
X61870Y-45161D02*
G75*
G03X61870Y-45161I-39J0D01*
G74*
G01*
G54D14*
X61594Y-45129D02*
X61594Y-44224D01*
X61594Y-44224D02*
X62775Y-44224D01*
X62775Y-44224D02*
X62775Y-45405D01*
X62775Y-45405D02*
X61870Y-45405D01*
X61870Y-45405D02*
X61594Y-45129D01*
G54D11*
X64059Y-44736D02*
X64059Y-44892D01*
G54D12*
X56051Y-41580D02*
X56051Y-41742D01*
X56051Y-41742D02*
X56208Y-41742D01*
X59446Y-41739D02*
X59290Y-41739D01*
X59446Y-41577D02*
X59446Y-41739D01*
X59278Y-38330D02*
X59441Y-38330D01*
X59441Y-38330D02*
X59441Y-38487D01*
X56012Y-38502D02*
X56223Y-38291D01*
G54D17*
G54D15*
X56228Y-48022D02*
X56136Y-48075D01*
X56228Y-48112D02*
X56033Y-48112D01*
X56033Y-48052D01*
X56043Y-48037D01*
X56052Y-48030D01*
X56071Y-48022D01*
X56098Y-48022D01*
X56117Y-48030D01*
X56126Y-48037D01*
X56136Y-48052D01*
X56136Y-48112D01*
X56052Y-47962D02*
X56043Y-47955D01*
X56033Y-47940D01*
X56033Y-47903D01*
X56043Y-47888D01*
X56052Y-47880D01*
X56071Y-47873D01*
X56089Y-47873D01*
X56117Y-47880D01*
X56228Y-47970D01*
X56228Y-47873D01*
X56228Y-47723D02*
X56228Y-47813D01*
X56228Y-47768D02*
X56033Y-47768D01*
X56061Y-47783D01*
X56080Y-47798D01*
X56089Y-47813D01*
X56033Y-47581D02*
X56033Y-47656D01*
X56126Y-47663D01*
X56117Y-47656D01*
X56108Y-47641D01*
X56108Y-47604D01*
X56117Y-47589D01*
X56126Y-47581D01*
X56145Y-47574D01*
X56191Y-47574D01*
X56210Y-47581D01*
X56219Y-47589D01*
X56228Y-47604D01*
X56228Y-47641D01*
X56219Y-47656D01*
X56210Y-47663D01*
X51844Y-43728D02*
X51791Y-43636D01*
X51754Y-43728D02*
X51754Y-43533D01*
X51814Y-43533D01*
X51829Y-43543D01*
X51836Y-43552D01*
X51844Y-43571D01*
X51844Y-43598D01*
X51836Y-43617D01*
X51829Y-43626D01*
X51814Y-43636D01*
X51754Y-43636D01*
X51904Y-43552D02*
X51911Y-43543D01*
X51926Y-43533D01*
X51963Y-43533D01*
X51978Y-43543D01*
X51986Y-43552D01*
X51993Y-43571D01*
X51993Y-43589D01*
X51986Y-43617D01*
X51896Y-43728D01*
X51993Y-43728D01*
X52143Y-43728D02*
X52053Y-43728D01*
X52098Y-43728D02*
X52098Y-43533D01*
X52083Y-43561D01*
X52068Y-43580D01*
X52053Y-43589D01*
X52292Y-43728D02*
X52203Y-43728D01*
X52248Y-43728D02*
X52248Y-43533D01*
X52233Y-43561D01*
X52218Y-43580D01*
X52203Y-43589D01*
X51919Y-44503D02*
X51866Y-44411D01*
X51829Y-44503D02*
X51829Y-44308D01*
X51889Y-44308D01*
X51904Y-44318D01*
X51911Y-44327D01*
X51919Y-44346D01*
X51919Y-44373D01*
X51911Y-44392D01*
X51904Y-44401D01*
X51889Y-44411D01*
X51829Y-44411D01*
X52053Y-44373D02*
X52053Y-44503D01*
X52016Y-44299D02*
X51978Y-44438D01*
X52076Y-44438D01*
X52218Y-44503D02*
X52128Y-44503D01*
X52173Y-44503D02*
X52173Y-44308D01*
X52158Y-44336D01*
X52143Y-44355D01*
X52128Y-44364D01*
X51810Y-35317D02*
X51718Y-35370D01*
X51810Y-35407D02*
X51615Y-35407D01*
X51615Y-35347D01*
X51625Y-35332D01*
X51634Y-35325D01*
X51653Y-35317D01*
X51680Y-35317D01*
X51699Y-35325D01*
X51708Y-35332D01*
X51718Y-35347D01*
X51718Y-35407D01*
X51699Y-35228D02*
X51690Y-35243D01*
X51680Y-35250D01*
X51662Y-35258D01*
X51653Y-35258D01*
X51634Y-35250D01*
X51625Y-35243D01*
X51615Y-35228D01*
X51615Y-35198D01*
X51625Y-35183D01*
X51634Y-35175D01*
X51653Y-35168D01*
X51662Y-35168D01*
X51680Y-35175D01*
X51690Y-35183D01*
X51699Y-35198D01*
X51699Y-35228D01*
X51708Y-35243D01*
X51718Y-35250D01*
X51736Y-35258D01*
X51773Y-35258D01*
X51792Y-35250D01*
X51801Y-35243D01*
X51810Y-35228D01*
X51810Y-35198D01*
X51801Y-35183D01*
X51792Y-35175D01*
X51773Y-35168D01*
X51736Y-35168D01*
X51718Y-35175D01*
X51708Y-35183D01*
X51699Y-35198D01*
X51680Y-35033D02*
X51810Y-35033D01*
X51606Y-35071D02*
X51745Y-35108D01*
X51745Y-35011D01*
X61584Y-36397D02*
X61531Y-36305D01*
X61494Y-36397D02*
X61494Y-36202D01*
X61554Y-36202D01*
X61569Y-36212D01*
X61576Y-36221D01*
X61584Y-36240D01*
X61584Y-36267D01*
X61576Y-36286D01*
X61569Y-36295D01*
X61554Y-36305D01*
X61494Y-36305D01*
X61718Y-36202D02*
X61688Y-36202D01*
X61673Y-36212D01*
X61666Y-36221D01*
X61651Y-36249D01*
X61643Y-36286D01*
X61643Y-36360D01*
X61651Y-36379D01*
X61658Y-36388D01*
X61673Y-36397D01*
X61703Y-36397D01*
X61718Y-36388D01*
X61726Y-36379D01*
X61733Y-36360D01*
X61733Y-36314D01*
X61726Y-36295D01*
X61718Y-36286D01*
X61703Y-36277D01*
X61673Y-36277D01*
X61658Y-36286D01*
X61651Y-36295D01*
X61643Y-36314D01*
X61808Y-36397D02*
X61838Y-36397D01*
X61853Y-36388D01*
X61860Y-36379D01*
X61875Y-36351D01*
X61883Y-36314D01*
X61883Y-36240D01*
X61875Y-36221D01*
X61868Y-36212D01*
X61853Y-36202D01*
X61823Y-36202D01*
X61808Y-36212D01*
X61800Y-36221D01*
X61793Y-36240D01*
X61793Y-36286D01*
X61800Y-36305D01*
X61808Y-36314D01*
X61823Y-36323D01*
X61853Y-36323D01*
X61868Y-36314D01*
X61875Y-36305D01*
X61883Y-36286D01*
X60303Y-41789D02*
X60211Y-41842D01*
X60303Y-41879D02*
X60108Y-41879D01*
X60108Y-41819D01*
X60118Y-41804D01*
X60127Y-41797D01*
X60146Y-41789D01*
X60173Y-41789D01*
X60192Y-41797D01*
X60201Y-41804D01*
X60211Y-41819D01*
X60211Y-41879D01*
X60108Y-41737D02*
X60108Y-41640D01*
X60183Y-41692D01*
X60183Y-41670D01*
X60192Y-41655D01*
X60201Y-41647D01*
X60220Y-41640D01*
X60266Y-41640D01*
X60285Y-41647D01*
X60294Y-41655D01*
X60303Y-41670D01*
X60303Y-41715D01*
X60294Y-41730D01*
X60285Y-41737D01*
X60108Y-41543D02*
X60108Y-41528D01*
X60118Y-41513D01*
X60127Y-41505D01*
X60146Y-41498D01*
X60183Y-41490D01*
X60229Y-41490D01*
X60266Y-41498D01*
X60285Y-41505D01*
X60294Y-41513D01*
X60303Y-41528D01*
X60303Y-41543D01*
X60294Y-41558D01*
X60285Y-41565D01*
X60266Y-41573D01*
X60229Y-41580D01*
X60183Y-41580D01*
X60146Y-41573D01*
X60127Y-41565D01*
X60118Y-41558D01*
X60108Y-41543D01*
X55133Y-38844D02*
X55041Y-38897D01*
X55133Y-38934D02*
X54938Y-38934D01*
X54938Y-38874D01*
X54948Y-38859D01*
X54957Y-38852D01*
X54976Y-38844D01*
X55003Y-38844D01*
X55022Y-38852D01*
X55031Y-38859D01*
X55041Y-38874D01*
X55041Y-38934D01*
X55133Y-38695D02*
X55133Y-38785D01*
X55133Y-38740D02*
X54938Y-38740D01*
X54966Y-38755D01*
X54985Y-38770D01*
X54994Y-38785D01*
X55003Y-38560D02*
X55133Y-38560D01*
X54929Y-38598D02*
X55068Y-38635D01*
X55068Y-38538D01*
X61184Y-41785D02*
X61092Y-41838D01*
X61184Y-41875D02*
X60989Y-41875D01*
X60989Y-41815D01*
X60999Y-41800D01*
X61008Y-41793D01*
X61027Y-41785D01*
X61054Y-41785D01*
X61073Y-41793D01*
X61082Y-41800D01*
X61092Y-41815D01*
X61092Y-41875D01*
X60989Y-41733D02*
X60989Y-41636D01*
X61064Y-41688D01*
X61064Y-41666D01*
X61073Y-41651D01*
X61082Y-41643D01*
X61101Y-41636D01*
X61147Y-41636D01*
X61166Y-41643D01*
X61175Y-41651D01*
X61184Y-41666D01*
X61184Y-41711D01*
X61175Y-41726D01*
X61166Y-41733D01*
X61184Y-41486D02*
X61184Y-41576D01*
X61184Y-41531D02*
X60989Y-41531D01*
X61017Y-41546D01*
X61036Y-41561D01*
X61045Y-41576D01*
X60972Y-38707D02*
X60880Y-38760D01*
X60972Y-38797D02*
X60777Y-38797D01*
X60777Y-38737D01*
X60787Y-38722D01*
X60796Y-38715D01*
X60815Y-38707D01*
X60842Y-38707D01*
X60861Y-38715D01*
X60870Y-38722D01*
X60880Y-38737D01*
X60880Y-38797D01*
X60777Y-38655D02*
X60777Y-38558D01*
X60852Y-38610D01*
X60852Y-38588D01*
X60861Y-38573D01*
X60870Y-38565D01*
X60889Y-38558D01*
X60935Y-38558D01*
X60954Y-38565D01*
X60963Y-38573D01*
X60972Y-38588D01*
X60972Y-38633D01*
X60963Y-38648D01*
X60954Y-38655D01*
X60777Y-38506D02*
X60777Y-38408D01*
X60852Y-38461D01*
X60852Y-38438D01*
X60861Y-38423D01*
X60870Y-38416D01*
X60889Y-38408D01*
X60935Y-38408D01*
X60954Y-38416D01*
X60963Y-38423D01*
X60972Y-38438D01*
X60972Y-38483D01*
X60963Y-38498D01*
X60954Y-38506D01*
X60106Y-38683D02*
X60014Y-38736D01*
X60106Y-38773D02*
X59911Y-38773D01*
X59911Y-38713D01*
X59921Y-38698D01*
X59930Y-38691D01*
X59949Y-38683D01*
X59976Y-38683D01*
X59995Y-38691D01*
X60004Y-38698D01*
X60014Y-38713D01*
X60014Y-38773D01*
X59911Y-38631D02*
X59911Y-38534D01*
X59986Y-38586D01*
X59986Y-38564D01*
X59995Y-38549D01*
X60004Y-38541D01*
X60023Y-38534D01*
X60069Y-38534D01*
X60088Y-38541D01*
X60097Y-38549D01*
X60106Y-38564D01*
X60106Y-38609D01*
X60097Y-38624D01*
X60088Y-38631D01*
X59930Y-38474D02*
X59921Y-38467D01*
X59911Y-38452D01*
X59911Y-38414D01*
X59921Y-38399D01*
X59930Y-38392D01*
X59949Y-38384D01*
X59967Y-38384D01*
X59995Y-38392D01*
X60106Y-38482D01*
X60106Y-38384D01*
X59751Y-37399D02*
X59659Y-37452D01*
X59751Y-37489D02*
X59556Y-37489D01*
X59556Y-37429D01*
X59566Y-37414D01*
X59575Y-37407D01*
X59594Y-37399D01*
X59621Y-37399D01*
X59640Y-37407D01*
X59649Y-37414D01*
X59659Y-37429D01*
X59659Y-37489D01*
X59556Y-37347D02*
X59556Y-37250D01*
X59631Y-37302D01*
X59631Y-37280D01*
X59640Y-37265D01*
X59649Y-37257D01*
X59668Y-37250D01*
X59714Y-37250D01*
X59733Y-37257D01*
X59742Y-37265D01*
X59751Y-37280D01*
X59751Y-37325D01*
X59742Y-37340D01*
X59733Y-37347D01*
X59621Y-37115D02*
X59751Y-37115D01*
X59547Y-37153D02*
X59686Y-37190D01*
X59686Y-37093D01*
X60629Y-43092D02*
X60629Y-43167D01*
X60434Y-43167D01*
X60629Y-42958D02*
X60629Y-43048D01*
X60629Y-43003D02*
X60434Y-43003D01*
X60462Y-43018D01*
X60481Y-43033D01*
X60490Y-43048D01*
X60453Y-42898D02*
X60444Y-42891D01*
X60434Y-42876D01*
X60434Y-42838D01*
X60444Y-42823D01*
X60453Y-42816D01*
X60472Y-42808D01*
X60490Y-42808D01*
X60518Y-42816D01*
X60629Y-42906D01*
X60629Y-42808D01*
X58216Y-36218D02*
X58216Y-36293D01*
X58021Y-36293D01*
X58040Y-36174D02*
X58031Y-36166D01*
X58021Y-36151D01*
X58021Y-36114D01*
X58031Y-36099D01*
X58040Y-36091D01*
X58059Y-36084D01*
X58077Y-36084D01*
X58105Y-36091D01*
X58216Y-36181D01*
X58216Y-36084D01*
X58021Y-36032D02*
X58021Y-35927D01*
X58216Y-35994D01*
X61476Y-43053D02*
X61476Y-43128D01*
X61281Y-43128D01*
X61476Y-42919D02*
X61476Y-43009D01*
X61476Y-42964D02*
X61281Y-42964D01*
X61309Y-42979D01*
X61328Y-42994D01*
X61337Y-43009D01*
X61476Y-42769D02*
X61476Y-42859D01*
X61476Y-42814D02*
X61281Y-42814D01*
X61309Y-42829D01*
X61328Y-42844D01*
X61337Y-42859D01*
X58537Y-35586D02*
X58462Y-35586D01*
X58462Y-35391D01*
X58574Y-35391D02*
X58671Y-35391D01*
X58619Y-35466D01*
X58641Y-35466D01*
X58656Y-35475D01*
X58664Y-35484D01*
X58671Y-35503D01*
X58671Y-35549D01*
X58664Y-35568D01*
X58656Y-35577D01*
X58641Y-35586D01*
X58596Y-35586D01*
X58581Y-35577D01*
X58574Y-35568D01*
X58723Y-35391D02*
X58828Y-35391D01*
X58761Y-35586D01*
X57179Y-36617D02*
X57104Y-36617D01*
X57104Y-36422D01*
X57223Y-36441D02*
X57231Y-36432D01*
X57246Y-36422D01*
X57283Y-36422D01*
X57298Y-36432D01*
X57306Y-36441D01*
X57313Y-36460D01*
X57313Y-36478D01*
X57306Y-36506D01*
X57216Y-36617D01*
X57313Y-36617D01*
X57403Y-36506D02*
X57388Y-36497D01*
X57380Y-36487D01*
X57373Y-36469D01*
X57373Y-36460D01*
X57380Y-36441D01*
X57388Y-36432D01*
X57403Y-36422D01*
X57433Y-36422D01*
X57448Y-36432D01*
X57455Y-36441D01*
X57463Y-36460D01*
X57463Y-36469D01*
X57455Y-36487D01*
X57448Y-36497D01*
X57433Y-36506D01*
X57403Y-36506D01*
X57388Y-36515D01*
X57380Y-36525D01*
X57373Y-36543D01*
X57373Y-36580D01*
X57380Y-36599D01*
X57388Y-36608D01*
X57403Y-36617D01*
X57433Y-36617D01*
X57448Y-36608D01*
X57455Y-36599D01*
X57463Y-36580D01*
X57463Y-36543D01*
X57455Y-36525D01*
X57448Y-36515D01*
X57433Y-36506D01*
X60176Y-36655D02*
X60176Y-36730D01*
X59981Y-36730D01*
X59981Y-36618D02*
X59981Y-36521D01*
X60056Y-36573D01*
X60056Y-36551D01*
X60065Y-36536D01*
X60074Y-36528D01*
X60093Y-36521D01*
X60139Y-36521D01*
X60158Y-36528D01*
X60167Y-36536D01*
X60176Y-36551D01*
X60176Y-36596D01*
X60167Y-36611D01*
X60158Y-36618D01*
X59981Y-36386D02*
X59981Y-36416D01*
X59991Y-36431D01*
X60000Y-36439D01*
X60028Y-36454D01*
X60065Y-36461D01*
X60139Y-36461D01*
X60158Y-36454D01*
X60167Y-36446D01*
X60176Y-36431D01*
X60176Y-36401D01*
X60167Y-36386D01*
X60158Y-36379D01*
X60139Y-36371D01*
X60093Y-36371D01*
X60074Y-36379D01*
X60065Y-36386D01*
X60056Y-36401D01*
X60056Y-36431D01*
X60065Y-36446D01*
X60074Y-36454D01*
X60093Y-36461D01*
X57155Y-35350D02*
X57080Y-35350D01*
X57080Y-35155D01*
X57199Y-35174D02*
X57207Y-35165D01*
X57222Y-35155D01*
X57259Y-35155D01*
X57274Y-35165D01*
X57282Y-35174D01*
X57289Y-35193D01*
X57289Y-35211D01*
X57282Y-35239D01*
X57192Y-35350D01*
X57289Y-35350D01*
X57364Y-35350D02*
X57394Y-35350D01*
X57409Y-35341D01*
X57416Y-35332D01*
X57431Y-35304D01*
X57439Y-35267D01*
X57439Y-35193D01*
X57431Y-35174D01*
X57424Y-35165D01*
X57409Y-35155D01*
X57379Y-35155D01*
X57364Y-35165D01*
X57356Y-35174D01*
X57349Y-35193D01*
X57349Y-35239D01*
X57356Y-35258D01*
X57364Y-35267D01*
X57379Y-35276D01*
X57409Y-35276D01*
X57424Y-35267D01*
X57431Y-35258D01*
X57439Y-35239D01*
X59171Y-37948D02*
X59096Y-37948D01*
X59096Y-37753D01*
X59290Y-37818D02*
X59290Y-37948D01*
X59253Y-37744D02*
X59215Y-37883D01*
X59313Y-37883D01*
X59365Y-37772D02*
X59372Y-37763D01*
X59387Y-37753D01*
X59425Y-37753D01*
X59440Y-37763D01*
X59447Y-37772D01*
X59455Y-37791D01*
X59455Y-37809D01*
X59447Y-37837D01*
X59357Y-37948D01*
X59455Y-37948D01*
X60767Y-36655D02*
X60767Y-36730D01*
X60572Y-36730D01*
X60572Y-36618D02*
X60572Y-36521D01*
X60647Y-36573D01*
X60647Y-36551D01*
X60656Y-36536D01*
X60665Y-36528D01*
X60684Y-36521D01*
X60730Y-36521D01*
X60749Y-36528D01*
X60758Y-36536D01*
X60767Y-36551D01*
X60767Y-36596D01*
X60758Y-36611D01*
X60749Y-36618D01*
X60591Y-36461D02*
X60582Y-36454D01*
X60572Y-36439D01*
X60572Y-36401D01*
X60582Y-36386D01*
X60591Y-36379D01*
X60610Y-36371D01*
X60628Y-36371D01*
X60656Y-36379D01*
X60767Y-36469D01*
X60767Y-36371D01*
X58482Y-42617D02*
X58407Y-42617D01*
X58407Y-42422D01*
X58616Y-42617D02*
X58526Y-42617D01*
X58571Y-42617D02*
X58571Y-42422D01*
X58556Y-42450D01*
X58541Y-42469D01*
X58526Y-42478D01*
X58668Y-42422D02*
X58766Y-42422D01*
X58713Y-42497D01*
X58736Y-42497D01*
X58751Y-42506D01*
X58758Y-42515D01*
X58766Y-42534D01*
X58766Y-42580D01*
X58758Y-42599D01*
X58751Y-42608D01*
X58736Y-42617D01*
X58691Y-42617D01*
X58676Y-42608D01*
X58668Y-42599D01*
X56730Y-42598D02*
X56655Y-42598D01*
X56655Y-42403D01*
X56767Y-42403D02*
X56864Y-42403D01*
X56812Y-42478D01*
X56834Y-42478D01*
X56849Y-42487D01*
X56857Y-42496D01*
X56864Y-42515D01*
X56864Y-42561D01*
X56857Y-42580D01*
X56849Y-42589D01*
X56834Y-42598D01*
X56789Y-42598D01*
X56774Y-42589D01*
X56767Y-42580D01*
X56916Y-42403D02*
X57014Y-42403D01*
X56961Y-42478D01*
X56984Y-42478D01*
X56999Y-42487D01*
X57006Y-42496D01*
X57014Y-42515D01*
X57014Y-42561D01*
X57006Y-42580D01*
X56999Y-42589D01*
X56984Y-42598D01*
X56939Y-42598D01*
X56924Y-42589D01*
X56916Y-42580D01*
X60245Y-44688D02*
X60170Y-44688D01*
X60170Y-44493D01*
X60289Y-44512D02*
X60297Y-44503D01*
X60312Y-44493D01*
X60349Y-44493D01*
X60364Y-44503D01*
X60372Y-44512D01*
X60379Y-44531D01*
X60379Y-44549D01*
X60372Y-44577D01*
X60282Y-44688D01*
X60379Y-44688D01*
X60514Y-44493D02*
X60484Y-44493D01*
X60469Y-44503D01*
X60461Y-44512D01*
X60446Y-44540D01*
X60439Y-44577D01*
X60439Y-44651D01*
X60446Y-44670D01*
X60454Y-44679D01*
X60469Y-44688D01*
X60499Y-44688D01*
X60514Y-44679D01*
X60521Y-44670D01*
X60529Y-44651D01*
X60529Y-44605D01*
X60521Y-44586D01*
X60514Y-44577D01*
X60499Y-44568D01*
X60469Y-44568D01*
X60454Y-44577D01*
X60446Y-44586D01*
X60439Y-44605D01*
X58798Y-44155D02*
X58798Y-44230D01*
X58603Y-44230D01*
X58798Y-44021D02*
X58798Y-44111D01*
X58798Y-44066D02*
X58603Y-44066D01*
X58631Y-44081D01*
X58650Y-44096D01*
X58659Y-44111D01*
X58603Y-43969D02*
X58603Y-43864D01*
X58798Y-43931D01*
X60391Y-43582D02*
X60316Y-43582D01*
X60316Y-43387D01*
X60435Y-43406D02*
X60443Y-43397D01*
X60458Y-43387D01*
X60495Y-43387D01*
X60510Y-43397D01*
X60518Y-43406D01*
X60525Y-43425D01*
X60525Y-43443D01*
X60518Y-43471D01*
X60428Y-43582D01*
X60525Y-43582D01*
X60585Y-43406D02*
X60592Y-43397D01*
X60607Y-43387D01*
X60645Y-43387D01*
X60660Y-43397D01*
X60667Y-43406D01*
X60675Y-43425D01*
X60675Y-43443D01*
X60667Y-43471D01*
X60577Y-43582D01*
X60675Y-43582D01*
X56513Y-38074D02*
X56438Y-38074D01*
X56438Y-37879D01*
X56550Y-37879D02*
X56647Y-37879D01*
X56595Y-37954D01*
X56617Y-37954D01*
X56632Y-37963D01*
X56640Y-37972D01*
X56647Y-37991D01*
X56647Y-38037D01*
X56640Y-38056D01*
X56632Y-38065D01*
X56617Y-38074D01*
X56572Y-38074D01*
X56557Y-38065D01*
X56550Y-38056D01*
X56737Y-37963D02*
X56722Y-37954D01*
X56714Y-37944D01*
X56707Y-37926D01*
X56707Y-37917D01*
X56714Y-37898D01*
X56722Y-37889D01*
X56737Y-37879D01*
X56767Y-37879D01*
X56782Y-37889D01*
X56789Y-37898D01*
X56797Y-37917D01*
X56797Y-37926D01*
X56789Y-37944D01*
X56782Y-37954D01*
X56767Y-37963D01*
X56737Y-37963D01*
X56722Y-37972D01*
X56714Y-37982D01*
X56707Y-38000D01*
X56707Y-38037D01*
X56714Y-38056D01*
X56722Y-38065D01*
X56737Y-38074D01*
X56767Y-38074D01*
X56782Y-38065D01*
X56789Y-38056D01*
X56797Y-38037D01*
X56797Y-38000D01*
X56789Y-37982D01*
X56782Y-37972D01*
X56767Y-37963D01*
X56242Y-36905D02*
X56167Y-36905D01*
X56167Y-36710D01*
X56279Y-36710D02*
X56376Y-36710D01*
X56324Y-36785D01*
X56346Y-36785D01*
X56361Y-36794D01*
X56369Y-36803D01*
X56376Y-36822D01*
X56376Y-36868D01*
X56369Y-36887D01*
X56361Y-36896D01*
X56346Y-36905D01*
X56301Y-36905D01*
X56286Y-36896D01*
X56279Y-36887D01*
X56511Y-36775D02*
X56511Y-36905D01*
X56473Y-36701D02*
X56436Y-36840D01*
X56533Y-36840D01*
X55623Y-36881D02*
X55548Y-36881D01*
X55548Y-36686D01*
X55660Y-36686D02*
X55757Y-36686D01*
X55705Y-36761D01*
X55727Y-36761D01*
X55742Y-36770D01*
X55750Y-36779D01*
X55757Y-36798D01*
X55757Y-36844D01*
X55750Y-36863D01*
X55742Y-36872D01*
X55727Y-36881D01*
X55682Y-36881D01*
X55667Y-36872D01*
X55660Y-36863D01*
X55899Y-36686D02*
X55824Y-36686D01*
X55817Y-36779D01*
X55824Y-36770D01*
X55839Y-36761D01*
X55877Y-36761D01*
X55892Y-36770D01*
X55899Y-36779D01*
X55907Y-36798D01*
X55907Y-36844D01*
X55899Y-36863D01*
X55892Y-36872D01*
X55877Y-36881D01*
X55839Y-36881D01*
X55824Y-36872D01*
X55817Y-36863D01*
X58226Y-38125D02*
X58151Y-38125D01*
X58151Y-37930D01*
X58345Y-37995D02*
X58345Y-38125D01*
X58308Y-37921D02*
X58270Y-38060D01*
X58368Y-38060D01*
X58457Y-37930D02*
X58472Y-37930D01*
X58487Y-37940D01*
X58495Y-37949D01*
X58502Y-37968D01*
X58510Y-38005D01*
X58510Y-38051D01*
X58502Y-38088D01*
X58495Y-38107D01*
X58487Y-38116D01*
X58472Y-38125D01*
X58457Y-38125D01*
X58442Y-38116D01*
X58435Y-38107D01*
X58427Y-38088D01*
X58420Y-38051D01*
X58420Y-38005D01*
X58427Y-37968D01*
X58435Y-37949D01*
X58442Y-37940D01*
X58457Y-37930D01*
X57196Y-47241D02*
X57188Y-47250D01*
X57166Y-47259D01*
X57151Y-47259D01*
X57128Y-47250D01*
X57113Y-47232D01*
X57106Y-47213D01*
X57098Y-47176D01*
X57098Y-47148D01*
X57106Y-47111D01*
X57113Y-47092D01*
X57128Y-47074D01*
X57151Y-47064D01*
X57166Y-47064D01*
X57188Y-47074D01*
X57196Y-47083D01*
X57285Y-47148D02*
X57270Y-47139D01*
X57263Y-47129D01*
X57255Y-47111D01*
X57255Y-47102D01*
X57263Y-47083D01*
X57270Y-47074D01*
X57285Y-47064D01*
X57315Y-47064D01*
X57330Y-47074D01*
X57338Y-47083D01*
X57345Y-47102D01*
X57345Y-47111D01*
X57338Y-47129D01*
X57330Y-47139D01*
X57315Y-47148D01*
X57285Y-47148D01*
X57270Y-47157D01*
X57263Y-47167D01*
X57255Y-47185D01*
X57255Y-47222D01*
X57263Y-47241D01*
X57270Y-47250D01*
X57285Y-47259D01*
X57315Y-47259D01*
X57330Y-47250D01*
X57338Y-47241D01*
X57345Y-47222D01*
X57345Y-47185D01*
X57338Y-47167D01*
X57330Y-47157D01*
X57315Y-47148D01*
X57495Y-47259D02*
X57405Y-47259D01*
X57450Y-47259D02*
X57450Y-47064D01*
X57435Y-47092D01*
X57420Y-47111D01*
X57405Y-47120D01*
X57198Y-48048D02*
X57190Y-48057D01*
X57168Y-48066D01*
X57153Y-48066D01*
X57130Y-48057D01*
X57115Y-48039D01*
X57108Y-48020D01*
X57100Y-47983D01*
X57100Y-47955D01*
X57108Y-47918D01*
X57115Y-47899D01*
X57130Y-47881D01*
X57153Y-47871D01*
X57168Y-47871D01*
X57190Y-47881D01*
X57198Y-47890D01*
X57287Y-47955D02*
X57272Y-47946D01*
X57265Y-47936D01*
X57257Y-47918D01*
X57257Y-47909D01*
X57265Y-47890D01*
X57272Y-47881D01*
X57287Y-47871D01*
X57317Y-47871D01*
X57332Y-47881D01*
X57340Y-47890D01*
X57347Y-47909D01*
X57347Y-47918D01*
X57340Y-47936D01*
X57332Y-47946D01*
X57317Y-47955D01*
X57287Y-47955D01*
X57272Y-47964D01*
X57265Y-47974D01*
X57257Y-47992D01*
X57257Y-48029D01*
X57265Y-48048D01*
X57272Y-48057D01*
X57287Y-48066D01*
X57317Y-48066D01*
X57332Y-48057D01*
X57340Y-48048D01*
X57347Y-48029D01*
X57347Y-47992D01*
X57340Y-47974D01*
X57332Y-47964D01*
X57317Y-47955D01*
X57437Y-47955D02*
X57422Y-47946D01*
X57414Y-47936D01*
X57407Y-47918D01*
X57407Y-47909D01*
X57414Y-47890D01*
X57422Y-47881D01*
X57437Y-47871D01*
X57467Y-47871D01*
X57482Y-47881D01*
X57489Y-47890D01*
X57497Y-47909D01*
X57497Y-47918D01*
X57489Y-47936D01*
X57482Y-47946D01*
X57467Y-47955D01*
X57437Y-47955D01*
X57422Y-47964D01*
X57414Y-47974D01*
X57407Y-47992D01*
X57407Y-48029D01*
X57414Y-48048D01*
X57422Y-48057D01*
X57437Y-48066D01*
X57467Y-48066D01*
X57482Y-48057D01*
X57489Y-48048D01*
X57497Y-48029D01*
X57497Y-47992D01*
X57489Y-47974D01*
X57482Y-47964D01*
X57467Y-47955D01*
X54234Y-45041D02*
X54226Y-45050D01*
X54204Y-45059D01*
X54189Y-45059D01*
X54166Y-45050D01*
X54151Y-45032D01*
X54144Y-45013D01*
X54136Y-44976D01*
X54136Y-44948D01*
X54144Y-44911D01*
X54151Y-44892D01*
X54166Y-44874D01*
X54189Y-44864D01*
X54204Y-44864D01*
X54226Y-44874D01*
X54234Y-44883D01*
X54293Y-44883D02*
X54301Y-44874D01*
X54316Y-44864D01*
X54353Y-44864D01*
X54368Y-44874D01*
X54376Y-44883D01*
X54383Y-44902D01*
X54383Y-44920D01*
X54376Y-44948D01*
X54286Y-45059D01*
X54383Y-45059D01*
X54518Y-44929D02*
X54518Y-45059D01*
X54480Y-44855D02*
X54443Y-44994D01*
X54540Y-44994D01*
X51867Y-43337D02*
X51876Y-43345D01*
X51885Y-43367D01*
X51885Y-43382D01*
X51876Y-43404D01*
X51858Y-43419D01*
X51839Y-43427D01*
X51802Y-43434D01*
X51774Y-43434D01*
X51737Y-43427D01*
X51718Y-43419D01*
X51700Y-43404D01*
X51690Y-43382D01*
X51690Y-43367D01*
X51700Y-43345D01*
X51709Y-43337D01*
X51885Y-43188D02*
X51885Y-43277D01*
X51885Y-43233D02*
X51690Y-43233D01*
X51718Y-43247D01*
X51737Y-43262D01*
X51746Y-43277D01*
X51755Y-43053D02*
X51885Y-43053D01*
X51681Y-43090D02*
X51820Y-43128D01*
X51820Y-43031D01*
X51755Y-42904D02*
X51885Y-42904D01*
X51681Y-42941D02*
X51820Y-42978D01*
X51820Y-42881D01*
X53167Y-44611D02*
X53159Y-44620D01*
X53137Y-44629D01*
X53122Y-44629D01*
X53099Y-44620D01*
X53084Y-44602D01*
X53077Y-44583D01*
X53069Y-44546D01*
X53069Y-44518D01*
X53077Y-44481D01*
X53084Y-44462D01*
X53099Y-44444D01*
X53122Y-44434D01*
X53137Y-44434D01*
X53159Y-44444D01*
X53167Y-44453D01*
X53226Y-44453D02*
X53234Y-44444D01*
X53249Y-44434D01*
X53286Y-44434D01*
X53301Y-44444D01*
X53309Y-44453D01*
X53316Y-44472D01*
X53316Y-44490D01*
X53309Y-44518D01*
X53219Y-44629D01*
X53316Y-44629D01*
X53368Y-44434D02*
X53466Y-44434D01*
X53413Y-44509D01*
X53436Y-44509D01*
X53451Y-44518D01*
X53458Y-44527D01*
X53466Y-44546D01*
X53466Y-44592D01*
X53458Y-44611D01*
X53451Y-44620D01*
X53436Y-44629D01*
X53391Y-44629D01*
X53376Y-44620D01*
X53368Y-44611D01*
X54824Y-44403D02*
X54816Y-44412D01*
X54794Y-44421D01*
X54779Y-44421D01*
X54757Y-44412D01*
X54742Y-44394D01*
X54734Y-44375D01*
X54727Y-44338D01*
X54727Y-44310D01*
X54734Y-44273D01*
X54742Y-44254D01*
X54757Y-44236D01*
X54779Y-44226D01*
X54794Y-44226D01*
X54816Y-44236D01*
X54824Y-44245D01*
X54973Y-44421D02*
X54884Y-44421D01*
X54928Y-44421D02*
X54928Y-44226D01*
X54914Y-44254D01*
X54899Y-44273D01*
X54884Y-44282D01*
X55123Y-44421D02*
X55033Y-44421D01*
X55078Y-44421D02*
X55078Y-44226D01*
X55063Y-44254D01*
X55048Y-44273D01*
X55033Y-44282D01*
X55175Y-44226D02*
X55280Y-44226D01*
X55213Y-44421D01*
X54029Y-43643D02*
X54021Y-43652D01*
X53999Y-43661D01*
X53984Y-43661D01*
X53962Y-43652D01*
X53947Y-43634D01*
X53939Y-43615D01*
X53932Y-43578D01*
X53932Y-43550D01*
X53939Y-43513D01*
X53947Y-43494D01*
X53962Y-43476D01*
X53984Y-43466D01*
X53999Y-43466D01*
X54021Y-43476D01*
X54029Y-43485D01*
X54178Y-43661D02*
X54089Y-43661D01*
X54133Y-43661D02*
X54133Y-43466D01*
X54119Y-43494D01*
X54104Y-43513D01*
X54089Y-43522D01*
X54238Y-43485D02*
X54246Y-43476D01*
X54261Y-43466D01*
X54298Y-43466D01*
X54313Y-43476D01*
X54320Y-43485D01*
X54328Y-43504D01*
X54328Y-43522D01*
X54320Y-43550D01*
X54231Y-43661D01*
X54328Y-43661D01*
X54388Y-43485D02*
X54395Y-43476D01*
X54410Y-43466D01*
X54447Y-43466D01*
X54462Y-43476D01*
X54470Y-43485D01*
X54477Y-43504D01*
X54477Y-43522D01*
X54470Y-43550D01*
X54380Y-43661D01*
X54477Y-43661D01*
X59084Y-35151D02*
X59076Y-35160D01*
X59054Y-35169D01*
X59039Y-35169D01*
X59016Y-35160D01*
X59001Y-35142D01*
X58994Y-35123D01*
X58986Y-35086D01*
X58986Y-35058D01*
X58994Y-35021D01*
X59001Y-35002D01*
X59016Y-34984D01*
X59039Y-34974D01*
X59054Y-34974D01*
X59076Y-34984D01*
X59084Y-34993D01*
X59226Y-34974D02*
X59151Y-34974D01*
X59143Y-35067D01*
X59151Y-35058D01*
X59166Y-35049D01*
X59203Y-35049D01*
X59218Y-35058D01*
X59226Y-35067D01*
X59233Y-35086D01*
X59233Y-35132D01*
X59226Y-35151D01*
X59218Y-35160D01*
X59203Y-35169D01*
X59166Y-35169D01*
X59151Y-35160D01*
X59143Y-35151D01*
X59285Y-34974D02*
X59390Y-34974D01*
X59323Y-35169D01*
X58773Y-45091D02*
X58765Y-45100D01*
X58743Y-45109D01*
X58728Y-45109D01*
X58706Y-45100D01*
X58691Y-45082D01*
X58683Y-45063D01*
X58676Y-45026D01*
X58676Y-44998D01*
X58683Y-44961D01*
X58691Y-44942D01*
X58706Y-44924D01*
X58728Y-44914D01*
X58743Y-44914D01*
X58765Y-44924D01*
X58773Y-44933D01*
X58922Y-45109D02*
X58833Y-45109D01*
X58877Y-45109D02*
X58877Y-44914D01*
X58863Y-44942D01*
X58848Y-44961D01*
X58833Y-44970D01*
X59020Y-44914D02*
X59034Y-44914D01*
X59049Y-44924D01*
X59057Y-44933D01*
X59064Y-44952D01*
X59072Y-44989D01*
X59072Y-45035D01*
X59064Y-45072D01*
X59057Y-45091D01*
X59049Y-45100D01*
X59034Y-45109D01*
X59020Y-45109D01*
X59005Y-45100D01*
X58997Y-45091D01*
X58990Y-45072D01*
X58982Y-45035D01*
X58982Y-44989D01*
X58990Y-44952D01*
X58997Y-44933D01*
X59005Y-44924D01*
X59020Y-44914D01*
X59221Y-45109D02*
X59132Y-45109D01*
X59177Y-45109D02*
X59177Y-44914D01*
X59162Y-44942D01*
X59147Y-44961D01*
X59132Y-44970D01*
X58190Y-44694D02*
X58182Y-44703D01*
X58160Y-44712D01*
X58145Y-44712D01*
X58122Y-44703D01*
X58107Y-44685D01*
X58100Y-44666D01*
X58092Y-44629D01*
X58092Y-44601D01*
X58100Y-44564D01*
X58107Y-44545D01*
X58122Y-44527D01*
X58145Y-44517D01*
X58160Y-44517D01*
X58182Y-44527D01*
X58190Y-44536D01*
X58242Y-44517D02*
X58339Y-44517D01*
X58287Y-44592D01*
X58309Y-44592D01*
X58324Y-44601D01*
X58332Y-44610D01*
X58339Y-44629D01*
X58339Y-44675D01*
X58332Y-44694D01*
X58324Y-44703D01*
X58309Y-44712D01*
X58264Y-44712D01*
X58249Y-44703D01*
X58242Y-44694D01*
X58391Y-44517D02*
X58489Y-44517D01*
X58436Y-44592D01*
X58459Y-44592D01*
X58474Y-44601D01*
X58481Y-44610D01*
X58489Y-44629D01*
X58489Y-44675D01*
X58481Y-44694D01*
X58474Y-44703D01*
X58459Y-44712D01*
X58414Y-44712D01*
X58399Y-44703D01*
X58391Y-44694D01*
X59529Y-44155D02*
X59538Y-44163D01*
X59547Y-44185D01*
X59547Y-44200D01*
X59538Y-44223D01*
X59520Y-44238D01*
X59501Y-44245D01*
X59464Y-44253D01*
X59436Y-44253D01*
X59399Y-44245D01*
X59380Y-44238D01*
X59362Y-44223D01*
X59352Y-44200D01*
X59352Y-44185D01*
X59362Y-44163D01*
X59371Y-44155D01*
X59352Y-44103D02*
X59352Y-44006D01*
X59427Y-44058D01*
X59427Y-44036D01*
X59436Y-44021D01*
X59445Y-44013D01*
X59464Y-44006D01*
X59510Y-44006D01*
X59529Y-44013D01*
X59538Y-44021D01*
X59547Y-44036D01*
X59547Y-44081D01*
X59538Y-44096D01*
X59529Y-44103D01*
X59417Y-43871D02*
X59547Y-43871D01*
X59343Y-43909D02*
X59482Y-43946D01*
X59482Y-43849D01*
X58186Y-43584D02*
X58178Y-43593D01*
X58156Y-43602D01*
X58141Y-43602D01*
X58118Y-43593D01*
X58103Y-43575D01*
X58096Y-43556D01*
X58088Y-43519D01*
X58088Y-43491D01*
X58096Y-43454D01*
X58103Y-43435D01*
X58118Y-43417D01*
X58141Y-43407D01*
X58156Y-43407D01*
X58178Y-43417D01*
X58186Y-43426D01*
X58238Y-43407D02*
X58343Y-43407D01*
X58275Y-43602D01*
X58395Y-43426D02*
X58402Y-43417D01*
X58417Y-43407D01*
X58455Y-43407D01*
X58470Y-43417D01*
X58477Y-43426D01*
X58485Y-43445D01*
X58485Y-43463D01*
X58477Y-43491D01*
X58387Y-43602D01*
X58485Y-43602D01*
X60906Y-43092D02*
X60915Y-43100D01*
X60924Y-43122D01*
X60924Y-43137D01*
X60915Y-43160D01*
X60897Y-43175D01*
X60878Y-43182D01*
X60841Y-43190D01*
X60813Y-43190D01*
X60776Y-43182D01*
X60757Y-43175D01*
X60739Y-43160D01*
X60729Y-43137D01*
X60729Y-43122D01*
X60739Y-43100D01*
X60748Y-43092D01*
X60729Y-42950D02*
X60729Y-43025D01*
X60822Y-43033D01*
X60813Y-43025D01*
X60804Y-43010D01*
X60804Y-42973D01*
X60813Y-42958D01*
X60822Y-42950D01*
X60841Y-42943D01*
X60887Y-42943D01*
X60906Y-42950D01*
X60915Y-42958D01*
X60924Y-42973D01*
X60924Y-43010D01*
X60915Y-43025D01*
X60906Y-43033D01*
X60794Y-42808D02*
X60924Y-42808D01*
X60720Y-42846D02*
X60859Y-42883D01*
X60859Y-42786D01*
X61182Y-43072D02*
X61191Y-43080D01*
X61200Y-43102D01*
X61200Y-43117D01*
X61191Y-43140D01*
X61173Y-43155D01*
X61154Y-43162D01*
X61117Y-43170D01*
X61089Y-43170D01*
X61052Y-43162D01*
X61033Y-43155D01*
X61015Y-43140D01*
X61005Y-43117D01*
X61005Y-43102D01*
X61015Y-43080D01*
X61024Y-43072D01*
X61005Y-42930D02*
X61005Y-43005D01*
X61098Y-43013D01*
X61089Y-43005D01*
X61080Y-42990D01*
X61080Y-42953D01*
X61089Y-42938D01*
X61098Y-42930D01*
X61117Y-42923D01*
X61163Y-42923D01*
X61182Y-42930D01*
X61191Y-42938D01*
X61200Y-42953D01*
X61200Y-42990D01*
X61191Y-43005D01*
X61182Y-43013D01*
X61200Y-42773D02*
X61200Y-42863D01*
X61200Y-42818D02*
X61005Y-42818D01*
X61033Y-42833D01*
X61052Y-42848D01*
X61061Y-42863D01*
X59115Y-42304D02*
X59107Y-42313D01*
X59085Y-42322D01*
X59070Y-42322D01*
X59048Y-42313D01*
X59033Y-42295D01*
X59025Y-42276D01*
X59018Y-42239D01*
X59018Y-42211D01*
X59025Y-42174D01*
X59033Y-42155D01*
X59048Y-42137D01*
X59070Y-42127D01*
X59085Y-42127D01*
X59107Y-42137D01*
X59115Y-42146D01*
X59264Y-42322D02*
X59175Y-42322D01*
X59219Y-42322D02*
X59219Y-42127D01*
X59205Y-42155D01*
X59190Y-42174D01*
X59175Y-42183D01*
X59324Y-42146D02*
X59332Y-42137D01*
X59347Y-42127D01*
X59384Y-42127D01*
X59399Y-42137D01*
X59406Y-42146D01*
X59414Y-42165D01*
X59414Y-42183D01*
X59406Y-42211D01*
X59317Y-42322D01*
X59414Y-42322D01*
X59511Y-42127D02*
X59526Y-42127D01*
X59541Y-42137D01*
X59548Y-42146D01*
X59556Y-42165D01*
X59563Y-42202D01*
X59563Y-42248D01*
X59556Y-42285D01*
X59548Y-42304D01*
X59541Y-42313D01*
X59526Y-42322D01*
X59511Y-42322D01*
X59496Y-42313D01*
X59489Y-42304D01*
X59481Y-42285D01*
X59474Y-42248D01*
X59474Y-42202D01*
X59481Y-42165D01*
X59489Y-42146D01*
X59496Y-42137D01*
X59511Y-42127D01*
X61036Y-36635D02*
X61045Y-36643D01*
X61054Y-36665D01*
X61054Y-36680D01*
X61045Y-36703D01*
X61027Y-36718D01*
X61008Y-36725D01*
X60971Y-36733D01*
X60943Y-36733D01*
X60906Y-36725D01*
X60887Y-36718D01*
X60869Y-36703D01*
X60859Y-36680D01*
X60859Y-36665D01*
X60869Y-36643D01*
X60878Y-36635D01*
X61054Y-36561D02*
X61054Y-36531D01*
X61045Y-36516D01*
X61036Y-36508D01*
X61008Y-36493D01*
X60971Y-36486D01*
X60897Y-36486D01*
X60878Y-36493D01*
X60869Y-36501D01*
X60859Y-36516D01*
X60859Y-36546D01*
X60869Y-36561D01*
X60878Y-36568D01*
X60897Y-36576D01*
X60943Y-36576D01*
X60962Y-36568D01*
X60971Y-36561D01*
X60980Y-36546D01*
X60980Y-36516D01*
X60971Y-36501D01*
X60962Y-36493D01*
X60943Y-36486D01*
X61054Y-36336D02*
X61054Y-36426D01*
X61054Y-36381D02*
X60859Y-36381D01*
X60887Y-36396D01*
X60906Y-36411D01*
X60915Y-36426D01*
X56998Y-45862D02*
X56990Y-45871D01*
X56968Y-45880D01*
X56953Y-45880D01*
X56930Y-45871D01*
X56915Y-45853D01*
X56908Y-45834D01*
X56900Y-45797D01*
X56900Y-45769D01*
X56908Y-45732D01*
X56915Y-45713D01*
X56930Y-45695D01*
X56953Y-45685D01*
X56968Y-45685D01*
X56990Y-45695D01*
X56998Y-45704D01*
X57140Y-45685D02*
X57065Y-45685D01*
X57057Y-45778D01*
X57065Y-45769D01*
X57080Y-45760D01*
X57117Y-45760D01*
X57132Y-45769D01*
X57140Y-45778D01*
X57147Y-45797D01*
X57147Y-45843D01*
X57140Y-45862D01*
X57132Y-45871D01*
X57117Y-45880D01*
X57080Y-45880D01*
X57065Y-45871D01*
X57057Y-45862D01*
X57222Y-45880D02*
X57252Y-45880D01*
X57267Y-45871D01*
X57274Y-45862D01*
X57289Y-45834D01*
X57297Y-45797D01*
X57297Y-45723D01*
X57289Y-45704D01*
X57282Y-45695D01*
X57267Y-45685D01*
X57237Y-45685D01*
X57222Y-45695D01*
X57214Y-45704D01*
X57207Y-45723D01*
X57207Y-45769D01*
X57214Y-45788D01*
X57222Y-45797D01*
X57237Y-45806D01*
X57267Y-45806D01*
X57282Y-45797D01*
X57289Y-45788D01*
X57297Y-45769D01*
X57698Y-34879D02*
X57690Y-34888D01*
X57668Y-34897D01*
X57653Y-34897D01*
X57630Y-34888D01*
X57615Y-34870D01*
X57608Y-34851D01*
X57600Y-34814D01*
X57600Y-34786D01*
X57608Y-34749D01*
X57615Y-34730D01*
X57630Y-34712D01*
X57653Y-34702D01*
X57668Y-34702D01*
X57690Y-34712D01*
X57698Y-34721D01*
X57757Y-34721D02*
X57765Y-34712D01*
X57780Y-34702D01*
X57817Y-34702D01*
X57832Y-34712D01*
X57840Y-34721D01*
X57847Y-34740D01*
X57847Y-34758D01*
X57840Y-34786D01*
X57750Y-34897D01*
X57847Y-34897D01*
X57899Y-34702D02*
X58004Y-34702D01*
X57937Y-34897D01*
X57816Y-43191D02*
X57825Y-43199D01*
X57834Y-43221D01*
X57834Y-43236D01*
X57825Y-43259D01*
X57807Y-43274D01*
X57788Y-43281D01*
X57751Y-43289D01*
X57723Y-43289D01*
X57686Y-43281D01*
X57667Y-43274D01*
X57649Y-43259D01*
X57639Y-43236D01*
X57639Y-43221D01*
X57649Y-43199D01*
X57658Y-43191D01*
X57639Y-43057D02*
X57639Y-43087D01*
X57649Y-43102D01*
X57658Y-43109D01*
X57686Y-43124D01*
X57723Y-43132D01*
X57797Y-43132D01*
X57816Y-43124D01*
X57825Y-43117D01*
X57834Y-43102D01*
X57834Y-43072D01*
X57825Y-43057D01*
X57816Y-43049D01*
X57797Y-43042D01*
X57751Y-43042D01*
X57732Y-43049D01*
X57723Y-43057D01*
X57714Y-43072D01*
X57714Y-43102D01*
X57723Y-43117D01*
X57732Y-43124D01*
X57751Y-43132D01*
X57834Y-42892D02*
X57834Y-42982D01*
X57834Y-42937D02*
X57639Y-42937D01*
X57667Y-42952D01*
X57686Y-42967D01*
X57695Y-42982D01*
X57284Y-43210D02*
X57293Y-43218D01*
X57302Y-43240D01*
X57302Y-43255D01*
X57293Y-43278D01*
X57275Y-43293D01*
X57256Y-43300D01*
X57219Y-43308D01*
X57191Y-43308D01*
X57154Y-43300D01*
X57135Y-43293D01*
X57117Y-43278D01*
X57107Y-43255D01*
X57107Y-43240D01*
X57117Y-43218D01*
X57126Y-43210D01*
X57107Y-43076D02*
X57107Y-43106D01*
X57117Y-43121D01*
X57126Y-43128D01*
X57154Y-43143D01*
X57191Y-43151D01*
X57265Y-43151D01*
X57284Y-43143D01*
X57293Y-43136D01*
X57302Y-43121D01*
X57302Y-43091D01*
X57293Y-43076D01*
X57284Y-43068D01*
X57265Y-43061D01*
X57219Y-43061D01*
X57200Y-43068D01*
X57191Y-43076D01*
X57182Y-43091D01*
X57182Y-43121D01*
X57191Y-43136D01*
X57200Y-43143D01*
X57219Y-43151D01*
X57107Y-43009D02*
X57107Y-42911D01*
X57182Y-42964D01*
X57182Y-42941D01*
X57191Y-42926D01*
X57200Y-42919D01*
X57219Y-42911D01*
X57265Y-42911D01*
X57284Y-42919D01*
X57293Y-42926D01*
X57302Y-42941D01*
X57302Y-42986D01*
X57293Y-43001D01*
X57284Y-43009D01*
X58265Y-42245D02*
X58257Y-42254D01*
X58235Y-42263D01*
X58220Y-42263D01*
X58197Y-42254D01*
X58182Y-42236D01*
X58175Y-42217D01*
X58167Y-42180D01*
X58167Y-42152D01*
X58175Y-42115D01*
X58182Y-42096D01*
X58197Y-42078D01*
X58220Y-42068D01*
X58235Y-42068D01*
X58257Y-42078D01*
X58265Y-42087D01*
X58324Y-42087D02*
X58332Y-42078D01*
X58347Y-42068D01*
X58384Y-42068D01*
X58399Y-42078D01*
X58407Y-42087D01*
X58414Y-42106D01*
X58414Y-42124D01*
X58407Y-42152D01*
X58317Y-42263D01*
X58414Y-42263D01*
X58564Y-42263D02*
X58474Y-42263D01*
X58519Y-42263D02*
X58519Y-42068D01*
X58504Y-42096D01*
X58489Y-42115D01*
X58474Y-42124D01*
X60690Y-37147D02*
X60699Y-37155D01*
X60708Y-37177D01*
X60708Y-37192D01*
X60699Y-37215D01*
X60681Y-37230D01*
X60662Y-37237D01*
X60625Y-37245D01*
X60597Y-37245D01*
X60560Y-37237D01*
X60541Y-37230D01*
X60523Y-37215D01*
X60513Y-37192D01*
X60513Y-37177D01*
X60523Y-37155D01*
X60532Y-37147D01*
X60708Y-37073D02*
X60708Y-37043D01*
X60699Y-37028D01*
X60690Y-37020D01*
X60662Y-37005D01*
X60625Y-36998D01*
X60551Y-36998D01*
X60532Y-37005D01*
X60523Y-37013D01*
X60513Y-37028D01*
X60513Y-37058D01*
X60523Y-37073D01*
X60532Y-37080D01*
X60551Y-37088D01*
X60597Y-37088D01*
X60616Y-37080D01*
X60625Y-37073D01*
X60634Y-37058D01*
X60634Y-37028D01*
X60625Y-37013D01*
X60616Y-37005D01*
X60597Y-36998D01*
X60578Y-36863D02*
X60708Y-36863D01*
X60504Y-36901D02*
X60643Y-36938D01*
X60643Y-36841D01*
X59305Y-35603D02*
X59297Y-35612D01*
X59275Y-35621D01*
X59260Y-35621D01*
X59237Y-35612D01*
X59222Y-35594D01*
X59215Y-35575D01*
X59207Y-35538D01*
X59207Y-35510D01*
X59215Y-35473D01*
X59222Y-35454D01*
X59237Y-35436D01*
X59260Y-35426D01*
X59275Y-35426D01*
X59297Y-35436D01*
X59305Y-35445D01*
X59379Y-35621D02*
X59409Y-35621D01*
X59424Y-35612D01*
X59432Y-35603D01*
X59447Y-35575D01*
X59454Y-35538D01*
X59454Y-35464D01*
X59447Y-35445D01*
X59439Y-35436D01*
X59424Y-35426D01*
X59394Y-35426D01*
X59379Y-35436D01*
X59372Y-35445D01*
X59364Y-35464D01*
X59364Y-35510D01*
X59372Y-35529D01*
X59379Y-35538D01*
X59394Y-35547D01*
X59424Y-35547D01*
X59439Y-35538D01*
X59447Y-35529D01*
X59454Y-35510D01*
X59514Y-35445D02*
X59521Y-35436D01*
X59536Y-35426D01*
X59574Y-35426D01*
X59589Y-35436D01*
X59596Y-35445D01*
X59604Y-35464D01*
X59604Y-35482D01*
X59596Y-35510D01*
X59506Y-35621D01*
X59604Y-35621D01*
X60444Y-36665D02*
X60453Y-36673D01*
X60462Y-36695D01*
X60462Y-36710D01*
X60453Y-36733D01*
X60435Y-36748D01*
X60416Y-36755D01*
X60379Y-36763D01*
X60351Y-36763D01*
X60314Y-36755D01*
X60295Y-36748D01*
X60277Y-36733D01*
X60267Y-36710D01*
X60267Y-36695D01*
X60277Y-36673D01*
X60286Y-36665D01*
X60462Y-36591D02*
X60462Y-36561D01*
X60453Y-36546D01*
X60444Y-36538D01*
X60416Y-36523D01*
X60379Y-36516D01*
X60305Y-36516D01*
X60286Y-36523D01*
X60277Y-36531D01*
X60267Y-36546D01*
X60267Y-36576D01*
X60277Y-36591D01*
X60286Y-36598D01*
X60305Y-36606D01*
X60351Y-36606D01*
X60370Y-36598D01*
X60379Y-36591D01*
X60388Y-36576D01*
X60388Y-36546D01*
X60379Y-36531D01*
X60370Y-36523D01*
X60351Y-36516D01*
X60267Y-36464D02*
X60267Y-36366D01*
X60342Y-36419D01*
X60342Y-36396D01*
X60351Y-36381D01*
X60360Y-36374D01*
X60379Y-36366D01*
X60425Y-36366D01*
X60444Y-36374D01*
X60453Y-36381D01*
X60462Y-36396D01*
X60462Y-36441D01*
X60453Y-36456D01*
X60444Y-36464D01*
X57269Y-36210D02*
X57278Y-36218D01*
X57287Y-36240D01*
X57287Y-36255D01*
X57278Y-36278D01*
X57260Y-36293D01*
X57241Y-36300D01*
X57204Y-36308D01*
X57176Y-36308D01*
X57139Y-36300D01*
X57120Y-36293D01*
X57102Y-36278D01*
X57092Y-36255D01*
X57092Y-36240D01*
X57102Y-36218D01*
X57111Y-36210D01*
X57157Y-36076D02*
X57287Y-36076D01*
X57083Y-36113D02*
X57222Y-36151D01*
X57222Y-36053D01*
X57287Y-35986D02*
X57287Y-35956D01*
X57278Y-35941D01*
X57269Y-35934D01*
X57241Y-35919D01*
X57204Y-35911D01*
X57130Y-35911D01*
X57111Y-35919D01*
X57102Y-35926D01*
X57092Y-35941D01*
X57092Y-35971D01*
X57102Y-35986D01*
X57111Y-35994D01*
X57130Y-36001D01*
X57176Y-36001D01*
X57195Y-35994D01*
X57204Y-35986D01*
X57213Y-35971D01*
X57213Y-35941D01*
X57204Y-35926D01*
X57195Y-35919D01*
X57176Y-35911D01*
X51986Y-36320D02*
X51978Y-36329D01*
X51956Y-36338D01*
X51941Y-36338D01*
X51919Y-36329D01*
X51904Y-36311D01*
X51896Y-36292D01*
X51889Y-36255D01*
X51889Y-36227D01*
X51896Y-36190D01*
X51904Y-36171D01*
X51919Y-36153D01*
X51941Y-36143D01*
X51956Y-36143D01*
X51978Y-36153D01*
X51986Y-36162D01*
X52046Y-36162D02*
X52053Y-36153D01*
X52068Y-36143D01*
X52105Y-36143D01*
X52120Y-36153D01*
X52128Y-36162D01*
X52135Y-36181D01*
X52135Y-36199D01*
X52128Y-36227D01*
X52038Y-36338D01*
X52135Y-36338D01*
X52195Y-36162D02*
X52203Y-36153D01*
X52218Y-36143D01*
X52255Y-36143D01*
X52270Y-36153D01*
X52277Y-36162D01*
X52285Y-36181D01*
X52285Y-36199D01*
X52277Y-36227D01*
X52188Y-36338D01*
X52285Y-36338D01*
X52434Y-36338D02*
X52345Y-36338D01*
X52390Y-36338D02*
X52390Y-36143D01*
X52375Y-36171D01*
X52360Y-36190D01*
X52345Y-36199D01*
X57883Y-35375D02*
X57875Y-35384D01*
X57853Y-35393D01*
X57838Y-35393D01*
X57815Y-35384D01*
X57800Y-35366D01*
X57793Y-35347D01*
X57785Y-35310D01*
X57785Y-35282D01*
X57793Y-35245D01*
X57800Y-35226D01*
X57815Y-35208D01*
X57838Y-35198D01*
X57853Y-35198D01*
X57875Y-35208D01*
X57883Y-35217D01*
X58017Y-35263D02*
X58017Y-35393D01*
X57980Y-35189D02*
X57942Y-35328D01*
X58040Y-35328D01*
X58167Y-35263D02*
X58167Y-35393D01*
X58129Y-35189D02*
X58092Y-35328D01*
X58189Y-35328D01*
X56540Y-37502D02*
X56549Y-37510D01*
X56558Y-37532D01*
X56558Y-37547D01*
X56549Y-37570D01*
X56531Y-37585D01*
X56512Y-37592D01*
X56475Y-37600D01*
X56447Y-37600D01*
X56410Y-37592D01*
X56391Y-37585D01*
X56373Y-37570D01*
X56363Y-37547D01*
X56363Y-37532D01*
X56373Y-37510D01*
X56382Y-37502D01*
X56363Y-37450D02*
X56363Y-37353D01*
X56438Y-37405D01*
X56438Y-37383D01*
X56447Y-37368D01*
X56456Y-37360D01*
X56475Y-37353D01*
X56521Y-37353D01*
X56540Y-37360D01*
X56549Y-37368D01*
X56558Y-37383D01*
X56558Y-37428D01*
X56549Y-37443D01*
X56540Y-37450D01*
X56558Y-37203D02*
X56558Y-37293D01*
X56558Y-37248D02*
X56363Y-37248D01*
X56391Y-37263D01*
X56410Y-37278D01*
X56419Y-37293D01*
X56245Y-37517D02*
X56254Y-37525D01*
X56263Y-37547D01*
X56263Y-37562D01*
X56254Y-37585D01*
X56236Y-37600D01*
X56217Y-37607D01*
X56180Y-37615D01*
X56152Y-37615D01*
X56115Y-37607D01*
X56096Y-37600D01*
X56078Y-37585D01*
X56068Y-37562D01*
X56068Y-37547D01*
X56078Y-37525D01*
X56087Y-37517D01*
X56068Y-37383D02*
X56068Y-37413D01*
X56078Y-37428D01*
X56087Y-37435D01*
X56115Y-37450D01*
X56152Y-37458D01*
X56226Y-37458D01*
X56245Y-37450D01*
X56254Y-37443D01*
X56263Y-37428D01*
X56263Y-37398D01*
X56254Y-37383D01*
X56245Y-37375D01*
X56226Y-37368D01*
X56180Y-37368D01*
X56161Y-37375D01*
X56152Y-37383D01*
X56143Y-37398D01*
X56143Y-37428D01*
X56152Y-37443D01*
X56161Y-37450D01*
X56180Y-37458D01*
X56152Y-37278D02*
X56143Y-37293D01*
X56133Y-37301D01*
X56115Y-37308D01*
X56106Y-37308D01*
X56087Y-37301D01*
X56078Y-37293D01*
X56068Y-37278D01*
X56068Y-37248D01*
X56078Y-37233D01*
X56087Y-37226D01*
X56106Y-37218D01*
X56115Y-37218D01*
X56133Y-37226D01*
X56143Y-37233D01*
X56152Y-37248D01*
X56152Y-37278D01*
X56161Y-37293D01*
X56171Y-37301D01*
X56189Y-37308D01*
X56226Y-37308D01*
X56245Y-37301D01*
X56254Y-37293D01*
X56263Y-37278D01*
X56263Y-37248D01*
X56254Y-37233D01*
X56245Y-37226D01*
X56226Y-37218D01*
X56189Y-37218D01*
X56171Y-37226D01*
X56161Y-37233D01*
X56152Y-37248D01*
X55969Y-37502D02*
X55978Y-37510D01*
X55987Y-37532D01*
X55987Y-37547D01*
X55978Y-37570D01*
X55960Y-37585D01*
X55941Y-37592D01*
X55904Y-37600D01*
X55876Y-37600D01*
X55839Y-37592D01*
X55820Y-37585D01*
X55802Y-37570D01*
X55792Y-37547D01*
X55792Y-37532D01*
X55802Y-37510D01*
X55811Y-37502D01*
X55792Y-37368D02*
X55792Y-37398D01*
X55802Y-37413D01*
X55811Y-37420D01*
X55839Y-37435D01*
X55876Y-37443D01*
X55950Y-37443D01*
X55969Y-37435D01*
X55978Y-37428D01*
X55987Y-37413D01*
X55987Y-37383D01*
X55978Y-37368D01*
X55969Y-37360D01*
X55950Y-37353D01*
X55904Y-37353D01*
X55885Y-37360D01*
X55876Y-37368D01*
X55867Y-37383D01*
X55867Y-37413D01*
X55876Y-37428D01*
X55885Y-37435D01*
X55904Y-37443D01*
X55792Y-37256D02*
X55792Y-37241D01*
X55802Y-37226D01*
X55811Y-37218D01*
X55830Y-37211D01*
X55867Y-37203D01*
X55913Y-37203D01*
X55950Y-37211D01*
X55969Y-37218D01*
X55978Y-37226D01*
X55987Y-37241D01*
X55987Y-37256D01*
X55978Y-37271D01*
X55969Y-37278D01*
X55950Y-37286D01*
X55913Y-37293D01*
X55867Y-37293D01*
X55830Y-37286D01*
X55811Y-37278D01*
X55802Y-37271D01*
X55792Y-37256D01*
X57860Y-36619D02*
X57852Y-36628D01*
X57830Y-36637D01*
X57815Y-36637D01*
X57792Y-36628D01*
X57777Y-36610D01*
X57770Y-36591D01*
X57762Y-36554D01*
X57762Y-36526D01*
X57770Y-36489D01*
X57777Y-36470D01*
X57792Y-36452D01*
X57815Y-36442D01*
X57830Y-36442D01*
X57852Y-36452D01*
X57860Y-36461D01*
X57912Y-36442D02*
X58009Y-36442D01*
X57957Y-36517D01*
X57979Y-36517D01*
X57994Y-36526D01*
X58002Y-36535D01*
X58009Y-36554D01*
X58009Y-36600D01*
X58002Y-36619D01*
X57994Y-36628D01*
X57979Y-36637D01*
X57934Y-36637D01*
X57919Y-36628D01*
X57912Y-36619D01*
X58144Y-36442D02*
X58114Y-36442D01*
X58099Y-36452D01*
X58091Y-36461D01*
X58076Y-36489D01*
X58069Y-36526D01*
X58069Y-36600D01*
X58076Y-36619D01*
X58084Y-36628D01*
X58099Y-36637D01*
X58129Y-36637D01*
X58144Y-36628D01*
X58151Y-36619D01*
X58159Y-36600D01*
X58159Y-36554D01*
X58151Y-36535D01*
X58144Y-36526D01*
X58129Y-36517D01*
X58099Y-36517D01*
X58084Y-36526D01*
X58076Y-36535D01*
X58069Y-36554D01*
X57832Y-34257D02*
X57824Y-34266D01*
X57802Y-34275D01*
X57787Y-34275D01*
X57764Y-34266D01*
X57749Y-34248D01*
X57742Y-34229D01*
X57734Y-34192D01*
X57734Y-34164D01*
X57742Y-34127D01*
X57749Y-34108D01*
X57764Y-34090D01*
X57787Y-34080D01*
X57802Y-34080D01*
X57824Y-34090D01*
X57832Y-34099D01*
X57966Y-34080D02*
X57936Y-34080D01*
X57921Y-34090D01*
X57914Y-34099D01*
X57899Y-34127D01*
X57891Y-34164D01*
X57891Y-34238D01*
X57899Y-34257D01*
X57906Y-34266D01*
X57921Y-34275D01*
X57951Y-34275D01*
X57966Y-34266D01*
X57974Y-34257D01*
X57981Y-34238D01*
X57981Y-34192D01*
X57974Y-34173D01*
X57966Y-34164D01*
X57951Y-34155D01*
X57921Y-34155D01*
X57906Y-34164D01*
X57899Y-34173D01*
X57891Y-34192D01*
X58056Y-34275D02*
X58086Y-34275D01*
X58101Y-34266D01*
X58108Y-34257D01*
X58123Y-34229D01*
X58131Y-34192D01*
X58131Y-34118D01*
X58123Y-34099D01*
X58116Y-34090D01*
X58101Y-34080D01*
X58071Y-34080D01*
X58056Y-34090D01*
X58048Y-34099D01*
X58041Y-34118D01*
X58041Y-34164D01*
X58048Y-34183D01*
X58056Y-34192D01*
X58071Y-34201D01*
X58101Y-34201D01*
X58116Y-34192D01*
X58123Y-34183D01*
X58131Y-34164D01*
X55686Y-37509D02*
X55695Y-37517D01*
X55704Y-37539D01*
X55704Y-37554D01*
X55695Y-37577D01*
X55677Y-37592D01*
X55658Y-37599D01*
X55621Y-37607D01*
X55593Y-37607D01*
X55556Y-37599D01*
X55537Y-37592D01*
X55519Y-37577D01*
X55509Y-37554D01*
X55509Y-37539D01*
X55519Y-37517D01*
X55528Y-37509D01*
X55509Y-37367D02*
X55509Y-37442D01*
X55602Y-37450D01*
X55593Y-37442D01*
X55584Y-37427D01*
X55584Y-37390D01*
X55593Y-37375D01*
X55602Y-37367D01*
X55621Y-37360D01*
X55667Y-37360D01*
X55686Y-37367D01*
X55695Y-37375D01*
X55704Y-37390D01*
X55704Y-37427D01*
X55695Y-37442D01*
X55686Y-37450D01*
X55509Y-37225D02*
X55509Y-37255D01*
X55519Y-37270D01*
X55528Y-37278D01*
X55556Y-37293D01*
X55593Y-37300D01*
X55667Y-37300D01*
X55686Y-37293D01*
X55695Y-37285D01*
X55704Y-37270D01*
X55704Y-37240D01*
X55695Y-37225D01*
X55686Y-37218D01*
X55667Y-37210D01*
X55621Y-37210D01*
X55602Y-37218D01*
X55593Y-37225D01*
X55584Y-37240D01*
X55584Y-37270D01*
X55593Y-37285D01*
X55602Y-37293D01*
X55621Y-37300D01*
X60395Y-37147D02*
X60404Y-37155D01*
X60413Y-37177D01*
X60413Y-37192D01*
X60404Y-37215D01*
X60386Y-37230D01*
X60367Y-37237D01*
X60330Y-37245D01*
X60302Y-37245D01*
X60265Y-37237D01*
X60246Y-37230D01*
X60228Y-37215D01*
X60218Y-37192D01*
X60218Y-37177D01*
X60228Y-37155D01*
X60237Y-37147D01*
X60413Y-37073D02*
X60413Y-37043D01*
X60404Y-37028D01*
X60395Y-37020D01*
X60367Y-37005D01*
X60330Y-36998D01*
X60256Y-36998D01*
X60237Y-37005D01*
X60228Y-37013D01*
X60218Y-37028D01*
X60218Y-37058D01*
X60228Y-37073D01*
X60237Y-37080D01*
X60256Y-37088D01*
X60302Y-37088D01*
X60321Y-37080D01*
X60330Y-37073D01*
X60339Y-37058D01*
X60339Y-37028D01*
X60330Y-37013D01*
X60321Y-37005D01*
X60302Y-36998D01*
X60218Y-36856D02*
X60218Y-36931D01*
X60311Y-36938D01*
X60302Y-36931D01*
X60293Y-36916D01*
X60293Y-36878D01*
X60302Y-36863D01*
X60311Y-36856D01*
X60330Y-36848D01*
X60376Y-36848D01*
X60395Y-36856D01*
X60404Y-36863D01*
X60413Y-36878D01*
X60413Y-36916D01*
X60404Y-36931D01*
X60395Y-36938D01*
X63851Y-35123D02*
X63844Y-35132D01*
X63821Y-35142D01*
X63806Y-35142D01*
X63784Y-35132D01*
X63769Y-35114D01*
X63762Y-35095D01*
X63754Y-35058D01*
X63754Y-35030D01*
X63762Y-34993D01*
X63769Y-34974D01*
X63784Y-34956D01*
X63806Y-34947D01*
X63821Y-34947D01*
X63844Y-34956D01*
X63851Y-34965D01*
X63904Y-34947D02*
X64008Y-34947D01*
X63941Y-35142D01*
X64053Y-34947D02*
X64158Y-34947D01*
X64091Y-35142D01*
X48355Y-37053D02*
X48364Y-37061D01*
X48373Y-37083D01*
X48373Y-37098D01*
X48364Y-37121D01*
X48346Y-37136D01*
X48327Y-37143D01*
X48290Y-37151D01*
X48262Y-37151D01*
X48225Y-37143D01*
X48206Y-37136D01*
X48188Y-37121D01*
X48178Y-37098D01*
X48178Y-37083D01*
X48188Y-37061D01*
X48197Y-37053D01*
X48178Y-37001D02*
X48178Y-36896D01*
X48373Y-36964D01*
X48178Y-36762D02*
X48178Y-36837D01*
X48271Y-36844D01*
X48262Y-36837D01*
X48253Y-36822D01*
X48253Y-36784D01*
X48262Y-36769D01*
X48271Y-36762D01*
X48290Y-36754D01*
X48336Y-36754D01*
X48355Y-36762D01*
X48364Y-36769D01*
X48373Y-36784D01*
X48373Y-36822D01*
X48364Y-36837D01*
X48355Y-36844D01*
X48355Y-37730D02*
X48364Y-37738D01*
X48373Y-37760D01*
X48373Y-37775D01*
X48364Y-37798D01*
X48346Y-37813D01*
X48327Y-37820D01*
X48290Y-37828D01*
X48262Y-37828D01*
X48225Y-37820D01*
X48206Y-37813D01*
X48188Y-37798D01*
X48178Y-37775D01*
X48178Y-37760D01*
X48188Y-37738D01*
X48197Y-37730D01*
X48178Y-37678D02*
X48178Y-37573D01*
X48373Y-37641D01*
X48178Y-37446D02*
X48178Y-37476D01*
X48188Y-37491D01*
X48197Y-37499D01*
X48225Y-37514D01*
X48262Y-37521D01*
X48336Y-37521D01*
X48355Y-37514D01*
X48364Y-37506D01*
X48373Y-37491D01*
X48373Y-37461D01*
X48364Y-37446D01*
X48355Y-37439D01*
X48336Y-37431D01*
X48290Y-37431D01*
X48271Y-37439D01*
X48262Y-37446D01*
X48253Y-37461D01*
X48253Y-37491D01*
X48262Y-37506D01*
X48271Y-37514D01*
X48290Y-37521D01*
X60340Y-37926D02*
X60332Y-37935D01*
X60310Y-37944D01*
X60295Y-37944D01*
X60272Y-37935D01*
X60257Y-37917D01*
X60250Y-37898D01*
X60242Y-37861D01*
X60242Y-37833D01*
X60250Y-37796D01*
X60257Y-37777D01*
X60272Y-37759D01*
X60295Y-37749D01*
X60310Y-37749D01*
X60332Y-37759D01*
X60340Y-37768D01*
X60489Y-37944D02*
X60399Y-37944D01*
X60444Y-37944D02*
X60444Y-37749D01*
X60429Y-37777D01*
X60414Y-37796D01*
X60399Y-37805D01*
X60579Y-37833D02*
X60564Y-37824D01*
X60556Y-37814D01*
X60549Y-37796D01*
X60549Y-37787D01*
X60556Y-37768D01*
X60564Y-37759D01*
X60579Y-37749D01*
X60609Y-37749D01*
X60624Y-37759D01*
X60631Y-37768D01*
X60639Y-37787D01*
X60639Y-37796D01*
X60631Y-37814D01*
X60624Y-37824D01*
X60609Y-37833D01*
X60579Y-37833D01*
X60564Y-37842D01*
X60556Y-37852D01*
X60549Y-37870D01*
X60549Y-37907D01*
X60556Y-37926D01*
X60564Y-37935D01*
X60579Y-37944D01*
X60609Y-37944D01*
X60624Y-37935D01*
X60631Y-37926D01*
X60639Y-37907D01*
X60639Y-37870D01*
X60631Y-37852D01*
X60624Y-37842D01*
X60609Y-37833D01*
X59801Y-39143D02*
X59793Y-39152D01*
X59771Y-39161D01*
X59756Y-39161D01*
X59733Y-39152D01*
X59718Y-39134D01*
X59711Y-39115D01*
X59703Y-39078D01*
X59703Y-39050D01*
X59711Y-39013D01*
X59718Y-38994D01*
X59733Y-38976D01*
X59756Y-38966D01*
X59771Y-38966D01*
X59793Y-38976D01*
X59801Y-38985D01*
X59950Y-39161D02*
X59860Y-39161D01*
X59905Y-39161D02*
X59905Y-38966D01*
X59890Y-38994D01*
X59875Y-39013D01*
X59860Y-39022D01*
X60002Y-38966D02*
X60107Y-38966D01*
X60040Y-39161D01*
X59805Y-39466D02*
X59797Y-39475D01*
X59775Y-39484D01*
X59760Y-39484D01*
X59737Y-39475D01*
X59722Y-39457D01*
X59715Y-39438D01*
X59707Y-39401D01*
X59707Y-39373D01*
X59715Y-39336D01*
X59722Y-39317D01*
X59737Y-39299D01*
X59760Y-39289D01*
X59775Y-39289D01*
X59797Y-39299D01*
X59805Y-39308D01*
X59954Y-39484D02*
X59864Y-39484D01*
X59909Y-39484D02*
X59909Y-39289D01*
X59894Y-39317D01*
X59879Y-39336D01*
X59864Y-39345D01*
X60089Y-39289D02*
X60059Y-39289D01*
X60044Y-39299D01*
X60036Y-39308D01*
X60021Y-39336D01*
X60014Y-39373D01*
X60014Y-39447D01*
X60021Y-39466D01*
X60029Y-39475D01*
X60044Y-39484D01*
X60074Y-39484D01*
X60089Y-39475D01*
X60096Y-39466D01*
X60104Y-39447D01*
X60104Y-39401D01*
X60096Y-39382D01*
X60089Y-39373D01*
X60074Y-39364D01*
X60044Y-39364D01*
X60029Y-39373D01*
X60021Y-39382D01*
X60014Y-39401D01*
X60009Y-40891D02*
X60001Y-40900D01*
X59979Y-40909D01*
X59964Y-40909D01*
X59941Y-40900D01*
X59926Y-40882D01*
X59919Y-40863D01*
X59911Y-40826D01*
X59911Y-40798D01*
X59919Y-40761D01*
X59926Y-40742D01*
X59941Y-40724D01*
X59964Y-40714D01*
X59979Y-40714D01*
X60001Y-40724D01*
X60009Y-40733D01*
X60158Y-40909D02*
X60068Y-40909D01*
X60113Y-40909D02*
X60113Y-40714D01*
X60098Y-40742D01*
X60083Y-40761D01*
X60068Y-40770D01*
X60210Y-40714D02*
X60308Y-40714D01*
X60255Y-40789D01*
X60278Y-40789D01*
X60293Y-40798D01*
X60300Y-40807D01*
X60308Y-40826D01*
X60308Y-40872D01*
X60300Y-40891D01*
X60293Y-40900D01*
X60278Y-40909D01*
X60233Y-40909D01*
X60218Y-40900D01*
X60210Y-40891D01*
X60001Y-42229D02*
X59993Y-42238D01*
X59971Y-42247D01*
X59956Y-42247D01*
X59933Y-42238D01*
X59918Y-42220D01*
X59911Y-42201D01*
X59903Y-42164D01*
X59903Y-42136D01*
X59911Y-42099D01*
X59918Y-42080D01*
X59933Y-42062D01*
X59956Y-42052D01*
X59971Y-42052D01*
X59993Y-42062D01*
X60001Y-42071D01*
X60150Y-42247D02*
X60060Y-42247D01*
X60105Y-42247D02*
X60105Y-42052D01*
X60090Y-42080D01*
X60075Y-42099D01*
X60060Y-42108D01*
X60292Y-42052D02*
X60217Y-42052D01*
X60210Y-42145D01*
X60217Y-42136D01*
X60232Y-42127D01*
X60270Y-42127D01*
X60285Y-42136D01*
X60292Y-42145D01*
X60300Y-42164D01*
X60300Y-42210D01*
X60292Y-42229D01*
X60285Y-42238D01*
X60270Y-42247D01*
X60232Y-42247D01*
X60217Y-42238D01*
X60210Y-42229D01*
X54619Y-39320D02*
X54612Y-39329D01*
X54589Y-39338D01*
X54574Y-39338D01*
X54552Y-39329D01*
X54537Y-39311D01*
X54530Y-39292D01*
X54522Y-39255D01*
X54522Y-39227D01*
X54530Y-39190D01*
X54537Y-39171D01*
X54552Y-39153D01*
X54574Y-39143D01*
X54589Y-39143D01*
X54612Y-39153D01*
X54619Y-39162D01*
X54761Y-39143D02*
X54687Y-39143D01*
X54679Y-39236D01*
X54687Y-39227D01*
X54702Y-39218D01*
X54739Y-39218D01*
X54754Y-39227D01*
X54761Y-39236D01*
X54769Y-39255D01*
X54769Y-39301D01*
X54761Y-39320D01*
X54754Y-39329D01*
X54739Y-39338D01*
X54702Y-39338D01*
X54687Y-39329D01*
X54679Y-39320D01*
X60021Y-41233D02*
X60013Y-41242D01*
X59991Y-41251D01*
X59976Y-41251D01*
X59953Y-41242D01*
X59938Y-41224D01*
X59931Y-41205D01*
X59923Y-41168D01*
X59923Y-41140D01*
X59931Y-41103D01*
X59938Y-41084D01*
X59953Y-41066D01*
X59976Y-41056D01*
X59991Y-41056D01*
X60013Y-41066D01*
X60021Y-41075D01*
X60170Y-41251D02*
X60080Y-41251D01*
X60125Y-41251D02*
X60125Y-41056D01*
X60110Y-41084D01*
X60095Y-41103D01*
X60080Y-41112D01*
X60305Y-41121D02*
X60305Y-41251D01*
X60267Y-41047D02*
X60230Y-41186D01*
X60327Y-41186D01*
G54D17*
G54D18*
X50891Y-49433D02*
X50577Y-49433D01*
X50577Y-49377D01*
X50592Y-49343D01*
X50621Y-49320D01*
X50651Y-49309D01*
X50711Y-49298D01*
X50756Y-49298D01*
X50816Y-49309D01*
X50846Y-49320D01*
X50876Y-49343D01*
X50891Y-49377D01*
X50891Y-49433D01*
X50801Y-49208D02*
X50801Y-49096D01*
X50891Y-49231D02*
X50577Y-49152D01*
X50891Y-49073D01*
X50891Y-48871D02*
X50891Y-49006D01*
X50891Y-48938D02*
X50577Y-48938D01*
X50621Y-48961D01*
X50651Y-48983D01*
X50666Y-49006D01*
G54D17*
G54D15*
X59190Y-46869D02*
X59137Y-46777D01*
X59100Y-46869D02*
X59100Y-46674D01*
X59160Y-46674D01*
X59175Y-46684D01*
X59182Y-46693D01*
X59190Y-46712D01*
X59190Y-46739D01*
X59182Y-46758D01*
X59175Y-46767D01*
X59160Y-46777D01*
X59100Y-46777D01*
X59324Y-46739D02*
X59324Y-46869D01*
X59287Y-46665D02*
X59249Y-46804D01*
X59347Y-46804D01*
X59391Y-46674D02*
X59489Y-46674D01*
X59436Y-46749D01*
X59459Y-46749D01*
X59474Y-46758D01*
X59481Y-46767D01*
X59489Y-46786D01*
X59489Y-46832D01*
X59481Y-46851D01*
X59474Y-46860D01*
X59459Y-46869D01*
X59414Y-46869D01*
X59399Y-46860D01*
X59391Y-46851D01*
X59686Y-46796D02*
X59611Y-46796D01*
X59611Y-46600D01*
X59738Y-46796D02*
X59738Y-46600D01*
X59776Y-46600D01*
X59798Y-46609D01*
X59813Y-46628D01*
X59820Y-46647D01*
X59828Y-46684D01*
X59828Y-46712D01*
X59820Y-46749D01*
X59813Y-46768D01*
X59798Y-46787D01*
X59776Y-46796D01*
X59738Y-46796D01*
X59977Y-46796D02*
X59888Y-46796D01*
X59933Y-46796D02*
X59933Y-46600D01*
X59918Y-46628D01*
X59903Y-46647D01*
X59888Y-46656D01*
G54D17*
G54D19*
X63761Y-46237D02*
X63971Y-46629D01*
X63971Y-46237D02*
X63761Y-46629D01*
X64060Y-46237D02*
X64270Y-46237D01*
X64135Y-46629D01*
X64091Y-33384D02*
X64301Y-33776D01*
X64301Y-33384D02*
X64091Y-33776D01*
X64555Y-33384D02*
X64495Y-33384D01*
X64465Y-33403D01*
X64450Y-33422D01*
X64420Y-33478D01*
X64405Y-33552D01*
X64405Y-33702D01*
X64420Y-33739D01*
X64435Y-33758D01*
X64465Y-33776D01*
X64525Y-33776D01*
X64555Y-33758D01*
X64570Y-33739D01*
X64585Y-33702D01*
X64585Y-33608D01*
X64570Y-33571D01*
X64555Y-33552D01*
X64525Y-33534D01*
X64465Y-33534D01*
X64435Y-33552D01*
X64420Y-33571D01*
X64405Y-33608D01*
G54D20*
X51556Y-32723D02*
X51766Y-33115D01*
X51766Y-32723D02*
X51556Y-33115D01*
X51930Y-32891D02*
X51900Y-32873D01*
X51885Y-32854D01*
X51870Y-32817D01*
X51870Y-32798D01*
X51885Y-32761D01*
X51900Y-32742D01*
X51930Y-32723D01*
X51990Y-32723D01*
X52020Y-32742D01*
X52035Y-32761D01*
X52050Y-32798D01*
X52050Y-32817D01*
X52035Y-32854D01*
X52020Y-32873D01*
X51990Y-32891D01*
X51930Y-32891D01*
X51900Y-32910D01*
X51885Y-32929D01*
X51870Y-32966D01*
X51870Y-33041D01*
X51885Y-33078D01*
X51900Y-33097D01*
X51930Y-33115D01*
X51990Y-33115D01*
X52020Y-33097D01*
X52035Y-33078D01*
X52050Y-33041D01*
X52050Y-32966D01*
X52035Y-32929D01*
X52020Y-32910D01*
X51990Y-32891D01*
G54D13*
G54D12*
X55595Y-32486D02*
X55805Y-32878D01*
X55805Y-32486D02*
X55595Y-32878D01*
X55939Y-32878D02*
X55999Y-32878D01*
X56029Y-32860D01*
X56044Y-32841D01*
X56074Y-32785D01*
X56089Y-32710D01*
X56089Y-32561D01*
X56074Y-32524D01*
X56059Y-32505D01*
X56029Y-32486D01*
X55969Y-32486D01*
X55939Y-32505D01*
X55924Y-32524D01*
X55909Y-32561D01*
X55909Y-32654D01*
X55924Y-32692D01*
X55939Y-32710D01*
X55969Y-32729D01*
X56029Y-32729D01*
X56059Y-32710D01*
X56074Y-32692D01*
X56089Y-32654D01*
X53376Y-32847D02*
X53197Y-32847D01*
X53287Y-32847D02*
X53287Y-32454D01*
X53257Y-32510D01*
X53227Y-32547D01*
X53197Y-32566D01*
X58253Y-49128D02*
X58463Y-49520D01*
X58463Y-49128D02*
X58253Y-49520D01*
X58567Y-49166D02*
X58582Y-49147D01*
X58612Y-49128D01*
X58687Y-49128D01*
X58717Y-49147D01*
X58732Y-49166D01*
X58747Y-49203D01*
X58747Y-49240D01*
X58732Y-49296D01*
X58552Y-49520D01*
X58747Y-49520D01*
G54D18*
X55330Y-48403D02*
X55510Y-48403D01*
X55420Y-48523D02*
X55420Y-48283D01*
X55589Y-48209D02*
X55668Y-48523D01*
X55746Y-48209D01*
X55960Y-48493D02*
X55949Y-48508D01*
X55915Y-48523D01*
X55892Y-48523D01*
X55859Y-48508D01*
X55836Y-48478D01*
X55825Y-48448D01*
X55814Y-48388D01*
X55814Y-48343D01*
X55825Y-48283D01*
X55836Y-48253D01*
X55859Y-48224D01*
X55892Y-48209D01*
X55915Y-48209D01*
X55949Y-48224D01*
X55960Y-48239D01*
X56196Y-48493D02*
X56185Y-48508D01*
X56151Y-48523D01*
X56128Y-48523D01*
X56095Y-48508D01*
X56072Y-48478D01*
X56061Y-48448D01*
X56050Y-48388D01*
X56050Y-48343D01*
X56061Y-48283D01*
X56072Y-48253D01*
X56095Y-48224D01*
X56128Y-48209D01*
X56151Y-48209D01*
X56185Y-48224D01*
X56196Y-48239D01*
G54D11*
X56249Y-44499D02*
X56429Y-44499D01*
X56339Y-44891D02*
X56339Y-44499D01*
X56698Y-44891D02*
X56518Y-44891D01*
X56608Y-44891D02*
X56608Y-44499D01*
X56578Y-44555D01*
X56548Y-44593D01*
X56518Y-44611D01*
G54D12*
X57087Y-43368D02*
X57087Y-43461D01*
X57012Y-43424D02*
X57087Y-43461D01*
X57161Y-43424D01*
X57042Y-43536D02*
X57087Y-43461D01*
X57131Y-43536D01*
G54D18*
X60732Y-34564D02*
X60732Y-34250D01*
X60788Y-34250D01*
X60822Y-34265D01*
X60845Y-34294D01*
X60856Y-34324D01*
X60867Y-34384D01*
X60867Y-34429D01*
X60856Y-34489D01*
X60845Y-34519D01*
X60822Y-34549D01*
X60788Y-34564D01*
X60732Y-34564D01*
X60957Y-34474D02*
X61069Y-34474D01*
X60934Y-34564D02*
X61013Y-34250D01*
X61092Y-34564D01*
X61283Y-34250D02*
X61170Y-34250D01*
X61159Y-34399D01*
X61170Y-34384D01*
X61193Y-34369D01*
X61249Y-34369D01*
X61272Y-34384D01*
X61283Y-34399D01*
X61294Y-34429D01*
X61294Y-34504D01*
X61283Y-34534D01*
X61272Y-34549D01*
X61249Y-34564D01*
X61193Y-34564D01*
X61170Y-34549D01*
X61159Y-34534D01*
G54D12*
X60256Y-34825D02*
X60256Y-34918D01*
X60181Y-34881D02*
X60256Y-34918D01*
X60330Y-34881D01*
X60211Y-34993D02*
X60256Y-34918D01*
X60300Y-34993D01*
G54D11*
X54634Y-35014D02*
X54814Y-35014D01*
X54724Y-35406D02*
X54724Y-35014D01*
X54903Y-35052D02*
X54918Y-35033D01*
X54948Y-35014D01*
X55023Y-35014D01*
X55053Y-35033D01*
X55068Y-35052D01*
X55083Y-35089D01*
X55083Y-35126D01*
X55068Y-35182D01*
X54888Y-35406D01*
X55083Y-35406D01*
G54D12*
X56821Y-36282D02*
X56821Y-36375D01*
X56746Y-36338D02*
X56821Y-36375D01*
X56895Y-36338D01*
X56776Y-36450D02*
X56821Y-36375D01*
X56865Y-36450D01*
X61320Y-32467D02*
X61530Y-32859D01*
X61530Y-32467D02*
X61320Y-32859D01*
X61799Y-32467D02*
X61649Y-32467D01*
X61634Y-32654D01*
X61649Y-32635D01*
X61679Y-32617D01*
X61754Y-32617D01*
X61784Y-32635D01*
X61799Y-32654D01*
X61814Y-32691D01*
X61814Y-32785D01*
X61799Y-32822D01*
X61784Y-32841D01*
X61754Y-32859D01*
X61679Y-32859D01*
X61649Y-32841D01*
X61634Y-32822D01*
X59387Y-32828D02*
X59208Y-32828D01*
X59298Y-32828D02*
X59298Y-32435D01*
X59268Y-32491D01*
X59238Y-32528D01*
X59208Y-32547D01*
X60863Y-47337D02*
X61073Y-47729D01*
X61073Y-47337D02*
X60863Y-47729D01*
X61327Y-47468D02*
X61327Y-47729D01*
X61252Y-47319D02*
X61177Y-47599D01*
X61372Y-47599D01*
X59116Y-49344D02*
X58937Y-49344D01*
X59027Y-49344D02*
X59027Y-48951D01*
X58997Y-49007D01*
X58967Y-49044D01*
X58937Y-49063D01*
G54D10*
X61677Y-44119D02*
X61677Y-43804D01*
X61733Y-43804D01*
X61767Y-43819D01*
X61789Y-43849D01*
X61800Y-43879D01*
X61812Y-43939D01*
X61812Y-43984D01*
X61800Y-44044D01*
X61789Y-44074D01*
X61767Y-44104D01*
X61733Y-44119D01*
X61677Y-44119D01*
X61902Y-44029D02*
X62014Y-44029D01*
X61879Y-44119D02*
X61958Y-43804D01*
X62037Y-44119D01*
X62217Y-43804D02*
X62172Y-43804D01*
X62149Y-43819D01*
X62138Y-43834D01*
X62115Y-43879D01*
X62104Y-43939D01*
X62104Y-44059D01*
X62115Y-44089D01*
X62127Y-44104D01*
X62149Y-44119D01*
X62194Y-44119D01*
X62217Y-44104D01*
X62228Y-44089D01*
X62239Y-44059D01*
X62239Y-43984D01*
X62228Y-43954D01*
X62217Y-43939D01*
X62194Y-43924D01*
X62149Y-43924D01*
X62127Y-43939D01*
X62115Y-43954D01*
X62104Y-43984D01*
G54D16*
X61879Y-45586D02*
X61973Y-45586D01*
X61936Y-45661D02*
X61973Y-45586D01*
X61936Y-45511D01*
X62048Y-45631D02*
X61973Y-45586D01*
X62048Y-45541D01*
G54D15*
X63950Y-44611D02*
X63942Y-44620D01*
X63920Y-44630D01*
X63905Y-44630D01*
X63882Y-44620D01*
X63868Y-44602D01*
X63860Y-44583D01*
X63853Y-44546D01*
X63853Y-44518D01*
X63860Y-44481D01*
X63868Y-44462D01*
X63882Y-44444D01*
X63905Y-44435D01*
X63920Y-44435D01*
X63942Y-44444D01*
X63950Y-44453D01*
X64010Y-44453D02*
X64017Y-44444D01*
X64032Y-44435D01*
X64069Y-44435D01*
X64084Y-44444D01*
X64092Y-44453D01*
X64099Y-44472D01*
X64099Y-44490D01*
X64092Y-44518D01*
X64002Y-44630D01*
X64099Y-44630D01*
X64234Y-44435D02*
X64204Y-44435D01*
X64189Y-44444D01*
X64182Y-44453D01*
X64167Y-44481D01*
X64159Y-44518D01*
X64159Y-44592D01*
X64167Y-44611D01*
X64174Y-44620D01*
X64189Y-44630D01*
X64219Y-44630D01*
X64234Y-44620D01*
X64241Y-44611D01*
X64249Y-44592D01*
X64249Y-44546D01*
X64241Y-44527D01*
X64234Y-44518D01*
X64219Y-44509D01*
X64189Y-44509D01*
X64174Y-44518D01*
X64167Y-44527D01*
X64159Y-44546D01*
G54D18*
X55669Y-38135D02*
X55669Y-37821D01*
X55725Y-37821D01*
X55759Y-37836D01*
X55782Y-37865D01*
X55793Y-37895D01*
X55804Y-37955D01*
X55804Y-38000D01*
X55793Y-38060D01*
X55782Y-38090D01*
X55759Y-38120D01*
X55725Y-38135D01*
X55669Y-38135D01*
X55894Y-38045D02*
X56006Y-38045D01*
X55871Y-38135D02*
X55950Y-37821D01*
X56029Y-38135D01*
X56085Y-37821D02*
X56231Y-37821D01*
X56152Y-37940D01*
X56186Y-37940D01*
X56209Y-37955D01*
X56220Y-37970D01*
X56231Y-38000D01*
X56231Y-38075D01*
X56220Y-38105D01*
X56209Y-38120D01*
X56186Y-38135D01*
X56119Y-38135D01*
X56096Y-38120D01*
X56085Y-38105D01*
X50491Y-33293D02*
X50569Y-33293D01*
X50603Y-33458D02*
X50491Y-33458D01*
X50491Y-33144D01*
X50603Y-33144D01*
X50704Y-33458D02*
X50704Y-33144D01*
X50839Y-33458D02*
X50738Y-33278D01*
X50839Y-33144D02*
X50704Y-33323D01*
X51064Y-33458D02*
X50929Y-33458D01*
X50996Y-33458D02*
X50996Y-33144D01*
X50974Y-33188D01*
X50951Y-33218D01*
X50929Y-33233D01*
M02*
