G04 (created by PCBNEW (2013-05-31 BZR 4019)-stable) date 03/03/2014 21:16:57*
%MOIN*%
G04 Gerber Fmt 3.4, Leading zero omitted, Abs format*
%FSLAX34Y34*%
G01*
G70*
G90*
G04 APERTURE LIST*
%ADD10C,0.00590551*%
%ADD11C,0.0077*%
%ADD12C,0.023622*%
%ADD13C,0.0157*%
%ADD14C,0.0432*%
%ADD15C,0.0195*%
%ADD16C,0.0354*%
%ADD17R,0.0392X0.0392*%
%ADD18R,0.0472X0.051*%
%ADD19R,0.051X0.0472*%
%ADD20R,0.0195X0.0175*%
%ADD21R,0.0175X0.0195*%
%ADD22R,0.0259X0.014*%
%ADD23R,0.014X0.0259*%
%ADD24R,0.0275X0.0314*%
%ADD25R,0.0314X0.0275*%
%ADD26R,0.0195X0.0195*%
%ADD27C,0.2165*%
%ADD28R,0.1417X0.055*%
%ADD29R,0.244X0.2598*%
%ADD30R,0.0314X0.0314*%
%ADD31R,0.1849X0.0589*%
%ADD32R,0.0589X0.0275*%
%ADD33C,0.051*%
%ADD34C,0.055*%
%ADD35C,0.0597*%
%ADD36R,0.0597X0.0597*%
%ADD37R,0.0299X0.0649*%
%ADD38R,0.0669X0.0669*%
%ADD39O,0.0117X0.0335*%
%ADD40O,0.0122X0.0335*%
%ADD41O,0.0118X0.0335*%
%ADD42O,0.0335X0.0118*%
%ADD43R,0.0335X0.0118*%
%ADD44O,0.0335X0.0122*%
%ADD45R,0.0157X0.0209*%
%ADD46R,0.002X0.0114*%
%ADD47R,0.0276X0.0095*%
%ADD48R,0.0327X0.0095*%
%ADD49R,0.0354X0.0095*%
%ADD50R,0.0559X0.0095*%
%ADD51R,0.0019X0.0095*%
%ADD52R,0.0019X0.0083*%
%ADD53R,0.002X0.0095*%
%ADD54R,0.0019X0.0171*%
%ADD55R,0.0019X0.0342*%
%ADD56R,0.0019X0.0304*%
%ADD57R,0.0019X0.0094*%
%ADD58R,0.0019X0.0209*%
%ADD59R,0.0019X0.038*%
%ADD60R,0.0019X0.0475*%
%ADD61R,0.0019X0.0589*%
%ADD62R,0.0019X0.0646*%
%ADD63R,0.0019X0.0703*%
%ADD64R,0.0019X0.0779*%
%ADD65R,0.0019X0.0285*%
%ADD66R,0.0019X0.0247*%
%ADD67R,0.0019X0.0228*%
%ADD68R,0.0019X0.019*%
%ADD69R,0.0019X0.0133*%
%ADD70R,0.0019X0.0076*%
%ADD71R,0.0019X0.0038*%
%ADD72R,0.0019X0.0437*%
%ADD73R,0.0019X0.0551*%
%ADD74R,0.0019X0.0114*%
%ADD75R,0.0019X0.0057*%
%ADD76R,0.002X0.014*%
%ADD77R,0.0019X0.0335*%
%ADD78R,0.0019X0.0152*%
%ADD79R,0.0019X0.0361*%
%ADD80R,0.0019X0.0399*%
%ADD81R,0.0019X0.0323*%
%ADD82R,0.0019X0.0266*%
%ADD83R,0.0591X0.0095*%
%ADD84R,0.0157X0.0095*%
%ADD85R,0.002X0.038*%
%ADD86R,0.0019X0.0418*%
%ADD87R,0.0295X0.0095*%
%ADD88R,0.0217X0.0095*%
%ADD89R,0.0724X0.0095*%
%ADD90R,0.0019X0.3781*%
%ADD91R,0.00984252X0.0216535*%
%ADD92R,0.0216535X0.00984252*%
%ADD93R,0.0433071X0.0433071*%
%ADD94R,0.228346X0.228346*%
%ADD95R,0.0117X0.0275*%
%ADD96R,0.0117X0.0117*%
%ADD97R,0.0117X0.0177*%
%ADD98R,0.0177X0.0117*%
%ADD99R,0.1495X0.0392*%
%ADD100R,0.1299X0.0392*%
%ADD101R,0.0392X0.1299*%
%ADD102R,0.0392X0.1495*%
%ADD103C,0.0117*%
%ADD104C,0.0077*%
%ADD105C,0.0196*%
%ADD106C,0.0138*%
%ADD107C,0.0196*%
%ADD108C,0.0157*%
%ADD109C,0.0117*%
%ADD110C,0.0118*%
%ADD111C,0.0122*%
%ADD112C,0.0195*%
%ADD113C,0.0314*%
%ADD114C,0.0059*%
%ADD115C,0.0078*%
%ADD116C,0.0039*%
%ADD117C,0.0235*%
G04 APERTURE END LIST*
G54D10*
G54D11*
X42606Y-52483D02*
X42606Y-27680D01*
X68983Y-52483D02*
X42606Y-52483D01*
X68983Y-27680D02*
X68983Y-52483D01*
X42606Y-27680D02*
X68983Y-27680D01*
X66228Y-30437D02*
X66228Y-39492D01*
X57764Y-30437D02*
X66228Y-30437D01*
X57764Y-29650D02*
X57764Y-30437D01*
X67016Y-29650D02*
X57764Y-29650D01*
X67016Y-39492D02*
X67016Y-29650D01*
X66228Y-39492D02*
X67016Y-39492D01*
X57764Y-50515D02*
X57764Y-49728D01*
X67016Y-50515D02*
X57764Y-50515D01*
X67016Y-40948D02*
X67016Y-50515D01*
X66228Y-40948D02*
X67016Y-40948D01*
X66228Y-49728D02*
X66228Y-40948D01*
X57764Y-49728D02*
X66228Y-49728D01*
X46936Y-50515D02*
X46936Y-44413D01*
X56386Y-50515D02*
X46936Y-50515D01*
X56386Y-49728D02*
X56386Y-50515D01*
X47724Y-49728D02*
X56386Y-49728D01*
X47724Y-44413D02*
X47724Y-49728D01*
X46936Y-44413D02*
X47724Y-44413D01*
X46936Y-43390D02*
X46936Y-35555D01*
X47724Y-43390D02*
X46936Y-43390D01*
X47724Y-35555D02*
X47724Y-43390D01*
X46936Y-35555D02*
X47724Y-35555D01*
X47724Y-30437D02*
X47724Y-34570D01*
X46936Y-34570D02*
X47724Y-34570D01*
X46936Y-29648D02*
X46936Y-34570D01*
X46936Y-29648D02*
X56384Y-29648D01*
X56384Y-29648D02*
X56384Y-30437D01*
X47724Y-30437D02*
X56384Y-30437D01*
G54D12*
X48590Y-31346D03*
X65629Y-31015D03*
X63771Y-49007D03*
G54D13*
X61338Y-33307D03*
X60708Y-32598D03*
X61181Y-32598D03*
X60787Y-33307D03*
X62598Y-33307D03*
X62677Y-32598D03*
X62047Y-32598D03*
X62047Y-33307D03*
X64448Y-30866D03*
X63523Y-31023D03*
X63917Y-31023D03*
X64842Y-30866D03*
X63937Y-33228D03*
X63444Y-32637D03*
X60236Y-32598D03*
X63307Y-33228D03*
X54409Y-33307D03*
X54409Y-32992D03*
X54803Y-32992D03*
X54803Y-33307D03*
X55669Y-33307D03*
X55669Y-32992D03*
X55275Y-32992D03*
X55275Y-33307D03*
X52047Y-32913D03*
X59763Y-33307D03*
X60157Y-33307D03*
X52440Y-32913D03*
X51574Y-32913D03*
X59291Y-33307D03*
X58818Y-33307D03*
X51181Y-32913D03*
X56574Y-31023D03*
X60118Y-31023D03*
X60511Y-31023D03*
X56968Y-31023D03*
X57834Y-31023D03*
X61377Y-31023D03*
X60984Y-31023D03*
X57440Y-31023D03*
X59173Y-31023D03*
X62716Y-31023D03*
X63110Y-31023D03*
X59566Y-31023D03*
X58700Y-31023D03*
X62244Y-31023D03*
X61850Y-31023D03*
X58307Y-31023D03*
X49842Y-30826D03*
X54803Y-31003D03*
X55196Y-31003D03*
X50236Y-30826D03*
X48917Y-31200D03*
X56062Y-31003D03*
X55669Y-31003D03*
X50708Y-30826D03*
X48976Y-30826D03*
X53937Y-31003D03*
X54330Y-31003D03*
X49370Y-30826D03*
X48503Y-30826D03*
X53464Y-31003D03*
X53070Y-31003D03*
X48110Y-30826D03*
X56141Y-33307D03*
X56141Y-32992D03*
X56535Y-32992D03*
X56535Y-33307D03*
X57401Y-33307D03*
X57401Y-32992D03*
X57007Y-32992D03*
X57007Y-33307D03*
X49606Y-33858D03*
X49606Y-33543D03*
X50000Y-33543D03*
X50000Y-33858D03*
X49133Y-33858D03*
X49133Y-33543D03*
X48740Y-33543D03*
X48740Y-33858D03*
X64488Y-49370D03*
X64251Y-46535D03*
X64645Y-46535D03*
X64881Y-49370D03*
X65748Y-49370D03*
X65511Y-46535D03*
X65118Y-46535D03*
X65354Y-49370D03*
X62992Y-47086D03*
X62992Y-46771D03*
X63385Y-46771D03*
X63385Y-47086D03*
X62519Y-47086D03*
X62519Y-46771D03*
X62125Y-46771D03*
X62125Y-47086D03*
X63543Y-46141D03*
X63543Y-45826D03*
X63937Y-45826D03*
X63937Y-46141D03*
X63937Y-43858D03*
X63937Y-43543D03*
X63543Y-43543D03*
X63543Y-43858D03*
X63543Y-34409D03*
X63543Y-34094D03*
X63937Y-34094D03*
X63937Y-34409D03*
X63937Y-36535D03*
X63937Y-36220D03*
X63543Y-36220D03*
X63543Y-36535D03*
X64173Y-33779D03*
X64330Y-36850D03*
X64724Y-36850D03*
X64566Y-33779D03*
X65433Y-33779D03*
X65590Y-36850D03*
X65196Y-36850D03*
X65039Y-33779D03*
X52047Y-33307D03*
X65118Y-43307D03*
X65511Y-43307D03*
X52440Y-33307D03*
X51574Y-33307D03*
X64645Y-43307D03*
X64251Y-43307D03*
X51181Y-33307D03*
X65511Y-46850D03*
X65826Y-46850D03*
X65826Y-46535D03*
X65826Y-47165D03*
X60314Y-49370D03*
X60314Y-49055D03*
X60708Y-49055D03*
X60708Y-49370D03*
X61574Y-49370D03*
X61574Y-49055D03*
X61181Y-49055D03*
X61181Y-49370D03*
X62913Y-49370D03*
X62913Y-49055D03*
X63307Y-49055D03*
X63307Y-49370D03*
X62440Y-49370D03*
X62440Y-49055D03*
X62047Y-49055D03*
X62047Y-49370D03*
X58661Y-49370D03*
X58661Y-49055D03*
X64015Y-49370D03*
X65905Y-48661D03*
X65590Y-49055D03*
X65905Y-49055D03*
X63464Y-47559D03*
X63779Y-47086D03*
X59921Y-49370D03*
X59921Y-49055D03*
X58188Y-49055D03*
X58188Y-49370D03*
X59448Y-49370D03*
X59448Y-49055D03*
X59055Y-49055D03*
X59055Y-49370D03*
X54409Y-48661D03*
X57007Y-46299D03*
X56614Y-46299D03*
X54803Y-48661D03*
X55669Y-48661D03*
X59448Y-46299D03*
X59055Y-46299D03*
X55275Y-48661D03*
X50236Y-49370D03*
X48976Y-49370D03*
X48818Y-49055D03*
X53937Y-48661D03*
X49763Y-49370D03*
X48503Y-49370D03*
X48110Y-49370D03*
X49370Y-49370D03*
X55433Y-46771D03*
X54173Y-48346D03*
X54566Y-48346D03*
X55826Y-46771D03*
X56692Y-46771D03*
X53779Y-47795D03*
X55039Y-48346D03*
X56299Y-46771D03*
X58031Y-46771D03*
X58425Y-46771D03*
X57559Y-46771D03*
X53779Y-47244D03*
X54251Y-47795D03*
X57165Y-46771D03*
X48976Y-35354D03*
X49527Y-36692D03*
X49133Y-36456D03*
X48897Y-35039D03*
X48976Y-43543D03*
X49291Y-43543D03*
X49291Y-43149D03*
X48976Y-43149D03*
X53779Y-37795D03*
X54330Y-37795D03*
X54173Y-39133D03*
X54015Y-41338D03*
X49763Y-43543D03*
X50078Y-43543D03*
X50078Y-43149D03*
X49763Y-43149D03*
X54803Y-44094D03*
X55669Y-44960D03*
X55433Y-43464D03*
X54566Y-42362D03*
X48110Y-34724D03*
X48582Y-34409D03*
X48582Y-34803D03*
X48110Y-35118D03*
X48110Y-45669D03*
X48425Y-45669D03*
X48582Y-35275D03*
X48110Y-35590D03*
X48110Y-47007D03*
X48425Y-47007D03*
X48425Y-47401D03*
X48110Y-47401D03*
X48110Y-46535D03*
X48425Y-46535D03*
X48425Y-46141D03*
X48110Y-46141D03*
X48110Y-33543D03*
X48110Y-31181D03*
X48110Y-31574D03*
X48110Y-33937D03*
X48818Y-33228D03*
X50787Y-32992D03*
X50629Y-31259D03*
X48110Y-34409D03*
X48110Y-32755D03*
X48425Y-32755D03*
X48425Y-33149D03*
X48110Y-33149D03*
X48110Y-32283D03*
X48425Y-32283D03*
X48425Y-31889D03*
X48110Y-31889D03*
X48110Y-47795D03*
X48425Y-47795D03*
X48425Y-48188D03*
X48110Y-48188D03*
X48110Y-49055D03*
X48425Y-49055D03*
X48425Y-48661D03*
X48110Y-48661D03*
X50787Y-48818D03*
X50314Y-46771D03*
X50708Y-47086D03*
X50393Y-49133D03*
X48740Y-47086D03*
X49763Y-46692D03*
X49212Y-46771D03*
X48897Y-46771D03*
X49448Y-39133D03*
X49763Y-39133D03*
X49763Y-39527D03*
X49448Y-39527D03*
X49370Y-38031D03*
X49763Y-38188D03*
X48976Y-38188D03*
X50157Y-38031D03*
X49527Y-40157D03*
X49842Y-40157D03*
X49842Y-40551D03*
X49527Y-40551D03*
X49370Y-41417D03*
X49921Y-41417D03*
X49921Y-41889D03*
X49370Y-41889D03*
X65826Y-33700D03*
X65826Y-33228D03*
X65433Y-33385D03*
X65905Y-31496D03*
X65826Y-38425D03*
X65826Y-41181D03*
X65826Y-40787D03*
X65826Y-38031D03*
X65826Y-39763D03*
X54566Y-33779D03*
X56771Y-33779D03*
X65826Y-40157D03*
X65826Y-39291D03*
X65826Y-42047D03*
X65826Y-41653D03*
X65826Y-38897D03*
X65905Y-36850D03*
X63700Y-33700D03*
X63622Y-40393D03*
X63543Y-38267D03*
X63543Y-38661D03*
X63622Y-40787D03*
X63622Y-41653D03*
X63543Y-39527D03*
X63543Y-39133D03*
X63622Y-41259D03*
X63622Y-42992D03*
X63149Y-42204D03*
X63070Y-39842D03*
X63149Y-42598D03*
X63622Y-42519D03*
X65905Y-43307D03*
X63543Y-40000D03*
X63622Y-42125D03*
X63070Y-40236D03*
X63543Y-37401D03*
X63070Y-37480D03*
X63070Y-37874D03*
X63543Y-37795D03*
X63543Y-36929D03*
X61653Y-33779D03*
X59212Y-33779D03*
X63937Y-36850D03*
X61496Y-46377D03*
X58346Y-47795D03*
X58346Y-48661D03*
X63622Y-46535D03*
X63858Y-46771D03*
X58346Y-48267D03*
G54D14*
X49554Y-45454D03*
X49554Y-35062D03*
G54D15*
X56102Y-43975D03*
G54D13*
X61386Y-35540D03*
X61024Y-35536D03*
X61024Y-35198D03*
X61394Y-35193D03*
G54D16*
X47725Y-34630D03*
X47725Y-35063D03*
X47725Y-35496D03*
X47725Y-44335D03*
X47725Y-43902D03*
X47725Y-43469D03*
X66268Y-39571D03*
X66268Y-40004D03*
X66268Y-40437D03*
X66268Y-40870D03*
G54D17*
X49299Y-51303D03*
X66622Y-51303D03*
X66621Y-28862D03*
G54D13*
X58299Y-40354D03*
X58299Y-39921D03*
X58082Y-40138D03*
X58515Y-40138D03*
X61011Y-37386D03*
X62078Y-44708D03*
X62275Y-44901D03*
X58732Y-40354D03*
X57866Y-40354D03*
X57433Y-40354D03*
X57000Y-40354D03*
X56783Y-40571D03*
X57216Y-40571D03*
X57653Y-40571D03*
X58082Y-40571D03*
X58515Y-40571D03*
X58515Y-41004D03*
X58082Y-41004D03*
X57653Y-41004D03*
X57216Y-41004D03*
X56783Y-41004D03*
X57000Y-40787D03*
X57433Y-40787D03*
X58299Y-40787D03*
X57866Y-40787D03*
X58732Y-40787D03*
X58732Y-39921D03*
X57866Y-39921D03*
X57433Y-39921D03*
X57000Y-39921D03*
X56783Y-40138D03*
X57216Y-40138D03*
X57653Y-40138D03*
X58515Y-39705D03*
X58082Y-39705D03*
X57653Y-39705D03*
X57216Y-39705D03*
X56783Y-39705D03*
X57000Y-39488D03*
X57433Y-39488D03*
X58299Y-39488D03*
X57866Y-39488D03*
X58732Y-39488D03*
X58732Y-39055D03*
X57866Y-39055D03*
X58299Y-39055D03*
X57433Y-39055D03*
X57000Y-39055D03*
X56783Y-39272D03*
X57216Y-39272D03*
X57653Y-39272D03*
X58082Y-39272D03*
X58515Y-39272D03*
G54D15*
X48861Y-45087D03*
X48546Y-45087D03*
X48231Y-45087D03*
X52389Y-43424D03*
X52744Y-43424D03*
X52941Y-43620D03*
X52586Y-43621D03*
X52782Y-45375D03*
X52782Y-45690D03*
X52584Y-45927D03*
X52190Y-45927D03*
X51994Y-45690D03*
X51994Y-45375D03*
G54D18*
X56532Y-48310D03*
X56532Y-47406D03*
G54D19*
X51568Y-44036D03*
X52472Y-44036D03*
X51568Y-44772D03*
X52472Y-44772D03*
G54D20*
X51445Y-35036D03*
X51445Y-35406D03*
G54D21*
X61870Y-36559D03*
X61500Y-36559D03*
G54D20*
X60461Y-41890D03*
X60461Y-41520D03*
X55299Y-38559D03*
X55299Y-38929D03*
X60827Y-41504D03*
X60827Y-41874D03*
X60618Y-38784D03*
X60618Y-38414D03*
X60264Y-38402D03*
X60264Y-38772D03*
X59665Y-38024D03*
X59665Y-37654D03*
G54D22*
X58799Y-43133D03*
X58799Y-42793D03*
X57825Y-35952D03*
X57825Y-36292D03*
X59843Y-43123D03*
X59843Y-42783D03*
G54D23*
X58800Y-35740D03*
X58460Y-35740D03*
X57442Y-36787D03*
X57102Y-36787D03*
G54D22*
X58472Y-36568D03*
X58472Y-36228D03*
G54D23*
X57434Y-35512D03*
X57094Y-35512D03*
X58957Y-37870D03*
X58617Y-37870D03*
G54D22*
X59252Y-36247D03*
X59252Y-36587D03*
G54D23*
X58296Y-42520D03*
X57956Y-42520D03*
X57123Y-42500D03*
X57463Y-42500D03*
X59692Y-44606D03*
X60032Y-44606D03*
G54D22*
X58976Y-44225D03*
X58976Y-43885D03*
G54D23*
X59692Y-43484D03*
X60032Y-43484D03*
X57237Y-37984D03*
X56897Y-37984D03*
X56568Y-36500D03*
X56228Y-36500D03*
X55550Y-36496D03*
X55890Y-36496D03*
X58044Y-37992D03*
X57704Y-37992D03*
G54D24*
X57078Y-47500D03*
X57508Y-47500D03*
X57088Y-48284D03*
X57518Y-48284D03*
X54542Y-45276D03*
X54112Y-45276D03*
G54D25*
X51469Y-43372D03*
X51469Y-42943D03*
G54D24*
X53057Y-44851D03*
X53487Y-44851D03*
X55215Y-44638D03*
X54785Y-44638D03*
X53990Y-43882D03*
X54420Y-43882D03*
G54D26*
X59016Y-35305D03*
X59370Y-35305D03*
X59327Y-45031D03*
X59681Y-45031D03*
X58976Y-44606D03*
X58622Y-44606D03*
X59693Y-43878D03*
X59693Y-44232D03*
X58976Y-43504D03*
X58622Y-43504D03*
X59124Y-42776D03*
X59124Y-43130D03*
X59488Y-42776D03*
X59488Y-43130D03*
X59130Y-42477D03*
X59484Y-42477D03*
X59577Y-36584D03*
X59577Y-36230D03*
X57469Y-45799D03*
X57823Y-45799D03*
X57622Y-35059D03*
X57976Y-35059D03*
X58004Y-42933D03*
X58004Y-43287D03*
X57461Y-42933D03*
X57461Y-43287D03*
X57667Y-42165D03*
X58021Y-42165D03*
X59012Y-37480D03*
X59012Y-37126D03*
X59248Y-35744D03*
X59602Y-35744D03*
X58799Y-36575D03*
X58799Y-36221D03*
X57441Y-36289D03*
X57441Y-35935D03*
X51976Y-36496D03*
X52330Y-36496D03*
X57825Y-35522D03*
X58179Y-35522D03*
X58071Y-37579D03*
X58071Y-37225D03*
X57677Y-37579D03*
X57677Y-37225D03*
X57260Y-37575D03*
X57260Y-37221D03*
X57825Y-36781D03*
X58179Y-36781D03*
X57764Y-34433D03*
X58118Y-34433D03*
X56874Y-37567D03*
X56874Y-37213D03*
X58547Y-37480D03*
X58547Y-37126D03*
X63775Y-35299D03*
X64129Y-35299D03*
X48532Y-37130D03*
X48532Y-36776D03*
X48532Y-37457D03*
X48532Y-37811D03*
X60264Y-38110D03*
X60618Y-38110D03*
X60268Y-39083D03*
X60622Y-39083D03*
X60264Y-39406D03*
X60618Y-39406D03*
X60473Y-40831D03*
X60827Y-40831D03*
X60461Y-42173D03*
X60815Y-42173D03*
X55283Y-39252D03*
X54929Y-39252D03*
X60481Y-41173D03*
X60835Y-41173D03*
G54D27*
X49752Y-32228D03*
X64791Y-32228D03*
X64791Y-47975D03*
X49752Y-47975D03*
G54D28*
X55145Y-49107D03*
G54D29*
X52271Y-48173D03*
G54D28*
X55145Y-47309D03*
G54D15*
X56378Y-43975D03*
X52232Y-43621D03*
G54D21*
X59347Y-47051D03*
X58977Y-47051D03*
G54D30*
X60421Y-46992D03*
X59791Y-46992D03*
G54D15*
X52112Y-49195D03*
X51720Y-49197D03*
X52507Y-49197D03*
X51325Y-49197D03*
X52902Y-49197D03*
X51325Y-48802D03*
X51325Y-48410D03*
X51325Y-48015D03*
X51325Y-47622D03*
X51325Y-47267D03*
X51720Y-47267D03*
X52114Y-47267D03*
X52507Y-47267D03*
X52900Y-47267D03*
X52900Y-47622D03*
X52900Y-48015D03*
X52900Y-48410D03*
X52900Y-48802D03*
G54D17*
X49299Y-28862D03*
G54D16*
X56426Y-49768D03*
X56859Y-49768D03*
X57292Y-49768D03*
X57726Y-49768D03*
X56425Y-30437D03*
X56858Y-30437D03*
X57291Y-30437D03*
X57725Y-30437D03*
G54D31*
X65161Y-43763D03*
X65161Y-45867D03*
G54D32*
X65711Y-44815D03*
G54D31*
X65145Y-34246D03*
X65145Y-36350D03*
G54D32*
X65695Y-35298D03*
G54D33*
X51299Y-32217D03*
X52299Y-32217D03*
X52299Y-31217D03*
X51299Y-31217D03*
G54D34*
X51799Y-31717D03*
G54D35*
X58307Y-31834D03*
X57307Y-31834D03*
X56307Y-31834D03*
X55307Y-31834D03*
G54D36*
X53307Y-31814D03*
G54D35*
X54307Y-31834D03*
G54D36*
X57576Y-49079D03*
G54D35*
X56576Y-49079D03*
G54D37*
X57164Y-43981D03*
X57664Y-43981D03*
X58164Y-43981D03*
X58164Y-45232D03*
X57164Y-45232D03*
G54D38*
X61200Y-35379D03*
G54D39*
X61298Y-34799D03*
G54D40*
X61102Y-34799D03*
G54D39*
X60905Y-34799D03*
G54D40*
X61495Y-34799D03*
X61102Y-35959D03*
G54D41*
X60905Y-35960D03*
X61298Y-35960D03*
X61495Y-35960D03*
G54D42*
X60619Y-35281D03*
G54D43*
X60619Y-35084D03*
G54D42*
X60619Y-35477D03*
X60619Y-35674D03*
G54D44*
X61780Y-35281D03*
G54D42*
X61781Y-35084D03*
X61781Y-35477D03*
X61781Y-35674D03*
G54D37*
X56579Y-35874D03*
X56079Y-35874D03*
X55579Y-35874D03*
X55579Y-34623D03*
X56579Y-34623D03*
G54D45*
X65303Y-39141D03*
G54D46*
X65063Y-40479D03*
G54D47*
X64551Y-40832D03*
G54D48*
X64905Y-40832D03*
G54D49*
X64890Y-41137D03*
G54D50*
X64791Y-41438D03*
G54D51*
X65437Y-39141D03*
G54D52*
X64362Y-40940D03*
G54D53*
X64377Y-41328D03*
G54D52*
X64358Y-41334D03*
G54D54*
X64378Y-41479D03*
G54D55*
X65043Y-39587D03*
G54D56*
X65059Y-39606D03*
G54D51*
X65063Y-40224D03*
G54D53*
X65044Y-40224D03*
G54D57*
X65059Y-39826D03*
G54D58*
X63960Y-38571D03*
G54D59*
X63979Y-38561D03*
G54D60*
X63998Y-38571D03*
G54D61*
X64017Y-38571D03*
G54D62*
X64036Y-38561D03*
G54D63*
X64055Y-38571D03*
G54D64*
X64074Y-38571D03*
G54D65*
X64093Y-38837D03*
X64093Y-38305D03*
G54D66*
X64112Y-38875D03*
X64112Y-38267D03*
G54D67*
X64131Y-38903D03*
G54D58*
X64131Y-38229D03*
G54D68*
X64150Y-38922D03*
G54D54*
X64150Y-38210D03*
G54D69*
X64169Y-38932D03*
X64169Y-38210D03*
G54D51*
X64188Y-38932D03*
G54D66*
X64188Y-38571D03*
G54D70*
X64188Y-38200D03*
G54D71*
X64207Y-38941D03*
G54D55*
X64207Y-38561D03*
G54D71*
X64207Y-38200D03*
G54D72*
X64226Y-38571D03*
G54D60*
X64245Y-38571D03*
G54D73*
X64264Y-38571D03*
G54D67*
X64283Y-38751D03*
G54D58*
X64283Y-38381D03*
G54D54*
X64302Y-38780D03*
X64302Y-38362D03*
G54D74*
X64321Y-38789D03*
X64321Y-38352D03*
G54D75*
X64340Y-38799D03*
X64340Y-38343D03*
G54D69*
X64359Y-41915D03*
G54D76*
X64358Y-41464D03*
G54D77*
X64362Y-40712D03*
G54D74*
X64359Y-40024D03*
G54D56*
X64359Y-39606D03*
G54D51*
X64359Y-38571D03*
G54D78*
X64378Y-41905D03*
G54D51*
X64378Y-40946D03*
G54D79*
X64378Y-40699D03*
G54D78*
X64378Y-40024D03*
G54D55*
X64378Y-39587D03*
G54D58*
X64378Y-38571D03*
G54D78*
X64397Y-41905D03*
G54D54*
X64397Y-41478D03*
G54D51*
X64397Y-41326D03*
X64397Y-40946D03*
G54D59*
X64397Y-40689D03*
G54D78*
X64397Y-40024D03*
G54D59*
X64397Y-39568D03*
G54D65*
X64397Y-38571D03*
G54D78*
X64416Y-41905D03*
G54D54*
X64416Y-41478D03*
G54D51*
X64416Y-41307D03*
X64416Y-40965D03*
G54D80*
X64416Y-40680D03*
G54D78*
X64416Y-40024D03*
G54D80*
X64416Y-39559D03*
G54D81*
X64416Y-38571D03*
G54D54*
X64435Y-41896D03*
X64435Y-41478D03*
G54D51*
X64435Y-41307D03*
X64435Y-40965D03*
G54D69*
X64435Y-40528D03*
G54D54*
X64435Y-40034D03*
G54D78*
X64435Y-39416D03*
G54D51*
X64435Y-38685D03*
X64435Y-38457D03*
G54D54*
X64454Y-41896D03*
X64454Y-41478D03*
G54D51*
X64454Y-41288D03*
X64454Y-40984D03*
G54D74*
X64454Y-40499D03*
G54D68*
X64454Y-40024D03*
G54D69*
X64454Y-39388D03*
G54D71*
X64454Y-38694D03*
X64454Y-38447D03*
G54D54*
X64473Y-41896D03*
G54D68*
X64473Y-41487D03*
G54D51*
X64473Y-41288D03*
X64473Y-40984D03*
X64473Y-40490D03*
G54D70*
X64473Y-40081D03*
G54D51*
X64473Y-39977D03*
G54D74*
X64473Y-39359D03*
G54D54*
X64492Y-41896D03*
G54D68*
X64492Y-41487D03*
G54D51*
X64492Y-41269D03*
G54D70*
X64492Y-40993D03*
G54D51*
X64492Y-40490D03*
X64492Y-40091D03*
G54D70*
X64492Y-39967D03*
G54D74*
X64492Y-39359D03*
G54D68*
X64511Y-41886D03*
X64511Y-41487D03*
G54D51*
X64511Y-41269D03*
X64511Y-41003D03*
X64511Y-40471D03*
X64511Y-40091D03*
X64511Y-39958D03*
G54D74*
X64511Y-39340D03*
G54D70*
X64530Y-41829D03*
G54D68*
X64530Y-41487D03*
G54D51*
X64530Y-41250D03*
G54D70*
X64530Y-41012D03*
G54D51*
X64530Y-40471D03*
X64530Y-40091D03*
X64530Y-39958D03*
X64530Y-39331D03*
G54D70*
X64549Y-41829D03*
G54D58*
X64549Y-41497D03*
G54D51*
X64549Y-41250D03*
X64549Y-41022D03*
X64549Y-40471D03*
G54D70*
X64549Y-40100D03*
G54D51*
X64549Y-39958D03*
X64549Y-39331D03*
X64568Y-41820D03*
X64568Y-41554D03*
X64568Y-41231D03*
G54D70*
X64568Y-41031D03*
G54D51*
X64568Y-40471D03*
X64568Y-40110D03*
G54D70*
X64568Y-39948D03*
G54D82*
X64568Y-38789D03*
G54D56*
X64568Y-38333D03*
G54D70*
X64587Y-41810D03*
X64587Y-41563D03*
G54D51*
X64587Y-41231D03*
X64587Y-41041D03*
X64587Y-40471D03*
X64587Y-40110D03*
X64587Y-39939D03*
G54D65*
X64587Y-38780D03*
G54D56*
X64587Y-38333D03*
G54D70*
X64606Y-41810D03*
G54D51*
X64606Y-41573D03*
X64606Y-41212D03*
G54D70*
X64606Y-41050D03*
G54D51*
X64606Y-40490D03*
G54D70*
X64606Y-40119D03*
G54D51*
X64606Y-39939D03*
G54D81*
X64606Y-38761D03*
G54D56*
X64606Y-38333D03*
G54D70*
X64625Y-41810D03*
G54D51*
X64625Y-41573D03*
X64625Y-41212D03*
X64625Y-41060D03*
G54D74*
X64625Y-40499D03*
G54D51*
X64625Y-40129D03*
X64625Y-39939D03*
G54D81*
X64625Y-38761D03*
G54D56*
X64625Y-38333D03*
G54D51*
X64644Y-41801D03*
X64644Y-41573D03*
X64644Y-41193D03*
G54D70*
X64644Y-41069D03*
G54D74*
X64644Y-40518D03*
G54D51*
X64644Y-40129D03*
X64644Y-39920D03*
G54D69*
X64644Y-38647D03*
G54D70*
X64663Y-41791D03*
X64663Y-41582D03*
G54D68*
X64663Y-41126D03*
G54D78*
X64663Y-40537D03*
G54D51*
X64663Y-40129D03*
X64663Y-39920D03*
X64663Y-38628D03*
G54D70*
X64682Y-41791D03*
G54D51*
X64682Y-41592D03*
G54D54*
X64682Y-41136D03*
G54D80*
X64682Y-40680D03*
G54D70*
X64682Y-40138D03*
G54D51*
X64682Y-39920D03*
X64682Y-38609D03*
G54D70*
X64701Y-41791D03*
G54D51*
X64701Y-41592D03*
G54D78*
X64701Y-41126D03*
G54D59*
X64701Y-40689D03*
G54D51*
X64701Y-40148D03*
X64701Y-39901D03*
G54D83*
X64704Y-39711D03*
G54D84*
X64701Y-38875D03*
G54D51*
X64701Y-38609D03*
G54D84*
X64701Y-38438D03*
G54D51*
X64720Y-41782D03*
G54D70*
X64720Y-41601D03*
G54D69*
X64720Y-41136D03*
G54D55*
X64720Y-40708D03*
G54D51*
X64720Y-40148D03*
X64720Y-39901D03*
G54D70*
X64720Y-38618D03*
G54D50*
X64791Y-41934D03*
G54D70*
X64739Y-41772D03*
X64739Y-41601D03*
G54D81*
X64739Y-40718D03*
G54D51*
X64739Y-40148D03*
X64739Y-39901D03*
X64739Y-38628D03*
G54D70*
X64758Y-41772D03*
G54D51*
X64758Y-41611D03*
X64758Y-40604D03*
G54D74*
X64758Y-40157D03*
G54D51*
X64758Y-39901D03*
G54D74*
X64758Y-38637D03*
G54D51*
X64777Y-41763D03*
X64777Y-41611D03*
G54D74*
X64777Y-40594D03*
G54D85*
X64777Y-40024D03*
G54D81*
X64777Y-38761D03*
G54D66*
X64777Y-38362D03*
G54D70*
X64796Y-41753D03*
X64796Y-41620D03*
G54D51*
X64796Y-40585D03*
G54D59*
X64796Y-40024D03*
G54D56*
X64796Y-38770D03*
G54D66*
X64796Y-38362D03*
G54D70*
X64815Y-41753D03*
X64815Y-41620D03*
G54D74*
X64815Y-40575D03*
G54D59*
X64815Y-40024D03*
G54D65*
X64815Y-38780D03*
G54D66*
X64815Y-38362D03*
G54D70*
X64834Y-41753D03*
G54D51*
X64834Y-41630D03*
G54D74*
X64834Y-40575D03*
G54D86*
X64834Y-40024D03*
G54D87*
X64701Y-39311D03*
G54D82*
X64834Y-38789D03*
G54D66*
X64834Y-38362D03*
G54D51*
X64853Y-41744D03*
X64853Y-41630D03*
X64853Y-40566D03*
X64853Y-40186D03*
X64853Y-39863D03*
G54D74*
X64853Y-39321D03*
X64853Y-38694D03*
G54D70*
X64872Y-41734D03*
X64872Y-41639D03*
G54D74*
X64872Y-40556D03*
G54D51*
X64872Y-40186D03*
X64872Y-39863D03*
X64872Y-39331D03*
X64872Y-38685D03*
G54D54*
X64891Y-41687D03*
G54D51*
X64891Y-40547D03*
X64891Y-40205D03*
X64891Y-39863D03*
G54D74*
X64891Y-39340D03*
G54D51*
X64891Y-38685D03*
G54D54*
X64910Y-41687D03*
G54D74*
X64910Y-40537D03*
G54D51*
X64910Y-40205D03*
X64910Y-39844D03*
X64910Y-39350D03*
X64910Y-38666D03*
G54D78*
X64929Y-41696D03*
G54D74*
X64929Y-40537D03*
G54D51*
X64929Y-40205D03*
X64929Y-39844D03*
G54D74*
X64929Y-39359D03*
G54D51*
X64929Y-38666D03*
G54D69*
X64948Y-41687D03*
G54D51*
X64948Y-40528D03*
X64948Y-40205D03*
X64948Y-39844D03*
G54D74*
X64948Y-39378D03*
G54D51*
X64948Y-38647D03*
G54D88*
X64945Y-38438D03*
G54D69*
X64967Y-41687D03*
G54D74*
X64967Y-40518D03*
G54D51*
X64967Y-40224D03*
X64967Y-39825D03*
G54D78*
X64967Y-39397D03*
G54D88*
X64945Y-38875D03*
G54D51*
X64967Y-38647D03*
G54D69*
X64986Y-41687D03*
G54D51*
X64986Y-40509D03*
G54D89*
X64712Y-40345D03*
G54D51*
X64986Y-40224D03*
X64986Y-39825D03*
G54D74*
X64986Y-39701D03*
G54D58*
X64986Y-39445D03*
G54D51*
X64986Y-39141D03*
X64986Y-38628D03*
X65005Y-41687D03*
G54D74*
X65005Y-40499D03*
G54D51*
X65005Y-40224D03*
X65005Y-39825D03*
G54D80*
X65005Y-39559D03*
G54D69*
X65005Y-39141D03*
G54D51*
X65005Y-38628D03*
X65024Y-41687D03*
X65024Y-40490D03*
X65024Y-40224D03*
X65024Y-39825D03*
G54D79*
X65024Y-39578D03*
G54D54*
X65024Y-39141D03*
G54D70*
X65024Y-38618D03*
G54D51*
X65043Y-41687D03*
G54D74*
X65043Y-40480D03*
G54D57*
X65043Y-39826D03*
G54D51*
X65043Y-38609D03*
G54D75*
X65062Y-41687D03*
G54D45*
X65110Y-39141D03*
G54D90*
X65195Y-40091D03*
X65214Y-40091D03*
X65233Y-40091D03*
G54D68*
X65386Y-39141D03*
G54D54*
X65404Y-39141D03*
G54D69*
X65421Y-39141D03*
G54D35*
X63314Y-31834D03*
X62314Y-31834D03*
X61314Y-31834D03*
G54D36*
X59314Y-31814D03*
G54D35*
X60314Y-31834D03*
X63043Y-48350D03*
X62043Y-48350D03*
X61043Y-48350D03*
G54D36*
X59043Y-48330D03*
G54D35*
X60043Y-48350D03*
G54D91*
X62185Y-45208D03*
X61988Y-45208D03*
X62381Y-45208D03*
X62381Y-44421D03*
X62185Y-44421D03*
X61988Y-44421D03*
G54D92*
X61791Y-45011D03*
X61791Y-44814D03*
X61791Y-44618D03*
X62578Y-44814D03*
X62578Y-44618D03*
X62578Y-45011D03*
G54D93*
X62185Y-44814D03*
G54D26*
X63882Y-44814D03*
X64236Y-44814D03*
G54D94*
X57751Y-40028D03*
G54D95*
X58242Y-40948D03*
X58242Y-40580D03*
X58242Y-40216D03*
X58242Y-39845D03*
X58242Y-39480D03*
X58242Y-39113D03*
X58437Y-39113D03*
X58439Y-39480D03*
X58439Y-39845D03*
X58439Y-40216D03*
X58439Y-40580D03*
X58439Y-40948D03*
X58827Y-40948D03*
X58827Y-40580D03*
X58827Y-40216D03*
X58827Y-39845D03*
X58827Y-39480D03*
X58827Y-39113D03*
X58630Y-39113D03*
X58630Y-39480D03*
X58630Y-39845D03*
X58630Y-40216D03*
X58630Y-40580D03*
X58630Y-40948D03*
X57462Y-40948D03*
X57462Y-40580D03*
X57462Y-40216D03*
X57462Y-39845D03*
X57462Y-39480D03*
X57462Y-39113D03*
X57657Y-39113D03*
X57659Y-39480D03*
X57659Y-39845D03*
X57659Y-40216D03*
X57659Y-40580D03*
X57659Y-40948D03*
X58047Y-40948D03*
X58047Y-40580D03*
X58047Y-40216D03*
X58047Y-39845D03*
X58047Y-39480D03*
X58047Y-39113D03*
X57850Y-39113D03*
X57850Y-39480D03*
X57850Y-39845D03*
X57850Y-40216D03*
X57850Y-40580D03*
X57850Y-40948D03*
X57067Y-40948D03*
X57067Y-40580D03*
X57067Y-40216D03*
X57067Y-39845D03*
X57067Y-39480D03*
X57067Y-39113D03*
X57264Y-39113D03*
X57265Y-39480D03*
X57265Y-39845D03*
X57265Y-40216D03*
X57265Y-40580D03*
X57265Y-40948D03*
X56875Y-40948D03*
X56875Y-40580D03*
X56875Y-40216D03*
X56875Y-39845D03*
X56875Y-39480D03*
X56875Y-39113D03*
G54D96*
X58836Y-38554D03*
X59033Y-38554D03*
X58638Y-38554D03*
X58441Y-38554D03*
X58245Y-38554D03*
X58048Y-38554D03*
X57851Y-38554D03*
X57655Y-38554D03*
X57458Y-38554D03*
X57260Y-38554D03*
X57063Y-38554D03*
X56866Y-38554D03*
X56671Y-38554D03*
G54D97*
X59130Y-38330D03*
X58933Y-38330D03*
X58738Y-38330D03*
X58541Y-38330D03*
X58343Y-38330D03*
X58146Y-38330D03*
X57950Y-38330D03*
X57753Y-38330D03*
X57556Y-38330D03*
X57360Y-38330D03*
X57163Y-38330D03*
X56966Y-38330D03*
X56768Y-38330D03*
X56571Y-38330D03*
G54D96*
X56473Y-38554D03*
G54D98*
X59453Y-38653D03*
G54D96*
X59228Y-38753D03*
G54D98*
X59453Y-38852D03*
X59453Y-39048D03*
X59453Y-39245D03*
X59453Y-39442D03*
X59453Y-39638D03*
X59451Y-39835D03*
X59453Y-40032D03*
X59453Y-40228D03*
X59453Y-40427D03*
X59453Y-40622D03*
X59453Y-40820D03*
X59453Y-41017D03*
X59453Y-41212D03*
X59453Y-41400D03*
G54D96*
X59228Y-38950D03*
X59228Y-39145D03*
X59228Y-39343D03*
X59228Y-39540D03*
X59228Y-39737D03*
X59228Y-39933D03*
X59228Y-40132D03*
X59228Y-40327D03*
X59228Y-40523D03*
X59228Y-40722D03*
X59228Y-40918D03*
X59228Y-41312D03*
X59228Y-41115D03*
X58830Y-41505D03*
X59026Y-41505D03*
X58633Y-41505D03*
X58436Y-41505D03*
X58238Y-41505D03*
X58043Y-41505D03*
X57846Y-41505D03*
X57648Y-41505D03*
X57451Y-41505D03*
X57255Y-41505D03*
X57058Y-41505D03*
X56860Y-41505D03*
X56665Y-41505D03*
G54D97*
X59123Y-41730D03*
X58926Y-41730D03*
X58731Y-41730D03*
X58535Y-41730D03*
X58338Y-41730D03*
X58141Y-41730D03*
X57943Y-41730D03*
X57746Y-41730D03*
X57550Y-41729D03*
X57353Y-41730D03*
X57156Y-41730D03*
X56960Y-41730D03*
X56763Y-41730D03*
X56566Y-41730D03*
G54D96*
X56468Y-41505D03*
G54D97*
X56368Y-41730D03*
X56374Y-38330D03*
G54D98*
X56051Y-38652D03*
G54D96*
X56276Y-38751D03*
G54D98*
X56051Y-38849D03*
X56051Y-39046D03*
X56051Y-39243D03*
X56051Y-39440D03*
X56051Y-39637D03*
X56051Y-39833D03*
X56051Y-40030D03*
X56051Y-40227D03*
X56051Y-40424D03*
X56051Y-40621D03*
X56051Y-40818D03*
X56051Y-41015D03*
X56051Y-41210D03*
X56051Y-41407D03*
G54D96*
X56276Y-38948D03*
X56276Y-39144D03*
X56276Y-39341D03*
X56276Y-39538D03*
X56276Y-39735D03*
X56276Y-39932D03*
X56276Y-40129D03*
X56276Y-40326D03*
X56276Y-40522D03*
X56276Y-40719D03*
X56276Y-40916D03*
X56276Y-41310D03*
X56276Y-41113D03*
G54D95*
X56679Y-39113D03*
X56679Y-39480D03*
X56679Y-39845D03*
X56679Y-40216D03*
X56679Y-40580D03*
X56679Y-40948D03*
G54D99*
X60400Y-33783D03*
X58038Y-33783D03*
X55676Y-33783D03*
X53313Y-33783D03*
G54D100*
X51051Y-33783D03*
G54D101*
X50599Y-34235D03*
G54D102*
X63116Y-36500D03*
X63116Y-38862D03*
X63116Y-41223D03*
X63116Y-43587D03*
G54D100*
X62663Y-46301D03*
G54D101*
X63116Y-45847D03*
X50599Y-45847D03*
G54D100*
X51051Y-46301D03*
G54D99*
X53313Y-46301D03*
X55676Y-46301D03*
X58038Y-46301D03*
X60400Y-46301D03*
G54D102*
X50599Y-43587D03*
X50599Y-41223D03*
X50599Y-38862D03*
X50599Y-36500D03*
G54D100*
X62663Y-33783D03*
G54D101*
X63116Y-34235D03*
G54D103*
X61685Y-43255D03*
G54D15*
X56783Y-43173D03*
X61728Y-40646D03*
X61821Y-42018D03*
X61594Y-38083D03*
X55748Y-43512D03*
X55032Y-45276D03*
G54D104*
X61488Y-45011D03*
G54D15*
X58976Y-46772D03*
G54D13*
X60177Y-35130D03*
G54D15*
X54949Y-37343D03*
G54D13*
X52646Y-37508D03*
G54D15*
X54221Y-34441D03*
X51169Y-34244D03*
X57756Y-43449D03*
G54D13*
X56949Y-42618D03*
G54D15*
X58264Y-43146D03*
X60142Y-42921D03*
G54D13*
X55299Y-38228D03*
G54D15*
X62039Y-39803D03*
X59910Y-37815D03*
X62036Y-39500D03*
G54D13*
X49256Y-36028D03*
X53323Y-36453D03*
G54D104*
X60677Y-34807D03*
X61854Y-44421D03*
X62578Y-44440D03*
X61988Y-45425D03*
G54D15*
X50921Y-43799D03*
X51012Y-36701D03*
G54D13*
X48154Y-36225D03*
X48154Y-35831D03*
G54D15*
X48158Y-36717D03*
X48150Y-39079D03*
X48189Y-41437D03*
G54D13*
X48032Y-37599D03*
X48047Y-38189D03*
X48024Y-39571D03*
X48028Y-40551D03*
X48032Y-41933D03*
X48032Y-42918D03*
X48197Y-43508D03*
G54D15*
X48138Y-43807D03*
G54D13*
X48102Y-44492D03*
X50921Y-44492D03*
G54D15*
X58002Y-47500D03*
G54D13*
X59961Y-44311D03*
X58626Y-44390D03*
X58413Y-43508D03*
X60205Y-43484D03*
X59882Y-37386D03*
X58256Y-36228D03*
X57106Y-36587D03*
G54D15*
X58616Y-45230D03*
G54D13*
X61102Y-40835D03*
G54D15*
X57668Y-44518D03*
G54D13*
X52012Y-34799D03*
X61264Y-40071D03*
X54457Y-43477D03*
G54D15*
X53465Y-45815D03*
G54D13*
X54579Y-44225D03*
G54D15*
X54268Y-46508D03*
X57984Y-48284D03*
G54D13*
X61957Y-34823D03*
X60906Y-36260D03*
X61957Y-35933D03*
X62154Y-36559D03*
X61228Y-42177D03*
X60882Y-38087D03*
X60780Y-39406D03*
X59350Y-37213D03*
G54D105*
X56091Y-35378D03*
X55579Y-35130D03*
G54D13*
X59508Y-36051D03*
X59650Y-35925D03*
X57094Y-35291D03*
X58354Y-35528D03*
X58370Y-36783D03*
X48165Y-37402D03*
X60266Y-35482D03*
X48193Y-37205D03*
X60246Y-35719D03*
X49565Y-42918D03*
X49132Y-37012D03*
G54D104*
X61511Y-44618D03*
G54D15*
X55217Y-44988D03*
G54D13*
X55288Y-40421D03*
X55701Y-40618D03*
X55366Y-40819D03*
X55705Y-41839D03*
G54D106*
X59065Y-40325D03*
G54D13*
X51732Y-36461D03*
X53591Y-41236D03*
G54D106*
X56447Y-41309D03*
G54D13*
X59951Y-40876D03*
X51728Y-36957D03*
G54D106*
X59065Y-40522D03*
G54D13*
X52870Y-37327D03*
X51728Y-37240D03*
X52870Y-36752D03*
X59669Y-40425D03*
X55736Y-39831D03*
X53906Y-34843D03*
X48193Y-37984D03*
X60319Y-39984D03*
X52906Y-35095D03*
X52543Y-37827D03*
G54D106*
X56870Y-38720D03*
G54D13*
X55981Y-37386D03*
G54D106*
X59065Y-38750D03*
G54D13*
X57205Y-42071D03*
X60473Y-41000D03*
G54D106*
X59065Y-40915D03*
X59065Y-39341D03*
G54D13*
X60339Y-39244D03*
X57465Y-41937D03*
G54D106*
X57254Y-41339D03*
G54D15*
X52811Y-44992D03*
X53539Y-43862D03*
X53539Y-44197D03*
G54D13*
X60030Y-41211D03*
G54D106*
X59075Y-41112D03*
G54D13*
X60039Y-41437D03*
X55638Y-36756D03*
G54D106*
X57067Y-38720D03*
G54D13*
X59272Y-41807D03*
X59748Y-39020D03*
G54D106*
X58238Y-41339D03*
X59065Y-39144D03*
X59065Y-38947D03*
X59055Y-40128D03*
X57854Y-38720D03*
G54D13*
X59150Y-37972D03*
G54D106*
X57057Y-41339D03*
G54D13*
X55933Y-38528D03*
G54D106*
X56437Y-39734D03*
X56437Y-40325D03*
G54D13*
X56260Y-42953D03*
G54D106*
X56860Y-41339D03*
G54D15*
X60154Y-42638D03*
G54D106*
X59065Y-41309D03*
X59065Y-39931D03*
G54D13*
X55394Y-39638D03*
X53650Y-41536D03*
G54D106*
X56437Y-41112D03*
G54D13*
X53583Y-40201D03*
G54D106*
X56437Y-39931D03*
G54D13*
X55831Y-39047D03*
G54D106*
X56437Y-40915D03*
G54D13*
X53579Y-41925D03*
X53602Y-40559D03*
G54D106*
X56437Y-40128D03*
G54D13*
X55303Y-40032D03*
X53662Y-38355D03*
G54D106*
X56437Y-38750D03*
G54D13*
X55709Y-39445D03*
X56957Y-42059D03*
G54D106*
X56663Y-41339D03*
G54D13*
X52193Y-35890D03*
X59740Y-40740D03*
X54453Y-37319D03*
X51721Y-37508D03*
X54721Y-36075D03*
X59787Y-39870D03*
X55555Y-39028D03*
G54D106*
X56437Y-38947D03*
G54D13*
X53662Y-38555D03*
X53610Y-39571D03*
G54D106*
X56437Y-39537D03*
G54D13*
X53626Y-39370D03*
G54D106*
X56437Y-39341D03*
G54D13*
X53579Y-42122D03*
G54D106*
X56437Y-40719D03*
G54D13*
X55772Y-40232D03*
X55890Y-41016D03*
X55260Y-41209D03*
X55815Y-41406D03*
X55445Y-41846D03*
X56303Y-41937D03*
X53650Y-38981D03*
G54D106*
X56437Y-39144D03*
G54D13*
X53587Y-41040D03*
G54D106*
X56437Y-40522D03*
G54D13*
X59646Y-40225D03*
X54736Y-36331D03*
X49354Y-37402D03*
X53071Y-34862D03*
X52276Y-40847D03*
X52248Y-40394D03*
X48185Y-39965D03*
X48221Y-38386D03*
X52516Y-38162D03*
X48201Y-39768D03*
X52232Y-40016D03*
X48197Y-39370D03*
X52402Y-39815D03*
X48079Y-38783D03*
X52386Y-39181D03*
X48193Y-38591D03*
X52366Y-38772D03*
G54D106*
X59065Y-39734D03*
G54D13*
X51445Y-35929D03*
X52213Y-40654D03*
X48181Y-40355D03*
X55984Y-38016D03*
X56319Y-38122D03*
X56575Y-38130D03*
G54D106*
X56673Y-38711D03*
G54D13*
X49744Y-36425D03*
X49634Y-37205D03*
X49917Y-37012D03*
X49748Y-36225D03*
X51717Y-37992D03*
X52535Y-41732D03*
X48173Y-42331D03*
X52118Y-42354D03*
X54984Y-43063D03*
X48173Y-40748D03*
X55453Y-43067D03*
X51752Y-40748D03*
X48181Y-42130D03*
X51917Y-42355D03*
X48197Y-41732D03*
X51398Y-42355D03*
X48075Y-41142D03*
X51638Y-42355D03*
X48201Y-40949D03*
X54721Y-43055D03*
X51091Y-40949D03*
X55225Y-43067D03*
G54D106*
X59065Y-40719D03*
G54D13*
X51669Y-35288D03*
G54D106*
X58435Y-41339D03*
G54D13*
X58536Y-41973D03*
X59281Y-42067D03*
X58740Y-41969D03*
X52465Y-41043D03*
X49535Y-42618D03*
X48154Y-42725D03*
G54D15*
X51169Y-44827D03*
X51169Y-45063D03*
G54D107*
X54752Y-45276D02*
X55032Y-45276D01*
X54542Y-45276D02*
X54752Y-45276D01*
G54D108*
X61791Y-44814D02*
X61685Y-44814D01*
X61685Y-44814D02*
X61488Y-45011D01*
X61791Y-44814D02*
X61791Y-45011D01*
X61488Y-45011D02*
X61791Y-45011D01*
G54D109*
X58976Y-46919D02*
X58976Y-46772D01*
X58976Y-46919D02*
X58977Y-47051D01*
X59843Y-43123D02*
X59940Y-43123D01*
X59940Y-43123D02*
X60142Y-42921D01*
X58799Y-43133D02*
X58277Y-43133D01*
X58277Y-43133D02*
X58264Y-43146D01*
X60215Y-35281D02*
X60177Y-35243D01*
X60177Y-35243D02*
X60177Y-35130D01*
X60215Y-35281D02*
X60619Y-35281D01*
X51445Y-34552D02*
X51169Y-34244D01*
X51445Y-34552D02*
X51445Y-35036D01*
G54D11*
X57756Y-43449D02*
X57756Y-43409D01*
X57067Y-42500D02*
X56949Y-42618D01*
X57123Y-42500D02*
X57067Y-42500D01*
X58272Y-43150D02*
X58264Y-43146D01*
G54D109*
X58272Y-43150D02*
X58270Y-42520D01*
G54D110*
X55299Y-38335D02*
X55299Y-38228D01*
X55299Y-38559D02*
X55299Y-38335D01*
G54D111*
X65695Y-35298D02*
X64130Y-35298D01*
X64130Y-35298D02*
X64129Y-35299D01*
X65711Y-44815D02*
X64236Y-44815D01*
X64236Y-44815D02*
X64236Y-44814D01*
G54D11*
X60619Y-35084D02*
X60619Y-34865D01*
X60619Y-34865D02*
X60677Y-34807D01*
X60619Y-35084D02*
X60910Y-35084D01*
X60910Y-35084D02*
X61024Y-35198D01*
X61200Y-35379D02*
X61200Y-35374D01*
X61200Y-35374D02*
X61024Y-35198D01*
X60905Y-35960D02*
X60905Y-35655D01*
X60905Y-35655D02*
X61024Y-35536D01*
X61781Y-35674D02*
X61520Y-35674D01*
X61520Y-35674D02*
X61386Y-35540D01*
X61781Y-35084D02*
X61503Y-35084D01*
X61503Y-35084D02*
X61394Y-35193D01*
X60619Y-35084D02*
X60905Y-35084D01*
X61988Y-44421D02*
X61854Y-44421D01*
X62381Y-44421D02*
X62559Y-44421D01*
X62578Y-44440D02*
X62578Y-44618D01*
X62559Y-44421D02*
X62578Y-44440D01*
X61988Y-45208D02*
X61988Y-45425D01*
X61988Y-44421D02*
X61988Y-44618D01*
X61988Y-44618D02*
X62185Y-44814D01*
X62578Y-44618D02*
X62381Y-44618D01*
X62381Y-44618D02*
X62185Y-44814D01*
X62381Y-44421D02*
X62381Y-44618D01*
X62381Y-44618D02*
X62185Y-44814D01*
X62381Y-45208D02*
X62381Y-45011D01*
X62381Y-45011D02*
X62185Y-44814D01*
X61988Y-45208D02*
X61988Y-45011D01*
X61988Y-45011D02*
X62185Y-44814D01*
G54D108*
X62381Y-45208D02*
X62578Y-45011D01*
G54D11*
X48154Y-36225D02*
X48158Y-36225D01*
G54D109*
X58740Y-41505D02*
X58740Y-40795D01*
X58740Y-40795D02*
X58732Y-40787D01*
X58830Y-41505D02*
X58740Y-41505D01*
X58740Y-41505D02*
X58633Y-41505D01*
X58830Y-41505D02*
X58830Y-40885D01*
X58830Y-40885D02*
X58732Y-40787D01*
X58633Y-41232D02*
X58633Y-41122D01*
X58633Y-41122D02*
X58515Y-41004D01*
X58633Y-41505D02*
X58633Y-41232D01*
X58638Y-38554D02*
X58638Y-38961D01*
X58638Y-38961D02*
X58732Y-39055D01*
X58048Y-38554D02*
X58048Y-39238D01*
X58048Y-39238D02*
X58082Y-39272D01*
X58245Y-38554D02*
X58245Y-39001D01*
X58245Y-39001D02*
X58299Y-39055D01*
X57866Y-39055D02*
X57866Y-39056D01*
X57866Y-39056D02*
X58082Y-39272D01*
X58082Y-39272D02*
X58299Y-39055D01*
X58150Y-38554D02*
X58150Y-39055D01*
X57866Y-39055D02*
X58150Y-39055D01*
X58150Y-39055D02*
X58299Y-39055D01*
X58048Y-38554D02*
X58150Y-38554D01*
X58150Y-38554D02*
X58245Y-38554D01*
G54D112*
X57508Y-47500D02*
X58002Y-47500D01*
G54D11*
X60032Y-44606D02*
X60032Y-44390D01*
X60032Y-44390D02*
X59961Y-44311D01*
X58622Y-44606D02*
X58626Y-44555D01*
X58626Y-44555D02*
X58626Y-44390D01*
X58437Y-43504D02*
X58413Y-43508D01*
X58622Y-43504D02*
X58437Y-43504D01*
X60032Y-43484D02*
X60205Y-43484D01*
G54D110*
X59665Y-37406D02*
X59882Y-37386D01*
X59665Y-37406D02*
X59665Y-37654D01*
G54D11*
X58472Y-36228D02*
X58256Y-36228D01*
X57102Y-36787D02*
X57102Y-36591D01*
X57102Y-36591D02*
X57106Y-36587D01*
G54D109*
X58388Y-45230D02*
X58616Y-45230D01*
X58172Y-45226D02*
X58258Y-45226D01*
X58172Y-45226D02*
X58192Y-45233D01*
X58192Y-45233D02*
X58388Y-45230D01*
G54D108*
X57666Y-44516D02*
X57668Y-44518D01*
G54D113*
X57518Y-48284D02*
X57984Y-48284D01*
G54D110*
X61298Y-34799D02*
X61298Y-35281D01*
X61298Y-35281D02*
X61299Y-35477D01*
X61298Y-35960D02*
X61298Y-35477D01*
G54D114*
X61298Y-35477D02*
X61299Y-35477D01*
G54D110*
X61823Y-35476D02*
X61298Y-35477D01*
G54D114*
X61298Y-35477D02*
X61299Y-35477D01*
G54D110*
X61781Y-35084D02*
X61961Y-35079D01*
X61961Y-35079D02*
X61957Y-34823D01*
X61957Y-34823D02*
X61957Y-34823D01*
X60905Y-35960D02*
X60906Y-36063D01*
X60906Y-36063D02*
X60906Y-36260D01*
X61781Y-35674D02*
X61780Y-35677D01*
X61780Y-35677D02*
X61957Y-35673D01*
X61957Y-35673D02*
X61957Y-35933D01*
G54D109*
X61870Y-36559D02*
X62154Y-36559D01*
G54D115*
X60197Y-41870D02*
X60197Y-41520D01*
X61102Y-40712D02*
X61102Y-40835D01*
X61228Y-42177D02*
X61228Y-40992D01*
X61228Y-40992D02*
X61102Y-40835D01*
X61224Y-42173D02*
X61228Y-42177D01*
X61228Y-42324D02*
X61127Y-42425D01*
X61127Y-42425D02*
X60303Y-42425D01*
X60303Y-42425D02*
X60205Y-42327D01*
X60205Y-42327D02*
X60205Y-42181D01*
X61228Y-42177D02*
X61228Y-42324D01*
X60831Y-40835D02*
X60827Y-40831D01*
X61102Y-40835D02*
X60831Y-40835D01*
X60197Y-40792D02*
X60197Y-41520D01*
X60347Y-40642D02*
X60197Y-40792D01*
X61032Y-40642D02*
X60347Y-40642D01*
X61102Y-40712D02*
X61032Y-40642D01*
G54D11*
X60882Y-38087D02*
X60882Y-37996D01*
X60618Y-38110D02*
X60641Y-38087D01*
X60641Y-38087D02*
X60882Y-38087D01*
X60012Y-38008D02*
X60012Y-38276D01*
X60098Y-37921D02*
X60012Y-38008D01*
X60788Y-37921D02*
X60098Y-37921D01*
X60882Y-37996D02*
X60788Y-37921D01*
G54D115*
X60882Y-38087D02*
X60882Y-39299D01*
X60882Y-39299D02*
X60776Y-39405D01*
G54D11*
X60618Y-38414D02*
X60618Y-38110D01*
G54D115*
X60776Y-39405D02*
X60780Y-39406D01*
X60780Y-39406D02*
X60780Y-39551D01*
X60035Y-39504D02*
X60035Y-38630D01*
X60177Y-39646D02*
X60035Y-39504D01*
X60685Y-39646D02*
X60177Y-39646D01*
X60780Y-39551D02*
X60685Y-39646D01*
X60780Y-39406D02*
X60618Y-39406D01*
X60815Y-42173D02*
X61224Y-42173D01*
X60815Y-41862D02*
X60815Y-42173D01*
G54D110*
X59130Y-38330D02*
X59147Y-38330D01*
X59147Y-38330D02*
X59354Y-38123D01*
X59354Y-38123D02*
X59350Y-37213D01*
G54D108*
X56079Y-35874D02*
X56079Y-35374D01*
X56079Y-35374D02*
X56091Y-35378D01*
X55579Y-34623D02*
X55579Y-35130D01*
X57666Y-43982D02*
X57666Y-44516D01*
G54D11*
X59577Y-36230D02*
X59577Y-36073D01*
X59577Y-36073D02*
X59508Y-36051D01*
X59602Y-35744D02*
X59602Y-35858D01*
X59602Y-35858D02*
X59650Y-35925D01*
X58460Y-35634D02*
X58354Y-35528D01*
X58460Y-35634D02*
X58460Y-35740D01*
X57094Y-35512D02*
X57094Y-35315D01*
X57094Y-35315D02*
X57094Y-35291D01*
X58179Y-35522D02*
X58348Y-35522D01*
X58348Y-35522D02*
X58354Y-35528D01*
X58179Y-36781D02*
X58368Y-36781D01*
X58368Y-36781D02*
X58370Y-36783D01*
G54D116*
X48299Y-37402D02*
X48532Y-37457D01*
X48299Y-37402D02*
X48165Y-37402D01*
X60266Y-35482D02*
X60619Y-35477D01*
X48339Y-37205D02*
X48193Y-37205D01*
X48339Y-37205D02*
X48555Y-37126D01*
X60327Y-35674D02*
X60246Y-35719D01*
X60327Y-35674D02*
X60619Y-35674D01*
G54D11*
X61511Y-44618D02*
X61791Y-44618D01*
G54D107*
X55217Y-44988D02*
X55217Y-44622D01*
G54D11*
X55288Y-40421D02*
X56051Y-40421D01*
X56051Y-40621D02*
X55816Y-40621D01*
X55816Y-40621D02*
X55701Y-40618D01*
G54D114*
X55366Y-40819D02*
X56055Y-40815D01*
G54D116*
X55830Y-41730D02*
X55728Y-41832D01*
X55705Y-41839D02*
X55728Y-41832D01*
X56368Y-41730D02*
X55830Y-41730D01*
G54D109*
X59228Y-40327D02*
X59067Y-40327D01*
X59067Y-40327D02*
X59065Y-40325D01*
G54D116*
X51732Y-36461D02*
X51941Y-36461D01*
X51941Y-36461D02*
X51976Y-36496D01*
G54D109*
X56276Y-41310D02*
X56416Y-41310D01*
X56416Y-41310D02*
X56447Y-41309D01*
G54D116*
X59228Y-40523D02*
X59231Y-40523D01*
G54D109*
X59065Y-40522D02*
X59231Y-40523D01*
G54D116*
X59449Y-40425D02*
X59669Y-40425D01*
X59669Y-40425D02*
X59669Y-40425D01*
G54D114*
X56051Y-39833D02*
X55821Y-39833D01*
X55821Y-39833D02*
X55736Y-39831D01*
G54D115*
X60193Y-40031D02*
X60319Y-39984D01*
G54D11*
X60193Y-40031D02*
X59429Y-40031D01*
G54D109*
X56870Y-38720D02*
X56870Y-38553D01*
G54D116*
X55981Y-37386D02*
X55973Y-37386D01*
X56870Y-38553D02*
X56768Y-38398D01*
X56768Y-38398D02*
X56768Y-38330D01*
G54D111*
X61780Y-35281D02*
X63757Y-35281D01*
X63757Y-35281D02*
X63775Y-35299D01*
G54D11*
X61495Y-35960D02*
X61495Y-36554D01*
X61495Y-36554D02*
X61500Y-36559D01*
G54D111*
X63882Y-44814D02*
X62578Y-44814D01*
G54D109*
X59065Y-38750D02*
X59228Y-38753D01*
X57154Y-41717D02*
X57154Y-41913D01*
X57154Y-41949D02*
X57205Y-42071D01*
X57154Y-41913D02*
X57154Y-41949D01*
X59065Y-40915D02*
X59228Y-40918D01*
G54D115*
X60473Y-41181D02*
X60473Y-41540D01*
X60473Y-41000D02*
X60473Y-41181D01*
X60473Y-40831D02*
X60473Y-41000D01*
X60461Y-42012D02*
X60461Y-41890D01*
X59026Y-41505D02*
X59283Y-41504D01*
X59283Y-41504D02*
X59799Y-42024D01*
X59799Y-42024D02*
X60449Y-42024D01*
X60449Y-42024D02*
X60461Y-42012D01*
X60461Y-42012D02*
X60461Y-42173D01*
G54D109*
X59228Y-39343D02*
X59067Y-39343D01*
X59067Y-39343D02*
X59065Y-39341D01*
G54D115*
X60264Y-38772D02*
X60264Y-39079D01*
X60264Y-39079D02*
X60264Y-39150D01*
X60264Y-39150D02*
X60339Y-39244D01*
X60339Y-39244D02*
X60264Y-39319D01*
X60264Y-39319D02*
X60264Y-39406D01*
X59453Y-38653D02*
X59572Y-38653D01*
X59823Y-38402D02*
X60264Y-38402D01*
X59572Y-38653D02*
X59823Y-38402D01*
G54D11*
X60264Y-38402D02*
X60264Y-38110D01*
G54D115*
X60618Y-38784D02*
X60618Y-39079D01*
X60618Y-39079D02*
X60622Y-39083D01*
G54D11*
X59665Y-38300D02*
X59508Y-38300D01*
X59665Y-38024D02*
X59665Y-38300D01*
X59254Y-38554D02*
X59033Y-38554D01*
X59508Y-38300D02*
X59254Y-38554D01*
X60835Y-41173D02*
X60835Y-41496D01*
G54D109*
X57254Y-41339D02*
X57254Y-41504D01*
X57254Y-41504D02*
X57255Y-41505D01*
G54D116*
X57655Y-38554D02*
X57655Y-38537D01*
X57556Y-38438D02*
X57556Y-38330D01*
X57655Y-38537D02*
X57556Y-38438D01*
X58836Y-38554D02*
X58836Y-38517D01*
X58738Y-38419D02*
X58738Y-38330D01*
X58836Y-38517D02*
X58738Y-38419D01*
X57458Y-38554D02*
X57458Y-38529D01*
X57360Y-38431D02*
X57360Y-38330D01*
X57458Y-38529D02*
X57360Y-38431D01*
G54D11*
X56890Y-37220D02*
X56134Y-37220D01*
X56134Y-37220D02*
X55886Y-36972D01*
X55886Y-36972D02*
X55886Y-36480D01*
X57260Y-37221D02*
X57260Y-37099D01*
X56228Y-36780D02*
X56228Y-36500D01*
X56456Y-37008D02*
X56228Y-36780D01*
X57169Y-37008D02*
X56456Y-37008D01*
X57260Y-37099D02*
X57169Y-37008D01*
X56576Y-36547D02*
X56576Y-35877D01*
X56576Y-35877D02*
X56579Y-35874D01*
X55575Y-36473D02*
X55574Y-35879D01*
X55574Y-35879D02*
X55579Y-35874D01*
X56874Y-37567D02*
X56874Y-37961D01*
X56874Y-37961D02*
X56897Y-37984D01*
X56966Y-38330D02*
X56966Y-38053D01*
X56966Y-38053D02*
X56897Y-37984D01*
G54D112*
X52788Y-44906D02*
X53106Y-44906D01*
X52788Y-44906D02*
X52788Y-44912D01*
X52788Y-44912D02*
X52811Y-44992D01*
X52473Y-44906D02*
X52788Y-44906D01*
G54D111*
X57114Y-34433D02*
X56866Y-34433D01*
X57744Y-34433D02*
X57114Y-34433D01*
G54D116*
X56587Y-34623D02*
X56579Y-34623D01*
X56587Y-34776D02*
X56587Y-34623D01*
X57421Y-34776D02*
X56587Y-34776D01*
X57433Y-34776D02*
X57421Y-34776D01*
X57433Y-34642D02*
X57433Y-34776D01*
X57433Y-34642D02*
X57433Y-34642D01*
X56866Y-34642D02*
X57433Y-34642D01*
X56866Y-34433D02*
X56866Y-34642D01*
X56866Y-34433D02*
X56866Y-34433D01*
G54D11*
X57677Y-37225D02*
X57677Y-37022D01*
X57677Y-37022D02*
X57441Y-36786D01*
X57441Y-36786D02*
X57441Y-36289D01*
X57753Y-38330D02*
X57753Y-38041D01*
X57677Y-37965D02*
X57677Y-37579D01*
X57753Y-38041D02*
X57677Y-37965D01*
G54D111*
X57480Y-45803D02*
X56591Y-45803D01*
X56591Y-45803D02*
X56453Y-45795D01*
X56453Y-45795D02*
X56348Y-45728D01*
X56348Y-45728D02*
X56299Y-45659D01*
X56299Y-45659D02*
X56299Y-45453D01*
G54D114*
X56853Y-45203D02*
X56278Y-45203D01*
X56278Y-45203D02*
X56278Y-45034D01*
X56278Y-45034D02*
X57164Y-45034D01*
X56853Y-45427D02*
X56853Y-45207D01*
X56282Y-45427D02*
X56853Y-45427D01*
X56853Y-45207D02*
X56853Y-45203D01*
X57164Y-45030D02*
X57164Y-45230D01*
G54D11*
X57950Y-38330D02*
X57950Y-38086D01*
X58071Y-37965D02*
X58071Y-37579D01*
X57950Y-38086D02*
X58071Y-37965D01*
X58004Y-43287D02*
X58004Y-43421D01*
X58164Y-43581D02*
X58164Y-43981D01*
X58004Y-43421D02*
X58164Y-43581D01*
X58976Y-43885D02*
X58976Y-43504D01*
X58976Y-43504D02*
X59124Y-43356D01*
X59124Y-43356D02*
X59124Y-43130D01*
X58343Y-38330D02*
X58343Y-38247D01*
X58701Y-38126D02*
X58957Y-37870D01*
X58464Y-38126D02*
X58701Y-38126D01*
X58343Y-38247D02*
X58464Y-38126D01*
X58957Y-37870D02*
X58957Y-37665D01*
X58957Y-37665D02*
X59016Y-37606D01*
X59016Y-37606D02*
X59016Y-37484D01*
X59016Y-37484D02*
X59012Y-37480D01*
G54D116*
X58441Y-38554D02*
X58441Y-38501D01*
X58541Y-38401D02*
X58541Y-38330D01*
X58441Y-38501D02*
X58541Y-38401D01*
G54D11*
X58799Y-42793D02*
X59107Y-42793D01*
X59130Y-42770D02*
X59130Y-42477D01*
X59107Y-42793D02*
X59130Y-42770D01*
X59130Y-42477D02*
X58567Y-42476D01*
X58567Y-42476D02*
X58141Y-41960D01*
X58141Y-41960D02*
X58141Y-41730D01*
G54D109*
X53539Y-43862D02*
X53858Y-43858D01*
X53858Y-43858D02*
X53990Y-43882D01*
G54D117*
X53539Y-43870D02*
X53539Y-43862D01*
X53539Y-44197D02*
X53539Y-43870D01*
X53453Y-44036D02*
X53539Y-44197D01*
X52472Y-44036D02*
X53453Y-44036D01*
G54D11*
X57461Y-43287D02*
X57461Y-43386D01*
X57164Y-43683D02*
X57164Y-43981D01*
X57461Y-43386D02*
X57164Y-43683D01*
X59012Y-37126D02*
X59012Y-37047D01*
X59252Y-36807D02*
X59252Y-36587D01*
X59012Y-37047D02*
X59252Y-36807D01*
X59252Y-36587D02*
X59255Y-36584D01*
X59255Y-36584D02*
X59577Y-36584D01*
X59693Y-44232D02*
X59693Y-44605D01*
X59693Y-44605D02*
X59692Y-44606D01*
X58976Y-44606D02*
X58976Y-44225D01*
X59327Y-45031D02*
X59327Y-44614D01*
X59327Y-44614D02*
X59335Y-44606D01*
X58976Y-44606D02*
X59335Y-44606D01*
X59335Y-44606D02*
X59692Y-44606D01*
X57163Y-38330D02*
X57163Y-38058D01*
X57260Y-37961D02*
X57260Y-37575D01*
X57163Y-38058D02*
X57260Y-37961D01*
X57825Y-35952D02*
X57825Y-35522D01*
X57825Y-35522D02*
X57815Y-35512D01*
X57815Y-35512D02*
X57622Y-35512D01*
X57622Y-35512D02*
X57434Y-35512D01*
X57434Y-35512D02*
X57441Y-35519D01*
X57441Y-35519D02*
X57441Y-35935D01*
X57622Y-35512D02*
X57622Y-35059D01*
X58071Y-37027D02*
X57825Y-36781D01*
X58071Y-37225D02*
X58071Y-37027D01*
X57825Y-36781D02*
X57825Y-36292D01*
X57667Y-42165D02*
X57667Y-42296D01*
X57461Y-42502D02*
X57461Y-42933D01*
X57667Y-42296D02*
X57461Y-42502D01*
X57746Y-41730D02*
X57746Y-41900D01*
X57667Y-41979D02*
X57667Y-42165D01*
X57746Y-41900D02*
X57667Y-41979D01*
X58021Y-42165D02*
X58021Y-42455D01*
X58021Y-42455D02*
X57956Y-42520D01*
X57956Y-42520D02*
X57956Y-42885D01*
X57956Y-42885D02*
X58004Y-42933D01*
X57943Y-41730D02*
X57943Y-41881D01*
X58021Y-41959D02*
X58021Y-42165D01*
X57943Y-41881D02*
X58021Y-41959D01*
X59693Y-43878D02*
X59693Y-43485D01*
X59488Y-43280D02*
X59488Y-43130D01*
X59693Y-43485D02*
X59488Y-43280D01*
X58547Y-37126D02*
X58547Y-37067D01*
X58547Y-37067D02*
X58799Y-36815D01*
X58792Y-36568D02*
X58472Y-36568D01*
X58799Y-36815D02*
X58799Y-36575D01*
X58799Y-36575D02*
X58792Y-36568D01*
X59453Y-41212D02*
X60050Y-41212D01*
X60050Y-41212D02*
X60030Y-41211D01*
G54D115*
X60019Y-41212D02*
X60030Y-41211D01*
G54D116*
X59453Y-41017D02*
X59377Y-41017D01*
X59279Y-41115D02*
X59228Y-41115D01*
X59377Y-41017D02*
X59279Y-41115D01*
G54D109*
X59075Y-41112D02*
X59225Y-41112D01*
X59225Y-41112D02*
X59228Y-41115D01*
G54D115*
X60014Y-41400D02*
X60039Y-41437D01*
X60014Y-41400D02*
X59453Y-41400D01*
G54D11*
X59016Y-35740D02*
X58800Y-35740D01*
X58800Y-35740D02*
X58799Y-35741D01*
X59252Y-36247D02*
X59252Y-35748D01*
X59244Y-35740D02*
X59016Y-35740D01*
X59252Y-35748D02*
X59244Y-35740D01*
X58799Y-35741D02*
X58799Y-36221D01*
X59016Y-35305D02*
X59016Y-35740D01*
X59484Y-42477D02*
X59484Y-42772D01*
X59495Y-42783D02*
X59843Y-42783D01*
X59484Y-42772D02*
X59495Y-42783D01*
X59484Y-42477D02*
X59484Y-42388D01*
X59484Y-42388D02*
X59379Y-42283D01*
X59379Y-42283D02*
X58571Y-42283D01*
X58571Y-42283D02*
X58339Y-41984D01*
X58339Y-41984D02*
X58339Y-41713D01*
X58146Y-38330D02*
X58146Y-38224D01*
X58500Y-37870D02*
X58617Y-37870D01*
X58146Y-38224D02*
X58500Y-37870D01*
X58617Y-37870D02*
X58614Y-37867D01*
X58614Y-37867D02*
X58614Y-37712D01*
X58614Y-37712D02*
X58547Y-37645D01*
X58547Y-37645D02*
X58547Y-37480D01*
G54D113*
X56492Y-47343D02*
X55087Y-47343D01*
X57047Y-47480D02*
X56585Y-47480D01*
X56585Y-47480D02*
X56492Y-47343D01*
G54D109*
X55638Y-36756D02*
X55642Y-36760D01*
X57067Y-38720D02*
X57067Y-38553D01*
X57067Y-38553D02*
X57260Y-38554D01*
G54D110*
X59195Y-41730D02*
X59272Y-41807D01*
X59195Y-41730D02*
X59123Y-41730D01*
G54D109*
X59347Y-47051D02*
X59732Y-47051D01*
X59732Y-47051D02*
X59791Y-46992D01*
G54D115*
X59453Y-39048D02*
X59645Y-39048D01*
X59645Y-39048D02*
X59748Y-39020D01*
G54D109*
X58238Y-41505D02*
X58238Y-41339D01*
X57846Y-41505D02*
X57648Y-41505D01*
X57846Y-41505D02*
X58043Y-41505D01*
X58043Y-41505D02*
X58238Y-41505D01*
X59228Y-39145D02*
X59066Y-39145D01*
X59066Y-39145D02*
X59065Y-39144D01*
G54D11*
X59453Y-38852D02*
X59843Y-38854D01*
X59462Y-39236D02*
X59453Y-39245D01*
X59843Y-39240D02*
X59462Y-39236D01*
X59917Y-39173D02*
X59843Y-39240D01*
X59917Y-38929D02*
X59917Y-39173D01*
X59843Y-38854D02*
X59917Y-38929D01*
G54D116*
X59453Y-39245D02*
X59390Y-39217D01*
X59295Y-39217D02*
X59228Y-39145D01*
X59295Y-39217D02*
X59295Y-39217D01*
X59390Y-39217D02*
X59295Y-39217D01*
X59453Y-39442D02*
X59453Y-39445D01*
X59453Y-39445D02*
X59417Y-39481D01*
X59417Y-39481D02*
X59276Y-39481D01*
X59276Y-39481D02*
X59225Y-39500D01*
X59225Y-39500D02*
X59225Y-39551D01*
G54D115*
X59453Y-39245D02*
X59453Y-39442D01*
G54D109*
X59228Y-38950D02*
X59068Y-38950D01*
X59068Y-38950D02*
X59065Y-38947D01*
G54D110*
X56051Y-39243D02*
X55292Y-39243D01*
X55292Y-39243D02*
X55299Y-39236D01*
X55299Y-39236D02*
X55299Y-38929D01*
G54D109*
X59228Y-40132D02*
X59059Y-40132D01*
X59059Y-40132D02*
X59055Y-40128D01*
G54D11*
X57851Y-38554D02*
X57851Y-38554D01*
G54D109*
X57854Y-38720D02*
X57851Y-38554D01*
G54D116*
X58933Y-38232D02*
X58933Y-38330D01*
X58933Y-38232D02*
X59142Y-38126D01*
X59142Y-38126D02*
X59150Y-37972D01*
G54D109*
X57057Y-41339D02*
X57057Y-41504D01*
X57057Y-41504D02*
X57058Y-41505D01*
G54D11*
X56051Y-38652D02*
X55967Y-38652D01*
X55967Y-38652D02*
X55933Y-38618D01*
X55933Y-38618D02*
X55933Y-38528D01*
G54D109*
X56437Y-39734D02*
X56276Y-39735D01*
X56437Y-40325D02*
X56276Y-40326D01*
G54D11*
X56763Y-41730D02*
X56763Y-42056D01*
X56763Y-42056D02*
X56260Y-42559D01*
X56260Y-42559D02*
X56260Y-42953D01*
G54D109*
X56860Y-41505D02*
X56860Y-41339D01*
X59065Y-41309D02*
X59228Y-41312D01*
X59228Y-39933D02*
X59067Y-39933D01*
X59067Y-39933D02*
X59065Y-39931D01*
G54D11*
X55623Y-39637D02*
X55394Y-39638D01*
X56051Y-39637D02*
X55623Y-39637D01*
G54D109*
X56437Y-41112D02*
X56276Y-41113D01*
G54D116*
X56279Y-39932D02*
X56276Y-39932D01*
G54D109*
X56437Y-39931D02*
X56279Y-39932D01*
G54D11*
X56051Y-39046D02*
X55941Y-39047D01*
X55941Y-39047D02*
X55831Y-39047D01*
X55831Y-39047D02*
X55831Y-39047D01*
G54D109*
X56276Y-40916D02*
X56437Y-40915D01*
X56437Y-40128D02*
X56276Y-40129D01*
G54D11*
X56071Y-40032D02*
X55303Y-40032D01*
G54D109*
X56437Y-38750D02*
X56276Y-38751D01*
G54D11*
X55709Y-39441D02*
X56043Y-39441D01*
X55709Y-39441D02*
X55709Y-39445D01*
X56960Y-42064D02*
X56957Y-42059D01*
X56960Y-42064D02*
X56960Y-41730D01*
G54D109*
X56663Y-41339D02*
X56665Y-41505D01*
G54D115*
X59583Y-40622D02*
X59453Y-40622D01*
X59583Y-40622D02*
X59740Y-40740D01*
G54D116*
X59701Y-39835D02*
X59787Y-39870D01*
X59701Y-39835D02*
X59451Y-39835D01*
G54D11*
X55848Y-38849D02*
X55555Y-39028D01*
X56051Y-38849D02*
X55848Y-38849D01*
G54D109*
X56276Y-38948D02*
X56436Y-38948D01*
X56436Y-38948D02*
X56437Y-38947D01*
X56437Y-39537D02*
X56276Y-39538D01*
G54D116*
X56278Y-39341D02*
X56276Y-39341D01*
G54D109*
X56437Y-39341D02*
X56278Y-39341D01*
X56437Y-40719D02*
X56276Y-40719D01*
X56051Y-40227D02*
X55817Y-40227D01*
X55817Y-40227D02*
X55772Y-40232D01*
G54D11*
X55890Y-41016D02*
X56051Y-41015D01*
G54D114*
X55890Y-41016D02*
X55890Y-41016D01*
G54D11*
X55260Y-41209D02*
X56055Y-41209D01*
G54D114*
X55816Y-41407D02*
X55815Y-41406D01*
G54D11*
X56051Y-41407D02*
X55816Y-41407D01*
G54D116*
X56267Y-41505D02*
X56181Y-41591D01*
X56181Y-41591D02*
X55697Y-41591D01*
X55697Y-41591D02*
X55445Y-41846D01*
X56468Y-41505D02*
X56267Y-41505D01*
G54D11*
X56506Y-41937D02*
X56303Y-41937D01*
X56566Y-41877D02*
X56506Y-41937D01*
X56566Y-41877D02*
X56566Y-41730D01*
G54D109*
X56437Y-39144D02*
X56276Y-39144D01*
X56437Y-40522D02*
X56276Y-40522D01*
G54D11*
X59453Y-40228D02*
X59643Y-40228D01*
X59643Y-40228D02*
X59646Y-40225D01*
G54D109*
X59228Y-39737D02*
X59065Y-39734D01*
G54D116*
X51445Y-35418D02*
X51445Y-35929D01*
G54D114*
X56227Y-38554D02*
X55984Y-38311D01*
X55984Y-38311D02*
X55984Y-38016D01*
X56227Y-38554D02*
X56473Y-38554D01*
X56374Y-38177D02*
X56319Y-38122D01*
X56374Y-38177D02*
X56374Y-38330D01*
X56571Y-38134D02*
X56575Y-38130D01*
X56571Y-38134D02*
X56571Y-38330D01*
G54D116*
X56673Y-38553D02*
X56671Y-38554D01*
G54D109*
X56673Y-38711D02*
X56673Y-38553D01*
G54D111*
X60972Y-36531D02*
X61059Y-36417D01*
X59717Y-35299D02*
X59854Y-35323D01*
X59854Y-35323D02*
X59961Y-35413D01*
X59961Y-35413D02*
X60035Y-35539D01*
X60035Y-35539D02*
X60051Y-35693D01*
X60051Y-35693D02*
X60051Y-35988D01*
X60051Y-35988D02*
X60051Y-36394D01*
X60051Y-36394D02*
X60098Y-36520D01*
X60098Y-36520D02*
X60224Y-36618D01*
X60224Y-36618D02*
X60378Y-36642D01*
X60378Y-36642D02*
X60713Y-36642D01*
X60713Y-36642D02*
X60862Y-36606D01*
X60862Y-36606D02*
X60972Y-36531D01*
X59370Y-35299D02*
X59717Y-35299D01*
X61102Y-36264D02*
X61102Y-35959D01*
X61059Y-36417D02*
X61102Y-36264D01*
X60622Y-34417D02*
X60456Y-34417D01*
X58669Y-35062D02*
X58444Y-35082D01*
X61102Y-34799D02*
X61110Y-34656D01*
X58220Y-35075D02*
X57965Y-35075D01*
X58444Y-35082D02*
X58220Y-35075D01*
X61043Y-34515D02*
X60964Y-34460D01*
X61098Y-34618D02*
X61043Y-34515D01*
X61110Y-34730D02*
X61098Y-34618D01*
X61110Y-34656D02*
X61110Y-34730D01*
X60740Y-34421D02*
X60622Y-34417D01*
X60870Y-34425D02*
X60740Y-34421D01*
X60964Y-34460D02*
X60870Y-34425D01*
X59224Y-34921D02*
X58972Y-34996D01*
X58972Y-34996D02*
X58669Y-35062D01*
X60232Y-34444D02*
X59968Y-34519D01*
X59968Y-34519D02*
X59681Y-34661D01*
X59681Y-34661D02*
X59488Y-34783D01*
X59488Y-34783D02*
X59224Y-34921D01*
X60456Y-34417D02*
X60232Y-34444D01*
X58248Y-34429D02*
X58389Y-34429D01*
X60740Y-34208D02*
X60133Y-34208D01*
X61496Y-34645D02*
X61476Y-34515D01*
X61476Y-34515D02*
X61389Y-34381D01*
X61389Y-34381D02*
X61244Y-34299D01*
X61244Y-34299D02*
X61082Y-34255D01*
X61082Y-34255D02*
X60917Y-34220D01*
X60917Y-34220D02*
X60740Y-34208D01*
X61495Y-34799D02*
X61496Y-34645D01*
X58248Y-34429D02*
X58106Y-34429D01*
X58389Y-34429D02*
X58614Y-34397D01*
X58614Y-34397D02*
X58889Y-34338D01*
X58889Y-34338D02*
X59181Y-34279D01*
X59181Y-34279D02*
X59452Y-34240D01*
X59452Y-34240D02*
X59759Y-34228D01*
X59759Y-34228D02*
X60133Y-34208D01*
G54D109*
X59228Y-40722D02*
X59065Y-40719D01*
G54D116*
X58436Y-41507D02*
X58436Y-41505D01*
G54D109*
X58435Y-41339D02*
X58436Y-41507D01*
G54D116*
X58535Y-41972D02*
X58536Y-41973D01*
X58535Y-41972D02*
X58535Y-41730D01*
X58925Y-41953D02*
X58925Y-41756D01*
X59201Y-41953D02*
X59281Y-42067D01*
X58925Y-41953D02*
X59201Y-41953D01*
X58732Y-41969D02*
X58740Y-41969D01*
X58732Y-41969D02*
X58732Y-41713D01*
G54D111*
X59681Y-45031D02*
X60098Y-45031D01*
X62185Y-44251D02*
X62185Y-44421D01*
X62094Y-43933D02*
X62165Y-44070D01*
X62165Y-44070D02*
X62185Y-44251D01*
X61248Y-43818D02*
X61385Y-43740D01*
X61385Y-43740D02*
X61539Y-43716D01*
X61539Y-43716D02*
X61677Y-43708D01*
X61677Y-43708D02*
X61838Y-43728D01*
X61838Y-43728D02*
X61988Y-43803D01*
X61988Y-43803D02*
X62094Y-43933D01*
X60098Y-45031D02*
X60287Y-44996D01*
X60287Y-44996D02*
X60496Y-44885D01*
X60496Y-44885D02*
X60673Y-44767D01*
X60673Y-44767D02*
X60799Y-44614D01*
X60799Y-44614D02*
X60877Y-44452D01*
X60877Y-44452D02*
X60929Y-44283D01*
X60929Y-44283D02*
X61000Y-44110D01*
X61000Y-44110D02*
X61106Y-43940D01*
X61106Y-43940D02*
X61248Y-43818D01*
X57823Y-45799D02*
X58346Y-45799D01*
X62185Y-45464D02*
X62185Y-45208D01*
X58346Y-45799D02*
X58503Y-45787D01*
X58503Y-45787D02*
X58783Y-45751D01*
X58783Y-45751D02*
X59114Y-45661D01*
X59114Y-45661D02*
X59484Y-45535D01*
X59484Y-45535D02*
X59791Y-45496D01*
X59791Y-45496D02*
X60137Y-45511D01*
X60137Y-45511D02*
X60381Y-45562D01*
X60381Y-45562D02*
X60740Y-45685D01*
X60740Y-45685D02*
X61051Y-45791D01*
X61051Y-45791D02*
X61366Y-45850D01*
X61366Y-45850D02*
X61641Y-45850D01*
X61641Y-45850D02*
X61881Y-45834D01*
X61881Y-45834D02*
X62051Y-45767D01*
X62051Y-45767D02*
X62165Y-45629D01*
X62165Y-45629D02*
X62185Y-45464D01*
G54D113*
X57126Y-48292D02*
X56583Y-48292D01*
X56575Y-48311D02*
X56576Y-49079D01*
G54D108*
X51169Y-45063D02*
X51169Y-44827D01*
X51169Y-44827D02*
X51169Y-44827D01*
X51169Y-44827D02*
X51563Y-44827D01*
G54D112*
X51469Y-43937D02*
X51568Y-44036D01*
X51469Y-43372D02*
X51469Y-43937D01*
G54D10*
G36*
X66004Y-49508D02*
X63988Y-49508D01*
X63988Y-48965D01*
X63955Y-48885D01*
X63894Y-48824D01*
X63814Y-48791D01*
X63728Y-48791D01*
X63649Y-48824D01*
X63588Y-48885D01*
X63555Y-48964D01*
X63555Y-49050D01*
X63588Y-49130D01*
X63648Y-49191D01*
X63728Y-49224D01*
X63814Y-49224D01*
X63894Y-49191D01*
X63954Y-49130D01*
X63987Y-49051D01*
X63988Y-48965D01*
X63988Y-49508D01*
X63435Y-49508D01*
X63435Y-48272D01*
X63375Y-48128D01*
X63265Y-48017D01*
X63121Y-47958D01*
X62965Y-47957D01*
X62821Y-48017D01*
X62710Y-48127D01*
X62651Y-48271D01*
X62650Y-48427D01*
X62710Y-48571D01*
X62820Y-48682D01*
X62964Y-48741D01*
X63120Y-48742D01*
X63264Y-48682D01*
X63375Y-48572D01*
X63434Y-48428D01*
X63435Y-48272D01*
X63435Y-49508D01*
X62435Y-49508D01*
X62435Y-48272D01*
X62375Y-48128D01*
X62265Y-48017D01*
X62121Y-47958D01*
X61965Y-47957D01*
X61821Y-48017D01*
X61710Y-48127D01*
X61651Y-48271D01*
X61650Y-48427D01*
X61710Y-48571D01*
X61820Y-48682D01*
X61964Y-48741D01*
X62120Y-48742D01*
X62264Y-48682D01*
X62375Y-48572D01*
X62434Y-48428D01*
X62435Y-48272D01*
X62435Y-49508D01*
X60435Y-49508D01*
X60435Y-48272D01*
X60375Y-48128D01*
X60265Y-48017D01*
X60121Y-47958D01*
X60041Y-47957D01*
X60041Y-47130D01*
X60041Y-46816D01*
X60027Y-46782D01*
X60001Y-46755D01*
X59966Y-46741D01*
X59929Y-46741D01*
X59615Y-46741D01*
X59581Y-46755D01*
X59554Y-46781D01*
X59540Y-46816D01*
X59540Y-46853D01*
X59540Y-46899D01*
X59512Y-46899D01*
X59487Y-46874D01*
X59453Y-46860D01*
X59415Y-46859D01*
X59240Y-46859D01*
X59206Y-46874D01*
X59180Y-46900D01*
X59167Y-46932D01*
X59167Y-46734D01*
X59138Y-46663D01*
X59084Y-46610D01*
X59014Y-46581D01*
X58938Y-46580D01*
X58867Y-46609D01*
X58814Y-46663D01*
X58785Y-46733D01*
X58784Y-46809D01*
X58813Y-46880D01*
X58822Y-46888D01*
X58810Y-46900D01*
X58796Y-46934D01*
X58795Y-46972D01*
X58795Y-47167D01*
X58810Y-47201D01*
X58836Y-47227D01*
X58870Y-47241D01*
X58908Y-47242D01*
X59083Y-47242D01*
X59117Y-47227D01*
X59143Y-47201D01*
X59157Y-47167D01*
X59158Y-47129D01*
X59158Y-46934D01*
X59143Y-46900D01*
X59130Y-46887D01*
X59137Y-46880D01*
X59166Y-46810D01*
X59167Y-46734D01*
X59167Y-46932D01*
X59166Y-46934D01*
X59165Y-46972D01*
X59165Y-47167D01*
X59180Y-47201D01*
X59206Y-47227D01*
X59240Y-47241D01*
X59278Y-47242D01*
X59453Y-47242D01*
X59487Y-47227D01*
X59512Y-47203D01*
X59555Y-47203D01*
X59580Y-47228D01*
X59615Y-47242D01*
X59652Y-47242D01*
X59966Y-47242D01*
X60000Y-47228D01*
X60027Y-47202D01*
X60041Y-47167D01*
X60041Y-47130D01*
X60041Y-47957D01*
X59965Y-47957D01*
X59821Y-48017D01*
X59710Y-48127D01*
X59651Y-48271D01*
X59650Y-48427D01*
X59710Y-48571D01*
X59820Y-48682D01*
X59964Y-48741D01*
X60120Y-48742D01*
X60264Y-48682D01*
X60375Y-48572D01*
X60434Y-48428D01*
X60435Y-48272D01*
X60435Y-49508D01*
X59435Y-49508D01*
X59435Y-48609D01*
X59435Y-48012D01*
X59420Y-47978D01*
X59394Y-47952D01*
X59360Y-47938D01*
X59322Y-47937D01*
X58725Y-47937D01*
X58691Y-47952D01*
X58665Y-47978D01*
X58651Y-48012D01*
X58650Y-48050D01*
X58650Y-48647D01*
X58665Y-48681D01*
X58691Y-48707D01*
X58725Y-48721D01*
X58763Y-48722D01*
X59360Y-48722D01*
X59394Y-48707D01*
X59420Y-48681D01*
X59434Y-48647D01*
X59435Y-48609D01*
X59435Y-49508D01*
X57806Y-49508D01*
X57780Y-49497D01*
X57672Y-49497D01*
X57645Y-49508D01*
X57376Y-49508D01*
X57376Y-48292D01*
X57357Y-48196D01*
X57319Y-48138D01*
X57319Y-48108D01*
X57309Y-48084D01*
X57309Y-47638D01*
X57309Y-47324D01*
X57294Y-47290D01*
X57268Y-47263D01*
X57234Y-47249D01*
X57196Y-47249D01*
X57144Y-47249D01*
X57142Y-47248D01*
X57047Y-47229D01*
X56861Y-47229D01*
X56861Y-47132D01*
X56847Y-47098D01*
X56821Y-47071D01*
X56786Y-47057D01*
X56749Y-47057D01*
X56277Y-47057D01*
X56243Y-47071D01*
X56222Y-47092D01*
X55950Y-47092D01*
X55950Y-47014D01*
X55935Y-46979D01*
X55908Y-46952D01*
X55872Y-46937D01*
X55834Y-46937D01*
X54417Y-46937D01*
X54381Y-46952D01*
X54354Y-46979D01*
X54340Y-47014D01*
X54339Y-47053D01*
X54339Y-47603D01*
X54354Y-47638D01*
X54381Y-47665D01*
X54417Y-47680D01*
X54455Y-47680D01*
X55872Y-47680D01*
X55908Y-47665D01*
X55935Y-47638D01*
X55949Y-47603D01*
X55949Y-47593D01*
X56202Y-47593D01*
X56202Y-47679D01*
X56216Y-47713D01*
X56242Y-47740D01*
X56277Y-47754D01*
X56314Y-47754D01*
X56786Y-47754D01*
X56820Y-47740D01*
X56830Y-47730D01*
X56881Y-47730D01*
X56887Y-47736D01*
X56921Y-47750D01*
X56959Y-47750D01*
X57234Y-47750D01*
X57268Y-47736D01*
X57294Y-47710D01*
X57308Y-47675D01*
X57309Y-47638D01*
X57309Y-48084D01*
X57304Y-48074D01*
X57278Y-48047D01*
X57244Y-48033D01*
X57206Y-48033D01*
X56931Y-48033D01*
X56912Y-48041D01*
X56861Y-48041D01*
X56861Y-48036D01*
X56847Y-48002D01*
X56821Y-47975D01*
X56786Y-47961D01*
X56749Y-47961D01*
X56277Y-47961D01*
X56243Y-47975D01*
X56216Y-48001D01*
X56202Y-48036D01*
X56202Y-48073D01*
X56202Y-48583D01*
X56216Y-48617D01*
X56242Y-48644D01*
X56277Y-48658D01*
X56314Y-48658D01*
X56325Y-48658D01*
X56325Y-48775D01*
X56243Y-48856D01*
X56184Y-49000D01*
X56183Y-49156D01*
X56243Y-49300D01*
X56353Y-49411D01*
X56497Y-49470D01*
X56653Y-49471D01*
X56797Y-49411D01*
X56908Y-49301D01*
X56967Y-49157D01*
X56968Y-49001D01*
X56908Y-48857D01*
X56826Y-48774D01*
X56826Y-48639D01*
X56847Y-48618D01*
X56861Y-48583D01*
X56861Y-48546D01*
X56861Y-48542D01*
X57126Y-48542D01*
X57166Y-48534D01*
X57244Y-48534D01*
X57278Y-48520D01*
X57304Y-48494D01*
X57318Y-48459D01*
X57318Y-48445D01*
X57357Y-48387D01*
X57376Y-48292D01*
X57376Y-49508D01*
X57372Y-49508D01*
X57346Y-49497D01*
X57238Y-49497D01*
X57211Y-49508D01*
X56939Y-49508D01*
X56913Y-49497D01*
X56805Y-49497D01*
X56778Y-49508D01*
X56506Y-49508D01*
X56480Y-49497D01*
X56372Y-49497D01*
X56345Y-49508D01*
X54299Y-49508D01*
X54299Y-44205D01*
X54299Y-43674D01*
X54167Y-43587D01*
X54078Y-43587D01*
X54078Y-34808D01*
X54051Y-34745D01*
X54003Y-34697D01*
X53940Y-34671D01*
X53871Y-34670D01*
X53808Y-34697D01*
X53760Y-34745D01*
X53734Y-34808D01*
X53733Y-34877D01*
X53760Y-34940D01*
X53808Y-34988D01*
X53871Y-35014D01*
X53940Y-35015D01*
X54003Y-34988D01*
X54051Y-34940D01*
X54077Y-34877D01*
X54078Y-34808D01*
X54078Y-43587D01*
X53834Y-43587D01*
X53834Y-38520D01*
X53807Y-38457D01*
X53805Y-38455D01*
X53807Y-38452D01*
X53833Y-38389D01*
X53834Y-38320D01*
X53807Y-38257D01*
X53759Y-38209D01*
X53696Y-38183D01*
X53627Y-38182D01*
X53564Y-38209D01*
X53516Y-38257D01*
X53495Y-38308D01*
X53495Y-36418D01*
X53468Y-36355D01*
X53420Y-36307D01*
X53357Y-36281D01*
X53288Y-36280D01*
X53243Y-36299D01*
X53243Y-34827D01*
X53216Y-34764D01*
X53168Y-34716D01*
X53105Y-34690D01*
X53036Y-34689D01*
X52973Y-34716D01*
X52925Y-34764D01*
X52899Y-34827D01*
X52898Y-34896D01*
X52910Y-34923D01*
X52871Y-34922D01*
X52808Y-34949D01*
X52760Y-34997D01*
X52734Y-35060D01*
X52733Y-35129D01*
X52760Y-35192D01*
X52808Y-35240D01*
X52871Y-35266D01*
X52940Y-35267D01*
X53003Y-35240D01*
X53051Y-35192D01*
X53077Y-35129D01*
X53078Y-35060D01*
X53066Y-35033D01*
X53105Y-35034D01*
X53168Y-35007D01*
X53216Y-34959D01*
X53242Y-34896D01*
X53243Y-34827D01*
X53243Y-36299D01*
X53225Y-36307D01*
X53177Y-36355D01*
X53151Y-36418D01*
X53150Y-36487D01*
X53177Y-36550D01*
X53225Y-36598D01*
X53288Y-36624D01*
X53357Y-36625D01*
X53420Y-36598D01*
X53468Y-36550D01*
X53494Y-36487D01*
X53495Y-36418D01*
X53495Y-38308D01*
X53490Y-38320D01*
X53489Y-38389D01*
X53516Y-38452D01*
X53518Y-38454D01*
X53516Y-38457D01*
X53490Y-38520D01*
X53489Y-38589D01*
X53516Y-38652D01*
X53564Y-38700D01*
X53627Y-38726D01*
X53696Y-38727D01*
X53759Y-38700D01*
X53807Y-38652D01*
X53833Y-38589D01*
X53834Y-38520D01*
X53834Y-43587D01*
X53822Y-43587D01*
X53822Y-41501D01*
X53822Y-38946D01*
X53795Y-38883D01*
X53747Y-38835D01*
X53684Y-38809D01*
X53615Y-38808D01*
X53552Y-38835D01*
X53504Y-38883D01*
X53478Y-38946D01*
X53477Y-39015D01*
X53504Y-39078D01*
X53552Y-39126D01*
X53615Y-39152D01*
X53684Y-39153D01*
X53747Y-39126D01*
X53795Y-39078D01*
X53821Y-39015D01*
X53822Y-38946D01*
X53822Y-41501D01*
X53798Y-41443D01*
X53798Y-39335D01*
X53771Y-39272D01*
X53723Y-39224D01*
X53660Y-39198D01*
X53591Y-39197D01*
X53528Y-39224D01*
X53480Y-39272D01*
X53454Y-39335D01*
X53453Y-39404D01*
X53477Y-39460D01*
X53464Y-39473D01*
X53438Y-39536D01*
X53437Y-39605D01*
X53464Y-39668D01*
X53512Y-39716D01*
X53575Y-39742D01*
X53644Y-39743D01*
X53707Y-39716D01*
X53755Y-39668D01*
X53781Y-39605D01*
X53782Y-39536D01*
X53758Y-39480D01*
X53771Y-39467D01*
X53797Y-39404D01*
X53798Y-39335D01*
X53798Y-41443D01*
X53795Y-41438D01*
X53774Y-41416D01*
X53774Y-40524D01*
X53755Y-40478D01*
X53755Y-40166D01*
X53728Y-40103D01*
X53680Y-40055D01*
X53617Y-40029D01*
X53548Y-40028D01*
X53485Y-40055D01*
X53437Y-40103D01*
X53411Y-40166D01*
X53410Y-40235D01*
X53437Y-40298D01*
X53485Y-40346D01*
X53548Y-40372D01*
X53617Y-40373D01*
X53680Y-40346D01*
X53728Y-40298D01*
X53754Y-40235D01*
X53755Y-40166D01*
X53755Y-40478D01*
X53747Y-40461D01*
X53699Y-40413D01*
X53636Y-40387D01*
X53567Y-40386D01*
X53504Y-40413D01*
X53456Y-40461D01*
X53430Y-40524D01*
X53429Y-40593D01*
X53456Y-40656D01*
X53504Y-40704D01*
X53567Y-40730D01*
X53636Y-40731D01*
X53699Y-40704D01*
X53747Y-40656D01*
X53773Y-40593D01*
X53774Y-40524D01*
X53774Y-41416D01*
X53747Y-41390D01*
X53699Y-41370D01*
X53736Y-41333D01*
X53762Y-41270D01*
X53763Y-41201D01*
X53736Y-41138D01*
X53733Y-41135D01*
X53758Y-41074D01*
X53759Y-41005D01*
X53732Y-40942D01*
X53684Y-40894D01*
X53621Y-40868D01*
X53552Y-40867D01*
X53489Y-40894D01*
X53441Y-40942D01*
X53415Y-41005D01*
X53414Y-41074D01*
X53441Y-41137D01*
X53444Y-41140D01*
X53419Y-41201D01*
X53418Y-41270D01*
X53445Y-41333D01*
X53493Y-41381D01*
X53541Y-41401D01*
X53504Y-41438D01*
X53478Y-41501D01*
X53477Y-41570D01*
X53504Y-41633D01*
X53552Y-41681D01*
X53615Y-41707D01*
X53684Y-41708D01*
X53747Y-41681D01*
X53795Y-41633D01*
X53821Y-41570D01*
X53822Y-41501D01*
X53822Y-43587D01*
X53751Y-43587D01*
X53751Y-42087D01*
X53724Y-42024D01*
X53723Y-42023D01*
X53724Y-42022D01*
X53750Y-41959D01*
X53751Y-41890D01*
X53724Y-41827D01*
X53676Y-41779D01*
X53613Y-41753D01*
X53544Y-41752D01*
X53481Y-41779D01*
X53433Y-41827D01*
X53407Y-41890D01*
X53406Y-41959D01*
X53433Y-42022D01*
X53434Y-42023D01*
X53433Y-42024D01*
X53407Y-42087D01*
X53406Y-42156D01*
X53433Y-42219D01*
X53481Y-42267D01*
X53544Y-42293D01*
X53613Y-42294D01*
X53676Y-42267D01*
X53724Y-42219D01*
X53750Y-42156D01*
X53751Y-42087D01*
X53751Y-43587D01*
X53342Y-43587D01*
X53042Y-43293D01*
X53042Y-37292D01*
X53042Y-36717D01*
X53015Y-36654D01*
X52967Y-36606D01*
X52904Y-36580D01*
X52835Y-36579D01*
X52772Y-36606D01*
X52724Y-36654D01*
X52698Y-36717D01*
X52697Y-36786D01*
X52724Y-36849D01*
X52772Y-36897D01*
X52835Y-36923D01*
X52904Y-36924D01*
X52967Y-36897D01*
X53015Y-36849D01*
X53041Y-36786D01*
X53042Y-36717D01*
X53042Y-37292D01*
X53015Y-37229D01*
X52967Y-37181D01*
X52904Y-37155D01*
X52835Y-37154D01*
X52772Y-37181D01*
X52724Y-37229D01*
X52698Y-37292D01*
X52697Y-37343D01*
X52680Y-37336D01*
X52611Y-37335D01*
X52548Y-37362D01*
X52500Y-37410D01*
X52474Y-37473D01*
X52473Y-37542D01*
X52500Y-37605D01*
X52548Y-37653D01*
X52551Y-37655D01*
X52508Y-37654D01*
X52445Y-37681D01*
X52397Y-37729D01*
X52371Y-37792D01*
X52370Y-37861D01*
X52397Y-37924D01*
X52445Y-37972D01*
X52486Y-37989D01*
X52481Y-37989D01*
X52418Y-38016D01*
X52370Y-38064D01*
X52365Y-38077D01*
X52365Y-35855D01*
X52338Y-35792D01*
X52290Y-35744D01*
X52227Y-35718D01*
X52170Y-35717D01*
X52170Y-31643D01*
X52114Y-31506D01*
X52009Y-31402D01*
X51873Y-31345D01*
X51725Y-31345D01*
X51588Y-31401D01*
X51484Y-31506D01*
X51427Y-31642D01*
X51427Y-31790D01*
X51483Y-31927D01*
X51588Y-32031D01*
X51724Y-32088D01*
X51872Y-32088D01*
X52009Y-32032D01*
X52113Y-31927D01*
X52170Y-31791D01*
X52170Y-31643D01*
X52170Y-35717D01*
X52158Y-35717D01*
X52095Y-35744D01*
X52047Y-35792D01*
X52021Y-35855D01*
X52020Y-35924D01*
X52047Y-35987D01*
X52095Y-36035D01*
X52158Y-36061D01*
X52227Y-36062D01*
X52290Y-36035D01*
X52338Y-35987D01*
X52364Y-35924D01*
X52365Y-35855D01*
X52365Y-38077D01*
X52344Y-38127D01*
X52343Y-38196D01*
X52370Y-38259D01*
X52418Y-38307D01*
X52481Y-38333D01*
X52550Y-38334D01*
X52613Y-38307D01*
X52661Y-38259D01*
X52687Y-38196D01*
X52688Y-38127D01*
X52661Y-38064D01*
X52613Y-38016D01*
X52572Y-37999D01*
X52577Y-37999D01*
X52640Y-37972D01*
X52688Y-37924D01*
X52714Y-37861D01*
X52715Y-37792D01*
X52688Y-37729D01*
X52640Y-37681D01*
X52637Y-37679D01*
X52680Y-37680D01*
X52743Y-37653D01*
X52791Y-37605D01*
X52817Y-37542D01*
X52818Y-37491D01*
X52835Y-37498D01*
X52904Y-37499D01*
X52967Y-37472D01*
X53015Y-37424D01*
X53041Y-37361D01*
X53042Y-37292D01*
X53042Y-43293D01*
X52744Y-43002D01*
X52707Y-43001D01*
X52707Y-41697D01*
X52680Y-41634D01*
X52637Y-41590D01*
X52637Y-41008D01*
X52610Y-40945D01*
X52574Y-40908D01*
X52574Y-39780D01*
X52558Y-39742D01*
X52558Y-39146D01*
X52538Y-39098D01*
X52538Y-38737D01*
X52511Y-38674D01*
X52463Y-38626D01*
X52400Y-38600D01*
X52331Y-38599D01*
X52268Y-38626D01*
X52220Y-38674D01*
X52194Y-38737D01*
X52193Y-38806D01*
X52220Y-38869D01*
X52268Y-38917D01*
X52331Y-38943D01*
X52400Y-38944D01*
X52463Y-38917D01*
X52511Y-38869D01*
X52537Y-38806D01*
X52538Y-38737D01*
X52538Y-39098D01*
X52531Y-39083D01*
X52483Y-39035D01*
X52420Y-39009D01*
X52351Y-39008D01*
X52288Y-39035D01*
X52240Y-39083D01*
X52214Y-39146D01*
X52213Y-39215D01*
X52240Y-39278D01*
X52288Y-39326D01*
X52351Y-39352D01*
X52420Y-39353D01*
X52483Y-39326D01*
X52531Y-39278D01*
X52557Y-39215D01*
X52558Y-39146D01*
X52558Y-39742D01*
X52547Y-39717D01*
X52499Y-39669D01*
X52436Y-39643D01*
X52367Y-39642D01*
X52304Y-39669D01*
X52256Y-39717D01*
X52230Y-39780D01*
X52229Y-39843D01*
X52197Y-39843D01*
X52167Y-39856D01*
X52167Y-36574D01*
X52167Y-36379D01*
X52152Y-36345D01*
X52126Y-36319D01*
X52092Y-36305D01*
X52054Y-36304D01*
X51859Y-36304D01*
X51841Y-36312D01*
X51841Y-35253D01*
X51814Y-35190D01*
X51766Y-35142D01*
X51703Y-35116D01*
X51636Y-35115D01*
X51636Y-35104D01*
X51636Y-34929D01*
X51621Y-34895D01*
X51597Y-34870D01*
X51597Y-34552D01*
X51592Y-34530D01*
X51588Y-34501D01*
X51586Y-34497D01*
X51585Y-34493D01*
X51573Y-34476D01*
X51558Y-34450D01*
X51360Y-34229D01*
X51360Y-34206D01*
X51331Y-34135D01*
X51277Y-34082D01*
X51207Y-34053D01*
X51131Y-34052D01*
X51060Y-34081D01*
X51007Y-34135D01*
X50978Y-34205D01*
X50977Y-34281D01*
X51006Y-34352D01*
X51060Y-34405D01*
X51130Y-34434D01*
X51136Y-34434D01*
X51293Y-34609D01*
X51293Y-34870D01*
X51268Y-34895D01*
X51254Y-34929D01*
X51253Y-34967D01*
X51253Y-35142D01*
X51268Y-35176D01*
X51294Y-35202D01*
X51328Y-35216D01*
X51366Y-35217D01*
X51512Y-35217D01*
X51508Y-35224D01*
X51328Y-35224D01*
X51294Y-35239D01*
X51268Y-35265D01*
X51254Y-35299D01*
X51253Y-35337D01*
X51253Y-35512D01*
X51268Y-35546D01*
X51294Y-35572D01*
X51328Y-35586D01*
X51332Y-35586D01*
X51332Y-35798D01*
X51299Y-35831D01*
X51273Y-35894D01*
X51272Y-35963D01*
X51299Y-36026D01*
X51347Y-36074D01*
X51410Y-36100D01*
X51479Y-36101D01*
X51542Y-36074D01*
X51590Y-36026D01*
X51616Y-35963D01*
X51617Y-35894D01*
X51590Y-35831D01*
X51558Y-35798D01*
X51558Y-35587D01*
X51561Y-35587D01*
X51595Y-35572D01*
X51621Y-35546D01*
X51635Y-35512D01*
X51636Y-35474D01*
X51636Y-35459D01*
X51703Y-35460D01*
X51766Y-35433D01*
X51814Y-35385D01*
X51840Y-35322D01*
X51841Y-35253D01*
X51841Y-36312D01*
X51831Y-36316D01*
X51829Y-36315D01*
X51766Y-36289D01*
X51697Y-36288D01*
X51634Y-36315D01*
X51586Y-36363D01*
X51560Y-36426D01*
X51559Y-36495D01*
X51586Y-36558D01*
X51634Y-36606D01*
X51697Y-36632D01*
X51766Y-36633D01*
X51789Y-36623D01*
X51799Y-36646D01*
X51825Y-36672D01*
X51859Y-36686D01*
X51897Y-36687D01*
X52092Y-36687D01*
X52126Y-36672D01*
X52152Y-36646D01*
X52166Y-36612D01*
X52167Y-36574D01*
X52167Y-39856D01*
X52134Y-39870D01*
X52086Y-39918D01*
X52060Y-39981D01*
X52059Y-40050D01*
X52086Y-40113D01*
X52134Y-40161D01*
X52197Y-40187D01*
X52266Y-40188D01*
X52329Y-40161D01*
X52377Y-40113D01*
X52403Y-40050D01*
X52404Y-39987D01*
X52436Y-39987D01*
X52499Y-39960D01*
X52547Y-39912D01*
X52573Y-39849D01*
X52574Y-39780D01*
X52574Y-40908D01*
X52562Y-40897D01*
X52499Y-40871D01*
X52447Y-40870D01*
X52448Y-40812D01*
X52421Y-40749D01*
X52377Y-40705D01*
X52384Y-40688D01*
X52385Y-40619D01*
X52358Y-40556D01*
X52343Y-40540D01*
X52345Y-40539D01*
X52393Y-40491D01*
X52419Y-40428D01*
X52420Y-40359D01*
X52393Y-40296D01*
X52345Y-40248D01*
X52282Y-40222D01*
X52213Y-40221D01*
X52150Y-40248D01*
X52102Y-40296D01*
X52076Y-40359D01*
X52075Y-40428D01*
X52102Y-40491D01*
X52117Y-40507D01*
X52115Y-40508D01*
X52067Y-40556D01*
X52041Y-40619D01*
X52040Y-40688D01*
X52067Y-40751D01*
X52111Y-40795D01*
X52104Y-40812D01*
X52103Y-40881D01*
X52130Y-40944D01*
X52178Y-40992D01*
X52241Y-41018D01*
X52293Y-41019D01*
X52292Y-41077D01*
X52319Y-41140D01*
X52367Y-41188D01*
X52430Y-41214D01*
X52499Y-41215D01*
X52562Y-41188D01*
X52610Y-41140D01*
X52636Y-41077D01*
X52637Y-41008D01*
X52637Y-41590D01*
X52632Y-41586D01*
X52569Y-41560D01*
X52500Y-41559D01*
X52437Y-41586D01*
X52389Y-41634D01*
X52363Y-41697D01*
X52362Y-41766D01*
X52389Y-41829D01*
X52437Y-41877D01*
X52500Y-41903D01*
X52569Y-41904D01*
X52632Y-41877D01*
X52680Y-41829D01*
X52706Y-41766D01*
X52707Y-41697D01*
X52707Y-43001D01*
X52290Y-42999D01*
X52290Y-42319D01*
X52263Y-42256D01*
X52215Y-42208D01*
X52152Y-42182D01*
X52083Y-42181D01*
X52020Y-42208D01*
X52017Y-42211D01*
X52014Y-42209D01*
X51951Y-42183D01*
X51924Y-42183D01*
X51924Y-40713D01*
X51900Y-40655D01*
X51900Y-37205D01*
X51873Y-37142D01*
X51829Y-37098D01*
X51873Y-37054D01*
X51899Y-36991D01*
X51900Y-36922D01*
X51873Y-36859D01*
X51825Y-36811D01*
X51762Y-36785D01*
X51693Y-36784D01*
X51630Y-36811D01*
X51582Y-36859D01*
X51556Y-36922D01*
X51555Y-36991D01*
X51582Y-37054D01*
X51626Y-37098D01*
X51582Y-37142D01*
X51556Y-37205D01*
X51555Y-37274D01*
X51582Y-37337D01*
X51615Y-37370D01*
X51575Y-37410D01*
X51549Y-37473D01*
X51548Y-37542D01*
X51575Y-37605D01*
X51623Y-37653D01*
X51686Y-37679D01*
X51755Y-37680D01*
X51818Y-37653D01*
X51866Y-37605D01*
X51892Y-37542D01*
X51893Y-37473D01*
X51866Y-37410D01*
X51833Y-37377D01*
X51873Y-37337D01*
X51899Y-37274D01*
X51900Y-37205D01*
X51900Y-40655D01*
X51897Y-40650D01*
X51889Y-40641D01*
X51889Y-37957D01*
X51862Y-37894D01*
X51814Y-37846D01*
X51751Y-37820D01*
X51682Y-37819D01*
X51619Y-37846D01*
X51571Y-37894D01*
X51545Y-37957D01*
X51544Y-38026D01*
X51571Y-38089D01*
X51619Y-38137D01*
X51682Y-38163D01*
X51751Y-38164D01*
X51814Y-38137D01*
X51862Y-38089D01*
X51888Y-38026D01*
X51889Y-37957D01*
X51889Y-40641D01*
X51849Y-40602D01*
X51786Y-40576D01*
X51717Y-40575D01*
X51654Y-40602D01*
X51606Y-40650D01*
X51580Y-40713D01*
X51579Y-40782D01*
X51606Y-40845D01*
X51654Y-40893D01*
X51717Y-40919D01*
X51786Y-40920D01*
X51849Y-40893D01*
X51897Y-40845D01*
X51923Y-40782D01*
X51924Y-40713D01*
X51924Y-42183D01*
X51882Y-42182D01*
X51819Y-42209D01*
X51777Y-42251D01*
X51735Y-42209D01*
X51672Y-42183D01*
X51603Y-42182D01*
X51540Y-42209D01*
X51518Y-42231D01*
X51495Y-42209D01*
X51432Y-42183D01*
X51363Y-42182D01*
X51300Y-42209D01*
X51263Y-42246D01*
X51263Y-40914D01*
X51236Y-40851D01*
X51188Y-40803D01*
X51125Y-40777D01*
X51056Y-40776D01*
X50993Y-40803D01*
X50945Y-40851D01*
X50919Y-40914D01*
X50918Y-40983D01*
X50945Y-41046D01*
X50993Y-41094D01*
X51056Y-41120D01*
X51125Y-41121D01*
X51188Y-41094D01*
X51236Y-41046D01*
X51262Y-40983D01*
X51263Y-40914D01*
X51263Y-42246D01*
X51252Y-42257D01*
X51226Y-42320D01*
X51225Y-42389D01*
X51252Y-42452D01*
X51300Y-42500D01*
X51363Y-42526D01*
X51432Y-42527D01*
X51495Y-42500D01*
X51517Y-42478D01*
X51540Y-42500D01*
X51603Y-42526D01*
X51672Y-42527D01*
X51735Y-42500D01*
X51777Y-42458D01*
X51819Y-42500D01*
X51882Y-42526D01*
X51951Y-42527D01*
X52014Y-42500D01*
X52017Y-42497D01*
X52020Y-42499D01*
X52083Y-42525D01*
X52152Y-42526D01*
X52215Y-42499D01*
X52263Y-42451D01*
X52289Y-42388D01*
X52290Y-42319D01*
X52290Y-42999D01*
X51866Y-42996D01*
X51200Y-42996D01*
X51106Y-43090D01*
X51106Y-44424D01*
X50882Y-44649D01*
X50882Y-45090D01*
X51058Y-45271D01*
X51630Y-45275D01*
X51935Y-46092D01*
X52086Y-46090D01*
X52151Y-46117D01*
X52227Y-46118D01*
X52298Y-46089D01*
X52298Y-46088D01*
X52472Y-46086D01*
X52475Y-46088D01*
X52545Y-46117D01*
X52621Y-46118D01*
X52692Y-46089D01*
X52697Y-46083D01*
X52782Y-46082D01*
X53001Y-45904D01*
X53001Y-45200D01*
X53277Y-45102D01*
X53277Y-45052D01*
X53287Y-45026D01*
X53288Y-44989D01*
X53288Y-44951D01*
X53297Y-44906D01*
X53288Y-44860D01*
X53288Y-44675D01*
X53277Y-44649D01*
X53277Y-44517D01*
X53932Y-44531D01*
X54299Y-44205D01*
X54299Y-49508D01*
X54280Y-49508D01*
X53580Y-49508D01*
X53587Y-49491D01*
X53587Y-49452D01*
X53587Y-46854D01*
X53572Y-46819D01*
X53545Y-46792D01*
X53510Y-46777D01*
X53471Y-46777D01*
X51031Y-46777D01*
X50996Y-46792D01*
X50969Y-46819D01*
X50954Y-46854D01*
X50954Y-46893D01*
X50954Y-49491D01*
X50961Y-49508D01*
X50089Y-49508D01*
X50089Y-36977D01*
X50062Y-36914D01*
X50014Y-36866D01*
X49951Y-36840D01*
X49920Y-36840D01*
X49920Y-36190D01*
X49893Y-36127D01*
X49845Y-36079D01*
X49782Y-36053D01*
X49713Y-36052D01*
X49650Y-36079D01*
X49602Y-36127D01*
X49576Y-36190D01*
X49575Y-36259D01*
X49602Y-36322D01*
X49602Y-36322D01*
X49598Y-36327D01*
X49572Y-36390D01*
X49571Y-36459D01*
X49598Y-36522D01*
X49646Y-36570D01*
X49709Y-36596D01*
X49778Y-36597D01*
X49841Y-36570D01*
X49889Y-36522D01*
X49915Y-36459D01*
X49916Y-36390D01*
X49889Y-36327D01*
X49889Y-36327D01*
X49893Y-36322D01*
X49919Y-36259D01*
X49920Y-36190D01*
X49920Y-36840D01*
X49882Y-36839D01*
X49819Y-36866D01*
X49771Y-36914D01*
X49745Y-36977D01*
X49744Y-37046D01*
X49763Y-37091D01*
X49731Y-37059D01*
X49668Y-37033D01*
X49599Y-37032D01*
X49536Y-37059D01*
X49488Y-37107D01*
X49462Y-37170D01*
X49461Y-37239D01*
X49481Y-37286D01*
X49451Y-37256D01*
X49428Y-37246D01*
X49428Y-35993D01*
X49401Y-35930D01*
X49353Y-35882D01*
X49290Y-35856D01*
X49221Y-35855D01*
X49158Y-35882D01*
X49110Y-35930D01*
X49084Y-35993D01*
X49083Y-36062D01*
X49110Y-36125D01*
X49158Y-36173D01*
X49221Y-36199D01*
X49290Y-36200D01*
X49353Y-36173D01*
X49401Y-36125D01*
X49427Y-36062D01*
X49428Y-35993D01*
X49428Y-37246D01*
X49388Y-37230D01*
X49319Y-37229D01*
X49304Y-37236D01*
X49304Y-36977D01*
X49277Y-36914D01*
X49229Y-36866D01*
X49166Y-36840D01*
X49097Y-36839D01*
X49034Y-36866D01*
X48986Y-36914D01*
X48960Y-36977D01*
X48959Y-37046D01*
X48986Y-37109D01*
X49034Y-37157D01*
X49097Y-37183D01*
X49166Y-37184D01*
X49229Y-37157D01*
X49277Y-37109D01*
X49303Y-37046D01*
X49304Y-36977D01*
X49304Y-37236D01*
X49256Y-37256D01*
X49208Y-37304D01*
X49182Y-37367D01*
X49181Y-37436D01*
X49208Y-37499D01*
X49256Y-37547D01*
X49319Y-37573D01*
X49388Y-37574D01*
X49451Y-37547D01*
X49499Y-37499D01*
X49525Y-37436D01*
X49526Y-37367D01*
X49506Y-37320D01*
X49536Y-37350D01*
X49599Y-37376D01*
X49668Y-37377D01*
X49731Y-37350D01*
X49779Y-37302D01*
X49805Y-37239D01*
X49806Y-37170D01*
X49787Y-37125D01*
X49819Y-37157D01*
X49882Y-37183D01*
X49951Y-37184D01*
X50014Y-37157D01*
X50062Y-37109D01*
X50088Y-37046D01*
X50089Y-36977D01*
X50089Y-49508D01*
X49737Y-49508D01*
X49737Y-42883D01*
X49710Y-42820D01*
X49662Y-42772D01*
X49635Y-42760D01*
X49680Y-42715D01*
X49706Y-42652D01*
X49707Y-42583D01*
X49680Y-42520D01*
X49632Y-42472D01*
X49569Y-42446D01*
X49500Y-42445D01*
X49437Y-42472D01*
X49389Y-42520D01*
X49363Y-42583D01*
X49362Y-42652D01*
X49389Y-42715D01*
X49437Y-42763D01*
X49464Y-42775D01*
X49419Y-42820D01*
X49393Y-42883D01*
X49392Y-42952D01*
X49419Y-43015D01*
X49467Y-43063D01*
X49530Y-43089D01*
X49599Y-43090D01*
X49662Y-43063D01*
X49710Y-43015D01*
X49736Y-42952D01*
X49737Y-42883D01*
X49737Y-49508D01*
X49052Y-49508D01*
X49052Y-45049D01*
X49023Y-44978D01*
X48969Y-44925D01*
X48899Y-44896D01*
X48823Y-44895D01*
X48806Y-44902D01*
X48806Y-31303D01*
X48774Y-31224D01*
X48713Y-31163D01*
X48633Y-31130D01*
X48547Y-31130D01*
X48468Y-31162D01*
X48407Y-31223D01*
X48374Y-31303D01*
X48374Y-31389D01*
X48407Y-31468D01*
X48467Y-31529D01*
X48547Y-31562D01*
X48633Y-31562D01*
X48712Y-31529D01*
X48773Y-31469D01*
X48806Y-31389D01*
X48806Y-31303D01*
X48806Y-44902D01*
X48752Y-44924D01*
X48723Y-44954D01*
X48723Y-37535D01*
X48723Y-37340D01*
X48708Y-37306D01*
X48695Y-37293D01*
X48708Y-37280D01*
X48722Y-37246D01*
X48723Y-37208D01*
X48723Y-37013D01*
X48708Y-36979D01*
X48682Y-36953D01*
X48648Y-36939D01*
X48610Y-36938D01*
X48415Y-36938D01*
X48381Y-36953D01*
X48355Y-36979D01*
X48341Y-37013D01*
X48340Y-37051D01*
X48340Y-37083D01*
X48322Y-37090D01*
X48290Y-37059D01*
X48227Y-37033D01*
X48158Y-37032D01*
X48095Y-37059D01*
X48047Y-37107D01*
X48021Y-37170D01*
X48020Y-37239D01*
X48039Y-37284D01*
X48019Y-37304D01*
X47993Y-37367D01*
X47992Y-37436D01*
X48019Y-37499D01*
X48067Y-37547D01*
X48130Y-37573D01*
X48199Y-37574D01*
X48262Y-37547D01*
X48293Y-37516D01*
X48340Y-37528D01*
X48340Y-37573D01*
X48355Y-37607D01*
X48381Y-37633D01*
X48415Y-37647D01*
X48453Y-37648D01*
X48648Y-37648D01*
X48682Y-37633D01*
X48708Y-37607D01*
X48722Y-37573D01*
X48723Y-37535D01*
X48723Y-44954D01*
X48703Y-44974D01*
X48654Y-44925D01*
X48584Y-44896D01*
X48508Y-44895D01*
X48437Y-44924D01*
X48388Y-44974D01*
X48369Y-44954D01*
X48369Y-41697D01*
X48342Y-41634D01*
X48294Y-41586D01*
X48231Y-41560D01*
X48162Y-41559D01*
X48099Y-41586D01*
X48051Y-41634D01*
X48025Y-41697D01*
X48024Y-41766D01*
X48051Y-41829D01*
X48099Y-41877D01*
X48162Y-41903D01*
X48231Y-41904D01*
X48294Y-41877D01*
X48342Y-41829D01*
X48368Y-41766D01*
X48369Y-41697D01*
X48369Y-44954D01*
X48353Y-44938D01*
X48353Y-42095D01*
X48326Y-42032D01*
X48278Y-41984D01*
X48215Y-41958D01*
X48146Y-41957D01*
X48083Y-41984D01*
X48035Y-42032D01*
X48009Y-42095D01*
X48008Y-42164D01*
X48034Y-42226D01*
X48027Y-42233D01*
X48001Y-42296D01*
X48000Y-42365D01*
X48027Y-42428D01*
X48075Y-42476D01*
X48138Y-42502D01*
X48207Y-42503D01*
X48270Y-42476D01*
X48318Y-42428D01*
X48344Y-42365D01*
X48345Y-42296D01*
X48319Y-42234D01*
X48326Y-42227D01*
X48352Y-42164D01*
X48353Y-42095D01*
X48353Y-44938D01*
X48339Y-44925D01*
X48326Y-44919D01*
X48326Y-42690D01*
X48299Y-42627D01*
X48251Y-42579D01*
X48188Y-42553D01*
X48119Y-42552D01*
X48056Y-42579D01*
X48008Y-42627D01*
X47982Y-42690D01*
X47981Y-42759D01*
X48008Y-42822D01*
X48056Y-42870D01*
X48119Y-42896D01*
X48188Y-42897D01*
X48251Y-42870D01*
X48299Y-42822D01*
X48325Y-42759D01*
X48326Y-42690D01*
X48326Y-44919D01*
X48269Y-44896D01*
X48193Y-44895D01*
X48122Y-44924D01*
X48069Y-44978D01*
X48040Y-45048D01*
X48039Y-45124D01*
X48068Y-45195D01*
X48122Y-45248D01*
X48192Y-45277D01*
X48268Y-45278D01*
X48339Y-45249D01*
X48388Y-45199D01*
X48437Y-45248D01*
X48507Y-45277D01*
X48583Y-45278D01*
X48654Y-45249D01*
X48703Y-45199D01*
X48752Y-45248D01*
X48822Y-45277D01*
X48898Y-45278D01*
X48969Y-45249D01*
X49022Y-45195D01*
X49051Y-45125D01*
X49052Y-45049D01*
X49052Y-49508D01*
X47972Y-49508D01*
X47972Y-44444D01*
X47995Y-44389D01*
X47995Y-44281D01*
X47972Y-44225D01*
X47972Y-44011D01*
X47995Y-43956D01*
X47995Y-43848D01*
X47972Y-43792D01*
X47972Y-43578D01*
X47995Y-43523D01*
X47995Y-43415D01*
X47972Y-43359D01*
X47972Y-41282D01*
X47977Y-41287D01*
X48040Y-41313D01*
X48109Y-41314D01*
X48172Y-41287D01*
X48220Y-41239D01*
X48246Y-41176D01*
X48247Y-41116D01*
X48298Y-41094D01*
X48346Y-41046D01*
X48372Y-40983D01*
X48373Y-40914D01*
X48373Y-39733D01*
X48369Y-39724D01*
X48369Y-39335D01*
X48342Y-39272D01*
X48294Y-39224D01*
X48231Y-39198D01*
X48162Y-39197D01*
X48099Y-39224D01*
X48051Y-39272D01*
X48025Y-39335D01*
X48024Y-39404D01*
X48051Y-39467D01*
X48099Y-39515D01*
X48162Y-39541D01*
X48231Y-39542D01*
X48294Y-39515D01*
X48342Y-39467D01*
X48368Y-39404D01*
X48369Y-39335D01*
X48369Y-39724D01*
X48346Y-39670D01*
X48298Y-39622D01*
X48235Y-39596D01*
X48166Y-39595D01*
X48103Y-39622D01*
X48055Y-39670D01*
X48029Y-39733D01*
X48028Y-39802D01*
X48051Y-39855D01*
X48039Y-39867D01*
X48013Y-39930D01*
X48012Y-39999D01*
X48039Y-40062D01*
X48087Y-40110D01*
X48150Y-40136D01*
X48219Y-40137D01*
X48282Y-40110D01*
X48330Y-40062D01*
X48356Y-39999D01*
X48357Y-39930D01*
X48334Y-39877D01*
X48346Y-39865D01*
X48372Y-39802D01*
X48373Y-39733D01*
X48373Y-40914D01*
X48353Y-40866D01*
X48353Y-40320D01*
X48326Y-40257D01*
X48278Y-40209D01*
X48215Y-40183D01*
X48146Y-40182D01*
X48083Y-40209D01*
X48035Y-40257D01*
X48009Y-40320D01*
X48008Y-40389D01*
X48035Y-40452D01*
X48083Y-40500D01*
X48146Y-40526D01*
X48215Y-40527D01*
X48278Y-40500D01*
X48326Y-40452D01*
X48352Y-40389D01*
X48353Y-40320D01*
X48353Y-40866D01*
X48346Y-40851D01*
X48325Y-40829D01*
X48344Y-40782D01*
X48345Y-40713D01*
X48318Y-40650D01*
X48270Y-40602D01*
X48207Y-40576D01*
X48138Y-40575D01*
X48075Y-40602D01*
X48027Y-40650D01*
X48001Y-40713D01*
X48000Y-40782D01*
X48027Y-40845D01*
X48048Y-40867D01*
X48029Y-40914D01*
X48028Y-40974D01*
X47977Y-40996D01*
X47972Y-41001D01*
X47972Y-38919D01*
X47981Y-38928D01*
X48044Y-38954D01*
X48113Y-38955D01*
X48176Y-38928D01*
X48224Y-38880D01*
X48250Y-38817D01*
X48251Y-38753D01*
X48290Y-38736D01*
X48338Y-38688D01*
X48364Y-38625D01*
X48365Y-38556D01*
X48344Y-38506D01*
X48366Y-38483D01*
X48392Y-38420D01*
X48393Y-38351D01*
X48366Y-38288D01*
X48365Y-38286D01*
X48365Y-37949D01*
X48338Y-37886D01*
X48290Y-37838D01*
X48227Y-37812D01*
X48158Y-37811D01*
X48095Y-37838D01*
X48047Y-37886D01*
X48021Y-37949D01*
X48020Y-38018D01*
X48047Y-38081D01*
X48095Y-38129D01*
X48158Y-38155D01*
X48227Y-38156D01*
X48290Y-38129D01*
X48338Y-38081D01*
X48364Y-38018D01*
X48365Y-37949D01*
X48365Y-38286D01*
X48318Y-38240D01*
X48255Y-38214D01*
X48186Y-38213D01*
X48123Y-38240D01*
X48075Y-38288D01*
X48049Y-38351D01*
X48048Y-38420D01*
X48069Y-38470D01*
X48047Y-38493D01*
X48021Y-38556D01*
X48020Y-38620D01*
X47981Y-38637D01*
X47972Y-38646D01*
X47972Y-35605D01*
X47995Y-35550D01*
X47995Y-35442D01*
X47972Y-35386D01*
X47972Y-35172D01*
X47995Y-35117D01*
X47995Y-35009D01*
X47972Y-34953D01*
X47972Y-34739D01*
X47995Y-34684D01*
X47995Y-34576D01*
X47972Y-34520D01*
X47972Y-30688D01*
X56325Y-30688D01*
X56370Y-30707D01*
X56478Y-30707D01*
X56524Y-30688D01*
X56758Y-30688D01*
X56803Y-30707D01*
X56911Y-30707D01*
X56957Y-30688D01*
X57191Y-30688D01*
X57236Y-30707D01*
X57344Y-30707D01*
X57390Y-30688D01*
X57625Y-30688D01*
X57670Y-30707D01*
X57778Y-30707D01*
X57824Y-30688D01*
X66004Y-30688D01*
X66004Y-34508D01*
X65846Y-34508D01*
X65846Y-30972D01*
X65813Y-30893D01*
X65752Y-30832D01*
X65673Y-30799D01*
X65587Y-30799D01*
X65507Y-30832D01*
X65446Y-30893D01*
X65413Y-30972D01*
X65413Y-31058D01*
X65446Y-31138D01*
X65507Y-31199D01*
X65586Y-31232D01*
X65672Y-31232D01*
X65752Y-31199D01*
X65813Y-31138D01*
X65846Y-31058D01*
X65846Y-30972D01*
X65846Y-34508D01*
X63706Y-34508D01*
X63706Y-31756D01*
X63646Y-31612D01*
X63536Y-31501D01*
X63392Y-31442D01*
X63236Y-31441D01*
X63092Y-31501D01*
X62981Y-31611D01*
X62922Y-31755D01*
X62921Y-31911D01*
X62981Y-32055D01*
X63091Y-32166D01*
X63235Y-32225D01*
X63391Y-32226D01*
X63535Y-32166D01*
X63646Y-32056D01*
X63705Y-31912D01*
X63706Y-31756D01*
X63706Y-34508D01*
X62893Y-34508D01*
X62893Y-33996D01*
X62706Y-33996D01*
X62706Y-31756D01*
X62646Y-31612D01*
X62536Y-31501D01*
X62392Y-31442D01*
X62236Y-31441D01*
X62092Y-31501D01*
X61981Y-31611D01*
X61922Y-31755D01*
X61921Y-31911D01*
X61981Y-32055D01*
X62091Y-32166D01*
X62235Y-32225D01*
X62391Y-32226D01*
X62535Y-32166D01*
X62646Y-32056D01*
X62705Y-31912D01*
X62706Y-31756D01*
X62706Y-33996D01*
X61698Y-33996D01*
X61698Y-31849D01*
X61674Y-31700D01*
X61663Y-31673D01*
X61619Y-31634D01*
X61513Y-31740D01*
X61513Y-31528D01*
X61474Y-31484D01*
X61329Y-31449D01*
X61180Y-31473D01*
X61153Y-31484D01*
X61114Y-31528D01*
X61314Y-31727D01*
X61513Y-31528D01*
X61513Y-31740D01*
X61420Y-31834D01*
X61619Y-32033D01*
X61663Y-31994D01*
X61698Y-31849D01*
X61698Y-33996D01*
X61513Y-33996D01*
X61513Y-32139D01*
X61314Y-31940D01*
X61207Y-32046D01*
X61207Y-31834D01*
X61008Y-31634D01*
X60964Y-31673D01*
X60929Y-31818D01*
X60953Y-31967D01*
X60964Y-31994D01*
X61008Y-32033D01*
X61207Y-31834D01*
X61207Y-32046D01*
X61114Y-32139D01*
X61153Y-32183D01*
X61298Y-32218D01*
X61447Y-32194D01*
X61474Y-32183D01*
X61513Y-32139D01*
X61513Y-33996D01*
X60706Y-33996D01*
X60706Y-31756D01*
X60646Y-31612D01*
X60536Y-31501D01*
X60392Y-31442D01*
X60236Y-31441D01*
X60092Y-31501D01*
X59981Y-31611D01*
X59922Y-31755D01*
X59921Y-31911D01*
X59981Y-32055D01*
X60091Y-32166D01*
X60235Y-32225D01*
X60391Y-32226D01*
X60535Y-32166D01*
X60646Y-32056D01*
X60705Y-31912D01*
X60706Y-31756D01*
X60706Y-33996D01*
X59706Y-33996D01*
X59706Y-32093D01*
X59706Y-31496D01*
X59691Y-31462D01*
X59665Y-31436D01*
X59631Y-31422D01*
X59593Y-31421D01*
X58996Y-31421D01*
X58962Y-31436D01*
X58936Y-31462D01*
X58922Y-31496D01*
X58921Y-31534D01*
X58921Y-32131D01*
X58936Y-32165D01*
X58962Y-32191D01*
X58996Y-32205D01*
X59034Y-32206D01*
X59631Y-32206D01*
X59665Y-32191D01*
X59691Y-32165D01*
X59705Y-32131D01*
X59706Y-32093D01*
X59706Y-33996D01*
X58699Y-33996D01*
X58699Y-31756D01*
X58639Y-31612D01*
X58529Y-31501D01*
X58385Y-31442D01*
X58229Y-31441D01*
X58085Y-31501D01*
X57974Y-31611D01*
X57915Y-31755D01*
X57914Y-31911D01*
X57974Y-32055D01*
X58084Y-32166D01*
X58228Y-32225D01*
X58384Y-32226D01*
X58528Y-32166D01*
X58639Y-32056D01*
X58698Y-31912D01*
X58699Y-31756D01*
X58699Y-33996D01*
X57699Y-33996D01*
X57699Y-31756D01*
X57639Y-31612D01*
X57529Y-31501D01*
X57385Y-31442D01*
X57229Y-31441D01*
X57085Y-31501D01*
X56974Y-31611D01*
X56915Y-31755D01*
X56914Y-31911D01*
X56974Y-32055D01*
X57084Y-32166D01*
X57228Y-32225D01*
X57384Y-32226D01*
X57528Y-32166D01*
X57639Y-32056D01*
X57698Y-31912D01*
X57699Y-31756D01*
X57699Y-33996D01*
X56699Y-33996D01*
X56699Y-31756D01*
X56639Y-31612D01*
X56529Y-31501D01*
X56385Y-31442D01*
X56229Y-31441D01*
X56085Y-31501D01*
X55974Y-31611D01*
X55915Y-31755D01*
X55914Y-31911D01*
X55974Y-32055D01*
X56084Y-32166D01*
X56228Y-32225D01*
X56384Y-32226D01*
X56528Y-32166D01*
X56639Y-32056D01*
X56698Y-31912D01*
X56699Y-31756D01*
X56699Y-33996D01*
X55699Y-33996D01*
X55699Y-31756D01*
X55639Y-31612D01*
X55529Y-31501D01*
X55385Y-31442D01*
X55229Y-31441D01*
X55085Y-31501D01*
X54974Y-31611D01*
X54915Y-31755D01*
X54914Y-31911D01*
X54974Y-32055D01*
X55084Y-32166D01*
X55228Y-32225D01*
X55384Y-32226D01*
X55528Y-32166D01*
X55639Y-32056D01*
X55698Y-31912D01*
X55699Y-31756D01*
X55699Y-33996D01*
X54980Y-33996D01*
X54980Y-37152D01*
X54911Y-37151D01*
X54908Y-37153D01*
X54908Y-36296D01*
X54881Y-36233D01*
X54843Y-36195D01*
X54866Y-36172D01*
X54892Y-36109D01*
X54893Y-36040D01*
X54866Y-35977D01*
X54818Y-35929D01*
X54755Y-35903D01*
X54699Y-35902D01*
X54699Y-31756D01*
X54639Y-31612D01*
X54529Y-31501D01*
X54385Y-31442D01*
X54229Y-31441D01*
X54085Y-31501D01*
X53974Y-31611D01*
X53915Y-31755D01*
X53914Y-31911D01*
X53974Y-32055D01*
X54084Y-32166D01*
X54228Y-32225D01*
X54384Y-32226D01*
X54528Y-32166D01*
X54639Y-32056D01*
X54698Y-31912D01*
X54699Y-31756D01*
X54699Y-35902D01*
X54686Y-35902D01*
X54623Y-35929D01*
X54575Y-35977D01*
X54549Y-36040D01*
X54548Y-36109D01*
X54575Y-36172D01*
X54613Y-36210D01*
X54590Y-36233D01*
X54564Y-36296D01*
X54563Y-36365D01*
X54590Y-36428D01*
X54638Y-36476D01*
X54701Y-36502D01*
X54770Y-36503D01*
X54833Y-36476D01*
X54881Y-36428D01*
X54907Y-36365D01*
X54908Y-36296D01*
X54908Y-37153D01*
X54840Y-37180D01*
X54787Y-37234D01*
X54758Y-37304D01*
X54757Y-37380D01*
X54786Y-37451D01*
X54840Y-37504D01*
X54910Y-37533D01*
X54980Y-37534D01*
X54980Y-42890D01*
X54949Y-42890D01*
X54886Y-42917D01*
X54856Y-42947D01*
X54818Y-42909D01*
X54755Y-42883D01*
X54686Y-42882D01*
X54625Y-42908D01*
X54625Y-37284D01*
X54598Y-37221D01*
X54550Y-37173D01*
X54487Y-37147D01*
X54418Y-37146D01*
X54412Y-37149D01*
X54412Y-34403D01*
X54383Y-34332D01*
X54329Y-34279D01*
X54259Y-34250D01*
X54183Y-34249D01*
X54112Y-34278D01*
X54059Y-34332D01*
X54030Y-34402D01*
X54029Y-34478D01*
X54058Y-34549D01*
X54112Y-34602D01*
X54182Y-34631D01*
X54258Y-34632D01*
X54329Y-34603D01*
X54382Y-34549D01*
X54411Y-34479D01*
X54412Y-34403D01*
X54412Y-37149D01*
X54355Y-37173D01*
X54307Y-37221D01*
X54281Y-37284D01*
X54280Y-37353D01*
X54307Y-37416D01*
X54355Y-37464D01*
X54418Y-37490D01*
X54487Y-37491D01*
X54550Y-37464D01*
X54598Y-37416D01*
X54624Y-37353D01*
X54625Y-37284D01*
X54625Y-42908D01*
X54623Y-42909D01*
X54575Y-42957D01*
X54549Y-43020D01*
X54548Y-43089D01*
X54575Y-43152D01*
X54623Y-43200D01*
X54686Y-43226D01*
X54755Y-43227D01*
X54818Y-43200D01*
X54848Y-43170D01*
X54886Y-43208D01*
X54949Y-43234D01*
X54980Y-43234D01*
X54980Y-45084D01*
X54766Y-45084D01*
X54758Y-45066D01*
X54732Y-45039D01*
X54698Y-45025D01*
X54660Y-45025D01*
X54385Y-45025D01*
X54351Y-45039D01*
X54325Y-45065D01*
X54311Y-45100D01*
X54310Y-45137D01*
X54310Y-45451D01*
X54325Y-45485D01*
X54351Y-45512D01*
X54385Y-45526D01*
X54423Y-45526D01*
X54698Y-45526D01*
X54732Y-45512D01*
X54758Y-45486D01*
X54766Y-45467D01*
X54980Y-45467D01*
X54980Y-46082D01*
X62893Y-46082D01*
X62893Y-45610D01*
X66004Y-45610D01*
X66004Y-49508D01*
X66004Y-49508D01*
G37*
G54D116*
X66004Y-49508D02*
X63988Y-49508D01*
X63988Y-48965D01*
X63955Y-48885D01*
X63894Y-48824D01*
X63814Y-48791D01*
X63728Y-48791D01*
X63649Y-48824D01*
X63588Y-48885D01*
X63555Y-48964D01*
X63555Y-49050D01*
X63588Y-49130D01*
X63648Y-49191D01*
X63728Y-49224D01*
X63814Y-49224D01*
X63894Y-49191D01*
X63954Y-49130D01*
X63987Y-49051D01*
X63988Y-48965D01*
X63988Y-49508D01*
X63435Y-49508D01*
X63435Y-48272D01*
X63375Y-48128D01*
X63265Y-48017D01*
X63121Y-47958D01*
X62965Y-47957D01*
X62821Y-48017D01*
X62710Y-48127D01*
X62651Y-48271D01*
X62650Y-48427D01*
X62710Y-48571D01*
X62820Y-48682D01*
X62964Y-48741D01*
X63120Y-48742D01*
X63264Y-48682D01*
X63375Y-48572D01*
X63434Y-48428D01*
X63435Y-48272D01*
X63435Y-49508D01*
X62435Y-49508D01*
X62435Y-48272D01*
X62375Y-48128D01*
X62265Y-48017D01*
X62121Y-47958D01*
X61965Y-47957D01*
X61821Y-48017D01*
X61710Y-48127D01*
X61651Y-48271D01*
X61650Y-48427D01*
X61710Y-48571D01*
X61820Y-48682D01*
X61964Y-48741D01*
X62120Y-48742D01*
X62264Y-48682D01*
X62375Y-48572D01*
X62434Y-48428D01*
X62435Y-48272D01*
X62435Y-49508D01*
X60435Y-49508D01*
X60435Y-48272D01*
X60375Y-48128D01*
X60265Y-48017D01*
X60121Y-47958D01*
X60041Y-47957D01*
X60041Y-47130D01*
X60041Y-46816D01*
X60027Y-46782D01*
X60001Y-46755D01*
X59966Y-46741D01*
X59929Y-46741D01*
X59615Y-46741D01*
X59581Y-46755D01*
X59554Y-46781D01*
X59540Y-46816D01*
X59540Y-46853D01*
X59540Y-46899D01*
X59512Y-46899D01*
X59487Y-46874D01*
X59453Y-46860D01*
X59415Y-46859D01*
X59240Y-46859D01*
X59206Y-46874D01*
X59180Y-46900D01*
X59167Y-46932D01*
X59167Y-46734D01*
X59138Y-46663D01*
X59084Y-46610D01*
X59014Y-46581D01*
X58938Y-46580D01*
X58867Y-46609D01*
X58814Y-46663D01*
X58785Y-46733D01*
X58784Y-46809D01*
X58813Y-46880D01*
X58822Y-46888D01*
X58810Y-46900D01*
X58796Y-46934D01*
X58795Y-46972D01*
X58795Y-47167D01*
X58810Y-47201D01*
X58836Y-47227D01*
X58870Y-47241D01*
X58908Y-47242D01*
X59083Y-47242D01*
X59117Y-47227D01*
X59143Y-47201D01*
X59157Y-47167D01*
X59158Y-47129D01*
X59158Y-46934D01*
X59143Y-46900D01*
X59130Y-46887D01*
X59137Y-46880D01*
X59166Y-46810D01*
X59167Y-46734D01*
X59167Y-46932D01*
X59166Y-46934D01*
X59165Y-46972D01*
X59165Y-47167D01*
X59180Y-47201D01*
X59206Y-47227D01*
X59240Y-47241D01*
X59278Y-47242D01*
X59453Y-47242D01*
X59487Y-47227D01*
X59512Y-47203D01*
X59555Y-47203D01*
X59580Y-47228D01*
X59615Y-47242D01*
X59652Y-47242D01*
X59966Y-47242D01*
X60000Y-47228D01*
X60027Y-47202D01*
X60041Y-47167D01*
X60041Y-47130D01*
X60041Y-47957D01*
X59965Y-47957D01*
X59821Y-48017D01*
X59710Y-48127D01*
X59651Y-48271D01*
X59650Y-48427D01*
X59710Y-48571D01*
X59820Y-48682D01*
X59964Y-48741D01*
X60120Y-48742D01*
X60264Y-48682D01*
X60375Y-48572D01*
X60434Y-48428D01*
X60435Y-48272D01*
X60435Y-49508D01*
X59435Y-49508D01*
X59435Y-48609D01*
X59435Y-48012D01*
X59420Y-47978D01*
X59394Y-47952D01*
X59360Y-47938D01*
X59322Y-47937D01*
X58725Y-47937D01*
X58691Y-47952D01*
X58665Y-47978D01*
X58651Y-48012D01*
X58650Y-48050D01*
X58650Y-48647D01*
X58665Y-48681D01*
X58691Y-48707D01*
X58725Y-48721D01*
X58763Y-48722D01*
X59360Y-48722D01*
X59394Y-48707D01*
X59420Y-48681D01*
X59434Y-48647D01*
X59435Y-48609D01*
X59435Y-49508D01*
X57806Y-49508D01*
X57780Y-49497D01*
X57672Y-49497D01*
X57645Y-49508D01*
X57376Y-49508D01*
X57376Y-48292D01*
X57357Y-48196D01*
X57319Y-48138D01*
X57319Y-48108D01*
X57309Y-48084D01*
X57309Y-47638D01*
X57309Y-47324D01*
X57294Y-47290D01*
X57268Y-47263D01*
X57234Y-47249D01*
X57196Y-47249D01*
X57144Y-47249D01*
X57142Y-47248D01*
X57047Y-47229D01*
X56861Y-47229D01*
X56861Y-47132D01*
X56847Y-47098D01*
X56821Y-47071D01*
X56786Y-47057D01*
X56749Y-47057D01*
X56277Y-47057D01*
X56243Y-47071D01*
X56222Y-47092D01*
X55950Y-47092D01*
X55950Y-47014D01*
X55935Y-46979D01*
X55908Y-46952D01*
X55872Y-46937D01*
X55834Y-46937D01*
X54417Y-46937D01*
X54381Y-46952D01*
X54354Y-46979D01*
X54340Y-47014D01*
X54339Y-47053D01*
X54339Y-47603D01*
X54354Y-47638D01*
X54381Y-47665D01*
X54417Y-47680D01*
X54455Y-47680D01*
X55872Y-47680D01*
X55908Y-47665D01*
X55935Y-47638D01*
X55949Y-47603D01*
X55949Y-47593D01*
X56202Y-47593D01*
X56202Y-47679D01*
X56216Y-47713D01*
X56242Y-47740D01*
X56277Y-47754D01*
X56314Y-47754D01*
X56786Y-47754D01*
X56820Y-47740D01*
X56830Y-47730D01*
X56881Y-47730D01*
X56887Y-47736D01*
X56921Y-47750D01*
X56959Y-47750D01*
X57234Y-47750D01*
X57268Y-47736D01*
X57294Y-47710D01*
X57308Y-47675D01*
X57309Y-47638D01*
X57309Y-48084D01*
X57304Y-48074D01*
X57278Y-48047D01*
X57244Y-48033D01*
X57206Y-48033D01*
X56931Y-48033D01*
X56912Y-48041D01*
X56861Y-48041D01*
X56861Y-48036D01*
X56847Y-48002D01*
X56821Y-47975D01*
X56786Y-47961D01*
X56749Y-47961D01*
X56277Y-47961D01*
X56243Y-47975D01*
X56216Y-48001D01*
X56202Y-48036D01*
X56202Y-48073D01*
X56202Y-48583D01*
X56216Y-48617D01*
X56242Y-48644D01*
X56277Y-48658D01*
X56314Y-48658D01*
X56325Y-48658D01*
X56325Y-48775D01*
X56243Y-48856D01*
X56184Y-49000D01*
X56183Y-49156D01*
X56243Y-49300D01*
X56353Y-49411D01*
X56497Y-49470D01*
X56653Y-49471D01*
X56797Y-49411D01*
X56908Y-49301D01*
X56967Y-49157D01*
X56968Y-49001D01*
X56908Y-48857D01*
X56826Y-48774D01*
X56826Y-48639D01*
X56847Y-48618D01*
X56861Y-48583D01*
X56861Y-48546D01*
X56861Y-48542D01*
X57126Y-48542D01*
X57166Y-48534D01*
X57244Y-48534D01*
X57278Y-48520D01*
X57304Y-48494D01*
X57318Y-48459D01*
X57318Y-48445D01*
X57357Y-48387D01*
X57376Y-48292D01*
X57376Y-49508D01*
X57372Y-49508D01*
X57346Y-49497D01*
X57238Y-49497D01*
X57211Y-49508D01*
X56939Y-49508D01*
X56913Y-49497D01*
X56805Y-49497D01*
X56778Y-49508D01*
X56506Y-49508D01*
X56480Y-49497D01*
X56372Y-49497D01*
X56345Y-49508D01*
X54299Y-49508D01*
X54299Y-44205D01*
X54299Y-43674D01*
X54167Y-43587D01*
X54078Y-43587D01*
X54078Y-34808D01*
X54051Y-34745D01*
X54003Y-34697D01*
X53940Y-34671D01*
X53871Y-34670D01*
X53808Y-34697D01*
X53760Y-34745D01*
X53734Y-34808D01*
X53733Y-34877D01*
X53760Y-34940D01*
X53808Y-34988D01*
X53871Y-35014D01*
X53940Y-35015D01*
X54003Y-34988D01*
X54051Y-34940D01*
X54077Y-34877D01*
X54078Y-34808D01*
X54078Y-43587D01*
X53834Y-43587D01*
X53834Y-38520D01*
X53807Y-38457D01*
X53805Y-38455D01*
X53807Y-38452D01*
X53833Y-38389D01*
X53834Y-38320D01*
X53807Y-38257D01*
X53759Y-38209D01*
X53696Y-38183D01*
X53627Y-38182D01*
X53564Y-38209D01*
X53516Y-38257D01*
X53495Y-38308D01*
X53495Y-36418D01*
X53468Y-36355D01*
X53420Y-36307D01*
X53357Y-36281D01*
X53288Y-36280D01*
X53243Y-36299D01*
X53243Y-34827D01*
X53216Y-34764D01*
X53168Y-34716D01*
X53105Y-34690D01*
X53036Y-34689D01*
X52973Y-34716D01*
X52925Y-34764D01*
X52899Y-34827D01*
X52898Y-34896D01*
X52910Y-34923D01*
X52871Y-34922D01*
X52808Y-34949D01*
X52760Y-34997D01*
X52734Y-35060D01*
X52733Y-35129D01*
X52760Y-35192D01*
X52808Y-35240D01*
X52871Y-35266D01*
X52940Y-35267D01*
X53003Y-35240D01*
X53051Y-35192D01*
X53077Y-35129D01*
X53078Y-35060D01*
X53066Y-35033D01*
X53105Y-35034D01*
X53168Y-35007D01*
X53216Y-34959D01*
X53242Y-34896D01*
X53243Y-34827D01*
X53243Y-36299D01*
X53225Y-36307D01*
X53177Y-36355D01*
X53151Y-36418D01*
X53150Y-36487D01*
X53177Y-36550D01*
X53225Y-36598D01*
X53288Y-36624D01*
X53357Y-36625D01*
X53420Y-36598D01*
X53468Y-36550D01*
X53494Y-36487D01*
X53495Y-36418D01*
X53495Y-38308D01*
X53490Y-38320D01*
X53489Y-38389D01*
X53516Y-38452D01*
X53518Y-38454D01*
X53516Y-38457D01*
X53490Y-38520D01*
X53489Y-38589D01*
X53516Y-38652D01*
X53564Y-38700D01*
X53627Y-38726D01*
X53696Y-38727D01*
X53759Y-38700D01*
X53807Y-38652D01*
X53833Y-38589D01*
X53834Y-38520D01*
X53834Y-43587D01*
X53822Y-43587D01*
X53822Y-41501D01*
X53822Y-38946D01*
X53795Y-38883D01*
X53747Y-38835D01*
X53684Y-38809D01*
X53615Y-38808D01*
X53552Y-38835D01*
X53504Y-38883D01*
X53478Y-38946D01*
X53477Y-39015D01*
X53504Y-39078D01*
X53552Y-39126D01*
X53615Y-39152D01*
X53684Y-39153D01*
X53747Y-39126D01*
X53795Y-39078D01*
X53821Y-39015D01*
X53822Y-38946D01*
X53822Y-41501D01*
X53798Y-41443D01*
X53798Y-39335D01*
X53771Y-39272D01*
X53723Y-39224D01*
X53660Y-39198D01*
X53591Y-39197D01*
X53528Y-39224D01*
X53480Y-39272D01*
X53454Y-39335D01*
X53453Y-39404D01*
X53477Y-39460D01*
X53464Y-39473D01*
X53438Y-39536D01*
X53437Y-39605D01*
X53464Y-39668D01*
X53512Y-39716D01*
X53575Y-39742D01*
X53644Y-39743D01*
X53707Y-39716D01*
X53755Y-39668D01*
X53781Y-39605D01*
X53782Y-39536D01*
X53758Y-39480D01*
X53771Y-39467D01*
X53797Y-39404D01*
X53798Y-39335D01*
X53798Y-41443D01*
X53795Y-41438D01*
X53774Y-41416D01*
X53774Y-40524D01*
X53755Y-40478D01*
X53755Y-40166D01*
X53728Y-40103D01*
X53680Y-40055D01*
X53617Y-40029D01*
X53548Y-40028D01*
X53485Y-40055D01*
X53437Y-40103D01*
X53411Y-40166D01*
X53410Y-40235D01*
X53437Y-40298D01*
X53485Y-40346D01*
X53548Y-40372D01*
X53617Y-40373D01*
X53680Y-40346D01*
X53728Y-40298D01*
X53754Y-40235D01*
X53755Y-40166D01*
X53755Y-40478D01*
X53747Y-40461D01*
X53699Y-40413D01*
X53636Y-40387D01*
X53567Y-40386D01*
X53504Y-40413D01*
X53456Y-40461D01*
X53430Y-40524D01*
X53429Y-40593D01*
X53456Y-40656D01*
X53504Y-40704D01*
X53567Y-40730D01*
X53636Y-40731D01*
X53699Y-40704D01*
X53747Y-40656D01*
X53773Y-40593D01*
X53774Y-40524D01*
X53774Y-41416D01*
X53747Y-41390D01*
X53699Y-41370D01*
X53736Y-41333D01*
X53762Y-41270D01*
X53763Y-41201D01*
X53736Y-41138D01*
X53733Y-41135D01*
X53758Y-41074D01*
X53759Y-41005D01*
X53732Y-40942D01*
X53684Y-40894D01*
X53621Y-40868D01*
X53552Y-40867D01*
X53489Y-40894D01*
X53441Y-40942D01*
X53415Y-41005D01*
X53414Y-41074D01*
X53441Y-41137D01*
X53444Y-41140D01*
X53419Y-41201D01*
X53418Y-41270D01*
X53445Y-41333D01*
X53493Y-41381D01*
X53541Y-41401D01*
X53504Y-41438D01*
X53478Y-41501D01*
X53477Y-41570D01*
X53504Y-41633D01*
X53552Y-41681D01*
X53615Y-41707D01*
X53684Y-41708D01*
X53747Y-41681D01*
X53795Y-41633D01*
X53821Y-41570D01*
X53822Y-41501D01*
X53822Y-43587D01*
X53751Y-43587D01*
X53751Y-42087D01*
X53724Y-42024D01*
X53723Y-42023D01*
X53724Y-42022D01*
X53750Y-41959D01*
X53751Y-41890D01*
X53724Y-41827D01*
X53676Y-41779D01*
X53613Y-41753D01*
X53544Y-41752D01*
X53481Y-41779D01*
X53433Y-41827D01*
X53407Y-41890D01*
X53406Y-41959D01*
X53433Y-42022D01*
X53434Y-42023D01*
X53433Y-42024D01*
X53407Y-42087D01*
X53406Y-42156D01*
X53433Y-42219D01*
X53481Y-42267D01*
X53544Y-42293D01*
X53613Y-42294D01*
X53676Y-42267D01*
X53724Y-42219D01*
X53750Y-42156D01*
X53751Y-42087D01*
X53751Y-43587D01*
X53342Y-43587D01*
X53042Y-43293D01*
X53042Y-37292D01*
X53042Y-36717D01*
X53015Y-36654D01*
X52967Y-36606D01*
X52904Y-36580D01*
X52835Y-36579D01*
X52772Y-36606D01*
X52724Y-36654D01*
X52698Y-36717D01*
X52697Y-36786D01*
X52724Y-36849D01*
X52772Y-36897D01*
X52835Y-36923D01*
X52904Y-36924D01*
X52967Y-36897D01*
X53015Y-36849D01*
X53041Y-36786D01*
X53042Y-36717D01*
X53042Y-37292D01*
X53015Y-37229D01*
X52967Y-37181D01*
X52904Y-37155D01*
X52835Y-37154D01*
X52772Y-37181D01*
X52724Y-37229D01*
X52698Y-37292D01*
X52697Y-37343D01*
X52680Y-37336D01*
X52611Y-37335D01*
X52548Y-37362D01*
X52500Y-37410D01*
X52474Y-37473D01*
X52473Y-37542D01*
X52500Y-37605D01*
X52548Y-37653D01*
X52551Y-37655D01*
X52508Y-37654D01*
X52445Y-37681D01*
X52397Y-37729D01*
X52371Y-37792D01*
X52370Y-37861D01*
X52397Y-37924D01*
X52445Y-37972D01*
X52486Y-37989D01*
X52481Y-37989D01*
X52418Y-38016D01*
X52370Y-38064D01*
X52365Y-38077D01*
X52365Y-35855D01*
X52338Y-35792D01*
X52290Y-35744D01*
X52227Y-35718D01*
X52170Y-35717D01*
X52170Y-31643D01*
X52114Y-31506D01*
X52009Y-31402D01*
X51873Y-31345D01*
X51725Y-31345D01*
X51588Y-31401D01*
X51484Y-31506D01*
X51427Y-31642D01*
X51427Y-31790D01*
X51483Y-31927D01*
X51588Y-32031D01*
X51724Y-32088D01*
X51872Y-32088D01*
X52009Y-32032D01*
X52113Y-31927D01*
X52170Y-31791D01*
X52170Y-31643D01*
X52170Y-35717D01*
X52158Y-35717D01*
X52095Y-35744D01*
X52047Y-35792D01*
X52021Y-35855D01*
X52020Y-35924D01*
X52047Y-35987D01*
X52095Y-36035D01*
X52158Y-36061D01*
X52227Y-36062D01*
X52290Y-36035D01*
X52338Y-35987D01*
X52364Y-35924D01*
X52365Y-35855D01*
X52365Y-38077D01*
X52344Y-38127D01*
X52343Y-38196D01*
X52370Y-38259D01*
X52418Y-38307D01*
X52481Y-38333D01*
X52550Y-38334D01*
X52613Y-38307D01*
X52661Y-38259D01*
X52687Y-38196D01*
X52688Y-38127D01*
X52661Y-38064D01*
X52613Y-38016D01*
X52572Y-37999D01*
X52577Y-37999D01*
X52640Y-37972D01*
X52688Y-37924D01*
X52714Y-37861D01*
X52715Y-37792D01*
X52688Y-37729D01*
X52640Y-37681D01*
X52637Y-37679D01*
X52680Y-37680D01*
X52743Y-37653D01*
X52791Y-37605D01*
X52817Y-37542D01*
X52818Y-37491D01*
X52835Y-37498D01*
X52904Y-37499D01*
X52967Y-37472D01*
X53015Y-37424D01*
X53041Y-37361D01*
X53042Y-37292D01*
X53042Y-43293D01*
X52744Y-43002D01*
X52707Y-43001D01*
X52707Y-41697D01*
X52680Y-41634D01*
X52637Y-41590D01*
X52637Y-41008D01*
X52610Y-40945D01*
X52574Y-40908D01*
X52574Y-39780D01*
X52558Y-39742D01*
X52558Y-39146D01*
X52538Y-39098D01*
X52538Y-38737D01*
X52511Y-38674D01*
X52463Y-38626D01*
X52400Y-38600D01*
X52331Y-38599D01*
X52268Y-38626D01*
X52220Y-38674D01*
X52194Y-38737D01*
X52193Y-38806D01*
X52220Y-38869D01*
X52268Y-38917D01*
X52331Y-38943D01*
X52400Y-38944D01*
X52463Y-38917D01*
X52511Y-38869D01*
X52537Y-38806D01*
X52538Y-38737D01*
X52538Y-39098D01*
X52531Y-39083D01*
X52483Y-39035D01*
X52420Y-39009D01*
X52351Y-39008D01*
X52288Y-39035D01*
X52240Y-39083D01*
X52214Y-39146D01*
X52213Y-39215D01*
X52240Y-39278D01*
X52288Y-39326D01*
X52351Y-39352D01*
X52420Y-39353D01*
X52483Y-39326D01*
X52531Y-39278D01*
X52557Y-39215D01*
X52558Y-39146D01*
X52558Y-39742D01*
X52547Y-39717D01*
X52499Y-39669D01*
X52436Y-39643D01*
X52367Y-39642D01*
X52304Y-39669D01*
X52256Y-39717D01*
X52230Y-39780D01*
X52229Y-39843D01*
X52197Y-39843D01*
X52167Y-39856D01*
X52167Y-36574D01*
X52167Y-36379D01*
X52152Y-36345D01*
X52126Y-36319D01*
X52092Y-36305D01*
X52054Y-36304D01*
X51859Y-36304D01*
X51841Y-36312D01*
X51841Y-35253D01*
X51814Y-35190D01*
X51766Y-35142D01*
X51703Y-35116D01*
X51636Y-35115D01*
X51636Y-35104D01*
X51636Y-34929D01*
X51621Y-34895D01*
X51597Y-34870D01*
X51597Y-34552D01*
X51592Y-34530D01*
X51588Y-34501D01*
X51586Y-34497D01*
X51585Y-34493D01*
X51573Y-34476D01*
X51558Y-34450D01*
X51360Y-34229D01*
X51360Y-34206D01*
X51331Y-34135D01*
X51277Y-34082D01*
X51207Y-34053D01*
X51131Y-34052D01*
X51060Y-34081D01*
X51007Y-34135D01*
X50978Y-34205D01*
X50977Y-34281D01*
X51006Y-34352D01*
X51060Y-34405D01*
X51130Y-34434D01*
X51136Y-34434D01*
X51293Y-34609D01*
X51293Y-34870D01*
X51268Y-34895D01*
X51254Y-34929D01*
X51253Y-34967D01*
X51253Y-35142D01*
X51268Y-35176D01*
X51294Y-35202D01*
X51328Y-35216D01*
X51366Y-35217D01*
X51512Y-35217D01*
X51508Y-35224D01*
X51328Y-35224D01*
X51294Y-35239D01*
X51268Y-35265D01*
X51254Y-35299D01*
X51253Y-35337D01*
X51253Y-35512D01*
X51268Y-35546D01*
X51294Y-35572D01*
X51328Y-35586D01*
X51332Y-35586D01*
X51332Y-35798D01*
X51299Y-35831D01*
X51273Y-35894D01*
X51272Y-35963D01*
X51299Y-36026D01*
X51347Y-36074D01*
X51410Y-36100D01*
X51479Y-36101D01*
X51542Y-36074D01*
X51590Y-36026D01*
X51616Y-35963D01*
X51617Y-35894D01*
X51590Y-35831D01*
X51558Y-35798D01*
X51558Y-35587D01*
X51561Y-35587D01*
X51595Y-35572D01*
X51621Y-35546D01*
X51635Y-35512D01*
X51636Y-35474D01*
X51636Y-35459D01*
X51703Y-35460D01*
X51766Y-35433D01*
X51814Y-35385D01*
X51840Y-35322D01*
X51841Y-35253D01*
X51841Y-36312D01*
X51831Y-36316D01*
X51829Y-36315D01*
X51766Y-36289D01*
X51697Y-36288D01*
X51634Y-36315D01*
X51586Y-36363D01*
X51560Y-36426D01*
X51559Y-36495D01*
X51586Y-36558D01*
X51634Y-36606D01*
X51697Y-36632D01*
X51766Y-36633D01*
X51789Y-36623D01*
X51799Y-36646D01*
X51825Y-36672D01*
X51859Y-36686D01*
X51897Y-36687D01*
X52092Y-36687D01*
X52126Y-36672D01*
X52152Y-36646D01*
X52166Y-36612D01*
X52167Y-36574D01*
X52167Y-39856D01*
X52134Y-39870D01*
X52086Y-39918D01*
X52060Y-39981D01*
X52059Y-40050D01*
X52086Y-40113D01*
X52134Y-40161D01*
X52197Y-40187D01*
X52266Y-40188D01*
X52329Y-40161D01*
X52377Y-40113D01*
X52403Y-40050D01*
X52404Y-39987D01*
X52436Y-39987D01*
X52499Y-39960D01*
X52547Y-39912D01*
X52573Y-39849D01*
X52574Y-39780D01*
X52574Y-40908D01*
X52562Y-40897D01*
X52499Y-40871D01*
X52447Y-40870D01*
X52448Y-40812D01*
X52421Y-40749D01*
X52377Y-40705D01*
X52384Y-40688D01*
X52385Y-40619D01*
X52358Y-40556D01*
X52343Y-40540D01*
X52345Y-40539D01*
X52393Y-40491D01*
X52419Y-40428D01*
X52420Y-40359D01*
X52393Y-40296D01*
X52345Y-40248D01*
X52282Y-40222D01*
X52213Y-40221D01*
X52150Y-40248D01*
X52102Y-40296D01*
X52076Y-40359D01*
X52075Y-40428D01*
X52102Y-40491D01*
X52117Y-40507D01*
X52115Y-40508D01*
X52067Y-40556D01*
X52041Y-40619D01*
X52040Y-40688D01*
X52067Y-40751D01*
X52111Y-40795D01*
X52104Y-40812D01*
X52103Y-40881D01*
X52130Y-40944D01*
X52178Y-40992D01*
X52241Y-41018D01*
X52293Y-41019D01*
X52292Y-41077D01*
X52319Y-41140D01*
X52367Y-41188D01*
X52430Y-41214D01*
X52499Y-41215D01*
X52562Y-41188D01*
X52610Y-41140D01*
X52636Y-41077D01*
X52637Y-41008D01*
X52637Y-41590D01*
X52632Y-41586D01*
X52569Y-41560D01*
X52500Y-41559D01*
X52437Y-41586D01*
X52389Y-41634D01*
X52363Y-41697D01*
X52362Y-41766D01*
X52389Y-41829D01*
X52437Y-41877D01*
X52500Y-41903D01*
X52569Y-41904D01*
X52632Y-41877D01*
X52680Y-41829D01*
X52706Y-41766D01*
X52707Y-41697D01*
X52707Y-43001D01*
X52290Y-42999D01*
X52290Y-42319D01*
X52263Y-42256D01*
X52215Y-42208D01*
X52152Y-42182D01*
X52083Y-42181D01*
X52020Y-42208D01*
X52017Y-42211D01*
X52014Y-42209D01*
X51951Y-42183D01*
X51924Y-42183D01*
X51924Y-40713D01*
X51900Y-40655D01*
X51900Y-37205D01*
X51873Y-37142D01*
X51829Y-37098D01*
X51873Y-37054D01*
X51899Y-36991D01*
X51900Y-36922D01*
X51873Y-36859D01*
X51825Y-36811D01*
X51762Y-36785D01*
X51693Y-36784D01*
X51630Y-36811D01*
X51582Y-36859D01*
X51556Y-36922D01*
X51555Y-36991D01*
X51582Y-37054D01*
X51626Y-37098D01*
X51582Y-37142D01*
X51556Y-37205D01*
X51555Y-37274D01*
X51582Y-37337D01*
X51615Y-37370D01*
X51575Y-37410D01*
X51549Y-37473D01*
X51548Y-37542D01*
X51575Y-37605D01*
X51623Y-37653D01*
X51686Y-37679D01*
X51755Y-37680D01*
X51818Y-37653D01*
X51866Y-37605D01*
X51892Y-37542D01*
X51893Y-37473D01*
X51866Y-37410D01*
X51833Y-37377D01*
X51873Y-37337D01*
X51899Y-37274D01*
X51900Y-37205D01*
X51900Y-40655D01*
X51897Y-40650D01*
X51889Y-40641D01*
X51889Y-37957D01*
X51862Y-37894D01*
X51814Y-37846D01*
X51751Y-37820D01*
X51682Y-37819D01*
X51619Y-37846D01*
X51571Y-37894D01*
X51545Y-37957D01*
X51544Y-38026D01*
X51571Y-38089D01*
X51619Y-38137D01*
X51682Y-38163D01*
X51751Y-38164D01*
X51814Y-38137D01*
X51862Y-38089D01*
X51888Y-38026D01*
X51889Y-37957D01*
X51889Y-40641D01*
X51849Y-40602D01*
X51786Y-40576D01*
X51717Y-40575D01*
X51654Y-40602D01*
X51606Y-40650D01*
X51580Y-40713D01*
X51579Y-40782D01*
X51606Y-40845D01*
X51654Y-40893D01*
X51717Y-40919D01*
X51786Y-40920D01*
X51849Y-40893D01*
X51897Y-40845D01*
X51923Y-40782D01*
X51924Y-40713D01*
X51924Y-42183D01*
X51882Y-42182D01*
X51819Y-42209D01*
X51777Y-42251D01*
X51735Y-42209D01*
X51672Y-42183D01*
X51603Y-42182D01*
X51540Y-42209D01*
X51518Y-42231D01*
X51495Y-42209D01*
X51432Y-42183D01*
X51363Y-42182D01*
X51300Y-42209D01*
X51263Y-42246D01*
X51263Y-40914D01*
X51236Y-40851D01*
X51188Y-40803D01*
X51125Y-40777D01*
X51056Y-40776D01*
X50993Y-40803D01*
X50945Y-40851D01*
X50919Y-40914D01*
X50918Y-40983D01*
X50945Y-41046D01*
X50993Y-41094D01*
X51056Y-41120D01*
X51125Y-41121D01*
X51188Y-41094D01*
X51236Y-41046D01*
X51262Y-40983D01*
X51263Y-40914D01*
X51263Y-42246D01*
X51252Y-42257D01*
X51226Y-42320D01*
X51225Y-42389D01*
X51252Y-42452D01*
X51300Y-42500D01*
X51363Y-42526D01*
X51432Y-42527D01*
X51495Y-42500D01*
X51517Y-42478D01*
X51540Y-42500D01*
X51603Y-42526D01*
X51672Y-42527D01*
X51735Y-42500D01*
X51777Y-42458D01*
X51819Y-42500D01*
X51882Y-42526D01*
X51951Y-42527D01*
X52014Y-42500D01*
X52017Y-42497D01*
X52020Y-42499D01*
X52083Y-42525D01*
X52152Y-42526D01*
X52215Y-42499D01*
X52263Y-42451D01*
X52289Y-42388D01*
X52290Y-42319D01*
X52290Y-42999D01*
X51866Y-42996D01*
X51200Y-42996D01*
X51106Y-43090D01*
X51106Y-44424D01*
X50882Y-44649D01*
X50882Y-45090D01*
X51058Y-45271D01*
X51630Y-45275D01*
X51935Y-46092D01*
X52086Y-46090D01*
X52151Y-46117D01*
X52227Y-46118D01*
X52298Y-46089D01*
X52298Y-46088D01*
X52472Y-46086D01*
X52475Y-46088D01*
X52545Y-46117D01*
X52621Y-46118D01*
X52692Y-46089D01*
X52697Y-46083D01*
X52782Y-46082D01*
X53001Y-45904D01*
X53001Y-45200D01*
X53277Y-45102D01*
X53277Y-45052D01*
X53287Y-45026D01*
X53288Y-44989D01*
X53288Y-44951D01*
X53297Y-44906D01*
X53288Y-44860D01*
X53288Y-44675D01*
X53277Y-44649D01*
X53277Y-44517D01*
X53932Y-44531D01*
X54299Y-44205D01*
X54299Y-49508D01*
X54280Y-49508D01*
X53580Y-49508D01*
X53587Y-49491D01*
X53587Y-49452D01*
X53587Y-46854D01*
X53572Y-46819D01*
X53545Y-46792D01*
X53510Y-46777D01*
X53471Y-46777D01*
X51031Y-46777D01*
X50996Y-46792D01*
X50969Y-46819D01*
X50954Y-46854D01*
X50954Y-46893D01*
X50954Y-49491D01*
X50961Y-49508D01*
X50089Y-49508D01*
X50089Y-36977D01*
X50062Y-36914D01*
X50014Y-36866D01*
X49951Y-36840D01*
X49920Y-36840D01*
X49920Y-36190D01*
X49893Y-36127D01*
X49845Y-36079D01*
X49782Y-36053D01*
X49713Y-36052D01*
X49650Y-36079D01*
X49602Y-36127D01*
X49576Y-36190D01*
X49575Y-36259D01*
X49602Y-36322D01*
X49602Y-36322D01*
X49598Y-36327D01*
X49572Y-36390D01*
X49571Y-36459D01*
X49598Y-36522D01*
X49646Y-36570D01*
X49709Y-36596D01*
X49778Y-36597D01*
X49841Y-36570D01*
X49889Y-36522D01*
X49915Y-36459D01*
X49916Y-36390D01*
X49889Y-36327D01*
X49889Y-36327D01*
X49893Y-36322D01*
X49919Y-36259D01*
X49920Y-36190D01*
X49920Y-36840D01*
X49882Y-36839D01*
X49819Y-36866D01*
X49771Y-36914D01*
X49745Y-36977D01*
X49744Y-37046D01*
X49763Y-37091D01*
X49731Y-37059D01*
X49668Y-37033D01*
X49599Y-37032D01*
X49536Y-37059D01*
X49488Y-37107D01*
X49462Y-37170D01*
X49461Y-37239D01*
X49481Y-37286D01*
X49451Y-37256D01*
X49428Y-37246D01*
X49428Y-35993D01*
X49401Y-35930D01*
X49353Y-35882D01*
X49290Y-35856D01*
X49221Y-35855D01*
X49158Y-35882D01*
X49110Y-35930D01*
X49084Y-35993D01*
X49083Y-36062D01*
X49110Y-36125D01*
X49158Y-36173D01*
X49221Y-36199D01*
X49290Y-36200D01*
X49353Y-36173D01*
X49401Y-36125D01*
X49427Y-36062D01*
X49428Y-35993D01*
X49428Y-37246D01*
X49388Y-37230D01*
X49319Y-37229D01*
X49304Y-37236D01*
X49304Y-36977D01*
X49277Y-36914D01*
X49229Y-36866D01*
X49166Y-36840D01*
X49097Y-36839D01*
X49034Y-36866D01*
X48986Y-36914D01*
X48960Y-36977D01*
X48959Y-37046D01*
X48986Y-37109D01*
X49034Y-37157D01*
X49097Y-37183D01*
X49166Y-37184D01*
X49229Y-37157D01*
X49277Y-37109D01*
X49303Y-37046D01*
X49304Y-36977D01*
X49304Y-37236D01*
X49256Y-37256D01*
X49208Y-37304D01*
X49182Y-37367D01*
X49181Y-37436D01*
X49208Y-37499D01*
X49256Y-37547D01*
X49319Y-37573D01*
X49388Y-37574D01*
X49451Y-37547D01*
X49499Y-37499D01*
X49525Y-37436D01*
X49526Y-37367D01*
X49506Y-37320D01*
X49536Y-37350D01*
X49599Y-37376D01*
X49668Y-37377D01*
X49731Y-37350D01*
X49779Y-37302D01*
X49805Y-37239D01*
X49806Y-37170D01*
X49787Y-37125D01*
X49819Y-37157D01*
X49882Y-37183D01*
X49951Y-37184D01*
X50014Y-37157D01*
X50062Y-37109D01*
X50088Y-37046D01*
X50089Y-36977D01*
X50089Y-49508D01*
X49737Y-49508D01*
X49737Y-42883D01*
X49710Y-42820D01*
X49662Y-42772D01*
X49635Y-42760D01*
X49680Y-42715D01*
X49706Y-42652D01*
X49707Y-42583D01*
X49680Y-42520D01*
X49632Y-42472D01*
X49569Y-42446D01*
X49500Y-42445D01*
X49437Y-42472D01*
X49389Y-42520D01*
X49363Y-42583D01*
X49362Y-42652D01*
X49389Y-42715D01*
X49437Y-42763D01*
X49464Y-42775D01*
X49419Y-42820D01*
X49393Y-42883D01*
X49392Y-42952D01*
X49419Y-43015D01*
X49467Y-43063D01*
X49530Y-43089D01*
X49599Y-43090D01*
X49662Y-43063D01*
X49710Y-43015D01*
X49736Y-42952D01*
X49737Y-42883D01*
X49737Y-49508D01*
X49052Y-49508D01*
X49052Y-45049D01*
X49023Y-44978D01*
X48969Y-44925D01*
X48899Y-44896D01*
X48823Y-44895D01*
X48806Y-44902D01*
X48806Y-31303D01*
X48774Y-31224D01*
X48713Y-31163D01*
X48633Y-31130D01*
X48547Y-31130D01*
X48468Y-31162D01*
X48407Y-31223D01*
X48374Y-31303D01*
X48374Y-31389D01*
X48407Y-31468D01*
X48467Y-31529D01*
X48547Y-31562D01*
X48633Y-31562D01*
X48712Y-31529D01*
X48773Y-31469D01*
X48806Y-31389D01*
X48806Y-31303D01*
X48806Y-44902D01*
X48752Y-44924D01*
X48723Y-44954D01*
X48723Y-37535D01*
X48723Y-37340D01*
X48708Y-37306D01*
X48695Y-37293D01*
X48708Y-37280D01*
X48722Y-37246D01*
X48723Y-37208D01*
X48723Y-37013D01*
X48708Y-36979D01*
X48682Y-36953D01*
X48648Y-36939D01*
X48610Y-36938D01*
X48415Y-36938D01*
X48381Y-36953D01*
X48355Y-36979D01*
X48341Y-37013D01*
X48340Y-37051D01*
X48340Y-37083D01*
X48322Y-37090D01*
X48290Y-37059D01*
X48227Y-37033D01*
X48158Y-37032D01*
X48095Y-37059D01*
X48047Y-37107D01*
X48021Y-37170D01*
X48020Y-37239D01*
X48039Y-37284D01*
X48019Y-37304D01*
X47993Y-37367D01*
X47992Y-37436D01*
X48019Y-37499D01*
X48067Y-37547D01*
X48130Y-37573D01*
X48199Y-37574D01*
X48262Y-37547D01*
X48293Y-37516D01*
X48340Y-37528D01*
X48340Y-37573D01*
X48355Y-37607D01*
X48381Y-37633D01*
X48415Y-37647D01*
X48453Y-37648D01*
X48648Y-37648D01*
X48682Y-37633D01*
X48708Y-37607D01*
X48722Y-37573D01*
X48723Y-37535D01*
X48723Y-44954D01*
X48703Y-44974D01*
X48654Y-44925D01*
X48584Y-44896D01*
X48508Y-44895D01*
X48437Y-44924D01*
X48388Y-44974D01*
X48369Y-44954D01*
X48369Y-41697D01*
X48342Y-41634D01*
X48294Y-41586D01*
X48231Y-41560D01*
X48162Y-41559D01*
X48099Y-41586D01*
X48051Y-41634D01*
X48025Y-41697D01*
X48024Y-41766D01*
X48051Y-41829D01*
X48099Y-41877D01*
X48162Y-41903D01*
X48231Y-41904D01*
X48294Y-41877D01*
X48342Y-41829D01*
X48368Y-41766D01*
X48369Y-41697D01*
X48369Y-44954D01*
X48353Y-44938D01*
X48353Y-42095D01*
X48326Y-42032D01*
X48278Y-41984D01*
X48215Y-41958D01*
X48146Y-41957D01*
X48083Y-41984D01*
X48035Y-42032D01*
X48009Y-42095D01*
X48008Y-42164D01*
X48034Y-42226D01*
X48027Y-42233D01*
X48001Y-42296D01*
X48000Y-42365D01*
X48027Y-42428D01*
X48075Y-42476D01*
X48138Y-42502D01*
X48207Y-42503D01*
X48270Y-42476D01*
X48318Y-42428D01*
X48344Y-42365D01*
X48345Y-42296D01*
X48319Y-42234D01*
X48326Y-42227D01*
X48352Y-42164D01*
X48353Y-42095D01*
X48353Y-44938D01*
X48339Y-44925D01*
X48326Y-44919D01*
X48326Y-42690D01*
X48299Y-42627D01*
X48251Y-42579D01*
X48188Y-42553D01*
X48119Y-42552D01*
X48056Y-42579D01*
X48008Y-42627D01*
X47982Y-42690D01*
X47981Y-42759D01*
X48008Y-42822D01*
X48056Y-42870D01*
X48119Y-42896D01*
X48188Y-42897D01*
X48251Y-42870D01*
X48299Y-42822D01*
X48325Y-42759D01*
X48326Y-42690D01*
X48326Y-44919D01*
X48269Y-44896D01*
X48193Y-44895D01*
X48122Y-44924D01*
X48069Y-44978D01*
X48040Y-45048D01*
X48039Y-45124D01*
X48068Y-45195D01*
X48122Y-45248D01*
X48192Y-45277D01*
X48268Y-45278D01*
X48339Y-45249D01*
X48388Y-45199D01*
X48437Y-45248D01*
X48507Y-45277D01*
X48583Y-45278D01*
X48654Y-45249D01*
X48703Y-45199D01*
X48752Y-45248D01*
X48822Y-45277D01*
X48898Y-45278D01*
X48969Y-45249D01*
X49022Y-45195D01*
X49051Y-45125D01*
X49052Y-45049D01*
X49052Y-49508D01*
X47972Y-49508D01*
X47972Y-44444D01*
X47995Y-44389D01*
X47995Y-44281D01*
X47972Y-44225D01*
X47972Y-44011D01*
X47995Y-43956D01*
X47995Y-43848D01*
X47972Y-43792D01*
X47972Y-43578D01*
X47995Y-43523D01*
X47995Y-43415D01*
X47972Y-43359D01*
X47972Y-41282D01*
X47977Y-41287D01*
X48040Y-41313D01*
X48109Y-41314D01*
X48172Y-41287D01*
X48220Y-41239D01*
X48246Y-41176D01*
X48247Y-41116D01*
X48298Y-41094D01*
X48346Y-41046D01*
X48372Y-40983D01*
X48373Y-40914D01*
X48373Y-39733D01*
X48369Y-39724D01*
X48369Y-39335D01*
X48342Y-39272D01*
X48294Y-39224D01*
X48231Y-39198D01*
X48162Y-39197D01*
X48099Y-39224D01*
X48051Y-39272D01*
X48025Y-39335D01*
X48024Y-39404D01*
X48051Y-39467D01*
X48099Y-39515D01*
X48162Y-39541D01*
X48231Y-39542D01*
X48294Y-39515D01*
X48342Y-39467D01*
X48368Y-39404D01*
X48369Y-39335D01*
X48369Y-39724D01*
X48346Y-39670D01*
X48298Y-39622D01*
X48235Y-39596D01*
X48166Y-39595D01*
X48103Y-39622D01*
X48055Y-39670D01*
X48029Y-39733D01*
X48028Y-39802D01*
X48051Y-39855D01*
X48039Y-39867D01*
X48013Y-39930D01*
X48012Y-39999D01*
X48039Y-40062D01*
X48087Y-40110D01*
X48150Y-40136D01*
X48219Y-40137D01*
X48282Y-40110D01*
X48330Y-40062D01*
X48356Y-39999D01*
X48357Y-39930D01*
X48334Y-39877D01*
X48346Y-39865D01*
X48372Y-39802D01*
X48373Y-39733D01*
X48373Y-40914D01*
X48353Y-40866D01*
X48353Y-40320D01*
X48326Y-40257D01*
X48278Y-40209D01*
X48215Y-40183D01*
X48146Y-40182D01*
X48083Y-40209D01*
X48035Y-40257D01*
X48009Y-40320D01*
X48008Y-40389D01*
X48035Y-40452D01*
X48083Y-40500D01*
X48146Y-40526D01*
X48215Y-40527D01*
X48278Y-40500D01*
X48326Y-40452D01*
X48352Y-40389D01*
X48353Y-40320D01*
X48353Y-40866D01*
X48346Y-40851D01*
X48325Y-40829D01*
X48344Y-40782D01*
X48345Y-40713D01*
X48318Y-40650D01*
X48270Y-40602D01*
X48207Y-40576D01*
X48138Y-40575D01*
X48075Y-40602D01*
X48027Y-40650D01*
X48001Y-40713D01*
X48000Y-40782D01*
X48027Y-40845D01*
X48048Y-40867D01*
X48029Y-40914D01*
X48028Y-40974D01*
X47977Y-40996D01*
X47972Y-41001D01*
X47972Y-38919D01*
X47981Y-38928D01*
X48044Y-38954D01*
X48113Y-38955D01*
X48176Y-38928D01*
X48224Y-38880D01*
X48250Y-38817D01*
X48251Y-38753D01*
X48290Y-38736D01*
X48338Y-38688D01*
X48364Y-38625D01*
X48365Y-38556D01*
X48344Y-38506D01*
X48366Y-38483D01*
X48392Y-38420D01*
X48393Y-38351D01*
X48366Y-38288D01*
X48365Y-38286D01*
X48365Y-37949D01*
X48338Y-37886D01*
X48290Y-37838D01*
X48227Y-37812D01*
X48158Y-37811D01*
X48095Y-37838D01*
X48047Y-37886D01*
X48021Y-37949D01*
X48020Y-38018D01*
X48047Y-38081D01*
X48095Y-38129D01*
X48158Y-38155D01*
X48227Y-38156D01*
X48290Y-38129D01*
X48338Y-38081D01*
X48364Y-38018D01*
X48365Y-37949D01*
X48365Y-38286D01*
X48318Y-38240D01*
X48255Y-38214D01*
X48186Y-38213D01*
X48123Y-38240D01*
X48075Y-38288D01*
X48049Y-38351D01*
X48048Y-38420D01*
X48069Y-38470D01*
X48047Y-38493D01*
X48021Y-38556D01*
X48020Y-38620D01*
X47981Y-38637D01*
X47972Y-38646D01*
X47972Y-35605D01*
X47995Y-35550D01*
X47995Y-35442D01*
X47972Y-35386D01*
X47972Y-35172D01*
X47995Y-35117D01*
X47995Y-35009D01*
X47972Y-34953D01*
X47972Y-34739D01*
X47995Y-34684D01*
X47995Y-34576D01*
X47972Y-34520D01*
X47972Y-30688D01*
X56325Y-30688D01*
X56370Y-30707D01*
X56478Y-30707D01*
X56524Y-30688D01*
X56758Y-30688D01*
X56803Y-30707D01*
X56911Y-30707D01*
X56957Y-30688D01*
X57191Y-30688D01*
X57236Y-30707D01*
X57344Y-30707D01*
X57390Y-30688D01*
X57625Y-30688D01*
X57670Y-30707D01*
X57778Y-30707D01*
X57824Y-30688D01*
X66004Y-30688D01*
X66004Y-34508D01*
X65846Y-34508D01*
X65846Y-30972D01*
X65813Y-30893D01*
X65752Y-30832D01*
X65673Y-30799D01*
X65587Y-30799D01*
X65507Y-30832D01*
X65446Y-30893D01*
X65413Y-30972D01*
X65413Y-31058D01*
X65446Y-31138D01*
X65507Y-31199D01*
X65586Y-31232D01*
X65672Y-31232D01*
X65752Y-31199D01*
X65813Y-31138D01*
X65846Y-31058D01*
X65846Y-30972D01*
X65846Y-34508D01*
X63706Y-34508D01*
X63706Y-31756D01*
X63646Y-31612D01*
X63536Y-31501D01*
X63392Y-31442D01*
X63236Y-31441D01*
X63092Y-31501D01*
X62981Y-31611D01*
X62922Y-31755D01*
X62921Y-31911D01*
X62981Y-32055D01*
X63091Y-32166D01*
X63235Y-32225D01*
X63391Y-32226D01*
X63535Y-32166D01*
X63646Y-32056D01*
X63705Y-31912D01*
X63706Y-31756D01*
X63706Y-34508D01*
X62893Y-34508D01*
X62893Y-33996D01*
X62706Y-33996D01*
X62706Y-31756D01*
X62646Y-31612D01*
X62536Y-31501D01*
X62392Y-31442D01*
X62236Y-31441D01*
X62092Y-31501D01*
X61981Y-31611D01*
X61922Y-31755D01*
X61921Y-31911D01*
X61981Y-32055D01*
X62091Y-32166D01*
X62235Y-32225D01*
X62391Y-32226D01*
X62535Y-32166D01*
X62646Y-32056D01*
X62705Y-31912D01*
X62706Y-31756D01*
X62706Y-33996D01*
X61698Y-33996D01*
X61698Y-31849D01*
X61674Y-31700D01*
X61663Y-31673D01*
X61619Y-31634D01*
X61513Y-31740D01*
X61513Y-31528D01*
X61474Y-31484D01*
X61329Y-31449D01*
X61180Y-31473D01*
X61153Y-31484D01*
X61114Y-31528D01*
X61314Y-31727D01*
X61513Y-31528D01*
X61513Y-31740D01*
X61420Y-31834D01*
X61619Y-32033D01*
X61663Y-31994D01*
X61698Y-31849D01*
X61698Y-33996D01*
X61513Y-33996D01*
X61513Y-32139D01*
X61314Y-31940D01*
X61207Y-32046D01*
X61207Y-31834D01*
X61008Y-31634D01*
X60964Y-31673D01*
X60929Y-31818D01*
X60953Y-31967D01*
X60964Y-31994D01*
X61008Y-32033D01*
X61207Y-31834D01*
X61207Y-32046D01*
X61114Y-32139D01*
X61153Y-32183D01*
X61298Y-32218D01*
X61447Y-32194D01*
X61474Y-32183D01*
X61513Y-32139D01*
X61513Y-33996D01*
X60706Y-33996D01*
X60706Y-31756D01*
X60646Y-31612D01*
X60536Y-31501D01*
X60392Y-31442D01*
X60236Y-31441D01*
X60092Y-31501D01*
X59981Y-31611D01*
X59922Y-31755D01*
X59921Y-31911D01*
X59981Y-32055D01*
X60091Y-32166D01*
X60235Y-32225D01*
X60391Y-32226D01*
X60535Y-32166D01*
X60646Y-32056D01*
X60705Y-31912D01*
X60706Y-31756D01*
X60706Y-33996D01*
X59706Y-33996D01*
X59706Y-32093D01*
X59706Y-31496D01*
X59691Y-31462D01*
X59665Y-31436D01*
X59631Y-31422D01*
X59593Y-31421D01*
X58996Y-31421D01*
X58962Y-31436D01*
X58936Y-31462D01*
X58922Y-31496D01*
X58921Y-31534D01*
X58921Y-32131D01*
X58936Y-32165D01*
X58962Y-32191D01*
X58996Y-32205D01*
X59034Y-32206D01*
X59631Y-32206D01*
X59665Y-32191D01*
X59691Y-32165D01*
X59705Y-32131D01*
X59706Y-32093D01*
X59706Y-33996D01*
X58699Y-33996D01*
X58699Y-31756D01*
X58639Y-31612D01*
X58529Y-31501D01*
X58385Y-31442D01*
X58229Y-31441D01*
X58085Y-31501D01*
X57974Y-31611D01*
X57915Y-31755D01*
X57914Y-31911D01*
X57974Y-32055D01*
X58084Y-32166D01*
X58228Y-32225D01*
X58384Y-32226D01*
X58528Y-32166D01*
X58639Y-32056D01*
X58698Y-31912D01*
X58699Y-31756D01*
X58699Y-33996D01*
X57699Y-33996D01*
X57699Y-31756D01*
X57639Y-31612D01*
X57529Y-31501D01*
X57385Y-31442D01*
X57229Y-31441D01*
X57085Y-31501D01*
X56974Y-31611D01*
X56915Y-31755D01*
X56914Y-31911D01*
X56974Y-32055D01*
X57084Y-32166D01*
X57228Y-32225D01*
X57384Y-32226D01*
X57528Y-32166D01*
X57639Y-32056D01*
X57698Y-31912D01*
X57699Y-31756D01*
X57699Y-33996D01*
X56699Y-33996D01*
X56699Y-31756D01*
X56639Y-31612D01*
X56529Y-31501D01*
X56385Y-31442D01*
X56229Y-31441D01*
X56085Y-31501D01*
X55974Y-31611D01*
X55915Y-31755D01*
X55914Y-31911D01*
X55974Y-32055D01*
X56084Y-32166D01*
X56228Y-32225D01*
X56384Y-32226D01*
X56528Y-32166D01*
X56639Y-32056D01*
X56698Y-31912D01*
X56699Y-31756D01*
X56699Y-33996D01*
X55699Y-33996D01*
X55699Y-31756D01*
X55639Y-31612D01*
X55529Y-31501D01*
X55385Y-31442D01*
X55229Y-31441D01*
X55085Y-31501D01*
X54974Y-31611D01*
X54915Y-31755D01*
X54914Y-31911D01*
X54974Y-32055D01*
X55084Y-32166D01*
X55228Y-32225D01*
X55384Y-32226D01*
X55528Y-32166D01*
X55639Y-32056D01*
X55698Y-31912D01*
X55699Y-31756D01*
X55699Y-33996D01*
X54980Y-33996D01*
X54980Y-37152D01*
X54911Y-37151D01*
X54908Y-37153D01*
X54908Y-36296D01*
X54881Y-36233D01*
X54843Y-36195D01*
X54866Y-36172D01*
X54892Y-36109D01*
X54893Y-36040D01*
X54866Y-35977D01*
X54818Y-35929D01*
X54755Y-35903D01*
X54699Y-35902D01*
X54699Y-31756D01*
X54639Y-31612D01*
X54529Y-31501D01*
X54385Y-31442D01*
X54229Y-31441D01*
X54085Y-31501D01*
X53974Y-31611D01*
X53915Y-31755D01*
X53914Y-31911D01*
X53974Y-32055D01*
X54084Y-32166D01*
X54228Y-32225D01*
X54384Y-32226D01*
X54528Y-32166D01*
X54639Y-32056D01*
X54698Y-31912D01*
X54699Y-31756D01*
X54699Y-35902D01*
X54686Y-35902D01*
X54623Y-35929D01*
X54575Y-35977D01*
X54549Y-36040D01*
X54548Y-36109D01*
X54575Y-36172D01*
X54613Y-36210D01*
X54590Y-36233D01*
X54564Y-36296D01*
X54563Y-36365D01*
X54590Y-36428D01*
X54638Y-36476D01*
X54701Y-36502D01*
X54770Y-36503D01*
X54833Y-36476D01*
X54881Y-36428D01*
X54907Y-36365D01*
X54908Y-36296D01*
X54908Y-37153D01*
X54840Y-37180D01*
X54787Y-37234D01*
X54758Y-37304D01*
X54757Y-37380D01*
X54786Y-37451D01*
X54840Y-37504D01*
X54910Y-37533D01*
X54980Y-37534D01*
X54980Y-42890D01*
X54949Y-42890D01*
X54886Y-42917D01*
X54856Y-42947D01*
X54818Y-42909D01*
X54755Y-42883D01*
X54686Y-42882D01*
X54625Y-42908D01*
X54625Y-37284D01*
X54598Y-37221D01*
X54550Y-37173D01*
X54487Y-37147D01*
X54418Y-37146D01*
X54412Y-37149D01*
X54412Y-34403D01*
X54383Y-34332D01*
X54329Y-34279D01*
X54259Y-34250D01*
X54183Y-34249D01*
X54112Y-34278D01*
X54059Y-34332D01*
X54030Y-34402D01*
X54029Y-34478D01*
X54058Y-34549D01*
X54112Y-34602D01*
X54182Y-34631D01*
X54258Y-34632D01*
X54329Y-34603D01*
X54382Y-34549D01*
X54411Y-34479D01*
X54412Y-34403D01*
X54412Y-37149D01*
X54355Y-37173D01*
X54307Y-37221D01*
X54281Y-37284D01*
X54280Y-37353D01*
X54307Y-37416D01*
X54355Y-37464D01*
X54418Y-37490D01*
X54487Y-37491D01*
X54550Y-37464D01*
X54598Y-37416D01*
X54624Y-37353D01*
X54625Y-37284D01*
X54625Y-42908D01*
X54623Y-42909D01*
X54575Y-42957D01*
X54549Y-43020D01*
X54548Y-43089D01*
X54575Y-43152D01*
X54623Y-43200D01*
X54686Y-43226D01*
X54755Y-43227D01*
X54818Y-43200D01*
X54848Y-43170D01*
X54886Y-43208D01*
X54949Y-43234D01*
X54980Y-43234D01*
X54980Y-45084D01*
X54766Y-45084D01*
X54758Y-45066D01*
X54732Y-45039D01*
X54698Y-45025D01*
X54660Y-45025D01*
X54385Y-45025D01*
X54351Y-45039D01*
X54325Y-45065D01*
X54311Y-45100D01*
X54310Y-45137D01*
X54310Y-45451D01*
X54325Y-45485D01*
X54351Y-45512D01*
X54385Y-45526D01*
X54423Y-45526D01*
X54698Y-45526D01*
X54732Y-45512D01*
X54758Y-45486D01*
X54766Y-45467D01*
X54980Y-45467D01*
X54980Y-46082D01*
X62893Y-46082D01*
X62893Y-45610D01*
X66004Y-45610D01*
X66004Y-49508D01*
G54D10*
G36*
X54111Y-44083D02*
X53831Y-44363D01*
X53388Y-44363D01*
X53388Y-43811D01*
X53464Y-43735D01*
X54111Y-43735D01*
X54111Y-44083D01*
X54111Y-44083D01*
G37*
G54D11*
X54111Y-44083D02*
X53831Y-44363D01*
X53388Y-44363D01*
X53388Y-43811D01*
X53464Y-43735D01*
X54111Y-43735D01*
X54111Y-44083D01*
G54D10*
G36*
X51854Y-45110D02*
X51098Y-45110D01*
X51043Y-45058D01*
X51043Y-44747D01*
X51127Y-44659D01*
X51283Y-44504D01*
X51283Y-43196D01*
X51854Y-43196D01*
X51854Y-45110D01*
X51854Y-45110D01*
G37*
G54D116*
X51854Y-45110D02*
X51098Y-45110D01*
X51043Y-45058D01*
X51043Y-44747D01*
X51127Y-44659D01*
X51283Y-44504D01*
X51283Y-43196D01*
X51854Y-43196D01*
X51854Y-45110D01*
G54D10*
G36*
X57417Y-34500D02*
X56807Y-34500D01*
X56807Y-34240D01*
X57417Y-34240D01*
X57417Y-34500D01*
X57417Y-34500D01*
G37*
G54D116*
X57417Y-34500D02*
X56807Y-34500D01*
X56807Y-34240D01*
X57417Y-34240D01*
X57417Y-34500D01*
G54D10*
G36*
X56866Y-45636D02*
X56259Y-45636D01*
X56259Y-45375D01*
X56866Y-45375D01*
X56866Y-45636D01*
X56866Y-45636D01*
G37*
G54D116*
X56866Y-45636D02*
X56259Y-45636D01*
X56259Y-45375D01*
X56866Y-45375D01*
X56866Y-45636D01*
G54D10*
G36*
X66004Y-44035D02*
X65728Y-44035D01*
X65728Y-39344D01*
X65728Y-38962D01*
X65531Y-38884D01*
X65531Y-38101D01*
X65362Y-37933D01*
X63849Y-37933D01*
X63681Y-38101D01*
X63681Y-39303D01*
X63956Y-39421D01*
X63956Y-42016D01*
X64125Y-42184D01*
X65362Y-42184D01*
X65531Y-42016D01*
X65531Y-39422D01*
X65728Y-39344D01*
X65728Y-44035D01*
X65709Y-44035D01*
X62893Y-44035D01*
X62893Y-36082D01*
X66004Y-36082D01*
X66004Y-39500D01*
X65997Y-39516D01*
X65997Y-39624D01*
X66004Y-39641D01*
X66004Y-39933D01*
X65997Y-39949D01*
X65997Y-40057D01*
X66004Y-40074D01*
X66004Y-40366D01*
X65997Y-40382D01*
X65997Y-40490D01*
X66004Y-40507D01*
X66004Y-40799D01*
X65997Y-40815D01*
X65997Y-40923D01*
X66004Y-40940D01*
X66004Y-44035D01*
X66004Y-44035D01*
G37*
G54D116*
X66004Y-44035D02*
X65728Y-44035D01*
X65728Y-39344D01*
X65728Y-38962D01*
X65531Y-38884D01*
X65531Y-38101D01*
X65362Y-37933D01*
X63849Y-37933D01*
X63681Y-38101D01*
X63681Y-39303D01*
X63956Y-39421D01*
X63956Y-42016D01*
X64125Y-42184D01*
X65362Y-42184D01*
X65531Y-42016D01*
X65531Y-39422D01*
X65728Y-39344D01*
X65728Y-44035D01*
X65709Y-44035D01*
X62893Y-44035D01*
X62893Y-36082D01*
X66004Y-36082D01*
X66004Y-39500D01*
X65997Y-39516D01*
X65997Y-39624D01*
X66004Y-39641D01*
X66004Y-39933D01*
X65997Y-39949D01*
X65997Y-40057D01*
X66004Y-40074D01*
X66004Y-40366D01*
X65997Y-40382D01*
X65997Y-40490D01*
X66004Y-40507D01*
X66004Y-40799D01*
X65997Y-40815D01*
X65997Y-40923D01*
X66004Y-40940D01*
X66004Y-44035D01*
G54D10*
G36*
X58878Y-41122D02*
X56633Y-41122D01*
X56633Y-38917D01*
X58878Y-38917D01*
X58878Y-41122D01*
X58878Y-41122D01*
G37*
G54D116*
X58878Y-41122D02*
X56633Y-41122D01*
X56633Y-38917D01*
X58878Y-38917D01*
X58878Y-41122D01*
M02*
