G04 (created by PCBNEW (2013-05-31 BZR 4019)-stable) date 03/03/2014 21:16:58*
%MOIN*%
G04 Gerber Fmt 3.4, Leading zero omitted, Abs format*
%FSLAX34Y34*%
G01*
G70*
G90*
G04 APERTURE LIST*
%ADD10C,0.00590551*%
%ADD11C,0.0077*%
%ADD12C,0.0314961*%
%ADD13C,0.0357*%
%ADD14C,0.0554*%
%ADD15R,0.0592X0.0592*%
%ADD16C,0.0395*%
%ADD17R,0.055X0.0588*%
%ADD18R,0.0588X0.055*%
%ADD19R,0.0273X0.0253*%
%ADD20R,0.0253X0.0273*%
%ADD21R,0.0337X0.0218*%
%ADD22R,0.0218X0.0337*%
%ADD23R,0.0353X0.0392*%
%ADD24R,0.0392X0.0353*%
%ADD25R,0.0273X0.0273*%
%ADD26C,0.2365*%
%ADD27R,0.1571X0.0704*%
%ADD28R,0.2594X0.2752*%
%ADD29R,0.0514X0.0514*%
%ADD30R,0.2049X0.0789*%
%ADD31R,0.0789X0.0475*%
%ADD32R,0.0797X0.0797*%
%ADD33C,0.0797*%
%ADD34R,0.0453X0.0803*%
%ADD35R,0.0823X0.0823*%
%ADD36O,0.0271X0.0489*%
%ADD37O,0.0276X0.0489*%
%ADD38O,0.0272X0.0489*%
%ADD39O,0.0489X0.0272*%
%ADD40R,0.0489X0.0272*%
%ADD41O,0.0489X0.0276*%
%ADD42R,0.0357X0.0409*%
%ADD43R,0.022X0.0314*%
%ADD44R,0.0476X0.0295*%
%ADD45R,0.0527X0.0295*%
%ADD46R,0.0554X0.0295*%
%ADD47R,0.0759X0.0295*%
%ADD48R,0.0219X0.0295*%
%ADD49R,0.0219X0.0283*%
%ADD50R,0.022X0.0295*%
%ADD51R,0.0219X0.0371*%
%ADD52R,0.0219X0.0542*%
%ADD53R,0.0219X0.0504*%
%ADD54R,0.0219X0.0294*%
%ADD55R,0.0219X0.0409*%
%ADD56R,0.0219X0.058*%
%ADD57R,0.0219X0.0675*%
%ADD58R,0.0219X0.0789*%
%ADD59R,0.0219X0.0846*%
%ADD60R,0.0219X0.0903*%
%ADD61R,0.0219X0.0979*%
%ADD62R,0.0219X0.0485*%
%ADD63R,0.0219X0.0447*%
%ADD64R,0.0219X0.0428*%
%ADD65R,0.0219X0.039*%
%ADD66R,0.0219X0.0333*%
%ADD67R,0.0219X0.0276*%
%ADD68R,0.0219X0.0238*%
%ADD69R,0.0219X0.0637*%
%ADD70R,0.0219X0.0751*%
%ADD71R,0.0219X0.0314*%
%ADD72R,0.0219X0.0257*%
%ADD73R,0.022X0.034*%
%ADD74R,0.0219X0.0535*%
%ADD75R,0.0219X0.0352*%
%ADD76R,0.0219X0.0561*%
%ADD77R,0.0219X0.0599*%
%ADD78R,0.0219X0.0523*%
%ADD79R,0.0219X0.0466*%
%ADD80R,0.0791X0.0295*%
%ADD81R,0.0357X0.0295*%
%ADD82R,0.022X0.058*%
%ADD83R,0.0219X0.0618*%
%ADD84R,0.0495X0.0295*%
%ADD85R,0.0417X0.0295*%
%ADD86R,0.0924X0.0295*%
%ADD87R,0.0219X0.3981*%
%ADD88R,0.0129921X0.0248031*%
%ADD89R,0.0248031X0.0129921*%
%ADD90R,0.0464567X0.0464567*%
%ADD91R,0.240146X0.240146*%
%ADD92R,0.0235X0.0393*%
%ADD93R,0.0155X0.0155*%
%ADD94R,0.0155X0.0215*%
%ADD95R,0.0215X0.0155*%
%ADD96R,0.1649X0.0546*%
%ADD97R,0.1453X0.0546*%
%ADD98R,0.0546X0.1453*%
%ADD99R,0.0546X0.1649*%
%ADD100C,0.0039*%
G04 APERTURE END LIST*
G54D10*
G54D11*
X42606Y-52483D02*
X42606Y-27680D01*
X68983Y-52483D02*
X42606Y-52483D01*
X68983Y-27680D02*
X68983Y-52483D01*
X42606Y-27680D02*
X68983Y-27680D01*
X66228Y-30437D02*
X66228Y-39492D01*
X57764Y-30437D02*
X66228Y-30437D01*
X57764Y-29650D02*
X57764Y-30437D01*
X67016Y-29650D02*
X57764Y-29650D01*
X67016Y-39492D02*
X67016Y-29650D01*
X66228Y-39492D02*
X67016Y-39492D01*
X57764Y-50515D02*
X57764Y-49728D01*
X67016Y-50515D02*
X57764Y-50515D01*
X67016Y-40948D02*
X67016Y-50515D01*
X66228Y-40948D02*
X67016Y-40948D01*
X66228Y-49728D02*
X66228Y-40948D01*
X57764Y-49728D02*
X66228Y-49728D01*
X46936Y-50515D02*
X46936Y-44413D01*
X56386Y-50515D02*
X46936Y-50515D01*
X56386Y-49728D02*
X56386Y-50515D01*
X47724Y-49728D02*
X56386Y-49728D01*
X47724Y-44413D02*
X47724Y-49728D01*
X46936Y-44413D02*
X47724Y-44413D01*
X46936Y-43390D02*
X46936Y-35555D01*
X47724Y-43390D02*
X46936Y-43390D01*
X47724Y-35555D02*
X47724Y-43390D01*
X46936Y-35555D02*
X47724Y-35555D01*
X47724Y-30437D02*
X47724Y-34570D01*
X46936Y-34570D02*
X47724Y-34570D01*
X46936Y-29648D02*
X46936Y-34570D01*
X46936Y-29648D02*
X56384Y-29648D01*
X56384Y-29648D02*
X56384Y-30437D01*
X47724Y-30437D02*
X56384Y-30437D01*
G54D12*
X48590Y-31346D03*
X65629Y-31015D03*
X63771Y-49007D03*
G54D13*
X61386Y-35540D03*
X61024Y-35536D03*
X61024Y-35198D03*
X61394Y-35193D03*
G54D14*
X47725Y-34630D03*
X47725Y-35063D03*
X47725Y-35496D03*
X47725Y-44335D03*
X47725Y-43902D03*
X47725Y-43469D03*
X66268Y-39571D03*
X66268Y-40004D03*
X66268Y-40437D03*
X66268Y-40870D03*
G54D15*
X49299Y-51303D03*
X49299Y-51303D03*
X66622Y-51303D03*
X66622Y-51303D03*
X66621Y-28862D03*
X66621Y-28862D03*
G54D13*
X58299Y-40354D03*
X58299Y-39921D03*
X58082Y-40138D03*
X58515Y-40138D03*
X61011Y-37386D03*
X62078Y-44708D03*
X62275Y-44901D03*
X58732Y-40354D03*
X57866Y-40354D03*
X57433Y-40354D03*
X57000Y-40354D03*
X56783Y-40571D03*
X57216Y-40571D03*
X57653Y-40571D03*
X58082Y-40571D03*
X58515Y-40571D03*
X58515Y-41004D03*
X58082Y-41004D03*
X57653Y-41004D03*
X57216Y-41004D03*
X56783Y-41004D03*
X57000Y-40787D03*
X57433Y-40787D03*
X58299Y-40787D03*
X57866Y-40787D03*
X58732Y-40787D03*
X58732Y-39921D03*
X57866Y-39921D03*
X57433Y-39921D03*
X57000Y-39921D03*
X56783Y-40138D03*
X57216Y-40138D03*
X57653Y-40138D03*
X58515Y-39705D03*
X58082Y-39705D03*
X57653Y-39705D03*
X57216Y-39705D03*
X56783Y-39705D03*
X57000Y-39488D03*
X57433Y-39488D03*
X58299Y-39488D03*
X57866Y-39488D03*
X58732Y-39488D03*
X58732Y-39055D03*
X57866Y-39055D03*
X58299Y-39055D03*
X57433Y-39055D03*
X57000Y-39055D03*
X56783Y-39272D03*
X57216Y-39272D03*
X57653Y-39272D03*
X58082Y-39272D03*
X58515Y-39272D03*
G54D16*
X52586Y-43621D03*
G54D17*
X56532Y-48310D03*
X56532Y-47406D03*
G54D18*
X51568Y-44036D03*
X52472Y-44036D03*
X51568Y-44772D03*
X52472Y-44772D03*
G54D19*
X51445Y-35036D03*
X51445Y-35406D03*
G54D20*
X61870Y-36559D03*
X61500Y-36559D03*
G54D19*
X60461Y-41890D03*
X60461Y-41520D03*
X55299Y-38559D03*
X55299Y-38929D03*
X60827Y-41504D03*
X60827Y-41874D03*
X60618Y-38784D03*
X60618Y-38414D03*
X60264Y-38402D03*
X60264Y-38772D03*
X59665Y-38024D03*
X59665Y-37654D03*
G54D21*
X58799Y-43133D03*
X58799Y-42793D03*
X57825Y-35952D03*
X57825Y-36292D03*
X59843Y-43123D03*
X59843Y-42783D03*
G54D22*
X58800Y-35740D03*
X58460Y-35740D03*
X57442Y-36787D03*
X57102Y-36787D03*
G54D21*
X58472Y-36568D03*
X58472Y-36228D03*
G54D22*
X57434Y-35512D03*
X57094Y-35512D03*
X58957Y-37870D03*
X58617Y-37870D03*
G54D21*
X59252Y-36247D03*
X59252Y-36587D03*
G54D22*
X58296Y-42520D03*
X57956Y-42520D03*
X57123Y-42500D03*
X57463Y-42500D03*
X59692Y-44606D03*
X60032Y-44606D03*
G54D21*
X58976Y-44225D03*
X58976Y-43885D03*
G54D22*
X59692Y-43484D03*
X60032Y-43484D03*
X57237Y-37984D03*
X56897Y-37984D03*
X56568Y-36500D03*
X56228Y-36500D03*
X55550Y-36496D03*
X55890Y-36496D03*
X58044Y-37992D03*
X57704Y-37992D03*
G54D23*
X57078Y-47500D03*
X57508Y-47500D03*
X57088Y-48284D03*
X57518Y-48284D03*
X54542Y-45276D03*
X54112Y-45276D03*
G54D24*
X51469Y-43372D03*
X51469Y-42943D03*
G54D23*
X53057Y-44851D03*
X53487Y-44851D03*
X55215Y-44638D03*
X54785Y-44638D03*
X53990Y-43882D03*
X54420Y-43882D03*
G54D25*
X59016Y-35305D03*
X59370Y-35305D03*
X59327Y-45031D03*
X59681Y-45031D03*
X58976Y-44606D03*
X58622Y-44606D03*
X59693Y-43878D03*
X59693Y-44232D03*
X58976Y-43504D03*
X58622Y-43504D03*
X59124Y-42776D03*
X59124Y-43130D03*
X59488Y-42776D03*
X59488Y-43130D03*
X59130Y-42477D03*
X59484Y-42477D03*
X59577Y-36584D03*
X59577Y-36230D03*
X57469Y-45799D03*
X57823Y-45799D03*
X57622Y-35059D03*
X57976Y-35059D03*
X58004Y-42933D03*
X58004Y-43287D03*
X57461Y-42933D03*
X57461Y-43287D03*
X57667Y-42165D03*
X58021Y-42165D03*
X59012Y-37480D03*
X59012Y-37126D03*
X59248Y-35744D03*
X59602Y-35744D03*
X58799Y-36575D03*
X58799Y-36221D03*
X57441Y-36289D03*
X57441Y-35935D03*
X51976Y-36496D03*
X52330Y-36496D03*
X57825Y-35522D03*
X58179Y-35522D03*
X58071Y-37579D03*
X58071Y-37225D03*
X57677Y-37579D03*
X57677Y-37225D03*
X57260Y-37575D03*
X57260Y-37221D03*
X57825Y-36781D03*
X58179Y-36781D03*
X57764Y-34433D03*
X58118Y-34433D03*
X56874Y-37567D03*
X56874Y-37213D03*
X58547Y-37480D03*
X58547Y-37126D03*
X63775Y-35299D03*
X64129Y-35299D03*
X48532Y-37130D03*
X48532Y-36776D03*
X48532Y-37457D03*
X48532Y-37811D03*
X60264Y-38110D03*
X60618Y-38110D03*
X60268Y-39083D03*
X60622Y-39083D03*
X60264Y-39406D03*
X60618Y-39406D03*
X60473Y-40831D03*
X60827Y-40831D03*
X60461Y-42173D03*
X60815Y-42173D03*
X55283Y-39252D03*
X54929Y-39252D03*
X60481Y-41173D03*
X60835Y-41173D03*
G54D26*
X49752Y-32228D03*
X64791Y-32228D03*
X64791Y-47975D03*
X49752Y-47975D03*
G54D27*
X55145Y-49107D03*
G54D28*
X52271Y-48173D03*
G54D27*
X55145Y-47309D03*
G54D20*
X59347Y-47051D03*
X58977Y-47051D03*
G54D29*
X60421Y-46992D03*
X59791Y-46992D03*
G54D16*
X52112Y-49195D03*
X51720Y-49197D03*
X52507Y-49197D03*
X51325Y-49197D03*
X51325Y-48802D03*
X51325Y-48410D03*
X51325Y-48015D03*
X51325Y-47622D03*
X51325Y-47267D03*
X51720Y-47267D03*
X52114Y-47267D03*
X52507Y-47267D03*
X52900Y-47267D03*
X52900Y-47622D03*
X52900Y-48015D03*
X52900Y-48410D03*
X52900Y-48802D03*
G54D15*
X49299Y-28862D03*
X49299Y-28862D03*
G54D14*
X56426Y-49768D03*
X56859Y-49768D03*
X57292Y-49768D03*
X57726Y-49768D03*
X56425Y-30437D03*
X56858Y-30437D03*
X57291Y-30437D03*
X57725Y-30437D03*
G54D30*
X65161Y-43763D03*
X65161Y-45867D03*
G54D31*
X65711Y-44815D03*
G54D30*
X65145Y-34246D03*
X65145Y-36350D03*
G54D31*
X65695Y-35298D03*
G54D32*
X57576Y-49079D03*
G54D33*
X56576Y-49079D03*
G54D34*
X57164Y-43981D03*
X57664Y-43981D03*
X58164Y-43981D03*
X58164Y-45232D03*
X57164Y-45232D03*
G54D35*
X61200Y-35379D03*
G54D36*
X61298Y-34799D03*
G54D37*
X61102Y-34799D03*
G54D36*
X60905Y-34799D03*
G54D37*
X61495Y-34799D03*
X61102Y-35959D03*
G54D38*
X60905Y-35960D03*
X61298Y-35960D03*
X61495Y-35960D03*
G54D39*
X60619Y-35281D03*
G54D40*
X60619Y-35084D03*
G54D39*
X60619Y-35477D03*
X60619Y-35674D03*
G54D41*
X61780Y-35281D03*
G54D39*
X61781Y-35084D03*
X61781Y-35477D03*
X61781Y-35674D03*
G54D34*
X56579Y-35874D03*
X56079Y-35874D03*
X55579Y-35874D03*
X55579Y-34623D03*
X56579Y-34623D03*
G54D42*
X65303Y-39141D03*
G54D43*
X65063Y-40479D03*
G54D44*
X64551Y-40832D03*
G54D45*
X64905Y-40832D03*
G54D46*
X64890Y-41137D03*
G54D47*
X64791Y-41438D03*
G54D48*
X65437Y-39141D03*
G54D49*
X64362Y-40940D03*
G54D50*
X64377Y-41328D03*
G54D49*
X64358Y-41334D03*
G54D51*
X64378Y-41479D03*
G54D52*
X65043Y-39587D03*
G54D53*
X65059Y-39606D03*
G54D48*
X65063Y-40224D03*
G54D50*
X65044Y-40224D03*
G54D54*
X65059Y-39826D03*
G54D55*
X63960Y-38571D03*
G54D56*
X63979Y-38561D03*
G54D57*
X63998Y-38571D03*
G54D58*
X64017Y-38571D03*
G54D59*
X64036Y-38561D03*
G54D60*
X64055Y-38571D03*
G54D61*
X64074Y-38571D03*
G54D62*
X64093Y-38837D03*
X64093Y-38305D03*
G54D63*
X64112Y-38875D03*
X64112Y-38267D03*
G54D64*
X64131Y-38903D03*
G54D55*
X64131Y-38229D03*
G54D65*
X64150Y-38922D03*
G54D51*
X64150Y-38210D03*
G54D66*
X64169Y-38932D03*
X64169Y-38210D03*
G54D48*
X64188Y-38932D03*
G54D63*
X64188Y-38571D03*
G54D67*
X64188Y-38200D03*
G54D68*
X64207Y-38941D03*
G54D52*
X64207Y-38561D03*
G54D68*
X64207Y-38200D03*
G54D69*
X64226Y-38571D03*
G54D57*
X64245Y-38571D03*
G54D70*
X64264Y-38571D03*
G54D64*
X64283Y-38751D03*
G54D55*
X64283Y-38381D03*
G54D51*
X64302Y-38780D03*
X64302Y-38362D03*
G54D71*
X64321Y-38789D03*
X64321Y-38352D03*
G54D72*
X64340Y-38799D03*
X64340Y-38343D03*
G54D66*
X64359Y-41915D03*
G54D73*
X64358Y-41464D03*
G54D74*
X64362Y-40712D03*
G54D71*
X64359Y-40024D03*
G54D53*
X64359Y-39606D03*
G54D48*
X64359Y-38571D03*
G54D75*
X64378Y-41905D03*
G54D48*
X64378Y-40946D03*
G54D76*
X64378Y-40699D03*
G54D75*
X64378Y-40024D03*
G54D52*
X64378Y-39587D03*
G54D55*
X64378Y-38571D03*
G54D75*
X64397Y-41905D03*
G54D51*
X64397Y-41478D03*
G54D48*
X64397Y-41326D03*
X64397Y-40946D03*
G54D56*
X64397Y-40689D03*
G54D75*
X64397Y-40024D03*
G54D56*
X64397Y-39568D03*
G54D62*
X64397Y-38571D03*
G54D75*
X64416Y-41905D03*
G54D51*
X64416Y-41478D03*
G54D48*
X64416Y-41307D03*
X64416Y-40965D03*
G54D77*
X64416Y-40680D03*
G54D75*
X64416Y-40024D03*
G54D77*
X64416Y-39559D03*
G54D78*
X64416Y-38571D03*
G54D51*
X64435Y-41896D03*
X64435Y-41478D03*
G54D48*
X64435Y-41307D03*
X64435Y-40965D03*
G54D66*
X64435Y-40528D03*
G54D51*
X64435Y-40034D03*
G54D75*
X64435Y-39416D03*
G54D48*
X64435Y-38685D03*
X64435Y-38457D03*
G54D51*
X64454Y-41896D03*
X64454Y-41478D03*
G54D48*
X64454Y-41288D03*
X64454Y-40984D03*
G54D71*
X64454Y-40499D03*
G54D65*
X64454Y-40024D03*
G54D66*
X64454Y-39388D03*
G54D68*
X64454Y-38694D03*
X64454Y-38447D03*
G54D51*
X64473Y-41896D03*
G54D65*
X64473Y-41487D03*
G54D48*
X64473Y-41288D03*
X64473Y-40984D03*
X64473Y-40490D03*
G54D67*
X64473Y-40081D03*
G54D48*
X64473Y-39977D03*
G54D71*
X64473Y-39359D03*
G54D51*
X64492Y-41896D03*
G54D65*
X64492Y-41487D03*
G54D48*
X64492Y-41269D03*
G54D67*
X64492Y-40993D03*
G54D48*
X64492Y-40490D03*
X64492Y-40091D03*
G54D67*
X64492Y-39967D03*
G54D71*
X64492Y-39359D03*
G54D65*
X64511Y-41886D03*
X64511Y-41487D03*
G54D48*
X64511Y-41269D03*
X64511Y-41003D03*
X64511Y-40471D03*
X64511Y-40091D03*
X64511Y-39958D03*
G54D71*
X64511Y-39340D03*
G54D67*
X64530Y-41829D03*
G54D65*
X64530Y-41487D03*
G54D48*
X64530Y-41250D03*
G54D67*
X64530Y-41012D03*
G54D48*
X64530Y-40471D03*
X64530Y-40091D03*
X64530Y-39958D03*
X64530Y-39331D03*
G54D67*
X64549Y-41829D03*
G54D55*
X64549Y-41497D03*
G54D48*
X64549Y-41250D03*
X64549Y-41022D03*
X64549Y-40471D03*
G54D67*
X64549Y-40100D03*
G54D48*
X64549Y-39958D03*
X64549Y-39331D03*
X64568Y-41820D03*
X64568Y-41554D03*
X64568Y-41231D03*
G54D67*
X64568Y-41031D03*
G54D48*
X64568Y-40471D03*
X64568Y-40110D03*
G54D67*
X64568Y-39948D03*
G54D79*
X64568Y-38789D03*
G54D53*
X64568Y-38333D03*
G54D67*
X64587Y-41810D03*
X64587Y-41563D03*
G54D48*
X64587Y-41231D03*
X64587Y-41041D03*
X64587Y-40471D03*
X64587Y-40110D03*
X64587Y-39939D03*
G54D62*
X64587Y-38780D03*
G54D53*
X64587Y-38333D03*
G54D67*
X64606Y-41810D03*
G54D48*
X64606Y-41573D03*
X64606Y-41212D03*
G54D67*
X64606Y-41050D03*
G54D48*
X64606Y-40490D03*
G54D67*
X64606Y-40119D03*
G54D48*
X64606Y-39939D03*
G54D78*
X64606Y-38761D03*
G54D53*
X64606Y-38333D03*
G54D67*
X64625Y-41810D03*
G54D48*
X64625Y-41573D03*
X64625Y-41212D03*
X64625Y-41060D03*
G54D71*
X64625Y-40499D03*
G54D48*
X64625Y-40129D03*
X64625Y-39939D03*
G54D78*
X64625Y-38761D03*
G54D53*
X64625Y-38333D03*
G54D48*
X64644Y-41801D03*
X64644Y-41573D03*
X64644Y-41193D03*
G54D67*
X64644Y-41069D03*
G54D71*
X64644Y-40518D03*
G54D48*
X64644Y-40129D03*
X64644Y-39920D03*
G54D66*
X64644Y-38647D03*
G54D67*
X64663Y-41791D03*
X64663Y-41582D03*
G54D65*
X64663Y-41126D03*
G54D75*
X64663Y-40537D03*
G54D48*
X64663Y-40129D03*
X64663Y-39920D03*
X64663Y-38628D03*
G54D67*
X64682Y-41791D03*
G54D48*
X64682Y-41592D03*
G54D51*
X64682Y-41136D03*
G54D77*
X64682Y-40680D03*
G54D67*
X64682Y-40138D03*
G54D48*
X64682Y-39920D03*
X64682Y-38609D03*
G54D67*
X64701Y-41791D03*
G54D48*
X64701Y-41592D03*
G54D75*
X64701Y-41126D03*
G54D56*
X64701Y-40689D03*
G54D48*
X64701Y-40148D03*
X64701Y-39901D03*
G54D80*
X64704Y-39711D03*
G54D81*
X64701Y-38875D03*
G54D48*
X64701Y-38609D03*
G54D81*
X64701Y-38438D03*
G54D48*
X64720Y-41782D03*
G54D67*
X64720Y-41601D03*
G54D66*
X64720Y-41136D03*
G54D52*
X64720Y-40708D03*
G54D48*
X64720Y-40148D03*
X64720Y-39901D03*
G54D67*
X64720Y-38618D03*
G54D47*
X64791Y-41934D03*
G54D67*
X64739Y-41772D03*
X64739Y-41601D03*
G54D78*
X64739Y-40718D03*
G54D48*
X64739Y-40148D03*
X64739Y-39901D03*
X64739Y-38628D03*
G54D67*
X64758Y-41772D03*
G54D48*
X64758Y-41611D03*
X64758Y-40604D03*
G54D71*
X64758Y-40157D03*
G54D48*
X64758Y-39901D03*
G54D71*
X64758Y-38637D03*
G54D48*
X64777Y-41763D03*
X64777Y-41611D03*
G54D71*
X64777Y-40594D03*
G54D82*
X64777Y-40024D03*
G54D78*
X64777Y-38761D03*
G54D63*
X64777Y-38362D03*
G54D67*
X64796Y-41753D03*
X64796Y-41620D03*
G54D48*
X64796Y-40585D03*
G54D56*
X64796Y-40024D03*
G54D53*
X64796Y-38770D03*
G54D63*
X64796Y-38362D03*
G54D67*
X64815Y-41753D03*
X64815Y-41620D03*
G54D71*
X64815Y-40575D03*
G54D56*
X64815Y-40024D03*
G54D62*
X64815Y-38780D03*
G54D63*
X64815Y-38362D03*
G54D67*
X64834Y-41753D03*
G54D48*
X64834Y-41630D03*
G54D71*
X64834Y-40575D03*
G54D83*
X64834Y-40024D03*
G54D84*
X64701Y-39311D03*
G54D79*
X64834Y-38789D03*
G54D63*
X64834Y-38362D03*
G54D48*
X64853Y-41744D03*
X64853Y-41630D03*
X64853Y-40566D03*
X64853Y-40186D03*
X64853Y-39863D03*
G54D71*
X64853Y-39321D03*
X64853Y-38694D03*
G54D67*
X64872Y-41734D03*
X64872Y-41639D03*
G54D71*
X64872Y-40556D03*
G54D48*
X64872Y-40186D03*
X64872Y-39863D03*
X64872Y-39331D03*
X64872Y-38685D03*
G54D51*
X64891Y-41687D03*
G54D48*
X64891Y-40547D03*
X64891Y-40205D03*
X64891Y-39863D03*
G54D71*
X64891Y-39340D03*
G54D48*
X64891Y-38685D03*
G54D51*
X64910Y-41687D03*
G54D71*
X64910Y-40537D03*
G54D48*
X64910Y-40205D03*
X64910Y-39844D03*
X64910Y-39350D03*
X64910Y-38666D03*
G54D75*
X64929Y-41696D03*
G54D71*
X64929Y-40537D03*
G54D48*
X64929Y-40205D03*
X64929Y-39844D03*
G54D71*
X64929Y-39359D03*
G54D48*
X64929Y-38666D03*
G54D66*
X64948Y-41687D03*
G54D48*
X64948Y-40528D03*
X64948Y-40205D03*
X64948Y-39844D03*
G54D71*
X64948Y-39378D03*
G54D48*
X64948Y-38647D03*
G54D85*
X64945Y-38438D03*
G54D66*
X64967Y-41687D03*
G54D71*
X64967Y-40518D03*
G54D48*
X64967Y-40224D03*
X64967Y-39825D03*
G54D75*
X64967Y-39397D03*
G54D85*
X64945Y-38875D03*
G54D48*
X64967Y-38647D03*
G54D66*
X64986Y-41687D03*
G54D48*
X64986Y-40509D03*
G54D86*
X64712Y-40345D03*
G54D48*
X64986Y-40224D03*
X64986Y-39825D03*
G54D71*
X64986Y-39701D03*
G54D55*
X64986Y-39445D03*
G54D48*
X64986Y-39141D03*
X64986Y-38628D03*
X65005Y-41687D03*
G54D71*
X65005Y-40499D03*
G54D48*
X65005Y-40224D03*
X65005Y-39825D03*
G54D77*
X65005Y-39559D03*
G54D66*
X65005Y-39141D03*
G54D48*
X65005Y-38628D03*
X65024Y-41687D03*
X65024Y-40490D03*
X65024Y-40224D03*
X65024Y-39825D03*
G54D76*
X65024Y-39578D03*
G54D51*
X65024Y-39141D03*
G54D67*
X65024Y-38618D03*
G54D48*
X65043Y-41687D03*
G54D71*
X65043Y-40480D03*
G54D54*
X65043Y-39826D03*
G54D48*
X65043Y-38609D03*
G54D72*
X65062Y-41687D03*
G54D42*
X65110Y-39141D03*
G54D87*
X65195Y-40091D03*
X65214Y-40091D03*
X65233Y-40091D03*
G54D65*
X65386Y-39141D03*
G54D51*
X65404Y-39141D03*
G54D66*
X65421Y-39141D03*
G54D33*
X61314Y-31834D03*
X63043Y-48350D03*
X62043Y-48350D03*
X61043Y-48350D03*
G54D32*
X59043Y-48330D03*
G54D33*
X60043Y-48350D03*
G54D88*
X62185Y-45208D03*
X61988Y-45208D03*
X62381Y-45208D03*
X62381Y-44421D03*
X62185Y-44421D03*
X61988Y-44421D03*
G54D89*
X61791Y-45011D03*
X61791Y-44814D03*
X61791Y-44618D03*
X62578Y-44814D03*
X62578Y-44618D03*
X62578Y-45011D03*
G54D90*
X62185Y-44814D03*
G54D25*
X63882Y-44814D03*
X64236Y-44814D03*
G54D91*
X57751Y-40028D03*
G54D92*
X58242Y-40948D03*
X58242Y-40580D03*
X58242Y-40216D03*
X58242Y-39845D03*
X58242Y-39480D03*
X58242Y-39113D03*
X58437Y-39113D03*
X58439Y-39480D03*
X58439Y-39845D03*
X58439Y-40216D03*
X58439Y-40580D03*
X58439Y-40948D03*
X58827Y-40948D03*
X58827Y-40580D03*
X58827Y-40216D03*
X58827Y-39845D03*
X58827Y-39480D03*
X58827Y-39113D03*
X58630Y-39113D03*
X58630Y-39480D03*
X58630Y-39845D03*
X58630Y-40216D03*
X58630Y-40580D03*
X58630Y-40948D03*
X57462Y-40948D03*
X57462Y-40580D03*
X57462Y-40216D03*
X57462Y-39845D03*
X57462Y-39480D03*
X57462Y-39113D03*
X57657Y-39113D03*
X57659Y-39480D03*
X57659Y-39845D03*
X57659Y-40216D03*
X57659Y-40580D03*
X57659Y-40948D03*
X58047Y-40948D03*
X58047Y-40580D03*
X58047Y-40216D03*
X58047Y-39845D03*
X58047Y-39480D03*
X58047Y-39113D03*
X57850Y-39113D03*
X57850Y-39480D03*
X57850Y-39845D03*
X57850Y-40216D03*
X57850Y-40580D03*
X57850Y-40948D03*
X57067Y-40948D03*
X57067Y-40580D03*
X57067Y-40216D03*
X57067Y-39845D03*
X57067Y-39480D03*
X57067Y-39113D03*
X57264Y-39113D03*
X57265Y-39480D03*
X57265Y-39845D03*
X57265Y-40216D03*
X57265Y-40580D03*
X57265Y-40948D03*
X56875Y-40948D03*
X56875Y-40580D03*
X56875Y-40216D03*
X56875Y-39845D03*
X56875Y-39480D03*
X56875Y-39113D03*
G54D93*
X58836Y-38554D03*
X59033Y-38554D03*
X58638Y-38554D03*
X58441Y-38554D03*
X58245Y-38554D03*
X58048Y-38554D03*
X57851Y-38554D03*
X57655Y-38554D03*
X57458Y-38554D03*
X57260Y-38554D03*
X57063Y-38554D03*
X56866Y-38554D03*
X56671Y-38554D03*
G54D94*
X59130Y-38330D03*
X58933Y-38330D03*
X58738Y-38330D03*
X58541Y-38330D03*
X58343Y-38330D03*
X58146Y-38330D03*
X57950Y-38330D03*
X57753Y-38330D03*
X57556Y-38330D03*
X57360Y-38330D03*
X57163Y-38330D03*
X56966Y-38330D03*
X56768Y-38330D03*
X56571Y-38330D03*
G54D93*
X56473Y-38554D03*
G54D95*
X59453Y-38653D03*
G54D93*
X59228Y-38753D03*
G54D95*
X59453Y-38852D03*
X59453Y-39048D03*
X59453Y-39245D03*
X59453Y-39442D03*
X59453Y-39638D03*
X59451Y-39835D03*
X59453Y-40032D03*
X59453Y-40228D03*
X59453Y-40427D03*
X59453Y-40622D03*
X59453Y-40820D03*
X59453Y-41017D03*
X59453Y-41212D03*
X59453Y-41400D03*
G54D93*
X59228Y-38950D03*
X59228Y-39145D03*
X59228Y-39343D03*
X59228Y-39540D03*
X59228Y-39737D03*
X59228Y-39933D03*
X59228Y-40132D03*
X59228Y-40327D03*
X59228Y-40523D03*
X59228Y-40722D03*
X59228Y-40918D03*
X59228Y-41312D03*
X59228Y-41115D03*
X58830Y-41505D03*
X59026Y-41505D03*
X58633Y-41505D03*
X58436Y-41505D03*
X58238Y-41505D03*
X58043Y-41505D03*
X57846Y-41505D03*
X57648Y-41505D03*
X57451Y-41505D03*
X57255Y-41505D03*
X57058Y-41505D03*
X56860Y-41505D03*
X56665Y-41505D03*
G54D94*
X59123Y-41730D03*
X58926Y-41730D03*
X58731Y-41730D03*
X58535Y-41730D03*
X58338Y-41730D03*
X58141Y-41730D03*
X57943Y-41730D03*
X57746Y-41730D03*
X57550Y-41729D03*
X57353Y-41730D03*
X57156Y-41730D03*
X56960Y-41730D03*
X56763Y-41730D03*
X56566Y-41730D03*
G54D93*
X56468Y-41505D03*
G54D94*
X56368Y-41730D03*
X56374Y-38330D03*
G54D95*
X56051Y-38652D03*
G54D93*
X56276Y-38751D03*
G54D95*
X56051Y-38849D03*
X56051Y-39046D03*
X56051Y-39243D03*
X56051Y-39440D03*
X56051Y-39637D03*
X56051Y-39833D03*
X56051Y-40030D03*
X56051Y-40227D03*
X56051Y-40424D03*
X56051Y-40621D03*
X56051Y-40818D03*
X56051Y-41015D03*
X56051Y-41210D03*
X56051Y-41407D03*
G54D93*
X56276Y-38948D03*
X56276Y-39144D03*
X56276Y-39341D03*
X56276Y-39538D03*
X56276Y-39735D03*
X56276Y-39932D03*
X56276Y-40129D03*
X56276Y-40326D03*
X56276Y-40522D03*
X56276Y-40719D03*
X56276Y-40916D03*
X56276Y-41310D03*
X56276Y-41113D03*
G54D92*
X56679Y-39113D03*
X56679Y-39480D03*
X56679Y-39845D03*
X56679Y-40216D03*
X56679Y-40580D03*
X56679Y-40948D03*
G54D96*
X60400Y-33783D03*
X58038Y-33783D03*
X55676Y-33783D03*
X53313Y-33783D03*
G54D97*
X51051Y-33783D03*
G54D98*
X50599Y-34235D03*
G54D99*
X63116Y-36500D03*
X63116Y-38862D03*
X63116Y-41223D03*
X63116Y-43587D03*
G54D97*
X62663Y-46301D03*
G54D98*
X63116Y-45847D03*
X50599Y-45847D03*
G54D97*
X51051Y-46301D03*
G54D96*
X53313Y-46301D03*
X55676Y-46301D03*
X58038Y-46301D03*
X60400Y-46301D03*
G54D99*
X50599Y-43587D03*
X50599Y-41223D03*
X50599Y-38862D03*
X50599Y-36500D03*
G54D97*
X62663Y-33783D03*
G54D98*
X63116Y-34235D03*
G54D10*
G36*
X65649Y-39277D02*
X65452Y-39356D01*
X65452Y-41960D01*
X65306Y-42106D01*
X64181Y-42106D01*
X64035Y-41960D01*
X64035Y-39357D01*
X63759Y-39239D01*
X63759Y-38158D01*
X63906Y-38011D01*
X65306Y-38011D01*
X65452Y-38158D01*
X65452Y-38950D01*
X65649Y-39029D01*
X65649Y-39277D01*
X65649Y-39277D01*
G37*
G54D100*
X65649Y-39277D02*
X65452Y-39356D01*
X65452Y-41960D01*
X65306Y-42106D01*
X64181Y-42106D01*
X64035Y-41960D01*
X64035Y-39357D01*
X63759Y-39239D01*
X63759Y-38158D01*
X63906Y-38011D01*
X65306Y-38011D01*
X65452Y-38158D01*
X65452Y-38950D01*
X65649Y-39029D01*
X65649Y-39277D01*
M02*
