%FSLAX34Y34*%
G04 Gerber Fmt 3.4, Leading zero omitted, Abs format*
G04 (created by PCBNEW (2013-10-29 BZR 4389)-product) date 1/27/2015 10:36:27 PM*
%MOIN*%
G01*
G70*
G90*
G04 APERTURE LIST*
%ADD10C,0.005906*%
%ADD11C,0.007700*%
%ADD12C,0.007800*%
%ADD13C,0.007900*%
%ADD14C,0.011700*%
%ADD15C,0.003900*%
%ADD16C,0.007874*%
%ADD17C,0.009700*%
%ADD18C,0.005900*%
%ADD19C,0.006900*%
%ADD20C,0.007850*%
G04 APERTURE END LIST*
G54D10*
G54D11*
X60335Y-43268D02*
X60335Y-42677D01*
X61575Y-43268D02*
X60335Y-43268D01*
X61575Y-42677D02*
X61575Y-43268D01*
X60334Y-42677D02*
X61574Y-42677D01*
X59843Y-37343D02*
X59843Y-36260D01*
X61142Y-37343D02*
X59843Y-37343D01*
X61142Y-36260D02*
X61142Y-37343D01*
X59842Y-36259D02*
X61142Y-36259D01*
X55413Y-37106D02*
X55433Y-37106D01*
X55412Y-37697D02*
X55412Y-37106D01*
X56634Y-37697D02*
X55413Y-37697D01*
X56634Y-37106D02*
X56634Y-37697D01*
X55413Y-37106D02*
X56634Y-37106D01*
X66126Y-37091D02*
X66126Y-37736D01*
X63813Y-37092D02*
X63813Y-37732D01*
G54D12*
X63815Y-37091D02*
X66125Y-37091D01*
G54D13*
X64018Y-42590D02*
X64242Y-42590D01*
X64130Y-42982D02*
X64130Y-42590D01*
X64336Y-42590D02*
X64597Y-42982D01*
X64597Y-42590D02*
X64336Y-42982D01*
X64690Y-42590D02*
X64914Y-42590D01*
X64802Y-42982D02*
X64802Y-42590D01*
X65045Y-42777D02*
X65176Y-42777D01*
X65232Y-42982D02*
X65045Y-42982D01*
X65045Y-42590D01*
X65232Y-42590D01*
X65381Y-42963D02*
X65437Y-42982D01*
X65530Y-42982D01*
X65568Y-42963D01*
X65586Y-42945D01*
X65605Y-42907D01*
X65605Y-42870D01*
X65586Y-42833D01*
X65568Y-42814D01*
X65530Y-42795D01*
X65456Y-42777D01*
X65418Y-42758D01*
X65400Y-42739D01*
X65381Y-42702D01*
X65381Y-42665D01*
X65400Y-42627D01*
X65418Y-42609D01*
X65456Y-42590D01*
X65549Y-42590D01*
X65605Y-42609D01*
X65717Y-42590D02*
X65941Y-42590D01*
X65829Y-42982D02*
X65829Y-42590D01*
G54D12*
X63850Y-43075D02*
X66162Y-43075D01*
G54D11*
X63849Y-42447D02*
X63849Y-43075D01*
G54D12*
X63850Y-42449D02*
X66162Y-42449D01*
G54D11*
X66165Y-42447D02*
X66165Y-43075D01*
G54D12*
X63815Y-37737D02*
X66125Y-37737D01*
G54D13*
X64217Y-37625D02*
X64086Y-37438D01*
X63993Y-37625D02*
X63993Y-37233D01*
X64142Y-37233D01*
X64179Y-37252D01*
X64198Y-37270D01*
X64217Y-37308D01*
X64217Y-37364D01*
X64198Y-37401D01*
X64179Y-37420D01*
X64142Y-37438D01*
X63993Y-37438D01*
X64347Y-37233D02*
X64609Y-37625D01*
X64609Y-37233D02*
X64347Y-37625D01*
X64702Y-37233D02*
X64926Y-37233D01*
X64814Y-37625D02*
X64814Y-37233D01*
X65057Y-37420D02*
X65187Y-37420D01*
X65243Y-37625D02*
X65057Y-37625D01*
X65057Y-37233D01*
X65243Y-37233D01*
X65393Y-37606D02*
X65449Y-37625D01*
X65542Y-37625D01*
X65579Y-37606D01*
X65598Y-37588D01*
X65617Y-37550D01*
X65617Y-37513D01*
X65598Y-37476D01*
X65579Y-37457D01*
X65542Y-37438D01*
X65467Y-37420D01*
X65430Y-37401D01*
X65411Y-37382D01*
X65393Y-37345D01*
X65393Y-37308D01*
X65411Y-37270D01*
X65430Y-37252D01*
X65467Y-37233D01*
X65561Y-37233D01*
X65617Y-37252D01*
X65729Y-37233D02*
X65953Y-37233D01*
X65841Y-37625D02*
X65841Y-37233D01*
G54D14*
X56336Y-47858D02*
X56728Y-47858D01*
X52020Y-43840D02*
X52020Y-44232D01*
X52020Y-44576D02*
X52020Y-44968D01*
G54D11*
X51523Y-35221D02*
X51367Y-35221D01*
X61685Y-36637D02*
X61685Y-36481D01*
X60383Y-41705D02*
X60539Y-41705D01*
X55377Y-38744D02*
X55221Y-38744D01*
X60905Y-41689D02*
X60749Y-41689D01*
X60540Y-38599D02*
X60696Y-38599D01*
X60342Y-38587D02*
X60186Y-38587D01*
X59587Y-37839D02*
X59743Y-37839D01*
X58701Y-42963D02*
X58897Y-42963D01*
X57923Y-36122D02*
X57727Y-36122D01*
X59745Y-42953D02*
X59941Y-42953D01*
X58630Y-35838D02*
X58630Y-35642D01*
X57272Y-36885D02*
X57272Y-36689D01*
X58374Y-36398D02*
X58570Y-36398D01*
X57264Y-35610D02*
X57264Y-35414D01*
X58787Y-37968D02*
X58787Y-37772D01*
X59350Y-36417D02*
X59154Y-36417D01*
X58126Y-42618D02*
X58126Y-42422D01*
X57293Y-42402D02*
X57293Y-42598D01*
X59862Y-44508D02*
X59862Y-44704D01*
X58878Y-44055D02*
X59074Y-44055D01*
X59862Y-43386D02*
X59862Y-43582D01*
X57067Y-38082D02*
X57067Y-37886D01*
X56398Y-36598D02*
X56398Y-36402D01*
X55720Y-36398D02*
X55720Y-36594D01*
X57874Y-38090D02*
X57874Y-37894D01*
X57293Y-47363D02*
X57293Y-47637D01*
X57303Y-48147D02*
X57303Y-48421D01*
X54327Y-45413D02*
X54327Y-45139D01*
X51332Y-43158D02*
X51606Y-43158D01*
X53272Y-44714D02*
X53272Y-44988D01*
X55000Y-44775D02*
X55000Y-44501D01*
X54205Y-43745D02*
X54205Y-44019D01*
X59193Y-35227D02*
X59193Y-35383D01*
X59504Y-44953D02*
X59504Y-45109D01*
X58799Y-44684D02*
X58799Y-44528D01*
X59771Y-44055D02*
X59615Y-44055D01*
X58799Y-43582D02*
X58799Y-43426D01*
X59202Y-42953D02*
X59046Y-42953D01*
X59566Y-42953D02*
X59410Y-42953D01*
X59307Y-42399D02*
X59307Y-42555D01*
X59499Y-36407D02*
X59655Y-36407D01*
X57646Y-45721D02*
X57646Y-45877D01*
X57799Y-34981D02*
X57799Y-35137D01*
X58082Y-43110D02*
X57926Y-43110D01*
X57539Y-43110D02*
X57383Y-43110D01*
X57844Y-42087D02*
X57844Y-42243D01*
X58934Y-37303D02*
X59090Y-37303D01*
X59425Y-35666D02*
X59425Y-35822D01*
X58721Y-36398D02*
X58877Y-36398D01*
X57363Y-36112D02*
X57519Y-36112D01*
X52153Y-36418D02*
X52153Y-36574D01*
X58002Y-35444D02*
X58002Y-35600D01*
X57993Y-37402D02*
X58149Y-37402D01*
X57599Y-37402D02*
X57755Y-37402D01*
X57182Y-37398D02*
X57338Y-37398D01*
X58002Y-36703D02*
X58002Y-36859D01*
X57941Y-34355D02*
X57941Y-34511D01*
X56796Y-37390D02*
X56952Y-37390D01*
X58469Y-37303D02*
X58625Y-37303D01*
X63952Y-35221D02*
X63952Y-35377D01*
X48454Y-36953D02*
X48610Y-36953D01*
X48610Y-37634D02*
X48454Y-37634D01*
X60441Y-38032D02*
X60441Y-38188D01*
X60445Y-39005D02*
X60445Y-39161D01*
X60441Y-39328D02*
X60441Y-39484D01*
X60650Y-40753D02*
X60650Y-40909D01*
X60638Y-42095D02*
X60638Y-42251D01*
X55106Y-39330D02*
X55106Y-39174D01*
X60658Y-41095D02*
X60658Y-41251D01*
X53688Y-46914D02*
X53923Y-46914D01*
X53923Y-46914D02*
X53923Y-49432D01*
X53688Y-49432D02*
X53923Y-49432D01*
X59162Y-47129D02*
X59162Y-46973D01*
G54D15*
X66736Y-43476D02*
X66736Y-46154D01*
X66736Y-46154D02*
X66263Y-46154D01*
X66263Y-43476D02*
X66735Y-43476D01*
X66720Y-33959D02*
X66720Y-36637D01*
X66720Y-36637D02*
X66247Y-36637D01*
X66247Y-33959D02*
X66719Y-33959D01*
G54D12*
X50935Y-30853D02*
X52663Y-30853D01*
X52663Y-30853D02*
X52663Y-32581D01*
X50935Y-32581D02*
X52663Y-32581D01*
X50935Y-30853D02*
X50935Y-32581D01*
X52815Y-31342D02*
X52815Y-32326D01*
X52815Y-31342D02*
X58799Y-31342D01*
X58799Y-31342D02*
X58799Y-32326D01*
X52815Y-32326D02*
X58799Y-32326D01*
X58106Y-49551D02*
X58106Y-48607D01*
X58106Y-49551D02*
X56072Y-49551D01*
X56072Y-49551D02*
X56072Y-48607D01*
X58106Y-48607D02*
X56072Y-48607D01*
X56808Y-45481D02*
X56870Y-45481D01*
X56870Y-43981D02*
X56808Y-43981D01*
X58540Y-43981D02*
X58462Y-43981D01*
X58540Y-43981D02*
X58540Y-45481D01*
X58540Y-45481D02*
X58462Y-45481D01*
X56808Y-43981D02*
X56808Y-45481D01*
G54D14*
X61829Y-34750D02*
X61829Y-34887D01*
X61829Y-34750D02*
X61692Y-34750D01*
X61692Y-36008D02*
X61829Y-36008D01*
X61829Y-36008D02*
X61829Y-35871D01*
X60571Y-35871D02*
X60571Y-36008D01*
X60708Y-36008D02*
X60571Y-36008D01*
X60708Y-34750D02*
X60571Y-34887D01*
X56936Y-34374D02*
X56874Y-34374D01*
X56874Y-35874D02*
X56936Y-35874D01*
X55202Y-35874D02*
X55280Y-35874D01*
X55202Y-35874D02*
X55202Y-34374D01*
X55202Y-34374D02*
X55280Y-34374D01*
X56936Y-35874D02*
X56936Y-34374D01*
G54D12*
X58822Y-31342D02*
X58822Y-32326D01*
X58822Y-31342D02*
X63782Y-31342D01*
X63782Y-31342D02*
X63782Y-32326D01*
X58822Y-32326D02*
X63782Y-32326D01*
X58551Y-47858D02*
X58551Y-48842D01*
X58551Y-47858D02*
X63511Y-47858D01*
X63511Y-47858D02*
X63511Y-48842D01*
X58551Y-48842D02*
X63511Y-48842D01*
G54D16*
X61870Y-45161D02*
G75*
G03X61870Y-45161I-39J0D01*
G74*
G01*
G54D14*
X61594Y-45129D02*
X61594Y-44224D01*
X61594Y-44224D02*
X62775Y-44224D01*
X62775Y-44224D02*
X62775Y-45405D01*
X62775Y-45405D02*
X61870Y-45405D01*
X61870Y-45405D02*
X61594Y-45129D01*
G54D11*
X64059Y-44736D02*
X64059Y-44892D01*
G54D12*
X56051Y-41580D02*
X56051Y-41742D01*
X56051Y-41742D02*
X56208Y-41742D01*
X59446Y-41739D02*
X59290Y-41739D01*
X59446Y-41577D02*
X59446Y-41739D01*
X59278Y-38330D02*
X59441Y-38330D01*
X59441Y-38330D02*
X59441Y-38487D01*
X56012Y-38502D02*
X56223Y-38291D01*
G54D17*
G54D15*
X56238Y-48022D02*
X56145Y-48075D01*
X56238Y-48112D02*
X56043Y-48112D01*
X56043Y-48052D01*
X56052Y-48037D01*
X56061Y-48030D01*
X56080Y-48022D01*
X56108Y-48022D01*
X56126Y-48030D01*
X56136Y-48037D01*
X56145Y-48052D01*
X56145Y-48112D01*
X56061Y-47962D02*
X56052Y-47955D01*
X56043Y-47940D01*
X56043Y-47903D01*
X56052Y-47888D01*
X56061Y-47880D01*
X56080Y-47873D01*
X56098Y-47873D01*
X56126Y-47880D01*
X56238Y-47970D01*
X56238Y-47873D01*
X56238Y-47723D02*
X56238Y-47813D01*
X56238Y-47768D02*
X56043Y-47768D01*
X56071Y-47783D01*
X56089Y-47798D01*
X56098Y-47813D01*
X56043Y-47581D02*
X56043Y-47656D01*
X56136Y-47663D01*
X56126Y-47656D01*
X56117Y-47641D01*
X56117Y-47604D01*
X56126Y-47589D01*
X56136Y-47581D01*
X56154Y-47574D01*
X56201Y-47574D01*
X56219Y-47581D01*
X56228Y-47589D01*
X56238Y-47604D01*
X56238Y-47641D01*
X56228Y-47656D01*
X56219Y-47663D01*
X51844Y-43738D02*
X51791Y-43645D01*
X51754Y-43738D02*
X51754Y-43543D01*
X51814Y-43543D01*
X51829Y-43552D01*
X51836Y-43561D01*
X51844Y-43580D01*
X51844Y-43608D01*
X51836Y-43626D01*
X51829Y-43636D01*
X51814Y-43645D01*
X51754Y-43645D01*
X51904Y-43561D02*
X51911Y-43552D01*
X51926Y-43543D01*
X51963Y-43543D01*
X51978Y-43552D01*
X51986Y-43561D01*
X51993Y-43580D01*
X51993Y-43598D01*
X51986Y-43626D01*
X51896Y-43738D01*
X51993Y-43738D01*
X52143Y-43738D02*
X52053Y-43738D01*
X52098Y-43738D02*
X52098Y-43543D01*
X52083Y-43571D01*
X52068Y-43589D01*
X52053Y-43598D01*
X52292Y-43738D02*
X52203Y-43738D01*
X52248Y-43738D02*
X52248Y-43543D01*
X52233Y-43571D01*
X52218Y-43589D01*
X52203Y-43598D01*
X51919Y-44513D02*
X51866Y-44420D01*
X51829Y-44513D02*
X51829Y-44318D01*
X51889Y-44318D01*
X51904Y-44327D01*
X51911Y-44336D01*
X51919Y-44355D01*
X51919Y-44383D01*
X51911Y-44401D01*
X51904Y-44411D01*
X51889Y-44420D01*
X51829Y-44420D01*
X52053Y-44383D02*
X52053Y-44513D01*
X52016Y-44308D02*
X51978Y-44448D01*
X52076Y-44448D01*
X52218Y-44513D02*
X52128Y-44513D01*
X52173Y-44513D02*
X52173Y-44318D01*
X52158Y-44346D01*
X52143Y-44364D01*
X52128Y-44373D01*
X51820Y-35317D02*
X51727Y-35370D01*
X51820Y-35407D02*
X51625Y-35407D01*
X51625Y-35347D01*
X51634Y-35332D01*
X51643Y-35325D01*
X51662Y-35317D01*
X51690Y-35317D01*
X51708Y-35325D01*
X51718Y-35332D01*
X51727Y-35347D01*
X51727Y-35407D01*
X51708Y-35228D02*
X51699Y-35243D01*
X51690Y-35250D01*
X51671Y-35258D01*
X51662Y-35258D01*
X51643Y-35250D01*
X51634Y-35243D01*
X51625Y-35228D01*
X51625Y-35198D01*
X51634Y-35183D01*
X51643Y-35175D01*
X51662Y-35168D01*
X51671Y-35168D01*
X51690Y-35175D01*
X51699Y-35183D01*
X51708Y-35198D01*
X51708Y-35228D01*
X51718Y-35243D01*
X51727Y-35250D01*
X51745Y-35258D01*
X51783Y-35258D01*
X51801Y-35250D01*
X51810Y-35243D01*
X51820Y-35228D01*
X51820Y-35198D01*
X51810Y-35183D01*
X51801Y-35175D01*
X51783Y-35168D01*
X51745Y-35168D01*
X51727Y-35175D01*
X51718Y-35183D01*
X51708Y-35198D01*
X51690Y-35033D02*
X51820Y-35033D01*
X51615Y-35071D02*
X51755Y-35108D01*
X51755Y-35011D01*
X61584Y-36407D02*
X61531Y-36314D01*
X61494Y-36407D02*
X61494Y-36212D01*
X61554Y-36212D01*
X61569Y-36221D01*
X61576Y-36230D01*
X61584Y-36249D01*
X61584Y-36277D01*
X61576Y-36295D01*
X61569Y-36305D01*
X61554Y-36314D01*
X61494Y-36314D01*
X61718Y-36212D02*
X61688Y-36212D01*
X61673Y-36221D01*
X61666Y-36230D01*
X61651Y-36258D01*
X61643Y-36295D01*
X61643Y-36370D01*
X61651Y-36388D01*
X61658Y-36397D01*
X61673Y-36407D01*
X61703Y-36407D01*
X61718Y-36397D01*
X61726Y-36388D01*
X61733Y-36370D01*
X61733Y-36323D01*
X61726Y-36305D01*
X61718Y-36295D01*
X61703Y-36286D01*
X61673Y-36286D01*
X61658Y-36295D01*
X61651Y-36305D01*
X61643Y-36323D01*
X61808Y-36407D02*
X61838Y-36407D01*
X61853Y-36397D01*
X61860Y-36388D01*
X61875Y-36360D01*
X61883Y-36323D01*
X61883Y-36249D01*
X61875Y-36230D01*
X61868Y-36221D01*
X61853Y-36212D01*
X61823Y-36212D01*
X61808Y-36221D01*
X61800Y-36230D01*
X61793Y-36249D01*
X61793Y-36295D01*
X61800Y-36314D01*
X61808Y-36323D01*
X61823Y-36332D01*
X61853Y-36332D01*
X61868Y-36323D01*
X61875Y-36314D01*
X61883Y-36295D01*
X60313Y-41789D02*
X60220Y-41842D01*
X60313Y-41879D02*
X60118Y-41879D01*
X60118Y-41819D01*
X60127Y-41804D01*
X60136Y-41797D01*
X60155Y-41789D01*
X60183Y-41789D01*
X60201Y-41797D01*
X60211Y-41804D01*
X60220Y-41819D01*
X60220Y-41879D01*
X60118Y-41737D02*
X60118Y-41640D01*
X60192Y-41692D01*
X60192Y-41670D01*
X60201Y-41655D01*
X60211Y-41647D01*
X60229Y-41640D01*
X60276Y-41640D01*
X60294Y-41647D01*
X60303Y-41655D01*
X60313Y-41670D01*
X60313Y-41715D01*
X60303Y-41730D01*
X60294Y-41737D01*
X60118Y-41543D02*
X60118Y-41528D01*
X60127Y-41513D01*
X60136Y-41505D01*
X60155Y-41498D01*
X60192Y-41490D01*
X60238Y-41490D01*
X60276Y-41498D01*
X60294Y-41505D01*
X60303Y-41513D01*
X60313Y-41528D01*
X60313Y-41543D01*
X60303Y-41558D01*
X60294Y-41565D01*
X60276Y-41573D01*
X60238Y-41580D01*
X60192Y-41580D01*
X60155Y-41573D01*
X60136Y-41565D01*
X60127Y-41558D01*
X60118Y-41543D01*
X55143Y-38844D02*
X55050Y-38897D01*
X55143Y-38934D02*
X54948Y-38934D01*
X54948Y-38874D01*
X54957Y-38859D01*
X54966Y-38852D01*
X54985Y-38844D01*
X55013Y-38844D01*
X55031Y-38852D01*
X55041Y-38859D01*
X55050Y-38874D01*
X55050Y-38934D01*
X55143Y-38695D02*
X55143Y-38785D01*
X55143Y-38740D02*
X54948Y-38740D01*
X54976Y-38755D01*
X54994Y-38770D01*
X55003Y-38785D01*
X55013Y-38560D02*
X55143Y-38560D01*
X54938Y-38598D02*
X55078Y-38635D01*
X55078Y-38538D01*
X61194Y-41785D02*
X61101Y-41838D01*
X61194Y-41875D02*
X60999Y-41875D01*
X60999Y-41815D01*
X61008Y-41800D01*
X61017Y-41793D01*
X61036Y-41785D01*
X61064Y-41785D01*
X61082Y-41793D01*
X61092Y-41800D01*
X61101Y-41815D01*
X61101Y-41875D01*
X60999Y-41733D02*
X60999Y-41636D01*
X61073Y-41688D01*
X61073Y-41666D01*
X61082Y-41651D01*
X61092Y-41643D01*
X61110Y-41636D01*
X61157Y-41636D01*
X61175Y-41643D01*
X61184Y-41651D01*
X61194Y-41666D01*
X61194Y-41711D01*
X61184Y-41726D01*
X61175Y-41733D01*
X61194Y-41486D02*
X61194Y-41576D01*
X61194Y-41531D02*
X60999Y-41531D01*
X61027Y-41546D01*
X61045Y-41561D01*
X61054Y-41576D01*
X60982Y-38707D02*
X60889Y-38760D01*
X60982Y-38797D02*
X60787Y-38797D01*
X60787Y-38737D01*
X60796Y-38722D01*
X60805Y-38715D01*
X60824Y-38707D01*
X60852Y-38707D01*
X60870Y-38715D01*
X60880Y-38722D01*
X60889Y-38737D01*
X60889Y-38797D01*
X60787Y-38655D02*
X60787Y-38558D01*
X60861Y-38610D01*
X60861Y-38588D01*
X60870Y-38573D01*
X60880Y-38565D01*
X60898Y-38558D01*
X60945Y-38558D01*
X60963Y-38565D01*
X60972Y-38573D01*
X60982Y-38588D01*
X60982Y-38633D01*
X60972Y-38648D01*
X60963Y-38655D01*
X60787Y-38506D02*
X60787Y-38408D01*
X60861Y-38461D01*
X60861Y-38438D01*
X60870Y-38423D01*
X60880Y-38416D01*
X60898Y-38408D01*
X60945Y-38408D01*
X60963Y-38416D01*
X60972Y-38423D01*
X60982Y-38438D01*
X60982Y-38483D01*
X60972Y-38498D01*
X60963Y-38506D01*
X60116Y-38683D02*
X60023Y-38736D01*
X60116Y-38773D02*
X59921Y-38773D01*
X59921Y-38713D01*
X59930Y-38698D01*
X59939Y-38691D01*
X59958Y-38683D01*
X59986Y-38683D01*
X60004Y-38691D01*
X60014Y-38698D01*
X60023Y-38713D01*
X60023Y-38773D01*
X59921Y-38631D02*
X59921Y-38534D01*
X59995Y-38586D01*
X59995Y-38564D01*
X60004Y-38549D01*
X60014Y-38541D01*
X60032Y-38534D01*
X60079Y-38534D01*
X60097Y-38541D01*
X60106Y-38549D01*
X60116Y-38564D01*
X60116Y-38609D01*
X60106Y-38624D01*
X60097Y-38631D01*
X59939Y-38474D02*
X59930Y-38467D01*
X59921Y-38452D01*
X59921Y-38414D01*
X59930Y-38399D01*
X59939Y-38392D01*
X59958Y-38384D01*
X59976Y-38384D01*
X60004Y-38392D01*
X60116Y-38482D01*
X60116Y-38384D01*
X59761Y-37399D02*
X59668Y-37452D01*
X59761Y-37489D02*
X59566Y-37489D01*
X59566Y-37429D01*
X59575Y-37414D01*
X59584Y-37407D01*
X59603Y-37399D01*
X59631Y-37399D01*
X59649Y-37407D01*
X59659Y-37414D01*
X59668Y-37429D01*
X59668Y-37489D01*
X59566Y-37347D02*
X59566Y-37250D01*
X59640Y-37302D01*
X59640Y-37280D01*
X59649Y-37265D01*
X59659Y-37257D01*
X59677Y-37250D01*
X59724Y-37250D01*
X59742Y-37257D01*
X59751Y-37265D01*
X59761Y-37280D01*
X59761Y-37325D01*
X59751Y-37340D01*
X59742Y-37347D01*
X59631Y-37115D02*
X59761Y-37115D01*
X59556Y-37153D02*
X59696Y-37190D01*
X59696Y-37093D01*
X60639Y-43092D02*
X60639Y-43167D01*
X60444Y-43167D01*
X60639Y-42958D02*
X60639Y-43048D01*
X60639Y-43003D02*
X60444Y-43003D01*
X60472Y-43018D01*
X60490Y-43033D01*
X60499Y-43048D01*
X60462Y-42898D02*
X60453Y-42891D01*
X60444Y-42876D01*
X60444Y-42838D01*
X60453Y-42823D01*
X60462Y-42816D01*
X60481Y-42808D01*
X60499Y-42808D01*
X60527Y-42816D01*
X60639Y-42906D01*
X60639Y-42808D01*
X58226Y-36218D02*
X58226Y-36293D01*
X58031Y-36293D01*
X58049Y-36174D02*
X58040Y-36166D01*
X58031Y-36151D01*
X58031Y-36114D01*
X58040Y-36099D01*
X58049Y-36091D01*
X58068Y-36084D01*
X58086Y-36084D01*
X58114Y-36091D01*
X58226Y-36181D01*
X58226Y-36084D01*
X58031Y-36032D02*
X58031Y-35927D01*
X58226Y-35994D01*
X61486Y-43053D02*
X61486Y-43128D01*
X61291Y-43128D01*
X61486Y-42919D02*
X61486Y-43009D01*
X61486Y-42964D02*
X61291Y-42964D01*
X61319Y-42979D01*
X61337Y-42994D01*
X61346Y-43009D01*
X61486Y-42769D02*
X61486Y-42859D01*
X61486Y-42814D02*
X61291Y-42814D01*
X61319Y-42829D01*
X61337Y-42844D01*
X61346Y-42859D01*
X58537Y-35596D02*
X58462Y-35596D01*
X58462Y-35401D01*
X58574Y-35401D02*
X58671Y-35401D01*
X58619Y-35475D01*
X58641Y-35475D01*
X58656Y-35484D01*
X58664Y-35494D01*
X58671Y-35512D01*
X58671Y-35559D01*
X58664Y-35577D01*
X58656Y-35586D01*
X58641Y-35596D01*
X58596Y-35596D01*
X58581Y-35586D01*
X58574Y-35577D01*
X58723Y-35401D02*
X58828Y-35401D01*
X58761Y-35596D01*
X57179Y-36627D02*
X57104Y-36627D01*
X57104Y-36432D01*
X57223Y-36450D02*
X57231Y-36441D01*
X57246Y-36432D01*
X57283Y-36432D01*
X57298Y-36441D01*
X57306Y-36450D01*
X57313Y-36469D01*
X57313Y-36487D01*
X57306Y-36515D01*
X57216Y-36627D01*
X57313Y-36627D01*
X57403Y-36515D02*
X57388Y-36506D01*
X57380Y-36497D01*
X57373Y-36478D01*
X57373Y-36469D01*
X57380Y-36450D01*
X57388Y-36441D01*
X57403Y-36432D01*
X57433Y-36432D01*
X57448Y-36441D01*
X57455Y-36450D01*
X57463Y-36469D01*
X57463Y-36478D01*
X57455Y-36497D01*
X57448Y-36506D01*
X57433Y-36515D01*
X57403Y-36515D01*
X57388Y-36525D01*
X57380Y-36534D01*
X57373Y-36552D01*
X57373Y-36590D01*
X57380Y-36608D01*
X57388Y-36617D01*
X57403Y-36627D01*
X57433Y-36627D01*
X57448Y-36617D01*
X57455Y-36608D01*
X57463Y-36590D01*
X57463Y-36552D01*
X57455Y-36534D01*
X57448Y-36525D01*
X57433Y-36515D01*
X60186Y-36655D02*
X60186Y-36730D01*
X59991Y-36730D01*
X59991Y-36618D02*
X59991Y-36521D01*
X60065Y-36573D01*
X60065Y-36551D01*
X60074Y-36536D01*
X60084Y-36528D01*
X60102Y-36521D01*
X60149Y-36521D01*
X60167Y-36528D01*
X60176Y-36536D01*
X60186Y-36551D01*
X60186Y-36596D01*
X60176Y-36611D01*
X60167Y-36618D01*
X59991Y-36386D02*
X59991Y-36416D01*
X60000Y-36431D01*
X60009Y-36439D01*
X60037Y-36454D01*
X60074Y-36461D01*
X60149Y-36461D01*
X60167Y-36454D01*
X60176Y-36446D01*
X60186Y-36431D01*
X60186Y-36401D01*
X60176Y-36386D01*
X60167Y-36379D01*
X60149Y-36371D01*
X60102Y-36371D01*
X60084Y-36379D01*
X60074Y-36386D01*
X60065Y-36401D01*
X60065Y-36431D01*
X60074Y-36446D01*
X60084Y-36454D01*
X60102Y-36461D01*
X57155Y-35360D02*
X57080Y-35360D01*
X57080Y-35165D01*
X57199Y-35183D02*
X57207Y-35174D01*
X57222Y-35165D01*
X57259Y-35165D01*
X57274Y-35174D01*
X57282Y-35183D01*
X57289Y-35202D01*
X57289Y-35220D01*
X57282Y-35248D01*
X57192Y-35360D01*
X57289Y-35360D01*
X57364Y-35360D02*
X57394Y-35360D01*
X57409Y-35350D01*
X57416Y-35341D01*
X57431Y-35313D01*
X57439Y-35276D01*
X57439Y-35202D01*
X57431Y-35183D01*
X57424Y-35174D01*
X57409Y-35165D01*
X57379Y-35165D01*
X57364Y-35174D01*
X57356Y-35183D01*
X57349Y-35202D01*
X57349Y-35248D01*
X57356Y-35267D01*
X57364Y-35276D01*
X57379Y-35285D01*
X57409Y-35285D01*
X57424Y-35276D01*
X57431Y-35267D01*
X57439Y-35248D01*
X59171Y-37958D02*
X59096Y-37958D01*
X59096Y-37763D01*
X59290Y-37828D02*
X59290Y-37958D01*
X59253Y-37753D02*
X59215Y-37893D01*
X59313Y-37893D01*
X59365Y-37781D02*
X59372Y-37772D01*
X59387Y-37763D01*
X59425Y-37763D01*
X59440Y-37772D01*
X59447Y-37781D01*
X59455Y-37800D01*
X59455Y-37818D01*
X59447Y-37846D01*
X59357Y-37958D01*
X59455Y-37958D01*
X60777Y-36655D02*
X60777Y-36730D01*
X60582Y-36730D01*
X60582Y-36618D02*
X60582Y-36521D01*
X60656Y-36573D01*
X60656Y-36551D01*
X60665Y-36536D01*
X60675Y-36528D01*
X60693Y-36521D01*
X60740Y-36521D01*
X60758Y-36528D01*
X60767Y-36536D01*
X60777Y-36551D01*
X60777Y-36596D01*
X60767Y-36611D01*
X60758Y-36618D01*
X60600Y-36461D02*
X60591Y-36454D01*
X60582Y-36439D01*
X60582Y-36401D01*
X60591Y-36386D01*
X60600Y-36379D01*
X60619Y-36371D01*
X60637Y-36371D01*
X60665Y-36379D01*
X60777Y-36469D01*
X60777Y-36371D01*
X58482Y-42627D02*
X58407Y-42627D01*
X58407Y-42432D01*
X58616Y-42627D02*
X58526Y-42627D01*
X58571Y-42627D02*
X58571Y-42432D01*
X58556Y-42460D01*
X58541Y-42478D01*
X58526Y-42487D01*
X58668Y-42432D02*
X58766Y-42432D01*
X58713Y-42506D01*
X58736Y-42506D01*
X58751Y-42515D01*
X58758Y-42525D01*
X58766Y-42543D01*
X58766Y-42590D01*
X58758Y-42608D01*
X58751Y-42617D01*
X58736Y-42627D01*
X58691Y-42627D01*
X58676Y-42617D01*
X58668Y-42608D01*
X56730Y-42608D02*
X56655Y-42608D01*
X56655Y-42413D01*
X56767Y-42413D02*
X56864Y-42413D01*
X56812Y-42487D01*
X56834Y-42487D01*
X56849Y-42496D01*
X56857Y-42506D01*
X56864Y-42524D01*
X56864Y-42571D01*
X56857Y-42589D01*
X56849Y-42598D01*
X56834Y-42608D01*
X56789Y-42608D01*
X56774Y-42598D01*
X56767Y-42589D01*
X56916Y-42413D02*
X57014Y-42413D01*
X56961Y-42487D01*
X56984Y-42487D01*
X56999Y-42496D01*
X57006Y-42506D01*
X57014Y-42524D01*
X57014Y-42571D01*
X57006Y-42589D01*
X56999Y-42598D01*
X56984Y-42608D01*
X56939Y-42608D01*
X56924Y-42598D01*
X56916Y-42589D01*
X60245Y-44698D02*
X60170Y-44698D01*
X60170Y-44503D01*
X60289Y-44521D02*
X60297Y-44512D01*
X60312Y-44503D01*
X60349Y-44503D01*
X60364Y-44512D01*
X60372Y-44521D01*
X60379Y-44540D01*
X60379Y-44558D01*
X60372Y-44586D01*
X60282Y-44698D01*
X60379Y-44698D01*
X60514Y-44503D02*
X60484Y-44503D01*
X60469Y-44512D01*
X60461Y-44521D01*
X60446Y-44549D01*
X60439Y-44586D01*
X60439Y-44661D01*
X60446Y-44679D01*
X60454Y-44688D01*
X60469Y-44698D01*
X60499Y-44698D01*
X60514Y-44688D01*
X60521Y-44679D01*
X60529Y-44661D01*
X60529Y-44614D01*
X60521Y-44596D01*
X60514Y-44586D01*
X60499Y-44577D01*
X60469Y-44577D01*
X60454Y-44586D01*
X60446Y-44596D01*
X60439Y-44614D01*
X58808Y-44155D02*
X58808Y-44230D01*
X58613Y-44230D01*
X58808Y-44021D02*
X58808Y-44111D01*
X58808Y-44066D02*
X58613Y-44066D01*
X58641Y-44081D01*
X58659Y-44096D01*
X58668Y-44111D01*
X58613Y-43969D02*
X58613Y-43864D01*
X58808Y-43931D01*
X60391Y-43592D02*
X60316Y-43592D01*
X60316Y-43397D01*
X60435Y-43415D02*
X60443Y-43406D01*
X60458Y-43397D01*
X60495Y-43397D01*
X60510Y-43406D01*
X60518Y-43415D01*
X60525Y-43434D01*
X60525Y-43452D01*
X60518Y-43480D01*
X60428Y-43592D01*
X60525Y-43592D01*
X60585Y-43415D02*
X60592Y-43406D01*
X60607Y-43397D01*
X60645Y-43397D01*
X60660Y-43406D01*
X60667Y-43415D01*
X60675Y-43434D01*
X60675Y-43452D01*
X60667Y-43480D01*
X60577Y-43592D01*
X60675Y-43592D01*
X56513Y-38084D02*
X56438Y-38084D01*
X56438Y-37889D01*
X56550Y-37889D02*
X56647Y-37889D01*
X56595Y-37963D01*
X56617Y-37963D01*
X56632Y-37972D01*
X56640Y-37982D01*
X56647Y-38000D01*
X56647Y-38047D01*
X56640Y-38065D01*
X56632Y-38074D01*
X56617Y-38084D01*
X56572Y-38084D01*
X56557Y-38074D01*
X56550Y-38065D01*
X56737Y-37972D02*
X56722Y-37963D01*
X56714Y-37954D01*
X56707Y-37935D01*
X56707Y-37926D01*
X56714Y-37907D01*
X56722Y-37898D01*
X56737Y-37889D01*
X56767Y-37889D01*
X56782Y-37898D01*
X56789Y-37907D01*
X56797Y-37926D01*
X56797Y-37935D01*
X56789Y-37954D01*
X56782Y-37963D01*
X56767Y-37972D01*
X56737Y-37972D01*
X56722Y-37982D01*
X56714Y-37991D01*
X56707Y-38009D01*
X56707Y-38047D01*
X56714Y-38065D01*
X56722Y-38074D01*
X56737Y-38084D01*
X56767Y-38084D01*
X56782Y-38074D01*
X56789Y-38065D01*
X56797Y-38047D01*
X56797Y-38009D01*
X56789Y-37991D01*
X56782Y-37982D01*
X56767Y-37972D01*
X56242Y-36915D02*
X56167Y-36915D01*
X56167Y-36720D01*
X56279Y-36720D02*
X56376Y-36720D01*
X56324Y-36794D01*
X56346Y-36794D01*
X56361Y-36803D01*
X56369Y-36813D01*
X56376Y-36831D01*
X56376Y-36878D01*
X56369Y-36896D01*
X56361Y-36905D01*
X56346Y-36915D01*
X56301Y-36915D01*
X56286Y-36905D01*
X56279Y-36896D01*
X56511Y-36785D02*
X56511Y-36915D01*
X56473Y-36710D02*
X56436Y-36850D01*
X56533Y-36850D01*
X55623Y-36891D02*
X55548Y-36891D01*
X55548Y-36696D01*
X55660Y-36696D02*
X55757Y-36696D01*
X55705Y-36770D01*
X55727Y-36770D01*
X55742Y-36779D01*
X55750Y-36789D01*
X55757Y-36807D01*
X55757Y-36854D01*
X55750Y-36872D01*
X55742Y-36881D01*
X55727Y-36891D01*
X55682Y-36891D01*
X55667Y-36881D01*
X55660Y-36872D01*
X55899Y-36696D02*
X55824Y-36696D01*
X55817Y-36789D01*
X55824Y-36779D01*
X55839Y-36770D01*
X55877Y-36770D01*
X55892Y-36779D01*
X55899Y-36789D01*
X55907Y-36807D01*
X55907Y-36854D01*
X55899Y-36872D01*
X55892Y-36881D01*
X55877Y-36891D01*
X55839Y-36891D01*
X55824Y-36881D01*
X55817Y-36872D01*
X58226Y-38135D02*
X58151Y-38135D01*
X58151Y-37940D01*
X58345Y-38005D02*
X58345Y-38135D01*
X58308Y-37930D02*
X58270Y-38070D01*
X58368Y-38070D01*
X58457Y-37940D02*
X58472Y-37940D01*
X58487Y-37949D01*
X58495Y-37958D01*
X58502Y-37977D01*
X58510Y-38014D01*
X58510Y-38060D01*
X58502Y-38098D01*
X58495Y-38116D01*
X58487Y-38125D01*
X58472Y-38135D01*
X58457Y-38135D01*
X58442Y-38125D01*
X58435Y-38116D01*
X58427Y-38098D01*
X58420Y-38060D01*
X58420Y-38014D01*
X58427Y-37977D01*
X58435Y-37958D01*
X58442Y-37949D01*
X58457Y-37940D01*
X57196Y-47250D02*
X57188Y-47259D01*
X57166Y-47269D01*
X57151Y-47269D01*
X57128Y-47259D01*
X57113Y-47241D01*
X57106Y-47222D01*
X57098Y-47185D01*
X57098Y-47157D01*
X57106Y-47120D01*
X57113Y-47102D01*
X57128Y-47083D01*
X57151Y-47074D01*
X57166Y-47074D01*
X57188Y-47083D01*
X57196Y-47092D01*
X57285Y-47157D02*
X57270Y-47148D01*
X57263Y-47139D01*
X57255Y-47120D01*
X57255Y-47111D01*
X57263Y-47092D01*
X57270Y-47083D01*
X57285Y-47074D01*
X57315Y-47074D01*
X57330Y-47083D01*
X57338Y-47092D01*
X57345Y-47111D01*
X57345Y-47120D01*
X57338Y-47139D01*
X57330Y-47148D01*
X57315Y-47157D01*
X57285Y-47157D01*
X57270Y-47167D01*
X57263Y-47176D01*
X57255Y-47194D01*
X57255Y-47232D01*
X57263Y-47250D01*
X57270Y-47259D01*
X57285Y-47269D01*
X57315Y-47269D01*
X57330Y-47259D01*
X57338Y-47250D01*
X57345Y-47232D01*
X57345Y-47194D01*
X57338Y-47176D01*
X57330Y-47167D01*
X57315Y-47157D01*
X57495Y-47269D02*
X57405Y-47269D01*
X57450Y-47269D02*
X57450Y-47074D01*
X57435Y-47102D01*
X57420Y-47120D01*
X57405Y-47129D01*
X57198Y-48057D02*
X57190Y-48066D01*
X57168Y-48076D01*
X57153Y-48076D01*
X57130Y-48066D01*
X57115Y-48048D01*
X57108Y-48029D01*
X57100Y-47992D01*
X57100Y-47964D01*
X57108Y-47927D01*
X57115Y-47909D01*
X57130Y-47890D01*
X57153Y-47881D01*
X57168Y-47881D01*
X57190Y-47890D01*
X57198Y-47899D01*
X57287Y-47964D02*
X57272Y-47955D01*
X57265Y-47946D01*
X57257Y-47927D01*
X57257Y-47918D01*
X57265Y-47899D01*
X57272Y-47890D01*
X57287Y-47881D01*
X57317Y-47881D01*
X57332Y-47890D01*
X57340Y-47899D01*
X57347Y-47918D01*
X57347Y-47927D01*
X57340Y-47946D01*
X57332Y-47955D01*
X57317Y-47964D01*
X57287Y-47964D01*
X57272Y-47974D01*
X57265Y-47983D01*
X57257Y-48001D01*
X57257Y-48039D01*
X57265Y-48057D01*
X57272Y-48066D01*
X57287Y-48076D01*
X57317Y-48076D01*
X57332Y-48066D01*
X57340Y-48057D01*
X57347Y-48039D01*
X57347Y-48001D01*
X57340Y-47983D01*
X57332Y-47974D01*
X57317Y-47964D01*
X57437Y-47964D02*
X57422Y-47955D01*
X57414Y-47946D01*
X57407Y-47927D01*
X57407Y-47918D01*
X57414Y-47899D01*
X57422Y-47890D01*
X57437Y-47881D01*
X57467Y-47881D01*
X57482Y-47890D01*
X57489Y-47899D01*
X57497Y-47918D01*
X57497Y-47927D01*
X57489Y-47946D01*
X57482Y-47955D01*
X57467Y-47964D01*
X57437Y-47964D01*
X57422Y-47974D01*
X57414Y-47983D01*
X57407Y-48001D01*
X57407Y-48039D01*
X57414Y-48057D01*
X57422Y-48066D01*
X57437Y-48076D01*
X57467Y-48076D01*
X57482Y-48066D01*
X57489Y-48057D01*
X57497Y-48039D01*
X57497Y-48001D01*
X57489Y-47983D01*
X57482Y-47974D01*
X57467Y-47964D01*
X54234Y-45050D02*
X54226Y-45059D01*
X54204Y-45069D01*
X54189Y-45069D01*
X54166Y-45059D01*
X54151Y-45041D01*
X54144Y-45022D01*
X54136Y-44985D01*
X54136Y-44957D01*
X54144Y-44920D01*
X54151Y-44902D01*
X54166Y-44883D01*
X54189Y-44874D01*
X54204Y-44874D01*
X54226Y-44883D01*
X54234Y-44892D01*
X54293Y-44892D02*
X54301Y-44883D01*
X54316Y-44874D01*
X54353Y-44874D01*
X54368Y-44883D01*
X54376Y-44892D01*
X54383Y-44911D01*
X54383Y-44929D01*
X54376Y-44957D01*
X54286Y-45069D01*
X54383Y-45069D01*
X54518Y-44939D02*
X54518Y-45069D01*
X54480Y-44864D02*
X54443Y-45004D01*
X54540Y-45004D01*
X51876Y-43337D02*
X51885Y-43345D01*
X51895Y-43367D01*
X51895Y-43382D01*
X51885Y-43404D01*
X51867Y-43419D01*
X51848Y-43427D01*
X51811Y-43434D01*
X51783Y-43434D01*
X51746Y-43427D01*
X51728Y-43419D01*
X51709Y-43404D01*
X51700Y-43382D01*
X51700Y-43367D01*
X51709Y-43345D01*
X51718Y-43337D01*
X51895Y-43188D02*
X51895Y-43277D01*
X51895Y-43233D02*
X51700Y-43233D01*
X51728Y-43247D01*
X51746Y-43262D01*
X51755Y-43277D01*
X51765Y-43053D02*
X51895Y-43053D01*
X51690Y-43090D02*
X51830Y-43128D01*
X51830Y-43031D01*
X51765Y-42904D02*
X51895Y-42904D01*
X51690Y-42941D02*
X51830Y-42978D01*
X51830Y-42881D01*
X53167Y-44620D02*
X53159Y-44629D01*
X53137Y-44639D01*
X53122Y-44639D01*
X53099Y-44629D01*
X53084Y-44611D01*
X53077Y-44592D01*
X53069Y-44555D01*
X53069Y-44527D01*
X53077Y-44490D01*
X53084Y-44472D01*
X53099Y-44453D01*
X53122Y-44444D01*
X53137Y-44444D01*
X53159Y-44453D01*
X53167Y-44462D01*
X53226Y-44462D02*
X53234Y-44453D01*
X53249Y-44444D01*
X53286Y-44444D01*
X53301Y-44453D01*
X53309Y-44462D01*
X53316Y-44481D01*
X53316Y-44499D01*
X53309Y-44527D01*
X53219Y-44639D01*
X53316Y-44639D01*
X53368Y-44444D02*
X53466Y-44444D01*
X53413Y-44518D01*
X53436Y-44518D01*
X53451Y-44527D01*
X53458Y-44537D01*
X53466Y-44555D01*
X53466Y-44602D01*
X53458Y-44620D01*
X53451Y-44629D01*
X53436Y-44639D01*
X53391Y-44639D01*
X53376Y-44629D01*
X53368Y-44620D01*
X54824Y-44412D02*
X54816Y-44421D01*
X54794Y-44431D01*
X54779Y-44431D01*
X54757Y-44421D01*
X54742Y-44403D01*
X54734Y-44384D01*
X54727Y-44347D01*
X54727Y-44319D01*
X54734Y-44282D01*
X54742Y-44264D01*
X54757Y-44245D01*
X54779Y-44236D01*
X54794Y-44236D01*
X54816Y-44245D01*
X54824Y-44254D01*
X54973Y-44431D02*
X54884Y-44431D01*
X54928Y-44431D02*
X54928Y-44236D01*
X54914Y-44264D01*
X54899Y-44282D01*
X54884Y-44291D01*
X55123Y-44431D02*
X55033Y-44431D01*
X55078Y-44431D02*
X55078Y-44236D01*
X55063Y-44264D01*
X55048Y-44282D01*
X55033Y-44291D01*
X55175Y-44236D02*
X55280Y-44236D01*
X55213Y-44431D01*
X54029Y-43652D02*
X54021Y-43661D01*
X53999Y-43671D01*
X53984Y-43671D01*
X53962Y-43661D01*
X53947Y-43643D01*
X53939Y-43624D01*
X53932Y-43587D01*
X53932Y-43559D01*
X53939Y-43522D01*
X53947Y-43504D01*
X53962Y-43485D01*
X53984Y-43476D01*
X53999Y-43476D01*
X54021Y-43485D01*
X54029Y-43494D01*
X54178Y-43671D02*
X54089Y-43671D01*
X54133Y-43671D02*
X54133Y-43476D01*
X54119Y-43504D01*
X54104Y-43522D01*
X54089Y-43531D01*
X54238Y-43494D02*
X54246Y-43485D01*
X54261Y-43476D01*
X54298Y-43476D01*
X54313Y-43485D01*
X54320Y-43494D01*
X54328Y-43513D01*
X54328Y-43531D01*
X54320Y-43559D01*
X54231Y-43671D01*
X54328Y-43671D01*
X54388Y-43494D02*
X54395Y-43485D01*
X54410Y-43476D01*
X54447Y-43476D01*
X54462Y-43485D01*
X54470Y-43494D01*
X54477Y-43513D01*
X54477Y-43531D01*
X54470Y-43559D01*
X54380Y-43671D01*
X54477Y-43671D01*
X59084Y-35160D02*
X59076Y-35169D01*
X59054Y-35179D01*
X59039Y-35179D01*
X59016Y-35169D01*
X59001Y-35151D01*
X58994Y-35132D01*
X58986Y-35095D01*
X58986Y-35067D01*
X58994Y-35030D01*
X59001Y-35012D01*
X59016Y-34993D01*
X59039Y-34984D01*
X59054Y-34984D01*
X59076Y-34993D01*
X59084Y-35002D01*
X59226Y-34984D02*
X59151Y-34984D01*
X59143Y-35077D01*
X59151Y-35067D01*
X59166Y-35058D01*
X59203Y-35058D01*
X59218Y-35067D01*
X59226Y-35077D01*
X59233Y-35095D01*
X59233Y-35142D01*
X59226Y-35160D01*
X59218Y-35169D01*
X59203Y-35179D01*
X59166Y-35179D01*
X59151Y-35169D01*
X59143Y-35160D01*
X59285Y-34984D02*
X59390Y-34984D01*
X59323Y-35179D01*
X58773Y-45100D02*
X58765Y-45109D01*
X58743Y-45119D01*
X58728Y-45119D01*
X58706Y-45109D01*
X58691Y-45091D01*
X58683Y-45072D01*
X58676Y-45035D01*
X58676Y-45007D01*
X58683Y-44970D01*
X58691Y-44952D01*
X58706Y-44933D01*
X58728Y-44924D01*
X58743Y-44924D01*
X58765Y-44933D01*
X58773Y-44942D01*
X58922Y-45119D02*
X58833Y-45119D01*
X58877Y-45119D02*
X58877Y-44924D01*
X58863Y-44952D01*
X58848Y-44970D01*
X58833Y-44979D01*
X59020Y-44924D02*
X59034Y-44924D01*
X59049Y-44933D01*
X59057Y-44942D01*
X59064Y-44961D01*
X59072Y-44998D01*
X59072Y-45044D01*
X59064Y-45082D01*
X59057Y-45100D01*
X59049Y-45109D01*
X59034Y-45119D01*
X59020Y-45119D01*
X59005Y-45109D01*
X58997Y-45100D01*
X58990Y-45082D01*
X58982Y-45044D01*
X58982Y-44998D01*
X58990Y-44961D01*
X58997Y-44942D01*
X59005Y-44933D01*
X59020Y-44924D01*
X59221Y-45119D02*
X59132Y-45119D01*
X59177Y-45119D02*
X59177Y-44924D01*
X59162Y-44952D01*
X59147Y-44970D01*
X59132Y-44979D01*
X58190Y-44703D02*
X58182Y-44712D01*
X58160Y-44722D01*
X58145Y-44722D01*
X58122Y-44712D01*
X58107Y-44694D01*
X58100Y-44675D01*
X58092Y-44638D01*
X58092Y-44610D01*
X58100Y-44573D01*
X58107Y-44555D01*
X58122Y-44536D01*
X58145Y-44527D01*
X58160Y-44527D01*
X58182Y-44536D01*
X58190Y-44545D01*
X58242Y-44527D02*
X58339Y-44527D01*
X58287Y-44601D01*
X58309Y-44601D01*
X58324Y-44610D01*
X58332Y-44620D01*
X58339Y-44638D01*
X58339Y-44685D01*
X58332Y-44703D01*
X58324Y-44712D01*
X58309Y-44722D01*
X58264Y-44722D01*
X58249Y-44712D01*
X58242Y-44703D01*
X58391Y-44527D02*
X58489Y-44527D01*
X58436Y-44601D01*
X58459Y-44601D01*
X58474Y-44610D01*
X58481Y-44620D01*
X58489Y-44638D01*
X58489Y-44685D01*
X58481Y-44703D01*
X58474Y-44712D01*
X58459Y-44722D01*
X58414Y-44722D01*
X58399Y-44712D01*
X58391Y-44703D01*
X59538Y-44155D02*
X59547Y-44163D01*
X59557Y-44185D01*
X59557Y-44200D01*
X59547Y-44223D01*
X59529Y-44238D01*
X59510Y-44245D01*
X59473Y-44253D01*
X59445Y-44253D01*
X59408Y-44245D01*
X59390Y-44238D01*
X59371Y-44223D01*
X59362Y-44200D01*
X59362Y-44185D01*
X59371Y-44163D01*
X59380Y-44155D01*
X59362Y-44103D02*
X59362Y-44006D01*
X59436Y-44058D01*
X59436Y-44036D01*
X59445Y-44021D01*
X59455Y-44013D01*
X59473Y-44006D01*
X59520Y-44006D01*
X59538Y-44013D01*
X59547Y-44021D01*
X59557Y-44036D01*
X59557Y-44081D01*
X59547Y-44096D01*
X59538Y-44103D01*
X59427Y-43871D02*
X59557Y-43871D01*
X59352Y-43909D02*
X59492Y-43946D01*
X59492Y-43849D01*
X58186Y-43593D02*
X58178Y-43602D01*
X58156Y-43612D01*
X58141Y-43612D01*
X58118Y-43602D01*
X58103Y-43584D01*
X58096Y-43565D01*
X58088Y-43528D01*
X58088Y-43500D01*
X58096Y-43463D01*
X58103Y-43445D01*
X58118Y-43426D01*
X58141Y-43417D01*
X58156Y-43417D01*
X58178Y-43426D01*
X58186Y-43435D01*
X58238Y-43417D02*
X58343Y-43417D01*
X58275Y-43612D01*
X58395Y-43435D02*
X58402Y-43426D01*
X58417Y-43417D01*
X58455Y-43417D01*
X58470Y-43426D01*
X58477Y-43435D01*
X58485Y-43454D01*
X58485Y-43472D01*
X58477Y-43500D01*
X58387Y-43612D01*
X58485Y-43612D01*
X60915Y-43092D02*
X60924Y-43100D01*
X60934Y-43122D01*
X60934Y-43137D01*
X60924Y-43160D01*
X60906Y-43175D01*
X60887Y-43182D01*
X60850Y-43190D01*
X60822Y-43190D01*
X60785Y-43182D01*
X60767Y-43175D01*
X60748Y-43160D01*
X60739Y-43137D01*
X60739Y-43122D01*
X60748Y-43100D01*
X60757Y-43092D01*
X60739Y-42950D02*
X60739Y-43025D01*
X60832Y-43033D01*
X60822Y-43025D01*
X60813Y-43010D01*
X60813Y-42973D01*
X60822Y-42958D01*
X60832Y-42950D01*
X60850Y-42943D01*
X60897Y-42943D01*
X60915Y-42950D01*
X60924Y-42958D01*
X60934Y-42973D01*
X60934Y-43010D01*
X60924Y-43025D01*
X60915Y-43033D01*
X60804Y-42808D02*
X60934Y-42808D01*
X60729Y-42846D02*
X60869Y-42883D01*
X60869Y-42786D01*
X61191Y-43072D02*
X61200Y-43080D01*
X61210Y-43102D01*
X61210Y-43117D01*
X61200Y-43140D01*
X61182Y-43155D01*
X61163Y-43162D01*
X61126Y-43170D01*
X61098Y-43170D01*
X61061Y-43162D01*
X61043Y-43155D01*
X61024Y-43140D01*
X61015Y-43117D01*
X61015Y-43102D01*
X61024Y-43080D01*
X61033Y-43072D01*
X61015Y-42930D02*
X61015Y-43005D01*
X61108Y-43013D01*
X61098Y-43005D01*
X61089Y-42990D01*
X61089Y-42953D01*
X61098Y-42938D01*
X61108Y-42930D01*
X61126Y-42923D01*
X61173Y-42923D01*
X61191Y-42930D01*
X61200Y-42938D01*
X61210Y-42953D01*
X61210Y-42990D01*
X61200Y-43005D01*
X61191Y-43013D01*
X61210Y-42773D02*
X61210Y-42863D01*
X61210Y-42818D02*
X61015Y-42818D01*
X61043Y-42833D01*
X61061Y-42848D01*
X61070Y-42863D01*
X59115Y-42313D02*
X59107Y-42322D01*
X59085Y-42332D01*
X59070Y-42332D01*
X59048Y-42322D01*
X59033Y-42304D01*
X59025Y-42285D01*
X59018Y-42248D01*
X59018Y-42220D01*
X59025Y-42183D01*
X59033Y-42165D01*
X59048Y-42146D01*
X59070Y-42137D01*
X59085Y-42137D01*
X59107Y-42146D01*
X59115Y-42155D01*
X59264Y-42332D02*
X59175Y-42332D01*
X59219Y-42332D02*
X59219Y-42137D01*
X59205Y-42165D01*
X59190Y-42183D01*
X59175Y-42192D01*
X59324Y-42155D02*
X59332Y-42146D01*
X59347Y-42137D01*
X59384Y-42137D01*
X59399Y-42146D01*
X59406Y-42155D01*
X59414Y-42174D01*
X59414Y-42192D01*
X59406Y-42220D01*
X59317Y-42332D01*
X59414Y-42332D01*
X59511Y-42137D02*
X59526Y-42137D01*
X59541Y-42146D01*
X59548Y-42155D01*
X59556Y-42174D01*
X59563Y-42211D01*
X59563Y-42257D01*
X59556Y-42295D01*
X59548Y-42313D01*
X59541Y-42322D01*
X59526Y-42332D01*
X59511Y-42332D01*
X59496Y-42322D01*
X59489Y-42313D01*
X59481Y-42295D01*
X59474Y-42257D01*
X59474Y-42211D01*
X59481Y-42174D01*
X59489Y-42155D01*
X59496Y-42146D01*
X59511Y-42137D01*
X61045Y-36635D02*
X61054Y-36643D01*
X61064Y-36665D01*
X61064Y-36680D01*
X61054Y-36703D01*
X61036Y-36718D01*
X61017Y-36725D01*
X60980Y-36733D01*
X60952Y-36733D01*
X60915Y-36725D01*
X60897Y-36718D01*
X60878Y-36703D01*
X60869Y-36680D01*
X60869Y-36665D01*
X60878Y-36643D01*
X60887Y-36635D01*
X61064Y-36561D02*
X61064Y-36531D01*
X61054Y-36516D01*
X61045Y-36508D01*
X61017Y-36493D01*
X60980Y-36486D01*
X60906Y-36486D01*
X60887Y-36493D01*
X60878Y-36501D01*
X60869Y-36516D01*
X60869Y-36546D01*
X60878Y-36561D01*
X60887Y-36568D01*
X60906Y-36576D01*
X60952Y-36576D01*
X60971Y-36568D01*
X60980Y-36561D01*
X60989Y-36546D01*
X60989Y-36516D01*
X60980Y-36501D01*
X60971Y-36493D01*
X60952Y-36486D01*
X61064Y-36336D02*
X61064Y-36426D01*
X61064Y-36381D02*
X60869Y-36381D01*
X60897Y-36396D01*
X60915Y-36411D01*
X60924Y-36426D01*
X56998Y-45871D02*
X56990Y-45880D01*
X56968Y-45890D01*
X56953Y-45890D01*
X56930Y-45880D01*
X56915Y-45862D01*
X56908Y-45843D01*
X56900Y-45806D01*
X56900Y-45778D01*
X56908Y-45741D01*
X56915Y-45723D01*
X56930Y-45704D01*
X56953Y-45695D01*
X56968Y-45695D01*
X56990Y-45704D01*
X56998Y-45713D01*
X57140Y-45695D02*
X57065Y-45695D01*
X57057Y-45788D01*
X57065Y-45778D01*
X57080Y-45769D01*
X57117Y-45769D01*
X57132Y-45778D01*
X57140Y-45788D01*
X57147Y-45806D01*
X57147Y-45853D01*
X57140Y-45871D01*
X57132Y-45880D01*
X57117Y-45890D01*
X57080Y-45890D01*
X57065Y-45880D01*
X57057Y-45871D01*
X57222Y-45890D02*
X57252Y-45890D01*
X57267Y-45880D01*
X57274Y-45871D01*
X57289Y-45843D01*
X57297Y-45806D01*
X57297Y-45732D01*
X57289Y-45713D01*
X57282Y-45704D01*
X57267Y-45695D01*
X57237Y-45695D01*
X57222Y-45704D01*
X57214Y-45713D01*
X57207Y-45732D01*
X57207Y-45778D01*
X57214Y-45797D01*
X57222Y-45806D01*
X57237Y-45815D01*
X57267Y-45815D01*
X57282Y-45806D01*
X57289Y-45797D01*
X57297Y-45778D01*
X57698Y-34888D02*
X57690Y-34897D01*
X57668Y-34907D01*
X57653Y-34907D01*
X57630Y-34897D01*
X57615Y-34879D01*
X57608Y-34860D01*
X57600Y-34823D01*
X57600Y-34795D01*
X57608Y-34758D01*
X57615Y-34740D01*
X57630Y-34721D01*
X57653Y-34712D01*
X57668Y-34712D01*
X57690Y-34721D01*
X57698Y-34730D01*
X57757Y-34730D02*
X57765Y-34721D01*
X57780Y-34712D01*
X57817Y-34712D01*
X57832Y-34721D01*
X57840Y-34730D01*
X57847Y-34749D01*
X57847Y-34767D01*
X57840Y-34795D01*
X57750Y-34907D01*
X57847Y-34907D01*
X57899Y-34712D02*
X58004Y-34712D01*
X57937Y-34907D01*
X57825Y-43191D02*
X57834Y-43199D01*
X57844Y-43221D01*
X57844Y-43236D01*
X57834Y-43259D01*
X57816Y-43274D01*
X57797Y-43281D01*
X57760Y-43289D01*
X57732Y-43289D01*
X57695Y-43281D01*
X57677Y-43274D01*
X57658Y-43259D01*
X57649Y-43236D01*
X57649Y-43221D01*
X57658Y-43199D01*
X57667Y-43191D01*
X57649Y-43057D02*
X57649Y-43087D01*
X57658Y-43102D01*
X57667Y-43109D01*
X57695Y-43124D01*
X57732Y-43132D01*
X57807Y-43132D01*
X57825Y-43124D01*
X57834Y-43117D01*
X57844Y-43102D01*
X57844Y-43072D01*
X57834Y-43057D01*
X57825Y-43049D01*
X57807Y-43042D01*
X57760Y-43042D01*
X57742Y-43049D01*
X57732Y-43057D01*
X57723Y-43072D01*
X57723Y-43102D01*
X57732Y-43117D01*
X57742Y-43124D01*
X57760Y-43132D01*
X57844Y-42892D02*
X57844Y-42982D01*
X57844Y-42937D02*
X57649Y-42937D01*
X57677Y-42952D01*
X57695Y-42967D01*
X57704Y-42982D01*
X57293Y-43210D02*
X57302Y-43218D01*
X57312Y-43240D01*
X57312Y-43255D01*
X57302Y-43278D01*
X57284Y-43293D01*
X57265Y-43300D01*
X57228Y-43308D01*
X57200Y-43308D01*
X57163Y-43300D01*
X57145Y-43293D01*
X57126Y-43278D01*
X57117Y-43255D01*
X57117Y-43240D01*
X57126Y-43218D01*
X57135Y-43210D01*
X57117Y-43076D02*
X57117Y-43106D01*
X57126Y-43121D01*
X57135Y-43128D01*
X57163Y-43143D01*
X57200Y-43151D01*
X57275Y-43151D01*
X57293Y-43143D01*
X57302Y-43136D01*
X57312Y-43121D01*
X57312Y-43091D01*
X57302Y-43076D01*
X57293Y-43068D01*
X57275Y-43061D01*
X57228Y-43061D01*
X57210Y-43068D01*
X57200Y-43076D01*
X57191Y-43091D01*
X57191Y-43121D01*
X57200Y-43136D01*
X57210Y-43143D01*
X57228Y-43151D01*
X57117Y-43009D02*
X57117Y-42911D01*
X57191Y-42964D01*
X57191Y-42941D01*
X57200Y-42926D01*
X57210Y-42919D01*
X57228Y-42911D01*
X57275Y-42911D01*
X57293Y-42919D01*
X57302Y-42926D01*
X57312Y-42941D01*
X57312Y-42986D01*
X57302Y-43001D01*
X57293Y-43009D01*
X58265Y-42254D02*
X58257Y-42263D01*
X58235Y-42273D01*
X58220Y-42273D01*
X58197Y-42263D01*
X58182Y-42245D01*
X58175Y-42226D01*
X58167Y-42189D01*
X58167Y-42161D01*
X58175Y-42124D01*
X58182Y-42106D01*
X58197Y-42087D01*
X58220Y-42078D01*
X58235Y-42078D01*
X58257Y-42087D01*
X58265Y-42096D01*
X58324Y-42096D02*
X58332Y-42087D01*
X58347Y-42078D01*
X58384Y-42078D01*
X58399Y-42087D01*
X58407Y-42096D01*
X58414Y-42115D01*
X58414Y-42133D01*
X58407Y-42161D01*
X58317Y-42273D01*
X58414Y-42273D01*
X58564Y-42273D02*
X58474Y-42273D01*
X58519Y-42273D02*
X58519Y-42078D01*
X58504Y-42106D01*
X58489Y-42124D01*
X58474Y-42133D01*
X60699Y-37147D02*
X60708Y-37155D01*
X60718Y-37177D01*
X60718Y-37192D01*
X60708Y-37215D01*
X60690Y-37230D01*
X60671Y-37237D01*
X60634Y-37245D01*
X60606Y-37245D01*
X60569Y-37237D01*
X60551Y-37230D01*
X60532Y-37215D01*
X60523Y-37192D01*
X60523Y-37177D01*
X60532Y-37155D01*
X60541Y-37147D01*
X60718Y-37073D02*
X60718Y-37043D01*
X60708Y-37028D01*
X60699Y-37020D01*
X60671Y-37005D01*
X60634Y-36998D01*
X60560Y-36998D01*
X60541Y-37005D01*
X60532Y-37013D01*
X60523Y-37028D01*
X60523Y-37058D01*
X60532Y-37073D01*
X60541Y-37080D01*
X60560Y-37088D01*
X60606Y-37088D01*
X60625Y-37080D01*
X60634Y-37073D01*
X60643Y-37058D01*
X60643Y-37028D01*
X60634Y-37013D01*
X60625Y-37005D01*
X60606Y-36998D01*
X60588Y-36863D02*
X60718Y-36863D01*
X60513Y-36901D02*
X60653Y-36938D01*
X60653Y-36841D01*
X59305Y-35612D02*
X59297Y-35621D01*
X59275Y-35631D01*
X59260Y-35631D01*
X59237Y-35621D01*
X59222Y-35603D01*
X59215Y-35584D01*
X59207Y-35547D01*
X59207Y-35519D01*
X59215Y-35482D01*
X59222Y-35464D01*
X59237Y-35445D01*
X59260Y-35436D01*
X59275Y-35436D01*
X59297Y-35445D01*
X59305Y-35454D01*
X59379Y-35631D02*
X59409Y-35631D01*
X59424Y-35621D01*
X59432Y-35612D01*
X59447Y-35584D01*
X59454Y-35547D01*
X59454Y-35473D01*
X59447Y-35454D01*
X59439Y-35445D01*
X59424Y-35436D01*
X59394Y-35436D01*
X59379Y-35445D01*
X59372Y-35454D01*
X59364Y-35473D01*
X59364Y-35519D01*
X59372Y-35538D01*
X59379Y-35547D01*
X59394Y-35556D01*
X59424Y-35556D01*
X59439Y-35547D01*
X59447Y-35538D01*
X59454Y-35519D01*
X59514Y-35454D02*
X59521Y-35445D01*
X59536Y-35436D01*
X59574Y-35436D01*
X59589Y-35445D01*
X59596Y-35454D01*
X59604Y-35473D01*
X59604Y-35491D01*
X59596Y-35519D01*
X59506Y-35631D01*
X59604Y-35631D01*
X60453Y-36665D02*
X60462Y-36673D01*
X60472Y-36695D01*
X60472Y-36710D01*
X60462Y-36733D01*
X60444Y-36748D01*
X60425Y-36755D01*
X60388Y-36763D01*
X60360Y-36763D01*
X60323Y-36755D01*
X60305Y-36748D01*
X60286Y-36733D01*
X60277Y-36710D01*
X60277Y-36695D01*
X60286Y-36673D01*
X60295Y-36665D01*
X60472Y-36591D02*
X60472Y-36561D01*
X60462Y-36546D01*
X60453Y-36538D01*
X60425Y-36523D01*
X60388Y-36516D01*
X60314Y-36516D01*
X60295Y-36523D01*
X60286Y-36531D01*
X60277Y-36546D01*
X60277Y-36576D01*
X60286Y-36591D01*
X60295Y-36598D01*
X60314Y-36606D01*
X60360Y-36606D01*
X60379Y-36598D01*
X60388Y-36591D01*
X60397Y-36576D01*
X60397Y-36546D01*
X60388Y-36531D01*
X60379Y-36523D01*
X60360Y-36516D01*
X60277Y-36464D02*
X60277Y-36366D01*
X60351Y-36419D01*
X60351Y-36396D01*
X60360Y-36381D01*
X60370Y-36374D01*
X60388Y-36366D01*
X60435Y-36366D01*
X60453Y-36374D01*
X60462Y-36381D01*
X60472Y-36396D01*
X60472Y-36441D01*
X60462Y-36456D01*
X60453Y-36464D01*
X57278Y-36210D02*
X57287Y-36218D01*
X57297Y-36240D01*
X57297Y-36255D01*
X57287Y-36278D01*
X57269Y-36293D01*
X57250Y-36300D01*
X57213Y-36308D01*
X57185Y-36308D01*
X57148Y-36300D01*
X57130Y-36293D01*
X57111Y-36278D01*
X57102Y-36255D01*
X57102Y-36240D01*
X57111Y-36218D01*
X57120Y-36210D01*
X57167Y-36076D02*
X57297Y-36076D01*
X57092Y-36113D02*
X57232Y-36151D01*
X57232Y-36053D01*
X57297Y-35986D02*
X57297Y-35956D01*
X57287Y-35941D01*
X57278Y-35934D01*
X57250Y-35919D01*
X57213Y-35911D01*
X57139Y-35911D01*
X57120Y-35919D01*
X57111Y-35926D01*
X57102Y-35941D01*
X57102Y-35971D01*
X57111Y-35986D01*
X57120Y-35994D01*
X57139Y-36001D01*
X57185Y-36001D01*
X57204Y-35994D01*
X57213Y-35986D01*
X57222Y-35971D01*
X57222Y-35941D01*
X57213Y-35926D01*
X57204Y-35919D01*
X57185Y-35911D01*
X51986Y-36329D02*
X51978Y-36338D01*
X51956Y-36348D01*
X51941Y-36348D01*
X51919Y-36338D01*
X51904Y-36320D01*
X51896Y-36301D01*
X51889Y-36264D01*
X51889Y-36236D01*
X51896Y-36199D01*
X51904Y-36181D01*
X51919Y-36162D01*
X51941Y-36153D01*
X51956Y-36153D01*
X51978Y-36162D01*
X51986Y-36171D01*
X52046Y-36171D02*
X52053Y-36162D01*
X52068Y-36153D01*
X52105Y-36153D01*
X52120Y-36162D01*
X52128Y-36171D01*
X52135Y-36190D01*
X52135Y-36208D01*
X52128Y-36236D01*
X52038Y-36348D01*
X52135Y-36348D01*
X52195Y-36171D02*
X52203Y-36162D01*
X52218Y-36153D01*
X52255Y-36153D01*
X52270Y-36162D01*
X52277Y-36171D01*
X52285Y-36190D01*
X52285Y-36208D01*
X52277Y-36236D01*
X52188Y-36348D01*
X52285Y-36348D01*
X52434Y-36348D02*
X52345Y-36348D01*
X52390Y-36348D02*
X52390Y-36153D01*
X52375Y-36181D01*
X52360Y-36199D01*
X52345Y-36208D01*
X57883Y-35384D02*
X57875Y-35393D01*
X57853Y-35403D01*
X57838Y-35403D01*
X57815Y-35393D01*
X57800Y-35375D01*
X57793Y-35356D01*
X57785Y-35319D01*
X57785Y-35291D01*
X57793Y-35254D01*
X57800Y-35236D01*
X57815Y-35217D01*
X57838Y-35208D01*
X57853Y-35208D01*
X57875Y-35217D01*
X57883Y-35226D01*
X58017Y-35273D02*
X58017Y-35403D01*
X57980Y-35198D02*
X57942Y-35338D01*
X58040Y-35338D01*
X58167Y-35273D02*
X58167Y-35403D01*
X58129Y-35198D02*
X58092Y-35338D01*
X58189Y-35338D01*
X56549Y-37502D02*
X56558Y-37510D01*
X56568Y-37532D01*
X56568Y-37547D01*
X56558Y-37570D01*
X56540Y-37585D01*
X56521Y-37592D01*
X56484Y-37600D01*
X56456Y-37600D01*
X56419Y-37592D01*
X56401Y-37585D01*
X56382Y-37570D01*
X56373Y-37547D01*
X56373Y-37532D01*
X56382Y-37510D01*
X56391Y-37502D01*
X56373Y-37450D02*
X56373Y-37353D01*
X56447Y-37405D01*
X56447Y-37383D01*
X56456Y-37368D01*
X56466Y-37360D01*
X56484Y-37353D01*
X56531Y-37353D01*
X56549Y-37360D01*
X56558Y-37368D01*
X56568Y-37383D01*
X56568Y-37428D01*
X56558Y-37443D01*
X56549Y-37450D01*
X56568Y-37203D02*
X56568Y-37293D01*
X56568Y-37248D02*
X56373Y-37248D01*
X56401Y-37263D01*
X56419Y-37278D01*
X56428Y-37293D01*
X56254Y-37517D02*
X56263Y-37525D01*
X56273Y-37547D01*
X56273Y-37562D01*
X56263Y-37585D01*
X56245Y-37600D01*
X56226Y-37607D01*
X56189Y-37615D01*
X56161Y-37615D01*
X56124Y-37607D01*
X56106Y-37600D01*
X56087Y-37585D01*
X56078Y-37562D01*
X56078Y-37547D01*
X56087Y-37525D01*
X56096Y-37517D01*
X56078Y-37383D02*
X56078Y-37413D01*
X56087Y-37428D01*
X56096Y-37435D01*
X56124Y-37450D01*
X56161Y-37458D01*
X56236Y-37458D01*
X56254Y-37450D01*
X56263Y-37443D01*
X56273Y-37428D01*
X56273Y-37398D01*
X56263Y-37383D01*
X56254Y-37375D01*
X56236Y-37368D01*
X56189Y-37368D01*
X56171Y-37375D01*
X56161Y-37383D01*
X56152Y-37398D01*
X56152Y-37428D01*
X56161Y-37443D01*
X56171Y-37450D01*
X56189Y-37458D01*
X56161Y-37278D02*
X56152Y-37293D01*
X56143Y-37301D01*
X56124Y-37308D01*
X56115Y-37308D01*
X56096Y-37301D01*
X56087Y-37293D01*
X56078Y-37278D01*
X56078Y-37248D01*
X56087Y-37233D01*
X56096Y-37226D01*
X56115Y-37218D01*
X56124Y-37218D01*
X56143Y-37226D01*
X56152Y-37233D01*
X56161Y-37248D01*
X56161Y-37278D01*
X56171Y-37293D01*
X56180Y-37301D01*
X56198Y-37308D01*
X56236Y-37308D01*
X56254Y-37301D01*
X56263Y-37293D01*
X56273Y-37278D01*
X56273Y-37248D01*
X56263Y-37233D01*
X56254Y-37226D01*
X56236Y-37218D01*
X56198Y-37218D01*
X56180Y-37226D01*
X56171Y-37233D01*
X56161Y-37248D01*
X55978Y-37502D02*
X55987Y-37510D01*
X55997Y-37532D01*
X55997Y-37547D01*
X55987Y-37570D01*
X55969Y-37585D01*
X55950Y-37592D01*
X55913Y-37600D01*
X55885Y-37600D01*
X55848Y-37592D01*
X55830Y-37585D01*
X55811Y-37570D01*
X55802Y-37547D01*
X55802Y-37532D01*
X55811Y-37510D01*
X55820Y-37502D01*
X55802Y-37368D02*
X55802Y-37398D01*
X55811Y-37413D01*
X55820Y-37420D01*
X55848Y-37435D01*
X55885Y-37443D01*
X55960Y-37443D01*
X55978Y-37435D01*
X55987Y-37428D01*
X55997Y-37413D01*
X55997Y-37383D01*
X55987Y-37368D01*
X55978Y-37360D01*
X55960Y-37353D01*
X55913Y-37353D01*
X55895Y-37360D01*
X55885Y-37368D01*
X55876Y-37383D01*
X55876Y-37413D01*
X55885Y-37428D01*
X55895Y-37435D01*
X55913Y-37443D01*
X55802Y-37256D02*
X55802Y-37241D01*
X55811Y-37226D01*
X55820Y-37218D01*
X55839Y-37211D01*
X55876Y-37203D01*
X55922Y-37203D01*
X55960Y-37211D01*
X55978Y-37218D01*
X55987Y-37226D01*
X55997Y-37241D01*
X55997Y-37256D01*
X55987Y-37271D01*
X55978Y-37278D01*
X55960Y-37286D01*
X55922Y-37293D01*
X55876Y-37293D01*
X55839Y-37286D01*
X55820Y-37278D01*
X55811Y-37271D01*
X55802Y-37256D01*
X57860Y-36628D02*
X57852Y-36637D01*
X57830Y-36647D01*
X57815Y-36647D01*
X57792Y-36637D01*
X57777Y-36619D01*
X57770Y-36600D01*
X57762Y-36563D01*
X57762Y-36535D01*
X57770Y-36498D01*
X57777Y-36480D01*
X57792Y-36461D01*
X57815Y-36452D01*
X57830Y-36452D01*
X57852Y-36461D01*
X57860Y-36470D01*
X57912Y-36452D02*
X58009Y-36452D01*
X57957Y-36526D01*
X57979Y-36526D01*
X57994Y-36535D01*
X58002Y-36545D01*
X58009Y-36563D01*
X58009Y-36610D01*
X58002Y-36628D01*
X57994Y-36637D01*
X57979Y-36647D01*
X57934Y-36647D01*
X57919Y-36637D01*
X57912Y-36628D01*
X58144Y-36452D02*
X58114Y-36452D01*
X58099Y-36461D01*
X58091Y-36470D01*
X58076Y-36498D01*
X58069Y-36535D01*
X58069Y-36610D01*
X58076Y-36628D01*
X58084Y-36637D01*
X58099Y-36647D01*
X58129Y-36647D01*
X58144Y-36637D01*
X58151Y-36628D01*
X58159Y-36610D01*
X58159Y-36563D01*
X58151Y-36545D01*
X58144Y-36535D01*
X58129Y-36526D01*
X58099Y-36526D01*
X58084Y-36535D01*
X58076Y-36545D01*
X58069Y-36563D01*
X57832Y-34266D02*
X57824Y-34275D01*
X57802Y-34285D01*
X57787Y-34285D01*
X57764Y-34275D01*
X57749Y-34257D01*
X57742Y-34238D01*
X57734Y-34201D01*
X57734Y-34173D01*
X57742Y-34136D01*
X57749Y-34118D01*
X57764Y-34099D01*
X57787Y-34090D01*
X57802Y-34090D01*
X57824Y-34099D01*
X57832Y-34108D01*
X57966Y-34090D02*
X57936Y-34090D01*
X57921Y-34099D01*
X57914Y-34108D01*
X57899Y-34136D01*
X57891Y-34173D01*
X57891Y-34248D01*
X57899Y-34266D01*
X57906Y-34275D01*
X57921Y-34285D01*
X57951Y-34285D01*
X57966Y-34275D01*
X57974Y-34266D01*
X57981Y-34248D01*
X57981Y-34201D01*
X57974Y-34183D01*
X57966Y-34173D01*
X57951Y-34164D01*
X57921Y-34164D01*
X57906Y-34173D01*
X57899Y-34183D01*
X57891Y-34201D01*
X58056Y-34285D02*
X58086Y-34285D01*
X58101Y-34275D01*
X58108Y-34266D01*
X58123Y-34238D01*
X58131Y-34201D01*
X58131Y-34127D01*
X58123Y-34108D01*
X58116Y-34099D01*
X58101Y-34090D01*
X58071Y-34090D01*
X58056Y-34099D01*
X58048Y-34108D01*
X58041Y-34127D01*
X58041Y-34173D01*
X58048Y-34192D01*
X58056Y-34201D01*
X58071Y-34210D01*
X58101Y-34210D01*
X58116Y-34201D01*
X58123Y-34192D01*
X58131Y-34173D01*
X55695Y-37509D02*
X55704Y-37517D01*
X55714Y-37539D01*
X55714Y-37554D01*
X55704Y-37577D01*
X55686Y-37592D01*
X55667Y-37599D01*
X55630Y-37607D01*
X55602Y-37607D01*
X55565Y-37599D01*
X55547Y-37592D01*
X55528Y-37577D01*
X55519Y-37554D01*
X55519Y-37539D01*
X55528Y-37517D01*
X55537Y-37509D01*
X55519Y-37367D02*
X55519Y-37442D01*
X55612Y-37450D01*
X55602Y-37442D01*
X55593Y-37427D01*
X55593Y-37390D01*
X55602Y-37375D01*
X55612Y-37367D01*
X55630Y-37360D01*
X55677Y-37360D01*
X55695Y-37367D01*
X55704Y-37375D01*
X55714Y-37390D01*
X55714Y-37427D01*
X55704Y-37442D01*
X55695Y-37450D01*
X55519Y-37225D02*
X55519Y-37255D01*
X55528Y-37270D01*
X55537Y-37278D01*
X55565Y-37293D01*
X55602Y-37300D01*
X55677Y-37300D01*
X55695Y-37293D01*
X55704Y-37285D01*
X55714Y-37270D01*
X55714Y-37240D01*
X55704Y-37225D01*
X55695Y-37218D01*
X55677Y-37210D01*
X55630Y-37210D01*
X55612Y-37218D01*
X55602Y-37225D01*
X55593Y-37240D01*
X55593Y-37270D01*
X55602Y-37285D01*
X55612Y-37293D01*
X55630Y-37300D01*
X60404Y-37147D02*
X60413Y-37155D01*
X60423Y-37177D01*
X60423Y-37192D01*
X60413Y-37215D01*
X60395Y-37230D01*
X60376Y-37237D01*
X60339Y-37245D01*
X60311Y-37245D01*
X60274Y-37237D01*
X60256Y-37230D01*
X60237Y-37215D01*
X60228Y-37192D01*
X60228Y-37177D01*
X60237Y-37155D01*
X60246Y-37147D01*
X60423Y-37073D02*
X60423Y-37043D01*
X60413Y-37028D01*
X60404Y-37020D01*
X60376Y-37005D01*
X60339Y-36998D01*
X60265Y-36998D01*
X60246Y-37005D01*
X60237Y-37013D01*
X60228Y-37028D01*
X60228Y-37058D01*
X60237Y-37073D01*
X60246Y-37080D01*
X60265Y-37088D01*
X60311Y-37088D01*
X60330Y-37080D01*
X60339Y-37073D01*
X60348Y-37058D01*
X60348Y-37028D01*
X60339Y-37013D01*
X60330Y-37005D01*
X60311Y-36998D01*
X60228Y-36856D02*
X60228Y-36931D01*
X60321Y-36938D01*
X60311Y-36931D01*
X60302Y-36916D01*
X60302Y-36878D01*
X60311Y-36863D01*
X60321Y-36856D01*
X60339Y-36848D01*
X60386Y-36848D01*
X60404Y-36856D01*
X60413Y-36863D01*
X60423Y-36878D01*
X60423Y-36916D01*
X60413Y-36931D01*
X60404Y-36938D01*
X63851Y-35132D02*
X63844Y-35142D01*
X63821Y-35151D01*
X63806Y-35151D01*
X63784Y-35142D01*
X63769Y-35123D01*
X63762Y-35104D01*
X63754Y-35067D01*
X63754Y-35039D01*
X63762Y-35002D01*
X63769Y-34984D01*
X63784Y-34965D01*
X63806Y-34956D01*
X63821Y-34956D01*
X63844Y-34965D01*
X63851Y-34974D01*
X63904Y-34956D02*
X64008Y-34956D01*
X63941Y-35151D01*
X64053Y-34956D02*
X64158Y-34956D01*
X64091Y-35151D01*
X48364Y-37053D02*
X48373Y-37061D01*
X48383Y-37083D01*
X48383Y-37098D01*
X48373Y-37121D01*
X48355Y-37136D01*
X48336Y-37143D01*
X48299Y-37151D01*
X48271Y-37151D01*
X48234Y-37143D01*
X48216Y-37136D01*
X48197Y-37121D01*
X48188Y-37098D01*
X48188Y-37083D01*
X48197Y-37061D01*
X48206Y-37053D01*
X48188Y-37001D02*
X48188Y-36896D01*
X48383Y-36964D01*
X48188Y-36762D02*
X48188Y-36837D01*
X48281Y-36844D01*
X48271Y-36837D01*
X48262Y-36822D01*
X48262Y-36784D01*
X48271Y-36769D01*
X48281Y-36762D01*
X48299Y-36754D01*
X48346Y-36754D01*
X48364Y-36762D01*
X48373Y-36769D01*
X48383Y-36784D01*
X48383Y-36822D01*
X48373Y-36837D01*
X48364Y-36844D01*
X48364Y-37730D02*
X48373Y-37738D01*
X48383Y-37760D01*
X48383Y-37775D01*
X48373Y-37798D01*
X48355Y-37813D01*
X48336Y-37820D01*
X48299Y-37828D01*
X48271Y-37828D01*
X48234Y-37820D01*
X48216Y-37813D01*
X48197Y-37798D01*
X48188Y-37775D01*
X48188Y-37760D01*
X48197Y-37738D01*
X48206Y-37730D01*
X48188Y-37678D02*
X48188Y-37573D01*
X48383Y-37641D01*
X48188Y-37446D02*
X48188Y-37476D01*
X48197Y-37491D01*
X48206Y-37499D01*
X48234Y-37514D01*
X48271Y-37521D01*
X48346Y-37521D01*
X48364Y-37514D01*
X48373Y-37506D01*
X48383Y-37491D01*
X48383Y-37461D01*
X48373Y-37446D01*
X48364Y-37439D01*
X48346Y-37431D01*
X48299Y-37431D01*
X48281Y-37439D01*
X48271Y-37446D01*
X48262Y-37461D01*
X48262Y-37491D01*
X48271Y-37506D01*
X48281Y-37514D01*
X48299Y-37521D01*
X60340Y-37935D02*
X60332Y-37944D01*
X60310Y-37954D01*
X60295Y-37954D01*
X60272Y-37944D01*
X60257Y-37926D01*
X60250Y-37907D01*
X60242Y-37870D01*
X60242Y-37842D01*
X60250Y-37805D01*
X60257Y-37787D01*
X60272Y-37768D01*
X60295Y-37759D01*
X60310Y-37759D01*
X60332Y-37768D01*
X60340Y-37777D01*
X60489Y-37954D02*
X60399Y-37954D01*
X60444Y-37954D02*
X60444Y-37759D01*
X60429Y-37787D01*
X60414Y-37805D01*
X60399Y-37814D01*
X60579Y-37842D02*
X60564Y-37833D01*
X60556Y-37824D01*
X60549Y-37805D01*
X60549Y-37796D01*
X60556Y-37777D01*
X60564Y-37768D01*
X60579Y-37759D01*
X60609Y-37759D01*
X60624Y-37768D01*
X60631Y-37777D01*
X60639Y-37796D01*
X60639Y-37805D01*
X60631Y-37824D01*
X60624Y-37833D01*
X60609Y-37842D01*
X60579Y-37842D01*
X60564Y-37852D01*
X60556Y-37861D01*
X60549Y-37879D01*
X60549Y-37917D01*
X60556Y-37935D01*
X60564Y-37944D01*
X60579Y-37954D01*
X60609Y-37954D01*
X60624Y-37944D01*
X60631Y-37935D01*
X60639Y-37917D01*
X60639Y-37879D01*
X60631Y-37861D01*
X60624Y-37852D01*
X60609Y-37842D01*
X59801Y-39152D02*
X59793Y-39161D01*
X59771Y-39171D01*
X59756Y-39171D01*
X59733Y-39161D01*
X59718Y-39143D01*
X59711Y-39124D01*
X59703Y-39087D01*
X59703Y-39059D01*
X59711Y-39022D01*
X59718Y-39004D01*
X59733Y-38985D01*
X59756Y-38976D01*
X59771Y-38976D01*
X59793Y-38985D01*
X59801Y-38994D01*
X59950Y-39171D02*
X59860Y-39171D01*
X59905Y-39171D02*
X59905Y-38976D01*
X59890Y-39004D01*
X59875Y-39022D01*
X59860Y-39031D01*
X60002Y-38976D02*
X60107Y-38976D01*
X60040Y-39171D01*
X59805Y-39475D02*
X59797Y-39484D01*
X59775Y-39494D01*
X59760Y-39494D01*
X59737Y-39484D01*
X59722Y-39466D01*
X59715Y-39447D01*
X59707Y-39410D01*
X59707Y-39382D01*
X59715Y-39345D01*
X59722Y-39327D01*
X59737Y-39308D01*
X59760Y-39299D01*
X59775Y-39299D01*
X59797Y-39308D01*
X59805Y-39317D01*
X59954Y-39494D02*
X59864Y-39494D01*
X59909Y-39494D02*
X59909Y-39299D01*
X59894Y-39327D01*
X59879Y-39345D01*
X59864Y-39354D01*
X60089Y-39299D02*
X60059Y-39299D01*
X60044Y-39308D01*
X60036Y-39317D01*
X60021Y-39345D01*
X60014Y-39382D01*
X60014Y-39457D01*
X60021Y-39475D01*
X60029Y-39484D01*
X60044Y-39494D01*
X60074Y-39494D01*
X60089Y-39484D01*
X60096Y-39475D01*
X60104Y-39457D01*
X60104Y-39410D01*
X60096Y-39392D01*
X60089Y-39382D01*
X60074Y-39373D01*
X60044Y-39373D01*
X60029Y-39382D01*
X60021Y-39392D01*
X60014Y-39410D01*
X60009Y-40900D02*
X60001Y-40909D01*
X59979Y-40919D01*
X59964Y-40919D01*
X59941Y-40909D01*
X59926Y-40891D01*
X59919Y-40872D01*
X59911Y-40835D01*
X59911Y-40807D01*
X59919Y-40770D01*
X59926Y-40752D01*
X59941Y-40733D01*
X59964Y-40724D01*
X59979Y-40724D01*
X60001Y-40733D01*
X60009Y-40742D01*
X60158Y-40919D02*
X60068Y-40919D01*
X60113Y-40919D02*
X60113Y-40724D01*
X60098Y-40752D01*
X60083Y-40770D01*
X60068Y-40779D01*
X60210Y-40724D02*
X60308Y-40724D01*
X60255Y-40798D01*
X60278Y-40798D01*
X60293Y-40807D01*
X60300Y-40817D01*
X60308Y-40835D01*
X60308Y-40882D01*
X60300Y-40900D01*
X60293Y-40909D01*
X60278Y-40919D01*
X60233Y-40919D01*
X60218Y-40909D01*
X60210Y-40900D01*
X60001Y-42238D02*
X59993Y-42247D01*
X59971Y-42257D01*
X59956Y-42257D01*
X59933Y-42247D01*
X59918Y-42229D01*
X59911Y-42210D01*
X59903Y-42173D01*
X59903Y-42145D01*
X59911Y-42108D01*
X59918Y-42090D01*
X59933Y-42071D01*
X59956Y-42062D01*
X59971Y-42062D01*
X59993Y-42071D01*
X60001Y-42080D01*
X60150Y-42257D02*
X60060Y-42257D01*
X60105Y-42257D02*
X60105Y-42062D01*
X60090Y-42090D01*
X60075Y-42108D01*
X60060Y-42117D01*
X60292Y-42062D02*
X60217Y-42062D01*
X60210Y-42155D01*
X60217Y-42145D01*
X60232Y-42136D01*
X60270Y-42136D01*
X60285Y-42145D01*
X60292Y-42155D01*
X60300Y-42173D01*
X60300Y-42220D01*
X60292Y-42238D01*
X60285Y-42247D01*
X60270Y-42257D01*
X60232Y-42257D01*
X60217Y-42247D01*
X60210Y-42238D01*
X54619Y-39329D02*
X54612Y-39338D01*
X54589Y-39348D01*
X54574Y-39348D01*
X54552Y-39338D01*
X54537Y-39320D01*
X54530Y-39301D01*
X54522Y-39264D01*
X54522Y-39236D01*
X54530Y-39199D01*
X54537Y-39181D01*
X54552Y-39162D01*
X54574Y-39153D01*
X54589Y-39153D01*
X54612Y-39162D01*
X54619Y-39171D01*
X54761Y-39153D02*
X54687Y-39153D01*
X54679Y-39246D01*
X54687Y-39236D01*
X54702Y-39227D01*
X54739Y-39227D01*
X54754Y-39236D01*
X54761Y-39246D01*
X54769Y-39264D01*
X54769Y-39311D01*
X54761Y-39329D01*
X54754Y-39338D01*
X54739Y-39348D01*
X54702Y-39348D01*
X54687Y-39338D01*
X54679Y-39329D01*
X60021Y-41242D02*
X60013Y-41251D01*
X59991Y-41261D01*
X59976Y-41261D01*
X59953Y-41251D01*
X59938Y-41233D01*
X59931Y-41214D01*
X59923Y-41177D01*
X59923Y-41149D01*
X59931Y-41112D01*
X59938Y-41094D01*
X59953Y-41075D01*
X59976Y-41066D01*
X59991Y-41066D01*
X60013Y-41075D01*
X60021Y-41084D01*
X60170Y-41261D02*
X60080Y-41261D01*
X60125Y-41261D02*
X60125Y-41066D01*
X60110Y-41094D01*
X60095Y-41112D01*
X60080Y-41121D01*
X60305Y-41131D02*
X60305Y-41261D01*
X60267Y-41056D02*
X60230Y-41196D01*
X60327Y-41196D01*
G54D17*
G54D18*
X50906Y-49433D02*
X50592Y-49433D01*
X50592Y-49377D01*
X50607Y-49343D01*
X50636Y-49320D01*
X50666Y-49309D01*
X50726Y-49298D01*
X50771Y-49298D01*
X50831Y-49309D01*
X50861Y-49320D01*
X50891Y-49343D01*
X50906Y-49377D01*
X50906Y-49433D01*
X50816Y-49208D02*
X50816Y-49096D01*
X50906Y-49231D02*
X50592Y-49152D01*
X50906Y-49073D01*
X50906Y-48871D02*
X50906Y-49006D01*
X50906Y-48938D02*
X50592Y-48938D01*
X50636Y-48961D01*
X50666Y-48983D01*
X50681Y-49006D01*
G54D17*
G54D15*
X59190Y-46879D02*
X59137Y-46786D01*
X59100Y-46879D02*
X59100Y-46684D01*
X59160Y-46684D01*
X59175Y-46693D01*
X59182Y-46702D01*
X59190Y-46721D01*
X59190Y-46749D01*
X59182Y-46767D01*
X59175Y-46777D01*
X59160Y-46786D01*
X59100Y-46786D01*
X59324Y-46749D02*
X59324Y-46879D01*
X59287Y-46674D02*
X59249Y-46814D01*
X59347Y-46814D01*
X59391Y-46684D02*
X59489Y-46684D01*
X59436Y-46758D01*
X59459Y-46758D01*
X59474Y-46767D01*
X59481Y-46777D01*
X59489Y-46795D01*
X59489Y-46842D01*
X59481Y-46860D01*
X59474Y-46869D01*
X59459Y-46879D01*
X59414Y-46879D01*
X59399Y-46869D01*
X59391Y-46860D01*
X59686Y-46805D02*
X59611Y-46805D01*
X59611Y-46609D01*
X59738Y-46805D02*
X59738Y-46609D01*
X59776Y-46609D01*
X59798Y-46619D01*
X59813Y-46637D01*
X59820Y-46656D01*
X59828Y-46693D01*
X59828Y-46721D01*
X59820Y-46759D01*
X59813Y-46777D01*
X59798Y-46796D01*
X59776Y-46805D01*
X59738Y-46805D01*
X59977Y-46805D02*
X59888Y-46805D01*
X59933Y-46805D02*
X59933Y-46609D01*
X59918Y-46637D01*
X59903Y-46656D01*
X59888Y-46665D01*
X59915Y-47567D02*
X59802Y-47567D01*
X59802Y-47253D01*
X59993Y-47402D02*
X60072Y-47402D01*
X60106Y-47567D02*
X59993Y-47567D01*
X59993Y-47253D01*
X60106Y-47253D01*
X60207Y-47567D02*
X60207Y-47253D01*
X60263Y-47253D01*
X60297Y-47268D01*
X60319Y-47297D01*
X60331Y-47327D01*
X60342Y-47387D01*
X60342Y-47432D01*
X60331Y-47492D01*
X60319Y-47522D01*
X60297Y-47552D01*
X60263Y-47567D01*
X60207Y-47567D01*
G54D17*
G54D19*
X63761Y-46256D02*
X63971Y-46648D01*
X63971Y-46256D02*
X63761Y-46648D01*
X64060Y-46256D02*
X64270Y-46256D01*
X64135Y-46648D01*
X64091Y-33403D02*
X64301Y-33795D01*
X64301Y-33403D02*
X64091Y-33795D01*
X64555Y-33403D02*
X64495Y-33403D01*
X64465Y-33422D01*
X64450Y-33440D01*
X64420Y-33496D01*
X64405Y-33571D01*
X64405Y-33720D01*
X64420Y-33758D01*
X64435Y-33776D01*
X64465Y-33795D01*
X64525Y-33795D01*
X64555Y-33776D01*
X64570Y-33758D01*
X64585Y-33720D01*
X64585Y-33627D01*
X64570Y-33590D01*
X64555Y-33571D01*
X64525Y-33552D01*
X64465Y-33552D01*
X64435Y-33571D01*
X64420Y-33590D01*
X64405Y-33627D01*
G54D20*
X51556Y-32742D02*
X51766Y-33134D01*
X51766Y-32742D02*
X51556Y-33134D01*
X51930Y-32910D02*
X51900Y-32891D01*
X51885Y-32873D01*
X51870Y-32835D01*
X51870Y-32817D01*
X51885Y-32779D01*
X51900Y-32761D01*
X51930Y-32742D01*
X51990Y-32742D01*
X52020Y-32761D01*
X52035Y-32779D01*
X52050Y-32817D01*
X52050Y-32835D01*
X52035Y-32873D01*
X52020Y-32891D01*
X51990Y-32910D01*
X51930Y-32910D01*
X51900Y-32929D01*
X51885Y-32947D01*
X51870Y-32985D01*
X51870Y-33059D01*
X51885Y-33097D01*
X51900Y-33115D01*
X51930Y-33134D01*
X51990Y-33134D01*
X52020Y-33115D01*
X52035Y-33097D01*
X52050Y-33059D01*
X52050Y-32985D01*
X52035Y-32947D01*
X52020Y-32929D01*
X51990Y-32910D01*
G54D13*
G54D12*
X55595Y-32505D02*
X55805Y-32897D01*
X55805Y-32505D02*
X55595Y-32897D01*
X55939Y-32897D02*
X55999Y-32897D01*
X56029Y-32878D01*
X56044Y-32860D01*
X56074Y-32804D01*
X56089Y-32729D01*
X56089Y-32580D01*
X56074Y-32542D01*
X56059Y-32524D01*
X56029Y-32505D01*
X55969Y-32505D01*
X55939Y-32524D01*
X55924Y-32542D01*
X55909Y-32580D01*
X55909Y-32673D01*
X55924Y-32710D01*
X55939Y-32729D01*
X55969Y-32748D01*
X56029Y-32748D01*
X56059Y-32729D01*
X56074Y-32710D01*
X56089Y-32673D01*
X53376Y-32865D02*
X53197Y-32865D01*
X53287Y-32865D02*
X53287Y-32472D01*
X53257Y-32528D01*
X53227Y-32566D01*
X53197Y-32585D01*
X58253Y-49147D02*
X58463Y-49539D01*
X58463Y-49147D02*
X58253Y-49539D01*
X58567Y-49184D02*
X58582Y-49166D01*
X58612Y-49147D01*
X58687Y-49147D01*
X58717Y-49166D01*
X58732Y-49184D01*
X58747Y-49222D01*
X58747Y-49259D01*
X58732Y-49315D01*
X58552Y-49539D01*
X58747Y-49539D01*
G54D18*
X55330Y-48418D02*
X55510Y-48418D01*
X55420Y-48538D02*
X55420Y-48298D01*
X55589Y-48224D02*
X55668Y-48538D01*
X55746Y-48224D01*
X55960Y-48508D02*
X55949Y-48523D01*
X55915Y-48538D01*
X55892Y-48538D01*
X55859Y-48523D01*
X55836Y-48493D01*
X55825Y-48463D01*
X55814Y-48403D01*
X55814Y-48358D01*
X55825Y-48298D01*
X55836Y-48268D01*
X55859Y-48239D01*
X55892Y-48224D01*
X55915Y-48224D01*
X55949Y-48239D01*
X55960Y-48253D01*
X56196Y-48508D02*
X56185Y-48523D01*
X56151Y-48538D01*
X56128Y-48538D01*
X56095Y-48523D01*
X56072Y-48493D01*
X56061Y-48463D01*
X56050Y-48403D01*
X56050Y-48358D01*
X56061Y-48298D01*
X56072Y-48268D01*
X56095Y-48239D01*
X56128Y-48224D01*
X56151Y-48224D01*
X56185Y-48239D01*
X56196Y-48253D01*
G54D11*
X56249Y-44518D02*
X56429Y-44518D01*
X56339Y-44910D02*
X56339Y-44518D01*
X56698Y-44910D02*
X56518Y-44910D01*
X56608Y-44910D02*
X56608Y-44518D01*
X56578Y-44574D01*
X56548Y-44611D01*
X56518Y-44630D01*
G54D12*
X57087Y-43386D02*
X57087Y-43480D01*
X57012Y-43442D02*
X57087Y-43480D01*
X57161Y-43442D01*
X57042Y-43555D02*
X57087Y-43480D01*
X57131Y-43555D01*
G54D18*
X60732Y-34579D02*
X60732Y-34265D01*
X60788Y-34265D01*
X60822Y-34280D01*
X60845Y-34309D01*
X60856Y-34339D01*
X60867Y-34399D01*
X60867Y-34444D01*
X60856Y-34504D01*
X60845Y-34534D01*
X60822Y-34564D01*
X60788Y-34579D01*
X60732Y-34579D01*
X60957Y-34489D02*
X61069Y-34489D01*
X60934Y-34579D02*
X61013Y-34265D01*
X61092Y-34579D01*
X61283Y-34265D02*
X61170Y-34265D01*
X61159Y-34414D01*
X61170Y-34399D01*
X61193Y-34384D01*
X61249Y-34384D01*
X61272Y-34399D01*
X61283Y-34414D01*
X61294Y-34444D01*
X61294Y-34519D01*
X61283Y-34549D01*
X61272Y-34564D01*
X61249Y-34579D01*
X61193Y-34579D01*
X61170Y-34564D01*
X61159Y-34549D01*
G54D12*
X60256Y-34843D02*
X60256Y-34937D01*
X60181Y-34899D02*
X60256Y-34937D01*
X60330Y-34899D01*
X60211Y-35012D02*
X60256Y-34937D01*
X60300Y-35012D01*
G54D11*
X54634Y-35033D02*
X54814Y-35033D01*
X54724Y-35425D02*
X54724Y-35033D01*
X54903Y-35070D02*
X54918Y-35052D01*
X54948Y-35033D01*
X55023Y-35033D01*
X55053Y-35052D01*
X55068Y-35070D01*
X55083Y-35108D01*
X55083Y-35145D01*
X55068Y-35201D01*
X54888Y-35425D01*
X55083Y-35425D01*
G54D12*
X56821Y-36300D02*
X56821Y-36394D01*
X56746Y-36356D02*
X56821Y-36394D01*
X56895Y-36356D01*
X56776Y-36469D02*
X56821Y-36394D01*
X56865Y-36469D01*
X61320Y-32486D02*
X61530Y-32878D01*
X61530Y-32486D02*
X61320Y-32878D01*
X61799Y-32486D02*
X61649Y-32486D01*
X61634Y-32673D01*
X61649Y-32654D01*
X61679Y-32635D01*
X61754Y-32635D01*
X61784Y-32654D01*
X61799Y-32673D01*
X61814Y-32710D01*
X61814Y-32803D01*
X61799Y-32841D01*
X61784Y-32859D01*
X61754Y-32878D01*
X61679Y-32878D01*
X61649Y-32859D01*
X61634Y-32841D01*
X59387Y-32846D02*
X59208Y-32846D01*
X59298Y-32846D02*
X59298Y-32453D01*
X59268Y-32509D01*
X59238Y-32547D01*
X59208Y-32566D01*
X60863Y-47356D02*
X61073Y-47748D01*
X61073Y-47356D02*
X60863Y-47748D01*
X61327Y-47487D02*
X61327Y-47748D01*
X61252Y-47337D02*
X61177Y-47617D01*
X61372Y-47617D01*
X59116Y-49362D02*
X58937Y-49362D01*
X59027Y-49362D02*
X59027Y-48969D01*
X58997Y-49025D01*
X58967Y-49063D01*
X58937Y-49082D01*
G54D10*
X61677Y-44134D02*
X61677Y-43819D01*
X61733Y-43819D01*
X61767Y-43834D01*
X61789Y-43864D01*
X61800Y-43894D01*
X61812Y-43954D01*
X61812Y-43999D01*
X61800Y-44059D01*
X61789Y-44089D01*
X61767Y-44119D01*
X61733Y-44134D01*
X61677Y-44134D01*
X61902Y-44044D02*
X62014Y-44044D01*
X61879Y-44134D02*
X61958Y-43819D01*
X62037Y-44134D01*
X62217Y-43819D02*
X62172Y-43819D01*
X62149Y-43834D01*
X62138Y-43849D01*
X62115Y-43894D01*
X62104Y-43954D01*
X62104Y-44074D01*
X62115Y-44104D01*
X62127Y-44119D01*
X62149Y-44134D01*
X62194Y-44134D01*
X62217Y-44119D01*
X62228Y-44104D01*
X62239Y-44074D01*
X62239Y-43999D01*
X62228Y-43969D01*
X62217Y-43954D01*
X62194Y-43939D01*
X62149Y-43939D01*
X62127Y-43954D01*
X62115Y-43969D01*
X62104Y-43999D01*
G54D16*
X61898Y-45586D02*
X61992Y-45586D01*
X61954Y-45661D02*
X61992Y-45586D01*
X61954Y-45511D01*
X62067Y-45631D02*
X61992Y-45586D01*
X62067Y-45541D01*
G54D15*
X63950Y-44620D02*
X63942Y-44630D01*
X63920Y-44639D01*
X63905Y-44639D01*
X63882Y-44630D01*
X63868Y-44611D01*
X63860Y-44592D01*
X63853Y-44555D01*
X63853Y-44527D01*
X63860Y-44490D01*
X63868Y-44472D01*
X63882Y-44453D01*
X63905Y-44444D01*
X63920Y-44444D01*
X63942Y-44453D01*
X63950Y-44462D01*
X64010Y-44462D02*
X64017Y-44453D01*
X64032Y-44444D01*
X64069Y-44444D01*
X64084Y-44453D01*
X64092Y-44462D01*
X64099Y-44481D01*
X64099Y-44500D01*
X64092Y-44527D01*
X64002Y-44639D01*
X64099Y-44639D01*
X64234Y-44444D02*
X64204Y-44444D01*
X64189Y-44453D01*
X64182Y-44462D01*
X64167Y-44490D01*
X64159Y-44527D01*
X64159Y-44602D01*
X64167Y-44620D01*
X64174Y-44630D01*
X64189Y-44639D01*
X64219Y-44639D01*
X64234Y-44630D01*
X64241Y-44620D01*
X64249Y-44602D01*
X64249Y-44555D01*
X64241Y-44537D01*
X64234Y-44527D01*
X64219Y-44518D01*
X64189Y-44518D01*
X64174Y-44527D01*
X64167Y-44537D01*
X64159Y-44555D01*
G54D18*
X55669Y-38150D02*
X55669Y-37836D01*
X55725Y-37836D01*
X55759Y-37851D01*
X55782Y-37880D01*
X55793Y-37910D01*
X55804Y-37970D01*
X55804Y-38015D01*
X55793Y-38075D01*
X55782Y-38105D01*
X55759Y-38135D01*
X55725Y-38150D01*
X55669Y-38150D01*
X55894Y-38060D02*
X56006Y-38060D01*
X55871Y-38150D02*
X55950Y-37836D01*
X56029Y-38150D01*
X56085Y-37836D02*
X56231Y-37836D01*
X56152Y-37955D01*
X56186Y-37955D01*
X56209Y-37970D01*
X56220Y-37985D01*
X56231Y-38015D01*
X56231Y-38090D01*
X56220Y-38120D01*
X56209Y-38135D01*
X56186Y-38150D01*
X56119Y-38150D01*
X56096Y-38135D01*
X56085Y-38120D01*
X50491Y-33308D02*
X50569Y-33308D01*
X50603Y-33473D02*
X50491Y-33473D01*
X50491Y-33159D01*
X50603Y-33159D01*
X50704Y-33473D02*
X50704Y-33159D01*
X50839Y-33473D02*
X50738Y-33293D01*
X50839Y-33159D02*
X50704Y-33338D01*
X51064Y-33473D02*
X50929Y-33473D01*
X50996Y-33473D02*
X50996Y-33159D01*
X50974Y-33203D01*
X50951Y-33233D01*
X50929Y-33248D01*
M02*
