G04 (created by PCBNEW (2013-05-31 BZR 4019)-stable) date 03/03/2014 21:16:58*
%MOIN*%
G04 Gerber Fmt 3.4, Leading zero omitted, Abs format*
%FSLAX34Y34*%
G01*
G70*
G90*
G04 APERTURE LIST*
%ADD10C,0.00590551*%
%ADD11C,0.012*%
%ADD12C,0.0077*%
%ADD13C,0.0039*%
G04 APERTURE END LIST*
G54D10*
G54D11*
X39209Y-42318D02*
X39742Y-42318D01*
X38904Y-42460D02*
X39476Y-42603D01*
X39476Y-42232D01*
X39285Y-41918D02*
X39247Y-41975D01*
X39209Y-42003D01*
X39133Y-42032D01*
X39095Y-42032D01*
X39019Y-42003D01*
X38980Y-41975D01*
X38942Y-41918D01*
X38942Y-41803D01*
X38980Y-41746D01*
X39019Y-41718D01*
X39095Y-41689D01*
X39133Y-41689D01*
X39209Y-41718D01*
X39247Y-41746D01*
X39285Y-41803D01*
X39285Y-41918D01*
X39323Y-41975D01*
X39361Y-42003D01*
X39438Y-42032D01*
X39590Y-42032D01*
X39666Y-42003D01*
X39704Y-41975D01*
X39742Y-41918D01*
X39742Y-41803D01*
X39704Y-41746D01*
X39666Y-41718D01*
X39590Y-41689D01*
X39438Y-41689D01*
X39361Y-41718D01*
X39323Y-41746D01*
X39285Y-41803D01*
X39666Y-41432D02*
X39704Y-41403D01*
X39742Y-41432D01*
X39704Y-41460D01*
X39666Y-41432D01*
X39742Y-41432D01*
X38942Y-41032D02*
X38942Y-40975D01*
X38980Y-40918D01*
X39019Y-40889D01*
X39095Y-40860D01*
X39247Y-40832D01*
X39438Y-40832D01*
X39590Y-40860D01*
X39666Y-40889D01*
X39704Y-40918D01*
X39742Y-40975D01*
X39742Y-41032D01*
X39704Y-41089D01*
X39666Y-41118D01*
X39590Y-41146D01*
X39438Y-41175D01*
X39247Y-41175D01*
X39095Y-41146D01*
X39019Y-41118D01*
X38980Y-41089D01*
X38942Y-41032D01*
X38942Y-40460D02*
X38942Y-40403D01*
X38980Y-40346D01*
X39019Y-40318D01*
X39095Y-40289D01*
X39247Y-40260D01*
X39438Y-40260D01*
X39590Y-40289D01*
X39666Y-40318D01*
X39704Y-40346D01*
X39742Y-40403D01*
X39742Y-40460D01*
X39704Y-40518D01*
X39666Y-40546D01*
X39590Y-40575D01*
X39438Y-40603D01*
X39247Y-40603D01*
X39095Y-40575D01*
X39019Y-40546D01*
X38980Y-40518D01*
X38942Y-40460D01*
X38942Y-39889D02*
X38942Y-39832D01*
X38980Y-39775D01*
X39019Y-39746D01*
X39095Y-39718D01*
X39247Y-39689D01*
X39438Y-39689D01*
X39590Y-39718D01*
X39666Y-39746D01*
X39704Y-39775D01*
X39742Y-39832D01*
X39742Y-39889D01*
X39704Y-39946D01*
X39666Y-39975D01*
X39590Y-40003D01*
X39438Y-40032D01*
X39247Y-40032D01*
X39095Y-40003D01*
X39019Y-39975D01*
X38980Y-39946D01*
X38942Y-39889D01*
X39742Y-38975D02*
X39209Y-38975D01*
X39285Y-38975D02*
X39247Y-38946D01*
X39209Y-38889D01*
X39209Y-38803D01*
X39247Y-38746D01*
X39323Y-38718D01*
X39742Y-38718D01*
X39323Y-38718D02*
X39247Y-38689D01*
X39209Y-38632D01*
X39209Y-38546D01*
X39247Y-38489D01*
X39323Y-38460D01*
X39742Y-38460D01*
X39742Y-38175D02*
X39209Y-38175D01*
X39285Y-38175D02*
X39247Y-38146D01*
X39209Y-38089D01*
X39209Y-38003D01*
X39247Y-37946D01*
X39323Y-37918D01*
X39742Y-37918D01*
X39323Y-37918D02*
X39247Y-37889D01*
X39209Y-37832D01*
X39209Y-37746D01*
X39247Y-37689D01*
X39323Y-37660D01*
X39742Y-37660D01*
X40059Y-49566D02*
X40059Y-30669D01*
X47893Y-49566D02*
X38779Y-49566D01*
X47893Y-30669D02*
X38779Y-30669D01*
X40059Y-30669D02*
X40289Y-31112D01*
X40059Y-30669D02*
X39828Y-31112D01*
X40059Y-49566D02*
X40289Y-49123D01*
X40059Y-49566D02*
X39828Y-49123D01*
X54788Y-53954D02*
X54788Y-54487D01*
X54645Y-53649D02*
X54502Y-54220D01*
X54873Y-54220D01*
X55359Y-53687D02*
X55245Y-53687D01*
X55188Y-53725D01*
X55159Y-53763D01*
X55102Y-53877D01*
X55073Y-54030D01*
X55073Y-54335D01*
X55102Y-54411D01*
X55131Y-54449D01*
X55188Y-54487D01*
X55302Y-54487D01*
X55359Y-54449D01*
X55388Y-54411D01*
X55416Y-54335D01*
X55416Y-54144D01*
X55388Y-54068D01*
X55359Y-54030D01*
X55302Y-53992D01*
X55188Y-53992D01*
X55131Y-54030D01*
X55102Y-54068D01*
X55073Y-54144D01*
X55673Y-54411D02*
X55702Y-54449D01*
X55673Y-54487D01*
X55645Y-54449D01*
X55673Y-54411D01*
X55673Y-54487D01*
X56073Y-53687D02*
X56131Y-53687D01*
X56188Y-53725D01*
X56216Y-53763D01*
X56245Y-53839D01*
X56273Y-53992D01*
X56273Y-54182D01*
X56245Y-54335D01*
X56216Y-54411D01*
X56188Y-54449D01*
X56131Y-54487D01*
X56073Y-54487D01*
X56016Y-54449D01*
X55988Y-54411D01*
X55959Y-54335D01*
X55931Y-54182D01*
X55931Y-53992D01*
X55959Y-53839D01*
X55988Y-53763D01*
X56016Y-53725D01*
X56073Y-53687D01*
X56645Y-53687D02*
X56702Y-53687D01*
X56759Y-53725D01*
X56788Y-53763D01*
X56816Y-53839D01*
X56845Y-53992D01*
X56845Y-54182D01*
X56816Y-54335D01*
X56788Y-54411D01*
X56759Y-54449D01*
X56702Y-54487D01*
X56645Y-54487D01*
X56588Y-54449D01*
X56559Y-54411D01*
X56531Y-54335D01*
X56502Y-54182D01*
X56502Y-53992D01*
X56531Y-53839D01*
X56559Y-53763D01*
X56588Y-53725D01*
X56645Y-53687D01*
X57216Y-53687D02*
X57273Y-53687D01*
X57331Y-53725D01*
X57359Y-53763D01*
X57388Y-53839D01*
X57416Y-53992D01*
X57416Y-54182D01*
X57388Y-54335D01*
X57359Y-54411D01*
X57331Y-54449D01*
X57273Y-54487D01*
X57216Y-54487D01*
X57159Y-54449D01*
X57131Y-54411D01*
X57102Y-54335D01*
X57073Y-54182D01*
X57073Y-53992D01*
X57102Y-53839D01*
X57131Y-53763D01*
X57159Y-53725D01*
X57216Y-53687D01*
X58131Y-54487D02*
X58131Y-53954D01*
X58131Y-54030D02*
X58159Y-53992D01*
X58216Y-53954D01*
X58302Y-53954D01*
X58359Y-53992D01*
X58388Y-54068D01*
X58388Y-54487D01*
X58388Y-54068D02*
X58416Y-53992D01*
X58473Y-53954D01*
X58559Y-53954D01*
X58616Y-53992D01*
X58645Y-54068D01*
X58645Y-54487D01*
X58931Y-54487D02*
X58931Y-53954D01*
X58931Y-54030D02*
X58959Y-53992D01*
X59016Y-53954D01*
X59102Y-53954D01*
X59159Y-53992D01*
X59188Y-54068D01*
X59188Y-54487D01*
X59188Y-54068D02*
X59216Y-53992D01*
X59273Y-53954D01*
X59359Y-53954D01*
X59416Y-53992D01*
X59445Y-54068D01*
X59445Y-54487D01*
X66043Y-53523D02*
X47933Y-53523D01*
X66043Y-49586D02*
X66043Y-54803D01*
X47933Y-49586D02*
X47933Y-54803D01*
X47933Y-53523D02*
X48376Y-53292D01*
X47933Y-53523D02*
X48376Y-53754D01*
X66043Y-53523D02*
X65599Y-53292D01*
X66043Y-53523D02*
X65599Y-53754D01*
G54D12*
X42606Y-52483D02*
X42606Y-27680D01*
X68983Y-52483D02*
X42606Y-52483D01*
X68983Y-27680D02*
X68983Y-52483D01*
X42606Y-27680D02*
X68983Y-27680D01*
X66228Y-30437D02*
X66228Y-39492D01*
X57764Y-30437D02*
X66228Y-30437D01*
X57764Y-29650D02*
X57764Y-30437D01*
X67016Y-29650D02*
X57764Y-29650D01*
X67016Y-39492D02*
X67016Y-29650D01*
X66228Y-39492D02*
X67016Y-39492D01*
X57764Y-50515D02*
X57764Y-49728D01*
X67016Y-50515D02*
X57764Y-50515D01*
X67016Y-40948D02*
X67016Y-50515D01*
X66228Y-40948D02*
X67016Y-40948D01*
X66228Y-49728D02*
X66228Y-40948D01*
X57764Y-49728D02*
X66228Y-49728D01*
X46936Y-50515D02*
X46936Y-44413D01*
X56386Y-50515D02*
X46936Y-50515D01*
X56386Y-49728D02*
X56386Y-50515D01*
X47724Y-49728D02*
X56386Y-49728D01*
X47724Y-44413D02*
X47724Y-49728D01*
X46936Y-44413D02*
X47724Y-44413D01*
X46936Y-43390D02*
X46936Y-35555D01*
X47724Y-43390D02*
X46936Y-43390D01*
X47724Y-35555D02*
X47724Y-43390D01*
X46936Y-35555D02*
X47724Y-35555D01*
X47724Y-30437D02*
X47724Y-34570D01*
X46936Y-34570D02*
X47724Y-34570D01*
X46936Y-29648D02*
X46936Y-34570D01*
X46936Y-29648D02*
X56384Y-29648D01*
X56384Y-29648D02*
X56384Y-30437D01*
X47724Y-30437D02*
X56384Y-30437D01*
G54D13*
X47901Y-30613D02*
X47901Y-49590D01*
X47901Y-49590D02*
X66089Y-49590D01*
X66089Y-30613D02*
X66089Y-49590D01*
X47901Y-30613D02*
X66089Y-30613D01*
G54D10*
X59394Y-40199D02*
X59394Y-40256D01*
X59511Y-40256D01*
X59511Y-40199D01*
X59394Y-40199D01*
M02*
