M48
METRIC,LZ
T1C0.399
T2C0.800
T3C0.996
T4C1.016
T5C1.097
T6C1.199
T7C3.200
%
G90
G05
T1
X0967Y-063701
X0967Y-0662
X0967Y-068699
X0967Y-071999
X0967Y-074501
X0967Y-077
X0967Y-079601
X0967Y-0821
X0967Y-0846
X0967Y-087201
X0967Y-0897
X0967Y-092301
X0967Y-0948
X0967Y-097399
X0967Y-099901
X0967Y-1024
X0967Y-105001
X0967Y-1075
X0967Y-110099
X0967Y-112601
X0967Y-1151
X0967Y-117701
X0967Y-121001
X0967Y-124
X0967Y-127
X098951Y-0821
X098951Y-1075
X099101Y-068699
X099101Y-121001
X101501Y-068699
X101501Y-121001
X101501Y-124
X101501Y-125999
X101801Y-057
X102499Y-081001
X102499Y-083
X1029Y-1151
X103299Y-068001
X1035Y-105499
X1035Y-1075
X1035Y-124
X1035Y-125999
X103749Y-1302
X103749Y-13525
X104501Y-121001
X10475Y-057
X105199Y-092301
X105451Y-065801
X105499Y-0992
X105499Y-101001
X105499Y-105499
X105499Y-1075
X10605Y-083101
X1062Y-112301
X1065Y-079499
X106751Y-1302
X106751Y-13525
X107099Y-1127
X107399Y-092301
X1075Y-121001
X107551Y-063701
X107701Y-108199
X107749Y-057
X108699Y-070899
X108699Y-074699
X108699Y-07605
X108999Y-113101
X108999Y-1146
X108999Y-115999
X109499Y-069101
X109499Y-0711
X109499Y-0738
X109499Y-079499
X109499Y-0835
X109499Y-092301
X10955Y-061699
X109751Y-1302
X109751Y-13525
X11Y-1059
X11Y-118001
X11Y-121001
X110099Y-1192
X110399Y-0657
X110749Y-057
X111001Y-067
X111001Y-124
X111001Y-125001
X111201Y-115301
X1113Y-1059
X111699Y-1167
X111999Y-124
X111999Y-125001
X1121Y-09955
X1121Y-100851
X1121Y-113701
X112151Y-059499
X112199Y-092301
X112199Y-1081
X112301Y-085601
X112349Y-081001
X112349Y-082199
X112349Y-083401
X112349Y-0846
X1124Y-063698
X112499Y-069101
X112499Y-0711
X112499Y-0738
X112499Y-079499
X112649Y-107249
X112751Y-13525
X113Y-121001
X1132Y-070099
X1132Y-117599
X113299Y-1192
X1135Y-067
X113749Y-057
X113901Y-087201
X114399Y-062898
X11445Y-1067
X114501Y-124399
X114699Y-1221
X1148Y-1094
X1148Y-1108
X1148Y-112199
X1148Y-113599
X115001Y-1167
X115301Y-1032
X115349Y-059499
X115499Y-0721
X115499Y-0738
X115499Y-1254
X11575Y-13525
X115801Y-121001
X115999Y-067
X115999Y-089299
X115999Y-1165
X1162Y-1094
X1162Y-1108
X1162Y-112199
X1162Y-113599
X116401Y-062898
X1165Y-117701
X116751Y-057
X117051Y-1029
X1173Y-1254
X117351Y-079499
X1175Y-068501
X117599Y-1094
X117599Y-1108
X117599Y-113599
X117625Y-112199
X118001Y-089901
X118001Y-0913
X11825Y-059499
X118301Y-124399
X1184Y-062901
X1184Y-0649
X1184Y-066901
X1184Y-0708
X1184Y-083
X118501Y-0738
X1186Y-0881
X118651Y-1162
X118699Y-119499
X118699Y-120701
X118699Y-1219
X118699Y-123101
X11875Y-13525
X118849Y-10635
X118951Y-10335
X118976Y-1108
X118999Y-1094
X118999Y-112199
X118999Y-113599
X119499Y-068501
X11955Y-067198
X119751Y-057
X11985Y-071699
X12Y-093299
X12Y-12
X120299Y-065001
X1205Y-067198
X1205Y-116299
X121001Y-089901
X12115Y-062799
X121249Y-059499
X12145Y-080899
X121651Y-077749
X12175Y-13525
X1219Y-108699
X121999Y-095301
X121999Y-117
X121999Y-12
X1221Y-114099
X122199Y-104201
X122199Y-1057
X122202Y-064498
X122601Y-065601
X122601Y-068699
X122601Y-070701
X122601Y-0738
X122751Y-057
X122801Y-063899
X123551Y-07495
X12385Y-070701
X12385Y-08365
X123901Y-062697
X123901Y-068699
X123901Y-0738
X124Y-089901
X124Y-0973
X124249Y-059499
X1243Y-1213
X1243Y-1227
X1243Y-125499
X1243Y-126799
X1243Y-128199
X12475Y-13115
X12475Y-13525
X125001Y-117
X125001Y-12
X1251Y-114201
X125151Y-0738
X12525Y-080899
X1254Y-062697
X1256Y-1213
X1256Y-1227
X1256Y-126799
X1256Y-128199
X1257Y-098999
X12575Y-057
X125999Y-113299
X12605Y-07225
X12605Y-083
X12605Y-087351
X12635Y-074099
X1265Y-080099
X126799Y-085151
X126901Y-1124
X126901Y-1213
X126901Y-1227
X126901Y-126799
X126901Y-128199
X127Y-089901
X127Y-094
X127Y-097
X127099Y-07
X127201Y-1005
X127249Y-059499
X1273Y-075049
X127701Y-124099
X127701Y-125499
X127749Y-13115
X127749Y-13525
X12795Y-114699
X128001Y-087399
X128001Y-088801
X128001Y-117
X128001Y-12
X128199Y-1213
X128199Y-1227
X128199Y-126799
X128199Y-128199
X12875Y-057
X128801Y-1248
X129601Y-08525
X129601Y-087
X129601Y-094
X129601Y-097
X129601Y-1
X129601Y-103
X129601Y-105999
X129601Y-108999
X129601Y-111999
X129649Y-080099
X129649Y-083899
X13Y-1248
X13015Y-07225
X1302Y-077
X130251Y-059499
X130251Y-062901
X1305Y-08145
X130749Y-13115
X130749Y-13525
X130899Y-068699
X130899Y-080201
X131001Y-117
X131001Y-12
X131049Y-067099
X131249Y-0838
X13175Y-057
X1324Y-080201
X132499Y-094
X132499Y-095999
X132499Y-1
X132499Y-101999
X132499Y-105999
X132499Y-108001
X132499Y-111999
X132499Y-114
X133251Y-059499
X133251Y-062901
X133401Y-070099
X1335Y-088001
X1335Y-09
X133749Y-13115
X133749Y-13525
X13385Y-067099
X134Y-117
X134Y-12
X134501Y-094
X134501Y-095999
X134501Y-1
X134501Y-101999
X134501Y-105999
X134501Y-108001
X134501Y-111999
X134501Y-114
X1346Y-078001
X13475Y-057
X135001Y-081999
X135001Y-084
X1351Y-129499
X135349Y-065801
X135499Y-088001
X135499Y-09
X1359Y-0719
X135999Y-129499
X136149Y-0738
X136251Y-059499
X136251Y-062901
X136751Y-13115
X136751Y-13525
X136799Y-075801
X136901Y-129499
X137Y-081999
X137Y-084
X137Y-093
X137Y-095999
X137Y-098999
X137Y-101999
X137Y-105001
X137Y-108001
X137Y-111001
X137Y-114
X137Y-117
X137Y-12
X137749Y-057
X138351Y-065801
X138999Y-0732
X138999Y-075801
X138999Y-081001
X138999Y-084
X138999Y-087
X138999Y-09
X13925Y-059499
X13925Y-062901
X139751Y-13115
X139751Y-13525
X140051Y-120899
X140749Y-057
X141351Y-065801
X141399Y-124099
X141399Y-126901
X1416Y-128699
X14225Y-059499
X14225Y-062901
X142751Y-13115
X142751Y-13525
X142951Y-120899
X143749Y-057
X144Y-1235
X144Y-125999
X144Y-128501
X144351Y-065801
X144701Y-062901
X145049Y-114651
X145049Y-117051
X14525Y-059499
X14555Y-107851
X1456Y-081651
X1456Y-085049
X145651Y-07875
X145699Y-1232
X14575Y-13525
X145999Y-120899
X14605Y-097551
X146401Y-118349
X14655Y-0797
X14655Y-110099
X146751Y-057
X14685Y-1232
X147249Y-083299
X14735Y-065801
X1475Y-114651
X1475Y-117051
X147899Y-1116
X148001Y-1232
X14825Y-06
X14845Y-061801
X14875Y-13525
X148999Y-132001
X14905Y-105151
X149101Y-119799
X149101Y-120899
X149101Y-121999
X149149Y-1232
X14921Y-112578
X14925Y-1246
X14925Y-12605
X149301Y-0678
X149751Y-057
X150449Y-0638
X150701Y-0946
X150701Y-0959
X150701Y-0973
X150701Y-0986
X150851Y-0727
X151249Y-06
X151249Y-061999
X1513Y-069799
X1513Y-075199
X15175Y-13525
X1519Y-0946
X152001Y-132001
X152199Y-084
X152199Y-1086
X152199Y-109499
X152199Y-112298
X152199Y-114099
X152199Y-1151
X152199Y-117699
X152199Y-119799
X152199Y-120899
X152199Y-1221
X152199Y-1232
X15225Y-10015
X15225Y-10205
X152451Y-065801
X152451Y-0743
X15285Y-063899
X153101Y-1059
X153299Y-0946
X153401Y-057
X153401Y-058001
X153401Y-058999
X153401Y-06
X153401Y-072799
X153401Y-0876
X1537Y-1086
X1537Y-109499
X1537Y-112298
X1537Y-114099
X1537Y-1151
X1537Y-117699
X1537Y-119799
X1537Y-120899
X1537Y-1221
X1537Y-1232
X153749Y-0843
X153749Y-086449
X153899Y-101349
X153899Y-102598
X153899Y-10385
X153899Y-1051
X154Y-075301
X154Y-0765
X15445Y-068001
X154549Y-065801
X1546Y-080198
X154701Y-0946
X154709Y-10588
X15475Y-13525
X155001Y-132001
X1551Y-083899
X155151Y-117699
X155151Y-119799
X155199Y-1086
X155199Y-109499
X155199Y-112298
X155199Y-114099
X155199Y-1151
X155199Y-120899
X155199Y-1221
X155199Y-1232
X155301Y-062349
X1554Y-0776
X1554Y-10015
X1554Y-101349
X1554Y-102598
X1554Y-10385
X1554Y-1051
X1559Y-095799
X1559Y-096898
X155999Y-088499
X15605Y-06125
X156449Y-068001
X156759Y-098778
X157Y-063599
X157Y-069799
X15701Y-07588
X157051Y-084348
X157051Y-086449
X157201Y-088499
X15735Y-081648
X157401Y-078699
X157749Y-09745
X157749Y-098849
X157749Y-13525
X157899Y-063599
X158001Y-125999
X158001Y-132001
X1581Y-0832
X1581Y-1086
X1581Y-117699
X158151Y-102649
X158199Y-111999
X1583Y-069799
X1583Y-072799
X1583Y-105199
X1583Y-105999
X1583Y-119799
X1583Y-120899
X1583Y-1221
X158499Y-10939
X1586Y-08175
X15861Y-10078
X158849Y-07875
X159009Y-11128
X159111Y-112578
X15925Y-075349
X15925Y-076449
X159309Y-099979
X159609Y-110378
X15971Y-106078
X15971Y-107378
X15971Y-108679
X159809Y-115379
X159809Y-11698
X159809Y-117879
X159908Y-112878
X16001Y-10078
X16001Y-113878
X16035Y-075349
X16035Y-076451
X160401Y-088199
X160401Y-091001
X1605Y-0719
X1605Y-125999
X160708Y-099979
X160749Y-07875
X160749Y-13525
X161Y-132001
X161501Y-104498
X161501Y-1075
X161501Y-1105
X161501Y-1135
X161501Y-1165
X161501Y-119748
X161501Y-122499
X161508Y-10078
X1616Y-0613
X1616Y-0638
X1616Y-066799
X1616Y-069799
X1616Y-07285
X161699Y-081699
X161699Y-0832
X161811Y-078679
X161999Y-093
X16211Y-07778
X16225Y-124249
X162751Y-076149
X162751Y-077
X162999Y-08
X162999Y-088199
X162999Y-09
X162999Y-091999
X162999Y-095999
X162999Y-098999
X162999Y-101999
X163101Y-062301
X1635Y-131501
X16365Y-087099
X1637Y-083599
X163751Y-13525
X164Y-105999
X164Y-107998
X164Y-115999
X164Y-117998
X164249Y-12225
X1643Y-066901
X1643Y-069901
X1643Y-072901
X1646Y-056901
X1646Y-057899
X1646Y-058999
X1646Y-06
X164998Y-09
X164998Y-091999
X165499Y-0735
X165499Y-129499
X165951Y-086149
X165999Y-088199
X165999Y-105999
X165999Y-107998
X165999Y-115999
X165999Y-117998
X166251Y-057
X166251Y-120249
X166309Y-066479
X166411Y-076129
X1665Y-0835
X166649Y-062349
X166751Y-13525
X1675Y-1275
X168001Y-094
X168001Y-095999
X168001Y-103
X168001Y-1065
X168001Y-109499
X168001Y-112499
X168001Y-115499
X168001Y-118499
X168151Y-08095
X168999Y-088199
X16925Y-057
X169451Y-08305
X169499Y-08605
X169499Y-125499
X169751Y-13525
X17Y-094
X17Y-095999
X17Y-1005
X171Y-13
X171Y-132001
X171249Y-083449
X171249Y-085949
X1713Y-0673
X1713Y-071999
X1713Y-075301
X171501Y-1235
X171999Y-088199
X171999Y-098499
X17225Y-057
X17225Y-07285
X172349Y-084699
X17275Y-13525
X172999Y-13
X172999Y-132001
X173299Y-071549
X1735Y-121501
X173599Y-062299
X173599Y-064201
X173599Y-0667
X173599Y-0692
X17365Y-070599
X174Y-09
X174Y-091999
X174Y-0965
X174Y-105499
X174Y-10875
X174Y-11225
X174Y-11525
X174Y-118501
X174399Y-07285
X174998Y-088199
X17525Y-057
X17525Y-06
X17525Y-063
X175699Y-078301
X175699Y-080899
X17575Y-13525
X1759Y-071501
X175999Y-09
X175999Y-091999
X175999Y-094498
X175999Y-1035
X177099Y-072901
X1773Y-086299
X178001Y-088199
X178001Y-092499
X178001Y-101501
X178001Y-104
X178001Y-105999
X178001Y-111999
X178001Y-114
X178001Y-12
X178001Y-121999
X178001Y-128001
X178001Y-13
X17825Y-057
X178399Y-070599
X178399Y-073599
X178399Y-076599
X178399Y-079601
X178399Y-083599
X178399Y-085499
X17875Y-13525
X179799Y-076398
X179799Y-0778
X179799Y-0792
X179799Y-080599
X179799Y-081999
X179799Y-083398
X18Y-0905
X18Y-099499
X18Y-104
X18Y-105999
X18Y-111999
X18Y-114
X18Y-12
X18Y-121999
X18Y-128001
X18Y-13
X1802Y-07475
X181Y-088199
X181099Y-076398
X181099Y-0778
X181099Y-0792
X181099Y-080599
X181099Y-081999
X181099Y-086299
X181249Y-057
X181501Y-071651
X18175Y-13525
X182001Y-0975
X1824Y-076398
X1824Y-0778
X1824Y-081999
X1824Y-083398
X1837Y-076398
X1837Y-0778
X1837Y-081999
X1837Y-083398
X184Y-095499
X184Y-1
X184Y-101999
X184Y-108001
X184Y-11
X184Y-115999
X184Y-118001
X184Y-124
X184Y-125999
X184Y-13
X184Y-132001
X184201Y-085001
X184249Y-057
X184501Y-071651
X184501Y-07365
X184501Y-0792
X184501Y-080599
X184749Y-13525
X184998Y-076398
X184998Y-0778
X184998Y-081999
X184998Y-083398
X185699Y-079898
X185999Y-0935
X185999Y-1
X185999Y-101999
X185999Y-108001
X185999Y-11
X185999Y-115999
X185999Y-118001
X185999Y-124
X185999Y-125999
X185999Y-13
X185999Y-132001
X186901Y-079898
X187Y-082199
X1875Y-057
X187749Y-13525
X188001Y-091501
X188801Y-0813
X189601Y-0813
X19Y-098001
X19Y-1
X19Y-104
X19Y-105999
X19Y-111999
X19Y-114
X19Y-12
X19Y-121999
X19Y-124
X19Y-125999
X190149Y-07365
X190149Y-07635
X19175Y-066248
X192001Y-098001
X192001Y-1
X192001Y-104
X192001Y-105999
X192001Y-111999
X192001Y-114
X192001Y-12
X192001Y-121999
X192001Y-124
X192001Y-125999
X195001Y-096751
X195001Y-099751
X195001Y-102751
X195001Y-10575
X195001Y-10875
X195001Y-11175
X195001Y-11475
X195001Y-117749
X195001Y-120749
X195001Y-123749
X195001Y-126751
X19525Y-06475
X19525Y-067749
X19525Y-070749
X19525Y-073749
X19525Y-076749
X19525Y-079748
X19525Y-082748
X19525Y-08575
T3
X09765Y-070678
X09765Y-073218
X09765Y-075758
X09765Y-078298
X09765Y-080838
X09765Y-083378
X09765Y-085918
X09765Y-088458
X09765Y-090998
X09765Y-093538
X09765Y-096078
X09765Y-098618
X09765Y-101158
X09765Y-103698
X09765Y-106238
X09765Y-108778
X09765Y-111318
X09765Y-113858
X09765Y-116398
X09765Y-118938
X100188Y-070683
X100188Y-073218
X100188Y-075756
X100188Y-118938
X10019Y-078298
X10019Y-080838
X10019Y-083378
X10019Y-085918
X10019Y-088458
X10019Y-090998
X10019Y-093538
X10019Y-096078
X10019Y-098618
X10019Y-101158
X10019Y-103698
X10019Y-106238
X10019Y-108778
X10019Y-111318
X10019Y-113858
X10019Y-116398
X104633Y-132159
X107175Y-132159
X140955Y-118938
X140957Y-106235
X14096Y-070678
X14096Y-073218
X14096Y-075758
X14096Y-078298
X14096Y-080838
X14096Y-083378
X14096Y-085918
X14096Y-088458
X14096Y-090998
X14096Y-093538
X14096Y-096078
X14096Y-098618
X14096Y-101158
X14096Y-103698
X14096Y-108778
X14096Y-111318
X14096Y-113858
X14096Y-116398
X1435Y-070678
X1435Y-073218
X1435Y-075758
X1435Y-078298
X1435Y-080838
X1435Y-083378
X1435Y-085918
X1435Y-088458
X1435Y-090998
X1435Y-093538
X1435Y-096078
X1435Y-098618
X1435Y-101158
X1435Y-103698
X1435Y-106238
X1435Y-108778
X1435Y-111318
X1435Y-113858
X1435Y-116398
X1435Y-118938
T4
X128097Y-063726
X128097Y-066264
X146764Y-124813
X146764Y-127351
X146764Y-130518
X146764Y-133055
X168895Y-058423
X168895Y-060963
X171432Y-058423
X171432Y-060963
X188798Y-066736
X188798Y-069273
T5
X153718Y-124838
T6
X153718Y-098438
T7
X099497Y-131651
X099507Y-06035
X192321Y-060361
X192321Y-091641
X192321Y-131641
T2
X176809Y-067897G85X176809Y-065702
G05
X180513Y-063797G85X182707Y-063797
G05
T3
X18286Y-069799G85X18036Y-069799
G05
T0
M30
