G04 (created by PCBNEW-RS274X (2012-08-04 BZR 3667)-testing) date 10/19/2012 6:39:08 PM*
%MOIN*%
G04 Gerber Fmt 3.4, Leading zero omitted, Abs format*
%FSLAX34Y34*%
G01*
G70*
G90*
G04 APERTURE LIST*
%ADD10C,0.0017*%
%ADD11C,0.0059*%
%ADD12C,0.0077*%
%ADD13C,0.0432*%
%ADD14C,0.0195*%
%ADD15C,0.0157*%
%ADD16C,0.0354*%
%ADD17R,0.0392X0.0392*%
%ADD18R,0.0472X0.051*%
%ADD19R,0.051X0.0472*%
%ADD20R,0.0195X0.0175*%
%ADD21R,0.0175X0.0195*%
%ADD22R,0.0259X0.014*%
%ADD23R,0.014X0.0259*%
%ADD24R,0.0275X0.0314*%
%ADD25R,0.0314X0.0275*%
%ADD26R,0.0195X0.0195*%
%ADD27C,0.2165*%
%ADD28R,0.1417X0.055*%
%ADD29R,0.244X0.2598*%
%ADD30R,0.0314X0.0314*%
%ADD31R,0.1495X0.0392*%
%ADD32R,0.1299X0.0392*%
%ADD33R,0.0392X0.1299*%
%ADD34R,0.0392X0.1495*%
%ADD35R,0.1849X0.0589*%
%ADD36R,0.0589X0.0275*%
%ADD37C,0.051*%
%ADD38C,0.055*%
%ADD39C,0.0597*%
%ADD40R,0.0597X0.0597*%
%ADD41R,0.0472X0.015*%
%ADD42O,0.0472X0.015*%
%ADD43R,0.0299X0.0649*%
%ADD44R,0.0669X0.0669*%
%ADD45O,0.0117X0.0335*%
%ADD46O,0.0122X0.0335*%
%ADD47O,0.0118X0.0335*%
%ADD48O,0.0335X0.0118*%
%ADD49R,0.0335X0.0118*%
%ADD50O,0.0335X0.0122*%
%ADD51R,0.0157X0.0209*%
%ADD52R,0.002X0.0114*%
%ADD53R,0.0276X0.0095*%
%ADD54R,0.0327X0.0095*%
%ADD55R,0.0354X0.0095*%
%ADD56R,0.0559X0.0095*%
%ADD57R,0.0019X0.0095*%
%ADD58R,0.0019X0.0083*%
%ADD59R,0.002X0.0095*%
%ADD60R,0.0019X0.0171*%
%ADD61R,0.0019X0.0342*%
%ADD62R,0.0019X0.0304*%
%ADD63R,0.0019X0.0094*%
%ADD64R,0.0019X0.0209*%
%ADD65R,0.0019X0.038*%
%ADD66R,0.0019X0.0475*%
%ADD67R,0.0019X0.0589*%
%ADD68R,0.0019X0.0646*%
%ADD69R,0.0019X0.0703*%
%ADD70R,0.0019X0.0779*%
%ADD71R,0.0019X0.0285*%
%ADD72R,0.0019X0.0247*%
%ADD73R,0.0019X0.0228*%
%ADD74R,0.0019X0.019*%
%ADD75R,0.0019X0.0133*%
%ADD76R,0.0019X0.0076*%
%ADD77R,0.0019X0.0038*%
%ADD78R,0.0019X0.0437*%
%ADD79R,0.0019X0.0551*%
%ADD80R,0.0019X0.0114*%
%ADD81R,0.0019X0.0057*%
%ADD82R,0.002X0.014*%
%ADD83R,0.0019X0.0335*%
%ADD84R,0.0019X0.0152*%
%ADD85R,0.0019X0.0361*%
%ADD86R,0.0019X0.0399*%
%ADD87R,0.0019X0.0323*%
%ADD88R,0.0019X0.0266*%
%ADD89R,0.0591X0.0095*%
%ADD90R,0.0157X0.0095*%
%ADD91R,0.002X0.038*%
%ADD92R,0.0019X0.0418*%
%ADD93R,0.0295X0.0095*%
%ADD94R,0.0217X0.0095*%
%ADD95R,0.0724X0.0095*%
%ADD96R,0.0019X0.3781*%
%ADD97R,0.0117X0.0275*%
%ADD98R,0.0117X0.0117*%
%ADD99R,0.0117X0.0177*%
%ADD100R,0.0177X0.0117*%
%ADD101C,0.0196*%
%ADD102C,0.0138*%
%ADD103C,0.0196*%
%ADD104C,0.0117*%
%ADD105C,0.0118*%
%ADD106C,0.0122*%
%ADD107C,0.0195*%
%ADD108C,0.0157*%
%ADD109C,0.0314*%
%ADD110C,0.0078*%
%ADD111C,0.0039*%
%ADD112C,0.0235*%
G04 APERTURE END LIST*
G54D10*
G54D11*
X41831Y-53937D02*
G75*
G03X41831Y-53937I-492J0D01*
G74*
G01*
X40355Y-53937D02*
X42323Y-53937D01*
X41339Y-52953D02*
X41339Y-54921D01*
X70964Y-26378D02*
G75*
G03X70964Y-26378I-492J0D01*
G74*
G01*
X69488Y-26378D02*
X71456Y-26378D01*
X70472Y-25394D02*
X70472Y-27362D01*
X41831Y-26378D02*
G75*
G03X41831Y-26378I-492J0D01*
G74*
G01*
X40355Y-26378D02*
X42323Y-26378D01*
X41339Y-25394D02*
X41339Y-27362D01*
G54D12*
X42606Y-52483D02*
X42606Y-27680D01*
X68983Y-52483D02*
X42606Y-52483D01*
X68983Y-27680D02*
X68983Y-52483D01*
X42606Y-27680D02*
X68983Y-27680D01*
X66228Y-30437D02*
X66228Y-39492D01*
X57764Y-30437D02*
X66228Y-30437D01*
X57764Y-29650D02*
X57764Y-30437D01*
X67016Y-29650D02*
X57764Y-29650D01*
X67016Y-39492D02*
X67016Y-29650D01*
X66228Y-39492D02*
X67016Y-39492D01*
X57764Y-50515D02*
X57764Y-49728D01*
X67016Y-50515D02*
X57764Y-50515D01*
X67016Y-40948D02*
X67016Y-50515D01*
X66228Y-40948D02*
X67016Y-40948D01*
X66228Y-49728D02*
X66228Y-40948D01*
X57764Y-49728D02*
X66228Y-49728D01*
X46936Y-50515D02*
X46936Y-44413D01*
X56386Y-50515D02*
X46936Y-50515D01*
X56386Y-49728D02*
X56386Y-50515D01*
X47724Y-49728D02*
X56386Y-49728D01*
X47724Y-44413D02*
X47724Y-49728D01*
X46936Y-44413D02*
X47724Y-44413D01*
X46936Y-43390D02*
X46936Y-35555D01*
X47724Y-43390D02*
X46936Y-43390D01*
X47724Y-35555D02*
X47724Y-43390D01*
X46936Y-35555D02*
X47724Y-35555D01*
X47724Y-30437D02*
X47724Y-34570D01*
X46936Y-34570D02*
X47724Y-34570D01*
X46936Y-29648D02*
X46936Y-34570D01*
X46936Y-29648D02*
X56384Y-29648D01*
X56384Y-29648D02*
X56384Y-30437D01*
X47724Y-30437D02*
X56384Y-30437D01*
G54D13*
X49554Y-45454D03*
X49554Y-35062D03*
G54D14*
X56102Y-43975D03*
G54D15*
X61013Y-44997D03*
X61363Y-45005D03*
X61158Y-45292D03*
X61386Y-35540D03*
X61024Y-35536D03*
X61024Y-35198D03*
X61394Y-35193D03*
X56791Y-43535D03*
X63583Y-34409D03*
G54D16*
X47725Y-34630D03*
X47725Y-35063D03*
X47725Y-35496D03*
X47725Y-44335D03*
X47725Y-43902D03*
X47725Y-43469D03*
X66268Y-39571D03*
X66268Y-40004D03*
X66268Y-40437D03*
X66268Y-40870D03*
G54D17*
X49299Y-51303D03*
X66622Y-51303D03*
X66621Y-28862D03*
G54D15*
X58299Y-40354D03*
X58299Y-39921D03*
X58082Y-40138D03*
X58515Y-40138D03*
X61129Y-38252D03*
X61011Y-37386D03*
X63553Y-36201D03*
X63571Y-36520D03*
X63571Y-36993D03*
X52273Y-32898D03*
X52272Y-33331D03*
X51445Y-33331D03*
X51446Y-32898D03*
X59398Y-33803D03*
X59005Y-33804D03*
X61367Y-33804D03*
X61760Y-33803D03*
X64005Y-31204D03*
X65736Y-31283D03*
X53610Y-30890D03*
X53059Y-30890D03*
X59791Y-30889D03*
X59201Y-30889D03*
X58571Y-30889D03*
X57901Y-30889D03*
X57311Y-30890D03*
X54240Y-30890D03*
X54831Y-30890D03*
X55461Y-30890D03*
X56130Y-30890D03*
X56721Y-30890D03*
X62783Y-30889D03*
X62193Y-30889D03*
X61563Y-30889D03*
X60893Y-30889D03*
X60382Y-30890D03*
X63335Y-30890D03*
X63846Y-30889D03*
X64516Y-30889D03*
X65146Y-30889D03*
X65736Y-30889D03*
X63127Y-32925D03*
X63138Y-33292D03*
X63600Y-33280D03*
X62655Y-33280D03*
X63453Y-32544D03*
X61484Y-32544D03*
X62065Y-32532D03*
X60894Y-32544D03*
X62744Y-32544D03*
X60658Y-33292D03*
X61120Y-33280D03*
X62065Y-33280D03*
X61603Y-33292D03*
X59752Y-33292D03*
X60214Y-33280D03*
X55953Y-33291D03*
X55312Y-33271D03*
X60343Y-32544D03*
X59269Y-33280D03*
X56465Y-33291D03*
X56965Y-33280D03*
X54289Y-33271D03*
X54762Y-33271D03*
X58807Y-33292D03*
X57410Y-33291D03*
X50618Y-30929D03*
X50895Y-32898D03*
X50894Y-33331D03*
X49281Y-33527D03*
X50028Y-30929D03*
X49950Y-33567D03*
X49398Y-30929D03*
X48728Y-30929D03*
X48256Y-35103D03*
X48650Y-35102D03*
X48650Y-34552D03*
X48256Y-34552D03*
X48256Y-33410D03*
X48650Y-33410D03*
X48650Y-33961D03*
X48256Y-33961D03*
X48255Y-32898D03*
X48255Y-32504D03*
X48255Y-32032D03*
X48255Y-31520D03*
X48256Y-30929D03*
X52627Y-36166D03*
X51995Y-39173D03*
X51680Y-39173D03*
X51365Y-39173D03*
X51010Y-39212D03*
X51004Y-38953D03*
X51012Y-39551D03*
X51012Y-40181D03*
X55718Y-42968D03*
X55450Y-43472D03*
X54248Y-41252D03*
X53937Y-41520D03*
X53925Y-41248D03*
X52413Y-41387D03*
X51196Y-41394D03*
X63602Y-33632D03*
X63612Y-33967D03*
X64016Y-36220D03*
X64043Y-36559D03*
X64035Y-34409D03*
X64043Y-34039D03*
X65462Y-33764D03*
X65776Y-33764D03*
X65146Y-33764D03*
X64832Y-33764D03*
X64202Y-33764D03*
X64516Y-33764D03*
X64516Y-36835D03*
X64202Y-36835D03*
X64832Y-36835D03*
X65146Y-36835D03*
X65776Y-36835D03*
X65462Y-36835D03*
X65697Y-42268D03*
X65696Y-41677D03*
X65696Y-41087D03*
X65696Y-40535D03*
X65697Y-37977D03*
X65697Y-38646D03*
X65697Y-39906D03*
X63570Y-40024D03*
X63570Y-39591D03*
X63571Y-39079D03*
X63571Y-38528D03*
X63571Y-37977D03*
X63570Y-42937D03*
X63570Y-40535D03*
X63570Y-41087D03*
X63570Y-41677D03*
X63571Y-42268D03*
X63137Y-42584D03*
X63138Y-42230D03*
X63138Y-39867D03*
X63137Y-40221D03*
X63136Y-37859D03*
X63137Y-37505D03*
X62626Y-36717D03*
X62626Y-36205D03*
X62626Y-35772D03*
X62626Y-37229D03*
X62626Y-37858D03*
X63571Y-37504D03*
X62114Y-38488D03*
X62665Y-38488D03*
X62114Y-37858D03*
X62114Y-37229D03*
X61169Y-44473D03*
X61721Y-43882D03*
X61681Y-44355D03*
X62274Y-40728D03*
X62271Y-41166D03*
X62271Y-41756D03*
X62271Y-42307D03*
X62271Y-44315D03*
X62272Y-43646D03*
X62271Y-42937D03*
X62704Y-42307D03*
X62704Y-41756D03*
X62704Y-41166D03*
X62697Y-40728D03*
X62704Y-42937D03*
X62705Y-43646D03*
X62704Y-44315D03*
X58732Y-40354D03*
X57866Y-40354D03*
X57433Y-40354D03*
X57000Y-40354D03*
X56783Y-40571D03*
X57216Y-40571D03*
X57653Y-40571D03*
X58082Y-40571D03*
X58515Y-40571D03*
X58515Y-41004D03*
X58082Y-41004D03*
X57653Y-41004D03*
X57216Y-41004D03*
X56783Y-41004D03*
X57000Y-40787D03*
X57433Y-40787D03*
X58299Y-40787D03*
X57866Y-40787D03*
X58732Y-40787D03*
X58732Y-39921D03*
X57866Y-39921D03*
X57433Y-39921D03*
X57000Y-39921D03*
X56783Y-40138D03*
X57216Y-40138D03*
X57653Y-40138D03*
X58515Y-39705D03*
X58082Y-39705D03*
X57653Y-39705D03*
X57216Y-39705D03*
X56783Y-39705D03*
X57000Y-39488D03*
X57433Y-39488D03*
X58299Y-39488D03*
X57866Y-39488D03*
X58732Y-39488D03*
X58732Y-39055D03*
X57866Y-39055D03*
X58299Y-39055D03*
X57433Y-39055D03*
X57000Y-39055D03*
X56783Y-39272D03*
X57216Y-39272D03*
X57653Y-39272D03*
X58082Y-39272D03*
X58515Y-39272D03*
X64055Y-43533D03*
X64045Y-43858D03*
X64555Y-43282D03*
X64241Y-43282D03*
X64871Y-43282D03*
X65185Y-43282D03*
X65815Y-43282D03*
X65501Y-43282D03*
X65510Y-46353D03*
X65824Y-46353D03*
X65194Y-46353D03*
X64880Y-46353D03*
X64065Y-46083D03*
X64035Y-45758D03*
X63514Y-46358D03*
X64250Y-46353D03*
X64564Y-46353D03*
X63553Y-43435D03*
X63553Y-43907D03*
X63494Y-45856D03*
X60472Y-44461D03*
X57598Y-45152D03*
X57598Y-44837D03*
X56249Y-44866D03*
X55658Y-44866D03*
X54516Y-38173D03*
X54516Y-37858D03*
X54005Y-37858D03*
X55028Y-44236D03*
X54162Y-43488D03*
X54756Y-43909D03*
X65736Y-47032D03*
X64319Y-49355D03*
X65736Y-49355D03*
X65106Y-49355D03*
X60622Y-47855D03*
X62889Y-49028D03*
X62889Y-49343D03*
X63480Y-49343D03*
X63480Y-49028D03*
X60566Y-49028D03*
X60566Y-49343D03*
X61118Y-49343D03*
X61118Y-49028D03*
X62260Y-49028D03*
X62260Y-49343D03*
X61709Y-49343D03*
X61709Y-49028D03*
X59465Y-49028D03*
X59465Y-49343D03*
X60016Y-49343D03*
X60016Y-49028D03*
X58914Y-49028D03*
X58914Y-49343D03*
X58323Y-49343D03*
X58323Y-49028D03*
X58335Y-48567D03*
X63138Y-46953D03*
X62587Y-46953D03*
X61012Y-46941D03*
X62004Y-46957D03*
X58465Y-46850D03*
X58099Y-46835D03*
X57547Y-46835D03*
X56996Y-46835D03*
X56484Y-46835D03*
X56012Y-46835D03*
X53932Y-47357D03*
X59417Y-46406D03*
X61760Y-46284D03*
X61406Y-46284D03*
X56642Y-46284D03*
X56996Y-46284D03*
X52378Y-46382D03*
X52031Y-46382D03*
X50539Y-46873D03*
X49870Y-46676D03*
X49240Y-46755D03*
X48295Y-45968D03*
X48689Y-45968D03*
X48689Y-45496D03*
X48295Y-45496D03*
X48295Y-46441D03*
X48689Y-46441D03*
X48689Y-46913D03*
X48295Y-46913D03*
X48295Y-47386D03*
X48295Y-47937D03*
X48295Y-48449D03*
X48295Y-48921D03*
X48295Y-49315D03*
X48965Y-49315D03*
X49673Y-49315D03*
X50382Y-49315D03*
G54D14*
X48861Y-45087D03*
X48546Y-45087D03*
X48231Y-45087D03*
X52389Y-43424D03*
X52744Y-43424D03*
X52941Y-43620D03*
X52586Y-43621D03*
X52782Y-45375D03*
X52782Y-45690D03*
X52584Y-45927D03*
X52190Y-45927D03*
X51994Y-45690D03*
X51994Y-45375D03*
G54D18*
X56532Y-48310D03*
X56532Y-47406D03*
G54D19*
X51568Y-44036D03*
X52472Y-44036D03*
X51568Y-44772D03*
X52472Y-44772D03*
G54D20*
X51445Y-35036D03*
X51445Y-35406D03*
G54D21*
X61870Y-36559D03*
X61500Y-36559D03*
G54D20*
X60461Y-41890D03*
X60461Y-41520D03*
X55299Y-38559D03*
X55299Y-38929D03*
X60827Y-41504D03*
X60827Y-41874D03*
X60618Y-38784D03*
X60618Y-38414D03*
X60264Y-38402D03*
X60264Y-38772D03*
X59665Y-38024D03*
X59665Y-37654D03*
G54D22*
X58799Y-43133D03*
X58799Y-42793D03*
X57825Y-35952D03*
X57825Y-36292D03*
X59843Y-43123D03*
X59843Y-42783D03*
G54D23*
X58800Y-35740D03*
X58460Y-35740D03*
X57442Y-36787D03*
X57102Y-36787D03*
G54D22*
X58472Y-36568D03*
X58472Y-36228D03*
G54D23*
X57434Y-35512D03*
X57094Y-35512D03*
X58957Y-37870D03*
X58617Y-37870D03*
G54D22*
X59252Y-36247D03*
X59252Y-36587D03*
G54D23*
X58296Y-42520D03*
X57956Y-42520D03*
X57123Y-42500D03*
X57463Y-42500D03*
X59692Y-44606D03*
X60032Y-44606D03*
G54D22*
X58976Y-44225D03*
X58976Y-43885D03*
G54D23*
X59692Y-43484D03*
X60032Y-43484D03*
X57237Y-37984D03*
X56897Y-37984D03*
X56568Y-36500D03*
X56228Y-36500D03*
X55550Y-36496D03*
X55890Y-36496D03*
X58044Y-37992D03*
X57704Y-37992D03*
G54D24*
X57078Y-47500D03*
X57508Y-47500D03*
X57088Y-48284D03*
X57518Y-48284D03*
X54542Y-45276D03*
X54112Y-45276D03*
G54D25*
X51469Y-43372D03*
X51469Y-42943D03*
G54D24*
X53057Y-44851D03*
X53487Y-44851D03*
X55215Y-44638D03*
X54785Y-44638D03*
X53990Y-43882D03*
X54420Y-43882D03*
G54D26*
X59016Y-35305D03*
X59370Y-35305D03*
X59327Y-45031D03*
X59681Y-45031D03*
X58976Y-44606D03*
X58622Y-44606D03*
X59693Y-43878D03*
X59693Y-44232D03*
X58976Y-43504D03*
X58622Y-43504D03*
X59124Y-42776D03*
X59124Y-43130D03*
X59488Y-42776D03*
X59488Y-43130D03*
X59130Y-42477D03*
X59484Y-42477D03*
X59577Y-36584D03*
X59577Y-36230D03*
X57469Y-45799D03*
X57823Y-45799D03*
X57622Y-35059D03*
X57976Y-35059D03*
X58004Y-42933D03*
X58004Y-43287D03*
X57461Y-42933D03*
X57461Y-43287D03*
X57667Y-42165D03*
X58021Y-42165D03*
X59012Y-37480D03*
X59012Y-37126D03*
X59248Y-35744D03*
X59602Y-35744D03*
X58799Y-36575D03*
X58799Y-36221D03*
X57441Y-36289D03*
X57441Y-35935D03*
X51976Y-36496D03*
X52330Y-36496D03*
X57825Y-35522D03*
X58179Y-35522D03*
X58071Y-37579D03*
X58071Y-37225D03*
X57677Y-37579D03*
X57677Y-37225D03*
X57260Y-37575D03*
X57260Y-37221D03*
X57825Y-36781D03*
X58179Y-36781D03*
X57764Y-34433D03*
X58118Y-34433D03*
X56874Y-37567D03*
X56874Y-37213D03*
X58547Y-37480D03*
X58547Y-37126D03*
X62217Y-35299D03*
X62571Y-35299D03*
X48532Y-37130D03*
X48532Y-36776D03*
X48532Y-37457D03*
X48532Y-37811D03*
X60264Y-38110D03*
X60618Y-38110D03*
X60268Y-39083D03*
X60622Y-39083D03*
X60264Y-39406D03*
X60618Y-39406D03*
X60473Y-40831D03*
X60827Y-40831D03*
X60461Y-42173D03*
X60815Y-42173D03*
X55283Y-39252D03*
X54929Y-39252D03*
X60481Y-41173D03*
X60835Y-41173D03*
G54D27*
X49752Y-32228D03*
X64791Y-32228D03*
X64791Y-47975D03*
X49752Y-47975D03*
G54D28*
X55145Y-49107D03*
G54D29*
X52271Y-48173D03*
G54D28*
X55145Y-47309D03*
G54D14*
X56378Y-43975D03*
X52232Y-43621D03*
G54D21*
X59347Y-47051D03*
X58977Y-47051D03*
G54D30*
X60421Y-46992D03*
X59791Y-46992D03*
G54D14*
X52112Y-49195D03*
X51720Y-49197D03*
X52507Y-49197D03*
X51325Y-49197D03*
X52902Y-49197D03*
X51325Y-48802D03*
X51325Y-48410D03*
X51325Y-48015D03*
X51325Y-47622D03*
X51325Y-47267D03*
X51720Y-47267D03*
X52114Y-47267D03*
X52507Y-47267D03*
X52900Y-47267D03*
X52900Y-47622D03*
X52900Y-48015D03*
X52900Y-48410D03*
X52900Y-48802D03*
G54D17*
X49299Y-28862D03*
G54D16*
X56426Y-49768D03*
X56859Y-49768D03*
X57292Y-49768D03*
X57726Y-49768D03*
X56425Y-30437D03*
X56858Y-30437D03*
X57291Y-30437D03*
X57725Y-30437D03*
G54D14*
X54516Y-48607D03*
X54831Y-48607D03*
X55146Y-48607D03*
X55461Y-48607D03*
X59419Y-47520D03*
X60512Y-47510D03*
X62312Y-47426D03*
X63336Y-47426D03*
G54D31*
X60400Y-33783D03*
X58038Y-33783D03*
X55676Y-33783D03*
X53313Y-33783D03*
G54D32*
X51051Y-33783D03*
G54D33*
X50599Y-34235D03*
G54D34*
X63116Y-36500D03*
X63116Y-38862D03*
X63116Y-41223D03*
X63116Y-43587D03*
G54D32*
X62663Y-46301D03*
G54D33*
X63116Y-45847D03*
X50599Y-45847D03*
G54D32*
X51051Y-46301D03*
G54D31*
X53313Y-46301D03*
X55676Y-46301D03*
X58038Y-46301D03*
X60400Y-46301D03*
G54D34*
X50599Y-43587D03*
X50599Y-41223D03*
X50599Y-38862D03*
X50599Y-36500D03*
G54D32*
X62663Y-33783D03*
G54D33*
X63116Y-34235D03*
G54D35*
X65161Y-43763D03*
X65161Y-45867D03*
G54D36*
X65711Y-44815D03*
G54D35*
X65145Y-34246D03*
X65145Y-36350D03*
G54D36*
X65695Y-35298D03*
G54D37*
X51299Y-32217D03*
X52299Y-32217D03*
X52299Y-31217D03*
X51299Y-31217D03*
G54D38*
X51799Y-31717D03*
G54D39*
X58307Y-31834D03*
X57307Y-31834D03*
X56307Y-31834D03*
X55307Y-31834D03*
G54D40*
X53307Y-31814D03*
G54D39*
X54307Y-31834D03*
G54D40*
X57576Y-49079D03*
G54D39*
X56576Y-49079D03*
G54D41*
X62005Y-45800D03*
G54D42*
X62005Y-45543D03*
X62005Y-45289D03*
X62005Y-45032D03*
X60235Y-45032D03*
X60235Y-45289D03*
X60235Y-45543D03*
X60235Y-45800D03*
G54D43*
X57164Y-43981D03*
X57664Y-43981D03*
X58164Y-43981D03*
X58164Y-45232D03*
X57164Y-45232D03*
G54D44*
X61200Y-35379D03*
G54D45*
X61298Y-34799D03*
G54D46*
X61102Y-34799D03*
G54D45*
X60905Y-34799D03*
G54D46*
X61495Y-34799D03*
X61102Y-35959D03*
G54D47*
X60905Y-35960D03*
X61298Y-35960D03*
X61495Y-35960D03*
G54D48*
X60619Y-35281D03*
G54D49*
X60619Y-35084D03*
G54D48*
X60619Y-35477D03*
X60619Y-35674D03*
G54D50*
X61780Y-35281D03*
G54D48*
X61781Y-35084D03*
X61781Y-35477D03*
X61781Y-35674D03*
G54D43*
X56579Y-35874D03*
X56079Y-35874D03*
X55579Y-35874D03*
X55579Y-34623D03*
X56579Y-34623D03*
G54D51*
X65303Y-39141D03*
G54D52*
X65063Y-40479D03*
G54D53*
X64551Y-40832D03*
G54D54*
X64905Y-40832D03*
G54D55*
X64890Y-41137D03*
G54D56*
X64791Y-41438D03*
G54D57*
X65437Y-39141D03*
G54D58*
X64362Y-40940D03*
G54D59*
X64377Y-41328D03*
G54D58*
X64358Y-41334D03*
G54D60*
X64378Y-41479D03*
G54D61*
X65043Y-39587D03*
G54D62*
X65059Y-39606D03*
G54D57*
X65063Y-40224D03*
G54D59*
X65044Y-40224D03*
G54D63*
X65059Y-39826D03*
G54D64*
X63960Y-38571D03*
G54D65*
X63979Y-38561D03*
G54D66*
X63998Y-38571D03*
G54D67*
X64017Y-38571D03*
G54D68*
X64036Y-38561D03*
G54D69*
X64055Y-38571D03*
G54D70*
X64074Y-38571D03*
G54D71*
X64093Y-38837D03*
X64093Y-38305D03*
G54D72*
X64112Y-38875D03*
X64112Y-38267D03*
G54D73*
X64131Y-38903D03*
G54D64*
X64131Y-38229D03*
G54D74*
X64150Y-38922D03*
G54D60*
X64150Y-38210D03*
G54D75*
X64169Y-38932D03*
X64169Y-38210D03*
G54D57*
X64188Y-38932D03*
G54D72*
X64188Y-38571D03*
G54D76*
X64188Y-38200D03*
G54D77*
X64207Y-38941D03*
G54D61*
X64207Y-38561D03*
G54D77*
X64207Y-38200D03*
G54D78*
X64226Y-38571D03*
G54D66*
X64245Y-38571D03*
G54D79*
X64264Y-38571D03*
G54D73*
X64283Y-38751D03*
G54D64*
X64283Y-38381D03*
G54D60*
X64302Y-38780D03*
X64302Y-38362D03*
G54D80*
X64321Y-38789D03*
X64321Y-38352D03*
G54D81*
X64340Y-38799D03*
X64340Y-38343D03*
G54D75*
X64359Y-41915D03*
G54D82*
X64358Y-41464D03*
G54D83*
X64362Y-40712D03*
G54D80*
X64359Y-40024D03*
G54D62*
X64359Y-39606D03*
G54D57*
X64359Y-38571D03*
G54D84*
X64378Y-41905D03*
G54D57*
X64378Y-40946D03*
G54D85*
X64378Y-40699D03*
G54D84*
X64378Y-40024D03*
G54D61*
X64378Y-39587D03*
G54D64*
X64378Y-38571D03*
G54D84*
X64397Y-41905D03*
G54D60*
X64397Y-41478D03*
G54D57*
X64397Y-41326D03*
X64397Y-40946D03*
G54D65*
X64397Y-40689D03*
G54D84*
X64397Y-40024D03*
G54D65*
X64397Y-39568D03*
G54D71*
X64397Y-38571D03*
G54D84*
X64416Y-41905D03*
G54D60*
X64416Y-41478D03*
G54D57*
X64416Y-41307D03*
X64416Y-40965D03*
G54D86*
X64416Y-40680D03*
G54D84*
X64416Y-40024D03*
G54D86*
X64416Y-39559D03*
G54D87*
X64416Y-38571D03*
G54D60*
X64435Y-41896D03*
X64435Y-41478D03*
G54D57*
X64435Y-41307D03*
X64435Y-40965D03*
G54D75*
X64435Y-40528D03*
G54D60*
X64435Y-40034D03*
G54D84*
X64435Y-39416D03*
G54D57*
X64435Y-38685D03*
X64435Y-38457D03*
G54D60*
X64454Y-41896D03*
X64454Y-41478D03*
G54D57*
X64454Y-41288D03*
X64454Y-40984D03*
G54D80*
X64454Y-40499D03*
G54D74*
X64454Y-40024D03*
G54D75*
X64454Y-39388D03*
G54D77*
X64454Y-38694D03*
X64454Y-38447D03*
G54D60*
X64473Y-41896D03*
G54D74*
X64473Y-41487D03*
G54D57*
X64473Y-41288D03*
X64473Y-40984D03*
X64473Y-40490D03*
G54D76*
X64473Y-40081D03*
G54D57*
X64473Y-39977D03*
G54D80*
X64473Y-39359D03*
G54D60*
X64492Y-41896D03*
G54D74*
X64492Y-41487D03*
G54D57*
X64492Y-41269D03*
G54D76*
X64492Y-40993D03*
G54D57*
X64492Y-40490D03*
X64492Y-40091D03*
G54D76*
X64492Y-39967D03*
G54D80*
X64492Y-39359D03*
G54D74*
X64511Y-41886D03*
X64511Y-41487D03*
G54D57*
X64511Y-41269D03*
X64511Y-41003D03*
X64511Y-40471D03*
X64511Y-40091D03*
X64511Y-39958D03*
G54D80*
X64511Y-39340D03*
G54D76*
X64530Y-41829D03*
G54D74*
X64530Y-41487D03*
G54D57*
X64530Y-41250D03*
G54D76*
X64530Y-41012D03*
G54D57*
X64530Y-40471D03*
X64530Y-40091D03*
X64530Y-39958D03*
X64530Y-39331D03*
G54D76*
X64549Y-41829D03*
G54D64*
X64549Y-41497D03*
G54D57*
X64549Y-41250D03*
X64549Y-41022D03*
X64549Y-40471D03*
G54D76*
X64549Y-40100D03*
G54D57*
X64549Y-39958D03*
X64549Y-39331D03*
X64568Y-41820D03*
X64568Y-41554D03*
X64568Y-41231D03*
G54D76*
X64568Y-41031D03*
G54D57*
X64568Y-40471D03*
X64568Y-40110D03*
G54D76*
X64568Y-39948D03*
G54D88*
X64568Y-38789D03*
G54D62*
X64568Y-38333D03*
G54D76*
X64587Y-41810D03*
X64587Y-41563D03*
G54D57*
X64587Y-41231D03*
X64587Y-41041D03*
X64587Y-40471D03*
X64587Y-40110D03*
X64587Y-39939D03*
G54D71*
X64587Y-38780D03*
G54D62*
X64587Y-38333D03*
G54D76*
X64606Y-41810D03*
G54D57*
X64606Y-41573D03*
X64606Y-41212D03*
G54D76*
X64606Y-41050D03*
G54D57*
X64606Y-40490D03*
G54D76*
X64606Y-40119D03*
G54D57*
X64606Y-39939D03*
G54D87*
X64606Y-38761D03*
G54D62*
X64606Y-38333D03*
G54D76*
X64625Y-41810D03*
G54D57*
X64625Y-41573D03*
X64625Y-41212D03*
X64625Y-41060D03*
G54D80*
X64625Y-40499D03*
G54D57*
X64625Y-40129D03*
X64625Y-39939D03*
G54D87*
X64625Y-38761D03*
G54D62*
X64625Y-38333D03*
G54D57*
X64644Y-41801D03*
X64644Y-41573D03*
X64644Y-41193D03*
G54D76*
X64644Y-41069D03*
G54D80*
X64644Y-40518D03*
G54D57*
X64644Y-40129D03*
X64644Y-39920D03*
G54D75*
X64644Y-38647D03*
G54D76*
X64663Y-41791D03*
X64663Y-41582D03*
G54D74*
X64663Y-41126D03*
G54D84*
X64663Y-40537D03*
G54D57*
X64663Y-40129D03*
X64663Y-39920D03*
X64663Y-38628D03*
G54D76*
X64682Y-41791D03*
G54D57*
X64682Y-41592D03*
G54D60*
X64682Y-41136D03*
G54D86*
X64682Y-40680D03*
G54D76*
X64682Y-40138D03*
G54D57*
X64682Y-39920D03*
X64682Y-38609D03*
G54D76*
X64701Y-41791D03*
G54D57*
X64701Y-41592D03*
G54D84*
X64701Y-41126D03*
G54D65*
X64701Y-40689D03*
G54D57*
X64701Y-40148D03*
X64701Y-39901D03*
G54D89*
X64704Y-39711D03*
G54D90*
X64701Y-38875D03*
G54D57*
X64701Y-38609D03*
G54D90*
X64701Y-38438D03*
G54D57*
X64720Y-41782D03*
G54D76*
X64720Y-41601D03*
G54D75*
X64720Y-41136D03*
G54D61*
X64720Y-40708D03*
G54D57*
X64720Y-40148D03*
X64720Y-39901D03*
G54D76*
X64720Y-38618D03*
G54D56*
X64791Y-41934D03*
G54D76*
X64739Y-41772D03*
X64739Y-41601D03*
G54D87*
X64739Y-40718D03*
G54D57*
X64739Y-40148D03*
X64739Y-39901D03*
X64739Y-38628D03*
G54D76*
X64758Y-41772D03*
G54D57*
X64758Y-41611D03*
X64758Y-40604D03*
G54D80*
X64758Y-40157D03*
G54D57*
X64758Y-39901D03*
G54D80*
X64758Y-38637D03*
G54D57*
X64777Y-41763D03*
X64777Y-41611D03*
G54D80*
X64777Y-40594D03*
G54D91*
X64777Y-40024D03*
G54D87*
X64777Y-38761D03*
G54D72*
X64777Y-38362D03*
G54D76*
X64796Y-41753D03*
X64796Y-41620D03*
G54D57*
X64796Y-40585D03*
G54D65*
X64796Y-40024D03*
G54D62*
X64796Y-38770D03*
G54D72*
X64796Y-38362D03*
G54D76*
X64815Y-41753D03*
X64815Y-41620D03*
G54D80*
X64815Y-40575D03*
G54D65*
X64815Y-40024D03*
G54D71*
X64815Y-38780D03*
G54D72*
X64815Y-38362D03*
G54D76*
X64834Y-41753D03*
G54D57*
X64834Y-41630D03*
G54D80*
X64834Y-40575D03*
G54D92*
X64834Y-40024D03*
G54D93*
X64701Y-39311D03*
G54D88*
X64834Y-38789D03*
G54D72*
X64834Y-38362D03*
G54D57*
X64853Y-41744D03*
X64853Y-41630D03*
X64853Y-40566D03*
X64853Y-40186D03*
X64853Y-39863D03*
G54D80*
X64853Y-39321D03*
X64853Y-38694D03*
G54D76*
X64872Y-41734D03*
X64872Y-41639D03*
G54D80*
X64872Y-40556D03*
G54D57*
X64872Y-40186D03*
X64872Y-39863D03*
X64872Y-39331D03*
X64872Y-38685D03*
G54D60*
X64891Y-41687D03*
G54D57*
X64891Y-40547D03*
X64891Y-40205D03*
X64891Y-39863D03*
G54D80*
X64891Y-39340D03*
G54D57*
X64891Y-38685D03*
G54D60*
X64910Y-41687D03*
G54D80*
X64910Y-40537D03*
G54D57*
X64910Y-40205D03*
X64910Y-39844D03*
X64910Y-39350D03*
X64910Y-38666D03*
G54D84*
X64929Y-41696D03*
G54D80*
X64929Y-40537D03*
G54D57*
X64929Y-40205D03*
X64929Y-39844D03*
G54D80*
X64929Y-39359D03*
G54D57*
X64929Y-38666D03*
G54D75*
X64948Y-41687D03*
G54D57*
X64948Y-40528D03*
X64948Y-40205D03*
X64948Y-39844D03*
G54D80*
X64948Y-39378D03*
G54D57*
X64948Y-38647D03*
G54D94*
X64945Y-38438D03*
G54D75*
X64967Y-41687D03*
G54D80*
X64967Y-40518D03*
G54D57*
X64967Y-40224D03*
X64967Y-39825D03*
G54D84*
X64967Y-39397D03*
G54D94*
X64945Y-38875D03*
G54D57*
X64967Y-38647D03*
G54D75*
X64986Y-41687D03*
G54D57*
X64986Y-40509D03*
G54D95*
X64712Y-40345D03*
G54D57*
X64986Y-40224D03*
X64986Y-39825D03*
G54D80*
X64986Y-39701D03*
G54D64*
X64986Y-39445D03*
G54D57*
X64986Y-39141D03*
X64986Y-38628D03*
X65005Y-41687D03*
G54D80*
X65005Y-40499D03*
G54D57*
X65005Y-40224D03*
X65005Y-39825D03*
G54D86*
X65005Y-39559D03*
G54D75*
X65005Y-39141D03*
G54D57*
X65005Y-38628D03*
X65024Y-41687D03*
X65024Y-40490D03*
X65024Y-40224D03*
X65024Y-39825D03*
G54D85*
X65024Y-39578D03*
G54D60*
X65024Y-39141D03*
G54D76*
X65024Y-38618D03*
G54D57*
X65043Y-41687D03*
G54D80*
X65043Y-40480D03*
G54D63*
X65043Y-39826D03*
G54D57*
X65043Y-38609D03*
G54D81*
X65062Y-41687D03*
G54D51*
X65110Y-39141D03*
G54D96*
X65195Y-40091D03*
X65214Y-40091D03*
X65233Y-40091D03*
G54D74*
X65386Y-39141D03*
G54D60*
X65404Y-39141D03*
G54D75*
X65421Y-39141D03*
G54D97*
X58242Y-40948D03*
X58242Y-40580D03*
X58242Y-40216D03*
X58242Y-39845D03*
X58242Y-39480D03*
X58242Y-39113D03*
X58437Y-39113D03*
X58439Y-39480D03*
X58439Y-39845D03*
X58439Y-40216D03*
X58439Y-40580D03*
X58439Y-40948D03*
X58827Y-40948D03*
X58827Y-40580D03*
X58827Y-40216D03*
X58827Y-39845D03*
X58827Y-39480D03*
X58827Y-39113D03*
X58630Y-39113D03*
X58630Y-39480D03*
X58630Y-39845D03*
X58630Y-40216D03*
X58630Y-40580D03*
X58630Y-40948D03*
X57462Y-40948D03*
X57462Y-40580D03*
X57462Y-40216D03*
X57462Y-39845D03*
X57462Y-39480D03*
X57462Y-39113D03*
X57657Y-39113D03*
X57659Y-39480D03*
X57659Y-39845D03*
X57659Y-40216D03*
X57659Y-40580D03*
X57659Y-40948D03*
X58047Y-40948D03*
X58047Y-40580D03*
X58047Y-40216D03*
X58047Y-39845D03*
X58047Y-39480D03*
X58047Y-39113D03*
X57850Y-39113D03*
X57850Y-39480D03*
X57850Y-39845D03*
X57850Y-40216D03*
X57850Y-40580D03*
X57850Y-40948D03*
X57067Y-40948D03*
X57067Y-40580D03*
X57067Y-40216D03*
X57067Y-39845D03*
X57067Y-39480D03*
X57067Y-39113D03*
X57264Y-39113D03*
X57265Y-39480D03*
X57265Y-39845D03*
X57265Y-40216D03*
X57265Y-40580D03*
X57265Y-40948D03*
X56875Y-40948D03*
X56875Y-40580D03*
X56875Y-40216D03*
X56875Y-39845D03*
X56875Y-39480D03*
X56875Y-39113D03*
G54D98*
X58836Y-38554D03*
X59033Y-38554D03*
X58638Y-38554D03*
X58441Y-38554D03*
X58245Y-38554D03*
X58048Y-38554D03*
X57851Y-38554D03*
X57655Y-38554D03*
X57458Y-38554D03*
X57260Y-38554D03*
X57063Y-38554D03*
X56866Y-38554D03*
X56671Y-38554D03*
G54D99*
X59130Y-38330D03*
X58933Y-38330D03*
X58738Y-38330D03*
X58541Y-38330D03*
X58343Y-38330D03*
X58146Y-38330D03*
X57950Y-38330D03*
X57753Y-38330D03*
X57556Y-38330D03*
X57360Y-38330D03*
X57163Y-38330D03*
X56966Y-38330D03*
X56768Y-38330D03*
X56571Y-38330D03*
G54D98*
X56473Y-38554D03*
G54D100*
X59453Y-38653D03*
G54D98*
X59228Y-38753D03*
G54D100*
X59453Y-38852D03*
X59453Y-39048D03*
X59453Y-39245D03*
X59453Y-39442D03*
X59453Y-39638D03*
X59451Y-39835D03*
X59453Y-40032D03*
X59453Y-40228D03*
X59453Y-40427D03*
X59453Y-40622D03*
X59453Y-40820D03*
X59453Y-41017D03*
X59453Y-41212D03*
X59453Y-41400D03*
G54D98*
X59228Y-38950D03*
X59228Y-39145D03*
X59228Y-39343D03*
X59228Y-39540D03*
X59228Y-39737D03*
X59228Y-39933D03*
X59228Y-40132D03*
X59228Y-40327D03*
X59228Y-40523D03*
X59228Y-40722D03*
X59228Y-40918D03*
X59228Y-41312D03*
X59228Y-41115D03*
X58830Y-41505D03*
X59026Y-41505D03*
X58633Y-41505D03*
X58436Y-41505D03*
X58238Y-41505D03*
X58043Y-41505D03*
X57846Y-41505D03*
X57648Y-41505D03*
X57451Y-41505D03*
X57255Y-41505D03*
X57058Y-41505D03*
X56860Y-41505D03*
X56665Y-41505D03*
G54D99*
X59123Y-41730D03*
X58926Y-41730D03*
X58731Y-41730D03*
X58535Y-41730D03*
X58338Y-41730D03*
X58141Y-41730D03*
X57943Y-41730D03*
X57746Y-41730D03*
X57550Y-41729D03*
X57353Y-41730D03*
X57156Y-41730D03*
X56960Y-41730D03*
X56763Y-41730D03*
X56566Y-41730D03*
G54D98*
X56468Y-41505D03*
G54D99*
X56368Y-41730D03*
X56374Y-38330D03*
G54D100*
X56051Y-38652D03*
G54D98*
X56276Y-38751D03*
G54D100*
X56051Y-38849D03*
X56051Y-39046D03*
X56051Y-39243D03*
X56051Y-39440D03*
X56051Y-39637D03*
X56051Y-39833D03*
X56051Y-40030D03*
X56051Y-40227D03*
X56051Y-40424D03*
X56051Y-40621D03*
X56051Y-40818D03*
X56051Y-41015D03*
X56051Y-41210D03*
X56051Y-41407D03*
G54D98*
X56276Y-38948D03*
X56276Y-39144D03*
X56276Y-39341D03*
X56276Y-39538D03*
X56276Y-39735D03*
X56276Y-39932D03*
X56276Y-40129D03*
X56276Y-40326D03*
X56276Y-40522D03*
X56276Y-40719D03*
X56276Y-40916D03*
X56276Y-41310D03*
X56276Y-41113D03*
G54D97*
X56679Y-39113D03*
X56679Y-39480D03*
X56679Y-39845D03*
X56679Y-40216D03*
X56679Y-40580D03*
X56679Y-40948D03*
G54D39*
X63314Y-31834D03*
X62314Y-31834D03*
X61314Y-31834D03*
G54D40*
X59314Y-31814D03*
G54D39*
X60314Y-31834D03*
X63043Y-48350D03*
X62043Y-48350D03*
X61043Y-48350D03*
G54D40*
X59043Y-48330D03*
G54D39*
X60043Y-48350D03*
G54D14*
X56783Y-43173D03*
X61728Y-40646D03*
X61398Y-43563D03*
X61821Y-42018D03*
X61594Y-38083D03*
X55748Y-43512D03*
X55032Y-45276D03*
X58976Y-46772D03*
G54D15*
X60177Y-35130D03*
G54D14*
X54949Y-37343D03*
G54D15*
X52646Y-37508D03*
G54D14*
X54221Y-34441D03*
X51169Y-34244D03*
X57756Y-43449D03*
G54D15*
X56949Y-42618D03*
G54D14*
X58264Y-43146D03*
X61614Y-45787D03*
X60142Y-42921D03*
G54D15*
X55299Y-38228D03*
G54D14*
X62039Y-39803D03*
X59910Y-37815D03*
X62036Y-39500D03*
G54D15*
X49256Y-36028D03*
X53323Y-36453D03*
G54D14*
X50921Y-43799D03*
X51012Y-36701D03*
G54D15*
X48154Y-36225D03*
X48154Y-35831D03*
G54D14*
X48158Y-36717D03*
X48150Y-39079D03*
X48189Y-41437D03*
G54D15*
X48032Y-37599D03*
X48047Y-38189D03*
X48024Y-39571D03*
X48028Y-40551D03*
X48032Y-41933D03*
X48032Y-42918D03*
X48197Y-43508D03*
G54D14*
X48138Y-43807D03*
G54D15*
X48102Y-44492D03*
X50921Y-44492D03*
G54D14*
X58002Y-47500D03*
G54D15*
X59961Y-44311D03*
X58626Y-44390D03*
X58413Y-43508D03*
X60205Y-43484D03*
X61614Y-45291D03*
X60531Y-45295D03*
X59882Y-37386D03*
X58256Y-36228D03*
X57106Y-36587D03*
G54D14*
X58616Y-45230D03*
G54D15*
X61102Y-40835D03*
G54D14*
X57668Y-44518D03*
G54D15*
X52012Y-34799D03*
X61264Y-40071D03*
X54457Y-43477D03*
G54D14*
X53465Y-45815D03*
G54D15*
X54579Y-44225D03*
G54D14*
X54268Y-46508D03*
G54D15*
X60441Y-34681D03*
G54D14*
X57984Y-48284D03*
G54D15*
X61957Y-34823D03*
X60906Y-36260D03*
X61957Y-35933D03*
X62154Y-36559D03*
X61228Y-42177D03*
X60882Y-38087D03*
X60780Y-39406D03*
X59350Y-37213D03*
G54D101*
X56091Y-35378D03*
X55579Y-35130D03*
G54D15*
X59508Y-36051D03*
X59650Y-35925D03*
X57094Y-35291D03*
X58354Y-35528D03*
X58370Y-36783D03*
X48165Y-37402D03*
X60266Y-35482D03*
X48193Y-37205D03*
X60246Y-35719D03*
X49132Y-37012D03*
X49565Y-42918D03*
X62392Y-45541D03*
G54D14*
X55217Y-44988D03*
G54D15*
X60030Y-41211D03*
G54D102*
X59065Y-39931D03*
G54D15*
X56957Y-42059D03*
G54D102*
X56663Y-41339D03*
G54D15*
X60319Y-39984D03*
G54D102*
X56870Y-38720D03*
G54D15*
X55981Y-37386D03*
G54D102*
X59065Y-38750D03*
G54D14*
X52811Y-44992D03*
X53539Y-43862D03*
X53539Y-44197D03*
G54D102*
X59075Y-41112D03*
G54D15*
X60039Y-41437D03*
X55638Y-36756D03*
G54D102*
X57067Y-38720D03*
G54D15*
X59272Y-41807D03*
X59748Y-39020D03*
G54D102*
X58238Y-41339D03*
X59065Y-39144D03*
X59065Y-38947D03*
X59055Y-40128D03*
X57854Y-38720D03*
G54D15*
X59150Y-37972D03*
G54D102*
X57057Y-41339D03*
G54D15*
X55933Y-38528D03*
G54D102*
X56437Y-39734D03*
X56437Y-40325D03*
G54D15*
X56260Y-42953D03*
G54D102*
X56860Y-41339D03*
G54D14*
X60154Y-42638D03*
G54D102*
X59065Y-41309D03*
G54D15*
X55394Y-39638D03*
X53650Y-41536D03*
G54D102*
X56437Y-41112D03*
G54D15*
X53583Y-40201D03*
G54D102*
X56437Y-39931D03*
G54D15*
X55831Y-39047D03*
G54D102*
X56437Y-40915D03*
G54D15*
X53579Y-41925D03*
X53602Y-40559D03*
G54D102*
X56437Y-40128D03*
G54D15*
X55303Y-40032D03*
X53662Y-38355D03*
G54D102*
X56437Y-38750D03*
G54D15*
X55709Y-39445D03*
X52193Y-35890D03*
X59740Y-40740D03*
X54453Y-37319D03*
X51721Y-37508D03*
X54721Y-36075D03*
X59787Y-39870D03*
X55555Y-39028D03*
G54D102*
X56437Y-38947D03*
G54D15*
X53662Y-38555D03*
X53610Y-39571D03*
G54D102*
X56437Y-39537D03*
G54D15*
X53626Y-39370D03*
G54D102*
X56437Y-39341D03*
G54D15*
X53579Y-42122D03*
G54D102*
X56437Y-40719D03*
G54D15*
X55772Y-40232D03*
X55890Y-41016D03*
X55260Y-41209D03*
X55815Y-41406D03*
X55445Y-41846D03*
X56303Y-41937D03*
X53650Y-38981D03*
G54D102*
X56437Y-39144D03*
G54D15*
X53587Y-41040D03*
G54D102*
X56437Y-40522D03*
G54D15*
X55288Y-40421D03*
X55701Y-40618D03*
X55366Y-40819D03*
X55705Y-41839D03*
G54D102*
X59065Y-40325D03*
G54D15*
X51732Y-36461D03*
X53591Y-41236D03*
G54D102*
X56447Y-41309D03*
G54D15*
X59951Y-40876D03*
X51728Y-36957D03*
G54D102*
X59065Y-40522D03*
G54D15*
X52870Y-37327D03*
X51728Y-37240D03*
X52870Y-36752D03*
X59669Y-40425D03*
X55736Y-39831D03*
X53906Y-34843D03*
X48193Y-37984D03*
X52906Y-35095D03*
X52543Y-37827D03*
X57205Y-42071D03*
X60473Y-41000D03*
G54D102*
X59065Y-40915D03*
X59065Y-39341D03*
G54D15*
X60339Y-39244D03*
X57465Y-41937D03*
G54D102*
X57254Y-41339D03*
G54D15*
X59646Y-40225D03*
X54736Y-36331D03*
X49354Y-37402D03*
X53071Y-34862D03*
X52276Y-40847D03*
X52248Y-40394D03*
X48185Y-39965D03*
X48221Y-38386D03*
X52516Y-38162D03*
X48201Y-39768D03*
X52232Y-40016D03*
X48197Y-39370D03*
X52402Y-39815D03*
X48079Y-38783D03*
X52386Y-39181D03*
X48193Y-38591D03*
X52366Y-38772D03*
G54D102*
X59065Y-39734D03*
G54D15*
X51445Y-35929D03*
X52213Y-40654D03*
X48181Y-40355D03*
X55984Y-38016D03*
X56319Y-38122D03*
X56575Y-38130D03*
G54D102*
X56673Y-38711D03*
G54D15*
X49744Y-36425D03*
X49634Y-37205D03*
X49917Y-37012D03*
X49748Y-36225D03*
X51717Y-37992D03*
X52535Y-41732D03*
X48173Y-42331D03*
X52118Y-42354D03*
X54984Y-43063D03*
X48173Y-40748D03*
X55453Y-43067D03*
X51752Y-40748D03*
X48181Y-42130D03*
X51917Y-42355D03*
X48197Y-41732D03*
X51398Y-42355D03*
X48075Y-41142D03*
X51638Y-42355D03*
X48201Y-40949D03*
X54721Y-43055D03*
X51091Y-40949D03*
X55225Y-43067D03*
G54D102*
X59065Y-40719D03*
G54D15*
X51669Y-35288D03*
G54D102*
X58435Y-41339D03*
G54D15*
X58536Y-41973D03*
X59281Y-42067D03*
X58740Y-41969D03*
X52465Y-41043D03*
X49535Y-42618D03*
X48154Y-42725D03*
G54D14*
X51169Y-44827D03*
X51169Y-45063D03*
G54D103*
X54752Y-45276D02*
X55032Y-45276D01*
X54542Y-45276D02*
X54752Y-45276D01*
G54D104*
X58976Y-46919D02*
X58976Y-46772D01*
X58976Y-46919D02*
X58977Y-47051D01*
X59843Y-43123D02*
X59940Y-43123D01*
X59940Y-43123D02*
X60142Y-42921D01*
X58799Y-43133D02*
X58277Y-43133D01*
X58277Y-43133D02*
X58264Y-43146D01*
X60215Y-35281D02*
X60177Y-35243D01*
X60177Y-35243D02*
X60177Y-35130D01*
X60215Y-35281D02*
X60619Y-35281D01*
X51445Y-34552D02*
X51169Y-34244D01*
X51445Y-34552D02*
X51445Y-35036D01*
G54D105*
X62000Y-45799D02*
X61764Y-45799D01*
X61764Y-45799D02*
X61614Y-45787D01*
G54D12*
X57756Y-43449D02*
X57756Y-43409D01*
X57067Y-42500D02*
X56949Y-42618D01*
X57123Y-42500D02*
X57067Y-42500D01*
X58272Y-43150D02*
X58264Y-43146D01*
G54D104*
X58272Y-43150D02*
X58270Y-42520D01*
G54D105*
X55299Y-38335D02*
X55299Y-38228D01*
X55299Y-38559D02*
X55299Y-38335D01*
G54D106*
X62571Y-35299D02*
X65854Y-35299D01*
X61992Y-45028D02*
X62350Y-45028D01*
X62350Y-45028D02*
X62575Y-44803D01*
X62575Y-44803D02*
X65679Y-44803D01*
X65679Y-44803D02*
X65679Y-44803D01*
G54D12*
X48154Y-36225D02*
X48158Y-36225D01*
G54D104*
X58740Y-41505D02*
X58740Y-40795D01*
X58740Y-40795D02*
X58732Y-40787D01*
X58830Y-41505D02*
X58740Y-41505D01*
X58740Y-41505D02*
X58633Y-41505D01*
X58830Y-41505D02*
X58830Y-40885D01*
X58830Y-40885D02*
X58732Y-40787D01*
X58633Y-41232D02*
X58633Y-41122D01*
X58633Y-41122D02*
X58515Y-41004D01*
X58633Y-41505D02*
X58633Y-41232D01*
X58638Y-38554D02*
X58638Y-38961D01*
X58638Y-38961D02*
X58732Y-39055D01*
X58048Y-38554D02*
X58048Y-39238D01*
X58048Y-39238D02*
X58082Y-39272D01*
X58245Y-38554D02*
X58245Y-39001D01*
X58245Y-39001D02*
X58299Y-39055D01*
X57866Y-39055D02*
X57866Y-39056D01*
X57866Y-39056D02*
X58082Y-39272D01*
X58082Y-39272D02*
X58299Y-39055D01*
X58150Y-38554D02*
X58150Y-39055D01*
X57866Y-39055D02*
X58150Y-39055D01*
X58150Y-39055D02*
X58299Y-39055D01*
X58048Y-38554D02*
X58150Y-38554D01*
X58150Y-38554D02*
X58245Y-38554D01*
G54D107*
X57508Y-47500D02*
X58002Y-47500D01*
G54D12*
X60032Y-44606D02*
X60032Y-44390D01*
X60032Y-44390D02*
X59961Y-44311D01*
X58622Y-44606D02*
X58626Y-44555D01*
X58626Y-44555D02*
X58626Y-44390D01*
X58437Y-43504D02*
X58413Y-43508D01*
X58622Y-43504D02*
X58437Y-43504D01*
X60032Y-43484D02*
X60205Y-43484D01*
G54D104*
X62005Y-45289D02*
X61616Y-45289D01*
X61616Y-45289D02*
X61614Y-45291D01*
X60235Y-45543D02*
X60280Y-45543D01*
X60280Y-45543D02*
X60531Y-45295D01*
X60235Y-45289D02*
X60522Y-45289D01*
X60522Y-45289D02*
X60531Y-45295D01*
G54D105*
X59665Y-37406D02*
X59882Y-37386D01*
X59665Y-37406D02*
X59665Y-37654D01*
G54D12*
X58472Y-36228D02*
X58256Y-36228D01*
X57102Y-36787D02*
X57102Y-36591D01*
X57102Y-36591D02*
X57106Y-36587D01*
G54D104*
X58388Y-45230D02*
X58616Y-45230D01*
X58172Y-45226D02*
X58258Y-45226D01*
X58172Y-45226D02*
X58192Y-45233D01*
X58192Y-45233D02*
X58388Y-45230D01*
G54D108*
X57666Y-44516D02*
X57668Y-44518D01*
G54D104*
X60441Y-34681D02*
X60441Y-35071D01*
X60454Y-35084D02*
X60619Y-35084D01*
X60441Y-35071D02*
X60454Y-35084D01*
G54D109*
X57518Y-48284D02*
X57984Y-48284D01*
G54D105*
X61298Y-34799D02*
X61298Y-35281D01*
X61298Y-35281D02*
X61299Y-35477D01*
X61298Y-35960D02*
X61298Y-35477D01*
G54D11*
X61298Y-35477D02*
X61299Y-35477D01*
G54D105*
X61823Y-35476D02*
X61298Y-35477D01*
G54D11*
X61298Y-35477D02*
X61299Y-35477D01*
G54D105*
X61781Y-35084D02*
X61961Y-35079D01*
X61961Y-35079D02*
X61957Y-34823D01*
X61957Y-34823D02*
X61957Y-34823D01*
X60905Y-35960D02*
X60906Y-36063D01*
X60906Y-36063D02*
X60906Y-36260D01*
X61781Y-35674D02*
X61780Y-35677D01*
X61780Y-35677D02*
X61957Y-35673D01*
X61957Y-35673D02*
X61957Y-35933D01*
G54D104*
X61870Y-36559D02*
X62154Y-36559D01*
G54D110*
X60197Y-41870D02*
X60197Y-41520D01*
X61102Y-40712D02*
X61102Y-40835D01*
X61228Y-42177D02*
X61228Y-40992D01*
X61228Y-40992D02*
X61102Y-40835D01*
X61224Y-42173D02*
X61228Y-42177D01*
X61228Y-42324D02*
X61127Y-42425D01*
X61127Y-42425D02*
X60303Y-42425D01*
X60303Y-42425D02*
X60205Y-42327D01*
X60205Y-42327D02*
X60205Y-42181D01*
X61228Y-42177D02*
X61228Y-42324D01*
X60831Y-40835D02*
X60827Y-40831D01*
X61102Y-40835D02*
X60831Y-40835D01*
X60197Y-40792D02*
X60197Y-41520D01*
X60347Y-40642D02*
X60197Y-40792D01*
X61032Y-40642D02*
X60347Y-40642D01*
X61102Y-40712D02*
X61032Y-40642D01*
G54D12*
X60882Y-38087D02*
X60882Y-37996D01*
X60618Y-38110D02*
X60641Y-38087D01*
X60641Y-38087D02*
X60882Y-38087D01*
X60012Y-38008D02*
X60012Y-38276D01*
X60098Y-37921D02*
X60012Y-38008D01*
X60788Y-37921D02*
X60098Y-37921D01*
X60882Y-37996D02*
X60788Y-37921D01*
G54D110*
X60882Y-38087D02*
X60882Y-39299D01*
X60882Y-39299D02*
X60776Y-39405D01*
G54D12*
X60618Y-38414D02*
X60618Y-38110D01*
G54D110*
X60776Y-39405D02*
X60780Y-39406D01*
X60780Y-39406D02*
X60780Y-39551D01*
X60035Y-39504D02*
X60035Y-38630D01*
X60177Y-39646D02*
X60035Y-39504D01*
X60685Y-39646D02*
X60177Y-39646D01*
X60780Y-39551D02*
X60685Y-39646D01*
X60780Y-39406D02*
X60618Y-39406D01*
X60815Y-42173D02*
X61224Y-42173D01*
X60815Y-41862D02*
X60815Y-42173D01*
G54D105*
X59130Y-38330D02*
X59147Y-38330D01*
X59147Y-38330D02*
X59354Y-38123D01*
X59354Y-38123D02*
X59350Y-37213D01*
G54D108*
X56079Y-35874D02*
X56079Y-35374D01*
X56079Y-35374D02*
X56091Y-35378D01*
X55579Y-34623D02*
X55579Y-35130D01*
X57666Y-43982D02*
X57666Y-44516D01*
G54D12*
X59577Y-36230D02*
X59577Y-36073D01*
X59577Y-36073D02*
X59508Y-36051D01*
X59602Y-35744D02*
X59602Y-35858D01*
X59602Y-35858D02*
X59650Y-35925D01*
X58460Y-35634D02*
X58354Y-35528D01*
X58460Y-35634D02*
X58460Y-35740D01*
X57094Y-35512D02*
X57094Y-35315D01*
X57094Y-35315D02*
X57094Y-35291D01*
X58179Y-35522D02*
X58348Y-35522D01*
X58348Y-35522D02*
X58354Y-35528D01*
X58179Y-36781D02*
X58368Y-36781D01*
X58368Y-36781D02*
X58370Y-36783D01*
G54D111*
X48299Y-37402D02*
X48532Y-37457D01*
X48299Y-37402D02*
X48165Y-37402D01*
X60266Y-35482D02*
X60619Y-35477D01*
X48339Y-37205D02*
X48193Y-37205D01*
X48339Y-37205D02*
X48555Y-37126D01*
X60327Y-35674D02*
X60246Y-35719D01*
X60327Y-35674D02*
X60619Y-35674D01*
X61988Y-45543D02*
X62392Y-45541D01*
G54D103*
X55217Y-44988D02*
X55217Y-44622D01*
G54D12*
X59453Y-41212D02*
X60050Y-41212D01*
X60050Y-41212D02*
X60030Y-41211D01*
G54D110*
X60019Y-41212D02*
X60030Y-41211D01*
G54D104*
X59228Y-39933D02*
X59067Y-39933D01*
X59067Y-39933D02*
X59065Y-39931D01*
G54D12*
X56960Y-42064D02*
X56957Y-42059D01*
X56960Y-42064D02*
X56960Y-41730D01*
G54D104*
X56663Y-41339D02*
X56665Y-41505D01*
G54D110*
X60193Y-40031D02*
X60319Y-39984D01*
G54D12*
X60193Y-40031D02*
X59429Y-40031D01*
G54D104*
X56870Y-38720D02*
X56870Y-38553D01*
G54D111*
X55981Y-37386D02*
X55973Y-37386D01*
X56870Y-38553D02*
X56768Y-38398D01*
X56768Y-38398D02*
X56768Y-38330D01*
G54D104*
X59065Y-38750D02*
X59228Y-38753D01*
G54D107*
X52788Y-44906D02*
X53106Y-44906D01*
X52788Y-44906D02*
X52788Y-44912D01*
X52788Y-44912D02*
X52811Y-44992D01*
X52473Y-44906D02*
X52788Y-44906D01*
G54D104*
X53539Y-43862D02*
X53858Y-43858D01*
X53858Y-43858D02*
X53990Y-43882D01*
G54D112*
X53539Y-43870D02*
X53539Y-43862D01*
X53539Y-44197D02*
X53539Y-43870D01*
X53453Y-44036D02*
X53539Y-44197D01*
X52472Y-44036D02*
X53453Y-44036D01*
G54D111*
X59453Y-41017D02*
X59377Y-41017D01*
X59279Y-41115D02*
X59228Y-41115D01*
X59377Y-41017D02*
X59279Y-41115D01*
G54D104*
X59075Y-41112D02*
X59225Y-41112D01*
X59225Y-41112D02*
X59228Y-41115D01*
G54D110*
X60014Y-41400D02*
X60039Y-41437D01*
X60014Y-41400D02*
X59453Y-41400D01*
G54D109*
X56492Y-47343D02*
X55087Y-47343D01*
X57047Y-47480D02*
X56585Y-47480D01*
X56585Y-47480D02*
X56492Y-47343D01*
G54D104*
X55638Y-36756D02*
X55642Y-36760D01*
X57067Y-38720D02*
X57067Y-38553D01*
X57067Y-38553D02*
X57260Y-38554D01*
G54D105*
X59195Y-41730D02*
X59272Y-41807D01*
X59195Y-41730D02*
X59123Y-41730D01*
G54D104*
X59347Y-47051D02*
X59732Y-47051D01*
X59732Y-47051D02*
X59791Y-46992D01*
G54D110*
X59453Y-39048D02*
X59645Y-39048D01*
X59645Y-39048D02*
X59748Y-39020D01*
G54D104*
X58238Y-41505D02*
X58238Y-41339D01*
X57846Y-41505D02*
X57648Y-41505D01*
X57846Y-41505D02*
X58043Y-41505D01*
X58043Y-41505D02*
X58238Y-41505D01*
X59228Y-39145D02*
X59066Y-39145D01*
X59066Y-39145D02*
X59065Y-39144D01*
G54D12*
X59453Y-38852D02*
X59843Y-38854D01*
X59462Y-39236D02*
X59453Y-39245D01*
X59843Y-39240D02*
X59462Y-39236D01*
X59917Y-39173D02*
X59843Y-39240D01*
X59917Y-38929D02*
X59917Y-39173D01*
X59843Y-38854D02*
X59917Y-38929D01*
G54D111*
X59453Y-39245D02*
X59390Y-39217D01*
X59295Y-39217D02*
X59228Y-39145D01*
X59295Y-39217D02*
X59295Y-39217D01*
X59390Y-39217D02*
X59295Y-39217D01*
X59453Y-39442D02*
X59453Y-39445D01*
X59453Y-39445D02*
X59417Y-39481D01*
X59417Y-39481D02*
X59276Y-39481D01*
X59276Y-39481D02*
X59225Y-39500D01*
X59225Y-39500D02*
X59225Y-39551D01*
G54D110*
X59453Y-39245D02*
X59453Y-39442D01*
G54D104*
X59228Y-38950D02*
X59068Y-38950D01*
X59068Y-38950D02*
X59065Y-38947D01*
G54D105*
X56051Y-39243D02*
X55292Y-39243D01*
X55292Y-39243D02*
X55299Y-39236D01*
X55299Y-39236D02*
X55299Y-38929D01*
G54D104*
X59228Y-40132D02*
X59059Y-40132D01*
X59059Y-40132D02*
X59055Y-40128D01*
G54D12*
X57851Y-38554D02*
X57851Y-38554D01*
G54D104*
X57854Y-38720D02*
X57851Y-38554D01*
G54D111*
X58933Y-38232D02*
X58933Y-38330D01*
X58933Y-38232D02*
X59142Y-38126D01*
X59142Y-38126D02*
X59150Y-37972D01*
G54D104*
X57057Y-41339D02*
X57057Y-41504D01*
X57057Y-41504D02*
X57058Y-41505D01*
G54D12*
X56051Y-38652D02*
X55967Y-38652D01*
X55967Y-38652D02*
X55933Y-38618D01*
X55933Y-38618D02*
X55933Y-38528D01*
G54D104*
X56437Y-39734D02*
X56276Y-39735D01*
X56437Y-40325D02*
X56276Y-40326D01*
G54D12*
X56763Y-41730D02*
X56763Y-42056D01*
X56763Y-42056D02*
X56260Y-42559D01*
X56260Y-42559D02*
X56260Y-42953D01*
G54D104*
X56860Y-41505D02*
X56860Y-41339D01*
X59065Y-41309D02*
X59228Y-41312D01*
G54D12*
X55623Y-39637D02*
X55394Y-39638D01*
X56051Y-39637D02*
X55623Y-39637D01*
G54D104*
X56437Y-41112D02*
X56276Y-41113D01*
G54D111*
X56279Y-39932D02*
X56276Y-39932D01*
G54D104*
X56437Y-39931D02*
X56279Y-39932D01*
G54D12*
X56051Y-39046D02*
X55941Y-39047D01*
X55941Y-39047D02*
X55831Y-39047D01*
X55831Y-39047D02*
X55831Y-39047D01*
G54D104*
X56276Y-40916D02*
X56437Y-40915D01*
X56437Y-40128D02*
X56276Y-40129D01*
G54D12*
X56071Y-40032D02*
X55303Y-40032D01*
G54D104*
X56437Y-38750D02*
X56276Y-38751D01*
G54D12*
X55709Y-39441D02*
X56043Y-39441D01*
X55709Y-39441D02*
X55709Y-39445D01*
G54D110*
X59583Y-40622D02*
X59453Y-40622D01*
X59583Y-40622D02*
X59740Y-40740D01*
G54D111*
X59701Y-39835D02*
X59787Y-39870D01*
X59701Y-39835D02*
X59451Y-39835D01*
G54D12*
X55848Y-38849D02*
X55555Y-39028D01*
X56051Y-38849D02*
X55848Y-38849D01*
G54D104*
X56276Y-38948D02*
X56436Y-38948D01*
X56436Y-38948D02*
X56437Y-38947D01*
X56437Y-39537D02*
X56276Y-39538D01*
G54D111*
X56278Y-39341D02*
X56276Y-39341D01*
G54D104*
X56437Y-39341D02*
X56278Y-39341D01*
X56437Y-40719D02*
X56276Y-40719D01*
X56051Y-40227D02*
X55817Y-40227D01*
X55817Y-40227D02*
X55772Y-40232D01*
G54D12*
X55890Y-41016D02*
X56051Y-41015D01*
G54D11*
X55890Y-41016D02*
X55890Y-41016D01*
G54D12*
X55260Y-41209D02*
X56055Y-41209D01*
G54D11*
X55816Y-41407D02*
X55815Y-41406D01*
G54D12*
X56051Y-41407D02*
X55816Y-41407D01*
G54D111*
X56267Y-41505D02*
X56181Y-41591D01*
X56181Y-41591D02*
X55697Y-41591D01*
X55697Y-41591D02*
X55445Y-41846D01*
X56468Y-41505D02*
X56267Y-41505D01*
G54D12*
X56506Y-41937D02*
X56303Y-41937D01*
X56566Y-41877D02*
X56506Y-41937D01*
X56566Y-41877D02*
X56566Y-41730D01*
G54D104*
X56437Y-39144D02*
X56276Y-39144D01*
X56437Y-40522D02*
X56276Y-40522D01*
G54D12*
X55288Y-40421D02*
X56051Y-40421D01*
X56051Y-40621D02*
X55816Y-40621D01*
X55816Y-40621D02*
X55701Y-40618D01*
G54D11*
X55366Y-40819D02*
X56055Y-40815D01*
G54D111*
X55830Y-41730D02*
X55728Y-41832D01*
X55705Y-41839D02*
X55728Y-41832D01*
X56368Y-41730D02*
X55830Y-41730D01*
G54D104*
X59228Y-40327D02*
X59067Y-40327D01*
X59067Y-40327D02*
X59065Y-40325D01*
G54D111*
X51732Y-36461D02*
X51941Y-36461D01*
X51941Y-36461D02*
X51976Y-36496D01*
G54D104*
X56276Y-41310D02*
X56416Y-41310D01*
X56416Y-41310D02*
X56447Y-41309D01*
G54D111*
X59228Y-40523D02*
X59231Y-40523D01*
G54D104*
X59065Y-40522D02*
X59231Y-40523D01*
G54D111*
X59449Y-40425D02*
X59669Y-40425D01*
X59669Y-40425D02*
X59669Y-40425D01*
G54D11*
X56051Y-39833D02*
X55821Y-39833D01*
X55821Y-39833D02*
X55736Y-39831D01*
G54D12*
X61495Y-35960D02*
X61495Y-36554D01*
X61495Y-36554D02*
X61500Y-36559D01*
G54D106*
X61781Y-35281D02*
X62199Y-35281D01*
X62199Y-35281D02*
X62217Y-35299D01*
G54D104*
X57154Y-41717D02*
X57154Y-41913D01*
X57154Y-41949D02*
X57205Y-42071D01*
X57154Y-41913D02*
X57154Y-41949D01*
X59065Y-40915D02*
X59228Y-40918D01*
G54D110*
X60473Y-41181D02*
X60473Y-41540D01*
X60473Y-41000D02*
X60473Y-41181D01*
X60473Y-40831D02*
X60473Y-41000D01*
X60461Y-42012D02*
X60461Y-41890D01*
X59026Y-41505D02*
X59283Y-41504D01*
X59283Y-41504D02*
X59799Y-42024D01*
X59799Y-42024D02*
X60449Y-42024D01*
X60449Y-42024D02*
X60461Y-42012D01*
X60461Y-42012D02*
X60461Y-42173D01*
G54D104*
X59228Y-39343D02*
X59067Y-39343D01*
X59067Y-39343D02*
X59065Y-39341D01*
G54D110*
X60264Y-38772D02*
X60264Y-39079D01*
X60264Y-39079D02*
X60264Y-39150D01*
X60264Y-39150D02*
X60339Y-39244D01*
X60339Y-39244D02*
X60264Y-39319D01*
X60264Y-39319D02*
X60264Y-39406D01*
X59453Y-38653D02*
X59572Y-38653D01*
X59823Y-38402D02*
X60264Y-38402D01*
X59572Y-38653D02*
X59823Y-38402D01*
G54D12*
X60264Y-38402D02*
X60264Y-38110D01*
G54D110*
X60618Y-38784D02*
X60618Y-39079D01*
X60618Y-39079D02*
X60622Y-39083D01*
G54D12*
X59665Y-38300D02*
X59508Y-38300D01*
X59665Y-38024D02*
X59665Y-38300D01*
X59254Y-38554D02*
X59033Y-38554D01*
X59508Y-38300D02*
X59254Y-38554D01*
X60835Y-41173D02*
X60835Y-41496D01*
G54D104*
X57254Y-41339D02*
X57254Y-41504D01*
X57254Y-41504D02*
X57255Y-41505D01*
G54D111*
X57655Y-38554D02*
X57655Y-38537D01*
X57556Y-38438D02*
X57556Y-38330D01*
X57655Y-38537D02*
X57556Y-38438D01*
X58836Y-38554D02*
X58836Y-38517D01*
X58738Y-38419D02*
X58738Y-38330D01*
X58836Y-38517D02*
X58738Y-38419D01*
X57458Y-38554D02*
X57458Y-38529D01*
X57360Y-38431D02*
X57360Y-38330D01*
X57458Y-38529D02*
X57360Y-38431D01*
G54D12*
X56890Y-37220D02*
X56134Y-37220D01*
X56134Y-37220D02*
X55886Y-36972D01*
X55886Y-36972D02*
X55886Y-36480D01*
X57260Y-37221D02*
X57260Y-37099D01*
X56228Y-36780D02*
X56228Y-36500D01*
X56456Y-37008D02*
X56228Y-36780D01*
X57169Y-37008D02*
X56456Y-37008D01*
X57260Y-37099D02*
X57169Y-37008D01*
X56576Y-36547D02*
X56576Y-35877D01*
X56576Y-35877D02*
X56579Y-35874D01*
X55575Y-36473D02*
X55574Y-35879D01*
X55574Y-35879D02*
X55579Y-35874D01*
X56874Y-37567D02*
X56874Y-37961D01*
X56874Y-37961D02*
X56897Y-37984D01*
X56966Y-38330D02*
X56966Y-38053D01*
X56966Y-38053D02*
X56897Y-37984D01*
G54D106*
X57114Y-34433D02*
X56866Y-34433D01*
X57744Y-34433D02*
X57114Y-34433D01*
G54D111*
X56587Y-34623D02*
X56579Y-34623D01*
X56587Y-34776D02*
X56587Y-34623D01*
X57421Y-34776D02*
X56587Y-34776D01*
X57433Y-34776D02*
X57421Y-34776D01*
X57433Y-34642D02*
X57433Y-34776D01*
X57433Y-34642D02*
X57433Y-34642D01*
X56866Y-34642D02*
X57433Y-34642D01*
X56866Y-34433D02*
X56866Y-34642D01*
X56866Y-34433D02*
X56866Y-34433D01*
G54D12*
X57677Y-37225D02*
X57677Y-37022D01*
X57677Y-37022D02*
X57441Y-36786D01*
X57441Y-36786D02*
X57441Y-36289D01*
X57753Y-38330D02*
X57753Y-38041D01*
X57677Y-37965D02*
X57677Y-37579D01*
X57753Y-38041D02*
X57677Y-37965D01*
G54D106*
X57480Y-45803D02*
X56591Y-45803D01*
X56591Y-45803D02*
X56453Y-45795D01*
X56453Y-45795D02*
X56348Y-45728D01*
X56348Y-45728D02*
X56299Y-45659D01*
X56299Y-45659D02*
X56299Y-45453D01*
G54D11*
X56853Y-45203D02*
X56278Y-45203D01*
X56278Y-45203D02*
X56278Y-45034D01*
X56278Y-45034D02*
X57164Y-45034D01*
X56853Y-45427D02*
X56853Y-45207D01*
X56282Y-45427D02*
X56853Y-45427D01*
X56853Y-45207D02*
X56853Y-45203D01*
X57164Y-45030D02*
X57164Y-45230D01*
G54D12*
X57950Y-38330D02*
X57950Y-38086D01*
X58071Y-37965D02*
X58071Y-37579D01*
X57950Y-38086D02*
X58071Y-37965D01*
X58004Y-43287D02*
X58004Y-43421D01*
X58164Y-43581D02*
X58164Y-43981D01*
X58004Y-43421D02*
X58164Y-43581D01*
X58976Y-43885D02*
X58976Y-43504D01*
X58976Y-43504D02*
X59124Y-43356D01*
X59124Y-43356D02*
X59124Y-43130D01*
X58343Y-38330D02*
X58343Y-38247D01*
X58701Y-38126D02*
X58957Y-37870D01*
X58464Y-38126D02*
X58701Y-38126D01*
X58343Y-38247D02*
X58464Y-38126D01*
X58957Y-37870D02*
X58957Y-37665D01*
X58957Y-37665D02*
X59016Y-37606D01*
X59016Y-37606D02*
X59016Y-37484D01*
X59016Y-37484D02*
X59012Y-37480D01*
G54D111*
X58441Y-38554D02*
X58441Y-38501D01*
X58541Y-38401D02*
X58541Y-38330D01*
X58441Y-38501D02*
X58541Y-38401D01*
G54D12*
X58799Y-42793D02*
X59107Y-42793D01*
X59130Y-42770D02*
X59130Y-42477D01*
X59107Y-42793D02*
X59130Y-42770D01*
X59130Y-42477D02*
X58567Y-42476D01*
X58567Y-42476D02*
X58141Y-41960D01*
X58141Y-41960D02*
X58141Y-41730D01*
X57461Y-43287D02*
X57461Y-43386D01*
X57164Y-43683D02*
X57164Y-43981D01*
X57461Y-43386D02*
X57164Y-43683D01*
X59012Y-37126D02*
X59012Y-37047D01*
X59252Y-36807D02*
X59252Y-36587D01*
X59012Y-37047D02*
X59252Y-36807D01*
X59252Y-36587D02*
X59255Y-36584D01*
X59255Y-36584D02*
X59577Y-36584D01*
X59693Y-44232D02*
X59693Y-44605D01*
X59693Y-44605D02*
X59692Y-44606D01*
X58976Y-44606D02*
X58976Y-44225D01*
X59327Y-45031D02*
X59327Y-44614D01*
X59327Y-44614D02*
X59335Y-44606D01*
X58976Y-44606D02*
X59335Y-44606D01*
X59335Y-44606D02*
X59692Y-44606D01*
X57163Y-38330D02*
X57163Y-38058D01*
X57260Y-37961D02*
X57260Y-37575D01*
X57163Y-38058D02*
X57260Y-37961D01*
X57825Y-35952D02*
X57825Y-35522D01*
X57825Y-35522D02*
X57815Y-35512D01*
X57815Y-35512D02*
X57622Y-35512D01*
X57622Y-35512D02*
X57434Y-35512D01*
X57434Y-35512D02*
X57441Y-35519D01*
X57441Y-35519D02*
X57441Y-35935D01*
X57622Y-35512D02*
X57622Y-35059D01*
X58071Y-37027D02*
X57825Y-36781D01*
X58071Y-37225D02*
X58071Y-37027D01*
X57825Y-36781D02*
X57825Y-36292D01*
X57667Y-42165D02*
X57667Y-42296D01*
X57461Y-42502D02*
X57461Y-42933D01*
X57667Y-42296D02*
X57461Y-42502D01*
X57746Y-41730D02*
X57746Y-41900D01*
X57667Y-41979D02*
X57667Y-42165D01*
X57746Y-41900D02*
X57667Y-41979D01*
X58021Y-42165D02*
X58021Y-42455D01*
X58021Y-42455D02*
X57956Y-42520D01*
X57956Y-42520D02*
X57956Y-42885D01*
X57956Y-42885D02*
X58004Y-42933D01*
X57943Y-41730D02*
X57943Y-41881D01*
X58021Y-41959D02*
X58021Y-42165D01*
X57943Y-41881D02*
X58021Y-41959D01*
X59693Y-43878D02*
X59693Y-43485D01*
X59488Y-43280D02*
X59488Y-43130D01*
X59693Y-43485D02*
X59488Y-43280D01*
X58547Y-37126D02*
X58547Y-37067D01*
X58547Y-37067D02*
X58799Y-36815D01*
X58792Y-36568D02*
X58472Y-36568D01*
X58799Y-36815D02*
X58799Y-36575D01*
X58799Y-36575D02*
X58792Y-36568D01*
X59016Y-35740D02*
X58800Y-35740D01*
X58800Y-35740D02*
X58799Y-35741D01*
X59252Y-36247D02*
X59252Y-35748D01*
X59244Y-35740D02*
X59016Y-35740D01*
X59252Y-35748D02*
X59244Y-35740D01*
X58799Y-35741D02*
X58799Y-36221D01*
X59016Y-35305D02*
X59016Y-35740D01*
X59484Y-42477D02*
X59484Y-42772D01*
X59495Y-42783D02*
X59843Y-42783D01*
X59484Y-42772D02*
X59495Y-42783D01*
X59484Y-42477D02*
X59484Y-42388D01*
X59484Y-42388D02*
X59379Y-42283D01*
X59379Y-42283D02*
X58571Y-42283D01*
X58571Y-42283D02*
X58339Y-41984D01*
X58339Y-41984D02*
X58339Y-41713D01*
X58146Y-38330D02*
X58146Y-38224D01*
X58500Y-37870D02*
X58617Y-37870D01*
X58146Y-38224D02*
X58500Y-37870D01*
X58617Y-37870D02*
X58614Y-37867D01*
X58614Y-37867D02*
X58614Y-37712D01*
X58614Y-37712D02*
X58547Y-37645D01*
X58547Y-37645D02*
X58547Y-37480D01*
X59453Y-40228D02*
X59643Y-40228D01*
X59643Y-40228D02*
X59646Y-40225D01*
G54D104*
X59228Y-39737D02*
X59065Y-39734D01*
G54D111*
X51445Y-35418D02*
X51445Y-35929D01*
G54D11*
X56227Y-38554D02*
X55984Y-38311D01*
X55984Y-38311D02*
X55984Y-38016D01*
X56227Y-38554D02*
X56473Y-38554D01*
X56374Y-38177D02*
X56319Y-38122D01*
X56374Y-38177D02*
X56374Y-38330D01*
X56571Y-38134D02*
X56575Y-38130D01*
X56571Y-38134D02*
X56571Y-38330D01*
G54D111*
X56673Y-38553D02*
X56671Y-38554D01*
G54D104*
X56673Y-38711D02*
X56673Y-38553D01*
G54D106*
X60972Y-36531D02*
X61059Y-36417D01*
X59717Y-35299D02*
X59854Y-35323D01*
X59854Y-35323D02*
X59961Y-35413D01*
X59961Y-35413D02*
X60035Y-35539D01*
X60035Y-35539D02*
X60051Y-35693D01*
X60051Y-35693D02*
X60051Y-35988D01*
X60051Y-35988D02*
X60051Y-36394D01*
X60051Y-36394D02*
X60098Y-36520D01*
X60098Y-36520D02*
X60224Y-36618D01*
X60224Y-36618D02*
X60378Y-36642D01*
X60378Y-36642D02*
X60713Y-36642D01*
X60713Y-36642D02*
X60862Y-36606D01*
X60862Y-36606D02*
X60972Y-36531D01*
X59370Y-35299D02*
X59717Y-35299D01*
X61102Y-36264D02*
X61102Y-35959D01*
X61059Y-36417D02*
X61102Y-36264D01*
X61102Y-34799D02*
X61102Y-34511D01*
X58220Y-35075D02*
X57965Y-35075D01*
X58937Y-34417D02*
X58807Y-34433D01*
X58807Y-34433D02*
X58717Y-34496D01*
X58717Y-34496D02*
X58669Y-34567D01*
X58669Y-34567D02*
X58642Y-34673D01*
X58642Y-34673D02*
X58642Y-34795D01*
X58642Y-34795D02*
X58646Y-34886D01*
X58646Y-34886D02*
X58602Y-34972D01*
X58602Y-34972D02*
X58531Y-35047D01*
X58531Y-35047D02*
X58417Y-35075D01*
X58417Y-35075D02*
X58220Y-35075D01*
X61009Y-34418D02*
X58937Y-34417D01*
X61102Y-34511D02*
X61009Y-34418D01*
X58106Y-34429D02*
X58248Y-34429D01*
X61495Y-34459D02*
X61495Y-34799D01*
X61495Y-34459D02*
X61177Y-34205D01*
X61177Y-34205D02*
X58831Y-34205D01*
X58831Y-34205D02*
X58665Y-34220D01*
X58665Y-34220D02*
X58571Y-34264D01*
X58571Y-34264D02*
X58484Y-34366D01*
X58484Y-34366D02*
X58378Y-34425D01*
X58378Y-34425D02*
X58248Y-34429D01*
G54D104*
X59228Y-40722D02*
X59065Y-40719D01*
G54D111*
X58436Y-41507D02*
X58436Y-41505D01*
G54D104*
X58435Y-41339D02*
X58436Y-41507D01*
G54D111*
X58535Y-41972D02*
X58536Y-41973D01*
X58535Y-41972D02*
X58535Y-41730D01*
X58925Y-41953D02*
X58925Y-41756D01*
X59201Y-41953D02*
X59281Y-42067D01*
X58925Y-41953D02*
X59201Y-41953D01*
X58732Y-41969D02*
X58740Y-41969D01*
X58732Y-41969D02*
X58732Y-41713D01*
G54D106*
X59681Y-45031D02*
X60234Y-45031D01*
X60234Y-45031D02*
X60235Y-45032D01*
X57823Y-45799D02*
X60234Y-45799D01*
X60234Y-45799D02*
X60235Y-45800D01*
G54D109*
X57126Y-48292D02*
X56583Y-48292D01*
X56575Y-48311D02*
X56576Y-49079D01*
G54D108*
X51169Y-45063D02*
X51169Y-44827D01*
X51169Y-44827D02*
X51169Y-44827D01*
X51169Y-44827D02*
X51563Y-44827D01*
G54D107*
X51469Y-43937D02*
X51568Y-44036D01*
X51469Y-43372D02*
X51469Y-43937D01*
G54D10*
G36*
X66005Y-49509D02*
X63433Y-49509D01*
X63433Y-48428D01*
X63433Y-48273D01*
X63374Y-48130D01*
X63264Y-48020D01*
X63121Y-47960D01*
X62966Y-47960D01*
X62823Y-48019D01*
X62713Y-48129D01*
X62653Y-48272D01*
X62653Y-48427D01*
X62712Y-48570D01*
X62822Y-48680D01*
X62965Y-48740D01*
X63120Y-48740D01*
X63263Y-48681D01*
X63373Y-48571D01*
X63433Y-48428D01*
X63433Y-49509D01*
X62433Y-49509D01*
X62433Y-48428D01*
X62433Y-48273D01*
X62374Y-48130D01*
X62264Y-48020D01*
X62121Y-47960D01*
X61966Y-47960D01*
X61823Y-48019D01*
X61713Y-48129D01*
X61653Y-48272D01*
X61653Y-48427D01*
X61712Y-48570D01*
X61822Y-48680D01*
X61965Y-48740D01*
X62120Y-48740D01*
X62263Y-48681D01*
X62373Y-48571D01*
X62433Y-48428D01*
X62433Y-49509D01*
X60433Y-49509D01*
X60433Y-48428D01*
X60433Y-48273D01*
X60374Y-48130D01*
X60264Y-48020D01*
X60121Y-47960D01*
X60040Y-47960D01*
X60040Y-47168D01*
X60040Y-47131D01*
X60040Y-46817D01*
X60026Y-46783D01*
X60000Y-46757D01*
X59967Y-46743D01*
X59930Y-46743D01*
X59616Y-46743D01*
X59582Y-46757D01*
X59556Y-46783D01*
X59542Y-46816D01*
X59542Y-46853D01*
X59542Y-46900D01*
X59510Y-46900D01*
X59486Y-46876D01*
X59453Y-46862D01*
X59416Y-46862D01*
X59242Y-46862D01*
X59208Y-46876D01*
X59182Y-46902D01*
X59168Y-46935D01*
X59168Y-46972D01*
X59168Y-47166D01*
X59182Y-47200D01*
X59208Y-47226D01*
X59241Y-47240D01*
X59278Y-47240D01*
X59452Y-47240D01*
X59486Y-47226D01*
X59510Y-47202D01*
X59557Y-47202D01*
X59582Y-47227D01*
X59615Y-47241D01*
X59652Y-47241D01*
X59966Y-47241D01*
X60000Y-47227D01*
X60026Y-47201D01*
X60040Y-47168D01*
X60040Y-47960D01*
X59966Y-47960D01*
X59823Y-48019D01*
X59713Y-48129D01*
X59653Y-48272D01*
X59653Y-48427D01*
X59712Y-48570D01*
X59822Y-48680D01*
X59965Y-48740D01*
X60120Y-48740D01*
X60263Y-48681D01*
X60373Y-48571D01*
X60433Y-48428D01*
X60433Y-49509D01*
X59433Y-49509D01*
X59433Y-48647D01*
X59433Y-48610D01*
X59433Y-48014D01*
X59419Y-47980D01*
X59393Y-47954D01*
X59360Y-47940D01*
X59323Y-47940D01*
X59165Y-47940D01*
X59165Y-46810D01*
X59165Y-46735D01*
X59136Y-46665D01*
X59083Y-46612D01*
X59014Y-46583D01*
X58939Y-46583D01*
X58869Y-46612D01*
X58816Y-46665D01*
X58787Y-46734D01*
X58787Y-46809D01*
X58816Y-46879D01*
X58825Y-46888D01*
X58825Y-46889D01*
X58812Y-46902D01*
X58798Y-46935D01*
X58798Y-46972D01*
X58798Y-47166D01*
X58812Y-47200D01*
X58838Y-47226D01*
X58871Y-47240D01*
X58908Y-47240D01*
X59082Y-47240D01*
X59116Y-47226D01*
X59142Y-47200D01*
X59156Y-47167D01*
X59156Y-47130D01*
X59156Y-46936D01*
X59142Y-46902D01*
X59127Y-46887D01*
X59136Y-46879D01*
X59165Y-46810D01*
X59165Y-47940D01*
X58727Y-47940D01*
X58693Y-47954D01*
X58667Y-47980D01*
X58653Y-48013D01*
X58653Y-48050D01*
X58653Y-48646D01*
X58667Y-48680D01*
X58693Y-48706D01*
X58726Y-48720D01*
X58763Y-48720D01*
X59359Y-48720D01*
X59393Y-48706D01*
X59419Y-48680D01*
X59433Y-48647D01*
X59433Y-49509D01*
X57805Y-49509D01*
X57780Y-49498D01*
X57673Y-49498D01*
X57646Y-49509D01*
X57376Y-49509D01*
X57376Y-48292D01*
X57357Y-48196D01*
X57317Y-48136D01*
X57317Y-48109D01*
X57307Y-48084D01*
X57307Y-47676D01*
X57307Y-47639D01*
X57307Y-47325D01*
X57293Y-47291D01*
X57267Y-47265D01*
X57234Y-47251D01*
X57197Y-47251D01*
X57146Y-47251D01*
X57143Y-47249D01*
X57047Y-47230D01*
X56860Y-47230D01*
X56860Y-47133D01*
X56846Y-47099D01*
X56820Y-47073D01*
X56787Y-47059D01*
X56750Y-47059D01*
X56278Y-47059D01*
X56244Y-47073D01*
X56224Y-47093D01*
X55948Y-47093D01*
X55948Y-47015D01*
X55933Y-46980D01*
X55907Y-46953D01*
X55872Y-46939D01*
X55834Y-46939D01*
X54418Y-46939D01*
X54383Y-46954D01*
X54356Y-46980D01*
X54342Y-47015D01*
X54342Y-47053D01*
X54342Y-47603D01*
X54357Y-47638D01*
X54383Y-47665D01*
X54418Y-47679D01*
X54456Y-47679D01*
X55872Y-47679D01*
X55907Y-47664D01*
X55934Y-47638D01*
X55948Y-47603D01*
X55948Y-47593D01*
X56204Y-47593D01*
X56204Y-47679D01*
X56218Y-47713D01*
X56244Y-47739D01*
X56277Y-47753D01*
X56314Y-47753D01*
X56786Y-47753D01*
X56820Y-47739D01*
X56829Y-47730D01*
X56884Y-47730D01*
X56889Y-47735D01*
X56922Y-47749D01*
X56959Y-47749D01*
X57233Y-47749D01*
X57267Y-47735D01*
X57293Y-47709D01*
X57307Y-47676D01*
X57307Y-48084D01*
X57303Y-48075D01*
X57277Y-48049D01*
X57244Y-48035D01*
X57207Y-48035D01*
X56933Y-48035D01*
X56916Y-48042D01*
X56860Y-48042D01*
X56860Y-48037D01*
X56846Y-48003D01*
X56820Y-47977D01*
X56787Y-47963D01*
X56750Y-47963D01*
X56278Y-47963D01*
X56244Y-47977D01*
X56218Y-48003D01*
X56204Y-48036D01*
X56204Y-48073D01*
X56204Y-48583D01*
X56218Y-48617D01*
X56244Y-48643D01*
X56277Y-48657D01*
X56314Y-48657D01*
X56325Y-48657D01*
X56325Y-48778D01*
X56246Y-48858D01*
X56186Y-49001D01*
X56186Y-49156D01*
X56245Y-49299D01*
X56355Y-49409D01*
X56498Y-49469D01*
X56653Y-49469D01*
X56796Y-49410D01*
X56906Y-49300D01*
X56966Y-49157D01*
X56966Y-49002D01*
X56907Y-48859D01*
X56825Y-48777D01*
X56825Y-48637D01*
X56846Y-48617D01*
X56860Y-48584D01*
X56860Y-48547D01*
X56860Y-48542D01*
X57126Y-48542D01*
X57171Y-48533D01*
X57243Y-48533D01*
X57277Y-48519D01*
X57303Y-48493D01*
X57317Y-48460D01*
X57317Y-48448D01*
X57357Y-48388D01*
X57376Y-48292D01*
X57376Y-49509D01*
X57371Y-49509D01*
X57346Y-49498D01*
X57239Y-49498D01*
X57212Y-49509D01*
X56938Y-49509D01*
X56913Y-49498D01*
X56806Y-49498D01*
X56779Y-49509D01*
X56505Y-49509D01*
X56480Y-49498D01*
X56373Y-49498D01*
X56346Y-49509D01*
X54299Y-49509D01*
X54299Y-44206D01*
X54299Y-43675D01*
X54168Y-43588D01*
X54077Y-43588D01*
X54077Y-34877D01*
X54077Y-34809D01*
X54051Y-34746D01*
X54003Y-34698D01*
X53940Y-34672D01*
X53872Y-34672D01*
X53809Y-34698D01*
X53761Y-34746D01*
X53735Y-34809D01*
X53735Y-34877D01*
X53761Y-34940D01*
X53809Y-34988D01*
X53872Y-35014D01*
X53940Y-35014D01*
X54003Y-34988D01*
X54051Y-34940D01*
X54077Y-34877D01*
X54077Y-43588D01*
X53833Y-43588D01*
X53833Y-38589D01*
X53833Y-38521D01*
X53807Y-38458D01*
X53804Y-38455D01*
X53807Y-38452D01*
X53833Y-38389D01*
X53833Y-38321D01*
X53807Y-38258D01*
X53759Y-38210D01*
X53696Y-38184D01*
X53628Y-38184D01*
X53565Y-38210D01*
X53517Y-38258D01*
X53494Y-38313D01*
X53494Y-36487D01*
X53494Y-36419D01*
X53468Y-36356D01*
X53420Y-36308D01*
X53357Y-36282D01*
X53289Y-36282D01*
X53242Y-36301D01*
X53242Y-34896D01*
X53242Y-34828D01*
X53216Y-34765D01*
X53168Y-34717D01*
X53105Y-34691D01*
X53037Y-34691D01*
X52974Y-34717D01*
X52926Y-34765D01*
X52900Y-34828D01*
X52900Y-34896D01*
X52911Y-34924D01*
X52872Y-34924D01*
X52809Y-34950D01*
X52761Y-34998D01*
X52735Y-35061D01*
X52735Y-35129D01*
X52761Y-35192D01*
X52809Y-35240D01*
X52872Y-35266D01*
X52940Y-35266D01*
X53003Y-35240D01*
X53051Y-35192D01*
X53077Y-35129D01*
X53077Y-35061D01*
X53065Y-35033D01*
X53105Y-35033D01*
X53168Y-35007D01*
X53216Y-34959D01*
X53242Y-34896D01*
X53242Y-36301D01*
X53226Y-36308D01*
X53178Y-36356D01*
X53152Y-36419D01*
X53152Y-36487D01*
X53178Y-36550D01*
X53226Y-36598D01*
X53289Y-36624D01*
X53357Y-36624D01*
X53420Y-36598D01*
X53468Y-36550D01*
X53494Y-36487D01*
X53494Y-38313D01*
X53491Y-38321D01*
X53491Y-38389D01*
X53517Y-38452D01*
X53520Y-38455D01*
X53517Y-38458D01*
X53491Y-38521D01*
X53491Y-38589D01*
X53517Y-38652D01*
X53565Y-38700D01*
X53628Y-38726D01*
X53696Y-38726D01*
X53759Y-38700D01*
X53807Y-38652D01*
X53833Y-38589D01*
X53833Y-43588D01*
X53821Y-43588D01*
X53821Y-41570D01*
X53821Y-41502D01*
X53821Y-39015D01*
X53821Y-38947D01*
X53795Y-38884D01*
X53747Y-38836D01*
X53684Y-38810D01*
X53616Y-38810D01*
X53553Y-38836D01*
X53505Y-38884D01*
X53479Y-38947D01*
X53479Y-39015D01*
X53505Y-39078D01*
X53553Y-39126D01*
X53616Y-39152D01*
X53684Y-39152D01*
X53747Y-39126D01*
X53795Y-39078D01*
X53821Y-39015D01*
X53821Y-41502D01*
X53797Y-41443D01*
X53797Y-39404D01*
X53797Y-39336D01*
X53771Y-39273D01*
X53723Y-39225D01*
X53660Y-39199D01*
X53592Y-39199D01*
X53529Y-39225D01*
X53481Y-39273D01*
X53455Y-39336D01*
X53455Y-39404D01*
X53478Y-39460D01*
X53465Y-39474D01*
X53439Y-39537D01*
X53439Y-39605D01*
X53465Y-39668D01*
X53513Y-39716D01*
X53576Y-39742D01*
X53644Y-39742D01*
X53707Y-39716D01*
X53755Y-39668D01*
X53781Y-39605D01*
X53781Y-39537D01*
X53757Y-39480D01*
X53771Y-39467D01*
X53797Y-39404D01*
X53797Y-41443D01*
X53795Y-41439D01*
X53773Y-41417D01*
X53773Y-40593D01*
X53773Y-40525D01*
X53754Y-40478D01*
X53754Y-40235D01*
X53754Y-40167D01*
X53728Y-40104D01*
X53680Y-40056D01*
X53617Y-40030D01*
X53549Y-40030D01*
X53486Y-40056D01*
X53438Y-40104D01*
X53412Y-40167D01*
X53412Y-40235D01*
X53438Y-40298D01*
X53486Y-40346D01*
X53549Y-40372D01*
X53617Y-40372D01*
X53680Y-40346D01*
X53728Y-40298D01*
X53754Y-40235D01*
X53754Y-40478D01*
X53747Y-40462D01*
X53699Y-40414D01*
X53636Y-40388D01*
X53568Y-40388D01*
X53505Y-40414D01*
X53457Y-40462D01*
X53431Y-40525D01*
X53431Y-40593D01*
X53457Y-40656D01*
X53505Y-40704D01*
X53568Y-40730D01*
X53636Y-40730D01*
X53699Y-40704D01*
X53747Y-40656D01*
X53773Y-40593D01*
X53773Y-41417D01*
X53747Y-41391D01*
X53698Y-41370D01*
X53736Y-41333D01*
X53762Y-41270D01*
X53762Y-41202D01*
X53736Y-41139D01*
X53732Y-41135D01*
X53758Y-41074D01*
X53758Y-41006D01*
X53732Y-40943D01*
X53684Y-40895D01*
X53621Y-40869D01*
X53553Y-40869D01*
X53490Y-40895D01*
X53442Y-40943D01*
X53416Y-41006D01*
X53416Y-41074D01*
X53442Y-41137D01*
X53445Y-41140D01*
X53420Y-41202D01*
X53420Y-41270D01*
X53446Y-41333D01*
X53494Y-41381D01*
X53542Y-41401D01*
X53505Y-41439D01*
X53479Y-41502D01*
X53479Y-41570D01*
X53505Y-41633D01*
X53553Y-41681D01*
X53616Y-41707D01*
X53684Y-41707D01*
X53747Y-41681D01*
X53795Y-41633D01*
X53821Y-41570D01*
X53821Y-43588D01*
X53750Y-43588D01*
X53750Y-42156D01*
X53750Y-42088D01*
X53724Y-42025D01*
X53722Y-42023D01*
X53724Y-42022D01*
X53750Y-41959D01*
X53750Y-41891D01*
X53724Y-41828D01*
X53676Y-41780D01*
X53613Y-41754D01*
X53545Y-41754D01*
X53482Y-41780D01*
X53434Y-41828D01*
X53408Y-41891D01*
X53408Y-41959D01*
X53434Y-42022D01*
X53435Y-42023D01*
X53434Y-42025D01*
X53408Y-42088D01*
X53408Y-42156D01*
X53434Y-42219D01*
X53482Y-42267D01*
X53545Y-42293D01*
X53613Y-42293D01*
X53676Y-42267D01*
X53724Y-42219D01*
X53750Y-42156D01*
X53750Y-43588D01*
X53328Y-43588D01*
X53099Y-43769D01*
X53059Y-43769D01*
X53101Y-43727D01*
X53130Y-43658D01*
X53130Y-43583D01*
X53101Y-43513D01*
X53048Y-43460D01*
X53041Y-43457D01*
X53041Y-37361D01*
X53041Y-37293D01*
X53041Y-36786D01*
X53041Y-36718D01*
X53015Y-36655D01*
X52967Y-36607D01*
X52904Y-36581D01*
X52836Y-36581D01*
X52773Y-36607D01*
X52725Y-36655D01*
X52699Y-36718D01*
X52699Y-36786D01*
X52725Y-36849D01*
X52773Y-36897D01*
X52836Y-36923D01*
X52904Y-36923D01*
X52967Y-36897D01*
X53015Y-36849D01*
X53041Y-36786D01*
X53041Y-37293D01*
X53015Y-37230D01*
X52967Y-37182D01*
X52904Y-37156D01*
X52836Y-37156D01*
X52773Y-37182D01*
X52725Y-37230D01*
X52699Y-37293D01*
X52699Y-37344D01*
X52680Y-37337D01*
X52612Y-37337D01*
X52549Y-37363D01*
X52501Y-37411D01*
X52475Y-37474D01*
X52475Y-37542D01*
X52501Y-37605D01*
X52549Y-37653D01*
X52556Y-37656D01*
X52509Y-37656D01*
X52446Y-37682D01*
X52398Y-37730D01*
X52372Y-37793D01*
X52372Y-37861D01*
X52398Y-37924D01*
X52446Y-37972D01*
X52492Y-37991D01*
X52482Y-37991D01*
X52419Y-38017D01*
X52371Y-38065D01*
X52364Y-38081D01*
X52364Y-35924D01*
X52364Y-35856D01*
X52338Y-35793D01*
X52290Y-35745D01*
X52227Y-35719D01*
X52170Y-35719D01*
X52170Y-31792D01*
X52170Y-31644D01*
X52114Y-31508D01*
X52010Y-31403D01*
X51874Y-31346D01*
X51726Y-31346D01*
X51590Y-31402D01*
X51485Y-31506D01*
X51428Y-31642D01*
X51428Y-31790D01*
X51484Y-31926D01*
X51588Y-32031D01*
X51724Y-32088D01*
X51872Y-32088D01*
X52008Y-32032D01*
X52113Y-31928D01*
X52170Y-31792D01*
X52170Y-35719D01*
X52159Y-35719D01*
X52096Y-35745D01*
X52048Y-35793D01*
X52022Y-35856D01*
X52022Y-35924D01*
X52048Y-35987D01*
X52096Y-36035D01*
X52159Y-36061D01*
X52227Y-36061D01*
X52290Y-36035D01*
X52338Y-35987D01*
X52364Y-35924D01*
X52364Y-38081D01*
X52345Y-38128D01*
X52345Y-38196D01*
X52371Y-38259D01*
X52419Y-38307D01*
X52482Y-38333D01*
X52550Y-38333D01*
X52613Y-38307D01*
X52661Y-38259D01*
X52687Y-38196D01*
X52687Y-38128D01*
X52661Y-38065D01*
X52613Y-38017D01*
X52566Y-37998D01*
X52577Y-37998D01*
X52640Y-37972D01*
X52688Y-37924D01*
X52714Y-37861D01*
X52714Y-37793D01*
X52688Y-37730D01*
X52640Y-37682D01*
X52632Y-37679D01*
X52680Y-37679D01*
X52743Y-37653D01*
X52791Y-37605D01*
X52817Y-37542D01*
X52817Y-37490D01*
X52836Y-37498D01*
X52904Y-37498D01*
X52967Y-37472D01*
X53015Y-37424D01*
X53041Y-37361D01*
X53041Y-43457D01*
X52979Y-43431D01*
X52933Y-43431D01*
X52933Y-43387D01*
X52904Y-43317D01*
X52851Y-43264D01*
X52782Y-43235D01*
X52707Y-43235D01*
X52706Y-43235D01*
X52706Y-41766D01*
X52706Y-41698D01*
X52680Y-41635D01*
X52636Y-41591D01*
X52636Y-41077D01*
X52636Y-41009D01*
X52610Y-40946D01*
X52573Y-40909D01*
X52573Y-39849D01*
X52573Y-39781D01*
X52557Y-39742D01*
X52557Y-39215D01*
X52557Y-39147D01*
X52537Y-39098D01*
X52537Y-38806D01*
X52537Y-38738D01*
X52511Y-38675D01*
X52463Y-38627D01*
X52400Y-38601D01*
X52332Y-38601D01*
X52269Y-38627D01*
X52221Y-38675D01*
X52195Y-38738D01*
X52195Y-38806D01*
X52221Y-38869D01*
X52269Y-38917D01*
X52332Y-38943D01*
X52400Y-38943D01*
X52463Y-38917D01*
X52511Y-38869D01*
X52537Y-38806D01*
X52537Y-39098D01*
X52531Y-39084D01*
X52483Y-39036D01*
X52420Y-39010D01*
X52352Y-39010D01*
X52289Y-39036D01*
X52241Y-39084D01*
X52215Y-39147D01*
X52215Y-39215D01*
X52241Y-39278D01*
X52289Y-39326D01*
X52352Y-39352D01*
X52420Y-39352D01*
X52483Y-39326D01*
X52531Y-39278D01*
X52557Y-39215D01*
X52557Y-39742D01*
X52547Y-39718D01*
X52499Y-39670D01*
X52436Y-39644D01*
X52368Y-39644D01*
X52305Y-39670D01*
X52257Y-39718D01*
X52231Y-39781D01*
X52231Y-39845D01*
X52198Y-39845D01*
X52165Y-39858D01*
X52165Y-36612D01*
X52165Y-36575D01*
X52165Y-36381D01*
X52151Y-36347D01*
X52125Y-36321D01*
X52092Y-36307D01*
X52055Y-36307D01*
X51861Y-36307D01*
X51840Y-36314D01*
X51840Y-35322D01*
X51840Y-35254D01*
X51814Y-35191D01*
X51766Y-35143D01*
X51703Y-35117D01*
X51635Y-35117D01*
X51634Y-35117D01*
X51634Y-35105D01*
X51634Y-34931D01*
X51620Y-34897D01*
X51596Y-34873D01*
X51596Y-34560D01*
X51596Y-34552D01*
X51592Y-34531D01*
X51588Y-34501D01*
X51585Y-34497D01*
X51585Y-34494D01*
X51568Y-34468D01*
X51557Y-34451D01*
X51553Y-34446D01*
X51552Y-34445D01*
X51551Y-34444D01*
X51358Y-34228D01*
X51358Y-34207D01*
X51329Y-34137D01*
X51276Y-34084D01*
X51207Y-34055D01*
X51132Y-34055D01*
X51062Y-34084D01*
X51009Y-34137D01*
X50980Y-34206D01*
X50980Y-34281D01*
X51009Y-34351D01*
X51062Y-34404D01*
X51131Y-34433D01*
X51135Y-34433D01*
X51294Y-34609D01*
X51294Y-34873D01*
X51270Y-34897D01*
X51256Y-34930D01*
X51256Y-34967D01*
X51256Y-35141D01*
X51270Y-35175D01*
X51296Y-35201D01*
X51329Y-35215D01*
X51366Y-35215D01*
X51514Y-35215D01*
X51509Y-35227D01*
X51330Y-35227D01*
X51296Y-35241D01*
X51270Y-35267D01*
X51256Y-35300D01*
X51256Y-35337D01*
X51256Y-35511D01*
X51270Y-35545D01*
X51296Y-35571D01*
X51329Y-35585D01*
X51333Y-35585D01*
X51333Y-35799D01*
X51300Y-35832D01*
X51274Y-35895D01*
X51274Y-35963D01*
X51300Y-36026D01*
X51348Y-36074D01*
X51411Y-36100D01*
X51479Y-36100D01*
X51542Y-36074D01*
X51590Y-36026D01*
X51616Y-35963D01*
X51616Y-35895D01*
X51590Y-35832D01*
X51557Y-35799D01*
X51557Y-35585D01*
X51560Y-35585D01*
X51594Y-35571D01*
X51620Y-35545D01*
X51634Y-35512D01*
X51634Y-35475D01*
X51634Y-35458D01*
X51635Y-35459D01*
X51703Y-35459D01*
X51766Y-35433D01*
X51814Y-35385D01*
X51840Y-35322D01*
X51840Y-36314D01*
X51831Y-36318D01*
X51829Y-36316D01*
X51766Y-36290D01*
X51698Y-36290D01*
X51635Y-36316D01*
X51587Y-36364D01*
X51561Y-36427D01*
X51561Y-36495D01*
X51587Y-36558D01*
X51635Y-36606D01*
X51698Y-36632D01*
X51766Y-36632D01*
X51791Y-36621D01*
X51801Y-36645D01*
X51827Y-36671D01*
X51860Y-36685D01*
X51897Y-36685D01*
X52091Y-36685D01*
X52125Y-36671D01*
X52151Y-36645D01*
X52165Y-36612D01*
X52165Y-39858D01*
X52135Y-39871D01*
X52087Y-39919D01*
X52061Y-39982D01*
X52061Y-40050D01*
X52087Y-40113D01*
X52135Y-40161D01*
X52198Y-40187D01*
X52266Y-40187D01*
X52329Y-40161D01*
X52377Y-40113D01*
X52403Y-40050D01*
X52403Y-39986D01*
X52436Y-39986D01*
X52499Y-39960D01*
X52547Y-39912D01*
X52573Y-39849D01*
X52573Y-40909D01*
X52562Y-40898D01*
X52499Y-40872D01*
X52447Y-40872D01*
X52447Y-40813D01*
X52421Y-40750D01*
X52376Y-40705D01*
X52384Y-40688D01*
X52384Y-40620D01*
X52358Y-40557D01*
X52341Y-40540D01*
X52345Y-40539D01*
X52393Y-40491D01*
X52419Y-40428D01*
X52419Y-40360D01*
X52393Y-40297D01*
X52345Y-40249D01*
X52282Y-40223D01*
X52214Y-40223D01*
X52151Y-40249D01*
X52103Y-40297D01*
X52077Y-40360D01*
X52077Y-40428D01*
X52103Y-40491D01*
X52119Y-40507D01*
X52116Y-40509D01*
X52068Y-40557D01*
X52042Y-40620D01*
X52042Y-40688D01*
X52068Y-40751D01*
X52112Y-40795D01*
X52105Y-40813D01*
X52105Y-40881D01*
X52131Y-40944D01*
X52179Y-40992D01*
X52242Y-41018D01*
X52294Y-41018D01*
X52294Y-41077D01*
X52320Y-41140D01*
X52368Y-41188D01*
X52431Y-41214D01*
X52499Y-41214D01*
X52562Y-41188D01*
X52610Y-41140D01*
X52636Y-41077D01*
X52636Y-41591D01*
X52632Y-41587D01*
X52569Y-41561D01*
X52501Y-41561D01*
X52438Y-41587D01*
X52390Y-41635D01*
X52364Y-41698D01*
X52364Y-41766D01*
X52390Y-41829D01*
X52438Y-41877D01*
X52501Y-41903D01*
X52569Y-41903D01*
X52632Y-41877D01*
X52680Y-41829D01*
X52706Y-41766D01*
X52706Y-43235D01*
X52637Y-43264D01*
X52584Y-43317D01*
X52566Y-43358D01*
X52549Y-43317D01*
X52496Y-43264D01*
X52427Y-43235D01*
X52352Y-43235D01*
X52289Y-43261D01*
X52289Y-42388D01*
X52289Y-42320D01*
X52263Y-42257D01*
X52215Y-42209D01*
X52152Y-42183D01*
X52084Y-42183D01*
X52021Y-42209D01*
X52017Y-42213D01*
X52014Y-42210D01*
X51951Y-42184D01*
X51923Y-42184D01*
X51923Y-40782D01*
X51923Y-40714D01*
X51899Y-40655D01*
X51899Y-37274D01*
X51899Y-37206D01*
X51873Y-37143D01*
X51828Y-37098D01*
X51873Y-37054D01*
X51899Y-36991D01*
X51899Y-36923D01*
X51873Y-36860D01*
X51825Y-36812D01*
X51762Y-36786D01*
X51694Y-36786D01*
X51631Y-36812D01*
X51583Y-36860D01*
X51557Y-36923D01*
X51557Y-36991D01*
X51583Y-37054D01*
X51627Y-37098D01*
X51583Y-37143D01*
X51557Y-37206D01*
X51557Y-37274D01*
X51583Y-37337D01*
X51616Y-37370D01*
X51576Y-37411D01*
X51550Y-37474D01*
X51550Y-37542D01*
X51576Y-37605D01*
X51624Y-37653D01*
X51687Y-37679D01*
X51755Y-37679D01*
X51818Y-37653D01*
X51866Y-37605D01*
X51892Y-37542D01*
X51892Y-37474D01*
X51866Y-37411D01*
X51832Y-37377D01*
X51873Y-37337D01*
X51899Y-37274D01*
X51899Y-40655D01*
X51897Y-40651D01*
X51888Y-40642D01*
X51888Y-38026D01*
X51888Y-37958D01*
X51862Y-37895D01*
X51814Y-37847D01*
X51751Y-37821D01*
X51683Y-37821D01*
X51620Y-37847D01*
X51572Y-37895D01*
X51546Y-37958D01*
X51546Y-38026D01*
X51572Y-38089D01*
X51620Y-38137D01*
X51683Y-38163D01*
X51751Y-38163D01*
X51814Y-38137D01*
X51862Y-38089D01*
X51888Y-38026D01*
X51888Y-40642D01*
X51849Y-40603D01*
X51786Y-40577D01*
X51718Y-40577D01*
X51655Y-40603D01*
X51607Y-40651D01*
X51581Y-40714D01*
X51581Y-40782D01*
X51607Y-40845D01*
X51655Y-40893D01*
X51718Y-40919D01*
X51786Y-40919D01*
X51849Y-40893D01*
X51897Y-40845D01*
X51923Y-40782D01*
X51923Y-42184D01*
X51883Y-42184D01*
X51820Y-42210D01*
X51777Y-42252D01*
X51735Y-42210D01*
X51672Y-42184D01*
X51604Y-42184D01*
X51541Y-42210D01*
X51518Y-42233D01*
X51495Y-42210D01*
X51432Y-42184D01*
X51364Y-42184D01*
X51301Y-42210D01*
X51262Y-42249D01*
X51262Y-40983D01*
X51262Y-40915D01*
X51236Y-40852D01*
X51188Y-40804D01*
X51125Y-40778D01*
X51057Y-40778D01*
X50994Y-40804D01*
X50946Y-40852D01*
X50920Y-40915D01*
X50920Y-40983D01*
X50946Y-41046D01*
X50994Y-41094D01*
X51057Y-41120D01*
X51125Y-41120D01*
X51188Y-41094D01*
X51236Y-41046D01*
X51262Y-40983D01*
X51262Y-42249D01*
X51253Y-42258D01*
X51227Y-42321D01*
X51227Y-42389D01*
X51253Y-42452D01*
X51301Y-42500D01*
X51364Y-42526D01*
X51432Y-42526D01*
X51495Y-42500D01*
X51518Y-42477D01*
X51541Y-42500D01*
X51604Y-42526D01*
X51672Y-42526D01*
X51735Y-42500D01*
X51777Y-42457D01*
X51820Y-42500D01*
X51883Y-42526D01*
X51951Y-42526D01*
X52014Y-42500D01*
X52018Y-42496D01*
X52021Y-42499D01*
X52084Y-42525D01*
X52152Y-42525D01*
X52215Y-42499D01*
X52263Y-42451D01*
X52289Y-42388D01*
X52289Y-43261D01*
X52282Y-43264D01*
X52229Y-43317D01*
X52200Y-43386D01*
X52200Y-43432D01*
X52195Y-43432D01*
X52125Y-43461D01*
X52072Y-43514D01*
X52043Y-43583D01*
X52043Y-43658D01*
X52072Y-43728D01*
X52113Y-43769D01*
X52048Y-43769D01*
X52056Y-44531D01*
X52125Y-44531D01*
X52125Y-44554D01*
X52125Y-45026D01*
X52139Y-45060D01*
X52165Y-45086D01*
X52198Y-45100D01*
X52235Y-45100D01*
X52652Y-45100D01*
X52662Y-45110D01*
X52704Y-45152D01*
X52719Y-45158D01*
X52773Y-45181D01*
X52789Y-45181D01*
X52848Y-45181D01*
X52863Y-45174D01*
X52918Y-45152D01*
X52928Y-45141D01*
X52930Y-45141D01*
X52934Y-45135D01*
X52970Y-45100D01*
X53212Y-45100D01*
X53246Y-45086D01*
X53272Y-45060D01*
X53286Y-45027D01*
X53286Y-44990D01*
X53286Y-44958D01*
X53296Y-44906D01*
X53286Y-44853D01*
X53286Y-44676D01*
X53272Y-44642D01*
X53246Y-44616D01*
X53213Y-44602D01*
X53176Y-44602D01*
X52902Y-44602D01*
X52868Y-44616D01*
X52842Y-44642D01*
X52828Y-44675D01*
X52828Y-44712D01*
X52828Y-44716D01*
X52819Y-44716D01*
X52819Y-44531D01*
X53932Y-44531D01*
X54299Y-44206D01*
X54299Y-49509D01*
X54280Y-49509D01*
X53578Y-49509D01*
X53586Y-49491D01*
X53586Y-49453D01*
X53586Y-46855D01*
X53571Y-46820D01*
X53545Y-46793D01*
X53510Y-46779D01*
X53472Y-46779D01*
X52971Y-46779D01*
X52971Y-45728D01*
X52971Y-45653D01*
X52942Y-45583D01*
X52891Y-45532D01*
X52942Y-45482D01*
X52971Y-45413D01*
X52971Y-45338D01*
X52942Y-45268D01*
X52889Y-45215D01*
X52820Y-45186D01*
X52745Y-45186D01*
X52675Y-45215D01*
X52622Y-45268D01*
X52593Y-45337D01*
X52593Y-45412D01*
X52622Y-45482D01*
X52672Y-45532D01*
X52622Y-45583D01*
X52593Y-45652D01*
X52593Y-45727D01*
X52597Y-45738D01*
X52547Y-45738D01*
X52477Y-45767D01*
X52424Y-45820D01*
X52395Y-45889D01*
X52395Y-45964D01*
X52424Y-46034D01*
X52477Y-46087D01*
X52546Y-46116D01*
X52621Y-46116D01*
X52691Y-46087D01*
X52744Y-46034D01*
X52773Y-45965D01*
X52773Y-45890D01*
X52768Y-45879D01*
X52819Y-45879D01*
X52889Y-45850D01*
X52942Y-45797D01*
X52971Y-45728D01*
X52971Y-46779D01*
X52379Y-46779D01*
X52379Y-45965D01*
X52379Y-45890D01*
X52350Y-45820D01*
X52297Y-45767D01*
X52228Y-45738D01*
X52178Y-45738D01*
X52183Y-45728D01*
X52183Y-45653D01*
X52154Y-45583D01*
X52103Y-45532D01*
X52154Y-45482D01*
X52183Y-45413D01*
X52183Y-45338D01*
X52154Y-45268D01*
X52101Y-45215D01*
X52032Y-45186D01*
X52019Y-45186D01*
X52014Y-45186D01*
X52019Y-45181D01*
X52015Y-43071D01*
X51871Y-42997D01*
X51201Y-42997D01*
X51107Y-43091D01*
X51107Y-44425D01*
X50883Y-44650D01*
X50883Y-45091D01*
X51059Y-45271D01*
X51832Y-45271D01*
X51805Y-45337D01*
X51805Y-45412D01*
X51834Y-45482D01*
X51884Y-45532D01*
X51834Y-45583D01*
X51805Y-45652D01*
X51805Y-45727D01*
X51834Y-45797D01*
X51887Y-45850D01*
X51956Y-45879D01*
X52005Y-45879D01*
X52001Y-45889D01*
X52001Y-45964D01*
X52019Y-46007D01*
X52030Y-46034D01*
X52083Y-46087D01*
X52152Y-46116D01*
X52227Y-46116D01*
X52297Y-46087D01*
X52350Y-46034D01*
X52379Y-45965D01*
X52379Y-46779D01*
X52019Y-46779D01*
X51032Y-46779D01*
X50997Y-46794D01*
X50970Y-46820D01*
X50956Y-46855D01*
X50956Y-46893D01*
X50956Y-49491D01*
X50963Y-49509D01*
X50088Y-49509D01*
X50088Y-37046D01*
X50088Y-36978D01*
X50062Y-36915D01*
X50014Y-36867D01*
X49951Y-36841D01*
X49919Y-36841D01*
X49919Y-36259D01*
X49919Y-36191D01*
X49893Y-36128D01*
X49845Y-36080D01*
X49782Y-36054D01*
X49714Y-36054D01*
X49651Y-36080D01*
X49603Y-36128D01*
X49577Y-36191D01*
X49577Y-36259D01*
X49603Y-36322D01*
X49604Y-36323D01*
X49599Y-36328D01*
X49573Y-36391D01*
X49573Y-36459D01*
X49599Y-36522D01*
X49647Y-36570D01*
X49710Y-36596D01*
X49778Y-36596D01*
X49841Y-36570D01*
X49889Y-36522D01*
X49915Y-36459D01*
X49915Y-36391D01*
X49889Y-36328D01*
X49888Y-36327D01*
X49893Y-36322D01*
X49919Y-36259D01*
X49919Y-36841D01*
X49883Y-36841D01*
X49820Y-36867D01*
X49772Y-36915D01*
X49746Y-36978D01*
X49746Y-37046D01*
X49766Y-37095D01*
X49731Y-37060D01*
X49668Y-37034D01*
X49600Y-37034D01*
X49537Y-37060D01*
X49489Y-37108D01*
X49463Y-37171D01*
X49463Y-37239D01*
X49484Y-37290D01*
X49451Y-37257D01*
X49427Y-37247D01*
X49427Y-36062D01*
X49427Y-35994D01*
X49401Y-35931D01*
X49353Y-35883D01*
X49290Y-35857D01*
X49222Y-35857D01*
X49159Y-35883D01*
X49111Y-35931D01*
X49085Y-35994D01*
X49085Y-36062D01*
X49111Y-36125D01*
X49159Y-36173D01*
X49222Y-36199D01*
X49290Y-36199D01*
X49353Y-36173D01*
X49401Y-36125D01*
X49427Y-36062D01*
X49427Y-37247D01*
X49388Y-37231D01*
X49320Y-37231D01*
X49303Y-37238D01*
X49303Y-37046D01*
X49303Y-36978D01*
X49277Y-36915D01*
X49229Y-36867D01*
X49166Y-36841D01*
X49098Y-36841D01*
X49035Y-36867D01*
X48987Y-36915D01*
X48961Y-36978D01*
X48961Y-37046D01*
X48987Y-37109D01*
X49035Y-37157D01*
X49098Y-37183D01*
X49166Y-37183D01*
X49229Y-37157D01*
X49277Y-37109D01*
X49303Y-37046D01*
X49303Y-37238D01*
X49257Y-37257D01*
X49209Y-37305D01*
X49183Y-37368D01*
X49183Y-37436D01*
X49209Y-37499D01*
X49257Y-37547D01*
X49320Y-37573D01*
X49388Y-37573D01*
X49451Y-37547D01*
X49499Y-37499D01*
X49525Y-37436D01*
X49525Y-37368D01*
X49503Y-37316D01*
X49537Y-37350D01*
X49600Y-37376D01*
X49668Y-37376D01*
X49731Y-37350D01*
X49779Y-37302D01*
X49805Y-37239D01*
X49805Y-37171D01*
X49784Y-37121D01*
X49820Y-37157D01*
X49883Y-37183D01*
X49951Y-37183D01*
X50014Y-37157D01*
X50062Y-37109D01*
X50088Y-37046D01*
X50088Y-49509D01*
X49736Y-49509D01*
X49736Y-42952D01*
X49736Y-42884D01*
X49710Y-42821D01*
X49662Y-42773D01*
X49633Y-42761D01*
X49680Y-42715D01*
X49706Y-42652D01*
X49706Y-42584D01*
X49680Y-42521D01*
X49632Y-42473D01*
X49569Y-42447D01*
X49501Y-42447D01*
X49438Y-42473D01*
X49390Y-42521D01*
X49364Y-42584D01*
X49364Y-42652D01*
X49390Y-42715D01*
X49438Y-42763D01*
X49466Y-42774D01*
X49420Y-42821D01*
X49394Y-42884D01*
X49394Y-42952D01*
X49420Y-43015D01*
X49468Y-43063D01*
X49531Y-43089D01*
X49599Y-43089D01*
X49662Y-43063D01*
X49710Y-43015D01*
X49736Y-42952D01*
X49736Y-49509D01*
X49050Y-49509D01*
X49050Y-45125D01*
X49050Y-45050D01*
X49021Y-44980D01*
X48968Y-44927D01*
X48899Y-44898D01*
X48824Y-44898D01*
X48754Y-44927D01*
X48721Y-44959D01*
X48721Y-37573D01*
X48721Y-37536D01*
X48721Y-37342D01*
X48707Y-37308D01*
X48692Y-37293D01*
X48707Y-37279D01*
X48721Y-37246D01*
X48721Y-37209D01*
X48721Y-37015D01*
X48707Y-36981D01*
X48681Y-36955D01*
X48648Y-36941D01*
X48611Y-36941D01*
X48417Y-36941D01*
X48383Y-36955D01*
X48357Y-36981D01*
X48343Y-37014D01*
X48343Y-37051D01*
X48343Y-37084D01*
X48322Y-37092D01*
X48290Y-37060D01*
X48227Y-37034D01*
X48159Y-37034D01*
X48096Y-37060D01*
X48048Y-37108D01*
X48022Y-37171D01*
X48022Y-37239D01*
X48040Y-37284D01*
X48020Y-37305D01*
X47994Y-37368D01*
X47994Y-37436D01*
X48020Y-37499D01*
X48068Y-37547D01*
X48131Y-37573D01*
X48199Y-37573D01*
X48262Y-37547D01*
X48293Y-37515D01*
X48343Y-37527D01*
X48343Y-37572D01*
X48357Y-37606D01*
X48383Y-37632D01*
X48416Y-37646D01*
X48453Y-37646D01*
X48647Y-37646D01*
X48681Y-37632D01*
X48707Y-37606D01*
X48721Y-37573D01*
X48721Y-44959D01*
X48703Y-44977D01*
X48653Y-44927D01*
X48584Y-44898D01*
X48509Y-44898D01*
X48439Y-44927D01*
X48388Y-44977D01*
X48368Y-44957D01*
X48368Y-41766D01*
X48368Y-41698D01*
X48342Y-41635D01*
X48294Y-41587D01*
X48231Y-41561D01*
X48163Y-41561D01*
X48100Y-41587D01*
X48052Y-41635D01*
X48026Y-41698D01*
X48026Y-41766D01*
X48052Y-41829D01*
X48100Y-41877D01*
X48163Y-41903D01*
X48231Y-41903D01*
X48294Y-41877D01*
X48342Y-41829D01*
X48368Y-41766D01*
X48368Y-44957D01*
X48352Y-44941D01*
X48352Y-42164D01*
X48352Y-42096D01*
X48326Y-42033D01*
X48278Y-41985D01*
X48215Y-41959D01*
X48147Y-41959D01*
X48084Y-41985D01*
X48036Y-42033D01*
X48010Y-42096D01*
X48010Y-42164D01*
X48035Y-42226D01*
X48028Y-42234D01*
X48002Y-42297D01*
X48002Y-42365D01*
X48028Y-42428D01*
X48076Y-42476D01*
X48139Y-42502D01*
X48207Y-42502D01*
X48270Y-42476D01*
X48318Y-42428D01*
X48344Y-42365D01*
X48344Y-42297D01*
X48318Y-42234D01*
X48326Y-42227D01*
X48352Y-42164D01*
X48352Y-44941D01*
X48338Y-44927D01*
X48325Y-44921D01*
X48325Y-42759D01*
X48325Y-42691D01*
X48299Y-42628D01*
X48251Y-42580D01*
X48188Y-42554D01*
X48120Y-42554D01*
X48057Y-42580D01*
X48009Y-42628D01*
X47983Y-42691D01*
X47983Y-42759D01*
X48009Y-42822D01*
X48057Y-42870D01*
X48120Y-42896D01*
X48188Y-42896D01*
X48251Y-42870D01*
X48299Y-42822D01*
X48325Y-42759D01*
X48325Y-44921D01*
X48269Y-44898D01*
X48194Y-44898D01*
X48124Y-44927D01*
X48071Y-44980D01*
X48042Y-45049D01*
X48042Y-45124D01*
X48071Y-45194D01*
X48124Y-45247D01*
X48193Y-45276D01*
X48268Y-45276D01*
X48338Y-45247D01*
X48388Y-45196D01*
X48439Y-45247D01*
X48508Y-45276D01*
X48583Y-45276D01*
X48653Y-45247D01*
X48703Y-45196D01*
X48754Y-45247D01*
X48823Y-45276D01*
X48898Y-45276D01*
X48968Y-45247D01*
X49021Y-45194D01*
X49050Y-45125D01*
X49050Y-49509D01*
X47972Y-49509D01*
X47972Y-44443D01*
X47995Y-44389D01*
X47995Y-44282D01*
X47972Y-44226D01*
X47972Y-44010D01*
X47995Y-43956D01*
X47995Y-43849D01*
X47972Y-43793D01*
X47972Y-43577D01*
X47995Y-43523D01*
X47995Y-43416D01*
X47972Y-43360D01*
X47972Y-41281D01*
X47978Y-41287D01*
X48041Y-41313D01*
X48109Y-41313D01*
X48172Y-41287D01*
X48220Y-41239D01*
X48246Y-41176D01*
X48246Y-41115D01*
X48298Y-41094D01*
X48346Y-41046D01*
X48372Y-40983D01*
X48372Y-40915D01*
X48372Y-39802D01*
X48372Y-39734D01*
X48368Y-39724D01*
X48368Y-39404D01*
X48368Y-39336D01*
X48342Y-39273D01*
X48294Y-39225D01*
X48231Y-39199D01*
X48163Y-39199D01*
X48100Y-39225D01*
X48052Y-39273D01*
X48026Y-39336D01*
X48026Y-39404D01*
X48052Y-39467D01*
X48100Y-39515D01*
X48163Y-39541D01*
X48231Y-39541D01*
X48294Y-39515D01*
X48342Y-39467D01*
X48368Y-39404D01*
X48368Y-39724D01*
X48346Y-39671D01*
X48298Y-39623D01*
X48235Y-39597D01*
X48167Y-39597D01*
X48104Y-39623D01*
X48056Y-39671D01*
X48030Y-39734D01*
X48030Y-39802D01*
X48052Y-39855D01*
X48040Y-39868D01*
X48014Y-39931D01*
X48014Y-39999D01*
X48040Y-40062D01*
X48088Y-40110D01*
X48151Y-40136D01*
X48219Y-40136D01*
X48282Y-40110D01*
X48330Y-40062D01*
X48356Y-39999D01*
X48356Y-39931D01*
X48333Y-39877D01*
X48346Y-39865D01*
X48372Y-39802D01*
X48372Y-40915D01*
X48352Y-40866D01*
X48352Y-40389D01*
X48352Y-40321D01*
X48326Y-40258D01*
X48278Y-40210D01*
X48215Y-40184D01*
X48147Y-40184D01*
X48084Y-40210D01*
X48036Y-40258D01*
X48010Y-40321D01*
X48010Y-40389D01*
X48036Y-40452D01*
X48084Y-40500D01*
X48147Y-40526D01*
X48215Y-40526D01*
X48278Y-40500D01*
X48326Y-40452D01*
X48352Y-40389D01*
X48352Y-40866D01*
X48346Y-40852D01*
X48324Y-40830D01*
X48344Y-40782D01*
X48344Y-40714D01*
X48318Y-40651D01*
X48270Y-40603D01*
X48207Y-40577D01*
X48139Y-40577D01*
X48076Y-40603D01*
X48028Y-40651D01*
X48002Y-40714D01*
X48002Y-40782D01*
X48028Y-40845D01*
X48049Y-40866D01*
X48030Y-40915D01*
X48030Y-40975D01*
X47978Y-40997D01*
X47972Y-41003D01*
X47972Y-38918D01*
X47982Y-38928D01*
X48045Y-38954D01*
X48113Y-38954D01*
X48176Y-38928D01*
X48224Y-38880D01*
X48250Y-38817D01*
X48250Y-38752D01*
X48290Y-38736D01*
X48338Y-38688D01*
X48364Y-38625D01*
X48364Y-38557D01*
X48342Y-38506D01*
X48366Y-38483D01*
X48392Y-38420D01*
X48392Y-38352D01*
X48366Y-38289D01*
X48364Y-38287D01*
X48364Y-38018D01*
X48364Y-37950D01*
X48338Y-37887D01*
X48290Y-37839D01*
X48227Y-37813D01*
X48159Y-37813D01*
X48096Y-37839D01*
X48048Y-37887D01*
X48022Y-37950D01*
X48022Y-38018D01*
X48048Y-38081D01*
X48096Y-38129D01*
X48159Y-38155D01*
X48227Y-38155D01*
X48290Y-38129D01*
X48338Y-38081D01*
X48364Y-38018D01*
X48364Y-38287D01*
X48318Y-38241D01*
X48255Y-38215D01*
X48187Y-38215D01*
X48124Y-38241D01*
X48076Y-38289D01*
X48050Y-38352D01*
X48050Y-38420D01*
X48071Y-38470D01*
X48048Y-38494D01*
X48022Y-38557D01*
X48022Y-38621D01*
X47982Y-38638D01*
X47972Y-38648D01*
X47972Y-35604D01*
X47995Y-35550D01*
X47995Y-35443D01*
X47972Y-35387D01*
X47972Y-35171D01*
X47995Y-35117D01*
X47995Y-35010D01*
X47972Y-34954D01*
X47972Y-34738D01*
X47995Y-34684D01*
X47995Y-34577D01*
X47972Y-34521D01*
X47972Y-30688D01*
X56326Y-30688D01*
X56371Y-30707D01*
X56478Y-30707D01*
X56523Y-30688D01*
X56759Y-30688D01*
X56804Y-30707D01*
X56911Y-30707D01*
X56956Y-30688D01*
X57192Y-30688D01*
X57237Y-30707D01*
X57344Y-30707D01*
X57389Y-30688D01*
X57626Y-30688D01*
X57671Y-30707D01*
X57778Y-30707D01*
X57823Y-30688D01*
X66005Y-30688D01*
X66005Y-34509D01*
X63704Y-34509D01*
X63704Y-31912D01*
X63704Y-31757D01*
X63645Y-31614D01*
X63535Y-31504D01*
X63392Y-31444D01*
X63237Y-31444D01*
X63094Y-31503D01*
X62984Y-31613D01*
X62924Y-31756D01*
X62924Y-31911D01*
X62983Y-32054D01*
X63093Y-32164D01*
X63236Y-32224D01*
X63391Y-32224D01*
X63534Y-32165D01*
X63644Y-32055D01*
X63704Y-31912D01*
X63704Y-34509D01*
X62893Y-34509D01*
X62893Y-33997D01*
X62704Y-33997D01*
X62704Y-31912D01*
X62704Y-31757D01*
X62645Y-31614D01*
X62535Y-31504D01*
X62392Y-31444D01*
X62237Y-31444D01*
X62094Y-31503D01*
X61984Y-31613D01*
X61924Y-31756D01*
X61924Y-31911D01*
X61983Y-32054D01*
X62093Y-32164D01*
X62236Y-32224D01*
X62391Y-32224D01*
X62534Y-32165D01*
X62644Y-32055D01*
X62704Y-31912D01*
X62704Y-33997D01*
X61697Y-33997D01*
X61697Y-31849D01*
X61673Y-31701D01*
X61662Y-31674D01*
X61619Y-31635D01*
X61513Y-31741D01*
X61513Y-31529D01*
X61474Y-31486D01*
X61329Y-31451D01*
X61181Y-31475D01*
X61154Y-31486D01*
X61115Y-31529D01*
X61314Y-31728D01*
X61513Y-31529D01*
X61513Y-31741D01*
X61420Y-31834D01*
X61619Y-32033D01*
X61662Y-31994D01*
X61697Y-31849D01*
X61697Y-33997D01*
X61513Y-33997D01*
X61513Y-32139D01*
X61314Y-31940D01*
X61208Y-32046D01*
X61208Y-31834D01*
X61009Y-31635D01*
X60966Y-31674D01*
X60931Y-31819D01*
X60955Y-31967D01*
X60966Y-31994D01*
X61009Y-32033D01*
X61208Y-31834D01*
X61208Y-32046D01*
X61115Y-32139D01*
X61154Y-32182D01*
X61299Y-32217D01*
X61447Y-32193D01*
X61474Y-32182D01*
X61513Y-32139D01*
X61513Y-33997D01*
X60704Y-33997D01*
X60704Y-31912D01*
X60704Y-31757D01*
X60645Y-31614D01*
X60535Y-31504D01*
X60392Y-31444D01*
X60237Y-31444D01*
X60094Y-31503D01*
X59984Y-31613D01*
X59924Y-31756D01*
X59924Y-31911D01*
X59983Y-32054D01*
X60093Y-32164D01*
X60236Y-32224D01*
X60391Y-32224D01*
X60534Y-32165D01*
X60644Y-32055D01*
X60704Y-31912D01*
X60704Y-33997D01*
X59704Y-33997D01*
X59704Y-32131D01*
X59704Y-32094D01*
X59704Y-31498D01*
X59690Y-31464D01*
X59664Y-31438D01*
X59631Y-31424D01*
X59594Y-31424D01*
X58998Y-31424D01*
X58964Y-31438D01*
X58938Y-31464D01*
X58924Y-31497D01*
X58924Y-31534D01*
X58924Y-32130D01*
X58938Y-32164D01*
X58964Y-32190D01*
X58997Y-32204D01*
X59034Y-32204D01*
X59630Y-32204D01*
X59664Y-32190D01*
X59690Y-32164D01*
X59704Y-32131D01*
X59704Y-33997D01*
X58697Y-33997D01*
X58697Y-31912D01*
X58697Y-31757D01*
X58638Y-31614D01*
X58528Y-31504D01*
X58385Y-31444D01*
X58230Y-31444D01*
X58087Y-31503D01*
X57977Y-31613D01*
X57917Y-31756D01*
X57917Y-31911D01*
X57976Y-32054D01*
X58086Y-32164D01*
X58229Y-32224D01*
X58384Y-32224D01*
X58527Y-32165D01*
X58637Y-32055D01*
X58697Y-31912D01*
X58697Y-33997D01*
X57697Y-33997D01*
X57697Y-31912D01*
X57697Y-31757D01*
X57638Y-31614D01*
X57528Y-31504D01*
X57385Y-31444D01*
X57230Y-31444D01*
X57087Y-31503D01*
X56977Y-31613D01*
X56917Y-31756D01*
X56917Y-31911D01*
X56976Y-32054D01*
X57086Y-32164D01*
X57229Y-32224D01*
X57384Y-32224D01*
X57527Y-32165D01*
X57637Y-32055D01*
X57697Y-31912D01*
X57697Y-33997D01*
X56697Y-33997D01*
X56697Y-31912D01*
X56697Y-31757D01*
X56638Y-31614D01*
X56528Y-31504D01*
X56385Y-31444D01*
X56230Y-31444D01*
X56087Y-31503D01*
X55977Y-31613D01*
X55917Y-31756D01*
X55917Y-31911D01*
X55976Y-32054D01*
X56086Y-32164D01*
X56229Y-32224D01*
X56384Y-32224D01*
X56527Y-32165D01*
X56637Y-32055D01*
X56697Y-31912D01*
X56697Y-33997D01*
X55697Y-33997D01*
X55697Y-31912D01*
X55697Y-31757D01*
X55638Y-31614D01*
X55528Y-31504D01*
X55385Y-31444D01*
X55230Y-31444D01*
X55087Y-31503D01*
X54977Y-31613D01*
X54917Y-31756D01*
X54917Y-31911D01*
X54976Y-32054D01*
X55086Y-32164D01*
X55229Y-32224D01*
X55384Y-32224D01*
X55527Y-32165D01*
X55637Y-32055D01*
X55697Y-31912D01*
X55697Y-33997D01*
X54981Y-33997D01*
X54981Y-37154D01*
X54912Y-37154D01*
X54907Y-37156D01*
X54907Y-36365D01*
X54907Y-36297D01*
X54881Y-36234D01*
X54842Y-36195D01*
X54866Y-36172D01*
X54892Y-36109D01*
X54892Y-36041D01*
X54866Y-35978D01*
X54818Y-35930D01*
X54755Y-35904D01*
X54697Y-35904D01*
X54697Y-31912D01*
X54697Y-31757D01*
X54638Y-31614D01*
X54528Y-31504D01*
X54385Y-31444D01*
X54230Y-31444D01*
X54087Y-31503D01*
X53977Y-31613D01*
X53917Y-31756D01*
X53917Y-31911D01*
X53976Y-32054D01*
X54086Y-32164D01*
X54229Y-32224D01*
X54384Y-32224D01*
X54527Y-32165D01*
X54637Y-32055D01*
X54697Y-31912D01*
X54697Y-35904D01*
X54687Y-35904D01*
X54624Y-35930D01*
X54576Y-35978D01*
X54550Y-36041D01*
X54550Y-36109D01*
X54576Y-36172D01*
X54614Y-36210D01*
X54591Y-36234D01*
X54565Y-36297D01*
X54565Y-36365D01*
X54591Y-36428D01*
X54639Y-36476D01*
X54702Y-36502D01*
X54770Y-36502D01*
X54833Y-36476D01*
X54881Y-36428D01*
X54907Y-36365D01*
X54907Y-37156D01*
X54842Y-37183D01*
X54789Y-37236D01*
X54760Y-37305D01*
X54760Y-37380D01*
X54789Y-37450D01*
X54842Y-37503D01*
X54911Y-37532D01*
X54981Y-37532D01*
X54981Y-42892D01*
X54950Y-42892D01*
X54887Y-42918D01*
X54856Y-42948D01*
X54818Y-42910D01*
X54755Y-42884D01*
X54687Y-42884D01*
X54624Y-42910D01*
X54624Y-37353D01*
X54624Y-37285D01*
X54598Y-37222D01*
X54550Y-37174D01*
X54487Y-37148D01*
X54419Y-37148D01*
X54410Y-37151D01*
X54410Y-34479D01*
X54410Y-34404D01*
X54381Y-34334D01*
X54328Y-34281D01*
X54259Y-34252D01*
X54184Y-34252D01*
X54114Y-34281D01*
X54061Y-34334D01*
X54032Y-34403D01*
X54032Y-34478D01*
X54061Y-34548D01*
X54114Y-34601D01*
X54183Y-34630D01*
X54258Y-34630D01*
X54328Y-34601D01*
X54381Y-34548D01*
X54410Y-34479D01*
X54410Y-37151D01*
X54356Y-37174D01*
X54308Y-37222D01*
X54282Y-37285D01*
X54282Y-37353D01*
X54308Y-37416D01*
X54356Y-37464D01*
X54419Y-37490D01*
X54487Y-37490D01*
X54550Y-37464D01*
X54598Y-37416D01*
X54624Y-37353D01*
X54624Y-42910D01*
X54576Y-42958D01*
X54550Y-43021D01*
X54550Y-43089D01*
X54576Y-43152D01*
X54624Y-43200D01*
X54687Y-43226D01*
X54755Y-43226D01*
X54818Y-43200D01*
X54848Y-43169D01*
X54887Y-43208D01*
X54950Y-43234D01*
X54981Y-43234D01*
X54981Y-45085D01*
X54764Y-45085D01*
X54757Y-45067D01*
X54731Y-45041D01*
X54698Y-45027D01*
X54661Y-45027D01*
X54387Y-45027D01*
X54353Y-45041D01*
X54327Y-45067D01*
X54313Y-45100D01*
X54313Y-45137D01*
X54313Y-45451D01*
X54327Y-45485D01*
X54353Y-45511D01*
X54386Y-45525D01*
X54423Y-45525D01*
X54697Y-45525D01*
X54731Y-45511D01*
X54757Y-45485D01*
X54764Y-45467D01*
X54981Y-45467D01*
X54981Y-46082D01*
X62893Y-46082D01*
X62893Y-45610D01*
X66005Y-45610D01*
X66005Y-49509D01*
X66005Y-49509D01*
G37*
G54D111*
X66005Y-49509D02*
X63433Y-49509D01*
X63433Y-48428D01*
X63433Y-48273D01*
X63374Y-48130D01*
X63264Y-48020D01*
X63121Y-47960D01*
X62966Y-47960D01*
X62823Y-48019D01*
X62713Y-48129D01*
X62653Y-48272D01*
X62653Y-48427D01*
X62712Y-48570D01*
X62822Y-48680D01*
X62965Y-48740D01*
X63120Y-48740D01*
X63263Y-48681D01*
X63373Y-48571D01*
X63433Y-48428D01*
X63433Y-49509D01*
X62433Y-49509D01*
X62433Y-48428D01*
X62433Y-48273D01*
X62374Y-48130D01*
X62264Y-48020D01*
X62121Y-47960D01*
X61966Y-47960D01*
X61823Y-48019D01*
X61713Y-48129D01*
X61653Y-48272D01*
X61653Y-48427D01*
X61712Y-48570D01*
X61822Y-48680D01*
X61965Y-48740D01*
X62120Y-48740D01*
X62263Y-48681D01*
X62373Y-48571D01*
X62433Y-48428D01*
X62433Y-49509D01*
X60433Y-49509D01*
X60433Y-48428D01*
X60433Y-48273D01*
X60374Y-48130D01*
X60264Y-48020D01*
X60121Y-47960D01*
X60040Y-47960D01*
X60040Y-47168D01*
X60040Y-47131D01*
X60040Y-46817D01*
X60026Y-46783D01*
X60000Y-46757D01*
X59967Y-46743D01*
X59930Y-46743D01*
X59616Y-46743D01*
X59582Y-46757D01*
X59556Y-46783D01*
X59542Y-46816D01*
X59542Y-46853D01*
X59542Y-46900D01*
X59510Y-46900D01*
X59486Y-46876D01*
X59453Y-46862D01*
X59416Y-46862D01*
X59242Y-46862D01*
X59208Y-46876D01*
X59182Y-46902D01*
X59168Y-46935D01*
X59168Y-46972D01*
X59168Y-47166D01*
X59182Y-47200D01*
X59208Y-47226D01*
X59241Y-47240D01*
X59278Y-47240D01*
X59452Y-47240D01*
X59486Y-47226D01*
X59510Y-47202D01*
X59557Y-47202D01*
X59582Y-47227D01*
X59615Y-47241D01*
X59652Y-47241D01*
X59966Y-47241D01*
X60000Y-47227D01*
X60026Y-47201D01*
X60040Y-47168D01*
X60040Y-47960D01*
X59966Y-47960D01*
X59823Y-48019D01*
X59713Y-48129D01*
X59653Y-48272D01*
X59653Y-48427D01*
X59712Y-48570D01*
X59822Y-48680D01*
X59965Y-48740D01*
X60120Y-48740D01*
X60263Y-48681D01*
X60373Y-48571D01*
X60433Y-48428D01*
X60433Y-49509D01*
X59433Y-49509D01*
X59433Y-48647D01*
X59433Y-48610D01*
X59433Y-48014D01*
X59419Y-47980D01*
X59393Y-47954D01*
X59360Y-47940D01*
X59323Y-47940D01*
X59165Y-47940D01*
X59165Y-46810D01*
X59165Y-46735D01*
X59136Y-46665D01*
X59083Y-46612D01*
X59014Y-46583D01*
X58939Y-46583D01*
X58869Y-46612D01*
X58816Y-46665D01*
X58787Y-46734D01*
X58787Y-46809D01*
X58816Y-46879D01*
X58825Y-46888D01*
X58825Y-46889D01*
X58812Y-46902D01*
X58798Y-46935D01*
X58798Y-46972D01*
X58798Y-47166D01*
X58812Y-47200D01*
X58838Y-47226D01*
X58871Y-47240D01*
X58908Y-47240D01*
X59082Y-47240D01*
X59116Y-47226D01*
X59142Y-47200D01*
X59156Y-47167D01*
X59156Y-47130D01*
X59156Y-46936D01*
X59142Y-46902D01*
X59127Y-46887D01*
X59136Y-46879D01*
X59165Y-46810D01*
X59165Y-47940D01*
X58727Y-47940D01*
X58693Y-47954D01*
X58667Y-47980D01*
X58653Y-48013D01*
X58653Y-48050D01*
X58653Y-48646D01*
X58667Y-48680D01*
X58693Y-48706D01*
X58726Y-48720D01*
X58763Y-48720D01*
X59359Y-48720D01*
X59393Y-48706D01*
X59419Y-48680D01*
X59433Y-48647D01*
X59433Y-49509D01*
X57805Y-49509D01*
X57780Y-49498D01*
X57673Y-49498D01*
X57646Y-49509D01*
X57376Y-49509D01*
X57376Y-48292D01*
X57357Y-48196D01*
X57317Y-48136D01*
X57317Y-48109D01*
X57307Y-48084D01*
X57307Y-47676D01*
X57307Y-47639D01*
X57307Y-47325D01*
X57293Y-47291D01*
X57267Y-47265D01*
X57234Y-47251D01*
X57197Y-47251D01*
X57146Y-47251D01*
X57143Y-47249D01*
X57047Y-47230D01*
X56860Y-47230D01*
X56860Y-47133D01*
X56846Y-47099D01*
X56820Y-47073D01*
X56787Y-47059D01*
X56750Y-47059D01*
X56278Y-47059D01*
X56244Y-47073D01*
X56224Y-47093D01*
X55948Y-47093D01*
X55948Y-47015D01*
X55933Y-46980D01*
X55907Y-46953D01*
X55872Y-46939D01*
X55834Y-46939D01*
X54418Y-46939D01*
X54383Y-46954D01*
X54356Y-46980D01*
X54342Y-47015D01*
X54342Y-47053D01*
X54342Y-47603D01*
X54357Y-47638D01*
X54383Y-47665D01*
X54418Y-47679D01*
X54456Y-47679D01*
X55872Y-47679D01*
X55907Y-47664D01*
X55934Y-47638D01*
X55948Y-47603D01*
X55948Y-47593D01*
X56204Y-47593D01*
X56204Y-47679D01*
X56218Y-47713D01*
X56244Y-47739D01*
X56277Y-47753D01*
X56314Y-47753D01*
X56786Y-47753D01*
X56820Y-47739D01*
X56829Y-47730D01*
X56884Y-47730D01*
X56889Y-47735D01*
X56922Y-47749D01*
X56959Y-47749D01*
X57233Y-47749D01*
X57267Y-47735D01*
X57293Y-47709D01*
X57307Y-47676D01*
X57307Y-48084D01*
X57303Y-48075D01*
X57277Y-48049D01*
X57244Y-48035D01*
X57207Y-48035D01*
X56933Y-48035D01*
X56916Y-48042D01*
X56860Y-48042D01*
X56860Y-48037D01*
X56846Y-48003D01*
X56820Y-47977D01*
X56787Y-47963D01*
X56750Y-47963D01*
X56278Y-47963D01*
X56244Y-47977D01*
X56218Y-48003D01*
X56204Y-48036D01*
X56204Y-48073D01*
X56204Y-48583D01*
X56218Y-48617D01*
X56244Y-48643D01*
X56277Y-48657D01*
X56314Y-48657D01*
X56325Y-48657D01*
X56325Y-48778D01*
X56246Y-48858D01*
X56186Y-49001D01*
X56186Y-49156D01*
X56245Y-49299D01*
X56355Y-49409D01*
X56498Y-49469D01*
X56653Y-49469D01*
X56796Y-49410D01*
X56906Y-49300D01*
X56966Y-49157D01*
X56966Y-49002D01*
X56907Y-48859D01*
X56825Y-48777D01*
X56825Y-48637D01*
X56846Y-48617D01*
X56860Y-48584D01*
X56860Y-48547D01*
X56860Y-48542D01*
X57126Y-48542D01*
X57171Y-48533D01*
X57243Y-48533D01*
X57277Y-48519D01*
X57303Y-48493D01*
X57317Y-48460D01*
X57317Y-48448D01*
X57357Y-48388D01*
X57376Y-48292D01*
X57376Y-49509D01*
X57371Y-49509D01*
X57346Y-49498D01*
X57239Y-49498D01*
X57212Y-49509D01*
X56938Y-49509D01*
X56913Y-49498D01*
X56806Y-49498D01*
X56779Y-49509D01*
X56505Y-49509D01*
X56480Y-49498D01*
X56373Y-49498D01*
X56346Y-49509D01*
X54299Y-49509D01*
X54299Y-44206D01*
X54299Y-43675D01*
X54168Y-43588D01*
X54077Y-43588D01*
X54077Y-34877D01*
X54077Y-34809D01*
X54051Y-34746D01*
X54003Y-34698D01*
X53940Y-34672D01*
X53872Y-34672D01*
X53809Y-34698D01*
X53761Y-34746D01*
X53735Y-34809D01*
X53735Y-34877D01*
X53761Y-34940D01*
X53809Y-34988D01*
X53872Y-35014D01*
X53940Y-35014D01*
X54003Y-34988D01*
X54051Y-34940D01*
X54077Y-34877D01*
X54077Y-43588D01*
X53833Y-43588D01*
X53833Y-38589D01*
X53833Y-38521D01*
X53807Y-38458D01*
X53804Y-38455D01*
X53807Y-38452D01*
X53833Y-38389D01*
X53833Y-38321D01*
X53807Y-38258D01*
X53759Y-38210D01*
X53696Y-38184D01*
X53628Y-38184D01*
X53565Y-38210D01*
X53517Y-38258D01*
X53494Y-38313D01*
X53494Y-36487D01*
X53494Y-36419D01*
X53468Y-36356D01*
X53420Y-36308D01*
X53357Y-36282D01*
X53289Y-36282D01*
X53242Y-36301D01*
X53242Y-34896D01*
X53242Y-34828D01*
X53216Y-34765D01*
X53168Y-34717D01*
X53105Y-34691D01*
X53037Y-34691D01*
X52974Y-34717D01*
X52926Y-34765D01*
X52900Y-34828D01*
X52900Y-34896D01*
X52911Y-34924D01*
X52872Y-34924D01*
X52809Y-34950D01*
X52761Y-34998D01*
X52735Y-35061D01*
X52735Y-35129D01*
X52761Y-35192D01*
X52809Y-35240D01*
X52872Y-35266D01*
X52940Y-35266D01*
X53003Y-35240D01*
X53051Y-35192D01*
X53077Y-35129D01*
X53077Y-35061D01*
X53065Y-35033D01*
X53105Y-35033D01*
X53168Y-35007D01*
X53216Y-34959D01*
X53242Y-34896D01*
X53242Y-36301D01*
X53226Y-36308D01*
X53178Y-36356D01*
X53152Y-36419D01*
X53152Y-36487D01*
X53178Y-36550D01*
X53226Y-36598D01*
X53289Y-36624D01*
X53357Y-36624D01*
X53420Y-36598D01*
X53468Y-36550D01*
X53494Y-36487D01*
X53494Y-38313D01*
X53491Y-38321D01*
X53491Y-38389D01*
X53517Y-38452D01*
X53520Y-38455D01*
X53517Y-38458D01*
X53491Y-38521D01*
X53491Y-38589D01*
X53517Y-38652D01*
X53565Y-38700D01*
X53628Y-38726D01*
X53696Y-38726D01*
X53759Y-38700D01*
X53807Y-38652D01*
X53833Y-38589D01*
X53833Y-43588D01*
X53821Y-43588D01*
X53821Y-41570D01*
X53821Y-41502D01*
X53821Y-39015D01*
X53821Y-38947D01*
X53795Y-38884D01*
X53747Y-38836D01*
X53684Y-38810D01*
X53616Y-38810D01*
X53553Y-38836D01*
X53505Y-38884D01*
X53479Y-38947D01*
X53479Y-39015D01*
X53505Y-39078D01*
X53553Y-39126D01*
X53616Y-39152D01*
X53684Y-39152D01*
X53747Y-39126D01*
X53795Y-39078D01*
X53821Y-39015D01*
X53821Y-41502D01*
X53797Y-41443D01*
X53797Y-39404D01*
X53797Y-39336D01*
X53771Y-39273D01*
X53723Y-39225D01*
X53660Y-39199D01*
X53592Y-39199D01*
X53529Y-39225D01*
X53481Y-39273D01*
X53455Y-39336D01*
X53455Y-39404D01*
X53478Y-39460D01*
X53465Y-39474D01*
X53439Y-39537D01*
X53439Y-39605D01*
X53465Y-39668D01*
X53513Y-39716D01*
X53576Y-39742D01*
X53644Y-39742D01*
X53707Y-39716D01*
X53755Y-39668D01*
X53781Y-39605D01*
X53781Y-39537D01*
X53757Y-39480D01*
X53771Y-39467D01*
X53797Y-39404D01*
X53797Y-41443D01*
X53795Y-41439D01*
X53773Y-41417D01*
X53773Y-40593D01*
X53773Y-40525D01*
X53754Y-40478D01*
X53754Y-40235D01*
X53754Y-40167D01*
X53728Y-40104D01*
X53680Y-40056D01*
X53617Y-40030D01*
X53549Y-40030D01*
X53486Y-40056D01*
X53438Y-40104D01*
X53412Y-40167D01*
X53412Y-40235D01*
X53438Y-40298D01*
X53486Y-40346D01*
X53549Y-40372D01*
X53617Y-40372D01*
X53680Y-40346D01*
X53728Y-40298D01*
X53754Y-40235D01*
X53754Y-40478D01*
X53747Y-40462D01*
X53699Y-40414D01*
X53636Y-40388D01*
X53568Y-40388D01*
X53505Y-40414D01*
X53457Y-40462D01*
X53431Y-40525D01*
X53431Y-40593D01*
X53457Y-40656D01*
X53505Y-40704D01*
X53568Y-40730D01*
X53636Y-40730D01*
X53699Y-40704D01*
X53747Y-40656D01*
X53773Y-40593D01*
X53773Y-41417D01*
X53747Y-41391D01*
X53698Y-41370D01*
X53736Y-41333D01*
X53762Y-41270D01*
X53762Y-41202D01*
X53736Y-41139D01*
X53732Y-41135D01*
X53758Y-41074D01*
X53758Y-41006D01*
X53732Y-40943D01*
X53684Y-40895D01*
X53621Y-40869D01*
X53553Y-40869D01*
X53490Y-40895D01*
X53442Y-40943D01*
X53416Y-41006D01*
X53416Y-41074D01*
X53442Y-41137D01*
X53445Y-41140D01*
X53420Y-41202D01*
X53420Y-41270D01*
X53446Y-41333D01*
X53494Y-41381D01*
X53542Y-41401D01*
X53505Y-41439D01*
X53479Y-41502D01*
X53479Y-41570D01*
X53505Y-41633D01*
X53553Y-41681D01*
X53616Y-41707D01*
X53684Y-41707D01*
X53747Y-41681D01*
X53795Y-41633D01*
X53821Y-41570D01*
X53821Y-43588D01*
X53750Y-43588D01*
X53750Y-42156D01*
X53750Y-42088D01*
X53724Y-42025D01*
X53722Y-42023D01*
X53724Y-42022D01*
X53750Y-41959D01*
X53750Y-41891D01*
X53724Y-41828D01*
X53676Y-41780D01*
X53613Y-41754D01*
X53545Y-41754D01*
X53482Y-41780D01*
X53434Y-41828D01*
X53408Y-41891D01*
X53408Y-41959D01*
X53434Y-42022D01*
X53435Y-42023D01*
X53434Y-42025D01*
X53408Y-42088D01*
X53408Y-42156D01*
X53434Y-42219D01*
X53482Y-42267D01*
X53545Y-42293D01*
X53613Y-42293D01*
X53676Y-42267D01*
X53724Y-42219D01*
X53750Y-42156D01*
X53750Y-43588D01*
X53328Y-43588D01*
X53099Y-43769D01*
X53059Y-43769D01*
X53101Y-43727D01*
X53130Y-43658D01*
X53130Y-43583D01*
X53101Y-43513D01*
X53048Y-43460D01*
X53041Y-43457D01*
X53041Y-37361D01*
X53041Y-37293D01*
X53041Y-36786D01*
X53041Y-36718D01*
X53015Y-36655D01*
X52967Y-36607D01*
X52904Y-36581D01*
X52836Y-36581D01*
X52773Y-36607D01*
X52725Y-36655D01*
X52699Y-36718D01*
X52699Y-36786D01*
X52725Y-36849D01*
X52773Y-36897D01*
X52836Y-36923D01*
X52904Y-36923D01*
X52967Y-36897D01*
X53015Y-36849D01*
X53041Y-36786D01*
X53041Y-37293D01*
X53015Y-37230D01*
X52967Y-37182D01*
X52904Y-37156D01*
X52836Y-37156D01*
X52773Y-37182D01*
X52725Y-37230D01*
X52699Y-37293D01*
X52699Y-37344D01*
X52680Y-37337D01*
X52612Y-37337D01*
X52549Y-37363D01*
X52501Y-37411D01*
X52475Y-37474D01*
X52475Y-37542D01*
X52501Y-37605D01*
X52549Y-37653D01*
X52556Y-37656D01*
X52509Y-37656D01*
X52446Y-37682D01*
X52398Y-37730D01*
X52372Y-37793D01*
X52372Y-37861D01*
X52398Y-37924D01*
X52446Y-37972D01*
X52492Y-37991D01*
X52482Y-37991D01*
X52419Y-38017D01*
X52371Y-38065D01*
X52364Y-38081D01*
X52364Y-35924D01*
X52364Y-35856D01*
X52338Y-35793D01*
X52290Y-35745D01*
X52227Y-35719D01*
X52170Y-35719D01*
X52170Y-31792D01*
X52170Y-31644D01*
X52114Y-31508D01*
X52010Y-31403D01*
X51874Y-31346D01*
X51726Y-31346D01*
X51590Y-31402D01*
X51485Y-31506D01*
X51428Y-31642D01*
X51428Y-31790D01*
X51484Y-31926D01*
X51588Y-32031D01*
X51724Y-32088D01*
X51872Y-32088D01*
X52008Y-32032D01*
X52113Y-31928D01*
X52170Y-31792D01*
X52170Y-35719D01*
X52159Y-35719D01*
X52096Y-35745D01*
X52048Y-35793D01*
X52022Y-35856D01*
X52022Y-35924D01*
X52048Y-35987D01*
X52096Y-36035D01*
X52159Y-36061D01*
X52227Y-36061D01*
X52290Y-36035D01*
X52338Y-35987D01*
X52364Y-35924D01*
X52364Y-38081D01*
X52345Y-38128D01*
X52345Y-38196D01*
X52371Y-38259D01*
X52419Y-38307D01*
X52482Y-38333D01*
X52550Y-38333D01*
X52613Y-38307D01*
X52661Y-38259D01*
X52687Y-38196D01*
X52687Y-38128D01*
X52661Y-38065D01*
X52613Y-38017D01*
X52566Y-37998D01*
X52577Y-37998D01*
X52640Y-37972D01*
X52688Y-37924D01*
X52714Y-37861D01*
X52714Y-37793D01*
X52688Y-37730D01*
X52640Y-37682D01*
X52632Y-37679D01*
X52680Y-37679D01*
X52743Y-37653D01*
X52791Y-37605D01*
X52817Y-37542D01*
X52817Y-37490D01*
X52836Y-37498D01*
X52904Y-37498D01*
X52967Y-37472D01*
X53015Y-37424D01*
X53041Y-37361D01*
X53041Y-43457D01*
X52979Y-43431D01*
X52933Y-43431D01*
X52933Y-43387D01*
X52904Y-43317D01*
X52851Y-43264D01*
X52782Y-43235D01*
X52707Y-43235D01*
X52706Y-43235D01*
X52706Y-41766D01*
X52706Y-41698D01*
X52680Y-41635D01*
X52636Y-41591D01*
X52636Y-41077D01*
X52636Y-41009D01*
X52610Y-40946D01*
X52573Y-40909D01*
X52573Y-39849D01*
X52573Y-39781D01*
X52557Y-39742D01*
X52557Y-39215D01*
X52557Y-39147D01*
X52537Y-39098D01*
X52537Y-38806D01*
X52537Y-38738D01*
X52511Y-38675D01*
X52463Y-38627D01*
X52400Y-38601D01*
X52332Y-38601D01*
X52269Y-38627D01*
X52221Y-38675D01*
X52195Y-38738D01*
X52195Y-38806D01*
X52221Y-38869D01*
X52269Y-38917D01*
X52332Y-38943D01*
X52400Y-38943D01*
X52463Y-38917D01*
X52511Y-38869D01*
X52537Y-38806D01*
X52537Y-39098D01*
X52531Y-39084D01*
X52483Y-39036D01*
X52420Y-39010D01*
X52352Y-39010D01*
X52289Y-39036D01*
X52241Y-39084D01*
X52215Y-39147D01*
X52215Y-39215D01*
X52241Y-39278D01*
X52289Y-39326D01*
X52352Y-39352D01*
X52420Y-39352D01*
X52483Y-39326D01*
X52531Y-39278D01*
X52557Y-39215D01*
X52557Y-39742D01*
X52547Y-39718D01*
X52499Y-39670D01*
X52436Y-39644D01*
X52368Y-39644D01*
X52305Y-39670D01*
X52257Y-39718D01*
X52231Y-39781D01*
X52231Y-39845D01*
X52198Y-39845D01*
X52165Y-39858D01*
X52165Y-36612D01*
X52165Y-36575D01*
X52165Y-36381D01*
X52151Y-36347D01*
X52125Y-36321D01*
X52092Y-36307D01*
X52055Y-36307D01*
X51861Y-36307D01*
X51840Y-36314D01*
X51840Y-35322D01*
X51840Y-35254D01*
X51814Y-35191D01*
X51766Y-35143D01*
X51703Y-35117D01*
X51635Y-35117D01*
X51634Y-35117D01*
X51634Y-35105D01*
X51634Y-34931D01*
X51620Y-34897D01*
X51596Y-34873D01*
X51596Y-34560D01*
X51596Y-34552D01*
X51592Y-34531D01*
X51588Y-34501D01*
X51585Y-34497D01*
X51585Y-34494D01*
X51568Y-34468D01*
X51557Y-34451D01*
X51553Y-34446D01*
X51552Y-34445D01*
X51551Y-34444D01*
X51358Y-34228D01*
X51358Y-34207D01*
X51329Y-34137D01*
X51276Y-34084D01*
X51207Y-34055D01*
X51132Y-34055D01*
X51062Y-34084D01*
X51009Y-34137D01*
X50980Y-34206D01*
X50980Y-34281D01*
X51009Y-34351D01*
X51062Y-34404D01*
X51131Y-34433D01*
X51135Y-34433D01*
X51294Y-34609D01*
X51294Y-34873D01*
X51270Y-34897D01*
X51256Y-34930D01*
X51256Y-34967D01*
X51256Y-35141D01*
X51270Y-35175D01*
X51296Y-35201D01*
X51329Y-35215D01*
X51366Y-35215D01*
X51514Y-35215D01*
X51509Y-35227D01*
X51330Y-35227D01*
X51296Y-35241D01*
X51270Y-35267D01*
X51256Y-35300D01*
X51256Y-35337D01*
X51256Y-35511D01*
X51270Y-35545D01*
X51296Y-35571D01*
X51329Y-35585D01*
X51333Y-35585D01*
X51333Y-35799D01*
X51300Y-35832D01*
X51274Y-35895D01*
X51274Y-35963D01*
X51300Y-36026D01*
X51348Y-36074D01*
X51411Y-36100D01*
X51479Y-36100D01*
X51542Y-36074D01*
X51590Y-36026D01*
X51616Y-35963D01*
X51616Y-35895D01*
X51590Y-35832D01*
X51557Y-35799D01*
X51557Y-35585D01*
X51560Y-35585D01*
X51594Y-35571D01*
X51620Y-35545D01*
X51634Y-35512D01*
X51634Y-35475D01*
X51634Y-35458D01*
X51635Y-35459D01*
X51703Y-35459D01*
X51766Y-35433D01*
X51814Y-35385D01*
X51840Y-35322D01*
X51840Y-36314D01*
X51831Y-36318D01*
X51829Y-36316D01*
X51766Y-36290D01*
X51698Y-36290D01*
X51635Y-36316D01*
X51587Y-36364D01*
X51561Y-36427D01*
X51561Y-36495D01*
X51587Y-36558D01*
X51635Y-36606D01*
X51698Y-36632D01*
X51766Y-36632D01*
X51791Y-36621D01*
X51801Y-36645D01*
X51827Y-36671D01*
X51860Y-36685D01*
X51897Y-36685D01*
X52091Y-36685D01*
X52125Y-36671D01*
X52151Y-36645D01*
X52165Y-36612D01*
X52165Y-39858D01*
X52135Y-39871D01*
X52087Y-39919D01*
X52061Y-39982D01*
X52061Y-40050D01*
X52087Y-40113D01*
X52135Y-40161D01*
X52198Y-40187D01*
X52266Y-40187D01*
X52329Y-40161D01*
X52377Y-40113D01*
X52403Y-40050D01*
X52403Y-39986D01*
X52436Y-39986D01*
X52499Y-39960D01*
X52547Y-39912D01*
X52573Y-39849D01*
X52573Y-40909D01*
X52562Y-40898D01*
X52499Y-40872D01*
X52447Y-40872D01*
X52447Y-40813D01*
X52421Y-40750D01*
X52376Y-40705D01*
X52384Y-40688D01*
X52384Y-40620D01*
X52358Y-40557D01*
X52341Y-40540D01*
X52345Y-40539D01*
X52393Y-40491D01*
X52419Y-40428D01*
X52419Y-40360D01*
X52393Y-40297D01*
X52345Y-40249D01*
X52282Y-40223D01*
X52214Y-40223D01*
X52151Y-40249D01*
X52103Y-40297D01*
X52077Y-40360D01*
X52077Y-40428D01*
X52103Y-40491D01*
X52119Y-40507D01*
X52116Y-40509D01*
X52068Y-40557D01*
X52042Y-40620D01*
X52042Y-40688D01*
X52068Y-40751D01*
X52112Y-40795D01*
X52105Y-40813D01*
X52105Y-40881D01*
X52131Y-40944D01*
X52179Y-40992D01*
X52242Y-41018D01*
X52294Y-41018D01*
X52294Y-41077D01*
X52320Y-41140D01*
X52368Y-41188D01*
X52431Y-41214D01*
X52499Y-41214D01*
X52562Y-41188D01*
X52610Y-41140D01*
X52636Y-41077D01*
X52636Y-41591D01*
X52632Y-41587D01*
X52569Y-41561D01*
X52501Y-41561D01*
X52438Y-41587D01*
X52390Y-41635D01*
X52364Y-41698D01*
X52364Y-41766D01*
X52390Y-41829D01*
X52438Y-41877D01*
X52501Y-41903D01*
X52569Y-41903D01*
X52632Y-41877D01*
X52680Y-41829D01*
X52706Y-41766D01*
X52706Y-43235D01*
X52637Y-43264D01*
X52584Y-43317D01*
X52566Y-43358D01*
X52549Y-43317D01*
X52496Y-43264D01*
X52427Y-43235D01*
X52352Y-43235D01*
X52289Y-43261D01*
X52289Y-42388D01*
X52289Y-42320D01*
X52263Y-42257D01*
X52215Y-42209D01*
X52152Y-42183D01*
X52084Y-42183D01*
X52021Y-42209D01*
X52017Y-42213D01*
X52014Y-42210D01*
X51951Y-42184D01*
X51923Y-42184D01*
X51923Y-40782D01*
X51923Y-40714D01*
X51899Y-40655D01*
X51899Y-37274D01*
X51899Y-37206D01*
X51873Y-37143D01*
X51828Y-37098D01*
X51873Y-37054D01*
X51899Y-36991D01*
X51899Y-36923D01*
X51873Y-36860D01*
X51825Y-36812D01*
X51762Y-36786D01*
X51694Y-36786D01*
X51631Y-36812D01*
X51583Y-36860D01*
X51557Y-36923D01*
X51557Y-36991D01*
X51583Y-37054D01*
X51627Y-37098D01*
X51583Y-37143D01*
X51557Y-37206D01*
X51557Y-37274D01*
X51583Y-37337D01*
X51616Y-37370D01*
X51576Y-37411D01*
X51550Y-37474D01*
X51550Y-37542D01*
X51576Y-37605D01*
X51624Y-37653D01*
X51687Y-37679D01*
X51755Y-37679D01*
X51818Y-37653D01*
X51866Y-37605D01*
X51892Y-37542D01*
X51892Y-37474D01*
X51866Y-37411D01*
X51832Y-37377D01*
X51873Y-37337D01*
X51899Y-37274D01*
X51899Y-40655D01*
X51897Y-40651D01*
X51888Y-40642D01*
X51888Y-38026D01*
X51888Y-37958D01*
X51862Y-37895D01*
X51814Y-37847D01*
X51751Y-37821D01*
X51683Y-37821D01*
X51620Y-37847D01*
X51572Y-37895D01*
X51546Y-37958D01*
X51546Y-38026D01*
X51572Y-38089D01*
X51620Y-38137D01*
X51683Y-38163D01*
X51751Y-38163D01*
X51814Y-38137D01*
X51862Y-38089D01*
X51888Y-38026D01*
X51888Y-40642D01*
X51849Y-40603D01*
X51786Y-40577D01*
X51718Y-40577D01*
X51655Y-40603D01*
X51607Y-40651D01*
X51581Y-40714D01*
X51581Y-40782D01*
X51607Y-40845D01*
X51655Y-40893D01*
X51718Y-40919D01*
X51786Y-40919D01*
X51849Y-40893D01*
X51897Y-40845D01*
X51923Y-40782D01*
X51923Y-42184D01*
X51883Y-42184D01*
X51820Y-42210D01*
X51777Y-42252D01*
X51735Y-42210D01*
X51672Y-42184D01*
X51604Y-42184D01*
X51541Y-42210D01*
X51518Y-42233D01*
X51495Y-42210D01*
X51432Y-42184D01*
X51364Y-42184D01*
X51301Y-42210D01*
X51262Y-42249D01*
X51262Y-40983D01*
X51262Y-40915D01*
X51236Y-40852D01*
X51188Y-40804D01*
X51125Y-40778D01*
X51057Y-40778D01*
X50994Y-40804D01*
X50946Y-40852D01*
X50920Y-40915D01*
X50920Y-40983D01*
X50946Y-41046D01*
X50994Y-41094D01*
X51057Y-41120D01*
X51125Y-41120D01*
X51188Y-41094D01*
X51236Y-41046D01*
X51262Y-40983D01*
X51262Y-42249D01*
X51253Y-42258D01*
X51227Y-42321D01*
X51227Y-42389D01*
X51253Y-42452D01*
X51301Y-42500D01*
X51364Y-42526D01*
X51432Y-42526D01*
X51495Y-42500D01*
X51518Y-42477D01*
X51541Y-42500D01*
X51604Y-42526D01*
X51672Y-42526D01*
X51735Y-42500D01*
X51777Y-42457D01*
X51820Y-42500D01*
X51883Y-42526D01*
X51951Y-42526D01*
X52014Y-42500D01*
X52018Y-42496D01*
X52021Y-42499D01*
X52084Y-42525D01*
X52152Y-42525D01*
X52215Y-42499D01*
X52263Y-42451D01*
X52289Y-42388D01*
X52289Y-43261D01*
X52282Y-43264D01*
X52229Y-43317D01*
X52200Y-43386D01*
X52200Y-43432D01*
X52195Y-43432D01*
X52125Y-43461D01*
X52072Y-43514D01*
X52043Y-43583D01*
X52043Y-43658D01*
X52072Y-43728D01*
X52113Y-43769D01*
X52048Y-43769D01*
X52056Y-44531D01*
X52125Y-44531D01*
X52125Y-44554D01*
X52125Y-45026D01*
X52139Y-45060D01*
X52165Y-45086D01*
X52198Y-45100D01*
X52235Y-45100D01*
X52652Y-45100D01*
X52662Y-45110D01*
X52704Y-45152D01*
X52719Y-45158D01*
X52773Y-45181D01*
X52789Y-45181D01*
X52848Y-45181D01*
X52863Y-45174D01*
X52918Y-45152D01*
X52928Y-45141D01*
X52930Y-45141D01*
X52934Y-45135D01*
X52970Y-45100D01*
X53212Y-45100D01*
X53246Y-45086D01*
X53272Y-45060D01*
X53286Y-45027D01*
X53286Y-44990D01*
X53286Y-44958D01*
X53296Y-44906D01*
X53286Y-44853D01*
X53286Y-44676D01*
X53272Y-44642D01*
X53246Y-44616D01*
X53213Y-44602D01*
X53176Y-44602D01*
X52902Y-44602D01*
X52868Y-44616D01*
X52842Y-44642D01*
X52828Y-44675D01*
X52828Y-44712D01*
X52828Y-44716D01*
X52819Y-44716D01*
X52819Y-44531D01*
X53932Y-44531D01*
X54299Y-44206D01*
X54299Y-49509D01*
X54280Y-49509D01*
X53578Y-49509D01*
X53586Y-49491D01*
X53586Y-49453D01*
X53586Y-46855D01*
X53571Y-46820D01*
X53545Y-46793D01*
X53510Y-46779D01*
X53472Y-46779D01*
X52971Y-46779D01*
X52971Y-45728D01*
X52971Y-45653D01*
X52942Y-45583D01*
X52891Y-45532D01*
X52942Y-45482D01*
X52971Y-45413D01*
X52971Y-45338D01*
X52942Y-45268D01*
X52889Y-45215D01*
X52820Y-45186D01*
X52745Y-45186D01*
X52675Y-45215D01*
X52622Y-45268D01*
X52593Y-45337D01*
X52593Y-45412D01*
X52622Y-45482D01*
X52672Y-45532D01*
X52622Y-45583D01*
X52593Y-45652D01*
X52593Y-45727D01*
X52597Y-45738D01*
X52547Y-45738D01*
X52477Y-45767D01*
X52424Y-45820D01*
X52395Y-45889D01*
X52395Y-45964D01*
X52424Y-46034D01*
X52477Y-46087D01*
X52546Y-46116D01*
X52621Y-46116D01*
X52691Y-46087D01*
X52744Y-46034D01*
X52773Y-45965D01*
X52773Y-45890D01*
X52768Y-45879D01*
X52819Y-45879D01*
X52889Y-45850D01*
X52942Y-45797D01*
X52971Y-45728D01*
X52971Y-46779D01*
X52379Y-46779D01*
X52379Y-45965D01*
X52379Y-45890D01*
X52350Y-45820D01*
X52297Y-45767D01*
X52228Y-45738D01*
X52178Y-45738D01*
X52183Y-45728D01*
X52183Y-45653D01*
X52154Y-45583D01*
X52103Y-45532D01*
X52154Y-45482D01*
X52183Y-45413D01*
X52183Y-45338D01*
X52154Y-45268D01*
X52101Y-45215D01*
X52032Y-45186D01*
X52019Y-45186D01*
X52014Y-45186D01*
X52019Y-45181D01*
X52015Y-43071D01*
X51871Y-42997D01*
X51201Y-42997D01*
X51107Y-43091D01*
X51107Y-44425D01*
X50883Y-44650D01*
X50883Y-45091D01*
X51059Y-45271D01*
X51832Y-45271D01*
X51805Y-45337D01*
X51805Y-45412D01*
X51834Y-45482D01*
X51884Y-45532D01*
X51834Y-45583D01*
X51805Y-45652D01*
X51805Y-45727D01*
X51834Y-45797D01*
X51887Y-45850D01*
X51956Y-45879D01*
X52005Y-45879D01*
X52001Y-45889D01*
X52001Y-45964D01*
X52019Y-46007D01*
X52030Y-46034D01*
X52083Y-46087D01*
X52152Y-46116D01*
X52227Y-46116D01*
X52297Y-46087D01*
X52350Y-46034D01*
X52379Y-45965D01*
X52379Y-46779D01*
X52019Y-46779D01*
X51032Y-46779D01*
X50997Y-46794D01*
X50970Y-46820D01*
X50956Y-46855D01*
X50956Y-46893D01*
X50956Y-49491D01*
X50963Y-49509D01*
X50088Y-49509D01*
X50088Y-37046D01*
X50088Y-36978D01*
X50062Y-36915D01*
X50014Y-36867D01*
X49951Y-36841D01*
X49919Y-36841D01*
X49919Y-36259D01*
X49919Y-36191D01*
X49893Y-36128D01*
X49845Y-36080D01*
X49782Y-36054D01*
X49714Y-36054D01*
X49651Y-36080D01*
X49603Y-36128D01*
X49577Y-36191D01*
X49577Y-36259D01*
X49603Y-36322D01*
X49604Y-36323D01*
X49599Y-36328D01*
X49573Y-36391D01*
X49573Y-36459D01*
X49599Y-36522D01*
X49647Y-36570D01*
X49710Y-36596D01*
X49778Y-36596D01*
X49841Y-36570D01*
X49889Y-36522D01*
X49915Y-36459D01*
X49915Y-36391D01*
X49889Y-36328D01*
X49888Y-36327D01*
X49893Y-36322D01*
X49919Y-36259D01*
X49919Y-36841D01*
X49883Y-36841D01*
X49820Y-36867D01*
X49772Y-36915D01*
X49746Y-36978D01*
X49746Y-37046D01*
X49766Y-37095D01*
X49731Y-37060D01*
X49668Y-37034D01*
X49600Y-37034D01*
X49537Y-37060D01*
X49489Y-37108D01*
X49463Y-37171D01*
X49463Y-37239D01*
X49484Y-37290D01*
X49451Y-37257D01*
X49427Y-37247D01*
X49427Y-36062D01*
X49427Y-35994D01*
X49401Y-35931D01*
X49353Y-35883D01*
X49290Y-35857D01*
X49222Y-35857D01*
X49159Y-35883D01*
X49111Y-35931D01*
X49085Y-35994D01*
X49085Y-36062D01*
X49111Y-36125D01*
X49159Y-36173D01*
X49222Y-36199D01*
X49290Y-36199D01*
X49353Y-36173D01*
X49401Y-36125D01*
X49427Y-36062D01*
X49427Y-37247D01*
X49388Y-37231D01*
X49320Y-37231D01*
X49303Y-37238D01*
X49303Y-37046D01*
X49303Y-36978D01*
X49277Y-36915D01*
X49229Y-36867D01*
X49166Y-36841D01*
X49098Y-36841D01*
X49035Y-36867D01*
X48987Y-36915D01*
X48961Y-36978D01*
X48961Y-37046D01*
X48987Y-37109D01*
X49035Y-37157D01*
X49098Y-37183D01*
X49166Y-37183D01*
X49229Y-37157D01*
X49277Y-37109D01*
X49303Y-37046D01*
X49303Y-37238D01*
X49257Y-37257D01*
X49209Y-37305D01*
X49183Y-37368D01*
X49183Y-37436D01*
X49209Y-37499D01*
X49257Y-37547D01*
X49320Y-37573D01*
X49388Y-37573D01*
X49451Y-37547D01*
X49499Y-37499D01*
X49525Y-37436D01*
X49525Y-37368D01*
X49503Y-37316D01*
X49537Y-37350D01*
X49600Y-37376D01*
X49668Y-37376D01*
X49731Y-37350D01*
X49779Y-37302D01*
X49805Y-37239D01*
X49805Y-37171D01*
X49784Y-37121D01*
X49820Y-37157D01*
X49883Y-37183D01*
X49951Y-37183D01*
X50014Y-37157D01*
X50062Y-37109D01*
X50088Y-37046D01*
X50088Y-49509D01*
X49736Y-49509D01*
X49736Y-42952D01*
X49736Y-42884D01*
X49710Y-42821D01*
X49662Y-42773D01*
X49633Y-42761D01*
X49680Y-42715D01*
X49706Y-42652D01*
X49706Y-42584D01*
X49680Y-42521D01*
X49632Y-42473D01*
X49569Y-42447D01*
X49501Y-42447D01*
X49438Y-42473D01*
X49390Y-42521D01*
X49364Y-42584D01*
X49364Y-42652D01*
X49390Y-42715D01*
X49438Y-42763D01*
X49466Y-42774D01*
X49420Y-42821D01*
X49394Y-42884D01*
X49394Y-42952D01*
X49420Y-43015D01*
X49468Y-43063D01*
X49531Y-43089D01*
X49599Y-43089D01*
X49662Y-43063D01*
X49710Y-43015D01*
X49736Y-42952D01*
X49736Y-49509D01*
X49050Y-49509D01*
X49050Y-45125D01*
X49050Y-45050D01*
X49021Y-44980D01*
X48968Y-44927D01*
X48899Y-44898D01*
X48824Y-44898D01*
X48754Y-44927D01*
X48721Y-44959D01*
X48721Y-37573D01*
X48721Y-37536D01*
X48721Y-37342D01*
X48707Y-37308D01*
X48692Y-37293D01*
X48707Y-37279D01*
X48721Y-37246D01*
X48721Y-37209D01*
X48721Y-37015D01*
X48707Y-36981D01*
X48681Y-36955D01*
X48648Y-36941D01*
X48611Y-36941D01*
X48417Y-36941D01*
X48383Y-36955D01*
X48357Y-36981D01*
X48343Y-37014D01*
X48343Y-37051D01*
X48343Y-37084D01*
X48322Y-37092D01*
X48290Y-37060D01*
X48227Y-37034D01*
X48159Y-37034D01*
X48096Y-37060D01*
X48048Y-37108D01*
X48022Y-37171D01*
X48022Y-37239D01*
X48040Y-37284D01*
X48020Y-37305D01*
X47994Y-37368D01*
X47994Y-37436D01*
X48020Y-37499D01*
X48068Y-37547D01*
X48131Y-37573D01*
X48199Y-37573D01*
X48262Y-37547D01*
X48293Y-37515D01*
X48343Y-37527D01*
X48343Y-37572D01*
X48357Y-37606D01*
X48383Y-37632D01*
X48416Y-37646D01*
X48453Y-37646D01*
X48647Y-37646D01*
X48681Y-37632D01*
X48707Y-37606D01*
X48721Y-37573D01*
X48721Y-44959D01*
X48703Y-44977D01*
X48653Y-44927D01*
X48584Y-44898D01*
X48509Y-44898D01*
X48439Y-44927D01*
X48388Y-44977D01*
X48368Y-44957D01*
X48368Y-41766D01*
X48368Y-41698D01*
X48342Y-41635D01*
X48294Y-41587D01*
X48231Y-41561D01*
X48163Y-41561D01*
X48100Y-41587D01*
X48052Y-41635D01*
X48026Y-41698D01*
X48026Y-41766D01*
X48052Y-41829D01*
X48100Y-41877D01*
X48163Y-41903D01*
X48231Y-41903D01*
X48294Y-41877D01*
X48342Y-41829D01*
X48368Y-41766D01*
X48368Y-44957D01*
X48352Y-44941D01*
X48352Y-42164D01*
X48352Y-42096D01*
X48326Y-42033D01*
X48278Y-41985D01*
X48215Y-41959D01*
X48147Y-41959D01*
X48084Y-41985D01*
X48036Y-42033D01*
X48010Y-42096D01*
X48010Y-42164D01*
X48035Y-42226D01*
X48028Y-42234D01*
X48002Y-42297D01*
X48002Y-42365D01*
X48028Y-42428D01*
X48076Y-42476D01*
X48139Y-42502D01*
X48207Y-42502D01*
X48270Y-42476D01*
X48318Y-42428D01*
X48344Y-42365D01*
X48344Y-42297D01*
X48318Y-42234D01*
X48326Y-42227D01*
X48352Y-42164D01*
X48352Y-44941D01*
X48338Y-44927D01*
X48325Y-44921D01*
X48325Y-42759D01*
X48325Y-42691D01*
X48299Y-42628D01*
X48251Y-42580D01*
X48188Y-42554D01*
X48120Y-42554D01*
X48057Y-42580D01*
X48009Y-42628D01*
X47983Y-42691D01*
X47983Y-42759D01*
X48009Y-42822D01*
X48057Y-42870D01*
X48120Y-42896D01*
X48188Y-42896D01*
X48251Y-42870D01*
X48299Y-42822D01*
X48325Y-42759D01*
X48325Y-44921D01*
X48269Y-44898D01*
X48194Y-44898D01*
X48124Y-44927D01*
X48071Y-44980D01*
X48042Y-45049D01*
X48042Y-45124D01*
X48071Y-45194D01*
X48124Y-45247D01*
X48193Y-45276D01*
X48268Y-45276D01*
X48338Y-45247D01*
X48388Y-45196D01*
X48439Y-45247D01*
X48508Y-45276D01*
X48583Y-45276D01*
X48653Y-45247D01*
X48703Y-45196D01*
X48754Y-45247D01*
X48823Y-45276D01*
X48898Y-45276D01*
X48968Y-45247D01*
X49021Y-45194D01*
X49050Y-45125D01*
X49050Y-49509D01*
X47972Y-49509D01*
X47972Y-44443D01*
X47995Y-44389D01*
X47995Y-44282D01*
X47972Y-44226D01*
X47972Y-44010D01*
X47995Y-43956D01*
X47995Y-43849D01*
X47972Y-43793D01*
X47972Y-43577D01*
X47995Y-43523D01*
X47995Y-43416D01*
X47972Y-43360D01*
X47972Y-41281D01*
X47978Y-41287D01*
X48041Y-41313D01*
X48109Y-41313D01*
X48172Y-41287D01*
X48220Y-41239D01*
X48246Y-41176D01*
X48246Y-41115D01*
X48298Y-41094D01*
X48346Y-41046D01*
X48372Y-40983D01*
X48372Y-40915D01*
X48372Y-39802D01*
X48372Y-39734D01*
X48368Y-39724D01*
X48368Y-39404D01*
X48368Y-39336D01*
X48342Y-39273D01*
X48294Y-39225D01*
X48231Y-39199D01*
X48163Y-39199D01*
X48100Y-39225D01*
X48052Y-39273D01*
X48026Y-39336D01*
X48026Y-39404D01*
X48052Y-39467D01*
X48100Y-39515D01*
X48163Y-39541D01*
X48231Y-39541D01*
X48294Y-39515D01*
X48342Y-39467D01*
X48368Y-39404D01*
X48368Y-39724D01*
X48346Y-39671D01*
X48298Y-39623D01*
X48235Y-39597D01*
X48167Y-39597D01*
X48104Y-39623D01*
X48056Y-39671D01*
X48030Y-39734D01*
X48030Y-39802D01*
X48052Y-39855D01*
X48040Y-39868D01*
X48014Y-39931D01*
X48014Y-39999D01*
X48040Y-40062D01*
X48088Y-40110D01*
X48151Y-40136D01*
X48219Y-40136D01*
X48282Y-40110D01*
X48330Y-40062D01*
X48356Y-39999D01*
X48356Y-39931D01*
X48333Y-39877D01*
X48346Y-39865D01*
X48372Y-39802D01*
X48372Y-40915D01*
X48352Y-40866D01*
X48352Y-40389D01*
X48352Y-40321D01*
X48326Y-40258D01*
X48278Y-40210D01*
X48215Y-40184D01*
X48147Y-40184D01*
X48084Y-40210D01*
X48036Y-40258D01*
X48010Y-40321D01*
X48010Y-40389D01*
X48036Y-40452D01*
X48084Y-40500D01*
X48147Y-40526D01*
X48215Y-40526D01*
X48278Y-40500D01*
X48326Y-40452D01*
X48352Y-40389D01*
X48352Y-40866D01*
X48346Y-40852D01*
X48324Y-40830D01*
X48344Y-40782D01*
X48344Y-40714D01*
X48318Y-40651D01*
X48270Y-40603D01*
X48207Y-40577D01*
X48139Y-40577D01*
X48076Y-40603D01*
X48028Y-40651D01*
X48002Y-40714D01*
X48002Y-40782D01*
X48028Y-40845D01*
X48049Y-40866D01*
X48030Y-40915D01*
X48030Y-40975D01*
X47978Y-40997D01*
X47972Y-41003D01*
X47972Y-38918D01*
X47982Y-38928D01*
X48045Y-38954D01*
X48113Y-38954D01*
X48176Y-38928D01*
X48224Y-38880D01*
X48250Y-38817D01*
X48250Y-38752D01*
X48290Y-38736D01*
X48338Y-38688D01*
X48364Y-38625D01*
X48364Y-38557D01*
X48342Y-38506D01*
X48366Y-38483D01*
X48392Y-38420D01*
X48392Y-38352D01*
X48366Y-38289D01*
X48364Y-38287D01*
X48364Y-38018D01*
X48364Y-37950D01*
X48338Y-37887D01*
X48290Y-37839D01*
X48227Y-37813D01*
X48159Y-37813D01*
X48096Y-37839D01*
X48048Y-37887D01*
X48022Y-37950D01*
X48022Y-38018D01*
X48048Y-38081D01*
X48096Y-38129D01*
X48159Y-38155D01*
X48227Y-38155D01*
X48290Y-38129D01*
X48338Y-38081D01*
X48364Y-38018D01*
X48364Y-38287D01*
X48318Y-38241D01*
X48255Y-38215D01*
X48187Y-38215D01*
X48124Y-38241D01*
X48076Y-38289D01*
X48050Y-38352D01*
X48050Y-38420D01*
X48071Y-38470D01*
X48048Y-38494D01*
X48022Y-38557D01*
X48022Y-38621D01*
X47982Y-38638D01*
X47972Y-38648D01*
X47972Y-35604D01*
X47995Y-35550D01*
X47995Y-35443D01*
X47972Y-35387D01*
X47972Y-35171D01*
X47995Y-35117D01*
X47995Y-35010D01*
X47972Y-34954D01*
X47972Y-34738D01*
X47995Y-34684D01*
X47995Y-34577D01*
X47972Y-34521D01*
X47972Y-30688D01*
X56326Y-30688D01*
X56371Y-30707D01*
X56478Y-30707D01*
X56523Y-30688D01*
X56759Y-30688D01*
X56804Y-30707D01*
X56911Y-30707D01*
X56956Y-30688D01*
X57192Y-30688D01*
X57237Y-30707D01*
X57344Y-30707D01*
X57389Y-30688D01*
X57626Y-30688D01*
X57671Y-30707D01*
X57778Y-30707D01*
X57823Y-30688D01*
X66005Y-30688D01*
X66005Y-34509D01*
X63704Y-34509D01*
X63704Y-31912D01*
X63704Y-31757D01*
X63645Y-31614D01*
X63535Y-31504D01*
X63392Y-31444D01*
X63237Y-31444D01*
X63094Y-31503D01*
X62984Y-31613D01*
X62924Y-31756D01*
X62924Y-31911D01*
X62983Y-32054D01*
X63093Y-32164D01*
X63236Y-32224D01*
X63391Y-32224D01*
X63534Y-32165D01*
X63644Y-32055D01*
X63704Y-31912D01*
X63704Y-34509D01*
X62893Y-34509D01*
X62893Y-33997D01*
X62704Y-33997D01*
X62704Y-31912D01*
X62704Y-31757D01*
X62645Y-31614D01*
X62535Y-31504D01*
X62392Y-31444D01*
X62237Y-31444D01*
X62094Y-31503D01*
X61984Y-31613D01*
X61924Y-31756D01*
X61924Y-31911D01*
X61983Y-32054D01*
X62093Y-32164D01*
X62236Y-32224D01*
X62391Y-32224D01*
X62534Y-32165D01*
X62644Y-32055D01*
X62704Y-31912D01*
X62704Y-33997D01*
X61697Y-33997D01*
X61697Y-31849D01*
X61673Y-31701D01*
X61662Y-31674D01*
X61619Y-31635D01*
X61513Y-31741D01*
X61513Y-31529D01*
X61474Y-31486D01*
X61329Y-31451D01*
X61181Y-31475D01*
X61154Y-31486D01*
X61115Y-31529D01*
X61314Y-31728D01*
X61513Y-31529D01*
X61513Y-31741D01*
X61420Y-31834D01*
X61619Y-32033D01*
X61662Y-31994D01*
X61697Y-31849D01*
X61697Y-33997D01*
X61513Y-33997D01*
X61513Y-32139D01*
X61314Y-31940D01*
X61208Y-32046D01*
X61208Y-31834D01*
X61009Y-31635D01*
X60966Y-31674D01*
X60931Y-31819D01*
X60955Y-31967D01*
X60966Y-31994D01*
X61009Y-32033D01*
X61208Y-31834D01*
X61208Y-32046D01*
X61115Y-32139D01*
X61154Y-32182D01*
X61299Y-32217D01*
X61447Y-32193D01*
X61474Y-32182D01*
X61513Y-32139D01*
X61513Y-33997D01*
X60704Y-33997D01*
X60704Y-31912D01*
X60704Y-31757D01*
X60645Y-31614D01*
X60535Y-31504D01*
X60392Y-31444D01*
X60237Y-31444D01*
X60094Y-31503D01*
X59984Y-31613D01*
X59924Y-31756D01*
X59924Y-31911D01*
X59983Y-32054D01*
X60093Y-32164D01*
X60236Y-32224D01*
X60391Y-32224D01*
X60534Y-32165D01*
X60644Y-32055D01*
X60704Y-31912D01*
X60704Y-33997D01*
X59704Y-33997D01*
X59704Y-32131D01*
X59704Y-32094D01*
X59704Y-31498D01*
X59690Y-31464D01*
X59664Y-31438D01*
X59631Y-31424D01*
X59594Y-31424D01*
X58998Y-31424D01*
X58964Y-31438D01*
X58938Y-31464D01*
X58924Y-31497D01*
X58924Y-31534D01*
X58924Y-32130D01*
X58938Y-32164D01*
X58964Y-32190D01*
X58997Y-32204D01*
X59034Y-32204D01*
X59630Y-32204D01*
X59664Y-32190D01*
X59690Y-32164D01*
X59704Y-32131D01*
X59704Y-33997D01*
X58697Y-33997D01*
X58697Y-31912D01*
X58697Y-31757D01*
X58638Y-31614D01*
X58528Y-31504D01*
X58385Y-31444D01*
X58230Y-31444D01*
X58087Y-31503D01*
X57977Y-31613D01*
X57917Y-31756D01*
X57917Y-31911D01*
X57976Y-32054D01*
X58086Y-32164D01*
X58229Y-32224D01*
X58384Y-32224D01*
X58527Y-32165D01*
X58637Y-32055D01*
X58697Y-31912D01*
X58697Y-33997D01*
X57697Y-33997D01*
X57697Y-31912D01*
X57697Y-31757D01*
X57638Y-31614D01*
X57528Y-31504D01*
X57385Y-31444D01*
X57230Y-31444D01*
X57087Y-31503D01*
X56977Y-31613D01*
X56917Y-31756D01*
X56917Y-31911D01*
X56976Y-32054D01*
X57086Y-32164D01*
X57229Y-32224D01*
X57384Y-32224D01*
X57527Y-32165D01*
X57637Y-32055D01*
X57697Y-31912D01*
X57697Y-33997D01*
X56697Y-33997D01*
X56697Y-31912D01*
X56697Y-31757D01*
X56638Y-31614D01*
X56528Y-31504D01*
X56385Y-31444D01*
X56230Y-31444D01*
X56087Y-31503D01*
X55977Y-31613D01*
X55917Y-31756D01*
X55917Y-31911D01*
X55976Y-32054D01*
X56086Y-32164D01*
X56229Y-32224D01*
X56384Y-32224D01*
X56527Y-32165D01*
X56637Y-32055D01*
X56697Y-31912D01*
X56697Y-33997D01*
X55697Y-33997D01*
X55697Y-31912D01*
X55697Y-31757D01*
X55638Y-31614D01*
X55528Y-31504D01*
X55385Y-31444D01*
X55230Y-31444D01*
X55087Y-31503D01*
X54977Y-31613D01*
X54917Y-31756D01*
X54917Y-31911D01*
X54976Y-32054D01*
X55086Y-32164D01*
X55229Y-32224D01*
X55384Y-32224D01*
X55527Y-32165D01*
X55637Y-32055D01*
X55697Y-31912D01*
X55697Y-33997D01*
X54981Y-33997D01*
X54981Y-37154D01*
X54912Y-37154D01*
X54907Y-37156D01*
X54907Y-36365D01*
X54907Y-36297D01*
X54881Y-36234D01*
X54842Y-36195D01*
X54866Y-36172D01*
X54892Y-36109D01*
X54892Y-36041D01*
X54866Y-35978D01*
X54818Y-35930D01*
X54755Y-35904D01*
X54697Y-35904D01*
X54697Y-31912D01*
X54697Y-31757D01*
X54638Y-31614D01*
X54528Y-31504D01*
X54385Y-31444D01*
X54230Y-31444D01*
X54087Y-31503D01*
X53977Y-31613D01*
X53917Y-31756D01*
X53917Y-31911D01*
X53976Y-32054D01*
X54086Y-32164D01*
X54229Y-32224D01*
X54384Y-32224D01*
X54527Y-32165D01*
X54637Y-32055D01*
X54697Y-31912D01*
X54697Y-35904D01*
X54687Y-35904D01*
X54624Y-35930D01*
X54576Y-35978D01*
X54550Y-36041D01*
X54550Y-36109D01*
X54576Y-36172D01*
X54614Y-36210D01*
X54591Y-36234D01*
X54565Y-36297D01*
X54565Y-36365D01*
X54591Y-36428D01*
X54639Y-36476D01*
X54702Y-36502D01*
X54770Y-36502D01*
X54833Y-36476D01*
X54881Y-36428D01*
X54907Y-36365D01*
X54907Y-37156D01*
X54842Y-37183D01*
X54789Y-37236D01*
X54760Y-37305D01*
X54760Y-37380D01*
X54789Y-37450D01*
X54842Y-37503D01*
X54911Y-37532D01*
X54981Y-37532D01*
X54981Y-42892D01*
X54950Y-42892D01*
X54887Y-42918D01*
X54856Y-42948D01*
X54818Y-42910D01*
X54755Y-42884D01*
X54687Y-42884D01*
X54624Y-42910D01*
X54624Y-37353D01*
X54624Y-37285D01*
X54598Y-37222D01*
X54550Y-37174D01*
X54487Y-37148D01*
X54419Y-37148D01*
X54410Y-37151D01*
X54410Y-34479D01*
X54410Y-34404D01*
X54381Y-34334D01*
X54328Y-34281D01*
X54259Y-34252D01*
X54184Y-34252D01*
X54114Y-34281D01*
X54061Y-34334D01*
X54032Y-34403D01*
X54032Y-34478D01*
X54061Y-34548D01*
X54114Y-34601D01*
X54183Y-34630D01*
X54258Y-34630D01*
X54328Y-34601D01*
X54381Y-34548D01*
X54410Y-34479D01*
X54410Y-37151D01*
X54356Y-37174D01*
X54308Y-37222D01*
X54282Y-37285D01*
X54282Y-37353D01*
X54308Y-37416D01*
X54356Y-37464D01*
X54419Y-37490D01*
X54487Y-37490D01*
X54550Y-37464D01*
X54598Y-37416D01*
X54624Y-37353D01*
X54624Y-42910D01*
X54576Y-42958D01*
X54550Y-43021D01*
X54550Y-43089D01*
X54576Y-43152D01*
X54624Y-43200D01*
X54687Y-43226D01*
X54755Y-43226D01*
X54818Y-43200D01*
X54848Y-43169D01*
X54887Y-43208D01*
X54950Y-43234D01*
X54981Y-43234D01*
X54981Y-45085D01*
X54764Y-45085D01*
X54757Y-45067D01*
X54731Y-45041D01*
X54698Y-45027D01*
X54661Y-45027D01*
X54387Y-45027D01*
X54353Y-45041D01*
X54327Y-45067D01*
X54313Y-45100D01*
X54313Y-45137D01*
X54313Y-45451D01*
X54327Y-45485D01*
X54353Y-45511D01*
X54386Y-45525D01*
X54423Y-45525D01*
X54697Y-45525D01*
X54731Y-45511D01*
X54757Y-45485D01*
X54764Y-45467D01*
X54981Y-45467D01*
X54981Y-46082D01*
X62893Y-46082D01*
X62893Y-45610D01*
X66005Y-45610D01*
X66005Y-49509D01*
G54D10*
G36*
X54112Y-44083D02*
X53831Y-44364D01*
X53388Y-44364D01*
X53388Y-43811D01*
X53465Y-43735D01*
X54112Y-43735D01*
X54112Y-44083D01*
X54112Y-44083D01*
G37*
G54D12*
X54112Y-44083D02*
X53831Y-44364D01*
X53388Y-44364D01*
X53388Y-43811D01*
X53465Y-43735D01*
X54112Y-43735D01*
X54112Y-44083D01*
G54D10*
G36*
X51855Y-45111D02*
X51099Y-45111D01*
X51043Y-45059D01*
X51043Y-44748D01*
X51128Y-44659D01*
X51283Y-44504D01*
X51283Y-43196D01*
X51855Y-43196D01*
X51855Y-45111D01*
X51855Y-45111D01*
G37*
G54D111*
X51855Y-45111D02*
X51099Y-45111D01*
X51043Y-45059D01*
X51043Y-44748D01*
X51128Y-44659D01*
X51283Y-44504D01*
X51283Y-43196D01*
X51855Y-43196D01*
X51855Y-45111D01*
G54D10*
G36*
X57418Y-34501D02*
X56807Y-34501D01*
X56807Y-34240D01*
X57418Y-34240D01*
X57418Y-34501D01*
X57418Y-34501D01*
G37*
G54D111*
X57418Y-34501D02*
X56807Y-34501D01*
X56807Y-34240D01*
X57418Y-34240D01*
X57418Y-34501D01*
G54D10*
G36*
X56867Y-45637D02*
X56259Y-45637D01*
X56259Y-45375D01*
X56867Y-45375D01*
X56867Y-45637D01*
X56867Y-45637D01*
G37*
G54D111*
X56867Y-45637D02*
X56259Y-45637D01*
X56259Y-45375D01*
X56867Y-45375D01*
X56867Y-45637D01*
G54D10*
G36*
X66005Y-44036D02*
X65728Y-44036D01*
X65728Y-39344D01*
X65728Y-38963D01*
X65531Y-38885D01*
X65531Y-38102D01*
X65362Y-37934D01*
X63850Y-37934D01*
X63682Y-38102D01*
X63682Y-39304D01*
X63957Y-39422D01*
X63957Y-42016D01*
X64126Y-42184D01*
X65362Y-42184D01*
X65531Y-42016D01*
X65531Y-39422D01*
X65728Y-39344D01*
X65728Y-44036D01*
X65709Y-44036D01*
X62893Y-44036D01*
X62893Y-36082D01*
X66005Y-36082D01*
X66005Y-39500D01*
X65998Y-39517D01*
X65998Y-39624D01*
X66005Y-39640D01*
X66005Y-39933D01*
X65998Y-39950D01*
X65998Y-40057D01*
X66005Y-40073D01*
X66005Y-40366D01*
X65998Y-40383D01*
X65998Y-40490D01*
X66005Y-40506D01*
X66005Y-40799D01*
X65998Y-40816D01*
X65998Y-40923D01*
X66005Y-40939D01*
X66005Y-44036D01*
X66005Y-44036D01*
G37*
G54D111*
X66005Y-44036D02*
X65728Y-44036D01*
X65728Y-39344D01*
X65728Y-38963D01*
X65531Y-38885D01*
X65531Y-38102D01*
X65362Y-37934D01*
X63850Y-37934D01*
X63682Y-38102D01*
X63682Y-39304D01*
X63957Y-39422D01*
X63957Y-42016D01*
X64126Y-42184D01*
X65362Y-42184D01*
X65531Y-42016D01*
X65531Y-39422D01*
X65728Y-39344D01*
X65728Y-44036D01*
X65709Y-44036D01*
X62893Y-44036D01*
X62893Y-36082D01*
X66005Y-36082D01*
X66005Y-39500D01*
X65998Y-39517D01*
X65998Y-39624D01*
X66005Y-39640D01*
X66005Y-39933D01*
X65998Y-39950D01*
X65998Y-40057D01*
X66005Y-40073D01*
X66005Y-40366D01*
X65998Y-40383D01*
X65998Y-40490D01*
X66005Y-40506D01*
X66005Y-40799D01*
X65998Y-40816D01*
X65998Y-40923D01*
X66005Y-40939D01*
X66005Y-44036D01*
G54D10*
G36*
X58879Y-41123D02*
X56633Y-41123D01*
X56633Y-38917D01*
X58879Y-38917D01*
X58879Y-41123D01*
X58879Y-41123D01*
G37*
G54D111*
X58879Y-41123D02*
X56633Y-41123D01*
X56633Y-38917D01*
X58879Y-38917D01*
X58879Y-41123D01*
M02*
