M48
METRIC,LZ
T1C0.196
T2C0.200
T3C0.300
T4C0.500
T5C1.000
T6C1.016
T7C1.097
T8C3.200
%
G90
G05
T1
X11105Y-1291
X1112Y-0729
X1117Y-1064
X1119Y-0959
X1125Y-1064
X1125Y-1291
X11265Y-0959
X1129Y-0729
X1133Y-1064
X11353Y-0959
X1141Y-1064
X1143Y-1291
X1145Y-0729
X1152Y-0832
X1155Y-0791
X1156Y-1237
X1157Y-1182
X1159Y-08695
X1159Y-09175
X11595Y-1291
X1162Y-0729
X11685Y-0848
X11685Y-08645
X11685Y-08755
X11685Y-0888
X11685Y-0904
X11685Y-0916
X11685Y-09285
X1169Y-0832
X1169Y-1237
X1175Y-1291
X1178Y-0729
X11915Y-1291
X1194Y-0729
X1206Y-0992
X12066Y-12907
X1207Y-0833
X1211Y-0729
X1217Y-0839
X12196Y-12918
X122Y-0749
X1225Y-0776
X1225Y-0791
X1227Y-0728
X123Y-1221
X12305Y-07615
X1231Y-0837
X1231Y-0853
X12315Y-12915
X1232Y-0744
X1232Y-0805
X1232Y-1161
X1232Y-1245
X1233Y-1204
X1239Y-1152
X124Y-0847
X1241Y-0707
X1241Y-0723
X1241Y-1214
X1243Y-0814
X1244Y-1054
X1244Y-1069
X1244Y-1083
X1246Y-086
X1247Y-1245
X12485Y-12915
X1254Y-1256
X1255Y-082
X1255Y-1054
X1255Y-1069
X1255Y-1221
X1256Y-1267
X1257Y-0707
X1257Y-0723
X1259Y-1083
X12605Y-12445
X1265Y-1069
X1267Y-1054
X127Y-0707
X1271Y-0692
X1271Y-0723
X1271Y-1254
X1271Y-1268
X1272Y-0821
X1273Y-1221
X1273Y-12445
X1274Y-1083
X1275Y-1122
X1275Y-1261
X128Y-1254
X1281Y-1266
X1286Y-0692
X1286Y-0707
X1286Y-0723
X1287Y-0815
X1291Y-0752
X1291Y-1122
X1296Y-116
X12975Y-08065
X1298Y-0692
X1299Y-0707
X1299Y-0723
X1302Y-0766
X1305Y-0788
X1307Y-11
X1307Y-1107
X1312Y-0692
X1312Y-0707
X1312Y-0722
X1312Y-1273
X1312Y-1282
X1315Y-0774
X1315Y-11
X1315Y-1107
X1319Y-1277
X1323Y-11
X1323Y-1107
X1325Y-0694
X1325Y-1273
X1325Y-1282
X133Y-11
X133Y-1107
X1337Y-0694
X1337Y-11
X1337Y-1107
X1341Y-0838
X135Y-0694
X1351Y-0828
X1367Y-0694
X1385Y-0694
X139975Y-127725
X139975Y-128425
X1402Y-0694
X140725Y-127725
X140725Y-128425
X1409Y-10165
X142Y-0694
X1433Y-0694
X1448Y-0694
X1453Y-1276
X1454Y-1284
X1461Y-1269
X1461Y-1276
X1462Y-1284
X1466Y-0694
X14795Y-1293
X1482Y-0694
X1483Y-1243
X1483Y-1265
X1491Y-1249
X1491Y-1258
X14915Y-1293
X1497Y-1166
X1499Y-0694
X1499Y-1029
X1502Y-1177
X1502Y-1274
X1504Y-1293
X1507Y-10365
X15165Y-1293
X1518Y-0694
X1527Y-1273
X15285Y-1293
X1531Y-12625
X1536Y-0694
X15405Y-1293
X1542Y-1229
X1546Y-12625
X15525Y-1293
X1554Y-0694
X1566Y-0694
X1569Y-12875
X1576Y-0799
X1579Y-0724
X158Y-0687
X158Y-0709
X1588Y-087
X1588Y-0884
X1588Y-12875
X1593Y-0799
X1593Y-0815
X1596Y-0687
X1596Y-0709
X1596Y-0724
X1607Y-0783
X1607Y-0815
X16072Y-11473
X1608Y-0799
X1608Y-1175
X1609Y-0687
X1609Y-119
X16095Y-11619
X161Y-0743
X1611Y-0709
X1611Y-0766
X16115Y-12845
X161175Y-072475
X1612Y-1202
X1616Y-12395
X1616Y-1251
X1617Y-0921
X1617Y-0931
X1618Y-0753
X1619Y-12615
X1619Y-1275
X16195Y-11517
X1622Y-094
X1622Y-1211
X1623Y-0815
X16235Y-1295
X1625Y-0687
X162675Y-072475
X1627Y-0709
X1628Y-12395
X163Y-0746
X1641Y-0687
X16415Y-1295
X1642Y-0709
X1645Y-0977
X1645Y-099
X1648Y-0742
X16525Y-12345
X16525Y-12475
X16525Y-1277
X1656Y-0977
X1657Y-099
X1658Y-0687
X1658Y-0709
X1659Y-1295
X166Y-1219
X16645Y-12765
X1665Y-0746
X1669Y-0977
X167Y-0813
X167Y-1151
X16715Y-12395
X16715Y-12545
X1672Y-0687
X1672Y-0699
X1672Y-0709
X1673Y-1211
X1675Y-1295
X1676Y-0754
X1678Y-1221
X1679Y-0817
X168Y-0741
X168Y-1157
X1681Y-0764
X1681Y-0801
X1681Y-0834
X1681Y-0905
X1681Y-0917
X1681Y-0931
X1681Y-0944
X1681Y-0957
X1681Y-0969
X1681Y-0982
X1681Y-0994
X1681Y-1006
X1681Y-102
X1681Y-1033
X1681Y-1047
X1681Y-1059
X1681Y-107
X1681Y-1082
X1681Y-1097
X1681Y-1112
X1681Y-1126
X1681Y-114
X1682Y-1202
X1683Y-1171
X16835Y-12485
X16835Y-1259
X16835Y-1271
X16835Y-12845
X1684Y-0687
X1684Y-0698
X1684Y-12365
X1685Y-071
X1685Y-0728
X1685Y-1185
X1686Y-078
T2
X11073Y-07506
X11073Y-07685
X11073Y-0784
X11112Y-10992
X11117Y-11733
X11158Y-08459
X11165Y-115
X11166Y-1229
X11175Y-11941
X11186Y-12765
X1119Y-113
X11207Y-11155
X11217Y-1135
X11231Y-08358
X11232Y-1125
X11255Y-1179
X11296Y-12139
X11302Y-1097
X11306Y-11195
X11307Y-12467
X1131Y-08092
X11315Y-09468
X11325Y-11575
X1133Y-11851
X11412Y-11867
X11447Y-12378
X11493Y-10433
X11569Y-09832
X11573Y-10761
X11577Y-12077
X11641Y-12267
X11665Y-09681
X11665Y-10315
X11691Y-10939
X11725Y-11627
X11738Y-1215
X1177Y-113
X1177Y-115
X11773Y-10935
X11818Y-11736
X11851Y-1191
X11924Y-11244
X11973Y-09663
X11973Y-10163
X11998Y-11201
X12032Y-12411
X12038Y-09427
X12057Y-10558
X12062Y-11794
X12066Y-12784
X12071Y-11468
X12077Y-11329
X1208Y-11409
X12096Y-07907
X12101Y-08959
X12107Y-12337
X12125Y-1196
X121375Y-093325
X1214Y-0908
X12143Y-09289
X12145Y-092125
X121525Y-100825
X12155Y-0998
X1216Y-1023
X1216Y-1038
X12167Y-1044
X121675Y-09555
X121675Y-1028
X1217Y-0903
X1217Y-0913
X121725Y-101575
X12173Y-0979
X12175Y-08832
X12175Y-0968
X12176Y-09252
X12177Y-08729
X12177Y-08957
X121775Y-0993
X121775Y-1068
X1218Y-107575
X12185Y-100325
X121875Y-1053
X12227Y-07333
X12234Y-08598
X1226Y-12128
X1228Y-08152
X12316Y-07556
X12331Y-11244
X12393Y-11226
X12407Y-09933
X12409Y-08824
X12413Y-08781
X12434Y-09883
X12482Y-08941
X12485Y-1265
X12532Y-08952
X1258Y-0999
X12584Y-08965
X12622Y-09898
X12635Y-08977
X12683Y-09525
X12687Y-08991
X12694Y-09885
X12704Y-09743
X12712Y-09957
X127335Y-09331
X12738Y-09564
X1274Y-10005
X127525Y-10085
X12754Y-09698
X12755Y-09905
X1276Y-09285
X12768Y-08951
X12775Y-096375
X12787Y-09481
X12812Y-08378
X13013Y-0851
X13015Y-0934
X13022Y-08956
X130225Y-105325
X13025Y-099325
X1303Y-09169
X1303Y-106825
X130375Y-102825
X13045Y-1048
X13049Y-09081
X13053Y-09413
X13055Y-10045
X1306Y-108525
X1308Y-1044
X13085Y-0994
X1309Y-0929
X1309Y-093775
X130975Y-101875
X131Y-0924
X13115Y-1243
X13115Y-1266
X1312Y-10135
X13129Y-09168
X1314Y-1072
X13154Y-08133
X13165Y-1254
X131675Y-09895
X1317Y-09205
X13175Y-0851
X13235Y-1224
X1324Y-1024
X13252Y-11609
X13302Y-1081
X13325Y-11527
X13328Y-11435
X1333Y-1038
X1333Y-11295
X133825Y-0857
X1339Y-0946
X1339Y-0962
X13406Y-09184
X1341Y-08615
X1346Y-09744
X13461Y-0989
X1347Y-1033
X134925Y-094325
X13498Y-09782
X135675Y-0943
X1361Y-10409
X13638Y-08491
X13655Y-1243
X13655Y-1266
X13676Y-09639
X1368Y-084175
X1368Y-1128
X137Y-1095
X13715Y-081575
X1375Y-08415
X137525Y-08545
X137525Y-0862
X137525Y-0892
X13755Y-087
X13755Y-0879
X13755Y-0887
X1377Y-08155
X13771Y-09389
X13855Y-1109
X13879Y-09444
X13882Y-07903
X13885Y-1128
X13925Y-122
X1395Y-1078
X1396Y-109
X1398Y-09105
X1398Y-111
X13985Y-09656
X13995Y-0942
X14Y-0928
X1401Y-1073
X1401Y-113525
X1404Y-09105
X1407Y-08395
X1407Y-1027
X140825Y-1041
X14125Y-0994
X14125Y-10005
X14125Y-1022
X1413Y-095175
X1414Y-0857
X141425Y-0864
X141425Y-10575
X141425Y-109925
X14145Y-084825
X14145Y-088675
X14145Y-10515
X14145Y-108
X14145Y-110975
X14149Y-11041
X1415Y-08825
X1415Y-10655
X1415Y-1091
X14155Y-0892
X141575Y-0875
X14165Y-12915
X14169Y-09615
X1417Y-093675
X1417Y-1037
X14175Y-08525
X1418Y-079625
X141975Y-0953
X142Y-0832
X14208Y-09699
X14215Y-09475
X14235Y-08365
X14235Y-08445
X14235Y-08525
X14235Y-08605
X14235Y-08685
X14235Y-08765
X14235Y-08845
X14235Y-08925
X14235Y-09005
X14235Y-09085
X14235Y-10525
X14235Y-10605
X14235Y-10685
X14235Y-10845
X14235Y-10925
X14235Y-11085
X14255Y-12915
X1426Y-0796
X14278Y-09891
X14315Y-08445
X14315Y-08525
X14315Y-08605
X14315Y-08685
X14315Y-08765
X14315Y-08845
X14315Y-08925
X14315Y-09005
X14315Y-09085
X14315Y-10525
X14315Y-10605
X14315Y-10685
X14315Y-10765
X14315Y-10845
X14315Y-10925
X14315Y-11005
X14315Y-11085
X1432Y-09165
X14338Y-12765
X1434Y-0796
X1434Y-0833
X1436Y-09925
X1436Y-10357
X1436Y-11155
X1436Y-12905
X1439Y-1031
X14395Y-08365
X14395Y-08445
X14395Y-08525
X14395Y-08605
X14395Y-08685
X14395Y-08765
X14395Y-08845
X14395Y-08925
X14395Y-10525
X14395Y-10605
X14395Y-10685
X14395Y-10765
X14395Y-10925
X144Y-10845
X1442Y-082625
X14421Y-0794
X14445Y-099375
X1446Y-08219
X14473Y-12014
X14475Y-08445
X14475Y-08525
X14475Y-08605
X14475Y-08765
X14475Y-08845
X14475Y-08925
X14475Y-09005
X14475Y-09085
X14475Y-09165
X14475Y-10605
X14475Y-10765
X14475Y-10845
X14475Y-10925
X14475Y-11005
X14479Y-08682
X1448Y-11155
X14485Y-09939
X14485Y-10435
X145Y-07947
X145075Y-0834
X1452Y-1126
X1453Y-1018
X14543Y-07902
X14555Y-08365
X14555Y-08445
X14555Y-08525
X14555Y-08605
X14555Y-08685
X14555Y-08765
X14555Y-08845
X14555Y-08925
X14555Y-09005
X14555Y-09085
X14555Y-09165
X14555Y-10365
X14555Y-10445
X14555Y-10525
X14555Y-10605
X14555Y-10765
X14555Y-10845
X14555Y-10925
X14555Y-11005
X1458Y-07946
X14633Y-10364
X14635Y-08365
X14635Y-08445
X14635Y-08525
X14635Y-08685
X14635Y-08765
X14635Y-08845
X14635Y-09005
X14635Y-09085
X14635Y-10445
X14635Y-10525
X14635Y-10605
X14635Y-10765
X14635Y-10845
X14635Y-11005
X14635Y-11085
X14637Y-08603
X1464Y-10003
X14642Y-1032
X14645Y-11155
X146725Y-083325
X1468Y-10248
X14696Y-10082
X14713Y-08255
X14715Y-08365
X14715Y-08445
X14715Y-08525
X14715Y-08605
X14715Y-08765
X14715Y-08845
X14715Y-08925
X14715Y-09005
X14715Y-09085
X14715Y-10525
X14715Y-10605
X14715Y-10765
X14715Y-10845
X14715Y-10925
X14715Y-11
X14716Y-08684
X14716Y-10684
X14718Y-10443
X1476Y-11715
X1476Y-1191
X14794Y-10842
X14795Y-08445
X14795Y-08525
X14795Y-08605
X14795Y-08685
X14795Y-08765
X14795Y-089975
X14795Y-09085
X14795Y-10525
X14795Y-10605
X14795Y-10685
X14795Y-10765
X14795Y-10925
X14795Y-11085
X147975Y-089175
X14799Y-08844
X148Y-1044
X148Y-11
X14802Y-09157
X1483Y-083375
X1484Y-10265
X1484Y-11715
X1484Y-1191
X14875Y-08365
X14875Y-08445
X14875Y-08525
X14875Y-08605
X14875Y-08685
X14875Y-08845
X14875Y-09005
X14875Y-09085
X14875Y-10525
X14875Y-10605
X14875Y-10685
X14875Y-10845
X14875Y-11005
X14875Y-11085
X14878Y-08764
X1488Y-104
X1488Y-1076
X1489Y-1218
X14913Y-10003
X14915Y-08335
X1492Y-11715
X1492Y-1191
X1493Y-10265
X149425Y-0925
X14955Y-08365
X14955Y-08445
X14955Y-08525
X14955Y-08605
X14955Y-08685
X14955Y-08765
X14955Y-08845
X14955Y-09005
X14955Y-09085
X14955Y-09165
X14955Y-10445
X14955Y-10525
X14955Y-10605
X14955Y-10685
X14955Y-10765
X14955Y-10845
X14955Y-11005
X14955Y-11085
X14955Y-11165
X1496Y-1092
X149675Y-092925
X1501Y-11415
X15018Y-08157
X15035Y-08365
X15035Y-08445
X15035Y-08525
X15035Y-08605
X15035Y-08685
X15035Y-08765
X15035Y-08845
X15035Y-09005
X15035Y-09085
X15035Y-10445
X15035Y-10525
X15035Y-11005
X150425Y-0917
X15045Y-1072
X15045Y-1112
X1505Y-1064
X1505Y-108
X1505Y-1166
X15055Y-11365
X150575Y-091275
X15058Y-08809
X15065Y-112
X15071Y-08488
X15082Y-10228
X15105Y-08684
X15125Y-09185
X151425Y-0903
X15155Y-10547
X1516Y-10588
X1516Y-10945
X15167Y-08994
X1517Y-08689
X15179Y-10718
X1518Y-09305
X15215Y-09211
X15219Y-07654
X15225Y-1266
X1525Y-115
X15275Y-1254
X15281Y-08099
X15294Y-0817
X15304Y-08607
X15315Y-10755
X15315Y-1099
X15315Y-12305
X15346Y-08569
X1535Y-08725
X15355Y-08247
X15426Y-08183
X15437Y-08248
X1548Y-09112
X1549Y-0893
X1549Y-0903
X1549Y-0929
X1549Y-0935
X155Y-1229
X155Y-1252
X15555Y-0912
X15559Y-09025
X15589Y-09067
X15591Y-08977
X15647Y-09162
X15647Y-09478
X15765Y-124275
X15765Y-1266
X15779Y-0957
X15812Y-09144
X15815Y-09615
X15855Y-096575
X158575Y-0844
X15895Y-08931
X15902Y-09699
X15974Y-09763
X15985Y-0844
X16025Y-08577
X16027Y-09813
X1603Y-1201
X16044Y-09863
X160475Y-109425
X16048Y-10878
X16049Y-1068
X1605Y-09915
X16056Y-10823
X16071Y-10484
X16075Y-10586
X16095Y-12345
X16098Y-08634
X16107Y-11096
X16135Y-1265
X1614Y-10285
X1614Y-10353
X1614Y-10919
X16182Y-11037
X1622Y-1286
X163Y-1261
X1631Y-093475
X1631Y-094475
X1631Y-095475
X1639Y-12295
X16435Y-108075
X164375Y-08845
X16475Y-1254
X164975Y-128675
X165625Y-088475
X165625Y-10815
X16689Y-09033
X1669Y-101225
X1669Y-102175
X1669Y-103075
T3
X1141Y-1129
X1141Y-11345
X1141Y-11405
X1141Y-1146
X11465Y-1129
X11465Y-11345
X11465Y-11405
X11465Y-1146
X11525Y-1129
X11525Y-11345
X11525Y-11405
X11525Y-1146
X1158Y-1129
X1158Y-11345
X1158Y-11405
X1158Y-1146
X11609Y-09319
X11636Y-10896
X11695Y-11114
X11955Y-10928
X12473Y-11204
X1301Y-08284
X13873Y-10707
X13991Y-12701
X1401Y-11218
X14099Y-12159
X14192Y-12243
X14204Y-12522
X14205Y-12432
X14271Y-12433
X14277Y-12522
X14315Y-12703
X14345Y-125225
X14346Y-1243
X14418Y-1252
X14422Y-12427
X1466Y-07944
X14672Y-12049
X14807Y-1205
X14948Y-1205
X15049Y-08013
T5
X1191Y-08686
X1191Y-0894
X1191Y-09194
T6
X11245Y-08543
X11245Y-08815
X11245Y-09065
X11245Y-09319
X11495Y-08543
X11495Y-08815
X11495Y-09065
X11495Y-09319
X13319Y-07193
X13319Y-07447
X13573Y-07193
X13573Y-07447
X13827Y-07193
X13827Y-07447
X14063Y-07193
X14063Y-07447
X14333Y-07193
X14333Y-07447
X14587Y-07193
X14587Y-07447
X14839Y-07193
X14839Y-07447
X15093Y-07193
X15093Y-07447
X15347Y-07193
X15347Y-07447
X15601Y-07193
X15601Y-07447
X16373Y-113
X163733Y-0835
X166267Y-113
X16627Y-0835
T7
X126Y-08536
X126Y-11176
T8
X1265Y-07816
X1265Y-11817
X1647Y-07816
X1647Y-11817
T4
X12625Y-128325G85X12625Y-127825
G05
X1388Y-128325G85X1388Y-127825
G05
X14735Y-128325G85X14735Y-127825
G05
X1599Y-128325G85X1599Y-127825
G05
T0
M30
