G04 (created by PCBNEW (2013-03-19 BZR 4004)-stable) date 5/31/2013 11:48:04 AM*
%MOIN*%
G04 Gerber Fmt 3.4, Leading zero omitted, Abs format*
%FSLAX34Y34*%
G01*
G70*
G90*
G04 APERTURE LIST*
%ADD10C,0.006*%
%ADD11C,0.00787402*%
%ADD12C,0.0314961*%
%ADD13O,0.067874X0.067874*%
%ADD14C,0.067874*%
%ADD15R,0.067874X0.067874*%
%ADD16C,0.2362*%
%ADD17R,0.055074X0.021574*%
%ADD18R,0.055074X0.021674*%
%ADD19C,0.0393701*%
%ADD20R,0.0590551X0.0275591*%
%ADD21R,0.0291118X0.0645669*%
%ADD22O,0.0468504X0.0685039*%
%ADD23R,0.0551181X0.0669291*%
%ADD24R,0.062974X0.043274*%
%ADD25R,0.043274X0.062974*%
%ADD26R,0.0273X0.0253*%
%ADD27R,0.0253X0.0273*%
%ADD28R,0.0392X0.0353*%
%ADD29R,0.0353X0.0392*%
%ADD30R,0.0273X0.0273*%
%ADD31R,0.0212598X0.0212598*%
%ADD32R,0.031474X0.055074*%
%ADD33R,0.102362X0.102362*%
%ADD34O,0.017674X0.0354331*%
%ADD35O,0.0354331X0.017674*%
%ADD36R,0.047274X0.047274*%
%ADD37C,0.0487118*%
%ADD38R,0.055074X0.031474*%
%ADD39R,0.0275591X0.0181102*%
%ADD40R,0.0492126X0.0346457*%
%ADD41R,0.0169291X0.0393701*%
%ADD42R,0.125984X0.0708661*%
%ADD43R,0.165X0.105*%
%ADD44C,0.0669291*%
%ADD45O,0.06X0.1179*%
G04 APERTURE END LIST*
G54D10*
G54D11*
X43307Y-26771D02*
X43307Y-51181D01*
X66535Y-26771D02*
X43307Y-26771D01*
X66535Y-51181D02*
X43307Y-51181D01*
X66535Y-51181D02*
X66535Y-26771D01*
G54D12*
X48976Y-27244D03*
X52755Y-50393D03*
X64468Y-27421D03*
G54D13*
X45255Y-33633D03*
G54D14*
X44271Y-33633D03*
G54D15*
X45255Y-36688D03*
G54D14*
X44271Y-36688D03*
X44271Y-34704D03*
G54D13*
X45255Y-34704D03*
G54D14*
X44271Y-35688D03*
X45255Y-35688D03*
G54D16*
X49803Y-30771D03*
X64842Y-30771D03*
G54D17*
X44516Y-50260D03*
G54D18*
X44515Y-50004D03*
X44515Y-49748D03*
X44515Y-49492D03*
G54D17*
X46878Y-50260D03*
G54D18*
X46878Y-50004D03*
X46878Y-49748D03*
X46878Y-49492D03*
G54D19*
X54610Y-41657D03*
X56649Y-36972D03*
X60673Y-43263D03*
X55460Y-36216D03*
G54D20*
X65444Y-49911D03*
X65444Y-50659D03*
X64476Y-50285D03*
G54D21*
X64210Y-34098D03*
X64710Y-34098D03*
X65210Y-34098D03*
X65710Y-34098D03*
X65710Y-36224D03*
X65210Y-36224D03*
X64710Y-36224D03*
X64210Y-36224D03*
X61533Y-48854D03*
X61033Y-48854D03*
X60533Y-48854D03*
X60033Y-48854D03*
X60033Y-46728D03*
X60533Y-46728D03*
X61033Y-46728D03*
X61533Y-46728D03*
G54D22*
X58011Y-50423D03*
X62952Y-50423D03*
X49704Y-50423D03*
X54645Y-50423D03*
G54D23*
X62007Y-38673D03*
X62007Y-37177D03*
X61141Y-37177D03*
X61141Y-38673D03*
X52078Y-39767D03*
X52078Y-41263D03*
X52944Y-41263D03*
X52944Y-39767D03*
G54D24*
X48500Y-49664D03*
X48500Y-50414D03*
G54D25*
X58386Y-49370D03*
X57636Y-49370D03*
G54D24*
X62952Y-48601D03*
X62952Y-49351D03*
G54D25*
X50491Y-50275D03*
X51241Y-50275D03*
G54D26*
X55078Y-49732D03*
X55078Y-49362D03*
G54D27*
X56358Y-47866D03*
X56728Y-47866D03*
X56728Y-47299D03*
X56358Y-47299D03*
G54D26*
X61535Y-45893D03*
X61535Y-45523D03*
X65206Y-37659D03*
X65206Y-38029D03*
X65708Y-37659D03*
X65708Y-38029D03*
X64714Y-37659D03*
X64714Y-38029D03*
X58425Y-46681D03*
X58425Y-46311D03*
G54D27*
X54066Y-44409D03*
X54436Y-44409D03*
G54D26*
X47047Y-46129D03*
X47047Y-45759D03*
X43799Y-44519D03*
X43799Y-44889D03*
G54D27*
X46149Y-46043D03*
X45779Y-46043D03*
G54D26*
X44035Y-46188D03*
X44035Y-45818D03*
G54D27*
X44870Y-46240D03*
X44500Y-46240D03*
X46157Y-46437D03*
X46527Y-46437D03*
G54D26*
X43669Y-50003D03*
X43669Y-49633D03*
G54D27*
X52173Y-46515D03*
X51803Y-46515D03*
X52173Y-43976D03*
X51803Y-43976D03*
G54D26*
X47122Y-39330D03*
X47122Y-38960D03*
X47133Y-41787D03*
X47133Y-41417D03*
X47145Y-40708D03*
X47145Y-40338D03*
X47397Y-38125D03*
X47397Y-37755D03*
G54D27*
X46665Y-44881D03*
X47035Y-44881D03*
G54D26*
X65452Y-48964D03*
X65452Y-48594D03*
G54D27*
X64543Y-49236D03*
X64173Y-49236D03*
X64181Y-48405D03*
X63811Y-48405D03*
X62901Y-47283D03*
X62531Y-47283D03*
G54D26*
X61023Y-45893D03*
X61023Y-45523D03*
X58740Y-46681D03*
X58740Y-46311D03*
X64704Y-39858D03*
X64704Y-39488D03*
X65212Y-39858D03*
X65212Y-39488D03*
X64208Y-39858D03*
X64208Y-39488D03*
X58110Y-46681D03*
X58110Y-46311D03*
G54D28*
X58937Y-48503D03*
X58937Y-47952D03*
X56830Y-50255D03*
X56830Y-50807D03*
G54D29*
X57267Y-44700D03*
X56716Y-44700D03*
G54D28*
X57862Y-36751D03*
X57862Y-37303D03*
X58976Y-37283D03*
X58976Y-37834D03*
G54D30*
X43720Y-45275D03*
X43720Y-45629D03*
X43799Y-44192D03*
X43799Y-43838D03*
X65716Y-39484D03*
X65716Y-39130D03*
X45452Y-43523D03*
X45806Y-43523D03*
X49153Y-50059D03*
X49153Y-50413D03*
X46574Y-44488D03*
X46928Y-44488D03*
X64192Y-38031D03*
X64192Y-38385D03*
X46574Y-45275D03*
X46574Y-45629D03*
X47480Y-47086D03*
X47480Y-46732D03*
X56122Y-50256D03*
X56122Y-50610D03*
X63306Y-49803D03*
X62952Y-49803D03*
X55767Y-50256D03*
X55767Y-50610D03*
X55865Y-47559D03*
X55511Y-47559D03*
G54D31*
X59448Y-41889D03*
X59685Y-41889D03*
X59527Y-33858D03*
X59763Y-33858D03*
X55393Y-42519D03*
X55157Y-42519D03*
X55326Y-34736D03*
X55090Y-34736D03*
X59448Y-43484D03*
X59685Y-43484D03*
X55314Y-33799D03*
X55078Y-33799D03*
X55354Y-35090D03*
X55118Y-35090D03*
X55629Y-40629D03*
X55393Y-40629D03*
X56515Y-32555D03*
X56515Y-32318D03*
X59448Y-43779D03*
X59685Y-43779D03*
X59500Y-35929D03*
X59736Y-35929D03*
X55275Y-35590D03*
X55039Y-35590D03*
X55393Y-43425D03*
X55157Y-43425D03*
X58559Y-37283D03*
X58322Y-37283D03*
X58503Y-44665D03*
X58503Y-44901D03*
X58771Y-44665D03*
X59007Y-44665D03*
X55314Y-33415D03*
X55078Y-33415D03*
X55393Y-42913D03*
X55157Y-42913D03*
X57393Y-32807D03*
X57393Y-32570D03*
X59448Y-42874D03*
X59685Y-42874D03*
X59503Y-34893D03*
X59740Y-34893D03*
X59448Y-42519D03*
X59685Y-42519D03*
X57480Y-40472D03*
X57480Y-40236D03*
X59503Y-34590D03*
X59740Y-34590D03*
X55393Y-43976D03*
X55157Y-43976D03*
X56564Y-35767D03*
X56564Y-36003D03*
G54D16*
X64842Y-46523D03*
X49803Y-46523D03*
G54D32*
X46335Y-41610D03*
X45585Y-41610D03*
X46335Y-40610D03*
X45960Y-41610D03*
X45585Y-40610D03*
X46327Y-39090D03*
X45577Y-39090D03*
X46327Y-38090D03*
X45952Y-39090D03*
X45577Y-38090D03*
G54D27*
X52173Y-44921D03*
X51803Y-44921D03*
X52173Y-45433D03*
X51803Y-45433D03*
X52173Y-44468D03*
X51803Y-44468D03*
X52173Y-45944D03*
X51803Y-45944D03*
G54D33*
X45255Y-44783D03*
G54D34*
X45747Y-45570D03*
X45550Y-45570D03*
X45353Y-45570D03*
X45157Y-45570D03*
X44960Y-45570D03*
X44763Y-45570D03*
G54D35*
X44468Y-45275D03*
X44468Y-45078D03*
X44468Y-44881D03*
X44468Y-44685D03*
X44468Y-44488D03*
X44468Y-44291D03*
G54D34*
X44763Y-43996D03*
X44960Y-43996D03*
X45157Y-43996D03*
X45353Y-43996D03*
X45550Y-43996D03*
X45747Y-43996D03*
G54D35*
X46042Y-44291D03*
X46042Y-44488D03*
X46042Y-44685D03*
X46042Y-44881D03*
X46042Y-45078D03*
X46042Y-45275D03*
G54D36*
X45019Y-44547D03*
X45019Y-45019D03*
X45491Y-44547D03*
X45491Y-45019D03*
G54D21*
X65710Y-43236D03*
X65210Y-43236D03*
X64710Y-43236D03*
X64210Y-43236D03*
X64210Y-41110D03*
X64710Y-41110D03*
X65210Y-41110D03*
X65710Y-41110D03*
G54D37*
X49606Y-44000D03*
X49606Y-33606D03*
G54D28*
X55078Y-48582D03*
X55078Y-48031D03*
G54D29*
X60039Y-45905D03*
X59488Y-45905D03*
G54D30*
X52086Y-38956D03*
X52440Y-38956D03*
X60303Y-37417D03*
X60303Y-37771D03*
X62011Y-36055D03*
X62011Y-36409D03*
X51732Y-41968D03*
X52086Y-41968D03*
G54D38*
X45208Y-48296D03*
X45208Y-47546D03*
X46208Y-48296D03*
X45208Y-47921D03*
X46208Y-47546D03*
G54D39*
X57000Y-49212D03*
X57000Y-49015D03*
X55716Y-49015D03*
X55716Y-49212D03*
G54D40*
X56614Y-48956D03*
X56102Y-48956D03*
X56102Y-49271D03*
X56614Y-49271D03*
G54D41*
X55964Y-48533D03*
X55964Y-49694D03*
X56751Y-48533D03*
X56555Y-48533D03*
X56358Y-48533D03*
X56161Y-48533D03*
X56161Y-49694D03*
X56358Y-49694D03*
X56555Y-49694D03*
X56751Y-49694D03*
G54D42*
X56358Y-49114D03*
G54D43*
X44238Y-41218D03*
X44238Y-38466D03*
G54D44*
X46889Y-35196D03*
X46889Y-34196D03*
X46889Y-36196D03*
G54D45*
X64460Y-44488D03*
X65459Y-44488D03*
X65460Y-32874D03*
X64461Y-32874D03*
G54D14*
X53437Y-29318D03*
X53437Y-28318D03*
G54D15*
X52437Y-29318D03*
G54D14*
X52437Y-28318D03*
X54437Y-28318D03*
X54437Y-29318D03*
X61421Y-28318D03*
X59421Y-28318D03*
X60421Y-28318D03*
X60421Y-29318D03*
X59421Y-29318D03*
X58421Y-29318D03*
G54D13*
X55366Y-29318D03*
G54D14*
X55366Y-28318D03*
X61421Y-29318D03*
X58421Y-28318D03*
X56429Y-28318D03*
G54D13*
X56429Y-29318D03*
G54D14*
X57429Y-28318D03*
X57429Y-29318D03*
M02*
