%FSLAX34Y34*%
G04 Gerber Fmt 3.4, Leading zero omitted, Abs format*
G04 (created by PCBNEW (2013-10-29 BZR 4389)-product) date 4/5/2015 8:40:47 AM*
%MOIN*%
G01*
G70*
G90*
G04 APERTURE LIST*
%ADD10C,0.005906*%
%ADD11C,0.009843*%
%ADD12C,0.007874*%
%ADD13C,0.003937*%
%ADD14C,0.007700*%
%ADD15C,0.006300*%
%ADD16C,0.005700*%
%ADD17C,0.029900*%
%ADD18C,0.006000*%
%ADD19C,0.004921*%
%ADD20C,0.004900*%
%ADD21C,0.004800*%
G04 APERTURE END LIST*
G54D10*
X47717Y-44109D02*
X47323Y-44109D01*
X47323Y-43989D01*
X47342Y-43959D01*
X47361Y-43944D01*
X47398Y-43929D01*
X47455Y-43929D01*
X47492Y-43944D01*
X47511Y-43959D01*
X47529Y-43989D01*
X47529Y-44109D01*
X47717Y-43645D02*
X47717Y-43794D01*
X47323Y-43794D01*
X47717Y-43390D02*
X47717Y-43540D01*
X47323Y-43540D01*
X47717Y-42895D02*
X47717Y-43045D01*
X47323Y-43045D01*
X47717Y-42745D02*
X47698Y-42775D01*
X47679Y-42790D01*
X47642Y-42805D01*
X47529Y-42805D01*
X47492Y-42790D01*
X47473Y-42775D01*
X47455Y-42745D01*
X47455Y-42700D01*
X47473Y-42670D01*
X47492Y-42655D01*
X47529Y-42640D01*
X47642Y-42640D01*
X47679Y-42655D01*
X47698Y-42670D01*
X47717Y-42700D01*
X47717Y-42745D01*
X47698Y-42370D02*
X47717Y-42400D01*
X47717Y-42460D01*
X47698Y-42490D01*
X47679Y-42505D01*
X47642Y-42520D01*
X47529Y-42520D01*
X47492Y-42505D01*
X47473Y-42490D01*
X47455Y-42460D01*
X47455Y-42400D01*
X47473Y-42370D01*
X47717Y-42235D02*
X47323Y-42235D01*
X47567Y-42205D02*
X47717Y-42115D01*
X47455Y-42115D02*
X47604Y-42235D01*
X43759Y-31280D02*
X43654Y-31092D01*
X43579Y-31280D02*
X43579Y-30886D01*
X43699Y-30886D01*
X43729Y-30905D01*
X43744Y-30924D01*
X43759Y-30961D01*
X43759Y-31017D01*
X43744Y-31055D01*
X43729Y-31074D01*
X43699Y-31092D01*
X43579Y-31092D01*
X44014Y-31261D02*
X43984Y-31280D01*
X43924Y-31280D01*
X43894Y-31261D01*
X43879Y-31224D01*
X43879Y-31074D01*
X43894Y-31036D01*
X43924Y-31017D01*
X43984Y-31017D01*
X44014Y-31036D01*
X44029Y-31074D01*
X44029Y-31111D01*
X43879Y-31149D01*
X44149Y-31261D02*
X44179Y-31280D01*
X44239Y-31280D01*
X44269Y-31261D01*
X44284Y-31224D01*
X44284Y-31205D01*
X44269Y-31167D01*
X44239Y-31149D01*
X44194Y-31149D01*
X44164Y-31130D01*
X44149Y-31092D01*
X44149Y-31074D01*
X44164Y-31036D01*
X44194Y-31017D01*
X44239Y-31017D01*
X44269Y-31036D01*
X44539Y-31261D02*
X44509Y-31280D01*
X44449Y-31280D01*
X44419Y-31261D01*
X44404Y-31224D01*
X44404Y-31074D01*
X44419Y-31036D01*
X44449Y-31017D01*
X44509Y-31017D01*
X44539Y-31036D01*
X44554Y-31074D01*
X44554Y-31111D01*
X44404Y-31149D01*
X44644Y-31017D02*
X44764Y-31017D01*
X44689Y-30886D02*
X44689Y-31224D01*
X44704Y-31261D01*
X44734Y-31280D01*
X44764Y-31280D01*
X44869Y-30886D02*
X44869Y-31205D01*
X44884Y-31242D01*
X44899Y-31261D01*
X44929Y-31280D01*
X44989Y-31280D01*
X45019Y-31261D01*
X45034Y-31242D01*
X45049Y-31205D01*
X45049Y-30886D01*
X45364Y-31280D02*
X45184Y-31280D01*
X45274Y-31280D02*
X45274Y-30886D01*
X45244Y-30943D01*
X45214Y-30980D01*
X45184Y-30999D01*
X45901Y-31280D02*
X45796Y-31092D01*
X45721Y-31280D02*
X45721Y-30886D01*
X45841Y-30886D01*
X45871Y-30905D01*
X45886Y-30924D01*
X45901Y-30961D01*
X45901Y-31017D01*
X45886Y-31055D01*
X45871Y-31074D01*
X45841Y-31092D01*
X45721Y-31092D01*
X46156Y-31261D02*
X46126Y-31280D01*
X46066Y-31280D01*
X46036Y-31261D01*
X46021Y-31224D01*
X46021Y-31074D01*
X46036Y-31036D01*
X46066Y-31017D01*
X46126Y-31017D01*
X46156Y-31036D01*
X46171Y-31074D01*
X46171Y-31111D01*
X46021Y-31149D01*
X46291Y-31261D02*
X46321Y-31280D01*
X46381Y-31280D01*
X46411Y-31261D01*
X46426Y-31224D01*
X46426Y-31205D01*
X46411Y-31167D01*
X46381Y-31149D01*
X46336Y-31149D01*
X46306Y-31130D01*
X46291Y-31092D01*
X46291Y-31074D01*
X46306Y-31036D01*
X46336Y-31017D01*
X46381Y-31017D01*
X46411Y-31036D01*
X46681Y-31261D02*
X46651Y-31280D01*
X46591Y-31280D01*
X46561Y-31261D01*
X46546Y-31224D01*
X46546Y-31074D01*
X46561Y-31036D01*
X46591Y-31017D01*
X46651Y-31017D01*
X46681Y-31036D01*
X46696Y-31074D01*
X46696Y-31111D01*
X46546Y-31149D01*
X46786Y-31017D02*
X46906Y-31017D01*
X46831Y-30886D02*
X46831Y-31224D01*
X46846Y-31261D01*
X46876Y-31280D01*
X46906Y-31280D01*
X47011Y-30886D02*
X47011Y-31205D01*
X47026Y-31242D01*
X47041Y-31261D01*
X47071Y-31280D01*
X47131Y-31280D01*
X47161Y-31261D01*
X47176Y-31242D01*
X47191Y-31205D01*
X47191Y-30886D01*
X47326Y-30924D02*
X47341Y-30905D01*
X47371Y-30886D01*
X47446Y-30886D01*
X47476Y-30905D01*
X47491Y-30924D01*
X47506Y-30961D01*
X47506Y-30999D01*
X47491Y-31055D01*
X47311Y-31280D01*
X47506Y-31280D01*
G54D11*
X64510Y-28298D02*
X64651Y-28692D01*
X64791Y-28298D01*
X65326Y-28692D02*
X64988Y-28692D01*
X65157Y-28692D02*
X65157Y-28101D01*
X65101Y-28186D01*
X65044Y-28242D01*
X64988Y-28270D01*
X65579Y-28636D02*
X65607Y-28664D01*
X65579Y-28692D01*
X65551Y-28664D01*
X65579Y-28636D01*
X65579Y-28692D01*
X65973Y-28101D02*
X66029Y-28101D01*
X66085Y-28129D01*
X66113Y-28158D01*
X66141Y-28214D01*
X66169Y-28326D01*
X66169Y-28467D01*
X66141Y-28579D01*
X66113Y-28636D01*
X66085Y-28664D01*
X66029Y-28692D01*
X65973Y-28692D01*
X65916Y-28664D01*
X65888Y-28636D01*
X65860Y-28579D01*
X65832Y-28467D01*
X65832Y-28326D01*
X65860Y-28214D01*
X65888Y-28158D01*
X65916Y-28129D01*
X65973Y-28101D01*
G54D10*
X64803Y-50343D02*
X65103Y-50343D01*
X64953Y-50493D02*
X64953Y-50193D01*
X65496Y-50493D02*
X65271Y-50493D01*
X65384Y-50493D02*
X65384Y-50099D01*
X65346Y-50155D01*
X65309Y-50193D01*
X65271Y-50211D01*
X65665Y-50455D02*
X65684Y-50474D01*
X65665Y-50493D01*
X65646Y-50474D01*
X65665Y-50455D01*
X65665Y-50493D01*
X65834Y-50136D02*
X65853Y-50118D01*
X65890Y-50099D01*
X65984Y-50099D01*
X66021Y-50118D01*
X66040Y-50136D01*
X66059Y-50174D01*
X66059Y-50211D01*
X66040Y-50268D01*
X65815Y-50493D01*
X66059Y-50493D01*
X66171Y-50099D02*
X66302Y-50493D01*
X66434Y-50099D01*
X64803Y-49083D02*
X65103Y-49083D01*
X64953Y-49233D02*
X64953Y-48933D01*
X65253Y-48839D02*
X65496Y-48839D01*
X65365Y-48989D01*
X65421Y-48989D01*
X65459Y-49008D01*
X65478Y-49026D01*
X65496Y-49064D01*
X65496Y-49158D01*
X65478Y-49195D01*
X65459Y-49214D01*
X65421Y-49233D01*
X65309Y-49233D01*
X65271Y-49214D01*
X65253Y-49195D01*
X65665Y-49195D02*
X65684Y-49214D01*
X65665Y-49233D01*
X65646Y-49214D01*
X65665Y-49195D01*
X65665Y-49233D01*
X65815Y-48839D02*
X66059Y-48839D01*
X65928Y-48989D01*
X65984Y-48989D01*
X66021Y-49008D01*
X66040Y-49026D01*
X66059Y-49064D01*
X66059Y-49158D01*
X66040Y-49195D01*
X66021Y-49214D01*
X65984Y-49233D01*
X65871Y-49233D01*
X65834Y-49214D01*
X65815Y-49195D01*
X66171Y-48839D02*
X66302Y-49233D01*
X66434Y-48839D01*
G54D12*
X43307Y-26771D02*
X43307Y-51181D01*
G54D10*
X59412Y-48947D02*
X59307Y-48760D01*
X59232Y-48947D02*
X59232Y-48554D01*
X59352Y-48554D01*
X59382Y-48572D01*
X59397Y-48591D01*
X59412Y-48629D01*
X59412Y-48685D01*
X59397Y-48722D01*
X59382Y-48741D01*
X59352Y-48760D01*
X59232Y-48760D01*
X59667Y-48929D02*
X59637Y-48947D01*
X59577Y-48947D01*
X59547Y-48929D01*
X59532Y-48891D01*
X59532Y-48741D01*
X59547Y-48704D01*
X59577Y-48685D01*
X59637Y-48685D01*
X59667Y-48704D01*
X59682Y-48741D01*
X59682Y-48779D01*
X59532Y-48816D01*
X59952Y-48929D02*
X59922Y-48947D01*
X59862Y-48947D01*
X59832Y-48929D01*
X59817Y-48910D01*
X59802Y-48872D01*
X59802Y-48760D01*
X59817Y-48722D01*
X59832Y-48704D01*
X59862Y-48685D01*
X59922Y-48685D01*
X59952Y-48704D01*
X60207Y-48929D02*
X60177Y-48947D01*
X60117Y-48947D01*
X60087Y-48929D01*
X60072Y-48891D01*
X60072Y-48741D01*
X60087Y-48704D01*
X60117Y-48685D01*
X60177Y-48685D01*
X60207Y-48704D01*
X60222Y-48741D01*
X60222Y-48779D01*
X60072Y-48816D01*
X60357Y-48947D02*
X60357Y-48685D01*
X60357Y-48554D02*
X60342Y-48572D01*
X60357Y-48591D01*
X60372Y-48572D01*
X60357Y-48554D01*
X60357Y-48591D01*
X60477Y-48685D02*
X60552Y-48947D01*
X60627Y-48685D01*
X60867Y-48929D02*
X60837Y-48947D01*
X60777Y-48947D01*
X60747Y-48929D01*
X60732Y-48891D01*
X60732Y-48741D01*
X60747Y-48704D01*
X60777Y-48685D01*
X60837Y-48685D01*
X60867Y-48704D01*
X60882Y-48741D01*
X60882Y-48779D01*
X60732Y-48816D01*
X61017Y-48947D02*
X61017Y-48685D01*
X61017Y-48760D02*
X61032Y-48722D01*
X61047Y-48704D01*
X61077Y-48685D01*
X61107Y-48685D01*
X51005Y-48544D02*
X51185Y-48544D01*
X51095Y-48937D02*
X51095Y-48544D01*
X51290Y-48937D02*
X51290Y-48675D01*
X51290Y-48750D02*
X51305Y-48712D01*
X51320Y-48694D01*
X51350Y-48675D01*
X51380Y-48675D01*
X51620Y-48937D02*
X51620Y-48731D01*
X51605Y-48694D01*
X51575Y-48675D01*
X51515Y-48675D01*
X51485Y-48694D01*
X51620Y-48919D02*
X51590Y-48937D01*
X51515Y-48937D01*
X51485Y-48919D01*
X51470Y-48881D01*
X51470Y-48844D01*
X51485Y-48806D01*
X51515Y-48787D01*
X51590Y-48787D01*
X51620Y-48769D01*
X51770Y-48675D02*
X51770Y-48937D01*
X51770Y-48712D02*
X51785Y-48694D01*
X51815Y-48675D01*
X51860Y-48675D01*
X51890Y-48694D01*
X51905Y-48731D01*
X51905Y-48937D01*
X52040Y-48919D02*
X52070Y-48937D01*
X52130Y-48937D01*
X52160Y-48919D01*
X52175Y-48881D01*
X52175Y-48862D01*
X52160Y-48825D01*
X52130Y-48806D01*
X52085Y-48806D01*
X52055Y-48787D01*
X52040Y-48750D01*
X52040Y-48731D01*
X52055Y-48694D01*
X52085Y-48675D01*
X52130Y-48675D01*
X52160Y-48694D01*
X52310Y-48937D02*
X52310Y-48675D01*
X52310Y-48712D02*
X52325Y-48694D01*
X52355Y-48675D01*
X52400Y-48675D01*
X52430Y-48694D01*
X52445Y-48731D01*
X52445Y-48937D01*
X52445Y-48731D02*
X52460Y-48694D01*
X52490Y-48675D01*
X52535Y-48675D01*
X52565Y-48694D01*
X52580Y-48731D01*
X52580Y-48937D01*
X52730Y-48937D02*
X52730Y-48675D01*
X52730Y-48544D02*
X52715Y-48562D01*
X52730Y-48581D01*
X52745Y-48562D01*
X52730Y-48544D01*
X52730Y-48581D01*
X52835Y-48675D02*
X52955Y-48675D01*
X52880Y-48544D02*
X52880Y-48881D01*
X52895Y-48919D01*
X52925Y-48937D01*
X52955Y-48937D01*
X53015Y-48675D02*
X53135Y-48675D01*
X53060Y-48544D02*
X53060Y-48881D01*
X53075Y-48919D01*
X53105Y-48937D01*
X53135Y-48937D01*
X53360Y-48919D02*
X53330Y-48937D01*
X53270Y-48937D01*
X53240Y-48919D01*
X53225Y-48881D01*
X53225Y-48731D01*
X53240Y-48694D01*
X53270Y-48675D01*
X53330Y-48675D01*
X53360Y-48694D01*
X53375Y-48731D01*
X53375Y-48769D01*
X53225Y-48806D01*
X53510Y-48937D02*
X53510Y-48675D01*
X53510Y-48750D02*
X53525Y-48712D01*
X53540Y-48694D01*
X53570Y-48675D01*
X53600Y-48675D01*
G54D13*
X47771Y-28976D02*
X66271Y-28976D01*
X47771Y-28976D02*
X47771Y-48267D01*
X47771Y-48267D02*
X66271Y-48267D01*
X66271Y-28976D02*
X66271Y-48267D01*
G54D12*
X66535Y-26771D02*
X43307Y-26771D01*
X66535Y-51181D02*
X43307Y-51181D01*
X66535Y-51181D02*
X66535Y-26771D01*
G54D11*
X44013Y-33114D02*
X43763Y-33364D01*
X43763Y-33364D02*
X43763Y-36927D01*
X44013Y-33114D02*
X45513Y-33114D01*
X45513Y-33114D02*
X45763Y-33364D01*
X45763Y-33364D02*
X45763Y-36927D01*
X45763Y-36931D02*
X45513Y-37181D01*
X45513Y-37181D02*
X44013Y-37181D01*
X44013Y-37181D02*
X43763Y-36931D01*
X51142Y-30771D02*
G75*
G03X51142Y-30771I-1339J0D01*
G74*
G01*
X66181Y-30771D02*
G75*
G03X66181Y-30771I-1339J0D01*
G74*
G01*
X57992Y-51259D02*
X63011Y-51259D01*
X63011Y-50866D02*
X63011Y-51259D01*
X57992Y-50866D02*
X57992Y-51259D01*
X63011Y-49980D02*
X63011Y-49055D01*
X62755Y-49055D02*
X63011Y-49055D01*
X57992Y-49055D02*
X58700Y-49055D01*
X57992Y-49980D02*
X57992Y-49055D01*
X60118Y-49055D02*
X61377Y-49055D01*
X49685Y-51259D02*
X54704Y-51259D01*
X54704Y-50866D02*
X54704Y-51259D01*
X49685Y-50866D02*
X49685Y-51259D01*
X54704Y-49980D02*
X54704Y-49055D01*
X54448Y-49055D02*
X54704Y-49055D01*
X49685Y-49055D02*
X50393Y-49055D01*
X49685Y-49980D02*
X49685Y-49055D01*
X51811Y-49055D02*
X53070Y-49055D01*
X44173Y-48228D02*
X44173Y-50668D01*
X44173Y-50668D02*
X47007Y-50668D01*
X47007Y-50668D02*
X47007Y-48228D01*
X47007Y-48228D02*
X44173Y-48228D01*
G54D14*
X47440Y-29882D02*
X47440Y-30038D01*
X63345Y-35649D02*
X63189Y-35649D01*
X47440Y-29233D02*
X47440Y-29389D01*
X43779Y-30688D02*
X43779Y-30532D01*
X46978Y-44812D02*
X46978Y-44656D01*
X45009Y-46269D02*
X44853Y-46269D01*
X46988Y-45176D02*
X46988Y-45020D01*
X47185Y-41584D02*
X47341Y-41584D01*
X47440Y-30532D02*
X47440Y-30688D01*
X63189Y-34625D02*
X63345Y-34625D01*
X46457Y-41582D02*
X46613Y-41582D01*
X60551Y-36062D02*
X60551Y-35906D01*
X60551Y-36889D02*
X60551Y-36733D01*
X60551Y-36495D02*
X60551Y-36339D01*
X60551Y-35235D02*
X60551Y-35079D01*
X45127Y-43366D02*
X44971Y-43366D01*
X46480Y-45457D02*
X46480Y-45613D01*
X54527Y-41219D02*
X54527Y-41063D01*
X47433Y-46739D02*
X47433Y-46583D01*
X46565Y-44025D02*
X46721Y-44025D01*
X57282Y-39566D02*
X57126Y-39566D01*
X54566Y-32715D02*
X54566Y-32559D01*
X56378Y-31732D02*
X56534Y-31732D01*
X54566Y-32361D02*
X54566Y-32205D01*
X56063Y-31732D02*
X56219Y-31732D01*
X55748Y-31732D02*
X55904Y-31732D01*
X56693Y-31732D02*
X56849Y-31732D01*
X57323Y-31732D02*
X57479Y-31732D01*
X58975Y-31732D02*
X58819Y-31732D01*
X54566Y-33030D02*
X54566Y-32874D01*
X57794Y-31732D02*
X57638Y-31732D01*
X54527Y-43188D02*
X54527Y-43032D01*
X54527Y-41524D02*
X54527Y-41368D01*
X54527Y-41839D02*
X54527Y-41683D01*
X54527Y-43503D02*
X54527Y-43347D01*
X54527Y-42873D02*
X54527Y-42717D01*
X58188Y-39566D02*
X58032Y-39566D01*
X54537Y-40314D02*
X54537Y-40158D01*
X54537Y-40904D02*
X54537Y-40748D01*
X56457Y-39566D02*
X56613Y-39566D01*
X54537Y-40609D02*
X54537Y-40453D01*
X56142Y-39566D02*
X56298Y-39566D01*
X55827Y-39566D02*
X55983Y-39566D01*
X59066Y-39566D02*
X58910Y-39566D01*
X58503Y-39566D02*
X58347Y-39566D01*
X60551Y-35629D02*
X60551Y-35473D01*
X54566Y-34329D02*
X54566Y-34173D01*
X54566Y-34684D02*
X54566Y-34528D01*
X54566Y-35353D02*
X54566Y-35197D01*
X54566Y-34015D02*
X54566Y-33859D01*
X54566Y-33700D02*
X54566Y-33544D01*
X54566Y-34999D02*
X54566Y-34843D01*
X54566Y-33385D02*
X54566Y-33229D01*
X63107Y-43500D02*
X63263Y-43500D01*
X56928Y-39566D02*
X56772Y-39566D01*
X63465Y-41228D02*
X63621Y-41228D01*
X57164Y-31732D02*
X57008Y-31732D01*
X63621Y-42476D02*
X63465Y-42476D01*
X59921Y-48522D02*
X59921Y-48366D01*
X51574Y-48522D02*
X51574Y-48366D01*
X59271Y-45432D02*
X59271Y-45276D01*
X62066Y-36377D02*
X62066Y-36221D01*
X54527Y-42518D02*
X54527Y-42362D01*
G54D10*
X64685Y-49055D02*
X64370Y-49055D01*
X64370Y-50314D02*
X64685Y-50314D01*
G54D11*
X59330Y-37204D02*
X60039Y-36496D01*
X59330Y-37204D02*
X54921Y-37204D01*
X54921Y-37204D02*
X54921Y-32086D01*
X54921Y-32086D02*
X60039Y-32086D01*
X60039Y-32086D02*
X60039Y-36496D01*
X59055Y-36614D02*
X59448Y-36220D01*
X59055Y-36614D02*
X55511Y-36614D01*
X55511Y-36614D02*
X55511Y-32677D01*
X55511Y-32677D02*
X59448Y-32677D01*
X59448Y-32677D02*
X59448Y-36220D01*
X59330Y-45078D02*
X60039Y-44370D01*
X59330Y-45078D02*
X54921Y-45078D01*
X54921Y-45078D02*
X54921Y-39960D01*
X54921Y-39960D02*
X60039Y-39960D01*
X60039Y-39960D02*
X60039Y-44370D01*
X59055Y-44488D02*
X59448Y-44094D01*
X59055Y-44488D02*
X55511Y-44488D01*
X55511Y-44488D02*
X55511Y-40551D01*
X55511Y-40551D02*
X59448Y-40551D01*
X59448Y-40551D02*
X59448Y-44094D01*
G54D14*
X61536Y-47125D02*
X61692Y-47125D01*
X53534Y-47125D02*
X53690Y-47125D01*
X53238Y-47125D02*
X53394Y-47125D01*
X61811Y-47125D02*
X61967Y-47125D01*
X48772Y-50137D02*
X48928Y-50137D01*
X43916Y-44803D02*
X43760Y-44803D01*
X46480Y-46422D02*
X46480Y-46578D01*
X44766Y-43354D02*
X44610Y-43354D01*
G54D11*
X66181Y-46523D02*
G75*
G03X66181Y-46523I-1339J0D01*
G74*
G01*
X51142Y-46523D02*
G75*
G03X51142Y-46523I-1339J0D01*
G74*
G01*
G54D14*
X43779Y-30038D02*
X43779Y-29882D01*
X43779Y-29389D02*
X43779Y-29233D01*
X52283Y-36221D02*
X52283Y-36377D01*
X58345Y-31732D02*
X58189Y-31732D01*
X52283Y-33662D02*
X52283Y-33818D01*
X52283Y-35906D02*
X52283Y-36062D01*
X52283Y-35591D02*
X52283Y-35747D01*
X52283Y-35276D02*
X52283Y-35432D01*
X52283Y-34922D02*
X52283Y-35078D01*
X52283Y-34607D02*
X52283Y-34763D01*
X52283Y-34292D02*
X52283Y-34448D01*
X52283Y-33977D02*
X52283Y-34133D01*
X58660Y-31732D02*
X58504Y-31732D01*
X52283Y-33347D02*
X52283Y-33503D01*
X52283Y-38266D02*
X52283Y-38110D01*
X52283Y-37952D02*
X52283Y-37796D01*
X52283Y-37637D02*
X52283Y-37481D01*
X52283Y-37322D02*
X52283Y-37166D01*
X52283Y-37007D02*
X52283Y-36851D01*
X52283Y-36692D02*
X52283Y-36536D01*
G54D11*
X48307Y-44965D02*
X48110Y-44768D01*
X48110Y-44767D02*
X48110Y-43566D01*
X48307Y-44965D02*
X48937Y-44965D01*
X50275Y-44965D02*
X51102Y-44965D01*
X51102Y-44965D02*
X51102Y-43566D01*
X48937Y-32642D02*
X48110Y-32642D01*
X48110Y-32642D02*
X48110Y-34039D01*
X50275Y-32642D02*
X51102Y-32642D01*
X51102Y-32642D02*
X51102Y-34039D01*
G54D14*
X45512Y-43179D02*
X45668Y-43179D01*
X45059Y-42440D02*
X45059Y-42284D01*
X44094Y-42440D02*
X44094Y-42284D01*
X43740Y-42894D02*
X43740Y-43050D01*
X43783Y-32827D02*
X43783Y-32983D01*
G54D10*
X46909Y-43041D02*
X47224Y-43041D01*
G54D14*
X45748Y-39920D02*
X45748Y-39764D01*
X44684Y-46259D02*
X44528Y-46259D01*
X46171Y-42794D02*
X46171Y-42638D01*
X46171Y-43444D02*
X46171Y-43288D01*
X45540Y-41574D02*
X45384Y-41574D01*
X44104Y-43455D02*
X44104Y-43611D01*
G54D11*
X53474Y-31643D02*
X53001Y-31643D01*
X52450Y-31643D02*
X51978Y-31643D01*
X46874Y-47051D02*
X46874Y-47523D01*
X44842Y-47523D02*
X44842Y-47051D01*
X44389Y-44232D02*
X44704Y-43917D01*
X44389Y-45649D02*
X46122Y-45649D01*
X44389Y-44232D02*
X44389Y-45649D01*
X46122Y-43917D02*
X46122Y-45649D01*
X44704Y-43917D02*
X46122Y-43917D01*
G54D13*
X43972Y-49448D02*
G75*
G03X43972Y-49448I-252J0D01*
G74*
G01*
G54D11*
X54271Y-47716D02*
X54271Y-48503D01*
X53248Y-47716D02*
X54271Y-47716D01*
X53248Y-48503D02*
X53248Y-47716D01*
X54271Y-48503D02*
X53248Y-48503D01*
X62559Y-47716D02*
X62559Y-48503D01*
X61535Y-47716D02*
X62559Y-47716D01*
X61535Y-48503D02*
X61535Y-47716D01*
X62559Y-48503D02*
X61535Y-48503D01*
X45295Y-32330D02*
X45295Y-32251D01*
X45295Y-31385D02*
X45295Y-31464D01*
X44114Y-31385D02*
X44114Y-31464D01*
X44114Y-32330D02*
X44114Y-32251D01*
X45295Y-31366D02*
X44114Y-31366D01*
X45295Y-32350D02*
X44114Y-32350D01*
X46307Y-31409D02*
X46307Y-31488D01*
X46307Y-32354D02*
X46307Y-32275D01*
X47488Y-32354D02*
X47488Y-32275D01*
X47488Y-31409D02*
X47488Y-31488D01*
X46307Y-32374D02*
X47488Y-32374D01*
X46307Y-31389D02*
X47488Y-31389D01*
G54D10*
X44980Y-29153D02*
X44980Y-29468D01*
X44980Y-29803D02*
X44980Y-30118D01*
X44980Y-30452D02*
X44980Y-30767D01*
X46358Y-29468D02*
X46358Y-29153D01*
X46358Y-30118D02*
X46358Y-29803D01*
X46358Y-30767D02*
X46358Y-30452D01*
G54D11*
X47007Y-50668D02*
X47007Y-48228D01*
X47007Y-48228D02*
X44173Y-48228D01*
X44173Y-48228D02*
X44173Y-50668D01*
X44173Y-50668D02*
X47007Y-50668D01*
X45177Y-41732D02*
X45177Y-41889D01*
X45177Y-41889D02*
X44980Y-41889D01*
X44980Y-37795D02*
X45177Y-37795D01*
X45177Y-37795D02*
X45177Y-37952D01*
X43523Y-37795D02*
X43326Y-37795D01*
X43326Y-37795D02*
X43326Y-41889D01*
X43326Y-41889D02*
X43523Y-41889D01*
X46377Y-37165D02*
X46377Y-33228D01*
X46377Y-33228D02*
X47401Y-33228D01*
X47401Y-33228D02*
X47401Y-37165D01*
X47401Y-37165D02*
X46377Y-37165D01*
X47834Y-49940D02*
X48307Y-49940D01*
G54D15*
X65578Y-42608D02*
X65578Y-42729D01*
G54D16*
X65339Y-42588D02*
X65339Y-42729D01*
X64581Y-42588D02*
X64581Y-42729D01*
G54D15*
X64342Y-42608D02*
X64342Y-42729D01*
G54D17*
X64460Y-42610D02*
X64460Y-40358D01*
X65460Y-42609D02*
X65460Y-40358D01*
G54D18*
X64960Y-42738D02*
X64960Y-43738D01*
X63960Y-43738D02*
X65960Y-43738D01*
X65960Y-43738D02*
X65960Y-42738D01*
X65960Y-42738D02*
X63960Y-42738D01*
X63960Y-42738D02*
X63960Y-43738D01*
G54D15*
X64342Y-34754D02*
X64342Y-34633D01*
G54D16*
X64581Y-34774D02*
X64581Y-34633D01*
X65339Y-34774D02*
X65339Y-34633D01*
G54D15*
X65578Y-34754D02*
X65578Y-34633D01*
G54D17*
X65460Y-34752D02*
X65460Y-37004D01*
X64460Y-34753D02*
X64460Y-37004D01*
G54D18*
X64960Y-34624D02*
X64960Y-33624D01*
X65960Y-33624D02*
X63960Y-33624D01*
X63960Y-33624D02*
X63960Y-34624D01*
X63960Y-34624D02*
X65960Y-34624D01*
X65960Y-34624D02*
X65960Y-33624D01*
G54D14*
X63465Y-44318D02*
X63621Y-44318D01*
X63345Y-33061D02*
X63189Y-33061D01*
G54D10*
X44409Y-32622D02*
X44672Y-33016D01*
X44672Y-32622D02*
X44409Y-33016D01*
X44803Y-32660D02*
X44822Y-32641D01*
X44859Y-32622D01*
X44953Y-32622D01*
X44990Y-32641D01*
X45009Y-32660D01*
X45028Y-32697D01*
X45028Y-32735D01*
X45009Y-32791D01*
X44784Y-33016D01*
X45028Y-33016D01*
X45796Y-37245D02*
X45766Y-37230D01*
X45751Y-37215D01*
X45736Y-37185D01*
X45736Y-37170D01*
X45751Y-37140D01*
X45766Y-37125D01*
X45796Y-37110D01*
X45856Y-37110D01*
X45886Y-37125D01*
X45901Y-37140D01*
X45916Y-37170D01*
X45916Y-37185D01*
X45901Y-37215D01*
X45886Y-37230D01*
X45856Y-37245D01*
X45796Y-37245D01*
X45766Y-37260D01*
X45751Y-37275D01*
X45736Y-37305D01*
X45736Y-37365D01*
X45751Y-37395D01*
X45766Y-37410D01*
X45796Y-37425D01*
X45856Y-37425D01*
X45886Y-37410D01*
X45901Y-37395D01*
X45916Y-37365D01*
X45916Y-37305D01*
X45901Y-37275D01*
X45886Y-37260D01*
X45856Y-37245D01*
X43595Y-37189D02*
X43805Y-37189D01*
X43670Y-37504D01*
X45776Y-32928D02*
X45791Y-32913D01*
X45821Y-32898D01*
X45896Y-32898D01*
X45926Y-32913D01*
X45941Y-32928D01*
X45956Y-32958D01*
X45956Y-32988D01*
X45941Y-33033D01*
X45761Y-33213D01*
X45956Y-33213D01*
X43672Y-33410D02*
X43492Y-33410D01*
X43582Y-33410D02*
X43582Y-33095D01*
X43552Y-33140D01*
X43522Y-33170D01*
X43492Y-33185D01*
X44300Y-37292D02*
X44300Y-37573D01*
X44281Y-37629D01*
X44244Y-37667D01*
X44188Y-37685D01*
X44150Y-37685D01*
X44431Y-37292D02*
X44656Y-37292D01*
X44544Y-37685D02*
X44544Y-37292D01*
X44769Y-37573D02*
X44956Y-37573D01*
X44731Y-37685D02*
X44862Y-37292D01*
X44994Y-37685D01*
X45331Y-37311D02*
X45294Y-37292D01*
X45237Y-37292D01*
X45181Y-37311D01*
X45144Y-37348D01*
X45125Y-37386D01*
X45106Y-37461D01*
X45106Y-37517D01*
X45125Y-37592D01*
X45144Y-37629D01*
X45181Y-37667D01*
X45237Y-37685D01*
X45275Y-37685D01*
X45331Y-37667D01*
X45350Y-37648D01*
X45350Y-37517D01*
X45275Y-37517D01*
X58106Y-48524D02*
X58368Y-48918D01*
X58368Y-48524D02*
X58106Y-48918D01*
X58706Y-48524D02*
X58518Y-48524D01*
X58500Y-48712D01*
X58518Y-48693D01*
X58556Y-48674D01*
X58650Y-48674D01*
X58687Y-48693D01*
X58706Y-48712D01*
X58725Y-48749D01*
X58725Y-48843D01*
X58706Y-48880D01*
X58687Y-48899D01*
X58650Y-48918D01*
X58556Y-48918D01*
X58518Y-48899D01*
X58500Y-48880D01*
X62506Y-48953D02*
X62371Y-48953D01*
X62438Y-48953D02*
X62438Y-48638D01*
X62416Y-48683D01*
X62393Y-48713D01*
X62371Y-48728D01*
X62652Y-48638D02*
X62674Y-48638D01*
X62697Y-48653D01*
X62708Y-48668D01*
X62719Y-48698D01*
X62731Y-48758D01*
X62731Y-48833D01*
X62719Y-48893D01*
X62708Y-48923D01*
X62697Y-48938D01*
X62674Y-48953D01*
X62652Y-48953D01*
X62629Y-48938D01*
X62618Y-48923D01*
X62607Y-48893D01*
X62596Y-48833D01*
X62596Y-48758D01*
X62607Y-48698D01*
X62618Y-48668D01*
X62629Y-48653D01*
X62652Y-48638D01*
X59004Y-48961D02*
X58869Y-48961D01*
X58937Y-48961D02*
X58937Y-48646D01*
X58914Y-48691D01*
X58892Y-48721D01*
X58869Y-48736D01*
X49681Y-48524D02*
X49943Y-48918D01*
X49943Y-48524D02*
X49681Y-48918D01*
X50262Y-48655D02*
X50262Y-48918D01*
X50168Y-48505D02*
X50074Y-48787D01*
X50318Y-48787D01*
X54206Y-48937D02*
X54071Y-48937D01*
X54139Y-48937D02*
X54139Y-48622D01*
X54116Y-48667D01*
X54094Y-48697D01*
X54071Y-48712D01*
X54353Y-48622D02*
X54375Y-48622D01*
X54398Y-48637D01*
X54409Y-48652D01*
X54420Y-48682D01*
X54431Y-48742D01*
X54431Y-48817D01*
X54420Y-48877D01*
X54409Y-48907D01*
X54398Y-48922D01*
X54375Y-48937D01*
X54353Y-48937D01*
X54330Y-48922D01*
X54319Y-48907D01*
X54308Y-48877D01*
X54296Y-48817D01*
X54296Y-48742D01*
X54308Y-48682D01*
X54319Y-48652D01*
X54330Y-48637D01*
X54353Y-48622D01*
X50677Y-48953D02*
X50542Y-48953D01*
X50610Y-48953D02*
X50610Y-48638D01*
X50587Y-48683D01*
X50565Y-48713D01*
X50542Y-48728D01*
X44105Y-47685D02*
X44330Y-47685D01*
X44218Y-48079D02*
X44218Y-47685D01*
X44686Y-48042D02*
X44667Y-48060D01*
X44611Y-48079D01*
X44574Y-48079D01*
X44517Y-48060D01*
X44480Y-48023D01*
X44461Y-47985D01*
X44443Y-47910D01*
X44443Y-47854D01*
X44461Y-47779D01*
X44480Y-47742D01*
X44517Y-47704D01*
X44574Y-47685D01*
X44611Y-47685D01*
X44667Y-47704D01*
X44686Y-47723D01*
X44817Y-47685D02*
X45080Y-48079D01*
X45080Y-47685D02*
X44817Y-48079D01*
X45305Y-47685D02*
X45380Y-47685D01*
X45417Y-47704D01*
X45455Y-47742D01*
X45474Y-47817D01*
X45474Y-47948D01*
X45455Y-48023D01*
X45417Y-48060D01*
X45380Y-48079D01*
X45305Y-48079D01*
X45267Y-48060D01*
X45230Y-48023D01*
X45211Y-47948D01*
X45211Y-47817D01*
X45230Y-47742D01*
X45267Y-47704D01*
X45305Y-47685D01*
X45849Y-48079D02*
X45624Y-48079D01*
X45736Y-48079D02*
X45736Y-47685D01*
X45699Y-47742D01*
X45661Y-47779D01*
X45624Y-47798D01*
X46299Y-47667D02*
X45961Y-48173D01*
X46411Y-47723D02*
X46430Y-47704D01*
X46467Y-47685D01*
X46561Y-47685D01*
X46598Y-47704D01*
X46617Y-47723D01*
X46636Y-47760D01*
X46636Y-47798D01*
X46617Y-47854D01*
X46392Y-48079D01*
X46636Y-48079D01*
X47153Y-48012D02*
X47153Y-48106D01*
X47059Y-48068D02*
X47153Y-48106D01*
X47247Y-48068D01*
X47097Y-48181D02*
X47153Y-48106D01*
X47209Y-48181D01*
X47241Y-29803D02*
X47163Y-29691D01*
X47106Y-29803D02*
X47106Y-29567D01*
X47196Y-29567D01*
X47219Y-29578D01*
X47230Y-29589D01*
X47241Y-29612D01*
X47241Y-29646D01*
X47230Y-29668D01*
X47219Y-29679D01*
X47196Y-29691D01*
X47106Y-29691D01*
X47320Y-29567D02*
X47478Y-29567D01*
X47376Y-29803D01*
X47669Y-29567D02*
X47624Y-29567D01*
X47601Y-29578D01*
X47590Y-29589D01*
X47568Y-29623D01*
X47556Y-29668D01*
X47556Y-29758D01*
X47568Y-29781D01*
X47579Y-29792D01*
X47601Y-29803D01*
X47646Y-29803D01*
X47669Y-29792D01*
X47680Y-29781D01*
X47691Y-29758D01*
X47691Y-29702D01*
X47680Y-29679D01*
X47669Y-29668D01*
X47646Y-29657D01*
X47601Y-29657D01*
X47579Y-29668D01*
X47568Y-29679D01*
X47556Y-29702D01*
X63118Y-35801D02*
X63006Y-35880D01*
X63118Y-35936D02*
X62882Y-35936D01*
X62882Y-35846D01*
X62893Y-35823D01*
X62904Y-35812D01*
X62927Y-35801D01*
X62961Y-35801D01*
X62983Y-35812D01*
X62994Y-35823D01*
X63006Y-35846D01*
X63006Y-35936D01*
X62882Y-35598D02*
X62882Y-35643D01*
X62893Y-35666D01*
X62904Y-35677D01*
X62938Y-35700D01*
X62983Y-35711D01*
X63073Y-35711D01*
X63096Y-35700D01*
X63107Y-35688D01*
X63118Y-35666D01*
X63118Y-35621D01*
X63107Y-35598D01*
X63096Y-35587D01*
X63073Y-35576D01*
X63017Y-35576D01*
X62994Y-35587D01*
X62983Y-35598D01*
X62972Y-35621D01*
X62972Y-35666D01*
X62983Y-35688D01*
X62994Y-35700D01*
X63017Y-35711D01*
X62961Y-35374D02*
X63118Y-35374D01*
X62871Y-35430D02*
X63039Y-35486D01*
X63039Y-35340D01*
X47237Y-29150D02*
X47159Y-29037D01*
X47102Y-29150D02*
X47102Y-28913D01*
X47192Y-28913D01*
X47215Y-28925D01*
X47226Y-28936D01*
X47237Y-28958D01*
X47237Y-28992D01*
X47226Y-29015D01*
X47215Y-29026D01*
X47192Y-29037D01*
X47102Y-29037D01*
X47316Y-28913D02*
X47474Y-28913D01*
X47372Y-29150D01*
X47541Y-28913D02*
X47699Y-28913D01*
X47597Y-29150D01*
X43623Y-30449D02*
X43544Y-30336D01*
X43488Y-30449D02*
X43488Y-30213D01*
X43578Y-30213D01*
X43601Y-30224D01*
X43612Y-30235D01*
X43623Y-30258D01*
X43623Y-30291D01*
X43612Y-30314D01*
X43601Y-30325D01*
X43578Y-30336D01*
X43488Y-30336D01*
X43702Y-30213D02*
X43859Y-30213D01*
X43758Y-30449D01*
X43983Y-30314D02*
X43961Y-30303D01*
X43949Y-30291D01*
X43938Y-30269D01*
X43938Y-30258D01*
X43949Y-30235D01*
X43961Y-30224D01*
X43983Y-30213D01*
X44028Y-30213D01*
X44051Y-30224D01*
X44062Y-30235D01*
X44073Y-30258D01*
X44073Y-30269D01*
X44062Y-30291D01*
X44051Y-30303D01*
X44028Y-30314D01*
X43983Y-30314D01*
X43961Y-30325D01*
X43949Y-30336D01*
X43938Y-30359D01*
X43938Y-30404D01*
X43949Y-30426D01*
X43961Y-30438D01*
X43983Y-30449D01*
X44028Y-30449D01*
X44051Y-30438D01*
X44062Y-30426D01*
X44073Y-30404D01*
X44073Y-30359D01*
X44062Y-30336D01*
X44051Y-30325D01*
X44028Y-30314D01*
X47450Y-44841D02*
X47372Y-44728D01*
X47315Y-44841D02*
X47315Y-44604D01*
X47405Y-44604D01*
X47428Y-44616D01*
X47439Y-44627D01*
X47450Y-44649D01*
X47450Y-44683D01*
X47439Y-44706D01*
X47428Y-44717D01*
X47405Y-44728D01*
X47315Y-44728D01*
X47653Y-44604D02*
X47608Y-44604D01*
X47585Y-44616D01*
X47574Y-44627D01*
X47552Y-44661D01*
X47540Y-44706D01*
X47540Y-44796D01*
X47552Y-44818D01*
X47563Y-44829D01*
X47585Y-44841D01*
X47630Y-44841D01*
X47653Y-44829D01*
X47664Y-44818D01*
X47675Y-44796D01*
X47675Y-44739D01*
X47664Y-44717D01*
X47653Y-44706D01*
X47630Y-44694D01*
X47585Y-44694D01*
X47563Y-44706D01*
X47552Y-44717D01*
X47540Y-44739D01*
X45331Y-46407D02*
X45218Y-46486D01*
X45331Y-46542D02*
X45095Y-46542D01*
X45095Y-46452D01*
X45106Y-46430D01*
X45117Y-46419D01*
X45140Y-46407D01*
X45173Y-46407D01*
X45196Y-46419D01*
X45207Y-46430D01*
X45218Y-46452D01*
X45218Y-46542D01*
X45331Y-46182D02*
X45331Y-46317D01*
X45331Y-46250D02*
X45095Y-46250D01*
X45128Y-46272D01*
X45151Y-46295D01*
X45162Y-46317D01*
X45095Y-46036D02*
X45095Y-46014D01*
X45106Y-45991D01*
X45117Y-45980D01*
X45140Y-45969D01*
X45185Y-45957D01*
X45241Y-45957D01*
X45286Y-45969D01*
X45308Y-45980D01*
X45320Y-45991D01*
X45331Y-46014D01*
X45331Y-46036D01*
X45320Y-46059D01*
X45308Y-46070D01*
X45286Y-46081D01*
X45241Y-46092D01*
X45185Y-46092D01*
X45140Y-46081D01*
X45117Y-46070D01*
X45106Y-46059D01*
X45095Y-46036D01*
X47460Y-45205D02*
X47381Y-45092D01*
X47325Y-45205D02*
X47325Y-44969D01*
X47415Y-44969D01*
X47438Y-44980D01*
X47449Y-44991D01*
X47460Y-45014D01*
X47460Y-45047D01*
X47449Y-45070D01*
X47438Y-45081D01*
X47415Y-45092D01*
X47325Y-45092D01*
X47539Y-44969D02*
X47696Y-44969D01*
X47595Y-45205D01*
X47114Y-41624D02*
X47002Y-41702D01*
X47114Y-41758D02*
X46878Y-41758D01*
X46878Y-41669D01*
X46889Y-41646D01*
X46901Y-41635D01*
X46923Y-41624D01*
X46957Y-41624D01*
X46979Y-41635D01*
X46991Y-41646D01*
X47002Y-41669D01*
X47002Y-41758D01*
X46979Y-41489D02*
X46968Y-41511D01*
X46957Y-41522D01*
X46934Y-41534D01*
X46923Y-41534D01*
X46901Y-41522D01*
X46889Y-41511D01*
X46878Y-41489D01*
X46878Y-41444D01*
X46889Y-41421D01*
X46901Y-41410D01*
X46923Y-41399D01*
X46934Y-41399D01*
X46957Y-41410D01*
X46968Y-41421D01*
X46979Y-41444D01*
X46979Y-41489D01*
X46991Y-41511D01*
X47002Y-41522D01*
X47024Y-41534D01*
X47069Y-41534D01*
X47092Y-41522D01*
X47103Y-41511D01*
X47114Y-41489D01*
X47114Y-41444D01*
X47103Y-41421D01*
X47092Y-41410D01*
X47069Y-41399D01*
X47024Y-41399D01*
X47002Y-41410D01*
X46991Y-41421D01*
X46979Y-41444D01*
X47237Y-30453D02*
X47159Y-30340D01*
X47102Y-30453D02*
X47102Y-30217D01*
X47192Y-30217D01*
X47215Y-30228D01*
X47226Y-30239D01*
X47237Y-30262D01*
X47237Y-30295D01*
X47226Y-30318D01*
X47215Y-30329D01*
X47192Y-30340D01*
X47102Y-30340D01*
X47316Y-30217D02*
X47474Y-30217D01*
X47372Y-30453D01*
X47676Y-30217D02*
X47564Y-30217D01*
X47552Y-30329D01*
X47564Y-30318D01*
X47586Y-30307D01*
X47642Y-30307D01*
X47665Y-30318D01*
X47676Y-30329D01*
X47687Y-30352D01*
X47687Y-30408D01*
X47676Y-30430D01*
X47665Y-30442D01*
X47642Y-30453D01*
X47586Y-30453D01*
X47564Y-30442D01*
X47552Y-30430D01*
X63108Y-34777D02*
X62996Y-34856D01*
X63108Y-34912D02*
X62872Y-34912D01*
X62872Y-34822D01*
X62883Y-34800D01*
X62895Y-34789D01*
X62917Y-34777D01*
X62951Y-34777D01*
X62973Y-34789D01*
X62985Y-34800D01*
X62996Y-34822D01*
X62996Y-34912D01*
X62872Y-34564D02*
X62872Y-34676D01*
X62985Y-34687D01*
X62973Y-34676D01*
X62962Y-34654D01*
X62962Y-34597D01*
X62973Y-34575D01*
X62985Y-34564D01*
X63007Y-34552D01*
X63063Y-34552D01*
X63086Y-34564D01*
X63097Y-34575D01*
X63108Y-34597D01*
X63108Y-34654D01*
X63097Y-34676D01*
X63086Y-34687D01*
X62895Y-34462D02*
X62883Y-34451D01*
X62872Y-34429D01*
X62872Y-34372D01*
X62883Y-34350D01*
X62895Y-34339D01*
X62917Y-34327D01*
X62940Y-34327D01*
X62973Y-34339D01*
X63108Y-34474D01*
X63108Y-34327D01*
X46386Y-41622D02*
X46273Y-41700D01*
X46386Y-41757D02*
X46150Y-41757D01*
X46150Y-41667D01*
X46161Y-41644D01*
X46172Y-41633D01*
X46195Y-41622D01*
X46228Y-41622D01*
X46251Y-41633D01*
X46262Y-41644D01*
X46273Y-41667D01*
X46273Y-41757D01*
X46386Y-41509D02*
X46386Y-41464D01*
X46375Y-41442D01*
X46363Y-41430D01*
X46330Y-41408D01*
X46285Y-41397D01*
X46195Y-41397D01*
X46172Y-41408D01*
X46161Y-41419D01*
X46150Y-41442D01*
X46150Y-41487D01*
X46161Y-41509D01*
X46172Y-41520D01*
X46195Y-41532D01*
X46251Y-41532D01*
X46273Y-41520D01*
X46285Y-41509D01*
X46296Y-41487D01*
X46296Y-41442D01*
X46285Y-41419D01*
X46273Y-41408D01*
X46251Y-41397D01*
X61009Y-36091D02*
X60930Y-35978D01*
X60874Y-36091D02*
X60874Y-35854D01*
X60964Y-35854D01*
X60987Y-35866D01*
X60998Y-35877D01*
X61009Y-35899D01*
X61009Y-35933D01*
X60998Y-35956D01*
X60987Y-35967D01*
X60964Y-35978D01*
X60874Y-35978D01*
X61088Y-35854D02*
X61245Y-35854D01*
X61144Y-36091D01*
X61459Y-36091D02*
X61324Y-36091D01*
X61392Y-36091D02*
X61392Y-35854D01*
X61369Y-35888D01*
X61347Y-35911D01*
X61324Y-35922D01*
X61009Y-36917D02*
X60930Y-36805D01*
X60874Y-36917D02*
X60874Y-36681D01*
X60964Y-36681D01*
X60987Y-36692D01*
X60998Y-36704D01*
X61009Y-36726D01*
X61009Y-36760D01*
X60998Y-36782D01*
X60987Y-36794D01*
X60964Y-36805D01*
X60874Y-36805D01*
X61088Y-36681D02*
X61245Y-36681D01*
X61144Y-36917D01*
X61380Y-36681D02*
X61403Y-36681D01*
X61425Y-36692D01*
X61437Y-36704D01*
X61448Y-36726D01*
X61459Y-36771D01*
X61459Y-36827D01*
X61448Y-36872D01*
X61437Y-36895D01*
X61425Y-36906D01*
X61403Y-36917D01*
X61380Y-36917D01*
X61358Y-36906D01*
X61347Y-36895D01*
X61335Y-36872D01*
X61324Y-36827D01*
X61324Y-36771D01*
X61335Y-36726D01*
X61347Y-36704D01*
X61358Y-36692D01*
X61380Y-36681D01*
X61029Y-36524D02*
X60950Y-36411D01*
X60894Y-36524D02*
X60894Y-36287D01*
X60984Y-36287D01*
X61006Y-36299D01*
X61017Y-36310D01*
X61029Y-36332D01*
X61029Y-36366D01*
X61017Y-36389D01*
X61006Y-36400D01*
X60984Y-36411D01*
X60894Y-36411D01*
X61107Y-36287D02*
X61265Y-36287D01*
X61164Y-36524D01*
X61332Y-36287D02*
X61479Y-36287D01*
X61400Y-36377D01*
X61434Y-36377D01*
X61456Y-36389D01*
X61467Y-36400D01*
X61479Y-36422D01*
X61479Y-36479D01*
X61467Y-36501D01*
X61456Y-36512D01*
X61434Y-36524D01*
X61366Y-36524D01*
X61344Y-36512D01*
X61332Y-36501D01*
X61009Y-35264D02*
X60930Y-35151D01*
X60874Y-35264D02*
X60874Y-35028D01*
X60964Y-35028D01*
X60987Y-35039D01*
X60998Y-35050D01*
X61009Y-35073D01*
X61009Y-35106D01*
X60998Y-35129D01*
X60987Y-35140D01*
X60964Y-35151D01*
X60874Y-35151D01*
X61088Y-35028D02*
X61245Y-35028D01*
X61144Y-35264D01*
X61437Y-35106D02*
X61437Y-35264D01*
X61380Y-35016D02*
X61324Y-35185D01*
X61470Y-35185D01*
X45156Y-42893D02*
X45043Y-42972D01*
X45156Y-43028D02*
X44919Y-43028D01*
X44919Y-42938D01*
X44931Y-42916D01*
X44942Y-42904D01*
X44964Y-42893D01*
X44998Y-42893D01*
X45021Y-42904D01*
X45032Y-42916D01*
X45043Y-42938D01*
X45043Y-43028D01*
X44942Y-42803D02*
X44931Y-42792D01*
X44919Y-42769D01*
X44919Y-42713D01*
X44931Y-42691D01*
X44942Y-42679D01*
X44964Y-42668D01*
X44987Y-42668D01*
X45021Y-42679D01*
X45156Y-42814D01*
X45156Y-42668D01*
X46328Y-45976D02*
X46249Y-45864D01*
X46193Y-45976D02*
X46193Y-45740D01*
X46283Y-45740D01*
X46305Y-45751D01*
X46317Y-45763D01*
X46328Y-45785D01*
X46328Y-45819D01*
X46317Y-45841D01*
X46305Y-45853D01*
X46283Y-45864D01*
X46193Y-45864D01*
X46440Y-45976D02*
X46485Y-45976D01*
X46508Y-45965D01*
X46519Y-45954D01*
X46542Y-45920D01*
X46553Y-45875D01*
X46553Y-45785D01*
X46542Y-45763D01*
X46530Y-45751D01*
X46508Y-45740D01*
X46463Y-45740D01*
X46440Y-45751D01*
X46429Y-45763D01*
X46418Y-45785D01*
X46418Y-45841D01*
X46429Y-45864D01*
X46440Y-45875D01*
X46463Y-45886D01*
X46508Y-45886D01*
X46530Y-45875D01*
X46542Y-45864D01*
X46553Y-45841D01*
X46632Y-45740D02*
X46778Y-45740D01*
X46699Y-45830D01*
X46733Y-45830D01*
X46755Y-45841D01*
X46767Y-45853D01*
X46778Y-45875D01*
X46778Y-45931D01*
X46767Y-45954D01*
X46755Y-45965D01*
X46733Y-45976D01*
X46665Y-45976D01*
X46643Y-45965D01*
X46632Y-45954D01*
X53745Y-41268D02*
X53667Y-41155D01*
X53610Y-41268D02*
X53610Y-41032D01*
X53700Y-41032D01*
X53723Y-41043D01*
X53734Y-41054D01*
X53745Y-41077D01*
X53745Y-41110D01*
X53734Y-41133D01*
X53723Y-41144D01*
X53700Y-41155D01*
X53610Y-41155D01*
X53835Y-41054D02*
X53847Y-41043D01*
X53869Y-41032D01*
X53925Y-41032D01*
X53948Y-41043D01*
X53959Y-41054D01*
X53970Y-41077D01*
X53970Y-41099D01*
X53959Y-41133D01*
X53824Y-41268D01*
X53970Y-41268D01*
X54049Y-41032D02*
X54195Y-41032D01*
X54116Y-41122D01*
X54150Y-41122D01*
X54173Y-41133D01*
X54184Y-41144D01*
X54195Y-41167D01*
X54195Y-41223D01*
X54184Y-41245D01*
X54173Y-41257D01*
X54150Y-41268D01*
X54083Y-41268D01*
X54060Y-41257D01*
X54049Y-41245D01*
X47905Y-46768D02*
X47826Y-46655D01*
X47770Y-46768D02*
X47770Y-46532D01*
X47860Y-46532D01*
X47883Y-46543D01*
X47894Y-46554D01*
X47905Y-46577D01*
X47905Y-46610D01*
X47894Y-46633D01*
X47883Y-46644D01*
X47860Y-46655D01*
X47770Y-46655D01*
X48119Y-46532D02*
X48006Y-46532D01*
X47995Y-46644D01*
X48006Y-46633D01*
X48029Y-46622D01*
X48085Y-46622D01*
X48107Y-46633D01*
X48119Y-46644D01*
X48130Y-46667D01*
X48130Y-46723D01*
X48119Y-46745D01*
X48107Y-46757D01*
X48085Y-46768D01*
X48029Y-46768D01*
X48006Y-46757D01*
X47995Y-46745D01*
X46760Y-43543D02*
X46647Y-43622D01*
X46760Y-43678D02*
X46524Y-43678D01*
X46524Y-43588D01*
X46535Y-43565D01*
X46546Y-43554D01*
X46569Y-43543D01*
X46602Y-43543D01*
X46625Y-43554D01*
X46636Y-43565D01*
X46647Y-43588D01*
X46647Y-43678D01*
X46760Y-43318D02*
X46760Y-43453D01*
X46760Y-43385D02*
X46524Y-43385D01*
X46557Y-43408D01*
X46580Y-43430D01*
X46591Y-43453D01*
X57311Y-39108D02*
X57199Y-39187D01*
X57311Y-39243D02*
X57075Y-39243D01*
X57075Y-39153D01*
X57086Y-39131D01*
X57097Y-39119D01*
X57120Y-39108D01*
X57154Y-39108D01*
X57176Y-39119D01*
X57187Y-39131D01*
X57199Y-39153D01*
X57199Y-39243D01*
X57311Y-38883D02*
X57311Y-39018D01*
X57311Y-38951D02*
X57075Y-38951D01*
X57109Y-38973D01*
X57131Y-38996D01*
X57142Y-39018D01*
X57097Y-38793D02*
X57086Y-38782D01*
X57075Y-38759D01*
X57075Y-38703D01*
X57086Y-38681D01*
X57097Y-38669D01*
X57120Y-38658D01*
X57142Y-38658D01*
X57176Y-38669D01*
X57311Y-38804D01*
X57311Y-38658D01*
X53804Y-32744D02*
X53726Y-32632D01*
X53669Y-32744D02*
X53669Y-32508D01*
X53759Y-32508D01*
X53782Y-32519D01*
X53793Y-32530D01*
X53804Y-32553D01*
X53804Y-32587D01*
X53793Y-32609D01*
X53782Y-32620D01*
X53759Y-32632D01*
X53669Y-32632D01*
X54007Y-32587D02*
X54007Y-32744D01*
X53951Y-32497D02*
X53894Y-32665D01*
X54041Y-32665D01*
X54254Y-32744D02*
X54119Y-32744D01*
X54187Y-32744D02*
X54187Y-32508D01*
X54164Y-32542D01*
X54142Y-32564D01*
X54119Y-32575D01*
X56563Y-31273D02*
X56451Y-31352D01*
X56563Y-31408D02*
X56327Y-31408D01*
X56327Y-31318D01*
X56338Y-31296D01*
X56349Y-31285D01*
X56372Y-31273D01*
X56406Y-31273D01*
X56428Y-31285D01*
X56439Y-31296D01*
X56451Y-31318D01*
X56451Y-31408D01*
X56406Y-31071D02*
X56563Y-31071D01*
X56316Y-31127D02*
X56484Y-31183D01*
X56484Y-31037D01*
X56349Y-30958D02*
X56338Y-30947D01*
X56327Y-30925D01*
X56327Y-30868D01*
X56338Y-30846D01*
X56349Y-30835D01*
X56372Y-30823D01*
X56394Y-30823D01*
X56428Y-30835D01*
X56563Y-30970D01*
X56563Y-30823D01*
X53785Y-32390D02*
X53706Y-32277D01*
X53650Y-32390D02*
X53650Y-32154D01*
X53740Y-32154D01*
X53762Y-32165D01*
X53773Y-32176D01*
X53785Y-32199D01*
X53785Y-32232D01*
X53773Y-32255D01*
X53762Y-32266D01*
X53740Y-32277D01*
X53650Y-32277D01*
X53987Y-32232D02*
X53987Y-32390D01*
X53931Y-32142D02*
X53875Y-32311D01*
X54021Y-32311D01*
X54088Y-32154D02*
X54235Y-32154D01*
X54156Y-32244D01*
X54190Y-32244D01*
X54212Y-32255D01*
X54223Y-32266D01*
X54235Y-32289D01*
X54235Y-32345D01*
X54223Y-32367D01*
X54212Y-32379D01*
X54190Y-32390D01*
X54122Y-32390D01*
X54100Y-32379D01*
X54088Y-32367D01*
X56268Y-31273D02*
X56155Y-31352D01*
X56268Y-31408D02*
X56032Y-31408D01*
X56032Y-31318D01*
X56043Y-31296D01*
X56054Y-31285D01*
X56077Y-31273D01*
X56110Y-31273D01*
X56133Y-31285D01*
X56144Y-31296D01*
X56155Y-31318D01*
X56155Y-31408D01*
X56110Y-31071D02*
X56268Y-31071D01*
X56020Y-31127D02*
X56189Y-31183D01*
X56189Y-31037D01*
X56110Y-30846D02*
X56268Y-30846D01*
X56020Y-30902D02*
X56189Y-30958D01*
X56189Y-30812D01*
X55953Y-31273D02*
X55840Y-31352D01*
X55953Y-31408D02*
X55717Y-31408D01*
X55717Y-31318D01*
X55728Y-31296D01*
X55739Y-31285D01*
X55762Y-31273D01*
X55795Y-31273D01*
X55818Y-31285D01*
X55829Y-31296D01*
X55840Y-31318D01*
X55840Y-31408D01*
X55795Y-31071D02*
X55953Y-31071D01*
X55705Y-31127D02*
X55874Y-31183D01*
X55874Y-31037D01*
X55717Y-30835D02*
X55717Y-30947D01*
X55829Y-30958D01*
X55818Y-30947D01*
X55807Y-30925D01*
X55807Y-30868D01*
X55818Y-30846D01*
X55829Y-30835D01*
X55852Y-30823D01*
X55908Y-30823D01*
X55930Y-30835D01*
X55942Y-30846D01*
X55953Y-30868D01*
X55953Y-30925D01*
X55942Y-30947D01*
X55930Y-30958D01*
X56898Y-31273D02*
X56785Y-31352D01*
X56898Y-31408D02*
X56661Y-31408D01*
X56661Y-31318D01*
X56673Y-31296D01*
X56684Y-31285D01*
X56706Y-31273D01*
X56740Y-31273D01*
X56763Y-31285D01*
X56774Y-31296D01*
X56785Y-31318D01*
X56785Y-31408D01*
X56740Y-31071D02*
X56898Y-31071D01*
X56650Y-31127D02*
X56819Y-31183D01*
X56819Y-31037D01*
X56661Y-30846D02*
X56661Y-30891D01*
X56673Y-30913D01*
X56684Y-30925D01*
X56718Y-30947D01*
X56763Y-30958D01*
X56853Y-30958D01*
X56875Y-30947D01*
X56886Y-30936D01*
X56898Y-30913D01*
X56898Y-30868D01*
X56886Y-30846D01*
X56875Y-30835D01*
X56853Y-30823D01*
X56796Y-30823D01*
X56774Y-30835D01*
X56763Y-30846D01*
X56751Y-30868D01*
X56751Y-30913D01*
X56763Y-30936D01*
X56774Y-30947D01*
X56796Y-30958D01*
X57528Y-31273D02*
X57415Y-31352D01*
X57528Y-31408D02*
X57291Y-31408D01*
X57291Y-31318D01*
X57303Y-31296D01*
X57314Y-31285D01*
X57336Y-31273D01*
X57370Y-31273D01*
X57393Y-31285D01*
X57404Y-31296D01*
X57415Y-31318D01*
X57415Y-31408D01*
X57370Y-31071D02*
X57528Y-31071D01*
X57280Y-31127D02*
X57449Y-31183D01*
X57449Y-31037D01*
X57291Y-30970D02*
X57291Y-30812D01*
X57528Y-30913D01*
X59024Y-31273D02*
X58911Y-31352D01*
X59024Y-31408D02*
X58787Y-31408D01*
X58787Y-31318D01*
X58799Y-31296D01*
X58810Y-31285D01*
X58832Y-31273D01*
X58866Y-31273D01*
X58889Y-31285D01*
X58900Y-31296D01*
X58911Y-31318D01*
X58911Y-31408D01*
X58866Y-31071D02*
X59024Y-31071D01*
X58776Y-31127D02*
X58945Y-31183D01*
X58945Y-31037D01*
X58889Y-30913D02*
X58877Y-30936D01*
X58866Y-30947D01*
X58844Y-30958D01*
X58832Y-30958D01*
X58810Y-30947D01*
X58799Y-30936D01*
X58787Y-30913D01*
X58787Y-30868D01*
X58799Y-30846D01*
X58810Y-30835D01*
X58832Y-30823D01*
X58844Y-30823D01*
X58866Y-30835D01*
X58877Y-30846D01*
X58889Y-30868D01*
X58889Y-30913D01*
X58900Y-30936D01*
X58911Y-30947D01*
X58934Y-30958D01*
X58979Y-30958D01*
X59001Y-30947D01*
X59012Y-30936D01*
X59024Y-30913D01*
X59024Y-30868D01*
X59012Y-30846D01*
X59001Y-30835D01*
X58979Y-30823D01*
X58934Y-30823D01*
X58911Y-30835D01*
X58900Y-30846D01*
X58889Y-30868D01*
X53785Y-33059D02*
X53706Y-32947D01*
X53650Y-33059D02*
X53650Y-32823D01*
X53740Y-32823D01*
X53762Y-32834D01*
X53773Y-32845D01*
X53785Y-32868D01*
X53785Y-32902D01*
X53773Y-32924D01*
X53762Y-32935D01*
X53740Y-32947D01*
X53650Y-32947D01*
X53987Y-32902D02*
X53987Y-33059D01*
X53931Y-32812D02*
X53875Y-32980D01*
X54021Y-32980D01*
X54156Y-32823D02*
X54178Y-32823D01*
X54201Y-32834D01*
X54212Y-32845D01*
X54223Y-32868D01*
X54235Y-32913D01*
X54235Y-32969D01*
X54223Y-33014D01*
X54212Y-33037D01*
X54201Y-33048D01*
X54178Y-33059D01*
X54156Y-33059D01*
X54133Y-33048D01*
X54122Y-33037D01*
X54111Y-33014D01*
X54100Y-32969D01*
X54100Y-32913D01*
X54111Y-32868D01*
X54122Y-32845D01*
X54133Y-32834D01*
X54156Y-32823D01*
X57843Y-31273D02*
X57730Y-31352D01*
X57843Y-31408D02*
X57606Y-31408D01*
X57606Y-31318D01*
X57618Y-31296D01*
X57629Y-31285D01*
X57651Y-31273D01*
X57685Y-31273D01*
X57708Y-31285D01*
X57719Y-31296D01*
X57730Y-31318D01*
X57730Y-31408D01*
X57843Y-31048D02*
X57843Y-31183D01*
X57843Y-31116D02*
X57606Y-31116D01*
X57640Y-31138D01*
X57663Y-31161D01*
X57674Y-31183D01*
X57606Y-30835D02*
X57606Y-30947D01*
X57719Y-30958D01*
X57708Y-30947D01*
X57696Y-30925D01*
X57696Y-30868D01*
X57708Y-30846D01*
X57719Y-30835D01*
X57741Y-30823D01*
X57798Y-30823D01*
X57820Y-30835D01*
X57831Y-30846D01*
X57843Y-30868D01*
X57843Y-30925D01*
X57831Y-30947D01*
X57820Y-30958D01*
X53726Y-43256D02*
X53647Y-43143D01*
X53591Y-43256D02*
X53591Y-43020D01*
X53681Y-43020D01*
X53703Y-43031D01*
X53714Y-43042D01*
X53726Y-43065D01*
X53726Y-43098D01*
X53714Y-43121D01*
X53703Y-43132D01*
X53681Y-43143D01*
X53591Y-43143D01*
X53816Y-43042D02*
X53827Y-43031D01*
X53849Y-43020D01*
X53906Y-43020D01*
X53928Y-43031D01*
X53939Y-43042D01*
X53951Y-43065D01*
X53951Y-43087D01*
X53939Y-43121D01*
X53804Y-43256D01*
X53951Y-43256D01*
X54041Y-43042D02*
X54052Y-43031D01*
X54074Y-43020D01*
X54131Y-43020D01*
X54153Y-43031D01*
X54164Y-43042D01*
X54176Y-43065D01*
X54176Y-43087D01*
X54164Y-43121D01*
X54029Y-43256D01*
X54176Y-43256D01*
X53765Y-41583D02*
X53686Y-41470D01*
X53630Y-41583D02*
X53630Y-41347D01*
X53720Y-41347D01*
X53742Y-41358D01*
X53754Y-41369D01*
X53765Y-41392D01*
X53765Y-41425D01*
X53754Y-41448D01*
X53742Y-41459D01*
X53720Y-41470D01*
X53630Y-41470D01*
X53855Y-41369D02*
X53866Y-41358D01*
X53889Y-41347D01*
X53945Y-41347D01*
X53967Y-41358D01*
X53979Y-41369D01*
X53990Y-41392D01*
X53990Y-41414D01*
X53979Y-41448D01*
X53844Y-41583D01*
X53990Y-41583D01*
X54215Y-41583D02*
X54080Y-41583D01*
X54147Y-41583D02*
X54147Y-41347D01*
X54125Y-41380D01*
X54102Y-41403D01*
X54080Y-41414D01*
X53745Y-41917D02*
X53667Y-41805D01*
X53610Y-41917D02*
X53610Y-41681D01*
X53700Y-41681D01*
X53723Y-41692D01*
X53734Y-41704D01*
X53745Y-41726D01*
X53745Y-41760D01*
X53734Y-41782D01*
X53723Y-41794D01*
X53700Y-41805D01*
X53610Y-41805D01*
X53835Y-41704D02*
X53847Y-41692D01*
X53869Y-41681D01*
X53925Y-41681D01*
X53948Y-41692D01*
X53959Y-41704D01*
X53970Y-41726D01*
X53970Y-41749D01*
X53959Y-41782D01*
X53824Y-41917D01*
X53970Y-41917D01*
X54116Y-41681D02*
X54139Y-41681D01*
X54161Y-41692D01*
X54173Y-41704D01*
X54184Y-41726D01*
X54195Y-41771D01*
X54195Y-41827D01*
X54184Y-41872D01*
X54173Y-41895D01*
X54161Y-41906D01*
X54139Y-41917D01*
X54116Y-41917D01*
X54094Y-41906D01*
X54083Y-41895D01*
X54071Y-41872D01*
X54060Y-41827D01*
X54060Y-41771D01*
X54071Y-41726D01*
X54083Y-41704D01*
X54094Y-41692D01*
X54116Y-41681D01*
X53726Y-43591D02*
X53647Y-43478D01*
X53591Y-43591D02*
X53591Y-43354D01*
X53681Y-43354D01*
X53703Y-43366D01*
X53714Y-43377D01*
X53726Y-43399D01*
X53726Y-43433D01*
X53714Y-43456D01*
X53703Y-43467D01*
X53681Y-43478D01*
X53591Y-43478D01*
X53951Y-43591D02*
X53816Y-43591D01*
X53883Y-43591D02*
X53883Y-43354D01*
X53861Y-43388D01*
X53838Y-43411D01*
X53816Y-43422D01*
X54063Y-43591D02*
X54108Y-43591D01*
X54131Y-43579D01*
X54142Y-43568D01*
X54164Y-43534D01*
X54176Y-43489D01*
X54176Y-43399D01*
X54164Y-43377D01*
X54153Y-43366D01*
X54131Y-43354D01*
X54086Y-43354D01*
X54063Y-43366D01*
X54052Y-43377D01*
X54041Y-43399D01*
X54041Y-43456D01*
X54052Y-43478D01*
X54063Y-43489D01*
X54086Y-43501D01*
X54131Y-43501D01*
X54153Y-43489D01*
X54164Y-43478D01*
X54176Y-43456D01*
X53726Y-42921D02*
X53647Y-42809D01*
X53591Y-42921D02*
X53591Y-42685D01*
X53681Y-42685D01*
X53703Y-42696D01*
X53714Y-42708D01*
X53726Y-42730D01*
X53726Y-42764D01*
X53714Y-42786D01*
X53703Y-42798D01*
X53681Y-42809D01*
X53591Y-42809D01*
X53951Y-42921D02*
X53816Y-42921D01*
X53883Y-42921D02*
X53883Y-42685D01*
X53861Y-42719D01*
X53838Y-42741D01*
X53816Y-42753D01*
X54086Y-42786D02*
X54063Y-42775D01*
X54052Y-42764D01*
X54041Y-42741D01*
X54041Y-42730D01*
X54052Y-42708D01*
X54063Y-42696D01*
X54086Y-42685D01*
X54131Y-42685D01*
X54153Y-42696D01*
X54164Y-42708D01*
X54176Y-42730D01*
X54176Y-42741D01*
X54164Y-42764D01*
X54153Y-42775D01*
X54131Y-42786D01*
X54086Y-42786D01*
X54063Y-42798D01*
X54052Y-42809D01*
X54041Y-42831D01*
X54041Y-42876D01*
X54052Y-42899D01*
X54063Y-42910D01*
X54086Y-42921D01*
X54131Y-42921D01*
X54153Y-42910D01*
X54164Y-42899D01*
X54176Y-42876D01*
X54176Y-42831D01*
X54164Y-42809D01*
X54153Y-42798D01*
X54131Y-42786D01*
X58217Y-39108D02*
X58104Y-39187D01*
X58217Y-39243D02*
X57980Y-39243D01*
X57980Y-39153D01*
X57992Y-39131D01*
X58003Y-39119D01*
X58025Y-39108D01*
X58059Y-39108D01*
X58082Y-39119D01*
X58093Y-39131D01*
X58104Y-39153D01*
X58104Y-39243D01*
X57980Y-39029D02*
X57980Y-38883D01*
X58070Y-38962D01*
X58070Y-38928D01*
X58082Y-38906D01*
X58093Y-38894D01*
X58115Y-38883D01*
X58172Y-38883D01*
X58194Y-38894D01*
X58205Y-38906D01*
X58217Y-38928D01*
X58217Y-38996D01*
X58205Y-39018D01*
X58194Y-39029D01*
X58003Y-38793D02*
X57992Y-38782D01*
X57980Y-38759D01*
X57980Y-38703D01*
X57992Y-38681D01*
X58003Y-38669D01*
X58025Y-38658D01*
X58048Y-38658D01*
X58082Y-38669D01*
X58217Y-38804D01*
X58217Y-38658D01*
X53765Y-40303D02*
X53686Y-40191D01*
X53630Y-40303D02*
X53630Y-40067D01*
X53720Y-40067D01*
X53742Y-40078D01*
X53754Y-40089D01*
X53765Y-40112D01*
X53765Y-40146D01*
X53754Y-40168D01*
X53742Y-40179D01*
X53720Y-40191D01*
X53630Y-40191D01*
X53855Y-40089D02*
X53866Y-40078D01*
X53889Y-40067D01*
X53945Y-40067D01*
X53967Y-40078D01*
X53979Y-40089D01*
X53990Y-40112D01*
X53990Y-40134D01*
X53979Y-40168D01*
X53844Y-40303D01*
X53990Y-40303D01*
X54192Y-40146D02*
X54192Y-40303D01*
X54136Y-40056D02*
X54080Y-40224D01*
X54226Y-40224D01*
X53745Y-40933D02*
X53667Y-40821D01*
X53610Y-40933D02*
X53610Y-40697D01*
X53700Y-40697D01*
X53723Y-40708D01*
X53734Y-40719D01*
X53745Y-40742D01*
X53745Y-40776D01*
X53734Y-40798D01*
X53723Y-40809D01*
X53700Y-40821D01*
X53610Y-40821D01*
X53835Y-40719D02*
X53847Y-40708D01*
X53869Y-40697D01*
X53925Y-40697D01*
X53948Y-40708D01*
X53959Y-40719D01*
X53970Y-40742D01*
X53970Y-40764D01*
X53959Y-40798D01*
X53824Y-40933D01*
X53970Y-40933D01*
X54184Y-40697D02*
X54071Y-40697D01*
X54060Y-40809D01*
X54071Y-40798D01*
X54094Y-40787D01*
X54150Y-40787D01*
X54173Y-40798D01*
X54184Y-40809D01*
X54195Y-40832D01*
X54195Y-40888D01*
X54184Y-40911D01*
X54173Y-40922D01*
X54150Y-40933D01*
X54094Y-40933D01*
X54071Y-40922D01*
X54060Y-40911D01*
X56642Y-39108D02*
X56529Y-39187D01*
X56642Y-39243D02*
X56406Y-39243D01*
X56406Y-39153D01*
X56417Y-39131D01*
X56428Y-39119D01*
X56451Y-39108D01*
X56484Y-39108D01*
X56507Y-39119D01*
X56518Y-39131D01*
X56529Y-39153D01*
X56529Y-39243D01*
X56428Y-39018D02*
X56417Y-39007D01*
X56406Y-38984D01*
X56406Y-38928D01*
X56417Y-38906D01*
X56428Y-38894D01*
X56451Y-38883D01*
X56473Y-38883D01*
X56507Y-38894D01*
X56642Y-39029D01*
X56642Y-38883D01*
X56406Y-38681D02*
X56406Y-38726D01*
X56417Y-38748D01*
X56428Y-38759D01*
X56462Y-38782D01*
X56507Y-38793D01*
X56597Y-38793D01*
X56619Y-38782D01*
X56631Y-38771D01*
X56642Y-38748D01*
X56642Y-38703D01*
X56631Y-38681D01*
X56619Y-38669D01*
X56597Y-38658D01*
X56541Y-38658D01*
X56518Y-38669D01*
X56507Y-38681D01*
X56496Y-38703D01*
X56496Y-38748D01*
X56507Y-38771D01*
X56518Y-38782D01*
X56541Y-38793D01*
X53745Y-40618D02*
X53667Y-40506D01*
X53610Y-40618D02*
X53610Y-40382D01*
X53700Y-40382D01*
X53723Y-40393D01*
X53734Y-40404D01*
X53745Y-40427D01*
X53745Y-40461D01*
X53734Y-40483D01*
X53723Y-40494D01*
X53700Y-40506D01*
X53610Y-40506D01*
X53835Y-40404D02*
X53847Y-40393D01*
X53869Y-40382D01*
X53925Y-40382D01*
X53948Y-40393D01*
X53959Y-40404D01*
X53970Y-40427D01*
X53970Y-40449D01*
X53959Y-40483D01*
X53824Y-40618D01*
X53970Y-40618D01*
X54049Y-40382D02*
X54206Y-40382D01*
X54105Y-40618D01*
X56327Y-39108D02*
X56214Y-39187D01*
X56327Y-39243D02*
X56091Y-39243D01*
X56091Y-39153D01*
X56102Y-39131D01*
X56113Y-39119D01*
X56136Y-39108D01*
X56169Y-39108D01*
X56192Y-39119D01*
X56203Y-39131D01*
X56214Y-39153D01*
X56214Y-39243D01*
X56113Y-39018D02*
X56102Y-39007D01*
X56091Y-38984D01*
X56091Y-38928D01*
X56102Y-38906D01*
X56113Y-38894D01*
X56136Y-38883D01*
X56158Y-38883D01*
X56192Y-38894D01*
X56327Y-39029D01*
X56327Y-38883D01*
X56192Y-38748D02*
X56181Y-38771D01*
X56169Y-38782D01*
X56147Y-38793D01*
X56136Y-38793D01*
X56113Y-38782D01*
X56102Y-38771D01*
X56091Y-38748D01*
X56091Y-38703D01*
X56102Y-38681D01*
X56113Y-38669D01*
X56136Y-38658D01*
X56147Y-38658D01*
X56169Y-38669D01*
X56181Y-38681D01*
X56192Y-38703D01*
X56192Y-38748D01*
X56203Y-38771D01*
X56214Y-38782D01*
X56237Y-38793D01*
X56282Y-38793D01*
X56304Y-38782D01*
X56316Y-38771D01*
X56327Y-38748D01*
X56327Y-38703D01*
X56316Y-38681D01*
X56304Y-38669D01*
X56282Y-38658D01*
X56237Y-38658D01*
X56214Y-38669D01*
X56203Y-38681D01*
X56192Y-38703D01*
X56012Y-39088D02*
X55899Y-39167D01*
X56012Y-39223D02*
X55776Y-39223D01*
X55776Y-39133D01*
X55787Y-39111D01*
X55798Y-39100D01*
X55821Y-39088D01*
X55854Y-39088D01*
X55877Y-39100D01*
X55888Y-39111D01*
X55899Y-39133D01*
X55899Y-39223D01*
X55798Y-38998D02*
X55787Y-38987D01*
X55776Y-38965D01*
X55776Y-38908D01*
X55787Y-38886D01*
X55798Y-38875D01*
X55821Y-38863D01*
X55843Y-38863D01*
X55877Y-38875D01*
X56012Y-39010D01*
X56012Y-38863D01*
X56012Y-38751D02*
X56012Y-38706D01*
X56001Y-38683D01*
X55989Y-38672D01*
X55956Y-38650D01*
X55911Y-38638D01*
X55821Y-38638D01*
X55798Y-38650D01*
X55787Y-38661D01*
X55776Y-38683D01*
X55776Y-38728D01*
X55787Y-38751D01*
X55798Y-38762D01*
X55821Y-38773D01*
X55877Y-38773D01*
X55899Y-38762D01*
X55911Y-38751D01*
X55922Y-38728D01*
X55922Y-38683D01*
X55911Y-38661D01*
X55899Y-38650D01*
X55877Y-38638D01*
X59095Y-39108D02*
X58982Y-39187D01*
X59095Y-39243D02*
X58858Y-39243D01*
X58858Y-39153D01*
X58870Y-39131D01*
X58881Y-39119D01*
X58903Y-39108D01*
X58937Y-39108D01*
X58960Y-39119D01*
X58971Y-39131D01*
X58982Y-39153D01*
X58982Y-39243D01*
X58858Y-39029D02*
X58858Y-38883D01*
X58948Y-38962D01*
X58948Y-38928D01*
X58960Y-38906D01*
X58971Y-38894D01*
X58993Y-38883D01*
X59050Y-38883D01*
X59072Y-38894D01*
X59083Y-38906D01*
X59095Y-38928D01*
X59095Y-38996D01*
X59083Y-39018D01*
X59072Y-39029D01*
X58858Y-38737D02*
X58858Y-38714D01*
X58870Y-38692D01*
X58881Y-38681D01*
X58903Y-38669D01*
X58948Y-38658D01*
X59005Y-38658D01*
X59050Y-38669D01*
X59072Y-38681D01*
X59083Y-38692D01*
X59095Y-38714D01*
X59095Y-38737D01*
X59083Y-38759D01*
X59072Y-38771D01*
X59050Y-38782D01*
X59005Y-38793D01*
X58948Y-38793D01*
X58903Y-38782D01*
X58881Y-38771D01*
X58870Y-38759D01*
X58858Y-38737D01*
X58532Y-39108D02*
X58419Y-39187D01*
X58532Y-39243D02*
X58295Y-39243D01*
X58295Y-39153D01*
X58307Y-39131D01*
X58318Y-39119D01*
X58340Y-39108D01*
X58374Y-39108D01*
X58397Y-39119D01*
X58408Y-39131D01*
X58419Y-39153D01*
X58419Y-39243D01*
X58295Y-39029D02*
X58295Y-38883D01*
X58385Y-38962D01*
X58385Y-38928D01*
X58397Y-38906D01*
X58408Y-38894D01*
X58430Y-38883D01*
X58487Y-38883D01*
X58509Y-38894D01*
X58520Y-38906D01*
X58532Y-38928D01*
X58532Y-38996D01*
X58520Y-39018D01*
X58509Y-39029D01*
X58532Y-38658D02*
X58532Y-38793D01*
X58532Y-38726D02*
X58295Y-38726D01*
X58329Y-38748D01*
X58352Y-38771D01*
X58363Y-38793D01*
X61009Y-35658D02*
X60930Y-35545D01*
X60874Y-35658D02*
X60874Y-35421D01*
X60964Y-35421D01*
X60987Y-35433D01*
X60998Y-35444D01*
X61009Y-35466D01*
X61009Y-35500D01*
X60998Y-35523D01*
X60987Y-35534D01*
X60964Y-35545D01*
X60874Y-35545D01*
X61088Y-35421D02*
X61245Y-35421D01*
X61144Y-35658D01*
X61324Y-35444D02*
X61335Y-35433D01*
X61358Y-35421D01*
X61414Y-35421D01*
X61437Y-35433D01*
X61448Y-35444D01*
X61459Y-35466D01*
X61459Y-35489D01*
X61448Y-35523D01*
X61313Y-35658D01*
X61459Y-35658D01*
X53765Y-34358D02*
X53686Y-34246D01*
X53630Y-34358D02*
X53630Y-34122D01*
X53720Y-34122D01*
X53742Y-34133D01*
X53754Y-34145D01*
X53765Y-34167D01*
X53765Y-34201D01*
X53754Y-34223D01*
X53742Y-34235D01*
X53720Y-34246D01*
X53630Y-34246D01*
X53844Y-34122D02*
X53990Y-34122D01*
X53911Y-34212D01*
X53945Y-34212D01*
X53967Y-34223D01*
X53979Y-34235D01*
X53990Y-34257D01*
X53990Y-34313D01*
X53979Y-34336D01*
X53967Y-34347D01*
X53945Y-34358D01*
X53877Y-34358D01*
X53855Y-34347D01*
X53844Y-34336D01*
X54069Y-34122D02*
X54215Y-34122D01*
X54136Y-34212D01*
X54170Y-34212D01*
X54192Y-34223D01*
X54204Y-34235D01*
X54215Y-34257D01*
X54215Y-34313D01*
X54204Y-34336D01*
X54192Y-34347D01*
X54170Y-34358D01*
X54102Y-34358D01*
X54080Y-34347D01*
X54069Y-34336D01*
X53785Y-34693D02*
X53706Y-34580D01*
X53650Y-34693D02*
X53650Y-34457D01*
X53740Y-34457D01*
X53762Y-34468D01*
X53773Y-34479D01*
X53785Y-34502D01*
X53785Y-34535D01*
X53773Y-34558D01*
X53762Y-34569D01*
X53740Y-34580D01*
X53650Y-34580D01*
X53863Y-34457D02*
X54010Y-34457D01*
X53931Y-34547D01*
X53965Y-34547D01*
X53987Y-34558D01*
X53998Y-34569D01*
X54010Y-34592D01*
X54010Y-34648D01*
X53998Y-34670D01*
X53987Y-34682D01*
X53965Y-34693D01*
X53897Y-34693D01*
X53875Y-34682D01*
X53863Y-34670D01*
X54212Y-34535D02*
X54212Y-34693D01*
X54156Y-34446D02*
X54100Y-34614D01*
X54246Y-34614D01*
X53785Y-35382D02*
X53706Y-35269D01*
X53650Y-35382D02*
X53650Y-35146D01*
X53740Y-35146D01*
X53762Y-35157D01*
X53773Y-35168D01*
X53785Y-35191D01*
X53785Y-35224D01*
X53773Y-35247D01*
X53762Y-35258D01*
X53740Y-35269D01*
X53650Y-35269D01*
X53863Y-35146D02*
X54010Y-35146D01*
X53931Y-35236D01*
X53965Y-35236D01*
X53987Y-35247D01*
X53998Y-35258D01*
X54010Y-35281D01*
X54010Y-35337D01*
X53998Y-35359D01*
X53987Y-35371D01*
X53965Y-35382D01*
X53897Y-35382D01*
X53875Y-35371D01*
X53863Y-35359D01*
X54223Y-35146D02*
X54111Y-35146D01*
X54100Y-35258D01*
X54111Y-35247D01*
X54133Y-35236D01*
X54190Y-35236D01*
X54212Y-35247D01*
X54223Y-35258D01*
X54235Y-35281D01*
X54235Y-35337D01*
X54223Y-35359D01*
X54212Y-35371D01*
X54190Y-35382D01*
X54133Y-35382D01*
X54111Y-35371D01*
X54100Y-35359D01*
X53765Y-34043D02*
X53686Y-33931D01*
X53630Y-34043D02*
X53630Y-33807D01*
X53720Y-33807D01*
X53742Y-33818D01*
X53754Y-33830D01*
X53765Y-33852D01*
X53765Y-33886D01*
X53754Y-33908D01*
X53742Y-33920D01*
X53720Y-33931D01*
X53630Y-33931D01*
X53844Y-33807D02*
X53990Y-33807D01*
X53911Y-33897D01*
X53945Y-33897D01*
X53967Y-33908D01*
X53979Y-33920D01*
X53990Y-33942D01*
X53990Y-33998D01*
X53979Y-34021D01*
X53967Y-34032D01*
X53945Y-34043D01*
X53877Y-34043D01*
X53855Y-34032D01*
X53844Y-34021D01*
X54192Y-33807D02*
X54147Y-33807D01*
X54125Y-33818D01*
X54114Y-33830D01*
X54091Y-33863D01*
X54080Y-33908D01*
X54080Y-33998D01*
X54091Y-34021D01*
X54102Y-34032D01*
X54125Y-34043D01*
X54170Y-34043D01*
X54192Y-34032D01*
X54204Y-34021D01*
X54215Y-33998D01*
X54215Y-33942D01*
X54204Y-33920D01*
X54192Y-33908D01*
X54170Y-33897D01*
X54125Y-33897D01*
X54102Y-33908D01*
X54091Y-33920D01*
X54080Y-33942D01*
X53785Y-33728D02*
X53706Y-33616D01*
X53650Y-33728D02*
X53650Y-33492D01*
X53740Y-33492D01*
X53762Y-33503D01*
X53773Y-33515D01*
X53785Y-33537D01*
X53785Y-33571D01*
X53773Y-33593D01*
X53762Y-33605D01*
X53740Y-33616D01*
X53650Y-33616D01*
X53863Y-33492D02*
X54010Y-33492D01*
X53931Y-33582D01*
X53965Y-33582D01*
X53987Y-33593D01*
X53998Y-33605D01*
X54010Y-33627D01*
X54010Y-33683D01*
X53998Y-33706D01*
X53987Y-33717D01*
X53965Y-33728D01*
X53897Y-33728D01*
X53875Y-33717D01*
X53863Y-33706D01*
X54088Y-33492D02*
X54246Y-33492D01*
X54145Y-33728D01*
X53785Y-35028D02*
X53706Y-34915D01*
X53650Y-35028D02*
X53650Y-34791D01*
X53740Y-34791D01*
X53762Y-34803D01*
X53773Y-34814D01*
X53785Y-34836D01*
X53785Y-34870D01*
X53773Y-34893D01*
X53762Y-34904D01*
X53740Y-34915D01*
X53650Y-34915D01*
X53863Y-34791D02*
X54010Y-34791D01*
X53931Y-34881D01*
X53965Y-34881D01*
X53987Y-34893D01*
X53998Y-34904D01*
X54010Y-34926D01*
X54010Y-34983D01*
X53998Y-35005D01*
X53987Y-35016D01*
X53965Y-35028D01*
X53897Y-35028D01*
X53875Y-35016D01*
X53863Y-35005D01*
X54145Y-34893D02*
X54122Y-34881D01*
X54111Y-34870D01*
X54100Y-34848D01*
X54100Y-34836D01*
X54111Y-34814D01*
X54122Y-34803D01*
X54145Y-34791D01*
X54190Y-34791D01*
X54212Y-34803D01*
X54223Y-34814D01*
X54235Y-34836D01*
X54235Y-34848D01*
X54223Y-34870D01*
X54212Y-34881D01*
X54190Y-34893D01*
X54145Y-34893D01*
X54122Y-34904D01*
X54111Y-34915D01*
X54100Y-34938D01*
X54100Y-34983D01*
X54111Y-35005D01*
X54122Y-35016D01*
X54145Y-35028D01*
X54190Y-35028D01*
X54212Y-35016D01*
X54223Y-35005D01*
X54235Y-34983D01*
X54235Y-34938D01*
X54223Y-34915D01*
X54212Y-34904D01*
X54190Y-34893D01*
X53785Y-33394D02*
X53706Y-33281D01*
X53650Y-33394D02*
X53650Y-33158D01*
X53740Y-33158D01*
X53762Y-33169D01*
X53773Y-33180D01*
X53785Y-33203D01*
X53785Y-33236D01*
X53773Y-33259D01*
X53762Y-33270D01*
X53740Y-33281D01*
X53650Y-33281D01*
X53863Y-33158D02*
X54010Y-33158D01*
X53931Y-33248D01*
X53965Y-33248D01*
X53987Y-33259D01*
X53998Y-33270D01*
X54010Y-33293D01*
X54010Y-33349D01*
X53998Y-33371D01*
X53987Y-33383D01*
X53965Y-33394D01*
X53897Y-33394D01*
X53875Y-33383D01*
X53863Y-33371D01*
X54122Y-33394D02*
X54167Y-33394D01*
X54190Y-33383D01*
X54201Y-33371D01*
X54223Y-33338D01*
X54235Y-33293D01*
X54235Y-33203D01*
X54223Y-33180D01*
X54212Y-33169D01*
X54190Y-33158D01*
X54145Y-33158D01*
X54122Y-33169D01*
X54111Y-33180D01*
X54100Y-33203D01*
X54100Y-33259D01*
X54111Y-33281D01*
X54122Y-33293D01*
X54145Y-33304D01*
X54190Y-33304D01*
X54212Y-33293D01*
X54223Y-33281D01*
X54235Y-33259D01*
X63039Y-43640D02*
X62927Y-43718D01*
X63039Y-43775D02*
X62803Y-43775D01*
X62803Y-43685D01*
X62814Y-43662D01*
X62826Y-43651D01*
X62848Y-43640D01*
X62882Y-43640D01*
X62904Y-43651D01*
X62916Y-43662D01*
X62927Y-43685D01*
X62927Y-43775D01*
X62803Y-43437D02*
X62803Y-43482D01*
X62814Y-43505D01*
X62826Y-43516D01*
X62859Y-43538D01*
X62904Y-43550D01*
X62994Y-43550D01*
X63017Y-43538D01*
X63028Y-43527D01*
X63039Y-43505D01*
X63039Y-43460D01*
X63028Y-43437D01*
X63017Y-43426D01*
X62994Y-43415D01*
X62938Y-43415D01*
X62916Y-43426D01*
X62904Y-43437D01*
X62893Y-43460D01*
X62893Y-43505D01*
X62904Y-43527D01*
X62916Y-43538D01*
X62938Y-43550D01*
X62803Y-43336D02*
X62803Y-43178D01*
X63039Y-43280D01*
X56976Y-39108D02*
X56864Y-39187D01*
X56976Y-39243D02*
X56740Y-39243D01*
X56740Y-39153D01*
X56751Y-39131D01*
X56763Y-39119D01*
X56785Y-39108D01*
X56819Y-39108D01*
X56841Y-39119D01*
X56853Y-39131D01*
X56864Y-39153D01*
X56864Y-39243D01*
X56976Y-38883D02*
X56976Y-39018D01*
X56976Y-38951D02*
X56740Y-38951D01*
X56774Y-38973D01*
X56796Y-38996D01*
X56808Y-39018D01*
X56740Y-38804D02*
X56740Y-38658D01*
X56830Y-38737D01*
X56830Y-38703D01*
X56841Y-38681D01*
X56853Y-38669D01*
X56875Y-38658D01*
X56931Y-38658D01*
X56954Y-38669D01*
X56965Y-38681D01*
X56976Y-38703D01*
X56976Y-38771D01*
X56965Y-38793D01*
X56954Y-38804D01*
X63410Y-41340D02*
X63297Y-41419D01*
X63410Y-41475D02*
X63173Y-41475D01*
X63173Y-41385D01*
X63185Y-41363D01*
X63196Y-41352D01*
X63218Y-41340D01*
X63252Y-41340D01*
X63275Y-41352D01*
X63286Y-41363D01*
X63297Y-41385D01*
X63297Y-41475D01*
X63252Y-41138D02*
X63410Y-41138D01*
X63162Y-41194D02*
X63331Y-41250D01*
X63331Y-41104D01*
X63410Y-41003D02*
X63410Y-40958D01*
X63398Y-40935D01*
X63387Y-40924D01*
X63353Y-40902D01*
X63308Y-40890D01*
X63218Y-40890D01*
X63196Y-40902D01*
X63185Y-40913D01*
X63173Y-40935D01*
X63173Y-40980D01*
X63185Y-41003D01*
X63196Y-41014D01*
X63218Y-41025D01*
X63275Y-41025D01*
X63297Y-41014D01*
X63308Y-41003D01*
X63320Y-40980D01*
X63320Y-40935D01*
X63308Y-40913D01*
X63297Y-40902D01*
X63275Y-40890D01*
X57213Y-31273D02*
X57100Y-31352D01*
X57213Y-31408D02*
X56976Y-31408D01*
X56976Y-31318D01*
X56988Y-31296D01*
X56999Y-31285D01*
X57021Y-31273D01*
X57055Y-31273D01*
X57078Y-31285D01*
X57089Y-31296D01*
X57100Y-31318D01*
X57100Y-31408D01*
X57213Y-31048D02*
X57213Y-31183D01*
X57213Y-31116D02*
X56976Y-31116D01*
X57010Y-31138D01*
X57033Y-31161D01*
X57044Y-31183D01*
X56976Y-30846D02*
X56976Y-30891D01*
X56988Y-30913D01*
X56999Y-30925D01*
X57033Y-30947D01*
X57078Y-30958D01*
X57168Y-30958D01*
X57190Y-30947D01*
X57201Y-30936D01*
X57213Y-30913D01*
X57213Y-30868D01*
X57201Y-30846D01*
X57190Y-30835D01*
X57168Y-30823D01*
X57111Y-30823D01*
X57089Y-30835D01*
X57078Y-30846D01*
X57066Y-30868D01*
X57066Y-30913D01*
X57078Y-30936D01*
X57089Y-30947D01*
X57111Y-30958D01*
X63378Y-42608D02*
X63266Y-42687D01*
X63378Y-42743D02*
X63142Y-42743D01*
X63142Y-42653D01*
X63153Y-42631D01*
X63164Y-42619D01*
X63187Y-42608D01*
X63221Y-42608D01*
X63243Y-42619D01*
X63254Y-42631D01*
X63266Y-42653D01*
X63266Y-42743D01*
X63142Y-42406D02*
X63142Y-42451D01*
X63153Y-42473D01*
X63164Y-42484D01*
X63198Y-42507D01*
X63243Y-42518D01*
X63333Y-42518D01*
X63356Y-42507D01*
X63367Y-42496D01*
X63378Y-42473D01*
X63378Y-42428D01*
X63367Y-42406D01*
X63356Y-42394D01*
X63333Y-42383D01*
X63277Y-42383D01*
X63254Y-42394D01*
X63243Y-42406D01*
X63232Y-42428D01*
X63232Y-42473D01*
X63243Y-42496D01*
X63254Y-42507D01*
X63277Y-42518D01*
X63378Y-42158D02*
X63378Y-42293D01*
X63378Y-42226D02*
X63142Y-42226D01*
X63176Y-42248D01*
X63198Y-42271D01*
X63209Y-42293D01*
X59769Y-48197D02*
X59690Y-48084D01*
X59634Y-48197D02*
X59634Y-47961D01*
X59724Y-47961D01*
X59746Y-47972D01*
X59758Y-47983D01*
X59769Y-48006D01*
X59769Y-48039D01*
X59758Y-48062D01*
X59746Y-48073D01*
X59724Y-48084D01*
X59634Y-48084D01*
X59983Y-47961D02*
X59870Y-47961D01*
X59859Y-48073D01*
X59870Y-48062D01*
X59893Y-48051D01*
X59949Y-48051D01*
X59971Y-48062D01*
X59983Y-48073D01*
X59994Y-48096D01*
X59994Y-48152D01*
X59983Y-48174D01*
X59971Y-48186D01*
X59949Y-48197D01*
X59893Y-48197D01*
X59870Y-48186D01*
X59859Y-48174D01*
X60106Y-48197D02*
X60151Y-48197D01*
X60174Y-48186D01*
X60185Y-48174D01*
X60208Y-48141D01*
X60219Y-48096D01*
X60219Y-48006D01*
X60208Y-47983D01*
X60196Y-47972D01*
X60174Y-47961D01*
X60129Y-47961D01*
X60106Y-47972D01*
X60095Y-47983D01*
X60084Y-48006D01*
X60084Y-48062D01*
X60095Y-48084D01*
X60106Y-48096D01*
X60129Y-48107D01*
X60174Y-48107D01*
X60196Y-48096D01*
X60208Y-48084D01*
X60219Y-48062D01*
X51422Y-48217D02*
X51344Y-48104D01*
X51287Y-48217D02*
X51287Y-47980D01*
X51377Y-47980D01*
X51400Y-47992D01*
X51411Y-48003D01*
X51422Y-48025D01*
X51422Y-48059D01*
X51411Y-48082D01*
X51400Y-48093D01*
X51377Y-48104D01*
X51287Y-48104D01*
X51625Y-47980D02*
X51580Y-47980D01*
X51557Y-47992D01*
X51546Y-48003D01*
X51524Y-48037D01*
X51512Y-48082D01*
X51512Y-48172D01*
X51524Y-48194D01*
X51535Y-48205D01*
X51557Y-48217D01*
X51602Y-48217D01*
X51625Y-48205D01*
X51636Y-48194D01*
X51647Y-48172D01*
X51647Y-48115D01*
X51636Y-48093D01*
X51625Y-48082D01*
X51602Y-48070D01*
X51557Y-48070D01*
X51535Y-48082D01*
X51524Y-48093D01*
X51512Y-48115D01*
X51794Y-47980D02*
X51816Y-47980D01*
X51839Y-47992D01*
X51850Y-48003D01*
X51861Y-48025D01*
X51872Y-48070D01*
X51872Y-48127D01*
X51861Y-48172D01*
X51850Y-48194D01*
X51839Y-48205D01*
X51816Y-48217D01*
X51794Y-48217D01*
X51771Y-48205D01*
X51760Y-48194D01*
X51749Y-48172D01*
X51737Y-48127D01*
X51737Y-48070D01*
X51749Y-48025D01*
X51760Y-48003D01*
X51771Y-47992D01*
X51794Y-47980D01*
X58588Y-45461D02*
X58509Y-45348D01*
X58453Y-45461D02*
X58453Y-45224D01*
X58543Y-45224D01*
X58565Y-45236D01*
X58577Y-45247D01*
X58588Y-45269D01*
X58588Y-45303D01*
X58577Y-45326D01*
X58565Y-45337D01*
X58543Y-45348D01*
X58453Y-45348D01*
X58813Y-45461D02*
X58678Y-45461D01*
X58745Y-45461D02*
X58745Y-45224D01*
X58723Y-45258D01*
X58700Y-45281D01*
X58678Y-45292D01*
X59038Y-45461D02*
X58903Y-45461D01*
X58970Y-45461D02*
X58970Y-45224D01*
X58948Y-45258D01*
X58925Y-45281D01*
X58903Y-45292D01*
X61915Y-36150D02*
X61836Y-36037D01*
X61780Y-36150D02*
X61780Y-35913D01*
X61870Y-35913D01*
X61892Y-35925D01*
X61903Y-35936D01*
X61915Y-35958D01*
X61915Y-35992D01*
X61903Y-36015D01*
X61892Y-36026D01*
X61870Y-36037D01*
X61780Y-36037D01*
X62140Y-36150D02*
X62005Y-36150D01*
X62072Y-36150D02*
X62072Y-35913D01*
X62050Y-35947D01*
X62027Y-35970D01*
X62005Y-35981D01*
X62342Y-35992D02*
X62342Y-36150D01*
X62286Y-35902D02*
X62230Y-36071D01*
X62376Y-36071D01*
X53745Y-42547D02*
X53667Y-42435D01*
X53610Y-42547D02*
X53610Y-42311D01*
X53700Y-42311D01*
X53723Y-42322D01*
X53734Y-42334D01*
X53745Y-42356D01*
X53745Y-42390D01*
X53734Y-42412D01*
X53723Y-42424D01*
X53700Y-42435D01*
X53610Y-42435D01*
X53970Y-42547D02*
X53835Y-42547D01*
X53903Y-42547D02*
X53903Y-42311D01*
X53880Y-42345D01*
X53858Y-42367D01*
X53835Y-42379D01*
X54049Y-42311D02*
X54206Y-42311D01*
X54105Y-42547D01*
X64299Y-49229D02*
X64063Y-49229D01*
X64063Y-49173D01*
X64074Y-49139D01*
X64097Y-49116D01*
X64119Y-49105D01*
X64164Y-49094D01*
X64198Y-49094D01*
X64243Y-49105D01*
X64266Y-49116D01*
X64288Y-49139D01*
X64299Y-49173D01*
X64299Y-49229D01*
X64299Y-48869D02*
X64299Y-49004D01*
X64299Y-48937D02*
X64063Y-48937D01*
X64097Y-48959D01*
X64119Y-48982D01*
X64131Y-49004D01*
G54D19*
X64158Y-49488D02*
X64233Y-49488D01*
X64203Y-49553D02*
X64233Y-49488D01*
X64203Y-49422D01*
X64293Y-49527D02*
X64233Y-49488D01*
X64293Y-49448D01*
G54D10*
X64299Y-50489D02*
X64063Y-50489D01*
X64063Y-50433D01*
X64074Y-50399D01*
X64097Y-50376D01*
X64119Y-50365D01*
X64164Y-50354D01*
X64198Y-50354D01*
X64243Y-50365D01*
X64266Y-50376D01*
X64288Y-50399D01*
X64299Y-50433D01*
X64299Y-50489D01*
X64086Y-50264D02*
X64074Y-50253D01*
X64063Y-50230D01*
X64063Y-50174D01*
X64074Y-50151D01*
X64086Y-50140D01*
X64108Y-50129D01*
X64131Y-50129D01*
X64164Y-50140D01*
X64299Y-50275D01*
X64299Y-50129D01*
G54D19*
X64177Y-49881D02*
X64252Y-49881D01*
X64222Y-49947D02*
X64252Y-49881D01*
X64222Y-49816D01*
X64312Y-49921D02*
X64252Y-49881D01*
X64312Y-49842D01*
G54D10*
X54896Y-31595D02*
X54896Y-31914D01*
X54915Y-31951D01*
X54934Y-31970D01*
X54971Y-31989D01*
X55046Y-31989D01*
X55084Y-31970D01*
X55103Y-31951D01*
X55121Y-31914D01*
X55121Y-31595D01*
X55290Y-31632D02*
X55309Y-31614D01*
X55346Y-31595D01*
X55440Y-31595D01*
X55478Y-31614D01*
X55496Y-31632D01*
X55515Y-31670D01*
X55515Y-31707D01*
X55496Y-31764D01*
X55271Y-31989D01*
X55515Y-31989D01*
X59776Y-36327D02*
X59776Y-36214D01*
X59866Y-36349D02*
X59551Y-36271D01*
X59866Y-36192D01*
X59896Y-35989D02*
X59896Y-35809D01*
X59896Y-35809D02*
X59896Y-35629D01*
X59896Y-35629D02*
X59896Y-35449D01*
X59896Y-35449D02*
X59896Y-35269D01*
X59896Y-35269D02*
X59896Y-35089D01*
X59896Y-35089D02*
X59896Y-34910D01*
X59896Y-34910D02*
X59896Y-34730D01*
X59896Y-34730D02*
X59896Y-34550D01*
X59896Y-34550D02*
X59896Y-34370D01*
X59896Y-34370D02*
X59896Y-34190D01*
X59896Y-34190D02*
X59896Y-34010D01*
X59896Y-34010D02*
X59896Y-33830D01*
X59896Y-33830D02*
X59896Y-33650D01*
X59896Y-33650D02*
X59896Y-33470D01*
X59896Y-33470D02*
X59896Y-33290D01*
X59866Y-32941D02*
X59866Y-33053D01*
X59551Y-33053D01*
X55804Y-37032D02*
X55669Y-37032D01*
X55736Y-37032D02*
X55736Y-36717D01*
X55714Y-36762D01*
X55691Y-36792D01*
X55669Y-36807D01*
X56029Y-37032D02*
X55894Y-37032D01*
X55961Y-37032D02*
X55961Y-36717D01*
X55939Y-36762D01*
X55916Y-36792D01*
X55894Y-36807D01*
X56254Y-37062D02*
X56434Y-37062D01*
X56434Y-37062D02*
X56614Y-37062D01*
X56614Y-37062D02*
X56794Y-37062D01*
X56794Y-37062D02*
X56974Y-37062D01*
X56974Y-37062D02*
X57154Y-37062D01*
X57154Y-37062D02*
X57334Y-37062D01*
X57334Y-37062D02*
X57514Y-37062D01*
X57514Y-37062D02*
X57694Y-37062D01*
X57694Y-37062D02*
X57874Y-37062D01*
X57874Y-37062D02*
X58053Y-37062D01*
X58053Y-37062D02*
X58233Y-37062D01*
X58233Y-37062D02*
X58413Y-37062D01*
X58413Y-37062D02*
X58593Y-37062D01*
X58593Y-37062D02*
X58773Y-37062D01*
X59133Y-37032D02*
X58998Y-37032D01*
X59066Y-37032D02*
X59066Y-36717D01*
X59043Y-36762D01*
X59021Y-36792D01*
X58998Y-36807D01*
X54936Y-39449D02*
X54936Y-39768D01*
X54955Y-39805D01*
X54973Y-39824D01*
X55011Y-39843D01*
X55086Y-39843D01*
X55123Y-39824D01*
X55142Y-39805D01*
X55161Y-39768D01*
X55161Y-39449D01*
X55554Y-39843D02*
X55329Y-39843D01*
X55442Y-39843D02*
X55442Y-39449D01*
X55404Y-39505D01*
X55367Y-39543D01*
X55329Y-39562D01*
X59776Y-44201D02*
X59776Y-44088D01*
X59866Y-44223D02*
X59551Y-44145D01*
X59866Y-44066D01*
X59896Y-43863D02*
X59896Y-43683D01*
X59896Y-43683D02*
X59896Y-43503D01*
X59896Y-43503D02*
X59896Y-43323D01*
X59896Y-43323D02*
X59896Y-43143D01*
X59896Y-43143D02*
X59896Y-42964D01*
X59896Y-42964D02*
X59896Y-42784D01*
X59896Y-42784D02*
X59896Y-42604D01*
X59896Y-42604D02*
X59896Y-42424D01*
X59896Y-42424D02*
X59896Y-42244D01*
X59896Y-42244D02*
X59896Y-42064D01*
X59896Y-42064D02*
X59896Y-41884D01*
X59896Y-41884D02*
X59896Y-41704D01*
X59896Y-41704D02*
X59896Y-41524D01*
X59896Y-41524D02*
X59896Y-41344D01*
X59896Y-41344D02*
X59896Y-41164D01*
X59866Y-40815D02*
X59866Y-40928D01*
X59551Y-40928D01*
X55804Y-44906D02*
X55669Y-44906D01*
X55736Y-44906D02*
X55736Y-44591D01*
X55714Y-44636D01*
X55691Y-44666D01*
X55669Y-44681D01*
X56029Y-44906D02*
X55894Y-44906D01*
X55961Y-44906D02*
X55961Y-44591D01*
X55939Y-44636D01*
X55916Y-44666D01*
X55894Y-44681D01*
X56254Y-44936D02*
X56434Y-44936D01*
X56434Y-44936D02*
X56614Y-44936D01*
X56614Y-44936D02*
X56794Y-44936D01*
X56794Y-44936D02*
X56974Y-44936D01*
X56974Y-44936D02*
X57154Y-44936D01*
X57154Y-44936D02*
X57334Y-44936D01*
X57334Y-44936D02*
X57514Y-44936D01*
X57514Y-44936D02*
X57694Y-44936D01*
X57694Y-44936D02*
X57874Y-44936D01*
X57874Y-44936D02*
X58053Y-44936D01*
X58053Y-44936D02*
X58233Y-44936D01*
X58233Y-44936D02*
X58413Y-44936D01*
X58413Y-44936D02*
X58593Y-44936D01*
X58593Y-44936D02*
X58773Y-44936D01*
X59133Y-44906D02*
X58998Y-44906D01*
X59066Y-44906D02*
X59066Y-44591D01*
X59043Y-44636D01*
X59021Y-44666D01*
X58998Y-44681D01*
X61422Y-47277D02*
X61434Y-47289D01*
X61445Y-47322D01*
X61445Y-47345D01*
X61434Y-47379D01*
X61411Y-47401D01*
X61389Y-47412D01*
X61344Y-47424D01*
X61310Y-47424D01*
X61265Y-47412D01*
X61242Y-47401D01*
X61220Y-47379D01*
X61209Y-47345D01*
X61209Y-47322D01*
X61220Y-47289D01*
X61231Y-47277D01*
X61445Y-47052D02*
X61445Y-47187D01*
X61445Y-47120D02*
X61209Y-47120D01*
X61242Y-47142D01*
X61265Y-47165D01*
X61276Y-47187D01*
X61231Y-46962D02*
X61220Y-46951D01*
X61209Y-46929D01*
X61209Y-46872D01*
X61220Y-46850D01*
X61231Y-46839D01*
X61254Y-46827D01*
X61276Y-46827D01*
X61310Y-46839D01*
X61445Y-46974D01*
X61445Y-46827D01*
X53706Y-46647D02*
X53717Y-46659D01*
X53728Y-46692D01*
X53728Y-46715D01*
X53717Y-46749D01*
X53695Y-46771D01*
X53672Y-46782D01*
X53627Y-46794D01*
X53593Y-46794D01*
X53548Y-46782D01*
X53526Y-46771D01*
X53503Y-46749D01*
X53492Y-46715D01*
X53492Y-46692D01*
X53503Y-46659D01*
X53515Y-46647D01*
X53728Y-46422D02*
X53728Y-46557D01*
X53728Y-46490D02*
X53492Y-46490D01*
X53526Y-46512D01*
X53548Y-46535D01*
X53560Y-46557D01*
X53492Y-46344D02*
X53492Y-46197D01*
X53582Y-46276D01*
X53582Y-46242D01*
X53593Y-46220D01*
X53605Y-46209D01*
X53627Y-46197D01*
X53683Y-46197D01*
X53706Y-46209D01*
X53717Y-46220D01*
X53728Y-46242D01*
X53728Y-46310D01*
X53717Y-46332D01*
X53706Y-46344D01*
X53135Y-47277D02*
X53146Y-47289D01*
X53158Y-47322D01*
X53158Y-47345D01*
X53146Y-47379D01*
X53124Y-47401D01*
X53101Y-47412D01*
X53056Y-47424D01*
X53023Y-47424D01*
X52978Y-47412D01*
X52955Y-47401D01*
X52933Y-47379D01*
X52921Y-47345D01*
X52921Y-47322D01*
X52933Y-47289D01*
X52944Y-47277D01*
X53158Y-47052D02*
X53158Y-47187D01*
X53158Y-47120D02*
X52921Y-47120D01*
X52955Y-47142D01*
X52978Y-47165D01*
X52989Y-47187D01*
X53158Y-46827D02*
X53158Y-46962D01*
X53158Y-46895D02*
X52921Y-46895D01*
X52955Y-46917D01*
X52978Y-46940D01*
X52989Y-46962D01*
X61974Y-46647D02*
X61985Y-46659D01*
X61996Y-46692D01*
X61996Y-46715D01*
X61985Y-46749D01*
X61962Y-46771D01*
X61940Y-46782D01*
X61895Y-46794D01*
X61861Y-46794D01*
X61816Y-46782D01*
X61794Y-46771D01*
X61771Y-46749D01*
X61760Y-46715D01*
X61760Y-46692D01*
X61771Y-46659D01*
X61782Y-46647D01*
X61996Y-46422D02*
X61996Y-46557D01*
X61996Y-46490D02*
X61760Y-46490D01*
X61794Y-46512D01*
X61816Y-46535D01*
X61827Y-46557D01*
X61839Y-46220D02*
X61996Y-46220D01*
X61749Y-46276D02*
X61917Y-46332D01*
X61917Y-46186D01*
X48938Y-49640D02*
X48949Y-49651D01*
X48961Y-49685D01*
X48961Y-49707D01*
X48949Y-49741D01*
X48927Y-49763D01*
X48904Y-49775D01*
X48859Y-49786D01*
X48826Y-49786D01*
X48781Y-49775D01*
X48758Y-49763D01*
X48736Y-49741D01*
X48724Y-49707D01*
X48724Y-49685D01*
X48736Y-49651D01*
X48747Y-49640D01*
X48724Y-49426D02*
X48724Y-49538D01*
X48837Y-49550D01*
X48826Y-49538D01*
X48814Y-49516D01*
X48814Y-49460D01*
X48826Y-49437D01*
X48837Y-49426D01*
X48859Y-49415D01*
X48916Y-49415D01*
X48938Y-49426D01*
X48949Y-49437D01*
X48961Y-49460D01*
X48961Y-49516D01*
X48949Y-49538D01*
X48938Y-49550D01*
X48724Y-49336D02*
X48724Y-49190D01*
X48814Y-49268D01*
X48814Y-49235D01*
X48826Y-49212D01*
X48837Y-49201D01*
X48859Y-49190D01*
X48916Y-49190D01*
X48938Y-49201D01*
X48949Y-49212D01*
X48961Y-49235D01*
X48961Y-49302D01*
X48949Y-49325D01*
X48938Y-49336D01*
X43667Y-44955D02*
X43678Y-44966D01*
X43689Y-45000D01*
X43689Y-45022D01*
X43678Y-45056D01*
X43655Y-45078D01*
X43633Y-45089D01*
X43588Y-45101D01*
X43554Y-45101D01*
X43509Y-45089D01*
X43487Y-45078D01*
X43464Y-45056D01*
X43453Y-45022D01*
X43453Y-45000D01*
X43464Y-44966D01*
X43475Y-44955D01*
X43453Y-44741D02*
X43453Y-44853D01*
X43565Y-44865D01*
X43554Y-44853D01*
X43543Y-44831D01*
X43543Y-44775D01*
X43554Y-44752D01*
X43565Y-44741D01*
X43588Y-44730D01*
X43644Y-44730D01*
X43667Y-44741D01*
X43678Y-44752D01*
X43689Y-44775D01*
X43689Y-44831D01*
X43678Y-44853D01*
X43667Y-44865D01*
X43532Y-44527D02*
X43689Y-44527D01*
X43442Y-44583D02*
X43610Y-44640D01*
X43610Y-44493D01*
X45901Y-46588D02*
X45890Y-46599D01*
X45856Y-46610D01*
X45834Y-46610D01*
X45800Y-46599D01*
X45777Y-46577D01*
X45766Y-46554D01*
X45755Y-46509D01*
X45755Y-46475D01*
X45766Y-46430D01*
X45777Y-46408D01*
X45800Y-46385D01*
X45834Y-46374D01*
X45856Y-46374D01*
X45890Y-46385D01*
X45901Y-46397D01*
X46104Y-46374D02*
X46059Y-46374D01*
X46036Y-46385D01*
X46025Y-46397D01*
X46002Y-46430D01*
X45991Y-46475D01*
X45991Y-46565D01*
X46002Y-46588D01*
X46014Y-46599D01*
X46036Y-46610D01*
X46081Y-46610D01*
X46104Y-46599D01*
X46115Y-46588D01*
X46126Y-46565D01*
X46126Y-46509D01*
X46115Y-46487D01*
X46104Y-46475D01*
X46081Y-46464D01*
X46036Y-46464D01*
X46014Y-46475D01*
X46002Y-46487D01*
X45991Y-46509D01*
X44513Y-43393D02*
X44524Y-43404D01*
X44535Y-43438D01*
X44535Y-43461D01*
X44524Y-43494D01*
X44502Y-43517D01*
X44479Y-43528D01*
X44434Y-43539D01*
X44401Y-43539D01*
X44356Y-43528D01*
X44333Y-43517D01*
X44311Y-43494D01*
X44299Y-43461D01*
X44299Y-43438D01*
X44311Y-43404D01*
X44322Y-43393D01*
X44299Y-43179D02*
X44299Y-43292D01*
X44412Y-43303D01*
X44401Y-43292D01*
X44389Y-43269D01*
X44389Y-43213D01*
X44401Y-43191D01*
X44412Y-43179D01*
X44434Y-43168D01*
X44491Y-43168D01*
X44513Y-43179D01*
X44524Y-43191D01*
X44535Y-43213D01*
X44535Y-43269D01*
X44524Y-43292D01*
X44513Y-43303D01*
X43617Y-29795D02*
X43538Y-29683D01*
X43482Y-29795D02*
X43482Y-29559D01*
X43572Y-29559D01*
X43595Y-29570D01*
X43606Y-29582D01*
X43617Y-29604D01*
X43617Y-29638D01*
X43606Y-29660D01*
X43595Y-29672D01*
X43572Y-29683D01*
X43482Y-29683D01*
X43842Y-29795D02*
X43707Y-29795D01*
X43775Y-29795D02*
X43775Y-29559D01*
X43752Y-29593D01*
X43730Y-29615D01*
X43707Y-29627D01*
X43932Y-29582D02*
X43943Y-29570D01*
X43966Y-29559D01*
X44022Y-29559D01*
X44044Y-29570D01*
X44056Y-29582D01*
X44067Y-29604D01*
X44067Y-29627D01*
X44056Y-29660D01*
X43921Y-29795D01*
X44067Y-29795D01*
X44179Y-29795D02*
X44224Y-29795D01*
X44247Y-29784D01*
X44258Y-29773D01*
X44281Y-29739D01*
X44292Y-29694D01*
X44292Y-29604D01*
X44281Y-29582D01*
X44269Y-29570D01*
X44247Y-29559D01*
X44202Y-29559D01*
X44179Y-29570D01*
X44168Y-29582D01*
X44157Y-29604D01*
X44157Y-29660D01*
X44168Y-29683D01*
X44179Y-29694D01*
X44202Y-29705D01*
X44247Y-29705D01*
X44269Y-29694D01*
X44281Y-29683D01*
X44292Y-29660D01*
X43625Y-29146D02*
X43546Y-29033D01*
X43490Y-29146D02*
X43490Y-28910D01*
X43580Y-28910D01*
X43602Y-28921D01*
X43614Y-28932D01*
X43625Y-28955D01*
X43625Y-28988D01*
X43614Y-29011D01*
X43602Y-29022D01*
X43580Y-29033D01*
X43490Y-29033D01*
X43850Y-29146D02*
X43715Y-29146D01*
X43782Y-29146D02*
X43782Y-28910D01*
X43760Y-28943D01*
X43737Y-28966D01*
X43715Y-28977D01*
X43940Y-28932D02*
X43951Y-28921D01*
X43974Y-28910D01*
X44030Y-28910D01*
X44052Y-28921D01*
X44064Y-28932D01*
X44075Y-28955D01*
X44075Y-28977D01*
X44064Y-29011D01*
X43929Y-29146D01*
X44075Y-29146D01*
X44210Y-29011D02*
X44187Y-29000D01*
X44176Y-28988D01*
X44165Y-28966D01*
X44165Y-28955D01*
X44176Y-28932D01*
X44187Y-28921D01*
X44210Y-28910D01*
X44255Y-28910D01*
X44277Y-28921D01*
X44289Y-28932D01*
X44300Y-28955D01*
X44300Y-28966D01*
X44289Y-28988D01*
X44277Y-29000D01*
X44255Y-29011D01*
X44210Y-29011D01*
X44187Y-29022D01*
X44176Y-29033D01*
X44165Y-29056D01*
X44165Y-29101D01*
X44176Y-29123D01*
X44187Y-29134D01*
X44210Y-29146D01*
X44255Y-29146D01*
X44277Y-29134D01*
X44289Y-29123D01*
X44300Y-29101D01*
X44300Y-29056D01*
X44289Y-29033D01*
X44277Y-29022D01*
X44255Y-29011D01*
X52747Y-36406D02*
X52668Y-36293D01*
X52612Y-36406D02*
X52612Y-36169D01*
X52702Y-36169D01*
X52724Y-36181D01*
X52736Y-36192D01*
X52747Y-36214D01*
X52747Y-36248D01*
X52736Y-36271D01*
X52724Y-36282D01*
X52702Y-36293D01*
X52612Y-36293D01*
X52972Y-36406D02*
X52837Y-36406D01*
X52904Y-36406D02*
X52904Y-36169D01*
X52882Y-36203D01*
X52859Y-36226D01*
X52837Y-36237D01*
X53118Y-36169D02*
X53141Y-36169D01*
X53163Y-36181D01*
X53174Y-36192D01*
X53186Y-36214D01*
X53197Y-36259D01*
X53197Y-36316D01*
X53186Y-36361D01*
X53174Y-36383D01*
X53163Y-36394D01*
X53141Y-36406D01*
X53118Y-36406D01*
X53096Y-36394D01*
X53084Y-36383D01*
X53073Y-36361D01*
X53062Y-36316D01*
X53062Y-36259D01*
X53073Y-36214D01*
X53084Y-36192D01*
X53096Y-36181D01*
X53118Y-36169D01*
X53399Y-36169D02*
X53354Y-36169D01*
X53332Y-36181D01*
X53321Y-36192D01*
X53298Y-36226D01*
X53287Y-36271D01*
X53287Y-36361D01*
X53298Y-36383D01*
X53309Y-36394D01*
X53332Y-36406D01*
X53377Y-36406D01*
X53399Y-36394D01*
X53411Y-36383D01*
X53422Y-36361D01*
X53422Y-36304D01*
X53411Y-36282D01*
X53399Y-36271D01*
X53377Y-36259D01*
X53332Y-36259D01*
X53309Y-36271D01*
X53298Y-36282D01*
X53287Y-36304D01*
X58374Y-31268D02*
X58262Y-31347D01*
X58374Y-31403D02*
X58138Y-31403D01*
X58138Y-31313D01*
X58149Y-31290D01*
X58160Y-31279D01*
X58183Y-31268D01*
X58217Y-31268D01*
X58239Y-31279D01*
X58250Y-31290D01*
X58262Y-31313D01*
X58262Y-31403D01*
X58374Y-31043D02*
X58374Y-31178D01*
X58374Y-31110D02*
X58138Y-31110D01*
X58172Y-31133D01*
X58194Y-31155D01*
X58205Y-31178D01*
X58160Y-30953D02*
X58149Y-30942D01*
X58138Y-30919D01*
X58138Y-30863D01*
X58149Y-30840D01*
X58160Y-30829D01*
X58183Y-30818D01*
X58205Y-30818D01*
X58239Y-30829D01*
X58374Y-30964D01*
X58374Y-30818D01*
X58138Y-30739D02*
X58138Y-30582D01*
X58374Y-30683D01*
X52747Y-33847D02*
X52668Y-33734D01*
X52612Y-33847D02*
X52612Y-33610D01*
X52702Y-33610D01*
X52724Y-33622D01*
X52736Y-33633D01*
X52747Y-33655D01*
X52747Y-33689D01*
X52736Y-33712D01*
X52724Y-33723D01*
X52702Y-33734D01*
X52612Y-33734D01*
X52972Y-33847D02*
X52837Y-33847D01*
X52904Y-33847D02*
X52904Y-33610D01*
X52882Y-33644D01*
X52859Y-33667D01*
X52837Y-33678D01*
X53197Y-33847D02*
X53062Y-33847D01*
X53129Y-33847D02*
X53129Y-33610D01*
X53107Y-33644D01*
X53084Y-33667D01*
X53062Y-33678D01*
X53399Y-33689D02*
X53399Y-33847D01*
X53343Y-33599D02*
X53287Y-33768D01*
X53433Y-33768D01*
X52747Y-36091D02*
X52668Y-35978D01*
X52612Y-36091D02*
X52612Y-35854D01*
X52702Y-35854D01*
X52724Y-35866D01*
X52736Y-35877D01*
X52747Y-35899D01*
X52747Y-35933D01*
X52736Y-35956D01*
X52724Y-35967D01*
X52702Y-35978D01*
X52612Y-35978D01*
X52972Y-36091D02*
X52837Y-36091D01*
X52904Y-36091D02*
X52904Y-35854D01*
X52882Y-35888D01*
X52859Y-35911D01*
X52837Y-35922D01*
X53118Y-35854D02*
X53141Y-35854D01*
X53163Y-35866D01*
X53174Y-35877D01*
X53186Y-35899D01*
X53197Y-35944D01*
X53197Y-36001D01*
X53186Y-36046D01*
X53174Y-36068D01*
X53163Y-36079D01*
X53141Y-36091D01*
X53118Y-36091D01*
X53096Y-36079D01*
X53084Y-36068D01*
X53073Y-36046D01*
X53062Y-36001D01*
X53062Y-35944D01*
X53073Y-35899D01*
X53084Y-35877D01*
X53096Y-35866D01*
X53118Y-35854D01*
X53276Y-35854D02*
X53433Y-35854D01*
X53332Y-36091D01*
X52747Y-35776D02*
X52668Y-35663D01*
X52612Y-35776D02*
X52612Y-35539D01*
X52702Y-35539D01*
X52724Y-35551D01*
X52736Y-35562D01*
X52747Y-35584D01*
X52747Y-35618D01*
X52736Y-35641D01*
X52724Y-35652D01*
X52702Y-35663D01*
X52612Y-35663D01*
X52972Y-35776D02*
X52837Y-35776D01*
X52904Y-35776D02*
X52904Y-35539D01*
X52882Y-35573D01*
X52859Y-35596D01*
X52837Y-35607D01*
X53118Y-35539D02*
X53141Y-35539D01*
X53163Y-35551D01*
X53174Y-35562D01*
X53186Y-35584D01*
X53197Y-35629D01*
X53197Y-35686D01*
X53186Y-35731D01*
X53174Y-35753D01*
X53163Y-35764D01*
X53141Y-35776D01*
X53118Y-35776D01*
X53096Y-35764D01*
X53084Y-35753D01*
X53073Y-35731D01*
X53062Y-35686D01*
X53062Y-35629D01*
X53073Y-35584D01*
X53084Y-35562D01*
X53096Y-35551D01*
X53118Y-35539D01*
X53332Y-35641D02*
X53309Y-35629D01*
X53298Y-35618D01*
X53287Y-35596D01*
X53287Y-35584D01*
X53298Y-35562D01*
X53309Y-35551D01*
X53332Y-35539D01*
X53377Y-35539D01*
X53399Y-35551D01*
X53411Y-35562D01*
X53422Y-35584D01*
X53422Y-35596D01*
X53411Y-35618D01*
X53399Y-35629D01*
X53377Y-35641D01*
X53332Y-35641D01*
X53309Y-35652D01*
X53298Y-35663D01*
X53287Y-35686D01*
X53287Y-35731D01*
X53298Y-35753D01*
X53309Y-35764D01*
X53332Y-35776D01*
X53377Y-35776D01*
X53399Y-35764D01*
X53411Y-35753D01*
X53422Y-35731D01*
X53422Y-35686D01*
X53411Y-35663D01*
X53399Y-35652D01*
X53377Y-35641D01*
X52747Y-35461D02*
X52668Y-35348D01*
X52612Y-35461D02*
X52612Y-35224D01*
X52702Y-35224D01*
X52724Y-35236D01*
X52736Y-35247D01*
X52747Y-35269D01*
X52747Y-35303D01*
X52736Y-35326D01*
X52724Y-35337D01*
X52702Y-35348D01*
X52612Y-35348D01*
X52972Y-35461D02*
X52837Y-35461D01*
X52904Y-35461D02*
X52904Y-35224D01*
X52882Y-35258D01*
X52859Y-35281D01*
X52837Y-35292D01*
X53118Y-35224D02*
X53141Y-35224D01*
X53163Y-35236D01*
X53174Y-35247D01*
X53186Y-35269D01*
X53197Y-35314D01*
X53197Y-35371D01*
X53186Y-35416D01*
X53174Y-35438D01*
X53163Y-35449D01*
X53141Y-35461D01*
X53118Y-35461D01*
X53096Y-35449D01*
X53084Y-35438D01*
X53073Y-35416D01*
X53062Y-35371D01*
X53062Y-35314D01*
X53073Y-35269D01*
X53084Y-35247D01*
X53096Y-35236D01*
X53118Y-35224D01*
X53309Y-35461D02*
X53354Y-35461D01*
X53377Y-35449D01*
X53388Y-35438D01*
X53411Y-35404D01*
X53422Y-35359D01*
X53422Y-35269D01*
X53411Y-35247D01*
X53399Y-35236D01*
X53377Y-35224D01*
X53332Y-35224D01*
X53309Y-35236D01*
X53298Y-35247D01*
X53287Y-35269D01*
X53287Y-35326D01*
X53298Y-35348D01*
X53309Y-35359D01*
X53332Y-35371D01*
X53377Y-35371D01*
X53399Y-35359D01*
X53411Y-35348D01*
X53422Y-35326D01*
X52747Y-35106D02*
X52668Y-34994D01*
X52612Y-35106D02*
X52612Y-34870D01*
X52702Y-34870D01*
X52724Y-34881D01*
X52736Y-34893D01*
X52747Y-34915D01*
X52747Y-34949D01*
X52736Y-34971D01*
X52724Y-34983D01*
X52702Y-34994D01*
X52612Y-34994D01*
X52972Y-35106D02*
X52837Y-35106D01*
X52904Y-35106D02*
X52904Y-34870D01*
X52882Y-34904D01*
X52859Y-34926D01*
X52837Y-34938D01*
X53197Y-35106D02*
X53062Y-35106D01*
X53129Y-35106D02*
X53129Y-34870D01*
X53107Y-34904D01*
X53084Y-34926D01*
X53062Y-34938D01*
X53343Y-34870D02*
X53366Y-34870D01*
X53388Y-34881D01*
X53399Y-34893D01*
X53411Y-34915D01*
X53422Y-34960D01*
X53422Y-35016D01*
X53411Y-35061D01*
X53399Y-35084D01*
X53388Y-35095D01*
X53366Y-35106D01*
X53343Y-35106D01*
X53321Y-35095D01*
X53309Y-35084D01*
X53298Y-35061D01*
X53287Y-35016D01*
X53287Y-34960D01*
X53298Y-34915D01*
X53309Y-34893D01*
X53321Y-34881D01*
X53343Y-34870D01*
X52747Y-34791D02*
X52668Y-34679D01*
X52612Y-34791D02*
X52612Y-34555D01*
X52702Y-34555D01*
X52724Y-34566D01*
X52736Y-34578D01*
X52747Y-34600D01*
X52747Y-34634D01*
X52736Y-34656D01*
X52724Y-34668D01*
X52702Y-34679D01*
X52612Y-34679D01*
X52972Y-34791D02*
X52837Y-34791D01*
X52904Y-34791D02*
X52904Y-34555D01*
X52882Y-34589D01*
X52859Y-34611D01*
X52837Y-34623D01*
X53197Y-34791D02*
X53062Y-34791D01*
X53129Y-34791D02*
X53129Y-34555D01*
X53107Y-34589D01*
X53084Y-34611D01*
X53062Y-34623D01*
X53422Y-34791D02*
X53287Y-34791D01*
X53354Y-34791D02*
X53354Y-34555D01*
X53332Y-34589D01*
X53309Y-34611D01*
X53287Y-34623D01*
X52747Y-34476D02*
X52668Y-34364D01*
X52612Y-34476D02*
X52612Y-34240D01*
X52702Y-34240D01*
X52724Y-34251D01*
X52736Y-34263D01*
X52747Y-34285D01*
X52747Y-34319D01*
X52736Y-34341D01*
X52724Y-34353D01*
X52702Y-34364D01*
X52612Y-34364D01*
X52972Y-34476D02*
X52837Y-34476D01*
X52904Y-34476D02*
X52904Y-34240D01*
X52882Y-34274D01*
X52859Y-34296D01*
X52837Y-34308D01*
X53197Y-34476D02*
X53062Y-34476D01*
X53129Y-34476D02*
X53129Y-34240D01*
X53107Y-34274D01*
X53084Y-34296D01*
X53062Y-34308D01*
X53287Y-34263D02*
X53298Y-34251D01*
X53321Y-34240D01*
X53377Y-34240D01*
X53399Y-34251D01*
X53411Y-34263D01*
X53422Y-34285D01*
X53422Y-34308D01*
X53411Y-34341D01*
X53276Y-34476D01*
X53422Y-34476D01*
X52747Y-34161D02*
X52668Y-34049D01*
X52612Y-34161D02*
X52612Y-33925D01*
X52702Y-33925D01*
X52724Y-33937D01*
X52736Y-33948D01*
X52747Y-33970D01*
X52747Y-34004D01*
X52736Y-34026D01*
X52724Y-34038D01*
X52702Y-34049D01*
X52612Y-34049D01*
X52972Y-34161D02*
X52837Y-34161D01*
X52904Y-34161D02*
X52904Y-33925D01*
X52882Y-33959D01*
X52859Y-33982D01*
X52837Y-33993D01*
X53197Y-34161D02*
X53062Y-34161D01*
X53129Y-34161D02*
X53129Y-33925D01*
X53107Y-33959D01*
X53084Y-33982D01*
X53062Y-33993D01*
X53276Y-33925D02*
X53422Y-33925D01*
X53343Y-34015D01*
X53377Y-34015D01*
X53399Y-34026D01*
X53411Y-34038D01*
X53422Y-34060D01*
X53422Y-34116D01*
X53411Y-34139D01*
X53399Y-34150D01*
X53377Y-34161D01*
X53309Y-34161D01*
X53287Y-34150D01*
X53276Y-34139D01*
X58689Y-31268D02*
X58577Y-31347D01*
X58689Y-31403D02*
X58453Y-31403D01*
X58453Y-31313D01*
X58464Y-31290D01*
X58475Y-31279D01*
X58498Y-31268D01*
X58532Y-31268D01*
X58554Y-31279D01*
X58565Y-31290D01*
X58577Y-31313D01*
X58577Y-31403D01*
X58689Y-31043D02*
X58689Y-31178D01*
X58689Y-31110D02*
X58453Y-31110D01*
X58487Y-31133D01*
X58509Y-31155D01*
X58520Y-31178D01*
X58475Y-30953D02*
X58464Y-30942D01*
X58453Y-30919D01*
X58453Y-30863D01*
X58464Y-30840D01*
X58475Y-30829D01*
X58498Y-30818D01*
X58520Y-30818D01*
X58554Y-30829D01*
X58689Y-30964D01*
X58689Y-30818D01*
X58453Y-30615D02*
X58453Y-30660D01*
X58464Y-30683D01*
X58475Y-30694D01*
X58509Y-30717D01*
X58554Y-30728D01*
X58644Y-30728D01*
X58667Y-30717D01*
X58678Y-30705D01*
X58689Y-30683D01*
X58689Y-30638D01*
X58678Y-30615D01*
X58667Y-30604D01*
X58644Y-30593D01*
X58588Y-30593D01*
X58565Y-30604D01*
X58554Y-30615D01*
X58543Y-30638D01*
X58543Y-30683D01*
X58554Y-30705D01*
X58565Y-30717D01*
X58588Y-30728D01*
X52747Y-33532D02*
X52668Y-33419D01*
X52612Y-33532D02*
X52612Y-33295D01*
X52702Y-33295D01*
X52724Y-33307D01*
X52736Y-33318D01*
X52747Y-33340D01*
X52747Y-33374D01*
X52736Y-33397D01*
X52724Y-33408D01*
X52702Y-33419D01*
X52612Y-33419D01*
X52972Y-33532D02*
X52837Y-33532D01*
X52904Y-33532D02*
X52904Y-33295D01*
X52882Y-33329D01*
X52859Y-33352D01*
X52837Y-33363D01*
X53197Y-33532D02*
X53062Y-33532D01*
X53129Y-33532D02*
X53129Y-33295D01*
X53107Y-33329D01*
X53084Y-33352D01*
X53062Y-33363D01*
X53411Y-33295D02*
X53298Y-33295D01*
X53287Y-33408D01*
X53298Y-33397D01*
X53321Y-33385D01*
X53377Y-33385D01*
X53399Y-33397D01*
X53411Y-33408D01*
X53422Y-33430D01*
X53422Y-33487D01*
X53411Y-33509D01*
X53399Y-33520D01*
X53377Y-33532D01*
X53321Y-33532D01*
X53298Y-33520D01*
X53287Y-33509D01*
X52747Y-38295D02*
X52668Y-38183D01*
X52612Y-38295D02*
X52612Y-38059D01*
X52702Y-38059D01*
X52724Y-38070D01*
X52736Y-38082D01*
X52747Y-38104D01*
X52747Y-38138D01*
X52736Y-38160D01*
X52724Y-38172D01*
X52702Y-38183D01*
X52612Y-38183D01*
X52972Y-38295D02*
X52837Y-38295D01*
X52904Y-38295D02*
X52904Y-38059D01*
X52882Y-38093D01*
X52859Y-38115D01*
X52837Y-38127D01*
X53197Y-38295D02*
X53062Y-38295D01*
X53129Y-38295D02*
X53129Y-38059D01*
X53107Y-38093D01*
X53084Y-38115D01*
X53062Y-38127D01*
X53399Y-38059D02*
X53354Y-38059D01*
X53332Y-38070D01*
X53321Y-38082D01*
X53298Y-38115D01*
X53287Y-38160D01*
X53287Y-38250D01*
X53298Y-38273D01*
X53309Y-38284D01*
X53332Y-38295D01*
X53377Y-38295D01*
X53399Y-38284D01*
X53411Y-38273D01*
X53422Y-38250D01*
X53422Y-38194D01*
X53411Y-38172D01*
X53399Y-38160D01*
X53377Y-38149D01*
X53332Y-38149D01*
X53309Y-38160D01*
X53298Y-38172D01*
X53287Y-38194D01*
X52747Y-37980D02*
X52668Y-37868D01*
X52612Y-37980D02*
X52612Y-37744D01*
X52702Y-37744D01*
X52724Y-37755D01*
X52736Y-37767D01*
X52747Y-37789D01*
X52747Y-37823D01*
X52736Y-37845D01*
X52724Y-37857D01*
X52702Y-37868D01*
X52612Y-37868D01*
X52972Y-37980D02*
X52837Y-37980D01*
X52904Y-37980D02*
X52904Y-37744D01*
X52882Y-37778D01*
X52859Y-37800D01*
X52837Y-37812D01*
X53197Y-37980D02*
X53062Y-37980D01*
X53129Y-37980D02*
X53129Y-37744D01*
X53107Y-37778D01*
X53084Y-37800D01*
X53062Y-37812D01*
X53276Y-37744D02*
X53433Y-37744D01*
X53332Y-37980D01*
X52747Y-37665D02*
X52668Y-37553D01*
X52612Y-37665D02*
X52612Y-37429D01*
X52702Y-37429D01*
X52724Y-37440D01*
X52736Y-37452D01*
X52747Y-37474D01*
X52747Y-37508D01*
X52736Y-37530D01*
X52724Y-37542D01*
X52702Y-37553D01*
X52612Y-37553D01*
X52972Y-37665D02*
X52837Y-37665D01*
X52904Y-37665D02*
X52904Y-37429D01*
X52882Y-37463D01*
X52859Y-37485D01*
X52837Y-37497D01*
X53197Y-37665D02*
X53062Y-37665D01*
X53129Y-37665D02*
X53129Y-37429D01*
X53107Y-37463D01*
X53084Y-37485D01*
X53062Y-37497D01*
X53332Y-37530D02*
X53309Y-37519D01*
X53298Y-37508D01*
X53287Y-37485D01*
X53287Y-37474D01*
X53298Y-37452D01*
X53309Y-37440D01*
X53332Y-37429D01*
X53377Y-37429D01*
X53399Y-37440D01*
X53411Y-37452D01*
X53422Y-37474D01*
X53422Y-37485D01*
X53411Y-37508D01*
X53399Y-37519D01*
X53377Y-37530D01*
X53332Y-37530D01*
X53309Y-37542D01*
X53298Y-37553D01*
X53287Y-37575D01*
X53287Y-37620D01*
X53298Y-37643D01*
X53309Y-37654D01*
X53332Y-37665D01*
X53377Y-37665D01*
X53399Y-37654D01*
X53411Y-37643D01*
X53422Y-37620D01*
X53422Y-37575D01*
X53411Y-37553D01*
X53399Y-37542D01*
X53377Y-37530D01*
X52747Y-37350D02*
X52668Y-37238D01*
X52612Y-37350D02*
X52612Y-37114D01*
X52702Y-37114D01*
X52724Y-37125D01*
X52736Y-37137D01*
X52747Y-37159D01*
X52747Y-37193D01*
X52736Y-37215D01*
X52724Y-37227D01*
X52702Y-37238D01*
X52612Y-37238D01*
X52972Y-37350D02*
X52837Y-37350D01*
X52904Y-37350D02*
X52904Y-37114D01*
X52882Y-37148D01*
X52859Y-37170D01*
X52837Y-37182D01*
X53197Y-37350D02*
X53062Y-37350D01*
X53129Y-37350D02*
X53129Y-37114D01*
X53107Y-37148D01*
X53084Y-37170D01*
X53062Y-37182D01*
X53309Y-37350D02*
X53354Y-37350D01*
X53377Y-37339D01*
X53388Y-37328D01*
X53411Y-37294D01*
X53422Y-37249D01*
X53422Y-37159D01*
X53411Y-37137D01*
X53399Y-37125D01*
X53377Y-37114D01*
X53332Y-37114D01*
X53309Y-37125D01*
X53298Y-37137D01*
X53287Y-37159D01*
X53287Y-37215D01*
X53298Y-37238D01*
X53309Y-37249D01*
X53332Y-37260D01*
X53377Y-37260D01*
X53399Y-37249D01*
X53411Y-37238D01*
X53422Y-37215D01*
X52747Y-37035D02*
X52668Y-36923D01*
X52612Y-37035D02*
X52612Y-36799D01*
X52702Y-36799D01*
X52724Y-36811D01*
X52736Y-36822D01*
X52747Y-36844D01*
X52747Y-36878D01*
X52736Y-36901D01*
X52724Y-36912D01*
X52702Y-36923D01*
X52612Y-36923D01*
X52972Y-37035D02*
X52837Y-37035D01*
X52904Y-37035D02*
X52904Y-36799D01*
X52882Y-36833D01*
X52859Y-36856D01*
X52837Y-36867D01*
X53062Y-36822D02*
X53073Y-36811D01*
X53096Y-36799D01*
X53152Y-36799D01*
X53174Y-36811D01*
X53186Y-36822D01*
X53197Y-36844D01*
X53197Y-36867D01*
X53186Y-36901D01*
X53051Y-37035D01*
X53197Y-37035D01*
X53343Y-36799D02*
X53366Y-36799D01*
X53388Y-36811D01*
X53399Y-36822D01*
X53411Y-36844D01*
X53422Y-36889D01*
X53422Y-36946D01*
X53411Y-36991D01*
X53399Y-37013D01*
X53388Y-37024D01*
X53366Y-37035D01*
X53343Y-37035D01*
X53321Y-37024D01*
X53309Y-37013D01*
X53298Y-36991D01*
X53287Y-36946D01*
X53287Y-36889D01*
X53298Y-36844D01*
X53309Y-36822D01*
X53321Y-36811D01*
X53343Y-36799D01*
X52747Y-36721D02*
X52668Y-36608D01*
X52612Y-36721D02*
X52612Y-36484D01*
X52702Y-36484D01*
X52724Y-36496D01*
X52736Y-36507D01*
X52747Y-36529D01*
X52747Y-36563D01*
X52736Y-36586D01*
X52724Y-36597D01*
X52702Y-36608D01*
X52612Y-36608D01*
X52972Y-36721D02*
X52837Y-36721D01*
X52904Y-36721D02*
X52904Y-36484D01*
X52882Y-36518D01*
X52859Y-36541D01*
X52837Y-36552D01*
X53062Y-36507D02*
X53073Y-36496D01*
X53096Y-36484D01*
X53152Y-36484D01*
X53174Y-36496D01*
X53186Y-36507D01*
X53197Y-36529D01*
X53197Y-36552D01*
X53186Y-36586D01*
X53051Y-36721D01*
X53197Y-36721D01*
X53422Y-36721D02*
X53287Y-36721D01*
X53354Y-36721D02*
X53354Y-36484D01*
X53332Y-36518D01*
X53309Y-36541D01*
X53287Y-36552D01*
X48145Y-32166D02*
X48408Y-32559D01*
X48408Y-32166D02*
X48145Y-32559D01*
X48764Y-32559D02*
X48539Y-32559D01*
X48652Y-32559D02*
X48652Y-32166D01*
X48614Y-32222D01*
X48577Y-32260D01*
X48539Y-32278D01*
G54D20*
X51277Y-34101D02*
X51247Y-34088D01*
X51232Y-34074D01*
X51217Y-34048D01*
X51217Y-34035D01*
X51232Y-34009D01*
X51247Y-33996D01*
X51277Y-33983D01*
X51337Y-33983D01*
X51366Y-33996D01*
X51381Y-34009D01*
X51396Y-34035D01*
X51396Y-34048D01*
X51381Y-34074D01*
X51366Y-34088D01*
X51337Y-34101D01*
X51277Y-34101D01*
X51247Y-34114D01*
X51232Y-34127D01*
X51217Y-34153D01*
X51217Y-34205D01*
X51232Y-34232D01*
X51247Y-34245D01*
X51277Y-34258D01*
X51337Y-34258D01*
X51366Y-34245D01*
X51381Y-34232D01*
X51396Y-34205D01*
X51396Y-34153D01*
X51381Y-34127D01*
X51366Y-34114D01*
X51337Y-34101D01*
X51591Y-33983D02*
X51621Y-33983D01*
X51651Y-33996D01*
X51666Y-34009D01*
X51680Y-34035D01*
X51695Y-34088D01*
X51695Y-34153D01*
X51680Y-34205D01*
X51666Y-34232D01*
X51651Y-34245D01*
X51621Y-34258D01*
X51591Y-34258D01*
X51561Y-34245D01*
X51546Y-34232D01*
X51531Y-34205D01*
X51516Y-34153D01*
X51516Y-34088D01*
X51531Y-34035D01*
X51546Y-34009D01*
X51561Y-33996D01*
X51591Y-33983D01*
X47521Y-33727D02*
X47730Y-33727D01*
X47596Y-34002D01*
X47865Y-34002D02*
X47925Y-34002D01*
X47955Y-33989D01*
X47969Y-33976D01*
X47999Y-33936D01*
X48014Y-33884D01*
X48014Y-33779D01*
X47999Y-33753D01*
X47984Y-33740D01*
X47955Y-33727D01*
X47895Y-33727D01*
X47865Y-33740D01*
X47850Y-33753D01*
X47835Y-33779D01*
X47835Y-33845D01*
X47850Y-33871D01*
X47865Y-33884D01*
X47895Y-33897D01*
X47955Y-33897D01*
X47984Y-33884D01*
X47999Y-33871D01*
X48014Y-33845D01*
X48022Y-43651D02*
X47843Y-43651D01*
X47933Y-43651D02*
X47933Y-43376D01*
X47903Y-43416D01*
X47873Y-43442D01*
X47843Y-43455D01*
X51248Y-43340D02*
X51263Y-43327D01*
X51293Y-43313D01*
X51368Y-43313D01*
X51398Y-43327D01*
X51413Y-43340D01*
X51428Y-43366D01*
X51428Y-43392D01*
X51413Y-43431D01*
X51233Y-43588D01*
X51428Y-43588D01*
G54D10*
X45726Y-42710D02*
X45614Y-42789D01*
X45726Y-42845D02*
X45490Y-42845D01*
X45490Y-42755D01*
X45501Y-42733D01*
X45513Y-42722D01*
X45535Y-42710D01*
X45569Y-42710D01*
X45591Y-42722D01*
X45603Y-42733D01*
X45614Y-42755D01*
X45614Y-42845D01*
X45490Y-42632D02*
X45490Y-42474D01*
X45726Y-42575D01*
X45726Y-42373D02*
X45726Y-42328D01*
X45715Y-42305D01*
X45704Y-42294D01*
X45670Y-42272D01*
X45625Y-42260D01*
X45535Y-42260D01*
X45513Y-42272D01*
X45501Y-42283D01*
X45490Y-42305D01*
X45490Y-42350D01*
X45501Y-42373D01*
X45513Y-42384D01*
X45535Y-42395D01*
X45591Y-42395D01*
X45614Y-42384D01*
X45625Y-42373D01*
X45636Y-42350D01*
X45636Y-42305D01*
X45625Y-42283D01*
X45614Y-42272D01*
X45591Y-42260D01*
X44794Y-42223D02*
X44715Y-42110D01*
X44659Y-42223D02*
X44659Y-41986D01*
X44749Y-41986D01*
X44772Y-41998D01*
X44783Y-42009D01*
X44794Y-42031D01*
X44794Y-42065D01*
X44783Y-42088D01*
X44772Y-42099D01*
X44749Y-42110D01*
X44659Y-42110D01*
X45019Y-42223D02*
X44884Y-42223D01*
X44952Y-42223D02*
X44952Y-41986D01*
X44929Y-42020D01*
X44907Y-42043D01*
X44884Y-42054D01*
X45165Y-41986D02*
X45188Y-41986D01*
X45210Y-41998D01*
X45222Y-42009D01*
X45233Y-42031D01*
X45244Y-42076D01*
X45244Y-42133D01*
X45233Y-42178D01*
X45222Y-42200D01*
X45210Y-42211D01*
X45188Y-42223D01*
X45165Y-42223D01*
X45143Y-42211D01*
X45132Y-42200D01*
X45120Y-42178D01*
X45109Y-42133D01*
X45109Y-42076D01*
X45120Y-42031D01*
X45132Y-42009D01*
X45143Y-41998D01*
X45165Y-41986D01*
X45469Y-42223D02*
X45334Y-42223D01*
X45402Y-42223D02*
X45402Y-41986D01*
X45379Y-42020D01*
X45357Y-42043D01*
X45334Y-42054D01*
X43830Y-42213D02*
X43751Y-42100D01*
X43695Y-42213D02*
X43695Y-41976D01*
X43785Y-41976D01*
X43807Y-41988D01*
X43818Y-41999D01*
X43830Y-42021D01*
X43830Y-42055D01*
X43818Y-42078D01*
X43807Y-42089D01*
X43785Y-42100D01*
X43695Y-42100D01*
X44055Y-42213D02*
X43920Y-42213D01*
X43987Y-42213D02*
X43987Y-41976D01*
X43965Y-42010D01*
X43942Y-42033D01*
X43920Y-42044D01*
X44133Y-41976D02*
X44280Y-41976D01*
X44201Y-42066D01*
X44235Y-42066D01*
X44257Y-42078D01*
X44268Y-42089D01*
X44280Y-42111D01*
X44280Y-42168D01*
X44268Y-42190D01*
X44257Y-42201D01*
X44235Y-42213D01*
X44167Y-42213D01*
X44145Y-42201D01*
X44133Y-42190D01*
X44426Y-41976D02*
X44448Y-41976D01*
X44471Y-41988D01*
X44482Y-41999D01*
X44493Y-42021D01*
X44505Y-42066D01*
X44505Y-42123D01*
X44493Y-42168D01*
X44482Y-42190D01*
X44471Y-42201D01*
X44448Y-42213D01*
X44426Y-42213D01*
X44403Y-42201D01*
X44392Y-42190D01*
X44381Y-42168D01*
X44370Y-42123D01*
X44370Y-42066D01*
X44381Y-42021D01*
X44392Y-41999D01*
X44403Y-41988D01*
X44426Y-41976D01*
X43564Y-42823D02*
X43485Y-42710D01*
X43429Y-42823D02*
X43429Y-42587D01*
X43519Y-42587D01*
X43541Y-42598D01*
X43553Y-42609D01*
X43564Y-42632D01*
X43564Y-42665D01*
X43553Y-42688D01*
X43541Y-42699D01*
X43519Y-42710D01*
X43429Y-42710D01*
X43789Y-42823D02*
X43654Y-42823D01*
X43721Y-42823D02*
X43721Y-42587D01*
X43699Y-42620D01*
X43676Y-42643D01*
X43654Y-42654D01*
X43868Y-42587D02*
X44014Y-42587D01*
X43935Y-42677D01*
X43969Y-42677D01*
X43991Y-42688D01*
X44003Y-42699D01*
X44014Y-42722D01*
X44014Y-42778D01*
X44003Y-42800D01*
X43991Y-42812D01*
X43969Y-42823D01*
X43901Y-42823D01*
X43879Y-42812D01*
X43868Y-42800D01*
X44239Y-42823D02*
X44104Y-42823D01*
X44171Y-42823D02*
X44171Y-42587D01*
X44149Y-42620D01*
X44126Y-42643D01*
X44104Y-42654D01*
X43566Y-32740D02*
X43487Y-32628D01*
X43431Y-32740D02*
X43431Y-32504D01*
X43521Y-32504D01*
X43543Y-32515D01*
X43555Y-32526D01*
X43566Y-32549D01*
X43566Y-32583D01*
X43555Y-32605D01*
X43543Y-32616D01*
X43521Y-32628D01*
X43431Y-32628D01*
X43791Y-32740D02*
X43656Y-32740D01*
X43723Y-32740D02*
X43723Y-32504D01*
X43701Y-32538D01*
X43678Y-32560D01*
X43656Y-32571D01*
X43870Y-32504D02*
X44016Y-32504D01*
X43937Y-32594D01*
X43971Y-32594D01*
X43993Y-32605D01*
X44005Y-32616D01*
X44016Y-32639D01*
X44016Y-32695D01*
X44005Y-32718D01*
X43993Y-32729D01*
X43971Y-32740D01*
X43903Y-32740D01*
X43881Y-32729D01*
X43870Y-32718D01*
X44218Y-32583D02*
X44218Y-32740D01*
X44162Y-32493D02*
X44106Y-32661D01*
X44252Y-32661D01*
X47163Y-43944D02*
X46927Y-43944D01*
X46927Y-43887D01*
X46938Y-43854D01*
X46961Y-43831D01*
X46983Y-43820D01*
X47028Y-43809D01*
X47062Y-43809D01*
X47107Y-43820D01*
X47130Y-43831D01*
X47152Y-43854D01*
X47163Y-43887D01*
X47163Y-43944D01*
X47163Y-43696D02*
X47163Y-43651D01*
X47152Y-43629D01*
X47141Y-43617D01*
X47107Y-43595D01*
X47062Y-43584D01*
X46972Y-43584D01*
X46950Y-43595D01*
X46938Y-43606D01*
X46927Y-43629D01*
X46927Y-43674D01*
X46938Y-43696D01*
X46950Y-43707D01*
X46972Y-43719D01*
X47028Y-43719D01*
X47051Y-43707D01*
X47062Y-43696D01*
X47073Y-43674D01*
X47073Y-43629D01*
X47062Y-43606D01*
X47051Y-43595D01*
X47028Y-43584D01*
G54D19*
X46963Y-42450D02*
X47038Y-42450D01*
X47008Y-42516D02*
X47038Y-42450D01*
X47008Y-42385D01*
X47098Y-42490D02*
X47038Y-42450D01*
X47098Y-42411D01*
G54D10*
X45596Y-39670D02*
X45584Y-39682D01*
X45551Y-39693D01*
X45528Y-39693D01*
X45494Y-39682D01*
X45472Y-39659D01*
X45461Y-39637D01*
X45449Y-39592D01*
X45449Y-39558D01*
X45461Y-39513D01*
X45472Y-39491D01*
X45494Y-39468D01*
X45528Y-39457D01*
X45551Y-39457D01*
X45584Y-39468D01*
X45596Y-39479D01*
X45798Y-39457D02*
X45753Y-39457D01*
X45731Y-39468D01*
X45719Y-39479D01*
X45697Y-39513D01*
X45686Y-39558D01*
X45686Y-39648D01*
X45697Y-39670D01*
X45708Y-39682D01*
X45731Y-39693D01*
X45776Y-39693D01*
X45798Y-39682D01*
X45809Y-39670D01*
X45821Y-39648D01*
X45821Y-39592D01*
X45809Y-39569D01*
X45798Y-39558D01*
X45776Y-39547D01*
X45731Y-39547D01*
X45708Y-39558D01*
X45697Y-39569D01*
X45686Y-39592D01*
X46023Y-39535D02*
X46023Y-39693D01*
X45967Y-39446D02*
X45911Y-39614D01*
X46057Y-39614D01*
X44419Y-46423D02*
X44430Y-46434D01*
X44441Y-46468D01*
X44441Y-46491D01*
X44430Y-46524D01*
X44407Y-46547D01*
X44385Y-46558D01*
X44340Y-46569D01*
X44306Y-46569D01*
X44261Y-46558D01*
X44239Y-46547D01*
X44216Y-46524D01*
X44205Y-46491D01*
X44205Y-46468D01*
X44216Y-46434D01*
X44227Y-46423D01*
X44205Y-46221D02*
X44205Y-46266D01*
X44216Y-46288D01*
X44227Y-46299D01*
X44261Y-46322D01*
X44306Y-46333D01*
X44396Y-46333D01*
X44419Y-46322D01*
X44430Y-46311D01*
X44441Y-46288D01*
X44441Y-46243D01*
X44430Y-46221D01*
X44419Y-46209D01*
X44396Y-46198D01*
X44340Y-46198D01*
X44317Y-46209D01*
X44306Y-46221D01*
X44295Y-46243D01*
X44295Y-46288D01*
X44306Y-46311D01*
X44317Y-46322D01*
X44340Y-46333D01*
X44205Y-46119D02*
X44205Y-45973D01*
X44295Y-46052D01*
X44295Y-46018D01*
X44306Y-45996D01*
X44317Y-45984D01*
X44340Y-45973D01*
X44396Y-45973D01*
X44419Y-45984D01*
X44430Y-45996D01*
X44441Y-46018D01*
X44441Y-46086D01*
X44430Y-46108D01*
X44419Y-46119D01*
X46019Y-42544D02*
X46008Y-42556D01*
X45974Y-42567D01*
X45951Y-42567D01*
X45918Y-42556D01*
X45895Y-42533D01*
X45884Y-42511D01*
X45873Y-42466D01*
X45873Y-42432D01*
X45884Y-42387D01*
X45895Y-42365D01*
X45918Y-42342D01*
X45951Y-42331D01*
X45974Y-42331D01*
X46008Y-42342D01*
X46019Y-42353D01*
X46221Y-42331D02*
X46176Y-42331D01*
X46154Y-42342D01*
X46143Y-42353D01*
X46120Y-42387D01*
X46109Y-42432D01*
X46109Y-42522D01*
X46120Y-42544D01*
X46131Y-42556D01*
X46154Y-42567D01*
X46199Y-42567D01*
X46221Y-42556D01*
X46233Y-42544D01*
X46244Y-42522D01*
X46244Y-42466D01*
X46233Y-42443D01*
X46221Y-42432D01*
X46199Y-42421D01*
X46154Y-42421D01*
X46131Y-42432D01*
X46120Y-42443D01*
X46109Y-42466D01*
X46334Y-42353D02*
X46345Y-42342D01*
X46368Y-42331D01*
X46424Y-42331D01*
X46446Y-42342D01*
X46458Y-42353D01*
X46469Y-42376D01*
X46469Y-42398D01*
X46458Y-42432D01*
X46323Y-42567D01*
X46469Y-42567D01*
X46019Y-43194D02*
X46008Y-43205D01*
X45974Y-43217D01*
X45951Y-43217D01*
X45918Y-43205D01*
X45895Y-43183D01*
X45884Y-43160D01*
X45873Y-43115D01*
X45873Y-43082D01*
X45884Y-43037D01*
X45895Y-43014D01*
X45918Y-42992D01*
X45951Y-42980D01*
X45974Y-42980D01*
X46008Y-42992D01*
X46019Y-43003D01*
X46221Y-42980D02*
X46176Y-42980D01*
X46154Y-42992D01*
X46143Y-43003D01*
X46120Y-43037D01*
X46109Y-43082D01*
X46109Y-43172D01*
X46120Y-43194D01*
X46131Y-43205D01*
X46154Y-43217D01*
X46199Y-43217D01*
X46221Y-43205D01*
X46233Y-43194D01*
X46244Y-43172D01*
X46244Y-43115D01*
X46233Y-43093D01*
X46221Y-43082D01*
X46199Y-43070D01*
X46154Y-43070D01*
X46131Y-43082D01*
X46120Y-43093D01*
X46109Y-43115D01*
X46469Y-43217D02*
X46334Y-43217D01*
X46401Y-43217D02*
X46401Y-42980D01*
X46379Y-43014D01*
X46356Y-43037D01*
X46334Y-43048D01*
X45842Y-41716D02*
X45853Y-41728D01*
X45864Y-41761D01*
X45864Y-41784D01*
X45853Y-41818D01*
X45830Y-41840D01*
X45808Y-41851D01*
X45763Y-41863D01*
X45729Y-41863D01*
X45684Y-41851D01*
X45662Y-41840D01*
X45639Y-41818D01*
X45628Y-41784D01*
X45628Y-41761D01*
X45639Y-41728D01*
X45651Y-41716D01*
X45628Y-41514D02*
X45628Y-41559D01*
X45639Y-41581D01*
X45651Y-41593D01*
X45684Y-41615D01*
X45729Y-41626D01*
X45819Y-41626D01*
X45842Y-41615D01*
X45853Y-41604D01*
X45864Y-41581D01*
X45864Y-41536D01*
X45853Y-41514D01*
X45842Y-41503D01*
X45819Y-41491D01*
X45763Y-41491D01*
X45741Y-41503D01*
X45729Y-41514D01*
X45718Y-41536D01*
X45718Y-41581D01*
X45729Y-41604D01*
X45741Y-41615D01*
X45763Y-41626D01*
X45628Y-41278D02*
X45628Y-41390D01*
X45741Y-41401D01*
X45729Y-41390D01*
X45718Y-41368D01*
X45718Y-41311D01*
X45729Y-41289D01*
X45741Y-41278D01*
X45763Y-41266D01*
X45819Y-41266D01*
X45842Y-41278D01*
X45853Y-41289D01*
X45864Y-41311D01*
X45864Y-41368D01*
X45853Y-41390D01*
X45842Y-41401D01*
X43952Y-43361D02*
X43941Y-43373D01*
X43907Y-43384D01*
X43884Y-43384D01*
X43851Y-43373D01*
X43828Y-43350D01*
X43817Y-43328D01*
X43806Y-43283D01*
X43806Y-43249D01*
X43817Y-43204D01*
X43828Y-43181D01*
X43851Y-43159D01*
X43884Y-43148D01*
X43907Y-43148D01*
X43941Y-43159D01*
X43952Y-43170D01*
X44154Y-43148D02*
X44109Y-43148D01*
X44087Y-43159D01*
X44076Y-43170D01*
X44053Y-43204D01*
X44042Y-43249D01*
X44042Y-43339D01*
X44053Y-43361D01*
X44064Y-43373D01*
X44087Y-43384D01*
X44132Y-43384D01*
X44154Y-43373D01*
X44166Y-43361D01*
X44177Y-43339D01*
X44177Y-43283D01*
X44166Y-43260D01*
X44154Y-43249D01*
X44132Y-43238D01*
X44087Y-43238D01*
X44064Y-43249D01*
X44053Y-43260D01*
X44042Y-43283D01*
X44379Y-43148D02*
X44334Y-43148D01*
X44312Y-43159D01*
X44301Y-43170D01*
X44278Y-43204D01*
X44267Y-43249D01*
X44267Y-43339D01*
X44278Y-43361D01*
X44289Y-43373D01*
X44312Y-43384D01*
X44357Y-43384D01*
X44379Y-43373D01*
X44391Y-43361D01*
X44402Y-43339D01*
X44402Y-43283D01*
X44391Y-43260D01*
X44379Y-43249D01*
X44357Y-43238D01*
X44312Y-43238D01*
X44289Y-43249D01*
X44278Y-43260D01*
X44267Y-43283D01*
G54D20*
X52909Y-31995D02*
X52778Y-32099D01*
X52909Y-32174D02*
X52634Y-32174D01*
X52634Y-32054D01*
X52647Y-32024D01*
X52661Y-32010D01*
X52687Y-31995D01*
X52726Y-31995D01*
X52752Y-32010D01*
X52765Y-32024D01*
X52778Y-32054D01*
X52778Y-32174D01*
X52909Y-31696D02*
X52909Y-31875D01*
X52909Y-31785D02*
X52634Y-31785D01*
X52674Y-31815D01*
X52700Y-31845D01*
X52713Y-31875D01*
X52634Y-31591D02*
X52634Y-31396D01*
X52739Y-31501D01*
X52739Y-31456D01*
X52752Y-31426D01*
X52765Y-31411D01*
X52791Y-31396D01*
X52857Y-31396D01*
X52883Y-31411D01*
X52896Y-31426D01*
X52909Y-31456D01*
X52909Y-31546D01*
X52896Y-31576D01*
X52883Y-31591D01*
X52661Y-31277D02*
X52647Y-31262D01*
X52634Y-31232D01*
X52634Y-31157D01*
X52647Y-31127D01*
X52661Y-31112D01*
X52687Y-31097D01*
X52713Y-31097D01*
X52752Y-31112D01*
X52909Y-31292D01*
X52909Y-31097D01*
X51886Y-31995D02*
X51755Y-32099D01*
X51886Y-32174D02*
X51611Y-32174D01*
X51611Y-32054D01*
X51624Y-32024D01*
X51637Y-32010D01*
X51663Y-31995D01*
X51702Y-31995D01*
X51729Y-32010D01*
X51742Y-32024D01*
X51755Y-32054D01*
X51755Y-32174D01*
X51886Y-31696D02*
X51886Y-31875D01*
X51886Y-31785D02*
X51611Y-31785D01*
X51650Y-31815D01*
X51676Y-31845D01*
X51689Y-31875D01*
X51611Y-31591D02*
X51611Y-31396D01*
X51715Y-31501D01*
X51715Y-31456D01*
X51729Y-31426D01*
X51742Y-31411D01*
X51768Y-31396D01*
X51833Y-31396D01*
X51860Y-31411D01*
X51873Y-31426D01*
X51886Y-31456D01*
X51886Y-31546D01*
X51873Y-31576D01*
X51860Y-31591D01*
X51611Y-31292D02*
X51611Y-31097D01*
X51715Y-31202D01*
X51715Y-31157D01*
X51729Y-31127D01*
X51742Y-31112D01*
X51768Y-31097D01*
X51833Y-31097D01*
X51860Y-31112D01*
X51873Y-31127D01*
X51886Y-31157D01*
X51886Y-31247D01*
X51873Y-31277D01*
X51860Y-31292D01*
X46522Y-46982D02*
X46417Y-46851D01*
X46343Y-46982D02*
X46343Y-46707D01*
X46462Y-46707D01*
X46492Y-46720D01*
X46507Y-46733D01*
X46522Y-46760D01*
X46522Y-46799D01*
X46507Y-46825D01*
X46492Y-46838D01*
X46462Y-46851D01*
X46343Y-46851D01*
X46791Y-46799D02*
X46791Y-46982D01*
X46716Y-46694D02*
X46642Y-46891D01*
X46836Y-46891D01*
X44494Y-46990D02*
X44390Y-46859D01*
X44315Y-46990D02*
X44315Y-46715D01*
X44435Y-46715D01*
X44465Y-46728D01*
X44479Y-46741D01*
X44494Y-46767D01*
X44494Y-46807D01*
X44479Y-46833D01*
X44465Y-46846D01*
X44435Y-46859D01*
X44315Y-46859D01*
X44599Y-46715D02*
X44793Y-46715D01*
X44689Y-46820D01*
X44734Y-46820D01*
X44764Y-46833D01*
X44779Y-46846D01*
X44793Y-46872D01*
X44793Y-46938D01*
X44779Y-46964D01*
X44764Y-46977D01*
X44734Y-46990D01*
X44644Y-46990D01*
X44614Y-46977D01*
X44599Y-46964D01*
G54D10*
X43459Y-43731D02*
X43459Y-44049D01*
X43478Y-44087D01*
X43496Y-44106D01*
X43534Y-44124D01*
X43609Y-44124D01*
X43646Y-44106D01*
X43665Y-44087D01*
X43684Y-44049D01*
X43684Y-43731D01*
X44078Y-44124D02*
X43853Y-44124D01*
X43965Y-44124D02*
X43965Y-43731D01*
X43928Y-43787D01*
X43890Y-43824D01*
X43853Y-43843D01*
X44415Y-43731D02*
X44340Y-43731D01*
X44303Y-43750D01*
X44284Y-43768D01*
X44246Y-43824D01*
X44228Y-43899D01*
X44228Y-44049D01*
X44246Y-44087D01*
X44265Y-44106D01*
X44303Y-44124D01*
X44378Y-44124D01*
X44415Y-44106D01*
X44434Y-44087D01*
X44453Y-44049D01*
X44453Y-43956D01*
X44434Y-43918D01*
X44415Y-43899D01*
X44378Y-43881D01*
X44303Y-43881D01*
X44265Y-43899D01*
X44246Y-43918D01*
X44228Y-43956D01*
X44232Y-44315D02*
X44232Y-44390D01*
X44157Y-44360D02*
X44232Y-44390D01*
X44307Y-44360D01*
X44187Y-44450D02*
X44232Y-44390D01*
X44277Y-44450D01*
X43497Y-49154D02*
X43497Y-48929D01*
X43890Y-49041D02*
X43497Y-49041D01*
X43890Y-48798D02*
X43497Y-48798D01*
X43497Y-48648D01*
X43515Y-48610D01*
X43534Y-48591D01*
X43571Y-48573D01*
X43628Y-48573D01*
X43665Y-48591D01*
X43684Y-48610D01*
X43703Y-48648D01*
X43703Y-48798D01*
X43497Y-48216D02*
X43497Y-48404D01*
X43684Y-48423D01*
X43665Y-48404D01*
X43646Y-48366D01*
X43646Y-48273D01*
X43665Y-48235D01*
X43684Y-48216D01*
X43721Y-48198D01*
X43815Y-48198D01*
X43853Y-48216D01*
X43871Y-48235D01*
X43890Y-48273D01*
X43890Y-48366D01*
X43871Y-48404D01*
X43853Y-48423D01*
X53774Y-47248D02*
X53774Y-47567D01*
X53793Y-47605D01*
X53812Y-47623D01*
X53849Y-47642D01*
X53924Y-47642D01*
X53962Y-47623D01*
X53981Y-47605D01*
X53999Y-47567D01*
X53999Y-47248D01*
X54149Y-47248D02*
X54393Y-47248D01*
X54262Y-47398D01*
X54318Y-47398D01*
X54356Y-47417D01*
X54374Y-47436D01*
X54393Y-47473D01*
X54393Y-47567D01*
X54374Y-47605D01*
X54356Y-47623D01*
X54318Y-47642D01*
X54206Y-47642D01*
X54168Y-47623D01*
X54149Y-47605D01*
X53066Y-48331D02*
X53066Y-48425D01*
X52973Y-48387D02*
X53066Y-48425D01*
X53160Y-48387D01*
X53010Y-48500D02*
X53066Y-48425D01*
X53123Y-48500D01*
X62081Y-47237D02*
X62081Y-47555D01*
X62100Y-47593D01*
X62119Y-47612D01*
X62156Y-47630D01*
X62231Y-47630D01*
X62269Y-47612D01*
X62288Y-47593D01*
X62306Y-47555D01*
X62306Y-47237D01*
X62681Y-47237D02*
X62494Y-47237D01*
X62475Y-47424D01*
X62494Y-47405D01*
X62531Y-47387D01*
X62625Y-47387D01*
X62663Y-47405D01*
X62681Y-47424D01*
X62700Y-47462D01*
X62700Y-47555D01*
X62681Y-47593D01*
X62663Y-47612D01*
X62625Y-47630D01*
X62531Y-47630D01*
X62494Y-47612D01*
X62475Y-47593D01*
X61444Y-48591D02*
X61444Y-48685D01*
X61351Y-48647D02*
X61444Y-48685D01*
X61538Y-48647D01*
X61388Y-48760D02*
X61444Y-48685D01*
X61501Y-48760D01*
X43836Y-32387D02*
X43855Y-32330D01*
X43855Y-32237D01*
X43836Y-32199D01*
X43817Y-32180D01*
X43780Y-32162D01*
X43742Y-32162D01*
X43705Y-32180D01*
X43686Y-32199D01*
X43667Y-32237D01*
X43649Y-32312D01*
X43630Y-32349D01*
X43611Y-32368D01*
X43574Y-32387D01*
X43536Y-32387D01*
X43499Y-32368D01*
X43480Y-32349D01*
X43461Y-32312D01*
X43461Y-32218D01*
X43480Y-32162D01*
X43461Y-32030D02*
X43855Y-31937D01*
X43574Y-31862D01*
X43855Y-31787D01*
X43461Y-31693D01*
X43855Y-31337D02*
X43855Y-31562D01*
X43855Y-31449D02*
X43461Y-31449D01*
X43517Y-31487D01*
X43555Y-31524D01*
X43574Y-31562D01*
X46033Y-32434D02*
X46052Y-32378D01*
X46052Y-32284D01*
X46033Y-32246D01*
X46014Y-32228D01*
X45977Y-32209D01*
X45939Y-32209D01*
X45902Y-32228D01*
X45883Y-32246D01*
X45864Y-32284D01*
X45845Y-32359D01*
X45827Y-32396D01*
X45808Y-32415D01*
X45770Y-32434D01*
X45733Y-32434D01*
X45695Y-32415D01*
X45677Y-32396D01*
X45658Y-32359D01*
X45658Y-32265D01*
X45677Y-32209D01*
X45658Y-32078D02*
X46052Y-31984D01*
X45770Y-31909D01*
X46052Y-31834D01*
X45658Y-31740D01*
X45695Y-31609D02*
X45677Y-31590D01*
X45658Y-31553D01*
X45658Y-31459D01*
X45677Y-31422D01*
X45695Y-31403D01*
X45733Y-31384D01*
X45770Y-31384D01*
X45827Y-31403D01*
X46052Y-31628D01*
X46052Y-31384D01*
X44805Y-29118D02*
X44805Y-28882D01*
X44862Y-28882D01*
X44895Y-28893D01*
X44918Y-28916D01*
X44929Y-28938D01*
X44940Y-28983D01*
X44940Y-29017D01*
X44929Y-29062D01*
X44918Y-29084D01*
X44895Y-29107D01*
X44862Y-29118D01*
X44805Y-29118D01*
X45019Y-28882D02*
X45165Y-28882D01*
X45087Y-28972D01*
X45120Y-28972D01*
X45143Y-28983D01*
X45154Y-28994D01*
X45165Y-29017D01*
X45165Y-29073D01*
X45154Y-29096D01*
X45143Y-29107D01*
X45120Y-29118D01*
X45053Y-29118D01*
X45030Y-29107D01*
X45019Y-29096D01*
G54D19*
X45531Y-29236D02*
X45531Y-29311D01*
X45465Y-29281D02*
X45531Y-29311D01*
X45597Y-29281D01*
X45492Y-29371D02*
X45531Y-29311D01*
X45570Y-29371D01*
G54D10*
X44805Y-29768D02*
X44805Y-29532D01*
X44862Y-29532D01*
X44895Y-29543D01*
X44918Y-29565D01*
X44929Y-29588D01*
X44940Y-29633D01*
X44940Y-29667D01*
X44929Y-29712D01*
X44918Y-29734D01*
X44895Y-29757D01*
X44862Y-29768D01*
X44805Y-29768D01*
X45143Y-29610D02*
X45143Y-29768D01*
X45087Y-29520D02*
X45030Y-29689D01*
X45177Y-29689D01*
G54D19*
X45531Y-29886D02*
X45531Y-29961D01*
X45465Y-29931D02*
X45531Y-29961D01*
X45597Y-29931D01*
X45492Y-30021D02*
X45531Y-29961D01*
X45570Y-30021D01*
G54D10*
X44805Y-30417D02*
X44805Y-30181D01*
X44862Y-30181D01*
X44895Y-30192D01*
X44918Y-30215D01*
X44929Y-30237D01*
X44940Y-30282D01*
X44940Y-30316D01*
X44929Y-30361D01*
X44918Y-30384D01*
X44895Y-30406D01*
X44862Y-30417D01*
X44805Y-30417D01*
X45154Y-30181D02*
X45042Y-30181D01*
X45030Y-30294D01*
X45042Y-30282D01*
X45064Y-30271D01*
X45120Y-30271D01*
X45143Y-30282D01*
X45154Y-30294D01*
X45165Y-30316D01*
X45165Y-30372D01*
X45154Y-30395D01*
X45143Y-30406D01*
X45120Y-30417D01*
X45064Y-30417D01*
X45042Y-30406D01*
X45030Y-30395D01*
G54D19*
X45531Y-30536D02*
X45531Y-30611D01*
X45465Y-30581D02*
X45531Y-30611D01*
X45597Y-30581D01*
X45492Y-30671D02*
X45531Y-30611D01*
X45570Y-30671D01*
G54D10*
X46183Y-29114D02*
X46183Y-28878D01*
X46240Y-28878D01*
X46273Y-28889D01*
X46296Y-28912D01*
X46307Y-28934D01*
X46318Y-28979D01*
X46318Y-29013D01*
X46307Y-29058D01*
X46296Y-29080D01*
X46273Y-29103D01*
X46240Y-29114D01*
X46183Y-29114D01*
X46521Y-28878D02*
X46476Y-28878D01*
X46453Y-28889D01*
X46442Y-28901D01*
X46420Y-28934D01*
X46408Y-28979D01*
X46408Y-29069D01*
X46420Y-29092D01*
X46431Y-29103D01*
X46453Y-29114D01*
X46498Y-29114D01*
X46521Y-29103D01*
X46532Y-29092D01*
X46543Y-29069D01*
X46543Y-29013D01*
X46532Y-28991D01*
X46521Y-28979D01*
X46498Y-28968D01*
X46453Y-28968D01*
X46431Y-28979D01*
X46420Y-28991D01*
X46408Y-29013D01*
G54D19*
X45807Y-29040D02*
X45807Y-29115D01*
X45741Y-29085D02*
X45807Y-29115D01*
X45872Y-29085D01*
X45767Y-29175D02*
X45807Y-29115D01*
X45846Y-29175D01*
G54D10*
X46183Y-29780D02*
X46183Y-29543D01*
X46240Y-29543D01*
X46273Y-29555D01*
X46296Y-29577D01*
X46307Y-29600D01*
X46318Y-29645D01*
X46318Y-29678D01*
X46307Y-29723D01*
X46296Y-29746D01*
X46273Y-29768D01*
X46240Y-29780D01*
X46183Y-29780D01*
X46397Y-29543D02*
X46555Y-29543D01*
X46453Y-29780D01*
G54D19*
X45807Y-29689D02*
X45807Y-29764D01*
X45741Y-29734D02*
X45807Y-29764D01*
X45872Y-29734D01*
X45767Y-29824D02*
X45807Y-29764D01*
X45846Y-29824D01*
G54D10*
X46183Y-30429D02*
X46183Y-30193D01*
X46240Y-30193D01*
X46273Y-30204D01*
X46296Y-30227D01*
X46307Y-30249D01*
X46318Y-30294D01*
X46318Y-30328D01*
X46307Y-30373D01*
X46296Y-30395D01*
X46273Y-30418D01*
X46240Y-30429D01*
X46183Y-30429D01*
X46453Y-30294D02*
X46431Y-30283D01*
X46420Y-30272D01*
X46408Y-30249D01*
X46408Y-30238D01*
X46420Y-30215D01*
X46431Y-30204D01*
X46453Y-30193D01*
X46498Y-30193D01*
X46521Y-30204D01*
X46532Y-30215D01*
X46543Y-30238D01*
X46543Y-30249D01*
X46532Y-30272D01*
X46521Y-30283D01*
X46498Y-30294D01*
X46453Y-30294D01*
X46431Y-30305D01*
X46420Y-30317D01*
X46408Y-30339D01*
X46408Y-30384D01*
X46420Y-30407D01*
X46431Y-30418D01*
X46453Y-30429D01*
X46498Y-30429D01*
X46521Y-30418D01*
X46532Y-30407D01*
X46543Y-30384D01*
X46543Y-30339D01*
X46532Y-30317D01*
X46521Y-30305D01*
X46498Y-30294D01*
G54D19*
X45807Y-30339D02*
X45807Y-30414D01*
X45741Y-30384D02*
X45807Y-30414D01*
X45872Y-30384D01*
X45767Y-30474D02*
X45807Y-30414D01*
X45846Y-30474D01*
G54D10*
X45183Y-38622D02*
X45445Y-39016D01*
X45445Y-38622D02*
X45183Y-39016D01*
X45558Y-38622D02*
X45820Y-38622D01*
X45651Y-39016D01*
X46364Y-33092D02*
X46421Y-33111D01*
X46514Y-33111D01*
X46552Y-33092D01*
X46571Y-33073D01*
X46589Y-33036D01*
X46589Y-32998D01*
X46571Y-32961D01*
X46552Y-32942D01*
X46514Y-32923D01*
X46439Y-32904D01*
X46402Y-32886D01*
X46383Y-32867D01*
X46364Y-32829D01*
X46364Y-32792D01*
X46383Y-32754D01*
X46402Y-32736D01*
X46439Y-32717D01*
X46533Y-32717D01*
X46589Y-32736D01*
X46721Y-32717D02*
X46814Y-33111D01*
X46889Y-32829D01*
X46964Y-33111D01*
X47058Y-32717D01*
X47170Y-32717D02*
X47414Y-32717D01*
X47283Y-32867D01*
X47339Y-32867D01*
X47377Y-32886D01*
X47395Y-32904D01*
X47414Y-32942D01*
X47414Y-33036D01*
X47395Y-33073D01*
X47377Y-33092D01*
X47339Y-33111D01*
X47227Y-33111D01*
X47189Y-33092D01*
X47170Y-33073D01*
X45959Y-34461D02*
X45944Y-34446D01*
X45929Y-34416D01*
X45929Y-34341D01*
X45944Y-34311D01*
X45959Y-34296D01*
X45989Y-34281D01*
X46019Y-34281D01*
X46064Y-34296D01*
X46244Y-34476D01*
X46244Y-34281D01*
X46274Y-34221D02*
X46274Y-33982D01*
X45929Y-33907D02*
X46184Y-33907D01*
X46214Y-33892D01*
X46229Y-33877D01*
X46244Y-33847D01*
X46244Y-33787D01*
X46229Y-33757D01*
X46214Y-33742D01*
X46184Y-33727D01*
X45929Y-33727D01*
X45959Y-33592D02*
X45944Y-33577D01*
X45929Y-33547D01*
X45929Y-33472D01*
X45944Y-33442D01*
X45959Y-33427D01*
X45989Y-33412D01*
X46019Y-33412D01*
X46064Y-33427D01*
X46244Y-33607D01*
X46244Y-33412D01*
X46303Y-35095D02*
X46303Y-35275D01*
X46303Y-35185D02*
X45988Y-35185D01*
X46033Y-35215D01*
X46063Y-35245D01*
X46078Y-35275D01*
X45969Y-36996D02*
X45969Y-36801D01*
X46089Y-36906D01*
X46089Y-36861D01*
X46104Y-36831D01*
X46119Y-36816D01*
X46149Y-36801D01*
X46224Y-36801D01*
X46254Y-36816D01*
X46269Y-36831D01*
X46284Y-36861D01*
X46284Y-36951D01*
X46269Y-36981D01*
X46254Y-36996D01*
X46314Y-36741D02*
X46314Y-36501D01*
X45969Y-36426D02*
X46224Y-36426D01*
X46254Y-36411D01*
X46269Y-36396D01*
X46284Y-36366D01*
X46284Y-36306D01*
X46269Y-36276D01*
X46254Y-36261D01*
X46224Y-36246D01*
X45969Y-36246D01*
X46284Y-35931D02*
X46284Y-36111D01*
X46284Y-36021D02*
X45969Y-36021D01*
X46014Y-36051D01*
X46044Y-36081D01*
X46059Y-36111D01*
G54D20*
X47722Y-50300D02*
X47591Y-50404D01*
X47722Y-50479D02*
X47447Y-50479D01*
X47447Y-50360D01*
X47460Y-50330D01*
X47474Y-50315D01*
X47500Y-50300D01*
X47539Y-50300D01*
X47565Y-50315D01*
X47578Y-50330D01*
X47591Y-50360D01*
X47591Y-50479D01*
X47722Y-50001D02*
X47722Y-50180D01*
X47722Y-50090D02*
X47447Y-50090D01*
X47487Y-50120D01*
X47513Y-50150D01*
X47526Y-50180D01*
X47447Y-49896D02*
X47447Y-49702D01*
X47552Y-49806D01*
X47552Y-49761D01*
X47565Y-49732D01*
X47578Y-49717D01*
X47604Y-49702D01*
X47670Y-49702D01*
X47696Y-49717D01*
X47709Y-49732D01*
X47722Y-49761D01*
X47722Y-49851D01*
X47709Y-49881D01*
X47696Y-49896D01*
X47447Y-49418D02*
X47447Y-49567D01*
X47578Y-49582D01*
X47565Y-49567D01*
X47552Y-49537D01*
X47552Y-49462D01*
X47565Y-49432D01*
X47578Y-49418D01*
X47604Y-49403D01*
X47670Y-49403D01*
X47696Y-49418D01*
X47709Y-49432D01*
X47722Y-49462D01*
X47722Y-49537D01*
X47709Y-49567D01*
X47696Y-49582D01*
X63770Y-44844D02*
X63967Y-44844D01*
X64006Y-44859D01*
X64032Y-44889D01*
X64045Y-44934D01*
X64045Y-44964D01*
X64045Y-44530D02*
X64045Y-44710D01*
X64045Y-44620D02*
X63770Y-44620D01*
X63809Y-44650D01*
X63836Y-44680D01*
X63849Y-44710D01*
G54D21*
X64008Y-42618D02*
X64022Y-42573D01*
X64022Y-42499D01*
X64008Y-42469D01*
X63995Y-42454D01*
X63969Y-42439D01*
X63943Y-42439D01*
X63917Y-42454D01*
X63904Y-42469D01*
X63891Y-42499D01*
X63877Y-42558D01*
X63864Y-42588D01*
X63851Y-42603D01*
X63825Y-42618D01*
X63799Y-42618D01*
X63773Y-42603D01*
X63760Y-42588D01*
X63747Y-42558D01*
X63747Y-42484D01*
X63760Y-42439D01*
X64022Y-42305D02*
X63747Y-42305D01*
X63747Y-42186D01*
X63760Y-42156D01*
X63773Y-42141D01*
X63799Y-42126D01*
X63838Y-42126D01*
X63864Y-42141D01*
X63877Y-42156D01*
X63891Y-42186D01*
X63891Y-42305D01*
X64022Y-41992D02*
X63747Y-41992D01*
X64048Y-41918D02*
X64048Y-41679D01*
X64008Y-41619D02*
X64022Y-41575D01*
X64022Y-41500D01*
X64008Y-41470D01*
X63995Y-41456D01*
X63969Y-41441D01*
X63943Y-41441D01*
X63917Y-41456D01*
X63904Y-41470D01*
X63891Y-41500D01*
X63877Y-41560D01*
X63864Y-41590D01*
X63851Y-41605D01*
X63825Y-41619D01*
X63799Y-41619D01*
X63773Y-41605D01*
X63760Y-41590D01*
X63747Y-41560D01*
X63747Y-41485D01*
X63760Y-41441D01*
X63877Y-41202D02*
X63877Y-41306D01*
X64022Y-41306D02*
X63747Y-41306D01*
X63747Y-41157D01*
X64022Y-40889D02*
X64022Y-41038D01*
X63747Y-41038D01*
X63943Y-40800D02*
X63943Y-40651D01*
X64022Y-40830D02*
X63747Y-40725D01*
X64022Y-40621D01*
X64008Y-40531D02*
X64022Y-40487D01*
X64022Y-40412D01*
X64008Y-40382D01*
X63995Y-40367D01*
X63969Y-40353D01*
X63943Y-40353D01*
X63917Y-40367D01*
X63904Y-40382D01*
X63891Y-40412D01*
X63877Y-40472D01*
X63864Y-40502D01*
X63851Y-40517D01*
X63825Y-40531D01*
X63799Y-40531D01*
X63773Y-40517D01*
X63760Y-40502D01*
X63747Y-40472D01*
X63747Y-40397D01*
X63760Y-40353D01*
X64022Y-40218D02*
X63747Y-40218D01*
X63877Y-40218D02*
X63877Y-40040D01*
X64022Y-40040D02*
X63747Y-40040D01*
X64048Y-39965D02*
X64048Y-39727D01*
X63747Y-39697D02*
X63747Y-39518D01*
X64022Y-39607D02*
X63747Y-39607D01*
X64022Y-39443D02*
X63838Y-39279D01*
X63838Y-39443D02*
X64022Y-39279D01*
G54D20*
X63530Y-32994D02*
X63726Y-32994D01*
X63766Y-33009D01*
X63792Y-33039D01*
X63805Y-33084D01*
X63805Y-33114D01*
X63556Y-32859D02*
X63543Y-32844D01*
X63530Y-32815D01*
X63530Y-32740D01*
X63543Y-32710D01*
X63556Y-32695D01*
X63582Y-32680D01*
X63609Y-32680D01*
X63648Y-32695D01*
X63805Y-32874D01*
X63805Y-32680D01*
G54D21*
X63902Y-38155D02*
X63915Y-38111D01*
X63915Y-38036D01*
X63902Y-38006D01*
X63889Y-37991D01*
X63863Y-37976D01*
X63837Y-37976D01*
X63810Y-37991D01*
X63797Y-38006D01*
X63784Y-38036D01*
X63771Y-38096D01*
X63758Y-38126D01*
X63745Y-38140D01*
X63719Y-38155D01*
X63693Y-38155D01*
X63666Y-38140D01*
X63653Y-38126D01*
X63640Y-38096D01*
X63640Y-38021D01*
X63653Y-37976D01*
X63915Y-37842D02*
X63640Y-37842D01*
X63640Y-37723D01*
X63653Y-37693D01*
X63666Y-37678D01*
X63693Y-37663D01*
X63732Y-37663D01*
X63758Y-37678D01*
X63771Y-37693D01*
X63784Y-37723D01*
X63784Y-37842D01*
X63915Y-37529D02*
X63640Y-37529D01*
X63941Y-37455D02*
X63941Y-37216D01*
X63902Y-37157D02*
X63915Y-37112D01*
X63915Y-37037D01*
X63902Y-37008D01*
X63889Y-36993D01*
X63863Y-36978D01*
X63837Y-36978D01*
X63810Y-36993D01*
X63797Y-37008D01*
X63784Y-37037D01*
X63771Y-37097D01*
X63758Y-37127D01*
X63745Y-37142D01*
X63719Y-37157D01*
X63693Y-37157D01*
X63666Y-37142D01*
X63653Y-37127D01*
X63640Y-37097D01*
X63640Y-37023D01*
X63653Y-36978D01*
X63771Y-36739D02*
X63771Y-36844D01*
X63915Y-36844D02*
X63640Y-36844D01*
X63640Y-36695D01*
X63915Y-36426D02*
X63915Y-36575D01*
X63640Y-36575D01*
X63837Y-36337D02*
X63837Y-36188D01*
X63915Y-36367D02*
X63640Y-36262D01*
X63915Y-36158D01*
X63902Y-36069D02*
X63915Y-36024D01*
X63915Y-35949D01*
X63902Y-35920D01*
X63889Y-35905D01*
X63863Y-35890D01*
X63837Y-35890D01*
X63810Y-35905D01*
X63797Y-35920D01*
X63784Y-35949D01*
X63771Y-36009D01*
X63758Y-36039D01*
X63745Y-36054D01*
X63719Y-36069D01*
X63693Y-36069D01*
X63666Y-36054D01*
X63653Y-36039D01*
X63640Y-36009D01*
X63640Y-35935D01*
X63653Y-35890D01*
X63915Y-35756D02*
X63640Y-35756D01*
X63771Y-35756D02*
X63771Y-35577D01*
X63915Y-35577D02*
X63640Y-35577D01*
X63941Y-35502D02*
X63941Y-35264D01*
X63915Y-35010D02*
X63784Y-35115D01*
X63915Y-35189D02*
X63640Y-35189D01*
X63640Y-35070D01*
X63653Y-35040D01*
X63666Y-35025D01*
X63693Y-35010D01*
X63732Y-35010D01*
X63758Y-35025D01*
X63771Y-35040D01*
X63784Y-35070D01*
X63784Y-35189D01*
X63915Y-34906D02*
X63732Y-34742D01*
X63732Y-34906D02*
X63915Y-34742D01*
G54D10*
X63413Y-44587D02*
X63301Y-44665D01*
X63413Y-44722D02*
X63177Y-44722D01*
X63177Y-44632D01*
X63188Y-44609D01*
X63200Y-44598D01*
X63222Y-44587D01*
X63256Y-44587D01*
X63278Y-44598D01*
X63290Y-44609D01*
X63301Y-44632D01*
X63301Y-44722D01*
X63413Y-44362D02*
X63413Y-44497D01*
X63413Y-44429D02*
X63177Y-44429D01*
X63211Y-44452D01*
X63233Y-44474D01*
X63245Y-44497D01*
X63177Y-44283D02*
X63177Y-44137D01*
X63267Y-44215D01*
X63267Y-44182D01*
X63278Y-44159D01*
X63290Y-44148D01*
X63312Y-44137D01*
X63368Y-44137D01*
X63391Y-44148D01*
X63402Y-44159D01*
X63413Y-44182D01*
X63413Y-44249D01*
X63402Y-44272D01*
X63391Y-44283D01*
X63177Y-43934D02*
X63177Y-43979D01*
X63188Y-44002D01*
X63200Y-44013D01*
X63233Y-44035D01*
X63278Y-44047D01*
X63368Y-44047D01*
X63391Y-44035D01*
X63402Y-44024D01*
X63413Y-44002D01*
X63413Y-43957D01*
X63402Y-43934D01*
X63391Y-43923D01*
X63368Y-43912D01*
X63312Y-43912D01*
X63290Y-43923D01*
X63278Y-43934D01*
X63267Y-43957D01*
X63267Y-44002D01*
X63278Y-44024D01*
X63290Y-44035D01*
X63312Y-44047D01*
X63138Y-33327D02*
X63025Y-33406D01*
X63138Y-33462D02*
X62902Y-33462D01*
X62902Y-33372D01*
X62913Y-33349D01*
X62924Y-33338D01*
X62947Y-33327D01*
X62980Y-33327D01*
X63003Y-33338D01*
X63014Y-33349D01*
X63025Y-33372D01*
X63025Y-33462D01*
X63138Y-33102D02*
X63138Y-33237D01*
X63138Y-33169D02*
X62902Y-33169D01*
X62935Y-33192D01*
X62958Y-33214D01*
X62969Y-33237D01*
X62902Y-33023D02*
X62902Y-32877D01*
X62992Y-32956D01*
X62992Y-32922D01*
X63003Y-32899D01*
X63014Y-32888D01*
X63037Y-32877D01*
X63093Y-32877D01*
X63115Y-32888D01*
X63127Y-32899D01*
X63138Y-32922D01*
X63138Y-32989D01*
X63127Y-33012D01*
X63115Y-33023D01*
X62902Y-32798D02*
X62902Y-32641D01*
X63138Y-32742D01*
M02*
