G04 (created by PCBNEW (2013-03-19 BZR 4004)-stable) date 5/31/2013 11:48:04 AM*
%MOIN*%
G04 Gerber Fmt 3.4, Leading zero omitted, Abs format*
%FSLAX34Y34*%
G01*
G70*
G90*
G04 APERTURE LIST*
%ADD10C,0.006*%
%ADD11C,0.00787402*%
%ADD12O,0.06X0.06*%
%ADD13C,0.06*%
%ADD14R,0.06X0.06*%
%ADD15O,0.0413386X0.0629921*%
%ADD16R,0.015748X0.0629921*%
%ADD17R,0.0591X0.0472*%
%ADD18R,0.0175X0.0195*%
%ADD19R,0.0195X0.0175*%
%ADD20R,0.0314X0.0314*%
%ADD21C,0.011811*%
%ADD22R,0.0195X0.0195*%
%ADD23R,0.063X0.0118*%
%ADD24R,0.063X0.0276*%
%ADD25R,0.122X0.063*%
%ADD26R,0.0551X0.0354*%
%ADD27R,0.0354X0.0551*%
%ADD28R,0.00787402X0.019685*%
%ADD29R,0.019685X0.00787402*%
%ADD30R,0.0826772X0.0826772*%
%ADD31R,0.015748X0.0265748*%
%ADD32R,0.00787402X0.0265748*%
%ADD33R,0.0314961X0.0669291*%
%ADD34R,0.0472441X0.0354331*%
%ADD35R,0.157126X0.062126*%
%ADD36R,0.157126X0.097126*%
%ADD37C,0.0590551*%
%ADD38O,0.06X0.1179*%
G04 APERTURE END LIST*
G54D10*
G54D11*
X43307Y-26771D02*
X43307Y-51181D01*
X66535Y-26771D02*
X43307Y-26771D01*
X66535Y-51181D02*
X43307Y-51181D01*
X66535Y-51181D02*
X66535Y-26771D01*
G54D12*
X45255Y-33633D03*
G54D13*
X44271Y-33633D03*
G54D14*
X45255Y-36688D03*
G54D13*
X44271Y-36688D03*
X44271Y-34704D03*
G54D12*
X45255Y-34704D03*
G54D13*
X44271Y-35688D03*
X45255Y-35688D03*
G54D15*
X58011Y-50423D03*
G54D16*
X62578Y-49370D03*
X62322Y-49370D03*
X62066Y-49370D03*
X61811Y-49370D03*
X61555Y-49370D03*
X58917Y-49370D03*
X59173Y-49370D03*
X59429Y-49370D03*
X59685Y-49370D03*
X59940Y-49370D03*
G54D15*
X62952Y-50423D03*
X49704Y-50423D03*
G54D16*
X54271Y-49370D03*
X54015Y-49370D03*
X53759Y-49370D03*
X53503Y-49370D03*
X53248Y-49370D03*
X50610Y-49370D03*
X50866Y-49370D03*
X51122Y-49370D03*
X51377Y-49370D03*
X51633Y-49370D03*
G54D15*
X54645Y-50423D03*
G54D17*
X46590Y-50314D03*
X44590Y-50314D03*
X44590Y-48582D03*
X46590Y-48582D03*
G54D18*
X47255Y-29960D03*
X47625Y-29960D03*
G54D19*
X63267Y-35464D03*
X63267Y-35834D03*
G54D18*
X47255Y-29311D03*
X47625Y-29311D03*
X43964Y-30610D03*
X43594Y-30610D03*
X47163Y-44734D03*
X46793Y-44734D03*
G54D19*
X44931Y-46084D03*
X44931Y-46454D03*
G54D18*
X47173Y-45098D03*
X46803Y-45098D03*
G54D19*
X47263Y-41769D03*
X47263Y-41399D03*
G54D18*
X47255Y-30610D03*
X47625Y-30610D03*
G54D19*
X63267Y-34810D03*
X63267Y-34440D03*
X46535Y-41767D03*
X46535Y-41397D03*
G54D18*
X60736Y-35984D03*
X60366Y-35984D03*
X60736Y-36811D03*
X60366Y-36811D03*
X60736Y-36417D03*
X60366Y-36417D03*
X60736Y-35157D03*
X60366Y-35157D03*
G54D19*
X45049Y-43181D03*
X45049Y-43551D03*
G54D18*
X46295Y-45535D03*
X46665Y-45535D03*
X54712Y-41141D03*
X54342Y-41141D03*
X47618Y-46661D03*
X47248Y-46661D03*
G54D19*
X46643Y-44210D03*
X46643Y-43840D03*
X57204Y-39381D03*
X57204Y-39751D03*
G54D18*
X54751Y-32637D03*
X54381Y-32637D03*
G54D19*
X56456Y-31917D03*
X56456Y-31547D03*
G54D18*
X54751Y-32283D03*
X54381Y-32283D03*
G54D19*
X56141Y-31917D03*
X56141Y-31547D03*
X55826Y-31917D03*
X55826Y-31547D03*
X56771Y-31917D03*
X56771Y-31547D03*
X57401Y-31917D03*
X57401Y-31547D03*
X58897Y-31547D03*
X58897Y-31917D03*
G54D18*
X54751Y-32952D03*
X54381Y-32952D03*
G54D19*
X57716Y-31547D03*
X57716Y-31917D03*
G54D18*
X54712Y-43110D03*
X54342Y-43110D03*
X54712Y-41446D03*
X54342Y-41446D03*
X54712Y-41761D03*
X54342Y-41761D03*
X54712Y-43425D03*
X54342Y-43425D03*
X54712Y-42795D03*
X54342Y-42795D03*
G54D19*
X58110Y-39381D03*
X58110Y-39751D03*
G54D18*
X54722Y-40236D03*
X54352Y-40236D03*
X54722Y-40826D03*
X54352Y-40826D03*
G54D19*
X56535Y-39751D03*
X56535Y-39381D03*
G54D18*
X54722Y-40531D03*
X54352Y-40531D03*
G54D19*
X56220Y-39751D03*
X56220Y-39381D03*
X55905Y-39751D03*
X55905Y-39381D03*
X58988Y-39381D03*
X58988Y-39751D03*
X58425Y-39381D03*
X58425Y-39751D03*
G54D18*
X60736Y-35551D03*
X60366Y-35551D03*
X54751Y-34251D03*
X54381Y-34251D03*
X54751Y-34606D03*
X54381Y-34606D03*
X54751Y-35275D03*
X54381Y-35275D03*
X54751Y-33937D03*
X54381Y-33937D03*
X54751Y-33622D03*
X54381Y-33622D03*
X54751Y-34921D03*
X54381Y-34921D03*
X54751Y-33307D03*
X54381Y-33307D03*
G54D19*
X63185Y-43685D03*
X63185Y-43315D03*
X56850Y-39381D03*
X56850Y-39751D03*
X63543Y-41413D03*
X63543Y-41043D03*
X57086Y-31547D03*
X57086Y-31917D03*
X63543Y-42291D03*
X63543Y-42661D03*
G54D18*
X60106Y-48444D03*
X59736Y-48444D03*
X51759Y-48444D03*
X51389Y-48444D03*
X59456Y-45354D03*
X59086Y-45354D03*
X62251Y-36299D03*
X61881Y-36299D03*
X54712Y-42440D03*
X54342Y-42440D03*
G54D20*
X64527Y-49370D03*
X64527Y-48740D03*
X64527Y-49999D03*
X64527Y-50629D03*
G54D21*
X57795Y-33070D03*
X58110Y-33070D03*
X58425Y-33070D03*
X58740Y-33070D03*
X56220Y-33070D03*
X56535Y-33070D03*
X56850Y-33070D03*
X57165Y-33070D03*
X57165Y-34645D03*
X56850Y-34645D03*
X56535Y-34645D03*
X56220Y-34645D03*
X58740Y-34645D03*
X58425Y-34645D03*
X58110Y-34645D03*
X57795Y-34645D03*
X59055Y-34330D03*
X57480Y-34330D03*
X55905Y-34330D03*
X57795Y-34330D03*
X58110Y-34330D03*
X58425Y-34330D03*
X58740Y-34330D03*
X56220Y-34330D03*
X56535Y-34330D03*
X56850Y-34330D03*
X57165Y-34330D03*
X57165Y-34015D03*
X56850Y-34015D03*
X56535Y-34015D03*
X56220Y-34015D03*
X58740Y-34015D03*
X58425Y-34015D03*
X58110Y-34015D03*
X57795Y-34015D03*
X55905Y-34015D03*
X57480Y-34015D03*
X59055Y-34015D03*
X59055Y-33700D03*
X57480Y-33700D03*
X55905Y-33700D03*
X57795Y-33700D03*
X58110Y-33700D03*
X58425Y-33700D03*
X58740Y-33700D03*
X56220Y-33700D03*
X56535Y-33700D03*
X56850Y-33700D03*
X57165Y-33700D03*
X57165Y-33385D03*
X56850Y-33385D03*
X56535Y-33385D03*
X56220Y-33385D03*
X58740Y-33385D03*
X58425Y-33385D03*
X58110Y-33385D03*
X57795Y-33385D03*
X55905Y-33385D03*
X57480Y-33385D03*
X59055Y-33385D03*
X59055Y-34960D03*
X57480Y-34960D03*
X55905Y-34960D03*
X57795Y-34960D03*
X58110Y-34960D03*
X58425Y-34960D03*
X58740Y-34960D03*
X56220Y-34960D03*
X56535Y-34960D03*
X56850Y-34960D03*
X57165Y-34960D03*
X57165Y-35275D03*
X56850Y-35275D03*
X56535Y-35275D03*
X56220Y-35275D03*
X58740Y-35275D03*
X58425Y-35275D03*
X58110Y-35275D03*
X57795Y-35275D03*
X55905Y-35275D03*
X57480Y-35275D03*
X59055Y-35275D03*
X59055Y-35590D03*
X57480Y-35590D03*
X55905Y-35590D03*
X57795Y-35590D03*
X58110Y-35590D03*
X58425Y-35590D03*
X58740Y-35590D03*
X56220Y-35590D03*
X56535Y-35590D03*
X56850Y-35590D03*
X57165Y-35590D03*
X57165Y-35905D03*
X56850Y-35905D03*
X56535Y-35905D03*
X56220Y-35905D03*
X58740Y-35905D03*
X58425Y-35905D03*
X58110Y-35905D03*
X57795Y-35905D03*
X55905Y-35905D03*
X57480Y-35905D03*
X59055Y-35905D03*
X59055Y-36220D03*
X57480Y-36220D03*
X55905Y-36220D03*
X59055Y-33070D03*
X57480Y-33070D03*
X55905Y-33070D03*
X55905Y-34645D03*
X57480Y-34645D03*
X59055Y-34645D03*
X57795Y-36220D03*
X58110Y-36220D03*
X58425Y-36220D03*
X58740Y-36220D03*
X56220Y-36220D03*
X56535Y-36220D03*
X56850Y-36220D03*
X57165Y-36220D03*
X57795Y-40944D03*
X58110Y-40944D03*
X58425Y-40944D03*
X58740Y-40944D03*
X56220Y-40944D03*
X56535Y-40944D03*
X56850Y-40944D03*
X57165Y-40944D03*
X57165Y-42519D03*
X56850Y-42519D03*
X56535Y-42519D03*
X56220Y-42519D03*
X58740Y-42519D03*
X58425Y-42519D03*
X58110Y-42519D03*
X57795Y-42519D03*
X59055Y-42204D03*
X57480Y-42204D03*
X55905Y-42204D03*
X57795Y-42204D03*
X58110Y-42204D03*
X58425Y-42204D03*
X58740Y-42204D03*
X56220Y-42204D03*
X56535Y-42204D03*
X56850Y-42204D03*
X57165Y-42204D03*
X57165Y-41889D03*
X56850Y-41889D03*
X56535Y-41889D03*
X56220Y-41889D03*
X58740Y-41889D03*
X58425Y-41889D03*
X58110Y-41889D03*
X57795Y-41889D03*
X55905Y-41889D03*
X57480Y-41889D03*
X59055Y-41889D03*
X59055Y-41574D03*
X57480Y-41574D03*
X55905Y-41574D03*
X57795Y-41574D03*
X58110Y-41574D03*
X58425Y-41574D03*
X58740Y-41574D03*
X56220Y-41574D03*
X56535Y-41574D03*
X56850Y-41574D03*
X57165Y-41574D03*
X57165Y-41259D03*
X56850Y-41259D03*
X56535Y-41259D03*
X56220Y-41259D03*
X58740Y-41259D03*
X58425Y-41259D03*
X58110Y-41259D03*
X57795Y-41259D03*
X55905Y-41259D03*
X57480Y-41259D03*
X59055Y-41259D03*
X59055Y-42834D03*
X57480Y-42834D03*
X55905Y-42834D03*
X57795Y-42834D03*
X58110Y-42834D03*
X58425Y-42834D03*
X58740Y-42834D03*
X56220Y-42834D03*
X56535Y-42834D03*
X56850Y-42834D03*
X57165Y-42834D03*
X57165Y-43149D03*
X56850Y-43149D03*
X56535Y-43149D03*
X56220Y-43149D03*
X58740Y-43149D03*
X58425Y-43149D03*
X58110Y-43149D03*
X57795Y-43149D03*
X55905Y-43149D03*
X57480Y-43149D03*
X59055Y-43149D03*
X59055Y-43464D03*
X57480Y-43464D03*
X55905Y-43464D03*
X57795Y-43464D03*
X58110Y-43464D03*
X58425Y-43464D03*
X58740Y-43464D03*
X56220Y-43464D03*
X56535Y-43464D03*
X56850Y-43464D03*
X57165Y-43464D03*
X57165Y-43779D03*
X56850Y-43779D03*
X56535Y-43779D03*
X56220Y-43779D03*
X58740Y-43779D03*
X58425Y-43779D03*
X58110Y-43779D03*
X57795Y-43779D03*
X55905Y-43779D03*
X57480Y-43779D03*
X59055Y-43779D03*
X59055Y-44094D03*
X57480Y-44094D03*
X55905Y-44094D03*
X59055Y-40944D03*
X57480Y-40944D03*
X55905Y-40944D03*
X55905Y-42519D03*
X57480Y-42519D03*
X59055Y-42519D03*
X57795Y-44094D03*
X58110Y-44094D03*
X58425Y-44094D03*
X58740Y-44094D03*
X56220Y-44094D03*
X56535Y-44094D03*
X56850Y-44094D03*
X57165Y-44094D03*
G54D22*
X61614Y-47302D03*
X61614Y-46948D03*
X53612Y-47302D03*
X53612Y-46948D03*
X53316Y-47302D03*
X53316Y-46948D03*
X61889Y-47302D03*
X61889Y-46948D03*
X48850Y-50314D03*
X48850Y-49960D03*
X43838Y-44626D03*
X43838Y-44980D03*
X46303Y-46500D03*
X46657Y-46500D03*
X44688Y-43177D03*
X44688Y-43531D03*
G54D18*
X43964Y-29960D03*
X43594Y-29960D03*
X43964Y-29311D03*
X43594Y-29311D03*
X52098Y-36299D03*
X52468Y-36299D03*
G54D19*
X58267Y-31547D03*
X58267Y-31917D03*
G54D18*
X52098Y-33740D03*
X52468Y-33740D03*
X52098Y-35984D03*
X52468Y-35984D03*
X52098Y-35669D03*
X52468Y-35669D03*
X52098Y-35354D03*
X52468Y-35354D03*
X52098Y-35000D03*
X52468Y-35000D03*
X52098Y-34685D03*
X52468Y-34685D03*
X52098Y-34370D03*
X52468Y-34370D03*
X52098Y-34055D03*
X52468Y-34055D03*
G54D19*
X58582Y-31547D03*
X58582Y-31917D03*
G54D18*
X52098Y-33425D03*
X52468Y-33425D03*
X52468Y-38188D03*
X52098Y-38188D03*
X52468Y-37874D03*
X52098Y-37874D03*
X52468Y-37559D03*
X52098Y-37559D03*
X52468Y-37244D03*
X52098Y-37244D03*
X52468Y-36929D03*
X52098Y-36929D03*
X52468Y-36614D03*
X52098Y-36614D03*
G54D23*
X48401Y-34177D03*
X48401Y-34374D03*
X48401Y-34571D03*
X48401Y-34768D03*
X48401Y-34964D03*
G54D24*
X48401Y-35260D03*
G54D23*
X48401Y-35555D03*
X48401Y-35752D03*
X48401Y-35949D03*
X48401Y-36146D03*
X48401Y-36342D03*
X48401Y-36539D03*
X48401Y-36736D03*
X48401Y-36933D03*
X48401Y-37130D03*
X48401Y-37327D03*
G54D24*
X48401Y-37622D03*
G54D23*
X48401Y-37917D03*
X48401Y-38114D03*
X48401Y-38311D03*
X48401Y-38508D03*
X48401Y-38705D03*
X48401Y-38901D03*
X48401Y-39098D03*
X48401Y-39295D03*
X48401Y-39492D03*
X48401Y-39689D03*
G54D24*
X48401Y-39985D03*
G54D23*
X48401Y-40279D03*
X48401Y-40476D03*
X48401Y-40673D03*
X48401Y-40870D03*
X48401Y-41067D03*
X48401Y-41264D03*
X48401Y-41460D03*
X48401Y-41657D03*
X48401Y-41854D03*
X48401Y-42051D03*
G54D24*
X48401Y-42347D03*
G54D23*
X48401Y-42642D03*
X48401Y-42838D03*
X48401Y-43035D03*
X48401Y-43232D03*
X48401Y-43429D03*
X50803Y-43431D03*
X50803Y-43234D03*
X50803Y-43037D03*
X50803Y-42840D03*
X50803Y-42644D03*
G54D24*
X50803Y-42349D03*
G54D23*
X50803Y-42053D03*
X50803Y-41856D03*
X50803Y-41659D03*
X50803Y-41462D03*
X50803Y-41266D03*
X50803Y-41069D03*
X50803Y-40872D03*
X50803Y-40675D03*
X50803Y-40478D03*
X50803Y-40281D03*
G54D24*
X50803Y-39986D03*
G54D23*
X50803Y-39690D03*
X50803Y-39493D03*
X50803Y-39296D03*
X50803Y-39099D03*
X50803Y-38903D03*
X50803Y-38706D03*
X50803Y-38509D03*
X50803Y-38312D03*
X50803Y-38115D03*
X50803Y-37918D03*
G54D24*
X50803Y-37623D03*
G54D23*
X50803Y-37327D03*
X50803Y-37130D03*
X50803Y-36933D03*
X50803Y-36736D03*
X50803Y-36540D03*
X50803Y-36343D03*
X50803Y-36146D03*
X50803Y-35949D03*
X50803Y-35752D03*
X50803Y-35555D03*
G54D24*
X50803Y-35260D03*
G54D23*
X50803Y-34964D03*
X50803Y-34768D03*
X50803Y-34571D03*
X50803Y-34374D03*
X50803Y-34177D03*
G54D25*
X49606Y-44689D03*
X49606Y-32917D03*
G54D19*
X45590Y-43364D03*
X45590Y-42994D03*
G54D18*
X45244Y-42362D03*
X44874Y-42362D03*
X44279Y-42362D03*
X43909Y-42362D03*
X43555Y-42972D03*
X43925Y-42972D03*
X43598Y-32905D03*
X43968Y-32905D03*
G54D20*
X47066Y-42726D03*
X47066Y-43356D03*
G54D22*
X45925Y-39842D03*
X45571Y-39842D03*
X44606Y-46082D03*
X44606Y-46436D03*
X46348Y-42716D03*
X45994Y-42716D03*
X46348Y-43366D03*
X45994Y-43366D03*
X45462Y-41397D03*
X45462Y-41751D03*
X43927Y-43533D03*
X44281Y-43533D03*
G54D26*
X53238Y-31268D03*
X53238Y-32018D03*
X52214Y-31268D03*
X52214Y-32018D03*
G54D27*
X46499Y-47287D03*
X47249Y-47287D03*
X45217Y-47287D03*
X44467Y-47287D03*
G54D28*
X45255Y-45452D03*
X45452Y-45452D03*
X45649Y-45452D03*
X45059Y-45452D03*
X44862Y-45452D03*
X44862Y-44114D03*
X45059Y-44114D03*
X45255Y-44114D03*
X45452Y-44114D03*
X45649Y-44114D03*
G54D29*
X45925Y-44389D03*
X45925Y-44586D03*
X45925Y-44783D03*
X45925Y-44980D03*
X45925Y-45177D03*
X44586Y-44783D03*
X44586Y-44586D03*
X44586Y-44389D03*
X44586Y-44980D03*
X44586Y-45177D03*
G54D30*
X45255Y-44783D03*
G54D31*
X53759Y-47938D03*
X53759Y-48282D03*
G54D32*
X53562Y-48282D03*
X53366Y-48282D03*
X53562Y-47938D03*
X53366Y-47938D03*
X53956Y-47938D03*
X54153Y-47938D03*
X54153Y-48282D03*
X53956Y-48282D03*
G54D31*
X62047Y-47938D03*
X62047Y-48282D03*
G54D32*
X61850Y-48282D03*
X61653Y-48282D03*
X61850Y-47938D03*
X61653Y-47938D03*
X62244Y-47938D03*
X62440Y-47938D03*
X62440Y-48282D03*
X62244Y-48282D03*
G54D33*
X44035Y-31858D03*
X45374Y-31858D03*
X47566Y-31881D03*
X46228Y-31881D03*
G54D20*
X45295Y-29311D03*
X44665Y-29311D03*
X45295Y-29960D03*
X44665Y-29960D03*
X45295Y-30610D03*
X44665Y-30610D03*
X46043Y-29311D03*
X46673Y-29311D03*
X46043Y-29960D03*
X46673Y-29960D03*
X46043Y-30610D03*
X46673Y-30610D03*
G54D17*
X44590Y-48582D03*
X46590Y-48582D03*
X46590Y-50314D03*
X44590Y-50314D03*
G54D34*
X46791Y-49448D03*
X44389Y-49448D03*
G54D35*
X44238Y-39842D03*
G54D36*
X44238Y-41218D03*
X44238Y-38466D03*
G54D37*
X46889Y-35196D03*
X46889Y-34196D03*
X46889Y-36196D03*
G54D26*
X48070Y-50315D03*
X48070Y-49565D03*
G54D38*
X64460Y-44488D03*
X65459Y-44488D03*
X65460Y-32874D03*
X64461Y-32874D03*
G54D19*
X63543Y-44503D03*
X63543Y-44133D03*
X63267Y-32876D03*
X63267Y-33246D03*
G54D13*
X53437Y-29318D03*
X53437Y-28318D03*
G54D14*
X52437Y-29318D03*
G54D13*
X52437Y-28318D03*
X54437Y-28318D03*
X54437Y-29318D03*
X61421Y-28318D03*
X59421Y-28318D03*
X60421Y-28318D03*
X60421Y-29318D03*
X59421Y-29318D03*
X58421Y-29318D03*
G54D12*
X55366Y-29318D03*
G54D13*
X55366Y-28318D03*
X61421Y-29318D03*
X58421Y-28318D03*
X56429Y-28318D03*
G54D12*
X56429Y-29318D03*
G54D13*
X57429Y-28318D03*
X57429Y-29318D03*
M02*
