G04 (created by PCBNEW (2013-03-19 BZR 4004)-stable) date 5/31/2013 11:48:04 AM*
%MOIN*%
G04 Gerber Fmt 3.4, Leading zero omitted, Abs format*
%FSLAX34Y34*%
G01*
G70*
G90*
G04 APERTURE LIST*
%ADD10C,0.006*%
%ADD11C,0.00787402*%
%ADD12C,0.0157*%
%ADD13C,0.00984252*%
%ADD14C,0.00393701*%
%ADD15C,0.0077*%
%ADD16C,0.00590551*%
%ADD17C,0.005*%
%ADD18C,0.00492126*%
%ADD19C,0.0049*%
G04 APERTURE END LIST*
G54D10*
G54D11*
X43307Y-26771D02*
X43307Y-51181D01*
X66535Y-26771D02*
X43307Y-26771D01*
X66535Y-51181D02*
X43307Y-51181D01*
X66535Y-51181D02*
X66535Y-26771D01*
G54D12*
X45122Y-50142D02*
G75*
G03X45122Y-50142I-55J0D01*
G74*
G01*
G54D13*
X46483Y-49394D02*
X46483Y-50378D01*
X46483Y-50378D02*
X44830Y-50378D01*
X44830Y-49394D02*
X46483Y-49394D01*
X44830Y-50378D02*
X44830Y-49394D01*
G54D14*
X54862Y-41657D02*
G75*
G03X54862Y-41657I-252J0D01*
G74*
G01*
X56901Y-36972D02*
G75*
G03X56901Y-36972I-252J0D01*
G74*
G01*
X60925Y-43263D02*
G75*
G03X60925Y-43263I-252J0D01*
G74*
G01*
X55712Y-36216D02*
G75*
G03X55712Y-36216I-252J0D01*
G74*
G01*
G54D13*
X65858Y-50915D02*
X64062Y-50915D01*
X65858Y-49655D02*
X64062Y-49655D01*
X64062Y-49655D02*
X64062Y-50915D01*
X65858Y-49655D02*
X65858Y-50915D01*
X63939Y-34861D02*
X63939Y-33655D01*
X63939Y-35461D02*
X63939Y-36665D01*
X64239Y-35161D02*
G75*
G02X63939Y-35461I-300J0D01*
G74*
G01*
X63939Y-34861D02*
G75*
G02X64239Y-35161I0J-300D01*
G74*
G01*
X63940Y-33650D02*
X65971Y-33650D01*
X65971Y-33655D02*
X65971Y-36667D01*
X65960Y-36672D02*
X63940Y-36672D01*
X61804Y-48091D02*
X61804Y-49297D01*
X61804Y-47491D02*
X61804Y-46287D01*
X61504Y-47791D02*
G75*
G02X61804Y-47491I300J0D01*
G74*
G01*
X61804Y-48091D02*
G75*
G02X61504Y-47791I0J300D01*
G74*
G01*
X61803Y-49301D02*
X59772Y-49301D01*
X59772Y-49297D02*
X59772Y-46285D01*
X59783Y-46280D02*
X61803Y-46280D01*
X60787Y-36744D02*
X62361Y-36744D01*
X62361Y-36744D02*
X62361Y-39145D01*
X62361Y-39145D02*
X60787Y-39145D01*
X60787Y-39145D02*
X60787Y-36744D01*
X53298Y-41696D02*
X51724Y-41696D01*
X51724Y-41696D02*
X51724Y-39295D01*
X51724Y-39295D02*
X53298Y-39295D01*
X53298Y-39295D02*
X53298Y-41696D01*
X48263Y-50039D02*
X48736Y-50039D01*
X58011Y-49133D02*
X58011Y-49606D01*
X62716Y-48976D02*
X63188Y-48976D01*
X50866Y-50511D02*
X50866Y-50039D01*
G54D15*
X55156Y-49547D02*
X55000Y-49547D01*
X56543Y-47944D02*
X56543Y-47788D01*
X56543Y-47221D02*
X56543Y-47377D01*
X61613Y-45708D02*
X61457Y-45708D01*
X65128Y-37844D02*
X65284Y-37844D01*
X65630Y-37844D02*
X65786Y-37844D01*
X64636Y-37844D02*
X64792Y-37844D01*
X58503Y-46496D02*
X58347Y-46496D01*
X54251Y-44487D02*
X54251Y-44331D01*
X47125Y-45944D02*
X46969Y-45944D01*
X43721Y-44704D02*
X43877Y-44704D01*
X45964Y-45965D02*
X45964Y-46121D01*
X44113Y-46003D02*
X43957Y-46003D01*
X44685Y-46162D02*
X44685Y-46318D01*
X46342Y-46515D02*
X46342Y-46359D01*
X43747Y-49818D02*
X43591Y-49818D01*
X51988Y-46437D02*
X51988Y-46593D01*
X51988Y-43898D02*
X51988Y-44054D01*
X47200Y-39145D02*
X47044Y-39145D01*
X47211Y-41602D02*
X47055Y-41602D01*
X47223Y-40523D02*
X47067Y-40523D01*
X47475Y-37940D02*
X47319Y-37940D01*
X46850Y-44959D02*
X46850Y-44803D01*
X65530Y-48779D02*
X65374Y-48779D01*
X64358Y-49158D02*
X64358Y-49314D01*
X63996Y-48327D02*
X63996Y-48483D01*
X62716Y-47205D02*
X62716Y-47361D01*
X61101Y-45708D02*
X60945Y-45708D01*
X58818Y-46496D02*
X58662Y-46496D01*
X64782Y-39673D02*
X64626Y-39673D01*
X65290Y-39673D02*
X65134Y-39673D01*
X64286Y-39673D02*
X64130Y-39673D01*
X58188Y-46496D02*
X58032Y-46496D01*
X59074Y-48228D02*
X58800Y-48228D01*
X56693Y-50531D02*
X56967Y-50531D01*
X56992Y-44563D02*
X56992Y-44837D01*
X57725Y-37027D02*
X57999Y-37027D01*
X58839Y-37559D02*
X59113Y-37559D01*
X43642Y-45452D02*
X43798Y-45452D01*
X43877Y-44015D02*
X43721Y-44015D01*
X65794Y-39307D02*
X65638Y-39307D01*
X45629Y-43601D02*
X45629Y-43445D01*
X49075Y-50236D02*
X49231Y-50236D01*
X46751Y-44566D02*
X46751Y-44410D01*
X64114Y-38208D02*
X64270Y-38208D01*
X46496Y-45452D02*
X46652Y-45452D01*
X47558Y-46909D02*
X47402Y-46909D01*
X56044Y-50433D02*
X56200Y-50433D01*
X63129Y-49725D02*
X63129Y-49881D01*
X55689Y-50433D02*
X55845Y-50433D01*
X55688Y-47481D02*
X55688Y-47637D01*
G54D16*
X59566Y-41929D02*
X59566Y-41850D01*
X59645Y-33897D02*
X59645Y-33818D01*
X55275Y-42480D02*
X55275Y-42559D01*
X55208Y-34696D02*
X55208Y-34775D01*
X59566Y-43523D02*
X59566Y-43444D01*
X55196Y-33759D02*
X55196Y-33838D01*
X55236Y-35051D02*
X55236Y-35129D01*
X55511Y-40590D02*
X55511Y-40669D01*
X56555Y-32437D02*
X56476Y-32437D01*
X59566Y-43818D02*
X59566Y-43740D01*
X59618Y-35968D02*
X59618Y-35889D01*
X55157Y-35551D02*
X55157Y-35629D01*
X55275Y-43385D02*
X55275Y-43464D01*
X58440Y-37244D02*
X58440Y-37322D01*
X58464Y-44783D02*
X58543Y-44783D01*
X58889Y-44704D02*
X58889Y-44625D01*
X55196Y-33375D02*
X55196Y-33454D01*
X55275Y-42874D02*
X55275Y-42952D01*
X57433Y-32688D02*
X57354Y-32688D01*
X59566Y-42913D02*
X59566Y-42834D01*
X59622Y-34933D02*
X59622Y-34854D01*
X59566Y-42559D02*
X59566Y-42480D01*
X57519Y-40354D02*
X57440Y-40354D01*
X59622Y-34629D02*
X59622Y-34551D01*
X55275Y-43937D02*
X55275Y-44015D01*
X56525Y-35885D02*
X56604Y-35885D01*
G54D17*
X45460Y-41985D02*
X45385Y-41985D01*
G54D13*
X45385Y-41985D02*
X45385Y-41235D01*
X45385Y-41235D02*
X45385Y-40235D01*
X45385Y-40235D02*
X46535Y-40235D01*
X46535Y-40235D02*
X46535Y-41985D01*
X46535Y-41985D02*
X46010Y-41985D01*
X46010Y-41985D02*
X45385Y-41985D01*
G54D17*
X45452Y-39465D02*
X45377Y-39465D01*
G54D13*
X45377Y-39465D02*
X45377Y-38715D01*
X45377Y-38715D02*
X45377Y-37715D01*
X45377Y-37715D02*
X46527Y-37715D01*
X46527Y-37715D02*
X46527Y-39465D01*
X46527Y-39465D02*
X46002Y-39465D01*
X46002Y-39465D02*
X45377Y-39465D01*
G54D15*
X51988Y-44843D02*
X51988Y-44999D01*
X51988Y-45355D02*
X51988Y-45511D01*
X51988Y-44390D02*
X51988Y-44546D01*
X51988Y-45866D02*
X51988Y-46022D01*
G54D13*
X45994Y-45521D02*
X45994Y-45511D01*
X45994Y-45511D02*
X45994Y-45501D01*
G54D10*
X46029Y-45514D02*
G75*
G03X46029Y-45514I-39J0D01*
G74*
G01*
G54D13*
X46235Y-45567D02*
X46235Y-43803D01*
X46039Y-45763D02*
X44275Y-45763D01*
X46039Y-45763D02*
X46235Y-45567D01*
X44275Y-43803D02*
X44275Y-45763D01*
X46235Y-43803D02*
X44275Y-43803D01*
X65981Y-42473D02*
X65981Y-43679D01*
X65981Y-41873D02*
X65981Y-40669D01*
X65681Y-42173D02*
G75*
G02X65981Y-41873I300J0D01*
G74*
G01*
X65981Y-42473D02*
G75*
G02X65681Y-42173I0J300D01*
G74*
G01*
X65980Y-43683D02*
X63950Y-43683D01*
X63950Y-43679D02*
X63950Y-40667D01*
X63960Y-40662D02*
X65980Y-40662D01*
G54D15*
X55215Y-48307D02*
X54941Y-48307D01*
X59763Y-45768D02*
X59763Y-46042D01*
X52263Y-39034D02*
X52263Y-38878D01*
X60225Y-37594D02*
X60381Y-37594D01*
X61933Y-36232D02*
X62089Y-36232D01*
X51909Y-42046D02*
X51909Y-41890D01*
G54D17*
X44833Y-47421D02*
X44833Y-47346D01*
G54D13*
X44833Y-47346D02*
X45583Y-47346D01*
X45583Y-47346D02*
X46583Y-47346D01*
X46583Y-47346D02*
X46583Y-48496D01*
X46583Y-48496D02*
X44833Y-48496D01*
X44833Y-48496D02*
X44833Y-47971D01*
X44833Y-47971D02*
X44833Y-47346D01*
X57185Y-48287D02*
X57185Y-49940D01*
X55531Y-49940D02*
X55531Y-48287D01*
X57185Y-48287D02*
X55531Y-48287D01*
X55531Y-49940D02*
X57185Y-49940D01*
X51929Y-27068D02*
X52179Y-26818D01*
X52179Y-26818D02*
X61679Y-26818D01*
X51929Y-27068D02*
X51929Y-27818D01*
X51929Y-27818D02*
X61929Y-27818D01*
X61929Y-27068D02*
X61929Y-27818D01*
X61929Y-27068D02*
X61679Y-26818D01*
G54D16*
X46471Y-48899D02*
X46471Y-49218D01*
X46452Y-49255D01*
X46434Y-49274D01*
X46396Y-49293D01*
X46321Y-49293D01*
X46284Y-49274D01*
X46265Y-49255D01*
X46246Y-49218D01*
X46246Y-48899D01*
X45853Y-49293D02*
X46077Y-49293D01*
X45965Y-49293D02*
X45965Y-48899D01*
X46002Y-48955D01*
X46040Y-48993D01*
X46077Y-49011D01*
X45478Y-49293D02*
X45703Y-49293D01*
X45590Y-49293D02*
X45590Y-48899D01*
X45628Y-48955D01*
X45665Y-48993D01*
X45703Y-49011D01*
X44123Y-50476D02*
X44217Y-50476D01*
X44180Y-50382D02*
X44217Y-50476D01*
X44180Y-50570D01*
X44292Y-50420D02*
X44217Y-50476D01*
X44292Y-50532D01*
X55103Y-40946D02*
X54878Y-40946D01*
X54990Y-41340D02*
X54990Y-40946D01*
X54746Y-41340D02*
X54746Y-40946D01*
X54596Y-40946D01*
X54559Y-40965D01*
X54540Y-40984D01*
X54521Y-41021D01*
X54521Y-41077D01*
X54540Y-41115D01*
X54559Y-41134D01*
X54596Y-41152D01*
X54746Y-41152D01*
X54390Y-40946D02*
X54146Y-40946D01*
X54278Y-41096D01*
X54221Y-41096D01*
X54184Y-41115D01*
X54165Y-41134D01*
X54146Y-41171D01*
X54146Y-41265D01*
X54165Y-41302D01*
X54184Y-41321D01*
X54221Y-41340D01*
X54334Y-41340D01*
X54371Y-41321D01*
X54390Y-41302D01*
X57136Y-36275D02*
X56911Y-36275D01*
X57024Y-36669D02*
X57024Y-36275D01*
X56780Y-36669D02*
X56780Y-36275D01*
X56630Y-36275D01*
X56592Y-36294D01*
X56574Y-36312D01*
X56555Y-36350D01*
X56555Y-36406D01*
X56574Y-36444D01*
X56592Y-36462D01*
X56630Y-36481D01*
X56780Y-36481D01*
X56405Y-36312D02*
X56386Y-36294D01*
X56349Y-36275D01*
X56255Y-36275D01*
X56217Y-36294D01*
X56199Y-36312D01*
X56180Y-36350D01*
X56180Y-36387D01*
X56199Y-36444D01*
X56424Y-36669D01*
X56180Y-36669D01*
X61977Y-43013D02*
X61752Y-43013D01*
X61864Y-43407D02*
X61864Y-43013D01*
X61620Y-43407D02*
X61620Y-43013D01*
X61470Y-43013D01*
X61433Y-43032D01*
X61414Y-43051D01*
X61395Y-43088D01*
X61395Y-43144D01*
X61414Y-43182D01*
X61433Y-43201D01*
X61470Y-43219D01*
X61620Y-43219D01*
X61020Y-43407D02*
X61245Y-43407D01*
X61133Y-43407D02*
X61133Y-43013D01*
X61170Y-43069D01*
X61208Y-43107D01*
X61245Y-43126D01*
X55189Y-36001D02*
X54964Y-36001D01*
X55077Y-36395D02*
X55077Y-36001D01*
X54833Y-36395D02*
X54833Y-36001D01*
X54683Y-36001D01*
X54646Y-36020D01*
X54627Y-36039D01*
X54608Y-36076D01*
X54608Y-36133D01*
X54627Y-36170D01*
X54646Y-36189D01*
X54683Y-36208D01*
X54833Y-36208D01*
X54271Y-36133D02*
X54271Y-36395D01*
X54364Y-35983D02*
X54458Y-36264D01*
X54214Y-36264D01*
X65647Y-49574D02*
X65685Y-49556D01*
X65722Y-49518D01*
X65778Y-49462D01*
X65816Y-49443D01*
X65853Y-49443D01*
X65835Y-49537D02*
X65872Y-49518D01*
X65910Y-49481D01*
X65928Y-49406D01*
X65928Y-49274D01*
X65910Y-49199D01*
X65872Y-49162D01*
X65835Y-49143D01*
X65760Y-49143D01*
X65722Y-49162D01*
X65685Y-49199D01*
X65666Y-49274D01*
X65666Y-49406D01*
X65685Y-49481D01*
X65722Y-49518D01*
X65760Y-49537D01*
X65835Y-49537D01*
X65535Y-49143D02*
X65291Y-49143D01*
X65422Y-49293D01*
X65366Y-49293D01*
X65329Y-49312D01*
X65310Y-49331D01*
X65291Y-49368D01*
X65291Y-49462D01*
X65310Y-49499D01*
X65329Y-49518D01*
X65366Y-49537D01*
X65479Y-49537D01*
X65516Y-49518D01*
X65535Y-49499D01*
X65946Y-49881D02*
X66040Y-49881D01*
X66002Y-49788D02*
X66040Y-49881D01*
X66002Y-49975D01*
X66115Y-49825D02*
X66040Y-49881D01*
X66115Y-49938D01*
X66386Y-33155D02*
X66386Y-33474D01*
X66367Y-33511D01*
X66349Y-33530D01*
X66311Y-33549D01*
X66236Y-33549D01*
X66199Y-33530D01*
X66180Y-33511D01*
X66161Y-33474D01*
X66161Y-33155D01*
X65805Y-33155D02*
X65880Y-33155D01*
X65917Y-33174D01*
X65936Y-33192D01*
X65974Y-33249D01*
X65992Y-33324D01*
X65992Y-33474D01*
X65974Y-33511D01*
X65955Y-33530D01*
X65917Y-33549D01*
X65842Y-33549D01*
X65805Y-33530D01*
X65786Y-33511D01*
X65767Y-33474D01*
X65767Y-33380D01*
X65786Y-33342D01*
X65805Y-33324D01*
X65842Y-33305D01*
X65917Y-33305D01*
X65955Y-33324D01*
X65974Y-33342D01*
X65992Y-33380D01*
X64007Y-33356D02*
X64007Y-33449D01*
X64101Y-33412D02*
X64007Y-33449D01*
X63914Y-33412D01*
X64064Y-33524D02*
X64007Y-33449D01*
X63951Y-33524D01*
X62544Y-46261D02*
X62544Y-46580D01*
X62525Y-46617D01*
X62506Y-46636D01*
X62469Y-46655D01*
X62394Y-46655D01*
X62356Y-46636D01*
X62337Y-46617D01*
X62319Y-46580D01*
X62319Y-46261D01*
X62112Y-46655D02*
X62037Y-46655D01*
X62000Y-46636D01*
X61981Y-46617D01*
X61944Y-46561D01*
X61925Y-46486D01*
X61925Y-46336D01*
X61944Y-46299D01*
X61962Y-46280D01*
X62000Y-46261D01*
X62075Y-46261D01*
X62112Y-46280D01*
X62131Y-46299D01*
X62150Y-46336D01*
X62150Y-46430D01*
X62131Y-46467D01*
X62112Y-46486D01*
X62075Y-46505D01*
X62000Y-46505D01*
X61962Y-46486D01*
X61944Y-46467D01*
X61925Y-46430D01*
X61574Y-49411D02*
X61574Y-49505D01*
X61668Y-49467D02*
X61574Y-49505D01*
X61481Y-49467D01*
X61631Y-49580D02*
X61574Y-49505D01*
X61518Y-49580D01*
X61128Y-36669D02*
X61165Y-36650D01*
X61203Y-36613D01*
X61259Y-36556D01*
X61296Y-36538D01*
X61334Y-36538D01*
X61315Y-36631D02*
X61353Y-36613D01*
X61390Y-36575D01*
X61409Y-36500D01*
X61409Y-36369D01*
X61390Y-36294D01*
X61353Y-36256D01*
X61315Y-36238D01*
X61240Y-36238D01*
X61203Y-36256D01*
X61165Y-36294D01*
X61146Y-36369D01*
X61146Y-36500D01*
X61165Y-36575D01*
X61203Y-36613D01*
X61240Y-36631D01*
X61315Y-36631D01*
X60996Y-36275D02*
X60978Y-36256D01*
X60940Y-36238D01*
X60846Y-36238D01*
X60809Y-36256D01*
X60790Y-36275D01*
X60771Y-36313D01*
X60771Y-36350D01*
X60790Y-36406D01*
X61015Y-36631D01*
X60771Y-36631D01*
X60474Y-38779D02*
X60568Y-38779D01*
X60530Y-38685D02*
X60568Y-38779D01*
X60530Y-38873D01*
X60643Y-38723D02*
X60568Y-38779D01*
X60643Y-38835D01*
X53029Y-39212D02*
X53067Y-39193D01*
X53104Y-39156D01*
X53160Y-39100D01*
X53198Y-39081D01*
X53235Y-39081D01*
X53217Y-39175D02*
X53254Y-39156D01*
X53292Y-39118D01*
X53310Y-39043D01*
X53310Y-38912D01*
X53292Y-38837D01*
X53254Y-38800D01*
X53217Y-38781D01*
X53142Y-38781D01*
X53104Y-38800D01*
X53067Y-38837D01*
X53048Y-38912D01*
X53048Y-39043D01*
X53067Y-39118D01*
X53104Y-39156D01*
X53142Y-39175D01*
X53217Y-39175D01*
X52673Y-39175D02*
X52898Y-39175D01*
X52785Y-39175D02*
X52785Y-38781D01*
X52823Y-38837D01*
X52860Y-38875D01*
X52898Y-38893D01*
X53395Y-39728D02*
X53489Y-39728D01*
X53451Y-39634D02*
X53489Y-39728D01*
X53451Y-39822D01*
X53564Y-39672D02*
X53489Y-39728D01*
X53564Y-39784D01*
X48162Y-49859D02*
X48050Y-49781D01*
X48162Y-49724D02*
X47926Y-49724D01*
X47926Y-49814D01*
X47937Y-49837D01*
X47948Y-49848D01*
X47971Y-49859D01*
X48005Y-49859D01*
X48027Y-49848D01*
X48038Y-49837D01*
X48050Y-49814D01*
X48050Y-49724D01*
X47926Y-50073D02*
X47926Y-49961D01*
X48038Y-49949D01*
X48027Y-49961D01*
X48016Y-49983D01*
X48016Y-50039D01*
X48027Y-50062D01*
X48038Y-50073D01*
X48061Y-50084D01*
X48117Y-50084D01*
X48140Y-50073D01*
X48151Y-50062D01*
X48162Y-50039D01*
X48162Y-49983D01*
X48151Y-49961D01*
X48140Y-49949D01*
X47926Y-50163D02*
X47926Y-50309D01*
X48016Y-50231D01*
X48016Y-50264D01*
X48027Y-50287D01*
X48038Y-50298D01*
X48061Y-50309D01*
X48117Y-50309D01*
X48140Y-50298D01*
X48151Y-50287D01*
X48162Y-50264D01*
X48162Y-50197D01*
X48151Y-50174D01*
X48140Y-50163D01*
X59179Y-49461D02*
X59258Y-49349D01*
X59314Y-49461D02*
X59314Y-49225D01*
X59224Y-49225D01*
X59201Y-49236D01*
X59190Y-49248D01*
X59179Y-49270D01*
X59179Y-49304D01*
X59190Y-49326D01*
X59201Y-49338D01*
X59224Y-49349D01*
X59314Y-49349D01*
X58965Y-49225D02*
X59078Y-49225D01*
X59089Y-49338D01*
X59078Y-49326D01*
X59055Y-49315D01*
X58999Y-49315D01*
X58976Y-49326D01*
X58965Y-49338D01*
X58954Y-49360D01*
X58954Y-49416D01*
X58965Y-49439D01*
X58976Y-49450D01*
X58999Y-49461D01*
X59055Y-49461D01*
X59078Y-49450D01*
X59089Y-49439D01*
X58819Y-49326D02*
X58841Y-49315D01*
X58853Y-49304D01*
X58864Y-49281D01*
X58864Y-49270D01*
X58853Y-49248D01*
X58841Y-49236D01*
X58819Y-49225D01*
X58774Y-49225D01*
X58751Y-49236D01*
X58740Y-49248D01*
X58729Y-49270D01*
X58729Y-49281D01*
X58740Y-49304D01*
X58751Y-49315D01*
X58774Y-49326D01*
X58819Y-49326D01*
X58841Y-49338D01*
X58853Y-49349D01*
X58864Y-49371D01*
X58864Y-49416D01*
X58853Y-49439D01*
X58841Y-49450D01*
X58819Y-49461D01*
X58774Y-49461D01*
X58751Y-49450D01*
X58740Y-49439D01*
X58729Y-49416D01*
X58729Y-49371D01*
X58740Y-49349D01*
X58751Y-49338D01*
X58774Y-49326D01*
X62615Y-48824D02*
X62502Y-48745D01*
X62615Y-48689D02*
X62379Y-48689D01*
X62379Y-48779D01*
X62390Y-48802D01*
X62401Y-48813D01*
X62424Y-48824D01*
X62457Y-48824D01*
X62480Y-48813D01*
X62491Y-48802D01*
X62502Y-48779D01*
X62502Y-48689D01*
X62379Y-49038D02*
X62379Y-48925D01*
X62491Y-48914D01*
X62480Y-48925D01*
X62469Y-48948D01*
X62469Y-49004D01*
X62480Y-49026D01*
X62491Y-49038D01*
X62514Y-49049D01*
X62570Y-49049D01*
X62592Y-49038D01*
X62604Y-49026D01*
X62615Y-49004D01*
X62615Y-48948D01*
X62604Y-48925D01*
X62592Y-48914D01*
X62457Y-49251D02*
X62615Y-49251D01*
X62367Y-49195D02*
X62536Y-49139D01*
X62536Y-49285D01*
X51017Y-49918D02*
X51096Y-49805D01*
X51152Y-49918D02*
X51152Y-49682D01*
X51062Y-49682D01*
X51040Y-49693D01*
X51029Y-49704D01*
X51017Y-49727D01*
X51017Y-49760D01*
X51029Y-49783D01*
X51040Y-49794D01*
X51062Y-49805D01*
X51152Y-49805D01*
X50804Y-49682D02*
X50916Y-49682D01*
X50928Y-49794D01*
X50916Y-49783D01*
X50894Y-49772D01*
X50838Y-49772D01*
X50815Y-49783D01*
X50804Y-49794D01*
X50793Y-49817D01*
X50793Y-49873D01*
X50804Y-49895D01*
X50815Y-49907D01*
X50838Y-49918D01*
X50894Y-49918D01*
X50916Y-49907D01*
X50928Y-49895D01*
X50714Y-49682D02*
X50556Y-49682D01*
X50658Y-49918D01*
X54898Y-49395D02*
X54786Y-49316D01*
X54898Y-49260D02*
X54662Y-49260D01*
X54662Y-49350D01*
X54673Y-49372D01*
X54685Y-49384D01*
X54707Y-49395D01*
X54741Y-49395D01*
X54763Y-49384D01*
X54775Y-49372D01*
X54786Y-49350D01*
X54786Y-49260D01*
X54763Y-49530D02*
X54752Y-49507D01*
X54741Y-49496D01*
X54718Y-49485D01*
X54707Y-49485D01*
X54685Y-49496D01*
X54673Y-49507D01*
X54662Y-49530D01*
X54662Y-49575D01*
X54673Y-49597D01*
X54685Y-49609D01*
X54707Y-49620D01*
X54718Y-49620D01*
X54741Y-49609D01*
X54752Y-49597D01*
X54763Y-49575D01*
X54763Y-49530D01*
X54775Y-49507D01*
X54786Y-49496D01*
X54808Y-49485D01*
X54853Y-49485D01*
X54876Y-49496D01*
X54887Y-49507D01*
X54898Y-49530D01*
X54898Y-49575D01*
X54887Y-49597D01*
X54876Y-49609D01*
X54853Y-49620D01*
X54808Y-49620D01*
X54786Y-49609D01*
X54775Y-49597D01*
X54763Y-49575D01*
X54662Y-49699D02*
X54662Y-49845D01*
X54752Y-49766D01*
X54752Y-49800D01*
X54763Y-49822D01*
X54775Y-49834D01*
X54797Y-49845D01*
X54853Y-49845D01*
X54876Y-49834D01*
X54887Y-49822D01*
X54898Y-49800D01*
X54898Y-49732D01*
X54887Y-49710D01*
X54876Y-49699D01*
X56691Y-47713D02*
X56769Y-47601D01*
X56826Y-47713D02*
X56826Y-47477D01*
X56736Y-47477D01*
X56713Y-47488D01*
X56702Y-47500D01*
X56691Y-47522D01*
X56691Y-47556D01*
X56702Y-47578D01*
X56713Y-47589D01*
X56736Y-47601D01*
X56826Y-47601D01*
X56556Y-47578D02*
X56578Y-47567D01*
X56589Y-47556D01*
X56601Y-47533D01*
X56601Y-47522D01*
X56589Y-47500D01*
X56578Y-47488D01*
X56556Y-47477D01*
X56511Y-47477D01*
X56488Y-47488D01*
X56477Y-47500D01*
X56466Y-47522D01*
X56466Y-47533D01*
X56477Y-47556D01*
X56488Y-47567D01*
X56511Y-47578D01*
X56556Y-47578D01*
X56578Y-47589D01*
X56589Y-47601D01*
X56601Y-47623D01*
X56601Y-47668D01*
X56589Y-47691D01*
X56578Y-47702D01*
X56556Y-47713D01*
X56511Y-47713D01*
X56488Y-47702D01*
X56477Y-47691D01*
X56466Y-47668D01*
X56466Y-47623D01*
X56477Y-47601D01*
X56488Y-47589D01*
X56511Y-47578D01*
X56263Y-47556D02*
X56263Y-47713D01*
X56320Y-47466D02*
X56376Y-47634D01*
X56230Y-47634D01*
X56714Y-47119D02*
X56793Y-47006D01*
X56849Y-47119D02*
X56849Y-46883D01*
X56759Y-46883D01*
X56737Y-46894D01*
X56726Y-46905D01*
X56714Y-46928D01*
X56714Y-46961D01*
X56726Y-46984D01*
X56737Y-46995D01*
X56759Y-47006D01*
X56849Y-47006D01*
X56579Y-46984D02*
X56602Y-46973D01*
X56613Y-46961D01*
X56624Y-46939D01*
X56624Y-46928D01*
X56613Y-46905D01*
X56602Y-46894D01*
X56579Y-46883D01*
X56534Y-46883D01*
X56512Y-46894D01*
X56501Y-46905D01*
X56489Y-46928D01*
X56489Y-46939D01*
X56501Y-46961D01*
X56512Y-46973D01*
X56534Y-46984D01*
X56579Y-46984D01*
X56602Y-46995D01*
X56613Y-47006D01*
X56624Y-47029D01*
X56624Y-47074D01*
X56613Y-47096D01*
X56602Y-47107D01*
X56579Y-47119D01*
X56534Y-47119D01*
X56512Y-47107D01*
X56501Y-47096D01*
X56489Y-47074D01*
X56489Y-47029D01*
X56501Y-47006D01*
X56512Y-46995D01*
X56534Y-46984D01*
X56276Y-46883D02*
X56388Y-46883D01*
X56399Y-46995D01*
X56388Y-46984D01*
X56366Y-46973D01*
X56309Y-46973D01*
X56287Y-46984D01*
X56276Y-46995D01*
X56264Y-47017D01*
X56264Y-47074D01*
X56276Y-47096D01*
X56287Y-47107D01*
X56309Y-47119D01*
X56366Y-47119D01*
X56388Y-47107D01*
X56399Y-47096D01*
X61631Y-44926D02*
X61518Y-44848D01*
X61631Y-44791D02*
X61394Y-44791D01*
X61394Y-44881D01*
X61406Y-44904D01*
X61417Y-44915D01*
X61439Y-44926D01*
X61473Y-44926D01*
X61496Y-44915D01*
X61507Y-44904D01*
X61518Y-44881D01*
X61518Y-44791D01*
X61496Y-45061D02*
X61484Y-45039D01*
X61473Y-45028D01*
X61451Y-45016D01*
X61439Y-45016D01*
X61417Y-45028D01*
X61406Y-45039D01*
X61394Y-45061D01*
X61394Y-45106D01*
X61406Y-45129D01*
X61417Y-45140D01*
X61439Y-45151D01*
X61451Y-45151D01*
X61473Y-45140D01*
X61484Y-45129D01*
X61496Y-45106D01*
X61496Y-45061D01*
X61507Y-45039D01*
X61518Y-45028D01*
X61541Y-45016D01*
X61586Y-45016D01*
X61608Y-45028D01*
X61619Y-45039D01*
X61631Y-45061D01*
X61631Y-45106D01*
X61619Y-45129D01*
X61608Y-45140D01*
X61586Y-45151D01*
X61541Y-45151D01*
X61518Y-45140D01*
X61507Y-45129D01*
X61496Y-45106D01*
X61394Y-45298D02*
X61394Y-45320D01*
X61406Y-45343D01*
X61417Y-45354D01*
X61439Y-45365D01*
X61484Y-45376D01*
X61541Y-45376D01*
X61586Y-45365D01*
X61608Y-45354D01*
X61619Y-45343D01*
X61631Y-45320D01*
X61631Y-45298D01*
X61619Y-45275D01*
X61608Y-45264D01*
X61586Y-45253D01*
X61541Y-45241D01*
X61484Y-45241D01*
X61439Y-45253D01*
X61417Y-45264D01*
X61406Y-45275D01*
X61394Y-45298D01*
X65323Y-37052D02*
X65211Y-36974D01*
X65323Y-36917D02*
X65087Y-36917D01*
X65087Y-37007D01*
X65098Y-37030D01*
X65110Y-37041D01*
X65132Y-37052D01*
X65166Y-37052D01*
X65188Y-37041D01*
X65200Y-37030D01*
X65211Y-37007D01*
X65211Y-36917D01*
X65087Y-37266D02*
X65087Y-37154D01*
X65200Y-37142D01*
X65188Y-37154D01*
X65177Y-37176D01*
X65177Y-37232D01*
X65188Y-37255D01*
X65200Y-37266D01*
X65222Y-37277D01*
X65278Y-37277D01*
X65301Y-37266D01*
X65312Y-37255D01*
X65323Y-37232D01*
X65323Y-37176D01*
X65312Y-37154D01*
X65301Y-37142D01*
X65087Y-37424D02*
X65087Y-37446D01*
X65098Y-37469D01*
X65110Y-37480D01*
X65132Y-37491D01*
X65177Y-37502D01*
X65233Y-37502D01*
X65278Y-37491D01*
X65301Y-37480D01*
X65312Y-37469D01*
X65323Y-37446D01*
X65323Y-37424D01*
X65312Y-37401D01*
X65301Y-37390D01*
X65278Y-37379D01*
X65233Y-37367D01*
X65177Y-37367D01*
X65132Y-37379D01*
X65110Y-37390D01*
X65098Y-37401D01*
X65087Y-37424D01*
X65812Y-37044D02*
X65699Y-36966D01*
X65812Y-36910D02*
X65575Y-36910D01*
X65575Y-37000D01*
X65587Y-37022D01*
X65598Y-37033D01*
X65620Y-37044D01*
X65654Y-37044D01*
X65677Y-37033D01*
X65688Y-37022D01*
X65699Y-37000D01*
X65699Y-36910D01*
X65575Y-37258D02*
X65575Y-37146D01*
X65688Y-37134D01*
X65677Y-37146D01*
X65665Y-37168D01*
X65665Y-37224D01*
X65677Y-37247D01*
X65688Y-37258D01*
X65710Y-37269D01*
X65767Y-37269D01*
X65789Y-37258D01*
X65800Y-37247D01*
X65812Y-37224D01*
X65812Y-37168D01*
X65800Y-37146D01*
X65789Y-37134D01*
X65575Y-37472D02*
X65575Y-37427D01*
X65587Y-37404D01*
X65598Y-37393D01*
X65632Y-37371D01*
X65677Y-37359D01*
X65767Y-37359D01*
X65789Y-37371D01*
X65800Y-37382D01*
X65812Y-37404D01*
X65812Y-37449D01*
X65800Y-37472D01*
X65789Y-37483D01*
X65767Y-37494D01*
X65710Y-37494D01*
X65688Y-37483D01*
X65677Y-37472D01*
X65665Y-37449D01*
X65665Y-37404D01*
X65677Y-37382D01*
X65688Y-37371D01*
X65710Y-37359D01*
X64820Y-37052D02*
X64707Y-36974D01*
X64820Y-36917D02*
X64583Y-36917D01*
X64583Y-37007D01*
X64595Y-37030D01*
X64606Y-37041D01*
X64628Y-37052D01*
X64662Y-37052D01*
X64685Y-37041D01*
X64696Y-37030D01*
X64707Y-37007D01*
X64707Y-36917D01*
X64583Y-37255D02*
X64583Y-37210D01*
X64595Y-37187D01*
X64606Y-37176D01*
X64640Y-37154D01*
X64685Y-37142D01*
X64775Y-37142D01*
X64797Y-37154D01*
X64808Y-37165D01*
X64820Y-37187D01*
X64820Y-37232D01*
X64808Y-37255D01*
X64797Y-37266D01*
X64775Y-37277D01*
X64718Y-37277D01*
X64696Y-37266D01*
X64685Y-37255D01*
X64673Y-37232D01*
X64673Y-37187D01*
X64685Y-37165D01*
X64696Y-37154D01*
X64718Y-37142D01*
X64583Y-37356D02*
X64583Y-37502D01*
X64673Y-37424D01*
X64673Y-37457D01*
X64685Y-37480D01*
X64696Y-37491D01*
X64718Y-37502D01*
X64775Y-37502D01*
X64797Y-37491D01*
X64808Y-37480D01*
X64820Y-37457D01*
X64820Y-37390D01*
X64808Y-37367D01*
X64797Y-37356D01*
X58540Y-47052D02*
X58428Y-46974D01*
X58540Y-46917D02*
X58304Y-46917D01*
X58304Y-47007D01*
X58315Y-47030D01*
X58326Y-47041D01*
X58349Y-47052D01*
X58383Y-47052D01*
X58405Y-47041D01*
X58416Y-47030D01*
X58428Y-47007D01*
X58428Y-46917D01*
X58304Y-47255D02*
X58304Y-47210D01*
X58315Y-47187D01*
X58326Y-47176D01*
X58360Y-47154D01*
X58405Y-47142D01*
X58495Y-47142D01*
X58517Y-47154D01*
X58529Y-47165D01*
X58540Y-47187D01*
X58540Y-47232D01*
X58529Y-47255D01*
X58517Y-47266D01*
X58495Y-47277D01*
X58439Y-47277D01*
X58416Y-47266D01*
X58405Y-47255D01*
X58394Y-47232D01*
X58394Y-47187D01*
X58405Y-47165D01*
X58416Y-47154D01*
X58439Y-47142D01*
X58540Y-47390D02*
X58540Y-47435D01*
X58529Y-47457D01*
X58517Y-47469D01*
X58484Y-47491D01*
X58439Y-47502D01*
X58349Y-47502D01*
X58326Y-47491D01*
X58315Y-47480D01*
X58304Y-47457D01*
X58304Y-47412D01*
X58315Y-47390D01*
X58326Y-47379D01*
X58349Y-47367D01*
X58405Y-47367D01*
X58428Y-47379D01*
X58439Y-47390D01*
X58450Y-47412D01*
X58450Y-47457D01*
X58439Y-47480D01*
X58428Y-47491D01*
X58405Y-47502D01*
X53793Y-44524D02*
X53872Y-44412D01*
X53928Y-44524D02*
X53928Y-44288D01*
X53838Y-44288D01*
X53816Y-44299D01*
X53804Y-44311D01*
X53793Y-44333D01*
X53793Y-44367D01*
X53804Y-44389D01*
X53816Y-44401D01*
X53838Y-44412D01*
X53928Y-44412D01*
X53591Y-44288D02*
X53636Y-44288D01*
X53658Y-44299D01*
X53669Y-44311D01*
X53692Y-44344D01*
X53703Y-44389D01*
X53703Y-44479D01*
X53692Y-44502D01*
X53681Y-44513D01*
X53658Y-44524D01*
X53613Y-44524D01*
X53591Y-44513D01*
X53579Y-44502D01*
X53568Y-44479D01*
X53568Y-44423D01*
X53579Y-44401D01*
X53591Y-44389D01*
X53613Y-44378D01*
X53658Y-44378D01*
X53681Y-44389D01*
X53692Y-44401D01*
X53703Y-44423D01*
X53433Y-44389D02*
X53456Y-44378D01*
X53467Y-44367D01*
X53478Y-44344D01*
X53478Y-44333D01*
X53467Y-44311D01*
X53456Y-44299D01*
X53433Y-44288D01*
X53388Y-44288D01*
X53366Y-44299D01*
X53354Y-44311D01*
X53343Y-44333D01*
X53343Y-44344D01*
X53354Y-44367D01*
X53366Y-44378D01*
X53388Y-44389D01*
X53433Y-44389D01*
X53456Y-44401D01*
X53467Y-44412D01*
X53478Y-44434D01*
X53478Y-44479D01*
X53467Y-44502D01*
X53456Y-44513D01*
X53433Y-44524D01*
X53388Y-44524D01*
X53366Y-44513D01*
X53354Y-44502D01*
X53343Y-44479D01*
X53343Y-44434D01*
X53354Y-44412D01*
X53366Y-44401D01*
X53388Y-44389D01*
X47497Y-45696D02*
X47384Y-45617D01*
X47497Y-45561D02*
X47260Y-45561D01*
X47260Y-45651D01*
X47272Y-45673D01*
X47283Y-45685D01*
X47305Y-45696D01*
X47339Y-45696D01*
X47362Y-45685D01*
X47373Y-45673D01*
X47384Y-45651D01*
X47384Y-45561D01*
X47497Y-45921D02*
X47497Y-45786D01*
X47497Y-45853D02*
X47260Y-45853D01*
X47294Y-45831D01*
X47317Y-45808D01*
X47328Y-45786D01*
X47260Y-46067D02*
X47260Y-46089D01*
X47272Y-46112D01*
X47283Y-46123D01*
X47305Y-46134D01*
X47350Y-46146D01*
X47407Y-46146D01*
X47452Y-46134D01*
X47474Y-46123D01*
X47485Y-46112D01*
X47497Y-46089D01*
X47497Y-46067D01*
X47485Y-46044D01*
X47474Y-46033D01*
X47452Y-46022D01*
X47407Y-46011D01*
X47350Y-46011D01*
X47305Y-46022D01*
X47283Y-46033D01*
X47272Y-46044D01*
X47260Y-46067D01*
X47339Y-46348D02*
X47497Y-46348D01*
X47249Y-46292D02*
X47418Y-46236D01*
X47418Y-46382D01*
X43638Y-44533D02*
X43526Y-44454D01*
X43638Y-44398D02*
X43402Y-44398D01*
X43402Y-44488D01*
X43413Y-44510D01*
X43425Y-44521D01*
X43447Y-44533D01*
X43481Y-44533D01*
X43503Y-44521D01*
X43515Y-44510D01*
X43526Y-44488D01*
X43526Y-44398D01*
X43638Y-44645D02*
X43638Y-44690D01*
X43627Y-44713D01*
X43616Y-44724D01*
X43582Y-44746D01*
X43537Y-44758D01*
X43447Y-44758D01*
X43425Y-44746D01*
X43413Y-44735D01*
X43402Y-44713D01*
X43402Y-44668D01*
X43413Y-44645D01*
X43425Y-44634D01*
X43447Y-44623D01*
X43503Y-44623D01*
X43526Y-44634D01*
X43537Y-44645D01*
X43548Y-44668D01*
X43548Y-44713D01*
X43537Y-44735D01*
X43526Y-44746D01*
X43503Y-44758D01*
X43402Y-44960D02*
X43402Y-44915D01*
X43413Y-44893D01*
X43425Y-44881D01*
X43458Y-44859D01*
X43503Y-44848D01*
X43593Y-44848D01*
X43616Y-44859D01*
X43627Y-44870D01*
X43638Y-44893D01*
X43638Y-44938D01*
X43627Y-44960D01*
X43616Y-44971D01*
X43593Y-44983D01*
X43537Y-44983D01*
X43515Y-44971D01*
X43503Y-44960D01*
X43492Y-44938D01*
X43492Y-44893D01*
X43503Y-44870D01*
X43515Y-44859D01*
X43537Y-44848D01*
X46726Y-46158D02*
X46805Y-46046D01*
X46861Y-46158D02*
X46861Y-45922D01*
X46771Y-45922D01*
X46749Y-45933D01*
X46737Y-45944D01*
X46726Y-45967D01*
X46726Y-46001D01*
X46737Y-46023D01*
X46749Y-46034D01*
X46771Y-46046D01*
X46861Y-46046D01*
X46614Y-46158D02*
X46569Y-46158D01*
X46546Y-46147D01*
X46535Y-46136D01*
X46512Y-46102D01*
X46501Y-46057D01*
X46501Y-45967D01*
X46512Y-45944D01*
X46524Y-45933D01*
X46546Y-45922D01*
X46591Y-45922D01*
X46614Y-45933D01*
X46625Y-45944D01*
X46636Y-45967D01*
X46636Y-46023D01*
X46625Y-46046D01*
X46614Y-46057D01*
X46591Y-46068D01*
X46546Y-46068D01*
X46524Y-46057D01*
X46512Y-46046D01*
X46501Y-46023D01*
X46411Y-45944D02*
X46400Y-45933D01*
X46377Y-45922D01*
X46321Y-45922D01*
X46299Y-45933D01*
X46287Y-45944D01*
X46276Y-45967D01*
X46276Y-45989D01*
X46287Y-46023D01*
X46422Y-46158D01*
X46276Y-46158D01*
X44131Y-45202D02*
X44018Y-45123D01*
X44131Y-45067D02*
X43894Y-45067D01*
X43894Y-45157D01*
X43906Y-45179D01*
X43917Y-45191D01*
X43939Y-45202D01*
X43973Y-45202D01*
X43996Y-45191D01*
X44007Y-45179D01*
X44018Y-45157D01*
X44018Y-45067D01*
X44131Y-45314D02*
X44131Y-45359D01*
X44119Y-45382D01*
X44108Y-45393D01*
X44074Y-45416D01*
X44029Y-45427D01*
X43939Y-45427D01*
X43917Y-45416D01*
X43906Y-45404D01*
X43894Y-45382D01*
X43894Y-45337D01*
X43906Y-45314D01*
X43917Y-45303D01*
X43939Y-45292D01*
X43996Y-45292D01*
X44018Y-45303D01*
X44029Y-45314D01*
X44041Y-45337D01*
X44041Y-45382D01*
X44029Y-45404D01*
X44018Y-45416D01*
X43996Y-45427D01*
X43894Y-45573D02*
X43894Y-45596D01*
X43906Y-45618D01*
X43917Y-45629D01*
X43939Y-45641D01*
X43984Y-45652D01*
X44041Y-45652D01*
X44086Y-45641D01*
X44108Y-45629D01*
X44119Y-45618D01*
X44131Y-45596D01*
X44131Y-45573D01*
X44119Y-45551D01*
X44108Y-45539D01*
X44086Y-45528D01*
X44041Y-45517D01*
X43984Y-45517D01*
X43939Y-45528D01*
X43917Y-45539D01*
X43906Y-45551D01*
X43894Y-45573D01*
X44836Y-46079D02*
X44915Y-45967D01*
X44971Y-46079D02*
X44971Y-45843D01*
X44881Y-45843D01*
X44859Y-45854D01*
X44848Y-45866D01*
X44836Y-45888D01*
X44836Y-45922D01*
X44848Y-45944D01*
X44859Y-45956D01*
X44881Y-45967D01*
X44971Y-45967D01*
X44701Y-45944D02*
X44724Y-45933D01*
X44735Y-45922D01*
X44746Y-45899D01*
X44746Y-45888D01*
X44735Y-45866D01*
X44724Y-45854D01*
X44701Y-45843D01*
X44656Y-45843D01*
X44634Y-45854D01*
X44623Y-45866D01*
X44611Y-45888D01*
X44611Y-45899D01*
X44623Y-45922D01*
X44634Y-45933D01*
X44656Y-45944D01*
X44701Y-45944D01*
X44724Y-45956D01*
X44735Y-45967D01*
X44746Y-45989D01*
X44746Y-46034D01*
X44735Y-46057D01*
X44724Y-46068D01*
X44701Y-46079D01*
X44656Y-46079D01*
X44634Y-46068D01*
X44623Y-46057D01*
X44611Y-46034D01*
X44611Y-45989D01*
X44623Y-45967D01*
X44634Y-45956D01*
X44656Y-45944D01*
X44499Y-46079D02*
X44454Y-46079D01*
X44431Y-46068D01*
X44420Y-46057D01*
X44398Y-46023D01*
X44386Y-45978D01*
X44386Y-45888D01*
X44398Y-45866D01*
X44409Y-45854D01*
X44431Y-45843D01*
X44476Y-45843D01*
X44499Y-45854D01*
X44510Y-45866D01*
X44521Y-45888D01*
X44521Y-45944D01*
X44510Y-45967D01*
X44499Y-45978D01*
X44476Y-45989D01*
X44431Y-45989D01*
X44409Y-45978D01*
X44398Y-45967D01*
X44386Y-45944D01*
X47045Y-46536D02*
X47124Y-46424D01*
X47180Y-46536D02*
X47180Y-46300D01*
X47090Y-46300D01*
X47068Y-46311D01*
X47056Y-46322D01*
X47045Y-46345D01*
X47045Y-46379D01*
X47056Y-46401D01*
X47068Y-46412D01*
X47090Y-46424D01*
X47180Y-46424D01*
X46933Y-46536D02*
X46888Y-46536D01*
X46865Y-46525D01*
X46854Y-46514D01*
X46831Y-46480D01*
X46820Y-46435D01*
X46820Y-46345D01*
X46831Y-46322D01*
X46843Y-46311D01*
X46865Y-46300D01*
X46910Y-46300D01*
X46933Y-46311D01*
X46944Y-46322D01*
X46955Y-46345D01*
X46955Y-46401D01*
X46944Y-46424D01*
X46933Y-46435D01*
X46910Y-46446D01*
X46865Y-46446D01*
X46843Y-46435D01*
X46831Y-46424D01*
X46820Y-46401D01*
X46595Y-46536D02*
X46730Y-46536D01*
X46663Y-46536D02*
X46663Y-46300D01*
X46685Y-46334D01*
X46708Y-46356D01*
X46730Y-46367D01*
X43772Y-50312D02*
X43660Y-50233D01*
X43772Y-50177D02*
X43536Y-50177D01*
X43536Y-50267D01*
X43547Y-50290D01*
X43559Y-50301D01*
X43581Y-50312D01*
X43615Y-50312D01*
X43637Y-50301D01*
X43649Y-50290D01*
X43660Y-50267D01*
X43660Y-50177D01*
X43772Y-50425D02*
X43772Y-50470D01*
X43761Y-50492D01*
X43750Y-50503D01*
X43716Y-50526D01*
X43671Y-50537D01*
X43581Y-50537D01*
X43559Y-50526D01*
X43547Y-50515D01*
X43536Y-50492D01*
X43536Y-50447D01*
X43547Y-50425D01*
X43559Y-50413D01*
X43581Y-50402D01*
X43637Y-50402D01*
X43660Y-50413D01*
X43671Y-50425D01*
X43682Y-50447D01*
X43682Y-50492D01*
X43671Y-50515D01*
X43660Y-50526D01*
X43637Y-50537D01*
X43772Y-50650D02*
X43772Y-50695D01*
X43761Y-50717D01*
X43750Y-50728D01*
X43716Y-50751D01*
X43671Y-50762D01*
X43581Y-50762D01*
X43559Y-50751D01*
X43547Y-50740D01*
X43536Y-50717D01*
X43536Y-50672D01*
X43547Y-50650D01*
X43559Y-50638D01*
X43581Y-50627D01*
X43637Y-50627D01*
X43660Y-50638D01*
X43671Y-50650D01*
X43682Y-50672D01*
X43682Y-50717D01*
X43671Y-50740D01*
X43660Y-50751D01*
X43637Y-50762D01*
X52793Y-46607D02*
X52872Y-46494D01*
X52928Y-46607D02*
X52928Y-46371D01*
X52838Y-46371D01*
X52816Y-46382D01*
X52804Y-46393D01*
X52793Y-46416D01*
X52793Y-46449D01*
X52804Y-46472D01*
X52816Y-46483D01*
X52838Y-46494D01*
X52928Y-46494D01*
X52681Y-46607D02*
X52636Y-46607D01*
X52613Y-46596D01*
X52602Y-46584D01*
X52579Y-46551D01*
X52568Y-46506D01*
X52568Y-46416D01*
X52579Y-46393D01*
X52591Y-46382D01*
X52613Y-46371D01*
X52658Y-46371D01*
X52681Y-46382D01*
X52692Y-46393D01*
X52703Y-46416D01*
X52703Y-46472D01*
X52692Y-46494D01*
X52681Y-46506D01*
X52658Y-46517D01*
X52613Y-46517D01*
X52591Y-46506D01*
X52579Y-46494D01*
X52568Y-46472D01*
X52366Y-46449D02*
X52366Y-46607D01*
X52422Y-46359D02*
X52478Y-46528D01*
X52332Y-46528D01*
X52809Y-44071D02*
X52888Y-43959D01*
X52944Y-44071D02*
X52944Y-43835D01*
X52854Y-43835D01*
X52831Y-43847D01*
X52820Y-43858D01*
X52809Y-43880D01*
X52809Y-43914D01*
X52820Y-43937D01*
X52831Y-43948D01*
X52854Y-43959D01*
X52944Y-43959D01*
X52696Y-44071D02*
X52651Y-44071D01*
X52629Y-44060D01*
X52618Y-44049D01*
X52595Y-44015D01*
X52584Y-43970D01*
X52584Y-43880D01*
X52595Y-43858D01*
X52606Y-43847D01*
X52629Y-43835D01*
X52674Y-43835D01*
X52696Y-43847D01*
X52708Y-43858D01*
X52719Y-43880D01*
X52719Y-43937D01*
X52708Y-43959D01*
X52696Y-43970D01*
X52674Y-43982D01*
X52629Y-43982D01*
X52606Y-43970D01*
X52595Y-43959D01*
X52584Y-43937D01*
X52370Y-43835D02*
X52483Y-43835D01*
X52494Y-43948D01*
X52483Y-43937D01*
X52460Y-43925D01*
X52404Y-43925D01*
X52381Y-43937D01*
X52370Y-43948D01*
X52359Y-43970D01*
X52359Y-44026D01*
X52370Y-44049D01*
X52381Y-44060D01*
X52404Y-44071D01*
X52460Y-44071D01*
X52483Y-44060D01*
X52494Y-44049D01*
X46942Y-38881D02*
X46829Y-38802D01*
X46942Y-38746D02*
X46705Y-38746D01*
X46705Y-38836D01*
X46717Y-38858D01*
X46728Y-38870D01*
X46750Y-38881D01*
X46784Y-38881D01*
X46807Y-38870D01*
X46818Y-38858D01*
X46829Y-38836D01*
X46829Y-38746D01*
X46942Y-39106D02*
X46942Y-38971D01*
X46942Y-39038D02*
X46705Y-39038D01*
X46739Y-39016D01*
X46762Y-38993D01*
X46773Y-38971D01*
X46705Y-39252D02*
X46705Y-39275D01*
X46717Y-39297D01*
X46728Y-39308D01*
X46750Y-39320D01*
X46795Y-39331D01*
X46852Y-39331D01*
X46897Y-39320D01*
X46919Y-39308D01*
X46930Y-39297D01*
X46942Y-39275D01*
X46942Y-39252D01*
X46930Y-39230D01*
X46919Y-39218D01*
X46897Y-39207D01*
X46852Y-39196D01*
X46795Y-39196D01*
X46750Y-39207D01*
X46728Y-39218D01*
X46717Y-39230D01*
X46705Y-39252D01*
X46728Y-39421D02*
X46717Y-39432D01*
X46705Y-39455D01*
X46705Y-39511D01*
X46717Y-39533D01*
X46728Y-39544D01*
X46750Y-39556D01*
X46773Y-39556D01*
X46807Y-39544D01*
X46942Y-39410D01*
X46942Y-39556D01*
X46938Y-41345D02*
X46825Y-41267D01*
X46938Y-41210D02*
X46701Y-41210D01*
X46701Y-41300D01*
X46713Y-41323D01*
X46724Y-41334D01*
X46746Y-41345D01*
X46780Y-41345D01*
X46803Y-41334D01*
X46814Y-41323D01*
X46825Y-41300D01*
X46825Y-41210D01*
X46938Y-41570D02*
X46938Y-41435D01*
X46938Y-41503D02*
X46701Y-41503D01*
X46735Y-41480D01*
X46758Y-41458D01*
X46769Y-41435D01*
X46701Y-41717D02*
X46701Y-41739D01*
X46713Y-41762D01*
X46724Y-41773D01*
X46746Y-41784D01*
X46791Y-41795D01*
X46848Y-41795D01*
X46893Y-41784D01*
X46915Y-41773D01*
X46926Y-41762D01*
X46938Y-41739D01*
X46938Y-41717D01*
X46926Y-41694D01*
X46915Y-41683D01*
X46893Y-41672D01*
X46848Y-41660D01*
X46791Y-41660D01*
X46746Y-41672D01*
X46724Y-41683D01*
X46713Y-41694D01*
X46701Y-41717D01*
X46701Y-41874D02*
X46701Y-42020D01*
X46791Y-41942D01*
X46791Y-41975D01*
X46803Y-41998D01*
X46814Y-42009D01*
X46836Y-42020D01*
X46893Y-42020D01*
X46915Y-42009D01*
X46926Y-41998D01*
X46938Y-41975D01*
X46938Y-41908D01*
X46926Y-41885D01*
X46915Y-41874D01*
X46957Y-40271D02*
X46845Y-40192D01*
X46957Y-40136D02*
X46721Y-40136D01*
X46721Y-40226D01*
X46732Y-40248D01*
X46744Y-40259D01*
X46766Y-40271D01*
X46800Y-40271D01*
X46822Y-40259D01*
X46834Y-40248D01*
X46845Y-40226D01*
X46845Y-40136D01*
X46957Y-40496D02*
X46957Y-40361D01*
X46957Y-40428D02*
X46721Y-40428D01*
X46755Y-40406D01*
X46777Y-40383D01*
X46789Y-40361D01*
X46721Y-40642D02*
X46721Y-40664D01*
X46732Y-40687D01*
X46744Y-40698D01*
X46766Y-40709D01*
X46811Y-40721D01*
X46867Y-40721D01*
X46912Y-40709D01*
X46935Y-40698D01*
X46946Y-40687D01*
X46957Y-40664D01*
X46957Y-40642D01*
X46946Y-40619D01*
X46935Y-40608D01*
X46912Y-40597D01*
X46867Y-40586D01*
X46811Y-40586D01*
X46766Y-40597D01*
X46744Y-40608D01*
X46732Y-40619D01*
X46721Y-40642D01*
X46721Y-40934D02*
X46721Y-40822D01*
X46834Y-40811D01*
X46822Y-40822D01*
X46811Y-40844D01*
X46811Y-40901D01*
X46822Y-40923D01*
X46834Y-40934D01*
X46856Y-40946D01*
X46912Y-40946D01*
X46935Y-40934D01*
X46946Y-40923D01*
X46957Y-40901D01*
X46957Y-40844D01*
X46946Y-40822D01*
X46935Y-40811D01*
X47233Y-37793D02*
X47120Y-37714D01*
X47233Y-37658D02*
X46997Y-37658D01*
X46997Y-37748D01*
X47008Y-37770D01*
X47019Y-37781D01*
X47042Y-37793D01*
X47075Y-37793D01*
X47098Y-37781D01*
X47109Y-37770D01*
X47120Y-37748D01*
X47120Y-37658D01*
X47233Y-37905D02*
X47233Y-37950D01*
X47222Y-37973D01*
X47210Y-37984D01*
X47177Y-38006D01*
X47132Y-38017D01*
X47042Y-38017D01*
X47019Y-38006D01*
X47008Y-37995D01*
X46997Y-37973D01*
X46997Y-37928D01*
X47008Y-37905D01*
X47019Y-37894D01*
X47042Y-37883D01*
X47098Y-37883D01*
X47120Y-37894D01*
X47132Y-37905D01*
X47143Y-37928D01*
X47143Y-37973D01*
X47132Y-37995D01*
X47120Y-38006D01*
X47098Y-38017D01*
X46997Y-38096D02*
X46997Y-38254D01*
X47233Y-38152D01*
X47862Y-44977D02*
X47941Y-44865D01*
X47997Y-44977D02*
X47997Y-44741D01*
X47907Y-44741D01*
X47885Y-44752D01*
X47874Y-44763D01*
X47862Y-44786D01*
X47862Y-44820D01*
X47874Y-44842D01*
X47885Y-44853D01*
X47907Y-44865D01*
X47997Y-44865D01*
X47637Y-44977D02*
X47772Y-44977D01*
X47705Y-44977D02*
X47705Y-44741D01*
X47727Y-44775D01*
X47750Y-44797D01*
X47772Y-44808D01*
X47491Y-44741D02*
X47469Y-44741D01*
X47446Y-44752D01*
X47435Y-44763D01*
X47424Y-44786D01*
X47412Y-44831D01*
X47412Y-44887D01*
X47424Y-44932D01*
X47435Y-44955D01*
X47446Y-44966D01*
X47469Y-44977D01*
X47491Y-44977D01*
X47514Y-44966D01*
X47525Y-44955D01*
X47536Y-44932D01*
X47547Y-44887D01*
X47547Y-44831D01*
X47536Y-44786D01*
X47525Y-44763D01*
X47514Y-44752D01*
X47491Y-44741D01*
X47266Y-44741D02*
X47244Y-44741D01*
X47221Y-44752D01*
X47210Y-44763D01*
X47199Y-44786D01*
X47187Y-44831D01*
X47187Y-44887D01*
X47199Y-44932D01*
X47210Y-44955D01*
X47221Y-44966D01*
X47244Y-44977D01*
X47266Y-44977D01*
X47289Y-44966D01*
X47300Y-44955D01*
X47311Y-44932D01*
X47322Y-44887D01*
X47322Y-44831D01*
X47311Y-44786D01*
X47300Y-44763D01*
X47289Y-44752D01*
X47266Y-44741D01*
X65292Y-48627D02*
X65179Y-48548D01*
X65292Y-48492D02*
X65056Y-48492D01*
X65056Y-48582D01*
X65067Y-48605D01*
X65078Y-48616D01*
X65101Y-48627D01*
X65134Y-48627D01*
X65157Y-48616D01*
X65168Y-48605D01*
X65179Y-48582D01*
X65179Y-48492D01*
X65157Y-48762D02*
X65146Y-48740D01*
X65134Y-48728D01*
X65112Y-48717D01*
X65101Y-48717D01*
X65078Y-48728D01*
X65067Y-48740D01*
X65056Y-48762D01*
X65056Y-48807D01*
X65067Y-48830D01*
X65078Y-48841D01*
X65101Y-48852D01*
X65112Y-48852D01*
X65134Y-48841D01*
X65146Y-48830D01*
X65157Y-48807D01*
X65157Y-48762D01*
X65168Y-48740D01*
X65179Y-48728D01*
X65202Y-48717D01*
X65247Y-48717D01*
X65269Y-48728D01*
X65281Y-48740D01*
X65292Y-48762D01*
X65292Y-48807D01*
X65281Y-48830D01*
X65269Y-48841D01*
X65247Y-48852D01*
X65202Y-48852D01*
X65179Y-48841D01*
X65168Y-48830D01*
X65157Y-48807D01*
X65056Y-49055D02*
X65056Y-49010D01*
X65067Y-48987D01*
X65078Y-48976D01*
X65112Y-48953D01*
X65157Y-48942D01*
X65247Y-48942D01*
X65269Y-48953D01*
X65281Y-48965D01*
X65292Y-48987D01*
X65292Y-49032D01*
X65281Y-49055D01*
X65269Y-49066D01*
X65247Y-49077D01*
X65191Y-49077D01*
X65168Y-49066D01*
X65157Y-49055D01*
X65146Y-49032D01*
X65146Y-48987D01*
X65157Y-48965D01*
X65168Y-48953D01*
X65191Y-48942D01*
X64494Y-49056D02*
X64573Y-48943D01*
X64629Y-49056D02*
X64629Y-48820D01*
X64539Y-48820D01*
X64516Y-48831D01*
X64505Y-48842D01*
X64494Y-48865D01*
X64494Y-48898D01*
X64505Y-48921D01*
X64516Y-48932D01*
X64539Y-48943D01*
X64629Y-48943D01*
X64359Y-48921D02*
X64381Y-48910D01*
X64393Y-48898D01*
X64404Y-48876D01*
X64404Y-48865D01*
X64393Y-48842D01*
X64381Y-48831D01*
X64359Y-48820D01*
X64314Y-48820D01*
X64291Y-48831D01*
X64280Y-48842D01*
X64269Y-48865D01*
X64269Y-48876D01*
X64280Y-48898D01*
X64291Y-48910D01*
X64314Y-48921D01*
X64359Y-48921D01*
X64381Y-48932D01*
X64393Y-48943D01*
X64404Y-48966D01*
X64404Y-49011D01*
X64393Y-49033D01*
X64381Y-49044D01*
X64359Y-49056D01*
X64314Y-49056D01*
X64291Y-49044D01*
X64280Y-49033D01*
X64269Y-49011D01*
X64269Y-48966D01*
X64280Y-48943D01*
X64291Y-48932D01*
X64314Y-48921D01*
X64190Y-48820D02*
X64033Y-48820D01*
X64134Y-49056D01*
X64147Y-48225D02*
X64226Y-48113D01*
X64282Y-48225D02*
X64282Y-47989D01*
X64192Y-47989D01*
X64170Y-48000D01*
X64159Y-48011D01*
X64147Y-48034D01*
X64147Y-48068D01*
X64159Y-48090D01*
X64170Y-48101D01*
X64192Y-48113D01*
X64282Y-48113D01*
X64012Y-48090D02*
X64035Y-48079D01*
X64046Y-48068D01*
X64057Y-48045D01*
X64057Y-48034D01*
X64046Y-48011D01*
X64035Y-48000D01*
X64012Y-47989D01*
X63967Y-47989D01*
X63945Y-48000D01*
X63934Y-48011D01*
X63922Y-48034D01*
X63922Y-48045D01*
X63934Y-48068D01*
X63945Y-48079D01*
X63967Y-48090D01*
X64012Y-48090D01*
X64035Y-48101D01*
X64046Y-48113D01*
X64057Y-48135D01*
X64057Y-48180D01*
X64046Y-48203D01*
X64035Y-48214D01*
X64012Y-48225D01*
X63967Y-48225D01*
X63945Y-48214D01*
X63934Y-48203D01*
X63922Y-48180D01*
X63922Y-48135D01*
X63934Y-48113D01*
X63945Y-48101D01*
X63967Y-48090D01*
X63787Y-48090D02*
X63810Y-48079D01*
X63821Y-48068D01*
X63832Y-48045D01*
X63832Y-48034D01*
X63821Y-48011D01*
X63810Y-48000D01*
X63787Y-47989D01*
X63742Y-47989D01*
X63720Y-48000D01*
X63709Y-48011D01*
X63697Y-48034D01*
X63697Y-48045D01*
X63709Y-48068D01*
X63720Y-48079D01*
X63742Y-48090D01*
X63787Y-48090D01*
X63810Y-48101D01*
X63821Y-48113D01*
X63832Y-48135D01*
X63832Y-48180D01*
X63821Y-48203D01*
X63810Y-48214D01*
X63787Y-48225D01*
X63742Y-48225D01*
X63720Y-48214D01*
X63709Y-48203D01*
X63697Y-48180D01*
X63697Y-48135D01*
X63709Y-48113D01*
X63720Y-48101D01*
X63742Y-48090D01*
X62868Y-47142D02*
X62947Y-47030D01*
X63003Y-47142D02*
X63003Y-46906D01*
X62913Y-46906D01*
X62890Y-46917D01*
X62879Y-46929D01*
X62868Y-46951D01*
X62868Y-46985D01*
X62879Y-47007D01*
X62890Y-47019D01*
X62913Y-47030D01*
X63003Y-47030D01*
X62733Y-47007D02*
X62755Y-46996D01*
X62767Y-46985D01*
X62778Y-46962D01*
X62778Y-46951D01*
X62767Y-46929D01*
X62755Y-46917D01*
X62733Y-46906D01*
X62688Y-46906D01*
X62665Y-46917D01*
X62654Y-46929D01*
X62643Y-46951D01*
X62643Y-46962D01*
X62654Y-46985D01*
X62665Y-46996D01*
X62688Y-47007D01*
X62733Y-47007D01*
X62755Y-47019D01*
X62767Y-47030D01*
X62778Y-47052D01*
X62778Y-47097D01*
X62767Y-47120D01*
X62755Y-47131D01*
X62733Y-47142D01*
X62688Y-47142D01*
X62665Y-47131D01*
X62654Y-47120D01*
X62643Y-47097D01*
X62643Y-47052D01*
X62654Y-47030D01*
X62665Y-47019D01*
X62688Y-47007D01*
X62553Y-46929D02*
X62542Y-46917D01*
X62519Y-46906D01*
X62463Y-46906D01*
X62440Y-46917D01*
X62429Y-46929D01*
X62418Y-46951D01*
X62418Y-46974D01*
X62429Y-47007D01*
X62564Y-47142D01*
X62418Y-47142D01*
X61119Y-44926D02*
X61006Y-44848D01*
X61119Y-44791D02*
X60883Y-44791D01*
X60883Y-44881D01*
X60894Y-44904D01*
X60905Y-44915D01*
X60928Y-44926D01*
X60961Y-44926D01*
X60984Y-44915D01*
X60995Y-44904D01*
X61006Y-44881D01*
X61006Y-44791D01*
X60984Y-45061D02*
X60973Y-45039D01*
X60961Y-45028D01*
X60939Y-45016D01*
X60928Y-45016D01*
X60905Y-45028D01*
X60894Y-45039D01*
X60883Y-45061D01*
X60883Y-45106D01*
X60894Y-45129D01*
X60905Y-45140D01*
X60928Y-45151D01*
X60939Y-45151D01*
X60961Y-45140D01*
X60973Y-45129D01*
X60984Y-45106D01*
X60984Y-45061D01*
X60995Y-45039D01*
X61006Y-45028D01*
X61029Y-45016D01*
X61074Y-45016D01*
X61096Y-45028D01*
X61107Y-45039D01*
X61119Y-45061D01*
X61119Y-45106D01*
X61107Y-45129D01*
X61096Y-45140D01*
X61074Y-45151D01*
X61029Y-45151D01*
X61006Y-45140D01*
X60995Y-45129D01*
X60984Y-45106D01*
X61119Y-45376D02*
X61119Y-45241D01*
X61119Y-45309D02*
X60883Y-45309D01*
X60916Y-45286D01*
X60939Y-45264D01*
X60950Y-45241D01*
X58855Y-47052D02*
X58742Y-46974D01*
X58855Y-46917D02*
X58619Y-46917D01*
X58619Y-47007D01*
X58630Y-47030D01*
X58641Y-47041D01*
X58664Y-47052D01*
X58697Y-47052D01*
X58720Y-47041D01*
X58731Y-47030D01*
X58742Y-47007D01*
X58742Y-46917D01*
X58619Y-47255D02*
X58619Y-47210D01*
X58630Y-47187D01*
X58641Y-47176D01*
X58675Y-47154D01*
X58720Y-47142D01*
X58810Y-47142D01*
X58832Y-47154D01*
X58844Y-47165D01*
X58855Y-47187D01*
X58855Y-47232D01*
X58844Y-47255D01*
X58832Y-47266D01*
X58810Y-47277D01*
X58754Y-47277D01*
X58731Y-47266D01*
X58720Y-47255D01*
X58709Y-47232D01*
X58709Y-47187D01*
X58720Y-47165D01*
X58731Y-47154D01*
X58754Y-47142D01*
X58619Y-47491D02*
X58619Y-47379D01*
X58731Y-47367D01*
X58720Y-47379D01*
X58709Y-47401D01*
X58709Y-47457D01*
X58720Y-47480D01*
X58731Y-47491D01*
X58754Y-47502D01*
X58810Y-47502D01*
X58832Y-47491D01*
X58844Y-47480D01*
X58855Y-47457D01*
X58855Y-47401D01*
X58844Y-47379D01*
X58832Y-47367D01*
X64808Y-38875D02*
X64695Y-38796D01*
X64808Y-38740D02*
X64571Y-38740D01*
X64571Y-38830D01*
X64583Y-38853D01*
X64594Y-38864D01*
X64616Y-38875D01*
X64650Y-38875D01*
X64673Y-38864D01*
X64684Y-38853D01*
X64695Y-38830D01*
X64695Y-38740D01*
X64571Y-39089D02*
X64571Y-38976D01*
X64684Y-38965D01*
X64673Y-38976D01*
X64661Y-38999D01*
X64661Y-39055D01*
X64673Y-39078D01*
X64684Y-39089D01*
X64706Y-39100D01*
X64763Y-39100D01*
X64785Y-39089D01*
X64796Y-39078D01*
X64808Y-39055D01*
X64808Y-38999D01*
X64796Y-38976D01*
X64785Y-38965D01*
X64808Y-39325D02*
X64808Y-39190D01*
X64808Y-39258D02*
X64571Y-39258D01*
X64605Y-39235D01*
X64628Y-39213D01*
X64639Y-39190D01*
X65304Y-38879D02*
X65191Y-38800D01*
X65304Y-38744D02*
X65068Y-38744D01*
X65068Y-38834D01*
X65079Y-38857D01*
X65090Y-38868D01*
X65113Y-38879D01*
X65146Y-38879D01*
X65169Y-38868D01*
X65180Y-38857D01*
X65191Y-38834D01*
X65191Y-38744D01*
X65068Y-39082D02*
X65068Y-39037D01*
X65079Y-39014D01*
X65090Y-39003D01*
X65124Y-38980D01*
X65169Y-38969D01*
X65259Y-38969D01*
X65281Y-38980D01*
X65293Y-38992D01*
X65304Y-39014D01*
X65304Y-39059D01*
X65293Y-39082D01*
X65281Y-39093D01*
X65259Y-39104D01*
X65203Y-39104D01*
X65180Y-39093D01*
X65169Y-39082D01*
X65158Y-39059D01*
X65158Y-39014D01*
X65169Y-38992D01*
X65180Y-38980D01*
X65203Y-38969D01*
X65090Y-39194D02*
X65079Y-39205D01*
X65068Y-39228D01*
X65068Y-39284D01*
X65079Y-39307D01*
X65090Y-39318D01*
X65113Y-39329D01*
X65135Y-39329D01*
X65169Y-39318D01*
X65304Y-39183D01*
X65304Y-39329D01*
X64308Y-38883D02*
X64195Y-38804D01*
X64308Y-38748D02*
X64071Y-38748D01*
X64071Y-38838D01*
X64083Y-38861D01*
X64094Y-38872D01*
X64116Y-38883D01*
X64150Y-38883D01*
X64173Y-38872D01*
X64184Y-38861D01*
X64195Y-38838D01*
X64195Y-38748D01*
X64071Y-39097D02*
X64071Y-38984D01*
X64184Y-38973D01*
X64173Y-38984D01*
X64161Y-39007D01*
X64161Y-39063D01*
X64173Y-39086D01*
X64184Y-39097D01*
X64206Y-39108D01*
X64263Y-39108D01*
X64285Y-39097D01*
X64296Y-39086D01*
X64308Y-39063D01*
X64308Y-39007D01*
X64296Y-38984D01*
X64285Y-38973D01*
X64071Y-39322D02*
X64071Y-39209D01*
X64184Y-39198D01*
X64173Y-39209D01*
X64161Y-39232D01*
X64161Y-39288D01*
X64173Y-39311D01*
X64184Y-39322D01*
X64206Y-39333D01*
X64263Y-39333D01*
X64285Y-39322D01*
X64296Y-39311D01*
X64308Y-39288D01*
X64308Y-39232D01*
X64296Y-39209D01*
X64285Y-39198D01*
X58225Y-47052D02*
X58113Y-46974D01*
X58225Y-46917D02*
X57989Y-46917D01*
X57989Y-47007D01*
X58000Y-47030D01*
X58011Y-47041D01*
X58034Y-47052D01*
X58068Y-47052D01*
X58090Y-47041D01*
X58101Y-47030D01*
X58113Y-47007D01*
X58113Y-46917D01*
X57989Y-47255D02*
X57989Y-47210D01*
X58000Y-47187D01*
X58011Y-47176D01*
X58045Y-47154D01*
X58090Y-47142D01*
X58180Y-47142D01*
X58203Y-47154D01*
X58214Y-47165D01*
X58225Y-47187D01*
X58225Y-47232D01*
X58214Y-47255D01*
X58203Y-47266D01*
X58180Y-47277D01*
X58124Y-47277D01*
X58101Y-47266D01*
X58090Y-47255D01*
X58079Y-47232D01*
X58079Y-47187D01*
X58090Y-47165D01*
X58101Y-47154D01*
X58124Y-47142D01*
X57989Y-47480D02*
X57989Y-47435D01*
X58000Y-47412D01*
X58011Y-47401D01*
X58045Y-47379D01*
X58090Y-47367D01*
X58180Y-47367D01*
X58203Y-47379D01*
X58214Y-47390D01*
X58225Y-47412D01*
X58225Y-47457D01*
X58214Y-47480D01*
X58203Y-47491D01*
X58180Y-47502D01*
X58124Y-47502D01*
X58101Y-47491D01*
X58090Y-47480D01*
X58079Y-47457D01*
X58079Y-47412D01*
X58090Y-47390D01*
X58101Y-47379D01*
X58124Y-47367D01*
X58645Y-48096D02*
X58657Y-48084D01*
X58668Y-48051D01*
X58668Y-48028D01*
X58657Y-47994D01*
X58634Y-47972D01*
X58612Y-47961D01*
X58567Y-47949D01*
X58533Y-47949D01*
X58488Y-47961D01*
X58465Y-47972D01*
X58443Y-47994D01*
X58432Y-48028D01*
X58432Y-48051D01*
X58443Y-48084D01*
X58454Y-48096D01*
X58668Y-48321D02*
X58668Y-48186D01*
X58668Y-48253D02*
X58432Y-48253D01*
X58465Y-48231D01*
X58488Y-48208D01*
X58499Y-48186D01*
X58432Y-48399D02*
X58432Y-48557D01*
X58668Y-48456D01*
G54D18*
X58749Y-48769D02*
X58824Y-48769D01*
X58794Y-48722D02*
X58824Y-48769D01*
X58794Y-48816D01*
X58884Y-48741D02*
X58824Y-48769D01*
X58884Y-48797D01*
G54D16*
X57273Y-50501D02*
X57285Y-50490D01*
X57296Y-50456D01*
X57296Y-50434D01*
X57285Y-50400D01*
X57262Y-50377D01*
X57240Y-50366D01*
X57195Y-50355D01*
X57161Y-50355D01*
X57116Y-50366D01*
X57093Y-50377D01*
X57071Y-50400D01*
X57060Y-50434D01*
X57060Y-50456D01*
X57071Y-50490D01*
X57082Y-50501D01*
X57060Y-50580D02*
X57060Y-50726D01*
X57150Y-50647D01*
X57150Y-50681D01*
X57161Y-50704D01*
X57172Y-50715D01*
X57195Y-50726D01*
X57251Y-50726D01*
X57273Y-50715D01*
X57285Y-50704D01*
X57296Y-50681D01*
X57296Y-50614D01*
X57285Y-50591D01*
X57273Y-50580D01*
X57138Y-50929D02*
X57296Y-50929D01*
X57048Y-50872D02*
X57217Y-50816D01*
X57217Y-50962D01*
G54D18*
X57013Y-50161D02*
X57088Y-50161D01*
X57058Y-50114D02*
X57088Y-50161D01*
X57058Y-50208D01*
X57148Y-50133D02*
X57088Y-50161D01*
X57148Y-50189D01*
G54D16*
X57140Y-44423D02*
X57151Y-44434D01*
X57185Y-44446D01*
X57207Y-44446D01*
X57241Y-44434D01*
X57263Y-44412D01*
X57275Y-44389D01*
X57286Y-44344D01*
X57286Y-44311D01*
X57275Y-44266D01*
X57263Y-44243D01*
X57241Y-44221D01*
X57207Y-44209D01*
X57185Y-44209D01*
X57151Y-44221D01*
X57140Y-44232D01*
X56937Y-44288D02*
X56937Y-44446D01*
X56993Y-44198D02*
X57050Y-44367D01*
X56903Y-44367D01*
X56712Y-44209D02*
X56757Y-44209D01*
X56780Y-44221D01*
X56791Y-44232D01*
X56813Y-44266D01*
X56825Y-44311D01*
X56825Y-44401D01*
X56813Y-44423D01*
X56802Y-44434D01*
X56780Y-44446D01*
X56735Y-44446D01*
X56712Y-44434D01*
X56701Y-44423D01*
X56690Y-44401D01*
X56690Y-44344D01*
X56701Y-44322D01*
X56712Y-44311D01*
X56735Y-44299D01*
X56780Y-44299D01*
X56802Y-44311D01*
X56813Y-44322D01*
X56825Y-44344D01*
X57592Y-36856D02*
X57604Y-36844D01*
X57615Y-36811D01*
X57615Y-36788D01*
X57604Y-36754D01*
X57581Y-36732D01*
X57559Y-36721D01*
X57514Y-36709D01*
X57480Y-36709D01*
X57435Y-36721D01*
X57412Y-36732D01*
X57390Y-36754D01*
X57379Y-36788D01*
X57379Y-36811D01*
X57390Y-36844D01*
X57401Y-36856D01*
X57401Y-36946D02*
X57390Y-36957D01*
X57379Y-36979D01*
X57379Y-37035D01*
X57390Y-37058D01*
X57401Y-37069D01*
X57424Y-37080D01*
X57446Y-37080D01*
X57480Y-37069D01*
X57615Y-36934D01*
X57615Y-37080D01*
X57379Y-37283D02*
X57379Y-37238D01*
X57390Y-37215D01*
X57401Y-37204D01*
X57435Y-37182D01*
X57480Y-37170D01*
X57570Y-37170D01*
X57592Y-37182D01*
X57604Y-37193D01*
X57615Y-37215D01*
X57615Y-37260D01*
X57604Y-37283D01*
X57592Y-37294D01*
X57570Y-37305D01*
X57514Y-37305D01*
X57491Y-37294D01*
X57480Y-37283D01*
X57469Y-37260D01*
X57469Y-37215D01*
X57480Y-37193D01*
X57491Y-37182D01*
X57514Y-37170D01*
X59423Y-37407D02*
X59434Y-37395D01*
X59446Y-37362D01*
X59446Y-37339D01*
X59434Y-37305D01*
X59412Y-37283D01*
X59389Y-37272D01*
X59344Y-37260D01*
X59311Y-37260D01*
X59266Y-37272D01*
X59243Y-37283D01*
X59221Y-37305D01*
X59209Y-37339D01*
X59209Y-37362D01*
X59221Y-37395D01*
X59232Y-37407D01*
X59209Y-37485D02*
X59209Y-37632D01*
X59299Y-37553D01*
X59299Y-37587D01*
X59311Y-37609D01*
X59322Y-37620D01*
X59344Y-37632D01*
X59401Y-37632D01*
X59423Y-37620D01*
X59434Y-37609D01*
X59446Y-37587D01*
X59446Y-37519D01*
X59434Y-37497D01*
X59423Y-37485D01*
X59209Y-37834D02*
X59209Y-37789D01*
X59221Y-37767D01*
X59232Y-37755D01*
X59266Y-37733D01*
X59311Y-37722D01*
X59401Y-37722D01*
X59423Y-37733D01*
X59434Y-37744D01*
X59446Y-37767D01*
X59446Y-37812D01*
X59434Y-37834D01*
X59423Y-37845D01*
X59401Y-37857D01*
X59344Y-37857D01*
X59322Y-37845D01*
X59311Y-37834D01*
X59299Y-37812D01*
X59299Y-37767D01*
X59311Y-37744D01*
X59322Y-37733D01*
X59344Y-37722D01*
X43832Y-45950D02*
X43844Y-45939D01*
X43855Y-45905D01*
X43855Y-45883D01*
X43844Y-45849D01*
X43821Y-45826D01*
X43799Y-45815D01*
X43754Y-45804D01*
X43720Y-45804D01*
X43675Y-45815D01*
X43652Y-45826D01*
X43630Y-45849D01*
X43619Y-45883D01*
X43619Y-45905D01*
X43630Y-45939D01*
X43641Y-45950D01*
X43619Y-46164D02*
X43619Y-46051D01*
X43731Y-46040D01*
X43720Y-46051D01*
X43709Y-46074D01*
X43709Y-46130D01*
X43720Y-46152D01*
X43731Y-46164D01*
X43754Y-46175D01*
X43810Y-46175D01*
X43832Y-46164D01*
X43844Y-46152D01*
X43855Y-46130D01*
X43855Y-46074D01*
X43844Y-46051D01*
X43832Y-46040D01*
X43619Y-46389D02*
X43619Y-46276D01*
X43731Y-46265D01*
X43720Y-46276D01*
X43709Y-46299D01*
X43709Y-46355D01*
X43720Y-46377D01*
X43731Y-46389D01*
X43754Y-46400D01*
X43810Y-46400D01*
X43832Y-46389D01*
X43844Y-46377D01*
X43855Y-46355D01*
X43855Y-46299D01*
X43844Y-46276D01*
X43832Y-46265D01*
X43636Y-43863D02*
X43647Y-43852D01*
X43658Y-43818D01*
X43658Y-43796D01*
X43647Y-43762D01*
X43624Y-43740D01*
X43602Y-43728D01*
X43557Y-43717D01*
X43523Y-43717D01*
X43478Y-43728D01*
X43456Y-43740D01*
X43433Y-43762D01*
X43422Y-43796D01*
X43422Y-43818D01*
X43433Y-43852D01*
X43444Y-43863D01*
X43422Y-44077D02*
X43422Y-43965D01*
X43534Y-43953D01*
X43523Y-43965D01*
X43512Y-43987D01*
X43512Y-44043D01*
X43523Y-44066D01*
X43534Y-44077D01*
X43557Y-44088D01*
X43613Y-44088D01*
X43636Y-44077D01*
X43647Y-44066D01*
X43658Y-44043D01*
X43658Y-43987D01*
X43647Y-43965D01*
X43636Y-43953D01*
X43422Y-44291D02*
X43422Y-44246D01*
X43433Y-44223D01*
X43444Y-44212D01*
X43478Y-44190D01*
X43523Y-44178D01*
X43613Y-44178D01*
X43636Y-44190D01*
X43647Y-44201D01*
X43658Y-44223D01*
X43658Y-44268D01*
X43647Y-44291D01*
X43636Y-44302D01*
X43613Y-44313D01*
X43557Y-44313D01*
X43534Y-44302D01*
X43523Y-44291D01*
X43512Y-44268D01*
X43512Y-44223D01*
X43523Y-44201D01*
X43534Y-44190D01*
X43557Y-44178D01*
X65793Y-38720D02*
X65804Y-38709D01*
X65816Y-38675D01*
X65816Y-38652D01*
X65804Y-38619D01*
X65782Y-38596D01*
X65759Y-38585D01*
X65714Y-38574D01*
X65681Y-38574D01*
X65636Y-38585D01*
X65613Y-38596D01*
X65591Y-38619D01*
X65579Y-38652D01*
X65579Y-38675D01*
X65591Y-38709D01*
X65602Y-38720D01*
X65579Y-38799D02*
X65579Y-38945D01*
X65669Y-38866D01*
X65669Y-38900D01*
X65681Y-38922D01*
X65692Y-38934D01*
X65714Y-38945D01*
X65771Y-38945D01*
X65793Y-38934D01*
X65804Y-38922D01*
X65816Y-38900D01*
X65816Y-38832D01*
X65804Y-38810D01*
X65793Y-38799D01*
X45781Y-43340D02*
X45793Y-43352D01*
X45826Y-43363D01*
X45849Y-43363D01*
X45883Y-43352D01*
X45905Y-43329D01*
X45916Y-43307D01*
X45928Y-43262D01*
X45928Y-43228D01*
X45916Y-43183D01*
X45905Y-43160D01*
X45883Y-43138D01*
X45849Y-43127D01*
X45826Y-43127D01*
X45793Y-43138D01*
X45781Y-43149D01*
X45568Y-43127D02*
X45680Y-43127D01*
X45691Y-43239D01*
X45680Y-43228D01*
X45658Y-43217D01*
X45601Y-43217D01*
X45579Y-43228D01*
X45568Y-43239D01*
X45556Y-43262D01*
X45556Y-43318D01*
X45568Y-43340D01*
X45579Y-43352D01*
X45601Y-43363D01*
X45658Y-43363D01*
X45680Y-43352D01*
X45691Y-43340D01*
X45478Y-43127D02*
X45320Y-43127D01*
X45421Y-43363D01*
X49226Y-49685D02*
X49237Y-49673D01*
X49249Y-49640D01*
X49249Y-49617D01*
X49237Y-49583D01*
X49215Y-49561D01*
X49192Y-49550D01*
X49147Y-49538D01*
X49114Y-49538D01*
X49069Y-49550D01*
X49046Y-49561D01*
X49024Y-49583D01*
X49012Y-49617D01*
X49012Y-49640D01*
X49024Y-49673D01*
X49035Y-49685D01*
X49249Y-49910D02*
X49249Y-49775D01*
X49249Y-49842D02*
X49012Y-49842D01*
X49046Y-49820D01*
X49069Y-49797D01*
X49080Y-49775D01*
X46903Y-44285D02*
X46915Y-44296D01*
X46948Y-44308D01*
X46971Y-44308D01*
X47005Y-44296D01*
X47027Y-44274D01*
X47038Y-44251D01*
X47050Y-44206D01*
X47050Y-44173D01*
X47038Y-44128D01*
X47027Y-44105D01*
X47005Y-44083D01*
X46971Y-44071D01*
X46948Y-44071D01*
X46915Y-44083D01*
X46903Y-44094D01*
X46690Y-44071D02*
X46802Y-44071D01*
X46813Y-44184D01*
X46802Y-44173D01*
X46780Y-44161D01*
X46723Y-44161D01*
X46701Y-44173D01*
X46690Y-44184D01*
X46678Y-44206D01*
X46678Y-44263D01*
X46690Y-44285D01*
X46701Y-44296D01*
X46723Y-44308D01*
X46780Y-44308D01*
X46802Y-44296D01*
X46813Y-44285D01*
X46543Y-44173D02*
X46566Y-44161D01*
X46577Y-44150D01*
X46588Y-44128D01*
X46588Y-44116D01*
X46577Y-44094D01*
X46566Y-44083D01*
X46543Y-44071D01*
X46498Y-44071D01*
X46476Y-44083D01*
X46465Y-44094D01*
X46453Y-44116D01*
X46453Y-44128D01*
X46465Y-44150D01*
X46476Y-44161D01*
X46498Y-44173D01*
X46543Y-44173D01*
X46566Y-44184D01*
X46577Y-44195D01*
X46588Y-44218D01*
X46588Y-44263D01*
X46577Y-44285D01*
X46566Y-44296D01*
X46543Y-44308D01*
X46498Y-44308D01*
X46476Y-44296D01*
X46465Y-44285D01*
X46453Y-44263D01*
X46453Y-44218D01*
X46465Y-44195D01*
X46476Y-44184D01*
X46498Y-44173D01*
X64266Y-37618D02*
X64277Y-37606D01*
X64288Y-37573D01*
X64288Y-37550D01*
X64277Y-37516D01*
X64254Y-37494D01*
X64232Y-37483D01*
X64187Y-37471D01*
X64153Y-37471D01*
X64108Y-37483D01*
X64086Y-37494D01*
X64063Y-37516D01*
X64052Y-37550D01*
X64052Y-37573D01*
X64063Y-37606D01*
X64074Y-37618D01*
X64131Y-37820D02*
X64288Y-37820D01*
X64041Y-37764D02*
X64209Y-37708D01*
X64209Y-37854D01*
X46962Y-45300D02*
X46974Y-45289D01*
X46985Y-45255D01*
X46985Y-45233D01*
X46974Y-45199D01*
X46951Y-45177D01*
X46929Y-45165D01*
X46884Y-45154D01*
X46850Y-45154D01*
X46805Y-45165D01*
X46782Y-45177D01*
X46760Y-45199D01*
X46749Y-45233D01*
X46749Y-45255D01*
X46760Y-45289D01*
X46771Y-45300D01*
X46749Y-45503D02*
X46749Y-45458D01*
X46760Y-45435D01*
X46771Y-45424D01*
X46805Y-45402D01*
X46850Y-45390D01*
X46940Y-45390D01*
X46962Y-45402D01*
X46974Y-45413D01*
X46985Y-45435D01*
X46985Y-45480D01*
X46974Y-45503D01*
X46962Y-45514D01*
X46940Y-45525D01*
X46884Y-45525D01*
X46861Y-45514D01*
X46850Y-45503D01*
X46839Y-45480D01*
X46839Y-45435D01*
X46850Y-45413D01*
X46861Y-45402D01*
X46884Y-45390D01*
X46749Y-45672D02*
X46749Y-45694D01*
X46760Y-45717D01*
X46771Y-45728D01*
X46794Y-45739D01*
X46839Y-45750D01*
X46895Y-45750D01*
X46940Y-45739D01*
X46962Y-45728D01*
X46974Y-45717D01*
X46985Y-45694D01*
X46985Y-45672D01*
X46974Y-45649D01*
X46962Y-45638D01*
X46940Y-45627D01*
X46895Y-45615D01*
X46839Y-45615D01*
X46794Y-45627D01*
X46771Y-45638D01*
X46760Y-45649D01*
X46749Y-45672D01*
X47868Y-46757D02*
X47879Y-46746D01*
X47890Y-46712D01*
X47890Y-46690D01*
X47879Y-46656D01*
X47857Y-46633D01*
X47834Y-46622D01*
X47789Y-46611D01*
X47755Y-46611D01*
X47710Y-46622D01*
X47688Y-46633D01*
X47665Y-46656D01*
X47654Y-46690D01*
X47654Y-46712D01*
X47665Y-46746D01*
X47677Y-46757D01*
X47654Y-46971D02*
X47654Y-46858D01*
X47767Y-46847D01*
X47755Y-46858D01*
X47744Y-46881D01*
X47744Y-46937D01*
X47755Y-46960D01*
X47767Y-46971D01*
X47789Y-46982D01*
X47845Y-46982D01*
X47868Y-46971D01*
X47879Y-46960D01*
X47890Y-46937D01*
X47890Y-46881D01*
X47879Y-46858D01*
X47868Y-46847D01*
X47890Y-47095D02*
X47890Y-47140D01*
X47879Y-47162D01*
X47868Y-47173D01*
X47834Y-47196D01*
X47789Y-47207D01*
X47699Y-47207D01*
X47677Y-47196D01*
X47665Y-47185D01*
X47654Y-47162D01*
X47654Y-47117D01*
X47665Y-47095D01*
X47677Y-47083D01*
X47699Y-47072D01*
X47755Y-47072D01*
X47778Y-47083D01*
X47789Y-47095D01*
X47800Y-47117D01*
X47800Y-47162D01*
X47789Y-47185D01*
X47778Y-47196D01*
X47755Y-47207D01*
X56490Y-50300D02*
X56501Y-50289D01*
X56512Y-50255D01*
X56512Y-50233D01*
X56501Y-50199D01*
X56479Y-50177D01*
X56456Y-50165D01*
X56411Y-50154D01*
X56377Y-50154D01*
X56332Y-50165D01*
X56310Y-50177D01*
X56287Y-50199D01*
X56276Y-50233D01*
X56276Y-50255D01*
X56287Y-50289D01*
X56299Y-50300D01*
X56299Y-50390D02*
X56287Y-50402D01*
X56276Y-50424D01*
X56276Y-50480D01*
X56287Y-50503D01*
X56299Y-50514D01*
X56321Y-50525D01*
X56344Y-50525D01*
X56377Y-50514D01*
X56512Y-50379D01*
X56512Y-50525D01*
X56276Y-50604D02*
X56276Y-50762D01*
X56512Y-50660D01*
X62677Y-49876D02*
X62688Y-49887D01*
X62722Y-49898D01*
X62744Y-49898D01*
X62778Y-49887D01*
X62800Y-49865D01*
X62812Y-49842D01*
X62823Y-49797D01*
X62823Y-49763D01*
X62812Y-49718D01*
X62800Y-49696D01*
X62778Y-49673D01*
X62744Y-49662D01*
X62722Y-49662D01*
X62688Y-49673D01*
X62677Y-49685D01*
X62587Y-49685D02*
X62575Y-49673D01*
X62553Y-49662D01*
X62497Y-49662D01*
X62474Y-49673D01*
X62463Y-49685D01*
X62452Y-49707D01*
X62452Y-49730D01*
X62463Y-49763D01*
X62598Y-49898D01*
X62452Y-49898D01*
X55584Y-50478D02*
X55596Y-50466D01*
X55607Y-50433D01*
X55607Y-50410D01*
X55596Y-50376D01*
X55573Y-50354D01*
X55551Y-50343D01*
X55506Y-50331D01*
X55472Y-50331D01*
X55427Y-50343D01*
X55404Y-50354D01*
X55382Y-50376D01*
X55371Y-50410D01*
X55371Y-50433D01*
X55382Y-50466D01*
X55393Y-50478D01*
X55393Y-50568D02*
X55382Y-50579D01*
X55371Y-50601D01*
X55371Y-50658D01*
X55382Y-50680D01*
X55393Y-50691D01*
X55416Y-50703D01*
X55438Y-50703D01*
X55472Y-50691D01*
X55607Y-50556D01*
X55607Y-50703D01*
X55393Y-50793D02*
X55382Y-50804D01*
X55371Y-50826D01*
X55371Y-50883D01*
X55382Y-50905D01*
X55393Y-50916D01*
X55416Y-50928D01*
X55438Y-50928D01*
X55472Y-50916D01*
X55607Y-50781D01*
X55607Y-50928D01*
X55844Y-47372D02*
X55856Y-47383D01*
X55889Y-47394D01*
X55912Y-47394D01*
X55946Y-47383D01*
X55968Y-47361D01*
X55979Y-47338D01*
X55991Y-47293D01*
X55991Y-47259D01*
X55979Y-47214D01*
X55968Y-47192D01*
X55946Y-47169D01*
X55912Y-47158D01*
X55889Y-47158D01*
X55856Y-47169D01*
X55844Y-47181D01*
X55754Y-47181D02*
X55743Y-47169D01*
X55721Y-47158D01*
X55664Y-47158D01*
X55642Y-47169D01*
X55631Y-47181D01*
X55619Y-47203D01*
X55619Y-47226D01*
X55631Y-47259D01*
X55766Y-47394D01*
X55619Y-47394D01*
X55507Y-47394D02*
X55462Y-47394D01*
X55439Y-47383D01*
X55428Y-47372D01*
X55406Y-47338D01*
X55394Y-47293D01*
X55394Y-47203D01*
X55406Y-47181D01*
X55417Y-47169D01*
X55439Y-47158D01*
X55484Y-47158D01*
X55507Y-47169D01*
X55518Y-47181D01*
X55529Y-47203D01*
X55529Y-47259D01*
X55518Y-47282D01*
X55507Y-47293D01*
X55484Y-47304D01*
X55439Y-47304D01*
X55417Y-47293D01*
X55406Y-47282D01*
X55394Y-47259D01*
X59718Y-41726D02*
X59730Y-41737D01*
X59763Y-41749D01*
X59786Y-41749D01*
X59820Y-41737D01*
X59842Y-41715D01*
X59853Y-41692D01*
X59865Y-41647D01*
X59865Y-41614D01*
X59853Y-41569D01*
X59842Y-41546D01*
X59820Y-41524D01*
X59786Y-41512D01*
X59763Y-41512D01*
X59730Y-41524D01*
X59718Y-41535D01*
X59505Y-41512D02*
X59617Y-41512D01*
X59628Y-41625D01*
X59617Y-41614D01*
X59595Y-41602D01*
X59538Y-41602D01*
X59516Y-41614D01*
X59505Y-41625D01*
X59493Y-41647D01*
X59493Y-41704D01*
X59505Y-41726D01*
X59516Y-41737D01*
X59538Y-41749D01*
X59595Y-41749D01*
X59617Y-41737D01*
X59628Y-41726D01*
X59268Y-41749D02*
X59403Y-41749D01*
X59336Y-41749D02*
X59336Y-41512D01*
X59358Y-41546D01*
X59381Y-41569D01*
X59403Y-41580D01*
X59797Y-33695D02*
X59808Y-33706D01*
X59842Y-33717D01*
X59865Y-33717D01*
X59898Y-33706D01*
X59921Y-33683D01*
X59932Y-33661D01*
X59943Y-33616D01*
X59943Y-33582D01*
X59932Y-33537D01*
X59921Y-33515D01*
X59898Y-33492D01*
X59865Y-33481D01*
X59842Y-33481D01*
X59808Y-33492D01*
X59797Y-33503D01*
X59595Y-33560D02*
X59595Y-33717D01*
X59651Y-33470D02*
X59707Y-33638D01*
X59561Y-33638D01*
X59358Y-33481D02*
X59471Y-33481D01*
X59482Y-33593D01*
X59471Y-33582D01*
X59448Y-33571D01*
X59392Y-33571D01*
X59370Y-33582D01*
X59358Y-33593D01*
X59347Y-33616D01*
X59347Y-33672D01*
X59358Y-33695D01*
X59370Y-33706D01*
X59392Y-33717D01*
X59448Y-33717D01*
X59471Y-33706D01*
X59482Y-33695D01*
X54876Y-42612D02*
X54887Y-42623D01*
X54921Y-42634D01*
X54943Y-42634D01*
X54977Y-42623D01*
X55000Y-42601D01*
X55011Y-42578D01*
X55022Y-42533D01*
X55022Y-42500D01*
X55011Y-42455D01*
X55000Y-42432D01*
X54977Y-42410D01*
X54943Y-42398D01*
X54921Y-42398D01*
X54887Y-42410D01*
X54876Y-42421D01*
X54786Y-42421D02*
X54775Y-42410D01*
X54752Y-42398D01*
X54696Y-42398D01*
X54673Y-42410D01*
X54662Y-42421D01*
X54651Y-42443D01*
X54651Y-42466D01*
X54662Y-42500D01*
X54797Y-42634D01*
X54651Y-42634D01*
X54437Y-42398D02*
X54550Y-42398D01*
X54561Y-42511D01*
X54550Y-42500D01*
X54527Y-42488D01*
X54471Y-42488D01*
X54448Y-42500D01*
X54437Y-42511D01*
X54426Y-42533D01*
X54426Y-42589D01*
X54437Y-42612D01*
X54448Y-42623D01*
X54471Y-42634D01*
X54527Y-42634D01*
X54550Y-42623D01*
X54561Y-42612D01*
X54817Y-34817D02*
X54828Y-34828D01*
X54862Y-34839D01*
X54884Y-34839D01*
X54918Y-34828D01*
X54940Y-34805D01*
X54952Y-34783D01*
X54963Y-34738D01*
X54963Y-34704D01*
X54952Y-34659D01*
X54940Y-34637D01*
X54918Y-34614D01*
X54884Y-34603D01*
X54862Y-34603D01*
X54828Y-34614D01*
X54817Y-34625D01*
X54727Y-34625D02*
X54715Y-34614D01*
X54693Y-34603D01*
X54637Y-34603D01*
X54614Y-34614D01*
X54603Y-34625D01*
X54592Y-34648D01*
X54592Y-34670D01*
X54603Y-34704D01*
X54738Y-34839D01*
X54592Y-34839D01*
X54446Y-34603D02*
X54423Y-34603D01*
X54401Y-34614D01*
X54389Y-34625D01*
X54378Y-34648D01*
X54367Y-34693D01*
X54367Y-34749D01*
X54378Y-34794D01*
X54389Y-34817D01*
X54401Y-34828D01*
X54423Y-34839D01*
X54446Y-34839D01*
X54468Y-34828D01*
X54479Y-34817D01*
X54491Y-34794D01*
X54502Y-34749D01*
X54502Y-34693D01*
X54491Y-34648D01*
X54479Y-34625D01*
X54468Y-34614D01*
X54446Y-34603D01*
X59718Y-43340D02*
X59730Y-43352D01*
X59763Y-43363D01*
X59786Y-43363D01*
X59820Y-43352D01*
X59842Y-43329D01*
X59853Y-43307D01*
X59865Y-43262D01*
X59865Y-43228D01*
X59853Y-43183D01*
X59842Y-43160D01*
X59820Y-43138D01*
X59786Y-43127D01*
X59763Y-43127D01*
X59730Y-43138D01*
X59718Y-43149D01*
X59516Y-43205D02*
X59516Y-43363D01*
X59572Y-43115D02*
X59628Y-43284D01*
X59482Y-43284D01*
X59358Y-43228D02*
X59381Y-43217D01*
X59392Y-43205D01*
X59403Y-43183D01*
X59403Y-43172D01*
X59392Y-43149D01*
X59381Y-43138D01*
X59358Y-43127D01*
X59313Y-43127D01*
X59291Y-43138D01*
X59280Y-43149D01*
X59268Y-43172D01*
X59268Y-43183D01*
X59280Y-43205D01*
X59291Y-43217D01*
X59313Y-43228D01*
X59358Y-43228D01*
X59381Y-43239D01*
X59392Y-43250D01*
X59403Y-43273D01*
X59403Y-43318D01*
X59392Y-43340D01*
X59381Y-43352D01*
X59358Y-43363D01*
X59313Y-43363D01*
X59291Y-43352D01*
X59280Y-43340D01*
X59268Y-43318D01*
X59268Y-43273D01*
X59280Y-43250D01*
X59291Y-43239D01*
X59313Y-43228D01*
X54817Y-33872D02*
X54828Y-33883D01*
X54862Y-33894D01*
X54884Y-33894D01*
X54918Y-33883D01*
X54940Y-33861D01*
X54952Y-33838D01*
X54963Y-33793D01*
X54963Y-33759D01*
X54952Y-33714D01*
X54940Y-33692D01*
X54918Y-33669D01*
X54884Y-33658D01*
X54862Y-33658D01*
X54828Y-33669D01*
X54817Y-33681D01*
X54592Y-33894D02*
X54727Y-33894D01*
X54659Y-33894D02*
X54659Y-33658D01*
X54682Y-33692D01*
X54704Y-33714D01*
X54727Y-33726D01*
X54457Y-33759D02*
X54479Y-33748D01*
X54491Y-33737D01*
X54502Y-33714D01*
X54502Y-33703D01*
X54491Y-33681D01*
X54479Y-33669D01*
X54457Y-33658D01*
X54412Y-33658D01*
X54389Y-33669D01*
X54378Y-33681D01*
X54367Y-33703D01*
X54367Y-33714D01*
X54378Y-33737D01*
X54389Y-33748D01*
X54412Y-33759D01*
X54457Y-33759D01*
X54479Y-33771D01*
X54491Y-33782D01*
X54502Y-33804D01*
X54502Y-33849D01*
X54491Y-33872D01*
X54479Y-33883D01*
X54457Y-33894D01*
X54412Y-33894D01*
X54389Y-33883D01*
X54378Y-33872D01*
X54367Y-33849D01*
X54367Y-33804D01*
X54378Y-33782D01*
X54389Y-33771D01*
X54412Y-33759D01*
X54836Y-35171D02*
X54848Y-35182D01*
X54881Y-35194D01*
X54904Y-35194D01*
X54938Y-35182D01*
X54960Y-35160D01*
X54971Y-35137D01*
X54983Y-35092D01*
X54983Y-35059D01*
X54971Y-35014D01*
X54960Y-34991D01*
X54938Y-34969D01*
X54904Y-34957D01*
X54881Y-34957D01*
X54848Y-34969D01*
X54836Y-34980D01*
X54634Y-35036D02*
X54634Y-35194D01*
X54690Y-34946D02*
X54746Y-35115D01*
X54600Y-35115D01*
X54409Y-35036D02*
X54409Y-35194D01*
X54465Y-34946D02*
X54521Y-35115D01*
X54375Y-35115D01*
X55112Y-40703D02*
X55123Y-40714D01*
X55157Y-40725D01*
X55179Y-40725D01*
X55213Y-40714D01*
X55236Y-40691D01*
X55247Y-40669D01*
X55258Y-40624D01*
X55258Y-40590D01*
X55247Y-40545D01*
X55236Y-40523D01*
X55213Y-40500D01*
X55179Y-40489D01*
X55157Y-40489D01*
X55123Y-40500D01*
X55112Y-40511D01*
X55022Y-40511D02*
X55011Y-40500D01*
X54988Y-40489D01*
X54932Y-40489D01*
X54910Y-40500D01*
X54898Y-40511D01*
X54887Y-40534D01*
X54887Y-40556D01*
X54898Y-40590D01*
X55033Y-40725D01*
X54887Y-40725D01*
X54808Y-40489D02*
X54662Y-40489D01*
X54741Y-40579D01*
X54707Y-40579D01*
X54685Y-40590D01*
X54673Y-40601D01*
X54662Y-40624D01*
X54662Y-40680D01*
X54673Y-40703D01*
X54685Y-40714D01*
X54707Y-40725D01*
X54775Y-40725D01*
X54797Y-40714D01*
X54808Y-40703D01*
X56588Y-31737D02*
X56600Y-31726D01*
X56611Y-31692D01*
X56611Y-31670D01*
X56600Y-31636D01*
X56577Y-31614D01*
X56555Y-31602D01*
X56510Y-31591D01*
X56476Y-31591D01*
X56431Y-31602D01*
X56408Y-31614D01*
X56386Y-31636D01*
X56375Y-31670D01*
X56375Y-31692D01*
X56386Y-31726D01*
X56397Y-31737D01*
X56375Y-31816D02*
X56375Y-31962D01*
X56465Y-31884D01*
X56465Y-31917D01*
X56476Y-31940D01*
X56487Y-31951D01*
X56510Y-31962D01*
X56566Y-31962D01*
X56588Y-31951D01*
X56600Y-31940D01*
X56611Y-31917D01*
X56611Y-31850D01*
X56600Y-31827D01*
X56588Y-31816D01*
X56375Y-32109D02*
X56375Y-32131D01*
X56386Y-32154D01*
X56397Y-32165D01*
X56420Y-32176D01*
X56465Y-32187D01*
X56521Y-32187D01*
X56566Y-32176D01*
X56588Y-32165D01*
X56600Y-32154D01*
X56611Y-32131D01*
X56611Y-32109D01*
X56600Y-32086D01*
X56588Y-32075D01*
X56566Y-32064D01*
X56521Y-32052D01*
X56465Y-32052D01*
X56420Y-32064D01*
X56397Y-32075D01*
X56386Y-32086D01*
X56375Y-32109D01*
X60289Y-43872D02*
X60300Y-43883D01*
X60334Y-43894D01*
X60357Y-43894D01*
X60390Y-43883D01*
X60413Y-43861D01*
X60424Y-43838D01*
X60435Y-43793D01*
X60435Y-43759D01*
X60424Y-43714D01*
X60413Y-43692D01*
X60390Y-43669D01*
X60357Y-43658D01*
X60334Y-43658D01*
X60300Y-43669D01*
X60289Y-43681D01*
X60064Y-43894D02*
X60199Y-43894D01*
X60132Y-43894D02*
X60132Y-43658D01*
X60154Y-43692D01*
X60177Y-43714D01*
X60199Y-43726D01*
X59952Y-43894D02*
X59907Y-43894D01*
X59884Y-43883D01*
X59873Y-43872D01*
X59850Y-43838D01*
X59839Y-43793D01*
X59839Y-43703D01*
X59850Y-43681D01*
X59862Y-43669D01*
X59884Y-43658D01*
X59929Y-43658D01*
X59952Y-43669D01*
X59963Y-43681D01*
X59974Y-43703D01*
X59974Y-43759D01*
X59963Y-43782D01*
X59952Y-43793D01*
X59929Y-43804D01*
X59884Y-43804D01*
X59862Y-43793D01*
X59850Y-43782D01*
X59839Y-43759D01*
X60329Y-35998D02*
X60340Y-36009D01*
X60374Y-36020D01*
X60396Y-36020D01*
X60430Y-36009D01*
X60452Y-35987D01*
X60464Y-35964D01*
X60475Y-35919D01*
X60475Y-35885D01*
X60464Y-35840D01*
X60452Y-35818D01*
X60430Y-35795D01*
X60396Y-35784D01*
X60374Y-35784D01*
X60340Y-35795D01*
X60329Y-35807D01*
X60239Y-35807D02*
X60227Y-35795D01*
X60205Y-35784D01*
X60149Y-35784D01*
X60126Y-35795D01*
X60115Y-35807D01*
X60104Y-35829D01*
X60104Y-35852D01*
X60115Y-35885D01*
X60250Y-36020D01*
X60104Y-36020D01*
X59901Y-35863D02*
X59901Y-36020D01*
X59957Y-35773D02*
X60014Y-35942D01*
X59867Y-35942D01*
X54758Y-35663D02*
X54769Y-35674D01*
X54803Y-35686D01*
X54825Y-35686D01*
X54859Y-35674D01*
X54881Y-35652D01*
X54893Y-35629D01*
X54904Y-35584D01*
X54904Y-35551D01*
X54893Y-35506D01*
X54881Y-35483D01*
X54859Y-35461D01*
X54825Y-35449D01*
X54803Y-35449D01*
X54769Y-35461D01*
X54758Y-35472D01*
X54679Y-35449D02*
X54533Y-35449D01*
X54611Y-35539D01*
X54578Y-35539D01*
X54555Y-35551D01*
X54544Y-35562D01*
X54533Y-35584D01*
X54533Y-35641D01*
X54544Y-35663D01*
X54555Y-35674D01*
X54578Y-35686D01*
X54645Y-35686D01*
X54668Y-35674D01*
X54679Y-35663D01*
X54308Y-35686D02*
X54443Y-35686D01*
X54375Y-35686D02*
X54375Y-35449D01*
X54398Y-35483D01*
X54420Y-35506D01*
X54443Y-35517D01*
X54876Y-43517D02*
X54887Y-43529D01*
X54921Y-43540D01*
X54943Y-43540D01*
X54977Y-43529D01*
X55000Y-43506D01*
X55011Y-43484D01*
X55022Y-43439D01*
X55022Y-43405D01*
X55011Y-43360D01*
X55000Y-43338D01*
X54977Y-43315D01*
X54943Y-43304D01*
X54921Y-43304D01*
X54887Y-43315D01*
X54876Y-43326D01*
X54797Y-43304D02*
X54651Y-43304D01*
X54730Y-43394D01*
X54696Y-43394D01*
X54673Y-43405D01*
X54662Y-43416D01*
X54651Y-43439D01*
X54651Y-43495D01*
X54662Y-43517D01*
X54673Y-43529D01*
X54696Y-43540D01*
X54763Y-43540D01*
X54786Y-43529D01*
X54797Y-43517D01*
X54437Y-43304D02*
X54550Y-43304D01*
X54561Y-43416D01*
X54550Y-43405D01*
X54527Y-43394D01*
X54471Y-43394D01*
X54448Y-43405D01*
X54437Y-43416D01*
X54426Y-43439D01*
X54426Y-43495D01*
X54437Y-43517D01*
X54448Y-43529D01*
X54471Y-43540D01*
X54527Y-43540D01*
X54550Y-43529D01*
X54561Y-43517D01*
X58596Y-37140D02*
X58607Y-37151D01*
X58641Y-37162D01*
X58664Y-37162D01*
X58697Y-37151D01*
X58720Y-37128D01*
X58731Y-37106D01*
X58742Y-37061D01*
X58742Y-37027D01*
X58731Y-36982D01*
X58720Y-36960D01*
X58697Y-36937D01*
X58664Y-36926D01*
X58641Y-36926D01*
X58607Y-36937D01*
X58596Y-36948D01*
X58394Y-37005D02*
X58394Y-37162D01*
X58450Y-36915D02*
X58506Y-37083D01*
X58360Y-37083D01*
X58293Y-36926D02*
X58146Y-36926D01*
X58225Y-37016D01*
X58191Y-37016D01*
X58169Y-37027D01*
X58158Y-37038D01*
X58146Y-37061D01*
X58146Y-37117D01*
X58158Y-37140D01*
X58169Y-37151D01*
X58191Y-37162D01*
X58259Y-37162D01*
X58281Y-37151D01*
X58293Y-37140D01*
X58301Y-44631D02*
X58312Y-44620D01*
X58323Y-44586D01*
X58323Y-44564D01*
X58312Y-44530D01*
X58290Y-44507D01*
X58267Y-44496D01*
X58222Y-44485D01*
X58188Y-44485D01*
X58143Y-44496D01*
X58121Y-44507D01*
X58098Y-44530D01*
X58087Y-44564D01*
X58087Y-44586D01*
X58098Y-44620D01*
X58110Y-44631D01*
X58110Y-44721D02*
X58098Y-44732D01*
X58087Y-44755D01*
X58087Y-44811D01*
X58098Y-44834D01*
X58110Y-44845D01*
X58132Y-44856D01*
X58155Y-44856D01*
X58188Y-44845D01*
X58323Y-44710D01*
X58323Y-44856D01*
X58323Y-45081D02*
X58323Y-44946D01*
X58323Y-45014D02*
X58087Y-45014D01*
X58121Y-44991D01*
X58143Y-44969D01*
X58155Y-44946D01*
X59029Y-44482D02*
X59041Y-44493D01*
X59074Y-44505D01*
X59097Y-44505D01*
X59131Y-44493D01*
X59153Y-44471D01*
X59164Y-44448D01*
X59176Y-44403D01*
X59176Y-44370D01*
X59164Y-44325D01*
X59153Y-44302D01*
X59131Y-44280D01*
X59097Y-44268D01*
X59074Y-44268D01*
X59041Y-44280D01*
X59029Y-44291D01*
X58951Y-44268D02*
X58804Y-44268D01*
X58883Y-44358D01*
X58849Y-44358D01*
X58827Y-44370D01*
X58816Y-44381D01*
X58804Y-44403D01*
X58804Y-44460D01*
X58816Y-44482D01*
X58827Y-44493D01*
X58849Y-44505D01*
X58917Y-44505D01*
X58939Y-44493D01*
X58951Y-44482D01*
X58714Y-44291D02*
X58703Y-44280D01*
X58681Y-44268D01*
X58624Y-44268D01*
X58602Y-44280D01*
X58591Y-44291D01*
X58579Y-44313D01*
X58579Y-44336D01*
X58591Y-44370D01*
X58726Y-44505D01*
X58579Y-44505D01*
X54817Y-33478D02*
X54828Y-33489D01*
X54862Y-33501D01*
X54884Y-33501D01*
X54918Y-33489D01*
X54940Y-33467D01*
X54952Y-33444D01*
X54963Y-33399D01*
X54963Y-33366D01*
X54952Y-33321D01*
X54940Y-33298D01*
X54918Y-33276D01*
X54884Y-33264D01*
X54862Y-33264D01*
X54828Y-33276D01*
X54817Y-33287D01*
X54727Y-33287D02*
X54715Y-33276D01*
X54693Y-33264D01*
X54637Y-33264D01*
X54614Y-33276D01*
X54603Y-33287D01*
X54592Y-33309D01*
X54592Y-33332D01*
X54603Y-33366D01*
X54738Y-33501D01*
X54592Y-33501D01*
X54457Y-33366D02*
X54479Y-33354D01*
X54491Y-33343D01*
X54502Y-33321D01*
X54502Y-33309D01*
X54491Y-33287D01*
X54479Y-33276D01*
X54457Y-33264D01*
X54412Y-33264D01*
X54389Y-33276D01*
X54378Y-33287D01*
X54367Y-33309D01*
X54367Y-33321D01*
X54378Y-33343D01*
X54389Y-33354D01*
X54412Y-33366D01*
X54457Y-33366D01*
X54479Y-33377D01*
X54491Y-33388D01*
X54502Y-33411D01*
X54502Y-33456D01*
X54491Y-33478D01*
X54479Y-33489D01*
X54457Y-33501D01*
X54412Y-33501D01*
X54389Y-33489D01*
X54378Y-33478D01*
X54367Y-33456D01*
X54367Y-33411D01*
X54378Y-33388D01*
X54389Y-33377D01*
X54412Y-33366D01*
X54876Y-43025D02*
X54887Y-43037D01*
X54921Y-43048D01*
X54943Y-43048D01*
X54977Y-43037D01*
X55000Y-43014D01*
X55011Y-42992D01*
X55022Y-42947D01*
X55022Y-42913D01*
X55011Y-42868D01*
X55000Y-42845D01*
X54977Y-42823D01*
X54943Y-42812D01*
X54921Y-42812D01*
X54887Y-42823D01*
X54876Y-42834D01*
X54673Y-42890D02*
X54673Y-43048D01*
X54730Y-42800D02*
X54786Y-42969D01*
X54640Y-42969D01*
X54426Y-43048D02*
X54561Y-43048D01*
X54493Y-43048D02*
X54493Y-42812D01*
X54516Y-42845D01*
X54538Y-42868D01*
X54561Y-42879D01*
X57474Y-31993D02*
X57485Y-31982D01*
X57497Y-31948D01*
X57497Y-31926D01*
X57485Y-31892D01*
X57463Y-31870D01*
X57440Y-31858D01*
X57395Y-31847D01*
X57362Y-31847D01*
X57317Y-31858D01*
X57294Y-31870D01*
X57272Y-31892D01*
X57260Y-31926D01*
X57260Y-31948D01*
X57272Y-31982D01*
X57283Y-31993D01*
X57260Y-32072D02*
X57260Y-32218D01*
X57350Y-32140D01*
X57350Y-32173D01*
X57362Y-32196D01*
X57373Y-32207D01*
X57395Y-32218D01*
X57452Y-32218D01*
X57474Y-32207D01*
X57485Y-32196D01*
X57497Y-32173D01*
X57497Y-32106D01*
X57485Y-32083D01*
X57474Y-32072D01*
X57497Y-32331D02*
X57497Y-32376D01*
X57485Y-32398D01*
X57474Y-32410D01*
X57440Y-32432D01*
X57395Y-32443D01*
X57305Y-32443D01*
X57283Y-32432D01*
X57272Y-32421D01*
X57260Y-32398D01*
X57260Y-32353D01*
X57272Y-32331D01*
X57283Y-32320D01*
X57305Y-32308D01*
X57362Y-32308D01*
X57384Y-32320D01*
X57395Y-32331D01*
X57407Y-32353D01*
X57407Y-32398D01*
X57395Y-32421D01*
X57384Y-32432D01*
X57362Y-32443D01*
X60269Y-42947D02*
X60281Y-42958D01*
X60314Y-42969D01*
X60337Y-42969D01*
X60371Y-42958D01*
X60393Y-42935D01*
X60404Y-42913D01*
X60416Y-42868D01*
X60416Y-42834D01*
X60404Y-42789D01*
X60393Y-42767D01*
X60371Y-42744D01*
X60337Y-42733D01*
X60314Y-42733D01*
X60281Y-42744D01*
X60269Y-42755D01*
X60067Y-42812D02*
X60067Y-42969D01*
X60123Y-42722D02*
X60179Y-42890D01*
X60033Y-42890D01*
X59932Y-42969D02*
X59887Y-42969D01*
X59865Y-42958D01*
X59853Y-42947D01*
X59831Y-42913D01*
X59820Y-42868D01*
X59820Y-42778D01*
X59831Y-42755D01*
X59842Y-42744D01*
X59865Y-42733D01*
X59910Y-42733D01*
X59932Y-42744D01*
X59943Y-42755D01*
X59955Y-42778D01*
X59955Y-42834D01*
X59943Y-42857D01*
X59932Y-42868D01*
X59910Y-42879D01*
X59865Y-42879D01*
X59842Y-42868D01*
X59831Y-42857D01*
X59820Y-42834D01*
X60309Y-34974D02*
X60320Y-34985D01*
X60354Y-34997D01*
X60376Y-34997D01*
X60410Y-34985D01*
X60433Y-34963D01*
X60444Y-34940D01*
X60455Y-34895D01*
X60455Y-34862D01*
X60444Y-34817D01*
X60433Y-34794D01*
X60410Y-34772D01*
X60376Y-34760D01*
X60354Y-34760D01*
X60320Y-34772D01*
X60309Y-34783D01*
X60106Y-34839D02*
X60106Y-34997D01*
X60163Y-34749D02*
X60219Y-34918D01*
X60073Y-34918D01*
X60005Y-34760D02*
X59848Y-34760D01*
X59949Y-34997D01*
X59718Y-42376D02*
X59730Y-42387D01*
X59763Y-42398D01*
X59786Y-42398D01*
X59820Y-42387D01*
X59842Y-42365D01*
X59853Y-42342D01*
X59865Y-42297D01*
X59865Y-42263D01*
X59853Y-42218D01*
X59842Y-42196D01*
X59820Y-42173D01*
X59786Y-42162D01*
X59763Y-42162D01*
X59730Y-42173D01*
X59718Y-42185D01*
X59516Y-42241D02*
X59516Y-42398D01*
X59572Y-42151D02*
X59628Y-42320D01*
X59482Y-42320D01*
X59347Y-42162D02*
X59325Y-42162D01*
X59302Y-42173D01*
X59291Y-42185D01*
X59280Y-42207D01*
X59268Y-42252D01*
X59268Y-42308D01*
X59280Y-42353D01*
X59291Y-42376D01*
X59302Y-42387D01*
X59325Y-42398D01*
X59347Y-42398D01*
X59370Y-42387D01*
X59381Y-42376D01*
X59392Y-42353D01*
X59403Y-42308D01*
X59403Y-42252D01*
X59392Y-42207D01*
X59381Y-42185D01*
X59370Y-42173D01*
X59347Y-42162D01*
X57553Y-39745D02*
X57564Y-39734D01*
X57575Y-39700D01*
X57575Y-39678D01*
X57564Y-39644D01*
X57542Y-39622D01*
X57519Y-39610D01*
X57474Y-39599D01*
X57440Y-39599D01*
X57395Y-39610D01*
X57373Y-39622D01*
X57350Y-39644D01*
X57339Y-39678D01*
X57339Y-39700D01*
X57350Y-39734D01*
X57362Y-39745D01*
X57418Y-39948D02*
X57575Y-39948D01*
X57328Y-39892D02*
X57497Y-39835D01*
X57497Y-39982D01*
X57362Y-40060D02*
X57350Y-40071D01*
X57339Y-40094D01*
X57339Y-40150D01*
X57350Y-40173D01*
X57362Y-40184D01*
X57384Y-40195D01*
X57407Y-40195D01*
X57440Y-40184D01*
X57575Y-40049D01*
X57575Y-40195D01*
X59777Y-34423D02*
X59789Y-34434D01*
X59822Y-34446D01*
X59845Y-34446D01*
X59879Y-34434D01*
X59901Y-34412D01*
X59912Y-34389D01*
X59924Y-34344D01*
X59924Y-34311D01*
X59912Y-34266D01*
X59901Y-34243D01*
X59879Y-34221D01*
X59845Y-34209D01*
X59822Y-34209D01*
X59789Y-34221D01*
X59777Y-34232D01*
X59699Y-34209D02*
X59552Y-34209D01*
X59631Y-34299D01*
X59597Y-34299D01*
X59575Y-34311D01*
X59564Y-34322D01*
X59552Y-34344D01*
X59552Y-34401D01*
X59564Y-34423D01*
X59575Y-34434D01*
X59597Y-34446D01*
X59665Y-34446D01*
X59687Y-34434D01*
X59699Y-34423D01*
X59417Y-34311D02*
X59440Y-34299D01*
X59451Y-34288D01*
X59462Y-34266D01*
X59462Y-34254D01*
X59451Y-34232D01*
X59440Y-34221D01*
X59417Y-34209D01*
X59372Y-34209D01*
X59350Y-34221D01*
X59339Y-34232D01*
X59327Y-34254D01*
X59327Y-34266D01*
X59339Y-34288D01*
X59350Y-34299D01*
X59372Y-34311D01*
X59417Y-34311D01*
X59440Y-34322D01*
X59451Y-34333D01*
X59462Y-34356D01*
X59462Y-34401D01*
X59451Y-34423D01*
X59440Y-34434D01*
X59417Y-34446D01*
X59372Y-34446D01*
X59350Y-34434D01*
X59339Y-34423D01*
X59327Y-34401D01*
X59327Y-34356D01*
X59339Y-34333D01*
X59350Y-34322D01*
X59372Y-34311D01*
X54876Y-44088D02*
X54887Y-44100D01*
X54921Y-44111D01*
X54943Y-44111D01*
X54977Y-44100D01*
X55000Y-44077D01*
X55011Y-44055D01*
X55022Y-44010D01*
X55022Y-43976D01*
X55011Y-43931D01*
X55000Y-43908D01*
X54977Y-43886D01*
X54943Y-43875D01*
X54921Y-43875D01*
X54887Y-43886D01*
X54876Y-43897D01*
X54797Y-43875D02*
X54651Y-43875D01*
X54730Y-43965D01*
X54696Y-43965D01*
X54673Y-43976D01*
X54662Y-43987D01*
X54651Y-44010D01*
X54651Y-44066D01*
X54662Y-44088D01*
X54673Y-44100D01*
X54696Y-44111D01*
X54763Y-44111D01*
X54786Y-44100D01*
X54797Y-44088D01*
X54572Y-43875D02*
X54415Y-43875D01*
X54516Y-44111D01*
X56392Y-35733D02*
X56403Y-35722D01*
X56414Y-35688D01*
X56414Y-35666D01*
X56403Y-35632D01*
X56380Y-35610D01*
X56358Y-35598D01*
X56313Y-35587D01*
X56279Y-35587D01*
X56234Y-35598D01*
X56212Y-35610D01*
X56189Y-35632D01*
X56178Y-35666D01*
X56178Y-35688D01*
X56189Y-35722D01*
X56200Y-35733D01*
X56178Y-35812D02*
X56178Y-35958D01*
X56268Y-35880D01*
X56268Y-35913D01*
X56279Y-35936D01*
X56290Y-35947D01*
X56313Y-35958D01*
X56369Y-35958D01*
X56392Y-35947D01*
X56403Y-35936D01*
X56414Y-35913D01*
X56414Y-35846D01*
X56403Y-35823D01*
X56392Y-35812D01*
X56178Y-36037D02*
X56178Y-36183D01*
X56268Y-36105D01*
X56268Y-36138D01*
X56279Y-36161D01*
X56290Y-36172D01*
X56313Y-36183D01*
X56369Y-36183D01*
X56392Y-36172D01*
X56403Y-36161D01*
X56414Y-36138D01*
X56414Y-36071D01*
X56403Y-36048D01*
X56392Y-36037D01*
X46562Y-39742D02*
X46562Y-40060D01*
X46543Y-40098D01*
X46524Y-40116D01*
X46487Y-40135D01*
X46412Y-40135D01*
X46374Y-40116D01*
X46356Y-40098D01*
X46337Y-40060D01*
X46337Y-39742D01*
X45943Y-40135D02*
X46168Y-40135D01*
X46056Y-40135D02*
X46056Y-39742D01*
X46093Y-39798D01*
X46131Y-39835D01*
X46168Y-39854D01*
X45606Y-39873D02*
X45606Y-40135D01*
X45699Y-39723D02*
X45793Y-40004D01*
X45549Y-40004D01*
X46452Y-42127D02*
X46452Y-42221D01*
X46546Y-42184D02*
X46452Y-42221D01*
X46359Y-42184D01*
X46508Y-42296D02*
X46452Y-42221D01*
X46396Y-42296D01*
X46554Y-37249D02*
X46554Y-37568D01*
X46535Y-37606D01*
X46516Y-37624D01*
X46479Y-37643D01*
X46404Y-37643D01*
X46366Y-37624D01*
X46348Y-37606D01*
X46329Y-37568D01*
X46329Y-37249D01*
X45935Y-37643D02*
X46160Y-37643D01*
X46048Y-37643D02*
X46048Y-37249D01*
X46085Y-37306D01*
X46123Y-37343D01*
X46160Y-37362D01*
X45804Y-37249D02*
X45560Y-37249D01*
X45691Y-37399D01*
X45635Y-37399D01*
X45598Y-37418D01*
X45579Y-37437D01*
X45560Y-37474D01*
X45560Y-37568D01*
X45579Y-37606D01*
X45598Y-37624D01*
X45635Y-37643D01*
X45748Y-37643D01*
X45785Y-37624D01*
X45804Y-37606D01*
X46598Y-39505D02*
X46598Y-39599D01*
X46692Y-39562D02*
X46598Y-39599D01*
X46504Y-39562D01*
X46654Y-39674D02*
X46598Y-39599D01*
X46542Y-39674D01*
X53020Y-45016D02*
X53098Y-44904D01*
X53155Y-45016D02*
X53155Y-44780D01*
X53065Y-44780D01*
X53042Y-44791D01*
X53031Y-44803D01*
X53020Y-44825D01*
X53020Y-44859D01*
X53031Y-44881D01*
X53042Y-44893D01*
X53065Y-44904D01*
X53155Y-44904D01*
X52795Y-45016D02*
X52930Y-45016D01*
X52862Y-45016D02*
X52862Y-44780D01*
X52885Y-44814D01*
X52907Y-44836D01*
X52930Y-44848D01*
X52705Y-44803D02*
X52694Y-44791D01*
X52671Y-44780D01*
X52615Y-44780D01*
X52592Y-44791D01*
X52581Y-44803D01*
X52570Y-44825D01*
X52570Y-44848D01*
X52581Y-44881D01*
X52716Y-45016D01*
X52570Y-45016D01*
X52356Y-44780D02*
X52469Y-44780D01*
X52480Y-44893D01*
X52469Y-44881D01*
X52446Y-44870D01*
X52390Y-44870D01*
X52367Y-44881D01*
X52356Y-44893D01*
X52345Y-44915D01*
X52345Y-44971D01*
X52356Y-44994D01*
X52367Y-45005D01*
X52390Y-45016D01*
X52446Y-45016D01*
X52469Y-45005D01*
X52480Y-44994D01*
X53000Y-45528D02*
X53079Y-45416D01*
X53135Y-45528D02*
X53135Y-45292D01*
X53045Y-45292D01*
X53023Y-45303D01*
X53011Y-45314D01*
X53000Y-45337D01*
X53000Y-45371D01*
X53011Y-45393D01*
X53023Y-45404D01*
X53045Y-45416D01*
X53135Y-45416D01*
X52775Y-45528D02*
X52910Y-45528D01*
X52843Y-45528D02*
X52843Y-45292D01*
X52865Y-45326D01*
X52888Y-45348D01*
X52910Y-45359D01*
X52685Y-45314D02*
X52674Y-45303D01*
X52651Y-45292D01*
X52595Y-45292D01*
X52573Y-45303D01*
X52561Y-45314D01*
X52550Y-45337D01*
X52550Y-45359D01*
X52561Y-45393D01*
X52696Y-45528D01*
X52550Y-45528D01*
X52471Y-45292D02*
X52325Y-45292D01*
X52404Y-45382D01*
X52370Y-45382D01*
X52348Y-45393D01*
X52336Y-45404D01*
X52325Y-45427D01*
X52325Y-45483D01*
X52336Y-45506D01*
X52348Y-45517D01*
X52370Y-45528D01*
X52438Y-45528D01*
X52460Y-45517D01*
X52471Y-45506D01*
X53020Y-44544D02*
X53098Y-44431D01*
X53155Y-44544D02*
X53155Y-44308D01*
X53065Y-44308D01*
X53042Y-44319D01*
X53031Y-44330D01*
X53020Y-44353D01*
X53020Y-44386D01*
X53031Y-44409D01*
X53042Y-44420D01*
X53065Y-44431D01*
X53155Y-44431D01*
X52795Y-44544D02*
X52930Y-44544D01*
X52862Y-44544D02*
X52862Y-44308D01*
X52885Y-44341D01*
X52907Y-44364D01*
X52930Y-44375D01*
X52705Y-44330D02*
X52694Y-44319D01*
X52671Y-44308D01*
X52615Y-44308D01*
X52592Y-44319D01*
X52581Y-44330D01*
X52570Y-44353D01*
X52570Y-44375D01*
X52581Y-44409D01*
X52716Y-44544D01*
X52570Y-44544D01*
X52367Y-44386D02*
X52367Y-44544D01*
X52424Y-44296D02*
X52480Y-44465D01*
X52334Y-44465D01*
X53000Y-46040D02*
X53079Y-45928D01*
X53135Y-46040D02*
X53135Y-45804D01*
X53045Y-45804D01*
X53023Y-45815D01*
X53011Y-45826D01*
X53000Y-45849D01*
X53000Y-45883D01*
X53011Y-45905D01*
X53023Y-45916D01*
X53045Y-45928D01*
X53135Y-45928D01*
X52775Y-46040D02*
X52910Y-46040D01*
X52843Y-46040D02*
X52843Y-45804D01*
X52865Y-45838D01*
X52888Y-45860D01*
X52910Y-45871D01*
X52685Y-45826D02*
X52674Y-45815D01*
X52651Y-45804D01*
X52595Y-45804D01*
X52573Y-45815D01*
X52561Y-45826D01*
X52550Y-45849D01*
X52550Y-45871D01*
X52561Y-45905D01*
X52696Y-46040D01*
X52550Y-46040D01*
X52460Y-45826D02*
X52449Y-45815D01*
X52426Y-45804D01*
X52370Y-45804D01*
X52348Y-45815D01*
X52336Y-45826D01*
X52325Y-45849D01*
X52325Y-45871D01*
X52336Y-45905D01*
X52471Y-46040D01*
X52325Y-46040D01*
X45251Y-43308D02*
X45251Y-43627D01*
X45232Y-43665D01*
X45213Y-43683D01*
X45176Y-43702D01*
X45101Y-43702D01*
X45063Y-43683D01*
X45044Y-43665D01*
X45026Y-43627D01*
X45026Y-43308D01*
X44632Y-43702D02*
X44857Y-43702D01*
X44745Y-43702D02*
X44745Y-43308D01*
X44782Y-43365D01*
X44820Y-43402D01*
X44857Y-43421D01*
X44482Y-43346D02*
X44463Y-43327D01*
X44426Y-43308D01*
X44332Y-43308D01*
X44295Y-43327D01*
X44276Y-43346D01*
X44257Y-43383D01*
X44257Y-43421D01*
X44276Y-43477D01*
X44501Y-43702D01*
X44257Y-43702D01*
X45513Y-45885D02*
X45607Y-45885D01*
X45569Y-45792D02*
X45607Y-45885D01*
X45569Y-45979D01*
X45682Y-45829D02*
X45607Y-45885D01*
X45682Y-45942D01*
X66012Y-40163D02*
X66012Y-40482D01*
X65993Y-40519D01*
X65975Y-40538D01*
X65937Y-40556D01*
X65862Y-40556D01*
X65825Y-40538D01*
X65806Y-40519D01*
X65787Y-40482D01*
X65787Y-40163D01*
X65431Y-40294D02*
X65431Y-40556D01*
X65525Y-40144D02*
X65618Y-40425D01*
X65375Y-40425D01*
X65779Y-43781D02*
X65779Y-43875D01*
X65873Y-43837D02*
X65779Y-43875D01*
X65685Y-43837D01*
X65835Y-43950D02*
X65779Y-43875D01*
X65723Y-43950D01*
X54817Y-48155D02*
X54828Y-48143D01*
X54839Y-48110D01*
X54839Y-48087D01*
X54828Y-48053D01*
X54805Y-48031D01*
X54783Y-48020D01*
X54738Y-48008D01*
X54704Y-48008D01*
X54659Y-48020D01*
X54637Y-48031D01*
X54614Y-48053D01*
X54603Y-48087D01*
X54603Y-48110D01*
X54614Y-48143D01*
X54625Y-48155D01*
X54603Y-48368D02*
X54603Y-48256D01*
X54715Y-48245D01*
X54704Y-48256D01*
X54693Y-48278D01*
X54693Y-48335D01*
X54704Y-48357D01*
X54715Y-48368D01*
X54738Y-48380D01*
X54794Y-48380D01*
X54817Y-48368D01*
X54828Y-48357D01*
X54839Y-48335D01*
X54839Y-48278D01*
X54828Y-48256D01*
X54817Y-48245D01*
X54625Y-48470D02*
X54614Y-48481D01*
X54603Y-48503D01*
X54603Y-48560D01*
X54614Y-48582D01*
X54625Y-48593D01*
X54648Y-48605D01*
X54670Y-48605D01*
X54704Y-48593D01*
X54839Y-48458D01*
X54839Y-48605D01*
X59915Y-45673D02*
X59926Y-45684D01*
X59960Y-45696D01*
X59983Y-45696D01*
X60016Y-45684D01*
X60039Y-45662D01*
X60050Y-45639D01*
X60061Y-45594D01*
X60061Y-45561D01*
X60050Y-45516D01*
X60039Y-45493D01*
X60016Y-45471D01*
X59983Y-45459D01*
X59960Y-45459D01*
X59926Y-45471D01*
X59915Y-45482D01*
X59701Y-45459D02*
X59814Y-45459D01*
X59825Y-45572D01*
X59814Y-45561D01*
X59791Y-45549D01*
X59735Y-45549D01*
X59713Y-45561D01*
X59701Y-45572D01*
X59690Y-45594D01*
X59690Y-45651D01*
X59701Y-45673D01*
X59713Y-45684D01*
X59735Y-45696D01*
X59791Y-45696D01*
X59814Y-45684D01*
X59825Y-45673D01*
X59544Y-45459D02*
X59521Y-45459D01*
X59499Y-45471D01*
X59488Y-45482D01*
X59476Y-45504D01*
X59465Y-45549D01*
X59465Y-45606D01*
X59476Y-45651D01*
X59488Y-45673D01*
X59499Y-45684D01*
X59521Y-45696D01*
X59544Y-45696D01*
X59566Y-45684D01*
X59578Y-45673D01*
X59589Y-45651D01*
X59600Y-45606D01*
X59600Y-45549D01*
X59589Y-45504D01*
X59578Y-45482D01*
X59566Y-45471D01*
X59544Y-45459D01*
X52303Y-38773D02*
X52314Y-38785D01*
X52348Y-38796D01*
X52370Y-38796D01*
X52404Y-38785D01*
X52426Y-38762D01*
X52438Y-38740D01*
X52449Y-38695D01*
X52449Y-38661D01*
X52438Y-38616D01*
X52426Y-38593D01*
X52404Y-38571D01*
X52370Y-38560D01*
X52348Y-38560D01*
X52314Y-38571D01*
X52303Y-38582D01*
X52168Y-38661D02*
X52190Y-38650D01*
X52201Y-38638D01*
X52213Y-38616D01*
X52213Y-38605D01*
X52201Y-38582D01*
X52190Y-38571D01*
X52168Y-38560D01*
X52123Y-38560D01*
X52100Y-38571D01*
X52089Y-38582D01*
X52078Y-38605D01*
X52078Y-38616D01*
X52089Y-38638D01*
X52100Y-38650D01*
X52123Y-38661D01*
X52168Y-38661D01*
X52190Y-38672D01*
X52201Y-38683D01*
X52213Y-38706D01*
X52213Y-38751D01*
X52201Y-38773D01*
X52190Y-38785D01*
X52168Y-38796D01*
X52123Y-38796D01*
X52100Y-38785D01*
X52089Y-38773D01*
X52078Y-38751D01*
X52078Y-38706D01*
X52089Y-38683D01*
X52100Y-38672D01*
X52123Y-38661D01*
X60092Y-37442D02*
X60104Y-37431D01*
X60115Y-37397D01*
X60115Y-37375D01*
X60104Y-37341D01*
X60081Y-37318D01*
X60059Y-37307D01*
X60014Y-37296D01*
X59980Y-37296D01*
X59935Y-37307D01*
X59912Y-37318D01*
X59890Y-37341D01*
X59879Y-37375D01*
X59879Y-37397D01*
X59890Y-37431D01*
X59901Y-37442D01*
X60115Y-37667D02*
X60115Y-37532D01*
X60115Y-37600D02*
X59879Y-37600D01*
X59912Y-37577D01*
X59935Y-37555D01*
X59946Y-37532D01*
X59879Y-37813D02*
X59879Y-37836D01*
X59890Y-37858D01*
X59901Y-37870D01*
X59924Y-37881D01*
X59969Y-37892D01*
X60025Y-37892D01*
X60070Y-37881D01*
X60092Y-37870D01*
X60104Y-37858D01*
X60115Y-37836D01*
X60115Y-37813D01*
X60104Y-37791D01*
X60092Y-37780D01*
X60070Y-37768D01*
X60025Y-37757D01*
X59969Y-37757D01*
X59924Y-37768D01*
X59901Y-37780D01*
X59890Y-37791D01*
X59879Y-37813D01*
X61819Y-36153D02*
X61830Y-36142D01*
X61841Y-36108D01*
X61841Y-36086D01*
X61830Y-36052D01*
X61807Y-36029D01*
X61785Y-36018D01*
X61740Y-36007D01*
X61706Y-36007D01*
X61661Y-36018D01*
X61639Y-36029D01*
X61616Y-36052D01*
X61605Y-36086D01*
X61605Y-36108D01*
X61616Y-36142D01*
X61627Y-36153D01*
X61841Y-36266D02*
X61841Y-36311D01*
X61830Y-36333D01*
X61819Y-36344D01*
X61785Y-36367D01*
X61740Y-36378D01*
X61650Y-36378D01*
X61627Y-36367D01*
X61616Y-36356D01*
X61605Y-36333D01*
X61605Y-36288D01*
X61616Y-36266D01*
X61627Y-36254D01*
X61650Y-36243D01*
X61706Y-36243D01*
X61729Y-36254D01*
X61740Y-36266D01*
X61751Y-36288D01*
X61751Y-36333D01*
X61740Y-36356D01*
X61729Y-36367D01*
X61706Y-36378D01*
X52480Y-42041D02*
X52491Y-42052D01*
X52525Y-42064D01*
X52547Y-42064D01*
X52581Y-42052D01*
X52604Y-42030D01*
X52615Y-42007D01*
X52626Y-41962D01*
X52626Y-41929D01*
X52615Y-41884D01*
X52604Y-41861D01*
X52581Y-41839D01*
X52547Y-41827D01*
X52525Y-41827D01*
X52491Y-41839D01*
X52480Y-41850D01*
X52401Y-41827D02*
X52244Y-41827D01*
X52345Y-42064D01*
X46589Y-46852D02*
X46589Y-47170D01*
X46571Y-47208D01*
X46552Y-47227D01*
X46514Y-47245D01*
X46439Y-47245D01*
X46402Y-47227D01*
X46383Y-47208D01*
X46364Y-47170D01*
X46364Y-46852D01*
X45971Y-47245D02*
X46196Y-47245D01*
X46083Y-47245D02*
X46083Y-46852D01*
X46121Y-46908D01*
X46158Y-46946D01*
X46196Y-46964D01*
X45614Y-46852D02*
X45802Y-46852D01*
X45821Y-47039D01*
X45802Y-47020D01*
X45764Y-47002D01*
X45671Y-47002D01*
X45633Y-47020D01*
X45614Y-47039D01*
X45596Y-47077D01*
X45596Y-47170D01*
X45614Y-47208D01*
X45633Y-47227D01*
X45671Y-47245D01*
X45764Y-47245D01*
X45802Y-47227D01*
X45821Y-47208D01*
X44253Y-48354D02*
X44347Y-48354D01*
X44310Y-48260D02*
X44347Y-48354D01*
X44310Y-48448D01*
X44422Y-48298D02*
X44347Y-48354D01*
X44422Y-48410D01*
G54D19*
X57365Y-47907D02*
X57365Y-48129D01*
X57350Y-48155D01*
X57335Y-48169D01*
X57305Y-48182D01*
X57245Y-48182D01*
X57215Y-48169D01*
X57200Y-48155D01*
X57185Y-48129D01*
X57185Y-47907D01*
X56991Y-48025D02*
X57021Y-48011D01*
X57036Y-47998D01*
X57051Y-47972D01*
X57051Y-47959D01*
X57036Y-47933D01*
X57021Y-47920D01*
X56991Y-47907D01*
X56931Y-47907D01*
X56901Y-47920D01*
X56886Y-47933D01*
X56871Y-47959D01*
X56871Y-47972D01*
X56886Y-47998D01*
X56901Y-48011D01*
X56931Y-48025D01*
X56991Y-48025D01*
X57021Y-48038D01*
X57036Y-48051D01*
X57051Y-48077D01*
X57051Y-48129D01*
X57036Y-48155D01*
X57021Y-48169D01*
X56991Y-48182D01*
X56931Y-48182D01*
X56901Y-48169D01*
X56886Y-48155D01*
X56871Y-48129D01*
X56871Y-48077D01*
X56886Y-48051D01*
X56901Y-48038D01*
X56931Y-48025D01*
G54D16*
X57330Y-49714D02*
X57330Y-49808D01*
X57424Y-49770D02*
X57330Y-49808D01*
X57236Y-49770D01*
X57386Y-49883D02*
X57330Y-49808D01*
X57274Y-49883D01*
X51739Y-27245D02*
X51477Y-27639D01*
X51477Y-27245D02*
X51739Y-27639D01*
X51365Y-27245D02*
X51121Y-27245D01*
X51252Y-27395D01*
X51196Y-27395D01*
X51158Y-27414D01*
X51140Y-27433D01*
X51121Y-27470D01*
X51121Y-27564D01*
X51140Y-27602D01*
X51158Y-27620D01*
X51196Y-27639D01*
X51308Y-27639D01*
X51346Y-27620D01*
X51365Y-27602D01*
X62350Y-28200D02*
X62335Y-28185D01*
X62305Y-28170D01*
X62230Y-28170D01*
X62200Y-28185D01*
X62185Y-28200D01*
X62170Y-28230D01*
X62170Y-28260D01*
X62185Y-28305D01*
X62365Y-28485D01*
X62170Y-28485D01*
X61975Y-28170D02*
X61945Y-28170D01*
X61915Y-28185D01*
X61900Y-28200D01*
X61885Y-28230D01*
X61870Y-28290D01*
X61870Y-28365D01*
X61885Y-28425D01*
X61900Y-28455D01*
X61915Y-28470D01*
X61945Y-28485D01*
X61975Y-28485D01*
X62005Y-28470D01*
X62020Y-28455D01*
X62035Y-28425D01*
X62050Y-28365D01*
X62050Y-28290D01*
X62035Y-28230D01*
X62020Y-28200D01*
X62005Y-28185D01*
X61975Y-28170D01*
X62138Y-29466D02*
X62318Y-29466D01*
X62228Y-29466D02*
X62228Y-29151D01*
X62258Y-29196D01*
X62288Y-29226D01*
X62318Y-29241D01*
X61988Y-29466D02*
X61928Y-29466D01*
X61898Y-29451D01*
X61883Y-29436D01*
X61853Y-29391D01*
X61838Y-29331D01*
X61838Y-29211D01*
X61853Y-29181D01*
X61868Y-29166D01*
X61898Y-29151D01*
X61958Y-29151D01*
X61988Y-29166D01*
X62003Y-29181D01*
X62018Y-29211D01*
X62018Y-29286D01*
X62003Y-29316D01*
X61988Y-29331D01*
X61958Y-29346D01*
X61898Y-29346D01*
X61868Y-29331D01*
X61853Y-29316D01*
X61838Y-29286D01*
X51960Y-28212D02*
X51945Y-28197D01*
X51915Y-28182D01*
X51840Y-28182D01*
X51810Y-28197D01*
X51795Y-28212D01*
X51780Y-28242D01*
X51780Y-28272D01*
X51795Y-28317D01*
X51975Y-28497D01*
X51780Y-28497D01*
X51760Y-29466D02*
X51940Y-29466D01*
X51850Y-29466D02*
X51850Y-29151D01*
X51880Y-29196D01*
X51910Y-29226D01*
X51940Y-29241D01*
M02*
