%FSLAX34Y34*%
G04 Gerber Fmt 3.4, Leading zero omitted, Abs format*
G04 (created by PCBNEW (2013-10-29 BZR 4389)-product) date 4/5/2015 8:40:51 AM*
%MOIN*%
G01*
G70*
G90*
G04 APERTURE LIST*
%ADD10C,0.005000*%
%ADD11C,0.007874*%
%ADD12C,0.011811*%
G04 APERTURE END LIST*
G54D10*
G54D11*
X43307Y-26771D02*
X43307Y-51181D01*
X66535Y-26771D02*
X43307Y-26771D01*
X66535Y-51181D02*
X43307Y-51181D01*
X66535Y-51181D02*
X66535Y-26771D01*
G54D11*
X43681Y-50788D02*
X43758Y-50865D01*
X43758Y-50788D02*
X43681Y-50865D01*
X43741Y-28662D02*
X43818Y-28739D01*
X43818Y-28662D02*
X43741Y-28739D01*
X43937Y-41851D02*
X44014Y-41928D01*
X44014Y-41851D02*
X43937Y-41928D01*
X44016Y-37717D02*
X44093Y-37794D01*
X44093Y-37717D02*
X44016Y-37794D01*
X44252Y-41851D02*
X44329Y-41928D01*
X44329Y-41851D02*
X44252Y-41928D01*
X44252Y-50788D02*
X44329Y-50865D01*
X44329Y-50788D02*
X44252Y-50865D01*
X44311Y-37717D02*
X44388Y-37794D01*
X44388Y-37717D02*
X44311Y-37794D01*
X44410Y-28662D02*
X44487Y-28739D01*
X44487Y-28662D02*
X44410Y-28739D01*
X44567Y-41851D02*
X44644Y-41928D01*
X44644Y-41851D02*
X44567Y-41928D01*
X44658Y-37717D02*
X44735Y-37794D01*
X44735Y-37717D02*
X44658Y-37794D01*
X44882Y-41851D02*
X44959Y-41928D01*
X44959Y-41851D02*
X44882Y-41928D01*
X44961Y-50788D02*
X45038Y-50865D01*
X45038Y-50788D02*
X44961Y-50865D01*
X45040Y-28662D02*
X45117Y-28739D01*
X45117Y-28662D02*
X45040Y-28739D01*
X45315Y-32717D02*
X45392Y-32794D01*
X45392Y-32717D02*
X45315Y-32794D01*
X45433Y-31103D02*
X45510Y-31180D01*
X45510Y-31103D02*
X45433Y-31180D01*
X45473Y-48662D02*
X45550Y-48739D01*
X45550Y-48662D02*
X45473Y-48739D01*
X45512Y-46496D02*
X45589Y-46573D01*
X45589Y-46496D02*
X45512Y-46573D01*
X45591Y-34193D02*
X45668Y-34270D01*
X45668Y-34193D02*
X45591Y-34270D01*
X45591Y-36083D02*
X45668Y-36160D01*
X45668Y-36083D02*
X45591Y-36160D01*
X45611Y-50788D02*
X45688Y-50865D01*
X45688Y-50788D02*
X45611Y-50865D01*
X45709Y-28662D02*
X45786Y-28739D01*
X45786Y-28662D02*
X45709Y-28739D01*
X45965Y-33347D02*
X46042Y-33424D01*
X46042Y-33347D02*
X45965Y-33424D01*
X45965Y-33996D02*
X46042Y-34073D01*
X46042Y-33996D02*
X45965Y-34073D01*
X45965Y-34430D02*
X46042Y-34507D01*
X46042Y-34430D02*
X45965Y-34507D01*
X45965Y-34922D02*
X46042Y-34999D01*
X46042Y-34922D02*
X45965Y-34999D01*
X45965Y-35552D02*
X46042Y-35629D01*
X46042Y-35552D02*
X45965Y-35629D01*
X45965Y-36024D02*
X46042Y-36101D01*
X46042Y-36024D02*
X45965Y-36101D01*
X45965Y-36516D02*
X46042Y-36593D01*
X46042Y-36516D02*
X45965Y-36593D01*
X45985Y-32717D02*
X46062Y-32794D01*
X46062Y-32717D02*
X45985Y-32794D01*
X45985Y-48662D02*
X46062Y-48739D01*
X46062Y-48662D02*
X45985Y-48739D01*
X46221Y-50788D02*
X46298Y-50865D01*
X46298Y-50788D02*
X46221Y-50865D01*
X46339Y-28662D02*
X46416Y-28739D01*
X46416Y-28662D02*
X46339Y-28739D01*
X46870Y-50788D02*
X46947Y-50865D01*
X46947Y-50788D02*
X46870Y-50865D01*
X46969Y-28662D02*
X47046Y-28739D01*
X47046Y-28662D02*
X46969Y-28739D01*
X47441Y-39016D02*
X47518Y-39093D01*
X47518Y-39016D02*
X47441Y-39093D01*
X47465Y-50776D02*
X47542Y-50853D01*
X47542Y-50776D02*
X47465Y-50853D01*
X47481Y-32756D02*
X47558Y-32833D01*
X47558Y-32756D02*
X47481Y-32833D01*
X47638Y-28662D02*
X47715Y-28739D01*
X47715Y-28662D02*
X47638Y-28739D01*
X47874Y-32992D02*
X47951Y-33069D01*
X47951Y-32992D02*
X47874Y-33069D01*
X47977Y-50819D02*
X48054Y-50896D01*
X48054Y-50819D02*
X47977Y-50896D01*
X47992Y-29449D02*
X48069Y-29526D01*
X48069Y-29449D02*
X47992Y-29526D01*
X48189Y-30512D02*
X48266Y-30589D01*
X48266Y-30512D02*
X48189Y-30589D01*
X48189Y-31103D02*
X48266Y-31180D01*
X48266Y-31103D02*
X48189Y-31180D01*
X48268Y-28622D02*
X48345Y-28699D01*
X48345Y-28622D02*
X48268Y-28699D01*
X48386Y-48032D02*
X48463Y-48109D01*
X48463Y-48032D02*
X48386Y-48109D01*
X48406Y-29941D02*
X48483Y-30018D01*
X48483Y-29941D02*
X48406Y-30018D01*
X48426Y-32914D02*
X48503Y-32991D01*
X48503Y-32914D02*
X48426Y-32991D01*
X48426Y-33544D02*
X48503Y-33621D01*
X48503Y-33544D02*
X48426Y-33621D01*
X48445Y-50807D02*
X48522Y-50884D01*
X48522Y-50807D02*
X48445Y-50884D01*
X48465Y-29252D02*
X48542Y-29329D01*
X48542Y-29252D02*
X48465Y-29329D01*
X48465Y-31654D02*
X48542Y-31731D01*
X48542Y-31654D02*
X48465Y-31731D01*
X48465Y-45670D02*
X48542Y-45747D01*
X48542Y-45670D02*
X48465Y-45747D01*
X48465Y-48977D02*
X48542Y-49054D01*
X48542Y-48977D02*
X48465Y-49054D01*
X48504Y-47363D02*
X48581Y-47440D01*
X48581Y-47363D02*
X48504Y-47440D01*
X48741Y-45315D02*
X48818Y-45392D01*
X48818Y-45315D02*
X48741Y-45392D01*
X48780Y-33307D02*
X48857Y-33384D01*
X48857Y-33307D02*
X48780Y-33384D01*
X48819Y-27796D02*
X48896Y-27873D01*
X48896Y-27796D02*
X48819Y-27873D01*
X48819Y-28426D02*
X48896Y-28503D01*
X48896Y-28426D02*
X48819Y-28503D01*
X48819Y-47756D02*
X48896Y-47833D01*
X48896Y-47756D02*
X48819Y-47833D01*
X48898Y-32008D02*
X48975Y-32085D01*
X48975Y-32008D02*
X48898Y-32085D01*
X48937Y-41457D02*
X49014Y-41534D01*
X49014Y-41457D02*
X48937Y-41534D01*
X48937Y-42048D02*
X49014Y-42125D01*
X49014Y-42048D02*
X48937Y-42125D01*
X48937Y-42599D02*
X49014Y-42676D01*
X49014Y-42599D02*
X48937Y-42676D01*
X49016Y-33819D02*
X49093Y-33896D01*
X49093Y-33819D02*
X49016Y-33896D01*
X49055Y-48977D02*
X49132Y-49054D01*
X49132Y-48977D02*
X49055Y-49054D01*
X49115Y-50807D02*
X49192Y-50884D01*
X49192Y-50807D02*
X49115Y-50884D01*
X49331Y-49410D02*
X49408Y-49487D01*
X49408Y-49410D02*
X49331Y-49487D01*
X49370Y-32244D02*
X49447Y-32321D01*
X49447Y-32244D02*
X49370Y-32321D01*
X49370Y-41457D02*
X49447Y-41534D01*
X49447Y-41457D02*
X49370Y-41534D01*
X49370Y-42048D02*
X49447Y-42125D01*
X49447Y-42048D02*
X49370Y-42125D01*
X49370Y-48032D02*
X49447Y-48109D01*
X49447Y-48032D02*
X49370Y-48109D01*
X49410Y-49843D02*
X49487Y-49920D01*
X49487Y-49843D02*
X49410Y-49920D01*
X49449Y-27796D02*
X49526Y-27873D01*
X49526Y-27796D02*
X49449Y-27873D01*
X49449Y-28426D02*
X49526Y-28503D01*
X49526Y-28426D02*
X49449Y-28503D01*
X49528Y-42599D02*
X49605Y-42676D01*
X49605Y-42599D02*
X49528Y-42676D01*
X49587Y-48957D02*
X49664Y-49034D01*
X49664Y-48957D02*
X49587Y-49034D01*
X49764Y-42048D02*
X49841Y-42125D01*
X49841Y-42048D02*
X49764Y-42125D01*
X49843Y-41457D02*
X49920Y-41534D01*
X49920Y-41457D02*
X49843Y-41534D01*
X49961Y-27796D02*
X50038Y-27873D01*
X50038Y-27796D02*
X49961Y-27873D01*
X50000Y-27205D02*
X50077Y-27282D01*
X50077Y-27205D02*
X50000Y-27282D01*
X50000Y-28426D02*
X50077Y-28503D01*
X50077Y-28426D02*
X50000Y-28503D01*
X50000Y-49331D02*
X50077Y-49408D01*
X50077Y-49331D02*
X50000Y-49408D01*
X50000Y-49882D02*
X50077Y-49959D01*
X50077Y-49882D02*
X50000Y-49959D01*
X50040Y-32284D02*
X50117Y-32361D01*
X50117Y-32284D02*
X50040Y-32361D01*
X50079Y-48032D02*
X50156Y-48109D01*
X50156Y-48032D02*
X50079Y-48109D01*
X50079Y-48957D02*
X50156Y-49034D01*
X50156Y-48957D02*
X50079Y-49034D01*
X50118Y-42599D02*
X50195Y-42676D01*
X50195Y-42599D02*
X50118Y-42676D01*
X50158Y-44134D02*
X50235Y-44211D01*
X50235Y-44134D02*
X50158Y-44211D01*
X50158Y-49607D02*
X50235Y-49684D01*
X50235Y-49607D02*
X50158Y-49684D01*
X50355Y-49331D02*
X50432Y-49408D01*
X50432Y-49331D02*
X50355Y-49408D01*
X50394Y-49804D02*
X50471Y-49881D01*
X50471Y-49804D02*
X50394Y-49881D01*
X50591Y-27205D02*
X50668Y-27282D01*
X50668Y-27205D02*
X50591Y-27282D01*
X50591Y-27796D02*
X50668Y-27873D01*
X50668Y-27796D02*
X50591Y-27873D01*
X50591Y-28426D02*
X50668Y-28503D01*
X50668Y-28426D02*
X50591Y-28503D01*
X50630Y-32048D02*
X50707Y-32125D01*
X50707Y-32048D02*
X50630Y-32125D01*
X50788Y-29567D02*
X50865Y-29644D01*
X50865Y-29567D02*
X50788Y-29644D01*
X50788Y-44134D02*
X50865Y-44211D01*
X50865Y-44134D02*
X50788Y-44211D01*
X50985Y-45630D02*
X51062Y-45707D01*
X51062Y-45630D02*
X50985Y-45707D01*
X51044Y-31713D02*
X51121Y-31790D01*
X51121Y-31713D02*
X51044Y-31790D01*
X51063Y-27205D02*
X51140Y-27282D01*
X51140Y-27205D02*
X51063Y-27282D01*
X51103Y-27796D02*
X51180Y-27873D01*
X51180Y-27796D02*
X51103Y-27873D01*
X51103Y-28426D02*
X51180Y-28503D01*
X51180Y-28426D02*
X51103Y-28503D01*
X51221Y-30118D02*
X51298Y-30195D01*
X51298Y-30118D02*
X51221Y-30195D01*
X51339Y-30985D02*
X51416Y-31062D01*
X51416Y-30985D02*
X51339Y-31062D01*
X51418Y-43268D02*
X51495Y-43345D01*
X51495Y-43268D02*
X51418Y-43345D01*
X51418Y-43544D02*
X51495Y-43621D01*
X51495Y-43544D02*
X51418Y-43621D01*
X51615Y-27205D02*
X51692Y-27282D01*
X51692Y-27205D02*
X51615Y-27282D01*
X51615Y-27796D02*
X51692Y-27873D01*
X51692Y-27796D02*
X51615Y-27873D01*
X51615Y-28386D02*
X51692Y-28463D01*
X51692Y-28386D02*
X51615Y-28463D01*
X51615Y-50079D02*
X51692Y-50156D01*
X51692Y-50079D02*
X51615Y-50156D01*
X51615Y-50433D02*
X51692Y-50510D01*
X51692Y-50433D02*
X51615Y-50510D01*
X51733Y-30433D02*
X51810Y-30510D01*
X51810Y-30433D02*
X51733Y-30510D01*
X51733Y-43268D02*
X51810Y-43345D01*
X51810Y-43268D02*
X51733Y-43345D01*
X51733Y-43544D02*
X51810Y-43621D01*
X51810Y-43544D02*
X51733Y-43621D01*
X51890Y-50237D02*
X51967Y-50314D01*
X51967Y-50237D02*
X51890Y-50314D01*
X52048Y-43268D02*
X52125Y-43345D01*
X52125Y-43268D02*
X52048Y-43345D01*
X52048Y-43544D02*
X52125Y-43621D01*
X52125Y-43544D02*
X52048Y-43621D01*
X52126Y-27284D02*
X52203Y-27361D01*
X52203Y-27284D02*
X52126Y-27361D01*
X52126Y-50079D02*
X52203Y-50156D01*
X52203Y-50079D02*
X52126Y-50156D01*
X52126Y-50433D02*
X52203Y-50510D01*
X52203Y-50433D02*
X52126Y-50510D01*
X52323Y-43268D02*
X52400Y-43345D01*
X52400Y-43268D02*
X52323Y-43345D01*
X52323Y-43544D02*
X52400Y-43621D01*
X52400Y-43544D02*
X52323Y-43621D01*
X52599Y-27284D02*
X52676Y-27361D01*
X52676Y-27284D02*
X52599Y-27361D01*
X52599Y-43268D02*
X52676Y-43345D01*
X52676Y-43268D02*
X52599Y-43345D01*
X52599Y-43544D02*
X52676Y-43621D01*
X52676Y-43544D02*
X52599Y-43621D01*
X52756Y-32953D02*
X52833Y-33030D01*
X52833Y-32953D02*
X52756Y-33030D01*
X53111Y-27284D02*
X53188Y-27361D01*
X53188Y-27284D02*
X53111Y-27361D01*
X53150Y-32559D02*
X53227Y-32636D01*
X53227Y-32559D02*
X53150Y-32636D01*
X53780Y-27284D02*
X53857Y-27361D01*
X53857Y-27284D02*
X53780Y-27361D01*
X54489Y-27284D02*
X54566Y-27361D01*
X54566Y-27284D02*
X54489Y-27361D01*
X55069Y-50246D02*
X55146Y-50323D01*
X55146Y-50246D02*
X55069Y-50323D01*
X55069Y-50522D02*
X55146Y-50599D01*
X55146Y-50522D02*
X55069Y-50599D01*
X55158Y-27284D02*
X55235Y-27361D01*
X55235Y-27284D02*
X55158Y-27361D01*
X55365Y-50246D02*
X55442Y-50323D01*
X55442Y-50246D02*
X55365Y-50323D01*
X55365Y-50522D02*
X55442Y-50599D01*
X55442Y-50522D02*
X55365Y-50599D01*
X55433Y-39981D02*
X55510Y-40058D01*
X55510Y-39981D02*
X55433Y-40058D01*
X55867Y-27284D02*
X55944Y-27361D01*
X55944Y-27284D02*
X55867Y-27361D01*
X56378Y-27284D02*
X56455Y-27361D01*
X56455Y-27284D02*
X56378Y-27361D01*
X56969Y-27284D02*
X57046Y-27361D01*
X57046Y-27284D02*
X56969Y-27361D01*
X57166Y-50197D02*
X57243Y-50274D01*
X57243Y-50197D02*
X57166Y-50274D01*
X57205Y-50512D02*
X57282Y-50589D01*
X57282Y-50512D02*
X57205Y-50589D01*
X57481Y-49922D02*
X57558Y-49999D01*
X57558Y-49922D02*
X57481Y-49999D01*
X57481Y-50197D02*
X57558Y-50274D01*
X57558Y-50197D02*
X57481Y-50274D01*
X57520Y-50512D02*
X57597Y-50589D01*
X57597Y-50512D02*
X57520Y-50589D01*
X57678Y-27284D02*
X57755Y-27361D01*
X57755Y-27284D02*
X57678Y-27361D01*
X58209Y-50867D02*
X58286Y-50944D01*
X58286Y-50867D02*
X58209Y-50944D01*
X58307Y-27284D02*
X58384Y-27361D01*
X58384Y-27284D02*
X58307Y-27361D01*
X58347Y-48898D02*
X58424Y-48975D01*
X58424Y-48898D02*
X58347Y-48975D01*
X58347Y-49764D02*
X58424Y-49841D01*
X58424Y-49764D02*
X58347Y-49841D01*
X58662Y-49134D02*
X58739Y-49211D01*
X58739Y-49134D02*
X58662Y-49211D01*
X58662Y-49489D02*
X58739Y-49566D01*
X58739Y-49489D02*
X58662Y-49566D01*
X58681Y-50867D02*
X58758Y-50944D01*
X58758Y-50867D02*
X58681Y-50944D01*
X58898Y-45867D02*
X58975Y-45944D01*
X58975Y-45867D02*
X58898Y-45944D01*
X58977Y-27284D02*
X59054Y-27361D01*
X59054Y-27284D02*
X58977Y-27361D01*
X58977Y-40473D02*
X59054Y-40550D01*
X59054Y-40473D02*
X58977Y-40550D01*
X59095Y-46300D02*
X59172Y-46377D01*
X59172Y-46300D02*
X59095Y-46377D01*
X59095Y-50118D02*
X59172Y-50195D01*
X59172Y-50118D02*
X59095Y-50195D01*
X59174Y-50867D02*
X59251Y-50944D01*
X59251Y-50867D02*
X59174Y-50944D01*
X59292Y-40768D02*
X59369Y-40845D01*
X59369Y-40768D02*
X59292Y-40845D01*
X59666Y-50867D02*
X59743Y-50944D01*
X59743Y-50867D02*
X59666Y-50944D01*
X59725Y-27284D02*
X59802Y-27361D01*
X59802Y-27284D02*
X59725Y-27361D01*
X60079Y-50079D02*
X60156Y-50156D01*
X60156Y-50079D02*
X60079Y-50156D01*
X60138Y-50867D02*
X60215Y-50944D01*
X60215Y-50867D02*
X60138Y-50944D01*
X60237Y-49666D02*
X60314Y-49743D01*
X60314Y-49666D02*
X60237Y-49743D01*
X60433Y-27284D02*
X60510Y-27361D01*
X60510Y-27284D02*
X60433Y-27361D01*
X60611Y-50867D02*
X60688Y-50944D01*
X60688Y-50867D02*
X60611Y-50944D01*
X60670Y-48347D02*
X60747Y-48424D01*
X60747Y-48347D02*
X60670Y-48424D01*
X60827Y-49666D02*
X60904Y-49743D01*
X60904Y-49666D02*
X60827Y-49743D01*
X61083Y-50867D02*
X61160Y-50944D01*
X61160Y-50867D02*
X61083Y-50944D01*
X61142Y-27284D02*
X61219Y-27361D01*
X61219Y-27284D02*
X61142Y-27361D01*
X61615Y-27284D02*
X61692Y-27361D01*
X61692Y-27284D02*
X61615Y-27361D01*
X61733Y-50650D02*
X61810Y-50727D01*
X61810Y-50650D02*
X61733Y-50727D01*
X62008Y-31418D02*
X62085Y-31495D01*
X62085Y-31418D02*
X62008Y-31495D01*
X62126Y-28465D02*
X62203Y-28542D01*
X62203Y-28465D02*
X62126Y-28542D01*
X62166Y-27008D02*
X62243Y-27085D01*
X62243Y-27008D02*
X62166Y-27085D01*
X62166Y-27874D02*
X62243Y-27951D01*
X62243Y-27874D02*
X62166Y-27951D01*
X62481Y-34213D02*
X62558Y-34290D01*
X62558Y-34213D02*
X62481Y-34290D01*
X62481Y-34764D02*
X62558Y-34841D01*
X62558Y-34764D02*
X62481Y-34841D01*
X62481Y-50650D02*
X62558Y-50727D01*
X62558Y-50650D02*
X62481Y-50727D01*
X62678Y-31418D02*
X62755Y-31495D01*
X62755Y-31418D02*
X62678Y-31495D01*
X62678Y-32048D02*
X62755Y-32125D01*
X62755Y-32048D02*
X62678Y-32125D01*
X62796Y-27008D02*
X62873Y-27085D01*
X62873Y-27008D02*
X62796Y-27085D01*
X62796Y-27874D02*
X62873Y-27951D01*
X62873Y-27874D02*
X62796Y-27951D01*
X62796Y-28465D02*
X62873Y-28542D01*
X62873Y-28465D02*
X62796Y-28542D01*
X63229Y-30788D02*
X63306Y-30865D01*
X63306Y-30788D02*
X63229Y-30865D01*
X63229Y-32048D02*
X63306Y-32125D01*
X63306Y-32048D02*
X63229Y-32125D01*
X63237Y-45130D02*
X63314Y-45207D01*
X63314Y-45130D02*
X63237Y-45207D01*
X63268Y-31418D02*
X63345Y-31495D01*
X63345Y-31418D02*
X63268Y-31495D01*
X63268Y-46221D02*
X63345Y-46298D01*
X63345Y-46221D02*
X63268Y-46298D01*
X63307Y-27008D02*
X63384Y-27085D01*
X63384Y-27008D02*
X63307Y-27085D01*
X63307Y-46811D02*
X63384Y-46888D01*
X63384Y-46811D02*
X63307Y-46888D01*
X63327Y-45705D02*
X63404Y-45782D01*
X63404Y-45705D02*
X63327Y-45782D01*
X63347Y-29213D02*
X63424Y-29290D01*
X63424Y-29213D02*
X63347Y-29290D01*
X63386Y-27874D02*
X63463Y-27951D01*
X63463Y-27874D02*
X63386Y-27951D01*
X63386Y-30118D02*
X63463Y-30195D01*
X63463Y-30118D02*
X63386Y-30195D01*
X63406Y-50532D02*
X63483Y-50609D01*
X63483Y-50532D02*
X63406Y-50609D01*
X63416Y-28494D02*
X63493Y-28571D01*
X63493Y-28494D02*
X63416Y-28571D01*
X63426Y-47284D02*
X63503Y-47361D01*
X63503Y-47284D02*
X63426Y-47361D01*
X63583Y-48760D02*
X63660Y-48837D01*
X63660Y-48760D02*
X63583Y-48837D01*
X63583Y-49213D02*
X63660Y-49290D01*
X63660Y-49213D02*
X63583Y-49290D01*
X63622Y-36221D02*
X63699Y-36298D01*
X63699Y-36221D02*
X63622Y-36298D01*
X63622Y-36615D02*
X63699Y-36692D01*
X63699Y-36615D02*
X63622Y-36692D01*
X63662Y-29607D02*
X63739Y-29684D01*
X63739Y-29607D02*
X63662Y-29684D01*
X63701Y-49626D02*
X63778Y-49703D01*
X63778Y-49626D02*
X63701Y-49703D01*
X63701Y-50158D02*
X63778Y-50235D01*
X63778Y-50158D02*
X63701Y-50235D01*
X63721Y-45304D02*
X63798Y-45381D01*
X63798Y-45304D02*
X63721Y-45381D01*
X63819Y-36969D02*
X63896Y-37046D01*
X63896Y-36969D02*
X63819Y-37046D01*
X63819Y-47638D02*
X63896Y-47715D01*
X63896Y-47638D02*
X63819Y-47715D01*
X63859Y-32048D02*
X63936Y-32125D01*
X63936Y-32048D02*
X63859Y-32125D01*
X63878Y-50945D02*
X63955Y-51022D01*
X63955Y-50945D02*
X63878Y-51022D01*
X63937Y-27008D02*
X64014Y-27085D01*
X64014Y-27008D02*
X63937Y-27085D01*
X64006Y-28494D02*
X64083Y-28571D01*
X64083Y-28494D02*
X64006Y-28571D01*
X64016Y-27874D02*
X64093Y-27951D01*
X64093Y-27874D02*
X64016Y-27951D01*
X64055Y-48760D02*
X64132Y-48837D01*
X64132Y-48760D02*
X64055Y-48837D01*
X64134Y-29331D02*
X64211Y-29408D01*
X64211Y-29331D02*
X64134Y-29408D01*
X64567Y-27008D02*
X64644Y-27085D01*
X64644Y-27008D02*
X64567Y-27085D01*
X64587Y-50945D02*
X64664Y-51022D01*
X64664Y-50945D02*
X64587Y-51022D01*
X64607Y-27874D02*
X64684Y-27951D01*
X64684Y-27874D02*
X64607Y-27951D01*
X64725Y-38426D02*
X64802Y-38503D01*
X64802Y-38426D02*
X64725Y-38503D01*
X64725Y-38937D02*
X64802Y-39014D01*
X64802Y-38937D02*
X64725Y-39014D01*
X64843Y-29174D02*
X64920Y-29251D01*
X64920Y-29174D02*
X64843Y-29251D01*
X65020Y-48563D02*
X65097Y-48640D01*
X65097Y-48563D02*
X65020Y-48640D01*
X65020Y-49075D02*
X65097Y-49152D01*
X65097Y-49075D02*
X65020Y-49152D01*
X65020Y-50237D02*
X65097Y-50314D01*
X65097Y-50237D02*
X65020Y-50314D01*
X65158Y-38426D02*
X65235Y-38503D01*
X65235Y-38426D02*
X65158Y-38503D01*
X65197Y-38937D02*
X65274Y-39014D01*
X65274Y-38937D02*
X65197Y-39014D01*
X65237Y-27008D02*
X65314Y-27085D01*
X65314Y-27008D02*
X65237Y-27085D01*
X65237Y-27874D02*
X65314Y-27951D01*
X65314Y-27874D02*
X65237Y-27951D01*
X65276Y-50945D02*
X65353Y-51022D01*
X65353Y-50945D02*
X65276Y-51022D01*
X65315Y-47953D02*
X65392Y-48030D01*
X65392Y-47953D02*
X65315Y-48030D01*
X65492Y-50217D02*
X65569Y-50294D01*
X65569Y-50217D02*
X65492Y-50294D01*
X65512Y-29331D02*
X65589Y-29408D01*
X65589Y-29331D02*
X65512Y-29408D01*
X65670Y-38426D02*
X65747Y-38503D01*
X65747Y-38426D02*
X65670Y-38503D01*
X65709Y-31969D02*
X65786Y-32046D01*
X65786Y-31969D02*
X65709Y-32046D01*
X65709Y-45276D02*
X65786Y-45353D01*
X65786Y-45276D02*
X65709Y-45353D01*
X65768Y-48760D02*
X65845Y-48837D01*
X65845Y-48760D02*
X65768Y-48837D01*
X65768Y-49351D02*
X65845Y-49428D01*
X65845Y-49351D02*
X65768Y-49428D01*
X65788Y-27008D02*
X65865Y-27085D01*
X65865Y-27008D02*
X65788Y-27085D01*
X65788Y-27481D02*
X65865Y-27558D01*
X65865Y-27481D02*
X65788Y-27558D01*
X65788Y-27874D02*
X65865Y-27951D01*
X65865Y-27874D02*
X65788Y-27951D01*
X65827Y-47638D02*
X65904Y-47715D01*
X65904Y-47638D02*
X65827Y-47715D01*
X65906Y-50945D02*
X65983Y-51022D01*
X65983Y-50945D02*
X65906Y-51022D01*
X65945Y-29646D02*
X66022Y-29723D01*
X66022Y-29646D02*
X65945Y-29723D01*
X66024Y-48032D02*
X66101Y-48109D01*
X66101Y-48032D02*
X66024Y-48109D01*
X66063Y-32126D02*
X66140Y-32203D01*
X66140Y-32126D02*
X66063Y-32203D01*
X66103Y-29134D02*
X66180Y-29211D01*
X66180Y-29134D02*
X66103Y-29211D01*
X66103Y-45512D02*
X66180Y-45589D01*
X66180Y-45512D02*
X66103Y-45589D01*
X66142Y-30040D02*
X66219Y-30117D01*
X66219Y-30040D02*
X66142Y-30117D01*
X66142Y-31496D02*
X66219Y-31573D01*
X66219Y-31496D02*
X66142Y-31573D01*
X66142Y-32796D02*
X66219Y-32873D01*
X66219Y-32796D02*
X66142Y-32873D01*
X66142Y-35591D02*
X66219Y-35668D01*
X66219Y-35591D02*
X66142Y-35668D01*
X66142Y-36063D02*
X66219Y-36140D01*
X66219Y-36063D02*
X66142Y-36140D01*
X66142Y-36615D02*
X66219Y-36692D01*
X66219Y-36615D02*
X66142Y-36692D01*
X66142Y-37126D02*
X66219Y-37203D01*
X66219Y-37126D02*
X66142Y-37203D01*
X66142Y-37638D02*
X66219Y-37715D01*
X66219Y-37638D02*
X66142Y-37715D01*
X66142Y-38111D02*
X66219Y-38188D01*
X66219Y-38111D02*
X66142Y-38188D01*
X66142Y-38622D02*
X66219Y-38699D01*
X66219Y-38622D02*
X66142Y-38699D01*
X66142Y-39095D02*
X66219Y-39172D01*
X66219Y-39095D02*
X66142Y-39172D01*
X66142Y-39567D02*
X66219Y-39644D01*
X66219Y-39567D02*
X66142Y-39644D01*
X66142Y-40118D02*
X66219Y-40195D01*
X66219Y-40118D02*
X66142Y-40195D01*
X66142Y-40630D02*
X66219Y-40707D01*
X66219Y-40630D02*
X66142Y-40707D01*
X66142Y-41181D02*
X66219Y-41258D01*
X66219Y-41181D02*
X66142Y-41258D01*
X66142Y-41654D02*
X66219Y-41731D01*
X66219Y-41654D02*
X66142Y-41731D01*
X66142Y-42087D02*
X66219Y-42164D01*
X66219Y-42087D02*
X66142Y-42164D01*
X66142Y-42559D02*
X66219Y-42636D01*
X66219Y-42559D02*
X66142Y-42636D01*
X66142Y-43150D02*
X66219Y-43227D01*
X66219Y-43150D02*
X66142Y-43227D01*
X66142Y-43741D02*
X66219Y-43818D01*
X66219Y-43741D02*
X66142Y-43818D01*
X66142Y-44292D02*
X66219Y-44369D01*
X66219Y-44292D02*
X66142Y-44369D01*
X66142Y-44843D02*
X66219Y-44920D01*
X66219Y-44843D02*
X66142Y-44920D01*
X66181Y-47284D02*
X66258Y-47361D01*
X66258Y-47284D02*
X66181Y-47361D01*
X66221Y-46063D02*
X66298Y-46140D01*
X66298Y-46063D02*
X66221Y-46140D01*
X66241Y-49115D02*
X66318Y-49192D01*
X66318Y-49115D02*
X66241Y-49192D01*
X66241Y-49528D02*
X66318Y-49605D01*
X66318Y-49528D02*
X66241Y-49605D01*
X66241Y-50000D02*
X66318Y-50077D01*
X66318Y-50000D02*
X66241Y-50077D01*
X66241Y-50532D02*
X66318Y-50609D01*
X66318Y-50532D02*
X66241Y-50609D01*
X66260Y-27008D02*
X66337Y-27085D01*
X66337Y-27008D02*
X66260Y-27085D01*
X66260Y-27441D02*
X66337Y-27518D01*
X66337Y-27441D02*
X66260Y-27518D01*
X66260Y-48642D02*
X66337Y-48719D01*
X66337Y-48642D02*
X66260Y-48719D01*
X66300Y-27914D02*
X66377Y-27991D01*
X66377Y-27914D02*
X66300Y-27991D01*
X66300Y-28622D02*
X66377Y-28699D01*
X66377Y-28622D02*
X66300Y-28699D01*
X66300Y-46615D02*
X66377Y-46692D01*
X66377Y-46615D02*
X66300Y-46692D01*
X66339Y-30670D02*
X66416Y-30747D01*
X66416Y-30670D02*
X66339Y-30747D01*
X43633Y-29551D02*
G75*
G03X43633Y-29551I-39J0D01*
G74*
G01*
X43633Y-30255D02*
G75*
G03X43633Y-30255I-39J0D01*
G74*
G01*
X43633Y-30866D02*
G75*
G03X43633Y-30866I-39J0D01*
G74*
G01*
X43787Y-43275D02*
G75*
G03X43787Y-43275I-39J0D01*
G74*
G01*
X43807Y-46192D02*
G75*
G03X43807Y-46192I-39J0D01*
G74*
G01*
X43968Y-33303D02*
G75*
G03X43968Y-33303I-39J0D01*
G74*
G01*
X43996Y-45275D02*
G75*
G03X43996Y-45275I-39J0D01*
G74*
G01*
X44000Y-48385D02*
G75*
G03X44000Y-48385I-39J0D01*
G74*
G01*
X44035Y-47011D02*
G75*
G03X44035Y-47011I-39J0D01*
G74*
G01*
X44078Y-50255D02*
G75*
G03X44078Y-50255I-39J0D01*
G74*
G01*
X44094Y-44488D02*
G75*
G03X44094Y-44488I-39J0D01*
G74*
G01*
X44161Y-43917D02*
G75*
G03X44161Y-43917I-39J0D01*
G74*
G01*
X44200Y-44685D02*
G75*
G03X44200Y-44685I-39J0D01*
G74*
G01*
X44255Y-32905D02*
G75*
G03X44255Y-32905I-39J0D01*
G74*
G01*
X44259Y-44291D02*
G75*
G03X44259Y-44291I-39J0D01*
G74*
G01*
X44350Y-46417D02*
G75*
G03X44350Y-46417I-39J0D01*
G74*
G01*
X44511Y-47791D02*
G75*
G03X44511Y-47791I-39J0D01*
G74*
G01*
X44535Y-43188D02*
G75*
G03X44535Y-43188I-39J0D01*
G74*
G01*
X44551Y-44074D02*
G75*
G03X44551Y-44074I-39J0D01*
G74*
G01*
X44555Y-49082D02*
G75*
G03X44555Y-49082I-39J0D01*
G74*
G01*
X44566Y-31858D02*
G75*
G03X44566Y-31858I-39J0D01*
G74*
G01*
X44586Y-37275D02*
G75*
G03X44586Y-37275I-39J0D01*
G74*
G01*
X44625Y-45570D02*
G75*
G03X44625Y-45570I-39J0D01*
G74*
G01*
X44645Y-46657D02*
G75*
G03X44645Y-46657I-39J0D01*
G74*
G01*
X44968Y-46720D02*
G75*
G03X44968Y-46720I-39J0D01*
G74*
G01*
X45106Y-48732D02*
G75*
G03X45106Y-48732I-39J0D01*
G74*
G01*
X45287Y-41074D02*
G75*
G03X45287Y-41074I-39J0D01*
G74*
G01*
X45586Y-38708D02*
G75*
G03X45586Y-38708I-39J0D01*
G74*
G01*
X45602Y-42366D02*
G75*
G03X45602Y-42366I-39J0D01*
G74*
G01*
X45618Y-47547D02*
G75*
G03X45618Y-47547I-39J0D01*
G74*
G01*
X45870Y-48295D02*
G75*
G03X45870Y-48295I-39J0D01*
G74*
G01*
X45964Y-38114D02*
G75*
G03X45964Y-38114I-39J0D01*
G74*
G01*
X45964Y-40610D02*
G75*
G03X45964Y-40610I-39J0D01*
G74*
G01*
X46066Y-43066D02*
G75*
G03X46066Y-43066I-39J0D01*
G74*
G01*
X46200Y-45775D02*
G75*
G03X46200Y-45775I-39J0D01*
G74*
G01*
X46251Y-47834D02*
G75*
G03X46251Y-47834I-39J0D01*
G74*
G01*
X46377Y-44488D02*
G75*
G03X46377Y-44488I-39J0D01*
G74*
G01*
X46377Y-45275D02*
G75*
G03X46377Y-45275I-39J0D01*
G74*
G01*
X46389Y-43051D02*
G75*
G03X46389Y-43051I-39J0D01*
G74*
G01*
X46566Y-46204D02*
G75*
G03X46566Y-46204I-39J0D01*
G74*
G01*
X46696Y-46889D02*
G75*
G03X46696Y-46889I-39J0D01*
G74*
G01*
X46984Y-44267D02*
G75*
G03X46984Y-44267I-39J0D01*
G74*
G01*
X47177Y-38043D02*
G75*
G03X47177Y-38043I-39J0D01*
G74*
G01*
X47177Y-40011D02*
G75*
G03X47177Y-40011I-39J0D01*
G74*
G01*
X47275Y-44098D02*
G75*
G03X47275Y-44098I-39J0D01*
G74*
G01*
X47409Y-48862D02*
G75*
G03X47409Y-48862I-39J0D01*
G74*
G01*
X47433Y-37114D02*
G75*
G03X47433Y-37114I-39J0D01*
G74*
G01*
X47507Y-41566D02*
G75*
G03X47507Y-41566I-39J0D01*
G74*
G01*
X47527Y-46433D02*
G75*
G03X47527Y-46433I-39J0D01*
G74*
G01*
X47543Y-50330D02*
G75*
G03X47543Y-50330I-39J0D01*
G74*
G01*
X47562Y-45149D02*
G75*
G03X47562Y-45149I-39J0D01*
G74*
G01*
X47586Y-44602D02*
G75*
G03X47586Y-44602I-39J0D01*
G74*
G01*
X47598Y-44917D02*
G75*
G03X47598Y-44917I-39J0D01*
G74*
G01*
X47661Y-31129D02*
G75*
G03X47661Y-31129I-39J0D01*
G74*
G01*
X47681Y-35271D02*
G75*
G03X47681Y-35271I-39J0D01*
G74*
G01*
X47704Y-48570D02*
G75*
G03X47704Y-48570I-39J0D01*
G74*
G01*
X47775Y-47086D02*
G75*
G03X47775Y-47086I-39J0D01*
G74*
G01*
X47824Y-36742D02*
G75*
G03X47824Y-36742I-39J0D01*
G74*
G01*
X47834Y-35748D02*
G75*
G03X47834Y-35748I-39J0D01*
G74*
G01*
X47846Y-36570D02*
G75*
G03X47846Y-36570I-39J0D01*
G74*
G01*
X47854Y-36269D02*
G75*
G03X47854Y-36269I-39J0D01*
G74*
G01*
X47883Y-39694D02*
G75*
G03X47883Y-39694I-39J0D01*
G74*
G01*
X47893Y-39291D02*
G75*
G03X47893Y-39291I-39J0D01*
G74*
G01*
X47913Y-40275D02*
G75*
G03X47913Y-40275I-39J0D01*
G74*
G01*
X47913Y-40866D02*
G75*
G03X47913Y-40866I-39J0D01*
G74*
G01*
X47940Y-41102D02*
G75*
G03X47940Y-41102I-39J0D01*
G74*
G01*
X47942Y-37618D02*
G75*
G03X47942Y-37618I-39J0D01*
G74*
G01*
X47942Y-40472D02*
G75*
G03X47942Y-40472I-39J0D01*
G74*
G01*
X47952Y-35551D02*
G75*
G03X47952Y-35551I-39J0D01*
G74*
G01*
X47952Y-35944D02*
G75*
G03X47952Y-35944I-39J0D01*
G74*
G01*
X47962Y-39990D02*
G75*
G03X47962Y-39990I-39J0D01*
G74*
G01*
X47964Y-38543D02*
G75*
G03X47964Y-38543I-39J0D01*
G74*
G01*
X47972Y-34771D02*
G75*
G03X47972Y-34771I-39J0D01*
G74*
G01*
X47972Y-38110D02*
G75*
G03X47972Y-38110I-39J0D01*
G74*
G01*
X47976Y-36425D02*
G75*
G03X47976Y-36425I-39J0D01*
G74*
G01*
X47980Y-34366D02*
G75*
G03X47980Y-34366I-39J0D01*
G74*
G01*
X47980Y-35263D02*
G75*
G03X47980Y-35263I-39J0D01*
G74*
G01*
X47982Y-39094D02*
G75*
G03X47982Y-39094I-39J0D01*
G74*
G01*
X47982Y-42047D02*
G75*
G03X47982Y-42047I-39J0D01*
G74*
G01*
X47992Y-42352D02*
G75*
G03X47992Y-42352I-39J0D01*
G74*
G01*
X48011Y-39498D02*
G75*
G03X48011Y-39498I-39J0D01*
G74*
G01*
X48021Y-41456D02*
G75*
G03X48021Y-41456I-39J0D01*
G74*
G01*
X48177Y-28870D02*
G75*
G03X48177Y-28870I-39J0D01*
G74*
G01*
X48204Y-33850D02*
G75*
G03X48204Y-33850I-39J0D01*
G74*
G01*
X48307Y-47748D02*
G75*
G03X48307Y-47748I-39J0D01*
G74*
G01*
X48385Y-32094D02*
G75*
G03X48385Y-32094I-39J0D01*
G74*
G01*
X48527Y-29748D02*
G75*
G03X48527Y-29748I-39J0D01*
G74*
G01*
X48586Y-44267D02*
G75*
G03X48586Y-44267I-39J0D01*
G74*
G01*
X48830Y-44196D02*
G75*
G03X48830Y-44196I-39J0D01*
G74*
G01*
X48885Y-39106D02*
G75*
G03X48885Y-39106I-39J0D01*
G74*
G01*
X48893Y-34740D02*
G75*
G03X48893Y-34740I-39J0D01*
G74*
G01*
X48909Y-34570D02*
G75*
G03X48909Y-34570I-39J0D01*
G74*
G01*
X48992Y-38909D02*
G75*
G03X48992Y-38909I-39J0D01*
G74*
G01*
X49181Y-35200D02*
G75*
G03X49181Y-35200I-39J0D01*
G74*
G01*
X49192Y-49803D02*
G75*
G03X49192Y-49803I-39J0D01*
G74*
G01*
X49377Y-35244D02*
G75*
G03X49377Y-35244I-39J0D01*
G74*
G01*
X49566Y-39330D02*
G75*
G03X49566Y-39330I-39J0D01*
G74*
G01*
X49582Y-35295D02*
G75*
G03X49582Y-35295I-39J0D01*
G74*
G01*
X49732Y-38968D02*
G75*
G03X49732Y-38968I-39J0D01*
G74*
G01*
X49783Y-35342D02*
G75*
G03X49783Y-35342I-39J0D01*
G74*
G01*
X49972Y-37500D02*
G75*
G03X49972Y-37500I-39J0D01*
G74*
G01*
X49988Y-35397D02*
G75*
G03X49988Y-35397I-39J0D01*
G74*
G01*
X50015Y-38917D02*
G75*
G03X50015Y-38917I-39J0D01*
G74*
G01*
X50055Y-38358D02*
G75*
G03X50055Y-38358I-39J0D01*
G74*
G01*
X50086Y-39200D02*
G75*
G03X50086Y-39200I-39J0D01*
G74*
G01*
X50171Y-36736D02*
G75*
G03X50171Y-36736I-39J0D01*
G74*
G01*
X50188Y-37653D02*
G75*
G03X50188Y-37653I-39J0D01*
G74*
G01*
X50196Y-39389D02*
G75*
G03X50196Y-39389I-39J0D01*
G74*
G01*
X50246Y-39704D02*
G75*
G03X50246Y-39704I-39J0D01*
G74*
G01*
X50251Y-38181D02*
G75*
G03X50251Y-38181I-39J0D01*
G74*
G01*
X50255Y-38996D02*
G75*
G03X50255Y-38996I-39J0D01*
G74*
G01*
X50275Y-36555D02*
G75*
G03X50275Y-36555I-39J0D01*
G74*
G01*
X50307Y-35240D02*
G75*
G03X50307Y-35240I-39J0D01*
G74*
G01*
X50334Y-37942D02*
G75*
G03X50334Y-37942I-39J0D01*
G74*
G01*
X50381Y-37326D02*
G75*
G03X50381Y-37326I-39J0D01*
G74*
G01*
X50480Y-32984D02*
G75*
G03X50480Y-32984I-39J0D01*
G74*
G01*
X51271Y-33503D02*
G75*
G03X51271Y-33503I-39J0D01*
G74*
G01*
X51279Y-36771D02*
G75*
G03X51279Y-36771I-39J0D01*
G74*
G01*
X51307Y-35259D02*
G75*
G03X51307Y-35259I-39J0D01*
G74*
G01*
X51309Y-41466D02*
G75*
G03X51309Y-41466I-39J0D01*
G74*
G01*
X51318Y-39104D02*
G75*
G03X51318Y-39104I-39J0D01*
G74*
G01*
X51338Y-36098D02*
G75*
G03X51338Y-36098I-39J0D01*
G74*
G01*
X51338Y-42057D02*
G75*
G03X51338Y-42057I-39J0D01*
G74*
G01*
X51368Y-40482D02*
G75*
G03X51368Y-40482I-39J0D01*
G74*
G01*
X51397Y-41259D02*
G75*
G03X51397Y-41259I-39J0D01*
G74*
G01*
X51413Y-35752D02*
G75*
G03X51413Y-35752I-39J0D01*
G74*
G01*
X51429Y-37059D02*
G75*
G03X51429Y-37059I-39J0D01*
G74*
G01*
X51437Y-39547D02*
G75*
G03X51437Y-39547I-39J0D01*
G74*
G01*
X51456Y-42726D02*
G75*
G03X51456Y-42726I-39J0D01*
G74*
G01*
X51535Y-41102D02*
G75*
G03X51535Y-41102I-39J0D01*
G74*
G01*
X51555Y-39133D02*
G75*
G03X51555Y-39133I-39J0D01*
G74*
G01*
X51574Y-36574D02*
G75*
G03X51574Y-36574I-39J0D01*
G74*
G01*
X51574Y-36919D02*
G75*
G03X51574Y-36919I-39J0D01*
G74*
G01*
X51604Y-40108D02*
G75*
G03X51604Y-40108I-39J0D01*
G74*
G01*
X51614Y-36377D02*
G75*
G03X51614Y-36377I-39J0D01*
G74*
G01*
X51673Y-48937D02*
G75*
G03X51673Y-48937I-39J0D01*
G74*
G01*
X51673Y-49842D02*
G75*
G03X51673Y-49842I-39J0D01*
G74*
G01*
X51692Y-39901D02*
G75*
G03X51692Y-39901I-39J0D01*
G74*
G01*
X51728Y-36094D02*
G75*
G03X51728Y-36094I-39J0D01*
G74*
G01*
X51771Y-42204D02*
G75*
G03X51771Y-42204I-39J0D01*
G74*
G01*
X51826Y-32019D02*
G75*
G03X51826Y-32019I-39J0D01*
G74*
G01*
X51870Y-49370D02*
G75*
G03X51870Y-49370I-39J0D01*
G74*
G01*
X51879Y-38956D02*
G75*
G03X51879Y-38956I-39J0D01*
G74*
G01*
X51889Y-36240D02*
G75*
G03X51889Y-36240I-39J0D01*
G74*
G01*
X51909Y-33503D02*
G75*
G03X51909Y-33503I-39J0D01*
G74*
G01*
X52145Y-48188D02*
G75*
G03X52145Y-48188I-39J0D01*
G74*
G01*
X52165Y-40314D02*
G75*
G03X52165Y-40314I-39J0D01*
G74*
G01*
X52212Y-45704D02*
G75*
G03X52212Y-45704I-39J0D01*
G74*
G01*
X52409Y-42559D02*
G75*
G03X52409Y-42559I-39J0D01*
G74*
G01*
X52500Y-45381D02*
G75*
G03X52500Y-45381I-39J0D01*
G74*
G01*
X52511Y-45019D02*
G75*
G03X52511Y-45019I-39J0D01*
G74*
G01*
X52519Y-40866D02*
G75*
G03X52519Y-40866I-39J0D01*
G74*
G01*
X52519Y-44468D02*
G75*
G03X52519Y-44468I-39J0D01*
G74*
G01*
X52726Y-33740D02*
G75*
G03X52726Y-33740I-39J0D01*
G74*
G01*
X52755Y-37244D02*
G75*
G03X52755Y-37244I-39J0D01*
G74*
G01*
X52755Y-37874D02*
G75*
G03X52755Y-37874I-39J0D01*
G74*
G01*
X52818Y-36157D02*
G75*
G03X52818Y-36157I-39J0D01*
G74*
G01*
X52834Y-33917D02*
G75*
G03X52834Y-33917I-39J0D01*
G74*
G01*
X53031Y-38362D02*
G75*
G03X53031Y-38362I-39J0D01*
G74*
G01*
X53035Y-38937D02*
G75*
G03X53035Y-38937I-39J0D01*
G74*
G01*
X53070Y-40669D02*
G75*
G03X53070Y-40669I-39J0D01*
G74*
G01*
X53159Y-37135D02*
G75*
G03X53159Y-37135I-39J0D01*
G74*
G01*
X53181Y-38511D02*
G75*
G03X53181Y-38511I-39J0D01*
G74*
G01*
X53454Y-37125D02*
G75*
G03X53454Y-37125I-39J0D01*
G74*
G01*
X53622Y-40980D02*
G75*
G03X53622Y-40980I-39J0D01*
G74*
G01*
X53732Y-33429D02*
G75*
G03X53732Y-33429I-39J0D01*
G74*
G01*
X53799Y-48937D02*
G75*
G03X53799Y-48937I-39J0D01*
G74*
G01*
X53799Y-49842D02*
G75*
G03X53799Y-49842I-39J0D01*
G74*
G01*
X53881Y-37948D02*
G75*
G03X53881Y-37948I-39J0D01*
G74*
G01*
X53897Y-33139D02*
G75*
G03X53897Y-33139I-39J0D01*
G74*
G01*
X53897Y-44409D02*
G75*
G03X53897Y-44409I-39J0D01*
G74*
G01*
X53976Y-43110D02*
G75*
G03X53976Y-43110I-39J0D01*
G74*
G01*
X54035Y-32116D02*
G75*
G03X54035Y-32116I-39J0D01*
G74*
G01*
X54173Y-33129D02*
G75*
G03X54173Y-33129I-39J0D01*
G74*
G01*
X54183Y-33641D02*
G75*
G03X54183Y-33641I-39J0D01*
G74*
G01*
X54183Y-33937D02*
G75*
G03X54183Y-33937I-39J0D01*
G74*
G01*
X54183Y-35118D02*
G75*
G03X54183Y-35118I-39J0D01*
G74*
G01*
X54192Y-34251D02*
G75*
G03X54192Y-34251I-39J0D01*
G74*
G01*
X54192Y-34606D02*
G75*
G03X54192Y-34606I-39J0D01*
G74*
G01*
X54192Y-34921D02*
G75*
G03X54192Y-34921I-39J0D01*
G74*
G01*
X54251Y-32106D02*
G75*
G03X54251Y-32106I-39J0D01*
G74*
G01*
X54255Y-36964D02*
G75*
G03X54255Y-36964I-39J0D01*
G74*
G01*
X54586Y-43661D02*
G75*
G03X54586Y-43661I-39J0D01*
G74*
G01*
X54681Y-37181D02*
G75*
G03X54681Y-37181I-39J0D01*
G74*
G01*
X54692Y-31114D02*
G75*
G03X54692Y-31114I-39J0D01*
G74*
G01*
X54704Y-44409D02*
G75*
G03X54704Y-44409I-39J0D01*
G74*
G01*
X54862Y-48031D02*
G75*
G03X54862Y-48031I-39J0D01*
G74*
G01*
X54960Y-42440D02*
G75*
G03X54960Y-42440I-39J0D01*
G74*
G01*
X55000Y-42913D02*
G75*
G03X55000Y-42913I-39J0D01*
G74*
G01*
X55078Y-35846D02*
G75*
G03X55078Y-35846I-39J0D01*
G74*
G01*
X55078Y-43700D02*
G75*
G03X55078Y-43700I-39J0D01*
G74*
G01*
X55098Y-38015D02*
G75*
G03X55098Y-38015I-39J0D01*
G74*
G01*
X55137Y-37086D02*
G75*
G03X55137Y-37086I-39J0D01*
G74*
G01*
X55157Y-36535D02*
G75*
G03X55157Y-36535I-39J0D01*
G74*
G01*
X55196Y-42244D02*
G75*
G03X55196Y-42244I-39J0D01*
G74*
G01*
X55196Y-44694D02*
G75*
G03X55196Y-44694I-39J0D01*
G74*
G01*
X55314Y-35846D02*
G75*
G03X55314Y-35846I-39J0D01*
G74*
G01*
X55433Y-33051D02*
G75*
G03X55433Y-33051I-39J0D01*
G74*
G01*
X55433Y-40433D02*
G75*
G03X55433Y-40433I-39J0D01*
G74*
G01*
X55482Y-40984D02*
G75*
G03X55482Y-40984I-39J0D01*
G74*
G01*
X55649Y-39133D02*
G75*
G03X55649Y-39133I-39J0D01*
G74*
G01*
X55649Y-39389D02*
G75*
G03X55649Y-39389I-39J0D01*
G74*
G01*
X55649Y-40236D02*
G75*
G03X55649Y-40236I-39J0D01*
G74*
G01*
X55669Y-37470D02*
G75*
G03X55669Y-37470I-39J0D01*
G74*
G01*
X55708Y-33740D02*
G75*
G03X55708Y-33740I-39J0D01*
G74*
G01*
X55718Y-34015D02*
G75*
G03X55718Y-34015I-39J0D01*
G74*
G01*
X55718Y-41633D02*
G75*
G03X55718Y-41633I-39J0D01*
G74*
G01*
X55718Y-43277D02*
G75*
G03X55718Y-43277I-39J0D01*
G74*
G01*
X55728Y-33395D02*
G75*
G03X55728Y-33395I-39J0D01*
G74*
G01*
X55728Y-34911D02*
G75*
G03X55728Y-34911I-39J0D01*
G74*
G01*
X55728Y-41397D02*
G75*
G03X55728Y-41397I-39J0D01*
G74*
G01*
X55728Y-42519D02*
G75*
G03X55728Y-42519I-39J0D01*
G74*
G01*
X55728Y-43690D02*
G75*
G03X55728Y-43690I-39J0D01*
G74*
G01*
X55744Y-43468D02*
G75*
G03X55744Y-43468I-39J0D01*
G74*
G01*
X55748Y-34744D02*
G75*
G03X55748Y-34744I-39J0D01*
G74*
G01*
X55748Y-41948D02*
G75*
G03X55748Y-41948I-39J0D01*
G74*
G01*
X55748Y-42952D02*
G75*
G03X55748Y-42952I-39J0D01*
G74*
G01*
X55767Y-35118D02*
G75*
G03X55767Y-35118I-39J0D01*
G74*
G01*
X55777Y-34448D02*
G75*
G03X55777Y-34448I-39J0D01*
G74*
G01*
X55807Y-50846D02*
G75*
G03X55807Y-50846I-39J0D01*
G74*
G01*
X55822Y-37854D02*
G75*
G03X55822Y-37854I-39J0D01*
G74*
G01*
X55826Y-36879D02*
G75*
G03X55826Y-36879I-39J0D01*
G74*
G01*
X55826Y-40826D02*
G75*
G03X55826Y-40826I-39J0D01*
G74*
G01*
X55846Y-33562D02*
G75*
G03X55846Y-33562I-39J0D01*
G74*
G01*
X55866Y-31348D02*
G75*
G03X55866Y-31348I-39J0D01*
G74*
G01*
X55935Y-37519D02*
G75*
G03X55935Y-37519I-39J0D01*
G74*
G01*
X55944Y-32755D02*
G75*
G03X55944Y-32755I-39J0D01*
G74*
G01*
X55976Y-38185D02*
G75*
G03X55976Y-38185I-39J0D01*
G74*
G01*
X56003Y-37303D02*
G75*
G03X56003Y-37303I-39J0D01*
G74*
G01*
X56082Y-32933D02*
G75*
G03X56082Y-32933I-39J0D01*
G74*
G01*
X56082Y-33248D02*
G75*
G03X56082Y-33248I-39J0D01*
G74*
G01*
X56082Y-33562D02*
G75*
G03X56082Y-33562I-39J0D01*
G74*
G01*
X56082Y-33877D02*
G75*
G03X56082Y-33877I-39J0D01*
G74*
G01*
X56082Y-34192D02*
G75*
G03X56082Y-34192I-39J0D01*
G74*
G01*
X56082Y-34507D02*
G75*
G03X56082Y-34507I-39J0D01*
G74*
G01*
X56082Y-34822D02*
G75*
G03X56082Y-34822I-39J0D01*
G74*
G01*
X56082Y-35137D02*
G75*
G03X56082Y-35137I-39J0D01*
G74*
G01*
X56082Y-35452D02*
G75*
G03X56082Y-35452I-39J0D01*
G74*
G01*
X56082Y-35767D02*
G75*
G03X56082Y-35767I-39J0D01*
G74*
G01*
X56082Y-41437D02*
G75*
G03X56082Y-41437I-39J0D01*
G74*
G01*
X56082Y-41751D02*
G75*
G03X56082Y-41751I-39J0D01*
G74*
G01*
X56082Y-42066D02*
G75*
G03X56082Y-42066I-39J0D01*
G74*
G01*
X56082Y-42696D02*
G75*
G03X56082Y-42696I-39J0D01*
G74*
G01*
X56082Y-43011D02*
G75*
G03X56082Y-43011I-39J0D01*
G74*
G01*
X56082Y-43641D02*
G75*
G03X56082Y-43641I-39J0D01*
G74*
G01*
X56161Y-50846D02*
G75*
G03X56161Y-50846I-39J0D01*
G74*
G01*
X56181Y-31338D02*
G75*
G03X56181Y-31338I-39J0D01*
G74*
G01*
X56251Y-38940D02*
G75*
G03X56251Y-38940I-39J0D01*
G74*
G01*
X56397Y-33248D02*
G75*
G03X56397Y-33248I-39J0D01*
G74*
G01*
X56397Y-33562D02*
G75*
G03X56397Y-33562I-39J0D01*
G74*
G01*
X56397Y-33877D02*
G75*
G03X56397Y-33877I-39J0D01*
G74*
G01*
X56397Y-34192D02*
G75*
G03X56397Y-34192I-39J0D01*
G74*
G01*
X56397Y-34507D02*
G75*
G03X56397Y-34507I-39J0D01*
G74*
G01*
X56397Y-34822D02*
G75*
G03X56397Y-34822I-39J0D01*
G74*
G01*
X56397Y-35137D02*
G75*
G03X56397Y-35137I-39J0D01*
G74*
G01*
X56397Y-35452D02*
G75*
G03X56397Y-35452I-39J0D01*
G74*
G01*
X56397Y-35767D02*
G75*
G03X56397Y-35767I-39J0D01*
G74*
G01*
X56397Y-41437D02*
G75*
G03X56397Y-41437I-39J0D01*
G74*
G01*
X56397Y-41751D02*
G75*
G03X56397Y-41751I-39J0D01*
G74*
G01*
X56397Y-42066D02*
G75*
G03X56397Y-42066I-39J0D01*
G74*
G01*
X56397Y-42381D02*
G75*
G03X56397Y-42381I-39J0D01*
G74*
G01*
X56397Y-42696D02*
G75*
G03X56397Y-42696I-39J0D01*
G74*
G01*
X56397Y-43011D02*
G75*
G03X56397Y-43011I-39J0D01*
G74*
G01*
X56397Y-43326D02*
G75*
G03X56397Y-43326I-39J0D01*
G74*
G01*
X56397Y-43641D02*
G75*
G03X56397Y-43641I-39J0D01*
G74*
G01*
X56417Y-36082D02*
G75*
G03X56417Y-36082I-39J0D01*
G74*
G01*
X56488Y-50256D02*
G75*
G03X56488Y-50256I-39J0D01*
G74*
G01*
X56496Y-31338D02*
G75*
G03X56496Y-31338I-39J0D01*
G74*
G01*
X56496Y-32795D02*
G75*
G03X56496Y-32795I-39J0D01*
G74*
G01*
X56574Y-39074D02*
G75*
G03X56574Y-39074I-39J0D01*
G74*
G01*
X56574Y-40775D02*
G75*
G03X56574Y-40775I-39J0D01*
G74*
G01*
X56574Y-43917D02*
G75*
G03X56574Y-43917I-39J0D01*
G74*
G01*
X56574Y-50807D02*
G75*
G03X56574Y-50807I-39J0D01*
G74*
G01*
X56692Y-40590D02*
G75*
G03X56692Y-40590I-39J0D01*
G74*
G01*
X56712Y-32933D02*
G75*
G03X56712Y-32933I-39J0D01*
G74*
G01*
X56712Y-33248D02*
G75*
G03X56712Y-33248I-39J0D01*
G74*
G01*
X56712Y-33562D02*
G75*
G03X56712Y-33562I-39J0D01*
G74*
G01*
X56712Y-33877D02*
G75*
G03X56712Y-33877I-39J0D01*
G74*
G01*
X56712Y-34192D02*
G75*
G03X56712Y-34192I-39J0D01*
G74*
G01*
X56712Y-34507D02*
G75*
G03X56712Y-34507I-39J0D01*
G74*
G01*
X56712Y-34822D02*
G75*
G03X56712Y-34822I-39J0D01*
G74*
G01*
X56712Y-35137D02*
G75*
G03X56712Y-35137I-39J0D01*
G74*
G01*
X56712Y-41437D02*
G75*
G03X56712Y-41437I-39J0D01*
G74*
G01*
X56712Y-41751D02*
G75*
G03X56712Y-41751I-39J0D01*
G74*
G01*
X56712Y-42066D02*
G75*
G03X56712Y-42066I-39J0D01*
G74*
G01*
X56712Y-42381D02*
G75*
G03X56712Y-42381I-39J0D01*
G74*
G01*
X56712Y-43011D02*
G75*
G03X56712Y-43011I-39J0D01*
G74*
G01*
X56732Y-42696D02*
G75*
G03X56732Y-42696I-39J0D01*
G74*
G01*
X56811Y-32529D02*
G75*
G03X56811Y-32529I-39J0D01*
G74*
G01*
X56814Y-31259D02*
G75*
G03X56814Y-31259I-39J0D01*
G74*
G01*
X56909Y-39124D02*
G75*
G03X56909Y-39124I-39J0D01*
G74*
G01*
X56968Y-32358D02*
G75*
G03X56968Y-32358I-39J0D01*
G74*
G01*
X57019Y-47299D02*
G75*
G03X57019Y-47299I-39J0D01*
G74*
G01*
X57027Y-33248D02*
G75*
G03X57027Y-33248I-39J0D01*
G74*
G01*
X57027Y-33562D02*
G75*
G03X57027Y-33562I-39J0D01*
G74*
G01*
X57027Y-33877D02*
G75*
G03X57027Y-33877I-39J0D01*
G74*
G01*
X57027Y-34507D02*
G75*
G03X57027Y-34507I-39J0D01*
G74*
G01*
X57027Y-34822D02*
G75*
G03X57027Y-34822I-39J0D01*
G74*
G01*
X57027Y-35137D02*
G75*
G03X57027Y-35137I-39J0D01*
G74*
G01*
X57027Y-35452D02*
G75*
G03X57027Y-35452I-39J0D01*
G74*
G01*
X57027Y-35767D02*
G75*
G03X57027Y-35767I-39J0D01*
G74*
G01*
X57027Y-36082D02*
G75*
G03X57027Y-36082I-39J0D01*
G74*
G01*
X57027Y-41751D02*
G75*
G03X57027Y-41751I-39J0D01*
G74*
G01*
X57027Y-42381D02*
G75*
G03X57027Y-42381I-39J0D01*
G74*
G01*
X57027Y-42696D02*
G75*
G03X57027Y-42696I-39J0D01*
G74*
G01*
X57027Y-43011D02*
G75*
G03X57027Y-43011I-39J0D01*
G74*
G01*
X57027Y-43326D02*
G75*
G03X57027Y-43326I-39J0D01*
G74*
G01*
X57043Y-34181D02*
G75*
G03X57043Y-34181I-39J0D01*
G74*
G01*
X57047Y-43917D02*
G75*
G03X57047Y-43917I-39J0D01*
G74*
G01*
X57066Y-39129D02*
G75*
G03X57066Y-39129I-39J0D01*
G74*
G01*
X57066Y-41082D02*
G75*
G03X57066Y-41082I-39J0D01*
G74*
G01*
X57125Y-31287D02*
G75*
G03X57125Y-31287I-39J0D01*
G74*
G01*
X57155Y-32834D02*
G75*
G03X57155Y-32834I-39J0D01*
G74*
G01*
X57204Y-44330D02*
G75*
G03X57204Y-44330I-39J0D01*
G74*
G01*
X57244Y-40078D02*
G75*
G03X57244Y-40078I-39J0D01*
G74*
G01*
X57295Y-31110D02*
G75*
G03X57295Y-31110I-39J0D01*
G74*
G01*
X57342Y-32933D02*
G75*
G03X57342Y-32933I-39J0D01*
G74*
G01*
X57342Y-33248D02*
G75*
G03X57342Y-33248I-39J0D01*
G74*
G01*
X57342Y-33562D02*
G75*
G03X57342Y-33562I-39J0D01*
G74*
G01*
X57342Y-33877D02*
G75*
G03X57342Y-33877I-39J0D01*
G74*
G01*
X57342Y-34192D02*
G75*
G03X57342Y-34192I-39J0D01*
G74*
G01*
X57342Y-34507D02*
G75*
G03X57342Y-34507I-39J0D01*
G74*
G01*
X57342Y-34822D02*
G75*
G03X57342Y-34822I-39J0D01*
G74*
G01*
X57342Y-35137D02*
G75*
G03X57342Y-35137I-39J0D01*
G74*
G01*
X57342Y-35452D02*
G75*
G03X57342Y-35452I-39J0D01*
G74*
G01*
X57342Y-35767D02*
G75*
G03X57342Y-35767I-39J0D01*
G74*
G01*
X57342Y-36082D02*
G75*
G03X57342Y-36082I-39J0D01*
G74*
G01*
X57342Y-40807D02*
G75*
G03X57342Y-40807I-39J0D01*
G74*
G01*
X57342Y-41122D02*
G75*
G03X57342Y-41122I-39J0D01*
G74*
G01*
X57342Y-41437D02*
G75*
G03X57342Y-41437I-39J0D01*
G74*
G01*
X57342Y-41751D02*
G75*
G03X57342Y-41751I-39J0D01*
G74*
G01*
X57342Y-42381D02*
G75*
G03X57342Y-42381I-39J0D01*
G74*
G01*
X57342Y-42696D02*
G75*
G03X57342Y-42696I-39J0D01*
G74*
G01*
X57342Y-43011D02*
G75*
G03X57342Y-43011I-39J0D01*
G74*
G01*
X57342Y-43326D02*
G75*
G03X57342Y-43326I-39J0D01*
G74*
G01*
X57440Y-31283D02*
G75*
G03X57440Y-31283I-39J0D01*
G74*
G01*
X57649Y-40803D02*
G75*
G03X57649Y-40803I-39J0D01*
G74*
G01*
X57657Y-32933D02*
G75*
G03X57657Y-32933I-39J0D01*
G74*
G01*
X57657Y-33248D02*
G75*
G03X57657Y-33248I-39J0D01*
G74*
G01*
X57657Y-33562D02*
G75*
G03X57657Y-33562I-39J0D01*
G74*
G01*
X57657Y-34192D02*
G75*
G03X57657Y-34192I-39J0D01*
G74*
G01*
X57657Y-34507D02*
G75*
G03X57657Y-34507I-39J0D01*
G74*
G01*
X57657Y-34822D02*
G75*
G03X57657Y-34822I-39J0D01*
G74*
G01*
X57657Y-35452D02*
G75*
G03X57657Y-35452I-39J0D01*
G74*
G01*
X57657Y-35767D02*
G75*
G03X57657Y-35767I-39J0D01*
G74*
G01*
X57657Y-41122D02*
G75*
G03X57657Y-41122I-39J0D01*
G74*
G01*
X57657Y-41437D02*
G75*
G03X57657Y-41437I-39J0D01*
G74*
G01*
X57657Y-41751D02*
G75*
G03X57657Y-41751I-39J0D01*
G74*
G01*
X57657Y-42381D02*
G75*
G03X57657Y-42381I-39J0D01*
G74*
G01*
X57657Y-42696D02*
G75*
G03X57657Y-42696I-39J0D01*
G74*
G01*
X57657Y-43326D02*
G75*
G03X57657Y-43326I-39J0D01*
G74*
G01*
X57657Y-43641D02*
G75*
G03X57657Y-43641I-39J0D01*
G74*
G01*
X57665Y-33870D02*
G75*
G03X57665Y-33870I-39J0D01*
G74*
G01*
X57677Y-39381D02*
G75*
G03X57677Y-39381I-39J0D01*
G74*
G01*
X57685Y-40629D02*
G75*
G03X57685Y-40629I-39J0D01*
G74*
G01*
X57696Y-43917D02*
G75*
G03X57696Y-43917I-39J0D01*
G74*
G01*
X57805Y-32805D02*
G75*
G03X57805Y-32805I-39J0D01*
G74*
G01*
X57834Y-40346D02*
G75*
G03X57834Y-40346I-39J0D01*
G74*
G01*
X57897Y-39692D02*
G75*
G03X57897Y-39692I-39J0D01*
G74*
G01*
X57964Y-32500D02*
G75*
G03X57964Y-32500I-39J0D01*
G74*
G01*
X57972Y-32933D02*
G75*
G03X57972Y-32933I-39J0D01*
G74*
G01*
X57972Y-33248D02*
G75*
G03X57972Y-33248I-39J0D01*
G74*
G01*
X57972Y-33562D02*
G75*
G03X57972Y-33562I-39J0D01*
G74*
G01*
X57972Y-33877D02*
G75*
G03X57972Y-33877I-39J0D01*
G74*
G01*
X57972Y-34507D02*
G75*
G03X57972Y-34507I-39J0D01*
G74*
G01*
X57972Y-34822D02*
G75*
G03X57972Y-34822I-39J0D01*
G74*
G01*
X57972Y-35137D02*
G75*
G03X57972Y-35137I-39J0D01*
G74*
G01*
X57972Y-35452D02*
G75*
G03X57972Y-35452I-39J0D01*
G74*
G01*
X57972Y-35767D02*
G75*
G03X57972Y-35767I-39J0D01*
G74*
G01*
X57972Y-41437D02*
G75*
G03X57972Y-41437I-39J0D01*
G74*
G01*
X57972Y-41751D02*
G75*
G03X57972Y-41751I-39J0D01*
G74*
G01*
X57972Y-42381D02*
G75*
G03X57972Y-42381I-39J0D01*
G74*
G01*
X57972Y-42696D02*
G75*
G03X57972Y-42696I-39J0D01*
G74*
G01*
X57972Y-43011D02*
G75*
G03X57972Y-43011I-39J0D01*
G74*
G01*
X57972Y-43307D02*
G75*
G03X57972Y-43307I-39J0D01*
G74*
G01*
X57976Y-34188D02*
G75*
G03X57976Y-34188I-39J0D01*
G74*
G01*
X57976Y-42062D02*
G75*
G03X57976Y-42062I-39J0D01*
G74*
G01*
X57984Y-41114D02*
G75*
G03X57984Y-41114I-39J0D01*
G74*
G01*
X58149Y-46122D02*
G75*
G03X58149Y-46122I-39J0D01*
G74*
G01*
X58149Y-46889D02*
G75*
G03X58149Y-46889I-39J0D01*
G74*
G01*
X58283Y-42685D02*
G75*
G03X58283Y-42685I-39J0D01*
G74*
G01*
X58287Y-33248D02*
G75*
G03X58287Y-33248I-39J0D01*
G74*
G01*
X58287Y-33562D02*
G75*
G03X58287Y-33562I-39J0D01*
G74*
G01*
X58287Y-33877D02*
G75*
G03X58287Y-33877I-39J0D01*
G74*
G01*
X58287Y-34192D02*
G75*
G03X58287Y-34192I-39J0D01*
G74*
G01*
X58287Y-34507D02*
G75*
G03X58287Y-34507I-39J0D01*
G74*
G01*
X58287Y-35423D02*
G75*
G03X58287Y-35423I-39J0D01*
G74*
G01*
X58287Y-35767D02*
G75*
G03X58287Y-35767I-39J0D01*
G74*
G01*
X58287Y-41437D02*
G75*
G03X58287Y-41437I-39J0D01*
G74*
G01*
X58287Y-41751D02*
G75*
G03X58287Y-41751I-39J0D01*
G74*
G01*
X58287Y-42066D02*
G75*
G03X58287Y-42066I-39J0D01*
G74*
G01*
X58287Y-42381D02*
G75*
G03X58287Y-42381I-39J0D01*
G74*
G01*
X58287Y-43011D02*
G75*
G03X58287Y-43011I-39J0D01*
G74*
G01*
X58287Y-43641D02*
G75*
G03X58287Y-43641I-39J0D01*
G74*
G01*
X58297Y-35108D02*
G75*
G03X58297Y-35108I-39J0D01*
G74*
G01*
X58303Y-34818D02*
G75*
G03X58303Y-34818I-39J0D01*
G74*
G01*
X58307Y-41102D02*
G75*
G03X58307Y-41102I-39J0D01*
G74*
G01*
X58307Y-43307D02*
G75*
G03X58307Y-43307I-39J0D01*
G74*
G01*
X58314Y-36051D02*
G75*
G03X58314Y-36051I-39J0D01*
G74*
G01*
X58425Y-32824D02*
G75*
G03X58425Y-32824I-39J0D01*
G74*
G01*
X58464Y-40413D02*
G75*
G03X58464Y-40413I-39J0D01*
G74*
G01*
X58464Y-46122D02*
G75*
G03X58464Y-46122I-39J0D01*
G74*
G01*
X58464Y-46889D02*
G75*
G03X58464Y-46889I-39J0D01*
G74*
G01*
X58602Y-32933D02*
G75*
G03X58602Y-32933I-39J0D01*
G74*
G01*
X58602Y-33248D02*
G75*
G03X58602Y-33248I-39J0D01*
G74*
G01*
X58602Y-33562D02*
G75*
G03X58602Y-33562I-39J0D01*
G74*
G01*
X58602Y-33877D02*
G75*
G03X58602Y-33877I-39J0D01*
G74*
G01*
X58602Y-34192D02*
G75*
G03X58602Y-34192I-39J0D01*
G74*
G01*
X58602Y-34822D02*
G75*
G03X58602Y-34822I-39J0D01*
G74*
G01*
X58602Y-35452D02*
G75*
G03X58602Y-35452I-39J0D01*
G74*
G01*
X58602Y-35767D02*
G75*
G03X58602Y-35767I-39J0D01*
G74*
G01*
X58602Y-41437D02*
G75*
G03X58602Y-41437I-39J0D01*
G74*
G01*
X58602Y-41751D02*
G75*
G03X58602Y-41751I-39J0D01*
G74*
G01*
X58602Y-42066D02*
G75*
G03X58602Y-42066I-39J0D01*
G74*
G01*
X58602Y-42696D02*
G75*
G03X58602Y-42696I-39J0D01*
G74*
G01*
X58602Y-43326D02*
G75*
G03X58602Y-43326I-39J0D01*
G74*
G01*
X58602Y-43641D02*
G75*
G03X58602Y-43641I-39J0D01*
G74*
G01*
X58614Y-34503D02*
G75*
G03X58614Y-34503I-39J0D01*
G74*
G01*
X58622Y-40944D02*
G75*
G03X58622Y-40944I-39J0D01*
G74*
G01*
X58622Y-42362D02*
G75*
G03X58622Y-42362I-39J0D01*
G74*
G01*
X58661Y-47952D02*
G75*
G03X58661Y-47952I-39J0D01*
G74*
G01*
X58751Y-39381D02*
G75*
G03X58751Y-39381I-39J0D01*
G74*
G01*
X58759Y-32814D02*
G75*
G03X58759Y-32814I-39J0D01*
G74*
G01*
X58779Y-46122D02*
G75*
G03X58779Y-46122I-39J0D01*
G74*
G01*
X58779Y-46889D02*
G75*
G03X58779Y-46889I-39J0D01*
G74*
G01*
X58818Y-40413D02*
G75*
G03X58818Y-40413I-39J0D01*
G74*
G01*
X58868Y-36417D02*
G75*
G03X58868Y-36417I-39J0D01*
G74*
G01*
X58917Y-32933D02*
G75*
G03X58917Y-32933I-39J0D01*
G74*
G01*
X58917Y-33248D02*
G75*
G03X58917Y-33248I-39J0D01*
G74*
G01*
X58917Y-33562D02*
G75*
G03X58917Y-33562I-39J0D01*
G74*
G01*
X58917Y-33877D02*
G75*
G03X58917Y-33877I-39J0D01*
G74*
G01*
X58917Y-34192D02*
G75*
G03X58917Y-34192I-39J0D01*
G74*
G01*
X58917Y-34507D02*
G75*
G03X58917Y-34507I-39J0D01*
G74*
G01*
X58917Y-34822D02*
G75*
G03X58917Y-34822I-39J0D01*
G74*
G01*
X58917Y-35452D02*
G75*
G03X58917Y-35452I-39J0D01*
G74*
G01*
X58917Y-35767D02*
G75*
G03X58917Y-35767I-39J0D01*
G74*
G01*
X58917Y-36082D02*
G75*
G03X58917Y-36082I-39J0D01*
G74*
G01*
X58917Y-41122D02*
G75*
G03X58917Y-41122I-39J0D01*
G74*
G01*
X58917Y-41437D02*
G75*
G03X58917Y-41437I-39J0D01*
G74*
G01*
X58917Y-41751D02*
G75*
G03X58917Y-41751I-39J0D01*
G74*
G01*
X58917Y-42066D02*
G75*
G03X58917Y-42066I-39J0D01*
G74*
G01*
X58917Y-42381D02*
G75*
G03X58917Y-42381I-39J0D01*
G74*
G01*
X58917Y-42696D02*
G75*
G03X58917Y-42696I-39J0D01*
G74*
G01*
X58917Y-43326D02*
G75*
G03X58917Y-43326I-39J0D01*
G74*
G01*
X58917Y-43641D02*
G75*
G03X58917Y-43641I-39J0D01*
G74*
G01*
X58917Y-43956D02*
G75*
G03X58917Y-43956I-39J0D01*
G74*
G01*
X58937Y-42992D02*
G75*
G03X58937Y-42992I-39J0D01*
G74*
G01*
X58966Y-36584D02*
G75*
G03X58966Y-36584I-39J0D01*
G74*
G01*
X59133Y-44940D02*
G75*
G03X59133Y-44940I-39J0D01*
G74*
G01*
X59165Y-32114D02*
G75*
G03X59165Y-32114I-39J0D01*
G74*
G01*
X59232Y-32933D02*
G75*
G03X59232Y-32933I-39J0D01*
G74*
G01*
X59232Y-33248D02*
G75*
G03X59232Y-33248I-39J0D01*
G74*
G01*
X59232Y-33562D02*
G75*
G03X59232Y-33562I-39J0D01*
G74*
G01*
X59232Y-33877D02*
G75*
G03X59232Y-33877I-39J0D01*
G74*
G01*
X59232Y-34192D02*
G75*
G03X59232Y-34192I-39J0D01*
G74*
G01*
X59232Y-34507D02*
G75*
G03X59232Y-34507I-39J0D01*
G74*
G01*
X59232Y-34822D02*
G75*
G03X59232Y-34822I-39J0D01*
G74*
G01*
X59232Y-35452D02*
G75*
G03X59232Y-35452I-39J0D01*
G74*
G01*
X59232Y-35767D02*
G75*
G03X59232Y-35767I-39J0D01*
G74*
G01*
X59232Y-41122D02*
G75*
G03X59232Y-41122I-39J0D01*
G74*
G01*
X59232Y-41437D02*
G75*
G03X59232Y-41437I-39J0D01*
G74*
G01*
X59232Y-43326D02*
G75*
G03X59232Y-43326I-39J0D01*
G74*
G01*
X59261Y-36102D02*
G75*
G03X59261Y-36102I-39J0D01*
G74*
G01*
X59271Y-42204D02*
G75*
G03X59271Y-42204I-39J0D01*
G74*
G01*
X59271Y-43779D02*
G75*
G03X59271Y-43779I-39J0D01*
G74*
G01*
X59291Y-41889D02*
G75*
G03X59291Y-41889I-39J0D01*
G74*
G01*
X59291Y-42519D02*
G75*
G03X59291Y-42519I-39J0D01*
G74*
G01*
X59291Y-45905D02*
G75*
G03X59291Y-45905I-39J0D01*
G74*
G01*
X59311Y-44744D02*
G75*
G03X59311Y-44744I-39J0D01*
G74*
G01*
X59320Y-35935D02*
G75*
G03X59320Y-35935I-39J0D01*
G74*
G01*
X59322Y-34681D02*
G75*
G03X59322Y-34681I-39J0D01*
G74*
G01*
X59350Y-44094D02*
G75*
G03X59350Y-44094I-39J0D01*
G74*
G01*
X59374Y-33417D02*
G75*
G03X59374Y-33417I-39J0D01*
G74*
G01*
X59417Y-40267D02*
G75*
G03X59417Y-40267I-39J0D01*
G74*
G01*
X59507Y-34188D02*
G75*
G03X59507Y-34188I-39J0D01*
G74*
G01*
X59586Y-36161D02*
G75*
G03X59586Y-36161I-39J0D01*
G74*
G01*
X59655Y-35551D02*
G75*
G03X59655Y-35551I-39J0D01*
G74*
G01*
X59704Y-41523D02*
G75*
G03X59704Y-41523I-39J0D01*
G74*
G01*
X59724Y-41685D02*
G75*
G03X59724Y-41685I-39J0D01*
G74*
G01*
X59724Y-43090D02*
G75*
G03X59724Y-43090I-39J0D01*
G74*
G01*
X59751Y-35409D02*
G75*
G03X59751Y-35409I-39J0D01*
G74*
G01*
X59763Y-34208D02*
G75*
G03X59763Y-34208I-39J0D01*
G74*
G01*
X59799Y-42196D02*
G75*
G03X59799Y-42196I-39J0D01*
G74*
G01*
X59803Y-36633D02*
G75*
G03X59803Y-36633I-39J0D01*
G74*
G01*
X59940Y-36263D02*
G75*
G03X59940Y-36263I-39J0D01*
G74*
G01*
X59956Y-30133D02*
G75*
G03X59956Y-30133I-39J0D01*
G74*
G01*
X59980Y-49842D02*
G75*
G03X59980Y-49842I-39J0D01*
G74*
G01*
X60078Y-45275D02*
G75*
G03X60078Y-45275I-39J0D01*
G74*
G01*
X60177Y-49370D02*
G75*
G03X60177Y-49370I-39J0D01*
G74*
G01*
X60200Y-31885D02*
G75*
G03X60200Y-31885I-39J0D01*
G74*
G01*
X60251Y-32165D02*
G75*
G03X60251Y-32165I-39J0D01*
G74*
G01*
X60291Y-33885D02*
G75*
G03X60291Y-33885I-39J0D01*
G74*
G01*
X60334Y-42342D02*
G75*
G03X60334Y-42342I-39J0D01*
G74*
G01*
X60334Y-43267D02*
G75*
G03X60334Y-43267I-39J0D01*
G74*
G01*
X60334Y-48444D02*
G75*
G03X60334Y-48444I-39J0D01*
G74*
G01*
X60456Y-33736D02*
G75*
G03X60456Y-33736I-39J0D01*
G74*
G01*
X60472Y-34350D02*
G75*
G03X60472Y-34350I-39J0D01*
G74*
G01*
X60492Y-32468D02*
G75*
G03X60492Y-32468I-39J0D01*
G74*
G01*
X60771Y-32216D02*
G75*
G03X60771Y-32216I-39J0D01*
G74*
G01*
X60814Y-32472D02*
G75*
G03X60814Y-32472I-39J0D01*
G74*
G01*
X60984Y-35874D02*
G75*
G03X60984Y-35874I-39J0D01*
G74*
G01*
X61023Y-35157D02*
G75*
G03X61023Y-35157I-39J0D01*
G74*
G01*
X61023Y-35551D02*
G75*
G03X61023Y-35551I-39J0D01*
G74*
G01*
X61023Y-36574D02*
G75*
G03X61023Y-36574I-39J0D01*
G74*
G01*
X61023Y-36811D02*
G75*
G03X61023Y-36811I-39J0D01*
G74*
G01*
X61062Y-48385D02*
G75*
G03X61062Y-48385I-39J0D01*
G74*
G01*
X61062Y-49291D02*
G75*
G03X61062Y-49291I-39J0D01*
G74*
G01*
X61279Y-35905D02*
G75*
G03X61279Y-35905I-39J0D01*
G74*
G01*
X61295Y-35531D02*
G75*
G03X61295Y-35531I-39J0D01*
G74*
G01*
X61413Y-35696D02*
G75*
G03X61413Y-35696I-39J0D01*
G74*
G01*
X61421Y-35342D02*
G75*
G03X61421Y-35342I-39J0D01*
G74*
G01*
X61641Y-36070D02*
G75*
G03X61641Y-36070I-39J0D01*
G74*
G01*
X61641Y-37314D02*
G75*
G03X61641Y-37314I-39J0D01*
G74*
G01*
X62106Y-48927D02*
G75*
G03X62106Y-48927I-39J0D01*
G74*
G01*
X62106Y-49842D02*
G75*
G03X62106Y-49842I-39J0D01*
G74*
G01*
X62161Y-37677D02*
G75*
G03X62161Y-37677I-39J0D01*
G74*
G01*
X62291Y-36000D02*
G75*
G03X62291Y-36000I-39J0D01*
G74*
G01*
X62303Y-37854D02*
G75*
G03X62303Y-37854I-39J0D01*
G74*
G01*
X62460Y-38021D02*
G75*
G03X62460Y-38021I-39J0D01*
G74*
G01*
X62470Y-33228D02*
G75*
G03X62470Y-33228I-39J0D01*
G74*
G01*
X62618Y-35161D02*
G75*
G03X62618Y-35161I-39J0D01*
G74*
G01*
X62645Y-38185D02*
G75*
G03X62645Y-38185I-39J0D01*
G74*
G01*
X62929Y-38437D02*
G75*
G03X62929Y-38437I-39J0D01*
G74*
G01*
X62972Y-33228D02*
G75*
G03X62972Y-33228I-39J0D01*
G74*
G01*
X63129Y-33767D02*
G75*
G03X63129Y-33767I-39J0D01*
G74*
G01*
X63137Y-38633D02*
G75*
G03X63137Y-38633I-39J0D01*
G74*
G01*
X63149Y-47283D02*
G75*
G03X63149Y-47283I-39J0D01*
G74*
G01*
X63204Y-38830D02*
G75*
G03X63204Y-38830I-39J0D01*
G74*
G01*
X63218Y-43080D02*
G75*
G03X63218Y-43080I-39J0D01*
G74*
G01*
X63220Y-42826D02*
G75*
G03X63220Y-42826I-39J0D01*
G74*
G01*
X63224Y-42047D02*
G75*
G03X63224Y-42047I-39J0D01*
G74*
G01*
X63228Y-39035D02*
G75*
G03X63228Y-39035I-39J0D01*
G74*
G01*
X63251Y-42610D02*
G75*
G03X63251Y-42610I-39J0D01*
G74*
G01*
X63311Y-41275D02*
G75*
G03X63311Y-41275I-39J0D01*
G74*
G01*
X63326Y-41677D02*
G75*
G03X63326Y-41677I-39J0D01*
G74*
G01*
X63405Y-48602D02*
G75*
G03X63405Y-48602I-39J0D01*
G74*
G01*
X63417Y-33992D02*
G75*
G03X63417Y-33992I-39J0D01*
G74*
G01*
X63452Y-43685D02*
G75*
G03X63452Y-43685I-39J0D01*
G74*
G01*
X63562Y-49803D02*
G75*
G03X63562Y-49803I-39J0D01*
G74*
G01*
X63582Y-40492D02*
G75*
G03X63582Y-40492I-39J0D01*
G74*
G01*
X63582Y-40759D02*
G75*
G03X63582Y-40759I-39J0D01*
G74*
G01*
X63582Y-42988D02*
G75*
G03X63582Y-42988I-39J0D01*
G74*
G01*
X63748Y-43452D02*
G75*
G03X63748Y-43452I-39J0D01*
G74*
G01*
X63897Y-50629D02*
G75*
G03X63897Y-50629I-39J0D01*
G74*
G01*
X64212Y-49645D02*
G75*
G03X64212Y-49645I-39J0D01*
G74*
G01*
X64251Y-36801D02*
G75*
G03X64251Y-36801I-39J0D01*
G74*
G01*
X64251Y-37194D02*
G75*
G03X64251Y-37194I-39J0D01*
G74*
G01*
X64251Y-37588D02*
G75*
G03X64251Y-37588I-39J0D01*
G74*
G01*
X64566Y-48405D02*
G75*
G03X64566Y-48405I-39J0D01*
G74*
G01*
X64744Y-42549D02*
G75*
G03X64744Y-42549I-39J0D01*
G74*
G01*
X64753Y-34822D02*
G75*
G03X64753Y-34822I-39J0D01*
G74*
G01*
X64901Y-49370D02*
G75*
G03X64901Y-49370I-39J0D01*
G74*
G01*
X64990Y-50659D02*
G75*
G03X64990Y-50659I-39J0D01*
G74*
G01*
X65246Y-34832D02*
G75*
G03X65246Y-34832I-39J0D01*
G74*
G01*
X65246Y-42578D02*
G75*
G03X65246Y-42578I-39J0D01*
G74*
G01*
X65744Y-35562D02*
G75*
G03X65744Y-35562I-39J0D01*
G74*
G01*
X65748Y-39852D02*
G75*
G03X65748Y-39852I-39J0D01*
G74*
G01*
X65748Y-40226D02*
G75*
G03X65748Y-40226I-39J0D01*
G74*
G01*
X65748Y-40580D02*
G75*
G03X65748Y-40580I-39J0D01*
G74*
G01*
X44921Y-44389D02*
X44921Y-44507D01*
X44862Y-44448D02*
X44980Y-44448D01*
X44921Y-44606D02*
X44921Y-44724D01*
X44862Y-44665D02*
X44980Y-44665D01*
X44921Y-44842D02*
X44921Y-44960D01*
X44862Y-44901D02*
X44980Y-44901D01*
X44921Y-45059D02*
X44921Y-45177D01*
X44862Y-45118D02*
X44980Y-45118D01*
X45137Y-44389D02*
X45137Y-44507D01*
X45078Y-44448D02*
X45196Y-44448D01*
X45137Y-44606D02*
X45137Y-44724D01*
X45078Y-44665D02*
X45196Y-44665D01*
X45137Y-44842D02*
X45137Y-44960D01*
X45078Y-44901D02*
X45196Y-44901D01*
X45137Y-45059D02*
X45137Y-45177D01*
X45078Y-45118D02*
X45196Y-45118D01*
X45374Y-44389D02*
X45374Y-44507D01*
X45314Y-44448D02*
X45433Y-44448D01*
X45374Y-44606D02*
X45374Y-44724D01*
X45314Y-44665D02*
X45433Y-44665D01*
X45374Y-44842D02*
X45374Y-44960D01*
X45314Y-44901D02*
X45433Y-44901D01*
X45374Y-45059D02*
X45374Y-45177D01*
X45314Y-45118D02*
X45433Y-45118D01*
X45590Y-44389D02*
X45590Y-44507D01*
X45531Y-44448D02*
X45649Y-44448D01*
X45590Y-44606D02*
X45590Y-44724D01*
X45531Y-44665D02*
X45649Y-44665D01*
X45590Y-44842D02*
X45590Y-44960D01*
X45531Y-44901D02*
X45649Y-44901D01*
X45590Y-45059D02*
X45590Y-45177D01*
X45531Y-45118D02*
X45649Y-45118D01*
X45704Y-36629D02*
X45704Y-36748D01*
X45645Y-36688D02*
X45763Y-36688D01*
X45811Y-42838D02*
X45811Y-42956D01*
X45751Y-42897D02*
X45870Y-42897D01*
X46043Y-43696D02*
X46043Y-43814D01*
X45984Y-43755D02*
X46102Y-43755D01*
X47066Y-42964D02*
X47066Y-43082D01*
X47007Y-43023D02*
X47125Y-43023D01*
X49106Y-44051D02*
X49106Y-44169D01*
X49047Y-44110D02*
X49165Y-44110D01*
X51220Y-32555D02*
X51220Y-32673D01*
X51161Y-32614D02*
X51279Y-32614D01*
X54618Y-42094D02*
X54618Y-42212D01*
X54559Y-42153D02*
X54677Y-42153D01*
X55082Y-49944D02*
X55082Y-50062D01*
X55023Y-50003D02*
X55141Y-50003D01*
X55157Y-44106D02*
X55157Y-44224D01*
X55098Y-44165D02*
X55216Y-44165D01*
X55507Y-47811D02*
X55507Y-47929D01*
X55448Y-47870D02*
X55566Y-47870D01*
X55874Y-48141D02*
X55874Y-48259D01*
X55814Y-48200D02*
X55933Y-48200D01*
X55921Y-49240D02*
X55921Y-49358D01*
X55862Y-49299D02*
X55980Y-49299D01*
X55925Y-48885D02*
X55925Y-49003D01*
X55866Y-48944D02*
X55984Y-48944D01*
X56185Y-48889D02*
X56185Y-49007D01*
X56125Y-48948D02*
X56244Y-48948D01*
X56208Y-49240D02*
X56208Y-49358D01*
X56149Y-49299D02*
X56267Y-49299D01*
X56358Y-49952D02*
X56358Y-50070D01*
X56299Y-50011D02*
X56417Y-50011D01*
X56476Y-49242D02*
X56476Y-49360D01*
X56417Y-49301D02*
X56535Y-49301D01*
X56480Y-48877D02*
X56480Y-48996D01*
X56421Y-48937D02*
X56539Y-48937D01*
X56763Y-49232D02*
X56763Y-49350D01*
X56704Y-49291D02*
X56822Y-49291D01*
X56779Y-48866D02*
X56779Y-48984D01*
X56720Y-48925D02*
X56838Y-48925D01*
X57716Y-31216D02*
X57716Y-31334D01*
X57657Y-31275D02*
X57775Y-31275D01*
X57763Y-47377D02*
X57763Y-47496D01*
X57704Y-47437D02*
X57822Y-47437D01*
X58295Y-47381D02*
X58295Y-47500D01*
X58236Y-47440D02*
X58354Y-47440D01*
X58850Y-47381D02*
X58850Y-47500D01*
X58791Y-47440D02*
X58909Y-47440D01*
X59248Y-31488D02*
X59248Y-31606D01*
X59188Y-31547D02*
X59307Y-31547D01*
X49774Y-50492D02*
X49774Y-50353D01*
X49635Y-50353D01*
X49635Y-50492D01*
X49774Y-50492D01*
X49763Y-50521D02*
X49763Y-50324D01*
X49645Y-50521D02*
X49645Y-50324D01*
X49763Y-50324D02*
G75*
G03X49645Y-50324I-59J0D01*
G74*
G01*
X49645Y-50521D02*
G75*
G03X49763Y-50521I59J0D01*
G74*
G01*
X54715Y-50492D02*
X54715Y-50353D01*
X54576Y-50353D01*
X54576Y-50492D01*
X54715Y-50492D01*
X54704Y-50521D02*
X54704Y-50324D01*
X54586Y-50521D02*
X54586Y-50324D01*
X54704Y-50324D02*
G75*
G03X54586Y-50324I-59J0D01*
G74*
G01*
X54586Y-50521D02*
G75*
G03X54704Y-50521I59J0D01*
G74*
G01*
X58081Y-50492D02*
X58081Y-50353D01*
X57942Y-50353D01*
X57942Y-50492D01*
X58081Y-50492D01*
X58070Y-50521D02*
X58070Y-50324D01*
X57952Y-50521D02*
X57952Y-50324D01*
X58070Y-50324D02*
G75*
G03X57952Y-50324I-59J0D01*
G74*
G01*
X57952Y-50521D02*
G75*
G03X58070Y-50521I59J0D01*
G74*
G01*
X63022Y-50492D02*
X63022Y-50353D01*
X62883Y-50353D01*
X62883Y-50492D01*
X63022Y-50492D01*
X63011Y-50521D02*
X63011Y-50324D01*
X62893Y-50521D02*
X62893Y-50324D01*
X63011Y-50324D02*
G75*
G03X62893Y-50324I-59J0D01*
G74*
G01*
X62893Y-50521D02*
G75*
G03X63011Y-50521I59J0D01*
G74*
G01*
X46889Y-34393D02*
X47086Y-34196D01*
X46889Y-34000D01*
X46692Y-34196D01*
X46889Y-34393D01*
X46889Y-35393D02*
X47086Y-35196D01*
X46889Y-35000D01*
X46692Y-35196D01*
X46889Y-35393D01*
X46889Y-36393D02*
X47086Y-36196D01*
X46889Y-36000D01*
X46692Y-36196D01*
X46889Y-36393D01*
X44071Y-33433D02*
X44471Y-33833D01*
X44471Y-33433D02*
X44071Y-33833D01*
X44471Y-33633D02*
G75*
G03X44471Y-33633I-200J0D01*
G74*
G01*
X44071Y-34504D02*
X44471Y-34904D01*
X44471Y-34504D02*
X44071Y-34904D01*
X44471Y-34704D02*
G75*
G03X44471Y-34704I-200J0D01*
G74*
G01*
X44071Y-35488D02*
X44471Y-35888D01*
X44471Y-35488D02*
X44071Y-35888D01*
X44471Y-35688D02*
G75*
G03X44471Y-35688I-200J0D01*
G74*
G01*
X44071Y-36488D02*
X44471Y-36888D01*
X44471Y-36488D02*
X44071Y-36888D01*
X44471Y-36688D02*
G75*
G03X44471Y-36688I-200J0D01*
G74*
G01*
X45055Y-33433D02*
X45455Y-33833D01*
X45455Y-33433D02*
X45055Y-33833D01*
X45455Y-33633D02*
G75*
G03X45455Y-33633I-200J0D01*
G74*
G01*
X45055Y-34504D02*
X45455Y-34904D01*
X45455Y-34504D02*
X45055Y-34904D01*
X45455Y-34704D02*
G75*
G03X45455Y-34704I-200J0D01*
G74*
G01*
X45055Y-35488D02*
X45455Y-35888D01*
X45455Y-35488D02*
X45055Y-35888D01*
X45455Y-35688D02*
G75*
G03X45455Y-35688I-200J0D01*
G74*
G01*
X45055Y-36488D02*
X45455Y-36888D01*
X45455Y-36488D02*
X45055Y-36888D01*
X45455Y-36688D02*
G75*
G03X45455Y-36688I-200J0D01*
G74*
G01*
X52237Y-28118D02*
X52637Y-28518D01*
X52637Y-28118D02*
X52237Y-28518D01*
X52637Y-28318D02*
G75*
G03X52637Y-28318I-200J0D01*
G74*
G01*
X52237Y-29118D02*
X52637Y-29518D01*
X52637Y-29118D02*
X52237Y-29518D01*
X52637Y-29318D02*
G75*
G03X52637Y-29318I-200J0D01*
G74*
G01*
X53237Y-28118D02*
X53637Y-28518D01*
X53637Y-28118D02*
X53237Y-28518D01*
X53637Y-28318D02*
G75*
G03X53637Y-28318I-200J0D01*
G74*
G01*
X53237Y-29118D02*
X53637Y-29518D01*
X53637Y-29118D02*
X53237Y-29518D01*
X53637Y-29318D02*
G75*
G03X53637Y-29318I-200J0D01*
G74*
G01*
X54237Y-28118D02*
X54637Y-28518D01*
X54637Y-28118D02*
X54237Y-28518D01*
X54637Y-28318D02*
G75*
G03X54637Y-28318I-200J0D01*
G74*
G01*
X54237Y-29118D02*
X54637Y-29518D01*
X54637Y-29118D02*
X54237Y-29518D01*
X54637Y-29318D02*
G75*
G03X54637Y-29318I-200J0D01*
G74*
G01*
X55166Y-28118D02*
X55566Y-28518D01*
X55566Y-28118D02*
X55166Y-28518D01*
X55566Y-28318D02*
G75*
G03X55566Y-28318I-200J0D01*
G74*
G01*
X55166Y-29118D02*
X55566Y-29518D01*
X55566Y-29118D02*
X55166Y-29518D01*
X55566Y-29318D02*
G75*
G03X55566Y-29318I-200J0D01*
G74*
G01*
X56229Y-28118D02*
X56629Y-28518D01*
X56629Y-28118D02*
X56229Y-28518D01*
X56629Y-28318D02*
G75*
G03X56629Y-28318I-200J0D01*
G74*
G01*
X56229Y-29118D02*
X56629Y-29518D01*
X56629Y-29118D02*
X56229Y-29518D01*
X56629Y-29318D02*
G75*
G03X56629Y-29318I-200J0D01*
G74*
G01*
X57229Y-28118D02*
X57629Y-28518D01*
X57629Y-28118D02*
X57229Y-28518D01*
X57629Y-28318D02*
G75*
G03X57629Y-28318I-200J0D01*
G74*
G01*
X57229Y-29118D02*
X57629Y-29518D01*
X57629Y-29118D02*
X57229Y-29518D01*
X57629Y-29318D02*
G75*
G03X57629Y-29318I-200J0D01*
G74*
G01*
X58221Y-28118D02*
X58621Y-28518D01*
X58621Y-28118D02*
X58221Y-28518D01*
X58621Y-28318D02*
G75*
G03X58621Y-28318I-200J0D01*
G74*
G01*
X58221Y-29118D02*
X58621Y-29518D01*
X58621Y-29118D02*
X58221Y-29518D01*
X58621Y-29318D02*
G75*
G03X58621Y-29318I-200J0D01*
G74*
G01*
X59221Y-28118D02*
X59621Y-28518D01*
X59621Y-28118D02*
X59221Y-28518D01*
X59621Y-28318D02*
G75*
G03X59621Y-28318I-200J0D01*
G74*
G01*
X59221Y-29118D02*
X59621Y-29518D01*
X59621Y-29118D02*
X59221Y-29518D01*
X59621Y-29318D02*
G75*
G03X59621Y-29318I-200J0D01*
G74*
G01*
X60221Y-28118D02*
X60621Y-28518D01*
X60621Y-28118D02*
X60221Y-28518D01*
X60621Y-28318D02*
G75*
G03X60621Y-28318I-200J0D01*
G74*
G01*
X60221Y-29118D02*
X60621Y-29518D01*
X60621Y-29118D02*
X60221Y-29518D01*
X60621Y-29318D02*
G75*
G03X60621Y-29318I-200J0D01*
G74*
G01*
X61221Y-28118D02*
X61621Y-28518D01*
X61621Y-28118D02*
X61221Y-28518D01*
X61621Y-28318D02*
G75*
G03X61621Y-28318I-200J0D01*
G74*
G01*
X61221Y-29118D02*
X61621Y-29518D01*
X61621Y-29118D02*
X61221Y-29518D01*
X61621Y-29318D02*
G75*
G03X61621Y-29318I-200J0D01*
G74*
G01*
X64260Y-44288D02*
X64660Y-44688D01*
X64660Y-44288D02*
X64260Y-44688D01*
X64660Y-44488D02*
G75*
G03X64660Y-44488I-200J0D01*
G74*
G01*
X64261Y-32674D02*
X64661Y-33074D01*
X64661Y-32674D02*
X64261Y-33074D01*
X64661Y-32874D02*
G75*
G03X64661Y-32874I-200J0D01*
G74*
G01*
X65259Y-44288D02*
X65659Y-44688D01*
X65659Y-44288D02*
X65259Y-44688D01*
X65659Y-44488D02*
G75*
G03X65659Y-44488I-200J0D01*
G74*
G01*
X65260Y-32674D02*
X65660Y-33074D01*
X65660Y-32674D02*
X65260Y-33074D01*
X65660Y-32874D02*
G75*
G03X65660Y-32874I-200J0D01*
G74*
G01*
X49390Y-33390D02*
X49822Y-33822D01*
X49822Y-33390D02*
X49390Y-33822D01*
X49606Y-33390D02*
X49606Y-33822D01*
X49390Y-33606D02*
X49822Y-33606D01*
X49390Y-43784D02*
X49822Y-44216D01*
X49822Y-43784D02*
X49390Y-44216D01*
X49606Y-43784D02*
X49606Y-44216D01*
X49390Y-44000D02*
X49822Y-44000D01*
X49173Y-30141D02*
X50433Y-31401D01*
X50433Y-30141D02*
X49173Y-31401D01*
X50248Y-31217D02*
X50248Y-30326D01*
X49357Y-30326D01*
X49357Y-31217D01*
X50248Y-31217D01*
X49173Y-45893D02*
X50433Y-47153D01*
X50433Y-45893D02*
X49173Y-47153D01*
X50248Y-46969D02*
X50248Y-46078D01*
X49357Y-46078D01*
X49357Y-46969D01*
X50248Y-46969D01*
X64212Y-30141D02*
X65472Y-31401D01*
X65472Y-30141D02*
X64212Y-31401D01*
X65288Y-31217D02*
X65288Y-30326D01*
X64397Y-30326D01*
X64397Y-31217D01*
X65288Y-31217D01*
X64212Y-45893D02*
X65472Y-47153D01*
X65472Y-45893D02*
X64212Y-47153D01*
X65288Y-46969D02*
X65288Y-46078D01*
X64397Y-46078D01*
X64397Y-46969D01*
X65288Y-46969D01*
G54D12*
X44336Y-53053D02*
X44336Y-51872D01*
X44617Y-51872D01*
X44786Y-51929D01*
X44898Y-52041D01*
X44955Y-52154D01*
X45011Y-52379D01*
X45011Y-52547D01*
X44955Y-52772D01*
X44898Y-52885D01*
X44786Y-52997D01*
X44617Y-53053D01*
X44336Y-53053D01*
X45517Y-53053D02*
X45517Y-52266D01*
X45517Y-52491D02*
X45573Y-52379D01*
X45629Y-52322D01*
X45742Y-52266D01*
X45854Y-52266D01*
X46248Y-53053D02*
X46248Y-52266D01*
X46248Y-51872D02*
X46192Y-51929D01*
X46248Y-51985D01*
X46304Y-51929D01*
X46248Y-51872D01*
X46248Y-51985D01*
X46979Y-53053D02*
X46867Y-52997D01*
X46811Y-52885D01*
X46811Y-51872D01*
X47598Y-53053D02*
X47485Y-52997D01*
X47429Y-52885D01*
X47429Y-51872D01*
X48948Y-53053D02*
X48948Y-51872D01*
X49341Y-52716D01*
X49735Y-51872D01*
X49735Y-53053D01*
X50804Y-53053D02*
X50804Y-52435D01*
X50748Y-52322D01*
X50635Y-52266D01*
X50410Y-52266D01*
X50298Y-52322D01*
X50804Y-52997D02*
X50691Y-53053D01*
X50410Y-53053D01*
X50298Y-52997D01*
X50241Y-52885D01*
X50241Y-52772D01*
X50298Y-52660D01*
X50410Y-52604D01*
X50691Y-52604D01*
X50804Y-52547D01*
X51366Y-52266D02*
X51366Y-53447D01*
X51366Y-52322D02*
X51479Y-52266D01*
X51704Y-52266D01*
X51816Y-52322D01*
X51872Y-52379D01*
X51929Y-52491D01*
X51929Y-52829D01*
X51872Y-52941D01*
X51816Y-52997D01*
X51704Y-53053D01*
X51479Y-53053D01*
X51366Y-52997D01*
X52435Y-52941D02*
X52491Y-52997D01*
X52435Y-53053D01*
X52379Y-52997D01*
X52435Y-52941D01*
X52435Y-53053D01*
X52435Y-52322D02*
X52491Y-52379D01*
X52435Y-52435D01*
X52379Y-52379D01*
X52435Y-52322D01*
X52435Y-52435D01*
X43190Y-54961D02*
X43267Y-55038D01*
X43267Y-54961D02*
X43190Y-55038D01*
X44561Y-54353D02*
X44673Y-54353D01*
X44786Y-54409D01*
X44842Y-54465D01*
X44898Y-54578D01*
X44955Y-54803D01*
X44955Y-55084D01*
X44898Y-55309D01*
X44842Y-55421D01*
X44786Y-55478D01*
X44673Y-55534D01*
X44561Y-55534D01*
X44448Y-55478D01*
X44392Y-55421D01*
X44336Y-55309D01*
X44280Y-55084D01*
X44280Y-54803D01*
X44336Y-54578D01*
X44392Y-54465D01*
X44448Y-54409D01*
X44561Y-54353D01*
X45461Y-55421D02*
X45517Y-55478D01*
X45461Y-55534D01*
X45404Y-55478D01*
X45461Y-55421D01*
X45461Y-55534D01*
X45967Y-54465D02*
X46023Y-54409D01*
X46136Y-54353D01*
X46417Y-54353D01*
X46529Y-54409D01*
X46586Y-54465D01*
X46642Y-54578D01*
X46642Y-54690D01*
X46586Y-54859D01*
X45911Y-55534D01*
X46642Y-55534D01*
X47373Y-54353D02*
X47485Y-54353D01*
X47598Y-54409D01*
X47654Y-54465D01*
X47710Y-54578D01*
X47767Y-54803D01*
X47767Y-55084D01*
X47710Y-55309D01*
X47654Y-55421D01*
X47598Y-55478D01*
X47485Y-55534D01*
X47373Y-55534D01*
X47260Y-55478D01*
X47204Y-55421D01*
X47148Y-55309D01*
X47092Y-55084D01*
X47092Y-54803D01*
X47148Y-54578D01*
X47204Y-54465D01*
X47260Y-54409D01*
X47373Y-54353D01*
X48273Y-55534D02*
X48273Y-54746D01*
X48273Y-54859D02*
X48329Y-54803D01*
X48442Y-54746D01*
X48610Y-54746D01*
X48723Y-54803D01*
X48779Y-54915D01*
X48779Y-55534D01*
X48779Y-54915D02*
X48835Y-54803D01*
X48948Y-54746D01*
X49116Y-54746D01*
X49229Y-54803D01*
X49285Y-54915D01*
X49285Y-55534D01*
X49848Y-55534D02*
X49848Y-54746D01*
X49848Y-54859D02*
X49904Y-54803D01*
X50016Y-54746D01*
X50185Y-54746D01*
X50298Y-54803D01*
X50354Y-54915D01*
X50354Y-55534D01*
X50354Y-54915D02*
X50410Y-54803D01*
X50523Y-54746D01*
X50691Y-54746D01*
X50804Y-54803D01*
X50860Y-54915D01*
X50860Y-55534D01*
X53166Y-54296D02*
X52154Y-55815D01*
X54685Y-54353D02*
X54797Y-54353D01*
X54910Y-54409D01*
X54966Y-54465D01*
X55022Y-54578D01*
X55078Y-54803D01*
X55078Y-55084D01*
X55022Y-55309D01*
X54966Y-55421D01*
X54910Y-55478D01*
X54797Y-55534D01*
X54685Y-55534D01*
X54572Y-55478D01*
X54516Y-55421D01*
X54460Y-55309D01*
X54403Y-55084D01*
X54403Y-54803D01*
X54460Y-54578D01*
X54516Y-54465D01*
X54572Y-54409D01*
X54685Y-54353D01*
X55584Y-55421D02*
X55641Y-55478D01*
X55584Y-55534D01*
X55528Y-55478D01*
X55584Y-55421D01*
X55584Y-55534D01*
X56372Y-54353D02*
X56484Y-54353D01*
X56597Y-54409D01*
X56653Y-54465D01*
X56709Y-54578D01*
X56766Y-54803D01*
X56766Y-55084D01*
X56709Y-55309D01*
X56653Y-55421D01*
X56597Y-55478D01*
X56484Y-55534D01*
X56372Y-55534D01*
X56259Y-55478D01*
X56203Y-55421D01*
X56147Y-55309D01*
X56091Y-55084D01*
X56091Y-54803D01*
X56147Y-54578D01*
X56203Y-54465D01*
X56259Y-54409D01*
X56372Y-54353D01*
X57497Y-54353D02*
X57609Y-54353D01*
X57722Y-54409D01*
X57778Y-54465D01*
X57834Y-54578D01*
X57890Y-54803D01*
X57890Y-55084D01*
X57834Y-55309D01*
X57778Y-55421D01*
X57722Y-55478D01*
X57609Y-55534D01*
X57497Y-55534D01*
X57384Y-55478D01*
X57328Y-55421D01*
X57272Y-55309D01*
X57215Y-55084D01*
X57215Y-54803D01*
X57272Y-54578D01*
X57328Y-54465D01*
X57384Y-54409D01*
X57497Y-54353D01*
X58565Y-54859D02*
X58453Y-54803D01*
X58397Y-54746D01*
X58340Y-54634D01*
X58340Y-54578D01*
X58397Y-54465D01*
X58453Y-54409D01*
X58565Y-54353D01*
X58790Y-54353D01*
X58903Y-54409D01*
X58959Y-54465D01*
X59015Y-54578D01*
X59015Y-54634D01*
X58959Y-54746D01*
X58903Y-54803D01*
X58790Y-54859D01*
X58565Y-54859D01*
X58453Y-54915D01*
X58397Y-54971D01*
X58340Y-55084D01*
X58340Y-55309D01*
X58397Y-55421D01*
X58453Y-55478D01*
X58565Y-55534D01*
X58790Y-55534D01*
X58903Y-55478D01*
X58959Y-55421D01*
X59015Y-55309D01*
X59015Y-55084D01*
X58959Y-54971D01*
X58903Y-54915D01*
X58790Y-54859D01*
X59465Y-54353D02*
X59465Y-54578D01*
X59915Y-54353D02*
X59915Y-54578D01*
X61659Y-55984D02*
X61602Y-55928D01*
X61490Y-55759D01*
X61434Y-55646D01*
X61377Y-55478D01*
X61321Y-55196D01*
X61321Y-54971D01*
X61377Y-54690D01*
X61434Y-54521D01*
X61490Y-54409D01*
X61602Y-54240D01*
X61659Y-54184D01*
X62052Y-54465D02*
X62109Y-54409D01*
X62221Y-54353D01*
X62502Y-54353D01*
X62615Y-54409D01*
X62671Y-54465D01*
X62727Y-54578D01*
X62727Y-54690D01*
X62671Y-54859D01*
X61996Y-55534D01*
X62727Y-55534D01*
X63402Y-54859D02*
X63290Y-54803D01*
X63233Y-54746D01*
X63177Y-54634D01*
X63177Y-54578D01*
X63233Y-54465D01*
X63290Y-54409D01*
X63402Y-54353D01*
X63627Y-54353D01*
X63740Y-54409D01*
X63796Y-54465D01*
X63852Y-54578D01*
X63852Y-54634D01*
X63796Y-54746D01*
X63740Y-54803D01*
X63627Y-54859D01*
X63402Y-54859D01*
X63290Y-54915D01*
X63233Y-54971D01*
X63177Y-55084D01*
X63177Y-55309D01*
X63233Y-55421D01*
X63290Y-55478D01*
X63402Y-55534D01*
X63627Y-55534D01*
X63740Y-55478D01*
X63796Y-55421D01*
X63852Y-55309D01*
X63852Y-55084D01*
X63796Y-54971D01*
X63740Y-54915D01*
X63627Y-54859D01*
X64302Y-54465D02*
X64358Y-54409D01*
X64471Y-54353D01*
X64752Y-54353D01*
X64865Y-54409D01*
X64921Y-54465D01*
X64977Y-54578D01*
X64977Y-54690D01*
X64921Y-54859D01*
X64246Y-55534D01*
X64977Y-55534D01*
X66383Y-55534D02*
X66383Y-54353D01*
X66889Y-55534D02*
X66889Y-54915D01*
X66833Y-54803D01*
X66721Y-54746D01*
X66552Y-54746D01*
X66439Y-54803D01*
X66383Y-54859D01*
X67620Y-55534D02*
X67508Y-55478D01*
X67452Y-55421D01*
X67395Y-55309D01*
X67395Y-54971D01*
X67452Y-54859D01*
X67508Y-54803D01*
X67620Y-54746D01*
X67789Y-54746D01*
X67902Y-54803D01*
X67958Y-54859D01*
X68014Y-54971D01*
X68014Y-55309D01*
X67958Y-55421D01*
X67902Y-55478D01*
X67789Y-55534D01*
X67620Y-55534D01*
X68689Y-55534D02*
X68577Y-55478D01*
X68520Y-55365D01*
X68520Y-54353D01*
X69589Y-55478D02*
X69476Y-55534D01*
X69251Y-55534D01*
X69139Y-55478D01*
X69083Y-55365D01*
X69083Y-54915D01*
X69139Y-54803D01*
X69251Y-54746D01*
X69476Y-54746D01*
X69589Y-54803D01*
X69645Y-54915D01*
X69645Y-55028D01*
X69083Y-55140D01*
X70095Y-55478D02*
X70208Y-55534D01*
X70433Y-55534D01*
X70545Y-55478D01*
X70601Y-55365D01*
X70601Y-55309D01*
X70545Y-55196D01*
X70433Y-55140D01*
X70264Y-55140D01*
X70151Y-55084D01*
X70095Y-54971D01*
X70095Y-54915D01*
X70151Y-54803D01*
X70264Y-54746D01*
X70433Y-54746D01*
X70545Y-54803D01*
X70995Y-55984D02*
X71051Y-55928D01*
X71164Y-55759D01*
X71220Y-55646D01*
X71276Y-55478D01*
X71332Y-55196D01*
X71332Y-54971D01*
X71276Y-54690D01*
X71220Y-54521D01*
X71164Y-54409D01*
X71051Y-54240D01*
X70995Y-54184D01*
G54D11*
X43267Y-56559D02*
G75*
G03X43267Y-56559I-39J0D01*
G74*
G01*
G54D12*
X44561Y-55912D02*
X44673Y-55912D01*
X44786Y-55968D01*
X44842Y-56024D01*
X44898Y-56137D01*
X44955Y-56362D01*
X44955Y-56643D01*
X44898Y-56868D01*
X44842Y-56980D01*
X44786Y-57037D01*
X44673Y-57093D01*
X44561Y-57093D01*
X44448Y-57037D01*
X44392Y-56980D01*
X44336Y-56868D01*
X44280Y-56643D01*
X44280Y-56362D01*
X44336Y-56137D01*
X44392Y-56024D01*
X44448Y-55968D01*
X44561Y-55912D01*
X45461Y-56980D02*
X45517Y-57037D01*
X45461Y-57093D01*
X45404Y-57037D01*
X45461Y-56980D01*
X45461Y-57093D01*
X45967Y-56024D02*
X46023Y-55968D01*
X46136Y-55912D01*
X46417Y-55912D01*
X46529Y-55968D01*
X46586Y-56024D01*
X46642Y-56137D01*
X46642Y-56249D01*
X46586Y-56418D01*
X45911Y-57093D01*
X46642Y-57093D01*
X47373Y-55912D02*
X47485Y-55912D01*
X47598Y-55968D01*
X47654Y-56024D01*
X47710Y-56137D01*
X47767Y-56362D01*
X47767Y-56643D01*
X47710Y-56868D01*
X47654Y-56980D01*
X47598Y-57037D01*
X47485Y-57093D01*
X47373Y-57093D01*
X47260Y-57037D01*
X47204Y-56980D01*
X47148Y-56868D01*
X47092Y-56643D01*
X47092Y-56362D01*
X47148Y-56137D01*
X47204Y-56024D01*
X47260Y-55968D01*
X47373Y-55912D01*
X48273Y-57093D02*
X48273Y-56305D01*
X48273Y-56418D02*
X48329Y-56362D01*
X48442Y-56305D01*
X48610Y-56305D01*
X48723Y-56362D01*
X48779Y-56474D01*
X48779Y-57093D01*
X48779Y-56474D02*
X48835Y-56362D01*
X48948Y-56305D01*
X49116Y-56305D01*
X49229Y-56362D01*
X49285Y-56474D01*
X49285Y-57093D01*
X49848Y-57093D02*
X49848Y-56305D01*
X49848Y-56418D02*
X49904Y-56362D01*
X50016Y-56305D01*
X50185Y-56305D01*
X50298Y-56362D01*
X50354Y-56474D01*
X50354Y-57093D01*
X50354Y-56474D02*
X50410Y-56362D01*
X50523Y-56305D01*
X50691Y-56305D01*
X50804Y-56362D01*
X50860Y-56474D01*
X50860Y-57093D01*
X53166Y-55856D02*
X52154Y-57374D01*
X54685Y-55912D02*
X54797Y-55912D01*
X54910Y-55968D01*
X54966Y-56024D01*
X55022Y-56137D01*
X55078Y-56362D01*
X55078Y-56643D01*
X55022Y-56868D01*
X54966Y-56980D01*
X54910Y-57037D01*
X54797Y-57093D01*
X54685Y-57093D01*
X54572Y-57037D01*
X54516Y-56980D01*
X54460Y-56868D01*
X54403Y-56643D01*
X54403Y-56362D01*
X54460Y-56137D01*
X54516Y-56024D01*
X54572Y-55968D01*
X54685Y-55912D01*
X55584Y-56980D02*
X55641Y-57037D01*
X55584Y-57093D01*
X55528Y-57037D01*
X55584Y-56980D01*
X55584Y-57093D01*
X56372Y-55912D02*
X56484Y-55912D01*
X56597Y-55968D01*
X56653Y-56024D01*
X56709Y-56137D01*
X56766Y-56362D01*
X56766Y-56643D01*
X56709Y-56868D01*
X56653Y-56980D01*
X56597Y-57037D01*
X56484Y-57093D01*
X56372Y-57093D01*
X56259Y-57037D01*
X56203Y-56980D01*
X56147Y-56868D01*
X56091Y-56643D01*
X56091Y-56362D01*
X56147Y-56137D01*
X56203Y-56024D01*
X56259Y-55968D01*
X56372Y-55912D01*
X57497Y-55912D02*
X57609Y-55912D01*
X57722Y-55968D01*
X57778Y-56024D01*
X57834Y-56137D01*
X57890Y-56362D01*
X57890Y-56643D01*
X57834Y-56868D01*
X57778Y-56980D01*
X57722Y-57037D01*
X57609Y-57093D01*
X57497Y-57093D01*
X57384Y-57037D01*
X57328Y-56980D01*
X57272Y-56868D01*
X57215Y-56643D01*
X57215Y-56362D01*
X57272Y-56137D01*
X57328Y-56024D01*
X57384Y-55968D01*
X57497Y-55912D01*
X58565Y-56418D02*
X58453Y-56362D01*
X58397Y-56305D01*
X58340Y-56193D01*
X58340Y-56137D01*
X58397Y-56024D01*
X58453Y-55968D01*
X58565Y-55912D01*
X58790Y-55912D01*
X58903Y-55968D01*
X58959Y-56024D01*
X59015Y-56137D01*
X59015Y-56193D01*
X58959Y-56305D01*
X58903Y-56362D01*
X58790Y-56418D01*
X58565Y-56418D01*
X58453Y-56474D01*
X58397Y-56530D01*
X58340Y-56643D01*
X58340Y-56868D01*
X58397Y-56980D01*
X58453Y-57037D01*
X58565Y-57093D01*
X58790Y-57093D01*
X58903Y-57037D01*
X58959Y-56980D01*
X59015Y-56868D01*
X59015Y-56643D01*
X58959Y-56530D01*
X58903Y-56474D01*
X58790Y-56418D01*
X59465Y-55912D02*
X59465Y-56137D01*
X59915Y-55912D02*
X59915Y-56137D01*
X61659Y-57543D02*
X61602Y-57487D01*
X61490Y-57318D01*
X61434Y-57205D01*
X61377Y-57037D01*
X61321Y-56755D01*
X61321Y-56530D01*
X61377Y-56249D01*
X61434Y-56080D01*
X61490Y-55968D01*
X61602Y-55799D01*
X61659Y-55743D01*
X62671Y-55912D02*
X62109Y-55912D01*
X62052Y-56474D01*
X62109Y-56418D01*
X62221Y-56362D01*
X62502Y-56362D01*
X62615Y-56418D01*
X62671Y-56474D01*
X62727Y-56587D01*
X62727Y-56868D01*
X62671Y-56980D01*
X62615Y-57037D01*
X62502Y-57093D01*
X62221Y-57093D01*
X62109Y-57037D01*
X62052Y-56980D01*
X63796Y-55912D02*
X63233Y-55912D01*
X63177Y-56474D01*
X63233Y-56418D01*
X63346Y-56362D01*
X63627Y-56362D01*
X63740Y-56418D01*
X63796Y-56474D01*
X63852Y-56587D01*
X63852Y-56868D01*
X63796Y-56980D01*
X63740Y-57037D01*
X63627Y-57093D01*
X63346Y-57093D01*
X63233Y-57037D01*
X63177Y-56980D01*
X64415Y-57093D02*
X64640Y-57093D01*
X64752Y-57037D01*
X64808Y-56980D01*
X64921Y-56812D01*
X64977Y-56587D01*
X64977Y-56137D01*
X64921Y-56024D01*
X64865Y-55968D01*
X64752Y-55912D01*
X64527Y-55912D01*
X64415Y-55968D01*
X64358Y-56024D01*
X64302Y-56137D01*
X64302Y-56418D01*
X64358Y-56530D01*
X64415Y-56587D01*
X64527Y-56643D01*
X64752Y-56643D01*
X64865Y-56587D01*
X64921Y-56530D01*
X64977Y-56418D01*
X66383Y-57093D02*
X66383Y-55912D01*
X66889Y-57093D02*
X66889Y-56474D01*
X66833Y-56362D01*
X66721Y-56305D01*
X66552Y-56305D01*
X66439Y-56362D01*
X66383Y-56418D01*
X67620Y-57093D02*
X67508Y-57037D01*
X67452Y-56980D01*
X67395Y-56868D01*
X67395Y-56530D01*
X67452Y-56418D01*
X67508Y-56362D01*
X67620Y-56305D01*
X67789Y-56305D01*
X67902Y-56362D01*
X67958Y-56418D01*
X68014Y-56530D01*
X68014Y-56868D01*
X67958Y-56980D01*
X67902Y-57037D01*
X67789Y-57093D01*
X67620Y-57093D01*
X68689Y-57093D02*
X68577Y-57037D01*
X68520Y-56924D01*
X68520Y-55912D01*
X69589Y-57037D02*
X69476Y-57093D01*
X69251Y-57093D01*
X69139Y-57037D01*
X69083Y-56924D01*
X69083Y-56474D01*
X69139Y-56362D01*
X69251Y-56305D01*
X69476Y-56305D01*
X69589Y-56362D01*
X69645Y-56474D01*
X69645Y-56587D01*
X69083Y-56699D01*
X70095Y-57037D02*
X70208Y-57093D01*
X70433Y-57093D01*
X70545Y-57037D01*
X70601Y-56924D01*
X70601Y-56868D01*
X70545Y-56755D01*
X70433Y-56699D01*
X70264Y-56699D01*
X70151Y-56643D01*
X70095Y-56530D01*
X70095Y-56474D01*
X70151Y-56362D01*
X70264Y-56305D01*
X70433Y-56305D01*
X70545Y-56362D01*
X70995Y-57543D02*
X71051Y-57487D01*
X71164Y-57318D01*
X71220Y-57205D01*
X71276Y-57037D01*
X71332Y-56755D01*
X71332Y-56530D01*
X71276Y-56249D01*
X71220Y-56080D01*
X71164Y-55968D01*
X71051Y-55799D01*
X70995Y-55743D01*
X43208Y-58059D02*
X43208Y-58177D01*
X43149Y-58118D02*
X43267Y-58118D01*
X44561Y-57471D02*
X44673Y-57471D01*
X44786Y-57527D01*
X44842Y-57583D01*
X44898Y-57696D01*
X44955Y-57921D01*
X44955Y-58202D01*
X44898Y-58427D01*
X44842Y-58539D01*
X44786Y-58596D01*
X44673Y-58652D01*
X44561Y-58652D01*
X44448Y-58596D01*
X44392Y-58539D01*
X44336Y-58427D01*
X44280Y-58202D01*
X44280Y-57921D01*
X44336Y-57696D01*
X44392Y-57583D01*
X44448Y-57527D01*
X44561Y-57471D01*
X45461Y-58539D02*
X45517Y-58596D01*
X45461Y-58652D01*
X45404Y-58596D01*
X45461Y-58539D01*
X45461Y-58652D01*
X45911Y-57471D02*
X46642Y-57471D01*
X46248Y-57921D01*
X46417Y-57921D01*
X46529Y-57977D01*
X46586Y-58033D01*
X46642Y-58146D01*
X46642Y-58427D01*
X46586Y-58539D01*
X46529Y-58596D01*
X46417Y-58652D01*
X46079Y-58652D01*
X45967Y-58596D01*
X45911Y-58539D01*
X47373Y-57471D02*
X47485Y-57471D01*
X47598Y-57527D01*
X47654Y-57583D01*
X47710Y-57696D01*
X47767Y-57921D01*
X47767Y-58202D01*
X47710Y-58427D01*
X47654Y-58539D01*
X47598Y-58596D01*
X47485Y-58652D01*
X47373Y-58652D01*
X47260Y-58596D01*
X47204Y-58539D01*
X47148Y-58427D01*
X47092Y-58202D01*
X47092Y-57921D01*
X47148Y-57696D01*
X47204Y-57583D01*
X47260Y-57527D01*
X47373Y-57471D01*
X48273Y-58652D02*
X48273Y-57865D01*
X48273Y-57977D02*
X48329Y-57921D01*
X48442Y-57865D01*
X48610Y-57865D01*
X48723Y-57921D01*
X48779Y-58033D01*
X48779Y-58652D01*
X48779Y-58033D02*
X48835Y-57921D01*
X48948Y-57865D01*
X49116Y-57865D01*
X49229Y-57921D01*
X49285Y-58033D01*
X49285Y-58652D01*
X49848Y-58652D02*
X49848Y-57865D01*
X49848Y-57977D02*
X49904Y-57921D01*
X50016Y-57865D01*
X50185Y-57865D01*
X50298Y-57921D01*
X50354Y-58033D01*
X50354Y-58652D01*
X50354Y-58033D02*
X50410Y-57921D01*
X50523Y-57865D01*
X50691Y-57865D01*
X50804Y-57921D01*
X50860Y-58033D01*
X50860Y-58652D01*
X53166Y-57415D02*
X52154Y-58933D01*
X54685Y-57471D02*
X54797Y-57471D01*
X54910Y-57527D01*
X54966Y-57583D01*
X55022Y-57696D01*
X55078Y-57921D01*
X55078Y-58202D01*
X55022Y-58427D01*
X54966Y-58539D01*
X54910Y-58596D01*
X54797Y-58652D01*
X54685Y-58652D01*
X54572Y-58596D01*
X54516Y-58539D01*
X54460Y-58427D01*
X54403Y-58202D01*
X54403Y-57921D01*
X54460Y-57696D01*
X54516Y-57583D01*
X54572Y-57527D01*
X54685Y-57471D01*
X55584Y-58539D02*
X55641Y-58596D01*
X55584Y-58652D01*
X55528Y-58596D01*
X55584Y-58539D01*
X55584Y-58652D01*
X56372Y-57471D02*
X56484Y-57471D01*
X56597Y-57527D01*
X56653Y-57583D01*
X56709Y-57696D01*
X56766Y-57921D01*
X56766Y-58202D01*
X56709Y-58427D01*
X56653Y-58539D01*
X56597Y-58596D01*
X56484Y-58652D01*
X56372Y-58652D01*
X56259Y-58596D01*
X56203Y-58539D01*
X56147Y-58427D01*
X56091Y-58202D01*
X56091Y-57921D01*
X56147Y-57696D01*
X56203Y-57583D01*
X56259Y-57527D01*
X56372Y-57471D01*
X57890Y-58652D02*
X57215Y-58652D01*
X57553Y-58652D02*
X57553Y-57471D01*
X57440Y-57640D01*
X57328Y-57752D01*
X57215Y-57808D01*
X58340Y-57583D02*
X58397Y-57527D01*
X58509Y-57471D01*
X58790Y-57471D01*
X58903Y-57527D01*
X58959Y-57583D01*
X59015Y-57696D01*
X59015Y-57808D01*
X58959Y-57977D01*
X58284Y-58652D01*
X59015Y-58652D01*
X59465Y-57471D02*
X59465Y-57696D01*
X59915Y-57471D02*
X59915Y-57696D01*
X61659Y-59102D02*
X61602Y-59046D01*
X61490Y-58877D01*
X61434Y-58764D01*
X61377Y-58596D01*
X61321Y-58314D01*
X61321Y-58089D01*
X61377Y-57808D01*
X61434Y-57640D01*
X61490Y-57527D01*
X61602Y-57358D01*
X61659Y-57302D01*
X62615Y-57865D02*
X62615Y-58652D01*
X62334Y-57415D02*
X62052Y-58258D01*
X62784Y-58258D01*
X63852Y-58652D02*
X63177Y-58652D01*
X63515Y-58652D02*
X63515Y-57471D01*
X63402Y-57640D01*
X63290Y-57752D01*
X63177Y-57808D01*
X65258Y-58652D02*
X65258Y-57471D01*
X65764Y-58652D02*
X65764Y-58033D01*
X65708Y-57921D01*
X65596Y-57865D01*
X65427Y-57865D01*
X65314Y-57921D01*
X65258Y-57977D01*
X66496Y-58652D02*
X66383Y-58596D01*
X66327Y-58539D01*
X66271Y-58427D01*
X66271Y-58089D01*
X66327Y-57977D01*
X66383Y-57921D01*
X66496Y-57865D01*
X66664Y-57865D01*
X66777Y-57921D01*
X66833Y-57977D01*
X66889Y-58089D01*
X66889Y-58427D01*
X66833Y-58539D01*
X66777Y-58596D01*
X66664Y-58652D01*
X66496Y-58652D01*
X67564Y-58652D02*
X67452Y-58596D01*
X67395Y-58483D01*
X67395Y-57471D01*
X68464Y-58596D02*
X68352Y-58652D01*
X68127Y-58652D01*
X68014Y-58596D01*
X67958Y-58483D01*
X67958Y-58033D01*
X68014Y-57921D01*
X68127Y-57865D01*
X68352Y-57865D01*
X68464Y-57921D01*
X68520Y-58033D01*
X68520Y-58146D01*
X67958Y-58258D01*
X68970Y-58596D02*
X69083Y-58652D01*
X69308Y-58652D01*
X69420Y-58596D01*
X69476Y-58483D01*
X69476Y-58427D01*
X69420Y-58314D01*
X69308Y-58258D01*
X69139Y-58258D01*
X69026Y-58202D01*
X68970Y-58089D01*
X68970Y-58033D01*
X69026Y-57921D01*
X69139Y-57865D01*
X69308Y-57865D01*
X69420Y-57921D01*
X69870Y-59102D02*
X69926Y-59046D01*
X70039Y-58877D01*
X70095Y-58764D01*
X70151Y-58596D01*
X70208Y-58314D01*
X70208Y-58089D01*
X70151Y-57808D01*
X70095Y-57640D01*
X70039Y-57527D01*
X69926Y-57358D01*
X69870Y-57302D01*
G54D11*
X43238Y-59746D02*
X43238Y-59607D01*
X43099Y-59607D01*
X43099Y-59746D01*
X43238Y-59746D01*
G54D12*
X44561Y-59030D02*
X44673Y-59030D01*
X44786Y-59086D01*
X44842Y-59142D01*
X44898Y-59255D01*
X44955Y-59480D01*
X44955Y-59761D01*
X44898Y-59986D01*
X44842Y-60098D01*
X44786Y-60155D01*
X44673Y-60211D01*
X44561Y-60211D01*
X44448Y-60155D01*
X44392Y-60098D01*
X44336Y-59986D01*
X44280Y-59761D01*
X44280Y-59480D01*
X44336Y-59255D01*
X44392Y-59142D01*
X44448Y-59086D01*
X44561Y-59030D01*
X45461Y-60098D02*
X45517Y-60155D01*
X45461Y-60211D01*
X45404Y-60155D01*
X45461Y-60098D01*
X45461Y-60211D01*
X46586Y-59030D02*
X46023Y-59030D01*
X45967Y-59592D01*
X46023Y-59536D01*
X46136Y-59480D01*
X46417Y-59480D01*
X46529Y-59536D01*
X46586Y-59592D01*
X46642Y-59705D01*
X46642Y-59986D01*
X46586Y-60098D01*
X46529Y-60155D01*
X46417Y-60211D01*
X46136Y-60211D01*
X46023Y-60155D01*
X45967Y-60098D01*
X47373Y-59030D02*
X47485Y-59030D01*
X47598Y-59086D01*
X47654Y-59142D01*
X47710Y-59255D01*
X47767Y-59480D01*
X47767Y-59761D01*
X47710Y-59986D01*
X47654Y-60098D01*
X47598Y-60155D01*
X47485Y-60211D01*
X47373Y-60211D01*
X47260Y-60155D01*
X47204Y-60098D01*
X47148Y-59986D01*
X47092Y-59761D01*
X47092Y-59480D01*
X47148Y-59255D01*
X47204Y-59142D01*
X47260Y-59086D01*
X47373Y-59030D01*
X48273Y-60211D02*
X48273Y-59424D01*
X48273Y-59536D02*
X48329Y-59480D01*
X48442Y-59424D01*
X48610Y-59424D01*
X48723Y-59480D01*
X48779Y-59592D01*
X48779Y-60211D01*
X48779Y-59592D02*
X48835Y-59480D01*
X48948Y-59424D01*
X49116Y-59424D01*
X49229Y-59480D01*
X49285Y-59592D01*
X49285Y-60211D01*
X49848Y-60211D02*
X49848Y-59424D01*
X49848Y-59536D02*
X49904Y-59480D01*
X50016Y-59424D01*
X50185Y-59424D01*
X50298Y-59480D01*
X50354Y-59592D01*
X50354Y-60211D01*
X50354Y-59592D02*
X50410Y-59480D01*
X50523Y-59424D01*
X50691Y-59424D01*
X50804Y-59480D01*
X50860Y-59592D01*
X50860Y-60211D01*
X53166Y-58974D02*
X52154Y-60492D01*
X54685Y-59030D02*
X54797Y-59030D01*
X54910Y-59086D01*
X54966Y-59142D01*
X55022Y-59255D01*
X55078Y-59480D01*
X55078Y-59761D01*
X55022Y-59986D01*
X54966Y-60098D01*
X54910Y-60155D01*
X54797Y-60211D01*
X54685Y-60211D01*
X54572Y-60155D01*
X54516Y-60098D01*
X54460Y-59986D01*
X54403Y-59761D01*
X54403Y-59480D01*
X54460Y-59255D01*
X54516Y-59142D01*
X54572Y-59086D01*
X54685Y-59030D01*
X55584Y-60098D02*
X55641Y-60155D01*
X55584Y-60211D01*
X55528Y-60155D01*
X55584Y-60098D01*
X55584Y-60211D01*
X56372Y-59030D02*
X56484Y-59030D01*
X56597Y-59086D01*
X56653Y-59142D01*
X56709Y-59255D01*
X56766Y-59480D01*
X56766Y-59761D01*
X56709Y-59986D01*
X56653Y-60098D01*
X56597Y-60155D01*
X56484Y-60211D01*
X56372Y-60211D01*
X56259Y-60155D01*
X56203Y-60098D01*
X56147Y-59986D01*
X56091Y-59761D01*
X56091Y-59480D01*
X56147Y-59255D01*
X56203Y-59142D01*
X56259Y-59086D01*
X56372Y-59030D01*
X57215Y-59142D02*
X57272Y-59086D01*
X57384Y-59030D01*
X57665Y-59030D01*
X57778Y-59086D01*
X57834Y-59142D01*
X57890Y-59255D01*
X57890Y-59367D01*
X57834Y-59536D01*
X57159Y-60211D01*
X57890Y-60211D01*
X58622Y-59030D02*
X58734Y-59030D01*
X58847Y-59086D01*
X58903Y-59142D01*
X58959Y-59255D01*
X59015Y-59480D01*
X59015Y-59761D01*
X58959Y-59986D01*
X58903Y-60098D01*
X58847Y-60155D01*
X58734Y-60211D01*
X58622Y-60211D01*
X58509Y-60155D01*
X58453Y-60098D01*
X58397Y-59986D01*
X58340Y-59761D01*
X58340Y-59480D01*
X58397Y-59255D01*
X58453Y-59142D01*
X58509Y-59086D01*
X58622Y-59030D01*
X59465Y-59030D02*
X59465Y-59255D01*
X59915Y-59030D02*
X59915Y-59255D01*
X61659Y-60661D02*
X61602Y-60605D01*
X61490Y-60436D01*
X61434Y-60323D01*
X61377Y-60155D01*
X61321Y-59874D01*
X61321Y-59649D01*
X61377Y-59367D01*
X61434Y-59199D01*
X61490Y-59086D01*
X61602Y-58917D01*
X61659Y-58861D01*
X62334Y-59030D02*
X62446Y-59030D01*
X62559Y-59086D01*
X62615Y-59142D01*
X62671Y-59255D01*
X62727Y-59480D01*
X62727Y-59761D01*
X62671Y-59986D01*
X62615Y-60098D01*
X62559Y-60155D01*
X62446Y-60211D01*
X62334Y-60211D01*
X62221Y-60155D01*
X62165Y-60098D01*
X62109Y-59986D01*
X62052Y-59761D01*
X62052Y-59480D01*
X62109Y-59255D01*
X62165Y-59142D01*
X62221Y-59086D01*
X62334Y-59030D01*
X64133Y-60211D02*
X64133Y-59030D01*
X64640Y-60211D02*
X64640Y-59592D01*
X64583Y-59480D01*
X64471Y-59424D01*
X64302Y-59424D01*
X64190Y-59480D01*
X64133Y-59536D01*
X65371Y-60211D02*
X65258Y-60155D01*
X65202Y-60098D01*
X65146Y-59986D01*
X65146Y-59649D01*
X65202Y-59536D01*
X65258Y-59480D01*
X65371Y-59424D01*
X65539Y-59424D01*
X65652Y-59480D01*
X65708Y-59536D01*
X65764Y-59649D01*
X65764Y-59986D01*
X65708Y-60098D01*
X65652Y-60155D01*
X65539Y-60211D01*
X65371Y-60211D01*
X66439Y-60211D02*
X66327Y-60155D01*
X66271Y-60042D01*
X66271Y-59030D01*
X67339Y-60155D02*
X67227Y-60211D01*
X67002Y-60211D01*
X66889Y-60155D01*
X66833Y-60042D01*
X66833Y-59592D01*
X66889Y-59480D01*
X67002Y-59424D01*
X67227Y-59424D01*
X67339Y-59480D01*
X67395Y-59592D01*
X67395Y-59705D01*
X66833Y-59817D01*
X67845Y-60155D02*
X67958Y-60211D01*
X68183Y-60211D01*
X68295Y-60155D01*
X68352Y-60042D01*
X68352Y-59986D01*
X68295Y-59874D01*
X68183Y-59817D01*
X68014Y-59817D01*
X67902Y-59761D01*
X67845Y-59649D01*
X67845Y-59592D01*
X67902Y-59480D01*
X68014Y-59424D01*
X68183Y-59424D01*
X68295Y-59480D01*
X69758Y-59761D02*
X70658Y-59761D01*
X70208Y-60211D02*
X70208Y-59311D01*
X72626Y-59424D02*
X72626Y-60211D01*
X72345Y-58974D02*
X72064Y-59817D01*
X72795Y-59817D01*
X74088Y-60155D02*
X74201Y-60211D01*
X74426Y-60211D01*
X74538Y-60155D01*
X74595Y-60042D01*
X74595Y-59986D01*
X74538Y-59874D01*
X74426Y-59817D01*
X74257Y-59817D01*
X74145Y-59761D01*
X74088Y-59649D01*
X74088Y-59592D01*
X74145Y-59480D01*
X74257Y-59424D01*
X74426Y-59424D01*
X74538Y-59480D01*
X75269Y-60211D02*
X75157Y-60155D01*
X75101Y-60042D01*
X75101Y-59030D01*
X75888Y-60211D02*
X75776Y-60155D01*
X75719Y-60098D01*
X75663Y-59986D01*
X75663Y-59649D01*
X75719Y-59536D01*
X75776Y-59480D01*
X75888Y-59424D01*
X76057Y-59424D01*
X76169Y-59480D01*
X76226Y-59536D01*
X76282Y-59649D01*
X76282Y-59986D01*
X76226Y-60098D01*
X76169Y-60155D01*
X76057Y-60211D01*
X75888Y-60211D01*
X76619Y-59424D02*
X77069Y-59424D01*
X76788Y-59030D02*
X76788Y-60042D01*
X76844Y-60155D01*
X76957Y-60211D01*
X77069Y-60211D01*
X77407Y-60155D02*
X77519Y-60211D01*
X77744Y-60211D01*
X77857Y-60155D01*
X77913Y-60042D01*
X77913Y-59986D01*
X77857Y-59874D01*
X77744Y-59817D01*
X77575Y-59817D01*
X77463Y-59761D01*
X77407Y-59649D01*
X77407Y-59592D01*
X77463Y-59480D01*
X77575Y-59424D01*
X77744Y-59424D01*
X77857Y-59480D01*
X78307Y-60661D02*
X78363Y-60605D01*
X78475Y-60436D01*
X78532Y-60323D01*
X78588Y-60155D01*
X78644Y-59874D01*
X78644Y-59649D01*
X78588Y-59367D01*
X78532Y-59199D01*
X78475Y-59086D01*
X78363Y-58917D01*
X78307Y-58861D01*
G54D11*
X43070Y-61433D02*
X43267Y-61236D01*
X43070Y-61039D01*
X42874Y-61236D01*
X43070Y-61433D01*
G54D12*
X44955Y-61770D02*
X44280Y-61770D01*
X44617Y-61770D02*
X44617Y-60589D01*
X44505Y-60758D01*
X44392Y-60870D01*
X44280Y-60926D01*
X45461Y-61658D02*
X45517Y-61714D01*
X45461Y-61770D01*
X45404Y-61714D01*
X45461Y-61658D01*
X45461Y-61770D01*
X46248Y-60589D02*
X46361Y-60589D01*
X46473Y-60645D01*
X46529Y-60701D01*
X46586Y-60814D01*
X46642Y-61039D01*
X46642Y-61320D01*
X46586Y-61545D01*
X46529Y-61658D01*
X46473Y-61714D01*
X46361Y-61770D01*
X46248Y-61770D01*
X46136Y-61714D01*
X46079Y-61658D01*
X46023Y-61545D01*
X45967Y-61320D01*
X45967Y-61039D01*
X46023Y-60814D01*
X46079Y-60701D01*
X46136Y-60645D01*
X46248Y-60589D01*
X47373Y-60589D02*
X47485Y-60589D01*
X47598Y-60645D01*
X47654Y-60701D01*
X47710Y-60814D01*
X47767Y-61039D01*
X47767Y-61320D01*
X47710Y-61545D01*
X47654Y-61658D01*
X47598Y-61714D01*
X47485Y-61770D01*
X47373Y-61770D01*
X47260Y-61714D01*
X47204Y-61658D01*
X47148Y-61545D01*
X47092Y-61320D01*
X47092Y-61039D01*
X47148Y-60814D01*
X47204Y-60701D01*
X47260Y-60645D01*
X47373Y-60589D01*
X48273Y-61770D02*
X48273Y-60983D01*
X48273Y-61095D02*
X48329Y-61039D01*
X48442Y-60983D01*
X48610Y-60983D01*
X48723Y-61039D01*
X48779Y-61151D01*
X48779Y-61770D01*
X48779Y-61151D02*
X48835Y-61039D01*
X48948Y-60983D01*
X49116Y-60983D01*
X49229Y-61039D01*
X49285Y-61151D01*
X49285Y-61770D01*
X49848Y-61770D02*
X49848Y-60983D01*
X49848Y-61095D02*
X49904Y-61039D01*
X50016Y-60983D01*
X50185Y-60983D01*
X50298Y-61039D01*
X50354Y-61151D01*
X50354Y-61770D01*
X50354Y-61151D02*
X50410Y-61039D01*
X50523Y-60983D01*
X50691Y-60983D01*
X50804Y-61039D01*
X50860Y-61151D01*
X50860Y-61770D01*
X53166Y-60533D02*
X52154Y-62051D01*
X54685Y-60589D02*
X54797Y-60589D01*
X54910Y-60645D01*
X54966Y-60701D01*
X55022Y-60814D01*
X55078Y-61039D01*
X55078Y-61320D01*
X55022Y-61545D01*
X54966Y-61658D01*
X54910Y-61714D01*
X54797Y-61770D01*
X54685Y-61770D01*
X54572Y-61714D01*
X54516Y-61658D01*
X54460Y-61545D01*
X54403Y-61320D01*
X54403Y-61039D01*
X54460Y-60814D01*
X54516Y-60701D01*
X54572Y-60645D01*
X54685Y-60589D01*
X55584Y-61658D02*
X55641Y-61714D01*
X55584Y-61770D01*
X55528Y-61714D01*
X55584Y-61658D01*
X55584Y-61770D01*
X56372Y-60589D02*
X56484Y-60589D01*
X56597Y-60645D01*
X56653Y-60701D01*
X56709Y-60814D01*
X56766Y-61039D01*
X56766Y-61320D01*
X56709Y-61545D01*
X56653Y-61658D01*
X56597Y-61714D01*
X56484Y-61770D01*
X56372Y-61770D01*
X56259Y-61714D01*
X56203Y-61658D01*
X56147Y-61545D01*
X56091Y-61320D01*
X56091Y-61039D01*
X56147Y-60814D01*
X56203Y-60701D01*
X56259Y-60645D01*
X56372Y-60589D01*
X57159Y-60589D02*
X57890Y-60589D01*
X57497Y-61039D01*
X57665Y-61039D01*
X57778Y-61095D01*
X57834Y-61151D01*
X57890Y-61264D01*
X57890Y-61545D01*
X57834Y-61658D01*
X57778Y-61714D01*
X57665Y-61770D01*
X57328Y-61770D01*
X57215Y-61714D01*
X57159Y-61658D01*
X58453Y-61770D02*
X58678Y-61770D01*
X58790Y-61714D01*
X58847Y-61658D01*
X58959Y-61489D01*
X59015Y-61264D01*
X59015Y-60814D01*
X58959Y-60701D01*
X58903Y-60645D01*
X58790Y-60589D01*
X58565Y-60589D01*
X58453Y-60645D01*
X58397Y-60701D01*
X58340Y-60814D01*
X58340Y-61095D01*
X58397Y-61208D01*
X58453Y-61264D01*
X58565Y-61320D01*
X58790Y-61320D01*
X58903Y-61264D01*
X58959Y-61208D01*
X59015Y-61095D01*
X59465Y-60589D02*
X59465Y-60814D01*
X59915Y-60589D02*
X59915Y-60814D01*
X61659Y-62220D02*
X61602Y-62164D01*
X61490Y-61995D01*
X61434Y-61883D01*
X61377Y-61714D01*
X61321Y-61433D01*
X61321Y-61208D01*
X61377Y-60926D01*
X61434Y-60758D01*
X61490Y-60645D01*
X61602Y-60476D01*
X61659Y-60420D01*
X61996Y-60589D02*
X62727Y-60589D01*
X62334Y-61039D01*
X62502Y-61039D01*
X62615Y-61095D01*
X62671Y-61151D01*
X62727Y-61264D01*
X62727Y-61545D01*
X62671Y-61658D01*
X62615Y-61714D01*
X62502Y-61770D01*
X62165Y-61770D01*
X62052Y-61714D01*
X61996Y-61658D01*
X64133Y-61770D02*
X64133Y-60589D01*
X64640Y-61770D02*
X64640Y-61151D01*
X64583Y-61039D01*
X64471Y-60983D01*
X64302Y-60983D01*
X64190Y-61039D01*
X64133Y-61095D01*
X65371Y-61770D02*
X65258Y-61714D01*
X65202Y-61658D01*
X65146Y-61545D01*
X65146Y-61208D01*
X65202Y-61095D01*
X65258Y-61039D01*
X65371Y-60983D01*
X65539Y-60983D01*
X65652Y-61039D01*
X65708Y-61095D01*
X65764Y-61208D01*
X65764Y-61545D01*
X65708Y-61658D01*
X65652Y-61714D01*
X65539Y-61770D01*
X65371Y-61770D01*
X66439Y-61770D02*
X66327Y-61714D01*
X66271Y-61601D01*
X66271Y-60589D01*
X67339Y-61714D02*
X67227Y-61770D01*
X67002Y-61770D01*
X66889Y-61714D01*
X66833Y-61601D01*
X66833Y-61151D01*
X66889Y-61039D01*
X67002Y-60983D01*
X67227Y-60983D01*
X67339Y-61039D01*
X67395Y-61151D01*
X67395Y-61264D01*
X66833Y-61376D01*
X67845Y-61714D02*
X67958Y-61770D01*
X68183Y-61770D01*
X68295Y-61714D01*
X68352Y-61601D01*
X68352Y-61545D01*
X68295Y-61433D01*
X68183Y-61376D01*
X68014Y-61376D01*
X67902Y-61320D01*
X67845Y-61208D01*
X67845Y-61151D01*
X67902Y-61039D01*
X68014Y-60983D01*
X68183Y-60983D01*
X68295Y-61039D01*
X68745Y-62220D02*
X68802Y-62164D01*
X68914Y-61995D01*
X68970Y-61883D01*
X69026Y-61714D01*
X69083Y-61433D01*
X69083Y-61208D01*
X69026Y-60926D01*
X68970Y-60758D01*
X68914Y-60645D01*
X68802Y-60476D01*
X68745Y-60420D01*
X42867Y-62595D02*
X43267Y-62995D01*
X43267Y-62595D02*
X42867Y-62995D01*
G54D11*
X43267Y-62795D02*
G75*
G03X43267Y-62795I-200J0D01*
G74*
G01*
G54D12*
X44955Y-63329D02*
X44280Y-63329D01*
X44617Y-63329D02*
X44617Y-62148D01*
X44505Y-62317D01*
X44392Y-62429D01*
X44280Y-62485D01*
X45461Y-63217D02*
X45517Y-63273D01*
X45461Y-63329D01*
X45404Y-63273D01*
X45461Y-63217D01*
X45461Y-63329D01*
X46248Y-62148D02*
X46361Y-62148D01*
X46473Y-62204D01*
X46529Y-62260D01*
X46586Y-62373D01*
X46642Y-62598D01*
X46642Y-62879D01*
X46586Y-63104D01*
X46529Y-63217D01*
X46473Y-63273D01*
X46361Y-63329D01*
X46248Y-63329D01*
X46136Y-63273D01*
X46079Y-63217D01*
X46023Y-63104D01*
X45967Y-62879D01*
X45967Y-62598D01*
X46023Y-62373D01*
X46079Y-62260D01*
X46136Y-62204D01*
X46248Y-62148D01*
X47092Y-62260D02*
X47148Y-62204D01*
X47260Y-62148D01*
X47542Y-62148D01*
X47654Y-62204D01*
X47710Y-62260D01*
X47767Y-62373D01*
X47767Y-62485D01*
X47710Y-62654D01*
X47035Y-63329D01*
X47767Y-63329D01*
X48273Y-63329D02*
X48273Y-62542D01*
X48273Y-62654D02*
X48329Y-62598D01*
X48442Y-62542D01*
X48610Y-62542D01*
X48723Y-62598D01*
X48779Y-62710D01*
X48779Y-63329D01*
X48779Y-62710D02*
X48835Y-62598D01*
X48948Y-62542D01*
X49116Y-62542D01*
X49229Y-62598D01*
X49285Y-62710D01*
X49285Y-63329D01*
X49848Y-63329D02*
X49848Y-62542D01*
X49848Y-62654D02*
X49904Y-62598D01*
X50016Y-62542D01*
X50185Y-62542D01*
X50298Y-62598D01*
X50354Y-62710D01*
X50354Y-63329D01*
X50354Y-62710D02*
X50410Y-62598D01*
X50523Y-62542D01*
X50691Y-62542D01*
X50804Y-62598D01*
X50860Y-62710D01*
X50860Y-63329D01*
X53166Y-62092D02*
X52154Y-63610D01*
X54685Y-62148D02*
X54797Y-62148D01*
X54910Y-62204D01*
X54966Y-62260D01*
X55022Y-62373D01*
X55078Y-62598D01*
X55078Y-62879D01*
X55022Y-63104D01*
X54966Y-63217D01*
X54910Y-63273D01*
X54797Y-63329D01*
X54685Y-63329D01*
X54572Y-63273D01*
X54516Y-63217D01*
X54460Y-63104D01*
X54403Y-62879D01*
X54403Y-62598D01*
X54460Y-62373D01*
X54516Y-62260D01*
X54572Y-62204D01*
X54685Y-62148D01*
X55584Y-63217D02*
X55641Y-63273D01*
X55584Y-63329D01*
X55528Y-63273D01*
X55584Y-63217D01*
X55584Y-63329D01*
X56372Y-62148D02*
X56484Y-62148D01*
X56597Y-62204D01*
X56653Y-62260D01*
X56709Y-62373D01*
X56766Y-62598D01*
X56766Y-62879D01*
X56709Y-63104D01*
X56653Y-63217D01*
X56597Y-63273D01*
X56484Y-63329D01*
X56372Y-63329D01*
X56259Y-63273D01*
X56203Y-63217D01*
X56147Y-63104D01*
X56091Y-62879D01*
X56091Y-62598D01*
X56147Y-62373D01*
X56203Y-62260D01*
X56259Y-62204D01*
X56372Y-62148D01*
X57778Y-62542D02*
X57778Y-63329D01*
X57497Y-62092D02*
X57215Y-62935D01*
X57947Y-62935D01*
X58622Y-62148D02*
X58734Y-62148D01*
X58847Y-62204D01*
X58903Y-62260D01*
X58959Y-62373D01*
X59015Y-62598D01*
X59015Y-62879D01*
X58959Y-63104D01*
X58903Y-63217D01*
X58847Y-63273D01*
X58734Y-63329D01*
X58622Y-63329D01*
X58509Y-63273D01*
X58453Y-63217D01*
X58397Y-63104D01*
X58340Y-62879D01*
X58340Y-62598D01*
X58397Y-62373D01*
X58453Y-62260D01*
X58509Y-62204D01*
X58622Y-62148D01*
X59465Y-62148D02*
X59465Y-62373D01*
X59915Y-62148D02*
X59915Y-62373D01*
X61659Y-63779D02*
X61602Y-63723D01*
X61490Y-63554D01*
X61434Y-63442D01*
X61377Y-63273D01*
X61321Y-62992D01*
X61321Y-62767D01*
X61377Y-62485D01*
X61434Y-62317D01*
X61490Y-62204D01*
X61602Y-62035D01*
X61659Y-61979D01*
X61996Y-62148D02*
X62727Y-62148D01*
X62334Y-62598D01*
X62502Y-62598D01*
X62615Y-62654D01*
X62671Y-62710D01*
X62727Y-62823D01*
X62727Y-63104D01*
X62671Y-63217D01*
X62615Y-63273D01*
X62502Y-63329D01*
X62165Y-63329D01*
X62052Y-63273D01*
X61996Y-63217D01*
X63177Y-62260D02*
X63233Y-62204D01*
X63346Y-62148D01*
X63627Y-62148D01*
X63740Y-62204D01*
X63796Y-62260D01*
X63852Y-62373D01*
X63852Y-62485D01*
X63796Y-62654D01*
X63121Y-63329D01*
X63852Y-63329D01*
X65258Y-63329D02*
X65258Y-62148D01*
X65764Y-63329D02*
X65764Y-62710D01*
X65708Y-62598D01*
X65596Y-62542D01*
X65427Y-62542D01*
X65314Y-62598D01*
X65258Y-62654D01*
X66496Y-63329D02*
X66383Y-63273D01*
X66327Y-63217D01*
X66271Y-63104D01*
X66271Y-62767D01*
X66327Y-62654D01*
X66383Y-62598D01*
X66496Y-62542D01*
X66664Y-62542D01*
X66777Y-62598D01*
X66833Y-62654D01*
X66889Y-62767D01*
X66889Y-63104D01*
X66833Y-63217D01*
X66777Y-63273D01*
X66664Y-63329D01*
X66496Y-63329D01*
X67564Y-63329D02*
X67452Y-63273D01*
X67395Y-63160D01*
X67395Y-62148D01*
X68464Y-63273D02*
X68352Y-63329D01*
X68127Y-63329D01*
X68014Y-63273D01*
X67958Y-63160D01*
X67958Y-62710D01*
X68014Y-62598D01*
X68127Y-62542D01*
X68352Y-62542D01*
X68464Y-62598D01*
X68520Y-62710D01*
X68520Y-62823D01*
X67958Y-62935D01*
X68970Y-63273D02*
X69083Y-63329D01*
X69308Y-63329D01*
X69420Y-63273D01*
X69476Y-63160D01*
X69476Y-63104D01*
X69420Y-62992D01*
X69308Y-62935D01*
X69139Y-62935D01*
X69026Y-62879D01*
X68970Y-62767D01*
X68970Y-62710D01*
X69026Y-62598D01*
X69139Y-62542D01*
X69308Y-62542D01*
X69420Y-62598D01*
X69870Y-63779D02*
X69926Y-63723D01*
X70039Y-63554D01*
X70095Y-63442D01*
X70151Y-63273D01*
X70208Y-62992D01*
X70208Y-62767D01*
X70151Y-62485D01*
X70095Y-62317D01*
X70039Y-62204D01*
X69926Y-62035D01*
X69870Y-61979D01*
X42835Y-64138D02*
X43267Y-64570D01*
X43267Y-64138D02*
X42835Y-64570D01*
X43051Y-64138D02*
X43051Y-64570D01*
X42835Y-64354D02*
X43267Y-64354D01*
X44955Y-64888D02*
X44280Y-64888D01*
X44617Y-64888D02*
X44617Y-63707D01*
X44505Y-63876D01*
X44392Y-63988D01*
X44280Y-64044D01*
X45461Y-64776D02*
X45517Y-64832D01*
X45461Y-64888D01*
X45404Y-64832D01*
X45461Y-64776D01*
X45461Y-64888D01*
X46642Y-64888D02*
X45967Y-64888D01*
X46304Y-64888D02*
X46304Y-63707D01*
X46192Y-63876D01*
X46079Y-63988D01*
X45967Y-64044D01*
X47373Y-63707D02*
X47485Y-63707D01*
X47598Y-63763D01*
X47654Y-63820D01*
X47710Y-63932D01*
X47767Y-64157D01*
X47767Y-64438D01*
X47710Y-64663D01*
X47654Y-64776D01*
X47598Y-64832D01*
X47485Y-64888D01*
X47373Y-64888D01*
X47260Y-64832D01*
X47204Y-64776D01*
X47148Y-64663D01*
X47092Y-64438D01*
X47092Y-64157D01*
X47148Y-63932D01*
X47204Y-63820D01*
X47260Y-63763D01*
X47373Y-63707D01*
X48273Y-64888D02*
X48273Y-64101D01*
X48273Y-64213D02*
X48329Y-64157D01*
X48442Y-64101D01*
X48610Y-64101D01*
X48723Y-64157D01*
X48779Y-64269D01*
X48779Y-64888D01*
X48779Y-64269D02*
X48835Y-64157D01*
X48948Y-64101D01*
X49116Y-64101D01*
X49229Y-64157D01*
X49285Y-64269D01*
X49285Y-64888D01*
X49848Y-64888D02*
X49848Y-64101D01*
X49848Y-64213D02*
X49904Y-64157D01*
X50016Y-64101D01*
X50185Y-64101D01*
X50298Y-64157D01*
X50354Y-64269D01*
X50354Y-64888D01*
X50354Y-64269D02*
X50410Y-64157D01*
X50523Y-64101D01*
X50691Y-64101D01*
X50804Y-64157D01*
X50860Y-64269D01*
X50860Y-64888D01*
X53166Y-63651D02*
X52154Y-65169D01*
X54685Y-63707D02*
X54797Y-63707D01*
X54910Y-63763D01*
X54966Y-63820D01*
X55022Y-63932D01*
X55078Y-64157D01*
X55078Y-64438D01*
X55022Y-64663D01*
X54966Y-64776D01*
X54910Y-64832D01*
X54797Y-64888D01*
X54685Y-64888D01*
X54572Y-64832D01*
X54516Y-64776D01*
X54460Y-64663D01*
X54403Y-64438D01*
X54403Y-64157D01*
X54460Y-63932D01*
X54516Y-63820D01*
X54572Y-63763D01*
X54685Y-63707D01*
X55584Y-64776D02*
X55641Y-64832D01*
X55584Y-64888D01*
X55528Y-64832D01*
X55584Y-64776D01*
X55584Y-64888D01*
X56372Y-63707D02*
X56484Y-63707D01*
X56597Y-63763D01*
X56653Y-63820D01*
X56709Y-63932D01*
X56766Y-64157D01*
X56766Y-64438D01*
X56709Y-64663D01*
X56653Y-64776D01*
X56597Y-64832D01*
X56484Y-64888D01*
X56372Y-64888D01*
X56259Y-64832D01*
X56203Y-64776D01*
X56147Y-64663D01*
X56091Y-64438D01*
X56091Y-64157D01*
X56147Y-63932D01*
X56203Y-63820D01*
X56259Y-63763D01*
X56372Y-63707D01*
X57778Y-64101D02*
X57778Y-64888D01*
X57497Y-63651D02*
X57215Y-64494D01*
X57947Y-64494D01*
X58284Y-63707D02*
X59015Y-63707D01*
X58622Y-64157D01*
X58790Y-64157D01*
X58903Y-64213D01*
X58959Y-64269D01*
X59015Y-64382D01*
X59015Y-64663D01*
X58959Y-64776D01*
X58903Y-64832D01*
X58790Y-64888D01*
X58453Y-64888D01*
X58340Y-64832D01*
X58284Y-64776D01*
X59465Y-63707D02*
X59465Y-63932D01*
X59915Y-63707D02*
X59915Y-63932D01*
X61659Y-65338D02*
X61602Y-65282D01*
X61490Y-65113D01*
X61434Y-65001D01*
X61377Y-64832D01*
X61321Y-64551D01*
X61321Y-64326D01*
X61377Y-64044D01*
X61434Y-63876D01*
X61490Y-63763D01*
X61602Y-63595D01*
X61659Y-63538D01*
X62052Y-63820D02*
X62109Y-63763D01*
X62221Y-63707D01*
X62502Y-63707D01*
X62615Y-63763D01*
X62671Y-63820D01*
X62727Y-63932D01*
X62727Y-64044D01*
X62671Y-64213D01*
X61996Y-64888D01*
X62727Y-64888D01*
X64133Y-64888D02*
X64133Y-63707D01*
X64640Y-64888D02*
X64640Y-64269D01*
X64583Y-64157D01*
X64471Y-64101D01*
X64302Y-64101D01*
X64190Y-64157D01*
X64133Y-64213D01*
X65371Y-64888D02*
X65258Y-64832D01*
X65202Y-64776D01*
X65146Y-64663D01*
X65146Y-64326D01*
X65202Y-64213D01*
X65258Y-64157D01*
X65371Y-64101D01*
X65539Y-64101D01*
X65652Y-64157D01*
X65708Y-64213D01*
X65764Y-64326D01*
X65764Y-64663D01*
X65708Y-64776D01*
X65652Y-64832D01*
X65539Y-64888D01*
X65371Y-64888D01*
X66439Y-64888D02*
X66327Y-64832D01*
X66271Y-64719D01*
X66271Y-63707D01*
X67339Y-64832D02*
X67227Y-64888D01*
X67002Y-64888D01*
X66889Y-64832D01*
X66833Y-64719D01*
X66833Y-64269D01*
X66889Y-64157D01*
X67002Y-64101D01*
X67227Y-64101D01*
X67339Y-64157D01*
X67395Y-64269D01*
X67395Y-64382D01*
X66833Y-64494D01*
X67845Y-64832D02*
X67958Y-64888D01*
X68183Y-64888D01*
X68295Y-64832D01*
X68352Y-64719D01*
X68352Y-64663D01*
X68295Y-64551D01*
X68183Y-64494D01*
X68014Y-64494D01*
X67902Y-64438D01*
X67845Y-64326D01*
X67845Y-64269D01*
X67902Y-64157D01*
X68014Y-64101D01*
X68183Y-64101D01*
X68295Y-64157D01*
X68745Y-65338D02*
X68802Y-65282D01*
X68914Y-65113D01*
X68970Y-65001D01*
X69026Y-64832D01*
X69083Y-64551D01*
X69083Y-64326D01*
X69026Y-64044D01*
X68970Y-63876D01*
X68914Y-63763D01*
X68802Y-63595D01*
X68745Y-63538D01*
X42007Y-65283D02*
X43267Y-66543D01*
X43267Y-65283D02*
X42007Y-66543D01*
G54D11*
X43083Y-66358D02*
X43083Y-65467D01*
X42192Y-65467D01*
X42192Y-66358D01*
X43083Y-66358D01*
G54D12*
X44223Y-65266D02*
X44955Y-65266D01*
X44561Y-65716D01*
X44730Y-65716D01*
X44842Y-65772D01*
X44898Y-65829D01*
X44955Y-65941D01*
X44955Y-66222D01*
X44898Y-66335D01*
X44842Y-66391D01*
X44730Y-66447D01*
X44392Y-66447D01*
X44280Y-66391D01*
X44223Y-66335D01*
X45461Y-66335D02*
X45517Y-66391D01*
X45461Y-66447D01*
X45404Y-66391D01*
X45461Y-66335D01*
X45461Y-66447D01*
X45967Y-65379D02*
X46023Y-65322D01*
X46136Y-65266D01*
X46417Y-65266D01*
X46529Y-65322D01*
X46586Y-65379D01*
X46642Y-65491D01*
X46642Y-65604D01*
X46586Y-65772D01*
X45911Y-66447D01*
X46642Y-66447D01*
X47373Y-65266D02*
X47485Y-65266D01*
X47598Y-65322D01*
X47654Y-65379D01*
X47710Y-65491D01*
X47767Y-65716D01*
X47767Y-65997D01*
X47710Y-66222D01*
X47654Y-66335D01*
X47598Y-66391D01*
X47485Y-66447D01*
X47373Y-66447D01*
X47260Y-66391D01*
X47204Y-66335D01*
X47148Y-66222D01*
X47092Y-65997D01*
X47092Y-65716D01*
X47148Y-65491D01*
X47204Y-65379D01*
X47260Y-65322D01*
X47373Y-65266D01*
X48273Y-66447D02*
X48273Y-65660D01*
X48273Y-65772D02*
X48329Y-65716D01*
X48442Y-65660D01*
X48610Y-65660D01*
X48723Y-65716D01*
X48779Y-65829D01*
X48779Y-66447D01*
X48779Y-65829D02*
X48835Y-65716D01*
X48948Y-65660D01*
X49116Y-65660D01*
X49229Y-65716D01*
X49285Y-65829D01*
X49285Y-66447D01*
X49848Y-66447D02*
X49848Y-65660D01*
X49848Y-65772D02*
X49904Y-65716D01*
X50016Y-65660D01*
X50185Y-65660D01*
X50298Y-65716D01*
X50354Y-65829D01*
X50354Y-66447D01*
X50354Y-65829D02*
X50410Y-65716D01*
X50523Y-65660D01*
X50691Y-65660D01*
X50804Y-65716D01*
X50860Y-65829D01*
X50860Y-66447D01*
X53166Y-65210D02*
X52154Y-66728D01*
X54685Y-65266D02*
X54797Y-65266D01*
X54910Y-65322D01*
X54966Y-65379D01*
X55022Y-65491D01*
X55078Y-65716D01*
X55078Y-65997D01*
X55022Y-66222D01*
X54966Y-66335D01*
X54910Y-66391D01*
X54797Y-66447D01*
X54685Y-66447D01*
X54572Y-66391D01*
X54516Y-66335D01*
X54460Y-66222D01*
X54403Y-65997D01*
X54403Y-65716D01*
X54460Y-65491D01*
X54516Y-65379D01*
X54572Y-65322D01*
X54685Y-65266D01*
X55584Y-66335D02*
X55641Y-66391D01*
X55584Y-66447D01*
X55528Y-66391D01*
X55584Y-66335D01*
X55584Y-66447D01*
X56766Y-66447D02*
X56091Y-66447D01*
X56428Y-66447D02*
X56428Y-65266D01*
X56316Y-65435D01*
X56203Y-65547D01*
X56091Y-65604D01*
X57215Y-65379D02*
X57272Y-65322D01*
X57384Y-65266D01*
X57665Y-65266D01*
X57778Y-65322D01*
X57834Y-65379D01*
X57890Y-65491D01*
X57890Y-65604D01*
X57834Y-65772D01*
X57159Y-66447D01*
X57890Y-66447D01*
X58903Y-65266D02*
X58678Y-65266D01*
X58565Y-65322D01*
X58509Y-65379D01*
X58397Y-65547D01*
X58340Y-65772D01*
X58340Y-66222D01*
X58397Y-66335D01*
X58453Y-66391D01*
X58565Y-66447D01*
X58790Y-66447D01*
X58903Y-66391D01*
X58959Y-66335D01*
X59015Y-66222D01*
X59015Y-65941D01*
X58959Y-65829D01*
X58903Y-65772D01*
X58790Y-65716D01*
X58565Y-65716D01*
X58453Y-65772D01*
X58397Y-65829D01*
X58340Y-65941D01*
X59465Y-65266D02*
X59465Y-65491D01*
X59915Y-65266D02*
X59915Y-65491D01*
X61659Y-66897D02*
X61602Y-66841D01*
X61490Y-66672D01*
X61434Y-66560D01*
X61377Y-66391D01*
X61321Y-66110D01*
X61321Y-65885D01*
X61377Y-65604D01*
X61434Y-65435D01*
X61490Y-65322D01*
X61602Y-65154D01*
X61659Y-65097D01*
X62615Y-65660D02*
X62615Y-66447D01*
X62334Y-65210D02*
X62052Y-66053D01*
X62784Y-66053D01*
X64133Y-66447D02*
X64133Y-65266D01*
X64640Y-66447D02*
X64640Y-65829D01*
X64583Y-65716D01*
X64471Y-65660D01*
X64302Y-65660D01*
X64190Y-65716D01*
X64133Y-65772D01*
X65371Y-66447D02*
X65258Y-66391D01*
X65202Y-66335D01*
X65146Y-66222D01*
X65146Y-65885D01*
X65202Y-65772D01*
X65258Y-65716D01*
X65371Y-65660D01*
X65539Y-65660D01*
X65652Y-65716D01*
X65708Y-65772D01*
X65764Y-65885D01*
X65764Y-66222D01*
X65708Y-66335D01*
X65652Y-66391D01*
X65539Y-66447D01*
X65371Y-66447D01*
X66439Y-66447D02*
X66327Y-66391D01*
X66271Y-66278D01*
X66271Y-65266D01*
X67339Y-66391D02*
X67227Y-66447D01*
X67002Y-66447D01*
X66889Y-66391D01*
X66833Y-66278D01*
X66833Y-65829D01*
X66889Y-65716D01*
X67002Y-65660D01*
X67227Y-65660D01*
X67339Y-65716D01*
X67395Y-65829D01*
X67395Y-65941D01*
X66833Y-66053D01*
X67845Y-66391D02*
X67958Y-66447D01*
X68183Y-66447D01*
X68295Y-66391D01*
X68352Y-66278D01*
X68352Y-66222D01*
X68295Y-66110D01*
X68183Y-66053D01*
X68014Y-66053D01*
X67902Y-65997D01*
X67845Y-65885D01*
X67845Y-65829D01*
X67902Y-65716D01*
X68014Y-65660D01*
X68183Y-65660D01*
X68295Y-65716D01*
X68745Y-66897D02*
X68802Y-66841D01*
X68914Y-66672D01*
X68970Y-66560D01*
X69026Y-66391D01*
X69083Y-66110D01*
X69083Y-65885D01*
X69026Y-65604D01*
X68970Y-65435D01*
X68914Y-65322D01*
X68802Y-65154D01*
X68745Y-65097D01*
M02*
