G04 (created by PCBNEW (2013-07-07 BZR 4022)-stable) date 10/22/2013 6:32:42 PM*
%MOIN*%
G04 Gerber Fmt 3.4, Leading zero omitted, Abs format*
%FSLAX34Y34*%
G01*
G70*
G90*
G04 APERTURE LIST*
%ADD10C,0.00590551*%
%ADD11C,0.00787402*%
%ADD12C,0.0354331*%
%ADD13R,0.021574X0.055074*%
%ADD14R,0.021674X0.055074*%
%ADD15R,0.055074X0.066974*%
%ADD16R,0.0433071X0.0551181*%
%ADD17R,0.037448X0.055148*%
%ADD18R,0.0253X0.0273*%
%ADD19R,0.0273X0.0253*%
%ADD20R,0.0392X0.0353*%
%ADD21R,0.0273X0.0273*%
%ADD22O,0.0273X0.0155*%
%ADD23R,0.0273X0.0155*%
%ADD24C,0.251948*%
%ADD25C,0.0314961*%
%ADD26C,0.251968*%
%ADD27R,0.0314992X0.106299*%
%ADD28R,0.0314992X0.191299*%
%ADD29R,0.0633992X0.0180992*%
%ADD30C,0.0653992*%
%ADD31R,0.036174X0.019274*%
%ADD32R,0.037374X0.055074*%
%ADD33R,0.031474X0.055074*%
%ADD34R,0.0216992X0.00849921*%
%ADD35R,0.0238992X0.00849921*%
%ADD36R,0.0260992X0.00849921*%
%ADD37R,0.0106992X0.00849921*%
%ADD38R,0.0128992X0.00849921*%
%ADD39R,0.0150992X0.00849921*%
%ADD40R,0.0172992X0.00849921*%
%ADD41R,0.0370992X0.00849921*%
%ADD42R,0.0480992X0.00849921*%
%ADD43R,0.0282992X0.00849921*%
%ADD44R,0.100899X0.00849921*%
%ADD45R,0.0964992X0.00849921*%
%ADD46R,0.0920992X0.00849921*%
%ADD47R,0.0898992X0.00849921*%
%ADD48R,0.0876992X0.00849921*%
%ADD49R,0.0832992X0.00849921*%
%ADD50R,0.0436992X0.00849921*%
%ADD51R,0.0392992X0.00849921*%
%ADD52R,0.0414992X0.00849921*%
%ADD53R,0.0458992X0.00849921*%
%ADD54R,0.0502992X0.00849921*%
%ADD55R,0.0524992X0.00849921*%
%ADD56R,0.0348992X0.00849921*%
%ADD57R,0.00849921X0.00849921*%
%ADD58R,0.0194992X0.00849921*%
%ADD59R,0.063637X0.063637*%
%ADD60C,0.063637*%
%ADD61C,0.111837*%
%ADD62C,0.090537*%
%ADD63R,0.0275591X0.015748*%
%ADD64R,0.015748X0.0275591*%
%ADD65R,0.0925197X0.0925197*%
%ADD66R,0.019685X0.0137795*%
%ADD67R,0.0137795X0.019685*%
%ADD68R,0.137795X0.137795*%
%ADD69R,0.0433071X0.0433071*%
%ADD70R,0.203937X0.073937*%
%ADD71R,0.059037X0.039337*%
%ADD72R,0.043337X0.025637*%
%ADD73R,0.025637X0.043337*%
%ADD74C,0.185039*%
%ADD75C,0.0393701*%
%ADD76C,0.0629921*%
%ADD77R,0.039337X0.059037*%
%ADD78R,0.0298992X0.0928992*%
%ADD79R,0.140199X0.107099*%
%ADD80R,0.0433071X0.015748*%
G04 APERTURE END LIST*
G54D10*
X4000Y-4000D02*
X112930Y-4000D01*
X112930Y-78680D01*
X4000Y-78680D01*
X4000Y-4000D01*
X4700Y-4700D02*
X112230Y-4700D01*
X112230Y-77980D01*
X4700Y-77980D01*
X4700Y-4700D01*
X25780Y-4000D02*
X25780Y-4700D01*
X15032Y-4552D02*
X14747Y-4552D01*
X14890Y-4552D02*
X14890Y-4052D01*
X14842Y-4123D01*
X14794Y-4171D01*
X14747Y-4195D01*
X25780Y-78680D02*
X25780Y-77980D01*
X15032Y-78532D02*
X14747Y-78532D01*
X14890Y-78532D02*
X14890Y-78032D01*
X14842Y-78103D01*
X14794Y-78151D01*
X14747Y-78175D01*
X47560Y-4000D02*
X47560Y-4700D01*
X36527Y-4100D02*
X36550Y-4076D01*
X36598Y-4052D01*
X36717Y-4052D01*
X36765Y-4076D01*
X36789Y-4100D01*
X36812Y-4147D01*
X36812Y-4195D01*
X36789Y-4266D01*
X36503Y-4552D01*
X36812Y-4552D01*
X47560Y-78680D02*
X47560Y-77980D01*
X36527Y-78080D02*
X36550Y-78056D01*
X36598Y-78032D01*
X36717Y-78032D01*
X36765Y-78056D01*
X36789Y-78080D01*
X36812Y-78127D01*
X36812Y-78175D01*
X36789Y-78246D01*
X36503Y-78532D01*
X36812Y-78532D01*
X69340Y-4000D02*
X69340Y-4700D01*
X58283Y-4052D02*
X58592Y-4052D01*
X58426Y-4242D01*
X58497Y-4242D01*
X58545Y-4266D01*
X58569Y-4290D01*
X58592Y-4338D01*
X58592Y-4457D01*
X58569Y-4504D01*
X58545Y-4528D01*
X58497Y-4552D01*
X58354Y-4552D01*
X58307Y-4528D01*
X58283Y-4504D01*
X69340Y-78680D02*
X69340Y-77980D01*
X58283Y-78032D02*
X58592Y-78032D01*
X58426Y-78222D01*
X58497Y-78222D01*
X58545Y-78246D01*
X58569Y-78270D01*
X58592Y-78318D01*
X58592Y-78437D01*
X58569Y-78484D01*
X58545Y-78508D01*
X58497Y-78532D01*
X58354Y-78532D01*
X58307Y-78508D01*
X58283Y-78484D01*
X91120Y-4000D02*
X91120Y-4700D01*
X80325Y-4219D02*
X80325Y-4552D01*
X80206Y-4028D02*
X80087Y-4385D01*
X80396Y-4385D01*
X91120Y-78680D02*
X91120Y-77980D01*
X80325Y-78199D02*
X80325Y-78532D01*
X80206Y-78008D02*
X80087Y-78365D01*
X80396Y-78365D01*
X102129Y-4052D02*
X101890Y-4052D01*
X101867Y-4290D01*
X101890Y-4266D01*
X101938Y-4242D01*
X102057Y-4242D01*
X102105Y-4266D01*
X102129Y-4290D01*
X102152Y-4338D01*
X102152Y-4457D01*
X102129Y-4504D01*
X102105Y-4528D01*
X102057Y-4552D01*
X101938Y-4552D01*
X101890Y-4528D01*
X101867Y-4504D01*
X102129Y-78032D02*
X101890Y-78032D01*
X101867Y-78270D01*
X101890Y-78246D01*
X101938Y-78222D01*
X102057Y-78222D01*
X102105Y-78246D01*
X102129Y-78270D01*
X102152Y-78318D01*
X102152Y-78437D01*
X102129Y-78484D01*
X102105Y-78508D01*
X102057Y-78532D01*
X101938Y-78532D01*
X101890Y-78508D01*
X101867Y-78484D01*
X4000Y-28890D02*
X4700Y-28890D01*
X4230Y-16509D02*
X4469Y-16509D01*
X4183Y-16652D02*
X4350Y-16152D01*
X4516Y-16652D01*
X112930Y-28890D02*
X112230Y-28890D01*
X112460Y-16509D02*
X112699Y-16509D01*
X112413Y-16652D02*
X112580Y-16152D01*
X112746Y-16652D01*
X4000Y-53780D02*
X4700Y-53780D01*
X4385Y-41280D02*
X4457Y-41304D01*
X4480Y-41328D01*
X4504Y-41375D01*
X4504Y-41447D01*
X4480Y-41494D01*
X4457Y-41518D01*
X4409Y-41542D01*
X4219Y-41542D01*
X4219Y-41042D01*
X4385Y-41042D01*
X4433Y-41066D01*
X4457Y-41090D01*
X4480Y-41137D01*
X4480Y-41185D01*
X4457Y-41232D01*
X4433Y-41256D01*
X4385Y-41280D01*
X4219Y-41280D01*
X112930Y-53780D02*
X112230Y-53780D01*
X112615Y-41280D02*
X112687Y-41304D01*
X112710Y-41328D01*
X112734Y-41375D01*
X112734Y-41447D01*
X112710Y-41494D01*
X112687Y-41518D01*
X112639Y-41542D01*
X112449Y-41542D01*
X112449Y-41042D01*
X112615Y-41042D01*
X112663Y-41066D01*
X112687Y-41090D01*
X112710Y-41137D01*
X112710Y-41185D01*
X112687Y-41232D01*
X112663Y-41256D01*
X112615Y-41280D01*
X112449Y-41280D01*
X4504Y-66384D02*
X4480Y-66408D01*
X4409Y-66432D01*
X4361Y-66432D01*
X4290Y-66408D01*
X4242Y-66360D01*
X4219Y-66313D01*
X4195Y-66218D01*
X4195Y-66146D01*
X4219Y-66051D01*
X4242Y-66003D01*
X4290Y-65956D01*
X4361Y-65932D01*
X4409Y-65932D01*
X4480Y-65956D01*
X4504Y-65980D01*
X112734Y-66384D02*
X112710Y-66408D01*
X112639Y-66432D01*
X112591Y-66432D01*
X112520Y-66408D01*
X112472Y-66360D01*
X112449Y-66313D01*
X112425Y-66218D01*
X112425Y-66146D01*
X112449Y-66051D01*
X112472Y-66003D01*
X112520Y-65956D01*
X112591Y-65932D01*
X112639Y-65932D01*
X112710Y-65956D01*
X112734Y-65980D01*
X79380Y-76422D02*
X79455Y-75822D01*
X79597Y-75822D01*
X79680Y-75851D01*
X79730Y-75908D01*
X79751Y-75965D01*
X79765Y-76080D01*
X79755Y-76165D01*
X79712Y-76280D01*
X79676Y-76337D01*
X79612Y-76394D01*
X79522Y-76422D01*
X79380Y-76422D01*
X80237Y-76422D02*
X80276Y-76108D01*
X80255Y-76051D01*
X80201Y-76022D01*
X80087Y-76022D01*
X80026Y-76051D01*
X80240Y-76394D02*
X80180Y-76422D01*
X80037Y-76422D01*
X79983Y-76394D01*
X79962Y-76337D01*
X79969Y-76280D01*
X80005Y-76222D01*
X80065Y-76194D01*
X80208Y-76194D01*
X80269Y-76165D01*
X80487Y-76022D02*
X80715Y-76022D01*
X80597Y-75822D02*
X80533Y-76337D01*
X80555Y-76394D01*
X80608Y-76422D01*
X80665Y-76422D01*
X81097Y-76394D02*
X81037Y-76422D01*
X80922Y-76422D01*
X80869Y-76394D01*
X80847Y-76337D01*
X80876Y-76108D01*
X80912Y-76051D01*
X80972Y-76022D01*
X81087Y-76022D01*
X81140Y-76051D01*
X81162Y-76108D01*
X81155Y-76165D01*
X80862Y-76222D01*
X81387Y-76365D02*
X81412Y-76394D01*
X81380Y-76422D01*
X81355Y-76394D01*
X81387Y-76365D01*
X81380Y-76422D01*
X81426Y-76051D02*
X81451Y-76080D01*
X81419Y-76108D01*
X81394Y-76080D01*
X81426Y-76051D01*
X81419Y-76108D01*
X82162Y-75880D02*
X82194Y-75851D01*
X82255Y-75822D01*
X82397Y-75822D01*
X82451Y-75851D01*
X82476Y-75880D01*
X82497Y-75937D01*
X82490Y-75994D01*
X82451Y-76080D01*
X82065Y-76422D01*
X82437Y-76422D01*
X82733Y-75880D02*
X82765Y-75851D01*
X82826Y-75822D01*
X82969Y-75822D01*
X83022Y-75851D01*
X83047Y-75880D01*
X83069Y-75937D01*
X83062Y-75994D01*
X83022Y-76080D01*
X82637Y-76422D01*
X83008Y-76422D01*
X83808Y-76422D02*
X83755Y-76394D01*
X83730Y-76365D01*
X83708Y-76308D01*
X83730Y-76137D01*
X83765Y-76080D01*
X83797Y-76051D01*
X83858Y-76022D01*
X83944Y-76022D01*
X83997Y-76051D01*
X84022Y-76080D01*
X84044Y-76137D01*
X84022Y-76308D01*
X83987Y-76365D01*
X83955Y-76394D01*
X83894Y-76422D01*
X83808Y-76422D01*
X84526Y-76394D02*
X84465Y-76422D01*
X84351Y-76422D01*
X84297Y-76394D01*
X84272Y-76365D01*
X84251Y-76308D01*
X84272Y-76137D01*
X84308Y-76080D01*
X84340Y-76051D01*
X84401Y-76022D01*
X84515Y-76022D01*
X84569Y-76051D01*
X84744Y-76022D02*
X84972Y-76022D01*
X84855Y-75822D02*
X84790Y-76337D01*
X84812Y-76394D01*
X84865Y-76422D01*
X84922Y-76422D01*
X85619Y-75880D02*
X85651Y-75851D01*
X85712Y-75822D01*
X85855Y-75822D01*
X85908Y-75851D01*
X85933Y-75880D01*
X85955Y-75937D01*
X85947Y-75994D01*
X85908Y-76080D01*
X85522Y-76422D01*
X85894Y-76422D01*
X86340Y-75822D02*
X86397Y-75822D01*
X86451Y-75851D01*
X86476Y-75880D01*
X86497Y-75937D01*
X86512Y-76051D01*
X86494Y-76194D01*
X86451Y-76308D01*
X86415Y-76365D01*
X86383Y-76394D01*
X86322Y-76422D01*
X86265Y-76422D01*
X86212Y-76394D01*
X86187Y-76365D01*
X86165Y-76308D01*
X86151Y-76194D01*
X86169Y-76051D01*
X86212Y-75937D01*
X86247Y-75880D01*
X86280Y-75851D01*
X86340Y-75822D01*
X87037Y-76422D02*
X86694Y-76422D01*
X86865Y-76422D02*
X86940Y-75822D01*
X86872Y-75908D01*
X86808Y-75965D01*
X86747Y-75994D01*
X87312Y-75822D02*
X87683Y-75822D01*
X87455Y-76051D01*
X87540Y-76051D01*
X87594Y-76080D01*
X87619Y-76108D01*
X87640Y-76165D01*
X87622Y-76308D01*
X87587Y-76365D01*
X87555Y-76394D01*
X87494Y-76422D01*
X87322Y-76422D01*
X87269Y-76394D01*
X87244Y-76365D01*
X70972Y-77622D02*
X70972Y-77022D01*
X71315Y-77622D02*
X71058Y-77280D01*
X71315Y-77022D02*
X70972Y-77365D01*
X71572Y-77622D02*
X71572Y-77222D01*
X71572Y-77022D02*
X71544Y-77051D01*
X71572Y-77080D01*
X71601Y-77051D01*
X71572Y-77022D01*
X71572Y-77080D01*
X72201Y-77565D02*
X72172Y-77594D01*
X72087Y-77622D01*
X72030Y-77622D01*
X71944Y-77594D01*
X71887Y-77537D01*
X71858Y-77480D01*
X71830Y-77365D01*
X71830Y-77280D01*
X71858Y-77165D01*
X71887Y-77108D01*
X71944Y-77051D01*
X72030Y-77022D01*
X72087Y-77022D01*
X72172Y-77051D01*
X72201Y-77080D01*
X72715Y-77622D02*
X72715Y-77308D01*
X72687Y-77251D01*
X72630Y-77222D01*
X72515Y-77222D01*
X72458Y-77251D01*
X72715Y-77594D02*
X72658Y-77622D01*
X72515Y-77622D01*
X72458Y-77594D01*
X72430Y-77537D01*
X72430Y-77480D01*
X72458Y-77422D01*
X72515Y-77394D01*
X72658Y-77394D01*
X72715Y-77365D01*
X73258Y-77622D02*
X73258Y-77022D01*
X73258Y-77594D02*
X73201Y-77622D01*
X73087Y-77622D01*
X73030Y-77594D01*
X73001Y-77565D01*
X72972Y-77508D01*
X72972Y-77337D01*
X73001Y-77280D01*
X73030Y-77251D01*
X73087Y-77222D01*
X73201Y-77222D01*
X73258Y-77251D01*
X74001Y-77308D02*
X74201Y-77308D01*
X74287Y-77622D02*
X74001Y-77622D01*
X74001Y-77022D01*
X74287Y-77022D01*
X74544Y-77565D02*
X74572Y-77594D01*
X74544Y-77622D01*
X74515Y-77594D01*
X74544Y-77565D01*
X74544Y-77622D01*
X74829Y-77622D02*
X74829Y-77022D01*
X74972Y-77022D01*
X75058Y-77051D01*
X75115Y-77108D01*
X75144Y-77165D01*
X75172Y-77280D01*
X75172Y-77365D01*
X75144Y-77480D01*
X75115Y-77537D01*
X75058Y-77594D01*
X74972Y-77622D01*
X74829Y-77622D01*
X75429Y-77565D02*
X75458Y-77594D01*
X75429Y-77622D01*
X75401Y-77594D01*
X75429Y-77565D01*
X75429Y-77622D01*
X75687Y-77451D02*
X75972Y-77451D01*
X75629Y-77622D02*
X75829Y-77022D01*
X76029Y-77622D01*
X76229Y-77565D02*
X76258Y-77594D01*
X76229Y-77622D01*
X76201Y-77594D01*
X76229Y-77565D01*
X76229Y-77622D01*
X104522Y-76422D02*
X104358Y-76137D01*
X104180Y-76422D02*
X104255Y-75822D01*
X104483Y-75822D01*
X104537Y-75851D01*
X104562Y-75880D01*
X104583Y-75937D01*
X104572Y-76022D01*
X104537Y-76080D01*
X104505Y-76108D01*
X104444Y-76137D01*
X104215Y-76137D01*
X105012Y-76394D02*
X104951Y-76422D01*
X104837Y-76422D01*
X104783Y-76394D01*
X104762Y-76337D01*
X104790Y-76108D01*
X104826Y-76051D01*
X104887Y-76022D01*
X105001Y-76022D01*
X105055Y-76051D01*
X105076Y-76108D01*
X105069Y-76165D01*
X104776Y-76222D01*
X105287Y-76022D02*
X105380Y-76422D01*
X105572Y-76022D01*
X105758Y-76365D02*
X105783Y-76394D01*
X105751Y-76422D01*
X105726Y-76394D01*
X105758Y-76365D01*
X105751Y-76422D01*
X105797Y-76051D02*
X105822Y-76080D01*
X105790Y-76108D01*
X105765Y-76080D01*
X105797Y-76051D01*
X105790Y-76108D01*
X106683Y-75822D02*
X106740Y-75822D01*
X106794Y-75851D01*
X106819Y-75880D01*
X106840Y-75937D01*
X106855Y-76051D01*
X106837Y-76194D01*
X106794Y-76308D01*
X106758Y-76365D01*
X106726Y-76394D01*
X106665Y-76422D01*
X106608Y-76422D01*
X106555Y-76394D01*
X106530Y-76365D01*
X106508Y-76308D01*
X106494Y-76194D01*
X106512Y-76051D01*
X106555Y-75937D01*
X106590Y-75880D01*
X106622Y-75851D01*
X106683Y-75822D01*
X70944Y-76394D02*
X71030Y-76422D01*
X71172Y-76422D01*
X71230Y-76394D01*
X71258Y-76365D01*
X71287Y-76308D01*
X71287Y-76251D01*
X71258Y-76194D01*
X71230Y-76165D01*
X71172Y-76137D01*
X71058Y-76108D01*
X71001Y-76080D01*
X70972Y-76051D01*
X70944Y-75994D01*
X70944Y-75937D01*
X70972Y-75880D01*
X71001Y-75851D01*
X71058Y-75822D01*
X71201Y-75822D01*
X71287Y-75851D01*
X71544Y-76422D02*
X71544Y-76022D01*
X71544Y-75822D02*
X71515Y-75851D01*
X71544Y-75880D01*
X71572Y-75851D01*
X71544Y-75822D01*
X71544Y-75880D01*
X71772Y-76022D02*
X72087Y-76022D01*
X71772Y-76422D01*
X72087Y-76422D01*
X72544Y-76394D02*
X72487Y-76422D01*
X72372Y-76422D01*
X72315Y-76394D01*
X72287Y-76337D01*
X72287Y-76108D01*
X72315Y-76051D01*
X72372Y-76022D01*
X72487Y-76022D01*
X72544Y-76051D01*
X72572Y-76108D01*
X72572Y-76165D01*
X72287Y-76222D01*
X72830Y-76365D02*
X72858Y-76394D01*
X72830Y-76422D01*
X72801Y-76394D01*
X72830Y-76365D01*
X72830Y-76422D01*
X72830Y-76051D02*
X72858Y-76080D01*
X72830Y-76108D01*
X72801Y-76080D01*
X72830Y-76051D01*
X72830Y-76108D01*
X73544Y-76251D02*
X73830Y-76251D01*
X73487Y-76422D02*
X73687Y-75822D01*
X73887Y-76422D01*
X74344Y-76022D02*
X74344Y-76422D01*
X74201Y-75794D02*
X74058Y-76222D01*
X74430Y-76222D01*
X104172Y-77622D02*
X104172Y-77022D01*
X104715Y-77622D02*
X104715Y-77022D01*
X104715Y-77594D02*
X104658Y-77622D01*
X104544Y-77622D01*
X104487Y-77594D01*
X104458Y-77565D01*
X104430Y-77508D01*
X104430Y-77337D01*
X104458Y-77280D01*
X104487Y-77251D01*
X104544Y-77222D01*
X104658Y-77222D01*
X104715Y-77251D01*
X105001Y-77565D02*
X105030Y-77594D01*
X105001Y-77622D01*
X104972Y-77594D01*
X105001Y-77565D01*
X105001Y-77622D01*
X105001Y-77251D02*
X105030Y-77280D01*
X105001Y-77308D01*
X104972Y-77280D01*
X105001Y-77251D01*
X105001Y-77308D01*
X106058Y-77622D02*
X105715Y-77622D01*
X105887Y-77622D02*
X105887Y-77022D01*
X105829Y-77108D01*
X105772Y-77165D01*
X105715Y-77194D01*
X106744Y-76994D02*
X106230Y-77765D01*
X107258Y-77622D02*
X106915Y-77622D01*
X107087Y-77622D02*
X107087Y-77022D01*
X107029Y-77108D01*
X106972Y-77165D01*
X106915Y-77194D01*
X70969Y-74622D02*
X71312Y-74622D01*
X71065Y-75222D02*
X71140Y-74622D01*
X71437Y-75222D02*
X71487Y-74822D01*
X71512Y-74622D02*
X71480Y-74651D01*
X71505Y-74680D01*
X71537Y-74651D01*
X71512Y-74622D01*
X71505Y-74680D01*
X71687Y-74822D02*
X71915Y-74822D01*
X71797Y-74622D02*
X71733Y-75137D01*
X71755Y-75194D01*
X71808Y-75222D01*
X71865Y-75222D01*
X72151Y-75222D02*
X72097Y-75194D01*
X72076Y-75137D01*
X72140Y-74622D01*
X72612Y-75194D02*
X72551Y-75222D01*
X72437Y-75222D01*
X72383Y-75194D01*
X72362Y-75137D01*
X72390Y-74908D01*
X72426Y-74851D01*
X72487Y-74822D01*
X72601Y-74822D01*
X72655Y-74851D01*
X72676Y-74908D01*
X72669Y-74965D01*
X72376Y-75022D01*
X72901Y-75165D02*
X72926Y-75194D01*
X72894Y-75222D01*
X72869Y-75194D01*
X72901Y-75165D01*
X72894Y-75222D01*
X72940Y-74851D02*
X72965Y-74880D01*
X72933Y-74908D01*
X72908Y-74880D01*
X72940Y-74851D01*
X72933Y-74908D01*
X73655Y-74622D02*
X74055Y-74622D01*
X73580Y-75222D01*
X73980Y-75222D01*
X74208Y-75222D02*
X74258Y-74822D01*
X74283Y-74622D02*
X74251Y-74651D01*
X74276Y-74680D01*
X74308Y-74651D01*
X74283Y-74622D01*
X74276Y-74680D01*
X74544Y-74822D02*
X74469Y-75422D01*
X74540Y-74851D02*
X74601Y-74822D01*
X74715Y-74822D01*
X74769Y-74851D01*
X74794Y-74880D01*
X74815Y-74937D01*
X74794Y-75108D01*
X74758Y-75165D01*
X74726Y-75194D01*
X74665Y-75222D01*
X74551Y-75222D01*
X74497Y-75194D01*
X75087Y-74822D02*
X75012Y-75422D01*
X75083Y-74851D02*
X75144Y-74822D01*
X75258Y-74822D01*
X75312Y-74851D01*
X75337Y-74880D01*
X75358Y-74937D01*
X75337Y-75108D01*
X75301Y-75165D01*
X75269Y-75194D01*
X75208Y-75222D01*
X75094Y-75222D01*
X75040Y-75194D01*
X75812Y-75194D02*
X75751Y-75222D01*
X75637Y-75222D01*
X75583Y-75194D01*
X75562Y-75137D01*
X75590Y-74908D01*
X75626Y-74851D01*
X75687Y-74822D01*
X75801Y-74822D01*
X75855Y-74851D01*
X75876Y-74908D01*
X75869Y-74965D01*
X75576Y-75022D01*
X76094Y-75222D02*
X76144Y-74822D01*
X76130Y-74937D02*
X76165Y-74880D01*
X76197Y-74851D01*
X76258Y-74822D01*
X76315Y-74822D01*
X76915Y-74822D02*
X77008Y-75222D01*
X77201Y-74822D01*
X77387Y-75165D02*
X77412Y-75194D01*
X77380Y-75222D01*
X77355Y-75194D01*
X77387Y-75165D01*
X77380Y-75222D01*
X77705Y-74680D02*
X77737Y-74651D01*
X77797Y-74622D01*
X77940Y-74622D01*
X77994Y-74651D01*
X78019Y-74680D01*
X78040Y-74737D01*
X78033Y-74794D01*
X77994Y-74880D01*
X77608Y-75222D01*
X77980Y-75222D01*
X71172Y-72508D02*
X70972Y-72508D01*
X70972Y-72822D02*
X70972Y-72222D01*
X71258Y-72222D01*
X71487Y-72822D02*
X71487Y-72422D01*
X71487Y-72222D02*
X71458Y-72251D01*
X71487Y-72280D01*
X71515Y-72251D01*
X71487Y-72222D01*
X71487Y-72280D01*
X71858Y-72822D02*
X71801Y-72794D01*
X71772Y-72737D01*
X71772Y-72222D01*
X72315Y-72794D02*
X72258Y-72822D01*
X72144Y-72822D01*
X72087Y-72794D01*
X72058Y-72737D01*
X72058Y-72508D01*
X72087Y-72451D01*
X72144Y-72422D01*
X72258Y-72422D01*
X72315Y-72451D01*
X72344Y-72508D01*
X72344Y-72565D01*
X72058Y-72622D01*
X72601Y-72765D02*
X72630Y-72794D01*
X72601Y-72822D01*
X72572Y-72794D01*
X72601Y-72765D01*
X72601Y-72822D01*
X72601Y-72451D02*
X72630Y-72480D01*
X72601Y-72508D01*
X72572Y-72480D01*
X72601Y-72451D01*
X72601Y-72508D01*
X73287Y-72222D02*
X73687Y-72222D01*
X73287Y-72822D01*
X73687Y-72822D01*
X73915Y-72822D02*
X73915Y-72422D01*
X73915Y-72222D02*
X73887Y-72251D01*
X73915Y-72280D01*
X73944Y-72251D01*
X73915Y-72222D01*
X73915Y-72280D01*
X74201Y-72422D02*
X74201Y-73022D01*
X74201Y-72451D02*
X74258Y-72422D01*
X74372Y-72422D01*
X74430Y-72451D01*
X74458Y-72480D01*
X74487Y-72537D01*
X74487Y-72708D01*
X74458Y-72765D01*
X74430Y-72794D01*
X74372Y-72822D01*
X74258Y-72822D01*
X74201Y-72794D01*
X74744Y-72422D02*
X74744Y-73022D01*
X74744Y-72451D02*
X74801Y-72422D01*
X74915Y-72422D01*
X74972Y-72451D01*
X75001Y-72480D01*
X75030Y-72537D01*
X75030Y-72708D01*
X75001Y-72765D01*
X74972Y-72794D01*
X74915Y-72822D01*
X74801Y-72822D01*
X74744Y-72794D01*
X75515Y-72794D02*
X75458Y-72822D01*
X75344Y-72822D01*
X75287Y-72794D01*
X75258Y-72737D01*
X75258Y-72508D01*
X75287Y-72451D01*
X75344Y-72422D01*
X75458Y-72422D01*
X75515Y-72451D01*
X75544Y-72508D01*
X75544Y-72565D01*
X75258Y-72622D01*
X75801Y-72822D02*
X75801Y-72422D01*
X75801Y-72537D02*
X75830Y-72480D01*
X75858Y-72451D01*
X75915Y-72422D01*
X75972Y-72422D01*
X76172Y-72765D02*
X76201Y-72794D01*
X76172Y-72822D01*
X76144Y-72794D01*
X76172Y-72765D01*
X76172Y-72822D01*
X76458Y-72822D02*
X76458Y-72222D01*
X76515Y-72594D02*
X76687Y-72822D01*
X76687Y-72422D02*
X76458Y-72651D01*
X76944Y-72822D02*
X76944Y-72422D01*
X76944Y-72222D02*
X76915Y-72251D01*
X76944Y-72280D01*
X76972Y-72251D01*
X76944Y-72222D01*
X76944Y-72280D01*
X77487Y-72794D02*
X77430Y-72822D01*
X77315Y-72822D01*
X77258Y-72794D01*
X77230Y-72765D01*
X77201Y-72708D01*
X77201Y-72537D01*
X77230Y-72480D01*
X77258Y-72451D01*
X77315Y-72422D01*
X77430Y-72422D01*
X77487Y-72451D01*
X78001Y-72822D02*
X78001Y-72508D01*
X77972Y-72451D01*
X77915Y-72422D01*
X77801Y-72422D01*
X77744Y-72451D01*
X78001Y-72794D02*
X77944Y-72822D01*
X77801Y-72822D01*
X77744Y-72794D01*
X77715Y-72737D01*
X77715Y-72680D01*
X77744Y-72622D01*
X77801Y-72594D01*
X77944Y-72594D01*
X78001Y-72565D01*
X78544Y-72822D02*
X78544Y-72222D01*
X78544Y-72794D02*
X78487Y-72822D01*
X78372Y-72822D01*
X78315Y-72794D01*
X78287Y-72765D01*
X78258Y-72708D01*
X78258Y-72537D01*
X78287Y-72480D01*
X78315Y-72451D01*
X78372Y-72422D01*
X78487Y-72422D01*
X78544Y-72451D01*
X78687Y-72880D02*
X79144Y-72880D01*
X79287Y-72422D02*
X79287Y-73022D01*
X79287Y-72451D02*
X79344Y-72422D01*
X79458Y-72422D01*
X79515Y-72451D01*
X79544Y-72480D01*
X79572Y-72537D01*
X79572Y-72708D01*
X79544Y-72765D01*
X79515Y-72794D01*
X79458Y-72822D01*
X79344Y-72822D01*
X79287Y-72794D01*
X80087Y-72794D02*
X80030Y-72822D01*
X79915Y-72822D01*
X79858Y-72794D01*
X79830Y-72765D01*
X79801Y-72708D01*
X79801Y-72537D01*
X79830Y-72480D01*
X79858Y-72451D01*
X79915Y-72422D01*
X80030Y-72422D01*
X80087Y-72451D01*
X80344Y-72822D02*
X80344Y-72222D01*
X80344Y-72451D02*
X80401Y-72422D01*
X80515Y-72422D01*
X80572Y-72451D01*
X80601Y-72480D01*
X80630Y-72537D01*
X80630Y-72708D01*
X80601Y-72765D01*
X80572Y-72794D01*
X80515Y-72822D01*
X80401Y-72822D01*
X80344Y-72794D01*
X70944Y-73994D02*
X71030Y-74022D01*
X71172Y-74022D01*
X71230Y-73994D01*
X71258Y-73965D01*
X71287Y-73908D01*
X71287Y-73851D01*
X71258Y-73794D01*
X71230Y-73765D01*
X71172Y-73737D01*
X71058Y-73708D01*
X71001Y-73680D01*
X70972Y-73651D01*
X70944Y-73594D01*
X70944Y-73537D01*
X70972Y-73480D01*
X71001Y-73451D01*
X71058Y-73422D01*
X71201Y-73422D01*
X71287Y-73451D01*
X71544Y-74022D02*
X71544Y-73422D01*
X71801Y-74022D02*
X71801Y-73708D01*
X71772Y-73651D01*
X71715Y-73622D01*
X71630Y-73622D01*
X71572Y-73651D01*
X71544Y-73680D01*
X72315Y-73994D02*
X72258Y-74022D01*
X72144Y-74022D01*
X72087Y-73994D01*
X72058Y-73937D01*
X72058Y-73708D01*
X72087Y-73651D01*
X72144Y-73622D01*
X72258Y-73622D01*
X72315Y-73651D01*
X72344Y-73708D01*
X72344Y-73765D01*
X72058Y-73822D01*
X72830Y-73994D02*
X72772Y-74022D01*
X72658Y-74022D01*
X72601Y-73994D01*
X72572Y-73937D01*
X72572Y-73708D01*
X72601Y-73651D01*
X72658Y-73622D01*
X72772Y-73622D01*
X72830Y-73651D01*
X72858Y-73708D01*
X72858Y-73765D01*
X72572Y-73822D01*
X73030Y-73622D02*
X73258Y-73622D01*
X73115Y-73422D02*
X73115Y-73937D01*
X73144Y-73994D01*
X73201Y-74022D01*
X73258Y-74022D01*
X73458Y-73965D02*
X73487Y-73994D01*
X73458Y-74022D01*
X73430Y-73994D01*
X73458Y-73965D01*
X73458Y-74022D01*
X73458Y-73651D02*
X73487Y-73680D01*
X73458Y-73708D01*
X73430Y-73680D01*
X73458Y-73651D01*
X73458Y-73708D01*
X70887Y-69822D02*
X71230Y-69822D01*
X71058Y-70422D02*
X71058Y-69822D01*
X71430Y-70422D02*
X71430Y-69822D01*
X71430Y-70108D02*
X71772Y-70108D01*
X71772Y-70422D02*
X71772Y-69822D01*
X72058Y-70422D02*
X72058Y-69822D01*
X72315Y-70394D02*
X72401Y-70422D01*
X72544Y-70422D01*
X72601Y-70394D01*
X72629Y-70365D01*
X72658Y-70308D01*
X72658Y-70251D01*
X72629Y-70194D01*
X72601Y-70165D01*
X72544Y-70137D01*
X72429Y-70108D01*
X72372Y-70080D01*
X72344Y-70051D01*
X72315Y-69994D01*
X72315Y-69937D01*
X72344Y-69880D01*
X72372Y-69851D01*
X72429Y-69822D01*
X72572Y-69822D01*
X72658Y-69851D01*
X73315Y-69822D02*
X73458Y-70422D01*
X73572Y-69994D01*
X73687Y-70422D01*
X73830Y-69822D01*
X74172Y-69822D02*
X74287Y-69822D01*
X74344Y-69851D01*
X74401Y-69908D01*
X74430Y-70022D01*
X74430Y-70222D01*
X74401Y-70337D01*
X74344Y-70394D01*
X74287Y-70422D01*
X74172Y-70422D01*
X74115Y-70394D01*
X74058Y-70337D01*
X74030Y-70222D01*
X74030Y-70022D01*
X74058Y-69908D01*
X74115Y-69851D01*
X74172Y-69822D01*
X75029Y-70422D02*
X74829Y-70137D01*
X74687Y-70422D02*
X74687Y-69822D01*
X74915Y-69822D01*
X74972Y-69851D01*
X75001Y-69880D01*
X75029Y-69937D01*
X75029Y-70022D01*
X75001Y-70080D01*
X74972Y-70108D01*
X74915Y-70137D01*
X74687Y-70137D01*
X75287Y-70422D02*
X75287Y-69822D01*
X75629Y-70422D02*
X75372Y-70080D01*
X75629Y-69822D02*
X75287Y-70165D01*
X76344Y-70422D02*
X76344Y-69822D01*
X76601Y-70394D02*
X76687Y-70422D01*
X76829Y-70422D01*
X76887Y-70394D01*
X76915Y-70365D01*
X76944Y-70308D01*
X76944Y-70251D01*
X76915Y-70194D01*
X76887Y-70165D01*
X76829Y-70137D01*
X76715Y-70108D01*
X76658Y-70080D01*
X76629Y-70051D01*
X76601Y-69994D01*
X76601Y-69937D01*
X76629Y-69880D01*
X76658Y-69851D01*
X76715Y-69822D01*
X76858Y-69822D01*
X76944Y-69851D01*
X78001Y-70365D02*
X77972Y-70394D01*
X77887Y-70422D01*
X77830Y-70422D01*
X77744Y-70394D01*
X77687Y-70337D01*
X77658Y-70280D01*
X77630Y-70165D01*
X77630Y-70080D01*
X77658Y-69965D01*
X77687Y-69908D01*
X77744Y-69851D01*
X77830Y-69822D01*
X77887Y-69822D01*
X77972Y-69851D01*
X78001Y-69880D01*
X78372Y-69822D02*
X78487Y-69822D01*
X78544Y-69851D01*
X78601Y-69908D01*
X78630Y-70022D01*
X78630Y-70222D01*
X78601Y-70337D01*
X78544Y-70394D01*
X78487Y-70422D01*
X78372Y-70422D01*
X78315Y-70394D01*
X78258Y-70337D01*
X78230Y-70222D01*
X78230Y-70022D01*
X78258Y-69908D01*
X78315Y-69851D01*
X78372Y-69822D01*
X78801Y-69822D02*
X79001Y-70422D01*
X79201Y-69822D01*
X79401Y-70108D02*
X79601Y-70108D01*
X79687Y-70422D02*
X79401Y-70422D01*
X79401Y-69822D01*
X79687Y-69822D01*
X80287Y-70422D02*
X80087Y-70137D01*
X79944Y-70422D02*
X79944Y-69822D01*
X80172Y-69822D01*
X80229Y-69851D01*
X80258Y-69880D01*
X80287Y-69937D01*
X80287Y-70022D01*
X80258Y-70080D01*
X80229Y-70108D01*
X80172Y-70137D01*
X79944Y-70137D01*
X80544Y-70108D02*
X80744Y-70108D01*
X80829Y-70422D02*
X80544Y-70422D01*
X80544Y-69822D01*
X80829Y-69822D01*
X81087Y-70422D02*
X81087Y-69822D01*
X81229Y-69822D01*
X81315Y-69851D01*
X81372Y-69908D01*
X81401Y-69965D01*
X81429Y-70080D01*
X81429Y-70165D01*
X81401Y-70280D01*
X81372Y-70337D01*
X81315Y-70394D01*
X81229Y-70422D01*
X81087Y-70422D01*
X82144Y-69822D02*
X82144Y-70308D01*
X82172Y-70365D01*
X82201Y-70394D01*
X82258Y-70422D01*
X82372Y-70422D01*
X82429Y-70394D01*
X82458Y-70365D01*
X82487Y-70308D01*
X82487Y-69822D01*
X82772Y-70422D02*
X82772Y-69822D01*
X83115Y-70422D01*
X83115Y-69822D01*
X83401Y-70422D02*
X83401Y-69822D01*
X83544Y-69822D01*
X83629Y-69851D01*
X83687Y-69908D01*
X83715Y-69965D01*
X83744Y-70080D01*
X83744Y-70165D01*
X83715Y-70280D01*
X83687Y-70337D01*
X83629Y-70394D01*
X83544Y-70422D01*
X83401Y-70422D01*
X84001Y-70108D02*
X84201Y-70108D01*
X84287Y-70422D02*
X84001Y-70422D01*
X84001Y-69822D01*
X84287Y-69822D01*
X84887Y-70422D02*
X84687Y-70137D01*
X84544Y-70422D02*
X84544Y-69822D01*
X84772Y-69822D01*
X84829Y-69851D01*
X84858Y-69880D01*
X84887Y-69937D01*
X84887Y-70022D01*
X84858Y-70080D01*
X84829Y-70108D01*
X84772Y-70137D01*
X84544Y-70137D01*
X85572Y-70251D02*
X85858Y-70251D01*
X85515Y-70422D02*
X85715Y-69822D01*
X85915Y-70422D01*
X86915Y-70365D02*
X86887Y-70394D01*
X86801Y-70422D01*
X86744Y-70422D01*
X86658Y-70394D01*
X86601Y-70337D01*
X86572Y-70280D01*
X86544Y-70165D01*
X86544Y-70080D01*
X86572Y-69965D01*
X86601Y-69908D01*
X86658Y-69851D01*
X86744Y-69822D01*
X86801Y-69822D01*
X86887Y-69851D01*
X86915Y-69880D01*
X87515Y-70422D02*
X87315Y-70137D01*
X87172Y-70422D02*
X87172Y-69822D01*
X87401Y-69822D01*
X87458Y-69851D01*
X87487Y-69880D01*
X87515Y-69937D01*
X87515Y-70022D01*
X87487Y-70080D01*
X87458Y-70108D01*
X87401Y-70137D01*
X87172Y-70137D01*
X87772Y-70108D02*
X87972Y-70108D01*
X88058Y-70422D02*
X87772Y-70422D01*
X87772Y-69822D01*
X88058Y-69822D01*
X88287Y-70251D02*
X88572Y-70251D01*
X88229Y-70422D02*
X88429Y-69822D01*
X88629Y-70422D01*
X88744Y-69822D02*
X89087Y-69822D01*
X88915Y-70422D02*
X88915Y-69822D01*
X89287Y-70422D02*
X89287Y-69822D01*
X89487Y-69822D02*
X89687Y-70422D01*
X89887Y-69822D01*
X90087Y-70108D02*
X90287Y-70108D01*
X90372Y-70422D02*
X90087Y-70422D01*
X90087Y-69822D01*
X90372Y-69822D01*
X91429Y-70365D02*
X91401Y-70394D01*
X91315Y-70422D01*
X91258Y-70422D01*
X91172Y-70394D01*
X91115Y-70337D01*
X91087Y-70280D01*
X91058Y-70165D01*
X91058Y-70080D01*
X91087Y-69965D01*
X91115Y-69908D01*
X91172Y-69851D01*
X91258Y-69822D01*
X91315Y-69822D01*
X91401Y-69851D01*
X91429Y-69880D01*
X91801Y-69822D02*
X91915Y-69822D01*
X91972Y-69851D01*
X92029Y-69908D01*
X92058Y-70022D01*
X92058Y-70222D01*
X92029Y-70337D01*
X91972Y-70394D01*
X91915Y-70422D01*
X91801Y-70422D01*
X91744Y-70394D01*
X91687Y-70337D01*
X91658Y-70222D01*
X91658Y-70022D01*
X91687Y-69908D01*
X91744Y-69851D01*
X91801Y-69822D01*
X92315Y-70422D02*
X92315Y-69822D01*
X92515Y-70251D01*
X92715Y-69822D01*
X92715Y-70422D01*
X93001Y-70422D02*
X93001Y-69822D01*
X93201Y-70251D01*
X93401Y-69822D01*
X93401Y-70422D01*
X93801Y-69822D02*
X93915Y-69822D01*
X93972Y-69851D01*
X94029Y-69908D01*
X94058Y-70022D01*
X94058Y-70222D01*
X94029Y-70337D01*
X93972Y-70394D01*
X93915Y-70422D01*
X93801Y-70422D01*
X93744Y-70394D01*
X93687Y-70337D01*
X93658Y-70222D01*
X93658Y-70022D01*
X93687Y-69908D01*
X93744Y-69851D01*
X93801Y-69822D01*
X94315Y-70422D02*
X94315Y-69822D01*
X94658Y-70422D01*
X94658Y-69822D01*
X94915Y-70394D02*
X95001Y-70422D01*
X95144Y-70422D01*
X95201Y-70394D01*
X95229Y-70365D01*
X95258Y-70308D01*
X95258Y-70251D01*
X95229Y-70194D01*
X95201Y-70165D01*
X95144Y-70137D01*
X95029Y-70108D01*
X94972Y-70080D01*
X94944Y-70051D01*
X94915Y-69994D01*
X94915Y-69937D01*
X94944Y-69880D01*
X94972Y-69851D01*
X95029Y-69822D01*
X95172Y-69822D01*
X95258Y-69851D01*
X96258Y-70422D02*
X95972Y-70422D01*
X95972Y-69822D01*
X96458Y-70422D02*
X96458Y-69822D01*
X97087Y-70365D02*
X97058Y-70394D01*
X96972Y-70422D01*
X96915Y-70422D01*
X96829Y-70394D01*
X96772Y-70337D01*
X96744Y-70280D01*
X96715Y-70165D01*
X96715Y-70080D01*
X96744Y-69965D01*
X96772Y-69908D01*
X96829Y-69851D01*
X96915Y-69822D01*
X96972Y-69822D01*
X97058Y-69851D01*
X97087Y-69880D01*
X97344Y-70108D02*
X97544Y-70108D01*
X97629Y-70422D02*
X97344Y-70422D01*
X97344Y-69822D01*
X97629Y-69822D01*
X97887Y-70422D02*
X97887Y-69822D01*
X98229Y-70422D01*
X98229Y-69822D01*
X98487Y-70394D02*
X98572Y-70422D01*
X98715Y-70422D01*
X98772Y-70394D01*
X98801Y-70365D01*
X98829Y-70308D01*
X98829Y-70251D01*
X98801Y-70194D01*
X98772Y-70165D01*
X98715Y-70137D01*
X98601Y-70108D01*
X98544Y-70080D01*
X98515Y-70051D01*
X98487Y-69994D01*
X98487Y-69937D01*
X98515Y-69880D01*
X98544Y-69851D01*
X98601Y-69822D01*
X98744Y-69822D01*
X98829Y-69851D01*
X99087Y-70108D02*
X99287Y-70108D01*
X99372Y-70422D02*
X99087Y-70422D01*
X99087Y-69822D01*
X99372Y-69822D01*
X100258Y-70651D02*
X100229Y-70622D01*
X100172Y-70537D01*
X100144Y-70480D01*
X100115Y-70394D01*
X100087Y-70251D01*
X100087Y-70137D01*
X100115Y-69994D01*
X100144Y-69908D01*
X100172Y-69851D01*
X100229Y-69765D01*
X100258Y-69737D01*
X100829Y-70365D02*
X100801Y-70394D01*
X100715Y-70422D01*
X100658Y-70422D01*
X100572Y-70394D01*
X100515Y-70337D01*
X100487Y-70280D01*
X100458Y-70165D01*
X100458Y-70080D01*
X100487Y-69965D01*
X100515Y-69908D01*
X100572Y-69851D01*
X100658Y-69822D01*
X100715Y-69822D01*
X100801Y-69851D01*
X100829Y-69880D01*
X101429Y-70365D02*
X101401Y-70394D01*
X101315Y-70422D01*
X101258Y-70422D01*
X101172Y-70394D01*
X101115Y-70337D01*
X101087Y-70280D01*
X101058Y-70165D01*
X101058Y-70080D01*
X101087Y-69965D01*
X101115Y-69908D01*
X101172Y-69851D01*
X101258Y-69822D01*
X101315Y-69822D01*
X101401Y-69851D01*
X101429Y-69880D01*
X102344Y-70108D02*
X102429Y-70137D01*
X102458Y-70165D01*
X102487Y-70222D01*
X102487Y-70308D01*
X102458Y-70365D01*
X102429Y-70394D01*
X102372Y-70422D01*
X102144Y-70422D01*
X102144Y-69822D01*
X102344Y-69822D01*
X102401Y-69851D01*
X102429Y-69880D01*
X102458Y-69937D01*
X102458Y-69994D01*
X102429Y-70051D01*
X102401Y-70080D01*
X102344Y-70108D01*
X102144Y-70108D01*
X102858Y-70137D02*
X102858Y-70422D01*
X102658Y-69822D02*
X102858Y-70137D01*
X103058Y-69822D01*
X103658Y-69822D02*
X104029Y-69822D01*
X103829Y-70051D01*
X103915Y-70051D01*
X103972Y-70080D01*
X104001Y-70108D01*
X104029Y-70165D01*
X104029Y-70308D01*
X104001Y-70365D01*
X103972Y-70394D01*
X103915Y-70422D01*
X103744Y-70422D01*
X103687Y-70394D01*
X103658Y-70365D01*
X104287Y-70365D02*
X104315Y-70394D01*
X104287Y-70422D01*
X104258Y-70394D01*
X104287Y-70365D01*
X104287Y-70422D01*
X104687Y-69822D02*
X104744Y-69822D01*
X104801Y-69851D01*
X104829Y-69880D01*
X104858Y-69937D01*
X104887Y-70051D01*
X104887Y-70194D01*
X104858Y-70308D01*
X104829Y-70365D01*
X104801Y-70394D01*
X104744Y-70422D01*
X104687Y-70422D01*
X104629Y-70394D01*
X104601Y-70365D01*
X104572Y-70308D01*
X104544Y-70194D01*
X104544Y-70051D01*
X104572Y-69937D01*
X104601Y-69880D01*
X104629Y-69851D01*
X104687Y-69822D01*
X105087Y-70651D02*
X105115Y-70622D01*
X105172Y-70537D01*
X105201Y-70480D01*
X105229Y-70394D01*
X105258Y-70251D01*
X105258Y-70137D01*
X105229Y-69994D01*
X105201Y-69908D01*
X105172Y-69851D01*
X105115Y-69765D01*
X105087Y-69737D01*
X71315Y-69165D02*
X71287Y-69194D01*
X71201Y-69222D01*
X71144Y-69222D01*
X71058Y-69194D01*
X71001Y-69137D01*
X70972Y-69080D01*
X70944Y-68965D01*
X70944Y-68880D01*
X70972Y-68765D01*
X71001Y-68708D01*
X71058Y-68651D01*
X71144Y-68622D01*
X71201Y-68622D01*
X71287Y-68651D01*
X71315Y-68680D01*
X71658Y-69222D02*
X71601Y-69194D01*
X71572Y-69165D01*
X71544Y-69108D01*
X71544Y-68937D01*
X71572Y-68880D01*
X71601Y-68851D01*
X71658Y-68822D01*
X71744Y-68822D01*
X71801Y-68851D01*
X71830Y-68880D01*
X71858Y-68937D01*
X71858Y-69108D01*
X71830Y-69165D01*
X71801Y-69194D01*
X71744Y-69222D01*
X71658Y-69222D01*
X72115Y-68822D02*
X72115Y-69422D01*
X72115Y-68851D02*
X72172Y-68822D01*
X72287Y-68822D01*
X72344Y-68851D01*
X72372Y-68880D01*
X72401Y-68937D01*
X72401Y-69108D01*
X72372Y-69165D01*
X72344Y-69194D01*
X72287Y-69222D01*
X72172Y-69222D01*
X72115Y-69194D01*
X72601Y-68822D02*
X72744Y-69222D01*
X72887Y-68822D02*
X72744Y-69222D01*
X72687Y-69365D01*
X72658Y-69394D01*
X72601Y-69422D01*
X73115Y-69222D02*
X73115Y-68822D01*
X73115Y-68937D02*
X73144Y-68880D01*
X73172Y-68851D01*
X73230Y-68822D01*
X73287Y-68822D01*
X73487Y-69222D02*
X73487Y-68822D01*
X73487Y-68622D02*
X73458Y-68651D01*
X73487Y-68680D01*
X73515Y-68651D01*
X73487Y-68622D01*
X73487Y-68680D01*
X74030Y-68822D02*
X74030Y-69308D01*
X74001Y-69365D01*
X73972Y-69394D01*
X73915Y-69422D01*
X73830Y-69422D01*
X73772Y-69394D01*
X74030Y-69194D02*
X73972Y-69222D01*
X73858Y-69222D01*
X73801Y-69194D01*
X73772Y-69165D01*
X73744Y-69108D01*
X73744Y-68937D01*
X73772Y-68880D01*
X73801Y-68851D01*
X73858Y-68822D01*
X73972Y-68822D01*
X74030Y-68851D01*
X74315Y-69222D02*
X74315Y-68622D01*
X74572Y-69222D02*
X74572Y-68908D01*
X74544Y-68851D01*
X74487Y-68822D01*
X74401Y-68822D01*
X74344Y-68851D01*
X74315Y-68880D01*
X74772Y-68822D02*
X75001Y-68822D01*
X74858Y-68622D02*
X74858Y-69137D01*
X74887Y-69194D01*
X74944Y-69222D01*
X75001Y-69222D01*
X75630Y-68680D02*
X75658Y-68651D01*
X75715Y-68622D01*
X75858Y-68622D01*
X75915Y-68651D01*
X75944Y-68680D01*
X75972Y-68737D01*
X75972Y-68794D01*
X75944Y-68880D01*
X75601Y-69222D01*
X75972Y-69222D01*
X76344Y-68622D02*
X76401Y-68622D01*
X76458Y-68651D01*
X76487Y-68680D01*
X76515Y-68737D01*
X76544Y-68851D01*
X76544Y-68994D01*
X76515Y-69108D01*
X76487Y-69165D01*
X76458Y-69194D01*
X76401Y-69222D01*
X76344Y-69222D01*
X76287Y-69194D01*
X76258Y-69165D01*
X76230Y-69108D01*
X76201Y-68994D01*
X76201Y-68851D01*
X76230Y-68737D01*
X76258Y-68680D01*
X76287Y-68651D01*
X76344Y-68622D01*
X77115Y-69222D02*
X76772Y-69222D01*
X76944Y-69222D02*
X76944Y-68622D01*
X76887Y-68708D01*
X76830Y-68765D01*
X76772Y-68794D01*
X77315Y-68622D02*
X77687Y-68622D01*
X77487Y-68851D01*
X77572Y-68851D01*
X77630Y-68880D01*
X77658Y-68908D01*
X77687Y-68965D01*
X77687Y-69108D01*
X77658Y-69165D01*
X77630Y-69194D01*
X77572Y-69222D01*
X77401Y-69222D01*
X77344Y-69194D01*
X77315Y-69165D01*
X78372Y-69051D02*
X78658Y-69051D01*
X78315Y-69222D02*
X78515Y-68622D01*
X78715Y-69222D01*
X78858Y-68622D02*
X79258Y-68622D01*
X78858Y-69222D01*
X79258Y-69222D01*
X79487Y-69222D02*
X79487Y-68622D01*
X79887Y-68622D02*
X80001Y-68622D01*
X80058Y-68651D01*
X80115Y-68708D01*
X80144Y-68822D01*
X80144Y-69022D01*
X80115Y-69137D01*
X80058Y-69194D01*
X80001Y-69222D01*
X79887Y-69222D01*
X79830Y-69194D01*
X79772Y-69137D01*
X79744Y-69022D01*
X79744Y-68822D01*
X79772Y-68708D01*
X79830Y-68651D01*
X79887Y-68622D01*
X80858Y-68908D02*
X81058Y-68908D01*
X81144Y-69222D02*
X80858Y-69222D01*
X80858Y-68622D01*
X81144Y-68622D01*
X81487Y-69222D02*
X81430Y-69194D01*
X81401Y-69137D01*
X81401Y-68622D01*
X81944Y-69194D02*
X81887Y-69222D01*
X81772Y-69222D01*
X81715Y-69194D01*
X81687Y-69137D01*
X81687Y-68908D01*
X81715Y-68851D01*
X81772Y-68822D01*
X81887Y-68822D01*
X81944Y-68851D01*
X81972Y-68908D01*
X81972Y-68965D01*
X81687Y-69022D01*
X82487Y-69194D02*
X82430Y-69222D01*
X82315Y-69222D01*
X82258Y-69194D01*
X82230Y-69165D01*
X82201Y-69108D01*
X82201Y-68937D01*
X82230Y-68880D01*
X82258Y-68851D01*
X82315Y-68822D01*
X82430Y-68822D01*
X82487Y-68851D01*
X82658Y-68822D02*
X82887Y-68822D01*
X82744Y-68622D02*
X82744Y-69137D01*
X82772Y-69194D01*
X82830Y-69222D01*
X82887Y-69222D01*
X83087Y-69222D02*
X83087Y-68822D01*
X83087Y-68937D02*
X83115Y-68880D01*
X83144Y-68851D01*
X83201Y-68822D01*
X83258Y-68822D01*
X83544Y-69222D02*
X83487Y-69194D01*
X83458Y-69165D01*
X83430Y-69108D01*
X83430Y-68937D01*
X83458Y-68880D01*
X83487Y-68851D01*
X83544Y-68822D01*
X83630Y-68822D01*
X83687Y-68851D01*
X83715Y-68880D01*
X83744Y-68937D01*
X83744Y-69108D01*
X83715Y-69165D01*
X83687Y-69194D01*
X83630Y-69222D01*
X83544Y-69222D01*
X84001Y-68822D02*
X84001Y-69222D01*
X84001Y-68880D02*
X84030Y-68851D01*
X84087Y-68822D01*
X84172Y-68822D01*
X84230Y-68851D01*
X84258Y-68908D01*
X84258Y-69222D01*
X84544Y-69222D02*
X84544Y-68822D01*
X84544Y-68622D02*
X84515Y-68651D01*
X84544Y-68680D01*
X84572Y-68651D01*
X84544Y-68622D01*
X84544Y-68680D01*
X85087Y-69194D02*
X85030Y-69222D01*
X84915Y-69222D01*
X84858Y-69194D01*
X84830Y-69165D01*
X84801Y-69108D01*
X84801Y-68937D01*
X84830Y-68880D01*
X84858Y-68851D01*
X84915Y-68822D01*
X85030Y-68822D01*
X85087Y-68851D01*
X85315Y-69194D02*
X85372Y-69222D01*
X85487Y-69222D01*
X85544Y-69194D01*
X85572Y-69137D01*
X85572Y-69108D01*
X85544Y-69051D01*
X85487Y-69022D01*
X85401Y-69022D01*
X85344Y-68994D01*
X85315Y-68937D01*
X85315Y-68908D01*
X85344Y-68851D01*
X85401Y-68822D01*
X85487Y-68822D01*
X85544Y-68851D01*
X86630Y-69165D02*
X86601Y-69194D01*
X86515Y-69222D01*
X86458Y-69222D01*
X86372Y-69194D01*
X86315Y-69137D01*
X86287Y-69080D01*
X86258Y-68965D01*
X86258Y-68880D01*
X86287Y-68765D01*
X86315Y-68708D01*
X86372Y-68651D01*
X86458Y-68622D01*
X86515Y-68622D01*
X86601Y-68651D01*
X86630Y-68680D01*
X86972Y-69222D02*
X86915Y-69194D01*
X86887Y-69165D01*
X86858Y-69108D01*
X86858Y-68937D01*
X86887Y-68880D01*
X86915Y-68851D01*
X86972Y-68822D01*
X87058Y-68822D01*
X87115Y-68851D01*
X87144Y-68880D01*
X87172Y-68937D01*
X87172Y-69108D01*
X87144Y-69165D01*
X87115Y-69194D01*
X87058Y-69222D01*
X86972Y-69222D01*
X87430Y-69165D02*
X87458Y-69194D01*
X87430Y-69222D01*
X87401Y-69194D01*
X87430Y-69165D01*
X87430Y-69222D01*
X87744Y-69194D02*
X87744Y-69222D01*
X87715Y-69280D01*
X87687Y-69308D01*
X88744Y-69222D02*
X88458Y-69222D01*
X88458Y-68622D01*
X88858Y-68822D02*
X89087Y-68822D01*
X88944Y-68622D02*
X88944Y-69137D01*
X88972Y-69194D01*
X89030Y-69222D01*
X89087Y-69222D01*
X89544Y-69222D02*
X89544Y-68622D01*
X89544Y-69194D02*
X89487Y-69222D01*
X89372Y-69222D01*
X89315Y-69194D01*
X89287Y-69165D01*
X89258Y-69108D01*
X89258Y-68937D01*
X89287Y-68880D01*
X89315Y-68851D01*
X89372Y-68822D01*
X89487Y-68822D01*
X89544Y-68851D01*
X89830Y-69165D02*
X89858Y-69194D01*
X89830Y-69222D01*
X89801Y-69194D01*
X89830Y-69165D01*
X89830Y-69222D01*
X70230Y-68380D02*
X70230Y-77980D01*
X70230Y-71980D02*
X112230Y-71980D01*
X70230Y-68380D02*
X112230Y-68380D01*
X70230Y-74380D02*
X112230Y-74380D01*
X103430Y-75580D02*
X103430Y-77980D01*
X70230Y-76780D02*
X112230Y-76780D01*
X70230Y-75580D02*
X112230Y-75580D01*
X76830Y-75580D02*
X76830Y-76780D01*
G54D11*
X68897Y-23031D02*
G75*
G03X69881Y-24015I984J0D01*
G74*
G01*
X68897Y-23031D02*
G75*
G03X67913Y-22047I-984J0D01*
G74*
G01*
X34842Y-22047D02*
G75*
G03X33858Y-23031I0J-984D01*
G74*
G01*
X33858Y-51771D02*
G75*
G03X34842Y-52755I984J0D01*
G74*
G01*
X67913Y-52755D02*
G75*
G03X68897Y-51771I0J984D01*
G74*
G01*
X69881Y-50787D02*
G75*
G03X68897Y-51771I0J-984D01*
G74*
G01*
X75000Y-50787D02*
G75*
G03X75984Y-49803I0J984D01*
G74*
G01*
X75984Y-25000D02*
G75*
G03X75000Y-24015I-984J0D01*
G74*
G01*
X69881Y-50787D02*
X75000Y-50787D01*
X69881Y-24015D02*
X75000Y-24015D01*
X75984Y-25000D02*
X75984Y-49803D01*
X34842Y-22047D02*
X67913Y-22047D01*
X33858Y-51771D02*
X33858Y-23031D01*
X34842Y-52755D02*
X67913Y-52755D01*
G54D12*
X39763Y-33385D03*
X38818Y-32834D03*
X39763Y-32834D03*
X39291Y-32834D03*
X38818Y-33385D03*
X39291Y-33385D03*
X59685Y-49921D03*
X60078Y-49921D03*
X60078Y-50314D03*
X60078Y-50787D03*
X59291Y-50314D03*
X59291Y-49921D03*
X59685Y-50314D03*
X59685Y-50787D03*
X48818Y-50708D03*
X48818Y-50314D03*
X49212Y-50314D03*
X59291Y-50787D03*
X49212Y-50708D03*
X56220Y-35039D03*
X55826Y-34645D03*
X55826Y-35039D03*
X56220Y-34645D03*
G54D13*
X56693Y-42439D03*
G54D14*
X56437Y-42440D03*
X56181Y-42440D03*
X55925Y-42440D03*
G54D13*
X56693Y-40077D03*
G54D14*
X56437Y-40077D03*
X56181Y-40077D03*
X55925Y-40077D03*
G54D15*
X48110Y-44905D03*
X48110Y-46905D03*
X49842Y-46905D03*
X49842Y-44905D03*
G54D16*
X48976Y-47106D03*
X48976Y-44704D03*
G54D15*
X49842Y-46905D03*
X49842Y-44905D03*
X48110Y-44905D03*
X48110Y-46905D03*
G54D17*
X57066Y-32562D03*
X57666Y-32562D03*
X57077Y-33236D03*
X57677Y-33236D03*
G54D18*
X50960Y-49677D03*
X51330Y-49677D03*
G54D19*
X49448Y-49003D03*
X49448Y-48633D03*
G54D18*
X67826Y-32086D03*
X68196Y-32086D03*
X67826Y-38681D03*
X68196Y-38681D03*
G54D19*
X49055Y-49003D03*
X49055Y-48633D03*
G54D18*
X47507Y-50157D03*
X47137Y-50157D03*
G54D19*
X48661Y-48633D03*
X48661Y-49003D03*
G54D18*
X47137Y-51023D03*
X47507Y-51023D03*
G54D19*
X49842Y-51783D03*
X49842Y-52153D03*
G54D18*
X47507Y-50551D03*
X47137Y-50551D03*
G54D20*
X54433Y-36307D03*
X54433Y-36858D03*
X54929Y-41751D03*
X54929Y-41200D03*
X55118Y-33425D03*
X55118Y-32874D03*
X57216Y-36362D03*
X57216Y-36913D03*
X56425Y-36362D03*
X56425Y-36913D03*
X55263Y-36318D03*
X55263Y-36870D03*
X55748Y-33425D03*
X55748Y-32874D03*
X47204Y-44881D03*
X47204Y-44330D03*
G54D21*
X50374Y-51259D03*
X50728Y-51259D03*
X50098Y-49681D03*
X50452Y-49681D03*
X50102Y-48885D03*
X50456Y-48885D03*
X47972Y-49527D03*
X47618Y-49527D03*
X50102Y-48488D03*
X50456Y-48488D03*
X47618Y-48976D03*
X47972Y-48976D03*
X49291Y-51791D03*
X49291Y-52145D03*
X50374Y-50708D03*
X50728Y-50708D03*
X48740Y-51791D03*
X48740Y-52145D03*
G54D18*
X44476Y-43080D03*
X44106Y-43080D03*
X44476Y-36387D03*
X44106Y-36387D03*
G54D22*
X44488Y-32421D03*
X44488Y-32618D03*
X44488Y-33011D03*
X44094Y-33011D03*
G54D23*
X44094Y-32421D03*
G54D22*
X44488Y-32814D03*
X44094Y-32814D03*
X44094Y-32618D03*
X44488Y-33799D03*
X44488Y-33996D03*
X44488Y-34389D03*
X44094Y-34389D03*
G54D23*
X44094Y-33799D03*
G54D22*
X44488Y-34192D03*
X44094Y-34192D03*
X44094Y-33996D03*
X44488Y-35079D03*
X44488Y-35276D03*
X44488Y-35669D03*
X44094Y-35669D03*
G54D23*
X44094Y-35079D03*
G54D22*
X44488Y-35472D03*
X44094Y-35472D03*
X44094Y-35276D03*
X44488Y-39114D03*
X44488Y-39311D03*
X44488Y-39704D03*
X44094Y-39704D03*
G54D23*
X44094Y-39114D03*
G54D22*
X44488Y-39507D03*
X44094Y-39507D03*
X44094Y-39311D03*
X44488Y-40492D03*
X44488Y-40689D03*
X44488Y-41082D03*
X44094Y-41082D03*
G54D23*
X44094Y-40492D03*
G54D22*
X44488Y-40885D03*
X44094Y-40885D03*
X44094Y-40689D03*
X44488Y-41771D03*
X44488Y-41968D03*
X44488Y-42361D03*
X44094Y-42361D03*
G54D23*
X44094Y-41771D03*
G54D22*
X44488Y-42164D03*
X44094Y-42164D03*
X44094Y-41968D03*
X67814Y-36279D03*
X67814Y-36082D03*
X67814Y-35689D03*
X68208Y-35689D03*
G54D23*
X68208Y-36279D03*
G54D22*
X67814Y-35886D03*
X68208Y-35886D03*
X68208Y-36082D03*
X67814Y-34704D03*
X67814Y-34507D03*
X67814Y-34114D03*
X68208Y-34114D03*
G54D23*
X68208Y-34704D03*
G54D22*
X67814Y-34311D03*
X68208Y-34311D03*
X68208Y-34507D03*
X67814Y-33424D03*
X67814Y-33227D03*
X67814Y-32834D03*
X68208Y-32834D03*
G54D23*
X68208Y-33424D03*
G54D22*
X67814Y-33031D03*
X68208Y-33031D03*
X68208Y-33227D03*
X67814Y-43070D03*
X67814Y-42873D03*
X67814Y-42480D03*
X68208Y-42480D03*
G54D23*
X68208Y-43070D03*
G54D22*
X67814Y-42677D03*
X68208Y-42677D03*
X68208Y-42873D03*
X67814Y-41594D03*
X67814Y-41397D03*
X67814Y-41004D03*
X68208Y-41004D03*
G54D23*
X68208Y-41594D03*
G54D22*
X67814Y-41201D03*
X68208Y-41201D03*
X68208Y-41397D03*
X67814Y-40117D03*
X67814Y-39920D03*
X67814Y-39527D03*
X68208Y-39527D03*
G54D23*
X68208Y-40117D03*
G54D22*
X67814Y-39724D03*
X68208Y-39724D03*
X68208Y-39920D03*
G54D24*
X36107Y-23427D03*
X41737Y-23427D03*
X41737Y-51427D03*
X36107Y-51427D03*
G54D18*
X57586Y-49606D03*
X57216Y-49606D03*
X57586Y-50000D03*
X57216Y-50000D03*
X58023Y-48775D03*
X57653Y-48775D03*
X57586Y-51181D03*
X57216Y-51181D03*
X57586Y-50787D03*
X57216Y-50787D03*
X57586Y-50393D03*
X57216Y-50393D03*
G54D19*
X54881Y-48397D03*
X54881Y-48767D03*
G54D18*
X57980Y-49212D03*
X57610Y-49212D03*
G54D19*
X56850Y-48397D03*
X56850Y-48767D03*
X56456Y-48397D03*
X56456Y-48767D03*
X56062Y-48397D03*
X56062Y-48767D03*
X55669Y-48397D03*
X55669Y-48767D03*
X55275Y-48397D03*
X55275Y-48767D03*
G54D18*
X66173Y-48759D03*
X66543Y-48759D03*
X61641Y-49379D03*
X61271Y-49379D03*
X61641Y-49025D03*
X61271Y-49025D03*
X60366Y-48425D03*
X60736Y-48425D03*
X60366Y-48976D03*
X60736Y-48976D03*
G54D20*
X63976Y-49251D03*
X63976Y-48700D03*
G54D21*
X61279Y-50846D03*
X61633Y-50846D03*
X59744Y-51968D03*
X60098Y-51968D03*
X61279Y-49763D03*
X61633Y-49763D03*
X61279Y-51387D03*
X61633Y-51387D03*
X66210Y-50374D03*
X66564Y-50374D03*
X62736Y-50669D03*
X62382Y-50669D03*
X61161Y-48425D03*
X61515Y-48425D03*
X63464Y-49232D03*
X63464Y-48878D03*
X66289Y-49271D03*
X66289Y-49625D03*
G54D18*
X63452Y-48031D03*
X63082Y-48031D03*
X63149Y-48574D03*
X62779Y-48574D03*
G54D25*
X39370Y-52224D03*
X39419Y-23238D03*
X64557Y-22391D03*
G54D26*
X59775Y-30094D03*
X44736Y-30094D03*
X59775Y-45842D03*
X44736Y-45842D03*
X52429Y-45889D03*
X67468Y-45889D03*
X52429Y-30141D03*
X67468Y-30141D03*
G54D19*
X57283Y-48407D03*
X57283Y-48777D03*
G54D27*
X36105Y-26230D03*
G54D28*
X36105Y-28305D03*
X36105Y-30805D03*
G54D27*
X36105Y-32880D03*
X36105Y-48628D03*
G54D28*
X36105Y-46553D03*
X36105Y-44053D03*
G54D27*
X36105Y-41979D03*
X36105Y-34103D03*
X36105Y-40752D03*
G54D28*
X36105Y-36177D03*
G54D29*
X37321Y-42446D03*
X34888Y-42643D03*
X37321Y-42643D03*
X37321Y-43037D03*
X34888Y-43037D03*
X34888Y-42841D03*
X37321Y-42841D03*
X37321Y-43628D03*
X34888Y-43628D03*
X34888Y-43824D03*
X37321Y-43824D03*
X37321Y-43430D03*
X34888Y-43430D03*
X34888Y-43234D03*
X37321Y-43234D03*
X37321Y-44809D03*
X34888Y-44809D03*
X34888Y-45005D03*
X37321Y-45005D03*
X37321Y-45399D03*
X34888Y-45399D03*
X34888Y-45203D03*
X37321Y-45203D03*
X37321Y-44416D03*
X34888Y-44416D03*
X34888Y-44612D03*
X37321Y-44612D03*
X37321Y-44218D03*
X34888Y-44218D03*
X34888Y-44022D03*
X37321Y-44022D03*
X37321Y-47172D03*
X34888Y-47172D03*
X34888Y-47368D03*
X37321Y-47368D03*
X37321Y-47762D03*
X34888Y-47762D03*
X34888Y-47566D03*
X37321Y-47566D03*
X37321Y-48155D03*
X34888Y-48155D03*
X34888Y-47959D03*
X37321Y-47959D03*
X37321Y-46384D03*
X34888Y-46384D03*
X34888Y-46580D03*
X37321Y-46580D03*
X37321Y-46974D03*
X34888Y-46974D03*
X34888Y-46778D03*
X37321Y-46778D03*
X37321Y-45991D03*
X34888Y-45991D03*
X34888Y-46187D03*
X37321Y-46187D03*
X37321Y-45793D03*
X34888Y-45793D03*
X34888Y-45597D03*
X37321Y-45597D03*
X37321Y-37723D03*
X34888Y-37723D03*
X34888Y-37919D03*
X37321Y-37919D03*
X37321Y-38313D03*
X34888Y-38313D03*
X34888Y-38117D03*
X37321Y-38117D03*
X37321Y-38904D03*
X34888Y-38904D03*
X34888Y-39100D03*
X37321Y-39100D03*
X37321Y-38706D03*
X34888Y-38706D03*
X34888Y-38510D03*
X37321Y-38510D03*
X37321Y-40085D03*
X34888Y-40085D03*
X34888Y-40281D03*
X37321Y-40281D03*
X37321Y-39692D03*
X34888Y-39692D03*
X34888Y-39888D03*
X37321Y-39888D03*
X37321Y-39494D03*
X34888Y-39494D03*
X34888Y-39298D03*
X37321Y-39298D03*
X37321Y-36148D03*
X34888Y-36148D03*
X34888Y-36344D03*
X37321Y-36344D03*
X37321Y-36738D03*
X34888Y-36738D03*
X34888Y-36542D03*
X37321Y-36542D03*
X37321Y-37329D03*
X34888Y-37329D03*
X34888Y-37525D03*
X37321Y-37525D03*
X37321Y-37131D03*
X34888Y-37131D03*
X34888Y-36935D03*
X37321Y-36935D03*
X37321Y-35360D03*
X34888Y-35360D03*
X34888Y-35556D03*
X37321Y-35556D03*
X37321Y-35950D03*
X34888Y-35950D03*
X34888Y-35754D03*
X37321Y-35754D03*
X37321Y-34967D03*
X34888Y-34967D03*
X34888Y-35163D03*
X37321Y-35163D03*
X37321Y-34769D03*
X34888Y-34769D03*
X37321Y-30439D03*
X37321Y-30833D03*
X37321Y-31029D03*
X37321Y-31621D03*
X37321Y-31423D03*
X37321Y-32014D03*
X37321Y-32210D03*
X37321Y-29061D03*
X37321Y-29259D03*
X37321Y-30243D03*
X37321Y-29653D03*
X37321Y-29849D03*
X37321Y-28078D03*
X37321Y-28472D03*
X37321Y-28668D03*
X37321Y-27880D03*
X34888Y-30440D03*
X34888Y-30833D03*
X34888Y-31029D03*
X34888Y-31621D03*
X34888Y-31424D03*
X34888Y-32015D03*
X34888Y-32211D03*
X34888Y-29061D03*
X34888Y-29258D03*
X34888Y-30242D03*
X34888Y-29653D03*
X34888Y-29849D03*
X34888Y-28078D03*
X34888Y-28471D03*
X34888Y-28667D03*
X34888Y-27879D03*
X34888Y-26699D03*
X34888Y-26896D03*
X34888Y-27290D03*
X34888Y-27486D03*
X37321Y-26699D03*
X37321Y-26896D03*
X37321Y-27290D03*
X37321Y-27486D03*
X34888Y-34573D03*
X37321Y-34573D03*
X34888Y-42447D03*
G54D28*
X36105Y-38677D03*
G54D30*
X35305Y-25916D03*
X35305Y-48939D03*
G54D31*
X65570Y-49242D03*
X65570Y-49498D03*
X65570Y-49754D03*
X64637Y-49754D03*
X64637Y-49498D03*
X64637Y-49242D03*
G54D32*
X65103Y-49498D03*
G54D33*
X57674Y-31295D03*
X56924Y-31295D03*
X57674Y-30295D03*
X57299Y-31295D03*
X56924Y-30295D03*
X55394Y-31311D03*
X54644Y-31311D03*
X55394Y-30311D03*
X55019Y-31311D03*
X54644Y-30311D03*
X65493Y-30263D03*
X64743Y-30263D03*
X65493Y-29263D03*
X65118Y-30263D03*
X64743Y-29263D03*
X63367Y-30263D03*
X62617Y-30263D03*
X63367Y-29263D03*
X62992Y-30263D03*
X62617Y-29263D03*
G54D18*
X57141Y-52480D03*
X57511Y-52480D03*
X57145Y-51988D03*
X57515Y-51988D03*
X57374Y-51614D03*
X57744Y-51614D03*
X58031Y-51984D03*
X58401Y-51984D03*
G54D19*
X58090Y-51322D03*
X58090Y-50952D03*
G54D18*
X58007Y-52480D03*
X58377Y-52480D03*
G54D34*
X67177Y-22743D03*
X67177Y-22765D03*
G54D35*
X67188Y-22787D03*
G54D36*
X67177Y-22809D03*
X67177Y-22831D03*
X67177Y-22853D03*
G54D37*
X67540Y-22875D03*
G54D36*
X67177Y-22875D03*
G54D38*
X66825Y-22875D03*
G54D39*
X67540Y-22897D03*
G54D36*
X67177Y-22897D03*
G54D40*
X66825Y-22897D03*
G54D34*
X67529Y-22919D03*
G54D41*
X67188Y-22919D03*
G54D34*
X66825Y-22919D03*
G54D36*
X67529Y-22941D03*
G54D42*
X67177Y-22941D03*
G54D43*
X66836Y-22941D03*
G54D44*
X67177Y-22963D03*
X67177Y-22985D03*
G54D45*
X67177Y-23007D03*
G54D46*
X67177Y-23029D03*
G54D47*
X67188Y-23051D03*
G54D48*
X67177Y-23073D03*
G54D49*
X67177Y-23095D03*
X67177Y-23117D03*
G54D48*
X67177Y-23139D03*
X67177Y-23161D03*
G54D50*
X67419Y-23183D03*
X66935Y-23183D03*
G54D51*
X67441Y-23205D03*
X66913Y-23205D03*
G54D41*
X67452Y-23227D03*
G54D52*
X66880Y-23227D03*
G54D53*
X67518Y-23249D03*
G54D54*
X66814Y-23249D03*
X67562Y-23271D03*
G54D55*
X66803Y-23271D03*
G54D54*
X67562Y-23293D03*
X66792Y-23293D03*
X67562Y-23315D03*
X66792Y-23315D03*
X67562Y-23337D03*
X66792Y-23337D03*
X67562Y-23359D03*
X66792Y-23359D03*
X67562Y-23381D03*
X66792Y-23381D03*
X67562Y-23403D03*
G54D55*
X66803Y-23403D03*
G54D53*
X67518Y-23425D03*
G54D51*
X66869Y-23425D03*
X67463Y-23447D03*
G54D41*
X66902Y-23447D03*
G54D51*
X67441Y-23469D03*
X66913Y-23469D03*
G54D52*
X67430Y-23491D03*
X66924Y-23491D03*
G54D50*
X67419Y-23513D03*
G54D51*
X66935Y-23513D03*
X67419Y-23535D03*
X66935Y-23535D03*
X67419Y-23557D03*
G54D41*
X66946Y-23557D03*
G54D56*
X67419Y-23579D03*
G54D41*
X66924Y-23579D03*
G54D56*
X67419Y-23601D03*
G54D51*
X66913Y-23601D03*
G54D41*
X67430Y-23623D03*
X66902Y-23623D03*
X67452Y-23645D03*
G54D51*
X66891Y-23645D03*
X67463Y-23667D03*
G54D52*
X66880Y-23667D03*
G54D51*
X67463Y-23689D03*
X66869Y-23689D03*
X67485Y-23711D03*
X66869Y-23711D03*
X67485Y-23733D03*
G54D39*
X66990Y-23733D03*
G54D35*
X66814Y-23733D03*
X67540Y-23755D03*
G54D37*
X67342Y-23755D03*
G54D57*
X67001Y-23755D03*
G54D34*
X66803Y-23755D03*
G54D58*
X67540Y-23777D03*
G54D39*
X66792Y-23777D03*
G54D38*
X67551Y-23799D03*
G54D37*
X66792Y-23799D03*
G54D59*
X44299Y-51849D03*
G54D60*
X45299Y-51849D03*
G54D61*
X54251Y-50944D03*
G54D62*
X53251Y-49944D03*
X53251Y-51944D03*
X55251Y-51944D03*
X55251Y-49944D03*
G54D63*
X49183Y-50285D03*
X49183Y-50679D03*
X49183Y-50875D03*
X49183Y-50482D03*
X48789Y-50679D03*
X48789Y-50285D03*
X48789Y-50875D03*
G54D64*
X49379Y-49901D03*
X49183Y-49901D03*
X48789Y-49901D03*
X48986Y-49901D03*
X48592Y-49901D03*
X48592Y-51259D03*
X48986Y-51259D03*
X48789Y-51259D03*
X49183Y-51259D03*
X49379Y-51259D03*
G54D63*
X48307Y-50187D03*
X48307Y-50383D03*
X48307Y-50777D03*
X48307Y-50580D03*
X48307Y-50974D03*
X49665Y-50974D03*
X49665Y-50580D03*
X49665Y-50777D03*
X49665Y-50383D03*
G54D65*
X48986Y-50580D03*
G54D63*
X49665Y-50187D03*
X48789Y-50482D03*
G54D66*
X60590Y-51082D03*
X60590Y-50885D03*
X60590Y-50688D03*
X60590Y-50492D03*
X60590Y-49704D03*
X60590Y-49901D03*
X60590Y-50098D03*
X60590Y-50295D03*
X58779Y-50295D03*
X58779Y-50098D03*
X58779Y-49901D03*
X58779Y-49704D03*
X58779Y-50492D03*
X58779Y-50688D03*
X58779Y-50885D03*
X58779Y-51082D03*
G54D67*
X60374Y-49488D03*
X60177Y-49488D03*
X59980Y-49488D03*
X59783Y-49488D03*
X58996Y-49488D03*
X59192Y-49488D03*
X59389Y-49488D03*
X59586Y-49488D03*
X59586Y-51299D03*
X59389Y-51299D03*
X59192Y-51299D03*
X58996Y-51299D03*
X59783Y-51299D03*
X59980Y-51299D03*
X60177Y-51299D03*
X60374Y-51299D03*
G54D68*
X59685Y-50393D03*
G54D69*
X59330Y-50039D03*
X60039Y-50039D03*
X59330Y-50748D03*
X60039Y-50748D03*
G54D70*
X63355Y-51663D03*
X67155Y-51663D03*
G54D71*
X47204Y-46398D03*
X47204Y-45648D03*
G54D72*
X54929Y-42428D03*
X54929Y-43028D03*
G54D73*
X56756Y-39291D03*
X56156Y-39291D03*
X56756Y-38425D03*
X56156Y-38425D03*
G54D72*
X58318Y-34845D03*
X58318Y-35445D03*
X57618Y-34215D03*
X57618Y-34815D03*
X54468Y-33971D03*
X54468Y-34571D03*
X53779Y-34621D03*
X53779Y-35221D03*
G54D74*
X71653Y-49681D03*
G54D75*
X73690Y-28151D03*
G54D76*
X72440Y-26696D03*
G54D75*
X71690Y-27651D03*
X71690Y-28151D03*
X71190Y-27651D03*
X71190Y-28151D03*
X71690Y-30651D03*
X71190Y-30651D03*
X71190Y-31151D03*
X71690Y-31151D03*
X71690Y-32151D03*
X71190Y-32151D03*
X71190Y-31651D03*
X71690Y-31651D03*
X71690Y-29651D03*
X71190Y-29651D03*
X71190Y-30151D03*
X71690Y-30151D03*
X71690Y-29151D03*
X71190Y-29151D03*
X71190Y-28651D03*
X71690Y-28651D03*
X71690Y-36651D03*
X71190Y-36651D03*
X71190Y-37151D03*
X71690Y-37151D03*
X71690Y-37651D03*
X71190Y-37647D03*
X71690Y-39151D03*
X71190Y-39151D03*
X71190Y-39651D03*
X71690Y-39651D03*
X71690Y-38651D03*
X71190Y-38651D03*
X71190Y-38151D03*
X71690Y-38151D03*
X71690Y-34651D03*
X71190Y-34651D03*
X71190Y-35151D03*
X71690Y-35151D03*
X71690Y-36151D03*
X71190Y-36151D03*
X71190Y-35651D03*
X71690Y-35651D03*
X71690Y-33651D03*
X71190Y-33651D03*
X71190Y-34151D03*
X71690Y-34151D03*
X71690Y-33151D03*
X71190Y-33151D03*
X71190Y-32651D03*
X71690Y-32651D03*
X71690Y-41651D03*
X71190Y-41651D03*
X71190Y-42151D03*
X71690Y-42151D03*
X71690Y-43151D03*
X71190Y-43151D03*
X71190Y-42651D03*
X71690Y-42651D03*
X71190Y-41151D03*
X71690Y-41151D03*
X71690Y-40651D03*
X71190Y-40651D03*
X71190Y-40151D03*
X71690Y-40151D03*
X71690Y-44651D03*
X71190Y-44651D03*
X71190Y-45151D03*
X71690Y-45151D03*
X71690Y-45651D03*
X71190Y-45651D03*
X71690Y-47151D03*
X71190Y-47151D03*
X71690Y-46651D03*
X71190Y-46651D03*
X71190Y-46151D03*
X71690Y-46151D03*
X71690Y-44151D03*
X71190Y-44151D03*
X71190Y-43651D03*
X71690Y-43651D03*
X73690Y-43651D03*
X73190Y-43651D03*
X73190Y-44151D03*
X73690Y-44151D03*
X73690Y-46151D03*
X73190Y-46151D03*
X73190Y-46651D03*
X73690Y-46651D03*
X73190Y-47151D03*
X73690Y-47151D03*
X73190Y-45651D03*
X73690Y-45651D03*
X73690Y-45151D03*
X73190Y-45151D03*
X73190Y-44651D03*
X73690Y-44651D03*
X73690Y-40151D03*
X73190Y-40151D03*
X73190Y-40651D03*
X73690Y-40651D03*
X73690Y-41151D03*
X73190Y-41151D03*
X73690Y-42651D03*
X73190Y-42651D03*
X73190Y-43151D03*
X73690Y-43151D03*
X73690Y-42151D03*
X73190Y-42151D03*
X73190Y-41651D03*
X73690Y-41651D03*
X73690Y-32651D03*
X73190Y-32651D03*
X73190Y-33151D03*
X73690Y-33151D03*
X73690Y-34151D03*
X73190Y-34151D03*
X73190Y-33651D03*
X73690Y-33651D03*
X73690Y-35651D03*
X73190Y-35651D03*
X73190Y-36151D03*
X73690Y-36151D03*
X73690Y-35151D03*
X73190Y-35151D03*
X73190Y-34651D03*
X73690Y-34651D03*
X73690Y-38151D03*
X73190Y-38151D03*
X73190Y-38651D03*
X73690Y-38651D03*
X73690Y-39651D03*
X73190Y-39651D03*
X73190Y-39151D03*
X73690Y-39151D03*
X73190Y-37647D03*
X73690Y-37651D03*
X73690Y-37151D03*
X73190Y-37151D03*
X73190Y-36651D03*
X73690Y-36651D03*
X73690Y-28651D03*
X73190Y-28651D03*
X73190Y-29151D03*
X73690Y-29151D03*
X73690Y-30151D03*
X73190Y-30151D03*
X73190Y-29651D03*
X73690Y-29651D03*
X73690Y-31651D03*
X73190Y-31651D03*
X73190Y-32151D03*
X73690Y-32151D03*
X73690Y-31151D03*
X73190Y-31151D03*
X73190Y-30651D03*
X73690Y-30651D03*
X73190Y-28151D03*
X73190Y-27651D03*
X73690Y-27651D03*
G54D76*
X71240Y-48106D03*
G54D74*
X71653Y-25122D03*
G54D64*
X55673Y-34641D03*
X56066Y-34641D03*
X56263Y-34641D03*
X55870Y-34641D03*
X56066Y-35035D03*
X55673Y-35035D03*
X56263Y-35035D03*
G54D63*
X55289Y-34444D03*
X55289Y-34641D03*
X55289Y-35035D03*
X55289Y-34838D03*
X55289Y-35232D03*
X56647Y-35232D03*
X56647Y-34838D03*
X56647Y-35035D03*
X56647Y-34641D03*
X56647Y-34444D03*
G54D64*
X55574Y-35517D03*
X55771Y-35517D03*
X56165Y-35517D03*
X55968Y-35517D03*
X56362Y-35517D03*
X56362Y-34159D03*
X55968Y-34159D03*
X56165Y-34159D03*
X55771Y-34159D03*
G54D65*
X55968Y-34838D03*
G54D64*
X55574Y-34159D03*
X55870Y-35035D03*
G54D77*
X63465Y-27602D03*
X62715Y-27602D03*
G54D18*
X58673Y-51724D03*
X59043Y-51724D03*
X58834Y-52212D03*
X59204Y-52212D03*
G54D19*
X64334Y-45940D03*
X64334Y-46310D03*
X63755Y-45944D03*
X63755Y-46314D03*
G54D18*
X60641Y-27496D03*
X61011Y-27496D03*
X61854Y-27496D03*
X61484Y-27496D03*
X62212Y-28448D03*
X61842Y-28448D03*
G54D21*
X61401Y-28448D03*
X61047Y-28448D03*
X63586Y-26165D03*
X63940Y-26165D03*
X63956Y-27047D03*
X63956Y-26693D03*
G54D78*
X62866Y-26185D03*
X62366Y-26185D03*
X61866Y-26185D03*
X61366Y-26185D03*
X61366Y-24118D03*
X61866Y-24118D03*
X62366Y-24118D03*
X62866Y-24118D03*
G54D79*
X62116Y-25152D03*
G54D80*
X49212Y-38661D03*
X49212Y-38858D03*
X49212Y-39055D03*
X49212Y-39251D03*
X49212Y-39448D03*
X49212Y-39645D03*
X49212Y-39842D03*
X49212Y-40039D03*
X49212Y-40236D03*
X49212Y-40433D03*
X49212Y-40629D03*
X49212Y-40826D03*
X49212Y-41023D03*
X49212Y-41220D03*
X49212Y-41417D03*
X49212Y-41614D03*
X49212Y-41811D03*
X49212Y-42007D03*
X49212Y-42204D03*
X49212Y-42401D03*
X49212Y-42598D03*
X49212Y-42795D03*
X49212Y-42992D03*
X49212Y-43188D03*
X46259Y-43188D03*
X46259Y-42992D03*
X46259Y-42795D03*
X46259Y-42598D03*
X46259Y-42401D03*
X46259Y-42204D03*
X46259Y-42007D03*
X46259Y-41811D03*
X46259Y-41614D03*
X46259Y-41417D03*
X46259Y-41220D03*
X46259Y-41023D03*
X46259Y-40826D03*
X46259Y-40629D03*
X46259Y-40433D03*
X46259Y-40236D03*
X46259Y-40039D03*
X46259Y-39842D03*
X46259Y-39645D03*
X46259Y-39448D03*
X46259Y-39251D03*
X46259Y-39055D03*
X46259Y-38858D03*
X46259Y-38661D03*
X49212Y-32263D03*
X49212Y-32460D03*
X49212Y-32657D03*
X49212Y-32854D03*
X49212Y-33051D03*
X49212Y-33248D03*
X49212Y-33444D03*
X49212Y-33641D03*
X49212Y-33838D03*
X49212Y-34035D03*
X49212Y-34232D03*
X49212Y-34429D03*
X49212Y-34625D03*
X49212Y-34822D03*
X49212Y-35019D03*
X49212Y-35216D03*
X49212Y-35413D03*
X49212Y-35610D03*
X49212Y-35807D03*
X49212Y-36003D03*
X49212Y-36200D03*
X49212Y-36397D03*
X49212Y-36594D03*
X49212Y-36791D03*
X46259Y-36791D03*
X46259Y-36594D03*
X46259Y-36397D03*
X46259Y-36200D03*
X46259Y-36003D03*
X46259Y-35807D03*
X46259Y-35610D03*
X46259Y-35413D03*
X46259Y-35216D03*
X46259Y-35019D03*
X46259Y-34822D03*
X46259Y-34625D03*
X46259Y-34429D03*
X46259Y-34232D03*
X46259Y-34035D03*
X46259Y-33838D03*
X46259Y-33641D03*
X46259Y-33444D03*
X46259Y-33248D03*
X46259Y-33051D03*
X46259Y-32854D03*
X46259Y-32657D03*
X46259Y-32460D03*
X46259Y-32263D03*
X63031Y-36519D03*
X63031Y-36322D03*
X63031Y-36125D03*
X63031Y-35929D03*
X63031Y-35732D03*
X63031Y-35535D03*
X63031Y-35338D03*
X63031Y-35141D03*
X63031Y-34944D03*
X63031Y-34748D03*
X63031Y-34551D03*
X63031Y-34354D03*
X63031Y-34157D03*
X63031Y-33960D03*
X63031Y-33763D03*
X63031Y-33566D03*
X63031Y-33370D03*
X63031Y-33173D03*
X63031Y-32976D03*
X63031Y-32779D03*
X63031Y-32582D03*
X63031Y-32385D03*
X63031Y-32188D03*
X63031Y-31992D03*
X65984Y-31992D03*
X65984Y-32188D03*
X65984Y-32385D03*
X65984Y-32582D03*
X65984Y-32779D03*
X65984Y-32976D03*
X65984Y-33173D03*
X65984Y-33370D03*
X65984Y-33566D03*
X65984Y-33763D03*
X65984Y-33960D03*
X65984Y-34157D03*
X65984Y-34354D03*
X65984Y-34551D03*
X65984Y-34748D03*
X65984Y-34944D03*
X65984Y-35141D03*
X65984Y-35338D03*
X65984Y-35535D03*
X65984Y-35732D03*
X65984Y-35929D03*
X65984Y-36125D03*
X65984Y-36322D03*
X65984Y-36519D03*
X63059Y-44070D03*
X63059Y-43874D03*
X63059Y-43677D03*
X63059Y-43480D03*
X63059Y-43283D03*
X63059Y-43086D03*
X63059Y-42889D03*
X63059Y-42692D03*
X63059Y-42496D03*
X63059Y-42299D03*
X63059Y-42102D03*
X63059Y-41905D03*
X63059Y-41708D03*
X63059Y-41511D03*
X63059Y-41314D03*
X63059Y-41118D03*
X63059Y-40921D03*
X63059Y-40724D03*
X63059Y-40527D03*
X63059Y-40330D03*
X63059Y-40133D03*
X63059Y-39937D03*
X63059Y-39740D03*
X63059Y-39543D03*
X66011Y-39543D03*
X66011Y-39740D03*
X66011Y-39937D03*
X66011Y-40133D03*
X66011Y-40330D03*
X66011Y-40527D03*
X66011Y-40724D03*
X66011Y-40921D03*
X66011Y-41118D03*
X66011Y-41314D03*
X66011Y-41511D03*
X66011Y-41708D03*
X66011Y-41905D03*
X66011Y-42102D03*
X66011Y-42299D03*
X66011Y-42496D03*
X66011Y-42692D03*
X66011Y-42889D03*
X66011Y-43086D03*
X66011Y-43283D03*
X66011Y-43480D03*
X66011Y-43677D03*
X66011Y-43874D03*
X66011Y-44070D03*
G54D18*
X62622Y-47385D03*
X62252Y-47385D03*
M02*
