G04 (created by PCBNEW (2013-07-07 BZR 4022)-stable) date 1/7/2014 4:23:33 PM*
%MOIN*%
G04 Gerber Fmt 3.4, Leading zero omitted, Abs format*
%FSLAX34Y34*%
G01*
G70*
G90*
G04 APERTURE LIST*
%ADD10C,0.00590551*%
%ADD11C,0.00787402*%
%ADD12C,0.00984252*%
%ADD13C,0.0077*%
%ADD14C,0.005*%
%ADD15C,0.01*%
%ADD16C,0.0078*%
%ADD17C,0.00492126*%
%ADD18C,0.0049*%
%ADD19C,0.0079*%
%ADD20C,0.00393701*%
G04 APERTURE END LIST*
G54D10*
X4000Y-4000D02*
X112930Y-4000D01*
X112930Y-78680D01*
X4000Y-78680D01*
X4000Y-4000D01*
X4700Y-4700D02*
X112230Y-4700D01*
X112230Y-77980D01*
X4700Y-77980D01*
X4700Y-4700D01*
X25780Y-4000D02*
X25780Y-4700D01*
X15032Y-4552D02*
X14747Y-4552D01*
X14890Y-4552D02*
X14890Y-4052D01*
X14842Y-4123D01*
X14794Y-4171D01*
X14747Y-4195D01*
X25780Y-78680D02*
X25780Y-77980D01*
X15032Y-78532D02*
X14747Y-78532D01*
X14890Y-78532D02*
X14890Y-78032D01*
X14842Y-78103D01*
X14794Y-78151D01*
X14747Y-78175D01*
X47560Y-4000D02*
X47560Y-4700D01*
X36527Y-4100D02*
X36550Y-4076D01*
X36598Y-4052D01*
X36717Y-4052D01*
X36765Y-4076D01*
X36789Y-4100D01*
X36812Y-4147D01*
X36812Y-4195D01*
X36789Y-4266D01*
X36503Y-4552D01*
X36812Y-4552D01*
X47560Y-78680D02*
X47560Y-77980D01*
X36527Y-78080D02*
X36550Y-78056D01*
X36598Y-78032D01*
X36717Y-78032D01*
X36765Y-78056D01*
X36789Y-78080D01*
X36812Y-78127D01*
X36812Y-78175D01*
X36789Y-78246D01*
X36503Y-78532D01*
X36812Y-78532D01*
X69340Y-4000D02*
X69340Y-4700D01*
X58283Y-4052D02*
X58592Y-4052D01*
X58426Y-4242D01*
X58497Y-4242D01*
X58545Y-4266D01*
X58569Y-4290D01*
X58592Y-4338D01*
X58592Y-4457D01*
X58569Y-4504D01*
X58545Y-4528D01*
X58497Y-4552D01*
X58354Y-4552D01*
X58307Y-4528D01*
X58283Y-4504D01*
X69340Y-78680D02*
X69340Y-77980D01*
X58283Y-78032D02*
X58592Y-78032D01*
X58426Y-78222D01*
X58497Y-78222D01*
X58545Y-78246D01*
X58569Y-78270D01*
X58592Y-78318D01*
X58592Y-78437D01*
X58569Y-78484D01*
X58545Y-78508D01*
X58497Y-78532D01*
X58354Y-78532D01*
X58307Y-78508D01*
X58283Y-78484D01*
X91120Y-4000D02*
X91120Y-4700D01*
X80325Y-4219D02*
X80325Y-4552D01*
X80206Y-4028D02*
X80087Y-4385D01*
X80396Y-4385D01*
X91120Y-78680D02*
X91120Y-77980D01*
X80325Y-78199D02*
X80325Y-78532D01*
X80206Y-78008D02*
X80087Y-78365D01*
X80396Y-78365D01*
X102129Y-4052D02*
X101890Y-4052D01*
X101867Y-4290D01*
X101890Y-4266D01*
X101938Y-4242D01*
X102057Y-4242D01*
X102105Y-4266D01*
X102129Y-4290D01*
X102152Y-4338D01*
X102152Y-4457D01*
X102129Y-4504D01*
X102105Y-4528D01*
X102057Y-4552D01*
X101938Y-4552D01*
X101890Y-4528D01*
X101867Y-4504D01*
X102129Y-78032D02*
X101890Y-78032D01*
X101867Y-78270D01*
X101890Y-78246D01*
X101938Y-78222D01*
X102057Y-78222D01*
X102105Y-78246D01*
X102129Y-78270D01*
X102152Y-78318D01*
X102152Y-78437D01*
X102129Y-78484D01*
X102105Y-78508D01*
X102057Y-78532D01*
X101938Y-78532D01*
X101890Y-78508D01*
X101867Y-78484D01*
X4000Y-28890D02*
X4700Y-28890D01*
X4230Y-16509D02*
X4469Y-16509D01*
X4183Y-16652D02*
X4350Y-16152D01*
X4516Y-16652D01*
X112930Y-28890D02*
X112230Y-28890D01*
X112460Y-16509D02*
X112699Y-16509D01*
X112413Y-16652D02*
X112580Y-16152D01*
X112746Y-16652D01*
X4000Y-53780D02*
X4700Y-53780D01*
X4385Y-41280D02*
X4457Y-41304D01*
X4480Y-41328D01*
X4504Y-41375D01*
X4504Y-41447D01*
X4480Y-41494D01*
X4457Y-41518D01*
X4409Y-41542D01*
X4219Y-41542D01*
X4219Y-41042D01*
X4385Y-41042D01*
X4433Y-41066D01*
X4457Y-41090D01*
X4480Y-41137D01*
X4480Y-41185D01*
X4457Y-41232D01*
X4433Y-41256D01*
X4385Y-41280D01*
X4219Y-41280D01*
X112930Y-53780D02*
X112230Y-53780D01*
X112615Y-41280D02*
X112687Y-41304D01*
X112710Y-41328D01*
X112734Y-41375D01*
X112734Y-41447D01*
X112710Y-41494D01*
X112687Y-41518D01*
X112639Y-41542D01*
X112449Y-41542D01*
X112449Y-41042D01*
X112615Y-41042D01*
X112663Y-41066D01*
X112687Y-41090D01*
X112710Y-41137D01*
X112710Y-41185D01*
X112687Y-41232D01*
X112663Y-41256D01*
X112615Y-41280D01*
X112449Y-41280D01*
X4504Y-66384D02*
X4480Y-66408D01*
X4409Y-66432D01*
X4361Y-66432D01*
X4290Y-66408D01*
X4242Y-66360D01*
X4219Y-66313D01*
X4195Y-66218D01*
X4195Y-66146D01*
X4219Y-66051D01*
X4242Y-66003D01*
X4290Y-65956D01*
X4361Y-65932D01*
X4409Y-65932D01*
X4480Y-65956D01*
X4504Y-65980D01*
X112734Y-66384D02*
X112710Y-66408D01*
X112639Y-66432D01*
X112591Y-66432D01*
X112520Y-66408D01*
X112472Y-66360D01*
X112449Y-66313D01*
X112425Y-66218D01*
X112425Y-66146D01*
X112449Y-66051D01*
X112472Y-66003D01*
X112520Y-65956D01*
X112591Y-65932D01*
X112639Y-65932D01*
X112710Y-65956D01*
X112734Y-65980D01*
X79380Y-76422D02*
X79455Y-75822D01*
X79597Y-75822D01*
X79680Y-75851D01*
X79730Y-75908D01*
X79751Y-75965D01*
X79765Y-76080D01*
X79755Y-76165D01*
X79712Y-76280D01*
X79676Y-76337D01*
X79612Y-76394D01*
X79522Y-76422D01*
X79380Y-76422D01*
X80237Y-76422D02*
X80276Y-76108D01*
X80255Y-76051D01*
X80201Y-76022D01*
X80087Y-76022D01*
X80026Y-76051D01*
X80240Y-76394D02*
X80180Y-76422D01*
X80037Y-76422D01*
X79983Y-76394D01*
X79962Y-76337D01*
X79969Y-76280D01*
X80005Y-76222D01*
X80065Y-76194D01*
X80208Y-76194D01*
X80269Y-76165D01*
X80487Y-76022D02*
X80715Y-76022D01*
X80597Y-75822D02*
X80533Y-76337D01*
X80555Y-76394D01*
X80608Y-76422D01*
X80665Y-76422D01*
X81097Y-76394D02*
X81037Y-76422D01*
X80922Y-76422D01*
X80869Y-76394D01*
X80847Y-76337D01*
X80876Y-76108D01*
X80912Y-76051D01*
X80972Y-76022D01*
X81087Y-76022D01*
X81140Y-76051D01*
X81162Y-76108D01*
X81155Y-76165D01*
X80862Y-76222D01*
X81387Y-76365D02*
X81412Y-76394D01*
X81380Y-76422D01*
X81355Y-76394D01*
X81387Y-76365D01*
X81380Y-76422D01*
X81426Y-76051D02*
X81451Y-76080D01*
X81419Y-76108D01*
X81394Y-76080D01*
X81426Y-76051D01*
X81419Y-76108D01*
X82140Y-75822D02*
X82540Y-75822D01*
X82208Y-76422D01*
X83201Y-76022D02*
X83137Y-76537D01*
X83101Y-76594D01*
X83040Y-76622D01*
X83012Y-76622D01*
X83226Y-75822D02*
X83194Y-75851D01*
X83219Y-75880D01*
X83251Y-75851D01*
X83226Y-75822D01*
X83219Y-75880D01*
X83694Y-76422D02*
X83733Y-76108D01*
X83712Y-76051D01*
X83658Y-76022D01*
X83544Y-76022D01*
X83483Y-76051D01*
X83697Y-76394D02*
X83637Y-76422D01*
X83494Y-76422D01*
X83440Y-76394D01*
X83419Y-76337D01*
X83426Y-76280D01*
X83462Y-76222D01*
X83522Y-76194D01*
X83665Y-76194D01*
X83726Y-76165D01*
X84030Y-76022D02*
X83980Y-76422D01*
X84022Y-76080D02*
X84055Y-76051D01*
X84115Y-76022D01*
X84201Y-76022D01*
X84255Y-76051D01*
X84276Y-76108D01*
X84237Y-76422D01*
X85019Y-75880D02*
X85051Y-75851D01*
X85112Y-75822D01*
X85255Y-75822D01*
X85308Y-75851D01*
X85333Y-75880D01*
X85355Y-75937D01*
X85347Y-75994D01*
X85308Y-76080D01*
X84922Y-76422D01*
X85294Y-76422D01*
X85740Y-75822D02*
X85797Y-75822D01*
X85851Y-75851D01*
X85876Y-75880D01*
X85897Y-75937D01*
X85912Y-76051D01*
X85894Y-76194D01*
X85851Y-76308D01*
X85815Y-76365D01*
X85783Y-76394D01*
X85722Y-76422D01*
X85665Y-76422D01*
X85612Y-76394D01*
X85587Y-76365D01*
X85565Y-76308D01*
X85551Y-76194D01*
X85569Y-76051D01*
X85612Y-75937D01*
X85647Y-75880D01*
X85680Y-75851D01*
X85740Y-75822D01*
X86437Y-76422D02*
X86094Y-76422D01*
X86265Y-76422D02*
X86340Y-75822D01*
X86272Y-75908D01*
X86208Y-75965D01*
X86147Y-75994D01*
X87001Y-76022D02*
X86951Y-76422D01*
X86887Y-75794D02*
X86690Y-76222D01*
X87062Y-76222D01*
X70972Y-77622D02*
X70972Y-77022D01*
X71315Y-77622D02*
X71058Y-77280D01*
X71315Y-77022D02*
X70972Y-77365D01*
X71572Y-77622D02*
X71572Y-77222D01*
X71572Y-77022D02*
X71544Y-77051D01*
X71572Y-77080D01*
X71601Y-77051D01*
X71572Y-77022D01*
X71572Y-77080D01*
X72201Y-77565D02*
X72172Y-77594D01*
X72087Y-77622D01*
X72030Y-77622D01*
X71944Y-77594D01*
X71887Y-77537D01*
X71858Y-77480D01*
X71830Y-77365D01*
X71830Y-77280D01*
X71858Y-77165D01*
X71887Y-77108D01*
X71944Y-77051D01*
X72030Y-77022D01*
X72087Y-77022D01*
X72172Y-77051D01*
X72201Y-77080D01*
X72715Y-77622D02*
X72715Y-77308D01*
X72687Y-77251D01*
X72630Y-77222D01*
X72515Y-77222D01*
X72458Y-77251D01*
X72715Y-77594D02*
X72658Y-77622D01*
X72515Y-77622D01*
X72458Y-77594D01*
X72430Y-77537D01*
X72430Y-77480D01*
X72458Y-77422D01*
X72515Y-77394D01*
X72658Y-77394D01*
X72715Y-77365D01*
X73258Y-77622D02*
X73258Y-77022D01*
X73258Y-77594D02*
X73201Y-77622D01*
X73087Y-77622D01*
X73030Y-77594D01*
X73001Y-77565D01*
X72972Y-77508D01*
X72972Y-77337D01*
X73001Y-77280D01*
X73030Y-77251D01*
X73087Y-77222D01*
X73201Y-77222D01*
X73258Y-77251D01*
X74001Y-77308D02*
X74201Y-77308D01*
X74287Y-77622D02*
X74001Y-77622D01*
X74001Y-77022D01*
X74287Y-77022D01*
X74544Y-77565D02*
X74572Y-77594D01*
X74544Y-77622D01*
X74515Y-77594D01*
X74544Y-77565D01*
X74544Y-77622D01*
X74829Y-77622D02*
X74829Y-77022D01*
X74972Y-77022D01*
X75058Y-77051D01*
X75115Y-77108D01*
X75144Y-77165D01*
X75172Y-77280D01*
X75172Y-77365D01*
X75144Y-77480D01*
X75115Y-77537D01*
X75058Y-77594D01*
X74972Y-77622D01*
X74829Y-77622D01*
X75429Y-77565D02*
X75458Y-77594D01*
X75429Y-77622D01*
X75401Y-77594D01*
X75429Y-77565D01*
X75429Y-77622D01*
X75687Y-77451D02*
X75972Y-77451D01*
X75629Y-77622D02*
X75829Y-77022D01*
X76029Y-77622D01*
X76229Y-77565D02*
X76258Y-77594D01*
X76229Y-77622D01*
X76201Y-77594D01*
X76229Y-77565D01*
X76229Y-77622D01*
X104522Y-76422D02*
X104358Y-76137D01*
X104180Y-76422D02*
X104255Y-75822D01*
X104483Y-75822D01*
X104537Y-75851D01*
X104562Y-75880D01*
X104583Y-75937D01*
X104572Y-76022D01*
X104537Y-76080D01*
X104505Y-76108D01*
X104444Y-76137D01*
X104215Y-76137D01*
X105012Y-76394D02*
X104951Y-76422D01*
X104837Y-76422D01*
X104783Y-76394D01*
X104762Y-76337D01*
X104790Y-76108D01*
X104826Y-76051D01*
X104887Y-76022D01*
X105001Y-76022D01*
X105055Y-76051D01*
X105076Y-76108D01*
X105069Y-76165D01*
X104776Y-76222D01*
X105287Y-76022D02*
X105380Y-76422D01*
X105572Y-76022D01*
X105758Y-76365D02*
X105783Y-76394D01*
X105751Y-76422D01*
X105726Y-76394D01*
X105758Y-76365D01*
X105751Y-76422D01*
X105797Y-76051D02*
X105822Y-76080D01*
X105790Y-76108D01*
X105765Y-76080D01*
X105797Y-76051D01*
X105790Y-76108D01*
X106533Y-75880D02*
X106565Y-75851D01*
X106626Y-75822D01*
X106769Y-75822D01*
X106822Y-75851D01*
X106847Y-75880D01*
X106869Y-75937D01*
X106862Y-75994D01*
X106822Y-76080D01*
X106437Y-76422D01*
X106808Y-76422D01*
X70944Y-76394D02*
X71030Y-76422D01*
X71172Y-76422D01*
X71230Y-76394D01*
X71258Y-76365D01*
X71287Y-76308D01*
X71287Y-76251D01*
X71258Y-76194D01*
X71230Y-76165D01*
X71172Y-76137D01*
X71058Y-76108D01*
X71001Y-76080D01*
X70972Y-76051D01*
X70944Y-75994D01*
X70944Y-75937D01*
X70972Y-75880D01*
X71001Y-75851D01*
X71058Y-75822D01*
X71201Y-75822D01*
X71287Y-75851D01*
X71544Y-76422D02*
X71544Y-76022D01*
X71544Y-75822D02*
X71515Y-75851D01*
X71544Y-75880D01*
X71572Y-75851D01*
X71544Y-75822D01*
X71544Y-75880D01*
X71772Y-76022D02*
X72087Y-76022D01*
X71772Y-76422D01*
X72087Y-76422D01*
X72544Y-76394D02*
X72487Y-76422D01*
X72372Y-76422D01*
X72315Y-76394D01*
X72287Y-76337D01*
X72287Y-76108D01*
X72315Y-76051D01*
X72372Y-76022D01*
X72487Y-76022D01*
X72544Y-76051D01*
X72572Y-76108D01*
X72572Y-76165D01*
X72287Y-76222D01*
X72830Y-76365D02*
X72858Y-76394D01*
X72830Y-76422D01*
X72801Y-76394D01*
X72830Y-76365D01*
X72830Y-76422D01*
X72830Y-76051D02*
X72858Y-76080D01*
X72830Y-76108D01*
X72801Y-76080D01*
X72830Y-76051D01*
X72830Y-76108D01*
X73544Y-76251D02*
X73830Y-76251D01*
X73487Y-76422D02*
X73687Y-75822D01*
X73887Y-76422D01*
X74344Y-76022D02*
X74344Y-76422D01*
X74201Y-75794D02*
X74058Y-76222D01*
X74430Y-76222D01*
X104172Y-77622D02*
X104172Y-77022D01*
X104715Y-77622D02*
X104715Y-77022D01*
X104715Y-77594D02*
X104658Y-77622D01*
X104544Y-77622D01*
X104487Y-77594D01*
X104458Y-77565D01*
X104430Y-77508D01*
X104430Y-77337D01*
X104458Y-77280D01*
X104487Y-77251D01*
X104544Y-77222D01*
X104658Y-77222D01*
X104715Y-77251D01*
X105001Y-77565D02*
X105030Y-77594D01*
X105001Y-77622D01*
X104972Y-77594D01*
X105001Y-77565D01*
X105001Y-77622D01*
X105001Y-77251D02*
X105030Y-77280D01*
X105001Y-77308D01*
X104972Y-77280D01*
X105001Y-77251D01*
X105001Y-77308D01*
X106058Y-77622D02*
X105715Y-77622D01*
X105887Y-77622D02*
X105887Y-77022D01*
X105829Y-77108D01*
X105772Y-77165D01*
X105715Y-77194D01*
X106744Y-76994D02*
X106230Y-77765D01*
X107258Y-77622D02*
X106915Y-77622D01*
X107087Y-77622D02*
X107087Y-77022D01*
X107029Y-77108D01*
X106972Y-77165D01*
X106915Y-77194D01*
X70969Y-74622D02*
X71312Y-74622D01*
X71065Y-75222D02*
X71140Y-74622D01*
X71437Y-75222D02*
X71487Y-74822D01*
X71512Y-74622D02*
X71480Y-74651D01*
X71505Y-74680D01*
X71537Y-74651D01*
X71512Y-74622D01*
X71505Y-74680D01*
X71687Y-74822D02*
X71915Y-74822D01*
X71797Y-74622D02*
X71733Y-75137D01*
X71755Y-75194D01*
X71808Y-75222D01*
X71865Y-75222D01*
X72151Y-75222D02*
X72097Y-75194D01*
X72076Y-75137D01*
X72140Y-74622D01*
X72612Y-75194D02*
X72551Y-75222D01*
X72437Y-75222D01*
X72383Y-75194D01*
X72362Y-75137D01*
X72390Y-74908D01*
X72426Y-74851D01*
X72487Y-74822D01*
X72601Y-74822D01*
X72655Y-74851D01*
X72676Y-74908D01*
X72669Y-74965D01*
X72376Y-75022D01*
X72901Y-75165D02*
X72926Y-75194D01*
X72894Y-75222D01*
X72869Y-75194D01*
X72901Y-75165D01*
X72894Y-75222D01*
X72940Y-74851D02*
X72965Y-74880D01*
X72933Y-74908D01*
X72908Y-74880D01*
X72940Y-74851D01*
X72933Y-74908D01*
X73655Y-74622D02*
X74055Y-74622D01*
X73580Y-75222D01*
X73980Y-75222D01*
X74208Y-75222D02*
X74258Y-74822D01*
X74283Y-74622D02*
X74251Y-74651D01*
X74276Y-74680D01*
X74308Y-74651D01*
X74283Y-74622D01*
X74276Y-74680D01*
X74544Y-74822D02*
X74469Y-75422D01*
X74540Y-74851D02*
X74601Y-74822D01*
X74715Y-74822D01*
X74769Y-74851D01*
X74794Y-74880D01*
X74815Y-74937D01*
X74794Y-75108D01*
X74758Y-75165D01*
X74726Y-75194D01*
X74665Y-75222D01*
X74551Y-75222D01*
X74497Y-75194D01*
X75087Y-74822D02*
X75012Y-75422D01*
X75083Y-74851D02*
X75144Y-74822D01*
X75258Y-74822D01*
X75312Y-74851D01*
X75337Y-74880D01*
X75358Y-74937D01*
X75337Y-75108D01*
X75301Y-75165D01*
X75269Y-75194D01*
X75208Y-75222D01*
X75094Y-75222D01*
X75040Y-75194D01*
X75812Y-75194D02*
X75751Y-75222D01*
X75637Y-75222D01*
X75583Y-75194D01*
X75562Y-75137D01*
X75590Y-74908D01*
X75626Y-74851D01*
X75687Y-74822D01*
X75801Y-74822D01*
X75855Y-74851D01*
X75876Y-74908D01*
X75869Y-74965D01*
X75576Y-75022D01*
X76094Y-75222D02*
X76144Y-74822D01*
X76130Y-74937D02*
X76165Y-74880D01*
X76197Y-74851D01*
X76258Y-74822D01*
X76315Y-74822D01*
X76915Y-74822D02*
X77008Y-75222D01*
X77201Y-74822D01*
X77387Y-75165D02*
X77412Y-75194D01*
X77380Y-75222D01*
X77355Y-75194D01*
X77387Y-75165D01*
X77380Y-75222D01*
X77705Y-74680D02*
X77737Y-74651D01*
X77797Y-74622D01*
X77940Y-74622D01*
X77994Y-74651D01*
X78019Y-74680D01*
X78040Y-74737D01*
X78033Y-74794D01*
X77994Y-74880D01*
X77608Y-75222D01*
X77980Y-75222D01*
X71172Y-72508D02*
X70972Y-72508D01*
X70972Y-72822D02*
X70972Y-72222D01*
X71258Y-72222D01*
X71487Y-72822D02*
X71487Y-72422D01*
X71487Y-72222D02*
X71458Y-72251D01*
X71487Y-72280D01*
X71515Y-72251D01*
X71487Y-72222D01*
X71487Y-72280D01*
X71858Y-72822D02*
X71801Y-72794D01*
X71772Y-72737D01*
X71772Y-72222D01*
X72315Y-72794D02*
X72258Y-72822D01*
X72144Y-72822D01*
X72087Y-72794D01*
X72058Y-72737D01*
X72058Y-72508D01*
X72087Y-72451D01*
X72144Y-72422D01*
X72258Y-72422D01*
X72315Y-72451D01*
X72344Y-72508D01*
X72344Y-72565D01*
X72058Y-72622D01*
X72601Y-72765D02*
X72630Y-72794D01*
X72601Y-72822D01*
X72572Y-72794D01*
X72601Y-72765D01*
X72601Y-72822D01*
X72601Y-72451D02*
X72630Y-72480D01*
X72601Y-72508D01*
X72572Y-72480D01*
X72601Y-72451D01*
X72601Y-72508D01*
X73287Y-72222D02*
X73687Y-72222D01*
X73287Y-72822D01*
X73687Y-72822D01*
X73915Y-72822D02*
X73915Y-72422D01*
X73915Y-72222D02*
X73887Y-72251D01*
X73915Y-72280D01*
X73944Y-72251D01*
X73915Y-72222D01*
X73915Y-72280D01*
X74201Y-72422D02*
X74201Y-73022D01*
X74201Y-72451D02*
X74258Y-72422D01*
X74372Y-72422D01*
X74430Y-72451D01*
X74458Y-72480D01*
X74487Y-72537D01*
X74487Y-72708D01*
X74458Y-72765D01*
X74430Y-72794D01*
X74372Y-72822D01*
X74258Y-72822D01*
X74201Y-72794D01*
X74744Y-72422D02*
X74744Y-73022D01*
X74744Y-72451D02*
X74801Y-72422D01*
X74915Y-72422D01*
X74972Y-72451D01*
X75001Y-72480D01*
X75030Y-72537D01*
X75030Y-72708D01*
X75001Y-72765D01*
X74972Y-72794D01*
X74915Y-72822D01*
X74801Y-72822D01*
X74744Y-72794D01*
X75515Y-72794D02*
X75458Y-72822D01*
X75344Y-72822D01*
X75287Y-72794D01*
X75258Y-72737D01*
X75258Y-72508D01*
X75287Y-72451D01*
X75344Y-72422D01*
X75458Y-72422D01*
X75515Y-72451D01*
X75544Y-72508D01*
X75544Y-72565D01*
X75258Y-72622D01*
X75801Y-72822D02*
X75801Y-72422D01*
X75801Y-72537D02*
X75830Y-72480D01*
X75858Y-72451D01*
X75915Y-72422D01*
X75972Y-72422D01*
X76172Y-72765D02*
X76201Y-72794D01*
X76172Y-72822D01*
X76144Y-72794D01*
X76172Y-72765D01*
X76172Y-72822D01*
X76458Y-72822D02*
X76458Y-72222D01*
X76515Y-72594D02*
X76687Y-72822D01*
X76687Y-72422D02*
X76458Y-72651D01*
X76944Y-72822D02*
X76944Y-72422D01*
X76944Y-72222D02*
X76915Y-72251D01*
X76944Y-72280D01*
X76972Y-72251D01*
X76944Y-72222D01*
X76944Y-72280D01*
X77487Y-72794D02*
X77430Y-72822D01*
X77315Y-72822D01*
X77258Y-72794D01*
X77230Y-72765D01*
X77201Y-72708D01*
X77201Y-72537D01*
X77230Y-72480D01*
X77258Y-72451D01*
X77315Y-72422D01*
X77430Y-72422D01*
X77487Y-72451D01*
X78001Y-72822D02*
X78001Y-72508D01*
X77972Y-72451D01*
X77915Y-72422D01*
X77801Y-72422D01*
X77744Y-72451D01*
X78001Y-72794D02*
X77944Y-72822D01*
X77801Y-72822D01*
X77744Y-72794D01*
X77715Y-72737D01*
X77715Y-72680D01*
X77744Y-72622D01*
X77801Y-72594D01*
X77944Y-72594D01*
X78001Y-72565D01*
X78544Y-72822D02*
X78544Y-72222D01*
X78544Y-72794D02*
X78487Y-72822D01*
X78372Y-72822D01*
X78315Y-72794D01*
X78287Y-72765D01*
X78258Y-72708D01*
X78258Y-72537D01*
X78287Y-72480D01*
X78315Y-72451D01*
X78372Y-72422D01*
X78487Y-72422D01*
X78544Y-72451D01*
X78687Y-72880D02*
X79144Y-72880D01*
X79287Y-72422D02*
X79287Y-73022D01*
X79287Y-72451D02*
X79344Y-72422D01*
X79458Y-72422D01*
X79515Y-72451D01*
X79544Y-72480D01*
X79572Y-72537D01*
X79572Y-72708D01*
X79544Y-72765D01*
X79515Y-72794D01*
X79458Y-72822D01*
X79344Y-72822D01*
X79287Y-72794D01*
X80087Y-72794D02*
X80030Y-72822D01*
X79915Y-72822D01*
X79858Y-72794D01*
X79830Y-72765D01*
X79801Y-72708D01*
X79801Y-72537D01*
X79830Y-72480D01*
X79858Y-72451D01*
X79915Y-72422D01*
X80030Y-72422D01*
X80087Y-72451D01*
X80344Y-72822D02*
X80344Y-72222D01*
X80344Y-72451D02*
X80401Y-72422D01*
X80515Y-72422D01*
X80572Y-72451D01*
X80601Y-72480D01*
X80630Y-72537D01*
X80630Y-72708D01*
X80601Y-72765D01*
X80572Y-72794D01*
X80515Y-72822D01*
X80401Y-72822D01*
X80344Y-72794D01*
X70944Y-73994D02*
X71030Y-74022D01*
X71172Y-74022D01*
X71230Y-73994D01*
X71258Y-73965D01*
X71287Y-73908D01*
X71287Y-73851D01*
X71258Y-73794D01*
X71230Y-73765D01*
X71172Y-73737D01*
X71058Y-73708D01*
X71001Y-73680D01*
X70972Y-73651D01*
X70944Y-73594D01*
X70944Y-73537D01*
X70972Y-73480D01*
X71001Y-73451D01*
X71058Y-73422D01*
X71201Y-73422D01*
X71287Y-73451D01*
X71544Y-74022D02*
X71544Y-73422D01*
X71801Y-74022D02*
X71801Y-73708D01*
X71772Y-73651D01*
X71715Y-73622D01*
X71630Y-73622D01*
X71572Y-73651D01*
X71544Y-73680D01*
X72315Y-73994D02*
X72258Y-74022D01*
X72144Y-74022D01*
X72087Y-73994D01*
X72058Y-73937D01*
X72058Y-73708D01*
X72087Y-73651D01*
X72144Y-73622D01*
X72258Y-73622D01*
X72315Y-73651D01*
X72344Y-73708D01*
X72344Y-73765D01*
X72058Y-73822D01*
X72830Y-73994D02*
X72772Y-74022D01*
X72658Y-74022D01*
X72601Y-73994D01*
X72572Y-73937D01*
X72572Y-73708D01*
X72601Y-73651D01*
X72658Y-73622D01*
X72772Y-73622D01*
X72830Y-73651D01*
X72858Y-73708D01*
X72858Y-73765D01*
X72572Y-73822D01*
X73030Y-73622D02*
X73258Y-73622D01*
X73115Y-73422D02*
X73115Y-73937D01*
X73144Y-73994D01*
X73201Y-74022D01*
X73258Y-74022D01*
X73458Y-73965D02*
X73487Y-73994D01*
X73458Y-74022D01*
X73430Y-73994D01*
X73458Y-73965D01*
X73458Y-74022D01*
X73458Y-73651D02*
X73487Y-73680D01*
X73458Y-73708D01*
X73430Y-73680D01*
X73458Y-73651D01*
X73458Y-73708D01*
X70887Y-69822D02*
X71230Y-69822D01*
X71058Y-70422D02*
X71058Y-69822D01*
X71430Y-70422D02*
X71430Y-69822D01*
X71430Y-70108D02*
X71772Y-70108D01*
X71772Y-70422D02*
X71772Y-69822D01*
X72058Y-70422D02*
X72058Y-69822D01*
X72315Y-70394D02*
X72401Y-70422D01*
X72544Y-70422D01*
X72601Y-70394D01*
X72629Y-70365D01*
X72658Y-70308D01*
X72658Y-70251D01*
X72629Y-70194D01*
X72601Y-70165D01*
X72544Y-70137D01*
X72429Y-70108D01*
X72372Y-70080D01*
X72344Y-70051D01*
X72315Y-69994D01*
X72315Y-69937D01*
X72344Y-69880D01*
X72372Y-69851D01*
X72429Y-69822D01*
X72572Y-69822D01*
X72658Y-69851D01*
X73315Y-69822D02*
X73458Y-70422D01*
X73572Y-69994D01*
X73687Y-70422D01*
X73830Y-69822D01*
X74172Y-69822D02*
X74287Y-69822D01*
X74344Y-69851D01*
X74401Y-69908D01*
X74430Y-70022D01*
X74430Y-70222D01*
X74401Y-70337D01*
X74344Y-70394D01*
X74287Y-70422D01*
X74172Y-70422D01*
X74115Y-70394D01*
X74058Y-70337D01*
X74030Y-70222D01*
X74030Y-70022D01*
X74058Y-69908D01*
X74115Y-69851D01*
X74172Y-69822D01*
X75029Y-70422D02*
X74829Y-70137D01*
X74687Y-70422D02*
X74687Y-69822D01*
X74915Y-69822D01*
X74972Y-69851D01*
X75001Y-69880D01*
X75029Y-69937D01*
X75029Y-70022D01*
X75001Y-70080D01*
X74972Y-70108D01*
X74915Y-70137D01*
X74687Y-70137D01*
X75287Y-70422D02*
X75287Y-69822D01*
X75629Y-70422D02*
X75372Y-70080D01*
X75629Y-69822D02*
X75287Y-70165D01*
X76344Y-70422D02*
X76344Y-69822D01*
X76601Y-70394D02*
X76687Y-70422D01*
X76829Y-70422D01*
X76887Y-70394D01*
X76915Y-70365D01*
X76944Y-70308D01*
X76944Y-70251D01*
X76915Y-70194D01*
X76887Y-70165D01*
X76829Y-70137D01*
X76715Y-70108D01*
X76658Y-70080D01*
X76629Y-70051D01*
X76601Y-69994D01*
X76601Y-69937D01*
X76629Y-69880D01*
X76658Y-69851D01*
X76715Y-69822D01*
X76858Y-69822D01*
X76944Y-69851D01*
X78001Y-70365D02*
X77972Y-70394D01*
X77887Y-70422D01*
X77830Y-70422D01*
X77744Y-70394D01*
X77687Y-70337D01*
X77658Y-70280D01*
X77630Y-70165D01*
X77630Y-70080D01*
X77658Y-69965D01*
X77687Y-69908D01*
X77744Y-69851D01*
X77830Y-69822D01*
X77887Y-69822D01*
X77972Y-69851D01*
X78001Y-69880D01*
X78372Y-69822D02*
X78487Y-69822D01*
X78544Y-69851D01*
X78601Y-69908D01*
X78630Y-70022D01*
X78630Y-70222D01*
X78601Y-70337D01*
X78544Y-70394D01*
X78487Y-70422D01*
X78372Y-70422D01*
X78315Y-70394D01*
X78258Y-70337D01*
X78230Y-70222D01*
X78230Y-70022D01*
X78258Y-69908D01*
X78315Y-69851D01*
X78372Y-69822D01*
X78801Y-69822D02*
X79001Y-70422D01*
X79201Y-69822D01*
X79401Y-70108D02*
X79601Y-70108D01*
X79687Y-70422D02*
X79401Y-70422D01*
X79401Y-69822D01*
X79687Y-69822D01*
X80287Y-70422D02*
X80087Y-70137D01*
X79944Y-70422D02*
X79944Y-69822D01*
X80172Y-69822D01*
X80229Y-69851D01*
X80258Y-69880D01*
X80287Y-69937D01*
X80287Y-70022D01*
X80258Y-70080D01*
X80229Y-70108D01*
X80172Y-70137D01*
X79944Y-70137D01*
X80544Y-70108D02*
X80744Y-70108D01*
X80829Y-70422D02*
X80544Y-70422D01*
X80544Y-69822D01*
X80829Y-69822D01*
X81087Y-70422D02*
X81087Y-69822D01*
X81229Y-69822D01*
X81315Y-69851D01*
X81372Y-69908D01*
X81401Y-69965D01*
X81429Y-70080D01*
X81429Y-70165D01*
X81401Y-70280D01*
X81372Y-70337D01*
X81315Y-70394D01*
X81229Y-70422D01*
X81087Y-70422D01*
X82144Y-69822D02*
X82144Y-70308D01*
X82172Y-70365D01*
X82201Y-70394D01*
X82258Y-70422D01*
X82372Y-70422D01*
X82429Y-70394D01*
X82458Y-70365D01*
X82487Y-70308D01*
X82487Y-69822D01*
X82772Y-70422D02*
X82772Y-69822D01*
X83115Y-70422D01*
X83115Y-69822D01*
X83401Y-70422D02*
X83401Y-69822D01*
X83544Y-69822D01*
X83629Y-69851D01*
X83687Y-69908D01*
X83715Y-69965D01*
X83744Y-70080D01*
X83744Y-70165D01*
X83715Y-70280D01*
X83687Y-70337D01*
X83629Y-70394D01*
X83544Y-70422D01*
X83401Y-70422D01*
X84001Y-70108D02*
X84201Y-70108D01*
X84287Y-70422D02*
X84001Y-70422D01*
X84001Y-69822D01*
X84287Y-69822D01*
X84887Y-70422D02*
X84687Y-70137D01*
X84544Y-70422D02*
X84544Y-69822D01*
X84772Y-69822D01*
X84829Y-69851D01*
X84858Y-69880D01*
X84887Y-69937D01*
X84887Y-70022D01*
X84858Y-70080D01*
X84829Y-70108D01*
X84772Y-70137D01*
X84544Y-70137D01*
X85572Y-70251D02*
X85858Y-70251D01*
X85515Y-70422D02*
X85715Y-69822D01*
X85915Y-70422D01*
X86915Y-70365D02*
X86887Y-70394D01*
X86801Y-70422D01*
X86744Y-70422D01*
X86658Y-70394D01*
X86601Y-70337D01*
X86572Y-70280D01*
X86544Y-70165D01*
X86544Y-70080D01*
X86572Y-69965D01*
X86601Y-69908D01*
X86658Y-69851D01*
X86744Y-69822D01*
X86801Y-69822D01*
X86887Y-69851D01*
X86915Y-69880D01*
X87515Y-70422D02*
X87315Y-70137D01*
X87172Y-70422D02*
X87172Y-69822D01*
X87401Y-69822D01*
X87458Y-69851D01*
X87487Y-69880D01*
X87515Y-69937D01*
X87515Y-70022D01*
X87487Y-70080D01*
X87458Y-70108D01*
X87401Y-70137D01*
X87172Y-70137D01*
X87772Y-70108D02*
X87972Y-70108D01*
X88058Y-70422D02*
X87772Y-70422D01*
X87772Y-69822D01*
X88058Y-69822D01*
X88287Y-70251D02*
X88572Y-70251D01*
X88229Y-70422D02*
X88429Y-69822D01*
X88629Y-70422D01*
X88744Y-69822D02*
X89087Y-69822D01*
X88915Y-70422D02*
X88915Y-69822D01*
X89287Y-70422D02*
X89287Y-69822D01*
X89487Y-69822D02*
X89687Y-70422D01*
X89887Y-69822D01*
X90087Y-70108D02*
X90287Y-70108D01*
X90372Y-70422D02*
X90087Y-70422D01*
X90087Y-69822D01*
X90372Y-69822D01*
X91429Y-70365D02*
X91401Y-70394D01*
X91315Y-70422D01*
X91258Y-70422D01*
X91172Y-70394D01*
X91115Y-70337D01*
X91087Y-70280D01*
X91058Y-70165D01*
X91058Y-70080D01*
X91087Y-69965D01*
X91115Y-69908D01*
X91172Y-69851D01*
X91258Y-69822D01*
X91315Y-69822D01*
X91401Y-69851D01*
X91429Y-69880D01*
X91801Y-69822D02*
X91915Y-69822D01*
X91972Y-69851D01*
X92029Y-69908D01*
X92058Y-70022D01*
X92058Y-70222D01*
X92029Y-70337D01*
X91972Y-70394D01*
X91915Y-70422D01*
X91801Y-70422D01*
X91744Y-70394D01*
X91687Y-70337D01*
X91658Y-70222D01*
X91658Y-70022D01*
X91687Y-69908D01*
X91744Y-69851D01*
X91801Y-69822D01*
X92315Y-70422D02*
X92315Y-69822D01*
X92515Y-70251D01*
X92715Y-69822D01*
X92715Y-70422D01*
X93001Y-70422D02*
X93001Y-69822D01*
X93201Y-70251D01*
X93401Y-69822D01*
X93401Y-70422D01*
X93801Y-69822D02*
X93915Y-69822D01*
X93972Y-69851D01*
X94029Y-69908D01*
X94058Y-70022D01*
X94058Y-70222D01*
X94029Y-70337D01*
X93972Y-70394D01*
X93915Y-70422D01*
X93801Y-70422D01*
X93744Y-70394D01*
X93687Y-70337D01*
X93658Y-70222D01*
X93658Y-70022D01*
X93687Y-69908D01*
X93744Y-69851D01*
X93801Y-69822D01*
X94315Y-70422D02*
X94315Y-69822D01*
X94658Y-70422D01*
X94658Y-69822D01*
X94915Y-70394D02*
X95001Y-70422D01*
X95144Y-70422D01*
X95201Y-70394D01*
X95229Y-70365D01*
X95258Y-70308D01*
X95258Y-70251D01*
X95229Y-70194D01*
X95201Y-70165D01*
X95144Y-70137D01*
X95029Y-70108D01*
X94972Y-70080D01*
X94944Y-70051D01*
X94915Y-69994D01*
X94915Y-69937D01*
X94944Y-69880D01*
X94972Y-69851D01*
X95029Y-69822D01*
X95172Y-69822D01*
X95258Y-69851D01*
X96258Y-70422D02*
X95972Y-70422D01*
X95972Y-69822D01*
X96458Y-70422D02*
X96458Y-69822D01*
X97087Y-70365D02*
X97058Y-70394D01*
X96972Y-70422D01*
X96915Y-70422D01*
X96829Y-70394D01*
X96772Y-70337D01*
X96744Y-70280D01*
X96715Y-70165D01*
X96715Y-70080D01*
X96744Y-69965D01*
X96772Y-69908D01*
X96829Y-69851D01*
X96915Y-69822D01*
X96972Y-69822D01*
X97058Y-69851D01*
X97087Y-69880D01*
X97344Y-70108D02*
X97544Y-70108D01*
X97629Y-70422D02*
X97344Y-70422D01*
X97344Y-69822D01*
X97629Y-69822D01*
X97887Y-70422D02*
X97887Y-69822D01*
X98229Y-70422D01*
X98229Y-69822D01*
X98487Y-70394D02*
X98572Y-70422D01*
X98715Y-70422D01*
X98772Y-70394D01*
X98801Y-70365D01*
X98829Y-70308D01*
X98829Y-70251D01*
X98801Y-70194D01*
X98772Y-70165D01*
X98715Y-70137D01*
X98601Y-70108D01*
X98544Y-70080D01*
X98515Y-70051D01*
X98487Y-69994D01*
X98487Y-69937D01*
X98515Y-69880D01*
X98544Y-69851D01*
X98601Y-69822D01*
X98744Y-69822D01*
X98829Y-69851D01*
X99087Y-70108D02*
X99287Y-70108D01*
X99372Y-70422D02*
X99087Y-70422D01*
X99087Y-69822D01*
X99372Y-69822D01*
X100258Y-70651D02*
X100229Y-70622D01*
X100172Y-70537D01*
X100144Y-70480D01*
X100115Y-70394D01*
X100087Y-70251D01*
X100087Y-70137D01*
X100115Y-69994D01*
X100144Y-69908D01*
X100172Y-69851D01*
X100229Y-69765D01*
X100258Y-69737D01*
X100829Y-70365D02*
X100801Y-70394D01*
X100715Y-70422D01*
X100658Y-70422D01*
X100572Y-70394D01*
X100515Y-70337D01*
X100487Y-70280D01*
X100458Y-70165D01*
X100458Y-70080D01*
X100487Y-69965D01*
X100515Y-69908D01*
X100572Y-69851D01*
X100658Y-69822D01*
X100715Y-69822D01*
X100801Y-69851D01*
X100829Y-69880D01*
X101429Y-70365D02*
X101401Y-70394D01*
X101315Y-70422D01*
X101258Y-70422D01*
X101172Y-70394D01*
X101115Y-70337D01*
X101087Y-70280D01*
X101058Y-70165D01*
X101058Y-70080D01*
X101087Y-69965D01*
X101115Y-69908D01*
X101172Y-69851D01*
X101258Y-69822D01*
X101315Y-69822D01*
X101401Y-69851D01*
X101429Y-69880D01*
X102344Y-70108D02*
X102429Y-70137D01*
X102458Y-70165D01*
X102487Y-70222D01*
X102487Y-70308D01*
X102458Y-70365D01*
X102429Y-70394D01*
X102372Y-70422D01*
X102144Y-70422D01*
X102144Y-69822D01*
X102344Y-69822D01*
X102401Y-69851D01*
X102429Y-69880D01*
X102458Y-69937D01*
X102458Y-69994D01*
X102429Y-70051D01*
X102401Y-70080D01*
X102344Y-70108D01*
X102144Y-70108D01*
X102858Y-70137D02*
X102858Y-70422D01*
X102658Y-69822D02*
X102858Y-70137D01*
X103058Y-69822D01*
X103658Y-69822D02*
X104029Y-69822D01*
X103829Y-70051D01*
X103915Y-70051D01*
X103972Y-70080D01*
X104001Y-70108D01*
X104029Y-70165D01*
X104029Y-70308D01*
X104001Y-70365D01*
X103972Y-70394D01*
X103915Y-70422D01*
X103744Y-70422D01*
X103687Y-70394D01*
X103658Y-70365D01*
X104287Y-70365D02*
X104315Y-70394D01*
X104287Y-70422D01*
X104258Y-70394D01*
X104287Y-70365D01*
X104287Y-70422D01*
X104687Y-69822D02*
X104744Y-69822D01*
X104801Y-69851D01*
X104829Y-69880D01*
X104858Y-69937D01*
X104887Y-70051D01*
X104887Y-70194D01*
X104858Y-70308D01*
X104829Y-70365D01*
X104801Y-70394D01*
X104744Y-70422D01*
X104687Y-70422D01*
X104629Y-70394D01*
X104601Y-70365D01*
X104572Y-70308D01*
X104544Y-70194D01*
X104544Y-70051D01*
X104572Y-69937D01*
X104601Y-69880D01*
X104629Y-69851D01*
X104687Y-69822D01*
X105087Y-70651D02*
X105115Y-70622D01*
X105172Y-70537D01*
X105201Y-70480D01*
X105229Y-70394D01*
X105258Y-70251D01*
X105258Y-70137D01*
X105229Y-69994D01*
X105201Y-69908D01*
X105172Y-69851D01*
X105115Y-69765D01*
X105087Y-69737D01*
X71315Y-69165D02*
X71287Y-69194D01*
X71201Y-69222D01*
X71144Y-69222D01*
X71058Y-69194D01*
X71001Y-69137D01*
X70972Y-69080D01*
X70944Y-68965D01*
X70944Y-68880D01*
X70972Y-68765D01*
X71001Y-68708D01*
X71058Y-68651D01*
X71144Y-68622D01*
X71201Y-68622D01*
X71287Y-68651D01*
X71315Y-68680D01*
X71658Y-69222D02*
X71601Y-69194D01*
X71572Y-69165D01*
X71544Y-69108D01*
X71544Y-68937D01*
X71572Y-68880D01*
X71601Y-68851D01*
X71658Y-68822D01*
X71744Y-68822D01*
X71801Y-68851D01*
X71830Y-68880D01*
X71858Y-68937D01*
X71858Y-69108D01*
X71830Y-69165D01*
X71801Y-69194D01*
X71744Y-69222D01*
X71658Y-69222D01*
X72115Y-68822D02*
X72115Y-69422D01*
X72115Y-68851D02*
X72172Y-68822D01*
X72287Y-68822D01*
X72344Y-68851D01*
X72372Y-68880D01*
X72401Y-68937D01*
X72401Y-69108D01*
X72372Y-69165D01*
X72344Y-69194D01*
X72287Y-69222D01*
X72172Y-69222D01*
X72115Y-69194D01*
X72601Y-68822D02*
X72744Y-69222D01*
X72887Y-68822D02*
X72744Y-69222D01*
X72687Y-69365D01*
X72658Y-69394D01*
X72601Y-69422D01*
X73115Y-69222D02*
X73115Y-68822D01*
X73115Y-68937D02*
X73144Y-68880D01*
X73172Y-68851D01*
X73230Y-68822D01*
X73287Y-68822D01*
X73487Y-69222D02*
X73487Y-68822D01*
X73487Y-68622D02*
X73458Y-68651D01*
X73487Y-68680D01*
X73515Y-68651D01*
X73487Y-68622D01*
X73487Y-68680D01*
X74030Y-68822D02*
X74030Y-69308D01*
X74001Y-69365D01*
X73972Y-69394D01*
X73915Y-69422D01*
X73830Y-69422D01*
X73772Y-69394D01*
X74030Y-69194D02*
X73972Y-69222D01*
X73858Y-69222D01*
X73801Y-69194D01*
X73772Y-69165D01*
X73744Y-69108D01*
X73744Y-68937D01*
X73772Y-68880D01*
X73801Y-68851D01*
X73858Y-68822D01*
X73972Y-68822D01*
X74030Y-68851D01*
X74315Y-69222D02*
X74315Y-68622D01*
X74572Y-69222D02*
X74572Y-68908D01*
X74544Y-68851D01*
X74487Y-68822D01*
X74401Y-68822D01*
X74344Y-68851D01*
X74315Y-68880D01*
X74772Y-68822D02*
X75001Y-68822D01*
X74858Y-68622D02*
X74858Y-69137D01*
X74887Y-69194D01*
X74944Y-69222D01*
X75001Y-69222D01*
X75630Y-68680D02*
X75658Y-68651D01*
X75715Y-68622D01*
X75858Y-68622D01*
X75915Y-68651D01*
X75944Y-68680D01*
X75972Y-68737D01*
X75972Y-68794D01*
X75944Y-68880D01*
X75601Y-69222D01*
X75972Y-69222D01*
X76344Y-68622D02*
X76401Y-68622D01*
X76458Y-68651D01*
X76487Y-68680D01*
X76515Y-68737D01*
X76544Y-68851D01*
X76544Y-68994D01*
X76515Y-69108D01*
X76487Y-69165D01*
X76458Y-69194D01*
X76401Y-69222D01*
X76344Y-69222D01*
X76287Y-69194D01*
X76258Y-69165D01*
X76230Y-69108D01*
X76201Y-68994D01*
X76201Y-68851D01*
X76230Y-68737D01*
X76258Y-68680D01*
X76287Y-68651D01*
X76344Y-68622D01*
X77115Y-69222D02*
X76772Y-69222D01*
X76944Y-69222D02*
X76944Y-68622D01*
X76887Y-68708D01*
X76830Y-68765D01*
X76772Y-68794D01*
X77315Y-68622D02*
X77687Y-68622D01*
X77487Y-68851D01*
X77572Y-68851D01*
X77630Y-68880D01*
X77658Y-68908D01*
X77687Y-68965D01*
X77687Y-69108D01*
X77658Y-69165D01*
X77630Y-69194D01*
X77572Y-69222D01*
X77401Y-69222D01*
X77344Y-69194D01*
X77315Y-69165D01*
X78372Y-69051D02*
X78658Y-69051D01*
X78315Y-69222D02*
X78515Y-68622D01*
X78715Y-69222D01*
X78858Y-68622D02*
X79258Y-68622D01*
X78858Y-69222D01*
X79258Y-69222D01*
X79487Y-69222D02*
X79487Y-68622D01*
X79887Y-68622D02*
X80001Y-68622D01*
X80058Y-68651D01*
X80115Y-68708D01*
X80144Y-68822D01*
X80144Y-69022D01*
X80115Y-69137D01*
X80058Y-69194D01*
X80001Y-69222D01*
X79887Y-69222D01*
X79830Y-69194D01*
X79772Y-69137D01*
X79744Y-69022D01*
X79744Y-68822D01*
X79772Y-68708D01*
X79830Y-68651D01*
X79887Y-68622D01*
X80858Y-68908D02*
X81058Y-68908D01*
X81144Y-69222D02*
X80858Y-69222D01*
X80858Y-68622D01*
X81144Y-68622D01*
X81487Y-69222D02*
X81430Y-69194D01*
X81401Y-69137D01*
X81401Y-68622D01*
X81944Y-69194D02*
X81887Y-69222D01*
X81772Y-69222D01*
X81715Y-69194D01*
X81687Y-69137D01*
X81687Y-68908D01*
X81715Y-68851D01*
X81772Y-68822D01*
X81887Y-68822D01*
X81944Y-68851D01*
X81972Y-68908D01*
X81972Y-68965D01*
X81687Y-69022D01*
X82487Y-69194D02*
X82430Y-69222D01*
X82315Y-69222D01*
X82258Y-69194D01*
X82230Y-69165D01*
X82201Y-69108D01*
X82201Y-68937D01*
X82230Y-68880D01*
X82258Y-68851D01*
X82315Y-68822D01*
X82430Y-68822D01*
X82487Y-68851D01*
X82658Y-68822D02*
X82887Y-68822D01*
X82744Y-68622D02*
X82744Y-69137D01*
X82772Y-69194D01*
X82830Y-69222D01*
X82887Y-69222D01*
X83087Y-69222D02*
X83087Y-68822D01*
X83087Y-68937D02*
X83115Y-68880D01*
X83144Y-68851D01*
X83201Y-68822D01*
X83258Y-68822D01*
X83544Y-69222D02*
X83487Y-69194D01*
X83458Y-69165D01*
X83430Y-69108D01*
X83430Y-68937D01*
X83458Y-68880D01*
X83487Y-68851D01*
X83544Y-68822D01*
X83630Y-68822D01*
X83687Y-68851D01*
X83715Y-68880D01*
X83744Y-68937D01*
X83744Y-69108D01*
X83715Y-69165D01*
X83687Y-69194D01*
X83630Y-69222D01*
X83544Y-69222D01*
X84001Y-68822D02*
X84001Y-69222D01*
X84001Y-68880D02*
X84030Y-68851D01*
X84087Y-68822D01*
X84172Y-68822D01*
X84230Y-68851D01*
X84258Y-68908D01*
X84258Y-69222D01*
X84544Y-69222D02*
X84544Y-68822D01*
X84544Y-68622D02*
X84515Y-68651D01*
X84544Y-68680D01*
X84572Y-68651D01*
X84544Y-68622D01*
X84544Y-68680D01*
X85087Y-69194D02*
X85030Y-69222D01*
X84915Y-69222D01*
X84858Y-69194D01*
X84830Y-69165D01*
X84801Y-69108D01*
X84801Y-68937D01*
X84830Y-68880D01*
X84858Y-68851D01*
X84915Y-68822D01*
X85030Y-68822D01*
X85087Y-68851D01*
X85315Y-69194D02*
X85372Y-69222D01*
X85487Y-69222D01*
X85544Y-69194D01*
X85572Y-69137D01*
X85572Y-69108D01*
X85544Y-69051D01*
X85487Y-69022D01*
X85401Y-69022D01*
X85344Y-68994D01*
X85315Y-68937D01*
X85315Y-68908D01*
X85344Y-68851D01*
X85401Y-68822D01*
X85487Y-68822D01*
X85544Y-68851D01*
X86630Y-69165D02*
X86601Y-69194D01*
X86515Y-69222D01*
X86458Y-69222D01*
X86372Y-69194D01*
X86315Y-69137D01*
X86287Y-69080D01*
X86258Y-68965D01*
X86258Y-68880D01*
X86287Y-68765D01*
X86315Y-68708D01*
X86372Y-68651D01*
X86458Y-68622D01*
X86515Y-68622D01*
X86601Y-68651D01*
X86630Y-68680D01*
X86972Y-69222D02*
X86915Y-69194D01*
X86887Y-69165D01*
X86858Y-69108D01*
X86858Y-68937D01*
X86887Y-68880D01*
X86915Y-68851D01*
X86972Y-68822D01*
X87058Y-68822D01*
X87115Y-68851D01*
X87144Y-68880D01*
X87172Y-68937D01*
X87172Y-69108D01*
X87144Y-69165D01*
X87115Y-69194D01*
X87058Y-69222D01*
X86972Y-69222D01*
X87430Y-69165D02*
X87458Y-69194D01*
X87430Y-69222D01*
X87401Y-69194D01*
X87430Y-69165D01*
X87430Y-69222D01*
X87744Y-69194D02*
X87744Y-69222D01*
X87715Y-69280D01*
X87687Y-69308D01*
X88744Y-69222D02*
X88458Y-69222D01*
X88458Y-68622D01*
X88858Y-68822D02*
X89087Y-68822D01*
X88944Y-68622D02*
X88944Y-69137D01*
X88972Y-69194D01*
X89030Y-69222D01*
X89087Y-69222D01*
X89544Y-69222D02*
X89544Y-68622D01*
X89544Y-69194D02*
X89487Y-69222D01*
X89372Y-69222D01*
X89315Y-69194D01*
X89287Y-69165D01*
X89258Y-69108D01*
X89258Y-68937D01*
X89287Y-68880D01*
X89315Y-68851D01*
X89372Y-68822D01*
X89487Y-68822D01*
X89544Y-68851D01*
X89830Y-69165D02*
X89858Y-69194D01*
X89830Y-69222D01*
X89801Y-69194D01*
X89830Y-69165D01*
X89830Y-69222D01*
X70230Y-68380D02*
X70230Y-77980D01*
X70230Y-71980D02*
X112230Y-71980D01*
X70230Y-68380D02*
X112230Y-68380D01*
X70230Y-74380D02*
X112230Y-74380D01*
X103430Y-75580D02*
X103430Y-77980D01*
X70230Y-76780D02*
X112230Y-76780D01*
X70230Y-75580D02*
X112230Y-75580D01*
X76830Y-75580D02*
X76830Y-76780D01*
G54D11*
X68897Y-23031D02*
G75*
G03X69881Y-24015I984J0D01*
G74*
G01*
X68897Y-23031D02*
G75*
G03X67913Y-22047I-984J0D01*
G74*
G01*
X34842Y-22047D02*
G75*
G03X33858Y-23031I0J-984D01*
G74*
G01*
X33858Y-51771D02*
G75*
G03X34842Y-52755I984J0D01*
G74*
G01*
X67913Y-52755D02*
G75*
G03X68897Y-51771I0J984D01*
G74*
G01*
X69881Y-50787D02*
G75*
G03X68897Y-51771I0J-984D01*
G74*
G01*
X75000Y-50787D02*
G75*
G03X75984Y-49803I0J984D01*
G74*
G01*
X75984Y-25000D02*
G75*
G03X75000Y-24015I-984J0D01*
G74*
G01*
X72631Y-25118D02*
G75*
G03X72631Y-25118I-977J0D01*
G74*
G01*
X72631Y-49685D02*
G75*
G03X72631Y-49685I-977J0D01*
G74*
G01*
G54D12*
X49044Y-43039D02*
X49044Y-43197D01*
X49456Y-43197D02*
X48669Y-43197D01*
X48669Y-42972D01*
X48669Y-42837D02*
X49456Y-42522D01*
X48669Y-42522D02*
X49456Y-42837D01*
X49456Y-42095D02*
X49456Y-42365D01*
X49456Y-42230D02*
X48669Y-42230D01*
X48781Y-42275D01*
X48856Y-42320D01*
X48894Y-42365D01*
X48669Y-41802D02*
X48669Y-41757D01*
X48706Y-41712D01*
X48744Y-41690D01*
X48819Y-41667D01*
X48969Y-41645D01*
X49156Y-41645D01*
X49306Y-41667D01*
X49381Y-41690D01*
X49419Y-41712D01*
X49456Y-41757D01*
X49456Y-41802D01*
X49419Y-41847D01*
X49381Y-41870D01*
X49306Y-41892D01*
X49156Y-41915D01*
X48969Y-41915D01*
X48819Y-41892D01*
X48744Y-41870D01*
X48706Y-41847D01*
X48669Y-41802D01*
X49044Y-41285D02*
X49081Y-41217D01*
X49119Y-41195D01*
X49194Y-41172D01*
X49306Y-41172D01*
X49381Y-41195D01*
X49419Y-41217D01*
X49456Y-41262D01*
X49456Y-41442D01*
X48669Y-41442D01*
X48669Y-41285D01*
X48706Y-41240D01*
X48744Y-41217D01*
X48819Y-41195D01*
X48894Y-41195D01*
X48969Y-41217D01*
X49006Y-41240D01*
X49044Y-41285D01*
X49044Y-41442D01*
X49156Y-40610D02*
X49156Y-40250D01*
X49456Y-39665D02*
X48669Y-39665D01*
X49044Y-39665D02*
X49044Y-39395D01*
X49456Y-39395D02*
X48669Y-39395D01*
X49419Y-39192D02*
X49456Y-39125D01*
X49456Y-39012D01*
X49419Y-38967D01*
X49381Y-38945D01*
X49306Y-38922D01*
X49231Y-38922D01*
X49156Y-38945D01*
X49119Y-38967D01*
X49081Y-39012D01*
X49044Y-39102D01*
X49006Y-39147D01*
X48969Y-39170D01*
X48894Y-39192D01*
X48819Y-39192D01*
X48744Y-39170D01*
X48706Y-39147D01*
X48669Y-39102D01*
X48669Y-38990D01*
X48706Y-38922D01*
X49456Y-38720D02*
X48669Y-38720D01*
X49231Y-38562D01*
X48669Y-38405D01*
X49456Y-38405D01*
X49381Y-37910D02*
X49419Y-37933D01*
X49456Y-38000D01*
X49456Y-38045D01*
X49419Y-38113D01*
X49344Y-38158D01*
X49269Y-38180D01*
X49119Y-38203D01*
X49006Y-38203D01*
X48856Y-38180D01*
X48781Y-38158D01*
X48706Y-38113D01*
X48669Y-38045D01*
X48669Y-38000D01*
X48706Y-37933D01*
X48744Y-37910D01*
X48631Y-37010D02*
X49643Y-37415D01*
X49456Y-36493D02*
X48669Y-36493D01*
X48669Y-36313D01*
X48706Y-36268D01*
X48744Y-36245D01*
X48819Y-36223D01*
X48931Y-36223D01*
X49006Y-36245D01*
X49044Y-36268D01*
X49081Y-36313D01*
X49081Y-36493D01*
X49456Y-36020D02*
X48931Y-36020D01*
X48669Y-36020D02*
X48706Y-36043D01*
X48744Y-36020D01*
X48706Y-35998D01*
X48669Y-36020D01*
X48744Y-36020D01*
X48931Y-35795D02*
X49456Y-35795D01*
X49006Y-35795D02*
X48969Y-35773D01*
X48931Y-35728D01*
X48931Y-35660D01*
X48969Y-35615D01*
X49044Y-35593D01*
X49456Y-35593D01*
X49456Y-35368D02*
X48669Y-35368D01*
X49044Y-35368D02*
X49044Y-35098D01*
X49456Y-35098D02*
X48669Y-35098D01*
X49419Y-34693D02*
X49456Y-34738D01*
X49456Y-34828D01*
X49419Y-34873D01*
X49344Y-34895D01*
X49044Y-34895D01*
X48969Y-34873D01*
X48931Y-34828D01*
X48931Y-34738D01*
X48969Y-34693D01*
X49044Y-34670D01*
X49119Y-34670D01*
X49194Y-34895D01*
X49456Y-34266D02*
X49044Y-34266D01*
X48969Y-34288D01*
X48931Y-34333D01*
X48931Y-34423D01*
X48969Y-34468D01*
X49419Y-34266D02*
X49456Y-34311D01*
X49456Y-34423D01*
X49419Y-34468D01*
X49344Y-34491D01*
X49269Y-34491D01*
X49194Y-34468D01*
X49156Y-34423D01*
X49156Y-34311D01*
X49119Y-34266D01*
X49456Y-33838D02*
X48669Y-33838D01*
X49419Y-33838D02*
X49456Y-33883D01*
X49456Y-33973D01*
X49419Y-34018D01*
X49381Y-34041D01*
X49306Y-34063D01*
X49081Y-34063D01*
X49006Y-34041D01*
X48969Y-34018D01*
X48931Y-33973D01*
X48931Y-33883D01*
X48969Y-33838D01*
X49419Y-33433D02*
X49456Y-33478D01*
X49456Y-33568D01*
X49419Y-33613D01*
X49344Y-33636D01*
X49044Y-33636D01*
X48969Y-33613D01*
X48931Y-33568D01*
X48931Y-33478D01*
X48969Y-33433D01*
X49044Y-33411D01*
X49119Y-33411D01*
X49194Y-33636D01*
X49456Y-33208D02*
X48931Y-33208D01*
X49081Y-33208D02*
X49006Y-33186D01*
X48969Y-33163D01*
X48931Y-33118D01*
X48931Y-33073D01*
X63160Y-35610D02*
X63160Y-35452D01*
X62748Y-35452D02*
X63535Y-35452D01*
X63535Y-35677D01*
X63535Y-35812D02*
X62748Y-36127D01*
X63535Y-36127D02*
X62748Y-35812D01*
X62748Y-36555D02*
X62748Y-36285D01*
X62748Y-36420D02*
X63535Y-36420D01*
X63423Y-36375D01*
X63348Y-36330D01*
X63310Y-36285D01*
X63535Y-36847D02*
X63535Y-36892D01*
X63498Y-36937D01*
X63460Y-36960D01*
X63385Y-36982D01*
X63235Y-37005D01*
X63048Y-37005D01*
X62898Y-36982D01*
X62823Y-36960D01*
X62785Y-36937D01*
X62748Y-36892D01*
X62748Y-36847D01*
X62785Y-36802D01*
X62823Y-36780D01*
X62898Y-36757D01*
X63048Y-36735D01*
X63235Y-36735D01*
X63385Y-36757D01*
X63460Y-36780D01*
X63498Y-36802D01*
X63535Y-36847D01*
X63160Y-37365D02*
X63123Y-37432D01*
X63085Y-37455D01*
X63010Y-37477D01*
X62898Y-37477D01*
X62823Y-37455D01*
X62785Y-37432D01*
X62748Y-37387D01*
X62748Y-37207D01*
X63535Y-37207D01*
X63535Y-37365D01*
X63498Y-37410D01*
X63460Y-37432D01*
X63385Y-37455D01*
X63310Y-37455D01*
X63235Y-37432D01*
X63198Y-37410D01*
X63160Y-37365D01*
X63160Y-37207D01*
X63048Y-38039D02*
X63048Y-38399D01*
X63160Y-39142D02*
X63160Y-38984D01*
X62748Y-38984D02*
X63535Y-38984D01*
X63535Y-39209D01*
X62748Y-39389D02*
X63535Y-39389D01*
X62973Y-39547D01*
X63535Y-39704D01*
X62748Y-39704D01*
X62823Y-40199D02*
X62785Y-40177D01*
X62748Y-40109D01*
X62748Y-40064D01*
X62785Y-39997D01*
X62860Y-39952D01*
X62935Y-39929D01*
X63085Y-39907D01*
X63198Y-39907D01*
X63348Y-39929D01*
X63423Y-39952D01*
X63498Y-39997D01*
X63535Y-40064D01*
X63535Y-40109D01*
X63498Y-40177D01*
X63460Y-40199D01*
G54D11*
X69881Y-50787D02*
X75000Y-50787D01*
X69881Y-24015D02*
X75000Y-24015D01*
X42740Y-48435D02*
X43190Y-48435D01*
X42965Y-48660D02*
X42965Y-48210D01*
X43415Y-48069D02*
X43780Y-48069D01*
X43583Y-48294D01*
X43668Y-48294D01*
X43724Y-48322D01*
X43752Y-48350D01*
X43780Y-48407D01*
X43780Y-48547D01*
X43752Y-48604D01*
X43724Y-48632D01*
X43668Y-48660D01*
X43499Y-48660D01*
X43443Y-48632D01*
X43415Y-48604D01*
X44033Y-48604D02*
X44061Y-48632D01*
X44033Y-48660D01*
X44005Y-48632D01*
X44033Y-48604D01*
X44033Y-48660D01*
X44258Y-48069D02*
X44624Y-48069D01*
X44427Y-48294D01*
X44511Y-48294D01*
X44568Y-48322D01*
X44596Y-48350D01*
X44624Y-48407D01*
X44624Y-48547D01*
X44596Y-48604D01*
X44568Y-48632D01*
X44511Y-48660D01*
X44343Y-48660D01*
X44286Y-48632D01*
X44258Y-48604D01*
X44793Y-48069D02*
X44989Y-48660D01*
X45186Y-48069D01*
X75984Y-25000D02*
X75984Y-49803D01*
X34842Y-22047D02*
X67913Y-22047D01*
X33858Y-51771D02*
X33858Y-23031D01*
X34842Y-52755D02*
X67913Y-52755D01*
G54D12*
X38696Y-44338D02*
X38224Y-44338D01*
G54D11*
X38638Y-30271D02*
X38794Y-30271D01*
X39957Y-35838D02*
X40113Y-35838D01*
X40402Y-30062D02*
X40558Y-30062D01*
X40429Y-35476D02*
X40585Y-35476D01*
X39011Y-35838D02*
X38855Y-35838D01*
G54D12*
X41448Y-39401D02*
X41055Y-39401D01*
X38657Y-46783D02*
X38263Y-46783D01*
X39311Y-43125D02*
X39311Y-42732D01*
G54D13*
X42421Y-44142D02*
X42421Y-44416D01*
X39327Y-30303D02*
X39601Y-30303D01*
X41388Y-33417D02*
X41114Y-33417D01*
X38499Y-35838D02*
X38343Y-35838D01*
X39212Y-37166D02*
X39212Y-37322D01*
X39581Y-35838D02*
X39425Y-35838D01*
G54D11*
X37354Y-23427D02*
G75*
G03X37354Y-23427I-1246J0D01*
G74*
G01*
X42984Y-23427D02*
G75*
G03X42984Y-23427I-1246J0D01*
G74*
G01*
X42984Y-51427D02*
G75*
G03X42984Y-51427I-1246J0D01*
G74*
G01*
X37354Y-51427D02*
G75*
G03X37354Y-51427I-1246J0D01*
G74*
G01*
G54D10*
X66850Y-51574D02*
X66850Y-51889D01*
G54D13*
X66692Y-49763D02*
X66692Y-49607D01*
X58243Y-51547D02*
X58087Y-51547D01*
G54D11*
X58646Y-51137D02*
X58802Y-51137D01*
X58087Y-50767D02*
X58243Y-50767D01*
X45970Y-30094D02*
G75*
G03X45970Y-30094I-1234J0D01*
G74*
G01*
X45969Y-45842D02*
G75*
G03X45969Y-45842I-1233J0D01*
G74*
G01*
X61024Y-45842D02*
G75*
G03X61024Y-45842I-1248J0D01*
G74*
G01*
X61018Y-30094D02*
G75*
G03X61018Y-30094I-1242J0D01*
G74*
G01*
X43307Y-47637D02*
X43307Y-28346D01*
X61811Y-47637D02*
X43307Y-47637D01*
X61811Y-28346D02*
X61811Y-47637D01*
X61811Y-28346D02*
X43307Y-28346D01*
X68702Y-45889D02*
G75*
G03X68702Y-45889I-1234J0D01*
G74*
G01*
X68701Y-30141D02*
G75*
G03X68701Y-30141I-1233J0D01*
G74*
G01*
X53678Y-30141D02*
G75*
G03X53678Y-30141I-1248J0D01*
G74*
G01*
X53671Y-45889D02*
G75*
G03X53671Y-45889I-1242J0D01*
G74*
G01*
X68897Y-28346D02*
X68897Y-47637D01*
X50393Y-28346D02*
X68897Y-28346D01*
X50393Y-47637D02*
X50393Y-28346D01*
X50393Y-47637D02*
X68897Y-47637D01*
G54D14*
X50988Y-44331D02*
X50791Y-44134D01*
X50988Y-44331D02*
X51027Y-44331D01*
X51263Y-44331D02*
X51027Y-44331D01*
X50791Y-43858D02*
X50791Y-44134D01*
X51263Y-44331D02*
X51618Y-44331D01*
X50791Y-43543D02*
X50791Y-43858D01*
X52956Y-44331D02*
X53783Y-44331D01*
X53783Y-44331D02*
X53783Y-43543D01*
X51618Y-32008D02*
X50791Y-32008D01*
X50791Y-32008D02*
X50791Y-32795D01*
X52956Y-32008D02*
X53783Y-32008D01*
X53783Y-32008D02*
X53783Y-32795D01*
X61216Y-31652D02*
X61413Y-31849D01*
X61216Y-31652D02*
X61177Y-31652D01*
X60941Y-31652D02*
X61177Y-31652D01*
X61413Y-32125D02*
X61413Y-31849D01*
X60941Y-31652D02*
X60586Y-31652D01*
X61413Y-32440D02*
X61413Y-32125D01*
X59248Y-31652D02*
X58421Y-31652D01*
X58421Y-31652D02*
X58421Y-32440D01*
X60586Y-43975D02*
X61413Y-43975D01*
X61413Y-43975D02*
X61413Y-43188D01*
X59248Y-43975D02*
X58421Y-43975D01*
X58421Y-43975D02*
X58421Y-43188D01*
X61968Y-52716D02*
X61968Y-52756D01*
X61968Y-52756D02*
X64960Y-52756D01*
X64960Y-52756D02*
X64960Y-52716D01*
X64960Y-52677D02*
X64960Y-52716D01*
X64960Y-51023D02*
X64566Y-51023D01*
X64566Y-51023D02*
X64566Y-52047D01*
X64566Y-52047D02*
X64960Y-52047D01*
X64960Y-52047D02*
X64960Y-52677D01*
X64330Y-49252D02*
X64488Y-49252D01*
X64488Y-49252D02*
X64488Y-49960D01*
X64488Y-49960D02*
X64960Y-49960D01*
X64960Y-49960D02*
X64960Y-51023D01*
X62401Y-49960D02*
X62401Y-49252D01*
X62401Y-49252D02*
X62637Y-49252D01*
X61968Y-52716D02*
X61968Y-52047D01*
X61968Y-52047D02*
X62362Y-52047D01*
X62362Y-52047D02*
X62362Y-51023D01*
X62362Y-51023D02*
X61968Y-51023D01*
X61968Y-51023D02*
X61968Y-49960D01*
X61968Y-49960D02*
X62401Y-49960D01*
X61988Y-52267D02*
X62595Y-52267D01*
X62733Y-52129D02*
X62733Y-52112D01*
X62733Y-52112D02*
X62800Y-50666D01*
X62684Y-50661D02*
X62595Y-51996D01*
X62402Y-51991D02*
X62314Y-50650D01*
X62264Y-50605D02*
X61988Y-50605D01*
X63037Y-50622D02*
X62954Y-52206D01*
X63059Y-52212D02*
X63125Y-50986D01*
X63296Y-50815D02*
X63643Y-50815D01*
X63809Y-50981D02*
X63809Y-51008D01*
X63809Y-51008D02*
X63864Y-52206D01*
X63974Y-52206D02*
X63891Y-50633D01*
X63748Y-50490D02*
X63169Y-50490D01*
X64940Y-52267D02*
X64333Y-52267D01*
X64195Y-52129D02*
X64195Y-52112D01*
X64195Y-52112D02*
X64129Y-50666D01*
X64245Y-50661D02*
X64333Y-51996D01*
X64526Y-51991D02*
X64614Y-50650D01*
X64664Y-50605D02*
X64940Y-50605D01*
X62595Y-52267D02*
G75*
G03X62733Y-52129I0J138D01*
G74*
G01*
X62800Y-50664D02*
G75*
G03X62684Y-50661I-58J1D01*
G74*
G01*
X62403Y-51991D02*
G75*
G03X62595Y-51996I96J1D01*
G74*
G01*
X62315Y-50649D02*
G75*
G03X62264Y-50605I-47J-3D01*
G74*
G01*
X63169Y-50490D02*
G75*
G03X63037Y-50622I0J-131D01*
G74*
G01*
X62955Y-52206D02*
G75*
G03X63059Y-52212I52J-2D01*
G74*
G01*
X63296Y-50815D02*
G75*
G03X63125Y-50986I0J-171D01*
G74*
G01*
X63809Y-50981D02*
G75*
G03X63643Y-50815I-166J0D01*
G74*
G01*
X63864Y-52205D02*
G75*
G03X63974Y-52206I55J2D01*
G74*
G01*
X63891Y-50633D02*
G75*
G03X63748Y-50490I-143J0D01*
G74*
G01*
X64195Y-52129D02*
G75*
G03X64333Y-52267I137J0D01*
G74*
G01*
X64245Y-50659D02*
G75*
G03X64129Y-50666I-57J-3D01*
G74*
G01*
X64332Y-51996D02*
G75*
G03X64526Y-51991I96J6D01*
G74*
G01*
X64664Y-50605D02*
G75*
G03X64614Y-50650I-2J-48D01*
G74*
G01*
G54D11*
X42653Y-49528D02*
X42653Y-49684D01*
G54D15*
X37196Y-24283D02*
X40622Y-24283D01*
X37196Y-27591D02*
X40622Y-27591D01*
X40641Y-27591D02*
X40641Y-24283D01*
X37196Y-27591D02*
X37196Y-24283D01*
X41488Y-31440D02*
X41488Y-32622D01*
X43102Y-31440D02*
X43102Y-32622D01*
X43102Y-32622D02*
X40504Y-32622D01*
X40504Y-32622D02*
X40504Y-31440D01*
X40504Y-31440D02*
X43102Y-31440D01*
X40276Y-38622D02*
X38583Y-38622D01*
X38583Y-38622D02*
X38583Y-42480D01*
X38583Y-42480D02*
X40276Y-42480D01*
X40276Y-42480D02*
X40276Y-38622D01*
X40102Y-46862D02*
X41322Y-46862D01*
X40102Y-44342D02*
X40102Y-44184D01*
X40102Y-44184D02*
X41322Y-44184D01*
X41322Y-44184D02*
X41322Y-46862D01*
X40102Y-44342D02*
X40102Y-46862D01*
G54D16*
X43769Y-51377D02*
X43769Y-52321D01*
X43769Y-51377D02*
X45803Y-51377D01*
X45803Y-51377D02*
X45803Y-52321D01*
X43769Y-52321D02*
X45803Y-52321D01*
G54D15*
X59200Y-51972D02*
X60893Y-51972D01*
X60893Y-51972D02*
X60893Y-48114D01*
X60893Y-48114D02*
X59200Y-48114D01*
X59200Y-48114D02*
X59200Y-51972D01*
G54D11*
X66771Y-50433D02*
X66771Y-50826D01*
G54D15*
X64031Y-22952D02*
X65015Y-22952D01*
X64031Y-26495D02*
X67992Y-26495D01*
X67992Y-22952D02*
X43204Y-22952D01*
X43204Y-26495D02*
X64031Y-26495D01*
X67992Y-26495D02*
X67992Y-22952D01*
X43204Y-26495D02*
X43204Y-22952D01*
G54D11*
X57873Y-43066D02*
X57717Y-43066D01*
X57062Y-43082D02*
X56906Y-43082D01*
X57610Y-42335D02*
X57610Y-42491D01*
X56799Y-41953D02*
X56799Y-42109D01*
X61460Y-48158D02*
X61460Y-48314D01*
G54D15*
X40236Y-31524D02*
X40236Y-33000D01*
X40236Y-33000D02*
X40098Y-33000D01*
X40098Y-33000D02*
X40098Y-33197D01*
X40098Y-33197D02*
X40236Y-33197D01*
X40236Y-33197D02*
X40236Y-34653D01*
X40236Y-34653D02*
X38306Y-34653D01*
X38306Y-34653D02*
X38306Y-31524D01*
X38306Y-31524D02*
X40236Y-31524D01*
G54D11*
X59275Y-27481D02*
X59275Y-27637D01*
X58905Y-27196D02*
X58905Y-27040D01*
X59645Y-28107D02*
X59645Y-28263D01*
X58003Y-27477D02*
X58003Y-27633D01*
X57637Y-27223D02*
X57637Y-27067D01*
X58374Y-28095D02*
X58374Y-28251D01*
X57381Y-50992D02*
X57381Y-51148D01*
X57488Y-50370D02*
X57644Y-50370D01*
X41763Y-34527D02*
X41763Y-34842D01*
X40740Y-34527D02*
X40740Y-34842D01*
X41763Y-34527D02*
X40740Y-34527D01*
G54D15*
X41605Y-36417D02*
X40897Y-36417D01*
X40897Y-36417D02*
X40897Y-34724D01*
X40897Y-34724D02*
X41605Y-34724D01*
X41605Y-34724D02*
X41605Y-36417D01*
G54D11*
X44409Y-49370D02*
X44606Y-49370D01*
X44606Y-49370D02*
X44606Y-49842D01*
X44606Y-49842D02*
X44409Y-49842D01*
G54D10*
X44015Y-49448D02*
X44015Y-49763D01*
G54D11*
X52125Y-51968D02*
X52322Y-51968D01*
X52322Y-51968D02*
X52322Y-52440D01*
X52322Y-52440D02*
X52125Y-52440D01*
G54D10*
X51732Y-52047D02*
X51732Y-52362D01*
G54D11*
X62972Y-48000D02*
X63169Y-48000D01*
X63169Y-48000D02*
X63169Y-48472D01*
X63169Y-48472D02*
X62972Y-48472D01*
G54D10*
X62578Y-48078D02*
X62578Y-48393D01*
X38107Y-44482D02*
X37994Y-44561D01*
X38107Y-44617D02*
X37871Y-44617D01*
X37871Y-44527D01*
X37882Y-44505D01*
X37893Y-44493D01*
X37916Y-44482D01*
X37949Y-44482D01*
X37972Y-44493D01*
X37983Y-44505D01*
X37994Y-44527D01*
X37994Y-44617D01*
X38107Y-44257D02*
X38107Y-44392D01*
X38107Y-44325D02*
X37871Y-44325D01*
X37904Y-44347D01*
X37927Y-44370D01*
X37938Y-44392D01*
X38107Y-44145D02*
X38107Y-44100D01*
X38096Y-44077D01*
X38084Y-44066D01*
X38051Y-44043D01*
X38006Y-44032D01*
X37916Y-44032D01*
X37893Y-44043D01*
X37882Y-44055D01*
X37871Y-44077D01*
X37871Y-44122D01*
X37882Y-44145D01*
X37893Y-44156D01*
X37916Y-44167D01*
X37972Y-44167D01*
X37994Y-44156D01*
X38006Y-44145D01*
X38017Y-44122D01*
X38017Y-44077D01*
X38006Y-44055D01*
X37994Y-44043D01*
X37972Y-44032D01*
X38536Y-30423D02*
X38424Y-30502D01*
X38536Y-30558D02*
X38300Y-30558D01*
X38300Y-30468D01*
X38311Y-30446D01*
X38322Y-30434D01*
X38345Y-30423D01*
X38379Y-30423D01*
X38401Y-30434D01*
X38412Y-30446D01*
X38424Y-30468D01*
X38424Y-30558D01*
X38536Y-30198D02*
X38536Y-30333D01*
X38536Y-30266D02*
X38300Y-30266D01*
X38334Y-30288D01*
X38356Y-30311D01*
X38367Y-30333D01*
X38300Y-30119D02*
X38300Y-29962D01*
X38536Y-30063D01*
X40131Y-36651D02*
X40018Y-36730D01*
X40131Y-36786D02*
X39894Y-36786D01*
X39894Y-36696D01*
X39906Y-36674D01*
X39917Y-36663D01*
X39939Y-36651D01*
X39973Y-36651D01*
X39996Y-36663D01*
X40007Y-36674D01*
X40018Y-36696D01*
X40018Y-36786D01*
X40131Y-36426D02*
X40131Y-36561D01*
X40131Y-36494D02*
X39894Y-36494D01*
X39928Y-36516D01*
X39951Y-36539D01*
X39962Y-36561D01*
X39894Y-36213D02*
X39894Y-36325D01*
X40007Y-36336D01*
X39996Y-36325D01*
X39984Y-36303D01*
X39984Y-36246D01*
X39996Y-36224D01*
X40007Y-36213D01*
X40029Y-36201D01*
X40086Y-36201D01*
X40108Y-36213D01*
X40119Y-36224D01*
X40131Y-36246D01*
X40131Y-36303D01*
X40119Y-36325D01*
X40108Y-36336D01*
X40312Y-30210D02*
X40199Y-30289D01*
X40312Y-30345D02*
X40075Y-30345D01*
X40075Y-30255D01*
X40087Y-30233D01*
X40098Y-30222D01*
X40120Y-30210D01*
X40154Y-30210D01*
X40177Y-30222D01*
X40188Y-30233D01*
X40199Y-30255D01*
X40199Y-30345D01*
X40312Y-29985D02*
X40312Y-30120D01*
X40312Y-30053D02*
X40075Y-30053D01*
X40109Y-30075D01*
X40132Y-30098D01*
X40143Y-30120D01*
X40154Y-29783D02*
X40312Y-29783D01*
X40064Y-29839D02*
X40233Y-29895D01*
X40233Y-29749D01*
X40646Y-34955D02*
X40534Y-35033D01*
X40646Y-35089D02*
X40410Y-35089D01*
X40410Y-35000D01*
X40421Y-34977D01*
X40433Y-34966D01*
X40455Y-34955D01*
X40489Y-34955D01*
X40511Y-34966D01*
X40523Y-34977D01*
X40534Y-35000D01*
X40534Y-35089D01*
X40646Y-34730D02*
X40646Y-34865D01*
X40646Y-34797D02*
X40410Y-34797D01*
X40444Y-34820D01*
X40466Y-34842D01*
X40478Y-34865D01*
X40511Y-34595D02*
X40500Y-34617D01*
X40489Y-34628D01*
X40466Y-34640D01*
X40455Y-34640D01*
X40433Y-34628D01*
X40421Y-34617D01*
X40410Y-34595D01*
X40410Y-34550D01*
X40421Y-34527D01*
X40433Y-34516D01*
X40455Y-34505D01*
X40466Y-34505D01*
X40489Y-34516D01*
X40500Y-34527D01*
X40511Y-34550D01*
X40511Y-34595D01*
X40523Y-34617D01*
X40534Y-34628D01*
X40556Y-34640D01*
X40601Y-34640D01*
X40624Y-34628D01*
X40635Y-34617D01*
X40646Y-34595D01*
X40646Y-34550D01*
X40635Y-34527D01*
X40624Y-34516D01*
X40601Y-34505D01*
X40556Y-34505D01*
X40534Y-34516D01*
X40523Y-34527D01*
X40511Y-34550D01*
X39020Y-36647D02*
X38908Y-36726D01*
X39020Y-36782D02*
X38784Y-36782D01*
X38784Y-36692D01*
X38795Y-36670D01*
X38807Y-36659D01*
X38829Y-36647D01*
X38863Y-36647D01*
X38885Y-36659D01*
X38897Y-36670D01*
X38908Y-36692D01*
X38908Y-36782D01*
X39020Y-36422D02*
X39020Y-36557D01*
X39020Y-36490D02*
X38784Y-36490D01*
X38818Y-36512D01*
X38840Y-36535D01*
X38852Y-36557D01*
X38784Y-36220D02*
X38784Y-36265D01*
X38795Y-36287D01*
X38807Y-36299D01*
X38840Y-36321D01*
X38885Y-36332D01*
X38975Y-36332D01*
X38998Y-36321D01*
X39009Y-36310D01*
X39020Y-36287D01*
X39020Y-36242D01*
X39009Y-36220D01*
X38998Y-36209D01*
X38975Y-36197D01*
X38919Y-36197D01*
X38897Y-36209D01*
X38885Y-36220D01*
X38874Y-36242D01*
X38874Y-36287D01*
X38885Y-36310D01*
X38897Y-36321D01*
X38919Y-36332D01*
X41332Y-40447D02*
X41344Y-40458D01*
X41355Y-40492D01*
X41355Y-40514D01*
X41344Y-40548D01*
X41321Y-40570D01*
X41299Y-40582D01*
X41254Y-40593D01*
X41220Y-40593D01*
X41175Y-40582D01*
X41152Y-40570D01*
X41130Y-40548D01*
X41119Y-40514D01*
X41119Y-40492D01*
X41130Y-40458D01*
X41141Y-40447D01*
X41355Y-40222D02*
X41355Y-40357D01*
X41355Y-40289D02*
X41119Y-40289D01*
X41152Y-40312D01*
X41175Y-40334D01*
X41186Y-40357D01*
X41119Y-40143D02*
X41119Y-39997D01*
X41209Y-40075D01*
X41209Y-40042D01*
X41220Y-40019D01*
X41231Y-40008D01*
X41254Y-39997D01*
X41310Y-39997D01*
X41332Y-40008D01*
X41344Y-40019D01*
X41355Y-40042D01*
X41355Y-40109D01*
X41344Y-40132D01*
X41332Y-40143D01*
X38124Y-46931D02*
X38135Y-46942D01*
X38146Y-46976D01*
X38146Y-46998D01*
X38135Y-47032D01*
X38113Y-47055D01*
X38090Y-47066D01*
X38045Y-47077D01*
X38011Y-47077D01*
X37966Y-47066D01*
X37944Y-47055D01*
X37921Y-47032D01*
X37910Y-46998D01*
X37910Y-46976D01*
X37921Y-46942D01*
X37933Y-46931D01*
X38146Y-46706D02*
X38146Y-46841D01*
X38146Y-46773D02*
X37910Y-46773D01*
X37944Y-46796D01*
X37966Y-46818D01*
X37978Y-46841D01*
X37910Y-46503D02*
X37910Y-46548D01*
X37921Y-46571D01*
X37933Y-46582D01*
X37966Y-46605D01*
X38011Y-46616D01*
X38101Y-46616D01*
X38124Y-46605D01*
X38135Y-46593D01*
X38146Y-46571D01*
X38146Y-46526D01*
X38135Y-46503D01*
X38124Y-46492D01*
X38101Y-46481D01*
X38045Y-46481D01*
X38023Y-46492D01*
X38011Y-46503D01*
X38000Y-46526D01*
X38000Y-46571D01*
X38011Y-46593D01*
X38023Y-46605D01*
X38045Y-46616D01*
X38261Y-42990D02*
X38250Y-43001D01*
X38216Y-43012D01*
X38194Y-43012D01*
X38160Y-43001D01*
X38137Y-42979D01*
X38126Y-42956D01*
X38115Y-42911D01*
X38115Y-42877D01*
X38126Y-42832D01*
X38137Y-42810D01*
X38160Y-42787D01*
X38194Y-42776D01*
X38216Y-42776D01*
X38250Y-42787D01*
X38261Y-42799D01*
X38486Y-43012D02*
X38351Y-43012D01*
X38419Y-43012D02*
X38419Y-42776D01*
X38396Y-42810D01*
X38374Y-42832D01*
X38351Y-42844D01*
X38700Y-42776D02*
X38587Y-42776D01*
X38576Y-42889D01*
X38587Y-42877D01*
X38610Y-42866D01*
X38666Y-42866D01*
X38688Y-42877D01*
X38700Y-42889D01*
X38711Y-42911D01*
X38711Y-42967D01*
X38700Y-42990D01*
X38688Y-43001D01*
X38666Y-43012D01*
X38610Y-43012D01*
X38587Y-43001D01*
X38576Y-42990D01*
X42269Y-44025D02*
X42258Y-44037D01*
X42224Y-44048D01*
X42201Y-44048D01*
X42168Y-44037D01*
X42145Y-44014D01*
X42134Y-43992D01*
X42123Y-43947D01*
X42123Y-43913D01*
X42134Y-43868D01*
X42145Y-43845D01*
X42168Y-43823D01*
X42201Y-43812D01*
X42224Y-43812D01*
X42258Y-43823D01*
X42269Y-43834D01*
X42494Y-44048D02*
X42359Y-44048D01*
X42426Y-44048D02*
X42426Y-43812D01*
X42404Y-43845D01*
X42381Y-43868D01*
X42359Y-43879D01*
X42573Y-43812D02*
X42730Y-43812D01*
X42629Y-44048D01*
X39218Y-30458D02*
X39230Y-30470D01*
X39241Y-30503D01*
X39241Y-30526D01*
X39230Y-30560D01*
X39207Y-30582D01*
X39185Y-30593D01*
X39140Y-30605D01*
X39106Y-30605D01*
X39061Y-30593D01*
X39038Y-30582D01*
X39016Y-30560D01*
X39005Y-30526D01*
X39005Y-30503D01*
X39016Y-30470D01*
X39027Y-30458D01*
X39241Y-30233D02*
X39241Y-30368D01*
X39241Y-30301D02*
X39005Y-30301D01*
X39038Y-30323D01*
X39061Y-30346D01*
X39072Y-30368D01*
X39005Y-30087D02*
X39005Y-30065D01*
X39016Y-30042D01*
X39027Y-30031D01*
X39050Y-30020D01*
X39095Y-30008D01*
X39151Y-30008D01*
X39196Y-30020D01*
X39218Y-30031D01*
X39230Y-30042D01*
X39241Y-30065D01*
X39241Y-30087D01*
X39230Y-30110D01*
X39218Y-30121D01*
X39196Y-30132D01*
X39151Y-30143D01*
X39095Y-30143D01*
X39050Y-30132D01*
X39027Y-30121D01*
X39016Y-30110D01*
X39005Y-30087D01*
X41006Y-33464D02*
X41017Y-33475D01*
X41028Y-33509D01*
X41028Y-33532D01*
X41017Y-33565D01*
X40994Y-33588D01*
X40972Y-33599D01*
X40927Y-33610D01*
X40893Y-33610D01*
X40848Y-33599D01*
X40826Y-33588D01*
X40803Y-33565D01*
X40792Y-33532D01*
X40792Y-33509D01*
X40803Y-33475D01*
X40814Y-33464D01*
X41028Y-33352D02*
X41028Y-33307D01*
X41017Y-33284D01*
X41006Y-33273D01*
X40972Y-33250D01*
X40927Y-33239D01*
X40837Y-33239D01*
X40814Y-33250D01*
X40803Y-33262D01*
X40792Y-33284D01*
X40792Y-33329D01*
X40803Y-33352D01*
X40814Y-33363D01*
X40837Y-33374D01*
X40893Y-33374D01*
X40916Y-33363D01*
X40927Y-33352D01*
X40938Y-33329D01*
X40938Y-33284D01*
X40927Y-33262D01*
X40916Y-33250D01*
X40893Y-33239D01*
X38494Y-36624D02*
X38505Y-36635D01*
X38516Y-36669D01*
X38516Y-36691D01*
X38505Y-36725D01*
X38483Y-36748D01*
X38460Y-36759D01*
X38415Y-36770D01*
X38381Y-36770D01*
X38336Y-36759D01*
X38314Y-36748D01*
X38291Y-36725D01*
X38280Y-36691D01*
X38280Y-36669D01*
X38291Y-36635D01*
X38303Y-36624D01*
X38516Y-36399D02*
X38516Y-36534D01*
X38516Y-36466D02*
X38280Y-36466D01*
X38314Y-36489D01*
X38336Y-36511D01*
X38348Y-36534D01*
X38516Y-36174D02*
X38516Y-36309D01*
X38516Y-36241D02*
X38280Y-36241D01*
X38314Y-36264D01*
X38336Y-36286D01*
X38348Y-36309D01*
X38411Y-37317D02*
X38399Y-37328D01*
X38366Y-37339D01*
X38343Y-37339D01*
X38309Y-37328D01*
X38287Y-37305D01*
X38276Y-37283D01*
X38264Y-37238D01*
X38264Y-37204D01*
X38276Y-37159D01*
X38287Y-37137D01*
X38309Y-37114D01*
X38343Y-37103D01*
X38366Y-37103D01*
X38399Y-37114D01*
X38411Y-37125D01*
X38636Y-37339D02*
X38501Y-37339D01*
X38568Y-37339D02*
X38568Y-37103D01*
X38546Y-37137D01*
X38523Y-37159D01*
X38501Y-37170D01*
X38838Y-37182D02*
X38838Y-37339D01*
X38782Y-37092D02*
X38726Y-37260D01*
X38872Y-37260D01*
X39557Y-36663D02*
X39568Y-36674D01*
X39579Y-36708D01*
X39579Y-36731D01*
X39568Y-36764D01*
X39546Y-36787D01*
X39523Y-36798D01*
X39478Y-36809D01*
X39444Y-36809D01*
X39399Y-36798D01*
X39377Y-36787D01*
X39354Y-36764D01*
X39343Y-36731D01*
X39343Y-36708D01*
X39354Y-36674D01*
X39366Y-36663D01*
X39579Y-36438D02*
X39579Y-36573D01*
X39579Y-36506D02*
X39343Y-36506D01*
X39377Y-36528D01*
X39399Y-36551D01*
X39411Y-36573D01*
X39366Y-36348D02*
X39354Y-36337D01*
X39343Y-36314D01*
X39343Y-36258D01*
X39354Y-36236D01*
X39366Y-36224D01*
X39388Y-36213D01*
X39411Y-36213D01*
X39444Y-36224D01*
X39579Y-36359D01*
X39579Y-36213D01*
X66676Y-51501D02*
X66676Y-51264D01*
X66732Y-51264D01*
X66766Y-51276D01*
X66788Y-51298D01*
X66799Y-51321D01*
X66811Y-51366D01*
X66811Y-51399D01*
X66799Y-51444D01*
X66788Y-51467D01*
X66766Y-51489D01*
X66732Y-51501D01*
X66676Y-51501D01*
X67024Y-51264D02*
X66912Y-51264D01*
X66901Y-51377D01*
X66912Y-51366D01*
X66934Y-51354D01*
X66991Y-51354D01*
X67013Y-51366D01*
X67024Y-51377D01*
X67035Y-51399D01*
X67035Y-51456D01*
X67024Y-51478D01*
X67013Y-51489D01*
X66991Y-51501D01*
X66934Y-51501D01*
X66912Y-51489D01*
X66901Y-51478D01*
G54D17*
X67401Y-51643D02*
X67401Y-51718D01*
X67335Y-51688D02*
X67401Y-51718D01*
X67467Y-51688D01*
X67362Y-51778D02*
X67401Y-51718D01*
X67440Y-51778D01*
G54D10*
X66548Y-49494D02*
X66537Y-49505D01*
X66503Y-49516D01*
X66481Y-49516D01*
X66447Y-49505D01*
X66425Y-49483D01*
X66413Y-49460D01*
X66402Y-49415D01*
X66402Y-49381D01*
X66413Y-49336D01*
X66425Y-49314D01*
X66447Y-49291D01*
X66481Y-49280D01*
X66503Y-49280D01*
X66537Y-49291D01*
X66548Y-49303D01*
X66638Y-49303D02*
X66650Y-49291D01*
X66672Y-49280D01*
X66728Y-49280D01*
X66751Y-49291D01*
X66762Y-49303D01*
X66773Y-49325D01*
X66773Y-49348D01*
X66762Y-49381D01*
X66627Y-49516D01*
X66773Y-49516D01*
X66886Y-49516D02*
X66931Y-49516D01*
X66953Y-49505D01*
X66965Y-49494D01*
X66987Y-49460D01*
X66998Y-49415D01*
X66998Y-49325D01*
X66987Y-49303D01*
X66976Y-49291D01*
X66953Y-49280D01*
X66908Y-49280D01*
X66886Y-49291D01*
X66875Y-49303D01*
X66863Y-49325D01*
X66863Y-49381D01*
X66875Y-49404D01*
X66886Y-49415D01*
X66908Y-49426D01*
X66953Y-49426D01*
X66976Y-49415D01*
X66987Y-49404D01*
X66998Y-49381D01*
X57970Y-51703D02*
X57982Y-51714D01*
X57993Y-51748D01*
X57993Y-51770D01*
X57982Y-51804D01*
X57959Y-51826D01*
X57937Y-51838D01*
X57892Y-51849D01*
X57858Y-51849D01*
X57813Y-51838D01*
X57790Y-51826D01*
X57768Y-51804D01*
X57757Y-51770D01*
X57757Y-51748D01*
X57768Y-51714D01*
X57779Y-51703D01*
X57835Y-51500D02*
X57993Y-51500D01*
X57745Y-51556D02*
X57914Y-51613D01*
X57914Y-51466D01*
X57757Y-51331D02*
X57757Y-51309D01*
X57768Y-51286D01*
X57779Y-51275D01*
X57802Y-51264D01*
X57847Y-51253D01*
X57903Y-51253D01*
X57948Y-51264D01*
X57970Y-51275D01*
X57982Y-51286D01*
X57993Y-51309D01*
X57993Y-51331D01*
X57982Y-51354D01*
X57970Y-51365D01*
X57948Y-51376D01*
X57903Y-51388D01*
X57847Y-51388D01*
X57802Y-51376D01*
X57779Y-51365D01*
X57768Y-51354D01*
X57757Y-51331D01*
X58575Y-51169D02*
X58463Y-51248D01*
X58575Y-51304D02*
X58339Y-51304D01*
X58339Y-51214D01*
X58350Y-51191D01*
X58362Y-51180D01*
X58384Y-51169D01*
X58418Y-51169D01*
X58440Y-51180D01*
X58452Y-51191D01*
X58463Y-51214D01*
X58463Y-51304D01*
X58339Y-51090D02*
X58339Y-50933D01*
X58575Y-51034D01*
X57985Y-50814D02*
X57872Y-50893D01*
X57985Y-50949D02*
X57749Y-50949D01*
X57749Y-50859D01*
X57760Y-50837D01*
X57771Y-50826D01*
X57794Y-50814D01*
X57827Y-50814D01*
X57850Y-50826D01*
X57861Y-50837D01*
X57872Y-50859D01*
X57872Y-50949D01*
X57749Y-50736D02*
X57749Y-50589D01*
X57839Y-50668D01*
X57839Y-50634D01*
X57850Y-50612D01*
X57861Y-50601D01*
X57884Y-50589D01*
X57940Y-50589D01*
X57962Y-50601D01*
X57974Y-50612D01*
X57985Y-50634D01*
X57985Y-50702D01*
X57974Y-50724D01*
X57962Y-50736D01*
G54D11*
X53297Y-31525D02*
X53297Y-31806D01*
X53279Y-31862D01*
X53241Y-31900D01*
X53185Y-31919D01*
X53147Y-31919D01*
X53691Y-31919D02*
X53466Y-31919D01*
X53579Y-31919D02*
X53579Y-31525D01*
X53541Y-31581D01*
X53504Y-31619D01*
X53466Y-31637D01*
G54D18*
X53958Y-33301D02*
X53945Y-33331D01*
X53931Y-33346D01*
X53905Y-33361D01*
X53892Y-33361D01*
X53866Y-33346D01*
X53853Y-33331D01*
X53840Y-33301D01*
X53840Y-33241D01*
X53853Y-33211D01*
X53866Y-33196D01*
X53892Y-33181D01*
X53905Y-33181D01*
X53931Y-33196D01*
X53945Y-33211D01*
X53958Y-33241D01*
X53958Y-33301D01*
X53971Y-33331D01*
X53984Y-33346D01*
X54010Y-33361D01*
X54062Y-33361D01*
X54089Y-33346D01*
X54102Y-33331D01*
X54115Y-33301D01*
X54115Y-33241D01*
X54102Y-33211D01*
X54089Y-33196D01*
X54062Y-33181D01*
X54010Y-33181D01*
X53984Y-33196D01*
X53971Y-33211D01*
X53958Y-33241D01*
X53840Y-32987D02*
X53840Y-32957D01*
X53853Y-32927D01*
X53866Y-32912D01*
X53892Y-32897D01*
X53945Y-32882D01*
X54010Y-32882D01*
X54062Y-32897D01*
X54089Y-32912D01*
X54102Y-32927D01*
X54115Y-32957D01*
X54115Y-32987D01*
X54102Y-33017D01*
X54089Y-33032D01*
X54062Y-33047D01*
X54010Y-33062D01*
X53945Y-33062D01*
X53892Y-33047D01*
X53866Y-33032D01*
X53853Y-33017D01*
X53840Y-32987D01*
X50501Y-33447D02*
X50501Y-33237D01*
X50776Y-33372D01*
X50776Y-33103D02*
X50776Y-33043D01*
X50763Y-33013D01*
X50750Y-32998D01*
X50711Y-32968D01*
X50658Y-32953D01*
X50554Y-32953D01*
X50527Y-32968D01*
X50514Y-32983D01*
X50501Y-33013D01*
X50501Y-33073D01*
X50514Y-33103D01*
X50527Y-33118D01*
X50554Y-33133D01*
X50619Y-33133D01*
X50645Y-33118D01*
X50658Y-33103D01*
X50671Y-33073D01*
X50671Y-33013D01*
X50658Y-32983D01*
X50645Y-32968D01*
X50619Y-32953D01*
X50760Y-43008D02*
X50760Y-43188D01*
X50760Y-43098D02*
X50485Y-43098D01*
X50525Y-43128D01*
X50551Y-43158D01*
X50564Y-43188D01*
X53882Y-43207D02*
X53869Y-43192D01*
X53855Y-43162D01*
X53855Y-43088D01*
X53869Y-43058D01*
X53882Y-43043D01*
X53908Y-43028D01*
X53934Y-43028D01*
X53973Y-43043D01*
X54130Y-43222D01*
X54130Y-43028D01*
G54D11*
X58648Y-31175D02*
X58648Y-31456D01*
X58629Y-31512D01*
X58592Y-31550D01*
X58535Y-31568D01*
X58498Y-31568D01*
X58817Y-31212D02*
X58835Y-31193D01*
X58873Y-31175D01*
X58967Y-31175D01*
X59004Y-31193D01*
X59023Y-31212D01*
X59041Y-31250D01*
X59041Y-31287D01*
X59023Y-31343D01*
X58798Y-31568D01*
X59041Y-31568D01*
G54D18*
X58154Y-43041D02*
X58141Y-43071D01*
X58128Y-43086D01*
X58102Y-43101D01*
X58089Y-43101D01*
X58063Y-43086D01*
X58050Y-43071D01*
X58037Y-43041D01*
X58037Y-42981D01*
X58050Y-42951D01*
X58063Y-42936D01*
X58089Y-42922D01*
X58102Y-42922D01*
X58128Y-42936D01*
X58141Y-42951D01*
X58154Y-42981D01*
X58154Y-43041D01*
X58168Y-43071D01*
X58181Y-43086D01*
X58207Y-43101D01*
X58259Y-43101D01*
X58285Y-43086D01*
X58299Y-43071D01*
X58312Y-43041D01*
X58312Y-42981D01*
X58299Y-42951D01*
X58285Y-42936D01*
X58259Y-42922D01*
X58207Y-42922D01*
X58181Y-42936D01*
X58168Y-42951D01*
X58154Y-42981D01*
X58037Y-42727D02*
X58037Y-42697D01*
X58050Y-42667D01*
X58063Y-42652D01*
X58089Y-42637D01*
X58141Y-42622D01*
X58207Y-42622D01*
X58259Y-42637D01*
X58285Y-42652D01*
X58299Y-42667D01*
X58312Y-42697D01*
X58312Y-42727D01*
X58299Y-42757D01*
X58285Y-42772D01*
X58259Y-42787D01*
X58207Y-42802D01*
X58141Y-42802D01*
X58089Y-42787D01*
X58063Y-42772D01*
X58050Y-42757D01*
X58037Y-42727D01*
X61375Y-43045D02*
X61375Y-42836D01*
X61650Y-42970D01*
X61650Y-42701D02*
X61650Y-42641D01*
X61637Y-42611D01*
X61624Y-42596D01*
X61585Y-42567D01*
X61532Y-42552D01*
X61428Y-42552D01*
X61401Y-42567D01*
X61388Y-42582D01*
X61375Y-42611D01*
X61375Y-42671D01*
X61388Y-42701D01*
X61401Y-42716D01*
X61428Y-42731D01*
X61493Y-42731D01*
X61519Y-42716D01*
X61532Y-42701D01*
X61545Y-42671D01*
X61545Y-42611D01*
X61532Y-42582D01*
X61519Y-42567D01*
X61493Y-42552D01*
X61666Y-32796D02*
X61666Y-32975D01*
X61666Y-32885D02*
X61391Y-32885D01*
X61430Y-32915D01*
X61456Y-32945D01*
X61469Y-32975D01*
X58047Y-32955D02*
X58034Y-32940D01*
X58021Y-32910D01*
X58021Y-32836D01*
X58034Y-32806D01*
X58047Y-32791D01*
X58073Y-32776D01*
X58099Y-32776D01*
X58139Y-32791D01*
X58296Y-32970D01*
X58296Y-32776D01*
G54D11*
X64947Y-48490D02*
X64947Y-48771D01*
X64928Y-48827D01*
X64891Y-48865D01*
X64835Y-48883D01*
X64797Y-48883D01*
X65303Y-48490D02*
X65228Y-48490D01*
X65191Y-48508D01*
X65172Y-48527D01*
X65134Y-48583D01*
X65116Y-48658D01*
X65116Y-48808D01*
X65134Y-48846D01*
X65153Y-48865D01*
X65191Y-48883D01*
X65266Y-48883D01*
X65303Y-48865D01*
X65322Y-48846D01*
X65341Y-48808D01*
X65341Y-48715D01*
X65322Y-48677D01*
X65303Y-48658D01*
X65266Y-48640D01*
X65191Y-48640D01*
X65153Y-48658D01*
X65134Y-48677D01*
X65116Y-48715D01*
G54D10*
X42501Y-49426D02*
X42422Y-49313D01*
X42366Y-49426D02*
X42366Y-49190D01*
X42456Y-49190D01*
X42479Y-49201D01*
X42490Y-49212D01*
X42501Y-49235D01*
X42501Y-49268D01*
X42490Y-49291D01*
X42479Y-49302D01*
X42456Y-49313D01*
X42366Y-49313D01*
X42591Y-49212D02*
X42602Y-49201D01*
X42625Y-49190D01*
X42681Y-49190D01*
X42704Y-49201D01*
X42715Y-49212D01*
X42726Y-49235D01*
X42726Y-49257D01*
X42715Y-49291D01*
X42580Y-49426D01*
X42726Y-49426D01*
X42872Y-49190D02*
X42895Y-49190D01*
X42917Y-49201D01*
X42929Y-49212D01*
X42940Y-49235D01*
X42951Y-49280D01*
X42951Y-49336D01*
X42940Y-49381D01*
X42929Y-49403D01*
X42917Y-49415D01*
X42895Y-49426D01*
X42872Y-49426D01*
X42850Y-49415D01*
X42839Y-49403D01*
X42827Y-49381D01*
X42816Y-49336D01*
X42816Y-49280D01*
X42827Y-49235D01*
X42839Y-49212D01*
X42850Y-49201D01*
X42872Y-49190D01*
G54D11*
X37946Y-24155D02*
X37758Y-24155D01*
X37758Y-23761D01*
X38283Y-24155D02*
X38058Y-24155D01*
X38171Y-24155D02*
X38171Y-23761D01*
X38133Y-23817D01*
X38096Y-23855D01*
X38058Y-23874D01*
X40536Y-31320D02*
X40536Y-30927D01*
X40629Y-30927D01*
X40686Y-30945D01*
X40723Y-30983D01*
X40742Y-31020D01*
X40761Y-31095D01*
X40761Y-31152D01*
X40742Y-31227D01*
X40723Y-31264D01*
X40686Y-31302D01*
X40629Y-31320D01*
X40536Y-31320D01*
X40911Y-30964D02*
X40929Y-30945D01*
X40967Y-30927D01*
X41061Y-30927D01*
X41098Y-30945D01*
X41117Y-30964D01*
X41136Y-31002D01*
X41136Y-31039D01*
X41117Y-31095D01*
X40892Y-31320D01*
X41136Y-31320D01*
X38368Y-42257D02*
X38387Y-42200D01*
X38387Y-42107D01*
X38368Y-42069D01*
X38350Y-42050D01*
X38312Y-42032D01*
X38275Y-42032D01*
X38237Y-42050D01*
X38218Y-42069D01*
X38200Y-42107D01*
X38181Y-42182D01*
X38162Y-42219D01*
X38143Y-42238D01*
X38106Y-42257D01*
X38068Y-42257D01*
X38031Y-42238D01*
X38012Y-42219D01*
X37994Y-42182D01*
X37994Y-42088D01*
X38012Y-42032D01*
X37994Y-41901D02*
X38387Y-41807D01*
X38106Y-41732D01*
X38387Y-41657D01*
X37994Y-41563D01*
X38387Y-41207D02*
X38387Y-41432D01*
X38387Y-41319D02*
X37994Y-41319D01*
X38050Y-41357D01*
X38087Y-41394D01*
X38106Y-41432D01*
X39844Y-38253D02*
X39844Y-38478D01*
X39844Y-38366D02*
X39450Y-38366D01*
X39506Y-38403D01*
X39544Y-38441D01*
X39563Y-38478D01*
X40424Y-43623D02*
X40424Y-43942D01*
X40443Y-43980D01*
X40461Y-43998D01*
X40499Y-44017D01*
X40574Y-44017D01*
X40611Y-43998D01*
X40630Y-43980D01*
X40649Y-43942D01*
X40649Y-43623D01*
X40799Y-43623D02*
X41061Y-43623D01*
X40893Y-44017D01*
X43916Y-50852D02*
X43916Y-51133D01*
X43897Y-51189D01*
X43859Y-51227D01*
X43803Y-51245D01*
X43766Y-51245D01*
X44290Y-50852D02*
X44103Y-50852D01*
X44084Y-51039D01*
X44103Y-51020D01*
X44140Y-51002D01*
X44234Y-51002D01*
X44272Y-51020D01*
X44290Y-51039D01*
X44309Y-51077D01*
X44309Y-51170D01*
X44290Y-51208D01*
X44272Y-51227D01*
X44234Y-51245D01*
X44140Y-51245D01*
X44103Y-51227D01*
X44084Y-51208D01*
X45974Y-51887D02*
X46274Y-51887D01*
X46124Y-52037D02*
X46124Y-51737D01*
X46649Y-51643D02*
X46461Y-51643D01*
X46442Y-51831D01*
X46461Y-51812D01*
X46499Y-51793D01*
X46592Y-51793D01*
X46630Y-51812D01*
X46649Y-51831D01*
X46667Y-51868D01*
X46667Y-51962D01*
X46649Y-51999D01*
X46630Y-52018D01*
X46592Y-52037D01*
X46499Y-52037D01*
X46461Y-52018D01*
X46442Y-51999D01*
X46780Y-51643D02*
X46911Y-52037D01*
X47042Y-51643D01*
X53116Y-48938D02*
X53116Y-49220D01*
X53098Y-49276D01*
X53060Y-49313D01*
X53004Y-49332D01*
X52966Y-49332D01*
X53360Y-49107D02*
X53323Y-49088D01*
X53304Y-49070D01*
X53285Y-49032D01*
X53285Y-49013D01*
X53304Y-48976D01*
X53323Y-48957D01*
X53360Y-48938D01*
X53435Y-48938D01*
X53473Y-48957D01*
X53491Y-48976D01*
X53510Y-49013D01*
X53510Y-49032D01*
X53491Y-49070D01*
X53473Y-49088D01*
X53435Y-49107D01*
X53360Y-49107D01*
X53323Y-49126D01*
X53304Y-49145D01*
X53285Y-49182D01*
X53285Y-49257D01*
X53304Y-49295D01*
X53323Y-49313D01*
X53360Y-49332D01*
X53435Y-49332D01*
X53473Y-49313D01*
X53491Y-49295D01*
X53510Y-49257D01*
X53510Y-49182D01*
X53491Y-49145D01*
X53473Y-49126D01*
X53435Y-49107D01*
X59022Y-49166D02*
X59041Y-49110D01*
X59041Y-49016D01*
X59022Y-48979D01*
X59003Y-48960D01*
X58966Y-48941D01*
X58928Y-48941D01*
X58891Y-48960D01*
X58872Y-48979D01*
X58853Y-49016D01*
X58835Y-49091D01*
X58816Y-49129D01*
X58797Y-49147D01*
X58760Y-49166D01*
X58722Y-49166D01*
X58685Y-49147D01*
X58666Y-49129D01*
X58647Y-49091D01*
X58647Y-48997D01*
X58666Y-48941D01*
X58647Y-48810D02*
X59041Y-48716D01*
X58760Y-48641D01*
X59041Y-48566D01*
X58647Y-48473D01*
X58685Y-48341D02*
X58666Y-48323D01*
X58647Y-48285D01*
X58647Y-48191D01*
X58666Y-48154D01*
X58685Y-48135D01*
X58722Y-48116D01*
X58760Y-48116D01*
X58816Y-48135D01*
X59041Y-48360D01*
X59041Y-48116D01*
G54D19*
X59950Y-52056D02*
X59950Y-52281D01*
X59950Y-52169D02*
X59556Y-52169D01*
X59613Y-52206D01*
X59650Y-52244D01*
X59669Y-52281D01*
G54D10*
X66627Y-50335D02*
X66548Y-50223D01*
X66492Y-50335D02*
X66492Y-50099D01*
X66582Y-50099D01*
X66605Y-50110D01*
X66616Y-50122D01*
X66627Y-50144D01*
X66627Y-50178D01*
X66616Y-50200D01*
X66605Y-50212D01*
X66582Y-50223D01*
X66492Y-50223D01*
X66841Y-50099D02*
X66728Y-50099D01*
X66717Y-50212D01*
X66728Y-50200D01*
X66751Y-50189D01*
X66807Y-50189D01*
X66830Y-50200D01*
X66841Y-50212D01*
X66852Y-50234D01*
X66852Y-50290D01*
X66841Y-50313D01*
X66830Y-50324D01*
X66807Y-50335D01*
X66751Y-50335D01*
X66728Y-50324D01*
X66717Y-50313D01*
X66998Y-50099D02*
X67021Y-50099D01*
X67043Y-50110D01*
X67055Y-50122D01*
X67066Y-50144D01*
X67077Y-50189D01*
X67077Y-50245D01*
X67066Y-50290D01*
X67055Y-50313D01*
X67043Y-50324D01*
X67021Y-50335D01*
X66998Y-50335D01*
X66976Y-50324D01*
X66965Y-50313D01*
X66953Y-50290D01*
X66942Y-50245D01*
X66942Y-50189D01*
X66953Y-50144D01*
X66965Y-50122D01*
X66976Y-50110D01*
X66998Y-50099D01*
G54D11*
X42576Y-25190D02*
X42857Y-25190D01*
X42914Y-25209D01*
X42951Y-25246D01*
X42970Y-25302D01*
X42970Y-25340D01*
X42576Y-25040D02*
X42576Y-24777D01*
X42970Y-24946D01*
X67626Y-22356D02*
X67439Y-22356D01*
X67420Y-22543D01*
X67439Y-22524D01*
X67476Y-22506D01*
X67570Y-22506D01*
X67607Y-22524D01*
X67626Y-22543D01*
X67645Y-22581D01*
X67645Y-22674D01*
X67626Y-22712D01*
X67607Y-22731D01*
X67570Y-22749D01*
X67476Y-22749D01*
X67439Y-22731D01*
X67420Y-22712D01*
X67889Y-22356D02*
X67926Y-22356D01*
X67964Y-22374D01*
X67982Y-22393D01*
X68001Y-22431D01*
X68020Y-22506D01*
X68020Y-22599D01*
X68001Y-22674D01*
X67982Y-22712D01*
X67964Y-22731D01*
X67926Y-22749D01*
X67889Y-22749D01*
X67851Y-22731D01*
X67832Y-22712D01*
X67814Y-22674D01*
X67795Y-22599D01*
X67795Y-22506D01*
X67814Y-22431D01*
X67832Y-22393D01*
X67851Y-22374D01*
X67889Y-22356D01*
X67585Y-26930D02*
X67585Y-27193D01*
X67492Y-26780D02*
X67398Y-27061D01*
X67642Y-27061D01*
X67810Y-27193D02*
X67885Y-27193D01*
X67923Y-27174D01*
X67942Y-27155D01*
X67979Y-27099D01*
X67998Y-27024D01*
X67998Y-26874D01*
X67979Y-26836D01*
X67960Y-26818D01*
X67923Y-26799D01*
X67848Y-26799D01*
X67810Y-26818D01*
X67792Y-26836D01*
X67773Y-26874D01*
X67773Y-26968D01*
X67792Y-27005D01*
X67810Y-27024D01*
X67848Y-27043D01*
X67923Y-27043D01*
X67960Y-27024D01*
X67979Y-27005D01*
X67998Y-26968D01*
X43501Y-22440D02*
X43520Y-22422D01*
X43557Y-22403D01*
X43651Y-22403D01*
X43689Y-22422D01*
X43707Y-22440D01*
X43726Y-22478D01*
X43726Y-22515D01*
X43707Y-22572D01*
X43482Y-22797D01*
X43726Y-22797D01*
X43722Y-27088D02*
X43497Y-27088D01*
X43610Y-27088D02*
X43610Y-26694D01*
X43572Y-26751D01*
X43535Y-26788D01*
X43497Y-26807D01*
G54D10*
X57631Y-43214D02*
X57518Y-43293D01*
X57631Y-43349D02*
X57394Y-43349D01*
X57394Y-43259D01*
X57406Y-43237D01*
X57417Y-43226D01*
X57439Y-43214D01*
X57473Y-43214D01*
X57496Y-43226D01*
X57507Y-43237D01*
X57518Y-43259D01*
X57518Y-43349D01*
X57394Y-43136D02*
X57394Y-42978D01*
X57631Y-43079D01*
X57496Y-42854D02*
X57484Y-42877D01*
X57473Y-42888D01*
X57451Y-42899D01*
X57439Y-42899D01*
X57417Y-42888D01*
X57406Y-42877D01*
X57394Y-42854D01*
X57394Y-42809D01*
X57406Y-42787D01*
X57417Y-42776D01*
X57439Y-42764D01*
X57451Y-42764D01*
X57473Y-42776D01*
X57484Y-42787D01*
X57496Y-42809D01*
X57496Y-42854D01*
X57507Y-42877D01*
X57518Y-42888D01*
X57541Y-42899D01*
X57586Y-42899D01*
X57608Y-42888D01*
X57619Y-42877D01*
X57631Y-42854D01*
X57631Y-42809D01*
X57619Y-42787D01*
X57608Y-42776D01*
X57586Y-42764D01*
X57541Y-42764D01*
X57518Y-42776D01*
X57507Y-42787D01*
X57496Y-42809D01*
X56816Y-43222D02*
X56703Y-43301D01*
X56816Y-43357D02*
X56579Y-43357D01*
X56579Y-43267D01*
X56591Y-43245D01*
X56602Y-43233D01*
X56624Y-43222D01*
X56658Y-43222D01*
X56681Y-43233D01*
X56692Y-43245D01*
X56703Y-43267D01*
X56703Y-43357D01*
X56579Y-43143D02*
X56579Y-42986D01*
X56816Y-43087D01*
X56816Y-42885D02*
X56816Y-42840D01*
X56804Y-42817D01*
X56793Y-42806D01*
X56759Y-42784D01*
X56714Y-42772D01*
X56624Y-42772D01*
X56602Y-42784D01*
X56591Y-42795D01*
X56579Y-42817D01*
X56579Y-42862D01*
X56591Y-42885D01*
X56602Y-42896D01*
X56624Y-42907D01*
X56681Y-42907D01*
X56703Y-42896D01*
X56714Y-42885D01*
X56726Y-42862D01*
X56726Y-42817D01*
X56714Y-42795D01*
X56703Y-42784D01*
X56681Y-42772D01*
X57458Y-42253D02*
X57379Y-42140D01*
X57323Y-42253D02*
X57323Y-42016D01*
X57413Y-42016D01*
X57435Y-42028D01*
X57447Y-42039D01*
X57458Y-42061D01*
X57458Y-42095D01*
X57447Y-42118D01*
X57435Y-42129D01*
X57413Y-42140D01*
X57323Y-42140D01*
X57548Y-42039D02*
X57559Y-42028D01*
X57582Y-42016D01*
X57638Y-42016D01*
X57660Y-42028D01*
X57672Y-42039D01*
X57683Y-42061D01*
X57683Y-42084D01*
X57672Y-42118D01*
X57537Y-42253D01*
X57683Y-42253D01*
X57773Y-42039D02*
X57784Y-42028D01*
X57807Y-42016D01*
X57863Y-42016D01*
X57885Y-42028D01*
X57897Y-42039D01*
X57908Y-42061D01*
X57908Y-42084D01*
X57897Y-42118D01*
X57762Y-42253D01*
X57908Y-42253D01*
X56647Y-41871D02*
X56568Y-41758D01*
X56512Y-41871D02*
X56512Y-41634D01*
X56602Y-41634D01*
X56624Y-41646D01*
X56636Y-41657D01*
X56647Y-41679D01*
X56647Y-41713D01*
X56636Y-41736D01*
X56624Y-41747D01*
X56602Y-41758D01*
X56512Y-41758D01*
X56726Y-41634D02*
X56872Y-41634D01*
X56793Y-41724D01*
X56827Y-41724D01*
X56849Y-41736D01*
X56861Y-41747D01*
X56872Y-41769D01*
X56872Y-41826D01*
X56861Y-41848D01*
X56849Y-41859D01*
X56827Y-41871D01*
X56759Y-41871D01*
X56737Y-41859D01*
X56726Y-41848D01*
X56984Y-41871D02*
X57029Y-41871D01*
X57052Y-41859D01*
X57063Y-41848D01*
X57086Y-41814D01*
X57097Y-41769D01*
X57097Y-41679D01*
X57086Y-41657D01*
X57074Y-41646D01*
X57052Y-41634D01*
X57007Y-41634D01*
X56984Y-41646D01*
X56973Y-41657D01*
X56962Y-41679D01*
X56962Y-41736D01*
X56973Y-41758D01*
X56984Y-41769D01*
X57007Y-41781D01*
X57052Y-41781D01*
X57074Y-41769D01*
X57086Y-41758D01*
X57097Y-41736D01*
X61308Y-48068D02*
X61230Y-47955D01*
X61173Y-48068D02*
X61173Y-47831D01*
X61263Y-47831D01*
X61286Y-47843D01*
X61297Y-47854D01*
X61308Y-47876D01*
X61308Y-47910D01*
X61297Y-47933D01*
X61286Y-47944D01*
X61263Y-47955D01*
X61173Y-47955D01*
X61398Y-47854D02*
X61410Y-47843D01*
X61432Y-47831D01*
X61488Y-47831D01*
X61511Y-47843D01*
X61522Y-47854D01*
X61533Y-47876D01*
X61533Y-47899D01*
X61522Y-47933D01*
X61387Y-48068D01*
X61533Y-48068D01*
X61758Y-48068D02*
X61623Y-48068D01*
X61691Y-48068D02*
X61691Y-47831D01*
X61668Y-47865D01*
X61646Y-47888D01*
X61623Y-47899D01*
G54D11*
X38341Y-30954D02*
X38341Y-31273D01*
X38360Y-31310D01*
X38379Y-31329D01*
X38416Y-31348D01*
X38491Y-31348D01*
X38529Y-31329D01*
X38547Y-31310D01*
X38566Y-31273D01*
X38566Y-30954D01*
X38922Y-30954D02*
X38847Y-30954D01*
X38810Y-30973D01*
X38791Y-30992D01*
X38754Y-31048D01*
X38735Y-31123D01*
X38735Y-31273D01*
X38754Y-31310D01*
X38772Y-31329D01*
X38810Y-31348D01*
X38885Y-31348D01*
X38922Y-31329D01*
X38941Y-31310D01*
X38960Y-31273D01*
X38960Y-31179D01*
X38941Y-31142D01*
X38922Y-31123D01*
X38885Y-31104D01*
X38810Y-31104D01*
X38772Y-31123D01*
X38754Y-31142D01*
X38735Y-31179D01*
G54D10*
X39883Y-31338D02*
X39977Y-31338D01*
X39940Y-31432D02*
X39977Y-31338D01*
X39940Y-31244D01*
X40052Y-31394D02*
X39977Y-31338D01*
X40052Y-31282D01*
X58493Y-27670D02*
X58415Y-27557D01*
X58358Y-27670D02*
X58358Y-27434D01*
X58448Y-27434D01*
X58471Y-27445D01*
X58482Y-27456D01*
X58493Y-27479D01*
X58493Y-27512D01*
X58482Y-27535D01*
X58471Y-27546D01*
X58448Y-27557D01*
X58358Y-27557D01*
X58628Y-27535D02*
X58606Y-27524D01*
X58595Y-27512D01*
X58583Y-27490D01*
X58583Y-27479D01*
X58595Y-27456D01*
X58606Y-27445D01*
X58628Y-27434D01*
X58673Y-27434D01*
X58696Y-27445D01*
X58707Y-27456D01*
X58718Y-27479D01*
X58718Y-27490D01*
X58707Y-27512D01*
X58696Y-27524D01*
X58673Y-27535D01*
X58628Y-27535D01*
X58606Y-27546D01*
X58595Y-27557D01*
X58583Y-27580D01*
X58583Y-27625D01*
X58595Y-27647D01*
X58606Y-27659D01*
X58628Y-27670D01*
X58673Y-27670D01*
X58696Y-27659D01*
X58707Y-27647D01*
X58718Y-27625D01*
X58718Y-27580D01*
X58707Y-27557D01*
X58696Y-27546D01*
X58673Y-27535D01*
X58853Y-27535D02*
X58831Y-27524D01*
X58820Y-27512D01*
X58808Y-27490D01*
X58808Y-27479D01*
X58820Y-27456D01*
X58831Y-27445D01*
X58853Y-27434D01*
X58898Y-27434D01*
X58921Y-27445D01*
X58932Y-27456D01*
X58943Y-27479D01*
X58943Y-27490D01*
X58932Y-27512D01*
X58921Y-27524D01*
X58898Y-27535D01*
X58853Y-27535D01*
X58831Y-27546D01*
X58820Y-27557D01*
X58808Y-27580D01*
X58808Y-27625D01*
X58820Y-27647D01*
X58831Y-27659D01*
X58853Y-27670D01*
X58898Y-27670D01*
X58921Y-27659D01*
X58932Y-27647D01*
X58943Y-27625D01*
X58943Y-27580D01*
X58932Y-27557D01*
X58921Y-27546D01*
X58898Y-27535D01*
X58761Y-26977D02*
X58682Y-26865D01*
X58626Y-26977D02*
X58626Y-26741D01*
X58716Y-26741D01*
X58739Y-26752D01*
X58750Y-26763D01*
X58761Y-26786D01*
X58761Y-26820D01*
X58750Y-26842D01*
X58739Y-26853D01*
X58716Y-26865D01*
X58626Y-26865D01*
X58896Y-26842D02*
X58874Y-26831D01*
X58862Y-26820D01*
X58851Y-26797D01*
X58851Y-26786D01*
X58862Y-26763D01*
X58874Y-26752D01*
X58896Y-26741D01*
X58941Y-26741D01*
X58964Y-26752D01*
X58975Y-26763D01*
X58986Y-26786D01*
X58986Y-26797D01*
X58975Y-26820D01*
X58964Y-26831D01*
X58941Y-26842D01*
X58896Y-26842D01*
X58874Y-26853D01*
X58862Y-26865D01*
X58851Y-26887D01*
X58851Y-26932D01*
X58862Y-26955D01*
X58874Y-26966D01*
X58896Y-26977D01*
X58941Y-26977D01*
X58964Y-26966D01*
X58975Y-26955D01*
X58986Y-26932D01*
X58986Y-26887D01*
X58975Y-26865D01*
X58964Y-26853D01*
X58941Y-26842D01*
X59065Y-26741D02*
X59222Y-26741D01*
X59121Y-26977D01*
X59489Y-28016D02*
X59411Y-27904D01*
X59354Y-28016D02*
X59354Y-27780D01*
X59444Y-27780D01*
X59467Y-27791D01*
X59478Y-27803D01*
X59489Y-27825D01*
X59489Y-27859D01*
X59478Y-27881D01*
X59467Y-27893D01*
X59444Y-27904D01*
X59354Y-27904D01*
X59624Y-27881D02*
X59602Y-27870D01*
X59591Y-27859D01*
X59579Y-27836D01*
X59579Y-27825D01*
X59591Y-27803D01*
X59602Y-27791D01*
X59624Y-27780D01*
X59669Y-27780D01*
X59692Y-27791D01*
X59703Y-27803D01*
X59714Y-27825D01*
X59714Y-27836D01*
X59703Y-27859D01*
X59692Y-27870D01*
X59669Y-27881D01*
X59624Y-27881D01*
X59602Y-27893D01*
X59591Y-27904D01*
X59579Y-27926D01*
X59579Y-27971D01*
X59591Y-27994D01*
X59602Y-28005D01*
X59624Y-28016D01*
X59669Y-28016D01*
X59692Y-28005D01*
X59703Y-27994D01*
X59714Y-27971D01*
X59714Y-27926D01*
X59703Y-27904D01*
X59692Y-27893D01*
X59669Y-27881D01*
X59827Y-28016D02*
X59872Y-28016D01*
X59894Y-28005D01*
X59906Y-27994D01*
X59928Y-27960D01*
X59939Y-27915D01*
X59939Y-27825D01*
X59928Y-27803D01*
X59917Y-27791D01*
X59894Y-27780D01*
X59849Y-27780D01*
X59827Y-27791D01*
X59816Y-27803D01*
X59804Y-27825D01*
X59804Y-27881D01*
X59816Y-27904D01*
X59827Y-27915D01*
X59849Y-27926D01*
X59894Y-27926D01*
X59917Y-27915D01*
X59928Y-27904D01*
X59939Y-27881D01*
X57206Y-27658D02*
X57127Y-27546D01*
X57071Y-27658D02*
X57071Y-27422D01*
X57161Y-27422D01*
X57183Y-27433D01*
X57195Y-27444D01*
X57206Y-27467D01*
X57206Y-27501D01*
X57195Y-27523D01*
X57183Y-27534D01*
X57161Y-27546D01*
X57071Y-27546D01*
X57341Y-27523D02*
X57318Y-27512D01*
X57307Y-27501D01*
X57296Y-27478D01*
X57296Y-27467D01*
X57307Y-27444D01*
X57318Y-27433D01*
X57341Y-27422D01*
X57386Y-27422D01*
X57408Y-27433D01*
X57420Y-27444D01*
X57431Y-27467D01*
X57431Y-27478D01*
X57420Y-27501D01*
X57408Y-27512D01*
X57386Y-27523D01*
X57341Y-27523D01*
X57318Y-27534D01*
X57307Y-27546D01*
X57296Y-27568D01*
X57296Y-27613D01*
X57307Y-27636D01*
X57318Y-27647D01*
X57341Y-27658D01*
X57386Y-27658D01*
X57408Y-27647D01*
X57420Y-27636D01*
X57431Y-27613D01*
X57431Y-27568D01*
X57420Y-27546D01*
X57408Y-27534D01*
X57386Y-27523D01*
X57645Y-27422D02*
X57532Y-27422D01*
X57521Y-27534D01*
X57532Y-27523D01*
X57555Y-27512D01*
X57611Y-27512D01*
X57633Y-27523D01*
X57645Y-27534D01*
X57656Y-27557D01*
X57656Y-27613D01*
X57645Y-27636D01*
X57633Y-27647D01*
X57611Y-27658D01*
X57555Y-27658D01*
X57532Y-27647D01*
X57521Y-27636D01*
X57485Y-26969D02*
X57407Y-26857D01*
X57350Y-26969D02*
X57350Y-26733D01*
X57440Y-26733D01*
X57463Y-26744D01*
X57474Y-26755D01*
X57485Y-26778D01*
X57485Y-26812D01*
X57474Y-26834D01*
X57463Y-26845D01*
X57440Y-26857D01*
X57350Y-26857D01*
X57620Y-26834D02*
X57598Y-26823D01*
X57587Y-26812D01*
X57575Y-26789D01*
X57575Y-26778D01*
X57587Y-26755D01*
X57598Y-26744D01*
X57620Y-26733D01*
X57665Y-26733D01*
X57688Y-26744D01*
X57699Y-26755D01*
X57710Y-26778D01*
X57710Y-26789D01*
X57699Y-26812D01*
X57688Y-26823D01*
X57665Y-26834D01*
X57620Y-26834D01*
X57598Y-26845D01*
X57587Y-26857D01*
X57575Y-26879D01*
X57575Y-26924D01*
X57587Y-26947D01*
X57598Y-26958D01*
X57620Y-26969D01*
X57665Y-26969D01*
X57688Y-26958D01*
X57699Y-26947D01*
X57710Y-26924D01*
X57710Y-26879D01*
X57699Y-26857D01*
X57688Y-26845D01*
X57665Y-26834D01*
X57913Y-26812D02*
X57913Y-26969D01*
X57857Y-26722D02*
X57800Y-26890D01*
X57947Y-26890D01*
X58222Y-28005D02*
X58143Y-27892D01*
X58087Y-28005D02*
X58087Y-27768D01*
X58177Y-27768D01*
X58199Y-27780D01*
X58210Y-27791D01*
X58222Y-27813D01*
X58222Y-27847D01*
X58210Y-27870D01*
X58199Y-27881D01*
X58177Y-27892D01*
X58087Y-27892D01*
X58357Y-27870D02*
X58334Y-27858D01*
X58323Y-27847D01*
X58312Y-27825D01*
X58312Y-27813D01*
X58323Y-27791D01*
X58334Y-27780D01*
X58357Y-27768D01*
X58402Y-27768D01*
X58424Y-27780D01*
X58435Y-27791D01*
X58447Y-27813D01*
X58447Y-27825D01*
X58435Y-27847D01*
X58424Y-27858D01*
X58402Y-27870D01*
X58357Y-27870D01*
X58334Y-27881D01*
X58323Y-27892D01*
X58312Y-27915D01*
X58312Y-27960D01*
X58323Y-27982D01*
X58334Y-27993D01*
X58357Y-28005D01*
X58402Y-28005D01*
X58424Y-27993D01*
X58435Y-27982D01*
X58447Y-27960D01*
X58447Y-27915D01*
X58435Y-27892D01*
X58424Y-27881D01*
X58402Y-27870D01*
X58649Y-27768D02*
X58604Y-27768D01*
X58582Y-27780D01*
X58570Y-27791D01*
X58548Y-27825D01*
X58537Y-27870D01*
X58537Y-27960D01*
X58548Y-27982D01*
X58559Y-27993D01*
X58582Y-28005D01*
X58627Y-28005D01*
X58649Y-27993D01*
X58660Y-27982D01*
X58672Y-27960D01*
X58672Y-27903D01*
X58660Y-27881D01*
X58649Y-27870D01*
X58627Y-27858D01*
X58582Y-27858D01*
X58559Y-27870D01*
X58548Y-27881D01*
X58537Y-27903D01*
X56588Y-51190D02*
X56509Y-51077D01*
X56453Y-51190D02*
X56453Y-50953D01*
X56543Y-50953D01*
X56565Y-50965D01*
X56577Y-50976D01*
X56588Y-50998D01*
X56588Y-51032D01*
X56577Y-51055D01*
X56565Y-51066D01*
X56543Y-51077D01*
X56453Y-51077D01*
X56700Y-51190D02*
X56745Y-51190D01*
X56768Y-51178D01*
X56779Y-51167D01*
X56802Y-51133D01*
X56813Y-51088D01*
X56813Y-50998D01*
X56802Y-50976D01*
X56790Y-50965D01*
X56768Y-50953D01*
X56723Y-50953D01*
X56700Y-50965D01*
X56689Y-50976D01*
X56678Y-50998D01*
X56678Y-51055D01*
X56689Y-51077D01*
X56700Y-51088D01*
X56723Y-51100D01*
X56768Y-51100D01*
X56790Y-51088D01*
X56802Y-51077D01*
X56813Y-51055D01*
X56959Y-50953D02*
X56982Y-50953D01*
X57004Y-50965D01*
X57015Y-50976D01*
X57026Y-50998D01*
X57038Y-51043D01*
X57038Y-51100D01*
X57026Y-51145D01*
X57015Y-51167D01*
X57004Y-51178D01*
X56982Y-51190D01*
X56959Y-51190D01*
X56937Y-51178D01*
X56925Y-51167D01*
X56914Y-51145D01*
X56903Y-51100D01*
X56903Y-51043D01*
X56914Y-50998D01*
X56925Y-50976D01*
X56937Y-50965D01*
X56959Y-50953D01*
X57394Y-50514D02*
X57282Y-50592D01*
X57394Y-50649D02*
X57158Y-50649D01*
X57158Y-50559D01*
X57169Y-50536D01*
X57181Y-50525D01*
X57203Y-50514D01*
X57237Y-50514D01*
X57259Y-50525D01*
X57271Y-50536D01*
X57282Y-50559D01*
X57282Y-50649D01*
X57259Y-50379D02*
X57248Y-50401D01*
X57237Y-50412D01*
X57214Y-50424D01*
X57203Y-50424D01*
X57181Y-50412D01*
X57169Y-50401D01*
X57158Y-50379D01*
X57158Y-50334D01*
X57169Y-50311D01*
X57181Y-50300D01*
X57203Y-50289D01*
X57214Y-50289D01*
X57237Y-50300D01*
X57248Y-50311D01*
X57259Y-50334D01*
X57259Y-50379D01*
X57271Y-50401D01*
X57282Y-50412D01*
X57304Y-50424D01*
X57349Y-50424D01*
X57372Y-50412D01*
X57383Y-50401D01*
X57394Y-50379D01*
X57394Y-50334D01*
X57383Y-50311D01*
X57372Y-50300D01*
X57349Y-50289D01*
X57304Y-50289D01*
X57282Y-50300D01*
X57271Y-50311D01*
X57259Y-50334D01*
X57158Y-50142D02*
X57158Y-50120D01*
X57169Y-50097D01*
X57181Y-50086D01*
X57203Y-50075D01*
X57248Y-50064D01*
X57304Y-50064D01*
X57349Y-50075D01*
X57372Y-50086D01*
X57383Y-50097D01*
X57394Y-50120D01*
X57394Y-50142D01*
X57383Y-50165D01*
X57372Y-50176D01*
X57349Y-50187D01*
X57304Y-50199D01*
X57248Y-50199D01*
X57203Y-50187D01*
X57181Y-50176D01*
X57169Y-50165D01*
X57158Y-50142D01*
G54D11*
X40973Y-34375D02*
X40973Y-33982D01*
X41066Y-33982D01*
X41123Y-34000D01*
X41160Y-34038D01*
X41179Y-34075D01*
X41198Y-34150D01*
X41198Y-34207D01*
X41179Y-34282D01*
X41160Y-34319D01*
X41123Y-34357D01*
X41066Y-34375D01*
X40973Y-34375D01*
X41573Y-34375D02*
X41348Y-34375D01*
X41460Y-34375D02*
X41460Y-33982D01*
X41423Y-34038D01*
X41385Y-34075D01*
X41348Y-34094D01*
X43721Y-49297D02*
X43721Y-48903D01*
X43814Y-48903D01*
X43871Y-48922D01*
X43908Y-48959D01*
X43927Y-48997D01*
X43946Y-49072D01*
X43946Y-49128D01*
X43927Y-49203D01*
X43908Y-49240D01*
X43871Y-49278D01*
X43814Y-49297D01*
X43721Y-49297D01*
X44077Y-48903D02*
X44321Y-48903D01*
X44189Y-49053D01*
X44246Y-49053D01*
X44283Y-49072D01*
X44302Y-49090D01*
X44321Y-49128D01*
X44321Y-49222D01*
X44302Y-49259D01*
X44283Y-49278D01*
X44246Y-49297D01*
X44133Y-49297D01*
X44096Y-49278D01*
X44077Y-49259D01*
G54D20*
X43286Y-49611D02*
X43406Y-49611D01*
X43346Y-49701D02*
X43346Y-49521D01*
X44703Y-49611D02*
X44823Y-49611D01*
G54D11*
X51441Y-51927D02*
X51441Y-51533D01*
X51535Y-51533D01*
X51591Y-51552D01*
X51629Y-51589D01*
X51647Y-51627D01*
X51666Y-51702D01*
X51666Y-51758D01*
X51647Y-51833D01*
X51629Y-51870D01*
X51591Y-51908D01*
X51535Y-51927D01*
X51441Y-51927D01*
X52004Y-51664D02*
X52004Y-51927D01*
X51910Y-51514D02*
X51816Y-51795D01*
X52060Y-51795D01*
G54D20*
X51002Y-52210D02*
X51122Y-52210D01*
X51062Y-52300D02*
X51062Y-52120D01*
X52420Y-52210D02*
X52540Y-52210D01*
G54D11*
X63563Y-48395D02*
X63563Y-48001D01*
X63657Y-48001D01*
X63713Y-48020D01*
X63751Y-48058D01*
X63769Y-48095D01*
X63788Y-48170D01*
X63788Y-48226D01*
X63769Y-48301D01*
X63751Y-48339D01*
X63713Y-48376D01*
X63657Y-48395D01*
X63563Y-48395D01*
X64126Y-48001D02*
X64051Y-48001D01*
X64013Y-48020D01*
X63994Y-48039D01*
X63957Y-48095D01*
X63938Y-48170D01*
X63938Y-48320D01*
X63957Y-48358D01*
X63976Y-48376D01*
X64013Y-48395D01*
X64088Y-48395D01*
X64126Y-48376D01*
X64144Y-48358D01*
X64163Y-48320D01*
X64163Y-48226D01*
X64144Y-48189D01*
X64126Y-48170D01*
X64088Y-48151D01*
X64013Y-48151D01*
X63976Y-48170D01*
X63957Y-48189D01*
X63938Y-48226D01*
G54D20*
X61928Y-48241D02*
X62048Y-48241D01*
X61988Y-48331D02*
X61988Y-48151D01*
X63254Y-48241D02*
X63374Y-48241D01*
M02*
