G04 (created by PCBNEW (2013-07-07 BZR 4022)-stable) date 10/22/2013 6:32:42 PM*
%MOIN*%
G04 Gerber Fmt 3.4, Leading zero omitted, Abs format*
%FSLAX34Y34*%
G01*
G70*
G90*
G04 APERTURE LIST*
%ADD10C,0.00590551*%
%ADD11C,0.00787402*%
%ADD12C,0.0354331*%
%ADD13R,0.062974X0.043274*%
%ADD14R,0.0273X0.0253*%
%ADD15R,0.039274X0.039274*%
%ADD16R,0.0570866X0.0393701*%
%ADD17R,0.0393701X0.0570866*%
%ADD18R,0.0353X0.0392*%
%ADD19R,0.0392X0.0353*%
%ADD20R,0.0273X0.0273*%
%ADD21C,0.251948*%
%ADD22C,0.0314961*%
%ADD23C,0.251968*%
%ADD24C,0.0653992*%
%ADD25R,0.0692992X0.0180992*%
%ADD26R,0.0692992X0.0338992*%
%ADD27R,0.128299X0.0692992*%
%ADD28R,0.0258992X0.0849992*%
%ADD29R,0.104699X0.0928992*%
%ADD30R,0.0253X0.0273*%
%ADD31R,0.060237X0.207837*%
%ADD32R,0.082637X0.102337*%
%ADD33R,0.053937X0.063737*%
%ADD34R,0.033837X0.063037*%
%ADD35R,0.088537X0.041337*%
%ADD36R,0.088537X0.131937*%
%ADD37R,0.063637X0.063637*%
%ADD38C,0.063637*%
%ADD39C,0.111837*%
%ADD40C,0.090537*%
%ADD41R,0.025637X0.043337*%
%ADD42C,0.185039*%
%ADD43R,0.053937X0.129937*%
%ADD44R,0.0298992X0.0928992*%
%ADD45R,0.140199X0.107099*%
%ADD46C,0.01*%
G04 APERTURE END LIST*
G54D10*
X4000Y-4000D02*
X112930Y-4000D01*
X112930Y-78680D01*
X4000Y-78680D01*
X4000Y-4000D01*
X4700Y-4700D02*
X112230Y-4700D01*
X112230Y-77980D01*
X4700Y-77980D01*
X4700Y-4700D01*
X25780Y-4000D02*
X25780Y-4700D01*
X15032Y-4552D02*
X14747Y-4552D01*
X14890Y-4552D02*
X14890Y-4052D01*
X14842Y-4123D01*
X14794Y-4171D01*
X14747Y-4195D01*
X25780Y-78680D02*
X25780Y-77980D01*
X15032Y-78532D02*
X14747Y-78532D01*
X14890Y-78532D02*
X14890Y-78032D01*
X14842Y-78103D01*
X14794Y-78151D01*
X14747Y-78175D01*
X47560Y-4000D02*
X47560Y-4700D01*
X36527Y-4100D02*
X36550Y-4076D01*
X36598Y-4052D01*
X36717Y-4052D01*
X36765Y-4076D01*
X36789Y-4100D01*
X36812Y-4147D01*
X36812Y-4195D01*
X36789Y-4266D01*
X36503Y-4552D01*
X36812Y-4552D01*
X47560Y-78680D02*
X47560Y-77980D01*
X36527Y-78080D02*
X36550Y-78056D01*
X36598Y-78032D01*
X36717Y-78032D01*
X36765Y-78056D01*
X36789Y-78080D01*
X36812Y-78127D01*
X36812Y-78175D01*
X36789Y-78246D01*
X36503Y-78532D01*
X36812Y-78532D01*
X69340Y-4000D02*
X69340Y-4700D01*
X58283Y-4052D02*
X58592Y-4052D01*
X58426Y-4242D01*
X58497Y-4242D01*
X58545Y-4266D01*
X58569Y-4290D01*
X58592Y-4338D01*
X58592Y-4457D01*
X58569Y-4504D01*
X58545Y-4528D01*
X58497Y-4552D01*
X58354Y-4552D01*
X58307Y-4528D01*
X58283Y-4504D01*
X69340Y-78680D02*
X69340Y-77980D01*
X58283Y-78032D02*
X58592Y-78032D01*
X58426Y-78222D01*
X58497Y-78222D01*
X58545Y-78246D01*
X58569Y-78270D01*
X58592Y-78318D01*
X58592Y-78437D01*
X58569Y-78484D01*
X58545Y-78508D01*
X58497Y-78532D01*
X58354Y-78532D01*
X58307Y-78508D01*
X58283Y-78484D01*
X91120Y-4000D02*
X91120Y-4700D01*
X80325Y-4219D02*
X80325Y-4552D01*
X80206Y-4028D02*
X80087Y-4385D01*
X80396Y-4385D01*
X91120Y-78680D02*
X91120Y-77980D01*
X80325Y-78199D02*
X80325Y-78532D01*
X80206Y-78008D02*
X80087Y-78365D01*
X80396Y-78365D01*
X102129Y-4052D02*
X101890Y-4052D01*
X101867Y-4290D01*
X101890Y-4266D01*
X101938Y-4242D01*
X102057Y-4242D01*
X102105Y-4266D01*
X102129Y-4290D01*
X102152Y-4338D01*
X102152Y-4457D01*
X102129Y-4504D01*
X102105Y-4528D01*
X102057Y-4552D01*
X101938Y-4552D01*
X101890Y-4528D01*
X101867Y-4504D01*
X102129Y-78032D02*
X101890Y-78032D01*
X101867Y-78270D01*
X101890Y-78246D01*
X101938Y-78222D01*
X102057Y-78222D01*
X102105Y-78246D01*
X102129Y-78270D01*
X102152Y-78318D01*
X102152Y-78437D01*
X102129Y-78484D01*
X102105Y-78508D01*
X102057Y-78532D01*
X101938Y-78532D01*
X101890Y-78508D01*
X101867Y-78484D01*
X4000Y-28890D02*
X4700Y-28890D01*
X4230Y-16509D02*
X4469Y-16509D01*
X4183Y-16652D02*
X4350Y-16152D01*
X4516Y-16652D01*
X112930Y-28890D02*
X112230Y-28890D01*
X112460Y-16509D02*
X112699Y-16509D01*
X112413Y-16652D02*
X112580Y-16152D01*
X112746Y-16652D01*
X4000Y-53780D02*
X4700Y-53780D01*
X4385Y-41280D02*
X4457Y-41304D01*
X4480Y-41328D01*
X4504Y-41375D01*
X4504Y-41447D01*
X4480Y-41494D01*
X4457Y-41518D01*
X4409Y-41542D01*
X4219Y-41542D01*
X4219Y-41042D01*
X4385Y-41042D01*
X4433Y-41066D01*
X4457Y-41090D01*
X4480Y-41137D01*
X4480Y-41185D01*
X4457Y-41232D01*
X4433Y-41256D01*
X4385Y-41280D01*
X4219Y-41280D01*
X112930Y-53780D02*
X112230Y-53780D01*
X112615Y-41280D02*
X112687Y-41304D01*
X112710Y-41328D01*
X112734Y-41375D01*
X112734Y-41447D01*
X112710Y-41494D01*
X112687Y-41518D01*
X112639Y-41542D01*
X112449Y-41542D01*
X112449Y-41042D01*
X112615Y-41042D01*
X112663Y-41066D01*
X112687Y-41090D01*
X112710Y-41137D01*
X112710Y-41185D01*
X112687Y-41232D01*
X112663Y-41256D01*
X112615Y-41280D01*
X112449Y-41280D01*
X4504Y-66384D02*
X4480Y-66408D01*
X4409Y-66432D01*
X4361Y-66432D01*
X4290Y-66408D01*
X4242Y-66360D01*
X4219Y-66313D01*
X4195Y-66218D01*
X4195Y-66146D01*
X4219Y-66051D01*
X4242Y-66003D01*
X4290Y-65956D01*
X4361Y-65932D01*
X4409Y-65932D01*
X4480Y-65956D01*
X4504Y-65980D01*
X112734Y-66384D02*
X112710Y-66408D01*
X112639Y-66432D01*
X112591Y-66432D01*
X112520Y-66408D01*
X112472Y-66360D01*
X112449Y-66313D01*
X112425Y-66218D01*
X112425Y-66146D01*
X112449Y-66051D01*
X112472Y-66003D01*
X112520Y-65956D01*
X112591Y-65932D01*
X112639Y-65932D01*
X112710Y-65956D01*
X112734Y-65980D01*
X79380Y-76422D02*
X79455Y-75822D01*
X79597Y-75822D01*
X79680Y-75851D01*
X79730Y-75908D01*
X79751Y-75965D01*
X79765Y-76080D01*
X79755Y-76165D01*
X79712Y-76280D01*
X79676Y-76337D01*
X79612Y-76394D01*
X79522Y-76422D01*
X79380Y-76422D01*
X80237Y-76422D02*
X80276Y-76108D01*
X80255Y-76051D01*
X80201Y-76022D01*
X80087Y-76022D01*
X80026Y-76051D01*
X80240Y-76394D02*
X80180Y-76422D01*
X80037Y-76422D01*
X79983Y-76394D01*
X79962Y-76337D01*
X79969Y-76280D01*
X80005Y-76222D01*
X80065Y-76194D01*
X80208Y-76194D01*
X80269Y-76165D01*
X80487Y-76022D02*
X80715Y-76022D01*
X80597Y-75822D02*
X80533Y-76337D01*
X80555Y-76394D01*
X80608Y-76422D01*
X80665Y-76422D01*
X81097Y-76394D02*
X81037Y-76422D01*
X80922Y-76422D01*
X80869Y-76394D01*
X80847Y-76337D01*
X80876Y-76108D01*
X80912Y-76051D01*
X80972Y-76022D01*
X81087Y-76022D01*
X81140Y-76051D01*
X81162Y-76108D01*
X81155Y-76165D01*
X80862Y-76222D01*
X81387Y-76365D02*
X81412Y-76394D01*
X81380Y-76422D01*
X81355Y-76394D01*
X81387Y-76365D01*
X81380Y-76422D01*
X81426Y-76051D02*
X81451Y-76080D01*
X81419Y-76108D01*
X81394Y-76080D01*
X81426Y-76051D01*
X81419Y-76108D01*
X82162Y-75880D02*
X82194Y-75851D01*
X82255Y-75822D01*
X82397Y-75822D01*
X82451Y-75851D01*
X82476Y-75880D01*
X82497Y-75937D01*
X82490Y-75994D01*
X82451Y-76080D01*
X82065Y-76422D01*
X82437Y-76422D01*
X82733Y-75880D02*
X82765Y-75851D01*
X82826Y-75822D01*
X82969Y-75822D01*
X83022Y-75851D01*
X83047Y-75880D01*
X83069Y-75937D01*
X83062Y-75994D01*
X83022Y-76080D01*
X82637Y-76422D01*
X83008Y-76422D01*
X83808Y-76422D02*
X83755Y-76394D01*
X83730Y-76365D01*
X83708Y-76308D01*
X83730Y-76137D01*
X83765Y-76080D01*
X83797Y-76051D01*
X83858Y-76022D01*
X83944Y-76022D01*
X83997Y-76051D01*
X84022Y-76080D01*
X84044Y-76137D01*
X84022Y-76308D01*
X83987Y-76365D01*
X83955Y-76394D01*
X83894Y-76422D01*
X83808Y-76422D01*
X84526Y-76394D02*
X84465Y-76422D01*
X84351Y-76422D01*
X84297Y-76394D01*
X84272Y-76365D01*
X84251Y-76308D01*
X84272Y-76137D01*
X84308Y-76080D01*
X84340Y-76051D01*
X84401Y-76022D01*
X84515Y-76022D01*
X84569Y-76051D01*
X84744Y-76022D02*
X84972Y-76022D01*
X84855Y-75822D02*
X84790Y-76337D01*
X84812Y-76394D01*
X84865Y-76422D01*
X84922Y-76422D01*
X85619Y-75880D02*
X85651Y-75851D01*
X85712Y-75822D01*
X85855Y-75822D01*
X85908Y-75851D01*
X85933Y-75880D01*
X85955Y-75937D01*
X85947Y-75994D01*
X85908Y-76080D01*
X85522Y-76422D01*
X85894Y-76422D01*
X86340Y-75822D02*
X86397Y-75822D01*
X86451Y-75851D01*
X86476Y-75880D01*
X86497Y-75937D01*
X86512Y-76051D01*
X86494Y-76194D01*
X86451Y-76308D01*
X86415Y-76365D01*
X86383Y-76394D01*
X86322Y-76422D01*
X86265Y-76422D01*
X86212Y-76394D01*
X86187Y-76365D01*
X86165Y-76308D01*
X86151Y-76194D01*
X86169Y-76051D01*
X86212Y-75937D01*
X86247Y-75880D01*
X86280Y-75851D01*
X86340Y-75822D01*
X87037Y-76422D02*
X86694Y-76422D01*
X86865Y-76422D02*
X86940Y-75822D01*
X86872Y-75908D01*
X86808Y-75965D01*
X86747Y-75994D01*
X87312Y-75822D02*
X87683Y-75822D01*
X87455Y-76051D01*
X87540Y-76051D01*
X87594Y-76080D01*
X87619Y-76108D01*
X87640Y-76165D01*
X87622Y-76308D01*
X87587Y-76365D01*
X87555Y-76394D01*
X87494Y-76422D01*
X87322Y-76422D01*
X87269Y-76394D01*
X87244Y-76365D01*
X70972Y-77622D02*
X70972Y-77022D01*
X71315Y-77622D02*
X71058Y-77280D01*
X71315Y-77022D02*
X70972Y-77365D01*
X71572Y-77622D02*
X71572Y-77222D01*
X71572Y-77022D02*
X71544Y-77051D01*
X71572Y-77080D01*
X71601Y-77051D01*
X71572Y-77022D01*
X71572Y-77080D01*
X72201Y-77565D02*
X72172Y-77594D01*
X72087Y-77622D01*
X72030Y-77622D01*
X71944Y-77594D01*
X71887Y-77537D01*
X71858Y-77480D01*
X71830Y-77365D01*
X71830Y-77280D01*
X71858Y-77165D01*
X71887Y-77108D01*
X71944Y-77051D01*
X72030Y-77022D01*
X72087Y-77022D01*
X72172Y-77051D01*
X72201Y-77080D01*
X72715Y-77622D02*
X72715Y-77308D01*
X72687Y-77251D01*
X72630Y-77222D01*
X72515Y-77222D01*
X72458Y-77251D01*
X72715Y-77594D02*
X72658Y-77622D01*
X72515Y-77622D01*
X72458Y-77594D01*
X72430Y-77537D01*
X72430Y-77480D01*
X72458Y-77422D01*
X72515Y-77394D01*
X72658Y-77394D01*
X72715Y-77365D01*
X73258Y-77622D02*
X73258Y-77022D01*
X73258Y-77594D02*
X73201Y-77622D01*
X73087Y-77622D01*
X73030Y-77594D01*
X73001Y-77565D01*
X72972Y-77508D01*
X72972Y-77337D01*
X73001Y-77280D01*
X73030Y-77251D01*
X73087Y-77222D01*
X73201Y-77222D01*
X73258Y-77251D01*
X74001Y-77308D02*
X74201Y-77308D01*
X74287Y-77622D02*
X74001Y-77622D01*
X74001Y-77022D01*
X74287Y-77022D01*
X74544Y-77565D02*
X74572Y-77594D01*
X74544Y-77622D01*
X74515Y-77594D01*
X74544Y-77565D01*
X74544Y-77622D01*
X74829Y-77622D02*
X74829Y-77022D01*
X74972Y-77022D01*
X75058Y-77051D01*
X75115Y-77108D01*
X75144Y-77165D01*
X75172Y-77280D01*
X75172Y-77365D01*
X75144Y-77480D01*
X75115Y-77537D01*
X75058Y-77594D01*
X74972Y-77622D01*
X74829Y-77622D01*
X75429Y-77565D02*
X75458Y-77594D01*
X75429Y-77622D01*
X75401Y-77594D01*
X75429Y-77565D01*
X75429Y-77622D01*
X75687Y-77451D02*
X75972Y-77451D01*
X75629Y-77622D02*
X75829Y-77022D01*
X76029Y-77622D01*
X76229Y-77565D02*
X76258Y-77594D01*
X76229Y-77622D01*
X76201Y-77594D01*
X76229Y-77565D01*
X76229Y-77622D01*
X104522Y-76422D02*
X104358Y-76137D01*
X104180Y-76422D02*
X104255Y-75822D01*
X104483Y-75822D01*
X104537Y-75851D01*
X104562Y-75880D01*
X104583Y-75937D01*
X104572Y-76022D01*
X104537Y-76080D01*
X104505Y-76108D01*
X104444Y-76137D01*
X104215Y-76137D01*
X105012Y-76394D02*
X104951Y-76422D01*
X104837Y-76422D01*
X104783Y-76394D01*
X104762Y-76337D01*
X104790Y-76108D01*
X104826Y-76051D01*
X104887Y-76022D01*
X105001Y-76022D01*
X105055Y-76051D01*
X105076Y-76108D01*
X105069Y-76165D01*
X104776Y-76222D01*
X105287Y-76022D02*
X105380Y-76422D01*
X105572Y-76022D01*
X105758Y-76365D02*
X105783Y-76394D01*
X105751Y-76422D01*
X105726Y-76394D01*
X105758Y-76365D01*
X105751Y-76422D01*
X105797Y-76051D02*
X105822Y-76080D01*
X105790Y-76108D01*
X105765Y-76080D01*
X105797Y-76051D01*
X105790Y-76108D01*
X106683Y-75822D02*
X106740Y-75822D01*
X106794Y-75851D01*
X106819Y-75880D01*
X106840Y-75937D01*
X106855Y-76051D01*
X106837Y-76194D01*
X106794Y-76308D01*
X106758Y-76365D01*
X106726Y-76394D01*
X106665Y-76422D01*
X106608Y-76422D01*
X106555Y-76394D01*
X106530Y-76365D01*
X106508Y-76308D01*
X106494Y-76194D01*
X106512Y-76051D01*
X106555Y-75937D01*
X106590Y-75880D01*
X106622Y-75851D01*
X106683Y-75822D01*
X70944Y-76394D02*
X71030Y-76422D01*
X71172Y-76422D01*
X71230Y-76394D01*
X71258Y-76365D01*
X71287Y-76308D01*
X71287Y-76251D01*
X71258Y-76194D01*
X71230Y-76165D01*
X71172Y-76137D01*
X71058Y-76108D01*
X71001Y-76080D01*
X70972Y-76051D01*
X70944Y-75994D01*
X70944Y-75937D01*
X70972Y-75880D01*
X71001Y-75851D01*
X71058Y-75822D01*
X71201Y-75822D01*
X71287Y-75851D01*
X71544Y-76422D02*
X71544Y-76022D01*
X71544Y-75822D02*
X71515Y-75851D01*
X71544Y-75880D01*
X71572Y-75851D01*
X71544Y-75822D01*
X71544Y-75880D01*
X71772Y-76022D02*
X72087Y-76022D01*
X71772Y-76422D01*
X72087Y-76422D01*
X72544Y-76394D02*
X72487Y-76422D01*
X72372Y-76422D01*
X72315Y-76394D01*
X72287Y-76337D01*
X72287Y-76108D01*
X72315Y-76051D01*
X72372Y-76022D01*
X72487Y-76022D01*
X72544Y-76051D01*
X72572Y-76108D01*
X72572Y-76165D01*
X72287Y-76222D01*
X72830Y-76365D02*
X72858Y-76394D01*
X72830Y-76422D01*
X72801Y-76394D01*
X72830Y-76365D01*
X72830Y-76422D01*
X72830Y-76051D02*
X72858Y-76080D01*
X72830Y-76108D01*
X72801Y-76080D01*
X72830Y-76051D01*
X72830Y-76108D01*
X73544Y-76251D02*
X73830Y-76251D01*
X73487Y-76422D02*
X73687Y-75822D01*
X73887Y-76422D01*
X74344Y-76022D02*
X74344Y-76422D01*
X74201Y-75794D02*
X74058Y-76222D01*
X74430Y-76222D01*
X104172Y-77622D02*
X104172Y-77022D01*
X104715Y-77622D02*
X104715Y-77022D01*
X104715Y-77594D02*
X104658Y-77622D01*
X104544Y-77622D01*
X104487Y-77594D01*
X104458Y-77565D01*
X104430Y-77508D01*
X104430Y-77337D01*
X104458Y-77280D01*
X104487Y-77251D01*
X104544Y-77222D01*
X104658Y-77222D01*
X104715Y-77251D01*
X105001Y-77565D02*
X105030Y-77594D01*
X105001Y-77622D01*
X104972Y-77594D01*
X105001Y-77565D01*
X105001Y-77622D01*
X105001Y-77251D02*
X105030Y-77280D01*
X105001Y-77308D01*
X104972Y-77280D01*
X105001Y-77251D01*
X105001Y-77308D01*
X106058Y-77622D02*
X105715Y-77622D01*
X105887Y-77622D02*
X105887Y-77022D01*
X105829Y-77108D01*
X105772Y-77165D01*
X105715Y-77194D01*
X106744Y-76994D02*
X106230Y-77765D01*
X107258Y-77622D02*
X106915Y-77622D01*
X107087Y-77622D02*
X107087Y-77022D01*
X107029Y-77108D01*
X106972Y-77165D01*
X106915Y-77194D01*
X70969Y-74622D02*
X71312Y-74622D01*
X71065Y-75222D02*
X71140Y-74622D01*
X71437Y-75222D02*
X71487Y-74822D01*
X71512Y-74622D02*
X71480Y-74651D01*
X71505Y-74680D01*
X71537Y-74651D01*
X71512Y-74622D01*
X71505Y-74680D01*
X71687Y-74822D02*
X71915Y-74822D01*
X71797Y-74622D02*
X71733Y-75137D01*
X71755Y-75194D01*
X71808Y-75222D01*
X71865Y-75222D01*
X72151Y-75222D02*
X72097Y-75194D01*
X72076Y-75137D01*
X72140Y-74622D01*
X72612Y-75194D02*
X72551Y-75222D01*
X72437Y-75222D01*
X72383Y-75194D01*
X72362Y-75137D01*
X72390Y-74908D01*
X72426Y-74851D01*
X72487Y-74822D01*
X72601Y-74822D01*
X72655Y-74851D01*
X72676Y-74908D01*
X72669Y-74965D01*
X72376Y-75022D01*
X72901Y-75165D02*
X72926Y-75194D01*
X72894Y-75222D01*
X72869Y-75194D01*
X72901Y-75165D01*
X72894Y-75222D01*
X72940Y-74851D02*
X72965Y-74880D01*
X72933Y-74908D01*
X72908Y-74880D01*
X72940Y-74851D01*
X72933Y-74908D01*
X73655Y-74622D02*
X74055Y-74622D01*
X73580Y-75222D01*
X73980Y-75222D01*
X74208Y-75222D02*
X74258Y-74822D01*
X74283Y-74622D02*
X74251Y-74651D01*
X74276Y-74680D01*
X74308Y-74651D01*
X74283Y-74622D01*
X74276Y-74680D01*
X74544Y-74822D02*
X74469Y-75422D01*
X74540Y-74851D02*
X74601Y-74822D01*
X74715Y-74822D01*
X74769Y-74851D01*
X74794Y-74880D01*
X74815Y-74937D01*
X74794Y-75108D01*
X74758Y-75165D01*
X74726Y-75194D01*
X74665Y-75222D01*
X74551Y-75222D01*
X74497Y-75194D01*
X75087Y-74822D02*
X75012Y-75422D01*
X75083Y-74851D02*
X75144Y-74822D01*
X75258Y-74822D01*
X75312Y-74851D01*
X75337Y-74880D01*
X75358Y-74937D01*
X75337Y-75108D01*
X75301Y-75165D01*
X75269Y-75194D01*
X75208Y-75222D01*
X75094Y-75222D01*
X75040Y-75194D01*
X75812Y-75194D02*
X75751Y-75222D01*
X75637Y-75222D01*
X75583Y-75194D01*
X75562Y-75137D01*
X75590Y-74908D01*
X75626Y-74851D01*
X75687Y-74822D01*
X75801Y-74822D01*
X75855Y-74851D01*
X75876Y-74908D01*
X75869Y-74965D01*
X75576Y-75022D01*
X76094Y-75222D02*
X76144Y-74822D01*
X76130Y-74937D02*
X76165Y-74880D01*
X76197Y-74851D01*
X76258Y-74822D01*
X76315Y-74822D01*
X76915Y-74822D02*
X77008Y-75222D01*
X77201Y-74822D01*
X77387Y-75165D02*
X77412Y-75194D01*
X77380Y-75222D01*
X77355Y-75194D01*
X77387Y-75165D01*
X77380Y-75222D01*
X77705Y-74680D02*
X77737Y-74651D01*
X77797Y-74622D01*
X77940Y-74622D01*
X77994Y-74651D01*
X78019Y-74680D01*
X78040Y-74737D01*
X78033Y-74794D01*
X77994Y-74880D01*
X77608Y-75222D01*
X77980Y-75222D01*
X71172Y-72508D02*
X70972Y-72508D01*
X70972Y-72822D02*
X70972Y-72222D01*
X71258Y-72222D01*
X71487Y-72822D02*
X71487Y-72422D01*
X71487Y-72222D02*
X71458Y-72251D01*
X71487Y-72280D01*
X71515Y-72251D01*
X71487Y-72222D01*
X71487Y-72280D01*
X71858Y-72822D02*
X71801Y-72794D01*
X71772Y-72737D01*
X71772Y-72222D01*
X72315Y-72794D02*
X72258Y-72822D01*
X72144Y-72822D01*
X72087Y-72794D01*
X72058Y-72737D01*
X72058Y-72508D01*
X72087Y-72451D01*
X72144Y-72422D01*
X72258Y-72422D01*
X72315Y-72451D01*
X72344Y-72508D01*
X72344Y-72565D01*
X72058Y-72622D01*
X72601Y-72765D02*
X72630Y-72794D01*
X72601Y-72822D01*
X72572Y-72794D01*
X72601Y-72765D01*
X72601Y-72822D01*
X72601Y-72451D02*
X72630Y-72480D01*
X72601Y-72508D01*
X72572Y-72480D01*
X72601Y-72451D01*
X72601Y-72508D01*
X73287Y-72222D02*
X73687Y-72222D01*
X73287Y-72822D01*
X73687Y-72822D01*
X73915Y-72822D02*
X73915Y-72422D01*
X73915Y-72222D02*
X73887Y-72251D01*
X73915Y-72280D01*
X73944Y-72251D01*
X73915Y-72222D01*
X73915Y-72280D01*
X74201Y-72422D02*
X74201Y-73022D01*
X74201Y-72451D02*
X74258Y-72422D01*
X74372Y-72422D01*
X74430Y-72451D01*
X74458Y-72480D01*
X74487Y-72537D01*
X74487Y-72708D01*
X74458Y-72765D01*
X74430Y-72794D01*
X74372Y-72822D01*
X74258Y-72822D01*
X74201Y-72794D01*
X74744Y-72422D02*
X74744Y-73022D01*
X74744Y-72451D02*
X74801Y-72422D01*
X74915Y-72422D01*
X74972Y-72451D01*
X75001Y-72480D01*
X75030Y-72537D01*
X75030Y-72708D01*
X75001Y-72765D01*
X74972Y-72794D01*
X74915Y-72822D01*
X74801Y-72822D01*
X74744Y-72794D01*
X75515Y-72794D02*
X75458Y-72822D01*
X75344Y-72822D01*
X75287Y-72794D01*
X75258Y-72737D01*
X75258Y-72508D01*
X75287Y-72451D01*
X75344Y-72422D01*
X75458Y-72422D01*
X75515Y-72451D01*
X75544Y-72508D01*
X75544Y-72565D01*
X75258Y-72622D01*
X75801Y-72822D02*
X75801Y-72422D01*
X75801Y-72537D02*
X75830Y-72480D01*
X75858Y-72451D01*
X75915Y-72422D01*
X75972Y-72422D01*
X76172Y-72765D02*
X76201Y-72794D01*
X76172Y-72822D01*
X76144Y-72794D01*
X76172Y-72765D01*
X76172Y-72822D01*
X76458Y-72822D02*
X76458Y-72222D01*
X76515Y-72594D02*
X76687Y-72822D01*
X76687Y-72422D02*
X76458Y-72651D01*
X76944Y-72822D02*
X76944Y-72422D01*
X76944Y-72222D02*
X76915Y-72251D01*
X76944Y-72280D01*
X76972Y-72251D01*
X76944Y-72222D01*
X76944Y-72280D01*
X77487Y-72794D02*
X77430Y-72822D01*
X77315Y-72822D01*
X77258Y-72794D01*
X77230Y-72765D01*
X77201Y-72708D01*
X77201Y-72537D01*
X77230Y-72480D01*
X77258Y-72451D01*
X77315Y-72422D01*
X77430Y-72422D01*
X77487Y-72451D01*
X78001Y-72822D02*
X78001Y-72508D01*
X77972Y-72451D01*
X77915Y-72422D01*
X77801Y-72422D01*
X77744Y-72451D01*
X78001Y-72794D02*
X77944Y-72822D01*
X77801Y-72822D01*
X77744Y-72794D01*
X77715Y-72737D01*
X77715Y-72680D01*
X77744Y-72622D01*
X77801Y-72594D01*
X77944Y-72594D01*
X78001Y-72565D01*
X78544Y-72822D02*
X78544Y-72222D01*
X78544Y-72794D02*
X78487Y-72822D01*
X78372Y-72822D01*
X78315Y-72794D01*
X78287Y-72765D01*
X78258Y-72708D01*
X78258Y-72537D01*
X78287Y-72480D01*
X78315Y-72451D01*
X78372Y-72422D01*
X78487Y-72422D01*
X78544Y-72451D01*
X78687Y-72880D02*
X79144Y-72880D01*
X79287Y-72422D02*
X79287Y-73022D01*
X79287Y-72451D02*
X79344Y-72422D01*
X79458Y-72422D01*
X79515Y-72451D01*
X79544Y-72480D01*
X79572Y-72537D01*
X79572Y-72708D01*
X79544Y-72765D01*
X79515Y-72794D01*
X79458Y-72822D01*
X79344Y-72822D01*
X79287Y-72794D01*
X80087Y-72794D02*
X80030Y-72822D01*
X79915Y-72822D01*
X79858Y-72794D01*
X79830Y-72765D01*
X79801Y-72708D01*
X79801Y-72537D01*
X79830Y-72480D01*
X79858Y-72451D01*
X79915Y-72422D01*
X80030Y-72422D01*
X80087Y-72451D01*
X80344Y-72822D02*
X80344Y-72222D01*
X80344Y-72451D02*
X80401Y-72422D01*
X80515Y-72422D01*
X80572Y-72451D01*
X80601Y-72480D01*
X80630Y-72537D01*
X80630Y-72708D01*
X80601Y-72765D01*
X80572Y-72794D01*
X80515Y-72822D01*
X80401Y-72822D01*
X80344Y-72794D01*
X70944Y-73994D02*
X71030Y-74022D01*
X71172Y-74022D01*
X71230Y-73994D01*
X71258Y-73965D01*
X71287Y-73908D01*
X71287Y-73851D01*
X71258Y-73794D01*
X71230Y-73765D01*
X71172Y-73737D01*
X71058Y-73708D01*
X71001Y-73680D01*
X70972Y-73651D01*
X70944Y-73594D01*
X70944Y-73537D01*
X70972Y-73480D01*
X71001Y-73451D01*
X71058Y-73422D01*
X71201Y-73422D01*
X71287Y-73451D01*
X71544Y-74022D02*
X71544Y-73422D01*
X71801Y-74022D02*
X71801Y-73708D01*
X71772Y-73651D01*
X71715Y-73622D01*
X71630Y-73622D01*
X71572Y-73651D01*
X71544Y-73680D01*
X72315Y-73994D02*
X72258Y-74022D01*
X72144Y-74022D01*
X72087Y-73994D01*
X72058Y-73937D01*
X72058Y-73708D01*
X72087Y-73651D01*
X72144Y-73622D01*
X72258Y-73622D01*
X72315Y-73651D01*
X72344Y-73708D01*
X72344Y-73765D01*
X72058Y-73822D01*
X72830Y-73994D02*
X72772Y-74022D01*
X72658Y-74022D01*
X72601Y-73994D01*
X72572Y-73937D01*
X72572Y-73708D01*
X72601Y-73651D01*
X72658Y-73622D01*
X72772Y-73622D01*
X72830Y-73651D01*
X72858Y-73708D01*
X72858Y-73765D01*
X72572Y-73822D01*
X73030Y-73622D02*
X73258Y-73622D01*
X73115Y-73422D02*
X73115Y-73937D01*
X73144Y-73994D01*
X73201Y-74022D01*
X73258Y-74022D01*
X73458Y-73965D02*
X73487Y-73994D01*
X73458Y-74022D01*
X73430Y-73994D01*
X73458Y-73965D01*
X73458Y-74022D01*
X73458Y-73651D02*
X73487Y-73680D01*
X73458Y-73708D01*
X73430Y-73680D01*
X73458Y-73651D01*
X73458Y-73708D01*
X70887Y-69822D02*
X71230Y-69822D01*
X71058Y-70422D02*
X71058Y-69822D01*
X71430Y-70422D02*
X71430Y-69822D01*
X71430Y-70108D02*
X71772Y-70108D01*
X71772Y-70422D02*
X71772Y-69822D01*
X72058Y-70422D02*
X72058Y-69822D01*
X72315Y-70394D02*
X72401Y-70422D01*
X72544Y-70422D01*
X72601Y-70394D01*
X72629Y-70365D01*
X72658Y-70308D01*
X72658Y-70251D01*
X72629Y-70194D01*
X72601Y-70165D01*
X72544Y-70137D01*
X72429Y-70108D01*
X72372Y-70080D01*
X72344Y-70051D01*
X72315Y-69994D01*
X72315Y-69937D01*
X72344Y-69880D01*
X72372Y-69851D01*
X72429Y-69822D01*
X72572Y-69822D01*
X72658Y-69851D01*
X73315Y-69822D02*
X73458Y-70422D01*
X73572Y-69994D01*
X73687Y-70422D01*
X73830Y-69822D01*
X74172Y-69822D02*
X74287Y-69822D01*
X74344Y-69851D01*
X74401Y-69908D01*
X74430Y-70022D01*
X74430Y-70222D01*
X74401Y-70337D01*
X74344Y-70394D01*
X74287Y-70422D01*
X74172Y-70422D01*
X74115Y-70394D01*
X74058Y-70337D01*
X74030Y-70222D01*
X74030Y-70022D01*
X74058Y-69908D01*
X74115Y-69851D01*
X74172Y-69822D01*
X75029Y-70422D02*
X74829Y-70137D01*
X74687Y-70422D02*
X74687Y-69822D01*
X74915Y-69822D01*
X74972Y-69851D01*
X75001Y-69880D01*
X75029Y-69937D01*
X75029Y-70022D01*
X75001Y-70080D01*
X74972Y-70108D01*
X74915Y-70137D01*
X74687Y-70137D01*
X75287Y-70422D02*
X75287Y-69822D01*
X75629Y-70422D02*
X75372Y-70080D01*
X75629Y-69822D02*
X75287Y-70165D01*
X76344Y-70422D02*
X76344Y-69822D01*
X76601Y-70394D02*
X76687Y-70422D01*
X76829Y-70422D01*
X76887Y-70394D01*
X76915Y-70365D01*
X76944Y-70308D01*
X76944Y-70251D01*
X76915Y-70194D01*
X76887Y-70165D01*
X76829Y-70137D01*
X76715Y-70108D01*
X76658Y-70080D01*
X76629Y-70051D01*
X76601Y-69994D01*
X76601Y-69937D01*
X76629Y-69880D01*
X76658Y-69851D01*
X76715Y-69822D01*
X76858Y-69822D01*
X76944Y-69851D01*
X78001Y-70365D02*
X77972Y-70394D01*
X77887Y-70422D01*
X77830Y-70422D01*
X77744Y-70394D01*
X77687Y-70337D01*
X77658Y-70280D01*
X77630Y-70165D01*
X77630Y-70080D01*
X77658Y-69965D01*
X77687Y-69908D01*
X77744Y-69851D01*
X77830Y-69822D01*
X77887Y-69822D01*
X77972Y-69851D01*
X78001Y-69880D01*
X78372Y-69822D02*
X78487Y-69822D01*
X78544Y-69851D01*
X78601Y-69908D01*
X78630Y-70022D01*
X78630Y-70222D01*
X78601Y-70337D01*
X78544Y-70394D01*
X78487Y-70422D01*
X78372Y-70422D01*
X78315Y-70394D01*
X78258Y-70337D01*
X78230Y-70222D01*
X78230Y-70022D01*
X78258Y-69908D01*
X78315Y-69851D01*
X78372Y-69822D01*
X78801Y-69822D02*
X79001Y-70422D01*
X79201Y-69822D01*
X79401Y-70108D02*
X79601Y-70108D01*
X79687Y-70422D02*
X79401Y-70422D01*
X79401Y-69822D01*
X79687Y-69822D01*
X80287Y-70422D02*
X80087Y-70137D01*
X79944Y-70422D02*
X79944Y-69822D01*
X80172Y-69822D01*
X80229Y-69851D01*
X80258Y-69880D01*
X80287Y-69937D01*
X80287Y-70022D01*
X80258Y-70080D01*
X80229Y-70108D01*
X80172Y-70137D01*
X79944Y-70137D01*
X80544Y-70108D02*
X80744Y-70108D01*
X80829Y-70422D02*
X80544Y-70422D01*
X80544Y-69822D01*
X80829Y-69822D01*
X81087Y-70422D02*
X81087Y-69822D01*
X81229Y-69822D01*
X81315Y-69851D01*
X81372Y-69908D01*
X81401Y-69965D01*
X81429Y-70080D01*
X81429Y-70165D01*
X81401Y-70280D01*
X81372Y-70337D01*
X81315Y-70394D01*
X81229Y-70422D01*
X81087Y-70422D01*
X82144Y-69822D02*
X82144Y-70308D01*
X82172Y-70365D01*
X82201Y-70394D01*
X82258Y-70422D01*
X82372Y-70422D01*
X82429Y-70394D01*
X82458Y-70365D01*
X82487Y-70308D01*
X82487Y-69822D01*
X82772Y-70422D02*
X82772Y-69822D01*
X83115Y-70422D01*
X83115Y-69822D01*
X83401Y-70422D02*
X83401Y-69822D01*
X83544Y-69822D01*
X83629Y-69851D01*
X83687Y-69908D01*
X83715Y-69965D01*
X83744Y-70080D01*
X83744Y-70165D01*
X83715Y-70280D01*
X83687Y-70337D01*
X83629Y-70394D01*
X83544Y-70422D01*
X83401Y-70422D01*
X84001Y-70108D02*
X84201Y-70108D01*
X84287Y-70422D02*
X84001Y-70422D01*
X84001Y-69822D01*
X84287Y-69822D01*
X84887Y-70422D02*
X84687Y-70137D01*
X84544Y-70422D02*
X84544Y-69822D01*
X84772Y-69822D01*
X84829Y-69851D01*
X84858Y-69880D01*
X84887Y-69937D01*
X84887Y-70022D01*
X84858Y-70080D01*
X84829Y-70108D01*
X84772Y-70137D01*
X84544Y-70137D01*
X85572Y-70251D02*
X85858Y-70251D01*
X85515Y-70422D02*
X85715Y-69822D01*
X85915Y-70422D01*
X86915Y-70365D02*
X86887Y-70394D01*
X86801Y-70422D01*
X86744Y-70422D01*
X86658Y-70394D01*
X86601Y-70337D01*
X86572Y-70280D01*
X86544Y-70165D01*
X86544Y-70080D01*
X86572Y-69965D01*
X86601Y-69908D01*
X86658Y-69851D01*
X86744Y-69822D01*
X86801Y-69822D01*
X86887Y-69851D01*
X86915Y-69880D01*
X87515Y-70422D02*
X87315Y-70137D01*
X87172Y-70422D02*
X87172Y-69822D01*
X87401Y-69822D01*
X87458Y-69851D01*
X87487Y-69880D01*
X87515Y-69937D01*
X87515Y-70022D01*
X87487Y-70080D01*
X87458Y-70108D01*
X87401Y-70137D01*
X87172Y-70137D01*
X87772Y-70108D02*
X87972Y-70108D01*
X88058Y-70422D02*
X87772Y-70422D01*
X87772Y-69822D01*
X88058Y-69822D01*
X88287Y-70251D02*
X88572Y-70251D01*
X88229Y-70422D02*
X88429Y-69822D01*
X88629Y-70422D01*
X88744Y-69822D02*
X89087Y-69822D01*
X88915Y-70422D02*
X88915Y-69822D01*
X89287Y-70422D02*
X89287Y-69822D01*
X89487Y-69822D02*
X89687Y-70422D01*
X89887Y-69822D01*
X90087Y-70108D02*
X90287Y-70108D01*
X90372Y-70422D02*
X90087Y-70422D01*
X90087Y-69822D01*
X90372Y-69822D01*
X91429Y-70365D02*
X91401Y-70394D01*
X91315Y-70422D01*
X91258Y-70422D01*
X91172Y-70394D01*
X91115Y-70337D01*
X91087Y-70280D01*
X91058Y-70165D01*
X91058Y-70080D01*
X91087Y-69965D01*
X91115Y-69908D01*
X91172Y-69851D01*
X91258Y-69822D01*
X91315Y-69822D01*
X91401Y-69851D01*
X91429Y-69880D01*
X91801Y-69822D02*
X91915Y-69822D01*
X91972Y-69851D01*
X92029Y-69908D01*
X92058Y-70022D01*
X92058Y-70222D01*
X92029Y-70337D01*
X91972Y-70394D01*
X91915Y-70422D01*
X91801Y-70422D01*
X91744Y-70394D01*
X91687Y-70337D01*
X91658Y-70222D01*
X91658Y-70022D01*
X91687Y-69908D01*
X91744Y-69851D01*
X91801Y-69822D01*
X92315Y-70422D02*
X92315Y-69822D01*
X92515Y-70251D01*
X92715Y-69822D01*
X92715Y-70422D01*
X93001Y-70422D02*
X93001Y-69822D01*
X93201Y-70251D01*
X93401Y-69822D01*
X93401Y-70422D01*
X93801Y-69822D02*
X93915Y-69822D01*
X93972Y-69851D01*
X94029Y-69908D01*
X94058Y-70022D01*
X94058Y-70222D01*
X94029Y-70337D01*
X93972Y-70394D01*
X93915Y-70422D01*
X93801Y-70422D01*
X93744Y-70394D01*
X93687Y-70337D01*
X93658Y-70222D01*
X93658Y-70022D01*
X93687Y-69908D01*
X93744Y-69851D01*
X93801Y-69822D01*
X94315Y-70422D02*
X94315Y-69822D01*
X94658Y-70422D01*
X94658Y-69822D01*
X94915Y-70394D02*
X95001Y-70422D01*
X95144Y-70422D01*
X95201Y-70394D01*
X95229Y-70365D01*
X95258Y-70308D01*
X95258Y-70251D01*
X95229Y-70194D01*
X95201Y-70165D01*
X95144Y-70137D01*
X95029Y-70108D01*
X94972Y-70080D01*
X94944Y-70051D01*
X94915Y-69994D01*
X94915Y-69937D01*
X94944Y-69880D01*
X94972Y-69851D01*
X95029Y-69822D01*
X95172Y-69822D01*
X95258Y-69851D01*
X96258Y-70422D02*
X95972Y-70422D01*
X95972Y-69822D01*
X96458Y-70422D02*
X96458Y-69822D01*
X97087Y-70365D02*
X97058Y-70394D01*
X96972Y-70422D01*
X96915Y-70422D01*
X96829Y-70394D01*
X96772Y-70337D01*
X96744Y-70280D01*
X96715Y-70165D01*
X96715Y-70080D01*
X96744Y-69965D01*
X96772Y-69908D01*
X96829Y-69851D01*
X96915Y-69822D01*
X96972Y-69822D01*
X97058Y-69851D01*
X97087Y-69880D01*
X97344Y-70108D02*
X97544Y-70108D01*
X97629Y-70422D02*
X97344Y-70422D01*
X97344Y-69822D01*
X97629Y-69822D01*
X97887Y-70422D02*
X97887Y-69822D01*
X98229Y-70422D01*
X98229Y-69822D01*
X98487Y-70394D02*
X98572Y-70422D01*
X98715Y-70422D01*
X98772Y-70394D01*
X98801Y-70365D01*
X98829Y-70308D01*
X98829Y-70251D01*
X98801Y-70194D01*
X98772Y-70165D01*
X98715Y-70137D01*
X98601Y-70108D01*
X98544Y-70080D01*
X98515Y-70051D01*
X98487Y-69994D01*
X98487Y-69937D01*
X98515Y-69880D01*
X98544Y-69851D01*
X98601Y-69822D01*
X98744Y-69822D01*
X98829Y-69851D01*
X99087Y-70108D02*
X99287Y-70108D01*
X99372Y-70422D02*
X99087Y-70422D01*
X99087Y-69822D01*
X99372Y-69822D01*
X100258Y-70651D02*
X100229Y-70622D01*
X100172Y-70537D01*
X100144Y-70480D01*
X100115Y-70394D01*
X100087Y-70251D01*
X100087Y-70137D01*
X100115Y-69994D01*
X100144Y-69908D01*
X100172Y-69851D01*
X100229Y-69765D01*
X100258Y-69737D01*
X100829Y-70365D02*
X100801Y-70394D01*
X100715Y-70422D01*
X100658Y-70422D01*
X100572Y-70394D01*
X100515Y-70337D01*
X100487Y-70280D01*
X100458Y-70165D01*
X100458Y-70080D01*
X100487Y-69965D01*
X100515Y-69908D01*
X100572Y-69851D01*
X100658Y-69822D01*
X100715Y-69822D01*
X100801Y-69851D01*
X100829Y-69880D01*
X101429Y-70365D02*
X101401Y-70394D01*
X101315Y-70422D01*
X101258Y-70422D01*
X101172Y-70394D01*
X101115Y-70337D01*
X101087Y-70280D01*
X101058Y-70165D01*
X101058Y-70080D01*
X101087Y-69965D01*
X101115Y-69908D01*
X101172Y-69851D01*
X101258Y-69822D01*
X101315Y-69822D01*
X101401Y-69851D01*
X101429Y-69880D01*
X102344Y-70108D02*
X102429Y-70137D01*
X102458Y-70165D01*
X102487Y-70222D01*
X102487Y-70308D01*
X102458Y-70365D01*
X102429Y-70394D01*
X102372Y-70422D01*
X102144Y-70422D01*
X102144Y-69822D01*
X102344Y-69822D01*
X102401Y-69851D01*
X102429Y-69880D01*
X102458Y-69937D01*
X102458Y-69994D01*
X102429Y-70051D01*
X102401Y-70080D01*
X102344Y-70108D01*
X102144Y-70108D01*
X102858Y-70137D02*
X102858Y-70422D01*
X102658Y-69822D02*
X102858Y-70137D01*
X103058Y-69822D01*
X103658Y-69822D02*
X104029Y-69822D01*
X103829Y-70051D01*
X103915Y-70051D01*
X103972Y-70080D01*
X104001Y-70108D01*
X104029Y-70165D01*
X104029Y-70308D01*
X104001Y-70365D01*
X103972Y-70394D01*
X103915Y-70422D01*
X103744Y-70422D01*
X103687Y-70394D01*
X103658Y-70365D01*
X104287Y-70365D02*
X104315Y-70394D01*
X104287Y-70422D01*
X104258Y-70394D01*
X104287Y-70365D01*
X104287Y-70422D01*
X104687Y-69822D02*
X104744Y-69822D01*
X104801Y-69851D01*
X104829Y-69880D01*
X104858Y-69937D01*
X104887Y-70051D01*
X104887Y-70194D01*
X104858Y-70308D01*
X104829Y-70365D01*
X104801Y-70394D01*
X104744Y-70422D01*
X104687Y-70422D01*
X104629Y-70394D01*
X104601Y-70365D01*
X104572Y-70308D01*
X104544Y-70194D01*
X104544Y-70051D01*
X104572Y-69937D01*
X104601Y-69880D01*
X104629Y-69851D01*
X104687Y-69822D01*
X105087Y-70651D02*
X105115Y-70622D01*
X105172Y-70537D01*
X105201Y-70480D01*
X105229Y-70394D01*
X105258Y-70251D01*
X105258Y-70137D01*
X105229Y-69994D01*
X105201Y-69908D01*
X105172Y-69851D01*
X105115Y-69765D01*
X105087Y-69737D01*
X71315Y-69165D02*
X71287Y-69194D01*
X71201Y-69222D01*
X71144Y-69222D01*
X71058Y-69194D01*
X71001Y-69137D01*
X70972Y-69080D01*
X70944Y-68965D01*
X70944Y-68880D01*
X70972Y-68765D01*
X71001Y-68708D01*
X71058Y-68651D01*
X71144Y-68622D01*
X71201Y-68622D01*
X71287Y-68651D01*
X71315Y-68680D01*
X71658Y-69222D02*
X71601Y-69194D01*
X71572Y-69165D01*
X71544Y-69108D01*
X71544Y-68937D01*
X71572Y-68880D01*
X71601Y-68851D01*
X71658Y-68822D01*
X71744Y-68822D01*
X71801Y-68851D01*
X71830Y-68880D01*
X71858Y-68937D01*
X71858Y-69108D01*
X71830Y-69165D01*
X71801Y-69194D01*
X71744Y-69222D01*
X71658Y-69222D01*
X72115Y-68822D02*
X72115Y-69422D01*
X72115Y-68851D02*
X72172Y-68822D01*
X72287Y-68822D01*
X72344Y-68851D01*
X72372Y-68880D01*
X72401Y-68937D01*
X72401Y-69108D01*
X72372Y-69165D01*
X72344Y-69194D01*
X72287Y-69222D01*
X72172Y-69222D01*
X72115Y-69194D01*
X72601Y-68822D02*
X72744Y-69222D01*
X72887Y-68822D02*
X72744Y-69222D01*
X72687Y-69365D01*
X72658Y-69394D01*
X72601Y-69422D01*
X73115Y-69222D02*
X73115Y-68822D01*
X73115Y-68937D02*
X73144Y-68880D01*
X73172Y-68851D01*
X73230Y-68822D01*
X73287Y-68822D01*
X73487Y-69222D02*
X73487Y-68822D01*
X73487Y-68622D02*
X73458Y-68651D01*
X73487Y-68680D01*
X73515Y-68651D01*
X73487Y-68622D01*
X73487Y-68680D01*
X74030Y-68822D02*
X74030Y-69308D01*
X74001Y-69365D01*
X73972Y-69394D01*
X73915Y-69422D01*
X73830Y-69422D01*
X73772Y-69394D01*
X74030Y-69194D02*
X73972Y-69222D01*
X73858Y-69222D01*
X73801Y-69194D01*
X73772Y-69165D01*
X73744Y-69108D01*
X73744Y-68937D01*
X73772Y-68880D01*
X73801Y-68851D01*
X73858Y-68822D01*
X73972Y-68822D01*
X74030Y-68851D01*
X74315Y-69222D02*
X74315Y-68622D01*
X74572Y-69222D02*
X74572Y-68908D01*
X74544Y-68851D01*
X74487Y-68822D01*
X74401Y-68822D01*
X74344Y-68851D01*
X74315Y-68880D01*
X74772Y-68822D02*
X75001Y-68822D01*
X74858Y-68622D02*
X74858Y-69137D01*
X74887Y-69194D01*
X74944Y-69222D01*
X75001Y-69222D01*
X75630Y-68680D02*
X75658Y-68651D01*
X75715Y-68622D01*
X75858Y-68622D01*
X75915Y-68651D01*
X75944Y-68680D01*
X75972Y-68737D01*
X75972Y-68794D01*
X75944Y-68880D01*
X75601Y-69222D01*
X75972Y-69222D01*
X76344Y-68622D02*
X76401Y-68622D01*
X76458Y-68651D01*
X76487Y-68680D01*
X76515Y-68737D01*
X76544Y-68851D01*
X76544Y-68994D01*
X76515Y-69108D01*
X76487Y-69165D01*
X76458Y-69194D01*
X76401Y-69222D01*
X76344Y-69222D01*
X76287Y-69194D01*
X76258Y-69165D01*
X76230Y-69108D01*
X76201Y-68994D01*
X76201Y-68851D01*
X76230Y-68737D01*
X76258Y-68680D01*
X76287Y-68651D01*
X76344Y-68622D01*
X77115Y-69222D02*
X76772Y-69222D01*
X76944Y-69222D02*
X76944Y-68622D01*
X76887Y-68708D01*
X76830Y-68765D01*
X76772Y-68794D01*
X77315Y-68622D02*
X77687Y-68622D01*
X77487Y-68851D01*
X77572Y-68851D01*
X77630Y-68880D01*
X77658Y-68908D01*
X77687Y-68965D01*
X77687Y-69108D01*
X77658Y-69165D01*
X77630Y-69194D01*
X77572Y-69222D01*
X77401Y-69222D01*
X77344Y-69194D01*
X77315Y-69165D01*
X78372Y-69051D02*
X78658Y-69051D01*
X78315Y-69222D02*
X78515Y-68622D01*
X78715Y-69222D01*
X78858Y-68622D02*
X79258Y-68622D01*
X78858Y-69222D01*
X79258Y-69222D01*
X79487Y-69222D02*
X79487Y-68622D01*
X79887Y-68622D02*
X80001Y-68622D01*
X80058Y-68651D01*
X80115Y-68708D01*
X80144Y-68822D01*
X80144Y-69022D01*
X80115Y-69137D01*
X80058Y-69194D01*
X80001Y-69222D01*
X79887Y-69222D01*
X79830Y-69194D01*
X79772Y-69137D01*
X79744Y-69022D01*
X79744Y-68822D01*
X79772Y-68708D01*
X79830Y-68651D01*
X79887Y-68622D01*
X80858Y-68908D02*
X81058Y-68908D01*
X81144Y-69222D02*
X80858Y-69222D01*
X80858Y-68622D01*
X81144Y-68622D01*
X81487Y-69222D02*
X81430Y-69194D01*
X81401Y-69137D01*
X81401Y-68622D01*
X81944Y-69194D02*
X81887Y-69222D01*
X81772Y-69222D01*
X81715Y-69194D01*
X81687Y-69137D01*
X81687Y-68908D01*
X81715Y-68851D01*
X81772Y-68822D01*
X81887Y-68822D01*
X81944Y-68851D01*
X81972Y-68908D01*
X81972Y-68965D01*
X81687Y-69022D01*
X82487Y-69194D02*
X82430Y-69222D01*
X82315Y-69222D01*
X82258Y-69194D01*
X82230Y-69165D01*
X82201Y-69108D01*
X82201Y-68937D01*
X82230Y-68880D01*
X82258Y-68851D01*
X82315Y-68822D01*
X82430Y-68822D01*
X82487Y-68851D01*
X82658Y-68822D02*
X82887Y-68822D01*
X82744Y-68622D02*
X82744Y-69137D01*
X82772Y-69194D01*
X82830Y-69222D01*
X82887Y-69222D01*
X83087Y-69222D02*
X83087Y-68822D01*
X83087Y-68937D02*
X83115Y-68880D01*
X83144Y-68851D01*
X83201Y-68822D01*
X83258Y-68822D01*
X83544Y-69222D02*
X83487Y-69194D01*
X83458Y-69165D01*
X83430Y-69108D01*
X83430Y-68937D01*
X83458Y-68880D01*
X83487Y-68851D01*
X83544Y-68822D01*
X83630Y-68822D01*
X83687Y-68851D01*
X83715Y-68880D01*
X83744Y-68937D01*
X83744Y-69108D01*
X83715Y-69165D01*
X83687Y-69194D01*
X83630Y-69222D01*
X83544Y-69222D01*
X84001Y-68822D02*
X84001Y-69222D01*
X84001Y-68880D02*
X84030Y-68851D01*
X84087Y-68822D01*
X84172Y-68822D01*
X84230Y-68851D01*
X84258Y-68908D01*
X84258Y-69222D01*
X84544Y-69222D02*
X84544Y-68822D01*
X84544Y-68622D02*
X84515Y-68651D01*
X84544Y-68680D01*
X84572Y-68651D01*
X84544Y-68622D01*
X84544Y-68680D01*
X85087Y-69194D02*
X85030Y-69222D01*
X84915Y-69222D01*
X84858Y-69194D01*
X84830Y-69165D01*
X84801Y-69108D01*
X84801Y-68937D01*
X84830Y-68880D01*
X84858Y-68851D01*
X84915Y-68822D01*
X85030Y-68822D01*
X85087Y-68851D01*
X85315Y-69194D02*
X85372Y-69222D01*
X85487Y-69222D01*
X85544Y-69194D01*
X85572Y-69137D01*
X85572Y-69108D01*
X85544Y-69051D01*
X85487Y-69022D01*
X85401Y-69022D01*
X85344Y-68994D01*
X85315Y-68937D01*
X85315Y-68908D01*
X85344Y-68851D01*
X85401Y-68822D01*
X85487Y-68822D01*
X85544Y-68851D01*
X86630Y-69165D02*
X86601Y-69194D01*
X86515Y-69222D01*
X86458Y-69222D01*
X86372Y-69194D01*
X86315Y-69137D01*
X86287Y-69080D01*
X86258Y-68965D01*
X86258Y-68880D01*
X86287Y-68765D01*
X86315Y-68708D01*
X86372Y-68651D01*
X86458Y-68622D01*
X86515Y-68622D01*
X86601Y-68651D01*
X86630Y-68680D01*
X86972Y-69222D02*
X86915Y-69194D01*
X86887Y-69165D01*
X86858Y-69108D01*
X86858Y-68937D01*
X86887Y-68880D01*
X86915Y-68851D01*
X86972Y-68822D01*
X87058Y-68822D01*
X87115Y-68851D01*
X87144Y-68880D01*
X87172Y-68937D01*
X87172Y-69108D01*
X87144Y-69165D01*
X87115Y-69194D01*
X87058Y-69222D01*
X86972Y-69222D01*
X87430Y-69165D02*
X87458Y-69194D01*
X87430Y-69222D01*
X87401Y-69194D01*
X87430Y-69165D01*
X87430Y-69222D01*
X87744Y-69194D02*
X87744Y-69222D01*
X87715Y-69280D01*
X87687Y-69308D01*
X88744Y-69222D02*
X88458Y-69222D01*
X88458Y-68622D01*
X88858Y-68822D02*
X89087Y-68822D01*
X88944Y-68622D02*
X88944Y-69137D01*
X88972Y-69194D01*
X89030Y-69222D01*
X89087Y-69222D01*
X89544Y-69222D02*
X89544Y-68622D01*
X89544Y-69194D02*
X89487Y-69222D01*
X89372Y-69222D01*
X89315Y-69194D01*
X89287Y-69165D01*
X89258Y-69108D01*
X89258Y-68937D01*
X89287Y-68880D01*
X89315Y-68851D01*
X89372Y-68822D01*
X89487Y-68822D01*
X89544Y-68851D01*
X89830Y-69165D02*
X89858Y-69194D01*
X89830Y-69222D01*
X89801Y-69194D01*
X89830Y-69165D01*
X89830Y-69222D01*
X70230Y-68380D02*
X70230Y-77980D01*
X70230Y-71980D02*
X112230Y-71980D01*
X70230Y-68380D02*
X112230Y-68380D01*
X70230Y-74380D02*
X112230Y-74380D01*
X103430Y-75580D02*
X103430Y-77980D01*
X70230Y-76780D02*
X112230Y-76780D01*
X70230Y-75580D02*
X112230Y-75580D01*
X76830Y-75580D02*
X76830Y-76780D01*
G54D11*
X68897Y-23031D02*
G75*
G03X69881Y-24015I984J0D01*
G74*
G01*
X68897Y-23031D02*
G75*
G03X67913Y-22047I-984J0D01*
G74*
G01*
X34842Y-22047D02*
G75*
G03X33858Y-23031I0J-984D01*
G74*
G01*
X33858Y-51771D02*
G75*
G03X34842Y-52755I984J0D01*
G74*
G01*
X67913Y-52755D02*
G75*
G03X68897Y-51771I0J984D01*
G74*
G01*
X69881Y-50787D02*
G75*
G03X68897Y-51771I0J-984D01*
G74*
G01*
X75000Y-50787D02*
G75*
G03X75984Y-49803I0J984D01*
G74*
G01*
X75984Y-25000D02*
G75*
G03X75000Y-24015I-984J0D01*
G74*
G01*
X69881Y-50787D02*
X75000Y-50787D01*
X69881Y-24015D02*
X75000Y-24015D01*
X75984Y-25000D02*
X75984Y-49803D01*
X34842Y-22047D02*
X67913Y-22047D01*
X33858Y-51771D02*
X33858Y-23031D01*
X34842Y-52755D02*
X67913Y-52755D01*
G54D12*
X39763Y-33385D03*
X38818Y-32834D03*
X39763Y-32834D03*
X39291Y-32834D03*
X38818Y-33385D03*
X39291Y-33385D03*
X59685Y-49921D03*
X60078Y-49921D03*
X60078Y-50314D03*
X60078Y-50787D03*
X59291Y-50314D03*
X59291Y-49921D03*
X59685Y-50314D03*
X59685Y-50787D03*
X48818Y-50708D03*
X48818Y-50314D03*
X49212Y-50314D03*
X59291Y-50787D03*
X49212Y-50708D03*
X56220Y-35039D03*
X55826Y-34645D03*
X55826Y-35039D03*
X56220Y-34645D03*
G54D13*
X38460Y-43963D03*
X38460Y-44713D03*
G54D14*
X38716Y-30456D03*
X38716Y-30086D03*
X40035Y-36023D03*
X40035Y-35653D03*
X40480Y-30247D03*
X40480Y-29877D03*
X40507Y-35661D03*
X40507Y-35291D03*
X38933Y-35653D03*
X38933Y-36023D03*
G54D15*
X52047Y-52204D03*
X51417Y-52204D03*
X44330Y-49606D03*
X43700Y-49606D03*
G54D16*
X41251Y-39047D03*
X41251Y-39755D03*
X38460Y-46429D03*
X38460Y-47137D03*
G54D17*
X39665Y-42929D03*
X38956Y-42929D03*
G54D18*
X42145Y-44279D03*
X42696Y-44279D03*
G54D19*
X39464Y-30578D03*
X39464Y-30027D03*
X41251Y-33141D03*
X41251Y-33692D03*
G54D20*
X38421Y-35661D03*
X38421Y-36015D03*
X39035Y-37244D03*
X39389Y-37244D03*
X39503Y-35661D03*
X39503Y-36015D03*
G54D21*
X36107Y-23427D03*
X41737Y-23427D03*
X41737Y-51427D03*
X36107Y-51427D03*
G54D15*
X67165Y-51732D03*
X66535Y-51732D03*
G54D20*
X66869Y-49685D03*
X66515Y-49685D03*
X58165Y-51370D03*
X58165Y-51724D03*
G54D14*
X58724Y-51322D03*
X58724Y-50952D03*
X58165Y-50952D03*
X58165Y-50582D03*
G54D22*
X38169Y-52194D03*
X38297Y-23188D03*
X63868Y-22381D03*
G54D23*
X59775Y-30094D03*
X44736Y-30094D03*
X59775Y-45842D03*
X44736Y-45842D03*
X52429Y-45889D03*
X67468Y-45889D03*
X52429Y-30141D03*
X67468Y-30141D03*
G54D24*
X35305Y-25916D03*
X35305Y-48939D03*
G54D25*
X51082Y-33543D03*
X51082Y-33740D03*
X51082Y-33937D03*
X51082Y-34134D03*
X51082Y-34330D03*
G54D26*
X51082Y-34626D03*
G54D25*
X51082Y-34921D03*
X51082Y-35118D03*
X51082Y-35315D03*
X51082Y-35512D03*
X51082Y-35708D03*
X51082Y-35905D03*
X51082Y-36102D03*
X51082Y-36299D03*
X51082Y-36496D03*
X51082Y-36693D03*
G54D26*
X51082Y-36988D03*
G54D25*
X51082Y-37283D03*
X51082Y-37480D03*
X51082Y-37677D03*
X51082Y-37874D03*
X51082Y-38071D03*
X51082Y-38267D03*
X51082Y-38464D03*
X51082Y-38661D03*
X51082Y-38858D03*
X51082Y-39055D03*
G54D26*
X51082Y-39351D03*
G54D25*
X51082Y-39645D03*
X51082Y-39842D03*
X51082Y-40039D03*
X51082Y-40236D03*
X51082Y-40433D03*
X51082Y-40630D03*
X51082Y-40826D03*
X51082Y-41023D03*
X51082Y-41220D03*
X51082Y-41417D03*
G54D26*
X51082Y-41713D03*
G54D25*
X51082Y-42008D03*
X51082Y-42204D03*
X51082Y-42401D03*
X51082Y-42598D03*
X51082Y-42795D03*
X53484Y-42797D03*
X53484Y-42600D03*
X53484Y-42403D03*
X53484Y-42206D03*
X53484Y-42010D03*
G54D26*
X53484Y-41715D03*
G54D25*
X53484Y-41419D03*
X53484Y-41222D03*
X53484Y-41025D03*
X53484Y-40828D03*
X53484Y-40632D03*
X53484Y-40435D03*
X53484Y-40238D03*
X53484Y-40041D03*
X53484Y-39844D03*
X53484Y-39647D03*
G54D26*
X53484Y-39352D03*
G54D25*
X53484Y-39056D03*
X53484Y-38859D03*
X53484Y-38662D03*
X53484Y-38465D03*
X53484Y-38269D03*
X53484Y-38072D03*
X53484Y-37875D03*
X53484Y-37678D03*
X53484Y-37481D03*
X53484Y-37284D03*
G54D26*
X53484Y-36989D03*
G54D25*
X53484Y-36693D03*
X53484Y-36496D03*
X53484Y-36299D03*
X53484Y-36102D03*
X53484Y-35906D03*
X53484Y-35709D03*
X53484Y-35512D03*
X53484Y-35315D03*
X53484Y-35118D03*
X53484Y-34921D03*
G54D26*
X53484Y-34626D03*
G54D25*
X53484Y-34330D03*
X53484Y-34134D03*
X53484Y-33937D03*
X53484Y-33740D03*
X53484Y-33543D03*
G54D27*
X52287Y-44055D03*
X52287Y-32283D03*
G54D25*
X61122Y-42440D03*
X61122Y-42243D03*
X61122Y-42046D03*
X61122Y-41849D03*
X61122Y-41653D03*
G54D26*
X61122Y-41357D03*
G54D25*
X61122Y-41062D03*
X61122Y-40865D03*
X61122Y-40668D03*
X61122Y-40471D03*
X61122Y-40275D03*
X61122Y-40078D03*
X61122Y-39881D03*
X61122Y-39684D03*
X61122Y-39487D03*
X61122Y-39290D03*
G54D26*
X61122Y-38995D03*
G54D25*
X61122Y-38700D03*
X61122Y-38503D03*
X61122Y-38306D03*
X61122Y-38109D03*
X61122Y-37912D03*
X61122Y-37716D03*
X61122Y-37519D03*
X61122Y-37322D03*
X61122Y-37125D03*
X61122Y-36928D03*
G54D26*
X61122Y-36632D03*
G54D25*
X61122Y-36338D03*
X61122Y-36141D03*
X61122Y-35944D03*
X61122Y-35747D03*
X61122Y-35550D03*
X61122Y-35353D03*
X61122Y-35157D03*
X61122Y-34960D03*
X61122Y-34763D03*
X61122Y-34566D03*
G54D26*
X61122Y-34270D03*
G54D25*
X61122Y-33975D03*
X61122Y-33779D03*
X61122Y-33582D03*
X61122Y-33385D03*
X61122Y-33188D03*
X58720Y-33186D03*
X58720Y-33383D03*
X58720Y-33580D03*
X58720Y-33777D03*
X58720Y-33973D03*
G54D26*
X58720Y-34268D03*
G54D25*
X58720Y-34564D03*
X58720Y-34761D03*
X58720Y-34958D03*
X58720Y-35155D03*
X58720Y-35351D03*
X58720Y-35548D03*
X58720Y-35745D03*
X58720Y-35942D03*
X58720Y-36139D03*
X58720Y-36336D03*
G54D26*
X58720Y-36631D03*
G54D25*
X58720Y-36927D03*
X58720Y-37124D03*
X58720Y-37321D03*
X58720Y-37518D03*
X58720Y-37714D03*
X58720Y-37911D03*
X58720Y-38108D03*
X58720Y-38305D03*
X58720Y-38502D03*
X58720Y-38699D03*
G54D26*
X58720Y-38994D03*
G54D25*
X58720Y-39290D03*
X58720Y-39487D03*
X58720Y-39684D03*
X58720Y-39881D03*
X58720Y-40077D03*
X58720Y-40274D03*
X58720Y-40471D03*
X58720Y-40668D03*
X58720Y-40865D03*
X58720Y-41062D03*
G54D26*
X58720Y-41357D03*
G54D25*
X58720Y-41653D03*
X58720Y-41849D03*
X58720Y-42046D03*
X58720Y-42243D03*
X58720Y-42440D03*
G54D27*
X59917Y-31928D03*
X59917Y-43700D03*
G54D28*
X62835Y-49351D03*
X63150Y-49351D03*
X63464Y-49351D03*
X63778Y-49351D03*
X64093Y-49351D03*
G54D29*
X65117Y-51535D03*
X61811Y-51535D03*
X61811Y-49449D03*
X65117Y-49449D03*
G54D30*
X42468Y-49606D03*
X42838Y-49606D03*
G54D31*
X38102Y-25937D03*
X39736Y-25937D03*
G54D32*
X42610Y-32031D03*
X40996Y-32031D03*
G54D33*
X41251Y-36023D03*
X41251Y-35125D03*
G54D34*
X39685Y-39055D03*
X39185Y-39055D03*
X39185Y-42047D03*
X39685Y-42047D03*
G54D35*
X39590Y-44617D03*
X39551Y-45523D03*
X39570Y-46428D03*
G54D36*
X41873Y-45523D03*
G54D37*
X44299Y-51849D03*
G54D38*
X45299Y-51849D03*
G54D39*
X54251Y-50944D03*
G54D40*
X53251Y-49944D03*
X53251Y-51944D03*
X55251Y-51944D03*
X55251Y-49944D03*
G54D34*
X59791Y-51539D03*
X60291Y-51539D03*
X60291Y-48547D03*
X59791Y-48547D03*
G54D41*
X66471Y-50629D03*
X67071Y-50629D03*
G54D42*
X71653Y-49681D03*
X71653Y-25122D03*
G54D43*
X67598Y-23739D03*
X67598Y-25708D03*
X66598Y-25708D03*
X65598Y-25708D03*
X65598Y-23739D03*
X66598Y-23739D03*
X63598Y-23739D03*
X62598Y-23739D03*
X61598Y-23739D03*
X60598Y-23739D03*
X59598Y-23739D03*
X58598Y-23739D03*
X57598Y-23739D03*
X56598Y-23739D03*
X55598Y-23739D03*
X54598Y-23739D03*
X53598Y-23739D03*
X52598Y-23739D03*
X51598Y-23739D03*
X50598Y-23739D03*
X49598Y-23739D03*
X48598Y-23739D03*
X47598Y-23739D03*
X46598Y-23739D03*
X43598Y-25708D03*
X44598Y-25708D03*
X45598Y-25708D03*
X43598Y-23739D03*
X44598Y-23739D03*
X45598Y-23739D03*
X46598Y-25708D03*
X47598Y-25708D03*
X48598Y-25708D03*
X49598Y-25708D03*
X50598Y-25708D03*
X51598Y-25708D03*
X52598Y-25708D03*
X53598Y-25708D03*
X54598Y-25708D03*
X55598Y-25708D03*
X56598Y-25708D03*
X57598Y-25708D03*
X58598Y-25708D03*
X59598Y-25708D03*
X60598Y-25708D03*
X61598Y-25708D03*
X62598Y-25708D03*
X63598Y-25708D03*
X64598Y-25708D03*
X64598Y-23739D03*
G54D14*
X57795Y-42881D03*
X57795Y-43251D03*
X56984Y-42897D03*
X56984Y-43267D03*
G54D30*
X57425Y-42413D03*
X57795Y-42413D03*
X56614Y-42031D03*
X56984Y-42031D03*
X61275Y-48236D03*
X61645Y-48236D03*
G54D15*
X62893Y-48236D03*
X62263Y-48236D03*
G54D44*
X40019Y-32055D03*
X39519Y-32055D03*
X39019Y-32055D03*
X38519Y-32055D03*
X38519Y-34122D03*
X39019Y-34122D03*
X39519Y-34122D03*
X40019Y-34122D03*
G54D45*
X39269Y-33088D03*
G54D30*
X59090Y-27559D03*
X59460Y-27559D03*
X59090Y-27118D03*
X58720Y-27118D03*
X59460Y-28185D03*
X59830Y-28185D03*
X57818Y-27555D03*
X58188Y-27555D03*
X57822Y-27145D03*
X57452Y-27145D03*
X58189Y-28173D03*
X58559Y-28173D03*
X57196Y-51070D03*
X57566Y-51070D03*
G54D14*
X57566Y-50555D03*
X57566Y-50185D03*
G54D10*
G36*
X36957Y-33050D02*
X36869Y-33138D01*
X35296Y-33138D01*
X35246Y-33089D01*
X35246Y-26910D01*
X35335Y-26821D01*
X36869Y-26821D01*
X36957Y-26910D01*
X36957Y-33050D01*
X36957Y-33050D01*
G37*
G54D46*
X36957Y-33050D02*
X36869Y-33138D01*
X35296Y-33138D01*
X35246Y-33089D01*
X35246Y-26910D01*
X35335Y-26821D01*
X36869Y-26821D01*
X36957Y-26910D01*
X36957Y-33050D01*
M02*
