G04 (created by PCBNEW (2013-07-07 BZR 4022)-stable) date 10/22/2013 6:32:42 PM*
%MOIN*%
G04 Gerber Fmt 3.4, Leading zero omitted, Abs format*
%FSLAX34Y34*%
G01*
G70*
G90*
G04 APERTURE LIST*
%ADD10C,0.00590551*%
%ADD11C,0.00787402*%
%ADD12C,0.0157*%
%ADD13C,0.00984252*%
%ADD14C,0.0077*%
%ADD15C,0.0079*%
%ADD16C,0.01*%
%ADD17C,0.005*%
%ADD18C,0.002*%
%ADD19C,0.006*%
%ADD20C,0.0039*%
G04 APERTURE END LIST*
G54D10*
X4000Y-4000D02*
X112930Y-4000D01*
X112930Y-78680D01*
X4000Y-78680D01*
X4000Y-4000D01*
X4700Y-4700D02*
X112230Y-4700D01*
X112230Y-77980D01*
X4700Y-77980D01*
X4700Y-4700D01*
X25780Y-4000D02*
X25780Y-4700D01*
X15032Y-4552D02*
X14747Y-4552D01*
X14890Y-4552D02*
X14890Y-4052D01*
X14842Y-4123D01*
X14794Y-4171D01*
X14747Y-4195D01*
X25780Y-78680D02*
X25780Y-77980D01*
X15032Y-78532D02*
X14747Y-78532D01*
X14890Y-78532D02*
X14890Y-78032D01*
X14842Y-78103D01*
X14794Y-78151D01*
X14747Y-78175D01*
X47560Y-4000D02*
X47560Y-4700D01*
X36527Y-4100D02*
X36550Y-4076D01*
X36598Y-4052D01*
X36717Y-4052D01*
X36765Y-4076D01*
X36789Y-4100D01*
X36812Y-4147D01*
X36812Y-4195D01*
X36789Y-4266D01*
X36503Y-4552D01*
X36812Y-4552D01*
X47560Y-78680D02*
X47560Y-77980D01*
X36527Y-78080D02*
X36550Y-78056D01*
X36598Y-78032D01*
X36717Y-78032D01*
X36765Y-78056D01*
X36789Y-78080D01*
X36812Y-78127D01*
X36812Y-78175D01*
X36789Y-78246D01*
X36503Y-78532D01*
X36812Y-78532D01*
X69340Y-4000D02*
X69340Y-4700D01*
X58283Y-4052D02*
X58592Y-4052D01*
X58426Y-4242D01*
X58497Y-4242D01*
X58545Y-4266D01*
X58569Y-4290D01*
X58592Y-4338D01*
X58592Y-4457D01*
X58569Y-4504D01*
X58545Y-4528D01*
X58497Y-4552D01*
X58354Y-4552D01*
X58307Y-4528D01*
X58283Y-4504D01*
X69340Y-78680D02*
X69340Y-77980D01*
X58283Y-78032D02*
X58592Y-78032D01*
X58426Y-78222D01*
X58497Y-78222D01*
X58545Y-78246D01*
X58569Y-78270D01*
X58592Y-78318D01*
X58592Y-78437D01*
X58569Y-78484D01*
X58545Y-78508D01*
X58497Y-78532D01*
X58354Y-78532D01*
X58307Y-78508D01*
X58283Y-78484D01*
X91120Y-4000D02*
X91120Y-4700D01*
X80325Y-4219D02*
X80325Y-4552D01*
X80206Y-4028D02*
X80087Y-4385D01*
X80396Y-4385D01*
X91120Y-78680D02*
X91120Y-77980D01*
X80325Y-78199D02*
X80325Y-78532D01*
X80206Y-78008D02*
X80087Y-78365D01*
X80396Y-78365D01*
X102129Y-4052D02*
X101890Y-4052D01*
X101867Y-4290D01*
X101890Y-4266D01*
X101938Y-4242D01*
X102057Y-4242D01*
X102105Y-4266D01*
X102129Y-4290D01*
X102152Y-4338D01*
X102152Y-4457D01*
X102129Y-4504D01*
X102105Y-4528D01*
X102057Y-4552D01*
X101938Y-4552D01*
X101890Y-4528D01*
X101867Y-4504D01*
X102129Y-78032D02*
X101890Y-78032D01*
X101867Y-78270D01*
X101890Y-78246D01*
X101938Y-78222D01*
X102057Y-78222D01*
X102105Y-78246D01*
X102129Y-78270D01*
X102152Y-78318D01*
X102152Y-78437D01*
X102129Y-78484D01*
X102105Y-78508D01*
X102057Y-78532D01*
X101938Y-78532D01*
X101890Y-78508D01*
X101867Y-78484D01*
X4000Y-28890D02*
X4700Y-28890D01*
X4230Y-16509D02*
X4469Y-16509D01*
X4183Y-16652D02*
X4350Y-16152D01*
X4516Y-16652D01*
X112930Y-28890D02*
X112230Y-28890D01*
X112460Y-16509D02*
X112699Y-16509D01*
X112413Y-16652D02*
X112580Y-16152D01*
X112746Y-16652D01*
X4000Y-53780D02*
X4700Y-53780D01*
X4385Y-41280D02*
X4457Y-41304D01*
X4480Y-41328D01*
X4504Y-41375D01*
X4504Y-41447D01*
X4480Y-41494D01*
X4457Y-41518D01*
X4409Y-41542D01*
X4219Y-41542D01*
X4219Y-41042D01*
X4385Y-41042D01*
X4433Y-41066D01*
X4457Y-41090D01*
X4480Y-41137D01*
X4480Y-41185D01*
X4457Y-41232D01*
X4433Y-41256D01*
X4385Y-41280D01*
X4219Y-41280D01*
X112930Y-53780D02*
X112230Y-53780D01*
X112615Y-41280D02*
X112687Y-41304D01*
X112710Y-41328D01*
X112734Y-41375D01*
X112734Y-41447D01*
X112710Y-41494D01*
X112687Y-41518D01*
X112639Y-41542D01*
X112449Y-41542D01*
X112449Y-41042D01*
X112615Y-41042D01*
X112663Y-41066D01*
X112687Y-41090D01*
X112710Y-41137D01*
X112710Y-41185D01*
X112687Y-41232D01*
X112663Y-41256D01*
X112615Y-41280D01*
X112449Y-41280D01*
X4504Y-66384D02*
X4480Y-66408D01*
X4409Y-66432D01*
X4361Y-66432D01*
X4290Y-66408D01*
X4242Y-66360D01*
X4219Y-66313D01*
X4195Y-66218D01*
X4195Y-66146D01*
X4219Y-66051D01*
X4242Y-66003D01*
X4290Y-65956D01*
X4361Y-65932D01*
X4409Y-65932D01*
X4480Y-65956D01*
X4504Y-65980D01*
X112734Y-66384D02*
X112710Y-66408D01*
X112639Y-66432D01*
X112591Y-66432D01*
X112520Y-66408D01*
X112472Y-66360D01*
X112449Y-66313D01*
X112425Y-66218D01*
X112425Y-66146D01*
X112449Y-66051D01*
X112472Y-66003D01*
X112520Y-65956D01*
X112591Y-65932D01*
X112639Y-65932D01*
X112710Y-65956D01*
X112734Y-65980D01*
X79380Y-76422D02*
X79455Y-75822D01*
X79597Y-75822D01*
X79680Y-75851D01*
X79730Y-75908D01*
X79751Y-75965D01*
X79765Y-76080D01*
X79755Y-76165D01*
X79712Y-76280D01*
X79676Y-76337D01*
X79612Y-76394D01*
X79522Y-76422D01*
X79380Y-76422D01*
X80237Y-76422D02*
X80276Y-76108D01*
X80255Y-76051D01*
X80201Y-76022D01*
X80087Y-76022D01*
X80026Y-76051D01*
X80240Y-76394D02*
X80180Y-76422D01*
X80037Y-76422D01*
X79983Y-76394D01*
X79962Y-76337D01*
X79969Y-76280D01*
X80005Y-76222D01*
X80065Y-76194D01*
X80208Y-76194D01*
X80269Y-76165D01*
X80487Y-76022D02*
X80715Y-76022D01*
X80597Y-75822D02*
X80533Y-76337D01*
X80555Y-76394D01*
X80608Y-76422D01*
X80665Y-76422D01*
X81097Y-76394D02*
X81037Y-76422D01*
X80922Y-76422D01*
X80869Y-76394D01*
X80847Y-76337D01*
X80876Y-76108D01*
X80912Y-76051D01*
X80972Y-76022D01*
X81087Y-76022D01*
X81140Y-76051D01*
X81162Y-76108D01*
X81155Y-76165D01*
X80862Y-76222D01*
X81387Y-76365D02*
X81412Y-76394D01*
X81380Y-76422D01*
X81355Y-76394D01*
X81387Y-76365D01*
X81380Y-76422D01*
X81426Y-76051D02*
X81451Y-76080D01*
X81419Y-76108D01*
X81394Y-76080D01*
X81426Y-76051D01*
X81419Y-76108D01*
X82162Y-75880D02*
X82194Y-75851D01*
X82255Y-75822D01*
X82397Y-75822D01*
X82451Y-75851D01*
X82476Y-75880D01*
X82497Y-75937D01*
X82490Y-75994D01*
X82451Y-76080D01*
X82065Y-76422D01*
X82437Y-76422D01*
X82733Y-75880D02*
X82765Y-75851D01*
X82826Y-75822D01*
X82969Y-75822D01*
X83022Y-75851D01*
X83047Y-75880D01*
X83069Y-75937D01*
X83062Y-75994D01*
X83022Y-76080D01*
X82637Y-76422D01*
X83008Y-76422D01*
X83808Y-76422D02*
X83755Y-76394D01*
X83730Y-76365D01*
X83708Y-76308D01*
X83730Y-76137D01*
X83765Y-76080D01*
X83797Y-76051D01*
X83858Y-76022D01*
X83944Y-76022D01*
X83997Y-76051D01*
X84022Y-76080D01*
X84044Y-76137D01*
X84022Y-76308D01*
X83987Y-76365D01*
X83955Y-76394D01*
X83894Y-76422D01*
X83808Y-76422D01*
X84526Y-76394D02*
X84465Y-76422D01*
X84351Y-76422D01*
X84297Y-76394D01*
X84272Y-76365D01*
X84251Y-76308D01*
X84272Y-76137D01*
X84308Y-76080D01*
X84340Y-76051D01*
X84401Y-76022D01*
X84515Y-76022D01*
X84569Y-76051D01*
X84744Y-76022D02*
X84972Y-76022D01*
X84855Y-75822D02*
X84790Y-76337D01*
X84812Y-76394D01*
X84865Y-76422D01*
X84922Y-76422D01*
X85619Y-75880D02*
X85651Y-75851D01*
X85712Y-75822D01*
X85855Y-75822D01*
X85908Y-75851D01*
X85933Y-75880D01*
X85955Y-75937D01*
X85947Y-75994D01*
X85908Y-76080D01*
X85522Y-76422D01*
X85894Y-76422D01*
X86340Y-75822D02*
X86397Y-75822D01*
X86451Y-75851D01*
X86476Y-75880D01*
X86497Y-75937D01*
X86512Y-76051D01*
X86494Y-76194D01*
X86451Y-76308D01*
X86415Y-76365D01*
X86383Y-76394D01*
X86322Y-76422D01*
X86265Y-76422D01*
X86212Y-76394D01*
X86187Y-76365D01*
X86165Y-76308D01*
X86151Y-76194D01*
X86169Y-76051D01*
X86212Y-75937D01*
X86247Y-75880D01*
X86280Y-75851D01*
X86340Y-75822D01*
X87037Y-76422D02*
X86694Y-76422D01*
X86865Y-76422D02*
X86940Y-75822D01*
X86872Y-75908D01*
X86808Y-75965D01*
X86747Y-75994D01*
X87312Y-75822D02*
X87683Y-75822D01*
X87455Y-76051D01*
X87540Y-76051D01*
X87594Y-76080D01*
X87619Y-76108D01*
X87640Y-76165D01*
X87622Y-76308D01*
X87587Y-76365D01*
X87555Y-76394D01*
X87494Y-76422D01*
X87322Y-76422D01*
X87269Y-76394D01*
X87244Y-76365D01*
X70972Y-77622D02*
X70972Y-77022D01*
X71315Y-77622D02*
X71058Y-77280D01*
X71315Y-77022D02*
X70972Y-77365D01*
X71572Y-77622D02*
X71572Y-77222D01*
X71572Y-77022D02*
X71544Y-77051D01*
X71572Y-77080D01*
X71601Y-77051D01*
X71572Y-77022D01*
X71572Y-77080D01*
X72201Y-77565D02*
X72172Y-77594D01*
X72087Y-77622D01*
X72030Y-77622D01*
X71944Y-77594D01*
X71887Y-77537D01*
X71858Y-77480D01*
X71830Y-77365D01*
X71830Y-77280D01*
X71858Y-77165D01*
X71887Y-77108D01*
X71944Y-77051D01*
X72030Y-77022D01*
X72087Y-77022D01*
X72172Y-77051D01*
X72201Y-77080D01*
X72715Y-77622D02*
X72715Y-77308D01*
X72687Y-77251D01*
X72630Y-77222D01*
X72515Y-77222D01*
X72458Y-77251D01*
X72715Y-77594D02*
X72658Y-77622D01*
X72515Y-77622D01*
X72458Y-77594D01*
X72430Y-77537D01*
X72430Y-77480D01*
X72458Y-77422D01*
X72515Y-77394D01*
X72658Y-77394D01*
X72715Y-77365D01*
X73258Y-77622D02*
X73258Y-77022D01*
X73258Y-77594D02*
X73201Y-77622D01*
X73087Y-77622D01*
X73030Y-77594D01*
X73001Y-77565D01*
X72972Y-77508D01*
X72972Y-77337D01*
X73001Y-77280D01*
X73030Y-77251D01*
X73087Y-77222D01*
X73201Y-77222D01*
X73258Y-77251D01*
X74001Y-77308D02*
X74201Y-77308D01*
X74287Y-77622D02*
X74001Y-77622D01*
X74001Y-77022D01*
X74287Y-77022D01*
X74544Y-77565D02*
X74572Y-77594D01*
X74544Y-77622D01*
X74515Y-77594D01*
X74544Y-77565D01*
X74544Y-77622D01*
X74829Y-77622D02*
X74829Y-77022D01*
X74972Y-77022D01*
X75058Y-77051D01*
X75115Y-77108D01*
X75144Y-77165D01*
X75172Y-77280D01*
X75172Y-77365D01*
X75144Y-77480D01*
X75115Y-77537D01*
X75058Y-77594D01*
X74972Y-77622D01*
X74829Y-77622D01*
X75429Y-77565D02*
X75458Y-77594D01*
X75429Y-77622D01*
X75401Y-77594D01*
X75429Y-77565D01*
X75429Y-77622D01*
X75687Y-77451D02*
X75972Y-77451D01*
X75629Y-77622D02*
X75829Y-77022D01*
X76029Y-77622D01*
X76229Y-77565D02*
X76258Y-77594D01*
X76229Y-77622D01*
X76201Y-77594D01*
X76229Y-77565D01*
X76229Y-77622D01*
X104522Y-76422D02*
X104358Y-76137D01*
X104180Y-76422D02*
X104255Y-75822D01*
X104483Y-75822D01*
X104537Y-75851D01*
X104562Y-75880D01*
X104583Y-75937D01*
X104572Y-76022D01*
X104537Y-76080D01*
X104505Y-76108D01*
X104444Y-76137D01*
X104215Y-76137D01*
X105012Y-76394D02*
X104951Y-76422D01*
X104837Y-76422D01*
X104783Y-76394D01*
X104762Y-76337D01*
X104790Y-76108D01*
X104826Y-76051D01*
X104887Y-76022D01*
X105001Y-76022D01*
X105055Y-76051D01*
X105076Y-76108D01*
X105069Y-76165D01*
X104776Y-76222D01*
X105287Y-76022D02*
X105380Y-76422D01*
X105572Y-76022D01*
X105758Y-76365D02*
X105783Y-76394D01*
X105751Y-76422D01*
X105726Y-76394D01*
X105758Y-76365D01*
X105751Y-76422D01*
X105797Y-76051D02*
X105822Y-76080D01*
X105790Y-76108D01*
X105765Y-76080D01*
X105797Y-76051D01*
X105790Y-76108D01*
X106683Y-75822D02*
X106740Y-75822D01*
X106794Y-75851D01*
X106819Y-75880D01*
X106840Y-75937D01*
X106855Y-76051D01*
X106837Y-76194D01*
X106794Y-76308D01*
X106758Y-76365D01*
X106726Y-76394D01*
X106665Y-76422D01*
X106608Y-76422D01*
X106555Y-76394D01*
X106530Y-76365D01*
X106508Y-76308D01*
X106494Y-76194D01*
X106512Y-76051D01*
X106555Y-75937D01*
X106590Y-75880D01*
X106622Y-75851D01*
X106683Y-75822D01*
X70944Y-76394D02*
X71030Y-76422D01*
X71172Y-76422D01*
X71230Y-76394D01*
X71258Y-76365D01*
X71287Y-76308D01*
X71287Y-76251D01*
X71258Y-76194D01*
X71230Y-76165D01*
X71172Y-76137D01*
X71058Y-76108D01*
X71001Y-76080D01*
X70972Y-76051D01*
X70944Y-75994D01*
X70944Y-75937D01*
X70972Y-75880D01*
X71001Y-75851D01*
X71058Y-75822D01*
X71201Y-75822D01*
X71287Y-75851D01*
X71544Y-76422D02*
X71544Y-76022D01*
X71544Y-75822D02*
X71515Y-75851D01*
X71544Y-75880D01*
X71572Y-75851D01*
X71544Y-75822D01*
X71544Y-75880D01*
X71772Y-76022D02*
X72087Y-76022D01*
X71772Y-76422D01*
X72087Y-76422D01*
X72544Y-76394D02*
X72487Y-76422D01*
X72372Y-76422D01*
X72315Y-76394D01*
X72287Y-76337D01*
X72287Y-76108D01*
X72315Y-76051D01*
X72372Y-76022D01*
X72487Y-76022D01*
X72544Y-76051D01*
X72572Y-76108D01*
X72572Y-76165D01*
X72287Y-76222D01*
X72830Y-76365D02*
X72858Y-76394D01*
X72830Y-76422D01*
X72801Y-76394D01*
X72830Y-76365D01*
X72830Y-76422D01*
X72830Y-76051D02*
X72858Y-76080D01*
X72830Y-76108D01*
X72801Y-76080D01*
X72830Y-76051D01*
X72830Y-76108D01*
X73544Y-76251D02*
X73830Y-76251D01*
X73487Y-76422D02*
X73687Y-75822D01*
X73887Y-76422D01*
X74344Y-76022D02*
X74344Y-76422D01*
X74201Y-75794D02*
X74058Y-76222D01*
X74430Y-76222D01*
X104172Y-77622D02*
X104172Y-77022D01*
X104715Y-77622D02*
X104715Y-77022D01*
X104715Y-77594D02*
X104658Y-77622D01*
X104544Y-77622D01*
X104487Y-77594D01*
X104458Y-77565D01*
X104430Y-77508D01*
X104430Y-77337D01*
X104458Y-77280D01*
X104487Y-77251D01*
X104544Y-77222D01*
X104658Y-77222D01*
X104715Y-77251D01*
X105001Y-77565D02*
X105030Y-77594D01*
X105001Y-77622D01*
X104972Y-77594D01*
X105001Y-77565D01*
X105001Y-77622D01*
X105001Y-77251D02*
X105030Y-77280D01*
X105001Y-77308D01*
X104972Y-77280D01*
X105001Y-77251D01*
X105001Y-77308D01*
X106058Y-77622D02*
X105715Y-77622D01*
X105887Y-77622D02*
X105887Y-77022D01*
X105829Y-77108D01*
X105772Y-77165D01*
X105715Y-77194D01*
X106744Y-76994D02*
X106230Y-77765D01*
X107258Y-77622D02*
X106915Y-77622D01*
X107087Y-77622D02*
X107087Y-77022D01*
X107029Y-77108D01*
X106972Y-77165D01*
X106915Y-77194D01*
X70969Y-74622D02*
X71312Y-74622D01*
X71065Y-75222D02*
X71140Y-74622D01*
X71437Y-75222D02*
X71487Y-74822D01*
X71512Y-74622D02*
X71480Y-74651D01*
X71505Y-74680D01*
X71537Y-74651D01*
X71512Y-74622D01*
X71505Y-74680D01*
X71687Y-74822D02*
X71915Y-74822D01*
X71797Y-74622D02*
X71733Y-75137D01*
X71755Y-75194D01*
X71808Y-75222D01*
X71865Y-75222D01*
X72151Y-75222D02*
X72097Y-75194D01*
X72076Y-75137D01*
X72140Y-74622D01*
X72612Y-75194D02*
X72551Y-75222D01*
X72437Y-75222D01*
X72383Y-75194D01*
X72362Y-75137D01*
X72390Y-74908D01*
X72426Y-74851D01*
X72487Y-74822D01*
X72601Y-74822D01*
X72655Y-74851D01*
X72676Y-74908D01*
X72669Y-74965D01*
X72376Y-75022D01*
X72901Y-75165D02*
X72926Y-75194D01*
X72894Y-75222D01*
X72869Y-75194D01*
X72901Y-75165D01*
X72894Y-75222D01*
X72940Y-74851D02*
X72965Y-74880D01*
X72933Y-74908D01*
X72908Y-74880D01*
X72940Y-74851D01*
X72933Y-74908D01*
X73655Y-74622D02*
X74055Y-74622D01*
X73580Y-75222D01*
X73980Y-75222D01*
X74208Y-75222D02*
X74258Y-74822D01*
X74283Y-74622D02*
X74251Y-74651D01*
X74276Y-74680D01*
X74308Y-74651D01*
X74283Y-74622D01*
X74276Y-74680D01*
X74544Y-74822D02*
X74469Y-75422D01*
X74540Y-74851D02*
X74601Y-74822D01*
X74715Y-74822D01*
X74769Y-74851D01*
X74794Y-74880D01*
X74815Y-74937D01*
X74794Y-75108D01*
X74758Y-75165D01*
X74726Y-75194D01*
X74665Y-75222D01*
X74551Y-75222D01*
X74497Y-75194D01*
X75087Y-74822D02*
X75012Y-75422D01*
X75083Y-74851D02*
X75144Y-74822D01*
X75258Y-74822D01*
X75312Y-74851D01*
X75337Y-74880D01*
X75358Y-74937D01*
X75337Y-75108D01*
X75301Y-75165D01*
X75269Y-75194D01*
X75208Y-75222D01*
X75094Y-75222D01*
X75040Y-75194D01*
X75812Y-75194D02*
X75751Y-75222D01*
X75637Y-75222D01*
X75583Y-75194D01*
X75562Y-75137D01*
X75590Y-74908D01*
X75626Y-74851D01*
X75687Y-74822D01*
X75801Y-74822D01*
X75855Y-74851D01*
X75876Y-74908D01*
X75869Y-74965D01*
X75576Y-75022D01*
X76094Y-75222D02*
X76144Y-74822D01*
X76130Y-74937D02*
X76165Y-74880D01*
X76197Y-74851D01*
X76258Y-74822D01*
X76315Y-74822D01*
X76915Y-74822D02*
X77008Y-75222D01*
X77201Y-74822D01*
X77387Y-75165D02*
X77412Y-75194D01*
X77380Y-75222D01*
X77355Y-75194D01*
X77387Y-75165D01*
X77380Y-75222D01*
X77705Y-74680D02*
X77737Y-74651D01*
X77797Y-74622D01*
X77940Y-74622D01*
X77994Y-74651D01*
X78019Y-74680D01*
X78040Y-74737D01*
X78033Y-74794D01*
X77994Y-74880D01*
X77608Y-75222D01*
X77980Y-75222D01*
X71172Y-72508D02*
X70972Y-72508D01*
X70972Y-72822D02*
X70972Y-72222D01*
X71258Y-72222D01*
X71487Y-72822D02*
X71487Y-72422D01*
X71487Y-72222D02*
X71458Y-72251D01*
X71487Y-72280D01*
X71515Y-72251D01*
X71487Y-72222D01*
X71487Y-72280D01*
X71858Y-72822D02*
X71801Y-72794D01*
X71772Y-72737D01*
X71772Y-72222D01*
X72315Y-72794D02*
X72258Y-72822D01*
X72144Y-72822D01*
X72087Y-72794D01*
X72058Y-72737D01*
X72058Y-72508D01*
X72087Y-72451D01*
X72144Y-72422D01*
X72258Y-72422D01*
X72315Y-72451D01*
X72344Y-72508D01*
X72344Y-72565D01*
X72058Y-72622D01*
X72601Y-72765D02*
X72630Y-72794D01*
X72601Y-72822D01*
X72572Y-72794D01*
X72601Y-72765D01*
X72601Y-72822D01*
X72601Y-72451D02*
X72630Y-72480D01*
X72601Y-72508D01*
X72572Y-72480D01*
X72601Y-72451D01*
X72601Y-72508D01*
X73287Y-72222D02*
X73687Y-72222D01*
X73287Y-72822D01*
X73687Y-72822D01*
X73915Y-72822D02*
X73915Y-72422D01*
X73915Y-72222D02*
X73887Y-72251D01*
X73915Y-72280D01*
X73944Y-72251D01*
X73915Y-72222D01*
X73915Y-72280D01*
X74201Y-72422D02*
X74201Y-73022D01*
X74201Y-72451D02*
X74258Y-72422D01*
X74372Y-72422D01*
X74430Y-72451D01*
X74458Y-72480D01*
X74487Y-72537D01*
X74487Y-72708D01*
X74458Y-72765D01*
X74430Y-72794D01*
X74372Y-72822D01*
X74258Y-72822D01*
X74201Y-72794D01*
X74744Y-72422D02*
X74744Y-73022D01*
X74744Y-72451D02*
X74801Y-72422D01*
X74915Y-72422D01*
X74972Y-72451D01*
X75001Y-72480D01*
X75030Y-72537D01*
X75030Y-72708D01*
X75001Y-72765D01*
X74972Y-72794D01*
X74915Y-72822D01*
X74801Y-72822D01*
X74744Y-72794D01*
X75515Y-72794D02*
X75458Y-72822D01*
X75344Y-72822D01*
X75287Y-72794D01*
X75258Y-72737D01*
X75258Y-72508D01*
X75287Y-72451D01*
X75344Y-72422D01*
X75458Y-72422D01*
X75515Y-72451D01*
X75544Y-72508D01*
X75544Y-72565D01*
X75258Y-72622D01*
X75801Y-72822D02*
X75801Y-72422D01*
X75801Y-72537D02*
X75830Y-72480D01*
X75858Y-72451D01*
X75915Y-72422D01*
X75972Y-72422D01*
X76172Y-72765D02*
X76201Y-72794D01*
X76172Y-72822D01*
X76144Y-72794D01*
X76172Y-72765D01*
X76172Y-72822D01*
X76458Y-72822D02*
X76458Y-72222D01*
X76515Y-72594D02*
X76687Y-72822D01*
X76687Y-72422D02*
X76458Y-72651D01*
X76944Y-72822D02*
X76944Y-72422D01*
X76944Y-72222D02*
X76915Y-72251D01*
X76944Y-72280D01*
X76972Y-72251D01*
X76944Y-72222D01*
X76944Y-72280D01*
X77487Y-72794D02*
X77430Y-72822D01*
X77315Y-72822D01*
X77258Y-72794D01*
X77230Y-72765D01*
X77201Y-72708D01*
X77201Y-72537D01*
X77230Y-72480D01*
X77258Y-72451D01*
X77315Y-72422D01*
X77430Y-72422D01*
X77487Y-72451D01*
X78001Y-72822D02*
X78001Y-72508D01*
X77972Y-72451D01*
X77915Y-72422D01*
X77801Y-72422D01*
X77744Y-72451D01*
X78001Y-72794D02*
X77944Y-72822D01*
X77801Y-72822D01*
X77744Y-72794D01*
X77715Y-72737D01*
X77715Y-72680D01*
X77744Y-72622D01*
X77801Y-72594D01*
X77944Y-72594D01*
X78001Y-72565D01*
X78544Y-72822D02*
X78544Y-72222D01*
X78544Y-72794D02*
X78487Y-72822D01*
X78372Y-72822D01*
X78315Y-72794D01*
X78287Y-72765D01*
X78258Y-72708D01*
X78258Y-72537D01*
X78287Y-72480D01*
X78315Y-72451D01*
X78372Y-72422D01*
X78487Y-72422D01*
X78544Y-72451D01*
X78687Y-72880D02*
X79144Y-72880D01*
X79287Y-72422D02*
X79287Y-73022D01*
X79287Y-72451D02*
X79344Y-72422D01*
X79458Y-72422D01*
X79515Y-72451D01*
X79544Y-72480D01*
X79572Y-72537D01*
X79572Y-72708D01*
X79544Y-72765D01*
X79515Y-72794D01*
X79458Y-72822D01*
X79344Y-72822D01*
X79287Y-72794D01*
X80087Y-72794D02*
X80030Y-72822D01*
X79915Y-72822D01*
X79858Y-72794D01*
X79830Y-72765D01*
X79801Y-72708D01*
X79801Y-72537D01*
X79830Y-72480D01*
X79858Y-72451D01*
X79915Y-72422D01*
X80030Y-72422D01*
X80087Y-72451D01*
X80344Y-72822D02*
X80344Y-72222D01*
X80344Y-72451D02*
X80401Y-72422D01*
X80515Y-72422D01*
X80572Y-72451D01*
X80601Y-72480D01*
X80630Y-72537D01*
X80630Y-72708D01*
X80601Y-72765D01*
X80572Y-72794D01*
X80515Y-72822D01*
X80401Y-72822D01*
X80344Y-72794D01*
X70944Y-73994D02*
X71030Y-74022D01*
X71172Y-74022D01*
X71230Y-73994D01*
X71258Y-73965D01*
X71287Y-73908D01*
X71287Y-73851D01*
X71258Y-73794D01*
X71230Y-73765D01*
X71172Y-73737D01*
X71058Y-73708D01*
X71001Y-73680D01*
X70972Y-73651D01*
X70944Y-73594D01*
X70944Y-73537D01*
X70972Y-73480D01*
X71001Y-73451D01*
X71058Y-73422D01*
X71201Y-73422D01*
X71287Y-73451D01*
X71544Y-74022D02*
X71544Y-73422D01*
X71801Y-74022D02*
X71801Y-73708D01*
X71772Y-73651D01*
X71715Y-73622D01*
X71630Y-73622D01*
X71572Y-73651D01*
X71544Y-73680D01*
X72315Y-73994D02*
X72258Y-74022D01*
X72144Y-74022D01*
X72087Y-73994D01*
X72058Y-73937D01*
X72058Y-73708D01*
X72087Y-73651D01*
X72144Y-73622D01*
X72258Y-73622D01*
X72315Y-73651D01*
X72344Y-73708D01*
X72344Y-73765D01*
X72058Y-73822D01*
X72830Y-73994D02*
X72772Y-74022D01*
X72658Y-74022D01*
X72601Y-73994D01*
X72572Y-73937D01*
X72572Y-73708D01*
X72601Y-73651D01*
X72658Y-73622D01*
X72772Y-73622D01*
X72830Y-73651D01*
X72858Y-73708D01*
X72858Y-73765D01*
X72572Y-73822D01*
X73030Y-73622D02*
X73258Y-73622D01*
X73115Y-73422D02*
X73115Y-73937D01*
X73144Y-73994D01*
X73201Y-74022D01*
X73258Y-74022D01*
X73458Y-73965D02*
X73487Y-73994D01*
X73458Y-74022D01*
X73430Y-73994D01*
X73458Y-73965D01*
X73458Y-74022D01*
X73458Y-73651D02*
X73487Y-73680D01*
X73458Y-73708D01*
X73430Y-73680D01*
X73458Y-73651D01*
X73458Y-73708D01*
X70887Y-69822D02*
X71230Y-69822D01*
X71058Y-70422D02*
X71058Y-69822D01*
X71430Y-70422D02*
X71430Y-69822D01*
X71430Y-70108D02*
X71772Y-70108D01*
X71772Y-70422D02*
X71772Y-69822D01*
X72058Y-70422D02*
X72058Y-69822D01*
X72315Y-70394D02*
X72401Y-70422D01*
X72544Y-70422D01*
X72601Y-70394D01*
X72629Y-70365D01*
X72658Y-70308D01*
X72658Y-70251D01*
X72629Y-70194D01*
X72601Y-70165D01*
X72544Y-70137D01*
X72429Y-70108D01*
X72372Y-70080D01*
X72344Y-70051D01*
X72315Y-69994D01*
X72315Y-69937D01*
X72344Y-69880D01*
X72372Y-69851D01*
X72429Y-69822D01*
X72572Y-69822D01*
X72658Y-69851D01*
X73315Y-69822D02*
X73458Y-70422D01*
X73572Y-69994D01*
X73687Y-70422D01*
X73830Y-69822D01*
X74172Y-69822D02*
X74287Y-69822D01*
X74344Y-69851D01*
X74401Y-69908D01*
X74430Y-70022D01*
X74430Y-70222D01*
X74401Y-70337D01*
X74344Y-70394D01*
X74287Y-70422D01*
X74172Y-70422D01*
X74115Y-70394D01*
X74058Y-70337D01*
X74030Y-70222D01*
X74030Y-70022D01*
X74058Y-69908D01*
X74115Y-69851D01*
X74172Y-69822D01*
X75029Y-70422D02*
X74829Y-70137D01*
X74687Y-70422D02*
X74687Y-69822D01*
X74915Y-69822D01*
X74972Y-69851D01*
X75001Y-69880D01*
X75029Y-69937D01*
X75029Y-70022D01*
X75001Y-70080D01*
X74972Y-70108D01*
X74915Y-70137D01*
X74687Y-70137D01*
X75287Y-70422D02*
X75287Y-69822D01*
X75629Y-70422D02*
X75372Y-70080D01*
X75629Y-69822D02*
X75287Y-70165D01*
X76344Y-70422D02*
X76344Y-69822D01*
X76601Y-70394D02*
X76687Y-70422D01*
X76829Y-70422D01*
X76887Y-70394D01*
X76915Y-70365D01*
X76944Y-70308D01*
X76944Y-70251D01*
X76915Y-70194D01*
X76887Y-70165D01*
X76829Y-70137D01*
X76715Y-70108D01*
X76658Y-70080D01*
X76629Y-70051D01*
X76601Y-69994D01*
X76601Y-69937D01*
X76629Y-69880D01*
X76658Y-69851D01*
X76715Y-69822D01*
X76858Y-69822D01*
X76944Y-69851D01*
X78001Y-70365D02*
X77972Y-70394D01*
X77887Y-70422D01*
X77830Y-70422D01*
X77744Y-70394D01*
X77687Y-70337D01*
X77658Y-70280D01*
X77630Y-70165D01*
X77630Y-70080D01*
X77658Y-69965D01*
X77687Y-69908D01*
X77744Y-69851D01*
X77830Y-69822D01*
X77887Y-69822D01*
X77972Y-69851D01*
X78001Y-69880D01*
X78372Y-69822D02*
X78487Y-69822D01*
X78544Y-69851D01*
X78601Y-69908D01*
X78630Y-70022D01*
X78630Y-70222D01*
X78601Y-70337D01*
X78544Y-70394D01*
X78487Y-70422D01*
X78372Y-70422D01*
X78315Y-70394D01*
X78258Y-70337D01*
X78230Y-70222D01*
X78230Y-70022D01*
X78258Y-69908D01*
X78315Y-69851D01*
X78372Y-69822D01*
X78801Y-69822D02*
X79001Y-70422D01*
X79201Y-69822D01*
X79401Y-70108D02*
X79601Y-70108D01*
X79687Y-70422D02*
X79401Y-70422D01*
X79401Y-69822D01*
X79687Y-69822D01*
X80287Y-70422D02*
X80087Y-70137D01*
X79944Y-70422D02*
X79944Y-69822D01*
X80172Y-69822D01*
X80229Y-69851D01*
X80258Y-69880D01*
X80287Y-69937D01*
X80287Y-70022D01*
X80258Y-70080D01*
X80229Y-70108D01*
X80172Y-70137D01*
X79944Y-70137D01*
X80544Y-70108D02*
X80744Y-70108D01*
X80829Y-70422D02*
X80544Y-70422D01*
X80544Y-69822D01*
X80829Y-69822D01*
X81087Y-70422D02*
X81087Y-69822D01*
X81229Y-69822D01*
X81315Y-69851D01*
X81372Y-69908D01*
X81401Y-69965D01*
X81429Y-70080D01*
X81429Y-70165D01*
X81401Y-70280D01*
X81372Y-70337D01*
X81315Y-70394D01*
X81229Y-70422D01*
X81087Y-70422D01*
X82144Y-69822D02*
X82144Y-70308D01*
X82172Y-70365D01*
X82201Y-70394D01*
X82258Y-70422D01*
X82372Y-70422D01*
X82429Y-70394D01*
X82458Y-70365D01*
X82487Y-70308D01*
X82487Y-69822D01*
X82772Y-70422D02*
X82772Y-69822D01*
X83115Y-70422D01*
X83115Y-69822D01*
X83401Y-70422D02*
X83401Y-69822D01*
X83544Y-69822D01*
X83629Y-69851D01*
X83687Y-69908D01*
X83715Y-69965D01*
X83744Y-70080D01*
X83744Y-70165D01*
X83715Y-70280D01*
X83687Y-70337D01*
X83629Y-70394D01*
X83544Y-70422D01*
X83401Y-70422D01*
X84001Y-70108D02*
X84201Y-70108D01*
X84287Y-70422D02*
X84001Y-70422D01*
X84001Y-69822D01*
X84287Y-69822D01*
X84887Y-70422D02*
X84687Y-70137D01*
X84544Y-70422D02*
X84544Y-69822D01*
X84772Y-69822D01*
X84829Y-69851D01*
X84858Y-69880D01*
X84887Y-69937D01*
X84887Y-70022D01*
X84858Y-70080D01*
X84829Y-70108D01*
X84772Y-70137D01*
X84544Y-70137D01*
X85572Y-70251D02*
X85858Y-70251D01*
X85515Y-70422D02*
X85715Y-69822D01*
X85915Y-70422D01*
X86915Y-70365D02*
X86887Y-70394D01*
X86801Y-70422D01*
X86744Y-70422D01*
X86658Y-70394D01*
X86601Y-70337D01*
X86572Y-70280D01*
X86544Y-70165D01*
X86544Y-70080D01*
X86572Y-69965D01*
X86601Y-69908D01*
X86658Y-69851D01*
X86744Y-69822D01*
X86801Y-69822D01*
X86887Y-69851D01*
X86915Y-69880D01*
X87515Y-70422D02*
X87315Y-70137D01*
X87172Y-70422D02*
X87172Y-69822D01*
X87401Y-69822D01*
X87458Y-69851D01*
X87487Y-69880D01*
X87515Y-69937D01*
X87515Y-70022D01*
X87487Y-70080D01*
X87458Y-70108D01*
X87401Y-70137D01*
X87172Y-70137D01*
X87772Y-70108D02*
X87972Y-70108D01*
X88058Y-70422D02*
X87772Y-70422D01*
X87772Y-69822D01*
X88058Y-69822D01*
X88287Y-70251D02*
X88572Y-70251D01*
X88229Y-70422D02*
X88429Y-69822D01*
X88629Y-70422D01*
X88744Y-69822D02*
X89087Y-69822D01*
X88915Y-70422D02*
X88915Y-69822D01*
X89287Y-70422D02*
X89287Y-69822D01*
X89487Y-69822D02*
X89687Y-70422D01*
X89887Y-69822D01*
X90087Y-70108D02*
X90287Y-70108D01*
X90372Y-70422D02*
X90087Y-70422D01*
X90087Y-69822D01*
X90372Y-69822D01*
X91429Y-70365D02*
X91401Y-70394D01*
X91315Y-70422D01*
X91258Y-70422D01*
X91172Y-70394D01*
X91115Y-70337D01*
X91087Y-70280D01*
X91058Y-70165D01*
X91058Y-70080D01*
X91087Y-69965D01*
X91115Y-69908D01*
X91172Y-69851D01*
X91258Y-69822D01*
X91315Y-69822D01*
X91401Y-69851D01*
X91429Y-69880D01*
X91801Y-69822D02*
X91915Y-69822D01*
X91972Y-69851D01*
X92029Y-69908D01*
X92058Y-70022D01*
X92058Y-70222D01*
X92029Y-70337D01*
X91972Y-70394D01*
X91915Y-70422D01*
X91801Y-70422D01*
X91744Y-70394D01*
X91687Y-70337D01*
X91658Y-70222D01*
X91658Y-70022D01*
X91687Y-69908D01*
X91744Y-69851D01*
X91801Y-69822D01*
X92315Y-70422D02*
X92315Y-69822D01*
X92515Y-70251D01*
X92715Y-69822D01*
X92715Y-70422D01*
X93001Y-70422D02*
X93001Y-69822D01*
X93201Y-70251D01*
X93401Y-69822D01*
X93401Y-70422D01*
X93801Y-69822D02*
X93915Y-69822D01*
X93972Y-69851D01*
X94029Y-69908D01*
X94058Y-70022D01*
X94058Y-70222D01*
X94029Y-70337D01*
X93972Y-70394D01*
X93915Y-70422D01*
X93801Y-70422D01*
X93744Y-70394D01*
X93687Y-70337D01*
X93658Y-70222D01*
X93658Y-70022D01*
X93687Y-69908D01*
X93744Y-69851D01*
X93801Y-69822D01*
X94315Y-70422D02*
X94315Y-69822D01*
X94658Y-70422D01*
X94658Y-69822D01*
X94915Y-70394D02*
X95001Y-70422D01*
X95144Y-70422D01*
X95201Y-70394D01*
X95229Y-70365D01*
X95258Y-70308D01*
X95258Y-70251D01*
X95229Y-70194D01*
X95201Y-70165D01*
X95144Y-70137D01*
X95029Y-70108D01*
X94972Y-70080D01*
X94944Y-70051D01*
X94915Y-69994D01*
X94915Y-69937D01*
X94944Y-69880D01*
X94972Y-69851D01*
X95029Y-69822D01*
X95172Y-69822D01*
X95258Y-69851D01*
X96258Y-70422D02*
X95972Y-70422D01*
X95972Y-69822D01*
X96458Y-70422D02*
X96458Y-69822D01*
X97087Y-70365D02*
X97058Y-70394D01*
X96972Y-70422D01*
X96915Y-70422D01*
X96829Y-70394D01*
X96772Y-70337D01*
X96744Y-70280D01*
X96715Y-70165D01*
X96715Y-70080D01*
X96744Y-69965D01*
X96772Y-69908D01*
X96829Y-69851D01*
X96915Y-69822D01*
X96972Y-69822D01*
X97058Y-69851D01*
X97087Y-69880D01*
X97344Y-70108D02*
X97544Y-70108D01*
X97629Y-70422D02*
X97344Y-70422D01*
X97344Y-69822D01*
X97629Y-69822D01*
X97887Y-70422D02*
X97887Y-69822D01*
X98229Y-70422D01*
X98229Y-69822D01*
X98487Y-70394D02*
X98572Y-70422D01*
X98715Y-70422D01*
X98772Y-70394D01*
X98801Y-70365D01*
X98829Y-70308D01*
X98829Y-70251D01*
X98801Y-70194D01*
X98772Y-70165D01*
X98715Y-70137D01*
X98601Y-70108D01*
X98544Y-70080D01*
X98515Y-70051D01*
X98487Y-69994D01*
X98487Y-69937D01*
X98515Y-69880D01*
X98544Y-69851D01*
X98601Y-69822D01*
X98744Y-69822D01*
X98829Y-69851D01*
X99087Y-70108D02*
X99287Y-70108D01*
X99372Y-70422D02*
X99087Y-70422D01*
X99087Y-69822D01*
X99372Y-69822D01*
X100258Y-70651D02*
X100229Y-70622D01*
X100172Y-70537D01*
X100144Y-70480D01*
X100115Y-70394D01*
X100087Y-70251D01*
X100087Y-70137D01*
X100115Y-69994D01*
X100144Y-69908D01*
X100172Y-69851D01*
X100229Y-69765D01*
X100258Y-69737D01*
X100829Y-70365D02*
X100801Y-70394D01*
X100715Y-70422D01*
X100658Y-70422D01*
X100572Y-70394D01*
X100515Y-70337D01*
X100487Y-70280D01*
X100458Y-70165D01*
X100458Y-70080D01*
X100487Y-69965D01*
X100515Y-69908D01*
X100572Y-69851D01*
X100658Y-69822D01*
X100715Y-69822D01*
X100801Y-69851D01*
X100829Y-69880D01*
X101429Y-70365D02*
X101401Y-70394D01*
X101315Y-70422D01*
X101258Y-70422D01*
X101172Y-70394D01*
X101115Y-70337D01*
X101087Y-70280D01*
X101058Y-70165D01*
X101058Y-70080D01*
X101087Y-69965D01*
X101115Y-69908D01*
X101172Y-69851D01*
X101258Y-69822D01*
X101315Y-69822D01*
X101401Y-69851D01*
X101429Y-69880D01*
X102344Y-70108D02*
X102429Y-70137D01*
X102458Y-70165D01*
X102487Y-70222D01*
X102487Y-70308D01*
X102458Y-70365D01*
X102429Y-70394D01*
X102372Y-70422D01*
X102144Y-70422D01*
X102144Y-69822D01*
X102344Y-69822D01*
X102401Y-69851D01*
X102429Y-69880D01*
X102458Y-69937D01*
X102458Y-69994D01*
X102429Y-70051D01*
X102401Y-70080D01*
X102344Y-70108D01*
X102144Y-70108D01*
X102858Y-70137D02*
X102858Y-70422D01*
X102658Y-69822D02*
X102858Y-70137D01*
X103058Y-69822D01*
X103658Y-69822D02*
X104029Y-69822D01*
X103829Y-70051D01*
X103915Y-70051D01*
X103972Y-70080D01*
X104001Y-70108D01*
X104029Y-70165D01*
X104029Y-70308D01*
X104001Y-70365D01*
X103972Y-70394D01*
X103915Y-70422D01*
X103744Y-70422D01*
X103687Y-70394D01*
X103658Y-70365D01*
X104287Y-70365D02*
X104315Y-70394D01*
X104287Y-70422D01*
X104258Y-70394D01*
X104287Y-70365D01*
X104287Y-70422D01*
X104687Y-69822D02*
X104744Y-69822D01*
X104801Y-69851D01*
X104829Y-69880D01*
X104858Y-69937D01*
X104887Y-70051D01*
X104887Y-70194D01*
X104858Y-70308D01*
X104829Y-70365D01*
X104801Y-70394D01*
X104744Y-70422D01*
X104687Y-70422D01*
X104629Y-70394D01*
X104601Y-70365D01*
X104572Y-70308D01*
X104544Y-70194D01*
X104544Y-70051D01*
X104572Y-69937D01*
X104601Y-69880D01*
X104629Y-69851D01*
X104687Y-69822D01*
X105087Y-70651D02*
X105115Y-70622D01*
X105172Y-70537D01*
X105201Y-70480D01*
X105229Y-70394D01*
X105258Y-70251D01*
X105258Y-70137D01*
X105229Y-69994D01*
X105201Y-69908D01*
X105172Y-69851D01*
X105115Y-69765D01*
X105087Y-69737D01*
X71315Y-69165D02*
X71287Y-69194D01*
X71201Y-69222D01*
X71144Y-69222D01*
X71058Y-69194D01*
X71001Y-69137D01*
X70972Y-69080D01*
X70944Y-68965D01*
X70944Y-68880D01*
X70972Y-68765D01*
X71001Y-68708D01*
X71058Y-68651D01*
X71144Y-68622D01*
X71201Y-68622D01*
X71287Y-68651D01*
X71315Y-68680D01*
X71658Y-69222D02*
X71601Y-69194D01*
X71572Y-69165D01*
X71544Y-69108D01*
X71544Y-68937D01*
X71572Y-68880D01*
X71601Y-68851D01*
X71658Y-68822D01*
X71744Y-68822D01*
X71801Y-68851D01*
X71830Y-68880D01*
X71858Y-68937D01*
X71858Y-69108D01*
X71830Y-69165D01*
X71801Y-69194D01*
X71744Y-69222D01*
X71658Y-69222D01*
X72115Y-68822D02*
X72115Y-69422D01*
X72115Y-68851D02*
X72172Y-68822D01*
X72287Y-68822D01*
X72344Y-68851D01*
X72372Y-68880D01*
X72401Y-68937D01*
X72401Y-69108D01*
X72372Y-69165D01*
X72344Y-69194D01*
X72287Y-69222D01*
X72172Y-69222D01*
X72115Y-69194D01*
X72601Y-68822D02*
X72744Y-69222D01*
X72887Y-68822D02*
X72744Y-69222D01*
X72687Y-69365D01*
X72658Y-69394D01*
X72601Y-69422D01*
X73115Y-69222D02*
X73115Y-68822D01*
X73115Y-68937D02*
X73144Y-68880D01*
X73172Y-68851D01*
X73230Y-68822D01*
X73287Y-68822D01*
X73487Y-69222D02*
X73487Y-68822D01*
X73487Y-68622D02*
X73458Y-68651D01*
X73487Y-68680D01*
X73515Y-68651D01*
X73487Y-68622D01*
X73487Y-68680D01*
X74030Y-68822D02*
X74030Y-69308D01*
X74001Y-69365D01*
X73972Y-69394D01*
X73915Y-69422D01*
X73830Y-69422D01*
X73772Y-69394D01*
X74030Y-69194D02*
X73972Y-69222D01*
X73858Y-69222D01*
X73801Y-69194D01*
X73772Y-69165D01*
X73744Y-69108D01*
X73744Y-68937D01*
X73772Y-68880D01*
X73801Y-68851D01*
X73858Y-68822D01*
X73972Y-68822D01*
X74030Y-68851D01*
X74315Y-69222D02*
X74315Y-68622D01*
X74572Y-69222D02*
X74572Y-68908D01*
X74544Y-68851D01*
X74487Y-68822D01*
X74401Y-68822D01*
X74344Y-68851D01*
X74315Y-68880D01*
X74772Y-68822D02*
X75001Y-68822D01*
X74858Y-68622D02*
X74858Y-69137D01*
X74887Y-69194D01*
X74944Y-69222D01*
X75001Y-69222D01*
X75630Y-68680D02*
X75658Y-68651D01*
X75715Y-68622D01*
X75858Y-68622D01*
X75915Y-68651D01*
X75944Y-68680D01*
X75972Y-68737D01*
X75972Y-68794D01*
X75944Y-68880D01*
X75601Y-69222D01*
X75972Y-69222D01*
X76344Y-68622D02*
X76401Y-68622D01*
X76458Y-68651D01*
X76487Y-68680D01*
X76515Y-68737D01*
X76544Y-68851D01*
X76544Y-68994D01*
X76515Y-69108D01*
X76487Y-69165D01*
X76458Y-69194D01*
X76401Y-69222D01*
X76344Y-69222D01*
X76287Y-69194D01*
X76258Y-69165D01*
X76230Y-69108D01*
X76201Y-68994D01*
X76201Y-68851D01*
X76230Y-68737D01*
X76258Y-68680D01*
X76287Y-68651D01*
X76344Y-68622D01*
X77115Y-69222D02*
X76772Y-69222D01*
X76944Y-69222D02*
X76944Y-68622D01*
X76887Y-68708D01*
X76830Y-68765D01*
X76772Y-68794D01*
X77315Y-68622D02*
X77687Y-68622D01*
X77487Y-68851D01*
X77572Y-68851D01*
X77630Y-68880D01*
X77658Y-68908D01*
X77687Y-68965D01*
X77687Y-69108D01*
X77658Y-69165D01*
X77630Y-69194D01*
X77572Y-69222D01*
X77401Y-69222D01*
X77344Y-69194D01*
X77315Y-69165D01*
X78372Y-69051D02*
X78658Y-69051D01*
X78315Y-69222D02*
X78515Y-68622D01*
X78715Y-69222D01*
X78858Y-68622D02*
X79258Y-68622D01*
X78858Y-69222D01*
X79258Y-69222D01*
X79487Y-69222D02*
X79487Y-68622D01*
X79887Y-68622D02*
X80001Y-68622D01*
X80058Y-68651D01*
X80115Y-68708D01*
X80144Y-68822D01*
X80144Y-69022D01*
X80115Y-69137D01*
X80058Y-69194D01*
X80001Y-69222D01*
X79887Y-69222D01*
X79830Y-69194D01*
X79772Y-69137D01*
X79744Y-69022D01*
X79744Y-68822D01*
X79772Y-68708D01*
X79830Y-68651D01*
X79887Y-68622D01*
X80858Y-68908D02*
X81058Y-68908D01*
X81144Y-69222D02*
X80858Y-69222D01*
X80858Y-68622D01*
X81144Y-68622D01*
X81487Y-69222D02*
X81430Y-69194D01*
X81401Y-69137D01*
X81401Y-68622D01*
X81944Y-69194D02*
X81887Y-69222D01*
X81772Y-69222D01*
X81715Y-69194D01*
X81687Y-69137D01*
X81687Y-68908D01*
X81715Y-68851D01*
X81772Y-68822D01*
X81887Y-68822D01*
X81944Y-68851D01*
X81972Y-68908D01*
X81972Y-68965D01*
X81687Y-69022D01*
X82487Y-69194D02*
X82430Y-69222D01*
X82315Y-69222D01*
X82258Y-69194D01*
X82230Y-69165D01*
X82201Y-69108D01*
X82201Y-68937D01*
X82230Y-68880D01*
X82258Y-68851D01*
X82315Y-68822D01*
X82430Y-68822D01*
X82487Y-68851D01*
X82658Y-68822D02*
X82887Y-68822D01*
X82744Y-68622D02*
X82744Y-69137D01*
X82772Y-69194D01*
X82830Y-69222D01*
X82887Y-69222D01*
X83087Y-69222D02*
X83087Y-68822D01*
X83087Y-68937D02*
X83115Y-68880D01*
X83144Y-68851D01*
X83201Y-68822D01*
X83258Y-68822D01*
X83544Y-69222D02*
X83487Y-69194D01*
X83458Y-69165D01*
X83430Y-69108D01*
X83430Y-68937D01*
X83458Y-68880D01*
X83487Y-68851D01*
X83544Y-68822D01*
X83630Y-68822D01*
X83687Y-68851D01*
X83715Y-68880D01*
X83744Y-68937D01*
X83744Y-69108D01*
X83715Y-69165D01*
X83687Y-69194D01*
X83630Y-69222D01*
X83544Y-69222D01*
X84001Y-68822D02*
X84001Y-69222D01*
X84001Y-68880D02*
X84030Y-68851D01*
X84087Y-68822D01*
X84172Y-68822D01*
X84230Y-68851D01*
X84258Y-68908D01*
X84258Y-69222D01*
X84544Y-69222D02*
X84544Y-68822D01*
X84544Y-68622D02*
X84515Y-68651D01*
X84544Y-68680D01*
X84572Y-68651D01*
X84544Y-68622D01*
X84544Y-68680D01*
X85087Y-69194D02*
X85030Y-69222D01*
X84915Y-69222D01*
X84858Y-69194D01*
X84830Y-69165D01*
X84801Y-69108D01*
X84801Y-68937D01*
X84830Y-68880D01*
X84858Y-68851D01*
X84915Y-68822D01*
X85030Y-68822D01*
X85087Y-68851D01*
X85315Y-69194D02*
X85372Y-69222D01*
X85487Y-69222D01*
X85544Y-69194D01*
X85572Y-69137D01*
X85572Y-69108D01*
X85544Y-69051D01*
X85487Y-69022D01*
X85401Y-69022D01*
X85344Y-68994D01*
X85315Y-68937D01*
X85315Y-68908D01*
X85344Y-68851D01*
X85401Y-68822D01*
X85487Y-68822D01*
X85544Y-68851D01*
X86630Y-69165D02*
X86601Y-69194D01*
X86515Y-69222D01*
X86458Y-69222D01*
X86372Y-69194D01*
X86315Y-69137D01*
X86287Y-69080D01*
X86258Y-68965D01*
X86258Y-68880D01*
X86287Y-68765D01*
X86315Y-68708D01*
X86372Y-68651D01*
X86458Y-68622D01*
X86515Y-68622D01*
X86601Y-68651D01*
X86630Y-68680D01*
X86972Y-69222D02*
X86915Y-69194D01*
X86887Y-69165D01*
X86858Y-69108D01*
X86858Y-68937D01*
X86887Y-68880D01*
X86915Y-68851D01*
X86972Y-68822D01*
X87058Y-68822D01*
X87115Y-68851D01*
X87144Y-68880D01*
X87172Y-68937D01*
X87172Y-69108D01*
X87144Y-69165D01*
X87115Y-69194D01*
X87058Y-69222D01*
X86972Y-69222D01*
X87430Y-69165D02*
X87458Y-69194D01*
X87430Y-69222D01*
X87401Y-69194D01*
X87430Y-69165D01*
X87430Y-69222D01*
X87744Y-69194D02*
X87744Y-69222D01*
X87715Y-69280D01*
X87687Y-69308D01*
X88744Y-69222D02*
X88458Y-69222D01*
X88458Y-68622D01*
X88858Y-68822D02*
X89087Y-68822D01*
X88944Y-68622D02*
X88944Y-69137D01*
X88972Y-69194D01*
X89030Y-69222D01*
X89087Y-69222D01*
X89544Y-69222D02*
X89544Y-68622D01*
X89544Y-69194D02*
X89487Y-69222D01*
X89372Y-69222D01*
X89315Y-69194D01*
X89287Y-69165D01*
X89258Y-69108D01*
X89258Y-68937D01*
X89287Y-68880D01*
X89315Y-68851D01*
X89372Y-68822D01*
X89487Y-68822D01*
X89544Y-68851D01*
X89830Y-69165D02*
X89858Y-69194D01*
X89830Y-69222D01*
X89801Y-69194D01*
X89830Y-69165D01*
X89830Y-69222D01*
X70230Y-68380D02*
X70230Y-77980D01*
X70230Y-71980D02*
X112230Y-71980D01*
X70230Y-68380D02*
X112230Y-68380D01*
X70230Y-74380D02*
X112230Y-74380D01*
X103430Y-75580D02*
X103430Y-77980D01*
X70230Y-76780D02*
X112230Y-76780D01*
X70230Y-75580D02*
X112230Y-75580D01*
X76830Y-75580D02*
X76830Y-76780D01*
G54D11*
X68897Y-23031D02*
G75*
G03X69881Y-24015I984J0D01*
G74*
G01*
X68897Y-23031D02*
G75*
G03X67913Y-22047I-984J0D01*
G74*
G01*
X34842Y-22047D02*
G75*
G03X33858Y-23031I0J-984D01*
G74*
G01*
X33858Y-51771D02*
G75*
G03X34842Y-52755I984J0D01*
G74*
G01*
X67913Y-52755D02*
G75*
G03X68897Y-51771I0J984D01*
G74*
G01*
X69881Y-50787D02*
G75*
G03X68897Y-51771I0J-984D01*
G74*
G01*
X75000Y-50787D02*
G75*
G03X75984Y-49803I0J984D01*
G74*
G01*
X75984Y-25000D02*
G75*
G03X75000Y-24015I-984J0D01*
G74*
G01*
X69881Y-50787D02*
X75000Y-50787D01*
X69881Y-24015D02*
X75000Y-24015D01*
X75984Y-25000D02*
X75984Y-49803D01*
X34842Y-22047D02*
X67913Y-22047D01*
X33858Y-51771D02*
X33858Y-23031D01*
X34842Y-52755D02*
X67913Y-52755D01*
G54D12*
X56630Y-41889D02*
G75*
G03X56630Y-41889I-55J0D01*
G74*
G01*
G54D13*
X55827Y-40472D02*
X56811Y-40472D01*
X56811Y-40472D02*
X56811Y-42125D01*
X55827Y-42125D02*
X55827Y-40472D01*
X56811Y-42125D02*
X55827Y-42125D01*
X50196Y-47322D02*
X47756Y-47322D01*
X47756Y-47322D02*
X47756Y-44488D01*
X47756Y-44488D02*
X50196Y-44488D01*
X50196Y-44488D02*
X50196Y-47322D01*
X47756Y-44488D02*
X50196Y-44488D01*
X50196Y-44488D02*
X50196Y-47322D01*
X50196Y-47322D02*
X47756Y-47322D01*
X47756Y-47322D02*
X47756Y-44488D01*
G54D11*
X57366Y-32759D02*
X57366Y-32366D01*
X57377Y-33433D02*
X57377Y-33039D01*
X51145Y-49755D02*
X51145Y-49599D01*
X49526Y-48818D02*
X49370Y-48818D01*
X68011Y-32164D02*
X68011Y-32008D01*
X68011Y-38759D02*
X68011Y-38603D01*
X49133Y-48818D02*
X48977Y-48818D01*
X47322Y-50079D02*
X47322Y-50235D01*
X48583Y-48818D02*
X48739Y-48818D01*
X47322Y-51101D02*
X47322Y-50945D01*
X49764Y-51968D02*
X49920Y-51968D01*
X47322Y-50473D02*
X47322Y-50629D01*
G54D14*
X54296Y-36582D02*
X54570Y-36582D01*
X55066Y-41476D02*
X54792Y-41476D01*
X55255Y-33149D02*
X54981Y-33149D01*
X57079Y-36637D02*
X57353Y-36637D01*
X56288Y-36637D02*
X56562Y-36637D01*
X55126Y-36594D02*
X55400Y-36594D01*
X55885Y-33149D02*
X55611Y-33149D01*
X47341Y-44606D02*
X47067Y-44606D01*
X50551Y-51337D02*
X50551Y-51181D01*
X50275Y-49759D02*
X50275Y-49603D01*
X50279Y-48963D02*
X50279Y-48807D01*
X47795Y-49449D02*
X47795Y-49605D01*
X50279Y-48566D02*
X50279Y-48410D01*
X47795Y-49054D02*
X47795Y-48898D01*
X49213Y-51968D02*
X49369Y-51968D01*
X50551Y-50786D02*
X50551Y-50630D01*
X48662Y-51968D02*
X48818Y-51968D01*
G54D11*
X44291Y-43002D02*
X44291Y-43158D01*
X44291Y-36309D02*
X44291Y-36465D01*
G54D15*
X44291Y-32382D02*
X44291Y-33050D01*
X44291Y-33760D02*
X44291Y-34428D01*
X44291Y-35040D02*
X44291Y-35708D01*
X44291Y-39075D02*
X44291Y-39743D01*
X44291Y-40453D02*
X44291Y-41121D01*
X44291Y-41732D02*
X44291Y-42400D01*
X68011Y-36318D02*
X68011Y-35650D01*
X68011Y-34743D02*
X68011Y-34075D01*
X68011Y-33463D02*
X68011Y-32795D01*
X68011Y-43109D02*
X68011Y-42441D01*
X68011Y-41633D02*
X68011Y-40965D01*
X68011Y-40156D02*
X68011Y-39488D01*
G54D11*
X57401Y-49528D02*
X57401Y-49684D01*
X57401Y-49922D02*
X57401Y-50078D01*
X57838Y-48697D02*
X57838Y-48853D01*
X57401Y-51103D02*
X57401Y-51259D01*
X57401Y-50709D02*
X57401Y-50865D01*
X57401Y-50315D02*
X57401Y-50471D01*
X54803Y-48582D02*
X54959Y-48582D01*
X57795Y-49134D02*
X57795Y-49290D01*
X56772Y-48582D02*
X56928Y-48582D01*
X56378Y-48582D02*
X56534Y-48582D01*
X55984Y-48582D02*
X56140Y-48582D01*
X55591Y-48582D02*
X55747Y-48582D01*
X55197Y-48582D02*
X55353Y-48582D01*
X66358Y-48837D02*
X66358Y-48681D01*
X61456Y-49301D02*
X61456Y-49457D01*
X61456Y-48947D02*
X61456Y-49103D01*
X60551Y-48503D02*
X60551Y-48347D01*
X60551Y-49054D02*
X60551Y-48898D01*
G54D14*
X64113Y-48976D02*
X63839Y-48976D01*
X61456Y-50924D02*
X61456Y-50768D01*
X59921Y-52046D02*
X59921Y-51890D01*
X61456Y-49841D02*
X61456Y-49685D01*
X61456Y-51465D02*
X61456Y-51309D01*
X66387Y-50452D02*
X66387Y-50296D01*
X62559Y-50591D02*
X62559Y-50747D01*
X61338Y-48503D02*
X61338Y-48347D01*
X63542Y-49055D02*
X63386Y-49055D01*
X66211Y-49448D02*
X66367Y-49448D01*
G54D11*
X63267Y-47953D02*
X63267Y-48109D01*
X62964Y-48496D02*
X62964Y-48652D01*
X57205Y-48592D02*
X57361Y-48592D01*
G54D16*
X37132Y-25400D02*
X34455Y-25400D01*
X37132Y-49455D02*
X34455Y-49455D01*
X34455Y-25400D02*
X34455Y-49455D01*
X37762Y-26108D02*
X37762Y-48746D01*
X37133Y-49453D02*
X37763Y-48745D01*
X37132Y-25400D02*
X37762Y-26108D01*
X65846Y-49045D02*
X65216Y-49045D01*
X65216Y-49045D02*
X65216Y-49163D01*
X65216Y-49163D02*
X65019Y-49163D01*
X65019Y-49163D02*
X65019Y-49045D01*
X65019Y-49045D02*
X64350Y-49045D01*
X64350Y-49045D02*
X64350Y-49951D01*
X64350Y-49951D02*
X65846Y-49951D01*
X65846Y-49951D02*
X65846Y-49045D01*
G54D17*
X56799Y-31670D02*
X56724Y-31670D01*
X56724Y-31670D02*
X56724Y-30920D01*
X56724Y-30920D02*
X56724Y-29920D01*
X56724Y-29920D02*
X57874Y-29920D01*
X57874Y-29920D02*
X57874Y-31670D01*
X57874Y-31670D02*
X57349Y-31670D01*
X57349Y-31670D02*
X56799Y-31670D01*
X54519Y-31686D02*
X54444Y-31686D01*
X54444Y-31686D02*
X54444Y-30936D01*
X54444Y-30936D02*
X54444Y-29936D01*
X54444Y-29936D02*
X55594Y-29936D01*
X55594Y-29936D02*
X55594Y-31686D01*
X55594Y-31686D02*
X55069Y-31686D01*
X55069Y-31686D02*
X54519Y-31686D01*
X64618Y-30638D02*
X64543Y-30638D01*
X64543Y-30638D02*
X64543Y-29888D01*
X64543Y-29888D02*
X64543Y-28888D01*
X64543Y-28888D02*
X65693Y-28888D01*
X65693Y-28888D02*
X65693Y-30638D01*
X65693Y-30638D02*
X65168Y-30638D01*
X65168Y-30638D02*
X64618Y-30638D01*
X62492Y-30638D02*
X62417Y-30638D01*
X62417Y-30638D02*
X62417Y-29888D01*
X62417Y-29888D02*
X62417Y-28888D01*
X62417Y-28888D02*
X63567Y-28888D01*
X63567Y-28888D02*
X63567Y-30638D01*
X63567Y-30638D02*
X63042Y-30638D01*
X63042Y-30638D02*
X62492Y-30638D01*
G54D11*
X57326Y-52558D02*
X57326Y-52402D01*
X57330Y-52066D02*
X57330Y-51910D01*
X57559Y-51692D02*
X57559Y-51536D01*
X58216Y-52062D02*
X58216Y-51906D01*
X58168Y-51137D02*
X58012Y-51137D01*
X58192Y-52558D02*
X58192Y-52402D01*
G54D10*
X49852Y-50068D02*
X49498Y-49714D01*
X49498Y-49714D02*
X48120Y-49714D01*
X49852Y-51446D02*
X49852Y-50068D01*
X48120Y-49714D02*
X48120Y-51446D01*
X48120Y-51446D02*
X49852Y-51446D01*
G54D11*
X60452Y-51122D02*
G75*
G03X60452Y-51122I-39J0D01*
G74*
G01*
X60472Y-51456D02*
X58622Y-51456D01*
X58622Y-51456D02*
X58622Y-49330D01*
X58622Y-49330D02*
X60748Y-49330D01*
X60748Y-49330D02*
X60748Y-51181D01*
X60748Y-51181D02*
X60472Y-51456D01*
G54D18*
X63755Y-52163D02*
X63855Y-52163D01*
X63755Y-51163D02*
X63855Y-51163D01*
X66605Y-51163D02*
X66755Y-51163D01*
X66755Y-52163D02*
X66605Y-52163D01*
X66755Y-51163D02*
G75*
G02X66805Y-51213I0J-50D01*
G74*
G01*
X66805Y-52113D02*
G75*
G02X66755Y-52163I-50J0D01*
G74*
G01*
X63705Y-51213D02*
G75*
G02X63755Y-51163I50J0D01*
G74*
G01*
X63755Y-52163D02*
G75*
G02X63705Y-52113I0J50D01*
G74*
G01*
X63855Y-52463D02*
X63605Y-52463D01*
X63605Y-50863D02*
X63855Y-50863D01*
X66605Y-50863D02*
X66905Y-50863D01*
X66905Y-50863D02*
G75*
G02X67255Y-51213I0J-350D01*
G74*
G01*
X63255Y-51213D02*
G75*
G02X63605Y-50863I350J0D01*
G74*
G01*
X67255Y-52113D02*
G75*
G02X66905Y-52463I-350J0D01*
G74*
G01*
X66605Y-52463D02*
X66905Y-52463D01*
X67255Y-52113D02*
G75*
G02X66905Y-52463I-350J0D01*
G74*
G01*
X63605Y-52463D02*
G75*
G02X63255Y-52113I0J350D01*
G74*
G01*
G54D19*
X67405Y-50713D02*
G75*
G02X67505Y-50813I0J-100D01*
G74*
G01*
X67505Y-52513D02*
G75*
G02X67405Y-52613I-100J0D01*
G74*
G01*
X63005Y-50813D02*
G75*
G02X63105Y-50713I100J0D01*
G74*
G01*
X63105Y-52613D02*
G75*
G02X63005Y-52513I0J100D01*
G74*
G01*
X67405Y-52613D02*
X63105Y-52613D01*
X67405Y-50713D02*
X63105Y-50713D01*
X67505Y-52113D02*
X67505Y-52513D01*
X67505Y-51213D02*
X67505Y-50813D01*
X63005Y-52113D02*
X63005Y-52513D01*
X63005Y-51213D02*
X63005Y-50813D01*
G54D18*
X66605Y-52463D02*
X63855Y-52463D01*
X63955Y-50863D02*
X66605Y-50863D01*
X63855Y-50863D02*
X63955Y-50863D01*
X66605Y-52163D02*
X63855Y-52163D01*
X63855Y-51163D02*
X66605Y-51163D01*
X65005Y-51663D02*
X64805Y-51663D01*
X65505Y-51663D02*
X65705Y-51663D01*
G54D19*
X65005Y-51913D02*
X65005Y-51413D01*
X65505Y-51913D02*
X65505Y-51413D01*
X65155Y-51913D02*
X65355Y-51913D01*
X65355Y-51913D02*
X65355Y-51413D01*
X65355Y-51413D02*
X65155Y-51413D01*
X65155Y-51413D02*
X65155Y-51913D01*
G54D13*
X47440Y-46023D02*
X46968Y-46023D01*
G54D11*
X54732Y-42728D02*
X55125Y-42728D01*
X56456Y-39094D02*
X56456Y-39488D01*
X56456Y-38228D02*
X56456Y-38622D01*
X58122Y-35145D02*
X58515Y-35145D01*
X57421Y-34515D02*
X57814Y-34515D01*
X54271Y-34271D02*
X54665Y-34271D01*
X53582Y-34921D02*
X53976Y-34921D01*
G54D10*
X75330Y-48622D02*
X69551Y-48622D01*
X75330Y-48622D02*
X75330Y-26181D01*
X75330Y-26181D02*
X69551Y-26181D01*
X69551Y-26181D02*
X69551Y-48622D01*
X55456Y-33972D02*
X55102Y-34326D01*
X55102Y-34326D02*
X55102Y-35704D01*
X56834Y-33972D02*
X55456Y-33972D01*
X55102Y-35704D02*
X56834Y-35704D01*
X56834Y-35704D02*
X56834Y-33972D01*
G54D13*
X63090Y-27366D02*
X63090Y-27838D01*
G54D11*
X58858Y-51802D02*
X58858Y-51646D01*
X59019Y-52290D02*
X59019Y-52134D01*
X64256Y-46125D02*
X64412Y-46125D01*
X63677Y-46129D02*
X63833Y-46129D01*
X60826Y-27574D02*
X60826Y-27418D01*
X61669Y-27418D02*
X61669Y-27574D01*
X62027Y-28370D02*
X62027Y-28526D01*
G54D14*
X61224Y-28370D02*
X61224Y-28526D01*
X63763Y-26243D02*
X63763Y-26087D01*
X64034Y-26870D02*
X63878Y-26870D01*
G54D16*
X63083Y-26716D02*
X63083Y-25240D01*
X63083Y-25240D02*
X62945Y-25240D01*
X62945Y-25240D02*
X62945Y-25043D01*
X62945Y-25043D02*
X63083Y-25043D01*
X63083Y-25043D02*
X63083Y-23587D01*
X63083Y-23587D02*
X61153Y-23587D01*
X61153Y-23587D02*
X61153Y-26716D01*
X61153Y-26716D02*
X63083Y-26716D01*
G54D11*
X49488Y-38503D02*
X49488Y-43346D01*
X49488Y-43346D02*
X45984Y-43346D01*
X45984Y-43346D02*
X45984Y-38503D01*
X45984Y-38503D02*
X47559Y-38503D01*
X47559Y-38503D02*
X47559Y-38661D01*
X47559Y-38661D02*
X47952Y-38661D01*
X47952Y-38661D02*
X47952Y-38503D01*
X47952Y-38503D02*
X49488Y-38503D01*
X49488Y-32106D02*
X49488Y-36948D01*
X49488Y-36948D02*
X45984Y-36948D01*
X45984Y-36948D02*
X45984Y-32106D01*
X45984Y-32106D02*
X47559Y-32106D01*
X47559Y-32106D02*
X47559Y-32263D01*
X47559Y-32263D02*
X47952Y-32263D01*
X47952Y-32263D02*
X47952Y-32106D01*
X47952Y-32106D02*
X49488Y-32106D01*
X62755Y-36677D02*
X62755Y-31834D01*
X62755Y-31834D02*
X66259Y-31834D01*
X66259Y-31834D02*
X66259Y-36677D01*
X66259Y-36677D02*
X64685Y-36677D01*
X64685Y-36677D02*
X64685Y-36519D01*
X64685Y-36519D02*
X64291Y-36519D01*
X64291Y-36519D02*
X64291Y-36677D01*
X64291Y-36677D02*
X62755Y-36677D01*
X62783Y-44228D02*
X62783Y-39385D01*
X62783Y-39385D02*
X66287Y-39385D01*
X66287Y-39385D02*
X66287Y-44228D01*
X66287Y-44228D02*
X64712Y-44228D01*
X64712Y-44228D02*
X64712Y-44070D01*
X64712Y-44070D02*
X64318Y-44070D01*
X64318Y-44070D02*
X64318Y-44228D01*
X64318Y-44228D02*
X62783Y-44228D01*
X62437Y-47307D02*
X62437Y-47463D01*
G54D10*
X55332Y-40959D02*
X55651Y-40959D01*
X55688Y-40978D01*
X55707Y-40997D01*
X55726Y-41034D01*
X55726Y-41109D01*
X55707Y-41147D01*
X55688Y-41166D01*
X55651Y-41184D01*
X55332Y-41184D01*
X55370Y-41353D02*
X55351Y-41372D01*
X55332Y-41409D01*
X55332Y-41503D01*
X55351Y-41541D01*
X55370Y-41559D01*
X55407Y-41578D01*
X55445Y-41578D01*
X55501Y-41559D01*
X55726Y-41334D01*
X55726Y-41578D01*
X56712Y-42773D02*
X56712Y-42867D01*
X56806Y-42829D02*
X56712Y-42867D01*
X56618Y-42829D01*
X56768Y-42942D02*
X56712Y-42867D01*
X56656Y-42942D01*
X49188Y-43820D02*
X49188Y-44139D01*
X49169Y-44176D01*
X49150Y-44195D01*
X49113Y-44214D01*
X49038Y-44214D01*
X49000Y-44195D01*
X48982Y-44176D01*
X48963Y-44139D01*
X48963Y-43820D01*
X48569Y-44214D02*
X48794Y-44214D01*
X48682Y-44214D02*
X48682Y-43820D01*
X48719Y-43877D01*
X48757Y-43914D01*
X48794Y-43933D01*
X48419Y-43858D02*
X48400Y-43839D01*
X48363Y-43820D01*
X48269Y-43820D01*
X48232Y-43839D01*
X48213Y-43858D01*
X48194Y-43895D01*
X48194Y-43933D01*
X48213Y-43989D01*
X48438Y-44214D01*
X48194Y-44214D01*
X47757Y-47559D02*
X47851Y-47559D01*
X47814Y-47465D02*
X47851Y-47559D01*
X47814Y-47652D01*
X47926Y-47502D02*
X47851Y-47559D01*
X47926Y-47615D01*
X50134Y-43824D02*
X50134Y-44143D01*
X50115Y-44180D01*
X50097Y-44199D01*
X50059Y-44218D01*
X49984Y-44218D01*
X49947Y-44199D01*
X49928Y-44180D01*
X49909Y-44143D01*
X49909Y-43824D01*
X49515Y-44218D02*
X49740Y-44218D01*
X49628Y-44218D02*
X49628Y-43824D01*
X49665Y-43880D01*
X49703Y-43918D01*
X49740Y-43937D01*
X48072Y-47559D02*
X48166Y-47559D01*
X48128Y-47465D02*
X48166Y-47559D01*
X48128Y-47652D01*
X48241Y-47502D02*
X48166Y-47559D01*
X48241Y-47615D01*
X58313Y-32666D02*
X58392Y-32553D01*
X58448Y-32666D02*
X58448Y-32430D01*
X58358Y-32430D01*
X58335Y-32441D01*
X58324Y-32452D01*
X58313Y-32475D01*
X58313Y-32508D01*
X58324Y-32531D01*
X58335Y-32542D01*
X58358Y-32553D01*
X58448Y-32553D01*
X58088Y-32666D02*
X58223Y-32666D01*
X58155Y-32666D02*
X58155Y-32430D01*
X58178Y-32464D01*
X58200Y-32486D01*
X58223Y-32497D01*
X57998Y-32452D02*
X57987Y-32441D01*
X57964Y-32430D01*
X57908Y-32430D01*
X57885Y-32441D01*
X57874Y-32452D01*
X57863Y-32475D01*
X57863Y-32497D01*
X57874Y-32531D01*
X58009Y-32666D01*
X57863Y-32666D01*
X58329Y-33327D02*
X58407Y-33215D01*
X58464Y-33327D02*
X58464Y-33091D01*
X58374Y-33091D01*
X58351Y-33102D01*
X58340Y-33114D01*
X58329Y-33136D01*
X58329Y-33170D01*
X58340Y-33192D01*
X58351Y-33204D01*
X58374Y-33215D01*
X58464Y-33215D01*
X58104Y-33327D02*
X58239Y-33327D01*
X58171Y-33327D02*
X58171Y-33091D01*
X58194Y-33125D01*
X58216Y-33147D01*
X58239Y-33159D01*
X58025Y-33091D02*
X57879Y-33091D01*
X57957Y-33181D01*
X57924Y-33181D01*
X57901Y-33192D01*
X57890Y-33204D01*
X57879Y-33226D01*
X57879Y-33282D01*
X57890Y-33305D01*
X57901Y-33316D01*
X57924Y-33327D01*
X57991Y-33327D01*
X58014Y-33316D01*
X58025Y-33305D01*
X51297Y-49508D02*
X51376Y-49396D01*
X51432Y-49508D02*
X51432Y-49272D01*
X51342Y-49272D01*
X51320Y-49284D01*
X51308Y-49295D01*
X51297Y-49317D01*
X51297Y-49351D01*
X51308Y-49374D01*
X51320Y-49385D01*
X51342Y-49396D01*
X51432Y-49396D01*
X51218Y-49272D02*
X51072Y-49272D01*
X51151Y-49362D01*
X51117Y-49362D01*
X51095Y-49374D01*
X51083Y-49385D01*
X51072Y-49407D01*
X51072Y-49464D01*
X51083Y-49486D01*
X51095Y-49497D01*
X51117Y-49508D01*
X51185Y-49508D01*
X51207Y-49497D01*
X51218Y-49486D01*
X50937Y-49374D02*
X50960Y-49362D01*
X50971Y-49351D01*
X50982Y-49329D01*
X50982Y-49317D01*
X50971Y-49295D01*
X50960Y-49284D01*
X50937Y-49272D01*
X50892Y-49272D01*
X50870Y-49284D01*
X50858Y-49295D01*
X50847Y-49317D01*
X50847Y-49329D01*
X50858Y-49351D01*
X50870Y-49362D01*
X50892Y-49374D01*
X50937Y-49374D01*
X50960Y-49385D01*
X50971Y-49396D01*
X50982Y-49419D01*
X50982Y-49464D01*
X50971Y-49486D01*
X50960Y-49497D01*
X50937Y-49508D01*
X50892Y-49508D01*
X50870Y-49497D01*
X50858Y-49486D01*
X50847Y-49464D01*
X50847Y-49419D01*
X50858Y-49396D01*
X50870Y-49385D01*
X50892Y-49374D01*
X49560Y-48021D02*
X49447Y-47942D01*
X49560Y-47886D02*
X49323Y-47886D01*
X49323Y-47976D01*
X49335Y-47998D01*
X49346Y-48010D01*
X49368Y-48021D01*
X49402Y-48021D01*
X49425Y-48010D01*
X49436Y-47998D01*
X49447Y-47976D01*
X49447Y-47886D01*
X49323Y-48100D02*
X49323Y-48246D01*
X49413Y-48167D01*
X49413Y-48201D01*
X49425Y-48223D01*
X49436Y-48235D01*
X49458Y-48246D01*
X49515Y-48246D01*
X49537Y-48235D01*
X49548Y-48223D01*
X49560Y-48201D01*
X49560Y-48133D01*
X49548Y-48111D01*
X49537Y-48100D01*
X49323Y-48460D02*
X49323Y-48347D01*
X49436Y-48336D01*
X49425Y-48347D01*
X49413Y-48370D01*
X49413Y-48426D01*
X49425Y-48448D01*
X49436Y-48460D01*
X49458Y-48471D01*
X49515Y-48471D01*
X49537Y-48460D01*
X49548Y-48448D01*
X49560Y-48426D01*
X49560Y-48370D01*
X49548Y-48347D01*
X49537Y-48336D01*
X68163Y-31918D02*
X68242Y-31805D01*
X68298Y-31918D02*
X68298Y-31682D01*
X68208Y-31682D01*
X68186Y-31693D01*
X68174Y-31704D01*
X68163Y-31727D01*
X68163Y-31760D01*
X68174Y-31783D01*
X68186Y-31794D01*
X68208Y-31805D01*
X68298Y-31805D01*
X68073Y-31704D02*
X68062Y-31693D01*
X68039Y-31682D01*
X67983Y-31682D01*
X67961Y-31693D01*
X67949Y-31704D01*
X67938Y-31727D01*
X67938Y-31749D01*
X67949Y-31783D01*
X68084Y-31918D01*
X67938Y-31918D01*
X67803Y-31783D02*
X67826Y-31772D01*
X67837Y-31760D01*
X67848Y-31738D01*
X67848Y-31727D01*
X67837Y-31704D01*
X67826Y-31693D01*
X67803Y-31682D01*
X67758Y-31682D01*
X67736Y-31693D01*
X67724Y-31704D01*
X67713Y-31727D01*
X67713Y-31738D01*
X67724Y-31760D01*
X67736Y-31772D01*
X67758Y-31783D01*
X67803Y-31783D01*
X67826Y-31794D01*
X67837Y-31805D01*
X67848Y-31828D01*
X67848Y-31873D01*
X67837Y-31895D01*
X67826Y-31907D01*
X67803Y-31918D01*
X67758Y-31918D01*
X67736Y-31907D01*
X67724Y-31895D01*
X67713Y-31873D01*
X67713Y-31828D01*
X67724Y-31805D01*
X67736Y-31794D01*
X67758Y-31783D01*
X68159Y-38508D02*
X68238Y-38396D01*
X68294Y-38508D02*
X68294Y-38272D01*
X68204Y-38272D01*
X68182Y-38284D01*
X68170Y-38295D01*
X68159Y-38317D01*
X68159Y-38351D01*
X68170Y-38374D01*
X68182Y-38385D01*
X68204Y-38396D01*
X68294Y-38396D01*
X68080Y-38272D02*
X67934Y-38272D01*
X68013Y-38362D01*
X67979Y-38362D01*
X67957Y-38374D01*
X67946Y-38385D01*
X67934Y-38407D01*
X67934Y-38464D01*
X67946Y-38486D01*
X67957Y-38497D01*
X67979Y-38508D01*
X68047Y-38508D01*
X68069Y-38497D01*
X68080Y-38486D01*
X67844Y-38295D02*
X67833Y-38284D01*
X67811Y-38272D01*
X67754Y-38272D01*
X67732Y-38284D01*
X67721Y-38295D01*
X67709Y-38317D01*
X67709Y-38340D01*
X67721Y-38374D01*
X67856Y-38508D01*
X67709Y-38508D01*
X49150Y-48017D02*
X49038Y-47938D01*
X49150Y-47882D02*
X48914Y-47882D01*
X48914Y-47972D01*
X48925Y-47994D01*
X48937Y-48006D01*
X48959Y-48017D01*
X48993Y-48017D01*
X49015Y-48006D01*
X49026Y-47994D01*
X49038Y-47972D01*
X49038Y-47882D01*
X48914Y-48096D02*
X48914Y-48242D01*
X49004Y-48163D01*
X49004Y-48197D01*
X49015Y-48219D01*
X49026Y-48231D01*
X49049Y-48242D01*
X49105Y-48242D01*
X49128Y-48231D01*
X49139Y-48219D01*
X49150Y-48197D01*
X49150Y-48129D01*
X49139Y-48107D01*
X49128Y-48096D01*
X48914Y-48321D02*
X48914Y-48478D01*
X49150Y-48377D01*
X46840Y-50253D02*
X46919Y-50140D01*
X46975Y-50253D02*
X46975Y-50016D01*
X46885Y-50016D01*
X46863Y-50028D01*
X46852Y-50039D01*
X46840Y-50061D01*
X46840Y-50095D01*
X46852Y-50118D01*
X46863Y-50129D01*
X46885Y-50140D01*
X46975Y-50140D01*
X46762Y-50016D02*
X46615Y-50016D01*
X46694Y-50106D01*
X46660Y-50106D01*
X46638Y-50118D01*
X46627Y-50129D01*
X46615Y-50151D01*
X46615Y-50208D01*
X46627Y-50230D01*
X46638Y-50241D01*
X46660Y-50253D01*
X46728Y-50253D01*
X46750Y-50241D01*
X46762Y-50230D01*
X46413Y-50016D02*
X46458Y-50016D01*
X46480Y-50028D01*
X46492Y-50039D01*
X46514Y-50073D01*
X46525Y-50118D01*
X46525Y-50208D01*
X46514Y-50230D01*
X46503Y-50241D01*
X46480Y-50253D01*
X46435Y-50253D01*
X46413Y-50241D01*
X46402Y-50230D01*
X46390Y-50208D01*
X46390Y-50151D01*
X46402Y-50129D01*
X46413Y-50118D01*
X46435Y-50106D01*
X46480Y-50106D01*
X46503Y-50118D01*
X46514Y-50129D01*
X46525Y-50151D01*
X48757Y-48021D02*
X48644Y-47942D01*
X48757Y-47886D02*
X48520Y-47886D01*
X48520Y-47976D01*
X48532Y-47998D01*
X48543Y-48010D01*
X48565Y-48021D01*
X48599Y-48021D01*
X48622Y-48010D01*
X48633Y-47998D01*
X48644Y-47976D01*
X48644Y-47886D01*
X48520Y-48100D02*
X48520Y-48246D01*
X48610Y-48167D01*
X48610Y-48201D01*
X48622Y-48223D01*
X48633Y-48235D01*
X48655Y-48246D01*
X48712Y-48246D01*
X48734Y-48235D01*
X48745Y-48223D01*
X48757Y-48201D01*
X48757Y-48133D01*
X48745Y-48111D01*
X48734Y-48100D01*
X48520Y-48325D02*
X48520Y-48471D01*
X48610Y-48392D01*
X48610Y-48426D01*
X48622Y-48448D01*
X48633Y-48460D01*
X48655Y-48471D01*
X48712Y-48471D01*
X48734Y-48460D01*
X48745Y-48448D01*
X48757Y-48426D01*
X48757Y-48358D01*
X48745Y-48336D01*
X48734Y-48325D01*
X46840Y-51119D02*
X46919Y-51006D01*
X46975Y-51119D02*
X46975Y-50883D01*
X46885Y-50883D01*
X46863Y-50894D01*
X46852Y-50905D01*
X46840Y-50928D01*
X46840Y-50961D01*
X46852Y-50984D01*
X46863Y-50995D01*
X46885Y-51006D01*
X46975Y-51006D01*
X46762Y-50883D02*
X46615Y-50883D01*
X46694Y-50973D01*
X46660Y-50973D01*
X46638Y-50984D01*
X46627Y-50995D01*
X46615Y-51017D01*
X46615Y-51074D01*
X46627Y-51096D01*
X46638Y-51107D01*
X46660Y-51119D01*
X46728Y-51119D01*
X46750Y-51107D01*
X46762Y-51096D01*
X46413Y-50961D02*
X46413Y-51119D01*
X46469Y-50871D02*
X46525Y-51040D01*
X46379Y-51040D01*
X49566Y-51779D02*
X49566Y-51700D01*
X49690Y-51700D02*
X49453Y-51700D01*
X49453Y-51813D01*
X49566Y-51982D02*
X49577Y-52015D01*
X49588Y-52026D01*
X49611Y-52038D01*
X49645Y-52038D01*
X49667Y-52026D01*
X49678Y-52015D01*
X49690Y-51993D01*
X49690Y-51903D01*
X49453Y-51903D01*
X49453Y-51982D01*
X49465Y-52004D01*
X49476Y-52015D01*
X49498Y-52026D01*
X49521Y-52026D01*
X49543Y-52015D01*
X49555Y-52004D01*
X49566Y-51982D01*
X49566Y-51903D01*
X49690Y-52263D02*
X49690Y-52128D01*
X49690Y-52195D02*
X49453Y-52195D01*
X49487Y-52173D01*
X49510Y-52150D01*
X49521Y-52128D01*
X46840Y-50654D02*
X46919Y-50542D01*
X46975Y-50654D02*
X46975Y-50418D01*
X46885Y-50418D01*
X46863Y-50429D01*
X46852Y-50440D01*
X46840Y-50463D01*
X46840Y-50497D01*
X46852Y-50519D01*
X46863Y-50530D01*
X46885Y-50542D01*
X46975Y-50542D01*
X46638Y-50497D02*
X46638Y-50654D01*
X46694Y-50407D02*
X46750Y-50575D01*
X46604Y-50575D01*
X46469Y-50418D02*
X46447Y-50418D01*
X46424Y-50429D01*
X46413Y-50440D01*
X46402Y-50463D01*
X46390Y-50508D01*
X46390Y-50564D01*
X46402Y-50609D01*
X46413Y-50632D01*
X46424Y-50643D01*
X46447Y-50654D01*
X46469Y-50654D01*
X46492Y-50643D01*
X46503Y-50632D01*
X46514Y-50609D01*
X46525Y-50564D01*
X46525Y-50508D01*
X46514Y-50463D01*
X46503Y-50440D01*
X46492Y-50429D01*
X46469Y-50418D01*
X54191Y-36543D02*
X54202Y-36532D01*
X54213Y-36498D01*
X54213Y-36475D01*
X54202Y-36442D01*
X54179Y-36419D01*
X54157Y-36408D01*
X54112Y-36397D01*
X54078Y-36397D01*
X54033Y-36408D01*
X54011Y-36419D01*
X53988Y-36442D01*
X53977Y-36475D01*
X53977Y-36498D01*
X53988Y-36532D01*
X54000Y-36543D01*
X53977Y-36622D02*
X53977Y-36768D01*
X54067Y-36689D01*
X54067Y-36723D01*
X54078Y-36745D01*
X54089Y-36757D01*
X54112Y-36768D01*
X54168Y-36768D01*
X54191Y-36757D01*
X54202Y-36745D01*
X54213Y-36723D01*
X54213Y-36655D01*
X54202Y-36633D01*
X54191Y-36622D01*
X54651Y-41437D02*
X54663Y-41425D01*
X54674Y-41392D01*
X54674Y-41369D01*
X54663Y-41335D01*
X54640Y-41313D01*
X54618Y-41302D01*
X54573Y-41290D01*
X54539Y-41290D01*
X54494Y-41302D01*
X54471Y-41313D01*
X54449Y-41335D01*
X54438Y-41369D01*
X54438Y-41392D01*
X54449Y-41425D01*
X54460Y-41437D01*
X54674Y-41661D02*
X54674Y-41526D01*
X54674Y-41594D02*
X54438Y-41594D01*
X54471Y-41571D01*
X54494Y-41549D01*
X54505Y-41526D01*
X55187Y-32440D02*
X55198Y-32429D01*
X55209Y-32395D01*
X55209Y-32373D01*
X55198Y-32339D01*
X55176Y-32317D01*
X55153Y-32305D01*
X55108Y-32294D01*
X55074Y-32294D01*
X55029Y-32305D01*
X55007Y-32317D01*
X54984Y-32339D01*
X54973Y-32373D01*
X54973Y-32395D01*
X54984Y-32429D01*
X54996Y-32440D01*
X55052Y-32643D02*
X55209Y-32643D01*
X54962Y-32587D02*
X55131Y-32530D01*
X55131Y-32677D01*
X56966Y-36598D02*
X56978Y-36587D01*
X56989Y-36553D01*
X56989Y-36530D01*
X56978Y-36497D01*
X56955Y-36474D01*
X56933Y-36463D01*
X56888Y-36452D01*
X56854Y-36452D01*
X56809Y-36463D01*
X56786Y-36474D01*
X56764Y-36497D01*
X56753Y-36530D01*
X56753Y-36553D01*
X56764Y-36587D01*
X56775Y-36598D01*
X56753Y-36812D02*
X56753Y-36699D01*
X56865Y-36688D01*
X56854Y-36699D01*
X56843Y-36722D01*
X56843Y-36778D01*
X56854Y-36800D01*
X56865Y-36812D01*
X56888Y-36823D01*
X56944Y-36823D01*
X56966Y-36812D01*
X56978Y-36800D01*
X56989Y-36778D01*
X56989Y-36722D01*
X56978Y-36699D01*
X56966Y-36688D01*
X56175Y-36598D02*
X56186Y-36587D01*
X56197Y-36553D01*
X56197Y-36530D01*
X56186Y-36497D01*
X56164Y-36474D01*
X56141Y-36463D01*
X56096Y-36452D01*
X56062Y-36452D01*
X56017Y-36463D01*
X55995Y-36474D01*
X55973Y-36497D01*
X55961Y-36530D01*
X55961Y-36553D01*
X55973Y-36587D01*
X55984Y-36598D01*
X55961Y-36800D02*
X55961Y-36755D01*
X55973Y-36733D01*
X55984Y-36722D01*
X56017Y-36699D01*
X56062Y-36688D01*
X56152Y-36688D01*
X56175Y-36699D01*
X56186Y-36710D01*
X56197Y-36733D01*
X56197Y-36778D01*
X56186Y-36800D01*
X56175Y-36812D01*
X56152Y-36823D01*
X56096Y-36823D01*
X56074Y-36812D01*
X56062Y-36800D01*
X56051Y-36778D01*
X56051Y-36733D01*
X56062Y-36710D01*
X56074Y-36699D01*
X56096Y-36688D01*
X55014Y-36555D02*
X55025Y-36543D01*
X55036Y-36510D01*
X55036Y-36487D01*
X55025Y-36453D01*
X55002Y-36431D01*
X54980Y-36420D01*
X54935Y-36408D01*
X54901Y-36408D01*
X54856Y-36420D01*
X54834Y-36431D01*
X54811Y-36453D01*
X54800Y-36487D01*
X54800Y-36510D01*
X54811Y-36543D01*
X54822Y-36555D01*
X54800Y-36633D02*
X54800Y-36791D01*
X55036Y-36690D01*
X55805Y-32437D02*
X55816Y-32425D01*
X55827Y-32392D01*
X55827Y-32369D01*
X55816Y-32335D01*
X55794Y-32313D01*
X55771Y-32302D01*
X55726Y-32290D01*
X55692Y-32290D01*
X55647Y-32302D01*
X55625Y-32313D01*
X55602Y-32335D01*
X55591Y-32369D01*
X55591Y-32392D01*
X55602Y-32425D01*
X55614Y-32437D01*
X55692Y-32571D02*
X55681Y-32549D01*
X55670Y-32538D01*
X55647Y-32526D01*
X55636Y-32526D01*
X55614Y-32538D01*
X55602Y-32549D01*
X55591Y-32571D01*
X55591Y-32616D01*
X55602Y-32639D01*
X55614Y-32650D01*
X55636Y-32661D01*
X55647Y-32661D01*
X55670Y-32650D01*
X55681Y-32639D01*
X55692Y-32616D01*
X55692Y-32571D01*
X55704Y-32549D01*
X55715Y-32538D01*
X55737Y-32526D01*
X55782Y-32526D01*
X55805Y-32538D01*
X55816Y-32549D01*
X55827Y-32571D01*
X55827Y-32616D01*
X55816Y-32639D01*
X55805Y-32650D01*
X55782Y-32661D01*
X55737Y-32661D01*
X55715Y-32650D01*
X55704Y-32639D01*
X55692Y-32616D01*
X46958Y-44570D02*
X46970Y-44559D01*
X46981Y-44525D01*
X46981Y-44503D01*
X46970Y-44469D01*
X46947Y-44447D01*
X46925Y-44435D01*
X46880Y-44424D01*
X46846Y-44424D01*
X46801Y-44435D01*
X46778Y-44447D01*
X46756Y-44469D01*
X46745Y-44503D01*
X46745Y-44525D01*
X46756Y-44559D01*
X46767Y-44570D01*
X46767Y-44660D02*
X46756Y-44672D01*
X46745Y-44694D01*
X46745Y-44750D01*
X46756Y-44773D01*
X46767Y-44784D01*
X46790Y-44795D01*
X46812Y-44795D01*
X46846Y-44784D01*
X46981Y-44649D01*
X46981Y-44795D01*
X50699Y-51080D02*
X50710Y-51092D01*
X50744Y-51103D01*
X50766Y-51103D01*
X50800Y-51092D01*
X50822Y-51069D01*
X50834Y-51047D01*
X50845Y-51002D01*
X50845Y-50968D01*
X50834Y-50923D01*
X50822Y-50901D01*
X50800Y-50878D01*
X50766Y-50867D01*
X50744Y-50867D01*
X50710Y-50878D01*
X50699Y-50889D01*
X50609Y-50889D02*
X50597Y-50878D01*
X50575Y-50867D01*
X50519Y-50867D01*
X50496Y-50878D01*
X50485Y-50889D01*
X50474Y-50912D01*
X50474Y-50934D01*
X50485Y-50968D01*
X50620Y-51103D01*
X50474Y-51103D01*
X50395Y-50867D02*
X50249Y-50867D01*
X50327Y-50957D01*
X50294Y-50957D01*
X50271Y-50968D01*
X50260Y-50979D01*
X50249Y-51002D01*
X50249Y-51058D01*
X50260Y-51080D01*
X50271Y-51092D01*
X50294Y-51103D01*
X50361Y-51103D01*
X50384Y-51092D01*
X50395Y-51080D01*
X50427Y-49490D02*
X50438Y-49501D01*
X50472Y-49512D01*
X50494Y-49512D01*
X50528Y-49501D01*
X50551Y-49479D01*
X50562Y-49456D01*
X50573Y-49411D01*
X50573Y-49377D01*
X50562Y-49332D01*
X50551Y-49310D01*
X50528Y-49287D01*
X50494Y-49276D01*
X50472Y-49276D01*
X50438Y-49287D01*
X50427Y-49299D01*
X50337Y-49299D02*
X50326Y-49287D01*
X50303Y-49276D01*
X50247Y-49276D01*
X50224Y-49287D01*
X50213Y-49299D01*
X50202Y-49321D01*
X50202Y-49344D01*
X50213Y-49377D01*
X50348Y-49512D01*
X50202Y-49512D01*
X50000Y-49276D02*
X50044Y-49276D01*
X50067Y-49287D01*
X50078Y-49299D01*
X50101Y-49332D01*
X50112Y-49377D01*
X50112Y-49467D01*
X50101Y-49490D01*
X50089Y-49501D01*
X50067Y-49512D01*
X50022Y-49512D01*
X50000Y-49501D01*
X49988Y-49490D01*
X49977Y-49467D01*
X49977Y-49411D01*
X49988Y-49389D01*
X50000Y-49377D01*
X50022Y-49366D01*
X50067Y-49366D01*
X50089Y-49377D01*
X50101Y-49389D01*
X50112Y-49411D01*
X51096Y-48962D02*
X51107Y-48974D01*
X51141Y-48985D01*
X51164Y-48985D01*
X51197Y-48974D01*
X51220Y-48951D01*
X51231Y-48929D01*
X51242Y-48884D01*
X51242Y-48850D01*
X51231Y-48805D01*
X51220Y-48782D01*
X51197Y-48760D01*
X51164Y-48749D01*
X51141Y-48749D01*
X51107Y-48760D01*
X51096Y-48771D01*
X51006Y-48771D02*
X50995Y-48760D01*
X50973Y-48749D01*
X50916Y-48749D01*
X50894Y-48760D01*
X50883Y-48771D01*
X50871Y-48794D01*
X50871Y-48816D01*
X50883Y-48850D01*
X51017Y-48985D01*
X50871Y-48985D01*
X50793Y-48749D02*
X50635Y-48749D01*
X50736Y-48985D01*
X47305Y-49604D02*
X47316Y-49615D01*
X47350Y-49627D01*
X47372Y-49627D01*
X47406Y-49615D01*
X47429Y-49593D01*
X47440Y-49570D01*
X47451Y-49525D01*
X47451Y-49492D01*
X47440Y-49447D01*
X47429Y-49424D01*
X47406Y-49402D01*
X47372Y-49390D01*
X47350Y-49390D01*
X47316Y-49402D01*
X47305Y-49413D01*
X47080Y-49627D02*
X47215Y-49627D01*
X47147Y-49627D02*
X47147Y-49390D01*
X47170Y-49424D01*
X47192Y-49447D01*
X47215Y-49458D01*
X46967Y-49627D02*
X46922Y-49627D01*
X46900Y-49615D01*
X46889Y-49604D01*
X46866Y-49570D01*
X46855Y-49525D01*
X46855Y-49435D01*
X46866Y-49413D01*
X46877Y-49402D01*
X46900Y-49390D01*
X46945Y-49390D01*
X46967Y-49402D01*
X46979Y-49413D01*
X46990Y-49435D01*
X46990Y-49492D01*
X46979Y-49514D01*
X46967Y-49525D01*
X46945Y-49537D01*
X46900Y-49537D01*
X46877Y-49525D01*
X46866Y-49514D01*
X46855Y-49492D01*
X50435Y-48293D02*
X50446Y-48304D01*
X50480Y-48316D01*
X50502Y-48316D01*
X50536Y-48304D01*
X50559Y-48282D01*
X50570Y-48259D01*
X50581Y-48214D01*
X50581Y-48181D01*
X50570Y-48136D01*
X50559Y-48113D01*
X50536Y-48091D01*
X50502Y-48079D01*
X50480Y-48079D01*
X50446Y-48091D01*
X50435Y-48102D01*
X50345Y-48102D02*
X50334Y-48091D01*
X50311Y-48079D01*
X50255Y-48079D01*
X50232Y-48091D01*
X50221Y-48102D01*
X50210Y-48124D01*
X50210Y-48147D01*
X50221Y-48181D01*
X50356Y-48316D01*
X50210Y-48316D01*
X49996Y-48079D02*
X50109Y-48079D01*
X50120Y-48192D01*
X50109Y-48181D01*
X50086Y-48169D01*
X50030Y-48169D01*
X50007Y-48181D01*
X49996Y-48192D01*
X49985Y-48214D01*
X49985Y-48271D01*
X49996Y-48293D01*
X50007Y-48304D01*
X50030Y-48316D01*
X50086Y-48316D01*
X50109Y-48304D01*
X50120Y-48293D01*
X47955Y-48777D02*
X47966Y-48789D01*
X48000Y-48800D01*
X48022Y-48800D01*
X48056Y-48789D01*
X48078Y-48766D01*
X48089Y-48744D01*
X48101Y-48699D01*
X48101Y-48665D01*
X48089Y-48620D01*
X48078Y-48597D01*
X48056Y-48575D01*
X48022Y-48564D01*
X48000Y-48564D01*
X47966Y-48575D01*
X47955Y-48586D01*
X47865Y-48586D02*
X47853Y-48575D01*
X47831Y-48564D01*
X47775Y-48564D01*
X47752Y-48575D01*
X47741Y-48586D01*
X47730Y-48609D01*
X47730Y-48631D01*
X47741Y-48665D01*
X47876Y-48800D01*
X47730Y-48800D01*
X47583Y-48564D02*
X47561Y-48564D01*
X47538Y-48575D01*
X47527Y-48586D01*
X47516Y-48609D01*
X47505Y-48654D01*
X47505Y-48710D01*
X47516Y-48755D01*
X47527Y-48777D01*
X47538Y-48789D01*
X47561Y-48800D01*
X47583Y-48800D01*
X47606Y-48789D01*
X47617Y-48777D01*
X47628Y-48755D01*
X47640Y-48710D01*
X47640Y-48654D01*
X47628Y-48609D01*
X47617Y-48586D01*
X47606Y-48575D01*
X47583Y-48564D01*
X49112Y-51812D02*
X49123Y-51801D01*
X49134Y-51767D01*
X49134Y-51745D01*
X49123Y-51711D01*
X49101Y-51688D01*
X49078Y-51677D01*
X49033Y-51666D01*
X49000Y-51666D01*
X48955Y-51677D01*
X48932Y-51688D01*
X48910Y-51711D01*
X48898Y-51745D01*
X48898Y-51767D01*
X48910Y-51801D01*
X48921Y-51812D01*
X48921Y-51902D02*
X48910Y-51913D01*
X48898Y-51936D01*
X48898Y-51992D01*
X48910Y-52015D01*
X48921Y-52026D01*
X48943Y-52037D01*
X48966Y-52037D01*
X49000Y-52026D01*
X49134Y-51891D01*
X49134Y-52037D01*
X49134Y-52262D02*
X49134Y-52127D01*
X49134Y-52195D02*
X48898Y-52195D01*
X48932Y-52172D01*
X48955Y-52150D01*
X48966Y-52127D01*
X50703Y-50517D02*
X50714Y-50529D01*
X50748Y-50540D01*
X50770Y-50540D01*
X50804Y-50529D01*
X50826Y-50506D01*
X50838Y-50484D01*
X50849Y-50439D01*
X50849Y-50405D01*
X50838Y-50360D01*
X50826Y-50338D01*
X50804Y-50315D01*
X50770Y-50304D01*
X50748Y-50304D01*
X50714Y-50315D01*
X50703Y-50326D01*
X50613Y-50326D02*
X50601Y-50315D01*
X50579Y-50304D01*
X50523Y-50304D01*
X50500Y-50315D01*
X50489Y-50326D01*
X50478Y-50349D01*
X50478Y-50371D01*
X50489Y-50405D01*
X50624Y-50540D01*
X50478Y-50540D01*
X50275Y-50383D02*
X50275Y-50540D01*
X50331Y-50293D02*
X50388Y-50461D01*
X50241Y-50461D01*
X48545Y-51812D02*
X48556Y-51801D01*
X48568Y-51767D01*
X48568Y-51745D01*
X48556Y-51711D01*
X48534Y-51688D01*
X48511Y-51677D01*
X48466Y-51666D01*
X48433Y-51666D01*
X48388Y-51677D01*
X48365Y-51688D01*
X48343Y-51711D01*
X48331Y-51745D01*
X48331Y-51767D01*
X48343Y-51801D01*
X48354Y-51812D01*
X48354Y-51902D02*
X48343Y-51913D01*
X48331Y-51936D01*
X48331Y-51992D01*
X48343Y-52015D01*
X48354Y-52026D01*
X48376Y-52037D01*
X48399Y-52037D01*
X48433Y-52026D01*
X48568Y-51891D01*
X48568Y-52037D01*
X48354Y-52127D02*
X48343Y-52138D01*
X48331Y-52161D01*
X48331Y-52217D01*
X48343Y-52240D01*
X48354Y-52251D01*
X48376Y-52262D01*
X48399Y-52262D01*
X48433Y-52251D01*
X48568Y-52116D01*
X48568Y-52262D01*
X44451Y-42918D02*
X44529Y-42805D01*
X44586Y-42918D02*
X44586Y-42682D01*
X44496Y-42682D01*
X44473Y-42693D01*
X44462Y-42704D01*
X44451Y-42727D01*
X44451Y-42760D01*
X44462Y-42783D01*
X44473Y-42794D01*
X44496Y-42805D01*
X44586Y-42805D01*
X44248Y-42760D02*
X44248Y-42918D01*
X44304Y-42670D02*
X44361Y-42839D01*
X44214Y-42839D01*
X44012Y-42682D02*
X44124Y-42682D01*
X44136Y-42794D01*
X44124Y-42783D01*
X44102Y-42772D01*
X44046Y-42772D01*
X44023Y-42783D01*
X44012Y-42794D01*
X44001Y-42817D01*
X44001Y-42873D01*
X44012Y-42895D01*
X44023Y-42907D01*
X44046Y-42918D01*
X44102Y-42918D01*
X44124Y-42907D01*
X44136Y-42895D01*
X44439Y-36217D02*
X44517Y-36105D01*
X44574Y-36217D02*
X44574Y-35981D01*
X44484Y-35981D01*
X44461Y-35992D01*
X44450Y-36003D01*
X44439Y-36026D01*
X44439Y-36060D01*
X44450Y-36082D01*
X44461Y-36093D01*
X44484Y-36105D01*
X44574Y-36105D01*
X44236Y-36060D02*
X44236Y-36217D01*
X44293Y-35970D02*
X44349Y-36138D01*
X44203Y-36138D01*
X44101Y-36217D02*
X44056Y-36217D01*
X44034Y-36206D01*
X44023Y-36195D01*
X44000Y-36161D01*
X43989Y-36116D01*
X43989Y-36026D01*
X44000Y-36003D01*
X44011Y-35992D01*
X44034Y-35981D01*
X44079Y-35981D01*
X44101Y-35992D01*
X44113Y-36003D01*
X44124Y-36026D01*
X44124Y-36082D01*
X44113Y-36105D01*
X44101Y-36116D01*
X44079Y-36127D01*
X44034Y-36127D01*
X44011Y-36116D01*
X44000Y-36105D01*
X43989Y-36082D01*
X43678Y-32564D02*
X43565Y-32485D01*
X43678Y-32429D02*
X43442Y-32429D01*
X43442Y-32519D01*
X43453Y-32542D01*
X43464Y-32553D01*
X43487Y-32564D01*
X43520Y-32564D01*
X43543Y-32553D01*
X43554Y-32542D01*
X43565Y-32519D01*
X43565Y-32429D01*
X43520Y-32767D02*
X43678Y-32767D01*
X43430Y-32710D02*
X43599Y-32654D01*
X43599Y-32800D01*
X43442Y-32992D02*
X43442Y-32947D01*
X43453Y-32924D01*
X43464Y-32913D01*
X43498Y-32890D01*
X43543Y-32879D01*
X43633Y-32879D01*
X43655Y-32890D01*
X43667Y-32902D01*
X43678Y-32924D01*
X43678Y-32969D01*
X43667Y-32992D01*
X43655Y-33003D01*
X43633Y-33014D01*
X43577Y-33014D01*
X43554Y-33003D01*
X43543Y-32992D01*
X43532Y-32969D01*
X43532Y-32924D01*
X43543Y-32902D01*
X43554Y-32890D01*
X43577Y-32879D01*
X43997Y-32212D02*
X44091Y-32212D01*
X44054Y-32118D02*
X44091Y-32212D01*
X44054Y-32306D01*
X44166Y-32156D02*
X44091Y-32212D01*
X44166Y-32268D01*
X43638Y-33942D02*
X43526Y-33863D01*
X43638Y-33807D02*
X43402Y-33807D01*
X43402Y-33897D01*
X43413Y-33920D01*
X43425Y-33931D01*
X43447Y-33942D01*
X43481Y-33942D01*
X43503Y-33931D01*
X43515Y-33920D01*
X43526Y-33897D01*
X43526Y-33807D01*
X43481Y-34145D02*
X43638Y-34145D01*
X43391Y-34088D02*
X43560Y-34032D01*
X43560Y-34178D01*
X43402Y-34246D02*
X43402Y-34403D01*
X43638Y-34302D01*
X43982Y-33590D02*
X44075Y-33590D01*
X44038Y-33496D02*
X44075Y-33590D01*
X44038Y-33684D01*
X44150Y-33534D02*
X44075Y-33590D01*
X44150Y-33646D01*
X43638Y-35202D02*
X43526Y-35123D01*
X43638Y-35067D02*
X43402Y-35067D01*
X43402Y-35157D01*
X43413Y-35179D01*
X43425Y-35191D01*
X43447Y-35202D01*
X43481Y-35202D01*
X43503Y-35191D01*
X43515Y-35179D01*
X43526Y-35157D01*
X43526Y-35067D01*
X43481Y-35404D02*
X43638Y-35404D01*
X43391Y-35348D02*
X43560Y-35292D01*
X43560Y-35438D01*
X43503Y-35562D02*
X43492Y-35539D01*
X43481Y-35528D01*
X43458Y-35517D01*
X43447Y-35517D01*
X43425Y-35528D01*
X43413Y-35539D01*
X43402Y-35562D01*
X43402Y-35607D01*
X43413Y-35629D01*
X43425Y-35641D01*
X43447Y-35652D01*
X43458Y-35652D01*
X43481Y-35641D01*
X43492Y-35629D01*
X43503Y-35607D01*
X43503Y-35562D01*
X43515Y-35539D01*
X43526Y-35528D01*
X43548Y-35517D01*
X43593Y-35517D01*
X43616Y-35528D01*
X43627Y-35539D01*
X43638Y-35562D01*
X43638Y-35607D01*
X43627Y-35629D01*
X43616Y-35641D01*
X43593Y-35652D01*
X43548Y-35652D01*
X43526Y-35641D01*
X43515Y-35629D01*
X43503Y-35607D01*
X43978Y-34862D02*
X44071Y-34862D01*
X44034Y-34768D02*
X44071Y-34862D01*
X44034Y-34955D01*
X44146Y-34805D02*
X44071Y-34862D01*
X44146Y-34918D01*
X43914Y-39296D02*
X43802Y-39218D01*
X43914Y-39161D02*
X43678Y-39161D01*
X43678Y-39251D01*
X43689Y-39274D01*
X43700Y-39285D01*
X43723Y-39296D01*
X43757Y-39296D01*
X43779Y-39285D01*
X43790Y-39274D01*
X43802Y-39251D01*
X43802Y-39161D01*
X43757Y-39499D02*
X43914Y-39499D01*
X43667Y-39443D02*
X43835Y-39386D01*
X43835Y-39533D01*
X43700Y-39611D02*
X43689Y-39623D01*
X43678Y-39645D01*
X43678Y-39701D01*
X43689Y-39724D01*
X43700Y-39735D01*
X43723Y-39746D01*
X43745Y-39746D01*
X43779Y-39735D01*
X43914Y-39600D01*
X43914Y-39746D01*
X43958Y-38866D02*
X44052Y-38866D01*
X44014Y-38772D02*
X44052Y-38866D01*
X44014Y-38959D01*
X44127Y-38809D02*
X44052Y-38866D01*
X44127Y-38922D01*
X43902Y-40627D02*
X43790Y-40548D01*
X43902Y-40492D02*
X43666Y-40492D01*
X43666Y-40582D01*
X43677Y-40605D01*
X43688Y-40616D01*
X43711Y-40627D01*
X43745Y-40627D01*
X43767Y-40616D01*
X43778Y-40605D01*
X43790Y-40582D01*
X43790Y-40492D01*
X43745Y-40830D02*
X43902Y-40830D01*
X43655Y-40773D02*
X43823Y-40717D01*
X43823Y-40863D01*
X43666Y-40931D02*
X43666Y-41077D01*
X43756Y-40998D01*
X43756Y-41032D01*
X43767Y-41055D01*
X43778Y-41066D01*
X43801Y-41077D01*
X43857Y-41077D01*
X43880Y-41066D01*
X43891Y-41055D01*
X43902Y-41032D01*
X43902Y-40965D01*
X43891Y-40942D01*
X43880Y-40931D01*
X44001Y-40279D02*
X44095Y-40279D01*
X44058Y-40185D02*
X44095Y-40279D01*
X44058Y-40373D01*
X44170Y-40223D02*
X44095Y-40279D01*
X44170Y-40335D01*
X43910Y-41903D02*
X43798Y-41824D01*
X43910Y-41768D02*
X43674Y-41768D01*
X43674Y-41858D01*
X43685Y-41880D01*
X43696Y-41892D01*
X43719Y-41903D01*
X43753Y-41903D01*
X43775Y-41892D01*
X43786Y-41880D01*
X43798Y-41858D01*
X43798Y-41768D01*
X43753Y-42105D02*
X43910Y-42105D01*
X43663Y-42049D02*
X43831Y-41993D01*
X43831Y-42139D01*
X43753Y-42330D02*
X43910Y-42330D01*
X43663Y-42274D02*
X43831Y-42218D01*
X43831Y-42364D01*
X43978Y-41535D02*
X44071Y-41535D01*
X44034Y-41441D02*
X44071Y-41535D01*
X44034Y-41629D01*
X44146Y-41479D02*
X44071Y-41535D01*
X44146Y-41591D01*
X67627Y-35828D02*
X67514Y-35749D01*
X67627Y-35693D02*
X67390Y-35693D01*
X67390Y-35783D01*
X67402Y-35805D01*
X67413Y-35817D01*
X67435Y-35828D01*
X67469Y-35828D01*
X67492Y-35817D01*
X67503Y-35805D01*
X67514Y-35783D01*
X67514Y-35693D01*
X67413Y-35918D02*
X67402Y-35929D01*
X67390Y-35952D01*
X67390Y-36008D01*
X67402Y-36030D01*
X67413Y-36042D01*
X67435Y-36053D01*
X67458Y-36053D01*
X67492Y-36042D01*
X67627Y-35907D01*
X67627Y-36053D01*
X67390Y-36267D02*
X67390Y-36154D01*
X67503Y-36143D01*
X67492Y-36154D01*
X67480Y-36177D01*
X67480Y-36233D01*
X67492Y-36255D01*
X67503Y-36267D01*
X67525Y-36278D01*
X67582Y-36278D01*
X67604Y-36267D01*
X67615Y-36255D01*
X67627Y-36233D01*
X67627Y-36177D01*
X67615Y-36154D01*
X67604Y-36143D01*
X67856Y-36496D02*
X67949Y-36496D01*
X67912Y-36402D02*
X67949Y-36496D01*
X67912Y-36589D01*
X68024Y-36439D02*
X67949Y-36496D01*
X68024Y-36552D01*
X67623Y-34245D02*
X67510Y-34167D01*
X67623Y-34110D02*
X67386Y-34110D01*
X67386Y-34200D01*
X67398Y-34223D01*
X67409Y-34234D01*
X67431Y-34245D01*
X67465Y-34245D01*
X67488Y-34234D01*
X67499Y-34223D01*
X67510Y-34200D01*
X67510Y-34110D01*
X67409Y-34335D02*
X67398Y-34347D01*
X67386Y-34369D01*
X67386Y-34425D01*
X67398Y-34448D01*
X67409Y-34459D01*
X67431Y-34470D01*
X67454Y-34470D01*
X67488Y-34459D01*
X67623Y-34324D01*
X67623Y-34470D01*
X67386Y-34673D02*
X67386Y-34628D01*
X67398Y-34605D01*
X67409Y-34594D01*
X67443Y-34571D01*
X67488Y-34560D01*
X67578Y-34560D01*
X67600Y-34571D01*
X67611Y-34583D01*
X67623Y-34605D01*
X67623Y-34650D01*
X67611Y-34673D01*
X67600Y-34684D01*
X67578Y-34695D01*
X67521Y-34695D01*
X67499Y-34684D01*
X67488Y-34673D01*
X67476Y-34650D01*
X67476Y-34605D01*
X67488Y-34583D01*
X67499Y-34571D01*
X67521Y-34560D01*
X67836Y-34901D02*
X67930Y-34901D01*
X67892Y-34807D02*
X67930Y-34901D01*
X67892Y-34995D01*
X68005Y-34845D02*
X67930Y-34901D01*
X68005Y-34957D01*
X67619Y-33005D02*
X67506Y-32926D01*
X67619Y-32870D02*
X67383Y-32870D01*
X67383Y-32960D01*
X67394Y-32983D01*
X67405Y-32994D01*
X67428Y-33005D01*
X67461Y-33005D01*
X67484Y-32994D01*
X67495Y-32983D01*
X67506Y-32960D01*
X67506Y-32870D01*
X67405Y-33095D02*
X67394Y-33106D01*
X67383Y-33129D01*
X67383Y-33185D01*
X67394Y-33208D01*
X67405Y-33219D01*
X67428Y-33230D01*
X67450Y-33230D01*
X67484Y-33219D01*
X67619Y-33084D01*
X67619Y-33230D01*
X67383Y-33309D02*
X67383Y-33466D01*
X67619Y-33365D01*
X67895Y-33622D02*
X67989Y-33622D01*
X67951Y-33528D02*
X67989Y-33622D01*
X67951Y-33715D01*
X68064Y-33565D02*
X67989Y-33622D01*
X68064Y-33678D01*
X67623Y-42647D02*
X67510Y-42568D01*
X67623Y-42512D02*
X67386Y-42512D01*
X67386Y-42602D01*
X67398Y-42624D01*
X67409Y-42636D01*
X67431Y-42647D01*
X67465Y-42647D01*
X67488Y-42636D01*
X67499Y-42624D01*
X67510Y-42602D01*
X67510Y-42512D01*
X67409Y-42737D02*
X67398Y-42748D01*
X67386Y-42771D01*
X67386Y-42827D01*
X67398Y-42849D01*
X67409Y-42861D01*
X67431Y-42872D01*
X67454Y-42872D01*
X67488Y-42861D01*
X67623Y-42726D01*
X67623Y-42872D01*
X67623Y-42984D02*
X67623Y-43029D01*
X67611Y-43052D01*
X67600Y-43063D01*
X67566Y-43086D01*
X67521Y-43097D01*
X67431Y-43097D01*
X67409Y-43086D01*
X67398Y-43074D01*
X67386Y-43052D01*
X67386Y-43007D01*
X67398Y-42984D01*
X67409Y-42973D01*
X67431Y-42962D01*
X67488Y-42962D01*
X67510Y-42973D01*
X67521Y-42984D01*
X67533Y-43007D01*
X67533Y-43052D01*
X67521Y-43074D01*
X67510Y-43086D01*
X67488Y-43097D01*
X68092Y-43283D02*
X68186Y-43283D01*
X68148Y-43189D02*
X68186Y-43283D01*
X68148Y-43377D01*
X68261Y-43227D02*
X68186Y-43283D01*
X68261Y-43339D01*
X67627Y-41174D02*
X67514Y-41096D01*
X67627Y-41039D02*
X67390Y-41039D01*
X67390Y-41129D01*
X67402Y-41152D01*
X67413Y-41163D01*
X67435Y-41174D01*
X67469Y-41174D01*
X67492Y-41163D01*
X67503Y-41152D01*
X67514Y-41129D01*
X67514Y-41039D01*
X67390Y-41253D02*
X67390Y-41399D01*
X67480Y-41321D01*
X67480Y-41354D01*
X67492Y-41377D01*
X67503Y-41388D01*
X67525Y-41399D01*
X67582Y-41399D01*
X67604Y-41388D01*
X67615Y-41377D01*
X67627Y-41354D01*
X67627Y-41287D01*
X67615Y-41264D01*
X67604Y-41253D01*
X67390Y-41546D02*
X67390Y-41568D01*
X67402Y-41591D01*
X67413Y-41602D01*
X67435Y-41613D01*
X67480Y-41624D01*
X67537Y-41624D01*
X67582Y-41613D01*
X67604Y-41602D01*
X67615Y-41591D01*
X67627Y-41568D01*
X67627Y-41546D01*
X67615Y-41523D01*
X67604Y-41512D01*
X67582Y-41501D01*
X67537Y-41489D01*
X67480Y-41489D01*
X67435Y-41501D01*
X67413Y-41512D01*
X67402Y-41523D01*
X67390Y-41546D01*
X68104Y-41807D02*
X68197Y-41807D01*
X68160Y-41713D02*
X68197Y-41807D01*
X68160Y-41900D01*
X68272Y-41750D02*
X68197Y-41807D01*
X68272Y-41863D01*
X67619Y-39674D02*
X67506Y-39596D01*
X67619Y-39539D02*
X67383Y-39539D01*
X67383Y-39629D01*
X67394Y-39652D01*
X67405Y-39663D01*
X67428Y-39674D01*
X67461Y-39674D01*
X67484Y-39663D01*
X67495Y-39652D01*
X67506Y-39629D01*
X67506Y-39539D01*
X67383Y-39753D02*
X67383Y-39899D01*
X67473Y-39821D01*
X67473Y-39854D01*
X67484Y-39877D01*
X67495Y-39888D01*
X67517Y-39899D01*
X67574Y-39899D01*
X67596Y-39888D01*
X67607Y-39877D01*
X67619Y-39854D01*
X67619Y-39787D01*
X67607Y-39764D01*
X67596Y-39753D01*
X67619Y-40124D02*
X67619Y-39989D01*
X67619Y-40057D02*
X67383Y-40057D01*
X67416Y-40034D01*
X67439Y-40012D01*
X67450Y-39989D01*
X68088Y-40330D02*
X68182Y-40330D01*
X68144Y-40236D02*
X68182Y-40330D01*
X68144Y-40424D01*
X68257Y-40274D02*
X68182Y-40330D01*
X68257Y-40386D01*
X56927Y-49701D02*
X57006Y-49589D01*
X57062Y-49701D02*
X57062Y-49465D01*
X56972Y-49465D01*
X56949Y-49476D01*
X56938Y-49488D01*
X56927Y-49510D01*
X56927Y-49544D01*
X56938Y-49566D01*
X56949Y-49578D01*
X56972Y-49589D01*
X57062Y-49589D01*
X56713Y-49465D02*
X56826Y-49465D01*
X56837Y-49578D01*
X56826Y-49566D01*
X56803Y-49555D01*
X56747Y-49555D01*
X56724Y-49566D01*
X56713Y-49578D01*
X56702Y-49600D01*
X56702Y-49656D01*
X56713Y-49679D01*
X56724Y-49690D01*
X56747Y-49701D01*
X56803Y-49701D01*
X56826Y-49690D01*
X56837Y-49679D01*
X56589Y-49701D02*
X56544Y-49701D01*
X56522Y-49690D01*
X56511Y-49679D01*
X56488Y-49645D01*
X56477Y-49600D01*
X56477Y-49510D01*
X56488Y-49488D01*
X56500Y-49476D01*
X56522Y-49465D01*
X56567Y-49465D01*
X56589Y-49476D01*
X56601Y-49488D01*
X56612Y-49510D01*
X56612Y-49566D01*
X56601Y-49589D01*
X56589Y-49600D01*
X56567Y-49611D01*
X56522Y-49611D01*
X56500Y-49600D01*
X56488Y-49589D01*
X56477Y-49566D01*
X56927Y-50103D02*
X57006Y-49991D01*
X57062Y-50103D02*
X57062Y-49867D01*
X56972Y-49867D01*
X56949Y-49878D01*
X56938Y-49889D01*
X56927Y-49912D01*
X56927Y-49946D01*
X56938Y-49968D01*
X56949Y-49979D01*
X56972Y-49991D01*
X57062Y-49991D01*
X56724Y-49867D02*
X56769Y-49867D01*
X56792Y-49878D01*
X56803Y-49889D01*
X56826Y-49923D01*
X56837Y-49968D01*
X56837Y-50058D01*
X56826Y-50080D01*
X56814Y-50092D01*
X56792Y-50103D01*
X56747Y-50103D01*
X56724Y-50092D01*
X56713Y-50080D01*
X56702Y-50058D01*
X56702Y-50002D01*
X56713Y-49979D01*
X56724Y-49968D01*
X56747Y-49957D01*
X56792Y-49957D01*
X56814Y-49968D01*
X56826Y-49979D01*
X56837Y-50002D01*
X56477Y-50103D02*
X56612Y-50103D01*
X56544Y-50103D02*
X56544Y-49867D01*
X56567Y-49901D01*
X56589Y-49923D01*
X56612Y-49934D01*
X57990Y-48595D02*
X58069Y-48483D01*
X58125Y-48595D02*
X58125Y-48359D01*
X58035Y-48359D01*
X58012Y-48370D01*
X58001Y-48381D01*
X57990Y-48404D01*
X57990Y-48438D01*
X58001Y-48460D01*
X58012Y-48471D01*
X58035Y-48483D01*
X58125Y-48483D01*
X57787Y-48359D02*
X57832Y-48359D01*
X57855Y-48370D01*
X57866Y-48381D01*
X57889Y-48415D01*
X57900Y-48460D01*
X57900Y-48550D01*
X57889Y-48573D01*
X57877Y-48584D01*
X57855Y-48595D01*
X57810Y-48595D01*
X57787Y-48584D01*
X57776Y-48573D01*
X57765Y-48550D01*
X57765Y-48494D01*
X57776Y-48471D01*
X57787Y-48460D01*
X57810Y-48449D01*
X57855Y-48449D01*
X57877Y-48460D01*
X57889Y-48471D01*
X57900Y-48494D01*
X57619Y-48359D02*
X57596Y-48359D01*
X57574Y-48370D01*
X57562Y-48381D01*
X57551Y-48404D01*
X57540Y-48449D01*
X57540Y-48505D01*
X57551Y-48550D01*
X57562Y-48573D01*
X57574Y-48584D01*
X57596Y-48595D01*
X57619Y-48595D01*
X57641Y-48584D01*
X57652Y-48573D01*
X57664Y-48550D01*
X57675Y-48505D01*
X57675Y-48449D01*
X57664Y-48404D01*
X57652Y-48381D01*
X57641Y-48370D01*
X57619Y-48359D01*
X56919Y-51292D02*
X56998Y-51179D01*
X57054Y-51292D02*
X57054Y-51056D01*
X56964Y-51056D01*
X56942Y-51067D01*
X56930Y-51078D01*
X56919Y-51101D01*
X56919Y-51134D01*
X56930Y-51157D01*
X56942Y-51168D01*
X56964Y-51179D01*
X57054Y-51179D01*
X56717Y-51056D02*
X56762Y-51056D01*
X56784Y-51067D01*
X56795Y-51078D01*
X56818Y-51112D01*
X56829Y-51157D01*
X56829Y-51247D01*
X56818Y-51269D01*
X56807Y-51281D01*
X56784Y-51292D01*
X56739Y-51292D01*
X56717Y-51281D01*
X56705Y-51269D01*
X56694Y-51247D01*
X56694Y-51191D01*
X56705Y-51168D01*
X56717Y-51157D01*
X56739Y-51146D01*
X56784Y-51146D01*
X56807Y-51157D01*
X56818Y-51168D01*
X56829Y-51191D01*
X56492Y-51134D02*
X56492Y-51292D01*
X56548Y-51044D02*
X56604Y-51213D01*
X56458Y-51213D01*
X56911Y-50898D02*
X56990Y-50786D01*
X57046Y-50898D02*
X57046Y-50662D01*
X56956Y-50662D01*
X56934Y-50673D01*
X56922Y-50685D01*
X56911Y-50707D01*
X56911Y-50741D01*
X56922Y-50763D01*
X56934Y-50775D01*
X56956Y-50786D01*
X57046Y-50786D01*
X56709Y-50662D02*
X56754Y-50662D01*
X56776Y-50673D01*
X56787Y-50685D01*
X56810Y-50718D01*
X56821Y-50763D01*
X56821Y-50853D01*
X56810Y-50876D01*
X56799Y-50887D01*
X56776Y-50898D01*
X56731Y-50898D01*
X56709Y-50887D01*
X56697Y-50876D01*
X56686Y-50853D01*
X56686Y-50797D01*
X56697Y-50775D01*
X56709Y-50763D01*
X56731Y-50752D01*
X56776Y-50752D01*
X56799Y-50763D01*
X56810Y-50775D01*
X56821Y-50797D01*
X56607Y-50662D02*
X56461Y-50662D01*
X56540Y-50752D01*
X56506Y-50752D01*
X56484Y-50763D01*
X56473Y-50775D01*
X56461Y-50797D01*
X56461Y-50853D01*
X56473Y-50876D01*
X56484Y-50887D01*
X56506Y-50898D01*
X56574Y-50898D01*
X56596Y-50887D01*
X56607Y-50876D01*
X56919Y-50497D02*
X56998Y-50384D01*
X57054Y-50497D02*
X57054Y-50260D01*
X56964Y-50260D01*
X56942Y-50272D01*
X56930Y-50283D01*
X56919Y-50305D01*
X56919Y-50339D01*
X56930Y-50362D01*
X56942Y-50373D01*
X56964Y-50384D01*
X57054Y-50384D01*
X56717Y-50260D02*
X56762Y-50260D01*
X56784Y-50272D01*
X56795Y-50283D01*
X56818Y-50317D01*
X56829Y-50362D01*
X56829Y-50452D01*
X56818Y-50474D01*
X56807Y-50485D01*
X56784Y-50497D01*
X56739Y-50497D01*
X56717Y-50485D01*
X56705Y-50474D01*
X56694Y-50452D01*
X56694Y-50395D01*
X56705Y-50373D01*
X56717Y-50362D01*
X56739Y-50350D01*
X56784Y-50350D01*
X56807Y-50362D01*
X56818Y-50373D01*
X56829Y-50395D01*
X56604Y-50283D02*
X56593Y-50272D01*
X56570Y-50260D01*
X56514Y-50260D01*
X56492Y-50272D01*
X56480Y-50283D01*
X56469Y-50305D01*
X56469Y-50328D01*
X56480Y-50362D01*
X56615Y-50497D01*
X56469Y-50497D01*
X54985Y-47761D02*
X54872Y-47682D01*
X54985Y-47626D02*
X54749Y-47626D01*
X54749Y-47716D01*
X54760Y-47739D01*
X54771Y-47750D01*
X54794Y-47761D01*
X54827Y-47761D01*
X54850Y-47750D01*
X54861Y-47739D01*
X54872Y-47716D01*
X54872Y-47626D01*
X54749Y-47975D02*
X54749Y-47862D01*
X54861Y-47851D01*
X54850Y-47862D01*
X54839Y-47885D01*
X54839Y-47941D01*
X54850Y-47964D01*
X54861Y-47975D01*
X54884Y-47986D01*
X54940Y-47986D01*
X54962Y-47975D01*
X54974Y-47964D01*
X54985Y-47941D01*
X54985Y-47885D01*
X54974Y-47862D01*
X54962Y-47851D01*
X54749Y-48065D02*
X54749Y-48222D01*
X54985Y-48121D01*
X57317Y-49312D02*
X57395Y-49199D01*
X57452Y-49312D02*
X57452Y-49075D01*
X57362Y-49075D01*
X57339Y-49087D01*
X57328Y-49098D01*
X57317Y-49120D01*
X57317Y-49154D01*
X57328Y-49177D01*
X57339Y-49188D01*
X57362Y-49199D01*
X57452Y-49199D01*
X57103Y-49075D02*
X57215Y-49075D01*
X57227Y-49188D01*
X57215Y-49177D01*
X57193Y-49165D01*
X57137Y-49165D01*
X57114Y-49177D01*
X57103Y-49188D01*
X57092Y-49210D01*
X57092Y-49267D01*
X57103Y-49289D01*
X57114Y-49300D01*
X57137Y-49312D01*
X57193Y-49312D01*
X57215Y-49300D01*
X57227Y-49289D01*
X56957Y-49177D02*
X56979Y-49165D01*
X56991Y-49154D01*
X57002Y-49132D01*
X57002Y-49120D01*
X56991Y-49098D01*
X56979Y-49087D01*
X56957Y-49075D01*
X56912Y-49075D01*
X56889Y-49087D01*
X56878Y-49098D01*
X56867Y-49120D01*
X56867Y-49132D01*
X56878Y-49154D01*
X56889Y-49165D01*
X56912Y-49177D01*
X56957Y-49177D01*
X56979Y-49188D01*
X56991Y-49199D01*
X57002Y-49222D01*
X57002Y-49267D01*
X56991Y-49289D01*
X56979Y-49300D01*
X56957Y-49312D01*
X56912Y-49312D01*
X56889Y-49300D01*
X56878Y-49289D01*
X56867Y-49267D01*
X56867Y-49222D01*
X56878Y-49199D01*
X56889Y-49188D01*
X56912Y-49177D01*
X56942Y-47781D02*
X56829Y-47702D01*
X56942Y-47646D02*
X56705Y-47646D01*
X56705Y-47736D01*
X56717Y-47758D01*
X56728Y-47769D01*
X56750Y-47781D01*
X56784Y-47781D01*
X56807Y-47769D01*
X56818Y-47758D01*
X56829Y-47736D01*
X56829Y-47646D01*
X56705Y-47994D02*
X56705Y-47882D01*
X56818Y-47871D01*
X56807Y-47882D01*
X56795Y-47904D01*
X56795Y-47961D01*
X56807Y-47983D01*
X56818Y-47994D01*
X56840Y-48006D01*
X56897Y-48006D01*
X56919Y-47994D01*
X56930Y-47983D01*
X56942Y-47961D01*
X56942Y-47904D01*
X56930Y-47882D01*
X56919Y-47871D01*
X56728Y-48096D02*
X56717Y-48107D01*
X56705Y-48129D01*
X56705Y-48186D01*
X56717Y-48208D01*
X56728Y-48219D01*
X56750Y-48231D01*
X56773Y-48231D01*
X56807Y-48219D01*
X56942Y-48084D01*
X56942Y-48231D01*
X56548Y-47789D02*
X56435Y-47710D01*
X56548Y-47654D02*
X56312Y-47654D01*
X56312Y-47744D01*
X56323Y-47766D01*
X56334Y-47777D01*
X56357Y-47789D01*
X56390Y-47789D01*
X56413Y-47777D01*
X56424Y-47766D01*
X56435Y-47744D01*
X56435Y-47654D01*
X56312Y-48002D02*
X56312Y-47890D01*
X56424Y-47879D01*
X56413Y-47890D01*
X56402Y-47912D01*
X56402Y-47969D01*
X56413Y-47991D01*
X56424Y-48002D01*
X56447Y-48014D01*
X56503Y-48014D01*
X56525Y-48002D01*
X56537Y-47991D01*
X56548Y-47969D01*
X56548Y-47912D01*
X56537Y-47890D01*
X56525Y-47879D01*
X56312Y-48092D02*
X56312Y-48239D01*
X56402Y-48160D01*
X56402Y-48194D01*
X56413Y-48216D01*
X56424Y-48227D01*
X56447Y-48239D01*
X56503Y-48239D01*
X56525Y-48227D01*
X56537Y-48216D01*
X56548Y-48194D01*
X56548Y-48126D01*
X56537Y-48104D01*
X56525Y-48092D01*
X56134Y-47793D02*
X56022Y-47714D01*
X56134Y-47658D02*
X55898Y-47658D01*
X55898Y-47748D01*
X55910Y-47770D01*
X55921Y-47781D01*
X55943Y-47793D01*
X55977Y-47793D01*
X56000Y-47781D01*
X56011Y-47770D01*
X56022Y-47748D01*
X56022Y-47658D01*
X55898Y-48006D02*
X55898Y-47894D01*
X56011Y-47883D01*
X56000Y-47894D01*
X55988Y-47916D01*
X55988Y-47973D01*
X56000Y-47995D01*
X56011Y-48006D01*
X56033Y-48017D01*
X56089Y-48017D01*
X56112Y-48006D01*
X56123Y-47995D01*
X56134Y-47973D01*
X56134Y-47916D01*
X56123Y-47894D01*
X56112Y-47883D01*
X55977Y-48220D02*
X56134Y-48220D01*
X55887Y-48164D02*
X56056Y-48107D01*
X56056Y-48254D01*
X55764Y-47785D02*
X55652Y-47706D01*
X55764Y-47650D02*
X55528Y-47650D01*
X55528Y-47740D01*
X55539Y-47762D01*
X55551Y-47773D01*
X55573Y-47785D01*
X55607Y-47785D01*
X55629Y-47773D01*
X55641Y-47762D01*
X55652Y-47740D01*
X55652Y-47650D01*
X55528Y-47998D02*
X55528Y-47886D01*
X55641Y-47875D01*
X55629Y-47886D01*
X55618Y-47908D01*
X55618Y-47965D01*
X55629Y-47987D01*
X55641Y-47998D01*
X55663Y-48010D01*
X55719Y-48010D01*
X55742Y-47998D01*
X55753Y-47987D01*
X55764Y-47965D01*
X55764Y-47908D01*
X55753Y-47886D01*
X55742Y-47875D01*
X55528Y-48223D02*
X55528Y-48111D01*
X55641Y-48100D01*
X55629Y-48111D01*
X55618Y-48133D01*
X55618Y-48190D01*
X55629Y-48212D01*
X55641Y-48223D01*
X55663Y-48235D01*
X55719Y-48235D01*
X55742Y-48223D01*
X55753Y-48212D01*
X55764Y-48190D01*
X55764Y-48133D01*
X55753Y-48111D01*
X55742Y-48100D01*
X55367Y-47773D02*
X55254Y-47694D01*
X55367Y-47638D02*
X55131Y-47638D01*
X55131Y-47728D01*
X55142Y-47750D01*
X55153Y-47762D01*
X55176Y-47773D01*
X55209Y-47773D01*
X55232Y-47762D01*
X55243Y-47750D01*
X55254Y-47728D01*
X55254Y-47638D01*
X55131Y-47987D02*
X55131Y-47874D01*
X55243Y-47863D01*
X55232Y-47874D01*
X55221Y-47897D01*
X55221Y-47953D01*
X55232Y-47975D01*
X55243Y-47987D01*
X55266Y-47998D01*
X55322Y-47998D01*
X55344Y-47987D01*
X55356Y-47975D01*
X55367Y-47953D01*
X55367Y-47897D01*
X55356Y-47874D01*
X55344Y-47863D01*
X55131Y-48200D02*
X55131Y-48155D01*
X55142Y-48133D01*
X55153Y-48122D01*
X55187Y-48099D01*
X55232Y-48088D01*
X55322Y-48088D01*
X55344Y-48099D01*
X55356Y-48110D01*
X55367Y-48133D01*
X55367Y-48178D01*
X55356Y-48200D01*
X55344Y-48212D01*
X55322Y-48223D01*
X55266Y-48223D01*
X55243Y-48212D01*
X55232Y-48200D01*
X55221Y-48178D01*
X55221Y-48133D01*
X55232Y-48110D01*
X55243Y-48099D01*
X55266Y-48088D01*
X66514Y-48583D02*
X66592Y-48471D01*
X66649Y-48583D02*
X66649Y-48347D01*
X66559Y-48347D01*
X66536Y-48358D01*
X66525Y-48370D01*
X66514Y-48392D01*
X66514Y-48426D01*
X66525Y-48448D01*
X66536Y-48460D01*
X66559Y-48471D01*
X66649Y-48471D01*
X66424Y-48370D02*
X66412Y-48358D01*
X66390Y-48347D01*
X66334Y-48347D01*
X66311Y-48358D01*
X66300Y-48370D01*
X66289Y-48392D01*
X66289Y-48415D01*
X66300Y-48448D01*
X66435Y-48583D01*
X66289Y-48583D01*
X66210Y-48347D02*
X66064Y-48347D01*
X66142Y-48437D01*
X66109Y-48437D01*
X66086Y-48448D01*
X66075Y-48460D01*
X66064Y-48482D01*
X66064Y-48538D01*
X66075Y-48561D01*
X66086Y-48572D01*
X66109Y-48583D01*
X66176Y-48583D01*
X66199Y-48572D01*
X66210Y-48561D01*
X62277Y-49505D02*
X62356Y-49392D01*
X62412Y-49505D02*
X62412Y-49268D01*
X62322Y-49268D01*
X62300Y-49280D01*
X62289Y-49291D01*
X62277Y-49313D01*
X62277Y-49347D01*
X62289Y-49370D01*
X62300Y-49381D01*
X62322Y-49392D01*
X62412Y-49392D01*
X62075Y-49268D02*
X62120Y-49268D01*
X62142Y-49280D01*
X62154Y-49291D01*
X62176Y-49325D01*
X62187Y-49370D01*
X62187Y-49460D01*
X62176Y-49482D01*
X62165Y-49493D01*
X62142Y-49505D01*
X62097Y-49505D01*
X62075Y-49493D01*
X62064Y-49482D01*
X62052Y-49460D01*
X62052Y-49403D01*
X62064Y-49381D01*
X62075Y-49370D01*
X62097Y-49358D01*
X62142Y-49358D01*
X62165Y-49370D01*
X62176Y-49381D01*
X62187Y-49403D01*
X61974Y-49268D02*
X61816Y-49268D01*
X61917Y-49505D01*
X62262Y-49131D02*
X62340Y-49018D01*
X62397Y-49131D02*
X62397Y-48894D01*
X62307Y-48894D01*
X62284Y-48906D01*
X62273Y-48917D01*
X62262Y-48939D01*
X62262Y-48973D01*
X62273Y-48996D01*
X62284Y-49007D01*
X62307Y-49018D01*
X62397Y-49018D01*
X62059Y-48894D02*
X62104Y-48894D01*
X62127Y-48906D01*
X62138Y-48917D01*
X62160Y-48951D01*
X62172Y-48996D01*
X62172Y-49086D01*
X62160Y-49108D01*
X62149Y-49119D01*
X62127Y-49131D01*
X62082Y-49131D01*
X62059Y-49119D01*
X62048Y-49108D01*
X62037Y-49086D01*
X62037Y-49029D01*
X62048Y-49007D01*
X62059Y-48996D01*
X62082Y-48984D01*
X62127Y-48984D01*
X62149Y-48996D01*
X62160Y-49007D01*
X62172Y-49029D01*
X61834Y-48894D02*
X61879Y-48894D01*
X61902Y-48906D01*
X61913Y-48917D01*
X61935Y-48951D01*
X61947Y-48996D01*
X61947Y-49086D01*
X61935Y-49108D01*
X61924Y-49119D01*
X61902Y-49131D01*
X61857Y-49131D01*
X61834Y-49119D01*
X61823Y-49108D01*
X61812Y-49086D01*
X61812Y-49029D01*
X61823Y-49007D01*
X61834Y-48996D01*
X61857Y-48984D01*
X61902Y-48984D01*
X61924Y-48996D01*
X61935Y-49007D01*
X61947Y-49029D01*
X60703Y-48249D02*
X60781Y-48136D01*
X60838Y-48249D02*
X60838Y-48012D01*
X60748Y-48012D01*
X60725Y-48024D01*
X60714Y-48035D01*
X60703Y-48057D01*
X60703Y-48091D01*
X60714Y-48114D01*
X60725Y-48125D01*
X60748Y-48136D01*
X60838Y-48136D01*
X60489Y-48012D02*
X60601Y-48012D01*
X60613Y-48125D01*
X60601Y-48114D01*
X60579Y-48102D01*
X60523Y-48102D01*
X60500Y-48114D01*
X60489Y-48125D01*
X60478Y-48147D01*
X60478Y-48204D01*
X60489Y-48226D01*
X60500Y-48237D01*
X60523Y-48249D01*
X60579Y-48249D01*
X60601Y-48237D01*
X60613Y-48226D01*
X60253Y-48249D02*
X60388Y-48249D01*
X60320Y-48249D02*
X60320Y-48012D01*
X60343Y-48046D01*
X60365Y-48069D01*
X60388Y-48080D01*
X60710Y-48820D02*
X60789Y-48707D01*
X60845Y-48820D02*
X60845Y-48583D01*
X60755Y-48583D01*
X60733Y-48595D01*
X60722Y-48606D01*
X60710Y-48628D01*
X60710Y-48662D01*
X60722Y-48685D01*
X60733Y-48696D01*
X60755Y-48707D01*
X60845Y-48707D01*
X60508Y-48583D02*
X60553Y-48583D01*
X60575Y-48595D01*
X60587Y-48606D01*
X60609Y-48640D01*
X60620Y-48685D01*
X60620Y-48775D01*
X60609Y-48797D01*
X60598Y-48808D01*
X60575Y-48820D01*
X60530Y-48820D01*
X60508Y-48808D01*
X60497Y-48797D01*
X60485Y-48775D01*
X60485Y-48718D01*
X60497Y-48696D01*
X60508Y-48685D01*
X60530Y-48673D01*
X60575Y-48673D01*
X60598Y-48685D01*
X60609Y-48696D01*
X60620Y-48718D01*
X60272Y-48583D02*
X60384Y-48583D01*
X60395Y-48696D01*
X60384Y-48685D01*
X60362Y-48673D01*
X60305Y-48673D01*
X60283Y-48685D01*
X60272Y-48696D01*
X60260Y-48718D01*
X60260Y-48775D01*
X60272Y-48797D01*
X60283Y-48808D01*
X60305Y-48820D01*
X60362Y-48820D01*
X60384Y-48808D01*
X60395Y-48797D01*
X64053Y-48044D02*
X64064Y-48033D01*
X64075Y-48000D01*
X64075Y-47977D01*
X64064Y-47943D01*
X64042Y-47921D01*
X64019Y-47910D01*
X63974Y-47898D01*
X63940Y-47898D01*
X63895Y-47910D01*
X63873Y-47921D01*
X63850Y-47943D01*
X63839Y-47977D01*
X63839Y-48000D01*
X63850Y-48033D01*
X63862Y-48044D01*
X63839Y-48123D02*
X63839Y-48269D01*
X63929Y-48191D01*
X63929Y-48224D01*
X63940Y-48247D01*
X63952Y-48258D01*
X63974Y-48269D01*
X64030Y-48269D01*
X64053Y-48258D01*
X64064Y-48247D01*
X64075Y-48224D01*
X64075Y-48157D01*
X64064Y-48134D01*
X64053Y-48123D01*
X63839Y-48348D02*
X63839Y-48506D01*
X64075Y-48404D01*
X61616Y-50655D02*
X61627Y-50667D01*
X61661Y-50678D01*
X61683Y-50678D01*
X61717Y-50667D01*
X61740Y-50644D01*
X61751Y-50622D01*
X61762Y-50577D01*
X61762Y-50543D01*
X61751Y-50498D01*
X61740Y-50475D01*
X61717Y-50453D01*
X61683Y-50442D01*
X61661Y-50442D01*
X61627Y-50453D01*
X61616Y-50464D01*
X61537Y-50442D02*
X61391Y-50442D01*
X61470Y-50532D01*
X61436Y-50532D01*
X61413Y-50543D01*
X61402Y-50554D01*
X61391Y-50577D01*
X61391Y-50633D01*
X61402Y-50655D01*
X61413Y-50667D01*
X61436Y-50678D01*
X61503Y-50678D01*
X61526Y-50667D01*
X61537Y-50655D01*
X61177Y-50442D02*
X61290Y-50442D01*
X61301Y-50554D01*
X61290Y-50543D01*
X61267Y-50532D01*
X61211Y-50532D01*
X61188Y-50543D01*
X61177Y-50554D01*
X61166Y-50577D01*
X61166Y-50633D01*
X61177Y-50655D01*
X61188Y-50667D01*
X61211Y-50678D01*
X61267Y-50678D01*
X61290Y-50667D01*
X61301Y-50655D01*
X60742Y-52041D02*
X60753Y-52052D01*
X60787Y-52064D01*
X60809Y-52064D01*
X60843Y-52052D01*
X60866Y-52030D01*
X60877Y-52007D01*
X60888Y-51962D01*
X60888Y-51929D01*
X60877Y-51884D01*
X60866Y-51861D01*
X60843Y-51839D01*
X60809Y-51827D01*
X60787Y-51827D01*
X60753Y-51839D01*
X60742Y-51850D01*
X60663Y-51827D02*
X60517Y-51827D01*
X60596Y-51917D01*
X60562Y-51917D01*
X60539Y-51929D01*
X60528Y-51940D01*
X60517Y-51962D01*
X60517Y-52019D01*
X60528Y-52041D01*
X60539Y-52052D01*
X60562Y-52064D01*
X60629Y-52064D01*
X60652Y-52052D01*
X60663Y-52041D01*
X60427Y-51850D02*
X60416Y-51839D01*
X60393Y-51827D01*
X60337Y-51827D01*
X60314Y-51839D01*
X60303Y-51850D01*
X60292Y-51872D01*
X60292Y-51895D01*
X60303Y-51929D01*
X60438Y-52064D01*
X60292Y-52064D01*
X62226Y-49829D02*
X62237Y-49840D01*
X62271Y-49851D01*
X62294Y-49851D01*
X62327Y-49840D01*
X62350Y-49817D01*
X62361Y-49795D01*
X62372Y-49750D01*
X62372Y-49716D01*
X62361Y-49671D01*
X62350Y-49649D01*
X62327Y-49626D01*
X62294Y-49615D01*
X62271Y-49615D01*
X62237Y-49626D01*
X62226Y-49637D01*
X62147Y-49615D02*
X62001Y-49615D01*
X62080Y-49705D01*
X62046Y-49705D01*
X62024Y-49716D01*
X62012Y-49727D01*
X62001Y-49750D01*
X62001Y-49806D01*
X62012Y-49829D01*
X62024Y-49840D01*
X62046Y-49851D01*
X62114Y-49851D01*
X62136Y-49840D01*
X62147Y-49829D01*
X61776Y-49851D02*
X61911Y-49851D01*
X61844Y-49851D02*
X61844Y-49615D01*
X61866Y-49649D01*
X61889Y-49671D01*
X61911Y-49682D01*
X61608Y-51210D02*
X61619Y-51222D01*
X61653Y-51233D01*
X61676Y-51233D01*
X61709Y-51222D01*
X61732Y-51199D01*
X61743Y-51177D01*
X61754Y-51132D01*
X61754Y-51098D01*
X61743Y-51053D01*
X61732Y-51030D01*
X61709Y-51008D01*
X61676Y-50997D01*
X61653Y-50997D01*
X61619Y-51008D01*
X61608Y-51019D01*
X61529Y-50997D02*
X61383Y-50997D01*
X61462Y-51087D01*
X61428Y-51087D01*
X61406Y-51098D01*
X61394Y-51109D01*
X61383Y-51132D01*
X61383Y-51188D01*
X61394Y-51210D01*
X61406Y-51222D01*
X61428Y-51233D01*
X61496Y-51233D01*
X61518Y-51222D01*
X61529Y-51210D01*
X61181Y-50997D02*
X61226Y-50997D01*
X61248Y-51008D01*
X61259Y-51019D01*
X61282Y-51053D01*
X61293Y-51098D01*
X61293Y-51188D01*
X61282Y-51210D01*
X61271Y-51222D01*
X61248Y-51233D01*
X61203Y-51233D01*
X61181Y-51222D01*
X61169Y-51210D01*
X61158Y-51188D01*
X61158Y-51132D01*
X61169Y-51109D01*
X61181Y-51098D01*
X61203Y-51087D01*
X61248Y-51087D01*
X61271Y-51098D01*
X61282Y-51109D01*
X61293Y-51132D01*
X66541Y-50175D02*
X66552Y-50186D01*
X66586Y-50197D01*
X66609Y-50197D01*
X66642Y-50186D01*
X66665Y-50164D01*
X66676Y-50141D01*
X66687Y-50096D01*
X66687Y-50062D01*
X66676Y-50017D01*
X66665Y-49995D01*
X66642Y-49973D01*
X66609Y-49961D01*
X66586Y-49961D01*
X66552Y-49973D01*
X66541Y-49984D01*
X66462Y-49961D02*
X66316Y-49961D01*
X66395Y-50051D01*
X66361Y-50051D01*
X66339Y-50062D01*
X66327Y-50074D01*
X66316Y-50096D01*
X66316Y-50152D01*
X66327Y-50175D01*
X66339Y-50186D01*
X66361Y-50197D01*
X66429Y-50197D01*
X66451Y-50186D01*
X66462Y-50175D01*
X66114Y-50040D02*
X66114Y-50197D01*
X66170Y-49950D02*
X66226Y-50119D01*
X66080Y-50119D01*
X62718Y-50474D02*
X62730Y-50485D01*
X62763Y-50497D01*
X62786Y-50497D01*
X62820Y-50485D01*
X62842Y-50463D01*
X62853Y-50440D01*
X62865Y-50395D01*
X62865Y-50362D01*
X62853Y-50317D01*
X62842Y-50294D01*
X62820Y-50272D01*
X62786Y-50260D01*
X62763Y-50260D01*
X62730Y-50272D01*
X62718Y-50283D01*
X62640Y-50260D02*
X62493Y-50260D01*
X62572Y-50350D01*
X62538Y-50350D01*
X62516Y-50362D01*
X62505Y-50373D01*
X62493Y-50395D01*
X62493Y-50452D01*
X62505Y-50474D01*
X62516Y-50485D01*
X62538Y-50497D01*
X62606Y-50497D01*
X62628Y-50485D01*
X62640Y-50474D01*
X62415Y-50260D02*
X62268Y-50260D01*
X62347Y-50350D01*
X62313Y-50350D01*
X62291Y-50362D01*
X62280Y-50373D01*
X62268Y-50395D01*
X62268Y-50452D01*
X62280Y-50474D01*
X62291Y-50485D01*
X62313Y-50497D01*
X62381Y-50497D01*
X62403Y-50485D01*
X62415Y-50474D01*
X61486Y-48234D02*
X61497Y-48245D01*
X61531Y-48257D01*
X61553Y-48257D01*
X61587Y-48245D01*
X61610Y-48223D01*
X61621Y-48200D01*
X61632Y-48155D01*
X61632Y-48122D01*
X61621Y-48077D01*
X61610Y-48054D01*
X61587Y-48032D01*
X61553Y-48020D01*
X61531Y-48020D01*
X61497Y-48032D01*
X61486Y-48043D01*
X61407Y-48020D02*
X61261Y-48020D01*
X61340Y-48110D01*
X61306Y-48110D01*
X61284Y-48122D01*
X61272Y-48133D01*
X61261Y-48155D01*
X61261Y-48212D01*
X61272Y-48234D01*
X61284Y-48245D01*
X61306Y-48257D01*
X61374Y-48257D01*
X61396Y-48245D01*
X61407Y-48234D01*
X61115Y-48020D02*
X61092Y-48020D01*
X61070Y-48032D01*
X61059Y-48043D01*
X61047Y-48065D01*
X61036Y-48110D01*
X61036Y-48167D01*
X61047Y-48212D01*
X61059Y-48234D01*
X61070Y-48245D01*
X61092Y-48257D01*
X61115Y-48257D01*
X61137Y-48245D01*
X61149Y-48234D01*
X61160Y-48212D01*
X61171Y-48167D01*
X61171Y-48110D01*
X61160Y-48065D01*
X61149Y-48043D01*
X61137Y-48032D01*
X61115Y-48020D01*
X63266Y-48899D02*
X63277Y-48888D01*
X63288Y-48854D01*
X63288Y-48831D01*
X63277Y-48798D01*
X63254Y-48775D01*
X63232Y-48764D01*
X63187Y-48753D01*
X63153Y-48753D01*
X63108Y-48764D01*
X63086Y-48775D01*
X63063Y-48798D01*
X63052Y-48831D01*
X63052Y-48854D01*
X63063Y-48888D01*
X63074Y-48899D01*
X63052Y-48978D02*
X63052Y-49124D01*
X63142Y-49045D01*
X63142Y-49079D01*
X63153Y-49101D01*
X63164Y-49113D01*
X63187Y-49124D01*
X63243Y-49124D01*
X63266Y-49113D01*
X63277Y-49101D01*
X63288Y-49079D01*
X63288Y-49011D01*
X63277Y-48989D01*
X63266Y-48978D01*
X63153Y-49259D02*
X63142Y-49236D01*
X63131Y-49225D01*
X63108Y-49214D01*
X63097Y-49214D01*
X63074Y-49225D01*
X63063Y-49236D01*
X63052Y-49259D01*
X63052Y-49304D01*
X63063Y-49326D01*
X63074Y-49338D01*
X63097Y-49349D01*
X63108Y-49349D01*
X63131Y-49338D01*
X63142Y-49326D01*
X63153Y-49304D01*
X63153Y-49259D01*
X63164Y-49236D01*
X63176Y-49225D01*
X63198Y-49214D01*
X63243Y-49214D01*
X63266Y-49225D01*
X63277Y-49236D01*
X63288Y-49259D01*
X63288Y-49304D01*
X63277Y-49326D01*
X63266Y-49338D01*
X63243Y-49349D01*
X63198Y-49349D01*
X63176Y-49338D01*
X63164Y-49326D01*
X63153Y-49304D01*
X66655Y-49277D02*
X66667Y-49266D01*
X66678Y-49232D01*
X66678Y-49209D01*
X66667Y-49176D01*
X66644Y-49153D01*
X66622Y-49142D01*
X66577Y-49131D01*
X66543Y-49131D01*
X66498Y-49142D01*
X66475Y-49153D01*
X66453Y-49176D01*
X66442Y-49209D01*
X66442Y-49232D01*
X66453Y-49266D01*
X66464Y-49277D01*
X66442Y-49356D02*
X66442Y-49502D01*
X66532Y-49423D01*
X66532Y-49457D01*
X66543Y-49479D01*
X66554Y-49491D01*
X66577Y-49502D01*
X66633Y-49502D01*
X66655Y-49491D01*
X66667Y-49479D01*
X66678Y-49457D01*
X66678Y-49389D01*
X66667Y-49367D01*
X66655Y-49356D01*
X66678Y-49614D02*
X66678Y-49659D01*
X66667Y-49682D01*
X66655Y-49693D01*
X66622Y-49715D01*
X66577Y-49727D01*
X66487Y-49727D01*
X66464Y-49715D01*
X66453Y-49704D01*
X66442Y-49682D01*
X66442Y-49637D01*
X66453Y-49614D01*
X66464Y-49603D01*
X66487Y-49592D01*
X66543Y-49592D01*
X66565Y-49603D01*
X66577Y-49614D01*
X66588Y-49637D01*
X66588Y-49682D01*
X66577Y-49704D01*
X66565Y-49715D01*
X66543Y-49727D01*
X63299Y-47843D02*
X63377Y-47731D01*
X63434Y-47843D02*
X63434Y-47607D01*
X63344Y-47607D01*
X63321Y-47618D01*
X63310Y-47629D01*
X63299Y-47652D01*
X63299Y-47686D01*
X63310Y-47708D01*
X63321Y-47719D01*
X63344Y-47731D01*
X63434Y-47731D01*
X63096Y-47686D02*
X63096Y-47843D01*
X63152Y-47596D02*
X63209Y-47764D01*
X63062Y-47764D01*
X63007Y-48418D02*
X63086Y-48305D01*
X63142Y-48418D02*
X63142Y-48182D01*
X63052Y-48182D01*
X63030Y-48193D01*
X63019Y-48204D01*
X63007Y-48227D01*
X63007Y-48260D01*
X63019Y-48283D01*
X63030Y-48294D01*
X63052Y-48305D01*
X63142Y-48305D01*
X62805Y-48182D02*
X62850Y-48182D01*
X62872Y-48193D01*
X62884Y-48204D01*
X62906Y-48238D01*
X62917Y-48283D01*
X62917Y-48373D01*
X62906Y-48395D01*
X62895Y-48407D01*
X62872Y-48418D01*
X62827Y-48418D01*
X62805Y-48407D01*
X62794Y-48395D01*
X62782Y-48373D01*
X62782Y-48317D01*
X62794Y-48294D01*
X62805Y-48283D01*
X62827Y-48272D01*
X62872Y-48272D01*
X62895Y-48283D01*
X62906Y-48294D01*
X62917Y-48317D01*
X57371Y-47781D02*
X57258Y-47702D01*
X57371Y-47646D02*
X57134Y-47646D01*
X57134Y-47736D01*
X57146Y-47758D01*
X57157Y-47769D01*
X57179Y-47781D01*
X57213Y-47781D01*
X57236Y-47769D01*
X57247Y-47758D01*
X57258Y-47736D01*
X57258Y-47646D01*
X57157Y-47871D02*
X57146Y-47882D01*
X57134Y-47904D01*
X57134Y-47961D01*
X57146Y-47983D01*
X57157Y-47994D01*
X57179Y-48006D01*
X57202Y-48006D01*
X57236Y-47994D01*
X57371Y-47859D01*
X57371Y-48006D01*
X57213Y-48208D02*
X57371Y-48208D01*
X57123Y-48152D02*
X57292Y-48096D01*
X57292Y-48242D01*
X36174Y-24883D02*
X36174Y-25164D01*
X36193Y-25221D01*
X36230Y-25258D01*
X36287Y-25277D01*
X36324Y-25277D01*
X36024Y-24883D02*
X35780Y-24883D01*
X35912Y-25033D01*
X35855Y-25033D01*
X35818Y-25052D01*
X35799Y-25071D01*
X35780Y-25108D01*
X35780Y-25202D01*
X35799Y-25239D01*
X35818Y-25258D01*
X35855Y-25277D01*
X35968Y-25277D01*
X36005Y-25258D01*
X36024Y-25239D01*
X65700Y-48529D02*
X65700Y-48848D01*
X65681Y-48885D01*
X65662Y-48904D01*
X65625Y-48923D01*
X65550Y-48923D01*
X65512Y-48904D01*
X65493Y-48885D01*
X65475Y-48848D01*
X65475Y-48529D01*
X65081Y-48923D02*
X65306Y-48923D01*
X65193Y-48923D02*
X65193Y-48529D01*
X65231Y-48585D01*
X65268Y-48623D01*
X65306Y-48641D01*
X64743Y-48529D02*
X64818Y-48529D01*
X64856Y-48548D01*
X64875Y-48566D01*
X64912Y-48623D01*
X64931Y-48698D01*
X64931Y-48848D01*
X64912Y-48885D01*
X64893Y-48904D01*
X64856Y-48923D01*
X64781Y-48923D01*
X64743Y-48904D01*
X64725Y-48885D01*
X64706Y-48848D01*
X64706Y-48754D01*
X64725Y-48716D01*
X64743Y-48698D01*
X64781Y-48679D01*
X64856Y-48679D01*
X64893Y-48698D01*
X64912Y-48716D01*
X64931Y-48754D01*
X66007Y-49096D02*
X66007Y-49190D01*
X66101Y-49152D02*
X66007Y-49190D01*
X65914Y-49152D01*
X66064Y-49265D02*
X66007Y-49190D01*
X65951Y-49265D01*
X57595Y-29411D02*
X57595Y-29730D01*
X57576Y-29767D01*
X57557Y-29786D01*
X57520Y-29805D01*
X57445Y-29805D01*
X57407Y-29786D01*
X57389Y-29767D01*
X57370Y-29730D01*
X57370Y-29411D01*
X57014Y-29542D02*
X57014Y-29805D01*
X57107Y-29392D02*
X57201Y-29673D01*
X56957Y-29673D01*
X57677Y-31738D02*
X57677Y-31831D01*
X57770Y-31794D02*
X57677Y-31831D01*
X57583Y-31794D01*
X57733Y-31906D02*
X57677Y-31831D01*
X57620Y-31906D01*
X55315Y-29427D02*
X55315Y-29745D01*
X55296Y-29783D01*
X55278Y-29802D01*
X55240Y-29820D01*
X55165Y-29820D01*
X55128Y-29802D01*
X55109Y-29783D01*
X55090Y-29745D01*
X55090Y-29427D01*
X54715Y-29427D02*
X54903Y-29427D01*
X54922Y-29614D01*
X54903Y-29595D01*
X54865Y-29577D01*
X54772Y-29577D01*
X54734Y-29595D01*
X54715Y-29614D01*
X54697Y-29652D01*
X54697Y-29745D01*
X54715Y-29783D01*
X54734Y-29802D01*
X54772Y-29820D01*
X54865Y-29820D01*
X54903Y-29802D01*
X54922Y-29783D01*
X55409Y-31749D02*
X55409Y-31843D01*
X55503Y-31806D02*
X55409Y-31843D01*
X55315Y-31806D01*
X55465Y-31918D02*
X55409Y-31843D01*
X55353Y-31918D01*
X65601Y-28379D02*
X65601Y-28698D01*
X65582Y-28736D01*
X65564Y-28754D01*
X65526Y-28773D01*
X65451Y-28773D01*
X65414Y-28754D01*
X65395Y-28736D01*
X65376Y-28698D01*
X65376Y-28379D01*
X64982Y-28773D02*
X65207Y-28773D01*
X65095Y-28773D02*
X65095Y-28379D01*
X65132Y-28436D01*
X65170Y-28473D01*
X65207Y-28492D01*
X64757Y-28548D02*
X64795Y-28529D01*
X64814Y-28511D01*
X64832Y-28473D01*
X64832Y-28454D01*
X64814Y-28417D01*
X64795Y-28398D01*
X64757Y-28379D01*
X64682Y-28379D01*
X64645Y-28398D01*
X64626Y-28417D01*
X64607Y-28454D01*
X64607Y-28473D01*
X64626Y-28511D01*
X64645Y-28529D01*
X64682Y-28548D01*
X64757Y-28548D01*
X64795Y-28567D01*
X64814Y-28586D01*
X64832Y-28623D01*
X64832Y-28698D01*
X64814Y-28736D01*
X64795Y-28754D01*
X64757Y-28773D01*
X64682Y-28773D01*
X64645Y-28754D01*
X64626Y-28736D01*
X64607Y-28698D01*
X64607Y-28623D01*
X64626Y-28586D01*
X64645Y-28567D01*
X64682Y-28548D01*
X65507Y-30714D02*
X65507Y-30808D01*
X65601Y-30770D02*
X65507Y-30808D01*
X65414Y-30770D01*
X65564Y-30883D02*
X65507Y-30808D01*
X65451Y-30883D01*
X63475Y-28379D02*
X63475Y-28698D01*
X63456Y-28736D01*
X63438Y-28754D01*
X63400Y-28773D01*
X63325Y-28773D01*
X63288Y-28754D01*
X63269Y-28736D01*
X63250Y-28698D01*
X63250Y-28379D01*
X62856Y-28773D02*
X63081Y-28773D01*
X62969Y-28773D02*
X62969Y-28379D01*
X63006Y-28436D01*
X63044Y-28473D01*
X63081Y-28492D01*
X62725Y-28379D02*
X62463Y-28379D01*
X62631Y-28773D01*
X63370Y-30726D02*
X63370Y-30820D01*
X63463Y-30782D02*
X63370Y-30820D01*
X63276Y-30782D01*
X63426Y-30895D02*
X63370Y-30820D01*
X63313Y-30895D01*
G54D20*
X56900Y-52563D02*
X56952Y-52470D01*
X56989Y-52563D02*
X56989Y-52368D01*
X56930Y-52368D01*
X56915Y-52377D01*
X56907Y-52386D01*
X56900Y-52405D01*
X56900Y-52433D01*
X56907Y-52451D01*
X56915Y-52461D01*
X56930Y-52470D01*
X56989Y-52470D01*
X56847Y-52368D02*
X56743Y-52368D01*
X56810Y-52563D01*
X56601Y-52563D02*
X56690Y-52563D01*
X56645Y-52563D02*
X56645Y-52368D01*
X56660Y-52396D01*
X56675Y-52414D01*
X56690Y-52423D01*
X56892Y-52067D02*
X56944Y-51974D01*
X56981Y-52067D02*
X56981Y-51872D01*
X56922Y-51872D01*
X56907Y-51881D01*
X56899Y-51890D01*
X56892Y-51909D01*
X56892Y-51937D01*
X56899Y-51955D01*
X56907Y-51964D01*
X56922Y-51974D01*
X56981Y-51974D01*
X56839Y-51872D02*
X56735Y-51872D01*
X56802Y-52067D01*
X56682Y-51890D02*
X56675Y-51881D01*
X56660Y-51872D01*
X56623Y-51872D01*
X56608Y-51881D01*
X56600Y-51890D01*
X56593Y-51909D01*
X56593Y-51927D01*
X56600Y-51955D01*
X56690Y-52067D01*
X56593Y-52067D01*
X57128Y-51704D02*
X57180Y-51612D01*
X57218Y-51704D02*
X57218Y-51509D01*
X57158Y-51509D01*
X57143Y-51519D01*
X57135Y-51528D01*
X57128Y-51547D01*
X57128Y-51574D01*
X57135Y-51593D01*
X57143Y-51602D01*
X57158Y-51612D01*
X57218Y-51612D01*
X57076Y-51509D02*
X56971Y-51509D01*
X57038Y-51704D01*
X56926Y-51509D02*
X56829Y-51509D01*
X56881Y-51584D01*
X56859Y-51584D01*
X56844Y-51593D01*
X56836Y-51602D01*
X56829Y-51621D01*
X56829Y-51667D01*
X56836Y-51686D01*
X56844Y-51695D01*
X56859Y-51704D01*
X56904Y-51704D01*
X56919Y-51695D01*
X56926Y-51686D01*
X58329Y-51811D02*
X58381Y-51718D01*
X58418Y-51811D02*
X58418Y-51616D01*
X58359Y-51616D01*
X58344Y-51625D01*
X58336Y-51634D01*
X58329Y-51653D01*
X58329Y-51681D01*
X58336Y-51699D01*
X58344Y-51709D01*
X58359Y-51718D01*
X58418Y-51718D01*
X58194Y-51616D02*
X58224Y-51616D01*
X58239Y-51625D01*
X58247Y-51634D01*
X58261Y-51662D01*
X58269Y-51699D01*
X58269Y-51774D01*
X58261Y-51792D01*
X58254Y-51801D01*
X58239Y-51811D01*
X58209Y-51811D01*
X58194Y-51801D01*
X58187Y-51792D01*
X58179Y-51774D01*
X58179Y-51727D01*
X58187Y-51709D01*
X58194Y-51699D01*
X58209Y-51690D01*
X58239Y-51690D01*
X58254Y-51699D01*
X58261Y-51709D01*
X58269Y-51727D01*
X58104Y-51811D02*
X58075Y-51811D01*
X58060Y-51801D01*
X58052Y-51792D01*
X58037Y-51764D01*
X58030Y-51727D01*
X58030Y-51653D01*
X58037Y-51634D01*
X58045Y-51625D01*
X58060Y-51616D01*
X58090Y-51616D01*
X58104Y-51625D01*
X58112Y-51634D01*
X58119Y-51653D01*
X58119Y-51699D01*
X58112Y-51718D01*
X58104Y-51727D01*
X58090Y-51736D01*
X58060Y-51736D01*
X58045Y-51727D01*
X58037Y-51718D01*
X58030Y-51699D01*
X57929Y-51036D02*
X57836Y-50984D01*
X57929Y-50947D02*
X57734Y-50947D01*
X57734Y-51006D01*
X57743Y-51021D01*
X57752Y-51029D01*
X57771Y-51036D01*
X57799Y-51036D01*
X57817Y-51029D01*
X57827Y-51021D01*
X57836Y-51006D01*
X57836Y-50947D01*
X57734Y-51089D02*
X57734Y-51193D01*
X57929Y-51126D01*
X57734Y-51283D02*
X57734Y-51298D01*
X57743Y-51313D01*
X57752Y-51320D01*
X57771Y-51328D01*
X57808Y-51335D01*
X57855Y-51335D01*
X57892Y-51328D01*
X57910Y-51320D01*
X57920Y-51313D01*
X57929Y-51298D01*
X57929Y-51283D01*
X57920Y-51268D01*
X57910Y-51261D01*
X57892Y-51253D01*
X57855Y-51246D01*
X57808Y-51246D01*
X57771Y-51253D01*
X57752Y-51261D01*
X57743Y-51268D01*
X57734Y-51283D01*
X58293Y-52323D02*
X58346Y-52230D01*
X58383Y-52323D02*
X58383Y-52128D01*
X58323Y-52128D01*
X58308Y-52137D01*
X58301Y-52146D01*
X58293Y-52165D01*
X58293Y-52193D01*
X58301Y-52211D01*
X58308Y-52220D01*
X58323Y-52230D01*
X58383Y-52230D01*
X58159Y-52128D02*
X58189Y-52128D01*
X58204Y-52137D01*
X58211Y-52146D01*
X58226Y-52174D01*
X58234Y-52211D01*
X58234Y-52285D01*
X58226Y-52304D01*
X58219Y-52313D01*
X58204Y-52323D01*
X58174Y-52323D01*
X58159Y-52313D01*
X58151Y-52304D01*
X58144Y-52285D01*
X58144Y-52239D01*
X58151Y-52220D01*
X58159Y-52211D01*
X58174Y-52202D01*
X58204Y-52202D01*
X58219Y-52211D01*
X58226Y-52220D01*
X58234Y-52239D01*
X58054Y-52211D02*
X58069Y-52202D01*
X58077Y-52193D01*
X58084Y-52174D01*
X58084Y-52165D01*
X58077Y-52146D01*
X58069Y-52137D01*
X58054Y-52128D01*
X58024Y-52128D01*
X58009Y-52137D01*
X58002Y-52146D01*
X57994Y-52165D01*
X57994Y-52174D01*
X58002Y-52193D01*
X58009Y-52202D01*
X58024Y-52211D01*
X58054Y-52211D01*
X58069Y-52220D01*
X58077Y-52230D01*
X58084Y-52248D01*
X58084Y-52285D01*
X58077Y-52304D01*
X58069Y-52313D01*
X58054Y-52323D01*
X58024Y-52323D01*
X58009Y-52313D01*
X58002Y-52304D01*
X57994Y-52285D01*
X57994Y-52248D01*
X58002Y-52230D01*
X58009Y-52220D01*
X58024Y-52211D01*
G54D10*
X49349Y-49226D02*
X49349Y-49544D01*
X49330Y-49582D01*
X49312Y-49601D01*
X49274Y-49619D01*
X49199Y-49619D01*
X49162Y-49601D01*
X49143Y-49582D01*
X49124Y-49544D01*
X49124Y-49226D01*
X48730Y-49619D02*
X48955Y-49619D01*
X48843Y-49619D02*
X48843Y-49226D01*
X48880Y-49282D01*
X48918Y-49320D01*
X48955Y-49338D01*
X48356Y-49619D02*
X48580Y-49619D01*
X48468Y-49619D02*
X48468Y-49226D01*
X48505Y-49282D01*
X48543Y-49320D01*
X48580Y-49338D01*
X50009Y-50070D02*
X50009Y-50164D01*
X50103Y-50127D02*
X50009Y-50164D01*
X49916Y-50127D01*
X50066Y-50239D02*
X50009Y-50164D01*
X49953Y-50239D01*
X59672Y-48860D02*
X59672Y-49178D01*
X59653Y-49216D01*
X59634Y-49235D01*
X59597Y-49253D01*
X59522Y-49253D01*
X59485Y-49235D01*
X59466Y-49216D01*
X59447Y-49178D01*
X59447Y-48860D01*
X59053Y-49253D02*
X59278Y-49253D01*
X59166Y-49253D02*
X59166Y-48860D01*
X59203Y-48916D01*
X59241Y-48953D01*
X59278Y-48972D01*
X58697Y-48860D02*
X58885Y-48860D01*
X58903Y-49047D01*
X58885Y-49028D01*
X58847Y-49010D01*
X58753Y-49010D01*
X58716Y-49028D01*
X58697Y-49047D01*
X58678Y-49085D01*
X58678Y-49178D01*
X58697Y-49216D01*
X58716Y-49235D01*
X58753Y-49253D01*
X58847Y-49253D01*
X58885Y-49235D01*
X58903Y-49216D01*
X60393Y-51537D02*
X60393Y-51631D01*
X60487Y-51593D02*
X60393Y-51631D01*
X60299Y-51593D01*
X60449Y-51706D02*
X60393Y-51631D01*
X60337Y-51706D01*
X65574Y-50230D02*
X65312Y-50623D01*
X65312Y-50230D02*
X65574Y-50623D01*
X64955Y-50623D02*
X65180Y-50623D01*
X65068Y-50623D02*
X65068Y-50230D01*
X65105Y-50286D01*
X65143Y-50323D01*
X65180Y-50342D01*
X46831Y-45856D02*
X46719Y-45777D01*
X46831Y-45721D02*
X46595Y-45721D01*
X46595Y-45811D01*
X46606Y-45833D01*
X46618Y-45844D01*
X46640Y-45856D01*
X46674Y-45856D01*
X46696Y-45844D01*
X46708Y-45833D01*
X46719Y-45811D01*
X46719Y-45721D01*
X46674Y-46058D02*
X46831Y-46058D01*
X46584Y-46002D02*
X46753Y-45946D01*
X46753Y-46092D01*
X46831Y-46305D02*
X46831Y-46170D01*
X46831Y-46238D02*
X46595Y-46238D01*
X46629Y-46215D01*
X46651Y-46193D01*
X46663Y-46170D01*
X54631Y-42688D02*
X54518Y-42610D01*
X54631Y-42553D02*
X54394Y-42553D01*
X54394Y-42643D01*
X54406Y-42666D01*
X54417Y-42677D01*
X54439Y-42688D01*
X54473Y-42688D01*
X54496Y-42677D01*
X54507Y-42666D01*
X54518Y-42643D01*
X54518Y-42553D01*
X54631Y-42913D02*
X54631Y-42778D01*
X54631Y-42846D02*
X54394Y-42846D01*
X54428Y-42823D01*
X54451Y-42801D01*
X54462Y-42778D01*
X56496Y-38993D02*
X56574Y-38880D01*
X56631Y-38993D02*
X56631Y-38757D01*
X56541Y-38757D01*
X56518Y-38768D01*
X56507Y-38779D01*
X56496Y-38802D01*
X56496Y-38835D01*
X56507Y-38858D01*
X56518Y-38869D01*
X56541Y-38880D01*
X56631Y-38880D01*
X56406Y-38779D02*
X56394Y-38768D01*
X56372Y-38757D01*
X56316Y-38757D01*
X56293Y-38768D01*
X56282Y-38779D01*
X56271Y-38802D01*
X56271Y-38824D01*
X56282Y-38858D01*
X56417Y-38993D01*
X56271Y-38993D01*
X56496Y-38127D02*
X56574Y-38014D01*
X56631Y-38127D02*
X56631Y-37890D01*
X56541Y-37890D01*
X56518Y-37902D01*
X56507Y-37913D01*
X56496Y-37935D01*
X56496Y-37969D01*
X56507Y-37992D01*
X56518Y-38003D01*
X56541Y-38014D01*
X56631Y-38014D01*
X56282Y-37890D02*
X56394Y-37890D01*
X56406Y-38003D01*
X56394Y-37992D01*
X56372Y-37980D01*
X56316Y-37980D01*
X56293Y-37992D01*
X56282Y-38003D01*
X56271Y-38025D01*
X56271Y-38082D01*
X56282Y-38104D01*
X56293Y-38115D01*
X56316Y-38127D01*
X56372Y-38127D01*
X56394Y-38115D01*
X56406Y-38104D01*
X58032Y-35161D02*
X57920Y-35082D01*
X58032Y-35026D02*
X57796Y-35026D01*
X57796Y-35116D01*
X57807Y-35138D01*
X57818Y-35150D01*
X57841Y-35161D01*
X57875Y-35161D01*
X57897Y-35150D01*
X57908Y-35138D01*
X57920Y-35116D01*
X57920Y-35026D01*
X57897Y-35296D02*
X57886Y-35273D01*
X57875Y-35262D01*
X57852Y-35251D01*
X57841Y-35251D01*
X57818Y-35262D01*
X57807Y-35273D01*
X57796Y-35296D01*
X57796Y-35341D01*
X57807Y-35363D01*
X57818Y-35375D01*
X57841Y-35386D01*
X57852Y-35386D01*
X57875Y-35375D01*
X57886Y-35363D01*
X57897Y-35341D01*
X57897Y-35296D01*
X57908Y-35273D01*
X57920Y-35262D01*
X57942Y-35251D01*
X57987Y-35251D01*
X58010Y-35262D01*
X58021Y-35273D01*
X58032Y-35296D01*
X58032Y-35341D01*
X58021Y-35363D01*
X58010Y-35375D01*
X57987Y-35386D01*
X57942Y-35386D01*
X57920Y-35375D01*
X57908Y-35363D01*
X57897Y-35341D01*
X57312Y-34665D02*
X57199Y-34586D01*
X57312Y-34530D02*
X57075Y-34530D01*
X57075Y-34620D01*
X57087Y-34642D01*
X57098Y-34654D01*
X57120Y-34665D01*
X57154Y-34665D01*
X57177Y-34654D01*
X57188Y-34642D01*
X57199Y-34620D01*
X57199Y-34530D01*
X57312Y-34777D02*
X57312Y-34822D01*
X57300Y-34845D01*
X57289Y-34856D01*
X57255Y-34879D01*
X57210Y-34890D01*
X57120Y-34890D01*
X57098Y-34879D01*
X57087Y-34867D01*
X57075Y-34845D01*
X57075Y-34800D01*
X57087Y-34777D01*
X57098Y-34766D01*
X57120Y-34755D01*
X57177Y-34755D01*
X57199Y-34766D01*
X57210Y-34777D01*
X57222Y-34800D01*
X57222Y-34845D01*
X57210Y-34867D01*
X57199Y-34879D01*
X57177Y-34890D01*
X54575Y-34895D02*
X54463Y-34816D01*
X54575Y-34760D02*
X54339Y-34760D01*
X54339Y-34850D01*
X54350Y-34872D01*
X54362Y-34884D01*
X54384Y-34895D01*
X54418Y-34895D01*
X54440Y-34884D01*
X54452Y-34872D01*
X54463Y-34850D01*
X54463Y-34760D01*
X54575Y-35120D02*
X54575Y-34985D01*
X54575Y-35052D02*
X54339Y-35052D01*
X54373Y-35030D01*
X54395Y-35007D01*
X54407Y-34985D01*
X54339Y-35266D02*
X54339Y-35289D01*
X54350Y-35311D01*
X54362Y-35322D01*
X54384Y-35334D01*
X54429Y-35345D01*
X54485Y-35345D01*
X54530Y-35334D01*
X54553Y-35322D01*
X54564Y-35311D01*
X54575Y-35289D01*
X54575Y-35266D01*
X54564Y-35244D01*
X54553Y-35232D01*
X54530Y-35221D01*
X54485Y-35210D01*
X54429Y-35210D01*
X54384Y-35221D01*
X54362Y-35232D01*
X54350Y-35244D01*
X54339Y-35266D01*
X53481Y-34769D02*
X53368Y-34690D01*
X53481Y-34634D02*
X53245Y-34634D01*
X53245Y-34724D01*
X53256Y-34746D01*
X53267Y-34758D01*
X53290Y-34769D01*
X53323Y-34769D01*
X53346Y-34758D01*
X53357Y-34746D01*
X53368Y-34724D01*
X53368Y-34634D01*
X53481Y-34994D02*
X53481Y-34859D01*
X53481Y-34926D02*
X53245Y-34926D01*
X53278Y-34904D01*
X53301Y-34881D01*
X53312Y-34859D01*
X53481Y-35219D02*
X53481Y-35084D01*
X53481Y-35151D02*
X53245Y-35151D01*
X53278Y-35129D01*
X53301Y-35106D01*
X53312Y-35084D01*
X70178Y-25698D02*
X70178Y-25979D01*
X70197Y-26036D01*
X70234Y-26073D01*
X70290Y-26092D01*
X70328Y-26092D01*
X69822Y-25829D02*
X69822Y-26092D01*
X69916Y-25679D02*
X70009Y-25961D01*
X69766Y-25961D01*
X56748Y-33486D02*
X56748Y-33804D01*
X56730Y-33842D01*
X56711Y-33861D01*
X56673Y-33879D01*
X56598Y-33879D01*
X56561Y-33861D01*
X56542Y-33842D01*
X56523Y-33804D01*
X56523Y-33486D01*
X56373Y-33486D02*
X56130Y-33486D01*
X56261Y-33636D01*
X56205Y-33636D01*
X56167Y-33654D01*
X56148Y-33673D01*
X56130Y-33711D01*
X56130Y-33804D01*
X56148Y-33842D01*
X56167Y-33861D01*
X56205Y-33879D01*
X56317Y-33879D01*
X56355Y-33861D01*
X56373Y-33842D01*
X55458Y-33814D02*
X55552Y-33814D01*
X55514Y-33721D02*
X55552Y-33814D01*
X55514Y-33908D01*
X55627Y-33758D02*
X55552Y-33814D01*
X55627Y-33871D01*
X63031Y-27109D02*
X63110Y-27109D01*
X63110Y-27233D02*
X63110Y-26997D01*
X62997Y-26997D01*
X62829Y-27109D02*
X62795Y-27120D01*
X62784Y-27132D01*
X62772Y-27154D01*
X62772Y-27188D01*
X62784Y-27210D01*
X62795Y-27222D01*
X62817Y-27233D01*
X62907Y-27233D01*
X62907Y-26997D01*
X62829Y-26997D01*
X62806Y-27008D01*
X62795Y-27019D01*
X62784Y-27042D01*
X62784Y-27064D01*
X62795Y-27087D01*
X62806Y-27098D01*
X62829Y-27109D01*
X62907Y-27109D01*
X62682Y-27019D02*
X62671Y-27008D01*
X62649Y-26997D01*
X62592Y-26997D01*
X62570Y-27008D01*
X62559Y-27019D01*
X62547Y-27042D01*
X62547Y-27064D01*
X62559Y-27098D01*
X62694Y-27233D01*
X62547Y-27233D01*
G54D20*
X59510Y-51811D02*
X59562Y-51718D01*
X59600Y-51811D02*
X59600Y-51616D01*
X59540Y-51616D01*
X59525Y-51625D01*
X59517Y-51634D01*
X59510Y-51653D01*
X59510Y-51681D01*
X59517Y-51699D01*
X59525Y-51709D01*
X59540Y-51718D01*
X59600Y-51718D01*
X59458Y-51616D02*
X59353Y-51616D01*
X59420Y-51811D01*
X59226Y-51616D02*
X59256Y-51616D01*
X59271Y-51625D01*
X59278Y-51634D01*
X59293Y-51662D01*
X59301Y-51699D01*
X59301Y-51774D01*
X59293Y-51792D01*
X59286Y-51801D01*
X59271Y-51811D01*
X59241Y-51811D01*
X59226Y-51801D01*
X59218Y-51792D01*
X59211Y-51774D01*
X59211Y-51727D01*
X59218Y-51709D01*
X59226Y-51699D01*
X59241Y-51690D01*
X59271Y-51690D01*
X59286Y-51699D01*
X59293Y-51709D01*
X59301Y-51727D01*
X59667Y-52323D02*
X59720Y-52230D01*
X59757Y-52323D02*
X59757Y-52128D01*
X59697Y-52128D01*
X59682Y-52137D01*
X59675Y-52146D01*
X59667Y-52165D01*
X59667Y-52193D01*
X59675Y-52211D01*
X59682Y-52220D01*
X59697Y-52230D01*
X59757Y-52230D01*
X59615Y-52128D02*
X59510Y-52128D01*
X59578Y-52323D01*
X59466Y-52128D02*
X59361Y-52128D01*
X59428Y-52323D01*
X64169Y-46025D02*
X64076Y-45972D01*
X64169Y-45935D02*
X63974Y-45935D01*
X63974Y-45995D01*
X63983Y-46010D01*
X63993Y-46017D01*
X64011Y-46025D01*
X64039Y-46025D01*
X64058Y-46017D01*
X64067Y-46010D01*
X64076Y-45995D01*
X64076Y-45935D01*
X63974Y-46077D02*
X63974Y-46182D01*
X64169Y-46114D01*
X63974Y-46316D02*
X63974Y-46241D01*
X64067Y-46234D01*
X64058Y-46241D01*
X64048Y-46256D01*
X64048Y-46294D01*
X64058Y-46309D01*
X64067Y-46316D01*
X64085Y-46324D01*
X64132Y-46324D01*
X64150Y-46316D01*
X64160Y-46309D01*
X64169Y-46294D01*
X64169Y-46256D01*
X64160Y-46241D01*
X64150Y-46234D01*
X63578Y-46028D02*
X63486Y-45976D01*
X63578Y-45939D02*
X63383Y-45939D01*
X63383Y-45999D01*
X63393Y-46014D01*
X63402Y-46021D01*
X63421Y-46028D01*
X63448Y-46028D01*
X63467Y-46021D01*
X63476Y-46014D01*
X63486Y-45999D01*
X63486Y-45939D01*
X63383Y-46081D02*
X63383Y-46185D01*
X63578Y-46118D01*
X63448Y-46313D02*
X63578Y-46313D01*
X63374Y-46275D02*
X63513Y-46238D01*
X63513Y-46335D01*
X60927Y-27330D02*
X60980Y-27238D01*
X61017Y-27330D02*
X61017Y-27135D01*
X60957Y-27135D01*
X60942Y-27145D01*
X60935Y-27154D01*
X60927Y-27173D01*
X60927Y-27200D01*
X60935Y-27219D01*
X60942Y-27228D01*
X60957Y-27238D01*
X61017Y-27238D01*
X60837Y-27219D02*
X60852Y-27210D01*
X60860Y-27200D01*
X60867Y-27182D01*
X60867Y-27173D01*
X60860Y-27154D01*
X60852Y-27145D01*
X60837Y-27135D01*
X60808Y-27135D01*
X60793Y-27145D01*
X60785Y-27154D01*
X60778Y-27173D01*
X60778Y-27182D01*
X60785Y-27200D01*
X60793Y-27210D01*
X60808Y-27219D01*
X60837Y-27219D01*
X60852Y-27228D01*
X60860Y-27238D01*
X60867Y-27256D01*
X60867Y-27293D01*
X60860Y-27312D01*
X60852Y-27321D01*
X60837Y-27330D01*
X60808Y-27330D01*
X60793Y-27321D01*
X60785Y-27312D01*
X60778Y-27293D01*
X60778Y-27256D01*
X60785Y-27238D01*
X60793Y-27228D01*
X60808Y-27219D01*
X60725Y-27135D02*
X60628Y-27135D01*
X60680Y-27210D01*
X60658Y-27210D01*
X60643Y-27219D01*
X60636Y-27228D01*
X60628Y-27247D01*
X60628Y-27293D01*
X60636Y-27312D01*
X60643Y-27321D01*
X60658Y-27330D01*
X60703Y-27330D01*
X60718Y-27321D01*
X60725Y-27312D01*
X61766Y-27326D02*
X61818Y-27234D01*
X61855Y-27326D02*
X61855Y-27131D01*
X61796Y-27131D01*
X61781Y-27141D01*
X61773Y-27150D01*
X61766Y-27169D01*
X61766Y-27196D01*
X61773Y-27215D01*
X61781Y-27224D01*
X61796Y-27234D01*
X61855Y-27234D01*
X61676Y-27215D02*
X61691Y-27206D01*
X61698Y-27196D01*
X61706Y-27178D01*
X61706Y-27169D01*
X61698Y-27150D01*
X61691Y-27141D01*
X61676Y-27131D01*
X61646Y-27131D01*
X61631Y-27141D01*
X61624Y-27150D01*
X61616Y-27169D01*
X61616Y-27178D01*
X61624Y-27196D01*
X61631Y-27206D01*
X61646Y-27215D01*
X61676Y-27215D01*
X61691Y-27224D01*
X61698Y-27234D01*
X61706Y-27252D01*
X61706Y-27289D01*
X61698Y-27308D01*
X61691Y-27317D01*
X61676Y-27326D01*
X61646Y-27326D01*
X61631Y-27317D01*
X61624Y-27308D01*
X61616Y-27289D01*
X61616Y-27252D01*
X61624Y-27234D01*
X61631Y-27224D01*
X61646Y-27215D01*
X61556Y-27150D02*
X61549Y-27141D01*
X61534Y-27131D01*
X61497Y-27131D01*
X61482Y-27141D01*
X61474Y-27150D01*
X61467Y-27169D01*
X61467Y-27187D01*
X61474Y-27215D01*
X61564Y-27326D01*
X61467Y-27326D01*
X62128Y-28271D02*
X62180Y-28178D01*
X62218Y-28271D02*
X62218Y-28076D01*
X62158Y-28076D01*
X62143Y-28086D01*
X62135Y-28095D01*
X62128Y-28113D01*
X62128Y-28141D01*
X62135Y-28160D01*
X62143Y-28169D01*
X62158Y-28178D01*
X62218Y-28178D01*
X62038Y-28160D02*
X62053Y-28151D01*
X62061Y-28141D01*
X62068Y-28123D01*
X62068Y-28113D01*
X62061Y-28095D01*
X62053Y-28086D01*
X62038Y-28076D01*
X62008Y-28076D01*
X61993Y-28086D01*
X61986Y-28095D01*
X61978Y-28113D01*
X61978Y-28123D01*
X61986Y-28141D01*
X61993Y-28151D01*
X62008Y-28160D01*
X62038Y-28160D01*
X62053Y-28169D01*
X62061Y-28178D01*
X62068Y-28197D01*
X62068Y-28234D01*
X62061Y-28253D01*
X62053Y-28262D01*
X62038Y-28271D01*
X62008Y-28271D01*
X61993Y-28262D01*
X61986Y-28253D01*
X61978Y-28234D01*
X61978Y-28197D01*
X61986Y-28178D01*
X61993Y-28169D01*
X62008Y-28160D01*
X61829Y-28271D02*
X61919Y-28271D01*
X61874Y-28271D02*
X61874Y-28076D01*
X61889Y-28104D01*
X61904Y-28123D01*
X61919Y-28132D01*
X61419Y-28249D02*
X61427Y-28258D01*
X61449Y-28267D01*
X61464Y-28267D01*
X61487Y-28258D01*
X61502Y-28240D01*
X61509Y-28221D01*
X61517Y-28184D01*
X61517Y-28156D01*
X61509Y-28119D01*
X61502Y-28100D01*
X61487Y-28082D01*
X61464Y-28072D01*
X61449Y-28072D01*
X61427Y-28082D01*
X61419Y-28091D01*
X61285Y-28137D02*
X61285Y-28267D01*
X61322Y-28063D02*
X61360Y-28202D01*
X61262Y-28202D01*
X61120Y-28267D02*
X61210Y-28267D01*
X61165Y-28267D02*
X61165Y-28072D01*
X61180Y-28100D01*
X61195Y-28119D01*
X61210Y-28128D01*
X63876Y-25985D02*
X63883Y-25994D01*
X63906Y-26004D01*
X63921Y-26004D01*
X63943Y-25994D01*
X63958Y-25976D01*
X63966Y-25957D01*
X63973Y-25920D01*
X63973Y-25892D01*
X63966Y-25855D01*
X63958Y-25836D01*
X63943Y-25818D01*
X63921Y-25809D01*
X63906Y-25809D01*
X63883Y-25818D01*
X63876Y-25827D01*
X63816Y-25827D02*
X63809Y-25818D01*
X63794Y-25809D01*
X63756Y-25809D01*
X63741Y-25818D01*
X63734Y-25827D01*
X63726Y-25846D01*
X63726Y-25864D01*
X63734Y-25892D01*
X63824Y-26004D01*
X63726Y-26004D01*
X63637Y-25892D02*
X63652Y-25883D01*
X63659Y-25874D01*
X63667Y-25855D01*
X63667Y-25846D01*
X63659Y-25827D01*
X63652Y-25818D01*
X63637Y-25809D01*
X63607Y-25809D01*
X63592Y-25818D01*
X63584Y-25827D01*
X63577Y-25846D01*
X63577Y-25855D01*
X63584Y-25874D01*
X63592Y-25883D01*
X63607Y-25892D01*
X63637Y-25892D01*
X63652Y-25901D01*
X63659Y-25911D01*
X63667Y-25929D01*
X63667Y-25966D01*
X63659Y-25985D01*
X63652Y-25994D01*
X63637Y-26004D01*
X63607Y-26004D01*
X63592Y-25994D01*
X63584Y-25985D01*
X63577Y-25966D01*
X63577Y-25929D01*
X63584Y-25911D01*
X63592Y-25901D01*
X63607Y-25892D01*
X63772Y-26769D02*
X63782Y-26761D01*
X63791Y-26739D01*
X63791Y-26724D01*
X63782Y-26701D01*
X63763Y-26686D01*
X63745Y-26679D01*
X63707Y-26671D01*
X63680Y-26671D01*
X63642Y-26679D01*
X63624Y-26686D01*
X63605Y-26701D01*
X63596Y-26724D01*
X63596Y-26739D01*
X63605Y-26761D01*
X63615Y-26769D01*
X63791Y-26918D02*
X63791Y-26828D01*
X63791Y-26873D02*
X63596Y-26873D01*
X63624Y-26858D01*
X63642Y-26843D01*
X63652Y-26828D01*
X63680Y-27008D02*
X63670Y-26993D01*
X63661Y-26985D01*
X63642Y-26978D01*
X63633Y-26978D01*
X63615Y-26985D01*
X63605Y-26993D01*
X63596Y-27008D01*
X63596Y-27038D01*
X63605Y-27053D01*
X63615Y-27060D01*
X63633Y-27068D01*
X63642Y-27068D01*
X63661Y-27060D01*
X63670Y-27053D01*
X63680Y-27038D01*
X63680Y-27008D01*
X63689Y-26993D01*
X63698Y-26985D01*
X63717Y-26978D01*
X63754Y-26978D01*
X63772Y-26985D01*
X63782Y-26993D01*
X63791Y-27008D01*
X63791Y-27038D01*
X63782Y-27053D01*
X63772Y-27060D01*
X63754Y-27068D01*
X63717Y-27068D01*
X63698Y-27060D01*
X63689Y-27053D01*
X63680Y-27038D01*
G54D16*
X61979Y-22918D02*
X61979Y-23323D01*
X61955Y-23371D01*
X61931Y-23395D01*
X61884Y-23418D01*
X61788Y-23418D01*
X61741Y-23395D01*
X61717Y-23371D01*
X61693Y-23323D01*
X61693Y-22918D01*
X61384Y-23133D02*
X61431Y-23109D01*
X61455Y-23085D01*
X61479Y-23037D01*
X61479Y-23014D01*
X61455Y-22966D01*
X61431Y-22942D01*
X61384Y-22918D01*
X61288Y-22918D01*
X61241Y-22942D01*
X61217Y-22966D01*
X61193Y-23014D01*
X61193Y-23037D01*
X61217Y-23085D01*
X61241Y-23109D01*
X61288Y-23133D01*
X61384Y-23133D01*
X61431Y-23157D01*
X61455Y-23180D01*
X61479Y-23228D01*
X61479Y-23323D01*
X61455Y-23371D01*
X61431Y-23395D01*
X61384Y-23418D01*
X61288Y-23418D01*
X61241Y-23395D01*
X61217Y-23371D01*
X61193Y-23323D01*
X61193Y-23228D01*
X61217Y-23180D01*
X61241Y-23157D01*
X61288Y-23133D01*
G54D10*
X63171Y-26590D02*
X63264Y-26590D01*
X63227Y-26496D02*
X63264Y-26590D01*
X63227Y-26684D01*
X63339Y-26534D02*
X63264Y-26590D01*
X63339Y-26646D01*
G54D16*
X48367Y-37607D02*
X48367Y-38012D01*
X48343Y-38060D01*
X48319Y-38084D01*
X48271Y-38107D01*
X48176Y-38107D01*
X48128Y-38084D01*
X48105Y-38060D01*
X48081Y-38012D01*
X48081Y-37607D01*
X47581Y-38107D02*
X47867Y-38107D01*
X47724Y-38107D02*
X47724Y-37607D01*
X47771Y-37679D01*
X47819Y-37726D01*
X47867Y-37750D01*
X47414Y-37607D02*
X47105Y-37607D01*
X47271Y-37798D01*
X47200Y-37798D01*
X47152Y-37822D01*
X47128Y-37845D01*
X47105Y-37893D01*
X47105Y-38012D01*
X47128Y-38060D01*
X47152Y-38084D01*
X47200Y-38107D01*
X47343Y-38107D01*
X47390Y-38084D01*
X47414Y-38060D01*
X48327Y-31233D02*
X48327Y-31638D01*
X48303Y-31686D01*
X48280Y-31710D01*
X48232Y-31733D01*
X48137Y-31733D01*
X48089Y-31710D01*
X48065Y-31686D01*
X48041Y-31638D01*
X48041Y-31233D01*
X47541Y-31733D02*
X47827Y-31733D01*
X47684Y-31733D02*
X47684Y-31233D01*
X47732Y-31305D01*
X47780Y-31352D01*
X47827Y-31376D01*
X47113Y-31400D02*
X47113Y-31733D01*
X47232Y-31210D02*
X47351Y-31567D01*
X47041Y-31567D01*
X64747Y-31021D02*
X64747Y-31426D01*
X64723Y-31473D01*
X64699Y-31497D01*
X64651Y-31521D01*
X64556Y-31521D01*
X64508Y-31497D01*
X64485Y-31473D01*
X64461Y-31426D01*
X64461Y-31021D01*
X64199Y-31521D02*
X64104Y-31521D01*
X64056Y-31497D01*
X64032Y-31473D01*
X63985Y-31402D01*
X63961Y-31306D01*
X63961Y-31116D01*
X63985Y-31068D01*
X64008Y-31045D01*
X64056Y-31021D01*
X64151Y-31021D01*
X64199Y-31045D01*
X64223Y-31068D01*
X64247Y-31116D01*
X64247Y-31235D01*
X64223Y-31283D01*
X64199Y-31306D01*
X64151Y-31330D01*
X64056Y-31330D01*
X64008Y-31306D01*
X63985Y-31283D01*
X63961Y-31235D01*
X65044Y-38418D02*
X65044Y-38823D01*
X65020Y-38871D01*
X64996Y-38895D01*
X64949Y-38918D01*
X64853Y-38918D01*
X64806Y-38895D01*
X64782Y-38871D01*
X64758Y-38823D01*
X64758Y-38418D01*
X64258Y-38918D02*
X64544Y-38918D01*
X64401Y-38918D02*
X64401Y-38418D01*
X64449Y-38490D01*
X64496Y-38537D01*
X64544Y-38561D01*
X63949Y-38418D02*
X63901Y-38418D01*
X63853Y-38442D01*
X63829Y-38466D01*
X63806Y-38514D01*
X63782Y-38609D01*
X63782Y-38728D01*
X63806Y-38823D01*
X63829Y-38871D01*
X63853Y-38895D01*
X63901Y-38918D01*
X63949Y-38918D01*
X63996Y-38895D01*
X64020Y-38871D01*
X64044Y-38823D01*
X64068Y-38728D01*
X64068Y-38609D01*
X64044Y-38514D01*
X64020Y-38466D01*
X63996Y-38442D01*
X63949Y-38418D01*
G54D20*
X62537Y-47208D02*
X62590Y-47115D01*
X62627Y-47208D02*
X62627Y-47013D01*
X62567Y-47013D01*
X62552Y-47023D01*
X62545Y-47032D01*
X62537Y-47050D01*
X62537Y-47078D01*
X62545Y-47097D01*
X62552Y-47106D01*
X62567Y-47115D01*
X62627Y-47115D01*
X62463Y-47208D02*
X62433Y-47208D01*
X62418Y-47199D01*
X62410Y-47190D01*
X62395Y-47162D01*
X62388Y-47125D01*
X62388Y-47050D01*
X62395Y-47032D01*
X62403Y-47023D01*
X62418Y-47013D01*
X62448Y-47013D01*
X62463Y-47023D01*
X62470Y-47032D01*
X62478Y-47050D01*
X62478Y-47097D01*
X62470Y-47115D01*
X62463Y-47125D01*
X62448Y-47134D01*
X62418Y-47134D01*
X62403Y-47125D01*
X62395Y-47115D01*
X62388Y-47097D01*
X62238Y-47208D02*
X62328Y-47208D01*
X62283Y-47208D02*
X62283Y-47013D01*
X62298Y-47041D01*
X62313Y-47060D01*
X62328Y-47069D01*
M02*
