M48
METRIC,LZ
T1C0.200
T2C0.300
T3C0.899
T4C1.021
T5C1.097
T6C1.199
T7C1.270
T8C1.501
T9C1.600
T10C3.200
T11C3.200
T12C4.000
%
G90
G05
T1
X08969Y-08932
X08973Y-09381
X08976Y-09232
X08976Y-09532
X08978Y-08982
X08979Y-09079
X08979Y-10782
X0898Y-08759
X08981Y-08831
X08981Y-09432
X08982Y-09283
X08982Y-10983
X08983Y-09133
X08986Y-09733
X08987Y-09582
X08994Y-09655
X08997Y-11094
X09011Y-09982
X09015Y-10932
X09017Y-12121
X09025Y-10831
X09031Y-09832
X09046Y-09881
X09065Y-10917
X09087Y-09733
X09259Y-09573
X09268Y-12198
X09302Y-10831
X09303Y-12314
X09305Y-09886
X09313Y-09941
X09338Y-1003
X09338Y-12258
X09342Y-111
X09343Y-08847
X09346Y-09681
X0935Y-1103
X09351Y-10881
X09351Y-11182
X09353Y-11332
X09353Y-11632
X09354Y-11483
X09354Y-11931
X09356Y-12072
X09357Y-11781
X09406Y-10303
X0948Y-10707
X09502Y-12302
X09572Y-12303
X09607Y-09923
X09612Y-0963
X09614Y-09185
X09614Y-0933
X09616Y-09482
X096525Y-101475
X09685Y-10982
X0972Y-101475
X09728Y-12344
X0978Y-101475
X09805Y-10932
X0984Y-10145
X09872Y-11973
X09905Y-101425
X09906Y-11334
X099675Y-1014
X100225Y-10135
X10085Y-101325
X10149Y-10131
X10208Y-10085
X10274Y-10036
X10325Y-09985
X10345Y-10163
X10384Y-1022
X10451Y-06668
X10495Y-06712
X105375Y-06755
X1058Y-068
X106225Y-068425
X10665Y-068925
X107075Y-069425
X1075Y-0704
X107925Y-07095
X108375Y-071425
X1088Y-07195
X10897Y-11038
X10919Y-11247
X10925Y-07245
X109675Y-072875
X109699Y-107599
X109875Y-107099
X11Y-1066
X1101Y-106101
X110175Y-104349
X11025Y-103849
X110324Y-100849
X110376Y-103351
X110426Y-099851
X11045Y-102851
X110575Y-109425
X11064Y-10036
X11074Y-0623
X11115Y-0891
X111175Y-0896
X111175Y-0901
X111175Y-0906
X111175Y-092425
X1112Y-08585
X1112Y-08635
X1112Y-08685
X1112Y-08735
X111275Y-08235
X111275Y-08285
X111275Y-08335
X111275Y-08385
X11132Y-099351
X11185Y-09681
X11272Y-1017
X11302Y-0699
X11328Y-06228
X11466Y-08146
X11478Y-11261
X11485Y-1107
X11496Y-09627
X11506Y-10481
X11508Y-06989
X11582Y-06229
X11637Y-0982
X11637Y-0997
X11637Y-1097
X1164Y-08895
X1164Y-1082
X11641Y-09195
X1166Y-1027
X11664Y-1052
X11696Y-06992
X11775Y-07623
X11822Y-07565
X11831Y-09345
X11836Y-06227
X1187Y-07595
X11897Y-1274
X1192Y-07548
X11951Y-06991
X11972Y-07589
X1199Y-1118
X12019Y-12899
X12023Y-1258
X1204Y-07548
X12091Y-06229
X1211Y-11405
X12112Y-07587
X12143Y-12661
X12167Y-07545
X12173Y-12797
X12175Y-06993
X12185Y-12509
X12195Y-12848
X1222Y-1125
X12222Y-07585
X1227Y-1244
X12287Y-07546
X12298Y-13183
X12325Y-11405
X12344Y-06232
X12345Y-07584
X12389Y-06986
X124Y-07552
X1245Y-08
X1251Y-06235
X1252Y-1329
X12571Y-07971
X12598Y-06989
X12604Y-09345
X12606Y-1052
X12608Y-1097
X12609Y-0997
X12609Y-1027
X1261Y-08645
X1261Y-09195
X1261Y-09821
X1261Y-10819
X12611Y-08895
X12612Y-08345
X12613Y-08195
X12616Y-10116
X12623Y-12608
X12687Y-12797
X12713Y-08862
X12715Y-09116
X12716Y-09052
X12716Y-10118
X12717Y-10308
X12735Y-07963
X12736Y-0992
X1274Y-08544
X12755Y-08717
X12764Y-09236
X12767Y-0987
X12786Y-08164
X12805Y-1072
X12808Y-09322
X12825Y-0625
X12831Y-0987
X12841Y-08586
X12849Y-09572
X1285Y-08395
X1285Y-10529
X12851Y-0867
X12852Y-0947
X12852Y-10633
X12853Y-10071
X12853Y-1017
X12853Y-10424
X12855Y-07885
X12855Y-09721
X12855Y-0992
X12862Y-09822
X12867Y-09623
X1295Y-1288
X12953Y-13022
X12975Y-08456
X12997Y-06368
X13094Y-0952
X13097Y-09394
X13097Y-09991
X13097Y-1037
X13099Y-0917
X131Y-10761
X13101Y-0892
X13112Y-1017
X13114Y-10553
X13121Y-09822
X13123Y-0862
X13125Y-0887
X13142Y-0867
X13151Y-06
X13179Y-09027
X13183Y-0922
X13185Y-08971
X13212Y-06161
X1322Y-1318
X13226Y-10034
X13227Y-0927
X1327Y-09321
X13284Y-1017
X13314Y-0947
X13327Y-10071
X1336Y-0957
X13374Y-09921
X13405Y-0962
X1342Y-09871
X1346Y-0852
X1346Y-09122
X1346Y-10757
X13462Y-0977
X13462Y-09823
X13466Y-08796
X1347Y-07244
X13523Y-07288
X13589Y-0734
X13694Y-12045
X13696Y-07137
X13702Y-09021
X13705Y-0917
X13706Y-1037
X13707Y-09521
X13707Y-1012
X13708Y-09395
X13711Y-09995
X1373Y-0862
X1373Y-10566
X13733Y-08232
X13751Y-07192
X13779Y-07954
X1381Y-12388
X13826Y-09438
X13827Y-09145
X13857Y-10778
X13865Y-09041
X13871Y-10465
X13871Y-10604
X1391Y-09222
X13917Y-09096
X13926Y-08491
X13931Y-0857
X1394Y-12223
X13948Y-07039
X13967Y-10268
X13967Y-11944
X13969Y-09757
X1398Y-08851
X14Y-08273
X14019Y-09808
X1402Y-1038
X1404Y-12229
X14041Y-12437
X14044Y-08678
X14064Y-1043
X14065Y-09747
X1407Y-0756
X14117Y-07091
X1412Y-09796
X1412Y-1058
X1414Y-12229
X14162Y-08575
X14166Y-09743
X14166Y-1063
X14213Y-10675
X1424Y-12232
X14249Y-06894
X14266Y-08589
X14271Y-1009
X14316Y-08563
X14316Y-10676
X1432Y-11356
X14332Y-09123
X14332Y-09453
X1434Y-12231
X14345Y-12901
X14366Y-06944
X14379Y-08552
X14382Y-0795
X144Y-10328
X14406Y-09236
X14438Y-127
X1444Y-1223
X14442Y-13164
X14442Y-13258
X14446Y-126
X14448Y-12858
X14459Y-07557
X14459Y-12801
X14473Y-11105
X14478Y-12497
X14479Y-1311
X14488Y-08566
X14496Y-08749
X14514Y-06799
X14523Y-10773
X1455Y-12227
X14555Y-10986
X1456Y-10852
X14606Y-10327
X14614Y-10892
X14615Y-1195
X14629Y-12282
X1464Y-06842
X1465Y-09376
X14651Y-07538
X14669Y-121
X14674Y-1333
X14682Y-13206
X14705Y-13052
X14725Y-126
X14731Y-06013
X14739Y-121
X14787Y-06712
X1479Y-1078
X14792Y-0978
X14792Y-09905
X14793Y-0893
X14793Y-09304
X14793Y-0953
X14794Y-0918
X14794Y-1028
X14795Y-10105
X14795Y-10505
X14807Y-07971
X14815Y-12856
X14828Y-12498
X14838Y-12998
X14845Y-06888
X14847Y-13065
X14871Y-1286
X14889Y-06755
X14898Y-13332
X14903Y-13198
X14912Y-12392
X14944Y-12267
X14991Y-13336
X15009Y-07074
X15011Y-12397
X15031Y-12287
X15035Y-12216
X15037Y-08704
X15037Y-12147
X15039Y-0948
X1504Y-09679
X15044Y-08548
X15081Y-09429
X15085Y-12524
X15089Y-0973
X15117Y-13231
X1512Y-1332
X15125Y-09379
X15135Y-12527
X15136Y-0983
X15138Y-06321
X1517Y-0923
X15175Y-1332
X15183Y-09981
X15214Y-09129
X15215Y-12481
X15226Y-1003
X15259Y-0619
X15264Y-09155
X15265Y-13268
X15267Y-12451
X15271Y-10081
X15276Y-06668
X15278Y-1078
X15287Y-10426
X15331Y-09624
X15332Y-12222
X15355Y-1038
X15373Y-10626
X15383Y-09348
X15385Y-08887
X1539Y-1257
X15392Y-06775
X15393Y-10477
X15394Y-08696
X15398Y-08785
X15403Y-0918
X15403Y-1013
X15404Y-08982
X15404Y-10428
X15405Y-0953
X15409Y-10281
X15412Y-0978
X15427Y-12372
X15479Y-12234
X154875Y-12975
X15596Y-12374
X15636Y-12721
X1564Y-10029
X15644Y-09733
X15646Y-0682
X15646Y-09835
X15647Y-09905
X15649Y-0938
X1565Y-0948
X1565Y-1058
X15651Y-0853
X15655Y-09681
X15667Y-0923
X15669Y-1008
X15679Y-0998
X15685Y-1238
X15694Y-0943
X15707Y-09313
X15713Y-09188
X15725Y-10649
X15746Y-12378
X15747Y-10522
X15748Y-12043
X15749Y-08615
X15751Y-08932
X15752Y-08742
X15753Y-08424
X15754Y-08171
X15755Y-09108
X15756Y-09377
X15763Y-12914
X15772Y-05888
X15775Y-10078
X15778Y-10204
X15779Y-10394
X15808Y-10713
X15821Y-11094
X15857Y-07322
X15882Y-11044
X15892Y-10901
X15895Y-08826
X15897Y-08576
X15898Y-09126
X15899Y-08276
X159Y-08126
X15904Y-10194
X15908Y-10494
X15909Y-10044
X1592Y-09277
X15929Y-10739
X15959Y-12709
X15987Y-06369
X16Y-07825
X16Y-1287
X1604Y-12402
X16051Y-12263
X1612Y-12315
X16194Y-11603
X16194Y-11905
X16219Y-1139
X16237Y-11194
X16242Y-07687
X16272Y-07476
X16316Y-07146
X16341Y-11607
X16341Y-11849
X16365Y-06878
X16366Y-12374
X16419Y-09441
X16469Y-09475
X16481Y-07279
X16523Y-09482
X16527Y-06781
X16535Y-12387
X1654Y-07837
X16579Y-06936
X16594Y-09487
X16633Y-06875
X1664Y-09532
X16662Y-06226
X16663Y-06322
X167275Y-126375
X16734Y-09555
X16735Y-07476
X16794Y-09702
X16818Y-12725
X16845Y-09126
X16849Y-0857
X16856Y-10494
X16859Y-08818
X16871Y-08276
X16872Y-08126
X16872Y-09293
X16876Y-11194
X1688Y-11045
X16891Y-10737
X16916Y-06322
X17013Y-06281
X17038Y-0618
X17056Y-1262
X1706Y-12984
X17097Y-1286
X1724Y-1296
X17385Y-09825
X17429Y-1004
X17472Y-1009
X17513Y-1014
X17555Y-1019
X17596Y-10416
X1764Y-10465
X17685Y-10515
X17726Y-10565
X17771Y-1079
X1782Y-1084
X17873Y-10891
X1792Y-10941
X1799Y-10071
X17997Y-07786
X18002Y-09674
X18014Y-09163
X18019Y-10306
X1802Y-08784
X18022Y-09543
X18136Y-09962
X18144Y-10772
X18148Y-10137
X18208Y-06926
X18283Y-11977
X1829Y-07912
X18294Y-07404
X18296Y-07532
X18299Y-08294
X183Y-08677
X18301Y-09818
X18304Y-09435
X18305Y-09055
X1839Y-07908
X18471Y-08358
X18471Y-08736
X18483Y-08866
X18498Y-07276
X185Y-07784
X18501Y-08166
X18502Y-07151
X18503Y-07659
X18503Y-08547
X18503Y-09818
X18503Y-10072
X18504Y-0931
X18505Y-0969
X18505Y-11851
X18506Y-09183
X18507Y-10452
X18507Y-11596
X18512Y-08975
X18525Y-09628
X18526Y-07977
X18526Y-08485
X18527Y-09118
X18527Y-095
X18527Y-10262
X18528Y-10007
X18528Y-10388
X18642Y-08103
X18645Y-08233
X18653Y-08358
X18653Y-08866
X18653Y-09246
X18654Y-08738
X18654Y-09881
X18658Y-09376
X18664Y-09754
X18797Y-11977
X188Y-11722
X18811Y-11087
X18818Y-10199
X18837Y-1083
X18841Y-10707
X18886Y-10937
X18924Y-07785
X18969Y-07659
T2
X0868Y-0658
X0868Y-0686
X0868Y-0714
X0868Y-0742
X0868Y-077
X0868Y-0796
X0868Y-0824
X0868Y-0852
X0868Y-0878
X0868Y-091
X0868Y-0948
X0868Y-0992
X0868Y-1026
X0868Y-1058
X0868Y-1088
X0868Y-1124
X0868Y-116
X0868Y-12
X0868Y-124
X0868Y-128
X0868Y-1314
X08685Y-05959
X0874Y-0622
X0874Y-064
X08755Y-05796
X0878Y-1294
X0879Y-10415
X0879Y-10675
X088Y-06083
X088Y-08285
X088Y-0841
X088Y-08695
X088Y-1318
X08805Y-0856
X0886Y-1332
X08873Y-05676
X08878Y-12796
X08885Y-12315
X0892Y-063
X0898Y-0868
X0899Y-11395
X0899Y-11485
X0899Y-11915
X08995Y-11205
X08995Y-11295
X08995Y-11725
X08995Y-11825
X08995Y-1219
X09Y-11635
X0903Y-0977
X09035Y-064
X09055Y-086
X0906Y-0851
X0908Y-10385
X0908Y-105
X0908Y-10595
X0908Y-1068
X09085Y-1225
X09085Y-12385
X09085Y-125
X09086Y-12691
X0909Y-06575
X0909Y-0669
X0909Y-1027
X09125Y-1016
X0925Y-1235
X09255Y-125
X0926Y-06575
X0926Y-06695
X09265Y-0851
X09285Y-06395
X0929Y-0951
X0936Y-0632
X0938Y-12455
X09388Y-12752
X0947Y-12375
X095Y-133
X0954Y-0574
X0954Y-0606
X09541Y-12912
X0956Y-131
X0957Y-125
X0968Y-0705
X0968Y-0716
X09685Y-07645
X09685Y-0774
X0969Y-0727
X0969Y-0738
X09695Y-1241
X09695Y-125
X09759Y-12755
X0976Y-0574
X0976Y-0606
X0976Y-0705
X0976Y-0716
X0976Y-1286
X0976Y-131
X09764Y-11899
X0977Y-0727
X0977Y-0738
X0986Y-0834
X0986Y-0848
X0989Y-07675
X09909Y-11099
X09909Y-11189
X09915Y-0759
X0998Y-0574
X0998Y-0834
X0998Y-0848
X1Y-0606
X1Y-1286
X1Y-131
X10001Y-1275
X10019Y-11099
X10019Y-11189
X1004Y-0732
X1004Y-074
X1004Y-0748
X101Y-0834
X101Y-0848
X10105Y-07625
X10132Y-06172
X1016Y-0732
X1016Y-074
X1016Y-0748
X10175Y-10872
X10197Y-12752
X102Y-1286
X102Y-131
X10205Y-059
X10209Y-10989
X10215Y-08855
X1022Y-0574
X1022Y-0606
X1022Y-0917
X10225Y-1242
X1024Y-1328
X1028Y-0732
X1028Y-074
X1028Y-0748
X10287Y-10867
X103Y-0917
X103Y-0926
X103Y-1148
X103Y-1168
X1034Y-0567
X1037Y-12425
X10375Y-0625
X1038Y-0917
X1038Y-0926
X1038Y-0934
X1038Y-1182
X10397Y-10544
X1042Y-1148
X1044Y-1083
X1044Y-1136
X1044Y-1168
X10465Y-06495
X10485Y-10543
X10505Y-12425
X10515Y-0633
X1052Y-1182
X1052Y-1196
X10529Y-10826
X1056Y-1126
X10574Y-10543
X10619Y-10826
X10635Y-06495
X1064Y-1182
X1064Y-1196
X1066Y-1112
X10705Y-0633
X10753Y-11892
X10815Y-06495
X1086Y-1146
X1086Y-1158
X1086Y-117
X1086Y-1182
X1086Y-1194
X1087Y-05685
X10875Y-1278
X10895Y-0622
X10935Y-0579
X1094Y-133
X10975Y-1291
X1098Y-131
X1102Y-1243
X11035Y-1321
X11035Y-13335
X11045Y-1283
X1105Y-1147
X1105Y-13035
X11055Y-07425
X1106Y-07905
X1106Y-1187
X11065Y-09745
X11065Y-10515
X1107Y-09475
X1108Y-081
X11105Y-11395
X1113Y-09605
X11145Y-07345
X11145Y-0934
X1115Y-1196
X1115Y-13335
X11165Y-1243
X11175Y-0801
X11175Y-1134
X11195Y-0571
X11205Y-0947
X11245Y-10515
X1125Y-13005
X1126Y-13335
X11265Y-0959
X11295Y-0934
X113Y-1251
X1132Y-09865
X1134Y-08035
X1134Y-08145
X1136Y-1052
X11375Y-0947
X11409Y-12889
X11409Y-12979
X1141Y-1279
X1142Y-0915
X1143Y-09755
X1144Y-1333
X11475Y-0937
X1148Y-1271
X1149Y-0802
X1149Y-1289
X115Y-1298
X1155Y-09105
X1156Y-05705
X11565Y-1279
X1157Y-11945
X11575Y-0928
X11575Y-1135
X1159Y-1333
X116Y-0795
X1161Y-13
X1162Y-09605
X1162Y-09755
X1165Y-1288
X1168Y-1146
X1168Y-1184
X1169Y-07855
X11705Y-0946
X1171Y-1308
X1171Y-133
X1174Y-12975
X11775Y-096
X1181Y-09465
X1182Y-1306
X1188Y-1312
X11975Y-1304
X12Y-0854
X12025Y-05705
X12055Y-13045
X121Y-0845
X121Y-0854
X12135Y-13045
X122Y-0835
X122Y-0845
X122Y-0854
X1223Y-11595
X123Y-0824
X123Y-0835
X123Y-0845
X123Y-0854
X124Y-1278
X124Y-1288
X1245Y-11595
X12465Y-05705
X125Y-1278
X125Y-1288
X12655Y-1172
X12845Y-11795
X1286Y-11965
X1291Y-11695
X1295Y-11565
X1296Y-0771
X1296Y-1185
X12975Y-07485
X13001Y-06991
X13035Y-11015
X1305Y-11965
X13055Y-0736
X1307Y-082
X13081Y-06991
X131Y-057
X1312Y-1089
X13135Y-0964
X13165Y-09315
X13165Y-1102
X13172Y-06991
X13175Y-09965
X13175Y-1023
X13185Y-09455
X13185Y-10365
X13195Y-10565
X1321Y-09755
X1324Y-06485
X1324Y-0661
X13245Y-0609
X13245Y-0637
X13267Y-0699
X1327Y-0959
X1328Y-1086
X133Y-09975
X13305Y-10365
X13325Y-0849
X13335Y-12715
X13345Y-13205
X13353Y-06989
X13355Y-0976
X13355Y-1056
X13365Y-1331
X1337Y-1261
X1337Y-1307
X13375Y-1282
X13415Y-11015
X1342Y-1089
X13475Y-06155
X1353Y-1196
X1353Y-1286
X1353Y-13015
X13535Y-08195
X1358Y-084
X1358Y-11015
X13605Y-057
X1361Y-1141
X13625Y-1188
X13635Y-0747
X1364Y-0781
X13695Y-12615
X137Y-12755
X1372Y-1314
X1373Y-0731
X1376Y-0778
X1376Y-0989
X13775Y-10295
X13775Y-10415
X1378Y-0752
X13785Y-10025
X13795Y-133
X1381Y-1016
X13865Y-1262
X13865Y-12755
X1387Y-0728
X1387Y-13125
X13885Y-09585
X13885Y-0978
X1389Y-10225
X1389Y-1034
X13895Y-09965
X1391Y-0836
X13915Y-09415
X1398Y-12865
X1398Y-13025
X1401Y-0734
X1403Y-05705
X14075Y-0825
X1411Y-12865
X14115Y-13015
X1418Y-088
X1418Y-089
X1421Y-1317
X14225Y-1329
X1423Y-07955
X1426Y-0713
X14265Y-07705
X1427Y-0834
X1428Y-088
X1428Y-089
X14325Y-0733
X14325Y-07955
X14335Y-09555
X14345Y-07705
X1436Y-0704
X14415Y-057
X145Y-0697
X145Y-0715
X145Y-0733
X14725Y-0755
X14755Y-07305
X14795Y-07505
X1483Y-05695
X14866Y-11827
X14921Y-07366
X15052Y-08449
X1506Y-1268
X1506Y-1278
X1506Y-129
X1512Y-0864
X15132Y-08452
X1514Y-0948
X1514Y-0966
X15145Y-1068
X15145Y-1083
X1516Y-1268
X1516Y-1278
X1516Y-129
X15179Y-11658
X152Y-0683
X15213Y-11617
X15255Y-0708
X1526Y-0886
X1526Y-0902
X1526Y-093
X1526Y-0948
X1526Y-0966
X1526Y-0986
X1526Y-1268
X1526Y-1278
X1526Y-129
X15273Y-08448
X15275Y-06915
X15295Y-0571
X1532Y-1097
X15357Y-08449
X15375Y-11335
X15399Y-07964
X154Y-0685
X154Y-0708
X1544Y-11395
X1549Y-07155
X1552Y-07868
X15522Y-07436
X1556Y-0708
X15568Y-07576
X1558Y-0774
X15725Y-0571
X15761Y-11903
X158Y-095
X15825Y-09775
X15825Y-09945
X15842Y-11811
X1585Y-0715
X15855Y-10085
X15865Y-09375
X1588Y-09645
X15908Y-11903
X1592Y-11635
X15955Y-11505
X1598Y-0715
X15995Y-1178
X16Y-0995
X1601Y-0983
X16015Y-09595
X1602Y-1163
X1604Y-0571
X1605Y-0684
X16065Y-1143
X1608Y-0715
X1608Y-11895
X16117Y-06899
X1617Y-0755
X1617Y-0853
X1617Y-0867
X1617Y-0879
X1617Y-089
X1618Y-0819
X1618Y-0831
X162Y-0732
X162Y-0763
X1621Y-0742
X1621Y-075
X1625Y-0703
X1626Y-0757
X163Y-1114
X163Y-11395
X1636Y-11495
X1646Y-11405
X1647Y-0715
X16485Y-1116
X16505Y-0571
X1651Y-0819
X1651Y-0831
X1651Y-0842
X1651Y-0854
X1651Y-0868
X1651Y-088
X1651Y-0891
X1651Y-0903
X16527Y-07029
X1654Y-0715
X16552Y-12042
X16565Y-11485
X16598Y-11801
X166Y-11957
X16635Y-0679
X16655Y-1116
X16664Y-12328
X16675Y-11395
X1669Y-0703
X16715Y-0688
X16735Y-12795
X16735Y-1295
X16738Y-11874
X1674Y-1203
X16756Y-12325
X16757Y-11706
X1676Y-0703
X1677Y-0733
X1677Y-0979
X16775Y-0571
X16775Y-09925
X16785Y-0679
X16785Y-0772
X1679Y-07525
X1682Y-07865
X16835Y-07135
X1686Y-07405
X16875Y-0688
X1688Y-1004
X1688Y-1199
X16885Y-1019
X16925Y-082
X1693Y-07985
X1693Y-0988
X16955Y-0679
X16955Y-08995
X1699Y-07325
X17025Y-0571
X17025Y-12035
X17035Y-0688
X1704Y-07135
X17043Y-11623
X17055Y-0638
X17055Y-0648
X1706Y-061
X17065Y-06605
X1708Y-08035
X17097Y-11608
X17105Y-1222
X17122Y-11676
X17132Y-11702
X17135Y-07295
X17137Y-11631
X17145Y-11654
X17163Y-11628
X17165Y-09305
X17165Y-09455
X17165Y-11615
X17175Y-08575
X17175Y-0888
X17178Y-11605
X17185Y-06775
X17186Y-11638
X17188Y-11646
X17195Y-12035
X17198Y-11687
X17206Y-11613
X17214Y-11613
X17214Y-11633
X1723Y-11302
X17245Y-124
X17255Y-08975
X1728Y-07995
X17285Y-11131
X17295Y-07325
X1731Y-06605
X1731Y-08255
X17315Y-0599
X1733Y-12225
X17335Y-0614
X17335Y-08875
X17335Y-12515
X1734Y-05785
X1734Y-07
X17345Y-0996
X17345Y-1273
X17345Y-129
X17365Y-11955
X17379Y-1135
X17385Y-13085
X17395Y-1025
X17395Y-10345
X1741Y-0586
X1741Y-1063
X1741Y-10725
X17427Y-1114
X17435Y-0714
X1744Y-07445
X1744Y-12045
X17455Y-07815
X17455Y-11475
X17455Y-11835
X17465Y-12615
X17465Y-12815
X17475Y-12395
X17525Y-0703
X17545Y-10255
X1755Y-10355
X17555Y-0801
X17565Y-08215
X17565Y-12225
X1758Y-0618
X1758Y-0638
X1758Y-08585
X17591Y-11139
X17595Y-125
X17595Y-1273
X176Y-1142
X176Y-11635
X176Y-1203
X17605Y-0714
X1761Y-0733
X1761Y-1183
X1762Y-1063
X1762Y-10725
X177Y-0652
X1771Y-1262
X1771Y-1282
X17715Y-09485
X17725Y-0866
X1773Y-07485
X1774Y-0624
X1774Y-07645
X1774Y-0777
X17745Y-079
X1775Y-1183
X17755Y-07345
X17755Y-1142
X1776Y-1163
X1776Y-1203
X17765Y-1223
X17775Y-08075
X17785Y-0714
X178Y-08285
X178Y-125
X1784Y-1132
X17855Y-07485
X1786Y-0638
X17875Y-06515
X1789Y-07645
X1789Y-12635
X17895Y-0777
X179Y-062
X1791Y-1142
X1791Y-1282
X17915Y-1203
X1792Y-1163
X1792Y-1183
X1793Y-12225
X17935Y-079
X17935Y-12455
X1796Y-07145
X1796Y-07265
X1798Y-0811
X1798Y-11139
X1803Y-1235
X18295Y-08085
X183Y-11135
X18305Y-07835
X18305Y-10195
X18325Y-07205
X18325Y-11295
X18325Y-1151
X18325Y-12225
X1833Y-07595
X1833Y-1165
X18335Y-0732
X18335Y-0746
X18335Y-1179
X1834Y-1095
X1834Y-11925
X18355Y-1082
X18395Y-0769
X184Y-0829
X18405Y-0714
X1841Y-08795
X1841Y-08925
X1841Y-09825
X1841Y-0995
X1841Y-12385
X18415Y-09175
X1842Y-12095
X18425Y-08165
X18425Y-0905
X18425Y-10495
X1843Y-09315
X1843Y-0943
X18435Y-09565
X1845Y-0861
X1845Y-10635
X18455Y-1283
X1846Y-1082
X1846Y-1095
X1846Y-1114
X18465Y-11295
X18465Y-1151
X1847Y-07465
X1847Y-1165
X1847Y-11775
X1847Y-11925
X18475Y-0805
X1848Y-062
X1848Y-07215
X1848Y-0786
X18485Y-1013
X185Y-0652
X185Y-1224
X18515Y-12535
X1853Y-12705
X1854Y-0634
X1866Y-1283
X18665Y-1224
X1867Y-1241
X1868Y-12545
X1872Y-062
X1872Y-0634
X1872Y-065
X18755Y-12705
X1878Y-1212
X1885Y-1255
X1888Y-1114
X1888Y-1134
X1888Y-1142
X1888Y-1151
X1888Y-116
X18885Y-1283
X189Y-1198
X1891Y-1224
X18915Y-1242
X18955Y-12695
X1896Y-062
X1896Y-0634
X1896Y-065
X18995Y-121
X19Y-1134
X19Y-1142
X19Y-1151
X19Y-116
X1905Y-12525
X1906Y-12775
X19075Y-1224
X1908Y-0624
X1916Y-1242
X1916Y-1262
X1918Y-0634
X1918Y-065
X1918Y-0879
X1918Y-0915
X1918Y-11715
X19185Y-0766
X19185Y-0845
X19185Y-09515
X1919Y-0727
X1919Y-0811
X1919Y-098
X1919Y-1189
X1919Y-1205
X19195Y-10085
X19195Y-10335
X19195Y-1058
X19195Y-1083
X19195Y-1104
X19195Y-1125
X19195Y-1224
T3
X112521Y-131699
X115061Y-131699
T4
X089675Y-065827
X089675Y-124306
T5
X13281Y-11015
X15219Y-08285
T6
X13281Y-08375
X15219Y-10925
T7
X18095Y-12219
X184Y-06781
T8
X1378Y-1294
T9
X13526Y-12686
X13526Y-13194
X14034Y-12686
X14034Y-13194
T10
X11363Y-07644
X11363Y-11644
X13317Y-07656
X13317Y-11656
X15183Y-07644
X15183Y-11644
X17137Y-07656
X17137Y-11656
T11
X091712Y-059505
X091712Y-130625
X106013Y-059505
X106013Y-130625
T12
X182Y-06381
X182Y-12619
T0
M30
