G04 (created by PCBNEW-RS274X (2012-08-04 BZR 3667)-testing) date 10/11/2012 4:33:33 PM*
%MOIN*%
G04 Gerber Fmt 3.4, Leading zero omitted, Abs format*
%FSLAX34Y34*%
G01*
G70*
G90*
G04 APERTURE LIST*
%ADD10C,0.006*%
%ADD11C,0.0039*%
%ADD12O,0.1179X0.06*%
%ADD13R,0.105X0.165*%
%ADD14R,0.06X0.06*%
%ADD15O,0.06X0.06*%
%ADD16C,0.06*%
%ADD17O,0.1772X0.086*%
%ADD18O,0.086X0.1772*%
%ADD19C,0.2362*%
%ADD20C,0.0707*%
%ADD21R,0.0707X0.0707*%
G04 APERTURE END LIST*
G54D10*
G54D11*
X37795Y-22047D02*
X37795Y-53542D01*
X77165Y-22047D02*
X37795Y-22047D01*
X77165Y-53542D02*
X77165Y-22047D01*
X37795Y-53542D02*
X77165Y-53542D01*
G54D12*
X50432Y-25089D03*
X50432Y-26088D03*
X57781Y-50138D03*
X57781Y-49139D03*
X57781Y-52383D03*
X57781Y-51384D03*
X74331Y-26276D03*
X74331Y-27275D03*
G54D13*
X61221Y-22978D03*
X63973Y-22978D03*
G54D14*
X67493Y-23001D03*
G54D15*
X67493Y-24001D03*
G54D14*
X66494Y-23001D03*
G54D16*
X66494Y-24001D03*
G54D17*
X71500Y-25117D03*
G54D18*
X69610Y-26299D03*
G54D17*
X71500Y-27480D03*
G54D19*
X75717Y-23764D03*
X75717Y-36079D03*
G54D20*
X38445Y-27826D03*
X38445Y-28826D03*
X38445Y-29826D03*
X38445Y-30826D03*
X38445Y-31826D03*
X38445Y-32826D03*
X38445Y-33826D03*
X38445Y-34826D03*
X38445Y-35826D03*
X38445Y-36826D03*
X38445Y-37826D03*
X38445Y-38826D03*
X38445Y-39826D03*
X38445Y-40826D03*
X38445Y-41826D03*
X38445Y-42826D03*
X38445Y-43826D03*
X38445Y-44826D03*
X38445Y-45826D03*
X38445Y-46826D03*
X39444Y-28826D03*
X39444Y-29825D03*
X39445Y-30826D03*
X39445Y-31826D03*
X39445Y-32826D03*
X39445Y-33826D03*
X39445Y-34826D03*
X39445Y-35826D03*
X39445Y-36826D03*
X39445Y-38826D03*
X39445Y-37826D03*
X39445Y-39826D03*
X39445Y-40826D03*
X39445Y-41826D03*
X39445Y-42826D03*
X39445Y-43826D03*
X39445Y-44826D03*
X39445Y-45826D03*
X39444Y-46826D03*
G54D21*
X39444Y-27828D03*
G54D20*
X55496Y-27826D03*
X55496Y-28826D03*
X55496Y-29826D03*
X55496Y-30826D03*
X55496Y-31826D03*
X55496Y-32826D03*
X55496Y-33826D03*
X55496Y-34826D03*
X55496Y-35826D03*
X55496Y-36826D03*
X55496Y-37826D03*
X55496Y-38826D03*
X55496Y-39826D03*
X55496Y-40826D03*
X55495Y-41825D03*
X55496Y-42826D03*
X55496Y-43826D03*
X55496Y-44826D03*
X55496Y-45826D03*
G54D21*
X55494Y-46826D03*
G54D20*
X56496Y-27826D03*
X56496Y-28826D03*
X56496Y-29826D03*
X56496Y-30826D03*
X56496Y-31826D03*
X56496Y-32826D03*
X56496Y-34826D03*
X56496Y-33826D03*
X56496Y-36826D03*
X56496Y-35826D03*
X56496Y-37826D03*
X56496Y-39826D03*
X56496Y-38826D03*
X56496Y-46826D03*
X56496Y-45826D03*
X56496Y-44826D03*
X56496Y-43826D03*
X56496Y-41826D03*
X56496Y-40826D03*
X56496Y-42826D03*
X41194Y-52031D03*
G54D21*
X42195Y-52031D03*
G54D19*
X75717Y-51827D03*
X39173Y-51831D03*
X39177Y-23760D03*
M02*
