G04 (created by PCBNEW-RS274X (2012-08-04 BZR 3667)-testing) date 10/11/2012 4:33:33 PM*
%MOIN*%
G04 Gerber Fmt 3.4, Leading zero omitted, Abs format*
%FSLAX34Y34*%
G01*
G70*
G90*
G04 APERTURE LIST*
%ADD10C,0.006*%
%ADD11C,0.0039*%
%ADD12R,0.0511X0.0629*%
%ADD13R,0.0413X0.0425*%
%ADD14R,0.0137X0.0472*%
%ADD15R,0.0138X0.0472*%
%ADD16R,0.0236X0.0472*%
%ADD17R,0.0236X0.0866*%
%ADD18R,0.0551X0.0354*%
%ADD19R,0.0394X0.0217*%
%ADD20R,0.0217X0.0394*%
%ADD21R,0.0425X0.0413*%
%ADD22R,0.0196X0.0196*%
%ADD23R,0.0196X0.0157*%
%ADD24R,0.07X0.2*%
%ADD25R,0.0945X0.0669*%
%ADD26R,0.063X0.0118*%
%ADD27R,0.063X0.0276*%
%ADD28R,0.122X0.063*%
%ADD29R,0.0393X0.0236*%
%ADD30R,0.0196X0.0787*%
%ADD31R,0.0984X0.0866*%
%ADD32R,0.0512X0.063*%
%ADD33R,0.0787X0.063*%
%ADD34R,0.0472X0.0591*%
%ADD35R,0.0846X0.0374*%
%ADD36R,0.0846X0.128*%
%ADD37R,0.0354X0.0137*%
%ADD38O,0.1179X0.06*%
%ADD39R,0.07X0.165*%
%ADD40R,0.105X0.165*%
%ADD41R,0.06X0.06*%
%ADD42O,0.06X0.06*%
%ADD43C,0.06*%
%ADD44O,0.1772X0.086*%
%ADD45O,0.086X0.1772*%
%ADD46C,0.2362*%
%ADD47C,0.0707*%
%ADD48R,0.0707X0.0707*%
%ADD49C,0.0472*%
%ADD50O,0.0235X0.0117*%
%ADD51O,0.0117X0.0235*%
%ADD52O,0.0315X0.0098*%
%ADD53O,0.0098X0.0315*%
%ADD54R,0.0394X0.0394*%
G04 APERTURE END LIST*
G54D10*
G54D11*
X37795Y-22047D02*
X37795Y-53542D01*
X77165Y-22047D02*
X37795Y-22047D01*
X77165Y-53542D02*
X77165Y-22047D01*
X37795Y-53542D02*
X77165Y-53542D01*
G54D12*
X74094Y-29527D03*
X74882Y-29527D03*
X74055Y-28464D03*
X74843Y-28464D03*
X54370Y-48858D03*
X55158Y-48858D03*
X54370Y-49961D03*
X55158Y-49961D03*
G54D13*
X48848Y-48976D03*
X48160Y-48976D03*
G54D14*
X64961Y-31024D03*
G54D15*
X64705Y-31023D03*
X64449Y-31023D03*
X64193Y-31023D03*
G54D14*
X64961Y-33386D03*
G54D15*
X64705Y-33386D03*
X64449Y-33386D03*
X64193Y-33386D03*
G54D16*
X60532Y-32614D03*
X59782Y-32614D03*
X60532Y-33614D03*
X60157Y-32614D03*
X59782Y-33614D03*
X61830Y-32614D03*
X61080Y-32614D03*
X61830Y-33614D03*
X61455Y-32614D03*
X61080Y-33614D03*
X61444Y-25542D03*
X62194Y-25542D03*
X61444Y-24542D03*
X61819Y-25542D03*
X62194Y-24542D03*
G54D17*
X47774Y-28449D03*
X48274Y-28449D03*
X48774Y-28449D03*
X49274Y-28449D03*
X49274Y-26449D03*
X48774Y-26449D03*
X48274Y-26449D03*
X47774Y-26449D03*
G54D18*
X53543Y-49784D03*
X53543Y-49034D03*
X73386Y-28562D03*
X73386Y-29312D03*
G54D19*
X64685Y-29030D03*
X64685Y-29630D03*
X68354Y-23633D03*
X68354Y-24233D03*
G54D20*
X67475Y-27795D03*
X68075Y-27795D03*
G54D19*
X67441Y-26205D03*
X67441Y-25605D03*
X67441Y-29936D03*
X67441Y-30536D03*
X65551Y-31983D03*
X65551Y-32583D03*
G54D20*
X64432Y-33925D03*
X65032Y-33925D03*
G54D19*
X63740Y-33361D03*
X63740Y-33961D03*
X65618Y-23656D03*
X65618Y-24256D03*
X69830Y-32125D03*
X69830Y-32725D03*
X66717Y-33576D03*
X66717Y-32976D03*
X69830Y-33070D03*
X69830Y-33670D03*
X62783Y-25126D03*
X62783Y-24526D03*
X62559Y-33361D03*
X62559Y-33961D03*
X61437Y-31274D03*
X61437Y-31874D03*
X60275Y-31314D03*
X60275Y-31914D03*
X65618Y-22798D03*
X65618Y-23398D03*
X68354Y-22759D03*
X68354Y-23359D03*
G54D20*
X68075Y-27224D03*
X67475Y-27224D03*
G54D19*
X63622Y-31255D03*
X63622Y-31855D03*
X63622Y-28370D03*
X63622Y-27770D03*
G54D20*
X61501Y-30118D03*
X60901Y-30118D03*
G54D19*
X62441Y-31274D03*
X62441Y-31874D03*
G54D20*
X61501Y-29645D03*
X60901Y-29645D03*
G54D19*
X62323Y-28370D03*
X62323Y-27770D03*
X61949Y-31874D03*
X61949Y-31274D03*
X61811Y-27770D03*
X61811Y-28370D03*
X63149Y-33361D03*
X63149Y-33961D03*
G54D21*
X71299Y-32927D03*
X71299Y-33527D03*
G54D19*
X44213Y-46314D03*
X44213Y-46914D03*
X41181Y-45842D03*
X41181Y-46442D03*
X41181Y-45497D03*
X41181Y-44897D03*
X47244Y-46717D03*
X47244Y-46117D03*
X43307Y-41983D03*
X43307Y-42583D03*
X44350Y-41934D03*
X44350Y-41334D03*
X42795Y-41983D03*
X42795Y-42583D03*
G54D20*
X43843Y-44764D03*
X43243Y-44764D03*
G54D19*
X43819Y-42583D03*
X43819Y-41983D03*
X48110Y-42505D03*
X48110Y-41905D03*
X46850Y-41580D03*
X46850Y-40980D03*
G54D20*
X48361Y-44961D03*
X48961Y-44961D03*
G54D19*
X46693Y-46117D03*
X46693Y-46717D03*
G54D20*
X45556Y-46378D03*
X44956Y-46378D03*
X45556Y-46850D03*
X44956Y-46850D03*
G54D19*
X43740Y-46314D03*
X43740Y-46914D03*
X60394Y-28371D03*
X60394Y-27771D03*
X47716Y-25014D03*
X47716Y-25614D03*
X48779Y-25614D03*
X48779Y-25014D03*
X49370Y-25614D03*
X49370Y-25014D03*
G54D20*
X46688Y-29508D03*
X47288Y-29508D03*
X47751Y-29508D03*
X48351Y-29508D03*
X41826Y-28937D03*
X42426Y-28937D03*
X41865Y-27913D03*
X42465Y-27913D03*
X42426Y-29409D03*
X41826Y-29409D03*
X42426Y-29881D03*
X41826Y-29881D03*
G54D19*
X60906Y-28371D03*
X60906Y-27771D03*
X63039Y-26780D03*
X63039Y-26180D03*
X62527Y-26780D03*
X62527Y-26180D03*
G54D20*
X45024Y-39705D03*
X44424Y-39705D03*
X48489Y-52559D03*
X47889Y-52559D03*
X48489Y-52087D03*
X47889Y-52087D03*
G54D19*
X45079Y-27771D03*
X45079Y-28371D03*
X45079Y-27426D03*
X45079Y-26826D03*
X60906Y-35251D03*
X60906Y-35851D03*
X59803Y-35251D03*
X59803Y-35851D03*
X52047Y-27771D03*
X52047Y-28371D03*
X52047Y-27426D03*
X52047Y-26826D03*
G54D22*
X45629Y-27303D03*
G54D23*
X45629Y-27598D03*
G54D22*
X45629Y-27893D03*
X46338Y-27893D03*
G54D23*
X46338Y-27598D03*
G54D22*
X46338Y-27303D03*
X51535Y-27892D03*
G54D23*
X51535Y-27597D03*
G54D22*
X51535Y-27302D03*
X50826Y-27302D03*
G54D23*
X50826Y-27597D03*
G54D22*
X50826Y-27892D03*
G54D19*
X49724Y-51639D03*
X49724Y-51039D03*
X71949Y-28873D03*
X71949Y-29473D03*
G54D20*
X49031Y-33524D03*
X49631Y-33524D03*
X45024Y-39193D03*
X44424Y-39193D03*
X49031Y-33051D03*
X49631Y-33051D03*
X49031Y-33996D03*
X49631Y-33996D03*
X48716Y-31476D03*
X49316Y-31476D03*
G54D19*
X50669Y-32131D03*
X50669Y-31531D03*
X50669Y-32436D03*
X50669Y-33036D03*
G54D20*
X48410Y-31476D03*
X47810Y-31476D03*
G54D19*
X50177Y-32131D03*
X50177Y-31531D03*
X50177Y-32436D03*
X50177Y-33036D03*
G54D20*
X45123Y-32362D03*
X44523Y-32362D03*
X46590Y-31220D03*
X47190Y-31220D03*
G54D19*
X45433Y-31461D03*
X45433Y-30861D03*
G54D20*
X45123Y-32835D03*
X44523Y-32835D03*
X45123Y-33307D03*
X44523Y-33307D03*
G54D19*
X47598Y-34090D03*
X47598Y-34690D03*
X45787Y-34090D03*
X45787Y-34690D03*
X46299Y-34090D03*
X46299Y-34690D03*
X47087Y-34090D03*
X47087Y-34690D03*
G54D20*
X45123Y-31890D03*
X44523Y-31890D03*
G54D19*
X41752Y-32426D03*
X41752Y-31826D03*
G54D20*
X51669Y-32067D03*
X52269Y-32067D03*
X51669Y-32618D03*
X52269Y-32618D03*
G54D24*
X66063Y-26170D03*
X66063Y-29970D03*
G54D25*
X42165Y-46437D03*
X42165Y-44981D03*
G54D26*
X59314Y-39326D03*
X59314Y-39523D03*
X59314Y-39720D03*
X59314Y-39917D03*
X59314Y-40113D03*
G54D27*
X59314Y-40409D03*
G54D26*
X59314Y-40704D03*
X59314Y-40901D03*
X59314Y-41098D03*
X59314Y-41295D03*
X59314Y-41491D03*
X59314Y-41688D03*
X59314Y-41885D03*
X59314Y-42082D03*
X59314Y-42279D03*
X59314Y-42476D03*
G54D27*
X59314Y-42771D03*
G54D26*
X59314Y-43066D03*
X59314Y-43263D03*
X59314Y-43460D03*
X59314Y-43657D03*
X59314Y-43854D03*
X59314Y-44050D03*
X59314Y-44247D03*
X59314Y-44444D03*
X59314Y-44641D03*
X59314Y-44838D03*
G54D27*
X59314Y-45134D03*
G54D26*
X59314Y-45428D03*
X59314Y-45625D03*
X59314Y-45822D03*
X59314Y-46019D03*
X59314Y-46216D03*
X59314Y-46413D03*
X59314Y-46609D03*
X59314Y-46806D03*
X59314Y-47003D03*
X59314Y-47200D03*
G54D27*
X59314Y-47496D03*
G54D26*
X59314Y-47791D03*
X59314Y-47987D03*
X59314Y-48184D03*
X59314Y-48381D03*
X59314Y-48578D03*
X61716Y-48580D03*
X61716Y-48383D03*
X61716Y-48186D03*
X61716Y-47989D03*
X61716Y-47793D03*
G54D27*
X61716Y-47498D03*
G54D26*
X61716Y-47202D03*
X61716Y-47005D03*
X61716Y-46808D03*
X61716Y-46611D03*
X61716Y-46415D03*
X61716Y-46218D03*
X61716Y-46021D03*
X61716Y-45824D03*
X61716Y-45627D03*
X61716Y-45430D03*
G54D27*
X61716Y-45135D03*
G54D26*
X61716Y-44839D03*
X61716Y-44642D03*
X61716Y-44445D03*
X61716Y-44248D03*
X61716Y-44052D03*
X61716Y-43855D03*
X61716Y-43658D03*
X61716Y-43461D03*
X61716Y-43264D03*
X61716Y-43067D03*
G54D27*
X61716Y-42772D03*
G54D26*
X61716Y-42476D03*
X61716Y-42279D03*
X61716Y-42082D03*
X61716Y-41885D03*
X61716Y-41689D03*
X61716Y-41492D03*
X61716Y-41295D03*
X61716Y-41098D03*
X61716Y-40901D03*
X61716Y-40704D03*
G54D27*
X61716Y-40409D03*
G54D26*
X61716Y-40113D03*
X61716Y-39917D03*
X61716Y-39720D03*
X61716Y-39523D03*
X61716Y-39326D03*
G54D28*
X60519Y-49838D03*
X60519Y-38066D03*
G54D29*
X71319Y-28916D03*
X71323Y-29428D03*
X49724Y-52026D03*
X49728Y-52538D03*
G54D30*
X44843Y-50139D03*
X45158Y-50139D03*
X45472Y-50139D03*
X45786Y-50139D03*
X46101Y-50139D03*
G54D31*
X47125Y-52323D03*
X43819Y-52323D03*
X43819Y-50237D03*
X47125Y-50237D03*
G54D32*
X68238Y-28680D03*
X69242Y-28680D03*
G54D33*
X68740Y-29822D03*
G54D34*
X67429Y-33345D03*
X67429Y-31345D03*
X69161Y-31345D03*
X69161Y-33345D03*
G54D35*
X51859Y-50020D03*
X51898Y-49114D03*
X51879Y-48209D03*
G54D36*
X49576Y-49114D03*
G54D35*
X74260Y-32361D03*
X74299Y-31455D03*
X74280Y-30550D03*
G54D36*
X71977Y-31455D03*
G54D37*
X46112Y-31899D03*
X46112Y-32155D03*
X46112Y-32411D03*
X46112Y-32666D03*
X46112Y-32922D03*
X46112Y-33179D03*
X46112Y-33434D03*
X46112Y-33689D03*
X48376Y-33690D03*
X48376Y-33434D03*
X48376Y-33179D03*
X48376Y-32923D03*
X48376Y-32667D03*
X48376Y-32411D03*
X48376Y-32155D03*
X48376Y-31899D03*
G54D38*
X50432Y-25089D03*
X50432Y-26088D03*
X57781Y-50138D03*
X57781Y-49139D03*
X57781Y-52383D03*
X57781Y-51384D03*
X74331Y-26276D03*
X74331Y-27275D03*
G54D39*
X62597Y-22978D03*
G54D40*
X61221Y-22978D03*
X63973Y-22978D03*
G54D41*
X67493Y-23001D03*
G54D42*
X67493Y-24001D03*
G54D41*
X66494Y-23001D03*
G54D43*
X66494Y-24001D03*
G54D44*
X71500Y-25117D03*
G54D45*
X69610Y-26299D03*
G54D44*
X71500Y-27480D03*
G54D46*
X75717Y-23764D03*
X75717Y-36079D03*
G54D47*
X38445Y-27826D03*
X38445Y-28826D03*
X38445Y-29826D03*
X38445Y-30826D03*
X38445Y-31826D03*
X38445Y-32826D03*
X38445Y-33826D03*
X38445Y-34826D03*
X38445Y-35826D03*
X38445Y-36826D03*
X38445Y-37826D03*
X38445Y-38826D03*
X38445Y-39826D03*
X38445Y-40826D03*
X38445Y-41826D03*
X38445Y-42826D03*
X38445Y-43826D03*
X38445Y-44826D03*
X38445Y-45826D03*
X38445Y-46826D03*
X39444Y-28826D03*
X39444Y-29825D03*
X39445Y-30826D03*
X39445Y-31826D03*
X39445Y-32826D03*
X39445Y-33826D03*
X39445Y-34826D03*
X39445Y-35826D03*
X39445Y-36826D03*
X39445Y-38826D03*
X39445Y-37826D03*
X39445Y-39826D03*
X39445Y-40826D03*
X39445Y-41826D03*
X39445Y-42826D03*
X39445Y-43826D03*
X39445Y-44826D03*
X39445Y-45826D03*
X39444Y-46826D03*
G54D48*
X39444Y-27828D03*
G54D47*
X55496Y-27826D03*
X55496Y-28826D03*
X55496Y-29826D03*
X55496Y-30826D03*
X55496Y-31826D03*
X55496Y-32826D03*
X55496Y-33826D03*
X55496Y-34826D03*
X55496Y-35826D03*
X55496Y-36826D03*
X55496Y-37826D03*
X55496Y-38826D03*
X55496Y-39826D03*
X55496Y-40826D03*
X55495Y-41825D03*
X55496Y-42826D03*
X55496Y-43826D03*
X55496Y-44826D03*
X55496Y-45826D03*
G54D48*
X55494Y-46826D03*
G54D47*
X56496Y-27826D03*
X56496Y-28826D03*
X56496Y-29826D03*
X56496Y-30826D03*
X56496Y-31826D03*
X56496Y-32826D03*
X56496Y-34826D03*
X56496Y-33826D03*
X56496Y-36826D03*
X56496Y-35826D03*
X56496Y-37826D03*
X56496Y-39826D03*
X56496Y-38826D03*
X56496Y-46826D03*
X56496Y-45826D03*
X56496Y-44826D03*
X56496Y-43826D03*
X56496Y-41826D03*
X56496Y-40826D03*
X56496Y-42826D03*
X41194Y-52031D03*
G54D48*
X42195Y-52031D03*
G54D49*
X45747Y-44724D03*
X45747Y-44173D03*
X45747Y-43071D03*
X45747Y-43622D03*
X45196Y-43622D03*
X45196Y-43071D03*
X45196Y-44173D03*
X45196Y-44724D03*
X46299Y-44724D03*
X46299Y-44173D03*
X46299Y-43071D03*
X46299Y-43622D03*
X46850Y-43622D03*
X46850Y-43071D03*
X46850Y-44173D03*
G54D50*
X47519Y-43800D03*
X47519Y-43603D03*
X47519Y-43405D03*
X47519Y-43208D03*
X47519Y-43012D03*
X47519Y-42815D03*
X47519Y-42618D03*
X47519Y-45176D03*
X47519Y-44979D03*
X47519Y-44782D03*
X47519Y-44586D03*
X47519Y-44389D03*
X47519Y-44191D03*
X47519Y-43994D03*
G54D51*
X47303Y-42402D03*
X47106Y-42402D03*
X46909Y-42402D03*
X46711Y-42402D03*
X46516Y-42402D03*
X46318Y-42402D03*
X46121Y-42402D03*
X45925Y-42402D03*
X45730Y-42402D03*
X45532Y-42402D03*
X45335Y-42402D03*
X45139Y-42402D03*
X44942Y-42402D03*
X44745Y-42402D03*
G54D50*
X44529Y-42618D03*
X44529Y-42815D03*
X44529Y-43012D03*
X44529Y-43208D03*
X44529Y-43405D03*
X44529Y-43602D03*
X44529Y-43798D03*
X44529Y-43994D03*
X44529Y-44191D03*
X44529Y-44389D03*
X44529Y-44586D03*
X44529Y-44782D03*
X44529Y-44979D03*
X44529Y-45176D03*
G54D51*
X44745Y-45392D03*
X44942Y-45392D03*
X45139Y-45392D03*
X45335Y-45392D03*
X45532Y-45392D03*
X45729Y-45392D03*
X45925Y-45392D03*
X46121Y-45392D03*
X46318Y-45392D03*
X46516Y-45392D03*
X46713Y-45392D03*
X46909Y-45392D03*
X47106Y-45392D03*
X47303Y-45392D03*
G54D49*
X46850Y-44724D03*
G54D46*
X75717Y-51827D03*
X39173Y-51831D03*
X39177Y-23760D03*
G54D52*
X63699Y-30372D03*
X63699Y-30175D03*
X63699Y-29978D03*
X63699Y-29782D03*
X63699Y-29585D03*
X63699Y-29388D03*
G54D53*
X63404Y-29093D03*
X63207Y-29093D03*
X63010Y-29093D03*
X62814Y-29093D03*
X62617Y-29093D03*
X62420Y-29093D03*
G54D52*
X62125Y-29388D03*
X62125Y-29585D03*
X62125Y-29782D03*
X62125Y-29978D03*
X62125Y-30175D03*
X62125Y-30372D03*
G54D53*
X62420Y-30667D03*
X62617Y-30667D03*
X62814Y-30667D03*
X63010Y-30667D03*
X63207Y-30667D03*
X63404Y-30667D03*
G54D54*
X62676Y-29644D03*
X63148Y-29644D03*
X62676Y-30116D03*
X63148Y-30116D03*
M02*
