G04 (created by PCBNEW-RS274X (2012-08-04 BZR 3667)-testing) date 10/11/2012 4:33:33 PM*
%MOIN*%
G04 Gerber Fmt 3.4, Leading zero omitted, Abs format*
%FSLAX34Y34*%
G01*
G70*
G90*
G04 APERTURE LIST*
%ADD10C,0.006*%
%ADD11C,0.0049*%
%ADD12C,0.0039*%
%ADD13C,0.0077*%
%ADD14C,0.0078*%
%ADD15C,0.0157*%
%ADD16C,0.0079*%
%ADD17C,0.005*%
%ADD18C,0.002*%
%ADD19C,0.01*%
%ADD20C,0.0063*%
%ADD21C,0.0057*%
%ADD22C,0.0299*%
%ADD23C,0.0059*%
%ADD24C,0.0048*%
%ADD25C,0.0047*%
G04 APERTURE END LIST*
G54D10*
G54D11*
X59783Y-30276D02*
X59783Y-30728D01*
X58819Y-30276D02*
X59783Y-30276D01*
X58819Y-30295D02*
X58819Y-30276D01*
X58819Y-30728D02*
X58819Y-30295D01*
X61417Y-30728D02*
X58819Y-30728D01*
X61791Y-31102D02*
X61417Y-30728D01*
X61713Y-32047D02*
X61732Y-32047D01*
X61713Y-31122D02*
X61713Y-32047D01*
X62185Y-31122D02*
X61713Y-31122D01*
X62185Y-32047D02*
X62185Y-31122D01*
X61732Y-32047D02*
X62185Y-32047D01*
G54D12*
X37795Y-22047D02*
X37795Y-53542D01*
X77165Y-22047D02*
X37795Y-22047D01*
X77165Y-53542D02*
X77165Y-22047D01*
X37795Y-53542D02*
X77165Y-53542D01*
G54D11*
X57060Y-49552D02*
X56785Y-49552D01*
X56785Y-49433D01*
X56798Y-49403D01*
X56811Y-49388D01*
X56837Y-49373D01*
X56876Y-49373D01*
X56903Y-49388D01*
X56916Y-49403D01*
X56929Y-49433D01*
X56929Y-49552D01*
X56785Y-49268D02*
X57060Y-49193D01*
X56863Y-49134D01*
X57060Y-49074D01*
X56785Y-48999D01*
X57060Y-48700D02*
X56929Y-48804D01*
X57060Y-48879D02*
X56785Y-48879D01*
X56785Y-48760D01*
X56798Y-48730D01*
X56811Y-48715D01*
X56837Y-48700D01*
X56876Y-48700D01*
X56903Y-48715D01*
X56916Y-48730D01*
X56929Y-48760D01*
X56929Y-48879D01*
X57080Y-50135D02*
X56949Y-50239D01*
X57080Y-50314D02*
X56805Y-50314D01*
X56805Y-50195D01*
X56818Y-50165D01*
X56831Y-50150D01*
X56857Y-50135D01*
X56896Y-50135D01*
X56923Y-50150D01*
X56936Y-50165D01*
X56949Y-50195D01*
X56949Y-50314D01*
X56936Y-49896D02*
X56936Y-50000D01*
X57080Y-50000D02*
X56805Y-50000D01*
X56805Y-49851D01*
X57060Y-51737D02*
X56785Y-51737D01*
X56785Y-51618D01*
X56798Y-51588D01*
X56811Y-51573D01*
X56837Y-51558D01*
X56876Y-51558D01*
X56903Y-51573D01*
X56916Y-51588D01*
X56929Y-51618D01*
X56929Y-51737D01*
X56785Y-51453D02*
X57060Y-51378D01*
X56863Y-51319D01*
X57060Y-51259D01*
X56785Y-51184D01*
X57060Y-50885D02*
X56929Y-50989D01*
X57060Y-51064D02*
X56785Y-51064D01*
X56785Y-50945D01*
X56798Y-50915D01*
X56811Y-50900D01*
X56837Y-50885D01*
X56876Y-50885D01*
X56903Y-50900D01*
X56916Y-50915D01*
X56929Y-50945D01*
X56929Y-51064D01*
X56916Y-52963D02*
X56916Y-53067D01*
X57060Y-53067D02*
X56785Y-53067D01*
X56785Y-52918D01*
X57060Y-52798D02*
X56785Y-52798D01*
X56785Y-52679D01*
X56798Y-52649D01*
X56811Y-52634D01*
X56837Y-52619D01*
X56876Y-52619D01*
X56903Y-52634D01*
X56916Y-52649D01*
X56929Y-52679D01*
X56929Y-52798D01*
X56798Y-52320D02*
X56785Y-52350D01*
X56785Y-52395D01*
X56798Y-52439D01*
X56824Y-52469D01*
X56850Y-52484D01*
X56903Y-52499D01*
X56942Y-52499D01*
X56994Y-52484D01*
X57021Y-52469D01*
X57047Y-52439D01*
X57060Y-52395D01*
X57060Y-52365D01*
X57047Y-52320D01*
X57034Y-52305D01*
X56942Y-52305D01*
X56942Y-52365D01*
X56981Y-52185D02*
X56981Y-52036D01*
X57060Y-52215D02*
X56785Y-52110D01*
X57060Y-52006D01*
G54D13*
X59202Y-22737D02*
X59202Y-23174D01*
X59071Y-23174D01*
X58993Y-23153D01*
X58940Y-23111D01*
X58914Y-23070D01*
X58888Y-22986D01*
X58888Y-22924D01*
X58914Y-22841D01*
X58940Y-22799D01*
X58993Y-22757D01*
X59071Y-22737D01*
X59202Y-22737D01*
X58652Y-22737D02*
X58652Y-23028D01*
X58652Y-23174D02*
X58678Y-23153D01*
X58652Y-23132D01*
X58626Y-23153D01*
X58652Y-23174D01*
X58652Y-23132D01*
X58154Y-23028D02*
X58154Y-22674D01*
X58181Y-22633D01*
X58207Y-22612D01*
X58259Y-22591D01*
X58338Y-22591D01*
X58390Y-22612D01*
X58154Y-22757D02*
X58207Y-22737D01*
X58311Y-22737D01*
X58364Y-22757D01*
X58390Y-22778D01*
X58416Y-22820D01*
X58416Y-22945D01*
X58390Y-22986D01*
X58364Y-23007D01*
X58311Y-23028D01*
X58207Y-23028D01*
X58154Y-23007D01*
X57892Y-22737D02*
X57892Y-23028D01*
X57892Y-23174D02*
X57918Y-23153D01*
X57892Y-23132D01*
X57866Y-23153D01*
X57892Y-23174D01*
X57892Y-23132D01*
X57709Y-23028D02*
X57499Y-23028D01*
X57630Y-23174D02*
X57630Y-22799D01*
X57604Y-22757D01*
X57551Y-22737D01*
X57499Y-22737D01*
X57080Y-22737D02*
X57080Y-22966D01*
X57107Y-23007D01*
X57159Y-23028D01*
X57264Y-23028D01*
X57316Y-23007D01*
X57080Y-22757D02*
X57133Y-22737D01*
X57264Y-22737D01*
X57316Y-22757D01*
X57342Y-22799D01*
X57342Y-22841D01*
X57316Y-22882D01*
X57264Y-22903D01*
X57133Y-22903D01*
X57080Y-22924D01*
X56739Y-22737D02*
X56792Y-22757D01*
X56818Y-22799D01*
X56818Y-23174D01*
X56111Y-22737D02*
X56111Y-23174D01*
X55849Y-23028D02*
X55849Y-22737D01*
X55849Y-22986D02*
X55823Y-23007D01*
X55770Y-23028D01*
X55692Y-23028D01*
X55640Y-23007D01*
X55613Y-22966D01*
X55613Y-22737D01*
X55430Y-23028D02*
X55220Y-23028D01*
X55351Y-23174D02*
X55351Y-22799D01*
X55325Y-22757D01*
X55272Y-22737D01*
X55220Y-22737D01*
X54828Y-22757D02*
X54880Y-22737D01*
X54985Y-22737D01*
X55037Y-22757D01*
X55063Y-22799D01*
X55063Y-22966D01*
X55037Y-23007D01*
X54985Y-23028D01*
X54880Y-23028D01*
X54828Y-23007D01*
X54801Y-22966D01*
X54801Y-22924D01*
X55063Y-22882D01*
X54566Y-22737D02*
X54566Y-23028D01*
X54566Y-22945D02*
X54540Y-22986D01*
X54514Y-23007D01*
X54461Y-23028D01*
X54409Y-23028D01*
X54305Y-23028D02*
X54095Y-23028D01*
X54226Y-22737D02*
X54226Y-23111D01*
X54200Y-23153D01*
X54147Y-23174D01*
X54095Y-23174D01*
X53676Y-22737D02*
X53676Y-22966D01*
X53703Y-23007D01*
X53755Y-23028D01*
X53860Y-23028D01*
X53912Y-23007D01*
X53676Y-22757D02*
X53729Y-22737D01*
X53860Y-22737D01*
X53912Y-22757D01*
X53938Y-22799D01*
X53938Y-22841D01*
X53912Y-22882D01*
X53860Y-22903D01*
X53729Y-22903D01*
X53676Y-22924D01*
X53178Y-22757D02*
X53231Y-22737D01*
X53335Y-22737D01*
X53388Y-22757D01*
X53414Y-22778D01*
X53440Y-22820D01*
X53440Y-22945D01*
X53414Y-22986D01*
X53388Y-23007D01*
X53335Y-23028D01*
X53231Y-23028D01*
X53178Y-23007D01*
X52734Y-22757D02*
X52786Y-22737D01*
X52891Y-22737D01*
X52943Y-22757D01*
X52969Y-22799D01*
X52969Y-22966D01*
X52943Y-23007D01*
X52891Y-23028D01*
X52786Y-23028D01*
X52734Y-23007D01*
X52707Y-22966D01*
X52707Y-22924D01*
X52969Y-22882D01*
X52105Y-23028D02*
X51974Y-22737D01*
X51844Y-23028D01*
X51346Y-22737D02*
X51660Y-22737D01*
X51503Y-22737D02*
X51503Y-23174D01*
X51555Y-23111D01*
X51608Y-23070D01*
X51660Y-23049D01*
X51110Y-22778D02*
X51084Y-22757D01*
X51110Y-22737D01*
X51136Y-22757D01*
X51110Y-22778D01*
X51110Y-22737D01*
X50743Y-23174D02*
X50691Y-23174D01*
X50639Y-23153D01*
X50612Y-23132D01*
X50586Y-23090D01*
X50560Y-23007D01*
X50560Y-22903D01*
X50586Y-22820D01*
X50612Y-22778D01*
X50639Y-22757D01*
X50691Y-22737D01*
X50743Y-22737D01*
X50796Y-22757D01*
X50822Y-22778D01*
X50848Y-22820D01*
X50874Y-22903D01*
X50874Y-23007D01*
X50848Y-23090D01*
X50822Y-23132D01*
X50796Y-23153D01*
X50743Y-23174D01*
G54D14*
X76156Y-32042D02*
X76156Y-31938D01*
X76177Y-31885D01*
X76219Y-31833D01*
X76302Y-31807D01*
X76448Y-31807D01*
X76531Y-31833D01*
X76573Y-31885D01*
X76593Y-31938D01*
X76593Y-32042D01*
X76573Y-32095D01*
X76531Y-32147D01*
X76448Y-32173D01*
X76302Y-32173D01*
X76219Y-32147D01*
X76177Y-32095D01*
X76156Y-32042D01*
X76302Y-31571D02*
X76739Y-31571D01*
X76323Y-31571D02*
X76302Y-31519D01*
X76302Y-31414D01*
X76323Y-31362D01*
X76344Y-31335D01*
X76385Y-31309D01*
X76510Y-31309D01*
X76552Y-31335D01*
X76573Y-31362D01*
X76593Y-31414D01*
X76593Y-31519D01*
X76573Y-31571D01*
X76573Y-30864D02*
X76593Y-30916D01*
X76593Y-31021D01*
X76573Y-31073D01*
X76531Y-31099D01*
X76364Y-31099D01*
X76323Y-31073D01*
X76302Y-31021D01*
X76302Y-30916D01*
X76323Y-30864D01*
X76364Y-30837D01*
X76406Y-30837D01*
X76448Y-31099D01*
X76302Y-30602D02*
X76593Y-30602D01*
X76344Y-30602D02*
X76323Y-30576D01*
X76302Y-30523D01*
X76302Y-30445D01*
X76323Y-30393D01*
X76364Y-30366D01*
X76593Y-30366D01*
X76573Y-29711D02*
X76593Y-29633D01*
X76593Y-29502D01*
X76573Y-29449D01*
X76552Y-29423D01*
X76510Y-29397D01*
X76469Y-29397D01*
X76427Y-29423D01*
X76406Y-29449D01*
X76385Y-29502D01*
X76364Y-29606D01*
X76344Y-29659D01*
X76323Y-29685D01*
X76281Y-29711D01*
X76240Y-29711D01*
X76198Y-29685D01*
X76177Y-29659D01*
X76156Y-29606D01*
X76156Y-29476D01*
X76177Y-29397D01*
X76593Y-29082D02*
X76573Y-29135D01*
X76552Y-29161D01*
X76510Y-29187D01*
X76385Y-29187D01*
X76344Y-29161D01*
X76323Y-29135D01*
X76302Y-29082D01*
X76302Y-29004D01*
X76323Y-28952D01*
X76344Y-28925D01*
X76385Y-28899D01*
X76510Y-28899D01*
X76552Y-28925D01*
X76573Y-28952D01*
X76593Y-29004D01*
X76593Y-29082D01*
X76302Y-28427D02*
X76593Y-28427D01*
X76302Y-28663D02*
X76531Y-28663D01*
X76573Y-28637D01*
X76593Y-28584D01*
X76593Y-28506D01*
X76573Y-28454D01*
X76552Y-28427D01*
X76593Y-28165D02*
X76302Y-28165D01*
X76385Y-28165D02*
X76344Y-28139D01*
X76323Y-28113D01*
X76302Y-28060D01*
X76302Y-28008D01*
X76573Y-27589D02*
X76593Y-27642D01*
X76593Y-27746D01*
X76573Y-27799D01*
X76552Y-27825D01*
X76510Y-27851D01*
X76385Y-27851D01*
X76344Y-27825D01*
X76323Y-27799D01*
X76302Y-27746D01*
X76302Y-27642D01*
X76323Y-27589D01*
X76573Y-27145D02*
X76593Y-27197D01*
X76593Y-27302D01*
X76573Y-27354D01*
X76531Y-27380D01*
X76364Y-27380D01*
X76323Y-27354D01*
X76302Y-27302D01*
X76302Y-27197D01*
X76323Y-27145D01*
X76364Y-27118D01*
X76406Y-27118D01*
X76448Y-27380D01*
G54D11*
X75312Y-26119D02*
X75282Y-26106D01*
X75237Y-26106D01*
X75193Y-26119D01*
X75163Y-26145D01*
X75148Y-26171D01*
X75133Y-26224D01*
X75133Y-26263D01*
X75148Y-26315D01*
X75163Y-26342D01*
X75193Y-26368D01*
X75237Y-26381D01*
X75267Y-26381D01*
X75312Y-26368D01*
X75327Y-26355D01*
X75327Y-26263D01*
X75267Y-26263D01*
X75462Y-26381D02*
X75462Y-26106D01*
X75641Y-26381D01*
X75641Y-26106D01*
X75791Y-26381D02*
X75791Y-26106D01*
X75866Y-26106D01*
X75910Y-26119D01*
X75940Y-26145D01*
X75955Y-26171D01*
X75970Y-26224D01*
X75970Y-26263D01*
X75955Y-26315D01*
X75940Y-26342D01*
X75910Y-26368D01*
X75866Y-26381D01*
X75791Y-26381D01*
X75148Y-27289D02*
X75387Y-27289D01*
X75267Y-27394D02*
X75267Y-27184D01*
X75686Y-27119D02*
X75537Y-27119D01*
X75522Y-27250D01*
X75537Y-27237D01*
X75567Y-27224D01*
X75641Y-27224D01*
X75671Y-27237D01*
X75686Y-27250D01*
X75701Y-27276D01*
X75701Y-27341D01*
X75686Y-27368D01*
X75671Y-27381D01*
X75641Y-27394D01*
X75567Y-27394D01*
X75537Y-27381D01*
X75522Y-27368D01*
X75791Y-27119D02*
X75896Y-27394D01*
X76000Y-27119D01*
G54D14*
X74391Y-29763D02*
X74585Y-29763D01*
X74391Y-29291D02*
X74585Y-29291D01*
X74352Y-28699D02*
X74546Y-28699D01*
X74352Y-28229D02*
X74546Y-28229D01*
X54667Y-49093D02*
X54861Y-49093D01*
X54667Y-48623D02*
X54861Y-48623D01*
X54667Y-49726D02*
X54861Y-49726D01*
X54667Y-50196D02*
X54861Y-50196D01*
X48601Y-48839D02*
X48407Y-48839D01*
X48601Y-49114D02*
X48407Y-49114D01*
G54D15*
X64898Y-31574D02*
G75*
G03X64898Y-31574I-55J0D01*
G74*
G01*
G54D16*
X64095Y-32991D02*
X65079Y-32991D01*
X65079Y-32991D02*
X65079Y-31338D01*
X64095Y-31338D02*
X64095Y-32991D01*
X65079Y-31338D02*
X64095Y-31338D01*
G54D17*
X59657Y-32239D02*
X59582Y-32239D01*
X59582Y-32239D02*
X59582Y-32989D01*
X59582Y-32989D02*
X59582Y-33989D01*
X59582Y-33989D02*
X60732Y-33989D01*
X60732Y-33989D02*
X60732Y-32239D01*
X60732Y-32239D02*
X60207Y-32239D01*
X60207Y-32239D02*
X59657Y-32239D01*
X60955Y-32239D02*
X60880Y-32239D01*
X60880Y-32239D02*
X60880Y-32989D01*
X60880Y-32989D02*
X60880Y-33989D01*
X60880Y-33989D02*
X62030Y-33989D01*
X62030Y-33989D02*
X62030Y-32239D01*
X62030Y-32239D02*
X61505Y-32239D01*
X61505Y-32239D02*
X60955Y-32239D01*
X62319Y-25917D02*
X62394Y-25917D01*
X62394Y-25917D02*
X62394Y-25167D01*
X62394Y-25167D02*
X62394Y-24167D01*
X62394Y-24167D02*
X61244Y-24167D01*
X61244Y-24167D02*
X61244Y-25917D01*
X61244Y-25917D02*
X61769Y-25917D01*
X61769Y-25917D02*
X62319Y-25917D01*
G54D16*
X47424Y-27749D02*
X47424Y-28999D01*
X47424Y-27149D02*
X47424Y-25899D01*
X47724Y-27449D02*
G75*
G03X47424Y-27149I-300J0D01*
G74*
G01*
X47424Y-27749D02*
G75*
G03X47724Y-27449I0J300D01*
G74*
G01*
X47424Y-25899D02*
X47674Y-25899D01*
X47424Y-28999D02*
X47624Y-28999D01*
X47624Y-28999D02*
X49574Y-28999D01*
X49574Y-28999D02*
X49574Y-25899D01*
X49574Y-25899D02*
X47624Y-25899D01*
X53336Y-49252D02*
X53336Y-49566D01*
X53760Y-49252D02*
X53760Y-49566D01*
X73593Y-29094D02*
X73593Y-28780D01*
X73169Y-29094D02*
X73169Y-28780D01*
X64803Y-29182D02*
X64803Y-29478D01*
X64567Y-29182D02*
X64567Y-29478D01*
X68472Y-23785D02*
X68472Y-24081D01*
X68236Y-23785D02*
X68236Y-24081D01*
X67627Y-27677D02*
X67923Y-27677D01*
X67627Y-27913D02*
X67923Y-27913D01*
X67323Y-26053D02*
X67323Y-25757D01*
X67559Y-26053D02*
X67559Y-25757D01*
X67559Y-30088D02*
X67559Y-30384D01*
X67323Y-30088D02*
X67323Y-30384D01*
X65669Y-32135D02*
X65669Y-32431D01*
X65433Y-32135D02*
X65433Y-32431D01*
X64584Y-33807D02*
X64880Y-33807D01*
X64584Y-34043D02*
X64880Y-34043D01*
X63858Y-33513D02*
X63858Y-33809D01*
X63622Y-33513D02*
X63622Y-33809D01*
X65736Y-23808D02*
X65736Y-24104D01*
X65500Y-23808D02*
X65500Y-24104D01*
X69948Y-32277D02*
X69948Y-32573D01*
X69712Y-32277D02*
X69712Y-32573D01*
X66599Y-33424D02*
X66599Y-33128D01*
X66835Y-33424D02*
X66835Y-33128D01*
X69948Y-33222D02*
X69948Y-33518D01*
X69712Y-33222D02*
X69712Y-33518D01*
X62665Y-24974D02*
X62665Y-24678D01*
X62901Y-24974D02*
X62901Y-24678D01*
X62677Y-33513D02*
X62677Y-33809D01*
X62441Y-33513D02*
X62441Y-33809D01*
X61555Y-31426D02*
X61555Y-31722D01*
X61319Y-31426D02*
X61319Y-31722D01*
X60393Y-31466D02*
X60393Y-31762D01*
X60157Y-31466D02*
X60157Y-31762D01*
X65736Y-22950D02*
X65736Y-23246D01*
X65500Y-22950D02*
X65500Y-23246D01*
X68472Y-22911D02*
X68472Y-23207D01*
X68236Y-22911D02*
X68236Y-23207D01*
X67923Y-27342D02*
X67627Y-27342D01*
X67923Y-27106D02*
X67627Y-27106D01*
X63740Y-31407D02*
X63740Y-31703D01*
X63504Y-31407D02*
X63504Y-31703D01*
X63504Y-28218D02*
X63504Y-27922D01*
X63740Y-28218D02*
X63740Y-27922D01*
X61349Y-30236D02*
X61053Y-30236D01*
X61349Y-30000D02*
X61053Y-30000D01*
X62559Y-31426D02*
X62559Y-31722D01*
X62323Y-31426D02*
X62323Y-31722D01*
X61349Y-29763D02*
X61053Y-29763D01*
X61349Y-29527D02*
X61053Y-29527D01*
X62205Y-28218D02*
X62205Y-27922D01*
X62441Y-28218D02*
X62441Y-27922D01*
X61831Y-31722D02*
X61831Y-31426D01*
X62067Y-31722D02*
X62067Y-31426D01*
X61929Y-27922D02*
X61929Y-28218D01*
X61693Y-27922D02*
X61693Y-28218D01*
X63267Y-33513D02*
X63267Y-33809D01*
X63031Y-33513D02*
X63031Y-33809D01*
X71417Y-33080D02*
X71417Y-33376D01*
X71181Y-33080D02*
X71181Y-33376D01*
X44331Y-46466D02*
X44331Y-46762D01*
X44095Y-46466D02*
X44095Y-46762D01*
X41299Y-45994D02*
X41299Y-46290D01*
X41063Y-45994D02*
X41063Y-46290D01*
X41063Y-45345D02*
X41063Y-45049D01*
X41299Y-45345D02*
X41299Y-45049D01*
X47126Y-46565D02*
X47126Y-46269D01*
X47362Y-46565D02*
X47362Y-46269D01*
X43425Y-42135D02*
X43425Y-42431D01*
X43189Y-42135D02*
X43189Y-42431D01*
X44232Y-41782D02*
X44232Y-41486D01*
X44468Y-41782D02*
X44468Y-41486D01*
X42913Y-42135D02*
X42913Y-42431D01*
X42677Y-42135D02*
X42677Y-42431D01*
X43691Y-44882D02*
X43395Y-44882D01*
X43691Y-44646D02*
X43395Y-44646D01*
X43701Y-42431D02*
X43701Y-42135D01*
X43937Y-42431D02*
X43937Y-42135D01*
X47992Y-42353D02*
X47992Y-42057D01*
X48228Y-42353D02*
X48228Y-42057D01*
X46732Y-41428D02*
X46732Y-41132D01*
X46968Y-41428D02*
X46968Y-41132D01*
X48513Y-44843D02*
X48809Y-44843D01*
X48513Y-45079D02*
X48809Y-45079D01*
X46811Y-46269D02*
X46811Y-46565D01*
X46575Y-46269D02*
X46575Y-46565D01*
X45404Y-46496D02*
X45108Y-46496D01*
X45404Y-46260D02*
X45108Y-46260D01*
X45404Y-46968D02*
X45108Y-46968D01*
X45404Y-46732D02*
X45108Y-46732D01*
X43858Y-46466D02*
X43858Y-46762D01*
X43622Y-46466D02*
X43622Y-46762D01*
X60276Y-28219D02*
X60276Y-27923D01*
X60512Y-28219D02*
X60512Y-27923D01*
X47834Y-25166D02*
X47834Y-25462D01*
X47598Y-25166D02*
X47598Y-25462D01*
X48661Y-25462D02*
X48661Y-25166D01*
X48897Y-25462D02*
X48897Y-25166D01*
X49252Y-25462D02*
X49252Y-25166D01*
X49488Y-25462D02*
X49488Y-25166D01*
X46840Y-29390D02*
X47136Y-29390D01*
X46840Y-29626D02*
X47136Y-29626D01*
X47903Y-29390D02*
X48199Y-29390D01*
X47903Y-29626D02*
X48199Y-29626D01*
X41978Y-28819D02*
X42274Y-28819D01*
X41978Y-29055D02*
X42274Y-29055D01*
X42017Y-27795D02*
X42313Y-27795D01*
X42017Y-28031D02*
X42313Y-28031D01*
X42274Y-29527D02*
X41978Y-29527D01*
X42274Y-29291D02*
X41978Y-29291D01*
X42274Y-29999D02*
X41978Y-29999D01*
X42274Y-29763D02*
X41978Y-29763D01*
X60788Y-28219D02*
X60788Y-27923D01*
X61024Y-28219D02*
X61024Y-27923D01*
X62921Y-26628D02*
X62921Y-26332D01*
X63157Y-26628D02*
X63157Y-26332D01*
X62409Y-26628D02*
X62409Y-26332D01*
X62645Y-26628D02*
X62645Y-26332D01*
X44872Y-39823D02*
X44576Y-39823D01*
X44872Y-39587D02*
X44576Y-39587D01*
X48337Y-52677D02*
X48041Y-52677D01*
X48337Y-52441D02*
X48041Y-52441D01*
X48337Y-52205D02*
X48041Y-52205D01*
X48337Y-51969D02*
X48041Y-51969D01*
X45197Y-27923D02*
X45197Y-28219D01*
X44961Y-27923D02*
X44961Y-28219D01*
X44961Y-27274D02*
X44961Y-26978D01*
X45197Y-27274D02*
X45197Y-26978D01*
X61024Y-35403D02*
X61024Y-35699D01*
X60788Y-35403D02*
X60788Y-35699D01*
X59921Y-35403D02*
X59921Y-35699D01*
X59685Y-35403D02*
X59685Y-35699D01*
X52165Y-27923D02*
X52165Y-28219D01*
X51929Y-27923D02*
X51929Y-28219D01*
X51929Y-27274D02*
X51929Y-26978D01*
X52165Y-27274D02*
X52165Y-26978D01*
G54D17*
X45865Y-27007D02*
G75*
G03X45865Y-27007I-19J0D01*
G74*
G01*
X45905Y-27008D02*
G75*
G03X45905Y-27008I-59J0D01*
G74*
G01*
X46181Y-28031D02*
X45787Y-28031D01*
X46181Y-27165D02*
X45787Y-27165D01*
X51337Y-28188D02*
G75*
G03X51337Y-28188I-19J0D01*
G74*
G01*
X51377Y-28187D02*
G75*
G03X51377Y-28187I-59J0D01*
G74*
G01*
X50983Y-27164D02*
X51377Y-27164D01*
X50983Y-28030D02*
X51377Y-28030D01*
G54D16*
X49606Y-51487D02*
X49606Y-51191D01*
X49842Y-51487D02*
X49842Y-51191D01*
X72067Y-29025D02*
X72067Y-29321D01*
X71831Y-29025D02*
X71831Y-29321D01*
X49183Y-33406D02*
X49479Y-33406D01*
X49183Y-33642D02*
X49479Y-33642D01*
X44872Y-39311D02*
X44576Y-39311D01*
X44872Y-39075D02*
X44576Y-39075D01*
X49183Y-32933D02*
X49479Y-32933D01*
X49183Y-33169D02*
X49479Y-33169D01*
X49183Y-33878D02*
X49479Y-33878D01*
X49183Y-34114D02*
X49479Y-34114D01*
X48868Y-31358D02*
X49164Y-31358D01*
X48868Y-31594D02*
X49164Y-31594D01*
X50551Y-31979D02*
X50551Y-31683D01*
X50787Y-31979D02*
X50787Y-31683D01*
X50787Y-32588D02*
X50787Y-32884D01*
X50551Y-32588D02*
X50551Y-32884D01*
X48258Y-31594D02*
X47962Y-31594D01*
X48258Y-31358D02*
X47962Y-31358D01*
X50059Y-31979D02*
X50059Y-31683D01*
X50295Y-31979D02*
X50295Y-31683D01*
X50295Y-32588D02*
X50295Y-32884D01*
X50059Y-32588D02*
X50059Y-32884D01*
X44971Y-32480D02*
X44675Y-32480D01*
X44971Y-32244D02*
X44675Y-32244D01*
X46742Y-31102D02*
X47038Y-31102D01*
X46742Y-31338D02*
X47038Y-31338D01*
X45315Y-31309D02*
X45315Y-31013D01*
X45551Y-31309D02*
X45551Y-31013D01*
X44971Y-32953D02*
X44675Y-32953D01*
X44971Y-32717D02*
X44675Y-32717D01*
X44971Y-33425D02*
X44675Y-33425D01*
X44971Y-33189D02*
X44675Y-33189D01*
X47716Y-34242D02*
X47716Y-34538D01*
X47480Y-34242D02*
X47480Y-34538D01*
X45905Y-34242D02*
X45905Y-34538D01*
X45669Y-34242D02*
X45669Y-34538D01*
X46417Y-34242D02*
X46417Y-34538D01*
X46181Y-34242D02*
X46181Y-34538D01*
X47205Y-34242D02*
X47205Y-34538D01*
X46969Y-34242D02*
X46969Y-34538D01*
X44971Y-32008D02*
X44675Y-32008D01*
X44971Y-31772D02*
X44675Y-31772D01*
X41634Y-32274D02*
X41634Y-31978D01*
X41870Y-32274D02*
X41870Y-31978D01*
X51821Y-31949D02*
X52117Y-31949D01*
X51821Y-32185D02*
X52117Y-32185D01*
X51821Y-32500D02*
X52117Y-32500D01*
X51821Y-32736D02*
X52117Y-32736D01*
G54D18*
X66563Y-26570D02*
X66563Y-26670D01*
X65563Y-26570D02*
X65563Y-26670D01*
X65563Y-29420D02*
X65563Y-29570D01*
X66563Y-29570D02*
X66563Y-29420D01*
X65563Y-29570D02*
G75*
G03X65613Y-29620I50J0D01*
G74*
G01*
X66513Y-29620D02*
G75*
G03X66563Y-29570I0J50D01*
G74*
G01*
X65613Y-26520D02*
G75*
G03X65563Y-26570I0J-50D01*
G74*
G01*
X66563Y-26570D02*
G75*
G03X66513Y-26520I-50J0D01*
G74*
G01*
X66863Y-26670D02*
X66863Y-26420D01*
X65263Y-26420D02*
X65263Y-26670D01*
X65263Y-29420D02*
X65263Y-29720D01*
X65263Y-29720D02*
G75*
G03X65613Y-30070I350J0D01*
G74*
G01*
X65613Y-26070D02*
G75*
G03X65263Y-26420I0J-350D01*
G74*
G01*
X66513Y-30070D02*
G75*
G03X66863Y-29720I0J350D01*
G74*
G01*
X66863Y-29420D02*
X66863Y-29720D01*
X66513Y-30070D02*
G75*
G03X66863Y-29720I0J350D01*
G74*
G01*
X66863Y-26420D02*
G75*
G03X66513Y-26070I-350J0D01*
G74*
G01*
G54D10*
X65113Y-30220D02*
G75*
G03X65213Y-30320I100J0D01*
G74*
G01*
X66913Y-30320D02*
G75*
G03X67013Y-30220I0J100D01*
G74*
G01*
X65213Y-25820D02*
G75*
G03X65113Y-25920I0J-100D01*
G74*
G01*
X67013Y-25920D02*
G75*
G03X66913Y-25820I-100J0D01*
G74*
G01*
X67013Y-30220D02*
X67013Y-25920D01*
X65113Y-30220D02*
X65113Y-25920D01*
X66513Y-30320D02*
X66913Y-30320D01*
X65613Y-30320D02*
X65213Y-30320D01*
X66513Y-25820D02*
X66913Y-25820D01*
X65613Y-25820D02*
X65213Y-25820D01*
G54D18*
X66863Y-29420D02*
X66863Y-26670D01*
X65263Y-26770D02*
X65263Y-29420D01*
X65263Y-26670D02*
X65263Y-26770D01*
X66563Y-29420D02*
X66563Y-26670D01*
X65563Y-26670D02*
X65563Y-29420D01*
X66063Y-27820D02*
X66063Y-27620D01*
X66063Y-28320D02*
X66063Y-28520D01*
G54D10*
X66313Y-27820D02*
X65813Y-27820D01*
X66313Y-28320D02*
X65813Y-28320D01*
X66313Y-27970D02*
X66313Y-28170D01*
X66313Y-28170D02*
X65813Y-28170D01*
X65813Y-28170D02*
X65813Y-27970D01*
X65813Y-27970D02*
X66313Y-27970D01*
G54D17*
X41565Y-44609D02*
G75*
G03X41665Y-44509I0J100D01*
G74*
G01*
X42665Y-44509D02*
G75*
G03X42765Y-44609I100J0D01*
G74*
G01*
X42765Y-46809D02*
G75*
G03X42665Y-46909I0J-100D01*
G74*
G01*
X41665Y-46909D02*
G75*
G03X41565Y-46809I-100J0D01*
G74*
G01*
X41565Y-44609D02*
X41565Y-44659D01*
X41665Y-44509D02*
X41715Y-44509D01*
X42665Y-44509D02*
X42615Y-44509D01*
X42765Y-44609D02*
X42765Y-44659D01*
X42765Y-46809D02*
X42765Y-46759D01*
X42665Y-46909D02*
X42615Y-46909D01*
X41665Y-46909D02*
X41715Y-46909D01*
X41565Y-46809D02*
X41565Y-46759D01*
X41715Y-46909D02*
X42615Y-46909D01*
X42765Y-44659D02*
X42765Y-46759D01*
X41715Y-44509D02*
X42615Y-44509D01*
X41565Y-46759D02*
X41565Y-44659D01*
X59220Y-50114D02*
X59023Y-49917D01*
X59220Y-50114D02*
X59259Y-50114D01*
X59495Y-50114D02*
X59259Y-50114D01*
X59023Y-49641D02*
X59023Y-49917D01*
X59495Y-50114D02*
X59850Y-50114D01*
X59023Y-49326D02*
X59023Y-49641D01*
X61188Y-50114D02*
X62015Y-50114D01*
X62015Y-50114D02*
X62015Y-49326D01*
X59850Y-37791D02*
X59023Y-37791D01*
X59023Y-37791D02*
X59023Y-38578D01*
X61188Y-37791D02*
X62015Y-37791D01*
X62015Y-37791D02*
X62015Y-38578D01*
X71536Y-29664D02*
X71102Y-29664D01*
X71536Y-29625D02*
X71102Y-29625D01*
X71555Y-29703D02*
X71555Y-29566D01*
X71083Y-29703D02*
X71083Y-29585D01*
X71555Y-29703D02*
X71083Y-29703D01*
X71555Y-28759D02*
X71555Y-29585D01*
X71555Y-29585D02*
X71083Y-29585D01*
X71083Y-29585D02*
X71083Y-28759D01*
X71083Y-28759D02*
X71555Y-28759D01*
X49941Y-52774D02*
X49507Y-52774D01*
X49941Y-52735D02*
X49507Y-52735D01*
X49960Y-52813D02*
X49960Y-52676D01*
X49488Y-52813D02*
X49488Y-52695D01*
X49960Y-52813D02*
X49488Y-52813D01*
X49960Y-51869D02*
X49960Y-52695D01*
X49960Y-52695D02*
X49488Y-52695D01*
X49488Y-52695D02*
X49488Y-51869D01*
X49488Y-51869D02*
X49960Y-51869D01*
X43976Y-53504D02*
X43976Y-53544D01*
X43976Y-53544D02*
X46968Y-53544D01*
X46968Y-53544D02*
X46968Y-53504D01*
X46968Y-53465D02*
X46968Y-53504D01*
X46968Y-51811D02*
X46574Y-51811D01*
X46574Y-51811D02*
X46574Y-52835D01*
X46574Y-52835D02*
X46968Y-52835D01*
X46968Y-52835D02*
X46968Y-53465D01*
X46338Y-50040D02*
X46496Y-50040D01*
X46496Y-50040D02*
X46496Y-50748D01*
X46496Y-50748D02*
X46968Y-50748D01*
X46968Y-50748D02*
X46968Y-51811D01*
X44409Y-50748D02*
X44409Y-50040D01*
X44409Y-50040D02*
X44645Y-50040D01*
X43976Y-53504D02*
X43976Y-52835D01*
X43976Y-52835D02*
X44370Y-52835D01*
X44370Y-52835D02*
X44370Y-51811D01*
X44370Y-51811D02*
X43976Y-51811D01*
X43976Y-51811D02*
X43976Y-50748D01*
X43976Y-50748D02*
X44409Y-50748D01*
X43996Y-53055D02*
X44603Y-53055D01*
X44741Y-52917D02*
X44741Y-52900D01*
X44741Y-52900D02*
X44808Y-51454D01*
X44692Y-51449D02*
X44603Y-52784D01*
X44410Y-52779D02*
X44322Y-51438D01*
X44272Y-51393D02*
X43996Y-51393D01*
X45045Y-51410D02*
X44962Y-52994D01*
X45067Y-53000D02*
X45133Y-51774D01*
X45304Y-51603D02*
X45651Y-51603D01*
X45817Y-51769D02*
X45817Y-51796D01*
X45817Y-51796D02*
X45872Y-52994D01*
X45982Y-52994D02*
X45899Y-51421D01*
X45756Y-51278D02*
X45177Y-51278D01*
X46948Y-53055D02*
X46341Y-53055D01*
X46203Y-52917D02*
X46203Y-52900D01*
X46203Y-52900D02*
X46137Y-51454D01*
X46253Y-51449D02*
X46341Y-52784D01*
X46534Y-52779D02*
X46622Y-51438D01*
X46672Y-51393D02*
X46948Y-51393D01*
X44603Y-53055D02*
G75*
G03X44741Y-52917I0J138D01*
G74*
G01*
X44808Y-51453D02*
G75*
G03X44692Y-51449I-58J2D01*
G74*
G01*
X44411Y-52779D02*
G75*
G03X44603Y-52784I96J1D01*
G74*
G01*
X44323Y-51437D02*
G75*
G03X44272Y-51393I-48J-4D01*
G74*
G01*
X45177Y-51278D02*
G75*
G03X45045Y-51410I0J-132D01*
G74*
G01*
X44963Y-52994D02*
G75*
G03X45067Y-53000I52J-3D01*
G74*
G01*
X45304Y-51603D02*
G75*
G03X45133Y-51774I0J-171D01*
G74*
G01*
X45817Y-51769D02*
G75*
G03X45651Y-51603I-166J0D01*
G74*
G01*
X45872Y-52993D02*
G75*
G03X45982Y-52994I55J2D01*
G74*
G01*
X45899Y-51421D02*
G75*
G03X45756Y-51278I-143J0D01*
G74*
G01*
X46203Y-52917D02*
G75*
G03X46341Y-53055I138J0D01*
G74*
G01*
X46253Y-51448D02*
G75*
G03X46137Y-51454I-58J-3D01*
G74*
G01*
X46340Y-52784D02*
G75*
G03X46534Y-52779I97J6D01*
G74*
G01*
X46672Y-51393D02*
G75*
G03X46622Y-51438I-2J-48D01*
G74*
G01*
G54D15*
X69646Y-28542D02*
X69646Y-30038D01*
X69646Y-30038D02*
X69252Y-30038D01*
X68858Y-28542D02*
X68622Y-28542D01*
X68228Y-30038D02*
X67874Y-30038D01*
X67874Y-30038D02*
X67834Y-30038D01*
X67834Y-30038D02*
X67834Y-28542D01*
G54D17*
X68295Y-33644D02*
X68571Y-33644D01*
X68571Y-33644D02*
X68571Y-33762D01*
X68295Y-33644D02*
X68019Y-33644D01*
X68019Y-33644D02*
X68019Y-33762D01*
X69515Y-31321D02*
X69515Y-30928D01*
X69515Y-30928D02*
X67075Y-30928D01*
X67075Y-30928D02*
X67075Y-33762D01*
X67075Y-33762D02*
X69515Y-33762D01*
X69515Y-33762D02*
X69515Y-31321D01*
G54D19*
X51347Y-47775D02*
X50127Y-47775D01*
X51347Y-50295D02*
X51347Y-50453D01*
X51347Y-50453D02*
X50127Y-50453D01*
X50127Y-50453D02*
X50127Y-47775D01*
X51347Y-50295D02*
X51347Y-47775D01*
X73748Y-30116D02*
X72528Y-30116D01*
X73748Y-32636D02*
X73748Y-32794D01*
X73748Y-32794D02*
X72528Y-32794D01*
X72528Y-32794D02*
X72528Y-30116D01*
X73748Y-32636D02*
X73748Y-30116D01*
G54D17*
X46388Y-31742D02*
X48081Y-31742D01*
X46388Y-33848D02*
X48081Y-33848D01*
X46388Y-31742D02*
X46388Y-33848D01*
X48081Y-33848D02*
X48081Y-31742D01*
X46659Y-32041D02*
G75*
G03X46659Y-32041I-24J0D01*
G74*
G01*
X46707Y-32041D02*
G75*
G03X46707Y-32041I-72J0D01*
G74*
G01*
G54D10*
X46723Y-32046D02*
G75*
G03X46723Y-32046I-89J0D01*
G74*
G01*
X46723Y-32046D02*
G75*
G03X46723Y-32046I-89J0D01*
G74*
G01*
G54D20*
X52312Y-26207D02*
X52191Y-26207D01*
G54D21*
X52332Y-25968D02*
X52191Y-25968D01*
X52332Y-25210D02*
X52191Y-25210D01*
G54D20*
X52312Y-24971D02*
X52191Y-24971D01*
G54D22*
X52310Y-25089D02*
X54562Y-25089D01*
X52311Y-26089D02*
X54562Y-26089D01*
G54D10*
X52182Y-25589D02*
X51182Y-25589D01*
X51182Y-24589D02*
X51182Y-26589D01*
X51182Y-26589D02*
X52182Y-26589D01*
X52182Y-26589D02*
X52182Y-24589D01*
X52182Y-24589D02*
X51182Y-24589D01*
X57546Y-49640D02*
X58018Y-49640D01*
X57282Y-50390D02*
X57282Y-49890D01*
X57282Y-49890D02*
X57532Y-49640D01*
X57532Y-49640D02*
X57282Y-49390D01*
X57282Y-49390D02*
X57282Y-48890D01*
X57282Y-48890D02*
X57532Y-48640D01*
X57532Y-48640D02*
X58032Y-48640D01*
X58032Y-48640D02*
X58282Y-48890D01*
X58282Y-48890D02*
X58282Y-49390D01*
X58282Y-49390D02*
X58032Y-49640D01*
X58032Y-49640D02*
X58282Y-49890D01*
X58282Y-49890D02*
X58282Y-50390D01*
X58282Y-50390D02*
X58032Y-50640D01*
X58032Y-50640D02*
X57532Y-50640D01*
X57532Y-50640D02*
X57282Y-50390D01*
X57546Y-51885D02*
X58018Y-51885D01*
X57282Y-52635D02*
X57282Y-52135D01*
X57282Y-52135D02*
X57532Y-51885D01*
X57532Y-51885D02*
X57282Y-51635D01*
X57282Y-51635D02*
X57282Y-51135D01*
X57282Y-51135D02*
X57532Y-50885D01*
X57532Y-50885D02*
X58032Y-50885D01*
X58032Y-50885D02*
X58282Y-51135D01*
X58282Y-51135D02*
X58282Y-51635D01*
X58282Y-51635D02*
X58032Y-51885D01*
X58032Y-51885D02*
X58282Y-52135D01*
X58282Y-52135D02*
X58282Y-52635D01*
X58282Y-52635D02*
X58032Y-52885D01*
X58032Y-52885D02*
X57532Y-52885D01*
X57532Y-52885D02*
X57282Y-52635D01*
X74566Y-26774D02*
X74094Y-26774D01*
X74830Y-26024D02*
X74830Y-26524D01*
X74830Y-26524D02*
X74580Y-26774D01*
X74580Y-26774D02*
X74830Y-27024D01*
X74830Y-27024D02*
X74830Y-27524D01*
X74830Y-27524D02*
X74580Y-27774D01*
X74580Y-27774D02*
X74080Y-27774D01*
X74080Y-27774D02*
X73830Y-27524D01*
X73830Y-27524D02*
X73830Y-27024D01*
X73830Y-27024D02*
X74080Y-26774D01*
X74080Y-26774D02*
X73830Y-26524D01*
X73830Y-26524D02*
X73830Y-26024D01*
X73830Y-26024D02*
X74080Y-25774D01*
X74080Y-25774D02*
X74580Y-25774D01*
X74580Y-25774D02*
X74830Y-26024D01*
X66995Y-24881D02*
X66995Y-24291D01*
X66995Y-24252D02*
X66995Y-22752D01*
X67995Y-23502D02*
X67995Y-22752D01*
X67995Y-22752D02*
X67745Y-22502D01*
X67745Y-22502D02*
X67245Y-22502D01*
X67995Y-23502D02*
X67995Y-24252D01*
X67995Y-24252D02*
X67745Y-24502D01*
X67745Y-24502D02*
X67245Y-24502D01*
X67245Y-24502D02*
X66995Y-24252D01*
X66995Y-24252D02*
X66745Y-24502D01*
X66745Y-24502D02*
X66245Y-24502D01*
X66245Y-24502D02*
X65995Y-24252D01*
X65995Y-24252D02*
X65995Y-22752D01*
X65995Y-22752D02*
X66245Y-22502D01*
X66245Y-22502D02*
X66745Y-22502D01*
X66745Y-22502D02*
X66995Y-22752D01*
X66995Y-22752D02*
X67245Y-22502D01*
G54D12*
X71106Y-22913D02*
X71106Y-22834D01*
X71894Y-22913D02*
X71894Y-22834D01*
X71894Y-22854D02*
G75*
G03X71500Y-22460I-394J0D01*
G74*
G01*
X71500Y-22460D02*
G75*
G03X71106Y-22854I0J-394D01*
G74*
G01*
X72189Y-25610D02*
X70811Y-25610D01*
X70220Y-25610D02*
X70417Y-25610D01*
X72780Y-25610D02*
X72583Y-25610D01*
X70220Y-24429D02*
X70220Y-24823D01*
X70220Y-23642D02*
X70220Y-24035D01*
X70220Y-22854D02*
X70220Y-23248D01*
X70220Y-22067D02*
X70220Y-22460D01*
X72780Y-22067D02*
X72780Y-22460D01*
X72780Y-23248D02*
X72780Y-22854D01*
X72780Y-24034D02*
X72780Y-23641D01*
X72780Y-24822D02*
X72780Y-24428D01*
X70220Y-25610D02*
X70220Y-25216D01*
X72780Y-25610D02*
X72780Y-25216D01*
X73272Y-23445D02*
X69728Y-23445D01*
X69728Y-25315D02*
X69728Y-25118D01*
X69728Y-22067D02*
X69728Y-25118D01*
X73272Y-22067D02*
X69728Y-22067D01*
X73272Y-23445D02*
X73272Y-22067D01*
X73272Y-26791D02*
X73272Y-23445D01*
X73075Y-27382D02*
X73075Y-23445D01*
X70417Y-26791D02*
X73272Y-26791D01*
X72484Y-27579D02*
X73075Y-27579D01*
X73075Y-27579D02*
X73075Y-27382D01*
X73075Y-27382D02*
X72484Y-27382D01*
X70516Y-27382D02*
X69925Y-27382D01*
X69925Y-27382D02*
X69925Y-27579D01*
X69925Y-27579D02*
X70516Y-27579D01*
G54D17*
X77056Y-23764D02*
G75*
G03X77056Y-23764I-1339J0D01*
G74*
G01*
X76386Y-23764D02*
G75*
G03X76386Y-23764I-669J0D01*
G74*
G01*
X77056Y-36079D02*
G75*
G03X77056Y-36079I-1339J0D01*
G74*
G01*
X76386Y-36079D02*
G75*
G03X76386Y-36079I-669J0D01*
G74*
G01*
G54D19*
X57047Y-27283D02*
X57047Y-47382D01*
X57047Y-47382D02*
X57008Y-47382D01*
X54941Y-27283D02*
X54941Y-47382D01*
X57047Y-27283D02*
X54941Y-27283D01*
X57027Y-47382D02*
X54941Y-47382D01*
X40000Y-27283D02*
X37893Y-27283D01*
X37893Y-47362D02*
X37893Y-27283D01*
X39999Y-27283D02*
X39999Y-47363D01*
X37892Y-47363D02*
X39980Y-47363D01*
X40695Y-52030D02*
X40695Y-52530D01*
X40695Y-52530D02*
X42695Y-52530D01*
X42695Y-52530D02*
X42695Y-51530D01*
X42695Y-51530D02*
X40695Y-51530D01*
X40695Y-51530D02*
X40695Y-52030D01*
X44823Y-45629D02*
X47736Y-45629D01*
X47736Y-45629D02*
X47736Y-45236D01*
X44272Y-45314D02*
X44587Y-45629D01*
X44823Y-45629D02*
X44587Y-45629D01*
X47736Y-45236D02*
X47736Y-42165D01*
X47736Y-42165D02*
X44272Y-42165D01*
X44272Y-42165D02*
X44272Y-45314D01*
G54D17*
X77056Y-51827D02*
G75*
G03X77056Y-51827I-1339J0D01*
G74*
G01*
X76386Y-51827D02*
G75*
G03X76386Y-51827I-669J0D01*
G74*
G01*
X40512Y-51831D02*
G75*
G03X40512Y-51831I-1339J0D01*
G74*
G01*
X39842Y-51831D02*
G75*
G03X39842Y-51831I-669J0D01*
G74*
G01*
X40516Y-23760D02*
G75*
G03X40516Y-23760I-1339J0D01*
G74*
G01*
X39846Y-23760D02*
G75*
G03X39846Y-23760I-669J0D01*
G74*
G01*
G54D10*
X63633Y-30565D02*
G75*
G03X63633Y-30565I-39J0D01*
G74*
G01*
X63695Y-30667D02*
X63495Y-30667D01*
X63695Y-30667D02*
X63695Y-30463D01*
X62125Y-30667D02*
X62125Y-30463D01*
X62125Y-30667D02*
X62329Y-30667D01*
X62129Y-29093D02*
X62329Y-29093D01*
X62129Y-29093D02*
X62129Y-29297D01*
X63695Y-29297D02*
X63695Y-29097D01*
X63695Y-29097D02*
X63499Y-29097D01*
G54D23*
X63696Y-30860D02*
X61932Y-30860D01*
X63892Y-30664D02*
X63892Y-28900D01*
X63892Y-30664D02*
X63696Y-30860D01*
X61932Y-28900D02*
X63892Y-28900D01*
X61932Y-30860D02*
X61932Y-28900D01*
G54D10*
X64923Y-30818D02*
X64923Y-31230D01*
X64999Y-31230D01*
X64999Y-30818D01*
X64923Y-30818D01*
X60705Y-49149D02*
G75*
G03X60705Y-49149I-186J0D01*
G74*
G01*
X60725Y-38755D02*
G75*
G03X60725Y-38755I-206J0D01*
G74*
G01*
G54D11*
X75408Y-29613D02*
X75393Y-29626D01*
X75348Y-29639D01*
X75318Y-29639D01*
X75274Y-29626D01*
X75244Y-29600D01*
X75229Y-29573D01*
X75214Y-29521D01*
X75214Y-29482D01*
X75229Y-29429D01*
X75244Y-29403D01*
X75274Y-29377D01*
X75318Y-29364D01*
X75348Y-29364D01*
X75393Y-29377D01*
X75408Y-29390D01*
X75513Y-29364D02*
X75707Y-29364D01*
X75603Y-29469D01*
X75647Y-29469D01*
X75677Y-29482D01*
X75692Y-29495D01*
X75707Y-29521D01*
X75707Y-29586D01*
X75692Y-29613D01*
X75677Y-29626D01*
X75647Y-29639D01*
X75558Y-29639D01*
X75528Y-29626D01*
X75513Y-29613D01*
X76006Y-29639D02*
X75827Y-29639D01*
X75917Y-29639D02*
X75917Y-29364D01*
X75887Y-29403D01*
X75857Y-29429D01*
X75827Y-29442D01*
X75389Y-28550D02*
X75374Y-28563D01*
X75329Y-28576D01*
X75299Y-28576D01*
X75255Y-28563D01*
X75225Y-28537D01*
X75210Y-28510D01*
X75195Y-28458D01*
X75195Y-28419D01*
X75210Y-28366D01*
X75225Y-28340D01*
X75255Y-28314D01*
X75299Y-28301D01*
X75329Y-28301D01*
X75374Y-28314D01*
X75389Y-28327D01*
X75494Y-28301D02*
X75688Y-28301D01*
X75584Y-28406D01*
X75628Y-28406D01*
X75658Y-28419D01*
X75673Y-28432D01*
X75688Y-28458D01*
X75688Y-28523D01*
X75673Y-28550D01*
X75658Y-28563D01*
X75628Y-28576D01*
X75539Y-28576D01*
X75509Y-28563D01*
X75494Y-28550D01*
X75883Y-28301D02*
X75912Y-28301D01*
X75942Y-28314D01*
X75957Y-28327D01*
X75972Y-28353D01*
X75987Y-28406D01*
X75987Y-28471D01*
X75972Y-28523D01*
X75957Y-28550D01*
X75942Y-28563D01*
X75912Y-28576D01*
X75883Y-28576D01*
X75853Y-28563D01*
X75838Y-28550D01*
X75823Y-28523D01*
X75808Y-28471D01*
X75808Y-28406D01*
X75823Y-28353D01*
X75838Y-28327D01*
X75853Y-28314D01*
X75883Y-28301D01*
X55684Y-49298D02*
X55669Y-49311D01*
X55624Y-49324D01*
X55594Y-49324D01*
X55550Y-49311D01*
X55520Y-49285D01*
X55505Y-49258D01*
X55490Y-49206D01*
X55490Y-49167D01*
X55505Y-49114D01*
X55520Y-49088D01*
X55550Y-49062D01*
X55594Y-49049D01*
X55624Y-49049D01*
X55669Y-49062D01*
X55684Y-49075D01*
X55983Y-49324D02*
X55804Y-49324D01*
X55894Y-49324D02*
X55894Y-49049D01*
X55864Y-49088D01*
X55834Y-49114D01*
X55804Y-49127D01*
X56252Y-49049D02*
X56193Y-49049D01*
X56163Y-49062D01*
X56148Y-49075D01*
X56118Y-49114D01*
X56103Y-49167D01*
X56103Y-49271D01*
X56118Y-49298D01*
X56133Y-49311D01*
X56163Y-49324D01*
X56222Y-49324D01*
X56252Y-49311D01*
X56267Y-49298D01*
X56282Y-49271D01*
X56282Y-49206D01*
X56267Y-49180D01*
X56252Y-49167D01*
X56222Y-49154D01*
X56163Y-49154D01*
X56133Y-49167D01*
X56118Y-49180D01*
X56103Y-49206D01*
X55684Y-50380D02*
X55669Y-50393D01*
X55624Y-50406D01*
X55594Y-50406D01*
X55550Y-50393D01*
X55520Y-50367D01*
X55505Y-50340D01*
X55490Y-50288D01*
X55490Y-50249D01*
X55505Y-50196D01*
X55520Y-50170D01*
X55550Y-50144D01*
X55594Y-50131D01*
X55624Y-50131D01*
X55669Y-50144D01*
X55684Y-50157D01*
X55983Y-50406D02*
X55804Y-50406D01*
X55894Y-50406D02*
X55894Y-50131D01*
X55864Y-50170D01*
X55834Y-50196D01*
X55804Y-50209D01*
X56267Y-50131D02*
X56118Y-50131D01*
X56103Y-50262D01*
X56118Y-50249D01*
X56148Y-50236D01*
X56222Y-50236D01*
X56252Y-50249D01*
X56267Y-50262D01*
X56282Y-50288D01*
X56282Y-50353D01*
X56267Y-50380D01*
X56252Y-50393D01*
X56222Y-50406D01*
X56148Y-50406D01*
X56118Y-50393D01*
X56103Y-50380D01*
X47259Y-49061D02*
X47244Y-49074D01*
X47199Y-49087D01*
X47169Y-49087D01*
X47125Y-49074D01*
X47095Y-49048D01*
X47080Y-49021D01*
X47065Y-48969D01*
X47065Y-48930D01*
X47080Y-48877D01*
X47095Y-48851D01*
X47125Y-48825D01*
X47169Y-48812D01*
X47199Y-48812D01*
X47244Y-48825D01*
X47259Y-48838D01*
X47558Y-49087D02*
X47379Y-49087D01*
X47469Y-49087D02*
X47469Y-48812D01*
X47439Y-48851D01*
X47409Y-48877D01*
X47379Y-48890D01*
X47827Y-48903D02*
X47827Y-49087D01*
X47753Y-48799D02*
X47678Y-48995D01*
X47872Y-48995D01*
X65194Y-31312D02*
X65194Y-31534D01*
X65209Y-31561D01*
X65224Y-31574D01*
X65254Y-31587D01*
X65313Y-31587D01*
X65343Y-31574D01*
X65358Y-31561D01*
X65373Y-31534D01*
X65373Y-31312D01*
X65657Y-31312D02*
X65598Y-31312D01*
X65568Y-31325D01*
X65553Y-31338D01*
X65523Y-31377D01*
X65508Y-31430D01*
X65508Y-31534D01*
X65523Y-31561D01*
X65538Y-31574D01*
X65568Y-31587D01*
X65627Y-31587D01*
X65657Y-31574D01*
X65672Y-31561D01*
X65687Y-31534D01*
X65687Y-31469D01*
X65672Y-31443D01*
X65657Y-31430D01*
X65627Y-31417D01*
X65568Y-31417D01*
X65538Y-31430D01*
X65523Y-31443D01*
X65508Y-31469D01*
X59584Y-34088D02*
X59584Y-34310D01*
X59599Y-34337D01*
X59614Y-34350D01*
X59644Y-34363D01*
X59703Y-34363D01*
X59733Y-34350D01*
X59748Y-34337D01*
X59763Y-34310D01*
X59763Y-34088D01*
X60047Y-34179D02*
X60047Y-34363D01*
X59973Y-34075D02*
X59898Y-34271D01*
X60092Y-34271D01*
X60883Y-34088D02*
X60883Y-34310D01*
X60898Y-34337D01*
X60913Y-34350D01*
X60943Y-34363D01*
X61002Y-34363D01*
X61032Y-34350D01*
X61047Y-34337D01*
X61062Y-34310D01*
X61062Y-34088D01*
X61361Y-34088D02*
X61212Y-34088D01*
X61197Y-34219D01*
X61212Y-34206D01*
X61242Y-34193D01*
X61316Y-34193D01*
X61346Y-34206D01*
X61361Y-34219D01*
X61376Y-34245D01*
X61376Y-34310D01*
X61361Y-34337D01*
X61346Y-34350D01*
X61316Y-34363D01*
X61242Y-34363D01*
X61212Y-34350D01*
X61197Y-34337D01*
X60647Y-25427D02*
X60647Y-25649D01*
X60662Y-25676D01*
X60677Y-25689D01*
X60707Y-25702D01*
X60766Y-25702D01*
X60796Y-25689D01*
X60811Y-25676D01*
X60826Y-25649D01*
X60826Y-25427D01*
X60946Y-25427D02*
X61155Y-25427D01*
X61021Y-25702D01*
X46808Y-25899D02*
X46808Y-26121D01*
X46823Y-26148D01*
X46838Y-26161D01*
X46868Y-26174D01*
X46927Y-26174D01*
X46957Y-26161D01*
X46972Y-26148D01*
X46987Y-26121D01*
X46987Y-25899D01*
X47107Y-25899D02*
X47301Y-25899D01*
X47197Y-26004D01*
X47241Y-26004D01*
X47271Y-26017D01*
X47286Y-26030D01*
X47301Y-26056D01*
X47301Y-26121D01*
X47286Y-26148D01*
X47271Y-26161D01*
X47241Y-26174D01*
X47152Y-26174D01*
X47122Y-26161D01*
X47107Y-26148D01*
X53491Y-48713D02*
X53387Y-48582D01*
X53312Y-48713D02*
X53312Y-48438D01*
X53431Y-48438D01*
X53461Y-48451D01*
X53476Y-48464D01*
X53491Y-48490D01*
X53491Y-48529D01*
X53476Y-48556D01*
X53461Y-48569D01*
X53431Y-48582D01*
X53312Y-48582D01*
X53641Y-48713D02*
X53701Y-48713D01*
X53730Y-48700D01*
X53745Y-48687D01*
X53775Y-48647D01*
X53790Y-48595D01*
X53790Y-48490D01*
X53775Y-48464D01*
X53760Y-48451D01*
X53730Y-48438D01*
X53671Y-48438D01*
X53641Y-48451D01*
X53626Y-48464D01*
X53611Y-48490D01*
X53611Y-48556D01*
X53626Y-48582D01*
X53641Y-48595D01*
X53671Y-48608D01*
X53730Y-48608D01*
X53760Y-48595D01*
X53775Y-48582D01*
X53790Y-48556D01*
X73125Y-28300D02*
X73021Y-28169D01*
X72946Y-28300D02*
X72946Y-28025D01*
X73065Y-28025D01*
X73095Y-28038D01*
X73110Y-28051D01*
X73125Y-28077D01*
X73125Y-28116D01*
X73110Y-28143D01*
X73095Y-28156D01*
X73065Y-28169D01*
X72946Y-28169D01*
X73230Y-28025D02*
X73424Y-28025D01*
X73320Y-28130D01*
X73364Y-28130D01*
X73394Y-28143D01*
X73409Y-28156D01*
X73424Y-28182D01*
X73424Y-28247D01*
X73409Y-28274D01*
X73394Y-28287D01*
X73364Y-28300D01*
X73275Y-28300D01*
X73245Y-28287D01*
X73230Y-28274D01*
X73693Y-28025D02*
X73634Y-28025D01*
X73604Y-28038D01*
X73589Y-28051D01*
X73559Y-28090D01*
X73544Y-28143D01*
X73544Y-28247D01*
X73559Y-28274D01*
X73574Y-28287D01*
X73604Y-28300D01*
X73663Y-28300D01*
X73693Y-28287D01*
X73708Y-28274D01*
X73723Y-28247D01*
X73723Y-28182D01*
X73708Y-28156D01*
X73693Y-28143D01*
X73663Y-28130D01*
X73604Y-28130D01*
X73574Y-28143D01*
X73559Y-28156D01*
X73544Y-28182D01*
X64424Y-30091D02*
X64320Y-29960D01*
X64245Y-30091D02*
X64245Y-29816D01*
X64364Y-29816D01*
X64394Y-29829D01*
X64409Y-29842D01*
X64424Y-29868D01*
X64424Y-29907D01*
X64409Y-29934D01*
X64394Y-29947D01*
X64364Y-29960D01*
X64245Y-29960D01*
X64723Y-30091D02*
X64544Y-30091D01*
X64634Y-30091D02*
X64634Y-29816D01*
X64604Y-29855D01*
X64574Y-29881D01*
X64544Y-29894D01*
X64828Y-29816D02*
X65037Y-29816D01*
X64903Y-30091D01*
X68814Y-24086D02*
X68710Y-23955D01*
X68635Y-24086D02*
X68635Y-23811D01*
X68754Y-23811D01*
X68784Y-23824D01*
X68799Y-23837D01*
X68814Y-23863D01*
X68814Y-23902D01*
X68799Y-23929D01*
X68784Y-23942D01*
X68754Y-23955D01*
X68635Y-23955D01*
X69113Y-24086D02*
X68934Y-24086D01*
X69024Y-24086D02*
X69024Y-23811D01*
X68994Y-23850D01*
X68964Y-23876D01*
X68934Y-23889D01*
X69263Y-24086D02*
X69323Y-24086D01*
X69352Y-24073D01*
X69367Y-24060D01*
X69397Y-24020D01*
X69412Y-23968D01*
X69412Y-23863D01*
X69397Y-23837D01*
X69382Y-23824D01*
X69352Y-23811D01*
X69293Y-23811D01*
X69263Y-23824D01*
X69248Y-23837D01*
X69233Y-23863D01*
X69233Y-23929D01*
X69248Y-23955D01*
X69263Y-23968D01*
X69293Y-23981D01*
X69352Y-23981D01*
X69382Y-23968D01*
X69397Y-23955D01*
X69412Y-23929D01*
X68696Y-27867D02*
X68592Y-27736D01*
X68517Y-27867D02*
X68517Y-27592D01*
X68636Y-27592D01*
X68666Y-27605D01*
X68681Y-27618D01*
X68696Y-27644D01*
X68696Y-27683D01*
X68681Y-27710D01*
X68666Y-27723D01*
X68636Y-27736D01*
X68517Y-27736D01*
X68816Y-27618D02*
X68831Y-27605D01*
X68861Y-27592D01*
X68935Y-27592D01*
X68965Y-27605D01*
X68980Y-27618D01*
X68995Y-27644D01*
X68995Y-27670D01*
X68980Y-27710D01*
X68801Y-27867D01*
X68995Y-27867D01*
X69190Y-27592D02*
X69219Y-27592D01*
X69249Y-27605D01*
X69264Y-27618D01*
X69279Y-27644D01*
X69294Y-27697D01*
X69294Y-27762D01*
X69279Y-27814D01*
X69264Y-27841D01*
X69249Y-27854D01*
X69219Y-27867D01*
X69190Y-27867D01*
X69160Y-27854D01*
X69145Y-27841D01*
X69130Y-27814D01*
X69115Y-27762D01*
X69115Y-27697D01*
X69130Y-27644D01*
X69145Y-27618D01*
X69160Y-27605D01*
X69190Y-27592D01*
X67908Y-26029D02*
X67893Y-26042D01*
X67848Y-26055D01*
X67818Y-26055D01*
X67774Y-26042D01*
X67744Y-26016D01*
X67729Y-25989D01*
X67714Y-25937D01*
X67714Y-25898D01*
X67729Y-25845D01*
X67744Y-25819D01*
X67774Y-25793D01*
X67818Y-25780D01*
X67848Y-25780D01*
X67893Y-25793D01*
X67908Y-25806D01*
X68028Y-25806D02*
X68043Y-25793D01*
X68073Y-25780D01*
X68147Y-25780D01*
X68177Y-25793D01*
X68192Y-25806D01*
X68207Y-25832D01*
X68207Y-25858D01*
X68192Y-25898D01*
X68013Y-26055D01*
X68207Y-26055D01*
X68491Y-25780D02*
X68342Y-25780D01*
X68327Y-25911D01*
X68342Y-25898D01*
X68372Y-25885D01*
X68446Y-25885D01*
X68476Y-25898D01*
X68491Y-25911D01*
X68506Y-25937D01*
X68506Y-26002D01*
X68491Y-26029D01*
X68476Y-26042D01*
X68446Y-26055D01*
X68372Y-26055D01*
X68342Y-26042D01*
X68327Y-26029D01*
X67948Y-30478D02*
X67933Y-30491D01*
X67888Y-30504D01*
X67858Y-30504D01*
X67814Y-30491D01*
X67784Y-30465D01*
X67769Y-30438D01*
X67754Y-30386D01*
X67754Y-30347D01*
X67769Y-30294D01*
X67784Y-30268D01*
X67814Y-30242D01*
X67858Y-30229D01*
X67888Y-30229D01*
X67933Y-30242D01*
X67948Y-30255D01*
X68068Y-30255D02*
X68083Y-30242D01*
X68113Y-30229D01*
X68187Y-30229D01*
X68217Y-30242D01*
X68232Y-30255D01*
X68247Y-30281D01*
X68247Y-30307D01*
X68232Y-30347D01*
X68053Y-30504D01*
X68247Y-30504D01*
X68516Y-30229D02*
X68457Y-30229D01*
X68427Y-30242D01*
X68412Y-30255D01*
X68382Y-30294D01*
X68367Y-30347D01*
X68367Y-30451D01*
X68382Y-30478D01*
X68397Y-30491D01*
X68427Y-30504D01*
X68486Y-30504D01*
X68516Y-30491D01*
X68531Y-30478D01*
X68546Y-30451D01*
X68546Y-30386D01*
X68531Y-30360D01*
X68516Y-30347D01*
X68486Y-30334D01*
X68427Y-30334D01*
X68397Y-30347D01*
X68382Y-30360D01*
X68367Y-30386D01*
X66018Y-32433D02*
X65914Y-32302D01*
X65839Y-32433D02*
X65839Y-32158D01*
X65958Y-32158D01*
X65988Y-32171D01*
X66003Y-32184D01*
X66018Y-32210D01*
X66018Y-32249D01*
X66003Y-32276D01*
X65988Y-32289D01*
X65958Y-32302D01*
X65839Y-32302D01*
X66317Y-32433D02*
X66138Y-32433D01*
X66228Y-32433D02*
X66228Y-32158D01*
X66198Y-32197D01*
X66168Y-32223D01*
X66138Y-32236D01*
X66586Y-32249D02*
X66586Y-32433D01*
X66512Y-32145D02*
X66437Y-32341D01*
X66631Y-32341D01*
X64798Y-34435D02*
X64783Y-34448D01*
X64738Y-34461D01*
X64708Y-34461D01*
X64664Y-34448D01*
X64634Y-34422D01*
X64619Y-34395D01*
X64604Y-34343D01*
X64604Y-34304D01*
X64619Y-34251D01*
X64634Y-34225D01*
X64664Y-34199D01*
X64708Y-34186D01*
X64738Y-34186D01*
X64783Y-34199D01*
X64798Y-34212D01*
X65097Y-34461D02*
X64918Y-34461D01*
X65008Y-34461D02*
X65008Y-34186D01*
X64978Y-34225D01*
X64948Y-34251D01*
X64918Y-34264D01*
X65277Y-34304D02*
X65247Y-34291D01*
X65232Y-34277D01*
X65217Y-34251D01*
X65217Y-34238D01*
X65232Y-34212D01*
X65247Y-34199D01*
X65277Y-34186D01*
X65336Y-34186D01*
X65366Y-34199D01*
X65381Y-34212D01*
X65396Y-34238D01*
X65396Y-34251D01*
X65381Y-34277D01*
X65366Y-34291D01*
X65336Y-34304D01*
X65277Y-34304D01*
X65247Y-34317D01*
X65232Y-34330D01*
X65217Y-34356D01*
X65217Y-34408D01*
X65232Y-34435D01*
X65247Y-34448D01*
X65277Y-34461D01*
X65336Y-34461D01*
X65366Y-34448D01*
X65381Y-34435D01*
X65396Y-34408D01*
X65396Y-34356D01*
X65381Y-34330D01*
X65366Y-34317D01*
X65336Y-34304D01*
X63538Y-34442D02*
X63434Y-34311D01*
X63359Y-34442D02*
X63359Y-34167D01*
X63478Y-34167D01*
X63508Y-34180D01*
X63523Y-34193D01*
X63538Y-34219D01*
X63538Y-34258D01*
X63523Y-34285D01*
X63508Y-34298D01*
X63478Y-34311D01*
X63359Y-34311D01*
X63837Y-34442D02*
X63658Y-34442D01*
X63748Y-34442D02*
X63748Y-34167D01*
X63718Y-34206D01*
X63688Y-34232D01*
X63658Y-34245D01*
X64121Y-34167D02*
X63972Y-34167D01*
X63957Y-34298D01*
X63972Y-34285D01*
X64002Y-34272D01*
X64076Y-34272D01*
X64106Y-34285D01*
X64121Y-34298D01*
X64136Y-34324D01*
X64136Y-34389D01*
X64121Y-34416D01*
X64106Y-34429D01*
X64076Y-34442D01*
X64002Y-34442D01*
X63972Y-34429D01*
X63957Y-34416D01*
X64759Y-24422D02*
X64655Y-24291D01*
X64580Y-24422D02*
X64580Y-24147D01*
X64699Y-24147D01*
X64729Y-24160D01*
X64744Y-24173D01*
X64759Y-24199D01*
X64759Y-24238D01*
X64744Y-24265D01*
X64729Y-24278D01*
X64699Y-24291D01*
X64580Y-24291D01*
X65058Y-24422D02*
X64879Y-24422D01*
X64969Y-24422D02*
X64969Y-24147D01*
X64939Y-24186D01*
X64909Y-24212D01*
X64879Y-24225D01*
X65238Y-24265D02*
X65208Y-24252D01*
X65193Y-24238D01*
X65178Y-24212D01*
X65178Y-24199D01*
X65193Y-24173D01*
X65208Y-24160D01*
X65238Y-24147D01*
X65297Y-24147D01*
X65327Y-24160D01*
X65342Y-24173D01*
X65357Y-24199D01*
X65357Y-24212D01*
X65342Y-24238D01*
X65327Y-24252D01*
X65297Y-24265D01*
X65238Y-24265D01*
X65208Y-24278D01*
X65193Y-24291D01*
X65178Y-24317D01*
X65178Y-24369D01*
X65193Y-24396D01*
X65208Y-24409D01*
X65238Y-24422D01*
X65297Y-24422D01*
X65327Y-24409D01*
X65342Y-24396D01*
X65357Y-24369D01*
X65357Y-24317D01*
X65342Y-24291D01*
X65327Y-24278D01*
X65297Y-24265D01*
X69837Y-31922D02*
X69733Y-31791D01*
X69658Y-31922D02*
X69658Y-31647D01*
X69777Y-31647D01*
X69807Y-31660D01*
X69822Y-31673D01*
X69837Y-31699D01*
X69837Y-31738D01*
X69822Y-31765D01*
X69807Y-31778D01*
X69777Y-31791D01*
X69658Y-31791D01*
X69942Y-31647D02*
X70136Y-31647D01*
X70032Y-31752D01*
X70076Y-31752D01*
X70106Y-31765D01*
X70121Y-31778D01*
X70136Y-31804D01*
X70136Y-31869D01*
X70121Y-31896D01*
X70106Y-31909D01*
X70076Y-31922D01*
X69987Y-31922D01*
X69957Y-31909D01*
X69942Y-31896D01*
X70420Y-31647D02*
X70271Y-31647D01*
X70256Y-31778D01*
X70271Y-31765D01*
X70301Y-31752D01*
X70375Y-31752D01*
X70405Y-31765D01*
X70420Y-31778D01*
X70435Y-31804D01*
X70435Y-31869D01*
X70420Y-31896D01*
X70405Y-31909D01*
X70375Y-31922D01*
X70301Y-31922D01*
X70271Y-31909D01*
X70256Y-31896D01*
X65845Y-33392D02*
X65830Y-33405D01*
X65785Y-33418D01*
X65755Y-33418D01*
X65711Y-33405D01*
X65681Y-33379D01*
X65666Y-33352D01*
X65651Y-33300D01*
X65651Y-33261D01*
X65666Y-33208D01*
X65681Y-33182D01*
X65711Y-33156D01*
X65755Y-33143D01*
X65785Y-33143D01*
X65830Y-33156D01*
X65845Y-33169D01*
X65965Y-33169D02*
X65980Y-33156D01*
X66010Y-33143D01*
X66084Y-33143D01*
X66114Y-33156D01*
X66129Y-33169D01*
X66144Y-33195D01*
X66144Y-33221D01*
X66129Y-33261D01*
X65950Y-33418D01*
X66144Y-33418D01*
X66324Y-33261D02*
X66294Y-33248D01*
X66279Y-33234D01*
X66264Y-33208D01*
X66264Y-33195D01*
X66279Y-33169D01*
X66294Y-33156D01*
X66324Y-33143D01*
X66383Y-33143D01*
X66413Y-33156D01*
X66428Y-33169D01*
X66443Y-33195D01*
X66443Y-33208D01*
X66428Y-33234D01*
X66413Y-33248D01*
X66383Y-33261D01*
X66324Y-33261D01*
X66294Y-33274D01*
X66279Y-33287D01*
X66264Y-33313D01*
X66264Y-33365D01*
X66279Y-33392D01*
X66294Y-33405D01*
X66324Y-33418D01*
X66383Y-33418D01*
X66413Y-33405D01*
X66428Y-33392D01*
X66443Y-33365D01*
X66443Y-33313D01*
X66428Y-33287D01*
X66413Y-33274D01*
X66383Y-33261D01*
X69641Y-34396D02*
X69626Y-34409D01*
X69581Y-34422D01*
X69551Y-34422D01*
X69507Y-34409D01*
X69477Y-34383D01*
X69462Y-34356D01*
X69447Y-34304D01*
X69447Y-34265D01*
X69462Y-34212D01*
X69477Y-34186D01*
X69507Y-34160D01*
X69551Y-34147D01*
X69581Y-34147D01*
X69626Y-34160D01*
X69641Y-34173D01*
X69761Y-34173D02*
X69776Y-34160D01*
X69806Y-34147D01*
X69880Y-34147D01*
X69910Y-34160D01*
X69925Y-34173D01*
X69940Y-34199D01*
X69940Y-34225D01*
X69925Y-34265D01*
X69746Y-34422D01*
X69940Y-34422D01*
X70045Y-34147D02*
X70254Y-34147D01*
X70120Y-34422D01*
X63263Y-24954D02*
X63159Y-24823D01*
X63084Y-24954D02*
X63084Y-24679D01*
X63203Y-24679D01*
X63233Y-24692D01*
X63248Y-24705D01*
X63263Y-24731D01*
X63263Y-24770D01*
X63248Y-24797D01*
X63233Y-24810D01*
X63203Y-24823D01*
X63084Y-24823D01*
X63562Y-24954D02*
X63383Y-24954D01*
X63473Y-24954D02*
X63473Y-24679D01*
X63443Y-24718D01*
X63413Y-24744D01*
X63383Y-24757D01*
X63831Y-24679D02*
X63772Y-24679D01*
X63742Y-24692D01*
X63727Y-24705D01*
X63697Y-24744D01*
X63682Y-24797D01*
X63682Y-24901D01*
X63697Y-24928D01*
X63712Y-24941D01*
X63742Y-24954D01*
X63801Y-24954D01*
X63831Y-24941D01*
X63846Y-24928D01*
X63861Y-24901D01*
X63861Y-24836D01*
X63846Y-24810D01*
X63831Y-24797D01*
X63801Y-24784D01*
X63742Y-24784D01*
X63712Y-24797D01*
X63697Y-24810D01*
X63682Y-24836D01*
X62396Y-34442D02*
X62292Y-34311D01*
X62217Y-34442D02*
X62217Y-34167D01*
X62336Y-34167D01*
X62366Y-34180D01*
X62381Y-34193D01*
X62396Y-34219D01*
X62396Y-34258D01*
X62381Y-34285D01*
X62366Y-34298D01*
X62336Y-34311D01*
X62217Y-34311D01*
X62516Y-34193D02*
X62531Y-34180D01*
X62561Y-34167D01*
X62635Y-34167D01*
X62665Y-34180D01*
X62680Y-34193D01*
X62695Y-34219D01*
X62695Y-34245D01*
X62680Y-34285D01*
X62501Y-34442D01*
X62695Y-34442D01*
X62979Y-34167D02*
X62830Y-34167D01*
X62815Y-34298D01*
X62830Y-34285D01*
X62860Y-34272D01*
X62934Y-34272D01*
X62964Y-34285D01*
X62979Y-34298D01*
X62994Y-34324D01*
X62994Y-34389D01*
X62979Y-34416D01*
X62964Y-34429D01*
X62934Y-34442D01*
X62860Y-34442D01*
X62830Y-34429D01*
X62815Y-34416D01*
X60822Y-31095D02*
X60718Y-30964D01*
X60643Y-31095D02*
X60643Y-30820D01*
X60762Y-30820D01*
X60792Y-30833D01*
X60807Y-30846D01*
X60822Y-30872D01*
X60822Y-30911D01*
X60807Y-30938D01*
X60792Y-30951D01*
X60762Y-30964D01*
X60643Y-30964D01*
X60942Y-30846D02*
X60957Y-30833D01*
X60987Y-30820D01*
X61061Y-30820D01*
X61091Y-30833D01*
X61106Y-30846D01*
X61121Y-30872D01*
X61121Y-30898D01*
X61106Y-30938D01*
X60927Y-31095D01*
X61121Y-31095D01*
X61390Y-30820D02*
X61331Y-30820D01*
X61301Y-30833D01*
X61286Y-30846D01*
X61256Y-30885D01*
X61241Y-30938D01*
X61241Y-31042D01*
X61256Y-31069D01*
X61271Y-31082D01*
X61301Y-31095D01*
X61360Y-31095D01*
X61390Y-31082D01*
X61405Y-31069D01*
X61420Y-31042D01*
X61420Y-30977D01*
X61405Y-30951D01*
X61390Y-30938D01*
X61360Y-30925D01*
X61301Y-30925D01*
X61271Y-30938D01*
X61256Y-30951D01*
X61241Y-30977D01*
X59404Y-31765D02*
X59300Y-31634D01*
X59225Y-31765D02*
X59225Y-31490D01*
X59344Y-31490D01*
X59374Y-31503D01*
X59389Y-31516D01*
X59404Y-31542D01*
X59404Y-31581D01*
X59389Y-31608D01*
X59374Y-31621D01*
X59344Y-31634D01*
X59225Y-31634D01*
X59524Y-31516D02*
X59539Y-31503D01*
X59569Y-31490D01*
X59643Y-31490D01*
X59673Y-31503D01*
X59688Y-31516D01*
X59703Y-31542D01*
X59703Y-31568D01*
X59688Y-31608D01*
X59509Y-31765D01*
X59703Y-31765D01*
X59883Y-31608D02*
X59853Y-31595D01*
X59838Y-31581D01*
X59823Y-31555D01*
X59823Y-31542D01*
X59838Y-31516D01*
X59853Y-31503D01*
X59883Y-31490D01*
X59942Y-31490D01*
X59972Y-31503D01*
X59987Y-31516D01*
X60002Y-31542D01*
X60002Y-31555D01*
X59987Y-31581D01*
X59972Y-31595D01*
X59942Y-31608D01*
X59883Y-31608D01*
X59853Y-31621D01*
X59838Y-31634D01*
X59823Y-31660D01*
X59823Y-31712D01*
X59838Y-31739D01*
X59853Y-31752D01*
X59883Y-31765D01*
X59942Y-31765D01*
X59972Y-31752D01*
X59987Y-31739D01*
X60002Y-31712D01*
X60002Y-31660D01*
X59987Y-31634D01*
X59972Y-31621D01*
X59942Y-31608D01*
X64759Y-24048D02*
X64655Y-23917D01*
X64580Y-24048D02*
X64580Y-23773D01*
X64699Y-23773D01*
X64729Y-23786D01*
X64744Y-23799D01*
X64759Y-23825D01*
X64759Y-23864D01*
X64744Y-23891D01*
X64729Y-23904D01*
X64699Y-23917D01*
X64580Y-23917D01*
X64879Y-23799D02*
X64894Y-23786D01*
X64924Y-23773D01*
X64998Y-23773D01*
X65028Y-23786D01*
X65043Y-23799D01*
X65058Y-23825D01*
X65058Y-23851D01*
X65043Y-23891D01*
X64864Y-24048D01*
X65058Y-24048D01*
X65357Y-24048D02*
X65178Y-24048D01*
X65268Y-24048D02*
X65268Y-23773D01*
X65238Y-23812D01*
X65208Y-23838D01*
X65178Y-23851D01*
X68853Y-23182D02*
X68749Y-23051D01*
X68674Y-23182D02*
X68674Y-22907D01*
X68793Y-22907D01*
X68823Y-22920D01*
X68838Y-22933D01*
X68853Y-22959D01*
X68853Y-22998D01*
X68838Y-23025D01*
X68823Y-23038D01*
X68793Y-23051D01*
X68674Y-23051D01*
X68973Y-22933D02*
X68988Y-22920D01*
X69018Y-22907D01*
X69092Y-22907D01*
X69122Y-22920D01*
X69137Y-22933D01*
X69152Y-22959D01*
X69152Y-22985D01*
X69137Y-23025D01*
X68958Y-23182D01*
X69152Y-23182D01*
X69272Y-22933D02*
X69287Y-22920D01*
X69317Y-22907D01*
X69391Y-22907D01*
X69421Y-22920D01*
X69436Y-22933D01*
X69451Y-22959D01*
X69451Y-22985D01*
X69436Y-23025D01*
X69257Y-23182D01*
X69451Y-23182D01*
X68696Y-27394D02*
X68592Y-27263D01*
X68517Y-27394D02*
X68517Y-27119D01*
X68636Y-27119D01*
X68666Y-27132D01*
X68681Y-27145D01*
X68696Y-27171D01*
X68696Y-27210D01*
X68681Y-27237D01*
X68666Y-27250D01*
X68636Y-27263D01*
X68517Y-27263D01*
X68816Y-27145D02*
X68831Y-27132D01*
X68861Y-27119D01*
X68935Y-27119D01*
X68965Y-27132D01*
X68980Y-27145D01*
X68995Y-27171D01*
X68995Y-27197D01*
X68980Y-27237D01*
X68801Y-27394D01*
X68995Y-27394D01*
X69100Y-27119D02*
X69294Y-27119D01*
X69190Y-27224D01*
X69234Y-27224D01*
X69264Y-27237D01*
X69279Y-27250D01*
X69294Y-27276D01*
X69294Y-27341D01*
X69279Y-27368D01*
X69264Y-27381D01*
X69234Y-27394D01*
X69145Y-27394D01*
X69115Y-27381D01*
X69100Y-27368D01*
X63361Y-32565D02*
X63346Y-32578D01*
X63301Y-32591D01*
X63271Y-32591D01*
X63227Y-32578D01*
X63197Y-32552D01*
X63182Y-32525D01*
X63167Y-32473D01*
X63167Y-32434D01*
X63182Y-32381D01*
X63197Y-32355D01*
X63227Y-32329D01*
X63271Y-32316D01*
X63301Y-32316D01*
X63346Y-32329D01*
X63361Y-32342D01*
X63660Y-32591D02*
X63481Y-32591D01*
X63571Y-32591D02*
X63571Y-32316D01*
X63541Y-32355D01*
X63511Y-32381D01*
X63481Y-32394D01*
X63810Y-32591D02*
X63870Y-32591D01*
X63899Y-32578D01*
X63914Y-32565D01*
X63944Y-32525D01*
X63959Y-32473D01*
X63959Y-32368D01*
X63944Y-32342D01*
X63929Y-32329D01*
X63899Y-32316D01*
X63840Y-32316D01*
X63810Y-32329D01*
X63795Y-32342D01*
X63780Y-32368D01*
X63780Y-32434D01*
X63795Y-32460D01*
X63810Y-32473D01*
X63840Y-32486D01*
X63899Y-32486D01*
X63929Y-32473D01*
X63944Y-32460D01*
X63959Y-32434D01*
X64089Y-28097D02*
X64074Y-28110D01*
X64029Y-28123D01*
X63999Y-28123D01*
X63955Y-28110D01*
X63925Y-28084D01*
X63910Y-28057D01*
X63895Y-28005D01*
X63895Y-27966D01*
X63910Y-27913D01*
X63925Y-27887D01*
X63955Y-27861D01*
X63999Y-27848D01*
X64029Y-27848D01*
X64074Y-27861D01*
X64089Y-27874D01*
X64209Y-27874D02*
X64224Y-27861D01*
X64254Y-27848D01*
X64328Y-27848D01*
X64358Y-27861D01*
X64373Y-27874D01*
X64388Y-27900D01*
X64388Y-27926D01*
X64373Y-27966D01*
X64194Y-28123D01*
X64388Y-28123D01*
X64583Y-27848D02*
X64612Y-27848D01*
X64642Y-27861D01*
X64657Y-27874D01*
X64672Y-27900D01*
X64687Y-27953D01*
X64687Y-28018D01*
X64672Y-28070D01*
X64657Y-28097D01*
X64642Y-28110D01*
X64612Y-28123D01*
X64583Y-28123D01*
X64553Y-28110D01*
X64538Y-28097D01*
X64523Y-28070D01*
X64508Y-28018D01*
X64508Y-27953D01*
X64523Y-27900D01*
X64538Y-27874D01*
X64553Y-27861D01*
X64583Y-27848D01*
X60428Y-30636D02*
X60413Y-30649D01*
X60368Y-30662D01*
X60338Y-30662D01*
X60294Y-30649D01*
X60264Y-30623D01*
X60249Y-30596D01*
X60234Y-30544D01*
X60234Y-30505D01*
X60249Y-30452D01*
X60264Y-30426D01*
X60294Y-30400D01*
X60338Y-30387D01*
X60368Y-30387D01*
X60413Y-30400D01*
X60428Y-30413D01*
X60548Y-30413D02*
X60563Y-30400D01*
X60593Y-30387D01*
X60667Y-30387D01*
X60697Y-30400D01*
X60712Y-30413D01*
X60727Y-30439D01*
X60727Y-30465D01*
X60712Y-30505D01*
X60533Y-30662D01*
X60727Y-30662D01*
X60847Y-30413D02*
X60862Y-30400D01*
X60892Y-30387D01*
X60966Y-30387D01*
X60996Y-30400D01*
X61011Y-30413D01*
X61026Y-30439D01*
X61026Y-30465D01*
X61011Y-30505D01*
X60832Y-30662D01*
X61026Y-30662D01*
X62377Y-32565D02*
X62362Y-32578D01*
X62317Y-32591D01*
X62287Y-32591D01*
X62243Y-32578D01*
X62213Y-32552D01*
X62198Y-32525D01*
X62183Y-32473D01*
X62183Y-32434D01*
X62198Y-32381D01*
X62213Y-32355D01*
X62243Y-32329D01*
X62287Y-32316D01*
X62317Y-32316D01*
X62362Y-32329D01*
X62377Y-32342D01*
X62497Y-32342D02*
X62512Y-32329D01*
X62542Y-32316D01*
X62616Y-32316D01*
X62646Y-32329D01*
X62661Y-32342D01*
X62676Y-32368D01*
X62676Y-32394D01*
X62661Y-32434D01*
X62482Y-32591D01*
X62676Y-32591D01*
X62975Y-32591D02*
X62796Y-32591D01*
X62886Y-32591D02*
X62886Y-32316D01*
X62856Y-32355D01*
X62826Y-32381D01*
X62796Y-32394D01*
X60428Y-29337D02*
X60413Y-29350D01*
X60368Y-29363D01*
X60338Y-29363D01*
X60294Y-29350D01*
X60264Y-29324D01*
X60249Y-29297D01*
X60234Y-29245D01*
X60234Y-29206D01*
X60249Y-29153D01*
X60264Y-29127D01*
X60294Y-29101D01*
X60338Y-29088D01*
X60368Y-29088D01*
X60413Y-29101D01*
X60428Y-29114D01*
X60548Y-29114D02*
X60563Y-29101D01*
X60593Y-29088D01*
X60667Y-29088D01*
X60697Y-29101D01*
X60712Y-29114D01*
X60727Y-29140D01*
X60727Y-29166D01*
X60712Y-29206D01*
X60533Y-29363D01*
X60727Y-29363D01*
X60832Y-29088D02*
X61026Y-29088D01*
X60922Y-29193D01*
X60966Y-29193D01*
X60996Y-29206D01*
X61011Y-29219D01*
X61026Y-29245D01*
X61026Y-29310D01*
X61011Y-29337D01*
X60996Y-29350D01*
X60966Y-29363D01*
X60877Y-29363D01*
X60847Y-29350D01*
X60832Y-29337D01*
X62770Y-28097D02*
X62755Y-28110D01*
X62710Y-28123D01*
X62680Y-28123D01*
X62636Y-28110D01*
X62606Y-28084D01*
X62591Y-28057D01*
X62576Y-28005D01*
X62576Y-27966D01*
X62591Y-27913D01*
X62606Y-27887D01*
X62636Y-27861D01*
X62680Y-27848D01*
X62710Y-27848D01*
X62755Y-27861D01*
X62770Y-27874D01*
X62890Y-27874D02*
X62905Y-27861D01*
X62935Y-27848D01*
X63009Y-27848D01*
X63039Y-27861D01*
X63054Y-27874D01*
X63069Y-27900D01*
X63069Y-27926D01*
X63054Y-27966D01*
X62875Y-28123D01*
X63069Y-28123D01*
X63338Y-27939D02*
X63338Y-28123D01*
X63264Y-27835D02*
X63189Y-28031D01*
X63383Y-28031D01*
X59089Y-30642D02*
X58985Y-30511D01*
X58910Y-30642D02*
X58910Y-30367D01*
X59029Y-30367D01*
X59059Y-30380D01*
X59074Y-30393D01*
X59089Y-30419D01*
X59089Y-30458D01*
X59074Y-30485D01*
X59059Y-30498D01*
X59029Y-30511D01*
X58910Y-30511D01*
X59194Y-30367D02*
X59388Y-30367D01*
X59284Y-30472D01*
X59328Y-30472D01*
X59358Y-30485D01*
X59373Y-30498D01*
X59388Y-30524D01*
X59388Y-30589D01*
X59373Y-30616D01*
X59358Y-30629D01*
X59328Y-30642D01*
X59239Y-30642D01*
X59209Y-30629D01*
X59194Y-30616D01*
X59493Y-30367D02*
X59687Y-30367D01*
X59583Y-30472D01*
X59627Y-30472D01*
X59657Y-30485D01*
X59672Y-30498D01*
X59687Y-30524D01*
X59687Y-30589D01*
X59672Y-30616D01*
X59657Y-30629D01*
X59627Y-30642D01*
X59538Y-30642D01*
X59508Y-30629D01*
X59493Y-30616D01*
X61550Y-28831D02*
X61446Y-28700D01*
X61371Y-28831D02*
X61371Y-28556D01*
X61490Y-28556D01*
X61520Y-28569D01*
X61535Y-28582D01*
X61550Y-28608D01*
X61550Y-28647D01*
X61535Y-28674D01*
X61520Y-28687D01*
X61490Y-28700D01*
X61371Y-28700D01*
X61655Y-28556D02*
X61849Y-28556D01*
X61745Y-28661D01*
X61789Y-28661D01*
X61819Y-28674D01*
X61834Y-28687D01*
X61849Y-28713D01*
X61849Y-28778D01*
X61834Y-28805D01*
X61819Y-28818D01*
X61789Y-28831D01*
X61700Y-28831D01*
X61670Y-28818D01*
X61655Y-28805D01*
X61969Y-28582D02*
X61984Y-28569D01*
X62014Y-28556D01*
X62088Y-28556D01*
X62118Y-28569D01*
X62133Y-28582D01*
X62148Y-28608D01*
X62148Y-28634D01*
X62133Y-28674D01*
X61954Y-28831D01*
X62148Y-28831D01*
X62908Y-33142D02*
X62804Y-33011D01*
X62729Y-33142D02*
X62729Y-32867D01*
X62848Y-32867D01*
X62878Y-32880D01*
X62893Y-32893D01*
X62908Y-32919D01*
X62908Y-32958D01*
X62893Y-32985D01*
X62878Y-32998D01*
X62848Y-33011D01*
X62729Y-33011D01*
X63028Y-32893D02*
X63043Y-32880D01*
X63073Y-32867D01*
X63147Y-32867D01*
X63177Y-32880D01*
X63192Y-32893D01*
X63207Y-32919D01*
X63207Y-32945D01*
X63192Y-32985D01*
X63013Y-33142D01*
X63207Y-33142D01*
X63476Y-32958D02*
X63476Y-33142D01*
X63402Y-32854D02*
X63327Y-33050D01*
X63521Y-33050D01*
X71767Y-33313D02*
X71752Y-33326D01*
X71707Y-33339D01*
X71677Y-33339D01*
X71633Y-33326D01*
X71603Y-33300D01*
X71588Y-33273D01*
X71573Y-33221D01*
X71573Y-33182D01*
X71588Y-33129D01*
X71603Y-33103D01*
X71633Y-33077D01*
X71677Y-33064D01*
X71707Y-33064D01*
X71752Y-33077D01*
X71767Y-33090D01*
X71887Y-33090D02*
X71902Y-33077D01*
X71932Y-33064D01*
X72006Y-33064D01*
X72036Y-33077D01*
X72051Y-33090D01*
X72066Y-33116D01*
X72066Y-33142D01*
X72051Y-33182D01*
X71872Y-33339D01*
X72066Y-33339D01*
X72216Y-33339D02*
X72276Y-33339D01*
X72305Y-33326D01*
X72320Y-33313D01*
X72350Y-33273D01*
X72365Y-33221D01*
X72365Y-33116D01*
X72350Y-33090D01*
X72335Y-33077D01*
X72305Y-33064D01*
X72246Y-33064D01*
X72216Y-33077D01*
X72201Y-33090D01*
X72186Y-33116D01*
X72186Y-33182D01*
X72201Y-33208D01*
X72216Y-33221D01*
X72246Y-33234D01*
X72305Y-33234D01*
X72335Y-33221D01*
X72350Y-33208D01*
X72365Y-33182D01*
X44141Y-47349D02*
X44126Y-47362D01*
X44081Y-47375D01*
X44051Y-47375D01*
X44007Y-47362D01*
X43977Y-47336D01*
X43962Y-47309D01*
X43947Y-47257D01*
X43947Y-47218D01*
X43962Y-47165D01*
X43977Y-47139D01*
X44007Y-47113D01*
X44051Y-47100D01*
X44081Y-47100D01*
X44126Y-47113D01*
X44141Y-47126D01*
X44246Y-47100D02*
X44455Y-47100D01*
X44321Y-47375D01*
X40881Y-46876D02*
X40866Y-46889D01*
X40821Y-46902D01*
X40791Y-46902D01*
X40747Y-46889D01*
X40717Y-46863D01*
X40702Y-46836D01*
X40687Y-46784D01*
X40687Y-46745D01*
X40702Y-46692D01*
X40717Y-46666D01*
X40747Y-46640D01*
X40791Y-46627D01*
X40821Y-46627D01*
X40866Y-46640D01*
X40881Y-46653D01*
X41180Y-46902D02*
X41001Y-46902D01*
X41091Y-46902D02*
X41091Y-46627D01*
X41061Y-46666D01*
X41031Y-46692D01*
X41001Y-46705D01*
X41285Y-46627D02*
X41479Y-46627D01*
X41375Y-46732D01*
X41419Y-46732D01*
X41449Y-46745D01*
X41464Y-46758D01*
X41479Y-46784D01*
X41479Y-46849D01*
X41464Y-46876D01*
X41449Y-46889D01*
X41419Y-46902D01*
X41330Y-46902D01*
X41300Y-46889D01*
X41285Y-46876D01*
X40900Y-44691D02*
X40885Y-44704D01*
X40840Y-44717D01*
X40810Y-44717D01*
X40766Y-44704D01*
X40736Y-44678D01*
X40721Y-44651D01*
X40706Y-44599D01*
X40706Y-44560D01*
X40721Y-44507D01*
X40736Y-44481D01*
X40766Y-44455D01*
X40810Y-44442D01*
X40840Y-44442D01*
X40885Y-44455D01*
X40900Y-44468D01*
X41199Y-44717D02*
X41020Y-44717D01*
X41110Y-44717D02*
X41110Y-44442D01*
X41080Y-44481D01*
X41050Y-44507D01*
X41020Y-44520D01*
X41319Y-44468D02*
X41334Y-44455D01*
X41364Y-44442D01*
X41438Y-44442D01*
X41468Y-44455D01*
X41483Y-44468D01*
X41498Y-44494D01*
X41498Y-44520D01*
X41483Y-44560D01*
X41304Y-44717D01*
X41498Y-44717D01*
X47684Y-46587D02*
X47580Y-46456D01*
X47505Y-46587D02*
X47505Y-46312D01*
X47624Y-46312D01*
X47654Y-46325D01*
X47669Y-46338D01*
X47684Y-46364D01*
X47684Y-46403D01*
X47669Y-46430D01*
X47654Y-46443D01*
X47624Y-46456D01*
X47505Y-46456D01*
X47789Y-46312D02*
X47998Y-46312D01*
X47864Y-46587D01*
X43255Y-41528D02*
X43151Y-41397D01*
X43076Y-41528D02*
X43076Y-41253D01*
X43195Y-41253D01*
X43225Y-41266D01*
X43240Y-41279D01*
X43255Y-41305D01*
X43255Y-41344D01*
X43240Y-41371D01*
X43225Y-41384D01*
X43195Y-41397D01*
X43076Y-41397D01*
X43524Y-41253D02*
X43465Y-41253D01*
X43435Y-41266D01*
X43420Y-41279D01*
X43390Y-41318D01*
X43375Y-41371D01*
X43375Y-41475D01*
X43390Y-41502D01*
X43405Y-41515D01*
X43435Y-41528D01*
X43494Y-41528D01*
X43524Y-41515D01*
X43539Y-41502D01*
X43554Y-41475D01*
X43554Y-41410D01*
X43539Y-41384D01*
X43524Y-41371D01*
X43494Y-41358D01*
X43435Y-41358D01*
X43405Y-41371D01*
X43390Y-41384D01*
X43375Y-41410D01*
X44818Y-41739D02*
X44803Y-41752D01*
X44758Y-41765D01*
X44728Y-41765D01*
X44684Y-41752D01*
X44654Y-41726D01*
X44639Y-41699D01*
X44624Y-41647D01*
X44624Y-41608D01*
X44639Y-41555D01*
X44654Y-41529D01*
X44684Y-41503D01*
X44728Y-41490D01*
X44758Y-41490D01*
X44803Y-41503D01*
X44818Y-41516D01*
X45117Y-41765D02*
X44938Y-41765D01*
X45028Y-41765D02*
X45028Y-41490D01*
X44998Y-41529D01*
X44968Y-41555D01*
X44938Y-41568D01*
X45416Y-41765D02*
X45237Y-41765D01*
X45327Y-41765D02*
X45327Y-41490D01*
X45297Y-41529D01*
X45267Y-41555D01*
X45237Y-41568D01*
X42743Y-43044D02*
X42639Y-42913D01*
X42564Y-43044D02*
X42564Y-42769D01*
X42683Y-42769D01*
X42713Y-42782D01*
X42728Y-42795D01*
X42743Y-42821D01*
X42743Y-42860D01*
X42728Y-42887D01*
X42713Y-42900D01*
X42683Y-42913D01*
X42564Y-42913D01*
X43027Y-42769D02*
X42878Y-42769D01*
X42863Y-42900D01*
X42878Y-42887D01*
X42908Y-42874D01*
X42982Y-42874D01*
X43012Y-42887D01*
X43027Y-42900D01*
X43042Y-42926D01*
X43042Y-42991D01*
X43027Y-43018D01*
X43012Y-43031D01*
X42982Y-43044D01*
X42908Y-43044D01*
X42878Y-43031D01*
X42863Y-43018D01*
X43491Y-44455D02*
X43476Y-44468D01*
X43431Y-44481D01*
X43401Y-44481D01*
X43357Y-44468D01*
X43327Y-44442D01*
X43312Y-44415D01*
X43297Y-44363D01*
X43297Y-44324D01*
X43312Y-44271D01*
X43327Y-44245D01*
X43357Y-44219D01*
X43401Y-44206D01*
X43431Y-44206D01*
X43476Y-44219D01*
X43491Y-44232D01*
X43760Y-44206D02*
X43701Y-44206D01*
X43671Y-44219D01*
X43656Y-44232D01*
X43626Y-44271D01*
X43611Y-44324D01*
X43611Y-44428D01*
X43626Y-44455D01*
X43641Y-44468D01*
X43671Y-44481D01*
X43730Y-44481D01*
X43760Y-44468D01*
X43775Y-44455D01*
X43790Y-44428D01*
X43790Y-44363D01*
X43775Y-44337D01*
X43760Y-44324D01*
X43730Y-44311D01*
X43671Y-44311D01*
X43641Y-44324D01*
X43626Y-44337D01*
X43611Y-44363D01*
X43767Y-43018D02*
X43752Y-43031D01*
X43707Y-43044D01*
X43677Y-43044D01*
X43633Y-43031D01*
X43603Y-43005D01*
X43588Y-42978D01*
X43573Y-42926D01*
X43573Y-42887D01*
X43588Y-42834D01*
X43603Y-42808D01*
X43633Y-42782D01*
X43677Y-42769D01*
X43707Y-42769D01*
X43752Y-42782D01*
X43767Y-42795D01*
X44051Y-42769D02*
X43902Y-42769D01*
X43887Y-42900D01*
X43902Y-42887D01*
X43932Y-42874D01*
X44006Y-42874D01*
X44036Y-42887D01*
X44051Y-42900D01*
X44066Y-42926D01*
X44066Y-42991D01*
X44051Y-43018D01*
X44036Y-43031D01*
X44006Y-43044D01*
X43932Y-43044D01*
X43902Y-43031D01*
X43887Y-43018D01*
X48550Y-42309D02*
X48535Y-42322D01*
X48490Y-42335D01*
X48460Y-42335D01*
X48416Y-42322D01*
X48386Y-42296D01*
X48371Y-42269D01*
X48356Y-42217D01*
X48356Y-42178D01*
X48371Y-42125D01*
X48386Y-42099D01*
X48416Y-42073D01*
X48460Y-42060D01*
X48490Y-42060D01*
X48535Y-42073D01*
X48550Y-42086D01*
X48655Y-42060D02*
X48849Y-42060D01*
X48745Y-42165D01*
X48789Y-42165D01*
X48819Y-42178D01*
X48834Y-42191D01*
X48849Y-42217D01*
X48849Y-42282D01*
X48834Y-42309D01*
X48819Y-42322D01*
X48789Y-42335D01*
X48700Y-42335D01*
X48670Y-42322D01*
X48655Y-42309D01*
X47291Y-41404D02*
X47276Y-41417D01*
X47231Y-41430D01*
X47201Y-41430D01*
X47157Y-41417D01*
X47127Y-41391D01*
X47112Y-41364D01*
X47097Y-41312D01*
X47097Y-41273D01*
X47112Y-41220D01*
X47127Y-41194D01*
X47157Y-41168D01*
X47201Y-41155D01*
X47231Y-41155D01*
X47276Y-41168D01*
X47291Y-41181D01*
X47560Y-41246D02*
X47560Y-41430D01*
X47486Y-41142D02*
X47411Y-41338D01*
X47605Y-41338D01*
X48609Y-45479D02*
X48594Y-45492D01*
X48549Y-45505D01*
X48519Y-45505D01*
X48475Y-45492D01*
X48445Y-45466D01*
X48430Y-45439D01*
X48415Y-45387D01*
X48415Y-45348D01*
X48430Y-45295D01*
X48445Y-45269D01*
X48475Y-45243D01*
X48519Y-45230D01*
X48549Y-45230D01*
X48594Y-45243D01*
X48609Y-45256D01*
X48729Y-45256D02*
X48744Y-45243D01*
X48774Y-45230D01*
X48848Y-45230D01*
X48878Y-45243D01*
X48893Y-45256D01*
X48908Y-45282D01*
X48908Y-45308D01*
X48893Y-45348D01*
X48714Y-45505D01*
X48908Y-45505D01*
X46129Y-46207D02*
X46114Y-46220D01*
X46069Y-46233D01*
X46039Y-46233D01*
X45995Y-46220D01*
X45965Y-46194D01*
X45950Y-46167D01*
X45935Y-46115D01*
X45935Y-46076D01*
X45950Y-46023D01*
X45965Y-45997D01*
X45995Y-45971D01*
X46039Y-45958D01*
X46069Y-45958D01*
X46114Y-45971D01*
X46129Y-45984D01*
X46428Y-46233D02*
X46249Y-46233D01*
X46339Y-46233D02*
X46339Y-45958D01*
X46309Y-45997D01*
X46279Y-46023D01*
X46249Y-46036D01*
X44522Y-46069D02*
X44507Y-46082D01*
X44462Y-46095D01*
X44432Y-46095D01*
X44388Y-46082D01*
X44358Y-46056D01*
X44343Y-46029D01*
X44328Y-45977D01*
X44328Y-45938D01*
X44343Y-45885D01*
X44358Y-45859D01*
X44388Y-45833D01*
X44432Y-45820D01*
X44462Y-45820D01*
X44507Y-45833D01*
X44522Y-45846D01*
X44821Y-46095D02*
X44642Y-46095D01*
X44732Y-46095D02*
X44732Y-45820D01*
X44702Y-45859D01*
X44672Y-45885D01*
X44642Y-45898D01*
X45016Y-45820D02*
X45045Y-45820D01*
X45075Y-45833D01*
X45090Y-45846D01*
X45105Y-45872D01*
X45120Y-45925D01*
X45120Y-45990D01*
X45105Y-46042D01*
X45090Y-46069D01*
X45075Y-46082D01*
X45045Y-46095D01*
X45016Y-46095D01*
X44986Y-46082D01*
X44971Y-46069D01*
X44956Y-46042D01*
X44941Y-45990D01*
X44941Y-45925D01*
X44956Y-45872D01*
X44971Y-45846D01*
X44986Y-45833D01*
X45016Y-45820D01*
X45204Y-47388D02*
X45189Y-47401D01*
X45144Y-47414D01*
X45114Y-47414D01*
X45070Y-47401D01*
X45040Y-47375D01*
X45025Y-47348D01*
X45010Y-47296D01*
X45010Y-47257D01*
X45025Y-47204D01*
X45040Y-47178D01*
X45070Y-47152D01*
X45114Y-47139D01*
X45144Y-47139D01*
X45189Y-47152D01*
X45204Y-47165D01*
X45354Y-47414D02*
X45414Y-47414D01*
X45443Y-47401D01*
X45458Y-47388D01*
X45488Y-47348D01*
X45503Y-47296D01*
X45503Y-47191D01*
X45488Y-47165D01*
X45473Y-47152D01*
X45443Y-47139D01*
X45384Y-47139D01*
X45354Y-47152D01*
X45339Y-47165D01*
X45324Y-47191D01*
X45324Y-47257D01*
X45339Y-47283D01*
X45354Y-47296D01*
X45384Y-47309D01*
X45443Y-47309D01*
X45473Y-47296D01*
X45488Y-47283D01*
X45503Y-47257D01*
X43531Y-46109D02*
X43516Y-46122D01*
X43471Y-46135D01*
X43441Y-46135D01*
X43397Y-46122D01*
X43367Y-46096D01*
X43352Y-46069D01*
X43337Y-46017D01*
X43337Y-45978D01*
X43352Y-45925D01*
X43367Y-45899D01*
X43397Y-45873D01*
X43441Y-45860D01*
X43471Y-45860D01*
X43516Y-45873D01*
X43531Y-45886D01*
X43711Y-45978D02*
X43681Y-45965D01*
X43666Y-45951D01*
X43651Y-45925D01*
X43651Y-45912D01*
X43666Y-45886D01*
X43681Y-45873D01*
X43711Y-45860D01*
X43770Y-45860D01*
X43800Y-45873D01*
X43815Y-45886D01*
X43830Y-45912D01*
X43830Y-45925D01*
X43815Y-45951D01*
X43800Y-45965D01*
X43770Y-45978D01*
X43711Y-45978D01*
X43681Y-45991D01*
X43666Y-46004D01*
X43651Y-46030D01*
X43651Y-46082D01*
X43666Y-46109D01*
X43681Y-46122D01*
X43711Y-46135D01*
X43770Y-46135D01*
X43800Y-46122D01*
X43815Y-46109D01*
X43830Y-46082D01*
X43830Y-46030D01*
X43815Y-46004D01*
X43800Y-45991D01*
X43770Y-45978D01*
X59542Y-28221D02*
X59438Y-28090D01*
X59363Y-28221D02*
X59363Y-27946D01*
X59482Y-27946D01*
X59512Y-27959D01*
X59527Y-27972D01*
X59542Y-27998D01*
X59542Y-28037D01*
X59527Y-28064D01*
X59512Y-28077D01*
X59482Y-28090D01*
X59363Y-28090D01*
X59662Y-27972D02*
X59677Y-27959D01*
X59707Y-27946D01*
X59781Y-27946D01*
X59811Y-27959D01*
X59826Y-27972D01*
X59841Y-27998D01*
X59841Y-28024D01*
X59826Y-28064D01*
X59647Y-28221D01*
X59841Y-28221D01*
X59946Y-27946D02*
X60155Y-27946D01*
X60021Y-28221D01*
X46845Y-25400D02*
X46830Y-25413D01*
X46785Y-25426D01*
X46755Y-25426D01*
X46711Y-25413D01*
X46681Y-25387D01*
X46666Y-25360D01*
X46651Y-25308D01*
X46651Y-25269D01*
X46666Y-25216D01*
X46681Y-25190D01*
X46711Y-25164D01*
X46755Y-25151D01*
X46785Y-25151D01*
X46830Y-25164D01*
X46845Y-25177D01*
X47144Y-25426D02*
X46965Y-25426D01*
X47055Y-25426D02*
X47055Y-25151D01*
X47025Y-25190D01*
X46995Y-25216D01*
X46965Y-25229D01*
X47249Y-25151D02*
X47458Y-25151D01*
X47324Y-25426D01*
X48381Y-24520D02*
X48277Y-24389D01*
X48202Y-24520D02*
X48202Y-24245D01*
X48321Y-24245D01*
X48351Y-24258D01*
X48366Y-24271D01*
X48381Y-24297D01*
X48381Y-24336D01*
X48366Y-24363D01*
X48351Y-24376D01*
X48321Y-24389D01*
X48202Y-24389D01*
X48680Y-24520D02*
X48501Y-24520D01*
X48591Y-24520D02*
X48591Y-24245D01*
X48561Y-24284D01*
X48531Y-24310D01*
X48501Y-24323D01*
X48875Y-24245D02*
X48904Y-24245D01*
X48934Y-24258D01*
X48949Y-24271D01*
X48964Y-24297D01*
X48979Y-24350D01*
X48979Y-24415D01*
X48964Y-24467D01*
X48949Y-24494D01*
X48934Y-24507D01*
X48904Y-24520D01*
X48875Y-24520D01*
X48845Y-24507D01*
X48830Y-24494D01*
X48815Y-24467D01*
X48800Y-24415D01*
X48800Y-24350D01*
X48815Y-24297D01*
X48830Y-24271D01*
X48845Y-24258D01*
X48875Y-24245D01*
X49365Y-24520D02*
X49261Y-24389D01*
X49186Y-24520D02*
X49186Y-24245D01*
X49305Y-24245D01*
X49335Y-24258D01*
X49350Y-24271D01*
X49365Y-24297D01*
X49365Y-24336D01*
X49350Y-24363D01*
X49335Y-24376D01*
X49305Y-24389D01*
X49186Y-24389D01*
X49664Y-24520D02*
X49485Y-24520D01*
X49575Y-24520D02*
X49575Y-24245D01*
X49545Y-24284D01*
X49515Y-24310D01*
X49485Y-24323D01*
X49963Y-24520D02*
X49784Y-24520D01*
X49874Y-24520D02*
X49874Y-24245D01*
X49844Y-24284D01*
X49814Y-24310D01*
X49784Y-24323D01*
X46786Y-30052D02*
X46682Y-29921D01*
X46607Y-30052D02*
X46607Y-29777D01*
X46726Y-29777D01*
X46756Y-29790D01*
X46771Y-29803D01*
X46786Y-29829D01*
X46786Y-29868D01*
X46771Y-29895D01*
X46756Y-29908D01*
X46726Y-29921D01*
X46607Y-29921D01*
X47085Y-30052D02*
X46906Y-30052D01*
X46996Y-30052D02*
X46996Y-29777D01*
X46966Y-29816D01*
X46936Y-29842D01*
X46906Y-29855D01*
X47190Y-29777D02*
X47384Y-29777D01*
X47280Y-29882D01*
X47324Y-29882D01*
X47354Y-29895D01*
X47369Y-29908D01*
X47384Y-29934D01*
X47384Y-29999D01*
X47369Y-30026D01*
X47354Y-30039D01*
X47324Y-30052D01*
X47235Y-30052D01*
X47205Y-30039D01*
X47190Y-30026D01*
X47849Y-30052D02*
X47745Y-29921D01*
X47670Y-30052D02*
X47670Y-29777D01*
X47789Y-29777D01*
X47819Y-29790D01*
X47834Y-29803D01*
X47849Y-29829D01*
X47849Y-29868D01*
X47834Y-29895D01*
X47819Y-29908D01*
X47789Y-29921D01*
X47670Y-29921D01*
X48148Y-30052D02*
X47969Y-30052D01*
X48059Y-30052D02*
X48059Y-29777D01*
X48029Y-29816D01*
X47999Y-29842D01*
X47969Y-29855D01*
X48268Y-29803D02*
X48283Y-29790D01*
X48313Y-29777D01*
X48387Y-29777D01*
X48417Y-29790D01*
X48432Y-29803D01*
X48447Y-29829D01*
X48447Y-29855D01*
X48432Y-29895D01*
X48253Y-30052D01*
X48447Y-30052D01*
X41327Y-29048D02*
X41223Y-28917D01*
X41148Y-29048D02*
X41148Y-28773D01*
X41267Y-28773D01*
X41297Y-28786D01*
X41312Y-28799D01*
X41327Y-28825D01*
X41327Y-28864D01*
X41312Y-28891D01*
X41297Y-28904D01*
X41267Y-28917D01*
X41148Y-28917D01*
X41447Y-28799D02*
X41462Y-28786D01*
X41492Y-28773D01*
X41566Y-28773D01*
X41596Y-28786D01*
X41611Y-28799D01*
X41626Y-28825D01*
X41626Y-28851D01*
X41611Y-28891D01*
X41432Y-29048D01*
X41626Y-29048D01*
X41365Y-28024D02*
X41261Y-27893D01*
X41186Y-28024D02*
X41186Y-27749D01*
X41305Y-27749D01*
X41335Y-27762D01*
X41350Y-27775D01*
X41365Y-27801D01*
X41365Y-27840D01*
X41350Y-27867D01*
X41335Y-27880D01*
X41305Y-27893D01*
X41186Y-27893D01*
X41664Y-28024D02*
X41485Y-28024D01*
X41575Y-28024D02*
X41575Y-27749D01*
X41545Y-27788D01*
X41515Y-27814D01*
X41485Y-27827D01*
X41327Y-29520D02*
X41223Y-29389D01*
X41148Y-29520D02*
X41148Y-29245D01*
X41267Y-29245D01*
X41297Y-29258D01*
X41312Y-29271D01*
X41327Y-29297D01*
X41327Y-29336D01*
X41312Y-29363D01*
X41297Y-29376D01*
X41267Y-29389D01*
X41148Y-29389D01*
X41596Y-29336D02*
X41596Y-29520D01*
X41522Y-29232D02*
X41447Y-29428D01*
X41641Y-29428D01*
X41327Y-29992D02*
X41223Y-29861D01*
X41148Y-29992D02*
X41148Y-29717D01*
X41267Y-29717D01*
X41297Y-29730D01*
X41312Y-29743D01*
X41327Y-29769D01*
X41327Y-29808D01*
X41312Y-29835D01*
X41297Y-29848D01*
X41267Y-29861D01*
X41148Y-29861D01*
X41432Y-29717D02*
X41626Y-29717D01*
X41522Y-29822D01*
X41566Y-29822D01*
X41596Y-29835D01*
X41611Y-29848D01*
X41626Y-29874D01*
X41626Y-29939D01*
X41611Y-29966D01*
X41596Y-29979D01*
X41566Y-29992D01*
X41477Y-29992D01*
X41447Y-29979D01*
X41432Y-29966D01*
X60704Y-27553D02*
X60600Y-27422D01*
X60525Y-27553D02*
X60525Y-27278D01*
X60644Y-27278D01*
X60674Y-27291D01*
X60689Y-27304D01*
X60704Y-27330D01*
X60704Y-27369D01*
X60689Y-27396D01*
X60674Y-27409D01*
X60644Y-27422D01*
X60525Y-27422D01*
X60824Y-27304D02*
X60839Y-27291D01*
X60869Y-27278D01*
X60943Y-27278D01*
X60973Y-27291D01*
X60988Y-27304D01*
X61003Y-27330D01*
X61003Y-27356D01*
X60988Y-27396D01*
X60809Y-27553D01*
X61003Y-27553D01*
X61153Y-27553D02*
X61213Y-27553D01*
X61242Y-27540D01*
X61257Y-27527D01*
X61287Y-27487D01*
X61302Y-27435D01*
X61302Y-27330D01*
X61287Y-27304D01*
X61272Y-27291D01*
X61242Y-27278D01*
X61183Y-27278D01*
X61153Y-27291D01*
X61138Y-27304D01*
X61123Y-27330D01*
X61123Y-27396D01*
X61138Y-27422D01*
X61153Y-27435D01*
X61183Y-27448D01*
X61242Y-27448D01*
X61272Y-27435D01*
X61287Y-27422D01*
X61302Y-27396D01*
X62829Y-25997D02*
X62725Y-25866D01*
X62650Y-25997D02*
X62650Y-25722D01*
X62769Y-25722D01*
X62799Y-25735D01*
X62814Y-25748D01*
X62829Y-25774D01*
X62829Y-25813D01*
X62814Y-25840D01*
X62799Y-25853D01*
X62769Y-25866D01*
X62650Y-25866D01*
X62934Y-25722D02*
X63128Y-25722D01*
X63024Y-25827D01*
X63068Y-25827D01*
X63098Y-25840D01*
X63113Y-25853D01*
X63128Y-25879D01*
X63128Y-25944D01*
X63113Y-25971D01*
X63098Y-25984D01*
X63068Y-25997D01*
X62979Y-25997D01*
X62949Y-25984D01*
X62934Y-25971D01*
X63427Y-25997D02*
X63248Y-25997D01*
X63338Y-25997D02*
X63338Y-25722D01*
X63308Y-25761D01*
X63278Y-25787D01*
X63248Y-25800D01*
X61688Y-26606D02*
X61584Y-26475D01*
X61509Y-26606D02*
X61509Y-26331D01*
X61628Y-26331D01*
X61658Y-26344D01*
X61673Y-26357D01*
X61688Y-26383D01*
X61688Y-26422D01*
X61673Y-26449D01*
X61658Y-26462D01*
X61628Y-26475D01*
X61509Y-26475D01*
X61793Y-26331D02*
X61987Y-26331D01*
X61883Y-26436D01*
X61927Y-26436D01*
X61957Y-26449D01*
X61972Y-26462D01*
X61987Y-26488D01*
X61987Y-26553D01*
X61972Y-26580D01*
X61957Y-26593D01*
X61927Y-26606D01*
X61838Y-26606D01*
X61808Y-26593D01*
X61793Y-26580D01*
X62182Y-26331D02*
X62211Y-26331D01*
X62241Y-26344D01*
X62256Y-26357D01*
X62271Y-26383D01*
X62286Y-26436D01*
X62286Y-26501D01*
X62271Y-26553D01*
X62256Y-26580D01*
X62241Y-26593D01*
X62211Y-26606D01*
X62182Y-26606D01*
X62152Y-26593D01*
X62137Y-26580D01*
X62122Y-26553D01*
X62107Y-26501D01*
X62107Y-26436D01*
X62122Y-26383D01*
X62137Y-26357D01*
X62152Y-26344D01*
X62182Y-26331D01*
X44672Y-40249D02*
X44568Y-40118D01*
X44493Y-40249D02*
X44493Y-39974D01*
X44612Y-39974D01*
X44642Y-39987D01*
X44657Y-40000D01*
X44672Y-40026D01*
X44672Y-40065D01*
X44657Y-40092D01*
X44642Y-40105D01*
X44612Y-40118D01*
X44493Y-40118D01*
X44852Y-40092D02*
X44822Y-40079D01*
X44807Y-40065D01*
X44792Y-40039D01*
X44792Y-40026D01*
X44807Y-40000D01*
X44822Y-39987D01*
X44852Y-39974D01*
X44911Y-39974D01*
X44941Y-39987D01*
X44956Y-40000D01*
X44971Y-40026D01*
X44971Y-40039D01*
X44956Y-40065D01*
X44941Y-40079D01*
X44911Y-40092D01*
X44852Y-40092D01*
X44822Y-40105D01*
X44807Y-40118D01*
X44792Y-40144D01*
X44792Y-40196D01*
X44807Y-40223D01*
X44822Y-40236D01*
X44852Y-40249D01*
X44911Y-40249D01*
X44941Y-40236D01*
X44956Y-40223D01*
X44971Y-40196D01*
X44971Y-40144D01*
X44956Y-40118D01*
X44941Y-40105D01*
X44911Y-40092D01*
X48833Y-52664D02*
X48818Y-52677D01*
X48773Y-52690D01*
X48743Y-52690D01*
X48699Y-52677D01*
X48669Y-52651D01*
X48654Y-52624D01*
X48639Y-52572D01*
X48639Y-52533D01*
X48654Y-52480D01*
X48669Y-52454D01*
X48699Y-52428D01*
X48743Y-52415D01*
X48773Y-52415D01*
X48818Y-52428D01*
X48833Y-52441D01*
X48938Y-52415D02*
X49132Y-52415D01*
X49028Y-52520D01*
X49072Y-52520D01*
X49102Y-52533D01*
X49117Y-52546D01*
X49132Y-52572D01*
X49132Y-52637D01*
X49117Y-52664D01*
X49102Y-52677D01*
X49072Y-52690D01*
X48983Y-52690D01*
X48953Y-52677D01*
X48938Y-52664D01*
X49252Y-52441D02*
X49267Y-52428D01*
X49297Y-52415D01*
X49371Y-52415D01*
X49401Y-52428D01*
X49416Y-52441D01*
X49431Y-52467D01*
X49431Y-52493D01*
X49416Y-52533D01*
X49237Y-52690D01*
X49431Y-52690D01*
X48814Y-52257D02*
X48710Y-52126D01*
X48635Y-52257D02*
X48635Y-51982D01*
X48754Y-51982D01*
X48784Y-51995D01*
X48799Y-52008D01*
X48814Y-52034D01*
X48814Y-52073D01*
X48799Y-52100D01*
X48784Y-52113D01*
X48754Y-52126D01*
X48635Y-52126D01*
X48919Y-51982D02*
X49113Y-51982D01*
X49009Y-52087D01*
X49053Y-52087D01*
X49083Y-52100D01*
X49098Y-52113D01*
X49113Y-52139D01*
X49113Y-52204D01*
X49098Y-52231D01*
X49083Y-52244D01*
X49053Y-52257D01*
X48964Y-52257D01*
X48934Y-52244D01*
X48919Y-52231D01*
X49218Y-51982D02*
X49427Y-51982D01*
X49293Y-52257D01*
X44877Y-28851D02*
X44773Y-28720D01*
X44698Y-28851D02*
X44698Y-28576D01*
X44817Y-28576D01*
X44847Y-28589D01*
X44862Y-28602D01*
X44877Y-28628D01*
X44877Y-28667D01*
X44862Y-28694D01*
X44847Y-28707D01*
X44817Y-28720D01*
X44698Y-28720D01*
X45146Y-28667D02*
X45146Y-28851D01*
X45072Y-28563D02*
X44997Y-28759D01*
X45191Y-28759D01*
X45475Y-28851D02*
X45296Y-28851D01*
X45386Y-28851D02*
X45386Y-28576D01*
X45356Y-28615D01*
X45326Y-28641D01*
X45296Y-28654D01*
X45507Y-26922D02*
X45403Y-26791D01*
X45328Y-26922D02*
X45328Y-26647D01*
X45447Y-26647D01*
X45477Y-26660D01*
X45492Y-26673D01*
X45507Y-26699D01*
X45507Y-26738D01*
X45492Y-26765D01*
X45477Y-26778D01*
X45447Y-26791D01*
X45328Y-26791D01*
X45776Y-26738D02*
X45776Y-26922D01*
X45702Y-26634D02*
X45627Y-26830D01*
X45821Y-26830D01*
X46001Y-26647D02*
X46030Y-26647D01*
X46060Y-26660D01*
X46075Y-26673D01*
X46090Y-26699D01*
X46105Y-26752D01*
X46105Y-26817D01*
X46090Y-26869D01*
X46075Y-26896D01*
X46060Y-26909D01*
X46030Y-26922D01*
X46001Y-26922D01*
X45971Y-26909D01*
X45956Y-26896D01*
X45941Y-26869D01*
X45926Y-26817D01*
X45926Y-26752D01*
X45941Y-26699D01*
X45956Y-26673D01*
X45971Y-26660D01*
X46001Y-26647D01*
X61333Y-35682D02*
X61229Y-35551D01*
X61154Y-35682D02*
X61154Y-35407D01*
X61273Y-35407D01*
X61303Y-35420D01*
X61318Y-35433D01*
X61333Y-35459D01*
X61333Y-35498D01*
X61318Y-35525D01*
X61303Y-35538D01*
X61273Y-35551D01*
X61154Y-35551D01*
X61438Y-35407D02*
X61632Y-35407D01*
X61528Y-35512D01*
X61572Y-35512D01*
X61602Y-35525D01*
X61617Y-35538D01*
X61632Y-35564D01*
X61632Y-35629D01*
X61617Y-35656D01*
X61602Y-35669D01*
X61572Y-35682D01*
X61483Y-35682D01*
X61453Y-35669D01*
X61438Y-35656D01*
X61782Y-35682D02*
X61842Y-35682D01*
X61871Y-35669D01*
X61886Y-35656D01*
X61916Y-35616D01*
X61931Y-35564D01*
X61931Y-35459D01*
X61916Y-35433D01*
X61901Y-35420D01*
X61871Y-35407D01*
X61812Y-35407D01*
X61782Y-35420D01*
X61767Y-35433D01*
X61752Y-35459D01*
X61752Y-35525D01*
X61767Y-35551D01*
X61782Y-35564D01*
X61812Y-35577D01*
X61871Y-35577D01*
X61901Y-35564D01*
X61916Y-35551D01*
X61931Y-35525D01*
X58952Y-35682D02*
X58848Y-35551D01*
X58773Y-35682D02*
X58773Y-35407D01*
X58892Y-35407D01*
X58922Y-35420D01*
X58937Y-35433D01*
X58952Y-35459D01*
X58952Y-35498D01*
X58937Y-35525D01*
X58922Y-35538D01*
X58892Y-35551D01*
X58773Y-35551D01*
X59057Y-35407D02*
X59251Y-35407D01*
X59147Y-35512D01*
X59191Y-35512D01*
X59221Y-35525D01*
X59236Y-35538D01*
X59251Y-35564D01*
X59251Y-35629D01*
X59236Y-35656D01*
X59221Y-35669D01*
X59191Y-35682D01*
X59102Y-35682D01*
X59072Y-35669D01*
X59057Y-35656D01*
X59431Y-35525D02*
X59401Y-35512D01*
X59386Y-35498D01*
X59371Y-35472D01*
X59371Y-35459D01*
X59386Y-35433D01*
X59401Y-35420D01*
X59431Y-35407D01*
X59490Y-35407D01*
X59520Y-35420D01*
X59535Y-35433D01*
X59550Y-35459D01*
X59550Y-35472D01*
X59535Y-35498D01*
X59520Y-35512D01*
X59490Y-35525D01*
X59431Y-35525D01*
X59401Y-35538D01*
X59386Y-35551D01*
X59371Y-35577D01*
X59371Y-35629D01*
X59386Y-35656D01*
X59401Y-35669D01*
X59431Y-35682D01*
X59490Y-35682D01*
X59520Y-35669D01*
X59535Y-35656D01*
X59550Y-35629D01*
X59550Y-35577D01*
X59535Y-35551D01*
X59520Y-35538D01*
X59490Y-35525D01*
X52515Y-28221D02*
X52411Y-28090D01*
X52336Y-28221D02*
X52336Y-27946D01*
X52455Y-27946D01*
X52485Y-27959D01*
X52500Y-27972D01*
X52515Y-27998D01*
X52515Y-28037D01*
X52500Y-28064D01*
X52485Y-28077D01*
X52455Y-28090D01*
X52336Y-28090D01*
X52784Y-28037D02*
X52784Y-28221D01*
X52710Y-27933D02*
X52635Y-28129D01*
X52829Y-28129D01*
X52934Y-27972D02*
X52949Y-27959D01*
X52979Y-27946D01*
X53053Y-27946D01*
X53083Y-27959D01*
X53098Y-27972D01*
X53113Y-27998D01*
X53113Y-28024D01*
X53098Y-28064D01*
X52919Y-28221D01*
X53113Y-28221D01*
X52515Y-27276D02*
X52411Y-27145D01*
X52336Y-27276D02*
X52336Y-27001D01*
X52455Y-27001D01*
X52485Y-27014D01*
X52500Y-27027D01*
X52515Y-27053D01*
X52515Y-27092D01*
X52500Y-27119D01*
X52485Y-27132D01*
X52455Y-27145D01*
X52336Y-27145D01*
X52784Y-27092D02*
X52784Y-27276D01*
X52710Y-26988D02*
X52635Y-27184D01*
X52829Y-27184D01*
X52919Y-27001D02*
X53113Y-27001D01*
X53009Y-27106D01*
X53053Y-27106D01*
X53083Y-27119D01*
X53098Y-27132D01*
X53113Y-27158D01*
X53113Y-27223D01*
X53098Y-27250D01*
X53083Y-27263D01*
X53053Y-27276D01*
X52964Y-27276D01*
X52934Y-27263D01*
X52919Y-27250D01*
X45935Y-28444D02*
X45905Y-28431D01*
X45875Y-28405D01*
X45830Y-28365D01*
X45801Y-28352D01*
X45771Y-28352D01*
X45786Y-28418D02*
X45756Y-28405D01*
X45726Y-28379D01*
X45711Y-28326D01*
X45711Y-28234D01*
X45726Y-28182D01*
X45756Y-28156D01*
X45786Y-28143D01*
X45845Y-28143D01*
X45875Y-28156D01*
X45905Y-28182D01*
X45920Y-28234D01*
X45920Y-28326D01*
X45905Y-28379D01*
X45875Y-28405D01*
X45845Y-28418D01*
X45786Y-28418D01*
X46025Y-28143D02*
X46219Y-28143D01*
X46115Y-28248D01*
X46159Y-28248D01*
X46189Y-28261D01*
X46204Y-28274D01*
X46219Y-28300D01*
X46219Y-28365D01*
X46204Y-28392D01*
X46189Y-28405D01*
X46159Y-28418D01*
X46070Y-28418D01*
X46040Y-28405D01*
X46025Y-28392D01*
X51092Y-27066D02*
X51062Y-27053D01*
X51032Y-27027D01*
X50987Y-26987D01*
X50958Y-26974D01*
X50928Y-26974D01*
X50943Y-27040D02*
X50913Y-27027D01*
X50883Y-27001D01*
X50868Y-26948D01*
X50868Y-26856D01*
X50883Y-26804D01*
X50913Y-26778D01*
X50943Y-26765D01*
X51002Y-26765D01*
X51032Y-26778D01*
X51062Y-26804D01*
X51077Y-26856D01*
X51077Y-26948D01*
X51062Y-27001D01*
X51032Y-27027D01*
X51002Y-27040D01*
X50943Y-27040D01*
X51346Y-26856D02*
X51346Y-27040D01*
X51272Y-26752D02*
X51197Y-26948D01*
X51391Y-26948D01*
X50172Y-51489D02*
X50068Y-51358D01*
X49993Y-51489D02*
X49993Y-51214D01*
X50112Y-51214D01*
X50142Y-51227D01*
X50157Y-51240D01*
X50172Y-51266D01*
X50172Y-51305D01*
X50157Y-51332D01*
X50142Y-51345D01*
X50112Y-51358D01*
X49993Y-51358D01*
X50441Y-51305D02*
X50441Y-51489D01*
X50367Y-51201D02*
X50292Y-51397D01*
X50486Y-51397D01*
X50740Y-51305D02*
X50740Y-51489D01*
X50666Y-51201D02*
X50591Y-51397D01*
X50785Y-51397D01*
X72396Y-29599D02*
X72292Y-29468D01*
X72217Y-29599D02*
X72217Y-29324D01*
X72336Y-29324D01*
X72366Y-29337D01*
X72381Y-29350D01*
X72396Y-29376D01*
X72396Y-29415D01*
X72381Y-29442D01*
X72366Y-29455D01*
X72336Y-29468D01*
X72217Y-29468D01*
X72665Y-29415D02*
X72665Y-29599D01*
X72591Y-29311D02*
X72516Y-29507D01*
X72710Y-29507D01*
X72979Y-29324D02*
X72830Y-29324D01*
X72815Y-29455D01*
X72830Y-29442D01*
X72860Y-29429D01*
X72934Y-29429D01*
X72964Y-29442D01*
X72979Y-29455D01*
X72994Y-29481D01*
X72994Y-29546D01*
X72979Y-29573D01*
X72964Y-29586D01*
X72934Y-29599D01*
X72860Y-29599D01*
X72830Y-29586D01*
X72815Y-29573D01*
X49995Y-33930D02*
X49891Y-33799D01*
X49816Y-33930D02*
X49816Y-33655D01*
X49935Y-33655D01*
X49965Y-33668D01*
X49980Y-33681D01*
X49995Y-33707D01*
X49995Y-33746D01*
X49980Y-33773D01*
X49965Y-33786D01*
X49935Y-33799D01*
X49816Y-33799D01*
X50279Y-33655D02*
X50130Y-33655D01*
X50115Y-33786D01*
X50130Y-33773D01*
X50160Y-33760D01*
X50234Y-33760D01*
X50264Y-33773D01*
X50279Y-33786D01*
X50294Y-33812D01*
X50294Y-33877D01*
X50279Y-33904D01*
X50264Y-33917D01*
X50234Y-33930D01*
X50160Y-33930D01*
X50130Y-33917D01*
X50115Y-33904D01*
X50414Y-33681D02*
X50429Y-33668D01*
X50459Y-33655D01*
X50533Y-33655D01*
X50563Y-33668D01*
X50578Y-33681D01*
X50593Y-33707D01*
X50593Y-33733D01*
X50578Y-33773D01*
X50399Y-33930D01*
X50593Y-33930D01*
X44522Y-38910D02*
X44418Y-38779D01*
X44343Y-38910D02*
X44343Y-38635D01*
X44462Y-38635D01*
X44492Y-38648D01*
X44507Y-38661D01*
X44522Y-38687D01*
X44522Y-38726D01*
X44507Y-38753D01*
X44492Y-38766D01*
X44462Y-38779D01*
X44343Y-38779D01*
X44791Y-38635D02*
X44732Y-38635D01*
X44702Y-38648D01*
X44687Y-38661D01*
X44657Y-38700D01*
X44642Y-38753D01*
X44642Y-38857D01*
X44657Y-38884D01*
X44672Y-38897D01*
X44702Y-38910D01*
X44761Y-38910D01*
X44791Y-38897D01*
X44806Y-38884D01*
X44821Y-38857D01*
X44821Y-38792D01*
X44806Y-38766D01*
X44791Y-38753D01*
X44761Y-38740D01*
X44702Y-38740D01*
X44672Y-38753D01*
X44657Y-38766D01*
X44642Y-38792D01*
X44941Y-38661D02*
X44956Y-38648D01*
X44986Y-38635D01*
X45060Y-38635D01*
X45090Y-38648D01*
X45105Y-38661D01*
X45120Y-38687D01*
X45120Y-38713D01*
X45105Y-38753D01*
X44926Y-38910D01*
X45120Y-38910D01*
X49129Y-32762D02*
X49114Y-32775D01*
X49069Y-32788D01*
X49039Y-32788D01*
X48995Y-32775D01*
X48965Y-32749D01*
X48950Y-32722D01*
X48935Y-32670D01*
X48935Y-32631D01*
X48950Y-32578D01*
X48965Y-32552D01*
X48995Y-32526D01*
X49039Y-32513D01*
X49069Y-32513D01*
X49114Y-32526D01*
X49129Y-32539D01*
X49234Y-32513D02*
X49428Y-32513D01*
X49324Y-32618D01*
X49368Y-32618D01*
X49398Y-32631D01*
X49413Y-32644D01*
X49428Y-32670D01*
X49428Y-32735D01*
X49413Y-32762D01*
X49398Y-32775D01*
X49368Y-32788D01*
X49279Y-32788D01*
X49249Y-32775D01*
X49234Y-32762D01*
X49533Y-32513D02*
X49742Y-32513D01*
X49608Y-32788D01*
X49129Y-34540D02*
X49025Y-34409D01*
X48950Y-34540D02*
X48950Y-34265D01*
X49069Y-34265D01*
X49099Y-34278D01*
X49114Y-34291D01*
X49129Y-34317D01*
X49129Y-34356D01*
X49114Y-34383D01*
X49099Y-34396D01*
X49069Y-34409D01*
X48950Y-34409D01*
X49398Y-34265D02*
X49339Y-34265D01*
X49309Y-34278D01*
X49294Y-34291D01*
X49264Y-34330D01*
X49249Y-34383D01*
X49249Y-34487D01*
X49264Y-34514D01*
X49279Y-34527D01*
X49309Y-34540D01*
X49368Y-34540D01*
X49398Y-34527D01*
X49413Y-34514D01*
X49428Y-34487D01*
X49428Y-34422D01*
X49413Y-34396D01*
X49398Y-34383D01*
X49368Y-34370D01*
X49309Y-34370D01*
X49279Y-34383D01*
X49264Y-34396D01*
X49249Y-34422D01*
X49533Y-34265D02*
X49727Y-34265D01*
X49623Y-34370D01*
X49667Y-34370D01*
X49697Y-34383D01*
X49712Y-34396D01*
X49727Y-34422D01*
X49727Y-34487D01*
X49712Y-34514D01*
X49697Y-34527D01*
X49667Y-34540D01*
X49578Y-34540D01*
X49548Y-34527D01*
X49533Y-34514D01*
X48814Y-32060D02*
X48710Y-31929D01*
X48635Y-32060D02*
X48635Y-31785D01*
X48754Y-31785D01*
X48784Y-31798D01*
X48799Y-31811D01*
X48814Y-31837D01*
X48814Y-31876D01*
X48799Y-31903D01*
X48784Y-31916D01*
X48754Y-31929D01*
X48635Y-31929D01*
X49083Y-31785D02*
X49024Y-31785D01*
X48994Y-31798D01*
X48979Y-31811D01*
X48949Y-31850D01*
X48934Y-31903D01*
X48934Y-32007D01*
X48949Y-32034D01*
X48964Y-32047D01*
X48994Y-32060D01*
X49053Y-32060D01*
X49083Y-32047D01*
X49098Y-32034D01*
X49113Y-32007D01*
X49113Y-31942D01*
X49098Y-31916D01*
X49083Y-31903D01*
X49053Y-31890D01*
X48994Y-31890D01*
X48964Y-31903D01*
X48949Y-31916D01*
X48934Y-31942D01*
X49382Y-31876D02*
X49382Y-32060D01*
X49308Y-31772D02*
X49233Y-31968D01*
X49427Y-31968D01*
X50704Y-31351D02*
X50600Y-31220D01*
X50525Y-31351D02*
X50525Y-31076D01*
X50644Y-31076D01*
X50674Y-31089D01*
X50689Y-31102D01*
X50704Y-31128D01*
X50704Y-31167D01*
X50689Y-31194D01*
X50674Y-31207D01*
X50644Y-31220D01*
X50525Y-31220D01*
X50973Y-31076D02*
X50914Y-31076D01*
X50884Y-31089D01*
X50869Y-31102D01*
X50839Y-31141D01*
X50824Y-31194D01*
X50824Y-31298D01*
X50839Y-31325D01*
X50854Y-31338D01*
X50884Y-31351D01*
X50943Y-31351D01*
X50973Y-31338D01*
X50988Y-31325D01*
X51003Y-31298D01*
X51003Y-31233D01*
X50988Y-31207D01*
X50973Y-31194D01*
X50943Y-31181D01*
X50884Y-31181D01*
X50854Y-31194D01*
X50839Y-31207D01*
X50824Y-31233D01*
X51287Y-31076D02*
X51138Y-31076D01*
X51123Y-31207D01*
X51138Y-31194D01*
X51168Y-31181D01*
X51242Y-31181D01*
X51272Y-31194D01*
X51287Y-31207D01*
X51302Y-31233D01*
X51302Y-31298D01*
X51287Y-31325D01*
X51272Y-31338D01*
X51242Y-31351D01*
X51168Y-31351D01*
X51138Y-31338D01*
X51123Y-31325D01*
X50861Y-33497D02*
X50757Y-33366D01*
X50682Y-33497D02*
X50682Y-33222D01*
X50801Y-33222D01*
X50831Y-33235D01*
X50846Y-33248D01*
X50861Y-33274D01*
X50861Y-33313D01*
X50846Y-33340D01*
X50831Y-33353D01*
X50801Y-33366D01*
X50682Y-33366D01*
X51130Y-33222D02*
X51071Y-33222D01*
X51041Y-33235D01*
X51026Y-33248D01*
X50996Y-33287D01*
X50981Y-33340D01*
X50981Y-33444D01*
X50996Y-33471D01*
X51011Y-33484D01*
X51041Y-33497D01*
X51100Y-33497D01*
X51130Y-33484D01*
X51145Y-33471D01*
X51160Y-33444D01*
X51160Y-33379D01*
X51145Y-33353D01*
X51130Y-33340D01*
X51100Y-33327D01*
X51041Y-33327D01*
X51011Y-33340D01*
X50996Y-33353D01*
X50981Y-33379D01*
X51429Y-33222D02*
X51370Y-33222D01*
X51340Y-33235D01*
X51325Y-33248D01*
X51295Y-33287D01*
X51280Y-33340D01*
X51280Y-33444D01*
X51295Y-33471D01*
X51310Y-33484D01*
X51340Y-33497D01*
X51399Y-33497D01*
X51429Y-33484D01*
X51444Y-33471D01*
X51459Y-33444D01*
X51459Y-33379D01*
X51444Y-33353D01*
X51429Y-33340D01*
X51399Y-33327D01*
X51340Y-33327D01*
X51310Y-33340D01*
X51295Y-33353D01*
X51280Y-33379D01*
X47908Y-31213D02*
X47804Y-31082D01*
X47729Y-31213D02*
X47729Y-30938D01*
X47848Y-30938D01*
X47878Y-30951D01*
X47893Y-30964D01*
X47908Y-30990D01*
X47908Y-31029D01*
X47893Y-31056D01*
X47878Y-31069D01*
X47848Y-31082D01*
X47729Y-31082D01*
X48192Y-30938D02*
X48043Y-30938D01*
X48028Y-31069D01*
X48043Y-31056D01*
X48073Y-31043D01*
X48147Y-31043D01*
X48177Y-31056D01*
X48192Y-31069D01*
X48207Y-31095D01*
X48207Y-31160D01*
X48192Y-31187D01*
X48177Y-31200D01*
X48147Y-31213D01*
X48073Y-31213D01*
X48043Y-31200D01*
X48028Y-31187D01*
X48357Y-31213D02*
X48417Y-31213D01*
X48446Y-31200D01*
X48461Y-31187D01*
X48491Y-31147D01*
X48506Y-31095D01*
X48506Y-30990D01*
X48491Y-30964D01*
X48476Y-30951D01*
X48446Y-30938D01*
X48387Y-30938D01*
X48357Y-30951D01*
X48342Y-30964D01*
X48327Y-30990D01*
X48327Y-31056D01*
X48342Y-31082D01*
X48357Y-31095D01*
X48387Y-31108D01*
X48446Y-31108D01*
X48476Y-31095D01*
X48491Y-31082D01*
X48506Y-31056D01*
X49719Y-31351D02*
X49615Y-31220D01*
X49540Y-31351D02*
X49540Y-31076D01*
X49659Y-31076D01*
X49689Y-31089D01*
X49704Y-31102D01*
X49719Y-31128D01*
X49719Y-31167D01*
X49704Y-31194D01*
X49689Y-31207D01*
X49659Y-31220D01*
X49540Y-31220D01*
X49988Y-31076D02*
X49929Y-31076D01*
X49899Y-31089D01*
X49884Y-31102D01*
X49854Y-31141D01*
X49839Y-31194D01*
X49839Y-31298D01*
X49854Y-31325D01*
X49869Y-31338D01*
X49899Y-31351D01*
X49958Y-31351D01*
X49988Y-31338D01*
X50003Y-31325D01*
X50018Y-31298D01*
X50018Y-31233D01*
X50003Y-31207D01*
X49988Y-31194D01*
X49958Y-31181D01*
X49899Y-31181D01*
X49869Y-31194D01*
X49854Y-31207D01*
X49839Y-31233D01*
X50213Y-31076D02*
X50242Y-31076D01*
X50272Y-31089D01*
X50287Y-31102D01*
X50302Y-31128D01*
X50317Y-31181D01*
X50317Y-31246D01*
X50302Y-31298D01*
X50287Y-31325D01*
X50272Y-31338D01*
X50242Y-31351D01*
X50213Y-31351D01*
X50183Y-31338D01*
X50168Y-31325D01*
X50153Y-31298D01*
X50138Y-31246D01*
X50138Y-31181D01*
X50153Y-31128D01*
X50168Y-31102D01*
X50183Y-31089D01*
X50213Y-31076D01*
X49995Y-33497D02*
X49891Y-33366D01*
X49816Y-33497D02*
X49816Y-33222D01*
X49935Y-33222D01*
X49965Y-33235D01*
X49980Y-33248D01*
X49995Y-33274D01*
X49995Y-33313D01*
X49980Y-33340D01*
X49965Y-33353D01*
X49935Y-33366D01*
X49816Y-33366D01*
X50264Y-33222D02*
X50205Y-33222D01*
X50175Y-33235D01*
X50160Y-33248D01*
X50130Y-33287D01*
X50115Y-33340D01*
X50115Y-33444D01*
X50130Y-33471D01*
X50145Y-33484D01*
X50175Y-33497D01*
X50234Y-33497D01*
X50264Y-33484D01*
X50279Y-33471D01*
X50294Y-33444D01*
X50294Y-33379D01*
X50279Y-33353D01*
X50264Y-33340D01*
X50234Y-33327D01*
X50175Y-33327D01*
X50145Y-33340D01*
X50130Y-33353D01*
X50115Y-33379D01*
X50593Y-33497D02*
X50414Y-33497D01*
X50504Y-33497D02*
X50504Y-33222D01*
X50474Y-33261D01*
X50444Y-33287D01*
X50414Y-33300D01*
X43755Y-32467D02*
X43740Y-32480D01*
X43695Y-32493D01*
X43665Y-32493D01*
X43621Y-32480D01*
X43591Y-32454D01*
X43576Y-32427D01*
X43561Y-32375D01*
X43561Y-32336D01*
X43576Y-32283D01*
X43591Y-32257D01*
X43621Y-32231D01*
X43665Y-32218D01*
X43695Y-32218D01*
X43740Y-32231D01*
X43755Y-32244D01*
X43860Y-32218D02*
X44054Y-32218D01*
X43950Y-32323D01*
X43994Y-32323D01*
X44024Y-32336D01*
X44039Y-32349D01*
X44054Y-32375D01*
X44054Y-32440D01*
X44039Y-32467D01*
X44024Y-32480D01*
X43994Y-32493D01*
X43905Y-32493D01*
X43875Y-32480D01*
X43860Y-32467D01*
X44159Y-32218D02*
X44353Y-32218D01*
X44249Y-32323D01*
X44293Y-32323D01*
X44323Y-32336D01*
X44338Y-32349D01*
X44353Y-32375D01*
X44353Y-32440D01*
X44338Y-32467D01*
X44323Y-32480D01*
X44293Y-32493D01*
X44204Y-32493D01*
X44174Y-32480D01*
X44159Y-32467D01*
X46688Y-30957D02*
X46584Y-30826D01*
X46509Y-30957D02*
X46509Y-30682D01*
X46628Y-30682D01*
X46658Y-30695D01*
X46673Y-30708D01*
X46688Y-30734D01*
X46688Y-30773D01*
X46673Y-30800D01*
X46658Y-30813D01*
X46628Y-30826D01*
X46509Y-30826D01*
X46957Y-30773D02*
X46957Y-30957D01*
X46883Y-30669D02*
X46808Y-30865D01*
X47002Y-30865D01*
X47167Y-30800D02*
X47137Y-30787D01*
X47122Y-30773D01*
X47107Y-30747D01*
X47107Y-30734D01*
X47122Y-30708D01*
X47137Y-30695D01*
X47167Y-30682D01*
X47226Y-30682D01*
X47256Y-30695D01*
X47271Y-30708D01*
X47286Y-30734D01*
X47286Y-30747D01*
X47271Y-30773D01*
X47256Y-30787D01*
X47226Y-30800D01*
X47167Y-30800D01*
X47137Y-30813D01*
X47122Y-30826D01*
X47107Y-30852D01*
X47107Y-30904D01*
X47122Y-30931D01*
X47137Y-30944D01*
X47167Y-30957D01*
X47226Y-30957D01*
X47256Y-30944D01*
X47271Y-30931D01*
X47286Y-30904D01*
X47286Y-30852D01*
X47271Y-30826D01*
X47256Y-30813D01*
X47226Y-30800D01*
X45231Y-30662D02*
X45127Y-30531D01*
X45052Y-30662D02*
X45052Y-30387D01*
X45171Y-30387D01*
X45201Y-30400D01*
X45216Y-30413D01*
X45231Y-30439D01*
X45231Y-30478D01*
X45216Y-30505D01*
X45201Y-30518D01*
X45171Y-30531D01*
X45052Y-30531D01*
X45515Y-30387D02*
X45366Y-30387D01*
X45351Y-30518D01*
X45366Y-30505D01*
X45396Y-30492D01*
X45470Y-30492D01*
X45500Y-30505D01*
X45515Y-30518D01*
X45530Y-30544D01*
X45530Y-30609D01*
X45515Y-30636D01*
X45500Y-30649D01*
X45470Y-30662D01*
X45396Y-30662D01*
X45366Y-30649D01*
X45351Y-30636D01*
X45799Y-30387D02*
X45740Y-30387D01*
X45710Y-30400D01*
X45695Y-30413D01*
X45665Y-30452D01*
X45650Y-30505D01*
X45650Y-30609D01*
X45665Y-30636D01*
X45680Y-30649D01*
X45710Y-30662D01*
X45769Y-30662D01*
X45799Y-30649D01*
X45814Y-30636D01*
X45829Y-30609D01*
X45829Y-30544D01*
X45814Y-30518D01*
X45799Y-30505D01*
X45769Y-30492D01*
X45710Y-30492D01*
X45680Y-30505D01*
X45665Y-30518D01*
X45650Y-30544D01*
X43755Y-32946D02*
X43651Y-32815D01*
X43576Y-32946D02*
X43576Y-32671D01*
X43695Y-32671D01*
X43725Y-32684D01*
X43740Y-32697D01*
X43755Y-32723D01*
X43755Y-32762D01*
X43740Y-32789D01*
X43725Y-32802D01*
X43695Y-32815D01*
X43576Y-32815D01*
X44039Y-32671D02*
X43890Y-32671D01*
X43875Y-32802D01*
X43890Y-32789D01*
X43920Y-32776D01*
X43994Y-32776D01*
X44024Y-32789D01*
X44039Y-32802D01*
X44054Y-32828D01*
X44054Y-32893D01*
X44039Y-32920D01*
X44024Y-32933D01*
X43994Y-32946D01*
X43920Y-32946D01*
X43890Y-32933D01*
X43875Y-32920D01*
X44353Y-32946D02*
X44174Y-32946D01*
X44264Y-32946D02*
X44264Y-32671D01*
X44234Y-32710D01*
X44204Y-32736D01*
X44174Y-32749D01*
X43755Y-33398D02*
X43651Y-33267D01*
X43576Y-33398D02*
X43576Y-33123D01*
X43695Y-33123D01*
X43725Y-33136D01*
X43740Y-33149D01*
X43755Y-33175D01*
X43755Y-33214D01*
X43740Y-33241D01*
X43725Y-33254D01*
X43695Y-33267D01*
X43576Y-33267D01*
X44024Y-33214D02*
X44024Y-33398D01*
X43950Y-33110D02*
X43875Y-33306D01*
X44069Y-33306D01*
X44323Y-33123D02*
X44264Y-33123D01*
X44234Y-33136D01*
X44219Y-33149D01*
X44189Y-33188D01*
X44174Y-33241D01*
X44174Y-33345D01*
X44189Y-33372D01*
X44204Y-33385D01*
X44234Y-33398D01*
X44293Y-33398D01*
X44323Y-33385D01*
X44338Y-33372D01*
X44353Y-33345D01*
X44353Y-33280D01*
X44338Y-33254D01*
X44323Y-33241D01*
X44293Y-33228D01*
X44234Y-33228D01*
X44204Y-33241D01*
X44189Y-33254D01*
X44174Y-33280D01*
X48046Y-34520D02*
X47942Y-34389D01*
X47867Y-34520D02*
X47867Y-34245D01*
X47986Y-34245D01*
X48016Y-34258D01*
X48031Y-34271D01*
X48046Y-34297D01*
X48046Y-34336D01*
X48031Y-34363D01*
X48016Y-34376D01*
X47986Y-34389D01*
X47867Y-34389D01*
X48330Y-34245D02*
X48181Y-34245D01*
X48166Y-34376D01*
X48181Y-34363D01*
X48211Y-34350D01*
X48285Y-34350D01*
X48315Y-34363D01*
X48330Y-34376D01*
X48345Y-34402D01*
X48345Y-34467D01*
X48330Y-34494D01*
X48315Y-34507D01*
X48285Y-34520D01*
X48211Y-34520D01*
X48181Y-34507D01*
X48166Y-34494D01*
X48540Y-34245D02*
X48569Y-34245D01*
X48599Y-34258D01*
X48614Y-34271D01*
X48629Y-34297D01*
X48644Y-34350D01*
X48644Y-34415D01*
X48629Y-34467D01*
X48614Y-34494D01*
X48599Y-34507D01*
X48569Y-34520D01*
X48540Y-34520D01*
X48510Y-34507D01*
X48495Y-34494D01*
X48480Y-34467D01*
X48465Y-34415D01*
X48465Y-34350D01*
X48480Y-34297D01*
X48495Y-34271D01*
X48510Y-34258D01*
X48540Y-34245D01*
X44916Y-34520D02*
X44812Y-34389D01*
X44737Y-34520D02*
X44737Y-34245D01*
X44856Y-34245D01*
X44886Y-34258D01*
X44901Y-34271D01*
X44916Y-34297D01*
X44916Y-34336D01*
X44901Y-34363D01*
X44886Y-34376D01*
X44856Y-34389D01*
X44737Y-34389D01*
X45185Y-34336D02*
X45185Y-34520D01*
X45111Y-34232D02*
X45036Y-34428D01*
X45230Y-34428D01*
X45320Y-34245D02*
X45529Y-34245D01*
X45395Y-34520D01*
X46097Y-35150D02*
X45993Y-35019D01*
X45918Y-35150D02*
X45918Y-34875D01*
X46037Y-34875D01*
X46067Y-34888D01*
X46082Y-34901D01*
X46097Y-34927D01*
X46097Y-34966D01*
X46082Y-34993D01*
X46067Y-35006D01*
X46037Y-35019D01*
X45918Y-35019D01*
X46381Y-34875D02*
X46232Y-34875D01*
X46217Y-35006D01*
X46232Y-34993D01*
X46262Y-34980D01*
X46336Y-34980D01*
X46366Y-34993D01*
X46381Y-35006D01*
X46396Y-35032D01*
X46396Y-35097D01*
X46381Y-35124D01*
X46366Y-35137D01*
X46336Y-35150D01*
X46262Y-35150D01*
X46232Y-35137D01*
X46217Y-35124D01*
X46576Y-34993D02*
X46546Y-34980D01*
X46531Y-34966D01*
X46516Y-34940D01*
X46516Y-34927D01*
X46531Y-34901D01*
X46546Y-34888D01*
X46576Y-34875D01*
X46635Y-34875D01*
X46665Y-34888D01*
X46680Y-34901D01*
X46695Y-34927D01*
X46695Y-34940D01*
X46680Y-34966D01*
X46665Y-34980D01*
X46635Y-34993D01*
X46576Y-34993D01*
X46546Y-35006D01*
X46531Y-35019D01*
X46516Y-35045D01*
X46516Y-35097D01*
X46531Y-35124D01*
X46546Y-35137D01*
X46576Y-35150D01*
X46635Y-35150D01*
X46665Y-35137D01*
X46680Y-35124D01*
X46695Y-35097D01*
X46695Y-35045D01*
X46680Y-35019D01*
X46665Y-35006D01*
X46635Y-34993D01*
X47042Y-35150D02*
X46938Y-35019D01*
X46863Y-35150D02*
X46863Y-34875D01*
X46982Y-34875D01*
X47012Y-34888D01*
X47027Y-34901D01*
X47042Y-34927D01*
X47042Y-34966D01*
X47027Y-34993D01*
X47012Y-35006D01*
X46982Y-35019D01*
X46863Y-35019D01*
X47326Y-34875D02*
X47177Y-34875D01*
X47162Y-35006D01*
X47177Y-34993D01*
X47207Y-34980D01*
X47281Y-34980D01*
X47311Y-34993D01*
X47326Y-35006D01*
X47341Y-35032D01*
X47341Y-35097D01*
X47326Y-35124D01*
X47311Y-35137D01*
X47281Y-35150D01*
X47207Y-35150D01*
X47177Y-35137D01*
X47162Y-35124D01*
X47446Y-34875D02*
X47655Y-34875D01*
X47521Y-35150D01*
X43755Y-32020D02*
X43651Y-31889D01*
X43576Y-32020D02*
X43576Y-31745D01*
X43695Y-31745D01*
X43725Y-31758D01*
X43740Y-31771D01*
X43755Y-31797D01*
X43755Y-31836D01*
X43740Y-31863D01*
X43725Y-31876D01*
X43695Y-31889D01*
X43576Y-31889D01*
X44039Y-31745D02*
X43890Y-31745D01*
X43875Y-31876D01*
X43890Y-31863D01*
X43920Y-31850D01*
X43994Y-31850D01*
X44024Y-31863D01*
X44039Y-31876D01*
X44054Y-31902D01*
X44054Y-31967D01*
X44039Y-31994D01*
X44024Y-32007D01*
X43994Y-32020D01*
X43920Y-32020D01*
X43890Y-32007D01*
X43875Y-31994D01*
X44338Y-31745D02*
X44189Y-31745D01*
X44174Y-31876D01*
X44189Y-31863D01*
X44219Y-31850D01*
X44293Y-31850D01*
X44323Y-31863D01*
X44338Y-31876D01*
X44353Y-31902D01*
X44353Y-31967D01*
X44338Y-31994D01*
X44323Y-32007D01*
X44293Y-32020D01*
X44219Y-32020D01*
X44189Y-32007D01*
X44174Y-31994D01*
X42239Y-32276D02*
X42135Y-32145D01*
X42060Y-32276D02*
X42060Y-32001D01*
X42179Y-32001D01*
X42209Y-32014D01*
X42224Y-32027D01*
X42239Y-32053D01*
X42239Y-32092D01*
X42224Y-32119D01*
X42209Y-32132D01*
X42179Y-32145D01*
X42060Y-32145D01*
X42508Y-32092D02*
X42508Y-32276D01*
X42434Y-31988D02*
X42359Y-32184D01*
X42553Y-32184D01*
X42688Y-32276D02*
X42748Y-32276D01*
X42777Y-32263D01*
X42792Y-32250D01*
X42822Y-32210D01*
X42837Y-32158D01*
X42837Y-32053D01*
X42822Y-32027D01*
X42807Y-32014D01*
X42777Y-32001D01*
X42718Y-32001D01*
X42688Y-32014D01*
X42673Y-32027D01*
X42658Y-32053D01*
X42658Y-32119D01*
X42673Y-32145D01*
X42688Y-32158D01*
X42718Y-32171D01*
X42777Y-32171D01*
X42807Y-32158D01*
X42822Y-32145D01*
X42837Y-32119D01*
X52633Y-32178D02*
X52529Y-32047D01*
X52454Y-32178D02*
X52454Y-31903D01*
X52573Y-31903D01*
X52603Y-31916D01*
X52618Y-31929D01*
X52633Y-31955D01*
X52633Y-31994D01*
X52618Y-32021D01*
X52603Y-32034D01*
X52573Y-32047D01*
X52454Y-32047D01*
X52917Y-31903D02*
X52768Y-31903D01*
X52753Y-32034D01*
X52768Y-32021D01*
X52798Y-32008D01*
X52872Y-32008D01*
X52902Y-32021D01*
X52917Y-32034D01*
X52932Y-32060D01*
X52932Y-32125D01*
X52917Y-32152D01*
X52902Y-32165D01*
X52872Y-32178D01*
X52798Y-32178D01*
X52768Y-32165D01*
X52753Y-32152D01*
X53037Y-31903D02*
X53231Y-31903D01*
X53127Y-32008D01*
X53171Y-32008D01*
X53201Y-32021D01*
X53216Y-32034D01*
X53231Y-32060D01*
X53231Y-32125D01*
X53216Y-32152D01*
X53201Y-32165D01*
X53171Y-32178D01*
X53082Y-32178D01*
X53052Y-32165D01*
X53037Y-32152D01*
X52633Y-32729D02*
X52529Y-32598D01*
X52454Y-32729D02*
X52454Y-32454D01*
X52573Y-32454D01*
X52603Y-32467D01*
X52618Y-32480D01*
X52633Y-32506D01*
X52633Y-32545D01*
X52618Y-32572D01*
X52603Y-32585D01*
X52573Y-32598D01*
X52454Y-32598D01*
X52917Y-32454D02*
X52768Y-32454D01*
X52753Y-32585D01*
X52768Y-32572D01*
X52798Y-32559D01*
X52872Y-32559D01*
X52902Y-32572D01*
X52917Y-32585D01*
X52932Y-32611D01*
X52932Y-32676D01*
X52917Y-32703D01*
X52902Y-32716D01*
X52872Y-32729D01*
X52798Y-32729D01*
X52768Y-32716D01*
X52753Y-32703D01*
X53201Y-32545D02*
X53201Y-32729D01*
X53127Y-32441D02*
X53052Y-32637D01*
X53246Y-32637D01*
X65128Y-25335D02*
X65098Y-25322D01*
X65068Y-25296D01*
X65023Y-25256D01*
X64994Y-25243D01*
X64964Y-25243D01*
X64979Y-25309D02*
X64949Y-25296D01*
X64919Y-25270D01*
X64904Y-25217D01*
X64904Y-25125D01*
X64919Y-25073D01*
X64949Y-25047D01*
X64979Y-25034D01*
X65038Y-25034D01*
X65068Y-25047D01*
X65098Y-25073D01*
X65113Y-25125D01*
X65113Y-25217D01*
X65098Y-25270D01*
X65068Y-25296D01*
X65038Y-25309D01*
X64979Y-25309D01*
X65233Y-25060D02*
X65248Y-25047D01*
X65278Y-25034D01*
X65352Y-25034D01*
X65382Y-25047D01*
X65397Y-25060D01*
X65412Y-25086D01*
X65412Y-25112D01*
X65397Y-25152D01*
X65218Y-25309D01*
X65412Y-25309D01*
X42568Y-44389D02*
X42538Y-44376D01*
X42508Y-44350D01*
X42463Y-44310D01*
X42434Y-44297D01*
X42404Y-44297D01*
X42419Y-44363D02*
X42389Y-44350D01*
X42359Y-44324D01*
X42344Y-44271D01*
X42344Y-44179D01*
X42359Y-44127D01*
X42389Y-44101D01*
X42419Y-44088D01*
X42478Y-44088D01*
X42508Y-44101D01*
X42538Y-44127D01*
X42553Y-44179D01*
X42553Y-44271D01*
X42538Y-44324D01*
X42508Y-44350D01*
X42478Y-44363D01*
X42419Y-44363D01*
X42852Y-44363D02*
X42673Y-44363D01*
X42763Y-44363D02*
X42763Y-44088D01*
X42733Y-44127D01*
X42703Y-44153D01*
X42673Y-44166D01*
X61706Y-37356D02*
X61706Y-37552D01*
X61692Y-37592D01*
X61662Y-37618D01*
X61617Y-37631D01*
X61587Y-37631D01*
X61841Y-37382D02*
X61856Y-37369D01*
X61886Y-37356D01*
X61960Y-37356D01*
X61990Y-37369D01*
X62005Y-37382D01*
X62020Y-37408D01*
X62020Y-37434D01*
X62005Y-37474D01*
X61826Y-37631D01*
X62020Y-37631D01*
X62164Y-39304D02*
X62134Y-39291D01*
X62119Y-39277D01*
X62104Y-39251D01*
X62104Y-39238D01*
X62119Y-39212D01*
X62134Y-39199D01*
X62164Y-39186D01*
X62223Y-39186D01*
X62253Y-39199D01*
X62268Y-39212D01*
X62283Y-39238D01*
X62283Y-39251D01*
X62268Y-39277D01*
X62253Y-39291D01*
X62223Y-39304D01*
X62164Y-39304D01*
X62134Y-39317D01*
X62119Y-39330D01*
X62104Y-39356D01*
X62104Y-39408D01*
X62119Y-39435D01*
X62134Y-39448D01*
X62164Y-39461D01*
X62223Y-39461D01*
X62253Y-39448D01*
X62268Y-39435D01*
X62283Y-39408D01*
X62283Y-39356D01*
X62268Y-39330D01*
X62253Y-39317D01*
X62223Y-39304D01*
X62478Y-39186D02*
X62507Y-39186D01*
X62537Y-39199D01*
X62552Y-39212D01*
X62567Y-39238D01*
X62582Y-39291D01*
X62582Y-39356D01*
X62567Y-39408D01*
X62552Y-39435D01*
X62537Y-39448D01*
X62507Y-39461D01*
X62478Y-39461D01*
X62448Y-39448D01*
X62433Y-39435D01*
X62418Y-39408D01*
X62403Y-39356D01*
X62403Y-39291D01*
X62418Y-39238D01*
X62433Y-39212D01*
X62448Y-39199D01*
X62478Y-39186D01*
X58427Y-39186D02*
X58636Y-39186D01*
X58502Y-39461D01*
X58771Y-39461D02*
X58831Y-39461D01*
X58860Y-39448D01*
X58875Y-39435D01*
X58905Y-39395D01*
X58920Y-39343D01*
X58920Y-39238D01*
X58905Y-39212D01*
X58890Y-39199D01*
X58860Y-39186D01*
X58801Y-39186D01*
X58771Y-39199D01*
X58756Y-39212D01*
X58741Y-39238D01*
X58741Y-39304D01*
X58756Y-39330D01*
X58771Y-39343D01*
X58801Y-39356D01*
X58860Y-39356D01*
X58890Y-39343D01*
X58905Y-39330D01*
X58920Y-39304D01*
X58948Y-48871D02*
X58769Y-48871D01*
X58859Y-48871D02*
X58859Y-48596D01*
X58829Y-48635D01*
X58799Y-48661D01*
X58769Y-48674D01*
X62096Y-48464D02*
X62111Y-48451D01*
X62141Y-48438D01*
X62215Y-48438D01*
X62245Y-48451D01*
X62260Y-48464D01*
X62275Y-48490D01*
X62275Y-48516D01*
X62260Y-48556D01*
X62081Y-48713D01*
X62275Y-48713D01*
X71640Y-29284D02*
X71640Y-29009D01*
X71715Y-29009D01*
X71759Y-29022D01*
X71789Y-29048D01*
X71804Y-29074D01*
X71819Y-29127D01*
X71819Y-29166D01*
X71804Y-29218D01*
X71789Y-29245D01*
X71759Y-29271D01*
X71715Y-29284D01*
X71640Y-29284D01*
X71939Y-29035D02*
X71954Y-29022D01*
X71984Y-29009D01*
X72058Y-29009D01*
X72088Y-29022D01*
X72103Y-29035D01*
X72118Y-29061D01*
X72118Y-29087D01*
X72103Y-29127D01*
X71924Y-29284D01*
X72118Y-29284D01*
X72141Y-30032D02*
X71992Y-30032D01*
X71992Y-29757D01*
X72246Y-29888D02*
X72350Y-29888D01*
X72395Y-30032D02*
X72246Y-30032D01*
X72246Y-29757D01*
X72395Y-29757D01*
X72530Y-30032D02*
X72530Y-29757D01*
X72605Y-29757D01*
X72649Y-29770D01*
X72679Y-29796D01*
X72694Y-29822D01*
X72709Y-29875D01*
X72709Y-29914D01*
X72694Y-29966D01*
X72679Y-29993D01*
X72649Y-30019D01*
X72605Y-30032D01*
X72530Y-30032D01*
X70901Y-30032D02*
X70901Y-29757D01*
X71020Y-29757D01*
X71050Y-29770D01*
X71065Y-29783D01*
X71080Y-29809D01*
X71080Y-29848D01*
X71065Y-29875D01*
X71050Y-29888D01*
X71020Y-29901D01*
X70901Y-29901D01*
X71185Y-29757D02*
X71260Y-30032D01*
X71319Y-29835D01*
X71379Y-30032D01*
X71454Y-29757D01*
X71753Y-30032D02*
X71649Y-29901D01*
X71574Y-30032D02*
X71574Y-29757D01*
X71693Y-29757D01*
X71723Y-29770D01*
X71738Y-29783D01*
X71753Y-29809D01*
X71753Y-29848D01*
X71738Y-29875D01*
X71723Y-29888D01*
X71693Y-29901D01*
X71574Y-29901D01*
X69841Y-29757D02*
X69841Y-29979D01*
X69856Y-30006D01*
X69871Y-30019D01*
X69901Y-30032D01*
X69960Y-30032D01*
X69990Y-30019D01*
X70005Y-30006D01*
X70020Y-29979D01*
X70020Y-29757D01*
X70155Y-30019D02*
X70200Y-30032D01*
X70274Y-30032D01*
X70304Y-30019D01*
X70319Y-30006D01*
X70334Y-29979D01*
X70334Y-29953D01*
X70319Y-29927D01*
X70304Y-29914D01*
X70274Y-29901D01*
X70215Y-29888D01*
X70185Y-29875D01*
X70170Y-29862D01*
X70155Y-29835D01*
X70155Y-29809D01*
X70170Y-29783D01*
X70185Y-29770D01*
X70215Y-29757D01*
X70289Y-29757D01*
X70334Y-29770D01*
X70573Y-29888D02*
X70618Y-29901D01*
X70633Y-29914D01*
X70648Y-29940D01*
X70648Y-29979D01*
X70633Y-30006D01*
X70618Y-30019D01*
X70588Y-30032D01*
X70469Y-30032D01*
X70469Y-29757D01*
X70573Y-29757D01*
X70603Y-29770D01*
X70618Y-29783D01*
X70633Y-29809D01*
X70633Y-29835D01*
X70618Y-29862D01*
X70603Y-29875D01*
X70573Y-29888D01*
X70469Y-29888D01*
X50045Y-52394D02*
X50045Y-52119D01*
X50120Y-52119D01*
X50164Y-52132D01*
X50194Y-52158D01*
X50209Y-52184D01*
X50224Y-52237D01*
X50224Y-52276D01*
X50209Y-52328D01*
X50194Y-52355D01*
X50164Y-52381D01*
X50120Y-52394D01*
X50045Y-52394D01*
X50523Y-52394D02*
X50344Y-52394D01*
X50434Y-52394D02*
X50434Y-52119D01*
X50404Y-52158D01*
X50374Y-52184D01*
X50344Y-52197D01*
X50546Y-53142D02*
X50397Y-53142D01*
X50397Y-52867D01*
X50651Y-52998D02*
X50755Y-52998D01*
X50800Y-53142D02*
X50651Y-53142D01*
X50651Y-52867D01*
X50800Y-52867D01*
X50935Y-53142D02*
X50935Y-52867D01*
X51010Y-52867D01*
X51054Y-52880D01*
X51084Y-52906D01*
X51099Y-52932D01*
X51114Y-52985D01*
X51114Y-53024D01*
X51099Y-53076D01*
X51084Y-53103D01*
X51054Y-53129D01*
X51010Y-53142D01*
X50935Y-53142D01*
X49306Y-53142D02*
X49306Y-52867D01*
X49425Y-52867D01*
X49455Y-52880D01*
X49470Y-52893D01*
X49485Y-52919D01*
X49485Y-52958D01*
X49470Y-52985D01*
X49455Y-52998D01*
X49425Y-53011D01*
X49306Y-53011D01*
X49590Y-52867D02*
X49665Y-53142D01*
X49724Y-52945D01*
X49784Y-53142D01*
X49859Y-52867D01*
X50158Y-53142D02*
X50054Y-53011D01*
X49979Y-53142D02*
X49979Y-52867D01*
X50098Y-52867D01*
X50128Y-52880D01*
X50143Y-52893D01*
X50158Y-52919D01*
X50158Y-52958D01*
X50143Y-52985D01*
X50128Y-52998D01*
X50098Y-53011D01*
X49979Y-53011D01*
X48246Y-52867D02*
X48246Y-53089D01*
X48261Y-53116D01*
X48276Y-53129D01*
X48306Y-53142D01*
X48365Y-53142D01*
X48395Y-53129D01*
X48410Y-53116D01*
X48425Y-53089D01*
X48425Y-52867D01*
X48560Y-53129D02*
X48605Y-53142D01*
X48679Y-53142D01*
X48709Y-53129D01*
X48724Y-53116D01*
X48739Y-53089D01*
X48739Y-53063D01*
X48724Y-53037D01*
X48709Y-53024D01*
X48679Y-53011D01*
X48620Y-52998D01*
X48590Y-52985D01*
X48575Y-52972D01*
X48560Y-52945D01*
X48560Y-52919D01*
X48575Y-52893D01*
X48590Y-52880D01*
X48620Y-52867D01*
X48694Y-52867D01*
X48739Y-52880D01*
X48978Y-52998D02*
X49023Y-53011D01*
X49038Y-53024D01*
X49053Y-53050D01*
X49053Y-53089D01*
X49038Y-53116D01*
X49023Y-53129D01*
X48993Y-53142D01*
X48874Y-53142D01*
X48874Y-52867D01*
X48978Y-52867D01*
X49008Y-52880D01*
X49023Y-52893D01*
X49038Y-52919D01*
X49038Y-52945D01*
X49023Y-52972D01*
X49008Y-52985D01*
X48978Y-52998D01*
X48874Y-52998D01*
X47059Y-49383D02*
X47059Y-49579D01*
X47045Y-49619D01*
X47015Y-49645D01*
X46970Y-49658D01*
X46940Y-49658D01*
X47343Y-49474D02*
X47343Y-49658D01*
X47269Y-49370D02*
X47194Y-49566D01*
X47388Y-49566D01*
X69444Y-30465D02*
X69340Y-30334D01*
X69265Y-30465D02*
X69265Y-30190D01*
X69384Y-30190D01*
X69414Y-30203D01*
X69429Y-30216D01*
X69444Y-30242D01*
X69444Y-30281D01*
X69429Y-30308D01*
X69414Y-30321D01*
X69384Y-30334D01*
X69265Y-30334D01*
X69549Y-30190D02*
X69743Y-30190D01*
X69639Y-30295D01*
X69683Y-30295D01*
X69713Y-30308D01*
X69728Y-30321D01*
X69743Y-30347D01*
X69743Y-30412D01*
X69728Y-30439D01*
X69713Y-30452D01*
X69683Y-30465D01*
X69594Y-30465D01*
X69564Y-30452D01*
X69549Y-30439D01*
X70012Y-30281D02*
X70012Y-30465D01*
X69938Y-30177D02*
X69863Y-30373D01*
X70057Y-30373D01*
X68068Y-33852D02*
X68068Y-34074D01*
X68083Y-34101D01*
X68098Y-34114D01*
X68128Y-34127D01*
X68187Y-34127D01*
X68217Y-34114D01*
X68232Y-34101D01*
X68247Y-34074D01*
X68247Y-33852D01*
X68412Y-34127D02*
X68472Y-34127D01*
X68501Y-34114D01*
X68516Y-34101D01*
X68546Y-34061D01*
X68561Y-34009D01*
X68561Y-33904D01*
X68546Y-33878D01*
X68531Y-33865D01*
X68501Y-33852D01*
X68442Y-33852D01*
X68412Y-33865D01*
X68397Y-33878D01*
X68382Y-33904D01*
X68382Y-33970D01*
X68397Y-33996D01*
X68412Y-34009D01*
X68442Y-34022D01*
X68501Y-34022D01*
X68531Y-34009D01*
X68546Y-33996D01*
X68561Y-33970D01*
X50942Y-50622D02*
X50942Y-50844D01*
X50957Y-50871D01*
X50972Y-50884D01*
X51002Y-50897D01*
X51061Y-50897D01*
X51091Y-50884D01*
X51106Y-50871D01*
X51121Y-50844D01*
X51121Y-50622D01*
X51256Y-50648D02*
X51271Y-50635D01*
X51301Y-50622D01*
X51375Y-50622D01*
X51405Y-50635D01*
X51420Y-50648D01*
X51435Y-50674D01*
X51435Y-50700D01*
X51420Y-50740D01*
X51241Y-50897D01*
X51435Y-50897D01*
X73194Y-32963D02*
X73194Y-33185D01*
X73209Y-33212D01*
X73224Y-33225D01*
X73254Y-33238D01*
X73313Y-33238D01*
X73343Y-33225D01*
X73358Y-33212D01*
X73373Y-33185D01*
X73373Y-32963D01*
X73687Y-33238D02*
X73508Y-33238D01*
X73598Y-33238D02*
X73598Y-32963D01*
X73568Y-33002D01*
X73538Y-33028D01*
X73508Y-33041D01*
X73882Y-32963D02*
X73911Y-32963D01*
X73941Y-32976D01*
X73956Y-32989D01*
X73971Y-33015D01*
X73986Y-33068D01*
X73986Y-33133D01*
X73971Y-33185D01*
X73956Y-33212D01*
X73941Y-33225D01*
X73911Y-33238D01*
X73882Y-33238D01*
X73852Y-33225D01*
X73837Y-33212D01*
X73822Y-33185D01*
X73807Y-33133D01*
X73807Y-33068D01*
X73822Y-33015D01*
X73837Y-32989D01*
X73852Y-32976D01*
X73882Y-32963D01*
X51588Y-23812D02*
X51588Y-24008D01*
X51574Y-24048D01*
X51544Y-24074D01*
X51499Y-24087D01*
X51469Y-24087D01*
X51887Y-23812D02*
X51738Y-23812D01*
X51723Y-23943D01*
X51738Y-23930D01*
X51768Y-23917D01*
X51842Y-23917D01*
X51872Y-23930D01*
X51887Y-23943D01*
X51902Y-23969D01*
X51902Y-24034D01*
X51887Y-24061D01*
X51872Y-24074D01*
X51842Y-24087D01*
X51768Y-24087D01*
X51738Y-24074D01*
X51723Y-24061D01*
G54D24*
X50220Y-24376D02*
X50324Y-24376D01*
X50369Y-24520D02*
X50220Y-24520D01*
X50220Y-24245D01*
X50369Y-24245D01*
X50503Y-24376D02*
X50607Y-24376D01*
X50652Y-24520D02*
X50503Y-24520D01*
X50503Y-24245D01*
X50652Y-24245D01*
X50786Y-24520D02*
X50786Y-24245D01*
X50905Y-24245D01*
X50935Y-24258D01*
X50949Y-24271D01*
X50964Y-24297D01*
X50964Y-24336D01*
X50949Y-24363D01*
X50935Y-24376D01*
X50905Y-24389D01*
X50786Y-24389D01*
X51277Y-24520D02*
X51173Y-24389D01*
X51099Y-24520D02*
X51099Y-24245D01*
X51218Y-24245D01*
X51248Y-24258D01*
X51262Y-24271D01*
X51277Y-24297D01*
X51277Y-24336D01*
X51262Y-24363D01*
X51248Y-24376D01*
X51218Y-24389D01*
X51099Y-24389D01*
X51471Y-24245D02*
X51531Y-24245D01*
X51561Y-24258D01*
X51590Y-24284D01*
X51605Y-24336D01*
X51605Y-24428D01*
X51590Y-24481D01*
X51561Y-24507D01*
X51531Y-24520D01*
X51471Y-24520D01*
X51441Y-24507D01*
X51412Y-24481D01*
X51397Y-24428D01*
X51397Y-24336D01*
X51412Y-24284D01*
X51441Y-24258D01*
X51471Y-24245D01*
X51740Y-24520D02*
X51740Y-24245D01*
X51844Y-24441D01*
X51948Y-24245D01*
X51948Y-24520D01*
X52440Y-24376D02*
X52485Y-24389D01*
X52499Y-24402D01*
X52514Y-24428D01*
X52514Y-24467D01*
X52499Y-24494D01*
X52485Y-24507D01*
X52455Y-24520D01*
X52336Y-24520D01*
X52336Y-24245D01*
X52440Y-24245D01*
X52470Y-24258D01*
X52485Y-24271D01*
X52499Y-24297D01*
X52499Y-24323D01*
X52485Y-24350D01*
X52470Y-24363D01*
X52440Y-24376D01*
X52336Y-24376D01*
X52693Y-24520D02*
X52663Y-24507D01*
X52649Y-24494D01*
X52634Y-24467D01*
X52634Y-24389D01*
X52649Y-24363D01*
X52663Y-24350D01*
X52693Y-24336D01*
X52738Y-24336D01*
X52768Y-24350D01*
X52783Y-24363D01*
X52798Y-24389D01*
X52798Y-24467D01*
X52783Y-24494D01*
X52768Y-24507D01*
X52738Y-24520D01*
X52693Y-24520D01*
X52976Y-24520D02*
X52946Y-24507D01*
X52932Y-24494D01*
X52917Y-24467D01*
X52917Y-24389D01*
X52932Y-24363D01*
X52946Y-24350D01*
X52976Y-24336D01*
X53021Y-24336D01*
X53051Y-24350D01*
X53066Y-24363D01*
X53081Y-24389D01*
X53081Y-24467D01*
X53066Y-24494D01*
X53051Y-24507D01*
X53021Y-24520D01*
X52976Y-24520D01*
X53170Y-24336D02*
X53289Y-24336D01*
X53215Y-24245D02*
X53215Y-24481D01*
X53229Y-24507D01*
X53259Y-24520D01*
X53289Y-24520D01*
G54D11*
X58517Y-49993D02*
X58517Y-50189D01*
X58503Y-50229D01*
X58473Y-50255D01*
X58428Y-50268D01*
X58398Y-50268D01*
X58831Y-50268D02*
X58652Y-50268D01*
X58742Y-50268D02*
X58742Y-49993D01*
X58712Y-50032D01*
X58682Y-50058D01*
X58652Y-50071D01*
X58517Y-52238D02*
X58517Y-52434D01*
X58503Y-52474D01*
X58473Y-52500D01*
X58428Y-52513D01*
X58398Y-52513D01*
X58637Y-52238D02*
X58831Y-52238D01*
X58727Y-52343D01*
X58771Y-52343D01*
X58801Y-52356D01*
X58816Y-52369D01*
X58831Y-52395D01*
X58831Y-52460D01*
X58816Y-52487D01*
X58801Y-52500D01*
X58771Y-52513D01*
X58682Y-52513D01*
X58652Y-52500D01*
X58637Y-52487D01*
X73385Y-26093D02*
X73385Y-26289D01*
X73371Y-26329D01*
X73341Y-26355D01*
X73296Y-26368D01*
X73266Y-26368D01*
X73550Y-26368D02*
X73610Y-26368D01*
X73639Y-26355D01*
X73654Y-26342D01*
X73684Y-26302D01*
X73699Y-26250D01*
X73699Y-26145D01*
X73684Y-26119D01*
X73669Y-26106D01*
X73639Y-26093D01*
X73580Y-26093D01*
X73550Y-26106D01*
X73535Y-26119D01*
X73520Y-26145D01*
X73520Y-26211D01*
X73535Y-26237D01*
X73550Y-26250D01*
X73580Y-26263D01*
X73639Y-26263D01*
X73669Y-26250D01*
X73684Y-26237D01*
X73699Y-26211D01*
X60682Y-23950D02*
X60682Y-24146D01*
X60668Y-24186D01*
X60638Y-24212D01*
X60593Y-24225D01*
X60563Y-24225D01*
X60966Y-23950D02*
X60907Y-23950D01*
X60877Y-23963D01*
X60862Y-23976D01*
X60832Y-24015D01*
X60817Y-24068D01*
X60817Y-24172D01*
X60832Y-24199D01*
X60847Y-24212D01*
X60877Y-24225D01*
X60936Y-24225D01*
X60966Y-24212D01*
X60981Y-24199D01*
X60996Y-24172D01*
X60996Y-24107D01*
X60981Y-24081D01*
X60966Y-24068D01*
X60936Y-24055D01*
X60877Y-24055D01*
X60847Y-24068D01*
X60832Y-24081D01*
X60817Y-24107D01*
X66863Y-24992D02*
X66863Y-25188D01*
X66849Y-25228D01*
X66819Y-25254D01*
X66774Y-25267D01*
X66744Y-25267D01*
X66983Y-24992D02*
X67192Y-24992D01*
X67058Y-25267D01*
X66128Y-24599D02*
X66187Y-24599D01*
X66217Y-24612D01*
X66247Y-24638D01*
X66262Y-24690D01*
X66262Y-24782D01*
X66247Y-24835D01*
X66217Y-24861D01*
X66187Y-24874D01*
X66128Y-24874D01*
X66098Y-24861D01*
X66068Y-24835D01*
X66053Y-24782D01*
X66053Y-24690D01*
X66068Y-24638D01*
X66098Y-24612D01*
X66128Y-24599D01*
X66397Y-24730D02*
X66501Y-24730D01*
X66546Y-24874D02*
X66397Y-24874D01*
X66397Y-24599D01*
X66546Y-24599D01*
X66785Y-24730D02*
X66830Y-24743D01*
X66845Y-24756D01*
X66860Y-24782D01*
X66860Y-24821D01*
X66845Y-24848D01*
X66830Y-24861D01*
X66800Y-24874D01*
X66681Y-24874D01*
X66681Y-24599D01*
X66785Y-24599D01*
X66815Y-24612D01*
X66830Y-24625D01*
X66845Y-24651D01*
X66845Y-24677D01*
X66830Y-24704D01*
X66815Y-24717D01*
X66785Y-24730D01*
X66681Y-24730D01*
X67123Y-24861D02*
X67168Y-24874D01*
X67242Y-24874D01*
X67272Y-24861D01*
X67287Y-24848D01*
X67302Y-24821D01*
X67302Y-24795D01*
X67287Y-24769D01*
X67272Y-24756D01*
X67242Y-24743D01*
X67183Y-24730D01*
X67153Y-24717D01*
X67138Y-24704D01*
X67123Y-24677D01*
X67123Y-24651D01*
X67138Y-24625D01*
X67153Y-24612D01*
X67183Y-24599D01*
X67257Y-24599D01*
X67302Y-24612D01*
X67422Y-24861D02*
X67467Y-24874D01*
X67541Y-24874D01*
X67571Y-24861D01*
X67586Y-24848D01*
X67601Y-24821D01*
X67601Y-24795D01*
X67586Y-24769D01*
X67571Y-24756D01*
X67541Y-24743D01*
X67482Y-24730D01*
X67452Y-24717D01*
X67437Y-24704D01*
X67422Y-24677D01*
X67422Y-24651D01*
X67437Y-24625D01*
X67452Y-24612D01*
X67482Y-24599D01*
X67556Y-24599D01*
X67601Y-24612D01*
X67915Y-24848D02*
X67900Y-24861D01*
X67855Y-24874D01*
X67825Y-24874D01*
X67781Y-24861D01*
X67751Y-24835D01*
X67736Y-24808D01*
X67721Y-24756D01*
X67721Y-24717D01*
X67736Y-24664D01*
X67751Y-24638D01*
X67781Y-24612D01*
X67825Y-24599D01*
X67855Y-24599D01*
X67900Y-24612D01*
X67915Y-24625D01*
G54D25*
X73518Y-22671D02*
X73518Y-22867D01*
X73504Y-22907D01*
X73474Y-22933D01*
X73429Y-22946D01*
X73400Y-22946D01*
X73712Y-22789D02*
X73682Y-22776D01*
X73667Y-22762D01*
X73652Y-22736D01*
X73652Y-22723D01*
X73667Y-22697D01*
X73682Y-22684D01*
X73712Y-22671D01*
X73771Y-22671D01*
X73801Y-22684D01*
X73816Y-22697D01*
X73831Y-22723D01*
X73831Y-22736D01*
X73816Y-22762D01*
X73801Y-22776D01*
X73771Y-22789D01*
X73712Y-22789D01*
X73682Y-22802D01*
X73667Y-22815D01*
X73652Y-22841D01*
X73652Y-22893D01*
X73667Y-22920D01*
X73682Y-22933D01*
X73712Y-22946D01*
X73771Y-22946D01*
X73801Y-22933D01*
X73816Y-22920D01*
X73831Y-22893D01*
X73831Y-22841D01*
X73816Y-22815D01*
X73801Y-22802D01*
X73771Y-22789D01*
G54D11*
X55218Y-26864D02*
X55412Y-26864D01*
X55308Y-26969D01*
X55352Y-26969D01*
X55382Y-26982D01*
X55397Y-26995D01*
X55412Y-27021D01*
X55412Y-27086D01*
X55397Y-27113D01*
X55382Y-27126D01*
X55352Y-27139D01*
X55263Y-27139D01*
X55233Y-27126D01*
X55218Y-27113D01*
X55562Y-27139D02*
X55622Y-27139D01*
X55651Y-27126D01*
X55666Y-27113D01*
X55696Y-27073D01*
X55711Y-27021D01*
X55711Y-26916D01*
X55696Y-26890D01*
X55681Y-26877D01*
X55651Y-26864D01*
X55592Y-26864D01*
X55562Y-26877D01*
X55547Y-26890D01*
X55532Y-26916D01*
X55532Y-26982D01*
X55547Y-27008D01*
X55562Y-27021D01*
X55592Y-27034D01*
X55651Y-27034D01*
X55681Y-27021D01*
X55696Y-27008D01*
X55711Y-26982D01*
X56347Y-26955D02*
X56347Y-27139D01*
X56273Y-26851D02*
X56198Y-27047D01*
X56392Y-27047D01*
X56572Y-26864D02*
X56601Y-26864D01*
X56631Y-26877D01*
X56646Y-26890D01*
X56661Y-26916D01*
X56676Y-26969D01*
X56676Y-27034D01*
X56661Y-27086D01*
X56646Y-27113D01*
X56631Y-27126D01*
X56601Y-27139D01*
X56572Y-27139D01*
X56542Y-27126D01*
X56527Y-27113D01*
X56512Y-27086D01*
X56497Y-27034D01*
X56497Y-26969D01*
X56512Y-26916D01*
X56527Y-26890D01*
X56542Y-26877D01*
X56572Y-26864D01*
X56427Y-47519D02*
X56442Y-47506D01*
X56472Y-47493D01*
X56546Y-47493D01*
X56576Y-47506D01*
X56591Y-47519D01*
X56606Y-47545D01*
X56606Y-47571D01*
X56591Y-47611D01*
X56412Y-47768D01*
X56606Y-47768D01*
X55602Y-47768D02*
X55423Y-47768D01*
X55513Y-47768D02*
X55513Y-47493D01*
X55483Y-47532D01*
X55453Y-47558D01*
X55423Y-47571D01*
X39234Y-47513D02*
X39428Y-47513D01*
X39324Y-47618D01*
X39368Y-47618D01*
X39398Y-47631D01*
X39413Y-47644D01*
X39428Y-47670D01*
X39428Y-47735D01*
X39413Y-47762D01*
X39398Y-47775D01*
X39368Y-47788D01*
X39279Y-47788D01*
X39249Y-47775D01*
X39234Y-47762D01*
X39578Y-47788D02*
X39638Y-47788D01*
X39667Y-47775D01*
X39682Y-47762D01*
X39712Y-47722D01*
X39727Y-47670D01*
X39727Y-47565D01*
X39712Y-47539D01*
X39697Y-47526D01*
X39667Y-47513D01*
X39608Y-47513D01*
X39578Y-47526D01*
X39563Y-47539D01*
X39548Y-47565D01*
X39548Y-47631D01*
X39563Y-47657D01*
X39578Y-47670D01*
X39608Y-47683D01*
X39667Y-47683D01*
X39697Y-47670D01*
X39712Y-47657D01*
X39727Y-47631D01*
X38375Y-47604D02*
X38375Y-47788D01*
X38301Y-47500D02*
X38226Y-47696D01*
X38420Y-47696D01*
X38600Y-47513D02*
X38629Y-47513D01*
X38659Y-47526D01*
X38674Y-47539D01*
X38689Y-47565D01*
X38704Y-47618D01*
X38704Y-47683D01*
X38689Y-47735D01*
X38674Y-47762D01*
X38659Y-47775D01*
X38629Y-47788D01*
X38600Y-47788D01*
X38570Y-47775D01*
X38555Y-47762D01*
X38540Y-47735D01*
X38525Y-47683D01*
X38525Y-47618D01*
X38540Y-47565D01*
X38555Y-47539D01*
X38570Y-47526D01*
X38600Y-47513D01*
X38376Y-26909D02*
X38391Y-26896D01*
X38421Y-26883D01*
X38495Y-26883D01*
X38525Y-26896D01*
X38540Y-26909D01*
X38555Y-26935D01*
X38555Y-26961D01*
X38540Y-27001D01*
X38361Y-27158D01*
X38555Y-27158D01*
X39578Y-27158D02*
X39399Y-27158D01*
X39489Y-27158D02*
X39489Y-26883D01*
X39459Y-26922D01*
X39429Y-26948D01*
X39399Y-26961D01*
X40695Y-52954D02*
X40695Y-52679D01*
X40770Y-52679D01*
X40814Y-52692D01*
X40844Y-52718D01*
X40859Y-52744D01*
X40874Y-52797D01*
X40874Y-52836D01*
X40859Y-52888D01*
X40844Y-52915D01*
X40814Y-52941D01*
X40770Y-52954D01*
X40695Y-52954D01*
X41009Y-52810D02*
X41113Y-52810D01*
X41158Y-52954D02*
X41009Y-52954D01*
X41009Y-52679D01*
X41158Y-52679D01*
X41353Y-52679D02*
X41382Y-52679D01*
X41412Y-52692D01*
X41427Y-52705D01*
X41442Y-52731D01*
X41457Y-52784D01*
X41457Y-52849D01*
X41442Y-52901D01*
X41427Y-52928D01*
X41412Y-52941D01*
X41382Y-52954D01*
X41353Y-52954D01*
X41323Y-52941D01*
X41308Y-52928D01*
X41293Y-52901D01*
X41278Y-52849D01*
X41278Y-52784D01*
X41293Y-52731D01*
X41308Y-52705D01*
X41323Y-52692D01*
X41353Y-52679D01*
X41592Y-52849D02*
X41831Y-52849D01*
X42070Y-52679D02*
X42070Y-52875D01*
X42056Y-52915D01*
X42026Y-52941D01*
X41981Y-52954D01*
X41951Y-52954D01*
X42220Y-52954D02*
X42220Y-52679D01*
X42339Y-52679D01*
X42369Y-52692D01*
X42384Y-52705D01*
X42399Y-52731D01*
X42399Y-52770D01*
X42384Y-52797D01*
X42369Y-52810D01*
X42339Y-52823D01*
X42220Y-52823D01*
X42668Y-52770D02*
X42668Y-52954D01*
X42594Y-52666D02*
X42519Y-52862D01*
X42713Y-52862D01*
X54713Y-48162D02*
X54713Y-47887D01*
X54788Y-47887D01*
X54832Y-47900D01*
X54862Y-47926D01*
X54877Y-47952D01*
X54892Y-48005D01*
X54892Y-48044D01*
X54877Y-48096D01*
X54862Y-48123D01*
X54832Y-48149D01*
X54788Y-48162D01*
X54713Y-48162D01*
X55027Y-48018D02*
X55131Y-48018D01*
X55176Y-48162D02*
X55027Y-48162D01*
X55027Y-47887D01*
X55176Y-47887D01*
X55371Y-47887D02*
X55400Y-47887D01*
X55430Y-47900D01*
X55445Y-47913D01*
X55460Y-47939D01*
X55475Y-47992D01*
X55475Y-48057D01*
X55460Y-48109D01*
X55445Y-48136D01*
X55430Y-48149D01*
X55400Y-48162D01*
X55371Y-48162D01*
X55341Y-48149D01*
X55326Y-48136D01*
X55311Y-48109D01*
X55296Y-48057D01*
X55296Y-47992D01*
X55311Y-47939D01*
X55326Y-47913D01*
X55341Y-47900D01*
X55371Y-47887D01*
X55610Y-48057D02*
X55849Y-48057D01*
X56163Y-47900D02*
X56133Y-47887D01*
X56088Y-47887D01*
X56044Y-47900D01*
X56014Y-47926D01*
X55999Y-47952D01*
X55984Y-48005D01*
X55984Y-48044D01*
X55999Y-48096D01*
X56014Y-48123D01*
X56044Y-48149D01*
X56088Y-48162D01*
X56118Y-48162D01*
X56163Y-48149D01*
X56178Y-48136D01*
X56178Y-48044D01*
X56118Y-48044D01*
X56313Y-48162D02*
X56313Y-47887D01*
X56432Y-47887D01*
X56462Y-47900D01*
X56477Y-47913D01*
X56492Y-47939D01*
X56492Y-47978D01*
X56477Y-48005D01*
X56462Y-48018D01*
X56432Y-48031D01*
X56313Y-48031D01*
X56627Y-48162D02*
X56627Y-47887D01*
X56837Y-47887D02*
X56896Y-47887D01*
X56926Y-47900D01*
X56956Y-47926D01*
X56971Y-47978D01*
X56971Y-48070D01*
X56956Y-48123D01*
X56926Y-48149D01*
X56896Y-48162D01*
X56837Y-48162D01*
X56807Y-48149D01*
X56777Y-48123D01*
X56762Y-48070D01*
X56762Y-47978D01*
X56777Y-47926D01*
X56807Y-47900D01*
X56837Y-47887D01*
X57166Y-47887D02*
X57195Y-47887D01*
X57225Y-47900D01*
X57240Y-47913D01*
X57255Y-47939D01*
X57270Y-47992D01*
X57270Y-48057D01*
X57255Y-48109D01*
X57240Y-48136D01*
X57225Y-48149D01*
X57195Y-48162D01*
X57166Y-48162D01*
X57136Y-48149D01*
X57121Y-48136D01*
X57106Y-48109D01*
X57091Y-48057D01*
X57091Y-47992D01*
X57106Y-47939D01*
X57121Y-47913D01*
X57136Y-47900D01*
X57166Y-47887D01*
X37863Y-26765D02*
X37863Y-26490D01*
X37938Y-26490D01*
X37982Y-26503D01*
X38012Y-26529D01*
X38027Y-26555D01*
X38042Y-26608D01*
X38042Y-26647D01*
X38027Y-26699D01*
X38012Y-26726D01*
X37982Y-26752D01*
X37938Y-26765D01*
X37863Y-26765D01*
X38177Y-26621D02*
X38281Y-26621D01*
X38326Y-26765D02*
X38177Y-26765D01*
X38177Y-26490D01*
X38326Y-26490D01*
X38521Y-26490D02*
X38550Y-26490D01*
X38580Y-26503D01*
X38595Y-26516D01*
X38610Y-26542D01*
X38625Y-26595D01*
X38625Y-26660D01*
X38610Y-26712D01*
X38595Y-26739D01*
X38580Y-26752D01*
X38550Y-26765D01*
X38521Y-26765D01*
X38491Y-26752D01*
X38476Y-26739D01*
X38461Y-26712D01*
X38446Y-26660D01*
X38446Y-26595D01*
X38461Y-26542D01*
X38476Y-26516D01*
X38491Y-26503D01*
X38521Y-26490D01*
X38760Y-26660D02*
X38999Y-26660D01*
X39313Y-26503D02*
X39283Y-26490D01*
X39238Y-26490D01*
X39194Y-26503D01*
X39164Y-26529D01*
X39149Y-26555D01*
X39134Y-26608D01*
X39134Y-26647D01*
X39149Y-26699D01*
X39164Y-26726D01*
X39194Y-26752D01*
X39238Y-26765D01*
X39268Y-26765D01*
X39313Y-26752D01*
X39328Y-26739D01*
X39328Y-26647D01*
X39268Y-26647D01*
X39463Y-26765D02*
X39463Y-26490D01*
X39582Y-26490D01*
X39612Y-26503D01*
X39627Y-26516D01*
X39642Y-26542D01*
X39642Y-26581D01*
X39627Y-26608D01*
X39612Y-26621D01*
X39582Y-26634D01*
X39463Y-26634D01*
X39777Y-26765D02*
X39777Y-26490D01*
X39987Y-26490D02*
X40046Y-26490D01*
X40076Y-26503D01*
X40106Y-26529D01*
X40121Y-26581D01*
X40121Y-26673D01*
X40106Y-26726D01*
X40076Y-26752D01*
X40046Y-26765D01*
X39987Y-26765D01*
X39957Y-26752D01*
X39927Y-26726D01*
X39912Y-26673D01*
X39912Y-26581D01*
X39927Y-26529D01*
X39957Y-26503D01*
X39987Y-26490D01*
X40420Y-26765D02*
X40241Y-26765D01*
X40331Y-26765D02*
X40331Y-26490D01*
X40301Y-26529D01*
X40271Y-26555D01*
X40241Y-26568D01*
X47674Y-45760D02*
X47674Y-45982D01*
X47689Y-46009D01*
X47704Y-46022D01*
X47734Y-46035D01*
X47793Y-46035D01*
X47823Y-46022D01*
X47838Y-46009D01*
X47853Y-45982D01*
X47853Y-45760D01*
X48167Y-46035D02*
X47988Y-46035D01*
X48078Y-46035D02*
X48078Y-45760D01*
X48048Y-45799D01*
X48018Y-45825D01*
X47988Y-45838D01*
X63815Y-28537D02*
X63815Y-28759D01*
X63830Y-28786D01*
X63845Y-28799D01*
X63875Y-28812D01*
X63934Y-28812D01*
X63964Y-28799D01*
X63979Y-28786D01*
X63994Y-28759D01*
X63994Y-28537D01*
X64189Y-28655D02*
X64159Y-28642D01*
X64144Y-28628D01*
X64129Y-28602D01*
X64129Y-28589D01*
X64144Y-28563D01*
X64159Y-28550D01*
X64189Y-28537D01*
X64248Y-28537D01*
X64278Y-28550D01*
X64293Y-28563D01*
X64308Y-28589D01*
X64308Y-28602D01*
X64293Y-28628D01*
X64278Y-28642D01*
X64248Y-28655D01*
X64189Y-28655D01*
X64159Y-28668D01*
X64144Y-28681D01*
X64129Y-28707D01*
X64129Y-28759D01*
X64144Y-28786D01*
X64159Y-28799D01*
X64189Y-28812D01*
X64248Y-28812D01*
X64278Y-28799D01*
X64293Y-28786D01*
X64308Y-28759D01*
X64308Y-28707D01*
X64293Y-28681D01*
X64278Y-28668D01*
X64248Y-28655D01*
M02*
