G04 (created by PCBNEW (2013-05-31 BZR 4019)-stable) date 06/03/2014 18:54:47*
%MOIN*%
G04 Gerber Fmt 3.4, Leading zero omitted, Abs format*
%FSLAX34Y34*%
G01*
G70*
G90*
G04 APERTURE LIST*
%ADD10C,0.00590551*%
%ADD11C,0.0077*%
%ADD12C,0.0157*%
%ADD13C,0.0195*%
%ADD14C,0.0354*%
%ADD15C,0.2165*%
%ADD16C,0.051*%
%ADD17C,0.055*%
%ADD18C,0.0597*%
%ADD19R,0.0597X0.0597*%
%ADD20C,0.0432*%
%ADD21C,0.0077*%
%ADD22C,0.0117*%
%ADD23C,0.0196*%
%ADD24C,0.0118*%
%ADD25C,0.0117*%
%ADD26C,0.0195*%
%ADD27C,0.0078*%
%ADD28C,0.0039*%
G04 APERTURE END LIST*
G54D10*
X4000Y-4000D02*
X112930Y-4000D01*
X112930Y-78680D01*
X4000Y-78680D01*
X4000Y-4000D01*
X4700Y-4700D02*
X112230Y-4700D01*
X112230Y-77980D01*
X4700Y-77980D01*
X4700Y-4700D01*
X25780Y-4000D02*
X25780Y-4700D01*
X15032Y-4552D02*
X14747Y-4552D01*
X14890Y-4552D02*
X14890Y-4052D01*
X14842Y-4123D01*
X14794Y-4171D01*
X14747Y-4195D01*
X25780Y-78680D02*
X25780Y-77980D01*
X15032Y-78532D02*
X14747Y-78532D01*
X14890Y-78532D02*
X14890Y-78032D01*
X14842Y-78103D01*
X14794Y-78151D01*
X14747Y-78175D01*
X47560Y-4000D02*
X47560Y-4700D01*
X36527Y-4100D02*
X36550Y-4076D01*
X36598Y-4052D01*
X36717Y-4052D01*
X36765Y-4076D01*
X36789Y-4100D01*
X36812Y-4147D01*
X36812Y-4195D01*
X36789Y-4266D01*
X36503Y-4552D01*
X36812Y-4552D01*
X47560Y-78680D02*
X47560Y-77980D01*
X36527Y-78080D02*
X36550Y-78056D01*
X36598Y-78032D01*
X36717Y-78032D01*
X36765Y-78056D01*
X36789Y-78080D01*
X36812Y-78127D01*
X36812Y-78175D01*
X36789Y-78246D01*
X36503Y-78532D01*
X36812Y-78532D01*
X69340Y-4000D02*
X69340Y-4700D01*
X58283Y-4052D02*
X58592Y-4052D01*
X58426Y-4242D01*
X58497Y-4242D01*
X58545Y-4266D01*
X58569Y-4290D01*
X58592Y-4338D01*
X58592Y-4457D01*
X58569Y-4504D01*
X58545Y-4528D01*
X58497Y-4552D01*
X58354Y-4552D01*
X58307Y-4528D01*
X58283Y-4504D01*
X69340Y-78680D02*
X69340Y-77980D01*
X58283Y-78032D02*
X58592Y-78032D01*
X58426Y-78222D01*
X58497Y-78222D01*
X58545Y-78246D01*
X58569Y-78270D01*
X58592Y-78318D01*
X58592Y-78437D01*
X58569Y-78484D01*
X58545Y-78508D01*
X58497Y-78532D01*
X58354Y-78532D01*
X58307Y-78508D01*
X58283Y-78484D01*
X91120Y-4000D02*
X91120Y-4700D01*
X80325Y-4219D02*
X80325Y-4552D01*
X80206Y-4028D02*
X80087Y-4385D01*
X80396Y-4385D01*
X91120Y-78680D02*
X91120Y-77980D01*
X80325Y-78199D02*
X80325Y-78532D01*
X80206Y-78008D02*
X80087Y-78365D01*
X80396Y-78365D01*
X102129Y-4052D02*
X101890Y-4052D01*
X101867Y-4290D01*
X101890Y-4266D01*
X101938Y-4242D01*
X102057Y-4242D01*
X102105Y-4266D01*
X102129Y-4290D01*
X102152Y-4338D01*
X102152Y-4457D01*
X102129Y-4504D01*
X102105Y-4528D01*
X102057Y-4552D01*
X101938Y-4552D01*
X101890Y-4528D01*
X101867Y-4504D01*
X102129Y-78032D02*
X101890Y-78032D01*
X101867Y-78270D01*
X101890Y-78246D01*
X101938Y-78222D01*
X102057Y-78222D01*
X102105Y-78246D01*
X102129Y-78270D01*
X102152Y-78318D01*
X102152Y-78437D01*
X102129Y-78484D01*
X102105Y-78508D01*
X102057Y-78532D01*
X101938Y-78532D01*
X101890Y-78508D01*
X101867Y-78484D01*
X4000Y-28890D02*
X4700Y-28890D01*
X4230Y-16509D02*
X4469Y-16509D01*
X4183Y-16652D02*
X4350Y-16152D01*
X4516Y-16652D01*
X112930Y-28890D02*
X112230Y-28890D01*
X112460Y-16509D02*
X112699Y-16509D01*
X112413Y-16652D02*
X112580Y-16152D01*
X112746Y-16652D01*
X4000Y-53780D02*
X4700Y-53780D01*
X4385Y-41280D02*
X4457Y-41304D01*
X4480Y-41328D01*
X4504Y-41375D01*
X4504Y-41447D01*
X4480Y-41494D01*
X4457Y-41518D01*
X4409Y-41542D01*
X4219Y-41542D01*
X4219Y-41042D01*
X4385Y-41042D01*
X4433Y-41066D01*
X4457Y-41090D01*
X4480Y-41137D01*
X4480Y-41185D01*
X4457Y-41232D01*
X4433Y-41256D01*
X4385Y-41280D01*
X4219Y-41280D01*
X112930Y-53780D02*
X112230Y-53780D01*
X112615Y-41280D02*
X112687Y-41304D01*
X112710Y-41328D01*
X112734Y-41375D01*
X112734Y-41447D01*
X112710Y-41494D01*
X112687Y-41518D01*
X112639Y-41542D01*
X112449Y-41542D01*
X112449Y-41042D01*
X112615Y-41042D01*
X112663Y-41066D01*
X112687Y-41090D01*
X112710Y-41137D01*
X112710Y-41185D01*
X112687Y-41232D01*
X112663Y-41256D01*
X112615Y-41280D01*
X112449Y-41280D01*
X4504Y-66384D02*
X4480Y-66408D01*
X4409Y-66432D01*
X4361Y-66432D01*
X4290Y-66408D01*
X4242Y-66360D01*
X4219Y-66313D01*
X4195Y-66218D01*
X4195Y-66146D01*
X4219Y-66051D01*
X4242Y-66003D01*
X4290Y-65956D01*
X4361Y-65932D01*
X4409Y-65932D01*
X4480Y-65956D01*
X4504Y-65980D01*
X112734Y-66384D02*
X112710Y-66408D01*
X112639Y-66432D01*
X112591Y-66432D01*
X112520Y-66408D01*
X112472Y-66360D01*
X112449Y-66313D01*
X112425Y-66218D01*
X112425Y-66146D01*
X112449Y-66051D01*
X112472Y-66003D01*
X112520Y-65956D01*
X112591Y-65932D01*
X112639Y-65932D01*
X112710Y-65956D01*
X112734Y-65980D01*
X79380Y-76422D02*
X79455Y-75822D01*
X79597Y-75822D01*
X79680Y-75851D01*
X79730Y-75908D01*
X79751Y-75965D01*
X79765Y-76080D01*
X79755Y-76165D01*
X79712Y-76280D01*
X79676Y-76337D01*
X79612Y-76394D01*
X79522Y-76422D01*
X79380Y-76422D01*
X80237Y-76422D02*
X80276Y-76108D01*
X80255Y-76051D01*
X80201Y-76022D01*
X80087Y-76022D01*
X80026Y-76051D01*
X80240Y-76394D02*
X80180Y-76422D01*
X80037Y-76422D01*
X79983Y-76394D01*
X79962Y-76337D01*
X79969Y-76280D01*
X80005Y-76222D01*
X80065Y-76194D01*
X80208Y-76194D01*
X80269Y-76165D01*
X80487Y-76022D02*
X80715Y-76022D01*
X80597Y-75822D02*
X80533Y-76337D01*
X80555Y-76394D01*
X80608Y-76422D01*
X80665Y-76422D01*
X81097Y-76394D02*
X81037Y-76422D01*
X80922Y-76422D01*
X80869Y-76394D01*
X80847Y-76337D01*
X80876Y-76108D01*
X80912Y-76051D01*
X80972Y-76022D01*
X81087Y-76022D01*
X81140Y-76051D01*
X81162Y-76108D01*
X81155Y-76165D01*
X80862Y-76222D01*
X81387Y-76365D02*
X81412Y-76394D01*
X81380Y-76422D01*
X81355Y-76394D01*
X81387Y-76365D01*
X81380Y-76422D01*
X81426Y-76051D02*
X81451Y-76080D01*
X81419Y-76108D01*
X81394Y-76080D01*
X81426Y-76051D01*
X81419Y-76108D01*
X82455Y-75822D02*
X82340Y-75822D01*
X82279Y-75851D01*
X82247Y-75880D01*
X82180Y-75965D01*
X82137Y-76080D01*
X82108Y-76308D01*
X82130Y-76365D01*
X82155Y-76394D01*
X82208Y-76422D01*
X82322Y-76422D01*
X82383Y-76394D01*
X82415Y-76365D01*
X82451Y-76308D01*
X82469Y-76165D01*
X82447Y-76108D01*
X82422Y-76080D01*
X82369Y-76051D01*
X82254Y-76051D01*
X82194Y-76080D01*
X82162Y-76108D01*
X82126Y-76165D01*
X83151Y-76422D02*
X83201Y-76022D01*
X83194Y-76080D02*
X83226Y-76051D01*
X83287Y-76022D01*
X83372Y-76022D01*
X83426Y-76051D01*
X83447Y-76108D01*
X83408Y-76422D01*
X83447Y-76108D02*
X83483Y-76051D01*
X83544Y-76022D01*
X83630Y-76022D01*
X83683Y-76051D01*
X83705Y-76108D01*
X83665Y-76422D01*
X84208Y-76422D02*
X84247Y-76108D01*
X84226Y-76051D01*
X84172Y-76022D01*
X84058Y-76022D01*
X83997Y-76051D01*
X84212Y-76394D02*
X84151Y-76422D01*
X84008Y-76422D01*
X83955Y-76394D01*
X83933Y-76337D01*
X83940Y-76280D01*
X83976Y-76222D01*
X84037Y-76194D01*
X84180Y-76194D01*
X84240Y-76165D01*
X84494Y-76422D02*
X84544Y-76022D01*
X84530Y-76137D02*
X84565Y-76080D01*
X84597Y-76051D01*
X84658Y-76022D01*
X84715Y-76022D01*
X85362Y-75880D02*
X85394Y-75851D01*
X85455Y-75822D01*
X85597Y-75822D01*
X85651Y-75851D01*
X85676Y-75880D01*
X85697Y-75937D01*
X85690Y-75994D01*
X85651Y-76080D01*
X85265Y-76422D01*
X85637Y-76422D01*
X86083Y-75822D02*
X86140Y-75822D01*
X86194Y-75851D01*
X86219Y-75880D01*
X86240Y-75937D01*
X86255Y-76051D01*
X86237Y-76194D01*
X86194Y-76308D01*
X86158Y-76365D01*
X86126Y-76394D01*
X86065Y-76422D01*
X86008Y-76422D01*
X85955Y-76394D01*
X85930Y-76365D01*
X85908Y-76308D01*
X85894Y-76194D01*
X85912Y-76051D01*
X85955Y-75937D01*
X85990Y-75880D01*
X86022Y-75851D01*
X86083Y-75822D01*
X86780Y-76422D02*
X86437Y-76422D01*
X86608Y-76422D02*
X86683Y-75822D01*
X86615Y-75908D01*
X86551Y-75965D01*
X86490Y-75994D01*
X87344Y-76022D02*
X87294Y-76422D01*
X87230Y-75794D02*
X87033Y-76222D01*
X87405Y-76222D01*
X70972Y-77622D02*
X70972Y-77022D01*
X71315Y-77622D02*
X71058Y-77280D01*
X71315Y-77022D02*
X70972Y-77365D01*
X71572Y-77622D02*
X71572Y-77222D01*
X71572Y-77022D02*
X71544Y-77051D01*
X71572Y-77080D01*
X71601Y-77051D01*
X71572Y-77022D01*
X71572Y-77080D01*
X72201Y-77565D02*
X72172Y-77594D01*
X72087Y-77622D01*
X72030Y-77622D01*
X71944Y-77594D01*
X71887Y-77537D01*
X71858Y-77480D01*
X71830Y-77365D01*
X71830Y-77280D01*
X71858Y-77165D01*
X71887Y-77108D01*
X71944Y-77051D01*
X72030Y-77022D01*
X72087Y-77022D01*
X72172Y-77051D01*
X72201Y-77080D01*
X72715Y-77622D02*
X72715Y-77308D01*
X72687Y-77251D01*
X72630Y-77222D01*
X72515Y-77222D01*
X72458Y-77251D01*
X72715Y-77594D02*
X72658Y-77622D01*
X72515Y-77622D01*
X72458Y-77594D01*
X72430Y-77537D01*
X72430Y-77480D01*
X72458Y-77422D01*
X72515Y-77394D01*
X72658Y-77394D01*
X72715Y-77365D01*
X73258Y-77622D02*
X73258Y-77022D01*
X73258Y-77594D02*
X73201Y-77622D01*
X73087Y-77622D01*
X73030Y-77594D01*
X73001Y-77565D01*
X72972Y-77508D01*
X72972Y-77337D01*
X73001Y-77280D01*
X73030Y-77251D01*
X73087Y-77222D01*
X73201Y-77222D01*
X73258Y-77251D01*
X74001Y-77308D02*
X74201Y-77308D01*
X74287Y-77622D02*
X74001Y-77622D01*
X74001Y-77022D01*
X74287Y-77022D01*
X74544Y-77565D02*
X74572Y-77594D01*
X74544Y-77622D01*
X74515Y-77594D01*
X74544Y-77565D01*
X74544Y-77622D01*
X74829Y-77622D02*
X74829Y-77022D01*
X74972Y-77022D01*
X75058Y-77051D01*
X75115Y-77108D01*
X75144Y-77165D01*
X75172Y-77280D01*
X75172Y-77365D01*
X75144Y-77480D01*
X75115Y-77537D01*
X75058Y-77594D01*
X74972Y-77622D01*
X74829Y-77622D01*
X75429Y-77565D02*
X75458Y-77594D01*
X75429Y-77622D01*
X75401Y-77594D01*
X75429Y-77565D01*
X75429Y-77622D01*
X75687Y-77451D02*
X75972Y-77451D01*
X75629Y-77622D02*
X75829Y-77022D01*
X76029Y-77622D01*
X76229Y-77565D02*
X76258Y-77594D01*
X76229Y-77622D01*
X76201Y-77594D01*
X76229Y-77565D01*
X76229Y-77622D01*
X104522Y-76422D02*
X104358Y-76137D01*
X104180Y-76422D02*
X104255Y-75822D01*
X104483Y-75822D01*
X104537Y-75851D01*
X104562Y-75880D01*
X104583Y-75937D01*
X104572Y-76022D01*
X104537Y-76080D01*
X104505Y-76108D01*
X104444Y-76137D01*
X104215Y-76137D01*
X105012Y-76394D02*
X104951Y-76422D01*
X104837Y-76422D01*
X104783Y-76394D01*
X104762Y-76337D01*
X104790Y-76108D01*
X104826Y-76051D01*
X104887Y-76022D01*
X105001Y-76022D01*
X105055Y-76051D01*
X105076Y-76108D01*
X105069Y-76165D01*
X104776Y-76222D01*
X105287Y-76022D02*
X105380Y-76422D01*
X105572Y-76022D01*
X105758Y-76365D02*
X105783Y-76394D01*
X105751Y-76422D01*
X105726Y-76394D01*
X105758Y-76365D01*
X105751Y-76422D01*
X105797Y-76051D02*
X105822Y-76080D01*
X105790Y-76108D01*
X105765Y-76080D01*
X105797Y-76051D01*
X105790Y-76108D01*
X106512Y-75822D02*
X106883Y-75822D01*
X106655Y-76051D01*
X106740Y-76051D01*
X106794Y-76080D01*
X106819Y-76108D01*
X106840Y-76165D01*
X106822Y-76308D01*
X106787Y-76365D01*
X106755Y-76394D01*
X106694Y-76422D01*
X106522Y-76422D01*
X106469Y-76394D01*
X106444Y-76365D01*
X70944Y-76394D02*
X71030Y-76422D01*
X71172Y-76422D01*
X71230Y-76394D01*
X71258Y-76365D01*
X71287Y-76308D01*
X71287Y-76251D01*
X71258Y-76194D01*
X71230Y-76165D01*
X71172Y-76137D01*
X71058Y-76108D01*
X71001Y-76080D01*
X70972Y-76051D01*
X70944Y-75994D01*
X70944Y-75937D01*
X70972Y-75880D01*
X71001Y-75851D01*
X71058Y-75822D01*
X71201Y-75822D01*
X71287Y-75851D01*
X71544Y-76422D02*
X71544Y-76022D01*
X71544Y-75822D02*
X71515Y-75851D01*
X71544Y-75880D01*
X71572Y-75851D01*
X71544Y-75822D01*
X71544Y-75880D01*
X71772Y-76022D02*
X72087Y-76022D01*
X71772Y-76422D01*
X72087Y-76422D01*
X72544Y-76394D02*
X72487Y-76422D01*
X72372Y-76422D01*
X72315Y-76394D01*
X72287Y-76337D01*
X72287Y-76108D01*
X72315Y-76051D01*
X72372Y-76022D01*
X72487Y-76022D01*
X72544Y-76051D01*
X72572Y-76108D01*
X72572Y-76165D01*
X72287Y-76222D01*
X72830Y-76365D02*
X72858Y-76394D01*
X72830Y-76422D01*
X72801Y-76394D01*
X72830Y-76365D01*
X72830Y-76422D01*
X72830Y-76051D02*
X72858Y-76080D01*
X72830Y-76108D01*
X72801Y-76080D01*
X72830Y-76051D01*
X72830Y-76108D01*
X73544Y-76251D02*
X73830Y-76251D01*
X73487Y-76422D02*
X73687Y-75822D01*
X73887Y-76422D01*
X74344Y-76022D02*
X74344Y-76422D01*
X74201Y-75794D02*
X74058Y-76222D01*
X74430Y-76222D01*
X104172Y-77622D02*
X104172Y-77022D01*
X104715Y-77622D02*
X104715Y-77022D01*
X104715Y-77594D02*
X104658Y-77622D01*
X104544Y-77622D01*
X104487Y-77594D01*
X104458Y-77565D01*
X104430Y-77508D01*
X104430Y-77337D01*
X104458Y-77280D01*
X104487Y-77251D01*
X104544Y-77222D01*
X104658Y-77222D01*
X104715Y-77251D01*
X105001Y-77565D02*
X105030Y-77594D01*
X105001Y-77622D01*
X104972Y-77594D01*
X105001Y-77565D01*
X105001Y-77622D01*
X105001Y-77251D02*
X105030Y-77280D01*
X105001Y-77308D01*
X104972Y-77280D01*
X105001Y-77251D01*
X105001Y-77308D01*
X106058Y-77622D02*
X105715Y-77622D01*
X105887Y-77622D02*
X105887Y-77022D01*
X105829Y-77108D01*
X105772Y-77165D01*
X105715Y-77194D01*
X106744Y-76994D02*
X106230Y-77765D01*
X107258Y-77622D02*
X106915Y-77622D01*
X107087Y-77622D02*
X107087Y-77022D01*
X107029Y-77108D01*
X106972Y-77165D01*
X106915Y-77194D01*
X70969Y-74622D02*
X71312Y-74622D01*
X71065Y-75222D02*
X71140Y-74622D01*
X71437Y-75222D02*
X71487Y-74822D01*
X71512Y-74622D02*
X71480Y-74651D01*
X71505Y-74680D01*
X71537Y-74651D01*
X71512Y-74622D01*
X71505Y-74680D01*
X71687Y-74822D02*
X71915Y-74822D01*
X71797Y-74622D02*
X71733Y-75137D01*
X71755Y-75194D01*
X71808Y-75222D01*
X71865Y-75222D01*
X72151Y-75222D02*
X72097Y-75194D01*
X72076Y-75137D01*
X72140Y-74622D01*
X72612Y-75194D02*
X72551Y-75222D01*
X72437Y-75222D01*
X72383Y-75194D01*
X72362Y-75137D01*
X72390Y-74908D01*
X72426Y-74851D01*
X72487Y-74822D01*
X72601Y-74822D01*
X72655Y-74851D01*
X72676Y-74908D01*
X72669Y-74965D01*
X72376Y-75022D01*
X72901Y-75165D02*
X72926Y-75194D01*
X72894Y-75222D01*
X72869Y-75194D01*
X72901Y-75165D01*
X72894Y-75222D01*
X72940Y-74851D02*
X72965Y-74880D01*
X72933Y-74908D01*
X72908Y-74880D01*
X72940Y-74851D01*
X72933Y-74908D01*
X73637Y-75222D02*
X73712Y-74622D01*
X73858Y-75051D01*
X74112Y-74622D01*
X74037Y-75222D01*
X74315Y-74822D02*
X74408Y-75222D01*
X74601Y-74822D02*
X74408Y-75222D01*
X74333Y-75365D01*
X74301Y-75394D01*
X74240Y-75422D01*
X74780Y-75222D02*
X74830Y-74822D01*
X74815Y-74937D02*
X74851Y-74880D01*
X74883Y-74851D01*
X74944Y-74822D01*
X75001Y-74822D01*
X75151Y-75222D02*
X75201Y-74822D01*
X75226Y-74622D02*
X75194Y-74651D01*
X75219Y-74680D01*
X75251Y-74651D01*
X75226Y-74622D01*
X75219Y-74680D01*
X75694Y-75222D02*
X75733Y-74908D01*
X75712Y-74851D01*
X75658Y-74822D01*
X75544Y-74822D01*
X75483Y-74851D01*
X75697Y-75194D02*
X75637Y-75222D01*
X75494Y-75222D01*
X75440Y-75194D01*
X75419Y-75137D01*
X75426Y-75080D01*
X75462Y-75022D01*
X75522Y-74994D01*
X75665Y-74994D01*
X75726Y-74965D01*
X76237Y-75222D02*
X76312Y-74622D01*
X76240Y-75194D02*
X76180Y-75222D01*
X76065Y-75222D01*
X76012Y-75194D01*
X75987Y-75165D01*
X75965Y-75108D01*
X75987Y-74937D01*
X76022Y-74880D01*
X76055Y-74851D01*
X76115Y-74822D01*
X76230Y-74822D01*
X76283Y-74851D01*
X77322Y-75222D02*
X77158Y-74937D01*
X76980Y-75222D02*
X77055Y-74622D01*
X77283Y-74622D01*
X77337Y-74651D01*
X77362Y-74680D01*
X77383Y-74737D01*
X77372Y-74822D01*
X77337Y-74880D01*
X77305Y-74908D01*
X77244Y-74937D01*
X77015Y-74937D01*
X77819Y-74908D02*
X77619Y-74908D01*
X77580Y-75222D02*
X77655Y-74622D01*
X77940Y-74622D01*
X78544Y-74822D02*
X78637Y-75222D01*
X78830Y-74822D01*
X79015Y-75165D02*
X79040Y-75194D01*
X79008Y-75222D01*
X78983Y-75194D01*
X79015Y-75165D01*
X79008Y-75222D01*
X79608Y-75222D02*
X79265Y-75222D01*
X79437Y-75222D02*
X79512Y-74622D01*
X79444Y-74708D01*
X79380Y-74765D01*
X79319Y-74794D01*
X71172Y-72508D02*
X70972Y-72508D01*
X70972Y-72822D02*
X70972Y-72222D01*
X71258Y-72222D01*
X71487Y-72822D02*
X71487Y-72422D01*
X71487Y-72222D02*
X71458Y-72251D01*
X71487Y-72280D01*
X71515Y-72251D01*
X71487Y-72222D01*
X71487Y-72280D01*
X71858Y-72822D02*
X71801Y-72794D01*
X71772Y-72737D01*
X71772Y-72222D01*
X72315Y-72794D02*
X72258Y-72822D01*
X72144Y-72822D01*
X72087Y-72794D01*
X72058Y-72737D01*
X72058Y-72508D01*
X72087Y-72451D01*
X72144Y-72422D01*
X72258Y-72422D01*
X72315Y-72451D01*
X72344Y-72508D01*
X72344Y-72565D01*
X72058Y-72622D01*
X72601Y-72765D02*
X72630Y-72794D01*
X72601Y-72822D01*
X72572Y-72794D01*
X72601Y-72765D01*
X72601Y-72822D01*
X72601Y-72451D02*
X72630Y-72480D01*
X72601Y-72508D01*
X72572Y-72480D01*
X72601Y-72451D01*
X72601Y-72508D01*
X73344Y-72822D02*
X73344Y-72222D01*
X73544Y-72651D01*
X73744Y-72222D01*
X73744Y-72822D01*
X74144Y-72537D02*
X74144Y-72822D01*
X73944Y-72222D02*
X74144Y-72537D01*
X74344Y-72222D01*
X74887Y-72822D02*
X74687Y-72537D01*
X74544Y-72822D02*
X74544Y-72222D01*
X74772Y-72222D01*
X74830Y-72251D01*
X74858Y-72280D01*
X74887Y-72337D01*
X74887Y-72422D01*
X74858Y-72480D01*
X74830Y-72508D01*
X74772Y-72537D01*
X74544Y-72537D01*
X75144Y-72822D02*
X75144Y-72222D01*
X75401Y-72651D02*
X75687Y-72651D01*
X75344Y-72822D02*
X75544Y-72222D01*
X75744Y-72822D01*
X75944Y-72822D02*
X75944Y-72222D01*
X76087Y-72222D01*
X76172Y-72251D01*
X76230Y-72308D01*
X76258Y-72365D01*
X76287Y-72480D01*
X76287Y-72565D01*
X76258Y-72680D01*
X76230Y-72737D01*
X76172Y-72794D01*
X76087Y-72822D01*
X75944Y-72822D01*
X76401Y-72880D02*
X76858Y-72880D01*
X77344Y-72822D02*
X77144Y-72537D01*
X77001Y-72822D02*
X77001Y-72222D01*
X77230Y-72222D01*
X77287Y-72251D01*
X77315Y-72280D01*
X77344Y-72337D01*
X77344Y-72422D01*
X77315Y-72480D01*
X77287Y-72508D01*
X77230Y-72537D01*
X77001Y-72537D01*
X77801Y-72508D02*
X77601Y-72508D01*
X77601Y-72822D02*
X77601Y-72222D01*
X77887Y-72222D01*
X78115Y-72765D02*
X78144Y-72794D01*
X78115Y-72822D01*
X78087Y-72794D01*
X78115Y-72765D01*
X78115Y-72822D01*
X78401Y-72822D02*
X78401Y-72222D01*
X78401Y-72451D02*
X78458Y-72422D01*
X78572Y-72422D01*
X78630Y-72451D01*
X78658Y-72480D01*
X78687Y-72537D01*
X78687Y-72708D01*
X78658Y-72765D01*
X78630Y-72794D01*
X78572Y-72822D01*
X78458Y-72822D01*
X78401Y-72794D01*
X78944Y-72822D02*
X78944Y-72422D01*
X78944Y-72537D02*
X78972Y-72480D01*
X79001Y-72451D01*
X79058Y-72422D01*
X79115Y-72422D01*
X79572Y-72822D02*
X79572Y-72222D01*
X79572Y-72794D02*
X79515Y-72822D01*
X79401Y-72822D01*
X79344Y-72794D01*
X79315Y-72765D01*
X79287Y-72708D01*
X79287Y-72537D01*
X79315Y-72480D01*
X79344Y-72451D01*
X79401Y-72422D01*
X79515Y-72422D01*
X79572Y-72451D01*
X70944Y-73994D02*
X71030Y-74022D01*
X71172Y-74022D01*
X71230Y-73994D01*
X71258Y-73965D01*
X71287Y-73908D01*
X71287Y-73851D01*
X71258Y-73794D01*
X71230Y-73765D01*
X71172Y-73737D01*
X71058Y-73708D01*
X71001Y-73680D01*
X70972Y-73651D01*
X70944Y-73594D01*
X70944Y-73537D01*
X70972Y-73480D01*
X71001Y-73451D01*
X71058Y-73422D01*
X71201Y-73422D01*
X71287Y-73451D01*
X71544Y-74022D02*
X71544Y-73422D01*
X71801Y-74022D02*
X71801Y-73708D01*
X71772Y-73651D01*
X71715Y-73622D01*
X71630Y-73622D01*
X71572Y-73651D01*
X71544Y-73680D01*
X72315Y-73994D02*
X72258Y-74022D01*
X72144Y-74022D01*
X72087Y-73994D01*
X72058Y-73937D01*
X72058Y-73708D01*
X72087Y-73651D01*
X72144Y-73622D01*
X72258Y-73622D01*
X72315Y-73651D01*
X72344Y-73708D01*
X72344Y-73765D01*
X72058Y-73822D01*
X72830Y-73994D02*
X72772Y-74022D01*
X72658Y-74022D01*
X72601Y-73994D01*
X72572Y-73937D01*
X72572Y-73708D01*
X72601Y-73651D01*
X72658Y-73622D01*
X72772Y-73622D01*
X72830Y-73651D01*
X72858Y-73708D01*
X72858Y-73765D01*
X72572Y-73822D01*
X73030Y-73622D02*
X73258Y-73622D01*
X73115Y-73422D02*
X73115Y-73937D01*
X73144Y-73994D01*
X73201Y-74022D01*
X73258Y-74022D01*
X73458Y-73965D02*
X73487Y-73994D01*
X73458Y-74022D01*
X73430Y-73994D01*
X73458Y-73965D01*
X73458Y-74022D01*
X73458Y-73651D02*
X73487Y-73680D01*
X73458Y-73708D01*
X73430Y-73680D01*
X73458Y-73651D01*
X73458Y-73708D01*
X70887Y-69822D02*
X71230Y-69822D01*
X71058Y-70422D02*
X71058Y-69822D01*
X71430Y-70422D02*
X71430Y-69822D01*
X71430Y-70108D02*
X71772Y-70108D01*
X71772Y-70422D02*
X71772Y-69822D01*
X72058Y-70422D02*
X72058Y-69822D01*
X72315Y-70394D02*
X72401Y-70422D01*
X72544Y-70422D01*
X72601Y-70394D01*
X72629Y-70365D01*
X72658Y-70308D01*
X72658Y-70251D01*
X72629Y-70194D01*
X72601Y-70165D01*
X72544Y-70137D01*
X72429Y-70108D01*
X72372Y-70080D01*
X72344Y-70051D01*
X72315Y-69994D01*
X72315Y-69937D01*
X72344Y-69880D01*
X72372Y-69851D01*
X72429Y-69822D01*
X72572Y-69822D01*
X72658Y-69851D01*
X73315Y-69822D02*
X73458Y-70422D01*
X73572Y-69994D01*
X73687Y-70422D01*
X73830Y-69822D01*
X74172Y-69822D02*
X74287Y-69822D01*
X74344Y-69851D01*
X74401Y-69908D01*
X74430Y-70022D01*
X74430Y-70222D01*
X74401Y-70337D01*
X74344Y-70394D01*
X74287Y-70422D01*
X74172Y-70422D01*
X74115Y-70394D01*
X74058Y-70337D01*
X74030Y-70222D01*
X74030Y-70022D01*
X74058Y-69908D01*
X74115Y-69851D01*
X74172Y-69822D01*
X75029Y-70422D02*
X74829Y-70137D01*
X74687Y-70422D02*
X74687Y-69822D01*
X74915Y-69822D01*
X74972Y-69851D01*
X75001Y-69880D01*
X75029Y-69937D01*
X75029Y-70022D01*
X75001Y-70080D01*
X74972Y-70108D01*
X74915Y-70137D01*
X74687Y-70137D01*
X75287Y-70422D02*
X75287Y-69822D01*
X75629Y-70422D02*
X75372Y-70080D01*
X75629Y-69822D02*
X75287Y-70165D01*
X76344Y-70422D02*
X76344Y-69822D01*
X76601Y-70394D02*
X76687Y-70422D01*
X76829Y-70422D01*
X76887Y-70394D01*
X76915Y-70365D01*
X76944Y-70308D01*
X76944Y-70251D01*
X76915Y-70194D01*
X76887Y-70165D01*
X76829Y-70137D01*
X76715Y-70108D01*
X76658Y-70080D01*
X76629Y-70051D01*
X76601Y-69994D01*
X76601Y-69937D01*
X76629Y-69880D01*
X76658Y-69851D01*
X76715Y-69822D01*
X76858Y-69822D01*
X76944Y-69851D01*
X78001Y-70365D02*
X77972Y-70394D01*
X77887Y-70422D01*
X77830Y-70422D01*
X77744Y-70394D01*
X77687Y-70337D01*
X77658Y-70280D01*
X77630Y-70165D01*
X77630Y-70080D01*
X77658Y-69965D01*
X77687Y-69908D01*
X77744Y-69851D01*
X77830Y-69822D01*
X77887Y-69822D01*
X77972Y-69851D01*
X78001Y-69880D01*
X78372Y-69822D02*
X78487Y-69822D01*
X78544Y-69851D01*
X78601Y-69908D01*
X78630Y-70022D01*
X78630Y-70222D01*
X78601Y-70337D01*
X78544Y-70394D01*
X78487Y-70422D01*
X78372Y-70422D01*
X78315Y-70394D01*
X78258Y-70337D01*
X78230Y-70222D01*
X78230Y-70022D01*
X78258Y-69908D01*
X78315Y-69851D01*
X78372Y-69822D01*
X78801Y-69822D02*
X79001Y-70422D01*
X79201Y-69822D01*
X79401Y-70108D02*
X79601Y-70108D01*
X79687Y-70422D02*
X79401Y-70422D01*
X79401Y-69822D01*
X79687Y-69822D01*
X80287Y-70422D02*
X80087Y-70137D01*
X79944Y-70422D02*
X79944Y-69822D01*
X80172Y-69822D01*
X80229Y-69851D01*
X80258Y-69880D01*
X80287Y-69937D01*
X80287Y-70022D01*
X80258Y-70080D01*
X80229Y-70108D01*
X80172Y-70137D01*
X79944Y-70137D01*
X80544Y-70108D02*
X80744Y-70108D01*
X80829Y-70422D02*
X80544Y-70422D01*
X80544Y-69822D01*
X80829Y-69822D01*
X81087Y-70422D02*
X81087Y-69822D01*
X81229Y-69822D01*
X81315Y-69851D01*
X81372Y-69908D01*
X81401Y-69965D01*
X81429Y-70080D01*
X81429Y-70165D01*
X81401Y-70280D01*
X81372Y-70337D01*
X81315Y-70394D01*
X81229Y-70422D01*
X81087Y-70422D01*
X82144Y-69822D02*
X82144Y-70308D01*
X82172Y-70365D01*
X82201Y-70394D01*
X82258Y-70422D01*
X82372Y-70422D01*
X82429Y-70394D01*
X82458Y-70365D01*
X82487Y-70308D01*
X82487Y-69822D01*
X82772Y-70422D02*
X82772Y-69822D01*
X83115Y-70422D01*
X83115Y-69822D01*
X83401Y-70422D02*
X83401Y-69822D01*
X83544Y-69822D01*
X83629Y-69851D01*
X83687Y-69908D01*
X83715Y-69965D01*
X83744Y-70080D01*
X83744Y-70165D01*
X83715Y-70280D01*
X83687Y-70337D01*
X83629Y-70394D01*
X83544Y-70422D01*
X83401Y-70422D01*
X84001Y-70108D02*
X84201Y-70108D01*
X84287Y-70422D02*
X84001Y-70422D01*
X84001Y-69822D01*
X84287Y-69822D01*
X84887Y-70422D02*
X84687Y-70137D01*
X84544Y-70422D02*
X84544Y-69822D01*
X84772Y-69822D01*
X84829Y-69851D01*
X84858Y-69880D01*
X84887Y-69937D01*
X84887Y-70022D01*
X84858Y-70080D01*
X84829Y-70108D01*
X84772Y-70137D01*
X84544Y-70137D01*
X85572Y-70251D02*
X85858Y-70251D01*
X85515Y-70422D02*
X85715Y-69822D01*
X85915Y-70422D01*
X86915Y-70365D02*
X86887Y-70394D01*
X86801Y-70422D01*
X86744Y-70422D01*
X86658Y-70394D01*
X86601Y-70337D01*
X86572Y-70280D01*
X86544Y-70165D01*
X86544Y-70080D01*
X86572Y-69965D01*
X86601Y-69908D01*
X86658Y-69851D01*
X86744Y-69822D01*
X86801Y-69822D01*
X86887Y-69851D01*
X86915Y-69880D01*
X87515Y-70422D02*
X87315Y-70137D01*
X87172Y-70422D02*
X87172Y-69822D01*
X87401Y-69822D01*
X87458Y-69851D01*
X87487Y-69880D01*
X87515Y-69937D01*
X87515Y-70022D01*
X87487Y-70080D01*
X87458Y-70108D01*
X87401Y-70137D01*
X87172Y-70137D01*
X87772Y-70108D02*
X87972Y-70108D01*
X88058Y-70422D02*
X87772Y-70422D01*
X87772Y-69822D01*
X88058Y-69822D01*
X88287Y-70251D02*
X88572Y-70251D01*
X88229Y-70422D02*
X88429Y-69822D01*
X88629Y-70422D01*
X88744Y-69822D02*
X89087Y-69822D01*
X88915Y-70422D02*
X88915Y-69822D01*
X89287Y-70422D02*
X89287Y-69822D01*
X89487Y-69822D02*
X89687Y-70422D01*
X89887Y-69822D01*
X90087Y-70108D02*
X90287Y-70108D01*
X90372Y-70422D02*
X90087Y-70422D01*
X90087Y-69822D01*
X90372Y-69822D01*
X91429Y-70365D02*
X91401Y-70394D01*
X91315Y-70422D01*
X91258Y-70422D01*
X91172Y-70394D01*
X91115Y-70337D01*
X91087Y-70280D01*
X91058Y-70165D01*
X91058Y-70080D01*
X91087Y-69965D01*
X91115Y-69908D01*
X91172Y-69851D01*
X91258Y-69822D01*
X91315Y-69822D01*
X91401Y-69851D01*
X91429Y-69880D01*
X91801Y-69822D02*
X91915Y-69822D01*
X91972Y-69851D01*
X92029Y-69908D01*
X92058Y-70022D01*
X92058Y-70222D01*
X92029Y-70337D01*
X91972Y-70394D01*
X91915Y-70422D01*
X91801Y-70422D01*
X91744Y-70394D01*
X91687Y-70337D01*
X91658Y-70222D01*
X91658Y-70022D01*
X91687Y-69908D01*
X91744Y-69851D01*
X91801Y-69822D01*
X92315Y-70422D02*
X92315Y-69822D01*
X92515Y-70251D01*
X92715Y-69822D01*
X92715Y-70422D01*
X93001Y-70422D02*
X93001Y-69822D01*
X93201Y-70251D01*
X93401Y-69822D01*
X93401Y-70422D01*
X93801Y-69822D02*
X93915Y-69822D01*
X93972Y-69851D01*
X94029Y-69908D01*
X94058Y-70022D01*
X94058Y-70222D01*
X94029Y-70337D01*
X93972Y-70394D01*
X93915Y-70422D01*
X93801Y-70422D01*
X93744Y-70394D01*
X93687Y-70337D01*
X93658Y-70222D01*
X93658Y-70022D01*
X93687Y-69908D01*
X93744Y-69851D01*
X93801Y-69822D01*
X94315Y-70422D02*
X94315Y-69822D01*
X94658Y-70422D01*
X94658Y-69822D01*
X94915Y-70394D02*
X95001Y-70422D01*
X95144Y-70422D01*
X95201Y-70394D01*
X95229Y-70365D01*
X95258Y-70308D01*
X95258Y-70251D01*
X95229Y-70194D01*
X95201Y-70165D01*
X95144Y-70137D01*
X95029Y-70108D01*
X94972Y-70080D01*
X94944Y-70051D01*
X94915Y-69994D01*
X94915Y-69937D01*
X94944Y-69880D01*
X94972Y-69851D01*
X95029Y-69822D01*
X95172Y-69822D01*
X95258Y-69851D01*
X96258Y-70422D02*
X95972Y-70422D01*
X95972Y-69822D01*
X96458Y-70422D02*
X96458Y-69822D01*
X97087Y-70365D02*
X97058Y-70394D01*
X96972Y-70422D01*
X96915Y-70422D01*
X96829Y-70394D01*
X96772Y-70337D01*
X96744Y-70280D01*
X96715Y-70165D01*
X96715Y-70080D01*
X96744Y-69965D01*
X96772Y-69908D01*
X96829Y-69851D01*
X96915Y-69822D01*
X96972Y-69822D01*
X97058Y-69851D01*
X97087Y-69880D01*
X97344Y-70108D02*
X97544Y-70108D01*
X97629Y-70422D02*
X97344Y-70422D01*
X97344Y-69822D01*
X97629Y-69822D01*
X97887Y-70422D02*
X97887Y-69822D01*
X98229Y-70422D01*
X98229Y-69822D01*
X98487Y-70394D02*
X98572Y-70422D01*
X98715Y-70422D01*
X98772Y-70394D01*
X98801Y-70365D01*
X98829Y-70308D01*
X98829Y-70251D01*
X98801Y-70194D01*
X98772Y-70165D01*
X98715Y-70137D01*
X98601Y-70108D01*
X98544Y-70080D01*
X98515Y-70051D01*
X98487Y-69994D01*
X98487Y-69937D01*
X98515Y-69880D01*
X98544Y-69851D01*
X98601Y-69822D01*
X98744Y-69822D01*
X98829Y-69851D01*
X99087Y-70108D02*
X99287Y-70108D01*
X99372Y-70422D02*
X99087Y-70422D01*
X99087Y-69822D01*
X99372Y-69822D01*
X100258Y-70651D02*
X100229Y-70622D01*
X100172Y-70537D01*
X100144Y-70480D01*
X100115Y-70394D01*
X100087Y-70251D01*
X100087Y-70137D01*
X100115Y-69994D01*
X100144Y-69908D01*
X100172Y-69851D01*
X100229Y-69765D01*
X100258Y-69737D01*
X100829Y-70365D02*
X100801Y-70394D01*
X100715Y-70422D01*
X100658Y-70422D01*
X100572Y-70394D01*
X100515Y-70337D01*
X100487Y-70280D01*
X100458Y-70165D01*
X100458Y-70080D01*
X100487Y-69965D01*
X100515Y-69908D01*
X100572Y-69851D01*
X100658Y-69822D01*
X100715Y-69822D01*
X100801Y-69851D01*
X100829Y-69880D01*
X101429Y-70365D02*
X101401Y-70394D01*
X101315Y-70422D01*
X101258Y-70422D01*
X101172Y-70394D01*
X101115Y-70337D01*
X101087Y-70280D01*
X101058Y-70165D01*
X101058Y-70080D01*
X101087Y-69965D01*
X101115Y-69908D01*
X101172Y-69851D01*
X101258Y-69822D01*
X101315Y-69822D01*
X101401Y-69851D01*
X101429Y-69880D01*
X102344Y-70108D02*
X102429Y-70137D01*
X102458Y-70165D01*
X102487Y-70222D01*
X102487Y-70308D01*
X102458Y-70365D01*
X102429Y-70394D01*
X102372Y-70422D01*
X102144Y-70422D01*
X102144Y-69822D01*
X102344Y-69822D01*
X102401Y-69851D01*
X102429Y-69880D01*
X102458Y-69937D01*
X102458Y-69994D01*
X102429Y-70051D01*
X102401Y-70080D01*
X102344Y-70108D01*
X102144Y-70108D01*
X102858Y-70137D02*
X102858Y-70422D01*
X102658Y-69822D02*
X102858Y-70137D01*
X103058Y-69822D01*
X103658Y-69822D02*
X104029Y-69822D01*
X103829Y-70051D01*
X103915Y-70051D01*
X103972Y-70080D01*
X104001Y-70108D01*
X104029Y-70165D01*
X104029Y-70308D01*
X104001Y-70365D01*
X103972Y-70394D01*
X103915Y-70422D01*
X103744Y-70422D01*
X103687Y-70394D01*
X103658Y-70365D01*
X104287Y-70365D02*
X104315Y-70394D01*
X104287Y-70422D01*
X104258Y-70394D01*
X104287Y-70365D01*
X104287Y-70422D01*
X104687Y-69822D02*
X104744Y-69822D01*
X104801Y-69851D01*
X104829Y-69880D01*
X104858Y-69937D01*
X104887Y-70051D01*
X104887Y-70194D01*
X104858Y-70308D01*
X104829Y-70365D01*
X104801Y-70394D01*
X104744Y-70422D01*
X104687Y-70422D01*
X104629Y-70394D01*
X104601Y-70365D01*
X104572Y-70308D01*
X104544Y-70194D01*
X104544Y-70051D01*
X104572Y-69937D01*
X104601Y-69880D01*
X104629Y-69851D01*
X104687Y-69822D01*
X105087Y-70651D02*
X105115Y-70622D01*
X105172Y-70537D01*
X105201Y-70480D01*
X105229Y-70394D01*
X105258Y-70251D01*
X105258Y-70137D01*
X105229Y-69994D01*
X105201Y-69908D01*
X105172Y-69851D01*
X105115Y-69765D01*
X105087Y-69737D01*
X71315Y-69165D02*
X71287Y-69194D01*
X71201Y-69222D01*
X71144Y-69222D01*
X71058Y-69194D01*
X71001Y-69137D01*
X70972Y-69080D01*
X70944Y-68965D01*
X70944Y-68880D01*
X70972Y-68765D01*
X71001Y-68708D01*
X71058Y-68651D01*
X71144Y-68622D01*
X71201Y-68622D01*
X71287Y-68651D01*
X71315Y-68680D01*
X71658Y-69222D02*
X71601Y-69194D01*
X71572Y-69165D01*
X71544Y-69108D01*
X71544Y-68937D01*
X71572Y-68880D01*
X71601Y-68851D01*
X71658Y-68822D01*
X71744Y-68822D01*
X71801Y-68851D01*
X71830Y-68880D01*
X71858Y-68937D01*
X71858Y-69108D01*
X71830Y-69165D01*
X71801Y-69194D01*
X71744Y-69222D01*
X71658Y-69222D01*
X72115Y-68822D02*
X72115Y-69422D01*
X72115Y-68851D02*
X72172Y-68822D01*
X72287Y-68822D01*
X72344Y-68851D01*
X72372Y-68880D01*
X72401Y-68937D01*
X72401Y-69108D01*
X72372Y-69165D01*
X72344Y-69194D01*
X72287Y-69222D01*
X72172Y-69222D01*
X72115Y-69194D01*
X72601Y-68822D02*
X72744Y-69222D01*
X72887Y-68822D02*
X72744Y-69222D01*
X72687Y-69365D01*
X72658Y-69394D01*
X72601Y-69422D01*
X73115Y-69222D02*
X73115Y-68822D01*
X73115Y-68937D02*
X73144Y-68880D01*
X73172Y-68851D01*
X73230Y-68822D01*
X73287Y-68822D01*
X73487Y-69222D02*
X73487Y-68822D01*
X73487Y-68622D02*
X73458Y-68651D01*
X73487Y-68680D01*
X73515Y-68651D01*
X73487Y-68622D01*
X73487Y-68680D01*
X74030Y-68822D02*
X74030Y-69308D01*
X74001Y-69365D01*
X73972Y-69394D01*
X73915Y-69422D01*
X73830Y-69422D01*
X73772Y-69394D01*
X74030Y-69194D02*
X73972Y-69222D01*
X73858Y-69222D01*
X73801Y-69194D01*
X73772Y-69165D01*
X73744Y-69108D01*
X73744Y-68937D01*
X73772Y-68880D01*
X73801Y-68851D01*
X73858Y-68822D01*
X73972Y-68822D01*
X74030Y-68851D01*
X74315Y-69222D02*
X74315Y-68622D01*
X74572Y-69222D02*
X74572Y-68908D01*
X74544Y-68851D01*
X74487Y-68822D01*
X74401Y-68822D01*
X74344Y-68851D01*
X74315Y-68880D01*
X74772Y-68822D02*
X75001Y-68822D01*
X74858Y-68622D02*
X74858Y-69137D01*
X74887Y-69194D01*
X74944Y-69222D01*
X75001Y-69222D01*
X75630Y-68680D02*
X75658Y-68651D01*
X75715Y-68622D01*
X75858Y-68622D01*
X75915Y-68651D01*
X75944Y-68680D01*
X75972Y-68737D01*
X75972Y-68794D01*
X75944Y-68880D01*
X75601Y-69222D01*
X75972Y-69222D01*
X76344Y-68622D02*
X76401Y-68622D01*
X76458Y-68651D01*
X76487Y-68680D01*
X76515Y-68737D01*
X76544Y-68851D01*
X76544Y-68994D01*
X76515Y-69108D01*
X76487Y-69165D01*
X76458Y-69194D01*
X76401Y-69222D01*
X76344Y-69222D01*
X76287Y-69194D01*
X76258Y-69165D01*
X76230Y-69108D01*
X76201Y-68994D01*
X76201Y-68851D01*
X76230Y-68737D01*
X76258Y-68680D01*
X76287Y-68651D01*
X76344Y-68622D01*
X77115Y-69222D02*
X76772Y-69222D01*
X76944Y-69222D02*
X76944Y-68622D01*
X76887Y-68708D01*
X76830Y-68765D01*
X76772Y-68794D01*
X77315Y-68622D02*
X77687Y-68622D01*
X77487Y-68851D01*
X77572Y-68851D01*
X77630Y-68880D01*
X77658Y-68908D01*
X77687Y-68965D01*
X77687Y-69108D01*
X77658Y-69165D01*
X77630Y-69194D01*
X77572Y-69222D01*
X77401Y-69222D01*
X77344Y-69194D01*
X77315Y-69165D01*
X78372Y-69051D02*
X78658Y-69051D01*
X78315Y-69222D02*
X78515Y-68622D01*
X78715Y-69222D01*
X78858Y-68622D02*
X79258Y-68622D01*
X78858Y-69222D01*
X79258Y-69222D01*
X79487Y-69222D02*
X79487Y-68622D01*
X79887Y-68622D02*
X80001Y-68622D01*
X80058Y-68651D01*
X80115Y-68708D01*
X80144Y-68822D01*
X80144Y-69022D01*
X80115Y-69137D01*
X80058Y-69194D01*
X80001Y-69222D01*
X79887Y-69222D01*
X79830Y-69194D01*
X79772Y-69137D01*
X79744Y-69022D01*
X79744Y-68822D01*
X79772Y-68708D01*
X79830Y-68651D01*
X79887Y-68622D01*
X80858Y-68908D02*
X81058Y-68908D01*
X81144Y-69222D02*
X80858Y-69222D01*
X80858Y-68622D01*
X81144Y-68622D01*
X81487Y-69222D02*
X81430Y-69194D01*
X81401Y-69137D01*
X81401Y-68622D01*
X81944Y-69194D02*
X81887Y-69222D01*
X81772Y-69222D01*
X81715Y-69194D01*
X81687Y-69137D01*
X81687Y-68908D01*
X81715Y-68851D01*
X81772Y-68822D01*
X81887Y-68822D01*
X81944Y-68851D01*
X81972Y-68908D01*
X81972Y-68965D01*
X81687Y-69022D01*
X82487Y-69194D02*
X82430Y-69222D01*
X82315Y-69222D01*
X82258Y-69194D01*
X82230Y-69165D01*
X82201Y-69108D01*
X82201Y-68937D01*
X82230Y-68880D01*
X82258Y-68851D01*
X82315Y-68822D01*
X82430Y-68822D01*
X82487Y-68851D01*
X82658Y-68822D02*
X82887Y-68822D01*
X82744Y-68622D02*
X82744Y-69137D01*
X82772Y-69194D01*
X82830Y-69222D01*
X82887Y-69222D01*
X83087Y-69222D02*
X83087Y-68822D01*
X83087Y-68937D02*
X83115Y-68880D01*
X83144Y-68851D01*
X83201Y-68822D01*
X83258Y-68822D01*
X83544Y-69222D02*
X83487Y-69194D01*
X83458Y-69165D01*
X83430Y-69108D01*
X83430Y-68937D01*
X83458Y-68880D01*
X83487Y-68851D01*
X83544Y-68822D01*
X83630Y-68822D01*
X83687Y-68851D01*
X83715Y-68880D01*
X83744Y-68937D01*
X83744Y-69108D01*
X83715Y-69165D01*
X83687Y-69194D01*
X83630Y-69222D01*
X83544Y-69222D01*
X84001Y-68822D02*
X84001Y-69222D01*
X84001Y-68880D02*
X84030Y-68851D01*
X84087Y-68822D01*
X84172Y-68822D01*
X84230Y-68851D01*
X84258Y-68908D01*
X84258Y-69222D01*
X84544Y-69222D02*
X84544Y-68822D01*
X84544Y-68622D02*
X84515Y-68651D01*
X84544Y-68680D01*
X84572Y-68651D01*
X84544Y-68622D01*
X84544Y-68680D01*
X85087Y-69194D02*
X85030Y-69222D01*
X84915Y-69222D01*
X84858Y-69194D01*
X84830Y-69165D01*
X84801Y-69108D01*
X84801Y-68937D01*
X84830Y-68880D01*
X84858Y-68851D01*
X84915Y-68822D01*
X85030Y-68822D01*
X85087Y-68851D01*
X85315Y-69194D02*
X85372Y-69222D01*
X85487Y-69222D01*
X85544Y-69194D01*
X85572Y-69137D01*
X85572Y-69108D01*
X85544Y-69051D01*
X85487Y-69022D01*
X85401Y-69022D01*
X85344Y-68994D01*
X85315Y-68937D01*
X85315Y-68908D01*
X85344Y-68851D01*
X85401Y-68822D01*
X85487Y-68822D01*
X85544Y-68851D01*
X86630Y-69165D02*
X86601Y-69194D01*
X86515Y-69222D01*
X86458Y-69222D01*
X86372Y-69194D01*
X86315Y-69137D01*
X86287Y-69080D01*
X86258Y-68965D01*
X86258Y-68880D01*
X86287Y-68765D01*
X86315Y-68708D01*
X86372Y-68651D01*
X86458Y-68622D01*
X86515Y-68622D01*
X86601Y-68651D01*
X86630Y-68680D01*
X86972Y-69222D02*
X86915Y-69194D01*
X86887Y-69165D01*
X86858Y-69108D01*
X86858Y-68937D01*
X86887Y-68880D01*
X86915Y-68851D01*
X86972Y-68822D01*
X87058Y-68822D01*
X87115Y-68851D01*
X87144Y-68880D01*
X87172Y-68937D01*
X87172Y-69108D01*
X87144Y-69165D01*
X87115Y-69194D01*
X87058Y-69222D01*
X86972Y-69222D01*
X87430Y-69165D02*
X87458Y-69194D01*
X87430Y-69222D01*
X87401Y-69194D01*
X87430Y-69165D01*
X87430Y-69222D01*
X87744Y-69194D02*
X87744Y-69222D01*
X87715Y-69280D01*
X87687Y-69308D01*
X88744Y-69222D02*
X88458Y-69222D01*
X88458Y-68622D01*
X88858Y-68822D02*
X89087Y-68822D01*
X88944Y-68622D02*
X88944Y-69137D01*
X88972Y-69194D01*
X89030Y-69222D01*
X89087Y-69222D01*
X89544Y-69222D02*
X89544Y-68622D01*
X89544Y-69194D02*
X89487Y-69222D01*
X89372Y-69222D01*
X89315Y-69194D01*
X89287Y-69165D01*
X89258Y-69108D01*
X89258Y-68937D01*
X89287Y-68880D01*
X89315Y-68851D01*
X89372Y-68822D01*
X89487Y-68822D01*
X89544Y-68851D01*
X89830Y-69165D02*
X89858Y-69194D01*
X89830Y-69222D01*
X89801Y-69194D01*
X89830Y-69165D01*
X89830Y-69222D01*
X70230Y-68380D02*
X70230Y-77980D01*
X70230Y-71980D02*
X112230Y-71980D01*
X70230Y-68380D02*
X112230Y-68380D01*
X70230Y-74380D02*
X112230Y-74380D01*
X103430Y-75580D02*
X103430Y-77980D01*
X70230Y-76780D02*
X112230Y-76780D01*
X70230Y-75580D02*
X112230Y-75580D01*
X76830Y-75580D02*
X76830Y-76780D01*
G54D11*
X42606Y-52483D02*
X42606Y-27680D01*
X68983Y-52483D02*
X42606Y-52483D01*
X68983Y-27680D02*
X68983Y-52483D01*
X42606Y-27680D02*
X68983Y-27680D01*
X66228Y-30437D02*
X66228Y-39492D01*
X57764Y-30437D02*
X66228Y-30437D01*
X57764Y-29650D02*
X57764Y-30437D01*
X67016Y-29650D02*
X57764Y-29650D01*
X67016Y-39492D02*
X67016Y-29650D01*
X66228Y-39492D02*
X67016Y-39492D01*
X57764Y-50515D02*
X57764Y-49728D01*
X67016Y-50515D02*
X57764Y-50515D01*
X67016Y-40948D02*
X67016Y-50515D01*
X66228Y-40948D02*
X67016Y-40948D01*
X66228Y-49728D02*
X66228Y-40948D01*
X57764Y-49728D02*
X66228Y-49728D01*
X46936Y-50515D02*
X46936Y-44413D01*
X56386Y-50515D02*
X46936Y-50515D01*
X56386Y-49728D02*
X56386Y-50515D01*
X47724Y-49728D02*
X56386Y-49728D01*
X47724Y-44413D02*
X47724Y-49728D01*
X46936Y-44413D02*
X47724Y-44413D01*
X46936Y-43390D02*
X46936Y-35555D01*
X47724Y-43390D02*
X46936Y-43390D01*
X47724Y-35555D02*
X47724Y-43390D01*
X46936Y-35555D02*
X47724Y-35555D01*
X47724Y-30437D02*
X47724Y-34570D01*
X46936Y-34570D02*
X47724Y-34570D01*
X46936Y-29648D02*
X46936Y-34570D01*
X46936Y-29648D02*
X56384Y-29648D01*
X56384Y-29648D02*
X56384Y-30437D01*
X47724Y-30437D02*
X56384Y-30437D01*
G54D12*
X49881Y-33858D03*
X49881Y-33543D03*
X50314Y-33385D03*
X50944Y-33228D03*
X48503Y-33188D03*
X48779Y-33149D03*
X51259Y-32913D03*
X51259Y-33228D03*
X49251Y-33858D03*
X49251Y-33543D03*
X49566Y-33543D03*
X49566Y-33858D03*
X48937Y-33858D03*
X48937Y-33543D03*
X48622Y-33543D03*
X48622Y-33858D03*
X52125Y-33622D03*
X52992Y-32716D03*
X52322Y-32952D03*
X52322Y-33267D03*
X54251Y-33346D03*
X54251Y-33031D03*
X52637Y-32952D03*
X52637Y-33267D03*
X61732Y-33779D03*
X54645Y-33818D03*
X61417Y-33779D03*
X54330Y-33818D03*
X54566Y-33031D03*
X54566Y-33346D03*
X60236Y-33228D03*
X60590Y-33228D03*
X61220Y-33228D03*
X60905Y-33228D03*
X59606Y-33228D03*
X56692Y-33740D03*
X57007Y-33740D03*
X59921Y-33228D03*
X59291Y-33228D03*
X59330Y-33779D03*
X59015Y-33779D03*
X58976Y-33228D03*
X54960Y-33346D03*
X54960Y-33031D03*
X55275Y-33031D03*
X55275Y-33346D03*
X55905Y-33346D03*
X55905Y-33031D03*
X55590Y-33031D03*
X55590Y-33346D03*
X56850Y-33346D03*
X56850Y-33031D03*
X57165Y-33031D03*
X57165Y-33346D03*
X56535Y-33346D03*
X56535Y-33031D03*
X56220Y-33031D03*
X56220Y-33346D03*
X59685Y-31023D03*
X62677Y-31023D03*
X62992Y-31023D03*
X60000Y-31023D03*
X60629Y-31023D03*
X63622Y-31023D03*
X63307Y-31023D03*
X60314Y-31023D03*
X59055Y-31023D03*
X62047Y-31023D03*
X62362Y-31023D03*
X59370Y-31023D03*
X58740Y-31023D03*
X61732Y-31023D03*
X61417Y-31023D03*
X58425Y-31023D03*
X62165Y-33464D03*
X62165Y-33149D03*
X62480Y-33149D03*
X62480Y-33464D03*
X63188Y-33464D03*
X63188Y-33149D03*
X62795Y-33149D03*
X62795Y-33464D03*
X63976Y-31141D03*
X65866Y-31417D03*
X65669Y-33149D03*
X64251Y-30866D03*
X63818Y-33464D03*
X63818Y-33149D03*
X63503Y-33149D03*
X63503Y-33464D03*
X54291Y-31023D03*
X56968Y-31023D03*
X57283Y-31023D03*
X54606Y-31023D03*
X55236Y-31023D03*
X57913Y-31023D03*
X57598Y-31023D03*
X54921Y-31023D03*
X53661Y-31023D03*
X56338Y-31023D03*
X56653Y-31023D03*
X53976Y-31023D03*
X53346Y-31023D03*
X56023Y-31023D03*
X55708Y-31023D03*
X53031Y-31023D03*
X48937Y-30905D03*
X64606Y-30866D03*
X64921Y-30866D03*
X49251Y-30905D03*
X49881Y-30905D03*
X65905Y-32834D03*
X65236Y-30866D03*
X49566Y-30905D03*
X50748Y-31299D03*
X48700Y-34921D03*
X49015Y-34921D03*
X50866Y-32913D03*
X50590Y-30905D03*
X63582Y-32755D03*
X63267Y-32755D03*
X50275Y-30905D03*
X65905Y-33700D03*
X65866Y-36850D03*
X65275Y-33700D03*
X65236Y-36850D03*
X65551Y-36850D03*
X65590Y-33700D03*
X64960Y-33700D03*
X64921Y-36850D03*
X64606Y-36850D03*
X64645Y-33700D03*
X65590Y-46692D03*
X65590Y-46377D03*
X65905Y-46377D03*
X65905Y-46692D03*
X63976Y-46141D03*
X63976Y-45826D03*
X63661Y-45826D03*
X63661Y-46141D03*
X64842Y-46692D03*
X64842Y-46377D03*
X65157Y-46377D03*
X65157Y-46692D03*
X64527Y-46692D03*
X64527Y-46377D03*
X64212Y-46377D03*
X64212Y-46692D03*
X64960Y-43267D03*
X63700Y-43897D03*
X64015Y-43897D03*
X65275Y-43267D03*
X65905Y-43267D03*
X65314Y-49370D03*
X65000Y-49370D03*
X65590Y-43267D03*
X64645Y-43267D03*
X64291Y-49370D03*
X64606Y-49370D03*
X64015Y-43582D03*
X64330Y-43267D03*
X63976Y-49370D03*
X65629Y-49370D03*
X64015Y-43267D03*
X62322Y-49173D03*
X59724Y-49173D03*
X60039Y-49173D03*
X62637Y-49173D03*
X63267Y-49173D03*
X60669Y-49173D03*
X60354Y-49173D03*
X62952Y-49173D03*
X61692Y-49173D03*
X59094Y-49173D03*
X59409Y-49173D03*
X62007Y-49173D03*
X61377Y-49173D03*
X58779Y-49173D03*
X58464Y-49173D03*
X61062Y-49173D03*
X58346Y-48779D03*
X58346Y-48464D03*
X58346Y-47677D03*
X58346Y-47992D03*
X62283Y-47086D03*
X62283Y-46771D03*
X61968Y-46771D03*
X61968Y-47086D03*
X63385Y-47086D03*
X63385Y-46771D03*
X63700Y-46771D03*
X63700Y-47086D03*
X63070Y-47086D03*
X63070Y-46771D03*
X62598Y-46771D03*
X62598Y-47086D03*
X59094Y-46299D03*
X57401Y-46850D03*
X58070Y-46850D03*
X59409Y-46299D03*
X57007Y-46299D03*
X55748Y-46811D03*
X58582Y-46850D03*
X56692Y-46299D03*
X61417Y-46299D03*
X55039Y-46811D03*
X56496Y-46850D03*
X61732Y-46299D03*
X61102Y-46811D03*
X54488Y-47952D03*
X54173Y-47952D03*
X54212Y-48937D03*
X48503Y-48464D03*
X48503Y-46771D03*
X48858Y-46889D03*
X65826Y-39921D03*
X65826Y-40551D03*
X48464Y-47755D03*
X48543Y-47244D03*
X65826Y-40236D03*
X48110Y-48582D03*
X65787Y-41889D03*
X65787Y-42204D03*
X48110Y-48897D03*
X48110Y-48267D03*
X65787Y-41574D03*
X65787Y-41259D03*
X48110Y-47952D03*
X62519Y-47519D03*
X61535Y-47440D03*
X59448Y-47559D03*
X60551Y-47637D03*
X48779Y-49251D03*
X49094Y-49251D03*
X48425Y-49251D03*
X48110Y-49251D03*
X65905Y-48779D03*
X65551Y-49055D03*
X63464Y-47519D03*
X65905Y-49094D03*
X50393Y-46850D03*
X50708Y-46850D03*
X48779Y-48897D03*
X65787Y-40866D03*
X54566Y-42440D03*
X54015Y-41338D03*
X53779Y-37716D03*
X54055Y-37992D03*
X54173Y-39173D03*
X54645Y-38110D03*
X54330Y-37716D03*
X48149Y-35314D03*
X48149Y-34763D03*
X48149Y-35078D03*
X48149Y-35629D03*
X50000Y-35708D03*
X49133Y-36456D03*
X49015Y-35314D03*
X48700Y-35314D03*
X49842Y-38228D03*
X49251Y-38228D03*
X50118Y-37952D03*
X49527Y-37952D03*
X49842Y-39055D03*
X49330Y-39055D03*
X49133Y-36771D03*
X49606Y-36771D03*
X48149Y-33188D03*
X48149Y-30826D03*
X48149Y-31141D03*
X48149Y-33503D03*
X48149Y-34133D03*
X48149Y-34448D03*
X48149Y-31456D03*
X48149Y-33818D03*
X48149Y-32440D03*
X48464Y-32440D03*
X48464Y-32755D03*
X48149Y-32755D03*
X48149Y-32125D03*
X48464Y-32125D03*
X48464Y-31811D03*
X48149Y-31811D03*
X49291Y-40157D03*
X49881Y-40157D03*
X49881Y-39606D03*
X49330Y-39606D03*
X49291Y-41299D03*
X49803Y-41299D03*
X49881Y-40551D03*
X49291Y-40551D03*
X49685Y-42913D03*
X50000Y-42913D03*
X50000Y-43228D03*
X49685Y-43228D03*
X49330Y-41968D03*
X50000Y-41968D03*
X50039Y-41574D03*
X49566Y-41574D03*
X54173Y-49291D03*
X48779Y-45905D03*
X48110Y-45944D03*
X48110Y-46929D03*
X48110Y-47559D03*
X48110Y-46574D03*
X48110Y-46259D03*
X48110Y-47244D03*
X48110Y-45590D03*
X49291Y-43740D03*
X48779Y-45590D03*
X48464Y-45590D03*
X49685Y-43740D03*
X50000Y-43740D03*
X49291Y-42913D03*
X49291Y-43228D03*
X65826Y-37992D03*
X65826Y-38307D03*
X65826Y-38937D03*
X65826Y-38622D03*
X63110Y-37519D03*
X64330Y-36850D03*
X63110Y-37834D03*
X65826Y-39566D03*
X65826Y-39251D03*
X63582Y-34330D03*
X63897Y-34330D03*
X64330Y-33700D03*
X64173Y-33385D03*
X63582Y-34015D03*
X63897Y-34015D03*
X65393Y-33385D03*
X65905Y-33267D03*
X63622Y-36220D03*
X63937Y-36220D03*
X63937Y-36535D03*
X63622Y-36535D03*
X63582Y-42322D03*
X63582Y-40629D03*
X63937Y-36850D03*
X63622Y-36850D03*
X63582Y-43267D03*
X63582Y-41574D03*
X63582Y-41889D03*
X63582Y-43582D03*
X63582Y-42952D03*
X63582Y-41259D03*
X63582Y-40944D03*
X63582Y-42637D03*
X49291Y-46692D03*
X49409Y-49251D03*
X49724Y-49251D03*
X49606Y-46692D03*
X55157Y-48582D03*
X50314Y-49251D03*
X50039Y-49251D03*
X49921Y-46692D03*
X54527Y-48582D03*
X54527Y-48267D03*
X54842Y-48267D03*
X54842Y-48582D03*
X54212Y-48582D03*
X54212Y-48267D03*
X50629Y-49251D03*
X55472Y-48582D03*
X63543Y-38700D03*
X63543Y-40275D03*
X63110Y-39921D03*
X63149Y-42244D03*
X65669Y-46968D03*
X65866Y-47283D03*
X63110Y-40236D03*
X63149Y-42559D03*
X63543Y-38070D03*
X63543Y-39645D03*
X63543Y-39960D03*
X63543Y-38385D03*
X63543Y-37755D03*
X63543Y-39330D03*
X63543Y-39015D03*
X63543Y-37440D03*
X62027Y-44709D03*
X62224Y-44901D03*
G54D13*
X51929Y-49251D03*
X52834Y-49251D03*
X52362Y-49251D03*
X51574Y-49251D03*
X51358Y-47342D03*
X52362Y-45944D03*
X52775Y-45393D03*
X51988Y-45787D03*
X52755Y-45807D03*
X51968Y-45393D03*
X52834Y-47342D03*
X52834Y-48208D03*
X52834Y-48602D03*
X52834Y-47716D03*
X51358Y-48070D03*
X51358Y-48956D03*
X51358Y-48562D03*
X51358Y-47696D03*
X51673Y-47342D03*
X52460Y-47342D03*
X52421Y-47775D03*
X52047Y-47342D03*
X51811Y-48858D03*
X52421Y-48720D03*
X51850Y-48011D03*
X56102Y-43975D03*
G54D12*
X61386Y-35540D03*
X61024Y-35536D03*
X61024Y-35198D03*
X61394Y-35193D03*
G54D14*
X47725Y-34630D03*
X47725Y-35063D03*
X47725Y-35496D03*
X47725Y-44335D03*
X47725Y-43902D03*
X47725Y-43469D03*
X66268Y-39571D03*
X66268Y-40004D03*
X66268Y-40437D03*
X66268Y-40870D03*
G54D12*
X58185Y-40460D03*
X58185Y-40027D03*
X57968Y-40244D03*
X58401Y-40244D03*
X58618Y-40460D03*
X57752Y-40460D03*
X57319Y-40460D03*
X56886Y-40460D03*
X56669Y-40677D03*
X57102Y-40677D03*
X57539Y-40677D03*
X57968Y-40677D03*
X58401Y-40677D03*
X58834Y-40677D03*
X58834Y-41110D03*
X58401Y-41110D03*
X57968Y-41110D03*
X57539Y-41110D03*
X57102Y-41110D03*
X56669Y-41110D03*
X56886Y-40893D03*
X57319Y-40893D03*
X58185Y-40893D03*
X57752Y-40893D03*
X58618Y-40893D03*
X58618Y-40027D03*
X57752Y-40027D03*
X57319Y-40027D03*
X56886Y-40027D03*
X56669Y-40244D03*
X57102Y-40244D03*
X57539Y-40244D03*
X58834Y-40244D03*
X58834Y-39811D03*
X58401Y-39811D03*
X57968Y-39811D03*
X57539Y-39811D03*
X57102Y-39811D03*
X56669Y-39811D03*
X56886Y-39594D03*
X57319Y-39594D03*
X58185Y-39594D03*
X57752Y-39594D03*
X58618Y-39594D03*
X58618Y-39161D03*
X57752Y-39161D03*
X58185Y-39161D03*
X57319Y-39161D03*
X56886Y-39161D03*
X56669Y-39378D03*
X57102Y-39378D03*
X57539Y-39378D03*
X57968Y-39378D03*
X58401Y-39378D03*
X58834Y-39378D03*
X58834Y-38945D03*
X58401Y-38945D03*
X57968Y-38945D03*
X57539Y-38945D03*
X57102Y-38945D03*
X56669Y-38945D03*
G54D13*
X48861Y-45087D03*
X48546Y-45087D03*
X48231Y-45087D03*
X52389Y-43424D03*
X52744Y-43424D03*
X52941Y-43620D03*
X52586Y-43621D03*
G54D15*
X49752Y-32228D03*
X64791Y-32228D03*
X64791Y-47975D03*
X49752Y-47975D03*
G54D13*
X56378Y-43975D03*
X52232Y-43621D03*
X52834Y-48917D03*
G54D14*
X56426Y-49768D03*
X56859Y-49768D03*
X57292Y-49768D03*
X57726Y-49768D03*
X56425Y-30437D03*
X56858Y-30437D03*
X57291Y-30437D03*
X57725Y-30437D03*
G54D16*
X51299Y-32217D03*
X52299Y-32217D03*
X52299Y-31217D03*
X51299Y-31217D03*
G54D17*
X51799Y-31717D03*
G54D18*
X58307Y-31834D03*
X57307Y-31834D03*
X56307Y-31834D03*
X55307Y-31834D03*
G54D19*
X53307Y-31814D03*
G54D18*
X54307Y-31834D03*
G54D19*
X57576Y-49079D03*
G54D18*
X56576Y-49079D03*
G54D20*
X49554Y-45454D03*
X49554Y-35062D03*
G54D18*
X63314Y-31834D03*
X62314Y-31834D03*
X61314Y-31834D03*
G54D19*
X59314Y-31814D03*
G54D18*
X60314Y-31834D03*
X63043Y-48350D03*
X62043Y-48350D03*
X61043Y-48350D03*
G54D19*
X59043Y-48330D03*
G54D18*
X60043Y-48350D03*
G54D12*
X61692Y-43251D03*
G54D13*
X56783Y-43173D03*
X61728Y-40646D03*
X61821Y-42018D03*
X61594Y-38083D03*
X55748Y-43512D03*
X55032Y-45276D03*
G54D21*
X61444Y-45011D03*
G54D13*
X58976Y-46772D03*
G54D12*
X60177Y-35130D03*
G54D13*
X54949Y-37343D03*
G54D12*
X52646Y-37508D03*
G54D13*
X54221Y-34441D03*
X51169Y-34244D03*
X57756Y-43449D03*
G54D12*
X56949Y-42618D03*
G54D13*
X58264Y-43146D03*
X60142Y-42921D03*
G54D12*
X55299Y-38228D03*
G54D13*
X62039Y-39803D03*
X59910Y-37815D03*
X62036Y-39500D03*
G54D12*
X49256Y-36028D03*
X53323Y-36453D03*
G54D22*
X62543Y-45208D03*
X61830Y-45295D03*
X61842Y-44421D03*
X62527Y-44421D03*
X60980Y-44818D03*
X60972Y-44472D03*
G54D13*
X58002Y-47500D03*
G54D12*
X59961Y-44311D03*
X58626Y-44390D03*
X58413Y-43508D03*
X60205Y-43484D03*
X59882Y-37386D03*
X58256Y-36228D03*
X57106Y-36587D03*
G54D13*
X58616Y-45230D03*
G54D12*
X61102Y-40835D03*
G54D13*
X57668Y-44518D03*
G54D12*
X52012Y-34799D03*
G54D13*
X50921Y-43799D03*
X51012Y-36701D03*
G54D12*
X48154Y-36225D03*
X48154Y-35831D03*
G54D13*
X48158Y-36717D03*
X48150Y-39079D03*
X48189Y-41437D03*
G54D12*
X48032Y-37599D03*
X48047Y-38189D03*
X48024Y-39571D03*
X48028Y-40551D03*
X48032Y-41933D03*
X48032Y-42918D03*
X48197Y-43508D03*
G54D13*
X48138Y-43807D03*
G54D12*
X61264Y-40071D03*
X54457Y-43477D03*
G54D13*
X53465Y-45815D03*
G54D12*
X54579Y-44225D03*
G54D13*
X54268Y-46508D03*
G54D12*
X48102Y-44492D03*
X50921Y-44492D03*
X60441Y-34681D03*
G54D13*
X57984Y-48284D03*
G54D12*
X61957Y-34823D03*
X60906Y-36260D03*
X61957Y-35933D03*
X62154Y-36559D03*
X61228Y-42177D03*
X60882Y-38087D03*
X60780Y-39406D03*
X59350Y-37213D03*
G54D23*
X56091Y-35378D03*
X55579Y-35130D03*
G54D12*
X59508Y-36051D03*
X59650Y-35925D03*
X57094Y-35291D03*
X58354Y-35528D03*
X58370Y-36783D03*
X48165Y-37402D03*
X60266Y-35482D03*
X48193Y-37205D03*
X60246Y-35719D03*
G54D22*
X49078Y-43251D03*
G54D21*
X61433Y-44618D03*
G54D13*
X55217Y-44988D03*
G54D12*
X55288Y-40421D03*
X55701Y-40618D03*
X55366Y-40819D03*
X55705Y-41839D03*
G54D24*
X59228Y-40327D03*
G54D12*
X51732Y-36461D03*
G54D24*
X56276Y-41307D03*
G54D12*
X53591Y-41236D03*
X59951Y-40876D03*
X51728Y-36957D03*
G54D24*
X59232Y-40524D03*
G54D12*
X52870Y-37327D03*
X51728Y-37240D03*
X52870Y-36752D03*
X59669Y-40425D03*
X55736Y-39831D03*
X53906Y-34843D03*
X48193Y-37984D03*
X60319Y-39984D03*
X52906Y-35095D03*
X52543Y-37827D03*
G54D24*
X56866Y-38555D03*
G54D12*
X55981Y-37386D03*
G54D24*
X59228Y-38752D03*
G54D12*
X57205Y-42071D03*
X60473Y-41000D03*
G54D24*
X59232Y-40918D03*
G54D12*
X60339Y-39244D03*
G54D24*
X59228Y-39343D03*
X57252Y-41504D03*
G54D12*
X57465Y-41937D03*
G54D13*
X52811Y-44992D03*
X53539Y-43862D03*
X53539Y-44197D03*
G54D12*
X60030Y-41211D03*
G54D24*
X59228Y-41114D03*
G54D12*
X60039Y-41437D03*
X55638Y-36756D03*
G54D24*
X57063Y-38555D03*
G54D12*
X59272Y-41807D03*
X59748Y-39020D03*
G54D24*
X58240Y-41504D03*
X59225Y-39146D03*
X59228Y-38949D03*
X59228Y-40130D03*
X57847Y-38555D03*
G54D12*
X59150Y-37972D03*
G54D24*
X57059Y-41504D03*
G54D12*
X55933Y-38528D03*
G54D22*
X56276Y-39736D03*
X56276Y-40327D03*
G54D12*
X56260Y-42953D03*
G54D24*
X56858Y-41504D03*
G54D13*
X60154Y-42638D03*
G54D24*
X59228Y-41311D03*
X59228Y-39933D03*
G54D12*
X55394Y-39638D03*
X53650Y-41536D03*
G54D24*
X56276Y-41110D03*
G54D12*
X53583Y-40201D03*
G54D24*
X56280Y-39933D03*
G54D12*
X55831Y-39047D03*
G54D24*
X56276Y-40914D03*
G54D12*
X53579Y-41925D03*
X53602Y-40559D03*
G54D24*
X56276Y-40130D03*
G54D12*
X55303Y-40032D03*
X53662Y-38355D03*
G54D24*
X56276Y-38748D03*
G54D12*
X55709Y-39445D03*
X56957Y-42059D03*
G54D24*
X56665Y-41504D03*
G54D12*
X52193Y-35890D03*
X59740Y-40740D03*
X54453Y-37319D03*
X51721Y-37508D03*
X54721Y-36075D03*
X59787Y-39870D03*
X55555Y-39028D03*
X53662Y-38555D03*
G54D24*
X56276Y-38945D03*
G54D12*
X53610Y-39571D03*
G54D24*
X56276Y-39540D03*
G54D12*
X53626Y-39370D03*
G54D24*
X56280Y-39343D03*
G54D12*
X53579Y-42122D03*
G54D24*
X56276Y-40717D03*
G54D12*
X55772Y-40232D03*
X55890Y-41016D03*
X55260Y-41209D03*
X55815Y-41406D03*
X55445Y-41846D03*
X56303Y-41937D03*
X53650Y-38981D03*
G54D24*
X56276Y-39138D03*
G54D12*
X53587Y-41040D03*
G54D24*
X56276Y-40524D03*
G54D12*
X59646Y-40225D03*
X54736Y-36331D03*
X49354Y-37402D03*
X53071Y-34862D03*
X52276Y-40847D03*
X52248Y-40394D03*
X48185Y-39965D03*
X48221Y-38386D03*
X52516Y-38162D03*
X48201Y-39768D03*
X52232Y-40016D03*
X48197Y-39370D03*
X52402Y-39815D03*
X48079Y-38783D03*
X52386Y-39181D03*
X48193Y-38591D03*
X52366Y-38772D03*
G54D24*
X59228Y-39732D03*
G54D12*
X51445Y-35929D03*
X52213Y-40654D03*
X48181Y-40355D03*
X55984Y-38016D03*
X56319Y-38122D03*
X56575Y-38130D03*
G54D24*
X56669Y-38555D03*
G54D12*
X49744Y-36425D03*
X49634Y-37205D03*
X49917Y-37012D03*
X49748Y-36225D03*
X51717Y-37992D03*
X52535Y-41732D03*
X48173Y-42331D03*
X52118Y-42354D03*
X54984Y-43063D03*
X48173Y-40748D03*
X55453Y-43067D03*
X51752Y-40748D03*
X48181Y-42130D03*
X51917Y-42355D03*
X48197Y-41732D03*
X51398Y-42355D03*
X48075Y-41142D03*
X51638Y-42355D03*
X48201Y-40949D03*
X54721Y-43055D03*
X51091Y-40949D03*
X55225Y-43067D03*
G54D24*
X59228Y-40721D03*
G54D12*
X51669Y-35288D03*
G54D24*
X58437Y-41508D03*
G54D12*
X58536Y-41973D03*
X59281Y-42067D03*
X58740Y-41969D03*
X52465Y-41043D03*
X49535Y-42618D03*
X48154Y-42725D03*
G54D13*
X51169Y-44827D03*
X51169Y-45063D03*
G54D25*
X61821Y-42018D02*
X61821Y-43123D01*
X61821Y-43123D02*
X61692Y-43251D01*
G54D26*
X61821Y-42018D02*
X61821Y-40739D01*
X61821Y-40739D02*
X61728Y-40646D01*
G54D25*
X56402Y-43948D02*
X56402Y-43582D01*
G54D26*
X60984Y-43976D02*
X61398Y-43563D01*
G54D25*
X56791Y-43165D02*
X56402Y-43582D01*
X56783Y-43173D02*
X56791Y-43165D01*
G54D26*
X56063Y-43976D02*
X60984Y-43976D01*
X61398Y-43563D02*
X61388Y-43573D01*
X61388Y-43573D02*
X61821Y-43140D01*
X61821Y-43140D02*
X61821Y-42018D01*
X61728Y-40449D02*
X61728Y-40646D01*
X61728Y-40449D02*
X61909Y-40378D01*
X61909Y-40378D02*
X62098Y-40291D01*
X62098Y-40291D02*
X62559Y-40079D01*
X62559Y-40079D02*
X62559Y-39331D01*
X62559Y-39331D02*
X62358Y-39256D01*
X62358Y-39256D02*
X61854Y-39079D01*
X61854Y-39079D02*
X61594Y-38583D01*
X61594Y-38583D02*
X61594Y-38083D01*
G54D25*
X52646Y-37508D02*
X54531Y-37508D01*
X54531Y-37508D02*
X55299Y-38228D01*
X56276Y-40327D02*
X56161Y-40327D01*
X56083Y-42795D02*
X56260Y-42953D01*
X56083Y-40406D02*
X56083Y-42795D01*
X56161Y-40327D02*
X56083Y-40406D01*
G54D10*
G36*
X53071Y-49314D02*
X53015Y-49370D01*
X51196Y-49370D01*
X51140Y-49314D01*
X51140Y-47259D01*
X51849Y-46550D01*
X51849Y-45370D01*
X51984Y-45235D01*
X52858Y-45235D01*
X52914Y-45291D01*
X52914Y-47062D01*
X53071Y-47220D01*
X53071Y-49314D01*
X53071Y-49314D01*
G37*
G54D11*
X53071Y-49314D02*
X53015Y-49370D01*
X51196Y-49370D01*
X51140Y-49314D01*
X51140Y-47259D01*
X51849Y-46550D01*
X51849Y-45370D01*
X51984Y-45235D01*
X52858Y-45235D01*
X52914Y-45291D01*
X52914Y-47062D01*
X53071Y-47220D01*
X53071Y-49314D01*
G54D10*
G36*
X57008Y-49392D02*
X56952Y-49449D01*
X56197Y-49449D01*
X56141Y-49392D01*
X56141Y-48722D01*
X55606Y-48229D01*
X55369Y-48229D01*
X54481Y-47403D01*
X54481Y-46465D01*
X54449Y-46387D01*
X54389Y-46327D01*
X54310Y-46294D01*
X54225Y-46294D01*
X54147Y-46326D01*
X54087Y-46386D01*
X54054Y-46465D01*
X54054Y-46550D01*
X54086Y-46628D01*
X54146Y-46688D01*
X54225Y-46721D01*
X54310Y-46721D01*
X54388Y-46689D01*
X54448Y-46629D01*
X54481Y-46550D01*
X54481Y-46465D01*
X54481Y-47403D01*
X53678Y-46656D01*
X53678Y-45772D01*
X53646Y-45694D01*
X53586Y-45634D01*
X53507Y-45601D01*
X53422Y-45601D01*
X53344Y-45633D01*
X53284Y-45693D01*
X53251Y-45772D01*
X53251Y-45857D01*
X53283Y-45935D01*
X53343Y-45995D01*
X53422Y-46028D01*
X53507Y-46028D01*
X53585Y-45996D01*
X53645Y-45936D01*
X53678Y-45857D01*
X53678Y-45772D01*
X53678Y-46656D01*
X53149Y-46164D01*
X53149Y-45180D01*
X53018Y-45049D01*
X53024Y-45034D01*
X53024Y-44949D01*
X52992Y-44871D01*
X52932Y-44811D01*
X52853Y-44778D01*
X52768Y-44778D01*
X52690Y-44810D01*
X52630Y-44870D01*
X52597Y-44949D01*
X52597Y-45000D01*
X51873Y-45000D01*
X51637Y-45237D01*
X49806Y-45237D01*
X49742Y-45172D01*
X49620Y-45122D01*
X49488Y-45121D01*
X49366Y-45172D01*
X49301Y-45237D01*
X48126Y-45237D01*
X48070Y-45180D01*
X48070Y-44686D01*
X48140Y-44686D01*
X48212Y-44656D01*
X48263Y-44606D01*
X50759Y-44606D01*
X50810Y-44656D01*
X50882Y-44686D01*
X50959Y-44686D01*
X51031Y-44656D01*
X51082Y-44606D01*
X53054Y-44606D01*
X55090Y-46621D01*
X55078Y-46616D01*
X55000Y-46616D01*
X54929Y-46646D01*
X54874Y-46700D01*
X54844Y-46772D01*
X54844Y-46849D01*
X54874Y-46921D01*
X54929Y-46975D01*
X55000Y-47005D01*
X55077Y-47005D01*
X55149Y-46976D01*
X55204Y-46921D01*
X55233Y-46849D01*
X55233Y-46772D01*
X55227Y-46757D01*
X57008Y-48520D01*
X57008Y-49392D01*
X57008Y-49392D01*
G37*
G54D27*
X57008Y-49392D02*
X56952Y-49449D01*
X56197Y-49449D01*
X56141Y-49392D01*
X56141Y-48722D01*
X55606Y-48229D01*
X55369Y-48229D01*
X54481Y-47403D01*
X54481Y-46465D01*
X54449Y-46387D01*
X54389Y-46327D01*
X54310Y-46294D01*
X54225Y-46294D01*
X54147Y-46326D01*
X54087Y-46386D01*
X54054Y-46465D01*
X54054Y-46550D01*
X54086Y-46628D01*
X54146Y-46688D01*
X54225Y-46721D01*
X54310Y-46721D01*
X54388Y-46689D01*
X54448Y-46629D01*
X54481Y-46550D01*
X54481Y-46465D01*
X54481Y-47403D01*
X53678Y-46656D01*
X53678Y-45772D01*
X53646Y-45694D01*
X53586Y-45634D01*
X53507Y-45601D01*
X53422Y-45601D01*
X53344Y-45633D01*
X53284Y-45693D01*
X53251Y-45772D01*
X53251Y-45857D01*
X53283Y-45935D01*
X53343Y-45995D01*
X53422Y-46028D01*
X53507Y-46028D01*
X53585Y-45996D01*
X53645Y-45936D01*
X53678Y-45857D01*
X53678Y-45772D01*
X53678Y-46656D01*
X53149Y-46164D01*
X53149Y-45180D01*
X53018Y-45049D01*
X53024Y-45034D01*
X53024Y-44949D01*
X52992Y-44871D01*
X52932Y-44811D01*
X52853Y-44778D01*
X52768Y-44778D01*
X52690Y-44810D01*
X52630Y-44870D01*
X52597Y-44949D01*
X52597Y-45000D01*
X51873Y-45000D01*
X51637Y-45237D01*
X49806Y-45237D01*
X49742Y-45172D01*
X49620Y-45122D01*
X49488Y-45121D01*
X49366Y-45172D01*
X49301Y-45237D01*
X48126Y-45237D01*
X48070Y-45180D01*
X48070Y-44686D01*
X48140Y-44686D01*
X48212Y-44656D01*
X48263Y-44606D01*
X50759Y-44606D01*
X50810Y-44656D01*
X50882Y-44686D01*
X50959Y-44686D01*
X51031Y-44656D01*
X51082Y-44606D01*
X53054Y-44606D01*
X55090Y-46621D01*
X55078Y-46616D01*
X55000Y-46616D01*
X54929Y-46646D01*
X54874Y-46700D01*
X54844Y-46772D01*
X54844Y-46849D01*
X54874Y-46921D01*
X54929Y-46975D01*
X55000Y-47005D01*
X55077Y-47005D01*
X55149Y-46976D01*
X55204Y-46921D01*
X55233Y-46849D01*
X55233Y-46772D01*
X55227Y-46757D01*
X57008Y-48520D01*
X57008Y-49392D01*
G54D10*
G36*
X62263Y-39908D02*
X61439Y-40262D01*
X61439Y-40036D01*
X61412Y-39972D01*
X61363Y-39922D01*
X61298Y-39896D01*
X61229Y-39895D01*
X61165Y-39922D01*
X61115Y-39971D01*
X61089Y-40036D01*
X61088Y-40105D01*
X61115Y-40170D01*
X61164Y-40219D01*
X61229Y-40245D01*
X61298Y-40246D01*
X61363Y-40219D01*
X61412Y-40170D01*
X61438Y-40105D01*
X61439Y-40036D01*
X61439Y-40262D01*
X61437Y-40263D01*
X61437Y-40756D01*
X61555Y-40874D01*
X61555Y-42983D01*
X61403Y-43136D01*
X61403Y-42142D01*
X61376Y-42078D01*
X61327Y-42028D01*
X61277Y-42007D01*
X61277Y-40800D01*
X61250Y-40736D01*
X61201Y-40686D01*
X61136Y-40660D01*
X61067Y-40659D01*
X61003Y-40686D01*
X60955Y-40734D01*
X60955Y-39371D01*
X60928Y-39307D01*
X60879Y-39257D01*
X60814Y-39231D01*
X60745Y-39230D01*
X60681Y-39257D01*
X60631Y-39306D01*
X60605Y-39371D01*
X60604Y-39440D01*
X60631Y-39505D01*
X60680Y-39554D01*
X60745Y-39580D01*
X60814Y-39581D01*
X60879Y-39554D01*
X60928Y-39505D01*
X60954Y-39440D01*
X60955Y-39371D01*
X60955Y-40734D01*
X60953Y-40735D01*
X60927Y-40800D01*
X60926Y-40869D01*
X60953Y-40934D01*
X61002Y-40983D01*
X61067Y-41009D01*
X61136Y-41010D01*
X61201Y-40983D01*
X61250Y-40934D01*
X61276Y-40869D01*
X61277Y-40800D01*
X61277Y-42007D01*
X61262Y-42002D01*
X61193Y-42001D01*
X61129Y-42028D01*
X61079Y-42077D01*
X61053Y-42142D01*
X61052Y-42211D01*
X61079Y-42276D01*
X61128Y-42325D01*
X61193Y-42351D01*
X61262Y-42352D01*
X61327Y-42325D01*
X61376Y-42276D01*
X61402Y-42211D01*
X61403Y-42142D01*
X61403Y-43136D01*
X60857Y-43681D01*
X60648Y-43681D01*
X60648Y-40965D01*
X60621Y-40901D01*
X60572Y-40851D01*
X60514Y-40827D01*
X60514Y-39209D01*
X60487Y-39145D01*
X60441Y-39098D01*
X60441Y-35447D01*
X60414Y-35383D01*
X60365Y-35333D01*
X60300Y-35307D01*
X60231Y-35306D01*
X60167Y-35333D01*
X60117Y-35382D01*
X60091Y-35447D01*
X60090Y-35516D01*
X60117Y-35581D01*
X60127Y-35590D01*
X60097Y-35619D01*
X60071Y-35684D01*
X60070Y-35753D01*
X60097Y-35818D01*
X60146Y-35867D01*
X60211Y-35893D01*
X60280Y-35894D01*
X60345Y-35867D01*
X60394Y-35818D01*
X60420Y-35753D01*
X60421Y-35684D01*
X60394Y-35620D01*
X60384Y-35610D01*
X60414Y-35581D01*
X60440Y-35516D01*
X60441Y-35447D01*
X60441Y-39098D01*
X60438Y-39095D01*
X60373Y-39069D01*
X60304Y-39068D01*
X60240Y-39095D01*
X60190Y-39144D01*
X60164Y-39209D01*
X60163Y-39278D01*
X60190Y-39343D01*
X60239Y-39392D01*
X60304Y-39418D01*
X60373Y-39419D01*
X60438Y-39392D01*
X60487Y-39343D01*
X60513Y-39278D01*
X60514Y-39209D01*
X60514Y-40827D01*
X60507Y-40825D01*
X60494Y-40825D01*
X60494Y-39949D01*
X60467Y-39885D01*
X60418Y-39835D01*
X60353Y-39809D01*
X60284Y-39808D01*
X60220Y-39835D01*
X60170Y-39884D01*
X60144Y-39949D01*
X60143Y-40018D01*
X60170Y-40083D01*
X60219Y-40132D01*
X60284Y-40158D01*
X60353Y-40159D01*
X60418Y-40132D01*
X60467Y-40083D01*
X60493Y-40018D01*
X60494Y-39949D01*
X60494Y-40825D01*
X60438Y-40824D01*
X60374Y-40851D01*
X60324Y-40900D01*
X60298Y-40965D01*
X60297Y-41034D01*
X60324Y-41099D01*
X60373Y-41148D01*
X60438Y-41174D01*
X60507Y-41175D01*
X60572Y-41148D01*
X60621Y-41099D01*
X60647Y-41034D01*
X60648Y-40965D01*
X60648Y-43681D01*
X60380Y-43681D01*
X60380Y-43449D01*
X60353Y-43385D01*
X60348Y-43379D01*
X60348Y-42599D01*
X60318Y-42528D01*
X60264Y-42473D01*
X60214Y-42452D01*
X60214Y-41402D01*
X60187Y-41338D01*
X60168Y-41319D01*
X60178Y-41310D01*
X60204Y-41245D01*
X60205Y-41176D01*
X60178Y-41112D01*
X60129Y-41062D01*
X60064Y-41036D01*
X60022Y-41035D01*
X60050Y-41024D01*
X60099Y-40975D01*
X60125Y-40910D01*
X60126Y-40841D01*
X60099Y-40777D01*
X60057Y-40734D01*
X60057Y-37351D01*
X60030Y-37287D01*
X59981Y-37237D01*
X59916Y-37211D01*
X59847Y-37210D01*
X59783Y-37237D01*
X59733Y-37286D01*
X59707Y-37351D01*
X59706Y-37420D01*
X59733Y-37485D01*
X59782Y-37534D01*
X59847Y-37560D01*
X59916Y-37561D01*
X59981Y-37534D01*
X60030Y-37485D01*
X60056Y-37420D01*
X60057Y-37351D01*
X60057Y-40734D01*
X60050Y-40727D01*
X59985Y-40701D01*
X59962Y-40701D01*
X59962Y-39835D01*
X59935Y-39771D01*
X59923Y-39758D01*
X59923Y-38985D01*
X59896Y-38921D01*
X59847Y-38871D01*
X59782Y-38845D01*
X59713Y-38844D01*
X59649Y-38871D01*
X59599Y-38920D01*
X59573Y-38985D01*
X59572Y-39054D01*
X59599Y-39119D01*
X59648Y-39168D01*
X59713Y-39194D01*
X59782Y-39195D01*
X59847Y-39168D01*
X59896Y-39119D01*
X59922Y-39054D01*
X59923Y-38985D01*
X59923Y-39758D01*
X59886Y-39721D01*
X59821Y-39695D01*
X59752Y-39694D01*
X59688Y-39721D01*
X59638Y-39770D01*
X59612Y-39835D01*
X59611Y-39904D01*
X59638Y-39969D01*
X59687Y-40018D01*
X59752Y-40044D01*
X59821Y-40045D01*
X59886Y-40018D01*
X59935Y-39969D01*
X59961Y-39904D01*
X59962Y-39835D01*
X59962Y-40701D01*
X59916Y-40700D01*
X59913Y-40702D01*
X59888Y-40641D01*
X59839Y-40591D01*
X59775Y-40565D01*
X59817Y-40524D01*
X59843Y-40459D01*
X59844Y-40390D01*
X59817Y-40326D01*
X59800Y-40309D01*
X59820Y-40259D01*
X59821Y-40190D01*
X59794Y-40126D01*
X59745Y-40076D01*
X59680Y-40050D01*
X59611Y-40049D01*
X59547Y-40076D01*
X59497Y-40125D01*
X59471Y-40190D01*
X59470Y-40259D01*
X59497Y-40324D01*
X59514Y-40340D01*
X59494Y-40390D01*
X59493Y-40459D01*
X59520Y-40524D01*
X59569Y-40573D01*
X59633Y-40599D01*
X59591Y-40640D01*
X59565Y-40705D01*
X59564Y-40774D01*
X59591Y-40839D01*
X59640Y-40888D01*
X59705Y-40914D01*
X59774Y-40915D01*
X59777Y-40913D01*
X59802Y-40975D01*
X59851Y-41024D01*
X59916Y-41050D01*
X59958Y-41051D01*
X59931Y-41062D01*
X59881Y-41111D01*
X59855Y-41176D01*
X59854Y-41245D01*
X59881Y-41310D01*
X59900Y-41328D01*
X59890Y-41337D01*
X59864Y-41402D01*
X59863Y-41471D01*
X59890Y-41536D01*
X59939Y-41585D01*
X60004Y-41611D01*
X60073Y-41612D01*
X60138Y-41585D01*
X60187Y-41536D01*
X60213Y-41471D01*
X60214Y-41402D01*
X60214Y-42452D01*
X60192Y-42444D01*
X60115Y-42443D01*
X60044Y-42473D01*
X59989Y-42527D01*
X59960Y-42599D01*
X59959Y-42676D01*
X59989Y-42747D01*
X60043Y-42802D01*
X60115Y-42831D01*
X60192Y-42832D01*
X60263Y-42802D01*
X60318Y-42748D01*
X60347Y-42676D01*
X60348Y-42599D01*
X60348Y-43379D01*
X60304Y-43335D01*
X60239Y-43309D01*
X60170Y-43308D01*
X60106Y-43335D01*
X60056Y-43384D01*
X60030Y-43449D01*
X60029Y-43518D01*
X60056Y-43583D01*
X60105Y-43632D01*
X60170Y-43658D01*
X60239Y-43659D01*
X60304Y-43632D01*
X60353Y-43583D01*
X60379Y-43518D01*
X60380Y-43449D01*
X60380Y-43681D01*
X59456Y-43681D01*
X59456Y-42032D01*
X59429Y-41968D01*
X59393Y-41932D01*
X59420Y-41906D01*
X59446Y-41841D01*
X59447Y-41772D01*
X59420Y-41708D01*
X59377Y-41665D01*
X59373Y-41660D01*
X59373Y-41365D01*
X59377Y-41356D01*
X59383Y-41342D01*
X59383Y-41280D01*
X59377Y-41265D01*
X59374Y-41257D01*
X59374Y-41167D01*
X59377Y-41159D01*
X59383Y-41145D01*
X59383Y-41083D01*
X59377Y-41068D01*
X59374Y-41060D01*
X59374Y-40980D01*
X59377Y-40973D01*
X59387Y-40949D01*
X59387Y-40887D01*
X59377Y-40862D01*
X59374Y-40855D01*
X59374Y-40773D01*
X59377Y-40766D01*
X59383Y-40752D01*
X59383Y-40690D01*
X59377Y-40675D01*
X59374Y-40669D01*
X59374Y-40585D01*
X59377Y-40579D01*
X59387Y-40555D01*
X59387Y-40493D01*
X59377Y-40468D01*
X59375Y-40462D01*
X59375Y-40378D01*
X59377Y-40372D01*
X59383Y-40358D01*
X59383Y-40296D01*
X59377Y-40281D01*
X59375Y-40276D01*
X59375Y-40180D01*
X59377Y-40175D01*
X59383Y-40161D01*
X59383Y-40099D01*
X59377Y-40084D01*
X59375Y-40079D01*
X59375Y-39982D01*
X59377Y-39978D01*
X59383Y-39964D01*
X59383Y-39902D01*
X59377Y-39887D01*
X59375Y-39883D01*
X59375Y-39781D01*
X59377Y-39777D01*
X59383Y-39763D01*
X59383Y-39701D01*
X59377Y-39686D01*
X59376Y-39683D01*
X59376Y-39391D01*
X59377Y-39388D01*
X59383Y-39374D01*
X59383Y-39312D01*
X59377Y-39297D01*
X59376Y-39295D01*
X59376Y-39186D01*
X59377Y-39184D01*
X59380Y-39177D01*
X59380Y-39115D01*
X59377Y-39107D01*
X59376Y-39106D01*
X59376Y-38995D01*
X59377Y-38994D01*
X59383Y-38980D01*
X59383Y-38918D01*
X59377Y-38903D01*
X59377Y-38902D01*
X59377Y-38798D01*
X59377Y-38797D01*
X59383Y-38783D01*
X59383Y-38721D01*
X59377Y-38706D01*
X59377Y-38706D01*
X59377Y-38512D01*
X59325Y-38512D01*
X59325Y-37937D01*
X59298Y-37873D01*
X59249Y-37823D01*
X59184Y-37797D01*
X59115Y-37796D01*
X59051Y-37823D01*
X59001Y-37872D01*
X58975Y-37937D01*
X58974Y-38006D01*
X59001Y-38071D01*
X59050Y-38120D01*
X59115Y-38146D01*
X59184Y-38147D01*
X59249Y-38120D01*
X59298Y-38071D01*
X59324Y-38006D01*
X59325Y-37937D01*
X59325Y-38512D01*
X57995Y-38507D01*
X57978Y-38467D01*
X57935Y-38423D01*
X57878Y-38399D01*
X57816Y-38399D01*
X57759Y-38423D01*
X57715Y-38466D01*
X57698Y-38506D01*
X57210Y-38504D01*
X57194Y-38467D01*
X57151Y-38423D01*
X57094Y-38399D01*
X57032Y-38399D01*
X56975Y-38423D01*
X56964Y-38433D01*
X56954Y-38423D01*
X56897Y-38399D01*
X56835Y-38399D01*
X56778Y-38423D01*
X56767Y-38433D01*
X56757Y-38423D01*
X56750Y-38420D01*
X56750Y-38095D01*
X56723Y-38031D01*
X56674Y-37981D01*
X56609Y-37955D01*
X56540Y-37954D01*
X56476Y-37981D01*
X56450Y-38006D01*
X56418Y-37973D01*
X56353Y-37947D01*
X56285Y-37946D01*
X56285Y-35339D01*
X56255Y-35267D01*
X56201Y-35213D01*
X56129Y-35183D01*
X56052Y-35183D01*
X55980Y-35213D01*
X55926Y-35267D01*
X55896Y-35339D01*
X55896Y-35416D01*
X55926Y-35488D01*
X55980Y-35542D01*
X56052Y-35572D01*
X56129Y-35572D01*
X56201Y-35542D01*
X56255Y-35488D01*
X56285Y-35416D01*
X56285Y-35339D01*
X56285Y-37946D01*
X56284Y-37946D01*
X56220Y-37973D01*
X56170Y-38022D01*
X56159Y-38050D01*
X56159Y-37981D01*
X56156Y-37974D01*
X56156Y-37351D01*
X56129Y-37287D01*
X56080Y-37237D01*
X56015Y-37211D01*
X55946Y-37210D01*
X55882Y-37237D01*
X55832Y-37286D01*
X55813Y-37334D01*
X55813Y-36721D01*
X55786Y-36657D01*
X55773Y-36644D01*
X55773Y-35091D01*
X55743Y-35019D01*
X55689Y-34965D01*
X55617Y-34935D01*
X55540Y-34935D01*
X55468Y-34965D01*
X55414Y-35019D01*
X55384Y-35091D01*
X55384Y-35168D01*
X55414Y-35240D01*
X55468Y-35294D01*
X55540Y-35324D01*
X55617Y-35324D01*
X55689Y-35294D01*
X55743Y-35240D01*
X55773Y-35168D01*
X55773Y-35091D01*
X55773Y-36644D01*
X55737Y-36607D01*
X55672Y-36581D01*
X55603Y-36580D01*
X55539Y-36607D01*
X55489Y-36656D01*
X55463Y-36721D01*
X55462Y-36790D01*
X55489Y-36855D01*
X55538Y-36904D01*
X55603Y-36930D01*
X55672Y-36931D01*
X55737Y-36904D01*
X55786Y-36855D01*
X55812Y-36790D01*
X55813Y-36721D01*
X55813Y-37334D01*
X55806Y-37351D01*
X55805Y-37420D01*
X55832Y-37485D01*
X55881Y-37534D01*
X55946Y-37560D01*
X56015Y-37561D01*
X56080Y-37534D01*
X56129Y-37485D01*
X56155Y-37420D01*
X56156Y-37351D01*
X56156Y-37974D01*
X56132Y-37917D01*
X56083Y-37867D01*
X56018Y-37841D01*
X55949Y-37840D01*
X55885Y-37867D01*
X55835Y-37916D01*
X55809Y-37981D01*
X55808Y-38050D01*
X55835Y-38115D01*
X55884Y-38164D01*
X55949Y-38190D01*
X56018Y-38191D01*
X56083Y-38164D01*
X56132Y-38115D01*
X56158Y-38050D01*
X56159Y-37981D01*
X56159Y-38050D01*
X56144Y-38087D01*
X56143Y-38156D01*
X56170Y-38221D01*
X56219Y-38270D01*
X56284Y-38296D01*
X56353Y-38297D01*
X56418Y-38270D01*
X56443Y-38245D01*
X56475Y-38278D01*
X56540Y-38304D01*
X56609Y-38305D01*
X56674Y-38278D01*
X56723Y-38229D01*
X56749Y-38164D01*
X56750Y-38095D01*
X56750Y-38420D01*
X56700Y-38399D01*
X56638Y-38399D01*
X56581Y-38423D01*
X56537Y-38466D01*
X56522Y-38501D01*
X56122Y-38500D01*
X56121Y-38714D01*
X56120Y-38716D01*
X56120Y-38778D01*
X56121Y-38780D01*
X56114Y-40181D01*
X56108Y-40182D01*
X56108Y-38493D01*
X56081Y-38429D01*
X56032Y-38379D01*
X55967Y-38353D01*
X55898Y-38352D01*
X55834Y-38379D01*
X55784Y-38428D01*
X55758Y-38493D01*
X55757Y-38562D01*
X55784Y-38627D01*
X55833Y-38676D01*
X55898Y-38702D01*
X55967Y-38703D01*
X56032Y-38676D01*
X56081Y-38627D01*
X56107Y-38562D01*
X56108Y-38493D01*
X56108Y-40182D01*
X56101Y-40183D01*
X56101Y-40184D01*
X56100Y-40184D01*
X56068Y-40206D01*
X56051Y-40217D01*
X56051Y-40217D01*
X56050Y-40218D01*
X56006Y-40263D01*
X56006Y-39012D01*
X55979Y-38948D01*
X55930Y-38898D01*
X55865Y-38872D01*
X55796Y-38871D01*
X55732Y-38898D01*
X55702Y-38928D01*
X55654Y-38879D01*
X55589Y-38853D01*
X55520Y-38852D01*
X55456Y-38879D01*
X55406Y-38928D01*
X55380Y-38993D01*
X55379Y-39062D01*
X55406Y-39127D01*
X55455Y-39176D01*
X55520Y-39202D01*
X55589Y-39203D01*
X55654Y-39176D01*
X55683Y-39146D01*
X55731Y-39195D01*
X55796Y-39221D01*
X55865Y-39222D01*
X55930Y-39195D01*
X55979Y-39146D01*
X56005Y-39081D01*
X56006Y-39012D01*
X56006Y-40263D01*
X55972Y-40297D01*
X55956Y-40322D01*
X55947Y-40335D01*
X55947Y-40197D01*
X55920Y-40133D01*
X55911Y-40123D01*
X55911Y-39796D01*
X55884Y-39732D01*
X55884Y-39731D01*
X55884Y-39410D01*
X55857Y-39346D01*
X55808Y-39296D01*
X55743Y-39270D01*
X55674Y-39269D01*
X55610Y-39296D01*
X55560Y-39345D01*
X55534Y-39410D01*
X55533Y-39479D01*
X55560Y-39544D01*
X55609Y-39593D01*
X55674Y-39619D01*
X55743Y-39620D01*
X55808Y-39593D01*
X55857Y-39544D01*
X55883Y-39479D01*
X55884Y-39410D01*
X55884Y-39731D01*
X55835Y-39682D01*
X55770Y-39656D01*
X55701Y-39655D01*
X55637Y-39682D01*
X55587Y-39731D01*
X55569Y-39776D01*
X55569Y-39603D01*
X55542Y-39539D01*
X55493Y-39489D01*
X55428Y-39463D01*
X55359Y-39462D01*
X55295Y-39489D01*
X55245Y-39538D01*
X55219Y-39603D01*
X55218Y-39672D01*
X55245Y-39737D01*
X55294Y-39786D01*
X55359Y-39812D01*
X55428Y-39813D01*
X55493Y-39786D01*
X55542Y-39737D01*
X55568Y-39672D01*
X55569Y-39603D01*
X55569Y-39776D01*
X55561Y-39796D01*
X55560Y-39865D01*
X55587Y-39930D01*
X55636Y-39979D01*
X55701Y-40005D01*
X55770Y-40006D01*
X55835Y-39979D01*
X55884Y-39930D01*
X55910Y-39865D01*
X55911Y-39796D01*
X55911Y-40123D01*
X55871Y-40083D01*
X55806Y-40057D01*
X55737Y-40056D01*
X55673Y-40083D01*
X55623Y-40132D01*
X55597Y-40197D01*
X55596Y-40266D01*
X55623Y-40331D01*
X55672Y-40380D01*
X55737Y-40406D01*
X55806Y-40407D01*
X55871Y-40380D01*
X55920Y-40331D01*
X55946Y-40266D01*
X55947Y-40197D01*
X55947Y-40335D01*
X55939Y-40346D01*
X55939Y-40347D01*
X55939Y-40347D01*
X55933Y-40376D01*
X55928Y-40406D01*
X55928Y-40842D01*
X55924Y-40841D01*
X55876Y-40840D01*
X55876Y-40583D01*
X55849Y-40519D01*
X55800Y-40469D01*
X55735Y-40443D01*
X55666Y-40442D01*
X55602Y-40469D01*
X55552Y-40518D01*
X55526Y-40583D01*
X55525Y-40652D01*
X55552Y-40717D01*
X55601Y-40766D01*
X55666Y-40792D01*
X55735Y-40793D01*
X55800Y-40766D01*
X55849Y-40717D01*
X55875Y-40652D01*
X55876Y-40583D01*
X55876Y-40840D01*
X55855Y-40840D01*
X55791Y-40867D01*
X55741Y-40916D01*
X55715Y-40981D01*
X55714Y-41050D01*
X55741Y-41115D01*
X55790Y-41164D01*
X55855Y-41190D01*
X55924Y-41191D01*
X55928Y-41189D01*
X55928Y-41271D01*
X55914Y-41257D01*
X55849Y-41231D01*
X55780Y-41230D01*
X55716Y-41257D01*
X55666Y-41306D01*
X55640Y-41371D01*
X55639Y-41440D01*
X55666Y-41505D01*
X55715Y-41554D01*
X55780Y-41580D01*
X55849Y-41581D01*
X55914Y-41554D01*
X55928Y-41540D01*
X55928Y-42795D01*
X55928Y-42799D01*
X55928Y-42803D01*
X55934Y-42828D01*
X55939Y-42854D01*
X55942Y-42857D01*
X55943Y-42862D01*
X55958Y-42882D01*
X55973Y-42904D01*
X55977Y-42907D01*
X55979Y-42910D01*
X56096Y-43014D01*
X56111Y-43052D01*
X56160Y-43101D01*
X56225Y-43127D01*
X56294Y-43128D01*
X56359Y-43101D01*
X56408Y-43052D01*
X56434Y-42987D01*
X56435Y-42918D01*
X56408Y-42854D01*
X56359Y-42804D01*
X56297Y-42779D01*
X56238Y-42725D01*
X56238Y-42099D01*
X56268Y-42111D01*
X56337Y-42112D01*
X56402Y-42085D01*
X56451Y-42036D01*
X56477Y-41971D01*
X56478Y-41902D01*
X56451Y-41838D01*
X56402Y-41788D01*
X56337Y-41762D01*
X56268Y-41761D01*
X56238Y-41774D01*
X56238Y-41677D01*
X59154Y-41677D01*
X59123Y-41707D01*
X59097Y-41772D01*
X59096Y-41841D01*
X59123Y-41906D01*
X59159Y-41941D01*
X59132Y-41967D01*
X59106Y-42032D01*
X59105Y-42101D01*
X59132Y-42166D01*
X59181Y-42215D01*
X59246Y-42241D01*
X59315Y-42242D01*
X59377Y-42216D01*
X59380Y-42215D01*
X59429Y-42166D01*
X59455Y-42101D01*
X59456Y-42032D01*
X59456Y-43681D01*
X59377Y-43681D01*
X59358Y-43681D01*
X58915Y-43681D01*
X58915Y-41934D01*
X58888Y-41870D01*
X58839Y-41820D01*
X58774Y-41794D01*
X58705Y-41793D01*
X58641Y-41820D01*
X58636Y-41825D01*
X58635Y-41824D01*
X58570Y-41798D01*
X58501Y-41797D01*
X58437Y-41824D01*
X58387Y-41873D01*
X58361Y-41938D01*
X58360Y-42007D01*
X58387Y-42072D01*
X58436Y-42121D01*
X58501Y-42147D01*
X58570Y-42148D01*
X58635Y-42121D01*
X58639Y-42116D01*
X58640Y-42117D01*
X58705Y-42143D01*
X58774Y-42144D01*
X58839Y-42117D01*
X58888Y-42068D01*
X58914Y-42003D01*
X58915Y-41934D01*
X58915Y-43681D01*
X58451Y-43681D01*
X58512Y-43656D01*
X58561Y-43607D01*
X58587Y-43542D01*
X58588Y-43473D01*
X58561Y-43409D01*
X58512Y-43359D01*
X58447Y-43333D01*
X58378Y-43332D01*
X58314Y-43359D01*
X58264Y-43408D01*
X58238Y-43473D01*
X58237Y-43542D01*
X58264Y-43607D01*
X58313Y-43656D01*
X58374Y-43681D01*
X57640Y-43681D01*
X57640Y-41902D01*
X57613Y-41838D01*
X57564Y-41788D01*
X57499Y-41762D01*
X57430Y-41761D01*
X57366Y-41788D01*
X57316Y-41837D01*
X57290Y-41902D01*
X57290Y-41916D01*
X57239Y-41896D01*
X57170Y-41895D01*
X57106Y-41922D01*
X57086Y-41941D01*
X57056Y-41910D01*
X56991Y-41884D01*
X56922Y-41883D01*
X56858Y-41910D01*
X56808Y-41959D01*
X56782Y-42024D01*
X56781Y-42093D01*
X56808Y-42158D01*
X56857Y-42207D01*
X56922Y-42233D01*
X56991Y-42234D01*
X57056Y-42207D01*
X57075Y-42188D01*
X57105Y-42219D01*
X57170Y-42245D01*
X57239Y-42246D01*
X57304Y-42219D01*
X57353Y-42170D01*
X57379Y-42105D01*
X57379Y-42091D01*
X57430Y-42111D01*
X57499Y-42112D01*
X57564Y-42085D01*
X57613Y-42036D01*
X57639Y-41971D01*
X57640Y-41902D01*
X57640Y-43681D01*
X56557Y-43681D01*
X56557Y-43643D01*
X56814Y-43367D01*
X56821Y-43367D01*
X56892Y-43337D01*
X56947Y-43283D01*
X56976Y-43211D01*
X56977Y-43134D01*
X56947Y-43063D01*
X56893Y-43008D01*
X56821Y-42979D01*
X56744Y-42978D01*
X56673Y-43008D01*
X56618Y-43062D01*
X56589Y-43134D01*
X56589Y-43154D01*
X56288Y-43476D01*
X56274Y-43499D01*
X56258Y-43522D01*
X56258Y-43525D01*
X56256Y-43527D01*
X56252Y-43554D01*
X56247Y-43582D01*
X56247Y-43681D01*
X55975Y-43681D01*
X55942Y-43715D01*
X55942Y-43473D01*
X55912Y-43402D01*
X55880Y-43369D01*
X55880Y-41804D01*
X55853Y-41740D01*
X55804Y-41690D01*
X55739Y-41664D01*
X55670Y-41663D01*
X55606Y-41690D01*
X55571Y-41725D01*
X55544Y-41697D01*
X55541Y-41696D01*
X55541Y-40784D01*
X55514Y-40720D01*
X55478Y-40683D01*
X55478Y-39997D01*
X55451Y-39933D01*
X55402Y-39883D01*
X55337Y-39857D01*
X55268Y-39856D01*
X55204Y-39883D01*
X55154Y-39932D01*
X55128Y-39997D01*
X55127Y-40066D01*
X55154Y-40131D01*
X55203Y-40180D01*
X55268Y-40206D01*
X55337Y-40207D01*
X55402Y-40180D01*
X55451Y-40131D01*
X55477Y-40066D01*
X55478Y-39997D01*
X55478Y-40683D01*
X55465Y-40670D01*
X55463Y-40669D01*
X55463Y-40386D01*
X55436Y-40322D01*
X55387Y-40272D01*
X55322Y-40246D01*
X55253Y-40245D01*
X55189Y-40272D01*
X55139Y-40321D01*
X55113Y-40386D01*
X55112Y-40455D01*
X55139Y-40520D01*
X55188Y-40569D01*
X55253Y-40595D01*
X55322Y-40596D01*
X55387Y-40569D01*
X55436Y-40520D01*
X55462Y-40455D01*
X55463Y-40386D01*
X55463Y-40669D01*
X55400Y-40644D01*
X55331Y-40643D01*
X55267Y-40670D01*
X55217Y-40719D01*
X55191Y-40784D01*
X55190Y-40853D01*
X55217Y-40918D01*
X55266Y-40967D01*
X55331Y-40993D01*
X55400Y-40994D01*
X55465Y-40967D01*
X55514Y-40918D01*
X55540Y-40853D01*
X55541Y-40784D01*
X55541Y-41696D01*
X55479Y-41671D01*
X55435Y-41670D01*
X55435Y-41174D01*
X55408Y-41110D01*
X55359Y-41060D01*
X55294Y-41034D01*
X55225Y-41033D01*
X55161Y-41060D01*
X55111Y-41109D01*
X55085Y-41174D01*
X55084Y-41243D01*
X55111Y-41308D01*
X55160Y-41357D01*
X55225Y-41383D01*
X55294Y-41384D01*
X55359Y-41357D01*
X55408Y-41308D01*
X55434Y-41243D01*
X55435Y-41174D01*
X55435Y-41670D01*
X55410Y-41670D01*
X55346Y-41697D01*
X55296Y-41746D01*
X55270Y-41811D01*
X55269Y-41880D01*
X55296Y-41945D01*
X55345Y-41994D01*
X55410Y-42020D01*
X55479Y-42021D01*
X55544Y-41994D01*
X55578Y-41959D01*
X55605Y-41987D01*
X55670Y-42013D01*
X55739Y-42014D01*
X55804Y-41987D01*
X55853Y-41938D01*
X55879Y-41873D01*
X55880Y-41804D01*
X55880Y-43369D01*
X55858Y-43347D01*
X55786Y-43318D01*
X55709Y-43317D01*
X55638Y-43347D01*
X55628Y-43357D01*
X55628Y-43032D01*
X55601Y-42968D01*
X55552Y-42918D01*
X55487Y-42892D01*
X55418Y-42891D01*
X55354Y-42918D01*
X55339Y-42933D01*
X55324Y-42918D01*
X55259Y-42892D01*
X55190Y-42891D01*
X55126Y-42918D01*
X55106Y-42938D01*
X55083Y-42914D01*
X55018Y-42888D01*
X54949Y-42887D01*
X54911Y-42903D01*
X54911Y-36296D01*
X54884Y-36232D01*
X54848Y-36195D01*
X54869Y-36174D01*
X54895Y-36109D01*
X54896Y-36040D01*
X54869Y-35976D01*
X54820Y-35926D01*
X54755Y-35900D01*
X54686Y-35899D01*
X54622Y-35926D01*
X54572Y-35975D01*
X54546Y-36040D01*
X54545Y-36109D01*
X54572Y-36174D01*
X54608Y-36210D01*
X54587Y-36231D01*
X54561Y-36296D01*
X54560Y-36365D01*
X54587Y-36430D01*
X54636Y-36479D01*
X54701Y-36505D01*
X54770Y-36506D01*
X54835Y-36479D01*
X54884Y-36430D01*
X54910Y-36365D01*
X54911Y-36296D01*
X54911Y-42903D01*
X54885Y-42914D01*
X54856Y-42943D01*
X54820Y-42907D01*
X54820Y-38075D01*
X54794Y-38011D01*
X54744Y-37961D01*
X54680Y-37935D01*
X54628Y-37935D01*
X54628Y-37284D01*
X54601Y-37220D01*
X54552Y-37170D01*
X54487Y-37144D01*
X54418Y-37143D01*
X54354Y-37170D01*
X54304Y-37219D01*
X54278Y-37284D01*
X54277Y-37353D01*
X54304Y-37418D01*
X54353Y-37467D01*
X54418Y-37493D01*
X54487Y-37494D01*
X54552Y-37467D01*
X54601Y-37418D01*
X54627Y-37353D01*
X54628Y-37284D01*
X54628Y-37935D01*
X54611Y-37935D01*
X54546Y-37961D01*
X54505Y-38002D01*
X54505Y-37681D01*
X54479Y-37617D01*
X54429Y-37568D01*
X54365Y-37541D01*
X54296Y-37541D01*
X54231Y-37568D01*
X54182Y-37617D01*
X54155Y-37681D01*
X54155Y-37751D01*
X54182Y-37815D01*
X54231Y-37864D01*
X54295Y-37891D01*
X54365Y-37891D01*
X54429Y-37864D01*
X54478Y-37815D01*
X54505Y-37751D01*
X54505Y-37681D01*
X54505Y-38002D01*
X54497Y-38010D01*
X54470Y-38075D01*
X54470Y-38144D01*
X54497Y-38209D01*
X54546Y-38258D01*
X54610Y-38285D01*
X54680Y-38285D01*
X54744Y-38258D01*
X54793Y-38209D01*
X54820Y-38145D01*
X54820Y-38075D01*
X54820Y-42907D01*
X54820Y-42906D01*
X54755Y-42880D01*
X54741Y-42880D01*
X54741Y-42406D01*
X54715Y-42341D01*
X54666Y-42292D01*
X54601Y-42265D01*
X54532Y-42265D01*
X54467Y-42292D01*
X54418Y-42341D01*
X54391Y-42405D01*
X54391Y-42475D01*
X54418Y-42539D01*
X54467Y-42589D01*
X54531Y-42615D01*
X54601Y-42615D01*
X54665Y-42589D01*
X54715Y-42540D01*
X54741Y-42475D01*
X54741Y-42406D01*
X54741Y-42880D01*
X54686Y-42879D01*
X54622Y-42906D01*
X54572Y-42955D01*
X54546Y-43020D01*
X54545Y-43089D01*
X54572Y-43154D01*
X54621Y-43203D01*
X54686Y-43229D01*
X54755Y-43230D01*
X54820Y-43203D01*
X54848Y-43174D01*
X54884Y-43211D01*
X54949Y-43237D01*
X55018Y-43238D01*
X55083Y-43211D01*
X55102Y-43191D01*
X55125Y-43215D01*
X55190Y-43241D01*
X55259Y-43242D01*
X55324Y-43215D01*
X55338Y-43200D01*
X55353Y-43215D01*
X55418Y-43241D01*
X55487Y-43242D01*
X55552Y-43215D01*
X55601Y-43166D01*
X55627Y-43101D01*
X55628Y-43032D01*
X55628Y-43357D01*
X55583Y-43401D01*
X55554Y-43473D01*
X55553Y-43550D01*
X55583Y-43621D01*
X55637Y-43676D01*
X55709Y-43705D01*
X55786Y-43706D01*
X55857Y-43676D01*
X55912Y-43622D01*
X55941Y-43550D01*
X55942Y-43473D01*
X55942Y-43715D01*
X55846Y-43810D01*
X55846Y-44102D01*
X55975Y-44232D01*
X58548Y-44232D01*
X58527Y-44241D01*
X58477Y-44290D01*
X58451Y-44355D01*
X58450Y-44424D01*
X58477Y-44489D01*
X58526Y-44538D01*
X58591Y-44564D01*
X58660Y-44565D01*
X58725Y-44538D01*
X58774Y-44489D01*
X58800Y-44424D01*
X58801Y-44355D01*
X58774Y-44291D01*
X58725Y-44241D01*
X58703Y-44232D01*
X59804Y-44232D01*
X59786Y-44276D01*
X59785Y-44345D01*
X59812Y-44410D01*
X59861Y-44459D01*
X59926Y-44485D01*
X59995Y-44486D01*
X60060Y-44459D01*
X60109Y-44410D01*
X60135Y-44345D01*
X60136Y-44276D01*
X60117Y-44232D01*
X61109Y-44232D01*
X61909Y-43470D01*
X61909Y-44281D01*
X61873Y-44266D01*
X61811Y-44266D01*
X61754Y-44289D01*
X61711Y-44333D01*
X61687Y-44390D01*
X61687Y-44451D01*
X61711Y-44508D01*
X61754Y-44552D01*
X61811Y-44576D01*
X61873Y-44576D01*
X61909Y-44561D01*
X61909Y-44580D01*
X61879Y-44609D01*
X61852Y-44674D01*
X61852Y-44743D01*
X61879Y-44808D01*
X61909Y-44838D01*
X61909Y-45160D01*
X61861Y-45140D01*
X61800Y-45140D01*
X61743Y-45163D01*
X61699Y-45207D01*
X61675Y-45264D01*
X61675Y-45325D01*
X61699Y-45382D01*
X61742Y-45426D01*
X61799Y-45450D01*
X61861Y-45450D01*
X61909Y-45430D01*
X61909Y-46291D01*
X61907Y-46293D01*
X61907Y-46264D01*
X61880Y-46200D01*
X61831Y-46150D01*
X61767Y-46124D01*
X61697Y-46124D01*
X61633Y-46150D01*
X61584Y-46199D01*
X61574Y-46222D01*
X61568Y-46205D01*
X61568Y-44591D01*
X61547Y-44541D01*
X61509Y-44503D01*
X61460Y-44483D01*
X61406Y-44483D01*
X61356Y-44503D01*
X61318Y-44541D01*
X61298Y-44591D01*
X61298Y-44644D01*
X61318Y-44694D01*
X61356Y-44732D01*
X61406Y-44753D01*
X61459Y-44753D01*
X61509Y-44732D01*
X61547Y-44694D01*
X61568Y-44645D01*
X61568Y-44591D01*
X61568Y-46205D01*
X61565Y-46200D01*
X61516Y-46150D01*
X61452Y-46124D01*
X61382Y-46124D01*
X61318Y-46150D01*
X61269Y-46199D01*
X61242Y-46264D01*
X61242Y-46333D01*
X61268Y-46398D01*
X61318Y-46447D01*
X61382Y-46474D01*
X61451Y-46474D01*
X61516Y-46447D01*
X61565Y-46398D01*
X61574Y-46376D01*
X61583Y-46398D01*
X61633Y-46447D01*
X61697Y-46474D01*
X61734Y-46474D01*
X61277Y-46953D01*
X61277Y-46776D01*
X61250Y-46712D01*
X61201Y-46662D01*
X61137Y-46636D01*
X61135Y-46636D01*
X61135Y-44788D01*
X61127Y-44769D01*
X61127Y-44441D01*
X61103Y-44384D01*
X61060Y-44341D01*
X61003Y-44317D01*
X60941Y-44317D01*
X60884Y-44340D01*
X60841Y-44384D01*
X60817Y-44441D01*
X60817Y-44503D01*
X60840Y-44560D01*
X60884Y-44603D01*
X60941Y-44627D01*
X61003Y-44627D01*
X61060Y-44603D01*
X61103Y-44560D01*
X61127Y-44503D01*
X61127Y-44441D01*
X61127Y-44769D01*
X61111Y-44731D01*
X61068Y-44687D01*
X61011Y-44663D01*
X60949Y-44663D01*
X60892Y-44687D01*
X60848Y-44730D01*
X60825Y-44787D01*
X60825Y-44849D01*
X60848Y-44906D01*
X60892Y-44950D01*
X60949Y-44973D01*
X61011Y-44973D01*
X61068Y-44950D01*
X61111Y-44906D01*
X61135Y-44849D01*
X61135Y-44788D01*
X61135Y-46636D01*
X61067Y-46635D01*
X61003Y-46662D01*
X60954Y-46711D01*
X60927Y-46776D01*
X60927Y-46845D01*
X60953Y-46910D01*
X61003Y-46959D01*
X61067Y-46985D01*
X61137Y-46986D01*
X61201Y-46959D01*
X61250Y-46910D01*
X61277Y-46845D01*
X61277Y-46776D01*
X61277Y-46953D01*
X61093Y-47145D01*
X59584Y-47145D01*
X59584Y-46264D01*
X59557Y-46200D01*
X59508Y-46150D01*
X59444Y-46124D01*
X59374Y-46124D01*
X59310Y-46150D01*
X59261Y-46199D01*
X59251Y-46222D01*
X59242Y-46200D01*
X59193Y-46150D01*
X59129Y-46124D01*
X59059Y-46124D01*
X58995Y-46150D01*
X58946Y-46199D01*
X58919Y-46264D01*
X58919Y-46333D01*
X58946Y-46398D01*
X58995Y-46447D01*
X59059Y-46474D01*
X59129Y-46474D01*
X59193Y-46447D01*
X59242Y-46398D01*
X59251Y-46376D01*
X59261Y-46398D01*
X59310Y-46447D01*
X59374Y-46474D01*
X59444Y-46474D01*
X59508Y-46447D01*
X59557Y-46398D01*
X59584Y-46334D01*
X59584Y-46264D01*
X59584Y-47145D01*
X58810Y-47145D01*
X58810Y-45191D01*
X58780Y-45120D01*
X58726Y-45065D01*
X58654Y-45036D01*
X58577Y-45035D01*
X58506Y-45065D01*
X58451Y-45119D01*
X58422Y-45191D01*
X58421Y-45268D01*
X58451Y-45339D01*
X58505Y-45394D01*
X58577Y-45423D01*
X58654Y-45424D01*
X58725Y-45394D01*
X58780Y-45340D01*
X58809Y-45268D01*
X58810Y-45191D01*
X58810Y-47145D01*
X58757Y-47145D01*
X58757Y-46815D01*
X58731Y-46751D01*
X58681Y-46702D01*
X58617Y-46675D01*
X58548Y-46675D01*
X58483Y-46701D01*
X58434Y-46751D01*
X58407Y-46815D01*
X58407Y-46885D01*
X58434Y-46949D01*
X58483Y-46998D01*
X58547Y-47025D01*
X58617Y-47025D01*
X58681Y-46998D01*
X58730Y-46949D01*
X58757Y-46885D01*
X58757Y-46815D01*
X58757Y-47145D01*
X58245Y-47145D01*
X58245Y-46815D01*
X58219Y-46751D01*
X58170Y-46702D01*
X58105Y-46675D01*
X58036Y-46675D01*
X57971Y-46701D01*
X57922Y-46751D01*
X57895Y-46815D01*
X57895Y-46885D01*
X57922Y-46949D01*
X57971Y-46998D01*
X58035Y-47025D01*
X58105Y-47025D01*
X58169Y-46998D01*
X58219Y-46949D01*
X58245Y-46885D01*
X58245Y-46815D01*
X58245Y-47145D01*
X57862Y-47145D01*
X57862Y-44479D01*
X57832Y-44408D01*
X57778Y-44353D01*
X57706Y-44324D01*
X57629Y-44323D01*
X57558Y-44353D01*
X57503Y-44407D01*
X57474Y-44479D01*
X57473Y-44556D01*
X57503Y-44627D01*
X57557Y-44682D01*
X57629Y-44711D01*
X57706Y-44712D01*
X57777Y-44682D01*
X57832Y-44628D01*
X57861Y-44556D01*
X57862Y-44479D01*
X57862Y-47145D01*
X57576Y-47145D01*
X57576Y-46815D01*
X57550Y-46751D01*
X57500Y-46702D01*
X57436Y-46675D01*
X57366Y-46675D01*
X57302Y-46701D01*
X57253Y-46751D01*
X57226Y-46815D01*
X57226Y-46885D01*
X57253Y-46949D01*
X57302Y-46998D01*
X57366Y-47025D01*
X57436Y-47025D01*
X57500Y-46998D01*
X57549Y-46949D01*
X57576Y-46885D01*
X57576Y-46815D01*
X57576Y-47145D01*
X57182Y-47145D01*
X57182Y-46264D01*
X57156Y-46200D01*
X57107Y-46150D01*
X57042Y-46124D01*
X56973Y-46124D01*
X56908Y-46150D01*
X56859Y-46199D01*
X56850Y-46222D01*
X56841Y-46200D01*
X56792Y-46150D01*
X56727Y-46124D01*
X56658Y-46124D01*
X56593Y-46150D01*
X56544Y-46199D01*
X56517Y-46264D01*
X56517Y-46333D01*
X56544Y-46398D01*
X56593Y-46447D01*
X56657Y-46474D01*
X56727Y-46474D01*
X56791Y-46447D01*
X56841Y-46398D01*
X56850Y-46376D01*
X56859Y-46398D01*
X56908Y-46447D01*
X56972Y-46474D01*
X57042Y-46474D01*
X57106Y-46447D01*
X57156Y-46398D01*
X57182Y-46334D01*
X57182Y-46264D01*
X57182Y-47145D01*
X56671Y-47145D01*
X56671Y-46815D01*
X56644Y-46751D01*
X56595Y-46702D01*
X56531Y-46675D01*
X56461Y-46675D01*
X56397Y-46701D01*
X56347Y-46751D01*
X56321Y-46815D01*
X56321Y-46885D01*
X56347Y-46949D01*
X56396Y-46998D01*
X56461Y-47025D01*
X56530Y-47025D01*
X56595Y-46998D01*
X56644Y-46949D01*
X56671Y-46885D01*
X56671Y-46815D01*
X56671Y-47145D01*
X55952Y-47145D01*
X55788Y-46983D01*
X55847Y-46959D01*
X55896Y-46910D01*
X55923Y-46845D01*
X55923Y-46776D01*
X55896Y-46712D01*
X55847Y-46662D01*
X55782Y-46636D01*
X55713Y-46635D01*
X55649Y-46662D01*
X55599Y-46711D01*
X55574Y-46772D01*
X55411Y-46611D01*
X55411Y-44949D01*
X55381Y-44878D01*
X55327Y-44823D01*
X55255Y-44794D01*
X55178Y-44793D01*
X55107Y-44823D01*
X55052Y-44877D01*
X55023Y-44949D01*
X55022Y-45026D01*
X55045Y-45082D01*
X54993Y-45081D01*
X54922Y-45111D01*
X54867Y-45165D01*
X54838Y-45237D01*
X54837Y-45314D01*
X54867Y-45385D01*
X54921Y-45440D01*
X54993Y-45469D01*
X55070Y-45470D01*
X55141Y-45440D01*
X55196Y-45386D01*
X55225Y-45314D01*
X55226Y-45237D01*
X55203Y-45181D01*
X55255Y-45182D01*
X55326Y-45152D01*
X55381Y-45098D01*
X55410Y-45026D01*
X55411Y-44949D01*
X55411Y-46611D01*
X54754Y-45963D01*
X54754Y-44190D01*
X54727Y-44126D01*
X54678Y-44076D01*
X54632Y-44057D01*
X54632Y-43442D01*
X54605Y-43378D01*
X54556Y-43328D01*
X54491Y-43302D01*
X54422Y-43301D01*
X54358Y-43328D01*
X54348Y-43338D01*
X54348Y-39138D01*
X54321Y-39074D01*
X54272Y-39024D01*
X54230Y-39007D01*
X54230Y-37957D01*
X54203Y-37893D01*
X54154Y-37843D01*
X54090Y-37817D01*
X54020Y-37817D01*
X53956Y-37843D01*
X53954Y-37845D01*
X53954Y-37681D01*
X53927Y-37617D01*
X53878Y-37568D01*
X53814Y-37541D01*
X53744Y-37541D01*
X53680Y-37568D01*
X53631Y-37617D01*
X53604Y-37681D01*
X53604Y-37751D01*
X53631Y-37815D01*
X53680Y-37864D01*
X53744Y-37891D01*
X53814Y-37891D01*
X53878Y-37864D01*
X53927Y-37815D01*
X53954Y-37751D01*
X53954Y-37681D01*
X53954Y-37845D01*
X53906Y-37892D01*
X53880Y-37957D01*
X53880Y-38026D01*
X53906Y-38091D01*
X53955Y-38140D01*
X54020Y-38167D01*
X54089Y-38167D01*
X54154Y-38140D01*
X54203Y-38091D01*
X54230Y-38027D01*
X54230Y-37957D01*
X54230Y-39007D01*
X54208Y-38998D01*
X54138Y-38998D01*
X54074Y-39024D01*
X54024Y-39073D01*
X53998Y-39138D01*
X53998Y-39207D01*
X54024Y-39272D01*
X54073Y-39321D01*
X54138Y-39348D01*
X54207Y-39348D01*
X54272Y-39321D01*
X54321Y-39272D01*
X54348Y-39208D01*
X54348Y-39138D01*
X54348Y-43338D01*
X54308Y-43377D01*
X54282Y-43442D01*
X54281Y-43511D01*
X54308Y-43576D01*
X54357Y-43625D01*
X54422Y-43651D01*
X54491Y-43652D01*
X54556Y-43625D01*
X54605Y-43576D01*
X54631Y-43511D01*
X54632Y-43442D01*
X54632Y-44057D01*
X54613Y-44050D01*
X54544Y-44049D01*
X54480Y-44076D01*
X54430Y-44125D01*
X54404Y-44190D01*
X54403Y-44259D01*
X54430Y-44324D01*
X54479Y-44373D01*
X54544Y-44399D01*
X54613Y-44400D01*
X54678Y-44373D01*
X54727Y-44324D01*
X54753Y-44259D01*
X54754Y-44190D01*
X54754Y-45963D01*
X54190Y-45407D01*
X54190Y-41303D01*
X54164Y-41239D01*
X54115Y-41190D01*
X54050Y-41163D01*
X53981Y-41163D01*
X53916Y-41190D01*
X53867Y-41239D01*
X53840Y-41303D01*
X53840Y-41373D01*
X53867Y-41437D01*
X53916Y-41486D01*
X53980Y-41513D01*
X54050Y-41513D01*
X54114Y-41487D01*
X54164Y-41437D01*
X54190Y-41373D01*
X54190Y-41303D01*
X54190Y-45407D01*
X53837Y-45059D01*
X53837Y-38520D01*
X53810Y-38456D01*
X53809Y-38455D01*
X53810Y-38454D01*
X53836Y-38389D01*
X53837Y-38320D01*
X53810Y-38256D01*
X53761Y-38206D01*
X53696Y-38180D01*
X53627Y-38179D01*
X53563Y-38206D01*
X53513Y-38255D01*
X53487Y-38320D01*
X53486Y-38389D01*
X53513Y-38454D01*
X53514Y-38454D01*
X53513Y-38455D01*
X53487Y-38520D01*
X53486Y-38589D01*
X53513Y-38654D01*
X53562Y-38703D01*
X53627Y-38729D01*
X53696Y-38730D01*
X53761Y-38703D01*
X53810Y-38654D01*
X53836Y-38589D01*
X53837Y-38520D01*
X53837Y-45059D01*
X53825Y-45047D01*
X53825Y-41501D01*
X53798Y-41437D01*
X53749Y-41387D01*
X53705Y-41369D01*
X53739Y-41335D01*
X53765Y-41270D01*
X53766Y-41201D01*
X53739Y-41137D01*
X53737Y-41134D01*
X53761Y-41074D01*
X53762Y-41005D01*
X53735Y-40941D01*
X53686Y-40891D01*
X53621Y-40865D01*
X53552Y-40864D01*
X53488Y-40891D01*
X53438Y-40940D01*
X53412Y-41005D01*
X53411Y-41074D01*
X53438Y-41139D01*
X53440Y-41141D01*
X53416Y-41201D01*
X53415Y-41270D01*
X53442Y-41335D01*
X53491Y-41384D01*
X53535Y-41402D01*
X53501Y-41436D01*
X53475Y-41501D01*
X53474Y-41570D01*
X53501Y-41635D01*
X53550Y-41684D01*
X53615Y-41710D01*
X53684Y-41711D01*
X53749Y-41684D01*
X53798Y-41635D01*
X53824Y-41570D01*
X53825Y-41501D01*
X53825Y-45047D01*
X53754Y-44977D01*
X53754Y-42087D01*
X53727Y-42023D01*
X53753Y-41959D01*
X53754Y-41890D01*
X53727Y-41826D01*
X53678Y-41776D01*
X53613Y-41750D01*
X53544Y-41749D01*
X53480Y-41776D01*
X53430Y-41825D01*
X53404Y-41890D01*
X53403Y-41959D01*
X53430Y-42023D01*
X53404Y-42087D01*
X53403Y-42156D01*
X53430Y-42221D01*
X53479Y-42270D01*
X53544Y-42296D01*
X53613Y-42297D01*
X53678Y-42270D01*
X53727Y-42221D01*
X53753Y-42156D01*
X53754Y-42087D01*
X53754Y-44977D01*
X53733Y-44956D01*
X53733Y-44158D01*
X53703Y-44087D01*
X53649Y-44032D01*
X53641Y-44029D01*
X53648Y-44026D01*
X53703Y-43972D01*
X53732Y-43900D01*
X53733Y-43823D01*
X53703Y-43752D01*
X53649Y-43697D01*
X53577Y-43668D01*
X53500Y-43667D01*
X53429Y-43697D01*
X53374Y-43751D01*
X53345Y-43823D01*
X53344Y-43900D01*
X53374Y-43971D01*
X53428Y-44026D01*
X53436Y-44029D01*
X53429Y-44032D01*
X53374Y-44086D01*
X53345Y-44158D01*
X53344Y-44235D01*
X53374Y-44306D01*
X53428Y-44361D01*
X53500Y-44390D01*
X53577Y-44391D01*
X53648Y-44361D01*
X53703Y-44307D01*
X53732Y-44235D01*
X53733Y-44158D01*
X53733Y-44956D01*
X53157Y-44389D01*
X52213Y-44389D01*
X52145Y-44322D01*
X52145Y-43432D01*
X53090Y-42448D01*
X53090Y-41188D01*
X53484Y-40716D01*
X53484Y-40688D01*
X53502Y-40707D01*
X53567Y-40733D01*
X53636Y-40734D01*
X53701Y-40707D01*
X53750Y-40658D01*
X53776Y-40593D01*
X53777Y-40524D01*
X53750Y-40460D01*
X53701Y-40410D01*
X53636Y-40384D01*
X53567Y-40383D01*
X53503Y-40410D01*
X53484Y-40429D01*
X53484Y-40349D01*
X53548Y-40375D01*
X53617Y-40376D01*
X53682Y-40349D01*
X53731Y-40300D01*
X53757Y-40235D01*
X53758Y-40166D01*
X53731Y-40102D01*
X53682Y-40052D01*
X53617Y-40026D01*
X53548Y-40025D01*
X53484Y-40052D01*
X53484Y-39692D01*
X53510Y-39719D01*
X53575Y-39745D01*
X53644Y-39746D01*
X53709Y-39719D01*
X53758Y-39670D01*
X53784Y-39605D01*
X53785Y-39536D01*
X53762Y-39481D01*
X53774Y-39469D01*
X53800Y-39404D01*
X53801Y-39335D01*
X53774Y-39271D01*
X53725Y-39221D01*
X53660Y-39195D01*
X53591Y-39194D01*
X53527Y-39221D01*
X53484Y-39263D01*
X53484Y-39038D01*
X53501Y-39080D01*
X53550Y-39129D01*
X53615Y-39155D01*
X53684Y-39156D01*
X53749Y-39129D01*
X53798Y-39080D01*
X53824Y-39015D01*
X53825Y-38946D01*
X53798Y-38882D01*
X53749Y-38832D01*
X53684Y-38806D01*
X53615Y-38805D01*
X53551Y-38832D01*
X53501Y-38881D01*
X53484Y-38923D01*
X53484Y-37097D01*
X54468Y-36467D01*
X54468Y-34752D01*
X53941Y-34468D01*
X52083Y-34468D01*
X51610Y-34665D01*
X51071Y-34665D01*
X50964Y-34558D01*
X50964Y-34299D01*
X51110Y-34153D01*
X55900Y-34153D01*
X56594Y-34539D01*
X56594Y-36857D01*
X56845Y-37149D01*
X59126Y-37149D01*
X59213Y-37102D01*
X59201Y-37113D01*
X59175Y-37178D01*
X59174Y-37247D01*
X59201Y-37312D01*
X59250Y-37361D01*
X59315Y-37387D01*
X59384Y-37388D01*
X59449Y-37361D01*
X59498Y-37312D01*
X59524Y-37247D01*
X59525Y-37178D01*
X59498Y-37114D01*
X59449Y-37064D01*
X59384Y-37038D01*
X59330Y-37037D01*
X59940Y-36704D01*
X59940Y-35126D01*
X60087Y-34980D01*
X60424Y-34980D01*
X60571Y-35126D01*
X60571Y-38392D01*
X61248Y-39230D01*
X62263Y-39502D01*
X62263Y-39908D01*
X62263Y-39908D01*
G37*
G54D28*
X62263Y-39908D02*
X61439Y-40262D01*
X61439Y-40036D01*
X61412Y-39972D01*
X61363Y-39922D01*
X61298Y-39896D01*
X61229Y-39895D01*
X61165Y-39922D01*
X61115Y-39971D01*
X61089Y-40036D01*
X61088Y-40105D01*
X61115Y-40170D01*
X61164Y-40219D01*
X61229Y-40245D01*
X61298Y-40246D01*
X61363Y-40219D01*
X61412Y-40170D01*
X61438Y-40105D01*
X61439Y-40036D01*
X61439Y-40262D01*
X61437Y-40263D01*
X61437Y-40756D01*
X61555Y-40874D01*
X61555Y-42983D01*
X61403Y-43136D01*
X61403Y-42142D01*
X61376Y-42078D01*
X61327Y-42028D01*
X61277Y-42007D01*
X61277Y-40800D01*
X61250Y-40736D01*
X61201Y-40686D01*
X61136Y-40660D01*
X61067Y-40659D01*
X61003Y-40686D01*
X60955Y-40734D01*
X60955Y-39371D01*
X60928Y-39307D01*
X60879Y-39257D01*
X60814Y-39231D01*
X60745Y-39230D01*
X60681Y-39257D01*
X60631Y-39306D01*
X60605Y-39371D01*
X60604Y-39440D01*
X60631Y-39505D01*
X60680Y-39554D01*
X60745Y-39580D01*
X60814Y-39581D01*
X60879Y-39554D01*
X60928Y-39505D01*
X60954Y-39440D01*
X60955Y-39371D01*
X60955Y-40734D01*
X60953Y-40735D01*
X60927Y-40800D01*
X60926Y-40869D01*
X60953Y-40934D01*
X61002Y-40983D01*
X61067Y-41009D01*
X61136Y-41010D01*
X61201Y-40983D01*
X61250Y-40934D01*
X61276Y-40869D01*
X61277Y-40800D01*
X61277Y-42007D01*
X61262Y-42002D01*
X61193Y-42001D01*
X61129Y-42028D01*
X61079Y-42077D01*
X61053Y-42142D01*
X61052Y-42211D01*
X61079Y-42276D01*
X61128Y-42325D01*
X61193Y-42351D01*
X61262Y-42352D01*
X61327Y-42325D01*
X61376Y-42276D01*
X61402Y-42211D01*
X61403Y-42142D01*
X61403Y-43136D01*
X60857Y-43681D01*
X60648Y-43681D01*
X60648Y-40965D01*
X60621Y-40901D01*
X60572Y-40851D01*
X60514Y-40827D01*
X60514Y-39209D01*
X60487Y-39145D01*
X60441Y-39098D01*
X60441Y-35447D01*
X60414Y-35383D01*
X60365Y-35333D01*
X60300Y-35307D01*
X60231Y-35306D01*
X60167Y-35333D01*
X60117Y-35382D01*
X60091Y-35447D01*
X60090Y-35516D01*
X60117Y-35581D01*
X60127Y-35590D01*
X60097Y-35619D01*
X60071Y-35684D01*
X60070Y-35753D01*
X60097Y-35818D01*
X60146Y-35867D01*
X60211Y-35893D01*
X60280Y-35894D01*
X60345Y-35867D01*
X60394Y-35818D01*
X60420Y-35753D01*
X60421Y-35684D01*
X60394Y-35620D01*
X60384Y-35610D01*
X60414Y-35581D01*
X60440Y-35516D01*
X60441Y-35447D01*
X60441Y-39098D01*
X60438Y-39095D01*
X60373Y-39069D01*
X60304Y-39068D01*
X60240Y-39095D01*
X60190Y-39144D01*
X60164Y-39209D01*
X60163Y-39278D01*
X60190Y-39343D01*
X60239Y-39392D01*
X60304Y-39418D01*
X60373Y-39419D01*
X60438Y-39392D01*
X60487Y-39343D01*
X60513Y-39278D01*
X60514Y-39209D01*
X60514Y-40827D01*
X60507Y-40825D01*
X60494Y-40825D01*
X60494Y-39949D01*
X60467Y-39885D01*
X60418Y-39835D01*
X60353Y-39809D01*
X60284Y-39808D01*
X60220Y-39835D01*
X60170Y-39884D01*
X60144Y-39949D01*
X60143Y-40018D01*
X60170Y-40083D01*
X60219Y-40132D01*
X60284Y-40158D01*
X60353Y-40159D01*
X60418Y-40132D01*
X60467Y-40083D01*
X60493Y-40018D01*
X60494Y-39949D01*
X60494Y-40825D01*
X60438Y-40824D01*
X60374Y-40851D01*
X60324Y-40900D01*
X60298Y-40965D01*
X60297Y-41034D01*
X60324Y-41099D01*
X60373Y-41148D01*
X60438Y-41174D01*
X60507Y-41175D01*
X60572Y-41148D01*
X60621Y-41099D01*
X60647Y-41034D01*
X60648Y-40965D01*
X60648Y-43681D01*
X60380Y-43681D01*
X60380Y-43449D01*
X60353Y-43385D01*
X60348Y-43379D01*
X60348Y-42599D01*
X60318Y-42528D01*
X60264Y-42473D01*
X60214Y-42452D01*
X60214Y-41402D01*
X60187Y-41338D01*
X60168Y-41319D01*
X60178Y-41310D01*
X60204Y-41245D01*
X60205Y-41176D01*
X60178Y-41112D01*
X60129Y-41062D01*
X60064Y-41036D01*
X60022Y-41035D01*
X60050Y-41024D01*
X60099Y-40975D01*
X60125Y-40910D01*
X60126Y-40841D01*
X60099Y-40777D01*
X60057Y-40734D01*
X60057Y-37351D01*
X60030Y-37287D01*
X59981Y-37237D01*
X59916Y-37211D01*
X59847Y-37210D01*
X59783Y-37237D01*
X59733Y-37286D01*
X59707Y-37351D01*
X59706Y-37420D01*
X59733Y-37485D01*
X59782Y-37534D01*
X59847Y-37560D01*
X59916Y-37561D01*
X59981Y-37534D01*
X60030Y-37485D01*
X60056Y-37420D01*
X60057Y-37351D01*
X60057Y-40734D01*
X60050Y-40727D01*
X59985Y-40701D01*
X59962Y-40701D01*
X59962Y-39835D01*
X59935Y-39771D01*
X59923Y-39758D01*
X59923Y-38985D01*
X59896Y-38921D01*
X59847Y-38871D01*
X59782Y-38845D01*
X59713Y-38844D01*
X59649Y-38871D01*
X59599Y-38920D01*
X59573Y-38985D01*
X59572Y-39054D01*
X59599Y-39119D01*
X59648Y-39168D01*
X59713Y-39194D01*
X59782Y-39195D01*
X59847Y-39168D01*
X59896Y-39119D01*
X59922Y-39054D01*
X59923Y-38985D01*
X59923Y-39758D01*
X59886Y-39721D01*
X59821Y-39695D01*
X59752Y-39694D01*
X59688Y-39721D01*
X59638Y-39770D01*
X59612Y-39835D01*
X59611Y-39904D01*
X59638Y-39969D01*
X59687Y-40018D01*
X59752Y-40044D01*
X59821Y-40045D01*
X59886Y-40018D01*
X59935Y-39969D01*
X59961Y-39904D01*
X59962Y-39835D01*
X59962Y-40701D01*
X59916Y-40700D01*
X59913Y-40702D01*
X59888Y-40641D01*
X59839Y-40591D01*
X59775Y-40565D01*
X59817Y-40524D01*
X59843Y-40459D01*
X59844Y-40390D01*
X59817Y-40326D01*
X59800Y-40309D01*
X59820Y-40259D01*
X59821Y-40190D01*
X59794Y-40126D01*
X59745Y-40076D01*
X59680Y-40050D01*
X59611Y-40049D01*
X59547Y-40076D01*
X59497Y-40125D01*
X59471Y-40190D01*
X59470Y-40259D01*
X59497Y-40324D01*
X59514Y-40340D01*
X59494Y-40390D01*
X59493Y-40459D01*
X59520Y-40524D01*
X59569Y-40573D01*
X59633Y-40599D01*
X59591Y-40640D01*
X59565Y-40705D01*
X59564Y-40774D01*
X59591Y-40839D01*
X59640Y-40888D01*
X59705Y-40914D01*
X59774Y-40915D01*
X59777Y-40913D01*
X59802Y-40975D01*
X59851Y-41024D01*
X59916Y-41050D01*
X59958Y-41051D01*
X59931Y-41062D01*
X59881Y-41111D01*
X59855Y-41176D01*
X59854Y-41245D01*
X59881Y-41310D01*
X59900Y-41328D01*
X59890Y-41337D01*
X59864Y-41402D01*
X59863Y-41471D01*
X59890Y-41536D01*
X59939Y-41585D01*
X60004Y-41611D01*
X60073Y-41612D01*
X60138Y-41585D01*
X60187Y-41536D01*
X60213Y-41471D01*
X60214Y-41402D01*
X60214Y-42452D01*
X60192Y-42444D01*
X60115Y-42443D01*
X60044Y-42473D01*
X59989Y-42527D01*
X59960Y-42599D01*
X59959Y-42676D01*
X59989Y-42747D01*
X60043Y-42802D01*
X60115Y-42831D01*
X60192Y-42832D01*
X60263Y-42802D01*
X60318Y-42748D01*
X60347Y-42676D01*
X60348Y-42599D01*
X60348Y-43379D01*
X60304Y-43335D01*
X60239Y-43309D01*
X60170Y-43308D01*
X60106Y-43335D01*
X60056Y-43384D01*
X60030Y-43449D01*
X60029Y-43518D01*
X60056Y-43583D01*
X60105Y-43632D01*
X60170Y-43658D01*
X60239Y-43659D01*
X60304Y-43632D01*
X60353Y-43583D01*
X60379Y-43518D01*
X60380Y-43449D01*
X60380Y-43681D01*
X59456Y-43681D01*
X59456Y-42032D01*
X59429Y-41968D01*
X59393Y-41932D01*
X59420Y-41906D01*
X59446Y-41841D01*
X59447Y-41772D01*
X59420Y-41708D01*
X59377Y-41665D01*
X59373Y-41660D01*
X59373Y-41365D01*
X59377Y-41356D01*
X59383Y-41342D01*
X59383Y-41280D01*
X59377Y-41265D01*
X59374Y-41257D01*
X59374Y-41167D01*
X59377Y-41159D01*
X59383Y-41145D01*
X59383Y-41083D01*
X59377Y-41068D01*
X59374Y-41060D01*
X59374Y-40980D01*
X59377Y-40973D01*
X59387Y-40949D01*
X59387Y-40887D01*
X59377Y-40862D01*
X59374Y-40855D01*
X59374Y-40773D01*
X59377Y-40766D01*
X59383Y-40752D01*
X59383Y-40690D01*
X59377Y-40675D01*
X59374Y-40669D01*
X59374Y-40585D01*
X59377Y-40579D01*
X59387Y-40555D01*
X59387Y-40493D01*
X59377Y-40468D01*
X59375Y-40462D01*
X59375Y-40378D01*
X59377Y-40372D01*
X59383Y-40358D01*
X59383Y-40296D01*
X59377Y-40281D01*
X59375Y-40276D01*
X59375Y-40180D01*
X59377Y-40175D01*
X59383Y-40161D01*
X59383Y-40099D01*
X59377Y-40084D01*
X59375Y-40079D01*
X59375Y-39982D01*
X59377Y-39978D01*
X59383Y-39964D01*
X59383Y-39902D01*
X59377Y-39887D01*
X59375Y-39883D01*
X59375Y-39781D01*
X59377Y-39777D01*
X59383Y-39763D01*
X59383Y-39701D01*
X59377Y-39686D01*
X59376Y-39683D01*
X59376Y-39391D01*
X59377Y-39388D01*
X59383Y-39374D01*
X59383Y-39312D01*
X59377Y-39297D01*
X59376Y-39295D01*
X59376Y-39186D01*
X59377Y-39184D01*
X59380Y-39177D01*
X59380Y-39115D01*
X59377Y-39107D01*
X59376Y-39106D01*
X59376Y-38995D01*
X59377Y-38994D01*
X59383Y-38980D01*
X59383Y-38918D01*
X59377Y-38903D01*
X59377Y-38902D01*
X59377Y-38798D01*
X59377Y-38797D01*
X59383Y-38783D01*
X59383Y-38721D01*
X59377Y-38706D01*
X59377Y-38706D01*
X59377Y-38512D01*
X59325Y-38512D01*
X59325Y-37937D01*
X59298Y-37873D01*
X59249Y-37823D01*
X59184Y-37797D01*
X59115Y-37796D01*
X59051Y-37823D01*
X59001Y-37872D01*
X58975Y-37937D01*
X58974Y-38006D01*
X59001Y-38071D01*
X59050Y-38120D01*
X59115Y-38146D01*
X59184Y-38147D01*
X59249Y-38120D01*
X59298Y-38071D01*
X59324Y-38006D01*
X59325Y-37937D01*
X59325Y-38512D01*
X57995Y-38507D01*
X57978Y-38467D01*
X57935Y-38423D01*
X57878Y-38399D01*
X57816Y-38399D01*
X57759Y-38423D01*
X57715Y-38466D01*
X57698Y-38506D01*
X57210Y-38504D01*
X57194Y-38467D01*
X57151Y-38423D01*
X57094Y-38399D01*
X57032Y-38399D01*
X56975Y-38423D01*
X56964Y-38433D01*
X56954Y-38423D01*
X56897Y-38399D01*
X56835Y-38399D01*
X56778Y-38423D01*
X56767Y-38433D01*
X56757Y-38423D01*
X56750Y-38420D01*
X56750Y-38095D01*
X56723Y-38031D01*
X56674Y-37981D01*
X56609Y-37955D01*
X56540Y-37954D01*
X56476Y-37981D01*
X56450Y-38006D01*
X56418Y-37973D01*
X56353Y-37947D01*
X56285Y-37946D01*
X56285Y-35339D01*
X56255Y-35267D01*
X56201Y-35213D01*
X56129Y-35183D01*
X56052Y-35183D01*
X55980Y-35213D01*
X55926Y-35267D01*
X55896Y-35339D01*
X55896Y-35416D01*
X55926Y-35488D01*
X55980Y-35542D01*
X56052Y-35572D01*
X56129Y-35572D01*
X56201Y-35542D01*
X56255Y-35488D01*
X56285Y-35416D01*
X56285Y-35339D01*
X56285Y-37946D01*
X56284Y-37946D01*
X56220Y-37973D01*
X56170Y-38022D01*
X56159Y-38050D01*
X56159Y-37981D01*
X56156Y-37974D01*
X56156Y-37351D01*
X56129Y-37287D01*
X56080Y-37237D01*
X56015Y-37211D01*
X55946Y-37210D01*
X55882Y-37237D01*
X55832Y-37286D01*
X55813Y-37334D01*
X55813Y-36721D01*
X55786Y-36657D01*
X55773Y-36644D01*
X55773Y-35091D01*
X55743Y-35019D01*
X55689Y-34965D01*
X55617Y-34935D01*
X55540Y-34935D01*
X55468Y-34965D01*
X55414Y-35019D01*
X55384Y-35091D01*
X55384Y-35168D01*
X55414Y-35240D01*
X55468Y-35294D01*
X55540Y-35324D01*
X55617Y-35324D01*
X55689Y-35294D01*
X55743Y-35240D01*
X55773Y-35168D01*
X55773Y-35091D01*
X55773Y-36644D01*
X55737Y-36607D01*
X55672Y-36581D01*
X55603Y-36580D01*
X55539Y-36607D01*
X55489Y-36656D01*
X55463Y-36721D01*
X55462Y-36790D01*
X55489Y-36855D01*
X55538Y-36904D01*
X55603Y-36930D01*
X55672Y-36931D01*
X55737Y-36904D01*
X55786Y-36855D01*
X55812Y-36790D01*
X55813Y-36721D01*
X55813Y-37334D01*
X55806Y-37351D01*
X55805Y-37420D01*
X55832Y-37485D01*
X55881Y-37534D01*
X55946Y-37560D01*
X56015Y-37561D01*
X56080Y-37534D01*
X56129Y-37485D01*
X56155Y-37420D01*
X56156Y-37351D01*
X56156Y-37974D01*
X56132Y-37917D01*
X56083Y-37867D01*
X56018Y-37841D01*
X55949Y-37840D01*
X55885Y-37867D01*
X55835Y-37916D01*
X55809Y-37981D01*
X55808Y-38050D01*
X55835Y-38115D01*
X55884Y-38164D01*
X55949Y-38190D01*
X56018Y-38191D01*
X56083Y-38164D01*
X56132Y-38115D01*
X56158Y-38050D01*
X56159Y-37981D01*
X56159Y-38050D01*
X56144Y-38087D01*
X56143Y-38156D01*
X56170Y-38221D01*
X56219Y-38270D01*
X56284Y-38296D01*
X56353Y-38297D01*
X56418Y-38270D01*
X56443Y-38245D01*
X56475Y-38278D01*
X56540Y-38304D01*
X56609Y-38305D01*
X56674Y-38278D01*
X56723Y-38229D01*
X56749Y-38164D01*
X56750Y-38095D01*
X56750Y-38420D01*
X56700Y-38399D01*
X56638Y-38399D01*
X56581Y-38423D01*
X56537Y-38466D01*
X56522Y-38501D01*
X56122Y-38500D01*
X56121Y-38714D01*
X56120Y-38716D01*
X56120Y-38778D01*
X56121Y-38780D01*
X56114Y-40181D01*
X56108Y-40182D01*
X56108Y-38493D01*
X56081Y-38429D01*
X56032Y-38379D01*
X55967Y-38353D01*
X55898Y-38352D01*
X55834Y-38379D01*
X55784Y-38428D01*
X55758Y-38493D01*
X55757Y-38562D01*
X55784Y-38627D01*
X55833Y-38676D01*
X55898Y-38702D01*
X55967Y-38703D01*
X56032Y-38676D01*
X56081Y-38627D01*
X56107Y-38562D01*
X56108Y-38493D01*
X56108Y-40182D01*
X56101Y-40183D01*
X56101Y-40184D01*
X56100Y-40184D01*
X56068Y-40206D01*
X56051Y-40217D01*
X56051Y-40217D01*
X56050Y-40218D01*
X56006Y-40263D01*
X56006Y-39012D01*
X55979Y-38948D01*
X55930Y-38898D01*
X55865Y-38872D01*
X55796Y-38871D01*
X55732Y-38898D01*
X55702Y-38928D01*
X55654Y-38879D01*
X55589Y-38853D01*
X55520Y-38852D01*
X55456Y-38879D01*
X55406Y-38928D01*
X55380Y-38993D01*
X55379Y-39062D01*
X55406Y-39127D01*
X55455Y-39176D01*
X55520Y-39202D01*
X55589Y-39203D01*
X55654Y-39176D01*
X55683Y-39146D01*
X55731Y-39195D01*
X55796Y-39221D01*
X55865Y-39222D01*
X55930Y-39195D01*
X55979Y-39146D01*
X56005Y-39081D01*
X56006Y-39012D01*
X56006Y-40263D01*
X55972Y-40297D01*
X55956Y-40322D01*
X55947Y-40335D01*
X55947Y-40197D01*
X55920Y-40133D01*
X55911Y-40123D01*
X55911Y-39796D01*
X55884Y-39732D01*
X55884Y-39731D01*
X55884Y-39410D01*
X55857Y-39346D01*
X55808Y-39296D01*
X55743Y-39270D01*
X55674Y-39269D01*
X55610Y-39296D01*
X55560Y-39345D01*
X55534Y-39410D01*
X55533Y-39479D01*
X55560Y-39544D01*
X55609Y-39593D01*
X55674Y-39619D01*
X55743Y-39620D01*
X55808Y-39593D01*
X55857Y-39544D01*
X55883Y-39479D01*
X55884Y-39410D01*
X55884Y-39731D01*
X55835Y-39682D01*
X55770Y-39656D01*
X55701Y-39655D01*
X55637Y-39682D01*
X55587Y-39731D01*
X55569Y-39776D01*
X55569Y-39603D01*
X55542Y-39539D01*
X55493Y-39489D01*
X55428Y-39463D01*
X55359Y-39462D01*
X55295Y-39489D01*
X55245Y-39538D01*
X55219Y-39603D01*
X55218Y-39672D01*
X55245Y-39737D01*
X55294Y-39786D01*
X55359Y-39812D01*
X55428Y-39813D01*
X55493Y-39786D01*
X55542Y-39737D01*
X55568Y-39672D01*
X55569Y-39603D01*
X55569Y-39776D01*
X55561Y-39796D01*
X55560Y-39865D01*
X55587Y-39930D01*
X55636Y-39979D01*
X55701Y-40005D01*
X55770Y-40006D01*
X55835Y-39979D01*
X55884Y-39930D01*
X55910Y-39865D01*
X55911Y-39796D01*
X55911Y-40123D01*
X55871Y-40083D01*
X55806Y-40057D01*
X55737Y-40056D01*
X55673Y-40083D01*
X55623Y-40132D01*
X55597Y-40197D01*
X55596Y-40266D01*
X55623Y-40331D01*
X55672Y-40380D01*
X55737Y-40406D01*
X55806Y-40407D01*
X55871Y-40380D01*
X55920Y-40331D01*
X55946Y-40266D01*
X55947Y-40197D01*
X55947Y-40335D01*
X55939Y-40346D01*
X55939Y-40347D01*
X55939Y-40347D01*
X55933Y-40376D01*
X55928Y-40406D01*
X55928Y-40842D01*
X55924Y-40841D01*
X55876Y-40840D01*
X55876Y-40583D01*
X55849Y-40519D01*
X55800Y-40469D01*
X55735Y-40443D01*
X55666Y-40442D01*
X55602Y-40469D01*
X55552Y-40518D01*
X55526Y-40583D01*
X55525Y-40652D01*
X55552Y-40717D01*
X55601Y-40766D01*
X55666Y-40792D01*
X55735Y-40793D01*
X55800Y-40766D01*
X55849Y-40717D01*
X55875Y-40652D01*
X55876Y-40583D01*
X55876Y-40840D01*
X55855Y-40840D01*
X55791Y-40867D01*
X55741Y-40916D01*
X55715Y-40981D01*
X55714Y-41050D01*
X55741Y-41115D01*
X55790Y-41164D01*
X55855Y-41190D01*
X55924Y-41191D01*
X55928Y-41189D01*
X55928Y-41271D01*
X55914Y-41257D01*
X55849Y-41231D01*
X55780Y-41230D01*
X55716Y-41257D01*
X55666Y-41306D01*
X55640Y-41371D01*
X55639Y-41440D01*
X55666Y-41505D01*
X55715Y-41554D01*
X55780Y-41580D01*
X55849Y-41581D01*
X55914Y-41554D01*
X55928Y-41540D01*
X55928Y-42795D01*
X55928Y-42799D01*
X55928Y-42803D01*
X55934Y-42828D01*
X55939Y-42854D01*
X55942Y-42857D01*
X55943Y-42862D01*
X55958Y-42882D01*
X55973Y-42904D01*
X55977Y-42907D01*
X55979Y-42910D01*
X56096Y-43014D01*
X56111Y-43052D01*
X56160Y-43101D01*
X56225Y-43127D01*
X56294Y-43128D01*
X56359Y-43101D01*
X56408Y-43052D01*
X56434Y-42987D01*
X56435Y-42918D01*
X56408Y-42854D01*
X56359Y-42804D01*
X56297Y-42779D01*
X56238Y-42725D01*
X56238Y-42099D01*
X56268Y-42111D01*
X56337Y-42112D01*
X56402Y-42085D01*
X56451Y-42036D01*
X56477Y-41971D01*
X56478Y-41902D01*
X56451Y-41838D01*
X56402Y-41788D01*
X56337Y-41762D01*
X56268Y-41761D01*
X56238Y-41774D01*
X56238Y-41677D01*
X59154Y-41677D01*
X59123Y-41707D01*
X59097Y-41772D01*
X59096Y-41841D01*
X59123Y-41906D01*
X59159Y-41941D01*
X59132Y-41967D01*
X59106Y-42032D01*
X59105Y-42101D01*
X59132Y-42166D01*
X59181Y-42215D01*
X59246Y-42241D01*
X59315Y-42242D01*
X59377Y-42216D01*
X59380Y-42215D01*
X59429Y-42166D01*
X59455Y-42101D01*
X59456Y-42032D01*
X59456Y-43681D01*
X59377Y-43681D01*
X59358Y-43681D01*
X58915Y-43681D01*
X58915Y-41934D01*
X58888Y-41870D01*
X58839Y-41820D01*
X58774Y-41794D01*
X58705Y-41793D01*
X58641Y-41820D01*
X58636Y-41825D01*
X58635Y-41824D01*
X58570Y-41798D01*
X58501Y-41797D01*
X58437Y-41824D01*
X58387Y-41873D01*
X58361Y-41938D01*
X58360Y-42007D01*
X58387Y-42072D01*
X58436Y-42121D01*
X58501Y-42147D01*
X58570Y-42148D01*
X58635Y-42121D01*
X58639Y-42116D01*
X58640Y-42117D01*
X58705Y-42143D01*
X58774Y-42144D01*
X58839Y-42117D01*
X58888Y-42068D01*
X58914Y-42003D01*
X58915Y-41934D01*
X58915Y-43681D01*
X58451Y-43681D01*
X58512Y-43656D01*
X58561Y-43607D01*
X58587Y-43542D01*
X58588Y-43473D01*
X58561Y-43409D01*
X58512Y-43359D01*
X58447Y-43333D01*
X58378Y-43332D01*
X58314Y-43359D01*
X58264Y-43408D01*
X58238Y-43473D01*
X58237Y-43542D01*
X58264Y-43607D01*
X58313Y-43656D01*
X58374Y-43681D01*
X57640Y-43681D01*
X57640Y-41902D01*
X57613Y-41838D01*
X57564Y-41788D01*
X57499Y-41762D01*
X57430Y-41761D01*
X57366Y-41788D01*
X57316Y-41837D01*
X57290Y-41902D01*
X57290Y-41916D01*
X57239Y-41896D01*
X57170Y-41895D01*
X57106Y-41922D01*
X57086Y-41941D01*
X57056Y-41910D01*
X56991Y-41884D01*
X56922Y-41883D01*
X56858Y-41910D01*
X56808Y-41959D01*
X56782Y-42024D01*
X56781Y-42093D01*
X56808Y-42158D01*
X56857Y-42207D01*
X56922Y-42233D01*
X56991Y-42234D01*
X57056Y-42207D01*
X57075Y-42188D01*
X57105Y-42219D01*
X57170Y-42245D01*
X57239Y-42246D01*
X57304Y-42219D01*
X57353Y-42170D01*
X57379Y-42105D01*
X57379Y-42091D01*
X57430Y-42111D01*
X57499Y-42112D01*
X57564Y-42085D01*
X57613Y-42036D01*
X57639Y-41971D01*
X57640Y-41902D01*
X57640Y-43681D01*
X56557Y-43681D01*
X56557Y-43643D01*
X56814Y-43367D01*
X56821Y-43367D01*
X56892Y-43337D01*
X56947Y-43283D01*
X56976Y-43211D01*
X56977Y-43134D01*
X56947Y-43063D01*
X56893Y-43008D01*
X56821Y-42979D01*
X56744Y-42978D01*
X56673Y-43008D01*
X56618Y-43062D01*
X56589Y-43134D01*
X56589Y-43154D01*
X56288Y-43476D01*
X56274Y-43499D01*
X56258Y-43522D01*
X56258Y-43525D01*
X56256Y-43527D01*
X56252Y-43554D01*
X56247Y-43582D01*
X56247Y-43681D01*
X55975Y-43681D01*
X55942Y-43715D01*
X55942Y-43473D01*
X55912Y-43402D01*
X55880Y-43369D01*
X55880Y-41804D01*
X55853Y-41740D01*
X55804Y-41690D01*
X55739Y-41664D01*
X55670Y-41663D01*
X55606Y-41690D01*
X55571Y-41725D01*
X55544Y-41697D01*
X55541Y-41696D01*
X55541Y-40784D01*
X55514Y-40720D01*
X55478Y-40683D01*
X55478Y-39997D01*
X55451Y-39933D01*
X55402Y-39883D01*
X55337Y-39857D01*
X55268Y-39856D01*
X55204Y-39883D01*
X55154Y-39932D01*
X55128Y-39997D01*
X55127Y-40066D01*
X55154Y-40131D01*
X55203Y-40180D01*
X55268Y-40206D01*
X55337Y-40207D01*
X55402Y-40180D01*
X55451Y-40131D01*
X55477Y-40066D01*
X55478Y-39997D01*
X55478Y-40683D01*
X55465Y-40670D01*
X55463Y-40669D01*
X55463Y-40386D01*
X55436Y-40322D01*
X55387Y-40272D01*
X55322Y-40246D01*
X55253Y-40245D01*
X55189Y-40272D01*
X55139Y-40321D01*
X55113Y-40386D01*
X55112Y-40455D01*
X55139Y-40520D01*
X55188Y-40569D01*
X55253Y-40595D01*
X55322Y-40596D01*
X55387Y-40569D01*
X55436Y-40520D01*
X55462Y-40455D01*
X55463Y-40386D01*
X55463Y-40669D01*
X55400Y-40644D01*
X55331Y-40643D01*
X55267Y-40670D01*
X55217Y-40719D01*
X55191Y-40784D01*
X55190Y-40853D01*
X55217Y-40918D01*
X55266Y-40967D01*
X55331Y-40993D01*
X55400Y-40994D01*
X55465Y-40967D01*
X55514Y-40918D01*
X55540Y-40853D01*
X55541Y-40784D01*
X55541Y-41696D01*
X55479Y-41671D01*
X55435Y-41670D01*
X55435Y-41174D01*
X55408Y-41110D01*
X55359Y-41060D01*
X55294Y-41034D01*
X55225Y-41033D01*
X55161Y-41060D01*
X55111Y-41109D01*
X55085Y-41174D01*
X55084Y-41243D01*
X55111Y-41308D01*
X55160Y-41357D01*
X55225Y-41383D01*
X55294Y-41384D01*
X55359Y-41357D01*
X55408Y-41308D01*
X55434Y-41243D01*
X55435Y-41174D01*
X55435Y-41670D01*
X55410Y-41670D01*
X55346Y-41697D01*
X55296Y-41746D01*
X55270Y-41811D01*
X55269Y-41880D01*
X55296Y-41945D01*
X55345Y-41994D01*
X55410Y-42020D01*
X55479Y-42021D01*
X55544Y-41994D01*
X55578Y-41959D01*
X55605Y-41987D01*
X55670Y-42013D01*
X55739Y-42014D01*
X55804Y-41987D01*
X55853Y-41938D01*
X55879Y-41873D01*
X55880Y-41804D01*
X55880Y-43369D01*
X55858Y-43347D01*
X55786Y-43318D01*
X55709Y-43317D01*
X55638Y-43347D01*
X55628Y-43357D01*
X55628Y-43032D01*
X55601Y-42968D01*
X55552Y-42918D01*
X55487Y-42892D01*
X55418Y-42891D01*
X55354Y-42918D01*
X55339Y-42933D01*
X55324Y-42918D01*
X55259Y-42892D01*
X55190Y-42891D01*
X55126Y-42918D01*
X55106Y-42938D01*
X55083Y-42914D01*
X55018Y-42888D01*
X54949Y-42887D01*
X54911Y-42903D01*
X54911Y-36296D01*
X54884Y-36232D01*
X54848Y-36195D01*
X54869Y-36174D01*
X54895Y-36109D01*
X54896Y-36040D01*
X54869Y-35976D01*
X54820Y-35926D01*
X54755Y-35900D01*
X54686Y-35899D01*
X54622Y-35926D01*
X54572Y-35975D01*
X54546Y-36040D01*
X54545Y-36109D01*
X54572Y-36174D01*
X54608Y-36210D01*
X54587Y-36231D01*
X54561Y-36296D01*
X54560Y-36365D01*
X54587Y-36430D01*
X54636Y-36479D01*
X54701Y-36505D01*
X54770Y-36506D01*
X54835Y-36479D01*
X54884Y-36430D01*
X54910Y-36365D01*
X54911Y-36296D01*
X54911Y-42903D01*
X54885Y-42914D01*
X54856Y-42943D01*
X54820Y-42907D01*
X54820Y-38075D01*
X54794Y-38011D01*
X54744Y-37961D01*
X54680Y-37935D01*
X54628Y-37935D01*
X54628Y-37284D01*
X54601Y-37220D01*
X54552Y-37170D01*
X54487Y-37144D01*
X54418Y-37143D01*
X54354Y-37170D01*
X54304Y-37219D01*
X54278Y-37284D01*
X54277Y-37353D01*
X54304Y-37418D01*
X54353Y-37467D01*
X54418Y-37493D01*
X54487Y-37494D01*
X54552Y-37467D01*
X54601Y-37418D01*
X54627Y-37353D01*
X54628Y-37284D01*
X54628Y-37935D01*
X54611Y-37935D01*
X54546Y-37961D01*
X54505Y-38002D01*
X54505Y-37681D01*
X54479Y-37617D01*
X54429Y-37568D01*
X54365Y-37541D01*
X54296Y-37541D01*
X54231Y-37568D01*
X54182Y-37617D01*
X54155Y-37681D01*
X54155Y-37751D01*
X54182Y-37815D01*
X54231Y-37864D01*
X54295Y-37891D01*
X54365Y-37891D01*
X54429Y-37864D01*
X54478Y-37815D01*
X54505Y-37751D01*
X54505Y-37681D01*
X54505Y-38002D01*
X54497Y-38010D01*
X54470Y-38075D01*
X54470Y-38144D01*
X54497Y-38209D01*
X54546Y-38258D01*
X54610Y-38285D01*
X54680Y-38285D01*
X54744Y-38258D01*
X54793Y-38209D01*
X54820Y-38145D01*
X54820Y-38075D01*
X54820Y-42907D01*
X54820Y-42906D01*
X54755Y-42880D01*
X54741Y-42880D01*
X54741Y-42406D01*
X54715Y-42341D01*
X54666Y-42292D01*
X54601Y-42265D01*
X54532Y-42265D01*
X54467Y-42292D01*
X54418Y-42341D01*
X54391Y-42405D01*
X54391Y-42475D01*
X54418Y-42539D01*
X54467Y-42589D01*
X54531Y-42615D01*
X54601Y-42615D01*
X54665Y-42589D01*
X54715Y-42540D01*
X54741Y-42475D01*
X54741Y-42406D01*
X54741Y-42880D01*
X54686Y-42879D01*
X54622Y-42906D01*
X54572Y-42955D01*
X54546Y-43020D01*
X54545Y-43089D01*
X54572Y-43154D01*
X54621Y-43203D01*
X54686Y-43229D01*
X54755Y-43230D01*
X54820Y-43203D01*
X54848Y-43174D01*
X54884Y-43211D01*
X54949Y-43237D01*
X55018Y-43238D01*
X55083Y-43211D01*
X55102Y-43191D01*
X55125Y-43215D01*
X55190Y-43241D01*
X55259Y-43242D01*
X55324Y-43215D01*
X55338Y-43200D01*
X55353Y-43215D01*
X55418Y-43241D01*
X55487Y-43242D01*
X55552Y-43215D01*
X55601Y-43166D01*
X55627Y-43101D01*
X55628Y-43032D01*
X55628Y-43357D01*
X55583Y-43401D01*
X55554Y-43473D01*
X55553Y-43550D01*
X55583Y-43621D01*
X55637Y-43676D01*
X55709Y-43705D01*
X55786Y-43706D01*
X55857Y-43676D01*
X55912Y-43622D01*
X55941Y-43550D01*
X55942Y-43473D01*
X55942Y-43715D01*
X55846Y-43810D01*
X55846Y-44102D01*
X55975Y-44232D01*
X58548Y-44232D01*
X58527Y-44241D01*
X58477Y-44290D01*
X58451Y-44355D01*
X58450Y-44424D01*
X58477Y-44489D01*
X58526Y-44538D01*
X58591Y-44564D01*
X58660Y-44565D01*
X58725Y-44538D01*
X58774Y-44489D01*
X58800Y-44424D01*
X58801Y-44355D01*
X58774Y-44291D01*
X58725Y-44241D01*
X58703Y-44232D01*
X59804Y-44232D01*
X59786Y-44276D01*
X59785Y-44345D01*
X59812Y-44410D01*
X59861Y-44459D01*
X59926Y-44485D01*
X59995Y-44486D01*
X60060Y-44459D01*
X60109Y-44410D01*
X60135Y-44345D01*
X60136Y-44276D01*
X60117Y-44232D01*
X61109Y-44232D01*
X61909Y-43470D01*
X61909Y-44281D01*
X61873Y-44266D01*
X61811Y-44266D01*
X61754Y-44289D01*
X61711Y-44333D01*
X61687Y-44390D01*
X61687Y-44451D01*
X61711Y-44508D01*
X61754Y-44552D01*
X61811Y-44576D01*
X61873Y-44576D01*
X61909Y-44561D01*
X61909Y-44580D01*
X61879Y-44609D01*
X61852Y-44674D01*
X61852Y-44743D01*
X61879Y-44808D01*
X61909Y-44838D01*
X61909Y-45160D01*
X61861Y-45140D01*
X61800Y-45140D01*
X61743Y-45163D01*
X61699Y-45207D01*
X61675Y-45264D01*
X61675Y-45325D01*
X61699Y-45382D01*
X61742Y-45426D01*
X61799Y-45450D01*
X61861Y-45450D01*
X61909Y-45430D01*
X61909Y-46291D01*
X61907Y-46293D01*
X61907Y-46264D01*
X61880Y-46200D01*
X61831Y-46150D01*
X61767Y-46124D01*
X61697Y-46124D01*
X61633Y-46150D01*
X61584Y-46199D01*
X61574Y-46222D01*
X61568Y-46205D01*
X61568Y-44591D01*
X61547Y-44541D01*
X61509Y-44503D01*
X61460Y-44483D01*
X61406Y-44483D01*
X61356Y-44503D01*
X61318Y-44541D01*
X61298Y-44591D01*
X61298Y-44644D01*
X61318Y-44694D01*
X61356Y-44732D01*
X61406Y-44753D01*
X61459Y-44753D01*
X61509Y-44732D01*
X61547Y-44694D01*
X61568Y-44645D01*
X61568Y-44591D01*
X61568Y-46205D01*
X61565Y-46200D01*
X61516Y-46150D01*
X61452Y-46124D01*
X61382Y-46124D01*
X61318Y-46150D01*
X61269Y-46199D01*
X61242Y-46264D01*
X61242Y-46333D01*
X61268Y-46398D01*
X61318Y-46447D01*
X61382Y-46474D01*
X61451Y-46474D01*
X61516Y-46447D01*
X61565Y-46398D01*
X61574Y-46376D01*
X61583Y-46398D01*
X61633Y-46447D01*
X61697Y-46474D01*
X61734Y-46474D01*
X61277Y-46953D01*
X61277Y-46776D01*
X61250Y-46712D01*
X61201Y-46662D01*
X61137Y-46636D01*
X61135Y-46636D01*
X61135Y-44788D01*
X61127Y-44769D01*
X61127Y-44441D01*
X61103Y-44384D01*
X61060Y-44341D01*
X61003Y-44317D01*
X60941Y-44317D01*
X60884Y-44340D01*
X60841Y-44384D01*
X60817Y-44441D01*
X60817Y-44503D01*
X60840Y-44560D01*
X60884Y-44603D01*
X60941Y-44627D01*
X61003Y-44627D01*
X61060Y-44603D01*
X61103Y-44560D01*
X61127Y-44503D01*
X61127Y-44441D01*
X61127Y-44769D01*
X61111Y-44731D01*
X61068Y-44687D01*
X61011Y-44663D01*
X60949Y-44663D01*
X60892Y-44687D01*
X60848Y-44730D01*
X60825Y-44787D01*
X60825Y-44849D01*
X60848Y-44906D01*
X60892Y-44950D01*
X60949Y-44973D01*
X61011Y-44973D01*
X61068Y-44950D01*
X61111Y-44906D01*
X61135Y-44849D01*
X61135Y-44788D01*
X61135Y-46636D01*
X61067Y-46635D01*
X61003Y-46662D01*
X60954Y-46711D01*
X60927Y-46776D01*
X60927Y-46845D01*
X60953Y-46910D01*
X61003Y-46959D01*
X61067Y-46985D01*
X61137Y-46986D01*
X61201Y-46959D01*
X61250Y-46910D01*
X61277Y-46845D01*
X61277Y-46776D01*
X61277Y-46953D01*
X61093Y-47145D01*
X59584Y-47145D01*
X59584Y-46264D01*
X59557Y-46200D01*
X59508Y-46150D01*
X59444Y-46124D01*
X59374Y-46124D01*
X59310Y-46150D01*
X59261Y-46199D01*
X59251Y-46222D01*
X59242Y-46200D01*
X59193Y-46150D01*
X59129Y-46124D01*
X59059Y-46124D01*
X58995Y-46150D01*
X58946Y-46199D01*
X58919Y-46264D01*
X58919Y-46333D01*
X58946Y-46398D01*
X58995Y-46447D01*
X59059Y-46474D01*
X59129Y-46474D01*
X59193Y-46447D01*
X59242Y-46398D01*
X59251Y-46376D01*
X59261Y-46398D01*
X59310Y-46447D01*
X59374Y-46474D01*
X59444Y-46474D01*
X59508Y-46447D01*
X59557Y-46398D01*
X59584Y-46334D01*
X59584Y-46264D01*
X59584Y-47145D01*
X58810Y-47145D01*
X58810Y-45191D01*
X58780Y-45120D01*
X58726Y-45065D01*
X58654Y-45036D01*
X58577Y-45035D01*
X58506Y-45065D01*
X58451Y-45119D01*
X58422Y-45191D01*
X58421Y-45268D01*
X58451Y-45339D01*
X58505Y-45394D01*
X58577Y-45423D01*
X58654Y-45424D01*
X58725Y-45394D01*
X58780Y-45340D01*
X58809Y-45268D01*
X58810Y-45191D01*
X58810Y-47145D01*
X58757Y-47145D01*
X58757Y-46815D01*
X58731Y-46751D01*
X58681Y-46702D01*
X58617Y-46675D01*
X58548Y-46675D01*
X58483Y-46701D01*
X58434Y-46751D01*
X58407Y-46815D01*
X58407Y-46885D01*
X58434Y-46949D01*
X58483Y-46998D01*
X58547Y-47025D01*
X58617Y-47025D01*
X58681Y-46998D01*
X58730Y-46949D01*
X58757Y-46885D01*
X58757Y-46815D01*
X58757Y-47145D01*
X58245Y-47145D01*
X58245Y-46815D01*
X58219Y-46751D01*
X58170Y-46702D01*
X58105Y-46675D01*
X58036Y-46675D01*
X57971Y-46701D01*
X57922Y-46751D01*
X57895Y-46815D01*
X57895Y-46885D01*
X57922Y-46949D01*
X57971Y-46998D01*
X58035Y-47025D01*
X58105Y-47025D01*
X58169Y-46998D01*
X58219Y-46949D01*
X58245Y-46885D01*
X58245Y-46815D01*
X58245Y-47145D01*
X57862Y-47145D01*
X57862Y-44479D01*
X57832Y-44408D01*
X57778Y-44353D01*
X57706Y-44324D01*
X57629Y-44323D01*
X57558Y-44353D01*
X57503Y-44407D01*
X57474Y-44479D01*
X57473Y-44556D01*
X57503Y-44627D01*
X57557Y-44682D01*
X57629Y-44711D01*
X57706Y-44712D01*
X57777Y-44682D01*
X57832Y-44628D01*
X57861Y-44556D01*
X57862Y-44479D01*
X57862Y-47145D01*
X57576Y-47145D01*
X57576Y-46815D01*
X57550Y-46751D01*
X57500Y-46702D01*
X57436Y-46675D01*
X57366Y-46675D01*
X57302Y-46701D01*
X57253Y-46751D01*
X57226Y-46815D01*
X57226Y-46885D01*
X57253Y-46949D01*
X57302Y-46998D01*
X57366Y-47025D01*
X57436Y-47025D01*
X57500Y-46998D01*
X57549Y-46949D01*
X57576Y-46885D01*
X57576Y-46815D01*
X57576Y-47145D01*
X57182Y-47145D01*
X57182Y-46264D01*
X57156Y-46200D01*
X57107Y-46150D01*
X57042Y-46124D01*
X56973Y-46124D01*
X56908Y-46150D01*
X56859Y-46199D01*
X56850Y-46222D01*
X56841Y-46200D01*
X56792Y-46150D01*
X56727Y-46124D01*
X56658Y-46124D01*
X56593Y-46150D01*
X56544Y-46199D01*
X56517Y-46264D01*
X56517Y-46333D01*
X56544Y-46398D01*
X56593Y-46447D01*
X56657Y-46474D01*
X56727Y-46474D01*
X56791Y-46447D01*
X56841Y-46398D01*
X56850Y-46376D01*
X56859Y-46398D01*
X56908Y-46447D01*
X56972Y-46474D01*
X57042Y-46474D01*
X57106Y-46447D01*
X57156Y-46398D01*
X57182Y-46334D01*
X57182Y-46264D01*
X57182Y-47145D01*
X56671Y-47145D01*
X56671Y-46815D01*
X56644Y-46751D01*
X56595Y-46702D01*
X56531Y-46675D01*
X56461Y-46675D01*
X56397Y-46701D01*
X56347Y-46751D01*
X56321Y-46815D01*
X56321Y-46885D01*
X56347Y-46949D01*
X56396Y-46998D01*
X56461Y-47025D01*
X56530Y-47025D01*
X56595Y-46998D01*
X56644Y-46949D01*
X56671Y-46885D01*
X56671Y-46815D01*
X56671Y-47145D01*
X55952Y-47145D01*
X55788Y-46983D01*
X55847Y-46959D01*
X55896Y-46910D01*
X55923Y-46845D01*
X55923Y-46776D01*
X55896Y-46712D01*
X55847Y-46662D01*
X55782Y-46636D01*
X55713Y-46635D01*
X55649Y-46662D01*
X55599Y-46711D01*
X55574Y-46772D01*
X55411Y-46611D01*
X55411Y-44949D01*
X55381Y-44878D01*
X55327Y-44823D01*
X55255Y-44794D01*
X55178Y-44793D01*
X55107Y-44823D01*
X55052Y-44877D01*
X55023Y-44949D01*
X55022Y-45026D01*
X55045Y-45082D01*
X54993Y-45081D01*
X54922Y-45111D01*
X54867Y-45165D01*
X54838Y-45237D01*
X54837Y-45314D01*
X54867Y-45385D01*
X54921Y-45440D01*
X54993Y-45469D01*
X55070Y-45470D01*
X55141Y-45440D01*
X55196Y-45386D01*
X55225Y-45314D01*
X55226Y-45237D01*
X55203Y-45181D01*
X55255Y-45182D01*
X55326Y-45152D01*
X55381Y-45098D01*
X55410Y-45026D01*
X55411Y-44949D01*
X55411Y-46611D01*
X54754Y-45963D01*
X54754Y-44190D01*
X54727Y-44126D01*
X54678Y-44076D01*
X54632Y-44057D01*
X54632Y-43442D01*
X54605Y-43378D01*
X54556Y-43328D01*
X54491Y-43302D01*
X54422Y-43301D01*
X54358Y-43328D01*
X54348Y-43338D01*
X54348Y-39138D01*
X54321Y-39074D01*
X54272Y-39024D01*
X54230Y-39007D01*
X54230Y-37957D01*
X54203Y-37893D01*
X54154Y-37843D01*
X54090Y-37817D01*
X54020Y-37817D01*
X53956Y-37843D01*
X53954Y-37845D01*
X53954Y-37681D01*
X53927Y-37617D01*
X53878Y-37568D01*
X53814Y-37541D01*
X53744Y-37541D01*
X53680Y-37568D01*
X53631Y-37617D01*
X53604Y-37681D01*
X53604Y-37751D01*
X53631Y-37815D01*
X53680Y-37864D01*
X53744Y-37891D01*
X53814Y-37891D01*
X53878Y-37864D01*
X53927Y-37815D01*
X53954Y-37751D01*
X53954Y-37681D01*
X53954Y-37845D01*
X53906Y-37892D01*
X53880Y-37957D01*
X53880Y-38026D01*
X53906Y-38091D01*
X53955Y-38140D01*
X54020Y-38167D01*
X54089Y-38167D01*
X54154Y-38140D01*
X54203Y-38091D01*
X54230Y-38027D01*
X54230Y-37957D01*
X54230Y-39007D01*
X54208Y-38998D01*
X54138Y-38998D01*
X54074Y-39024D01*
X54024Y-39073D01*
X53998Y-39138D01*
X53998Y-39207D01*
X54024Y-39272D01*
X54073Y-39321D01*
X54138Y-39348D01*
X54207Y-39348D01*
X54272Y-39321D01*
X54321Y-39272D01*
X54348Y-39208D01*
X54348Y-39138D01*
X54348Y-43338D01*
X54308Y-43377D01*
X54282Y-43442D01*
X54281Y-43511D01*
X54308Y-43576D01*
X54357Y-43625D01*
X54422Y-43651D01*
X54491Y-43652D01*
X54556Y-43625D01*
X54605Y-43576D01*
X54631Y-43511D01*
X54632Y-43442D01*
X54632Y-44057D01*
X54613Y-44050D01*
X54544Y-44049D01*
X54480Y-44076D01*
X54430Y-44125D01*
X54404Y-44190D01*
X54403Y-44259D01*
X54430Y-44324D01*
X54479Y-44373D01*
X54544Y-44399D01*
X54613Y-44400D01*
X54678Y-44373D01*
X54727Y-44324D01*
X54753Y-44259D01*
X54754Y-44190D01*
X54754Y-45963D01*
X54190Y-45407D01*
X54190Y-41303D01*
X54164Y-41239D01*
X54115Y-41190D01*
X54050Y-41163D01*
X53981Y-41163D01*
X53916Y-41190D01*
X53867Y-41239D01*
X53840Y-41303D01*
X53840Y-41373D01*
X53867Y-41437D01*
X53916Y-41486D01*
X53980Y-41513D01*
X54050Y-41513D01*
X54114Y-41487D01*
X54164Y-41437D01*
X54190Y-41373D01*
X54190Y-41303D01*
X54190Y-45407D01*
X53837Y-45059D01*
X53837Y-38520D01*
X53810Y-38456D01*
X53809Y-38455D01*
X53810Y-38454D01*
X53836Y-38389D01*
X53837Y-38320D01*
X53810Y-38256D01*
X53761Y-38206D01*
X53696Y-38180D01*
X53627Y-38179D01*
X53563Y-38206D01*
X53513Y-38255D01*
X53487Y-38320D01*
X53486Y-38389D01*
X53513Y-38454D01*
X53514Y-38454D01*
X53513Y-38455D01*
X53487Y-38520D01*
X53486Y-38589D01*
X53513Y-38654D01*
X53562Y-38703D01*
X53627Y-38729D01*
X53696Y-38730D01*
X53761Y-38703D01*
X53810Y-38654D01*
X53836Y-38589D01*
X53837Y-38520D01*
X53837Y-45059D01*
X53825Y-45047D01*
X53825Y-41501D01*
X53798Y-41437D01*
X53749Y-41387D01*
X53705Y-41369D01*
X53739Y-41335D01*
X53765Y-41270D01*
X53766Y-41201D01*
X53739Y-41137D01*
X53737Y-41134D01*
X53761Y-41074D01*
X53762Y-41005D01*
X53735Y-40941D01*
X53686Y-40891D01*
X53621Y-40865D01*
X53552Y-40864D01*
X53488Y-40891D01*
X53438Y-40940D01*
X53412Y-41005D01*
X53411Y-41074D01*
X53438Y-41139D01*
X53440Y-41141D01*
X53416Y-41201D01*
X53415Y-41270D01*
X53442Y-41335D01*
X53491Y-41384D01*
X53535Y-41402D01*
X53501Y-41436D01*
X53475Y-41501D01*
X53474Y-41570D01*
X53501Y-41635D01*
X53550Y-41684D01*
X53615Y-41710D01*
X53684Y-41711D01*
X53749Y-41684D01*
X53798Y-41635D01*
X53824Y-41570D01*
X53825Y-41501D01*
X53825Y-45047D01*
X53754Y-44977D01*
X53754Y-42087D01*
X53727Y-42023D01*
X53753Y-41959D01*
X53754Y-41890D01*
X53727Y-41826D01*
X53678Y-41776D01*
X53613Y-41750D01*
X53544Y-41749D01*
X53480Y-41776D01*
X53430Y-41825D01*
X53404Y-41890D01*
X53403Y-41959D01*
X53430Y-42023D01*
X53404Y-42087D01*
X53403Y-42156D01*
X53430Y-42221D01*
X53479Y-42270D01*
X53544Y-42296D01*
X53613Y-42297D01*
X53678Y-42270D01*
X53727Y-42221D01*
X53753Y-42156D01*
X53754Y-42087D01*
X53754Y-44977D01*
X53733Y-44956D01*
X53733Y-44158D01*
X53703Y-44087D01*
X53649Y-44032D01*
X53641Y-44029D01*
X53648Y-44026D01*
X53703Y-43972D01*
X53732Y-43900D01*
X53733Y-43823D01*
X53703Y-43752D01*
X53649Y-43697D01*
X53577Y-43668D01*
X53500Y-43667D01*
X53429Y-43697D01*
X53374Y-43751D01*
X53345Y-43823D01*
X53344Y-43900D01*
X53374Y-43971D01*
X53428Y-44026D01*
X53436Y-44029D01*
X53429Y-44032D01*
X53374Y-44086D01*
X53345Y-44158D01*
X53344Y-44235D01*
X53374Y-44306D01*
X53428Y-44361D01*
X53500Y-44390D01*
X53577Y-44391D01*
X53648Y-44361D01*
X53703Y-44307D01*
X53732Y-44235D01*
X53733Y-44158D01*
X53733Y-44956D01*
X53157Y-44389D01*
X52213Y-44389D01*
X52145Y-44322D01*
X52145Y-43432D01*
X53090Y-42448D01*
X53090Y-41188D01*
X53484Y-40716D01*
X53484Y-40688D01*
X53502Y-40707D01*
X53567Y-40733D01*
X53636Y-40734D01*
X53701Y-40707D01*
X53750Y-40658D01*
X53776Y-40593D01*
X53777Y-40524D01*
X53750Y-40460D01*
X53701Y-40410D01*
X53636Y-40384D01*
X53567Y-40383D01*
X53503Y-40410D01*
X53484Y-40429D01*
X53484Y-40349D01*
X53548Y-40375D01*
X53617Y-40376D01*
X53682Y-40349D01*
X53731Y-40300D01*
X53757Y-40235D01*
X53758Y-40166D01*
X53731Y-40102D01*
X53682Y-40052D01*
X53617Y-40026D01*
X53548Y-40025D01*
X53484Y-40052D01*
X53484Y-39692D01*
X53510Y-39719D01*
X53575Y-39745D01*
X53644Y-39746D01*
X53709Y-39719D01*
X53758Y-39670D01*
X53784Y-39605D01*
X53785Y-39536D01*
X53762Y-39481D01*
X53774Y-39469D01*
X53800Y-39404D01*
X53801Y-39335D01*
X53774Y-39271D01*
X53725Y-39221D01*
X53660Y-39195D01*
X53591Y-39194D01*
X53527Y-39221D01*
X53484Y-39263D01*
X53484Y-39038D01*
X53501Y-39080D01*
X53550Y-39129D01*
X53615Y-39155D01*
X53684Y-39156D01*
X53749Y-39129D01*
X53798Y-39080D01*
X53824Y-39015D01*
X53825Y-38946D01*
X53798Y-38882D01*
X53749Y-38832D01*
X53684Y-38806D01*
X53615Y-38805D01*
X53551Y-38832D01*
X53501Y-38881D01*
X53484Y-38923D01*
X53484Y-37097D01*
X54468Y-36467D01*
X54468Y-34752D01*
X53941Y-34468D01*
X52083Y-34468D01*
X51610Y-34665D01*
X51071Y-34665D01*
X50964Y-34558D01*
X50964Y-34299D01*
X51110Y-34153D01*
X55900Y-34153D01*
X56594Y-34539D01*
X56594Y-36857D01*
X56845Y-37149D01*
X59126Y-37149D01*
X59213Y-37102D01*
X59201Y-37113D01*
X59175Y-37178D01*
X59174Y-37247D01*
X59201Y-37312D01*
X59250Y-37361D01*
X59315Y-37387D01*
X59384Y-37388D01*
X59449Y-37361D01*
X59498Y-37312D01*
X59524Y-37247D01*
X59525Y-37178D01*
X59498Y-37114D01*
X59449Y-37064D01*
X59384Y-37038D01*
X59330Y-37037D01*
X59940Y-36704D01*
X59940Y-35126D01*
X60087Y-34980D01*
X60424Y-34980D01*
X60571Y-35126D01*
X60571Y-38392D01*
X61248Y-39230D01*
X62263Y-39502D01*
X62263Y-39908D01*
G54D10*
G36*
X66004Y-49508D02*
X63709Y-49508D01*
X63709Y-31755D01*
X63649Y-31610D01*
X63538Y-31499D01*
X63392Y-31439D01*
X63235Y-31438D01*
X63090Y-31498D01*
X62979Y-31609D01*
X62919Y-31755D01*
X62918Y-31912D01*
X62978Y-32057D01*
X63089Y-32168D01*
X63235Y-32228D01*
X63392Y-32229D01*
X63537Y-32169D01*
X63648Y-32058D01*
X63708Y-31912D01*
X63709Y-31755D01*
X63709Y-49508D01*
X63438Y-49508D01*
X63438Y-48271D01*
X63378Y-48126D01*
X63267Y-48015D01*
X63121Y-47955D01*
X62964Y-47954D01*
X62819Y-48014D01*
X62708Y-48125D01*
X62648Y-48271D01*
X62647Y-48428D01*
X62707Y-48573D01*
X62818Y-48684D01*
X62964Y-48744D01*
X63121Y-48745D01*
X63266Y-48685D01*
X63377Y-48574D01*
X63437Y-48428D01*
X63438Y-48271D01*
X63438Y-49508D01*
X62438Y-49508D01*
X62438Y-48271D01*
X62378Y-48126D01*
X62267Y-48015D01*
X62121Y-47955D01*
X61964Y-47954D01*
X61819Y-48014D01*
X61708Y-48125D01*
X61648Y-48271D01*
X61647Y-48428D01*
X61707Y-48573D01*
X61818Y-48684D01*
X61964Y-48744D01*
X62121Y-48745D01*
X62266Y-48685D01*
X62377Y-48574D01*
X62437Y-48428D01*
X62438Y-48271D01*
X62438Y-49508D01*
X60438Y-49508D01*
X60438Y-48271D01*
X60378Y-48126D01*
X60267Y-48015D01*
X60121Y-47955D01*
X59964Y-47954D01*
X59819Y-48014D01*
X59708Y-48125D01*
X59648Y-48271D01*
X59647Y-48428D01*
X59707Y-48573D01*
X59818Y-48684D01*
X59964Y-48744D01*
X60121Y-48745D01*
X60266Y-48685D01*
X60377Y-48574D01*
X60437Y-48428D01*
X60438Y-48271D01*
X60438Y-49508D01*
X59438Y-49508D01*
X59438Y-48609D01*
X59438Y-48012D01*
X59423Y-47976D01*
X59396Y-47949D01*
X59360Y-47935D01*
X59322Y-47934D01*
X58725Y-47934D01*
X58689Y-47949D01*
X58662Y-47976D01*
X58648Y-48012D01*
X58647Y-48050D01*
X58647Y-48647D01*
X58662Y-48683D01*
X58689Y-48710D01*
X58725Y-48724D01*
X58763Y-48725D01*
X59360Y-48725D01*
X59396Y-48710D01*
X59423Y-48683D01*
X59437Y-48647D01*
X59438Y-48609D01*
X59438Y-49508D01*
X57814Y-49508D01*
X57780Y-49494D01*
X57671Y-49494D01*
X57637Y-49508D01*
X57380Y-49508D01*
X57346Y-49494D01*
X57237Y-49494D01*
X57217Y-49502D01*
X57224Y-49496D01*
X57224Y-48416D01*
X56149Y-47342D01*
X61189Y-47342D01*
X62106Y-46385D01*
X62106Y-40680D01*
X62854Y-40287D01*
X62854Y-39119D01*
X62709Y-39073D01*
X62709Y-31755D01*
X62649Y-31610D01*
X62538Y-31499D01*
X62392Y-31439D01*
X62235Y-31438D01*
X62090Y-31498D01*
X61979Y-31609D01*
X61919Y-31755D01*
X61918Y-31912D01*
X61978Y-32057D01*
X62089Y-32168D01*
X62235Y-32228D01*
X62392Y-32229D01*
X62537Y-32169D01*
X62648Y-32058D01*
X62708Y-31912D01*
X62709Y-31755D01*
X62709Y-39073D01*
X62100Y-38881D01*
X61869Y-38460D01*
X61869Y-37944D01*
X61740Y-37815D01*
X61698Y-37815D01*
X61698Y-31849D01*
X61674Y-31700D01*
X61663Y-31673D01*
X61619Y-31634D01*
X61513Y-31740D01*
X61513Y-31528D01*
X61474Y-31484D01*
X61329Y-31449D01*
X61180Y-31473D01*
X61153Y-31484D01*
X61114Y-31528D01*
X61314Y-31727D01*
X61513Y-31528D01*
X61513Y-31740D01*
X61420Y-31834D01*
X61619Y-32033D01*
X61663Y-31994D01*
X61698Y-31849D01*
X61698Y-37815D01*
X61513Y-37815D01*
X61513Y-32139D01*
X61314Y-31940D01*
X61207Y-32046D01*
X61207Y-31834D01*
X61008Y-31634D01*
X60964Y-31673D01*
X60929Y-31818D01*
X60953Y-31967D01*
X60964Y-31994D01*
X61008Y-32033D01*
X61207Y-31834D01*
X61207Y-32046D01*
X61114Y-32139D01*
X61153Y-32183D01*
X61298Y-32218D01*
X61447Y-32194D01*
X61474Y-32183D01*
X61513Y-32139D01*
X61513Y-37815D01*
X61448Y-37815D01*
X61319Y-37944D01*
X61319Y-38587D01*
X61576Y-39103D01*
X61350Y-39037D01*
X60767Y-38300D01*
X60767Y-35030D01*
X60709Y-34972D01*
X60709Y-31755D01*
X60649Y-31610D01*
X60538Y-31499D01*
X60392Y-31439D01*
X60235Y-31438D01*
X60090Y-31498D01*
X59979Y-31609D01*
X59919Y-31755D01*
X59918Y-31912D01*
X59978Y-32057D01*
X60089Y-32168D01*
X60235Y-32228D01*
X60392Y-32229D01*
X60537Y-32169D01*
X60648Y-32058D01*
X60708Y-31912D01*
X60709Y-31755D01*
X60709Y-34972D01*
X60520Y-34783D01*
X59991Y-34783D01*
X59744Y-35030D01*
X59744Y-36601D01*
X59709Y-36619D01*
X59709Y-32093D01*
X59709Y-31496D01*
X59694Y-31460D01*
X59667Y-31433D01*
X59631Y-31419D01*
X59593Y-31418D01*
X58996Y-31418D01*
X58960Y-31433D01*
X58933Y-31460D01*
X58919Y-31496D01*
X58918Y-31534D01*
X58918Y-32131D01*
X58933Y-32167D01*
X58960Y-32194D01*
X58996Y-32208D01*
X59034Y-32209D01*
X59631Y-32209D01*
X59667Y-32194D01*
X59694Y-32167D01*
X59708Y-32131D01*
X59709Y-32093D01*
X59709Y-36619D01*
X59050Y-36949D01*
X58702Y-36949D01*
X58702Y-31755D01*
X58642Y-31610D01*
X58531Y-31499D01*
X58385Y-31439D01*
X58228Y-31438D01*
X58083Y-31498D01*
X57972Y-31609D01*
X57912Y-31755D01*
X57911Y-31912D01*
X57971Y-32057D01*
X58082Y-32168D01*
X58228Y-32228D01*
X58385Y-32229D01*
X58530Y-32169D01*
X58641Y-32058D01*
X58701Y-31912D01*
X58702Y-31755D01*
X58702Y-36949D01*
X57702Y-36949D01*
X57702Y-31755D01*
X57642Y-31610D01*
X57531Y-31499D01*
X57385Y-31439D01*
X57228Y-31438D01*
X57083Y-31498D01*
X56972Y-31609D01*
X56912Y-31755D01*
X56911Y-31912D01*
X56971Y-32057D01*
X57082Y-32168D01*
X57228Y-32228D01*
X57385Y-32229D01*
X57530Y-32169D01*
X57641Y-32058D01*
X57701Y-31912D01*
X57702Y-31755D01*
X57702Y-36949D01*
X56938Y-36949D01*
X56791Y-36765D01*
X56791Y-34437D01*
X56702Y-34384D01*
X56702Y-31755D01*
X56642Y-31610D01*
X56531Y-31499D01*
X56385Y-31439D01*
X56228Y-31438D01*
X56083Y-31498D01*
X55972Y-31609D01*
X55912Y-31755D01*
X55911Y-31912D01*
X55971Y-32057D01*
X56082Y-32168D01*
X56228Y-32228D01*
X56385Y-32229D01*
X56530Y-32169D01*
X56641Y-32058D01*
X56701Y-31912D01*
X56702Y-31755D01*
X56702Y-34384D01*
X55989Y-33956D01*
X55702Y-33956D01*
X55702Y-31755D01*
X55642Y-31610D01*
X55531Y-31499D01*
X55385Y-31439D01*
X55228Y-31438D01*
X55083Y-31498D01*
X54972Y-31609D01*
X54912Y-31755D01*
X54911Y-31912D01*
X54971Y-32057D01*
X55082Y-32168D01*
X55228Y-32228D01*
X55385Y-32229D01*
X55530Y-32169D01*
X55641Y-32058D01*
X55701Y-31912D01*
X55702Y-31755D01*
X55702Y-33956D01*
X54702Y-33956D01*
X54702Y-31755D01*
X54642Y-31610D01*
X54531Y-31499D01*
X54385Y-31439D01*
X54228Y-31438D01*
X54083Y-31498D01*
X53972Y-31609D01*
X53912Y-31755D01*
X53911Y-31912D01*
X53971Y-32057D01*
X54082Y-32168D01*
X54228Y-32228D01*
X54385Y-32229D01*
X54530Y-32169D01*
X54641Y-32058D01*
X54701Y-31912D01*
X54702Y-31755D01*
X54702Y-33956D01*
X52170Y-33956D01*
X52170Y-31643D01*
X52114Y-31506D01*
X52009Y-31402D01*
X51873Y-31345D01*
X51725Y-31345D01*
X51588Y-31401D01*
X51484Y-31506D01*
X51427Y-31642D01*
X51427Y-31790D01*
X51483Y-31927D01*
X51588Y-32031D01*
X51724Y-32088D01*
X51872Y-32088D01*
X52009Y-32032D01*
X52113Y-31927D01*
X52170Y-31791D01*
X52170Y-31643D01*
X52170Y-33956D01*
X51015Y-33956D01*
X50767Y-34204D01*
X50767Y-34654D01*
X50975Y-34862D01*
X51696Y-34862D01*
X52168Y-34665D01*
X53853Y-34665D01*
X53863Y-34671D01*
X53807Y-34694D01*
X53757Y-34743D01*
X53731Y-34808D01*
X53730Y-34877D01*
X53757Y-34942D01*
X53806Y-34991D01*
X53871Y-35017D01*
X53940Y-35018D01*
X54005Y-34991D01*
X54054Y-34942D01*
X54080Y-34877D01*
X54081Y-34808D01*
X54071Y-34784D01*
X54271Y-34893D01*
X54271Y-36367D01*
X53498Y-36862D01*
X53498Y-36418D01*
X53471Y-36354D01*
X53422Y-36304D01*
X53357Y-36278D01*
X53288Y-36277D01*
X53246Y-36295D01*
X53246Y-34827D01*
X53219Y-34763D01*
X53170Y-34713D01*
X53105Y-34687D01*
X53036Y-34686D01*
X52972Y-34713D01*
X52922Y-34762D01*
X52896Y-34827D01*
X52895Y-34896D01*
X52905Y-34919D01*
X52871Y-34919D01*
X52807Y-34946D01*
X52757Y-34995D01*
X52731Y-35060D01*
X52730Y-35129D01*
X52757Y-35194D01*
X52806Y-35243D01*
X52871Y-35269D01*
X52940Y-35270D01*
X53005Y-35243D01*
X53054Y-35194D01*
X53080Y-35129D01*
X53081Y-35060D01*
X53071Y-35037D01*
X53105Y-35037D01*
X53170Y-35010D01*
X53219Y-34961D01*
X53245Y-34896D01*
X53246Y-34827D01*
X53246Y-36295D01*
X53224Y-36304D01*
X53174Y-36353D01*
X53148Y-36418D01*
X53147Y-36487D01*
X53174Y-36552D01*
X53223Y-36601D01*
X53288Y-36627D01*
X53357Y-36628D01*
X53422Y-36601D01*
X53471Y-36552D01*
X53497Y-36487D01*
X53498Y-36418D01*
X53498Y-36862D01*
X53287Y-36997D01*
X53287Y-37353D01*
X53044Y-37353D01*
X53045Y-37292D01*
X53045Y-36717D01*
X53018Y-36653D01*
X52969Y-36603D01*
X52904Y-36577D01*
X52835Y-36576D01*
X52771Y-36603D01*
X52721Y-36652D01*
X52695Y-36717D01*
X52694Y-36786D01*
X52721Y-36851D01*
X52770Y-36900D01*
X52835Y-36926D01*
X52904Y-36927D01*
X52969Y-36900D01*
X53018Y-36851D01*
X53044Y-36786D01*
X53045Y-36717D01*
X53045Y-37292D01*
X53018Y-37228D01*
X52969Y-37178D01*
X52904Y-37152D01*
X52835Y-37151D01*
X52771Y-37178D01*
X52721Y-37227D01*
X52695Y-37292D01*
X52694Y-37338D01*
X52680Y-37333D01*
X52611Y-37332D01*
X52547Y-37359D01*
X52497Y-37408D01*
X52471Y-37473D01*
X52470Y-37542D01*
X52497Y-37607D01*
X52542Y-37651D01*
X52508Y-37651D01*
X52444Y-37678D01*
X52394Y-37727D01*
X52368Y-37792D01*
X52368Y-37792D01*
X52368Y-35855D01*
X52341Y-35791D01*
X52292Y-35741D01*
X52227Y-35715D01*
X52158Y-35714D01*
X52094Y-35741D01*
X52044Y-35790D01*
X52018Y-35855D01*
X52017Y-35924D01*
X52044Y-35989D01*
X52093Y-36038D01*
X52158Y-36064D01*
X52227Y-36065D01*
X52292Y-36038D01*
X52341Y-35989D01*
X52367Y-35924D01*
X52368Y-35855D01*
X52368Y-37792D01*
X52367Y-37861D01*
X52394Y-37926D01*
X52443Y-37975D01*
X52476Y-37988D01*
X52417Y-38013D01*
X52367Y-38062D01*
X52341Y-38127D01*
X52340Y-38196D01*
X52367Y-38261D01*
X52416Y-38310D01*
X52481Y-38336D01*
X52550Y-38337D01*
X52615Y-38310D01*
X52664Y-38261D01*
X52690Y-38196D01*
X52691Y-38127D01*
X52664Y-38063D01*
X52615Y-38013D01*
X52582Y-38000D01*
X52642Y-37975D01*
X52691Y-37926D01*
X52717Y-37861D01*
X52718Y-37792D01*
X52691Y-37728D01*
X52646Y-37683D01*
X52680Y-37683D01*
X52729Y-37663D01*
X53287Y-37663D01*
X53287Y-40622D01*
X52893Y-41094D01*
X52893Y-42354D01*
X52710Y-42545D01*
X52710Y-41697D01*
X52683Y-41633D01*
X52640Y-41589D01*
X52640Y-41008D01*
X52613Y-40944D01*
X52577Y-40907D01*
X52577Y-39780D01*
X52561Y-39741D01*
X52561Y-39146D01*
X52541Y-39097D01*
X52541Y-38737D01*
X52514Y-38673D01*
X52465Y-38623D01*
X52400Y-38597D01*
X52331Y-38596D01*
X52267Y-38623D01*
X52217Y-38672D01*
X52191Y-38737D01*
X52190Y-38806D01*
X52217Y-38871D01*
X52266Y-38920D01*
X52331Y-38946D01*
X52400Y-38947D01*
X52465Y-38920D01*
X52514Y-38871D01*
X52540Y-38806D01*
X52541Y-38737D01*
X52541Y-39097D01*
X52534Y-39082D01*
X52485Y-39032D01*
X52420Y-39006D01*
X52351Y-39005D01*
X52287Y-39032D01*
X52237Y-39081D01*
X52211Y-39146D01*
X52210Y-39215D01*
X52237Y-39280D01*
X52286Y-39329D01*
X52351Y-39355D01*
X52420Y-39356D01*
X52485Y-39329D01*
X52534Y-39280D01*
X52560Y-39215D01*
X52561Y-39146D01*
X52561Y-39741D01*
X52550Y-39716D01*
X52501Y-39666D01*
X52436Y-39640D01*
X52367Y-39639D01*
X52303Y-39666D01*
X52253Y-39715D01*
X52227Y-39780D01*
X52226Y-39840D01*
X52197Y-39840D01*
X52133Y-39867D01*
X52083Y-39916D01*
X52057Y-39981D01*
X52056Y-40050D01*
X52083Y-40115D01*
X52132Y-40164D01*
X52197Y-40190D01*
X52266Y-40191D01*
X52331Y-40164D01*
X52380Y-40115D01*
X52406Y-40050D01*
X52407Y-39990D01*
X52436Y-39990D01*
X52501Y-39963D01*
X52550Y-39914D01*
X52576Y-39849D01*
X52577Y-39780D01*
X52577Y-40907D01*
X52564Y-40894D01*
X52499Y-40868D01*
X52450Y-40867D01*
X52451Y-40812D01*
X52424Y-40748D01*
X52381Y-40704D01*
X52387Y-40688D01*
X52388Y-40619D01*
X52361Y-40555D01*
X52347Y-40541D01*
X52396Y-40493D01*
X52422Y-40428D01*
X52423Y-40359D01*
X52396Y-40295D01*
X52347Y-40245D01*
X52282Y-40219D01*
X52213Y-40218D01*
X52149Y-40245D01*
X52099Y-40294D01*
X52073Y-40359D01*
X52072Y-40428D01*
X52099Y-40493D01*
X52113Y-40506D01*
X52064Y-40554D01*
X52038Y-40619D01*
X52037Y-40688D01*
X52064Y-40753D01*
X52107Y-40796D01*
X52101Y-40812D01*
X52100Y-40881D01*
X52127Y-40946D01*
X52176Y-40995D01*
X52241Y-41021D01*
X52290Y-41022D01*
X52289Y-41077D01*
X52316Y-41142D01*
X52365Y-41191D01*
X52430Y-41217D01*
X52499Y-41218D01*
X52564Y-41191D01*
X52613Y-41142D01*
X52639Y-41077D01*
X52640Y-41008D01*
X52640Y-41589D01*
X52634Y-41583D01*
X52569Y-41557D01*
X52500Y-41556D01*
X52436Y-41583D01*
X52386Y-41632D01*
X52360Y-41697D01*
X52359Y-41766D01*
X52386Y-41831D01*
X52435Y-41880D01*
X52500Y-41906D01*
X52569Y-41907D01*
X52634Y-41880D01*
X52683Y-41831D01*
X52709Y-41766D01*
X52710Y-41697D01*
X52710Y-42545D01*
X52293Y-42980D01*
X52293Y-42319D01*
X52266Y-42255D01*
X52217Y-42205D01*
X52152Y-42179D01*
X52083Y-42178D01*
X52019Y-42205D01*
X52017Y-42207D01*
X52016Y-42206D01*
X51951Y-42180D01*
X51927Y-42180D01*
X51927Y-40713D01*
X51907Y-40664D01*
X51907Y-36426D01*
X51880Y-36362D01*
X51844Y-36325D01*
X51844Y-35253D01*
X51817Y-35189D01*
X51768Y-35139D01*
X51703Y-35113D01*
X51634Y-35112D01*
X51570Y-35139D01*
X51520Y-35188D01*
X51494Y-35253D01*
X51493Y-35322D01*
X51520Y-35387D01*
X51569Y-35436D01*
X51634Y-35462D01*
X51703Y-35463D01*
X51768Y-35436D01*
X51817Y-35387D01*
X51843Y-35322D01*
X51844Y-35253D01*
X51844Y-36325D01*
X51831Y-36312D01*
X51766Y-36286D01*
X51697Y-36285D01*
X51633Y-36312D01*
X51620Y-36325D01*
X51620Y-35894D01*
X51593Y-35830D01*
X51544Y-35780D01*
X51479Y-35754D01*
X51410Y-35753D01*
X51346Y-35780D01*
X51296Y-35829D01*
X51270Y-35894D01*
X51269Y-35963D01*
X51296Y-36028D01*
X51345Y-36077D01*
X51410Y-36103D01*
X51479Y-36104D01*
X51544Y-36077D01*
X51593Y-36028D01*
X51619Y-35963D01*
X51620Y-35894D01*
X51620Y-36325D01*
X51583Y-36361D01*
X51557Y-36426D01*
X51556Y-36495D01*
X51583Y-36560D01*
X51632Y-36609D01*
X51697Y-36635D01*
X51766Y-36636D01*
X51831Y-36609D01*
X51880Y-36560D01*
X51906Y-36495D01*
X51907Y-36426D01*
X51907Y-40664D01*
X51903Y-40655D01*
X51903Y-37205D01*
X51876Y-37141D01*
X51833Y-37098D01*
X51876Y-37056D01*
X51902Y-36991D01*
X51903Y-36922D01*
X51876Y-36858D01*
X51827Y-36808D01*
X51762Y-36782D01*
X51693Y-36781D01*
X51629Y-36808D01*
X51579Y-36857D01*
X51553Y-36922D01*
X51552Y-36991D01*
X51579Y-37056D01*
X51622Y-37098D01*
X51579Y-37140D01*
X51553Y-37205D01*
X51552Y-37274D01*
X51579Y-37339D01*
X51611Y-37370D01*
X51572Y-37408D01*
X51546Y-37473D01*
X51545Y-37542D01*
X51572Y-37607D01*
X51621Y-37656D01*
X51686Y-37682D01*
X51755Y-37683D01*
X51820Y-37656D01*
X51869Y-37607D01*
X51895Y-37542D01*
X51896Y-37473D01*
X51869Y-37409D01*
X51837Y-37377D01*
X51876Y-37339D01*
X51902Y-37274D01*
X51903Y-37205D01*
X51903Y-40655D01*
X51900Y-40649D01*
X51892Y-40640D01*
X51892Y-37957D01*
X51865Y-37893D01*
X51816Y-37843D01*
X51751Y-37817D01*
X51682Y-37816D01*
X51618Y-37843D01*
X51568Y-37892D01*
X51542Y-37957D01*
X51541Y-38026D01*
X51568Y-38091D01*
X51617Y-38140D01*
X51682Y-38166D01*
X51751Y-38167D01*
X51816Y-38140D01*
X51865Y-38091D01*
X51891Y-38026D01*
X51892Y-37957D01*
X51892Y-40640D01*
X51851Y-40599D01*
X51786Y-40573D01*
X51717Y-40572D01*
X51653Y-40599D01*
X51603Y-40648D01*
X51577Y-40713D01*
X51576Y-40782D01*
X51603Y-40847D01*
X51652Y-40896D01*
X51717Y-40922D01*
X51786Y-40923D01*
X51851Y-40896D01*
X51900Y-40847D01*
X51926Y-40782D01*
X51927Y-40713D01*
X51927Y-42180D01*
X51882Y-42179D01*
X51818Y-42206D01*
X51777Y-42247D01*
X51737Y-42206D01*
X51672Y-42180D01*
X51603Y-42179D01*
X51539Y-42206D01*
X51518Y-42227D01*
X51497Y-42206D01*
X51432Y-42180D01*
X51363Y-42179D01*
X51299Y-42206D01*
X51266Y-42239D01*
X51266Y-40914D01*
X51239Y-40850D01*
X51190Y-40800D01*
X51125Y-40774D01*
X51056Y-40773D01*
X50992Y-40800D01*
X50942Y-40849D01*
X50916Y-40914D01*
X50915Y-40983D01*
X50942Y-41048D01*
X50991Y-41097D01*
X51056Y-41123D01*
X51125Y-41124D01*
X51190Y-41097D01*
X51239Y-41048D01*
X51265Y-40983D01*
X51266Y-40914D01*
X51266Y-42239D01*
X51249Y-42255D01*
X51223Y-42320D01*
X51222Y-42389D01*
X51249Y-42454D01*
X51298Y-42503D01*
X51363Y-42529D01*
X51432Y-42530D01*
X51497Y-42503D01*
X51517Y-42482D01*
X51538Y-42503D01*
X51603Y-42529D01*
X51672Y-42530D01*
X51737Y-42503D01*
X51777Y-42462D01*
X51817Y-42503D01*
X51882Y-42529D01*
X51951Y-42530D01*
X52016Y-42503D01*
X52017Y-42501D01*
X52018Y-42502D01*
X52083Y-42528D01*
X52152Y-42529D01*
X52217Y-42502D01*
X52266Y-42453D01*
X52292Y-42388D01*
X52293Y-42319D01*
X52293Y-42980D01*
X51949Y-43338D01*
X51949Y-44322D01*
X51881Y-44389D01*
X50092Y-44389D01*
X50092Y-36977D01*
X50065Y-36913D01*
X50016Y-36863D01*
X49951Y-36837D01*
X49923Y-36837D01*
X49923Y-36190D01*
X49896Y-36126D01*
X49847Y-36076D01*
X49782Y-36050D01*
X49713Y-36049D01*
X49649Y-36076D01*
X49599Y-36125D01*
X49573Y-36190D01*
X49572Y-36259D01*
X49598Y-36322D01*
X49595Y-36325D01*
X49569Y-36390D01*
X49568Y-36459D01*
X49595Y-36524D01*
X49644Y-36573D01*
X49709Y-36599D01*
X49778Y-36600D01*
X49843Y-36573D01*
X49892Y-36524D01*
X49918Y-36459D01*
X49919Y-36390D01*
X49893Y-36327D01*
X49896Y-36324D01*
X49922Y-36259D01*
X49923Y-36190D01*
X49923Y-36837D01*
X49882Y-36836D01*
X49818Y-36863D01*
X49768Y-36912D01*
X49742Y-36977D01*
X49741Y-37046D01*
X49755Y-37078D01*
X49733Y-37056D01*
X49668Y-37030D01*
X49599Y-37029D01*
X49535Y-37056D01*
X49485Y-37105D01*
X49459Y-37170D01*
X49458Y-37239D01*
X49472Y-37273D01*
X49453Y-37253D01*
X49431Y-37244D01*
X49431Y-35993D01*
X49404Y-35929D01*
X49355Y-35879D01*
X49290Y-35853D01*
X49221Y-35852D01*
X49157Y-35879D01*
X49107Y-35928D01*
X49081Y-35993D01*
X49080Y-36062D01*
X49107Y-36127D01*
X49156Y-36176D01*
X49221Y-36202D01*
X49290Y-36203D01*
X49355Y-36176D01*
X49404Y-36127D01*
X49430Y-36062D01*
X49431Y-35993D01*
X49431Y-37244D01*
X49388Y-37227D01*
X49319Y-37226D01*
X49255Y-37253D01*
X49205Y-37302D01*
X49179Y-37367D01*
X49178Y-37436D01*
X49205Y-37501D01*
X49254Y-37550D01*
X49319Y-37576D01*
X49388Y-37577D01*
X49453Y-37550D01*
X49502Y-37501D01*
X49528Y-37436D01*
X49529Y-37367D01*
X49515Y-37333D01*
X49534Y-37353D01*
X49599Y-37379D01*
X49668Y-37380D01*
X49733Y-37353D01*
X49782Y-37304D01*
X49808Y-37239D01*
X49809Y-37170D01*
X49795Y-37138D01*
X49817Y-37160D01*
X49882Y-37186D01*
X49951Y-37187D01*
X50016Y-37160D01*
X50065Y-37111D01*
X50091Y-37046D01*
X50092Y-36977D01*
X50092Y-44389D01*
X49710Y-44389D01*
X49710Y-42583D01*
X49683Y-42519D01*
X49634Y-42469D01*
X49569Y-42443D01*
X49500Y-42442D01*
X49436Y-42469D01*
X49386Y-42518D01*
X49360Y-42583D01*
X49359Y-42652D01*
X49386Y-42717D01*
X49435Y-42766D01*
X49500Y-42792D01*
X49569Y-42793D01*
X49634Y-42766D01*
X49683Y-42717D01*
X49709Y-42652D01*
X49710Y-42583D01*
X49710Y-44389D01*
X49233Y-44389D01*
X49233Y-43221D01*
X49210Y-43164D01*
X49166Y-43120D01*
X49109Y-43096D01*
X49048Y-43096D01*
X48991Y-43120D01*
X48947Y-43164D01*
X48923Y-43221D01*
X48923Y-43282D01*
X48947Y-43339D01*
X48990Y-43383D01*
X49047Y-43406D01*
X49109Y-43406D01*
X49166Y-43383D01*
X49210Y-43339D01*
X49233Y-43282D01*
X49233Y-43221D01*
X49233Y-44389D01*
X48372Y-44389D01*
X48372Y-41697D01*
X48345Y-41633D01*
X48296Y-41583D01*
X48231Y-41557D01*
X48162Y-41556D01*
X48098Y-41583D01*
X48048Y-41632D01*
X48022Y-41697D01*
X48021Y-41766D01*
X48048Y-41831D01*
X48097Y-41880D01*
X48162Y-41906D01*
X48231Y-41907D01*
X48296Y-41880D01*
X48345Y-41831D01*
X48371Y-41766D01*
X48372Y-41697D01*
X48372Y-44389D01*
X48356Y-44389D01*
X48356Y-42095D01*
X48329Y-42031D01*
X48280Y-41981D01*
X48215Y-41955D01*
X48146Y-41954D01*
X48082Y-41981D01*
X48032Y-42030D01*
X48006Y-42095D01*
X48005Y-42164D01*
X48031Y-42225D01*
X48024Y-42231D01*
X47998Y-42296D01*
X47997Y-42365D01*
X48024Y-42430D01*
X48073Y-42479D01*
X48138Y-42505D01*
X48207Y-42506D01*
X48272Y-42479D01*
X48321Y-42430D01*
X48347Y-42365D01*
X48348Y-42296D01*
X48322Y-42235D01*
X48329Y-42229D01*
X48355Y-42164D01*
X48356Y-42095D01*
X48356Y-44389D01*
X48329Y-44389D01*
X48329Y-42690D01*
X48302Y-42626D01*
X48253Y-42576D01*
X48188Y-42550D01*
X48119Y-42549D01*
X48055Y-42576D01*
X48005Y-42625D01*
X47979Y-42690D01*
X47978Y-42759D01*
X48005Y-42824D01*
X48054Y-42873D01*
X48119Y-42899D01*
X48188Y-42900D01*
X48253Y-42873D01*
X48302Y-42824D01*
X48328Y-42759D01*
X48329Y-42690D01*
X48329Y-44389D01*
X47998Y-44389D01*
X47998Y-44280D01*
X47972Y-44217D01*
X47972Y-44019D01*
X47998Y-43956D01*
X47998Y-43847D01*
X47972Y-43784D01*
X47972Y-43586D01*
X47998Y-43523D01*
X47998Y-43414D01*
X47972Y-43351D01*
X47972Y-41287D01*
X47975Y-41290D01*
X48040Y-41316D01*
X48109Y-41317D01*
X48174Y-41290D01*
X48223Y-41241D01*
X48249Y-41176D01*
X48250Y-41118D01*
X48300Y-41097D01*
X48349Y-41048D01*
X48375Y-40983D01*
X48376Y-40914D01*
X48376Y-39733D01*
X48372Y-39723D01*
X48372Y-39335D01*
X48345Y-39271D01*
X48296Y-39221D01*
X48231Y-39195D01*
X48162Y-39194D01*
X48098Y-39221D01*
X48048Y-39270D01*
X48022Y-39335D01*
X48021Y-39404D01*
X48048Y-39469D01*
X48097Y-39518D01*
X48162Y-39544D01*
X48231Y-39545D01*
X48296Y-39518D01*
X48345Y-39469D01*
X48371Y-39404D01*
X48372Y-39335D01*
X48372Y-39723D01*
X48349Y-39669D01*
X48300Y-39619D01*
X48235Y-39593D01*
X48166Y-39592D01*
X48102Y-39619D01*
X48052Y-39668D01*
X48026Y-39733D01*
X48025Y-39802D01*
X48047Y-39854D01*
X48036Y-39865D01*
X48010Y-39930D01*
X48009Y-39999D01*
X48036Y-40064D01*
X48085Y-40113D01*
X48150Y-40139D01*
X48219Y-40140D01*
X48284Y-40113D01*
X48333Y-40064D01*
X48359Y-39999D01*
X48360Y-39930D01*
X48338Y-39878D01*
X48349Y-39867D01*
X48375Y-39802D01*
X48376Y-39733D01*
X48376Y-40914D01*
X48356Y-40865D01*
X48356Y-40320D01*
X48329Y-40256D01*
X48280Y-40206D01*
X48215Y-40180D01*
X48146Y-40179D01*
X48082Y-40206D01*
X48032Y-40255D01*
X48006Y-40320D01*
X48005Y-40389D01*
X48032Y-40454D01*
X48081Y-40503D01*
X48146Y-40529D01*
X48215Y-40530D01*
X48280Y-40503D01*
X48329Y-40454D01*
X48355Y-40389D01*
X48356Y-40320D01*
X48356Y-40865D01*
X48349Y-40850D01*
X48328Y-40829D01*
X48347Y-40782D01*
X48348Y-40713D01*
X48321Y-40649D01*
X48272Y-40599D01*
X48207Y-40573D01*
X48138Y-40572D01*
X48074Y-40599D01*
X48024Y-40648D01*
X47998Y-40713D01*
X47997Y-40782D01*
X48024Y-40847D01*
X48045Y-40867D01*
X48026Y-40914D01*
X48025Y-40972D01*
X47976Y-40993D01*
X47972Y-40997D01*
X47972Y-38924D01*
X47979Y-38931D01*
X48044Y-38957D01*
X48113Y-38958D01*
X48178Y-38931D01*
X48227Y-38882D01*
X48253Y-38817D01*
X48254Y-38755D01*
X48292Y-38739D01*
X48341Y-38690D01*
X48367Y-38625D01*
X48368Y-38556D01*
X48347Y-38506D01*
X48369Y-38485D01*
X48395Y-38420D01*
X48396Y-38351D01*
X48369Y-38287D01*
X48368Y-38285D01*
X48368Y-37949D01*
X48368Y-37170D01*
X48341Y-37106D01*
X48292Y-37056D01*
X48227Y-37030D01*
X48158Y-37029D01*
X48094Y-37056D01*
X48044Y-37105D01*
X48018Y-37170D01*
X48017Y-37239D01*
X48036Y-37283D01*
X48016Y-37302D01*
X47990Y-37367D01*
X47989Y-37436D01*
X48016Y-37501D01*
X48065Y-37550D01*
X48130Y-37576D01*
X48199Y-37577D01*
X48264Y-37550D01*
X48313Y-37501D01*
X48339Y-37436D01*
X48340Y-37367D01*
X48321Y-37323D01*
X48341Y-37304D01*
X48367Y-37239D01*
X48368Y-37170D01*
X48368Y-37949D01*
X48341Y-37885D01*
X48292Y-37835D01*
X48227Y-37809D01*
X48158Y-37808D01*
X48094Y-37835D01*
X48044Y-37884D01*
X48018Y-37949D01*
X48017Y-38018D01*
X48044Y-38083D01*
X48093Y-38132D01*
X48158Y-38158D01*
X48227Y-38159D01*
X48292Y-38132D01*
X48341Y-38083D01*
X48367Y-38018D01*
X48368Y-37949D01*
X48368Y-38285D01*
X48320Y-38237D01*
X48255Y-38211D01*
X48186Y-38210D01*
X48122Y-38237D01*
X48072Y-38286D01*
X48046Y-38351D01*
X48045Y-38420D01*
X48066Y-38470D01*
X48044Y-38491D01*
X48018Y-38556D01*
X48017Y-38618D01*
X47980Y-38634D01*
X47972Y-38642D01*
X47972Y-35613D01*
X47998Y-35550D01*
X47998Y-35441D01*
X47972Y-35378D01*
X47972Y-35180D01*
X47998Y-35117D01*
X47998Y-35008D01*
X47972Y-34945D01*
X47972Y-34747D01*
X47998Y-34684D01*
X47998Y-34575D01*
X47972Y-34512D01*
X47972Y-30688D01*
X56317Y-30688D01*
X56370Y-30710D01*
X56479Y-30710D01*
X56532Y-30688D01*
X56750Y-30688D01*
X56803Y-30710D01*
X56912Y-30710D01*
X56965Y-30688D01*
X57183Y-30688D01*
X57236Y-30710D01*
X57345Y-30710D01*
X57398Y-30688D01*
X57617Y-30688D01*
X57670Y-30710D01*
X57779Y-30710D01*
X57832Y-30688D01*
X66004Y-30688D01*
X66004Y-39492D01*
X65994Y-39516D01*
X65994Y-39625D01*
X66004Y-39649D01*
X66004Y-39925D01*
X65994Y-39949D01*
X65994Y-40058D01*
X66004Y-40082D01*
X66004Y-40358D01*
X65994Y-40382D01*
X65994Y-40491D01*
X66004Y-40515D01*
X66004Y-40791D01*
X65994Y-40815D01*
X65994Y-40924D01*
X66004Y-40948D01*
X66004Y-49508D01*
X66004Y-49508D01*
G37*
G54D28*
X66004Y-49508D02*
X63709Y-49508D01*
X63709Y-31755D01*
X63649Y-31610D01*
X63538Y-31499D01*
X63392Y-31439D01*
X63235Y-31438D01*
X63090Y-31498D01*
X62979Y-31609D01*
X62919Y-31755D01*
X62918Y-31912D01*
X62978Y-32057D01*
X63089Y-32168D01*
X63235Y-32228D01*
X63392Y-32229D01*
X63537Y-32169D01*
X63648Y-32058D01*
X63708Y-31912D01*
X63709Y-31755D01*
X63709Y-49508D01*
X63438Y-49508D01*
X63438Y-48271D01*
X63378Y-48126D01*
X63267Y-48015D01*
X63121Y-47955D01*
X62964Y-47954D01*
X62819Y-48014D01*
X62708Y-48125D01*
X62648Y-48271D01*
X62647Y-48428D01*
X62707Y-48573D01*
X62818Y-48684D01*
X62964Y-48744D01*
X63121Y-48745D01*
X63266Y-48685D01*
X63377Y-48574D01*
X63437Y-48428D01*
X63438Y-48271D01*
X63438Y-49508D01*
X62438Y-49508D01*
X62438Y-48271D01*
X62378Y-48126D01*
X62267Y-48015D01*
X62121Y-47955D01*
X61964Y-47954D01*
X61819Y-48014D01*
X61708Y-48125D01*
X61648Y-48271D01*
X61647Y-48428D01*
X61707Y-48573D01*
X61818Y-48684D01*
X61964Y-48744D01*
X62121Y-48745D01*
X62266Y-48685D01*
X62377Y-48574D01*
X62437Y-48428D01*
X62438Y-48271D01*
X62438Y-49508D01*
X60438Y-49508D01*
X60438Y-48271D01*
X60378Y-48126D01*
X60267Y-48015D01*
X60121Y-47955D01*
X59964Y-47954D01*
X59819Y-48014D01*
X59708Y-48125D01*
X59648Y-48271D01*
X59647Y-48428D01*
X59707Y-48573D01*
X59818Y-48684D01*
X59964Y-48744D01*
X60121Y-48745D01*
X60266Y-48685D01*
X60377Y-48574D01*
X60437Y-48428D01*
X60438Y-48271D01*
X60438Y-49508D01*
X59438Y-49508D01*
X59438Y-48609D01*
X59438Y-48012D01*
X59423Y-47976D01*
X59396Y-47949D01*
X59360Y-47935D01*
X59322Y-47934D01*
X58725Y-47934D01*
X58689Y-47949D01*
X58662Y-47976D01*
X58648Y-48012D01*
X58647Y-48050D01*
X58647Y-48647D01*
X58662Y-48683D01*
X58689Y-48710D01*
X58725Y-48724D01*
X58763Y-48725D01*
X59360Y-48725D01*
X59396Y-48710D01*
X59423Y-48683D01*
X59437Y-48647D01*
X59438Y-48609D01*
X59438Y-49508D01*
X57814Y-49508D01*
X57780Y-49494D01*
X57671Y-49494D01*
X57637Y-49508D01*
X57380Y-49508D01*
X57346Y-49494D01*
X57237Y-49494D01*
X57217Y-49502D01*
X57224Y-49496D01*
X57224Y-48416D01*
X56149Y-47342D01*
X61189Y-47342D01*
X62106Y-46385D01*
X62106Y-40680D01*
X62854Y-40287D01*
X62854Y-39119D01*
X62709Y-39073D01*
X62709Y-31755D01*
X62649Y-31610D01*
X62538Y-31499D01*
X62392Y-31439D01*
X62235Y-31438D01*
X62090Y-31498D01*
X61979Y-31609D01*
X61919Y-31755D01*
X61918Y-31912D01*
X61978Y-32057D01*
X62089Y-32168D01*
X62235Y-32228D01*
X62392Y-32229D01*
X62537Y-32169D01*
X62648Y-32058D01*
X62708Y-31912D01*
X62709Y-31755D01*
X62709Y-39073D01*
X62100Y-38881D01*
X61869Y-38460D01*
X61869Y-37944D01*
X61740Y-37815D01*
X61698Y-37815D01*
X61698Y-31849D01*
X61674Y-31700D01*
X61663Y-31673D01*
X61619Y-31634D01*
X61513Y-31740D01*
X61513Y-31528D01*
X61474Y-31484D01*
X61329Y-31449D01*
X61180Y-31473D01*
X61153Y-31484D01*
X61114Y-31528D01*
X61314Y-31727D01*
X61513Y-31528D01*
X61513Y-31740D01*
X61420Y-31834D01*
X61619Y-32033D01*
X61663Y-31994D01*
X61698Y-31849D01*
X61698Y-37815D01*
X61513Y-37815D01*
X61513Y-32139D01*
X61314Y-31940D01*
X61207Y-32046D01*
X61207Y-31834D01*
X61008Y-31634D01*
X60964Y-31673D01*
X60929Y-31818D01*
X60953Y-31967D01*
X60964Y-31994D01*
X61008Y-32033D01*
X61207Y-31834D01*
X61207Y-32046D01*
X61114Y-32139D01*
X61153Y-32183D01*
X61298Y-32218D01*
X61447Y-32194D01*
X61474Y-32183D01*
X61513Y-32139D01*
X61513Y-37815D01*
X61448Y-37815D01*
X61319Y-37944D01*
X61319Y-38587D01*
X61576Y-39103D01*
X61350Y-39037D01*
X60767Y-38300D01*
X60767Y-35030D01*
X60709Y-34972D01*
X60709Y-31755D01*
X60649Y-31610D01*
X60538Y-31499D01*
X60392Y-31439D01*
X60235Y-31438D01*
X60090Y-31498D01*
X59979Y-31609D01*
X59919Y-31755D01*
X59918Y-31912D01*
X59978Y-32057D01*
X60089Y-32168D01*
X60235Y-32228D01*
X60392Y-32229D01*
X60537Y-32169D01*
X60648Y-32058D01*
X60708Y-31912D01*
X60709Y-31755D01*
X60709Y-34972D01*
X60520Y-34783D01*
X59991Y-34783D01*
X59744Y-35030D01*
X59744Y-36601D01*
X59709Y-36619D01*
X59709Y-32093D01*
X59709Y-31496D01*
X59694Y-31460D01*
X59667Y-31433D01*
X59631Y-31419D01*
X59593Y-31418D01*
X58996Y-31418D01*
X58960Y-31433D01*
X58933Y-31460D01*
X58919Y-31496D01*
X58918Y-31534D01*
X58918Y-32131D01*
X58933Y-32167D01*
X58960Y-32194D01*
X58996Y-32208D01*
X59034Y-32209D01*
X59631Y-32209D01*
X59667Y-32194D01*
X59694Y-32167D01*
X59708Y-32131D01*
X59709Y-32093D01*
X59709Y-36619D01*
X59050Y-36949D01*
X58702Y-36949D01*
X58702Y-31755D01*
X58642Y-31610D01*
X58531Y-31499D01*
X58385Y-31439D01*
X58228Y-31438D01*
X58083Y-31498D01*
X57972Y-31609D01*
X57912Y-31755D01*
X57911Y-31912D01*
X57971Y-32057D01*
X58082Y-32168D01*
X58228Y-32228D01*
X58385Y-32229D01*
X58530Y-32169D01*
X58641Y-32058D01*
X58701Y-31912D01*
X58702Y-31755D01*
X58702Y-36949D01*
X57702Y-36949D01*
X57702Y-31755D01*
X57642Y-31610D01*
X57531Y-31499D01*
X57385Y-31439D01*
X57228Y-31438D01*
X57083Y-31498D01*
X56972Y-31609D01*
X56912Y-31755D01*
X56911Y-31912D01*
X56971Y-32057D01*
X57082Y-32168D01*
X57228Y-32228D01*
X57385Y-32229D01*
X57530Y-32169D01*
X57641Y-32058D01*
X57701Y-31912D01*
X57702Y-31755D01*
X57702Y-36949D01*
X56938Y-36949D01*
X56791Y-36765D01*
X56791Y-34437D01*
X56702Y-34384D01*
X56702Y-31755D01*
X56642Y-31610D01*
X56531Y-31499D01*
X56385Y-31439D01*
X56228Y-31438D01*
X56083Y-31498D01*
X55972Y-31609D01*
X55912Y-31755D01*
X55911Y-31912D01*
X55971Y-32057D01*
X56082Y-32168D01*
X56228Y-32228D01*
X56385Y-32229D01*
X56530Y-32169D01*
X56641Y-32058D01*
X56701Y-31912D01*
X56702Y-31755D01*
X56702Y-34384D01*
X55989Y-33956D01*
X55702Y-33956D01*
X55702Y-31755D01*
X55642Y-31610D01*
X55531Y-31499D01*
X55385Y-31439D01*
X55228Y-31438D01*
X55083Y-31498D01*
X54972Y-31609D01*
X54912Y-31755D01*
X54911Y-31912D01*
X54971Y-32057D01*
X55082Y-32168D01*
X55228Y-32228D01*
X55385Y-32229D01*
X55530Y-32169D01*
X55641Y-32058D01*
X55701Y-31912D01*
X55702Y-31755D01*
X55702Y-33956D01*
X54702Y-33956D01*
X54702Y-31755D01*
X54642Y-31610D01*
X54531Y-31499D01*
X54385Y-31439D01*
X54228Y-31438D01*
X54083Y-31498D01*
X53972Y-31609D01*
X53912Y-31755D01*
X53911Y-31912D01*
X53971Y-32057D01*
X54082Y-32168D01*
X54228Y-32228D01*
X54385Y-32229D01*
X54530Y-32169D01*
X54641Y-32058D01*
X54701Y-31912D01*
X54702Y-31755D01*
X54702Y-33956D01*
X52170Y-33956D01*
X52170Y-31643D01*
X52114Y-31506D01*
X52009Y-31402D01*
X51873Y-31345D01*
X51725Y-31345D01*
X51588Y-31401D01*
X51484Y-31506D01*
X51427Y-31642D01*
X51427Y-31790D01*
X51483Y-31927D01*
X51588Y-32031D01*
X51724Y-32088D01*
X51872Y-32088D01*
X52009Y-32032D01*
X52113Y-31927D01*
X52170Y-31791D01*
X52170Y-31643D01*
X52170Y-33956D01*
X51015Y-33956D01*
X50767Y-34204D01*
X50767Y-34654D01*
X50975Y-34862D01*
X51696Y-34862D01*
X52168Y-34665D01*
X53853Y-34665D01*
X53863Y-34671D01*
X53807Y-34694D01*
X53757Y-34743D01*
X53731Y-34808D01*
X53730Y-34877D01*
X53757Y-34942D01*
X53806Y-34991D01*
X53871Y-35017D01*
X53940Y-35018D01*
X54005Y-34991D01*
X54054Y-34942D01*
X54080Y-34877D01*
X54081Y-34808D01*
X54071Y-34784D01*
X54271Y-34893D01*
X54271Y-36367D01*
X53498Y-36862D01*
X53498Y-36418D01*
X53471Y-36354D01*
X53422Y-36304D01*
X53357Y-36278D01*
X53288Y-36277D01*
X53246Y-36295D01*
X53246Y-34827D01*
X53219Y-34763D01*
X53170Y-34713D01*
X53105Y-34687D01*
X53036Y-34686D01*
X52972Y-34713D01*
X52922Y-34762D01*
X52896Y-34827D01*
X52895Y-34896D01*
X52905Y-34919D01*
X52871Y-34919D01*
X52807Y-34946D01*
X52757Y-34995D01*
X52731Y-35060D01*
X52730Y-35129D01*
X52757Y-35194D01*
X52806Y-35243D01*
X52871Y-35269D01*
X52940Y-35270D01*
X53005Y-35243D01*
X53054Y-35194D01*
X53080Y-35129D01*
X53081Y-35060D01*
X53071Y-35037D01*
X53105Y-35037D01*
X53170Y-35010D01*
X53219Y-34961D01*
X53245Y-34896D01*
X53246Y-34827D01*
X53246Y-36295D01*
X53224Y-36304D01*
X53174Y-36353D01*
X53148Y-36418D01*
X53147Y-36487D01*
X53174Y-36552D01*
X53223Y-36601D01*
X53288Y-36627D01*
X53357Y-36628D01*
X53422Y-36601D01*
X53471Y-36552D01*
X53497Y-36487D01*
X53498Y-36418D01*
X53498Y-36862D01*
X53287Y-36997D01*
X53287Y-37353D01*
X53044Y-37353D01*
X53045Y-37292D01*
X53045Y-36717D01*
X53018Y-36653D01*
X52969Y-36603D01*
X52904Y-36577D01*
X52835Y-36576D01*
X52771Y-36603D01*
X52721Y-36652D01*
X52695Y-36717D01*
X52694Y-36786D01*
X52721Y-36851D01*
X52770Y-36900D01*
X52835Y-36926D01*
X52904Y-36927D01*
X52969Y-36900D01*
X53018Y-36851D01*
X53044Y-36786D01*
X53045Y-36717D01*
X53045Y-37292D01*
X53018Y-37228D01*
X52969Y-37178D01*
X52904Y-37152D01*
X52835Y-37151D01*
X52771Y-37178D01*
X52721Y-37227D01*
X52695Y-37292D01*
X52694Y-37338D01*
X52680Y-37333D01*
X52611Y-37332D01*
X52547Y-37359D01*
X52497Y-37408D01*
X52471Y-37473D01*
X52470Y-37542D01*
X52497Y-37607D01*
X52542Y-37651D01*
X52508Y-37651D01*
X52444Y-37678D01*
X52394Y-37727D01*
X52368Y-37792D01*
X52368Y-37792D01*
X52368Y-35855D01*
X52341Y-35791D01*
X52292Y-35741D01*
X52227Y-35715D01*
X52158Y-35714D01*
X52094Y-35741D01*
X52044Y-35790D01*
X52018Y-35855D01*
X52017Y-35924D01*
X52044Y-35989D01*
X52093Y-36038D01*
X52158Y-36064D01*
X52227Y-36065D01*
X52292Y-36038D01*
X52341Y-35989D01*
X52367Y-35924D01*
X52368Y-35855D01*
X52368Y-37792D01*
X52367Y-37861D01*
X52394Y-37926D01*
X52443Y-37975D01*
X52476Y-37988D01*
X52417Y-38013D01*
X52367Y-38062D01*
X52341Y-38127D01*
X52340Y-38196D01*
X52367Y-38261D01*
X52416Y-38310D01*
X52481Y-38336D01*
X52550Y-38337D01*
X52615Y-38310D01*
X52664Y-38261D01*
X52690Y-38196D01*
X52691Y-38127D01*
X52664Y-38063D01*
X52615Y-38013D01*
X52582Y-38000D01*
X52642Y-37975D01*
X52691Y-37926D01*
X52717Y-37861D01*
X52718Y-37792D01*
X52691Y-37728D01*
X52646Y-37683D01*
X52680Y-37683D01*
X52729Y-37663D01*
X53287Y-37663D01*
X53287Y-40622D01*
X52893Y-41094D01*
X52893Y-42354D01*
X52710Y-42545D01*
X52710Y-41697D01*
X52683Y-41633D01*
X52640Y-41589D01*
X52640Y-41008D01*
X52613Y-40944D01*
X52577Y-40907D01*
X52577Y-39780D01*
X52561Y-39741D01*
X52561Y-39146D01*
X52541Y-39097D01*
X52541Y-38737D01*
X52514Y-38673D01*
X52465Y-38623D01*
X52400Y-38597D01*
X52331Y-38596D01*
X52267Y-38623D01*
X52217Y-38672D01*
X52191Y-38737D01*
X52190Y-38806D01*
X52217Y-38871D01*
X52266Y-38920D01*
X52331Y-38946D01*
X52400Y-38947D01*
X52465Y-38920D01*
X52514Y-38871D01*
X52540Y-38806D01*
X52541Y-38737D01*
X52541Y-39097D01*
X52534Y-39082D01*
X52485Y-39032D01*
X52420Y-39006D01*
X52351Y-39005D01*
X52287Y-39032D01*
X52237Y-39081D01*
X52211Y-39146D01*
X52210Y-39215D01*
X52237Y-39280D01*
X52286Y-39329D01*
X52351Y-39355D01*
X52420Y-39356D01*
X52485Y-39329D01*
X52534Y-39280D01*
X52560Y-39215D01*
X52561Y-39146D01*
X52561Y-39741D01*
X52550Y-39716D01*
X52501Y-39666D01*
X52436Y-39640D01*
X52367Y-39639D01*
X52303Y-39666D01*
X52253Y-39715D01*
X52227Y-39780D01*
X52226Y-39840D01*
X52197Y-39840D01*
X52133Y-39867D01*
X52083Y-39916D01*
X52057Y-39981D01*
X52056Y-40050D01*
X52083Y-40115D01*
X52132Y-40164D01*
X52197Y-40190D01*
X52266Y-40191D01*
X52331Y-40164D01*
X52380Y-40115D01*
X52406Y-40050D01*
X52407Y-39990D01*
X52436Y-39990D01*
X52501Y-39963D01*
X52550Y-39914D01*
X52576Y-39849D01*
X52577Y-39780D01*
X52577Y-40907D01*
X52564Y-40894D01*
X52499Y-40868D01*
X52450Y-40867D01*
X52451Y-40812D01*
X52424Y-40748D01*
X52381Y-40704D01*
X52387Y-40688D01*
X52388Y-40619D01*
X52361Y-40555D01*
X52347Y-40541D01*
X52396Y-40493D01*
X52422Y-40428D01*
X52423Y-40359D01*
X52396Y-40295D01*
X52347Y-40245D01*
X52282Y-40219D01*
X52213Y-40218D01*
X52149Y-40245D01*
X52099Y-40294D01*
X52073Y-40359D01*
X52072Y-40428D01*
X52099Y-40493D01*
X52113Y-40506D01*
X52064Y-40554D01*
X52038Y-40619D01*
X52037Y-40688D01*
X52064Y-40753D01*
X52107Y-40796D01*
X52101Y-40812D01*
X52100Y-40881D01*
X52127Y-40946D01*
X52176Y-40995D01*
X52241Y-41021D01*
X52290Y-41022D01*
X52289Y-41077D01*
X52316Y-41142D01*
X52365Y-41191D01*
X52430Y-41217D01*
X52499Y-41218D01*
X52564Y-41191D01*
X52613Y-41142D01*
X52639Y-41077D01*
X52640Y-41008D01*
X52640Y-41589D01*
X52634Y-41583D01*
X52569Y-41557D01*
X52500Y-41556D01*
X52436Y-41583D01*
X52386Y-41632D01*
X52360Y-41697D01*
X52359Y-41766D01*
X52386Y-41831D01*
X52435Y-41880D01*
X52500Y-41906D01*
X52569Y-41907D01*
X52634Y-41880D01*
X52683Y-41831D01*
X52709Y-41766D01*
X52710Y-41697D01*
X52710Y-42545D01*
X52293Y-42980D01*
X52293Y-42319D01*
X52266Y-42255D01*
X52217Y-42205D01*
X52152Y-42179D01*
X52083Y-42178D01*
X52019Y-42205D01*
X52017Y-42207D01*
X52016Y-42206D01*
X51951Y-42180D01*
X51927Y-42180D01*
X51927Y-40713D01*
X51907Y-40664D01*
X51907Y-36426D01*
X51880Y-36362D01*
X51844Y-36325D01*
X51844Y-35253D01*
X51817Y-35189D01*
X51768Y-35139D01*
X51703Y-35113D01*
X51634Y-35112D01*
X51570Y-35139D01*
X51520Y-35188D01*
X51494Y-35253D01*
X51493Y-35322D01*
X51520Y-35387D01*
X51569Y-35436D01*
X51634Y-35462D01*
X51703Y-35463D01*
X51768Y-35436D01*
X51817Y-35387D01*
X51843Y-35322D01*
X51844Y-35253D01*
X51844Y-36325D01*
X51831Y-36312D01*
X51766Y-36286D01*
X51697Y-36285D01*
X51633Y-36312D01*
X51620Y-36325D01*
X51620Y-35894D01*
X51593Y-35830D01*
X51544Y-35780D01*
X51479Y-35754D01*
X51410Y-35753D01*
X51346Y-35780D01*
X51296Y-35829D01*
X51270Y-35894D01*
X51269Y-35963D01*
X51296Y-36028D01*
X51345Y-36077D01*
X51410Y-36103D01*
X51479Y-36104D01*
X51544Y-36077D01*
X51593Y-36028D01*
X51619Y-35963D01*
X51620Y-35894D01*
X51620Y-36325D01*
X51583Y-36361D01*
X51557Y-36426D01*
X51556Y-36495D01*
X51583Y-36560D01*
X51632Y-36609D01*
X51697Y-36635D01*
X51766Y-36636D01*
X51831Y-36609D01*
X51880Y-36560D01*
X51906Y-36495D01*
X51907Y-36426D01*
X51907Y-40664D01*
X51903Y-40655D01*
X51903Y-37205D01*
X51876Y-37141D01*
X51833Y-37098D01*
X51876Y-37056D01*
X51902Y-36991D01*
X51903Y-36922D01*
X51876Y-36858D01*
X51827Y-36808D01*
X51762Y-36782D01*
X51693Y-36781D01*
X51629Y-36808D01*
X51579Y-36857D01*
X51553Y-36922D01*
X51552Y-36991D01*
X51579Y-37056D01*
X51622Y-37098D01*
X51579Y-37140D01*
X51553Y-37205D01*
X51552Y-37274D01*
X51579Y-37339D01*
X51611Y-37370D01*
X51572Y-37408D01*
X51546Y-37473D01*
X51545Y-37542D01*
X51572Y-37607D01*
X51621Y-37656D01*
X51686Y-37682D01*
X51755Y-37683D01*
X51820Y-37656D01*
X51869Y-37607D01*
X51895Y-37542D01*
X51896Y-37473D01*
X51869Y-37409D01*
X51837Y-37377D01*
X51876Y-37339D01*
X51902Y-37274D01*
X51903Y-37205D01*
X51903Y-40655D01*
X51900Y-40649D01*
X51892Y-40640D01*
X51892Y-37957D01*
X51865Y-37893D01*
X51816Y-37843D01*
X51751Y-37817D01*
X51682Y-37816D01*
X51618Y-37843D01*
X51568Y-37892D01*
X51542Y-37957D01*
X51541Y-38026D01*
X51568Y-38091D01*
X51617Y-38140D01*
X51682Y-38166D01*
X51751Y-38167D01*
X51816Y-38140D01*
X51865Y-38091D01*
X51891Y-38026D01*
X51892Y-37957D01*
X51892Y-40640D01*
X51851Y-40599D01*
X51786Y-40573D01*
X51717Y-40572D01*
X51653Y-40599D01*
X51603Y-40648D01*
X51577Y-40713D01*
X51576Y-40782D01*
X51603Y-40847D01*
X51652Y-40896D01*
X51717Y-40922D01*
X51786Y-40923D01*
X51851Y-40896D01*
X51900Y-40847D01*
X51926Y-40782D01*
X51927Y-40713D01*
X51927Y-42180D01*
X51882Y-42179D01*
X51818Y-42206D01*
X51777Y-42247D01*
X51737Y-42206D01*
X51672Y-42180D01*
X51603Y-42179D01*
X51539Y-42206D01*
X51518Y-42227D01*
X51497Y-42206D01*
X51432Y-42180D01*
X51363Y-42179D01*
X51299Y-42206D01*
X51266Y-42239D01*
X51266Y-40914D01*
X51239Y-40850D01*
X51190Y-40800D01*
X51125Y-40774D01*
X51056Y-40773D01*
X50992Y-40800D01*
X50942Y-40849D01*
X50916Y-40914D01*
X50915Y-40983D01*
X50942Y-41048D01*
X50991Y-41097D01*
X51056Y-41123D01*
X51125Y-41124D01*
X51190Y-41097D01*
X51239Y-41048D01*
X51265Y-40983D01*
X51266Y-40914D01*
X51266Y-42239D01*
X51249Y-42255D01*
X51223Y-42320D01*
X51222Y-42389D01*
X51249Y-42454D01*
X51298Y-42503D01*
X51363Y-42529D01*
X51432Y-42530D01*
X51497Y-42503D01*
X51517Y-42482D01*
X51538Y-42503D01*
X51603Y-42529D01*
X51672Y-42530D01*
X51737Y-42503D01*
X51777Y-42462D01*
X51817Y-42503D01*
X51882Y-42529D01*
X51951Y-42530D01*
X52016Y-42503D01*
X52017Y-42501D01*
X52018Y-42502D01*
X52083Y-42528D01*
X52152Y-42529D01*
X52217Y-42502D01*
X52266Y-42453D01*
X52292Y-42388D01*
X52293Y-42319D01*
X52293Y-42980D01*
X51949Y-43338D01*
X51949Y-44322D01*
X51881Y-44389D01*
X50092Y-44389D01*
X50092Y-36977D01*
X50065Y-36913D01*
X50016Y-36863D01*
X49951Y-36837D01*
X49923Y-36837D01*
X49923Y-36190D01*
X49896Y-36126D01*
X49847Y-36076D01*
X49782Y-36050D01*
X49713Y-36049D01*
X49649Y-36076D01*
X49599Y-36125D01*
X49573Y-36190D01*
X49572Y-36259D01*
X49598Y-36322D01*
X49595Y-36325D01*
X49569Y-36390D01*
X49568Y-36459D01*
X49595Y-36524D01*
X49644Y-36573D01*
X49709Y-36599D01*
X49778Y-36600D01*
X49843Y-36573D01*
X49892Y-36524D01*
X49918Y-36459D01*
X49919Y-36390D01*
X49893Y-36327D01*
X49896Y-36324D01*
X49922Y-36259D01*
X49923Y-36190D01*
X49923Y-36837D01*
X49882Y-36836D01*
X49818Y-36863D01*
X49768Y-36912D01*
X49742Y-36977D01*
X49741Y-37046D01*
X49755Y-37078D01*
X49733Y-37056D01*
X49668Y-37030D01*
X49599Y-37029D01*
X49535Y-37056D01*
X49485Y-37105D01*
X49459Y-37170D01*
X49458Y-37239D01*
X49472Y-37273D01*
X49453Y-37253D01*
X49431Y-37244D01*
X49431Y-35993D01*
X49404Y-35929D01*
X49355Y-35879D01*
X49290Y-35853D01*
X49221Y-35852D01*
X49157Y-35879D01*
X49107Y-35928D01*
X49081Y-35993D01*
X49080Y-36062D01*
X49107Y-36127D01*
X49156Y-36176D01*
X49221Y-36202D01*
X49290Y-36203D01*
X49355Y-36176D01*
X49404Y-36127D01*
X49430Y-36062D01*
X49431Y-35993D01*
X49431Y-37244D01*
X49388Y-37227D01*
X49319Y-37226D01*
X49255Y-37253D01*
X49205Y-37302D01*
X49179Y-37367D01*
X49178Y-37436D01*
X49205Y-37501D01*
X49254Y-37550D01*
X49319Y-37576D01*
X49388Y-37577D01*
X49453Y-37550D01*
X49502Y-37501D01*
X49528Y-37436D01*
X49529Y-37367D01*
X49515Y-37333D01*
X49534Y-37353D01*
X49599Y-37379D01*
X49668Y-37380D01*
X49733Y-37353D01*
X49782Y-37304D01*
X49808Y-37239D01*
X49809Y-37170D01*
X49795Y-37138D01*
X49817Y-37160D01*
X49882Y-37186D01*
X49951Y-37187D01*
X50016Y-37160D01*
X50065Y-37111D01*
X50091Y-37046D01*
X50092Y-36977D01*
X50092Y-44389D01*
X49710Y-44389D01*
X49710Y-42583D01*
X49683Y-42519D01*
X49634Y-42469D01*
X49569Y-42443D01*
X49500Y-42442D01*
X49436Y-42469D01*
X49386Y-42518D01*
X49360Y-42583D01*
X49359Y-42652D01*
X49386Y-42717D01*
X49435Y-42766D01*
X49500Y-42792D01*
X49569Y-42793D01*
X49634Y-42766D01*
X49683Y-42717D01*
X49709Y-42652D01*
X49710Y-42583D01*
X49710Y-44389D01*
X49233Y-44389D01*
X49233Y-43221D01*
X49210Y-43164D01*
X49166Y-43120D01*
X49109Y-43096D01*
X49048Y-43096D01*
X48991Y-43120D01*
X48947Y-43164D01*
X48923Y-43221D01*
X48923Y-43282D01*
X48947Y-43339D01*
X48990Y-43383D01*
X49047Y-43406D01*
X49109Y-43406D01*
X49166Y-43383D01*
X49210Y-43339D01*
X49233Y-43282D01*
X49233Y-43221D01*
X49233Y-44389D01*
X48372Y-44389D01*
X48372Y-41697D01*
X48345Y-41633D01*
X48296Y-41583D01*
X48231Y-41557D01*
X48162Y-41556D01*
X48098Y-41583D01*
X48048Y-41632D01*
X48022Y-41697D01*
X48021Y-41766D01*
X48048Y-41831D01*
X48097Y-41880D01*
X48162Y-41906D01*
X48231Y-41907D01*
X48296Y-41880D01*
X48345Y-41831D01*
X48371Y-41766D01*
X48372Y-41697D01*
X48372Y-44389D01*
X48356Y-44389D01*
X48356Y-42095D01*
X48329Y-42031D01*
X48280Y-41981D01*
X48215Y-41955D01*
X48146Y-41954D01*
X48082Y-41981D01*
X48032Y-42030D01*
X48006Y-42095D01*
X48005Y-42164D01*
X48031Y-42225D01*
X48024Y-42231D01*
X47998Y-42296D01*
X47997Y-42365D01*
X48024Y-42430D01*
X48073Y-42479D01*
X48138Y-42505D01*
X48207Y-42506D01*
X48272Y-42479D01*
X48321Y-42430D01*
X48347Y-42365D01*
X48348Y-42296D01*
X48322Y-42235D01*
X48329Y-42229D01*
X48355Y-42164D01*
X48356Y-42095D01*
X48356Y-44389D01*
X48329Y-44389D01*
X48329Y-42690D01*
X48302Y-42626D01*
X48253Y-42576D01*
X48188Y-42550D01*
X48119Y-42549D01*
X48055Y-42576D01*
X48005Y-42625D01*
X47979Y-42690D01*
X47978Y-42759D01*
X48005Y-42824D01*
X48054Y-42873D01*
X48119Y-42899D01*
X48188Y-42900D01*
X48253Y-42873D01*
X48302Y-42824D01*
X48328Y-42759D01*
X48329Y-42690D01*
X48329Y-44389D01*
X47998Y-44389D01*
X47998Y-44280D01*
X47972Y-44217D01*
X47972Y-44019D01*
X47998Y-43956D01*
X47998Y-43847D01*
X47972Y-43784D01*
X47972Y-43586D01*
X47998Y-43523D01*
X47998Y-43414D01*
X47972Y-43351D01*
X47972Y-41287D01*
X47975Y-41290D01*
X48040Y-41316D01*
X48109Y-41317D01*
X48174Y-41290D01*
X48223Y-41241D01*
X48249Y-41176D01*
X48250Y-41118D01*
X48300Y-41097D01*
X48349Y-41048D01*
X48375Y-40983D01*
X48376Y-40914D01*
X48376Y-39733D01*
X48372Y-39723D01*
X48372Y-39335D01*
X48345Y-39271D01*
X48296Y-39221D01*
X48231Y-39195D01*
X48162Y-39194D01*
X48098Y-39221D01*
X48048Y-39270D01*
X48022Y-39335D01*
X48021Y-39404D01*
X48048Y-39469D01*
X48097Y-39518D01*
X48162Y-39544D01*
X48231Y-39545D01*
X48296Y-39518D01*
X48345Y-39469D01*
X48371Y-39404D01*
X48372Y-39335D01*
X48372Y-39723D01*
X48349Y-39669D01*
X48300Y-39619D01*
X48235Y-39593D01*
X48166Y-39592D01*
X48102Y-39619D01*
X48052Y-39668D01*
X48026Y-39733D01*
X48025Y-39802D01*
X48047Y-39854D01*
X48036Y-39865D01*
X48010Y-39930D01*
X48009Y-39999D01*
X48036Y-40064D01*
X48085Y-40113D01*
X48150Y-40139D01*
X48219Y-40140D01*
X48284Y-40113D01*
X48333Y-40064D01*
X48359Y-39999D01*
X48360Y-39930D01*
X48338Y-39878D01*
X48349Y-39867D01*
X48375Y-39802D01*
X48376Y-39733D01*
X48376Y-40914D01*
X48356Y-40865D01*
X48356Y-40320D01*
X48329Y-40256D01*
X48280Y-40206D01*
X48215Y-40180D01*
X48146Y-40179D01*
X48082Y-40206D01*
X48032Y-40255D01*
X48006Y-40320D01*
X48005Y-40389D01*
X48032Y-40454D01*
X48081Y-40503D01*
X48146Y-40529D01*
X48215Y-40530D01*
X48280Y-40503D01*
X48329Y-40454D01*
X48355Y-40389D01*
X48356Y-40320D01*
X48356Y-40865D01*
X48349Y-40850D01*
X48328Y-40829D01*
X48347Y-40782D01*
X48348Y-40713D01*
X48321Y-40649D01*
X48272Y-40599D01*
X48207Y-40573D01*
X48138Y-40572D01*
X48074Y-40599D01*
X48024Y-40648D01*
X47998Y-40713D01*
X47997Y-40782D01*
X48024Y-40847D01*
X48045Y-40867D01*
X48026Y-40914D01*
X48025Y-40972D01*
X47976Y-40993D01*
X47972Y-40997D01*
X47972Y-38924D01*
X47979Y-38931D01*
X48044Y-38957D01*
X48113Y-38958D01*
X48178Y-38931D01*
X48227Y-38882D01*
X48253Y-38817D01*
X48254Y-38755D01*
X48292Y-38739D01*
X48341Y-38690D01*
X48367Y-38625D01*
X48368Y-38556D01*
X48347Y-38506D01*
X48369Y-38485D01*
X48395Y-38420D01*
X48396Y-38351D01*
X48369Y-38287D01*
X48368Y-38285D01*
X48368Y-37949D01*
X48368Y-37170D01*
X48341Y-37106D01*
X48292Y-37056D01*
X48227Y-37030D01*
X48158Y-37029D01*
X48094Y-37056D01*
X48044Y-37105D01*
X48018Y-37170D01*
X48017Y-37239D01*
X48036Y-37283D01*
X48016Y-37302D01*
X47990Y-37367D01*
X47989Y-37436D01*
X48016Y-37501D01*
X48065Y-37550D01*
X48130Y-37576D01*
X48199Y-37577D01*
X48264Y-37550D01*
X48313Y-37501D01*
X48339Y-37436D01*
X48340Y-37367D01*
X48321Y-37323D01*
X48341Y-37304D01*
X48367Y-37239D01*
X48368Y-37170D01*
X48368Y-37949D01*
X48341Y-37885D01*
X48292Y-37835D01*
X48227Y-37809D01*
X48158Y-37808D01*
X48094Y-37835D01*
X48044Y-37884D01*
X48018Y-37949D01*
X48017Y-38018D01*
X48044Y-38083D01*
X48093Y-38132D01*
X48158Y-38158D01*
X48227Y-38159D01*
X48292Y-38132D01*
X48341Y-38083D01*
X48367Y-38018D01*
X48368Y-37949D01*
X48368Y-38285D01*
X48320Y-38237D01*
X48255Y-38211D01*
X48186Y-38210D01*
X48122Y-38237D01*
X48072Y-38286D01*
X48046Y-38351D01*
X48045Y-38420D01*
X48066Y-38470D01*
X48044Y-38491D01*
X48018Y-38556D01*
X48017Y-38618D01*
X47980Y-38634D01*
X47972Y-38642D01*
X47972Y-35613D01*
X47998Y-35550D01*
X47998Y-35441D01*
X47972Y-35378D01*
X47972Y-35180D01*
X47998Y-35117D01*
X47998Y-35008D01*
X47972Y-34945D01*
X47972Y-34747D01*
X47998Y-34684D01*
X47998Y-34575D01*
X47972Y-34512D01*
X47972Y-30688D01*
X56317Y-30688D01*
X56370Y-30710D01*
X56479Y-30710D01*
X56532Y-30688D01*
X56750Y-30688D01*
X56803Y-30710D01*
X56912Y-30710D01*
X56965Y-30688D01*
X57183Y-30688D01*
X57236Y-30710D01*
X57345Y-30710D01*
X57398Y-30688D01*
X57617Y-30688D01*
X57670Y-30710D01*
X57779Y-30710D01*
X57832Y-30688D01*
X66004Y-30688D01*
X66004Y-39492D01*
X65994Y-39516D01*
X65994Y-39625D01*
X66004Y-39649D01*
X66004Y-39925D01*
X65994Y-39949D01*
X65994Y-40058D01*
X66004Y-40082D01*
X66004Y-40358D01*
X65994Y-40382D01*
X65994Y-40491D01*
X66004Y-40515D01*
X66004Y-40791D01*
X65994Y-40815D01*
X65994Y-40924D01*
X66004Y-40948D01*
X66004Y-49508D01*
G54D10*
G36*
X55937Y-49508D02*
X55540Y-49508D01*
X55540Y-48705D01*
X55472Y-48638D01*
X55416Y-48693D01*
X55416Y-48582D01*
X55349Y-48515D01*
X55323Y-48523D01*
X55315Y-48569D01*
X55306Y-48523D01*
X55280Y-48515D01*
X55225Y-48570D01*
X55225Y-48459D01*
X55216Y-48434D01*
X55155Y-48422D01*
X55098Y-48434D01*
X55089Y-48459D01*
X55157Y-48527D01*
X55225Y-48459D01*
X55225Y-48570D01*
X55212Y-48582D01*
X55280Y-48650D01*
X55306Y-48642D01*
X55314Y-48596D01*
X55323Y-48642D01*
X55349Y-48650D01*
X55416Y-48582D01*
X55416Y-48693D01*
X55404Y-48705D01*
X55412Y-48731D01*
X55474Y-48742D01*
X55531Y-48731D01*
X55540Y-48705D01*
X55540Y-49508D01*
X55225Y-49508D01*
X55225Y-48705D01*
X55157Y-48638D01*
X55101Y-48693D01*
X55101Y-48582D01*
X55034Y-48515D01*
X55008Y-48523D01*
X55002Y-48556D01*
X55002Y-48265D01*
X54991Y-48208D01*
X54965Y-48200D01*
X54910Y-48255D01*
X54910Y-48144D01*
X54901Y-48119D01*
X54840Y-48107D01*
X54783Y-48119D01*
X54774Y-48144D01*
X54842Y-48212D01*
X54910Y-48144D01*
X54910Y-48255D01*
X54898Y-48267D01*
X54965Y-48335D01*
X54991Y-48327D01*
X55002Y-48265D01*
X55002Y-48556D01*
X55000Y-48569D01*
X54991Y-48523D01*
X54965Y-48515D01*
X54910Y-48570D01*
X54910Y-48459D01*
X54901Y-48434D01*
X54855Y-48425D01*
X54901Y-48416D01*
X54910Y-48390D01*
X54842Y-48323D01*
X54787Y-48378D01*
X54787Y-48267D01*
X54719Y-48200D01*
X54693Y-48208D01*
X54685Y-48254D01*
X54676Y-48208D01*
X54650Y-48200D01*
X54648Y-48202D01*
X54648Y-47950D01*
X54636Y-47893D01*
X54611Y-47885D01*
X54555Y-47940D01*
X54555Y-47829D01*
X54547Y-47804D01*
X54486Y-47792D01*
X54428Y-47804D01*
X54420Y-47829D01*
X54488Y-47897D01*
X54555Y-47829D01*
X54555Y-47940D01*
X54543Y-47952D01*
X54611Y-48020D01*
X54636Y-48012D01*
X54648Y-47950D01*
X54648Y-48202D01*
X54595Y-48255D01*
X54595Y-48144D01*
X54587Y-48119D01*
X54555Y-48113D01*
X54555Y-48075D01*
X54488Y-48008D01*
X54432Y-48063D01*
X54432Y-47952D01*
X54365Y-47885D01*
X54339Y-47893D01*
X54330Y-47939D01*
X54321Y-47893D01*
X54296Y-47885D01*
X54240Y-47940D01*
X54240Y-47829D01*
X54232Y-47804D01*
X54171Y-47792D01*
X54113Y-47804D01*
X54105Y-47829D01*
X54173Y-47897D01*
X54240Y-47829D01*
X54240Y-47940D01*
X54228Y-47952D01*
X54296Y-48020D01*
X54321Y-48012D01*
X54330Y-47966D01*
X54339Y-48012D01*
X54365Y-48020D01*
X54432Y-47952D01*
X54432Y-48063D01*
X54420Y-48075D01*
X54428Y-48101D01*
X54490Y-48112D01*
X54547Y-48101D01*
X54555Y-48075D01*
X54555Y-48113D01*
X54525Y-48107D01*
X54468Y-48119D01*
X54459Y-48144D01*
X54527Y-48212D01*
X54595Y-48144D01*
X54595Y-48255D01*
X54583Y-48267D01*
X54650Y-48335D01*
X54676Y-48327D01*
X54684Y-48281D01*
X54693Y-48327D01*
X54719Y-48335D01*
X54787Y-48267D01*
X54787Y-48378D01*
X54774Y-48390D01*
X54783Y-48416D01*
X54829Y-48424D01*
X54783Y-48434D01*
X54774Y-48459D01*
X54842Y-48527D01*
X54910Y-48459D01*
X54910Y-48570D01*
X54898Y-48582D01*
X54965Y-48650D01*
X54991Y-48642D01*
X54999Y-48596D01*
X55008Y-48642D01*
X55034Y-48650D01*
X55101Y-48582D01*
X55101Y-48693D01*
X55089Y-48705D01*
X55098Y-48731D01*
X55159Y-48742D01*
X55216Y-48731D01*
X55225Y-48705D01*
X55225Y-49508D01*
X54910Y-49508D01*
X54910Y-48705D01*
X54842Y-48638D01*
X54787Y-48693D01*
X54787Y-48582D01*
X54719Y-48515D01*
X54693Y-48523D01*
X54685Y-48569D01*
X54676Y-48523D01*
X54650Y-48515D01*
X54595Y-48570D01*
X54595Y-48459D01*
X54587Y-48434D01*
X54541Y-48425D01*
X54587Y-48416D01*
X54595Y-48390D01*
X54527Y-48323D01*
X54472Y-48378D01*
X54472Y-48267D01*
X54404Y-48200D01*
X54378Y-48208D01*
X54370Y-48254D01*
X54361Y-48208D01*
X54335Y-48200D01*
X54280Y-48255D01*
X54280Y-48144D01*
X54272Y-48119D01*
X54240Y-48113D01*
X54240Y-48075D01*
X54173Y-48008D01*
X54117Y-48063D01*
X54117Y-47952D01*
X54050Y-47885D01*
X54024Y-47893D01*
X54013Y-47954D01*
X54024Y-48012D01*
X54050Y-48020D01*
X54117Y-47952D01*
X54117Y-48063D01*
X54105Y-48075D01*
X54113Y-48101D01*
X54175Y-48112D01*
X54232Y-48101D01*
X54240Y-48075D01*
X54240Y-48113D01*
X54210Y-48107D01*
X54153Y-48119D01*
X54144Y-48144D01*
X54212Y-48212D01*
X54280Y-48144D01*
X54280Y-48255D01*
X54268Y-48267D01*
X54335Y-48335D01*
X54361Y-48327D01*
X54369Y-48281D01*
X54378Y-48327D01*
X54404Y-48335D01*
X54472Y-48267D01*
X54472Y-48378D01*
X54459Y-48390D01*
X54468Y-48416D01*
X54514Y-48424D01*
X54468Y-48434D01*
X54459Y-48459D01*
X54527Y-48527D01*
X54595Y-48459D01*
X54595Y-48570D01*
X54583Y-48582D01*
X54650Y-48650D01*
X54676Y-48642D01*
X54684Y-48596D01*
X54693Y-48642D01*
X54719Y-48650D01*
X54787Y-48582D01*
X54787Y-48693D01*
X54774Y-48705D01*
X54783Y-48731D01*
X54844Y-48742D01*
X54901Y-48731D01*
X54910Y-48705D01*
X54910Y-49508D01*
X54595Y-49508D01*
X54595Y-48705D01*
X54527Y-48638D01*
X54472Y-48693D01*
X54472Y-48582D01*
X54404Y-48515D01*
X54378Y-48523D01*
X54370Y-48569D01*
X54361Y-48523D01*
X54335Y-48515D01*
X54280Y-48570D01*
X54280Y-48459D01*
X54272Y-48434D01*
X54226Y-48425D01*
X54272Y-48416D01*
X54280Y-48390D01*
X54212Y-48323D01*
X54157Y-48378D01*
X54157Y-48267D01*
X54089Y-48200D01*
X54063Y-48208D01*
X54052Y-48269D01*
X54063Y-48327D01*
X54089Y-48335D01*
X54157Y-48267D01*
X54157Y-48378D01*
X54144Y-48390D01*
X54153Y-48416D01*
X54199Y-48424D01*
X54153Y-48434D01*
X54144Y-48459D01*
X54212Y-48527D01*
X54280Y-48459D01*
X54280Y-48570D01*
X54268Y-48582D01*
X54335Y-48650D01*
X54361Y-48642D01*
X54369Y-48596D01*
X54378Y-48642D01*
X54404Y-48650D01*
X54472Y-48582D01*
X54472Y-48693D01*
X54459Y-48705D01*
X54468Y-48731D01*
X54529Y-48742D01*
X54587Y-48731D01*
X54595Y-48705D01*
X54595Y-49508D01*
X54372Y-49508D01*
X54372Y-48935D01*
X54361Y-48877D01*
X54335Y-48869D01*
X54280Y-48924D01*
X54280Y-48813D01*
X54280Y-48705D01*
X54212Y-48638D01*
X54157Y-48693D01*
X54157Y-48582D01*
X54089Y-48515D01*
X54063Y-48523D01*
X54052Y-48584D01*
X54063Y-48642D01*
X54089Y-48650D01*
X54157Y-48582D01*
X54157Y-48693D01*
X54144Y-48705D01*
X54153Y-48731D01*
X54214Y-48742D01*
X54272Y-48731D01*
X54280Y-48705D01*
X54280Y-48813D01*
X54272Y-48788D01*
X54210Y-48776D01*
X54153Y-48788D01*
X54144Y-48813D01*
X54212Y-48881D01*
X54280Y-48813D01*
X54280Y-48924D01*
X54268Y-48937D01*
X54335Y-49004D01*
X54361Y-48996D01*
X54372Y-48935D01*
X54372Y-49508D01*
X54333Y-49508D01*
X54333Y-49289D01*
X54321Y-49231D01*
X54296Y-49223D01*
X54280Y-49239D01*
X54280Y-49060D01*
X54212Y-48992D01*
X54157Y-49048D01*
X54157Y-48937D01*
X54089Y-48869D01*
X54063Y-48877D01*
X54052Y-48938D01*
X54063Y-48996D01*
X54089Y-49004D01*
X54157Y-48937D01*
X54157Y-49048D01*
X54144Y-49060D01*
X54153Y-49085D01*
X54214Y-49097D01*
X54272Y-49085D01*
X54280Y-49060D01*
X54280Y-49239D01*
X54240Y-49279D01*
X54240Y-49168D01*
X54232Y-49142D01*
X54171Y-49131D01*
X54113Y-49142D01*
X54105Y-49168D01*
X54173Y-49235D01*
X54240Y-49168D01*
X54240Y-49279D01*
X54228Y-49291D01*
X54296Y-49358D01*
X54321Y-49350D01*
X54333Y-49289D01*
X54333Y-49508D01*
X54240Y-49508D01*
X54240Y-49414D01*
X54173Y-49346D01*
X54117Y-49402D01*
X54117Y-49291D01*
X54050Y-49223D01*
X54024Y-49231D01*
X54013Y-49293D01*
X54024Y-49350D01*
X54050Y-49358D01*
X54117Y-49291D01*
X54117Y-49402D01*
X54105Y-49414D01*
X54113Y-49439D01*
X54175Y-49451D01*
X54232Y-49439D01*
X54240Y-49414D01*
X54240Y-49508D01*
X53354Y-49508D01*
X53287Y-49440D01*
X53287Y-47156D01*
X53129Y-46999D01*
X53129Y-46384D01*
X55307Y-48444D01*
X55409Y-48444D01*
X55404Y-48459D01*
X55472Y-48527D01*
X55500Y-48499D01*
X55555Y-48554D01*
X55527Y-48582D01*
X55595Y-48650D01*
X55621Y-48642D01*
X55632Y-48580D01*
X55627Y-48556D01*
X55925Y-48827D01*
X55925Y-49495D01*
X55937Y-49508D01*
X55937Y-49508D01*
G37*
G54D28*
X55937Y-49508D02*
X55540Y-49508D01*
X55540Y-48705D01*
X55472Y-48638D01*
X55416Y-48693D01*
X55416Y-48582D01*
X55349Y-48515D01*
X55323Y-48523D01*
X55315Y-48569D01*
X55306Y-48523D01*
X55280Y-48515D01*
X55225Y-48570D01*
X55225Y-48459D01*
X55216Y-48434D01*
X55155Y-48422D01*
X55098Y-48434D01*
X55089Y-48459D01*
X55157Y-48527D01*
X55225Y-48459D01*
X55225Y-48570D01*
X55212Y-48582D01*
X55280Y-48650D01*
X55306Y-48642D01*
X55314Y-48596D01*
X55323Y-48642D01*
X55349Y-48650D01*
X55416Y-48582D01*
X55416Y-48693D01*
X55404Y-48705D01*
X55412Y-48731D01*
X55474Y-48742D01*
X55531Y-48731D01*
X55540Y-48705D01*
X55540Y-49508D01*
X55225Y-49508D01*
X55225Y-48705D01*
X55157Y-48638D01*
X55101Y-48693D01*
X55101Y-48582D01*
X55034Y-48515D01*
X55008Y-48523D01*
X55002Y-48556D01*
X55002Y-48265D01*
X54991Y-48208D01*
X54965Y-48200D01*
X54910Y-48255D01*
X54910Y-48144D01*
X54901Y-48119D01*
X54840Y-48107D01*
X54783Y-48119D01*
X54774Y-48144D01*
X54842Y-48212D01*
X54910Y-48144D01*
X54910Y-48255D01*
X54898Y-48267D01*
X54965Y-48335D01*
X54991Y-48327D01*
X55002Y-48265D01*
X55002Y-48556D01*
X55000Y-48569D01*
X54991Y-48523D01*
X54965Y-48515D01*
X54910Y-48570D01*
X54910Y-48459D01*
X54901Y-48434D01*
X54855Y-48425D01*
X54901Y-48416D01*
X54910Y-48390D01*
X54842Y-48323D01*
X54787Y-48378D01*
X54787Y-48267D01*
X54719Y-48200D01*
X54693Y-48208D01*
X54685Y-48254D01*
X54676Y-48208D01*
X54650Y-48200D01*
X54648Y-48202D01*
X54648Y-47950D01*
X54636Y-47893D01*
X54611Y-47885D01*
X54555Y-47940D01*
X54555Y-47829D01*
X54547Y-47804D01*
X54486Y-47792D01*
X54428Y-47804D01*
X54420Y-47829D01*
X54488Y-47897D01*
X54555Y-47829D01*
X54555Y-47940D01*
X54543Y-47952D01*
X54611Y-48020D01*
X54636Y-48012D01*
X54648Y-47950D01*
X54648Y-48202D01*
X54595Y-48255D01*
X54595Y-48144D01*
X54587Y-48119D01*
X54555Y-48113D01*
X54555Y-48075D01*
X54488Y-48008D01*
X54432Y-48063D01*
X54432Y-47952D01*
X54365Y-47885D01*
X54339Y-47893D01*
X54330Y-47939D01*
X54321Y-47893D01*
X54296Y-47885D01*
X54240Y-47940D01*
X54240Y-47829D01*
X54232Y-47804D01*
X54171Y-47792D01*
X54113Y-47804D01*
X54105Y-47829D01*
X54173Y-47897D01*
X54240Y-47829D01*
X54240Y-47940D01*
X54228Y-47952D01*
X54296Y-48020D01*
X54321Y-48012D01*
X54330Y-47966D01*
X54339Y-48012D01*
X54365Y-48020D01*
X54432Y-47952D01*
X54432Y-48063D01*
X54420Y-48075D01*
X54428Y-48101D01*
X54490Y-48112D01*
X54547Y-48101D01*
X54555Y-48075D01*
X54555Y-48113D01*
X54525Y-48107D01*
X54468Y-48119D01*
X54459Y-48144D01*
X54527Y-48212D01*
X54595Y-48144D01*
X54595Y-48255D01*
X54583Y-48267D01*
X54650Y-48335D01*
X54676Y-48327D01*
X54684Y-48281D01*
X54693Y-48327D01*
X54719Y-48335D01*
X54787Y-48267D01*
X54787Y-48378D01*
X54774Y-48390D01*
X54783Y-48416D01*
X54829Y-48424D01*
X54783Y-48434D01*
X54774Y-48459D01*
X54842Y-48527D01*
X54910Y-48459D01*
X54910Y-48570D01*
X54898Y-48582D01*
X54965Y-48650D01*
X54991Y-48642D01*
X54999Y-48596D01*
X55008Y-48642D01*
X55034Y-48650D01*
X55101Y-48582D01*
X55101Y-48693D01*
X55089Y-48705D01*
X55098Y-48731D01*
X55159Y-48742D01*
X55216Y-48731D01*
X55225Y-48705D01*
X55225Y-49508D01*
X54910Y-49508D01*
X54910Y-48705D01*
X54842Y-48638D01*
X54787Y-48693D01*
X54787Y-48582D01*
X54719Y-48515D01*
X54693Y-48523D01*
X54685Y-48569D01*
X54676Y-48523D01*
X54650Y-48515D01*
X54595Y-48570D01*
X54595Y-48459D01*
X54587Y-48434D01*
X54541Y-48425D01*
X54587Y-48416D01*
X54595Y-48390D01*
X54527Y-48323D01*
X54472Y-48378D01*
X54472Y-48267D01*
X54404Y-48200D01*
X54378Y-48208D01*
X54370Y-48254D01*
X54361Y-48208D01*
X54335Y-48200D01*
X54280Y-48255D01*
X54280Y-48144D01*
X54272Y-48119D01*
X54240Y-48113D01*
X54240Y-48075D01*
X54173Y-48008D01*
X54117Y-48063D01*
X54117Y-47952D01*
X54050Y-47885D01*
X54024Y-47893D01*
X54013Y-47954D01*
X54024Y-48012D01*
X54050Y-48020D01*
X54117Y-47952D01*
X54117Y-48063D01*
X54105Y-48075D01*
X54113Y-48101D01*
X54175Y-48112D01*
X54232Y-48101D01*
X54240Y-48075D01*
X54240Y-48113D01*
X54210Y-48107D01*
X54153Y-48119D01*
X54144Y-48144D01*
X54212Y-48212D01*
X54280Y-48144D01*
X54280Y-48255D01*
X54268Y-48267D01*
X54335Y-48335D01*
X54361Y-48327D01*
X54369Y-48281D01*
X54378Y-48327D01*
X54404Y-48335D01*
X54472Y-48267D01*
X54472Y-48378D01*
X54459Y-48390D01*
X54468Y-48416D01*
X54514Y-48424D01*
X54468Y-48434D01*
X54459Y-48459D01*
X54527Y-48527D01*
X54595Y-48459D01*
X54595Y-48570D01*
X54583Y-48582D01*
X54650Y-48650D01*
X54676Y-48642D01*
X54684Y-48596D01*
X54693Y-48642D01*
X54719Y-48650D01*
X54787Y-48582D01*
X54787Y-48693D01*
X54774Y-48705D01*
X54783Y-48731D01*
X54844Y-48742D01*
X54901Y-48731D01*
X54910Y-48705D01*
X54910Y-49508D01*
X54595Y-49508D01*
X54595Y-48705D01*
X54527Y-48638D01*
X54472Y-48693D01*
X54472Y-48582D01*
X54404Y-48515D01*
X54378Y-48523D01*
X54370Y-48569D01*
X54361Y-48523D01*
X54335Y-48515D01*
X54280Y-48570D01*
X54280Y-48459D01*
X54272Y-48434D01*
X54226Y-48425D01*
X54272Y-48416D01*
X54280Y-48390D01*
X54212Y-48323D01*
X54157Y-48378D01*
X54157Y-48267D01*
X54089Y-48200D01*
X54063Y-48208D01*
X54052Y-48269D01*
X54063Y-48327D01*
X54089Y-48335D01*
X54157Y-48267D01*
X54157Y-48378D01*
X54144Y-48390D01*
X54153Y-48416D01*
X54199Y-48424D01*
X54153Y-48434D01*
X54144Y-48459D01*
X54212Y-48527D01*
X54280Y-48459D01*
X54280Y-48570D01*
X54268Y-48582D01*
X54335Y-48650D01*
X54361Y-48642D01*
X54369Y-48596D01*
X54378Y-48642D01*
X54404Y-48650D01*
X54472Y-48582D01*
X54472Y-48693D01*
X54459Y-48705D01*
X54468Y-48731D01*
X54529Y-48742D01*
X54587Y-48731D01*
X54595Y-48705D01*
X54595Y-49508D01*
X54372Y-49508D01*
X54372Y-48935D01*
X54361Y-48877D01*
X54335Y-48869D01*
X54280Y-48924D01*
X54280Y-48813D01*
X54280Y-48705D01*
X54212Y-48638D01*
X54157Y-48693D01*
X54157Y-48582D01*
X54089Y-48515D01*
X54063Y-48523D01*
X54052Y-48584D01*
X54063Y-48642D01*
X54089Y-48650D01*
X54157Y-48582D01*
X54157Y-48693D01*
X54144Y-48705D01*
X54153Y-48731D01*
X54214Y-48742D01*
X54272Y-48731D01*
X54280Y-48705D01*
X54280Y-48813D01*
X54272Y-48788D01*
X54210Y-48776D01*
X54153Y-48788D01*
X54144Y-48813D01*
X54212Y-48881D01*
X54280Y-48813D01*
X54280Y-48924D01*
X54268Y-48937D01*
X54335Y-49004D01*
X54361Y-48996D01*
X54372Y-48935D01*
X54372Y-49508D01*
X54333Y-49508D01*
X54333Y-49289D01*
X54321Y-49231D01*
X54296Y-49223D01*
X54280Y-49239D01*
X54280Y-49060D01*
X54212Y-48992D01*
X54157Y-49048D01*
X54157Y-48937D01*
X54089Y-48869D01*
X54063Y-48877D01*
X54052Y-48938D01*
X54063Y-48996D01*
X54089Y-49004D01*
X54157Y-48937D01*
X54157Y-49048D01*
X54144Y-49060D01*
X54153Y-49085D01*
X54214Y-49097D01*
X54272Y-49085D01*
X54280Y-49060D01*
X54280Y-49239D01*
X54240Y-49279D01*
X54240Y-49168D01*
X54232Y-49142D01*
X54171Y-49131D01*
X54113Y-49142D01*
X54105Y-49168D01*
X54173Y-49235D01*
X54240Y-49168D01*
X54240Y-49279D01*
X54228Y-49291D01*
X54296Y-49358D01*
X54321Y-49350D01*
X54333Y-49289D01*
X54333Y-49508D01*
X54240Y-49508D01*
X54240Y-49414D01*
X54173Y-49346D01*
X54117Y-49402D01*
X54117Y-49291D01*
X54050Y-49223D01*
X54024Y-49231D01*
X54013Y-49293D01*
X54024Y-49350D01*
X54050Y-49358D01*
X54117Y-49291D01*
X54117Y-49402D01*
X54105Y-49414D01*
X54113Y-49439D01*
X54175Y-49451D01*
X54232Y-49439D01*
X54240Y-49414D01*
X54240Y-49508D01*
X53354Y-49508D01*
X53287Y-49440D01*
X53287Y-47156D01*
X53129Y-46999D01*
X53129Y-46384D01*
X55307Y-48444D01*
X55409Y-48444D01*
X55404Y-48459D01*
X55472Y-48527D01*
X55500Y-48499D01*
X55555Y-48554D01*
X55527Y-48582D01*
X55595Y-48650D01*
X55621Y-48642D01*
X55632Y-48580D01*
X55627Y-48556D01*
X55925Y-48827D01*
X55925Y-49495D01*
X55937Y-49508D01*
G54D10*
G36*
X51634Y-46487D02*
X50925Y-47196D01*
X50925Y-49440D01*
X50857Y-49508D01*
X47972Y-49508D01*
X47972Y-45452D01*
X51566Y-45452D01*
X51634Y-45520D01*
X51634Y-46487D01*
X51634Y-46487D01*
G37*
G54D28*
X51634Y-46487D02*
X50925Y-47196D01*
X50925Y-49440D01*
X50857Y-49508D01*
X47972Y-49508D01*
X47972Y-45452D01*
X51566Y-45452D01*
X51634Y-45520D01*
X51634Y-46487D01*
G54D10*
G36*
X59074Y-41358D02*
X56436Y-41358D01*
X56436Y-38720D01*
X59074Y-38720D01*
X59074Y-41358D01*
X59074Y-41358D01*
G37*
G54D28*
X59074Y-41358D02*
X56436Y-41358D01*
X56436Y-38720D01*
X59074Y-38720D01*
X59074Y-41358D01*
M02*
