G04 (created by PCBNEW (2013-05-31 BZR 4019)-stable) date 06/03/2014 18:54:47*
%MOIN*%
G04 Gerber Fmt 3.4, Leading zero omitted, Abs format*
%FSLAX34Y34*%
G01*
G70*
G90*
G04 APERTURE LIST*
%ADD10C,0.00590551*%
%ADD11C,0.0077*%
G04 APERTURE END LIST*
G54D10*
X4000Y-4000D02*
X112930Y-4000D01*
X112930Y-78680D01*
X4000Y-78680D01*
X4000Y-4000D01*
X4700Y-4700D02*
X112230Y-4700D01*
X112230Y-77980D01*
X4700Y-77980D01*
X4700Y-4700D01*
X25780Y-4000D02*
X25780Y-4700D01*
X15032Y-4552D02*
X14747Y-4552D01*
X14890Y-4552D02*
X14890Y-4052D01*
X14842Y-4123D01*
X14794Y-4171D01*
X14747Y-4195D01*
X25780Y-78680D02*
X25780Y-77980D01*
X15032Y-78532D02*
X14747Y-78532D01*
X14890Y-78532D02*
X14890Y-78032D01*
X14842Y-78103D01*
X14794Y-78151D01*
X14747Y-78175D01*
X47560Y-4000D02*
X47560Y-4700D01*
X36527Y-4100D02*
X36550Y-4076D01*
X36598Y-4052D01*
X36717Y-4052D01*
X36765Y-4076D01*
X36789Y-4100D01*
X36812Y-4147D01*
X36812Y-4195D01*
X36789Y-4266D01*
X36503Y-4552D01*
X36812Y-4552D01*
X47560Y-78680D02*
X47560Y-77980D01*
X36527Y-78080D02*
X36550Y-78056D01*
X36598Y-78032D01*
X36717Y-78032D01*
X36765Y-78056D01*
X36789Y-78080D01*
X36812Y-78127D01*
X36812Y-78175D01*
X36789Y-78246D01*
X36503Y-78532D01*
X36812Y-78532D01*
X69340Y-4000D02*
X69340Y-4700D01*
X58283Y-4052D02*
X58592Y-4052D01*
X58426Y-4242D01*
X58497Y-4242D01*
X58545Y-4266D01*
X58569Y-4290D01*
X58592Y-4338D01*
X58592Y-4457D01*
X58569Y-4504D01*
X58545Y-4528D01*
X58497Y-4552D01*
X58354Y-4552D01*
X58307Y-4528D01*
X58283Y-4504D01*
X69340Y-78680D02*
X69340Y-77980D01*
X58283Y-78032D02*
X58592Y-78032D01*
X58426Y-78222D01*
X58497Y-78222D01*
X58545Y-78246D01*
X58569Y-78270D01*
X58592Y-78318D01*
X58592Y-78437D01*
X58569Y-78484D01*
X58545Y-78508D01*
X58497Y-78532D01*
X58354Y-78532D01*
X58307Y-78508D01*
X58283Y-78484D01*
X91120Y-4000D02*
X91120Y-4700D01*
X80325Y-4219D02*
X80325Y-4552D01*
X80206Y-4028D02*
X80087Y-4385D01*
X80396Y-4385D01*
X91120Y-78680D02*
X91120Y-77980D01*
X80325Y-78199D02*
X80325Y-78532D01*
X80206Y-78008D02*
X80087Y-78365D01*
X80396Y-78365D01*
X102129Y-4052D02*
X101890Y-4052D01*
X101867Y-4290D01*
X101890Y-4266D01*
X101938Y-4242D01*
X102057Y-4242D01*
X102105Y-4266D01*
X102129Y-4290D01*
X102152Y-4338D01*
X102152Y-4457D01*
X102129Y-4504D01*
X102105Y-4528D01*
X102057Y-4552D01*
X101938Y-4552D01*
X101890Y-4528D01*
X101867Y-4504D01*
X102129Y-78032D02*
X101890Y-78032D01*
X101867Y-78270D01*
X101890Y-78246D01*
X101938Y-78222D01*
X102057Y-78222D01*
X102105Y-78246D01*
X102129Y-78270D01*
X102152Y-78318D01*
X102152Y-78437D01*
X102129Y-78484D01*
X102105Y-78508D01*
X102057Y-78532D01*
X101938Y-78532D01*
X101890Y-78508D01*
X101867Y-78484D01*
X4000Y-28890D02*
X4700Y-28890D01*
X4230Y-16509D02*
X4469Y-16509D01*
X4183Y-16652D02*
X4350Y-16152D01*
X4516Y-16652D01*
X112930Y-28890D02*
X112230Y-28890D01*
X112460Y-16509D02*
X112699Y-16509D01*
X112413Y-16652D02*
X112580Y-16152D01*
X112746Y-16652D01*
X4000Y-53780D02*
X4700Y-53780D01*
X4385Y-41280D02*
X4457Y-41304D01*
X4480Y-41328D01*
X4504Y-41375D01*
X4504Y-41447D01*
X4480Y-41494D01*
X4457Y-41518D01*
X4409Y-41542D01*
X4219Y-41542D01*
X4219Y-41042D01*
X4385Y-41042D01*
X4433Y-41066D01*
X4457Y-41090D01*
X4480Y-41137D01*
X4480Y-41185D01*
X4457Y-41232D01*
X4433Y-41256D01*
X4385Y-41280D01*
X4219Y-41280D01*
X112930Y-53780D02*
X112230Y-53780D01*
X112615Y-41280D02*
X112687Y-41304D01*
X112710Y-41328D01*
X112734Y-41375D01*
X112734Y-41447D01*
X112710Y-41494D01*
X112687Y-41518D01*
X112639Y-41542D01*
X112449Y-41542D01*
X112449Y-41042D01*
X112615Y-41042D01*
X112663Y-41066D01*
X112687Y-41090D01*
X112710Y-41137D01*
X112710Y-41185D01*
X112687Y-41232D01*
X112663Y-41256D01*
X112615Y-41280D01*
X112449Y-41280D01*
X4504Y-66384D02*
X4480Y-66408D01*
X4409Y-66432D01*
X4361Y-66432D01*
X4290Y-66408D01*
X4242Y-66360D01*
X4219Y-66313D01*
X4195Y-66218D01*
X4195Y-66146D01*
X4219Y-66051D01*
X4242Y-66003D01*
X4290Y-65956D01*
X4361Y-65932D01*
X4409Y-65932D01*
X4480Y-65956D01*
X4504Y-65980D01*
X112734Y-66384D02*
X112710Y-66408D01*
X112639Y-66432D01*
X112591Y-66432D01*
X112520Y-66408D01*
X112472Y-66360D01*
X112449Y-66313D01*
X112425Y-66218D01*
X112425Y-66146D01*
X112449Y-66051D01*
X112472Y-66003D01*
X112520Y-65956D01*
X112591Y-65932D01*
X112639Y-65932D01*
X112710Y-65956D01*
X112734Y-65980D01*
X79380Y-76422D02*
X79455Y-75822D01*
X79597Y-75822D01*
X79680Y-75851D01*
X79730Y-75908D01*
X79751Y-75965D01*
X79765Y-76080D01*
X79755Y-76165D01*
X79712Y-76280D01*
X79676Y-76337D01*
X79612Y-76394D01*
X79522Y-76422D01*
X79380Y-76422D01*
X80237Y-76422D02*
X80276Y-76108D01*
X80255Y-76051D01*
X80201Y-76022D01*
X80087Y-76022D01*
X80026Y-76051D01*
X80240Y-76394D02*
X80180Y-76422D01*
X80037Y-76422D01*
X79983Y-76394D01*
X79962Y-76337D01*
X79969Y-76280D01*
X80005Y-76222D01*
X80065Y-76194D01*
X80208Y-76194D01*
X80269Y-76165D01*
X80487Y-76022D02*
X80715Y-76022D01*
X80597Y-75822D02*
X80533Y-76337D01*
X80555Y-76394D01*
X80608Y-76422D01*
X80665Y-76422D01*
X81097Y-76394D02*
X81037Y-76422D01*
X80922Y-76422D01*
X80869Y-76394D01*
X80847Y-76337D01*
X80876Y-76108D01*
X80912Y-76051D01*
X80972Y-76022D01*
X81087Y-76022D01*
X81140Y-76051D01*
X81162Y-76108D01*
X81155Y-76165D01*
X80862Y-76222D01*
X81387Y-76365D02*
X81412Y-76394D01*
X81380Y-76422D01*
X81355Y-76394D01*
X81387Y-76365D01*
X81380Y-76422D01*
X81426Y-76051D02*
X81451Y-76080D01*
X81419Y-76108D01*
X81394Y-76080D01*
X81426Y-76051D01*
X81419Y-76108D01*
X82455Y-75822D02*
X82340Y-75822D01*
X82279Y-75851D01*
X82247Y-75880D01*
X82180Y-75965D01*
X82137Y-76080D01*
X82108Y-76308D01*
X82130Y-76365D01*
X82155Y-76394D01*
X82208Y-76422D01*
X82322Y-76422D01*
X82383Y-76394D01*
X82415Y-76365D01*
X82451Y-76308D01*
X82469Y-76165D01*
X82447Y-76108D01*
X82422Y-76080D01*
X82369Y-76051D01*
X82254Y-76051D01*
X82194Y-76080D01*
X82162Y-76108D01*
X82126Y-76165D01*
X83151Y-76422D02*
X83201Y-76022D01*
X83194Y-76080D02*
X83226Y-76051D01*
X83287Y-76022D01*
X83372Y-76022D01*
X83426Y-76051D01*
X83447Y-76108D01*
X83408Y-76422D01*
X83447Y-76108D02*
X83483Y-76051D01*
X83544Y-76022D01*
X83630Y-76022D01*
X83683Y-76051D01*
X83705Y-76108D01*
X83665Y-76422D01*
X84208Y-76422D02*
X84247Y-76108D01*
X84226Y-76051D01*
X84172Y-76022D01*
X84058Y-76022D01*
X83997Y-76051D01*
X84212Y-76394D02*
X84151Y-76422D01*
X84008Y-76422D01*
X83955Y-76394D01*
X83933Y-76337D01*
X83940Y-76280D01*
X83976Y-76222D01*
X84037Y-76194D01*
X84180Y-76194D01*
X84240Y-76165D01*
X84494Y-76422D02*
X84544Y-76022D01*
X84530Y-76137D02*
X84565Y-76080D01*
X84597Y-76051D01*
X84658Y-76022D01*
X84715Y-76022D01*
X85362Y-75880D02*
X85394Y-75851D01*
X85455Y-75822D01*
X85597Y-75822D01*
X85651Y-75851D01*
X85676Y-75880D01*
X85697Y-75937D01*
X85690Y-75994D01*
X85651Y-76080D01*
X85265Y-76422D01*
X85637Y-76422D01*
X86083Y-75822D02*
X86140Y-75822D01*
X86194Y-75851D01*
X86219Y-75880D01*
X86240Y-75937D01*
X86255Y-76051D01*
X86237Y-76194D01*
X86194Y-76308D01*
X86158Y-76365D01*
X86126Y-76394D01*
X86065Y-76422D01*
X86008Y-76422D01*
X85955Y-76394D01*
X85930Y-76365D01*
X85908Y-76308D01*
X85894Y-76194D01*
X85912Y-76051D01*
X85955Y-75937D01*
X85990Y-75880D01*
X86022Y-75851D01*
X86083Y-75822D01*
X86780Y-76422D02*
X86437Y-76422D01*
X86608Y-76422D02*
X86683Y-75822D01*
X86615Y-75908D01*
X86551Y-75965D01*
X86490Y-75994D01*
X87344Y-76022D02*
X87294Y-76422D01*
X87230Y-75794D02*
X87033Y-76222D01*
X87405Y-76222D01*
X70972Y-77622D02*
X70972Y-77022D01*
X71315Y-77622D02*
X71058Y-77280D01*
X71315Y-77022D02*
X70972Y-77365D01*
X71572Y-77622D02*
X71572Y-77222D01*
X71572Y-77022D02*
X71544Y-77051D01*
X71572Y-77080D01*
X71601Y-77051D01*
X71572Y-77022D01*
X71572Y-77080D01*
X72201Y-77565D02*
X72172Y-77594D01*
X72087Y-77622D01*
X72030Y-77622D01*
X71944Y-77594D01*
X71887Y-77537D01*
X71858Y-77480D01*
X71830Y-77365D01*
X71830Y-77280D01*
X71858Y-77165D01*
X71887Y-77108D01*
X71944Y-77051D01*
X72030Y-77022D01*
X72087Y-77022D01*
X72172Y-77051D01*
X72201Y-77080D01*
X72715Y-77622D02*
X72715Y-77308D01*
X72687Y-77251D01*
X72630Y-77222D01*
X72515Y-77222D01*
X72458Y-77251D01*
X72715Y-77594D02*
X72658Y-77622D01*
X72515Y-77622D01*
X72458Y-77594D01*
X72430Y-77537D01*
X72430Y-77480D01*
X72458Y-77422D01*
X72515Y-77394D01*
X72658Y-77394D01*
X72715Y-77365D01*
X73258Y-77622D02*
X73258Y-77022D01*
X73258Y-77594D02*
X73201Y-77622D01*
X73087Y-77622D01*
X73030Y-77594D01*
X73001Y-77565D01*
X72972Y-77508D01*
X72972Y-77337D01*
X73001Y-77280D01*
X73030Y-77251D01*
X73087Y-77222D01*
X73201Y-77222D01*
X73258Y-77251D01*
X74001Y-77308D02*
X74201Y-77308D01*
X74287Y-77622D02*
X74001Y-77622D01*
X74001Y-77022D01*
X74287Y-77022D01*
X74544Y-77565D02*
X74572Y-77594D01*
X74544Y-77622D01*
X74515Y-77594D01*
X74544Y-77565D01*
X74544Y-77622D01*
X74829Y-77622D02*
X74829Y-77022D01*
X74972Y-77022D01*
X75058Y-77051D01*
X75115Y-77108D01*
X75144Y-77165D01*
X75172Y-77280D01*
X75172Y-77365D01*
X75144Y-77480D01*
X75115Y-77537D01*
X75058Y-77594D01*
X74972Y-77622D01*
X74829Y-77622D01*
X75429Y-77565D02*
X75458Y-77594D01*
X75429Y-77622D01*
X75401Y-77594D01*
X75429Y-77565D01*
X75429Y-77622D01*
X75687Y-77451D02*
X75972Y-77451D01*
X75629Y-77622D02*
X75829Y-77022D01*
X76029Y-77622D01*
X76229Y-77565D02*
X76258Y-77594D01*
X76229Y-77622D01*
X76201Y-77594D01*
X76229Y-77565D01*
X76229Y-77622D01*
X104522Y-76422D02*
X104358Y-76137D01*
X104180Y-76422D02*
X104255Y-75822D01*
X104483Y-75822D01*
X104537Y-75851D01*
X104562Y-75880D01*
X104583Y-75937D01*
X104572Y-76022D01*
X104537Y-76080D01*
X104505Y-76108D01*
X104444Y-76137D01*
X104215Y-76137D01*
X105012Y-76394D02*
X104951Y-76422D01*
X104837Y-76422D01*
X104783Y-76394D01*
X104762Y-76337D01*
X104790Y-76108D01*
X104826Y-76051D01*
X104887Y-76022D01*
X105001Y-76022D01*
X105055Y-76051D01*
X105076Y-76108D01*
X105069Y-76165D01*
X104776Y-76222D01*
X105287Y-76022D02*
X105380Y-76422D01*
X105572Y-76022D01*
X105758Y-76365D02*
X105783Y-76394D01*
X105751Y-76422D01*
X105726Y-76394D01*
X105758Y-76365D01*
X105751Y-76422D01*
X105797Y-76051D02*
X105822Y-76080D01*
X105790Y-76108D01*
X105765Y-76080D01*
X105797Y-76051D01*
X105790Y-76108D01*
X106512Y-75822D02*
X106883Y-75822D01*
X106655Y-76051D01*
X106740Y-76051D01*
X106794Y-76080D01*
X106819Y-76108D01*
X106840Y-76165D01*
X106822Y-76308D01*
X106787Y-76365D01*
X106755Y-76394D01*
X106694Y-76422D01*
X106522Y-76422D01*
X106469Y-76394D01*
X106444Y-76365D01*
X70944Y-76394D02*
X71030Y-76422D01*
X71172Y-76422D01*
X71230Y-76394D01*
X71258Y-76365D01*
X71287Y-76308D01*
X71287Y-76251D01*
X71258Y-76194D01*
X71230Y-76165D01*
X71172Y-76137D01*
X71058Y-76108D01*
X71001Y-76080D01*
X70972Y-76051D01*
X70944Y-75994D01*
X70944Y-75937D01*
X70972Y-75880D01*
X71001Y-75851D01*
X71058Y-75822D01*
X71201Y-75822D01*
X71287Y-75851D01*
X71544Y-76422D02*
X71544Y-76022D01*
X71544Y-75822D02*
X71515Y-75851D01*
X71544Y-75880D01*
X71572Y-75851D01*
X71544Y-75822D01*
X71544Y-75880D01*
X71772Y-76022D02*
X72087Y-76022D01*
X71772Y-76422D01*
X72087Y-76422D01*
X72544Y-76394D02*
X72487Y-76422D01*
X72372Y-76422D01*
X72315Y-76394D01*
X72287Y-76337D01*
X72287Y-76108D01*
X72315Y-76051D01*
X72372Y-76022D01*
X72487Y-76022D01*
X72544Y-76051D01*
X72572Y-76108D01*
X72572Y-76165D01*
X72287Y-76222D01*
X72830Y-76365D02*
X72858Y-76394D01*
X72830Y-76422D01*
X72801Y-76394D01*
X72830Y-76365D01*
X72830Y-76422D01*
X72830Y-76051D02*
X72858Y-76080D01*
X72830Y-76108D01*
X72801Y-76080D01*
X72830Y-76051D01*
X72830Y-76108D01*
X73544Y-76251D02*
X73830Y-76251D01*
X73487Y-76422D02*
X73687Y-75822D01*
X73887Y-76422D01*
X74344Y-76022D02*
X74344Y-76422D01*
X74201Y-75794D02*
X74058Y-76222D01*
X74430Y-76222D01*
X104172Y-77622D02*
X104172Y-77022D01*
X104715Y-77622D02*
X104715Y-77022D01*
X104715Y-77594D02*
X104658Y-77622D01*
X104544Y-77622D01*
X104487Y-77594D01*
X104458Y-77565D01*
X104430Y-77508D01*
X104430Y-77337D01*
X104458Y-77280D01*
X104487Y-77251D01*
X104544Y-77222D01*
X104658Y-77222D01*
X104715Y-77251D01*
X105001Y-77565D02*
X105030Y-77594D01*
X105001Y-77622D01*
X104972Y-77594D01*
X105001Y-77565D01*
X105001Y-77622D01*
X105001Y-77251D02*
X105030Y-77280D01*
X105001Y-77308D01*
X104972Y-77280D01*
X105001Y-77251D01*
X105001Y-77308D01*
X106058Y-77622D02*
X105715Y-77622D01*
X105887Y-77622D02*
X105887Y-77022D01*
X105829Y-77108D01*
X105772Y-77165D01*
X105715Y-77194D01*
X106744Y-76994D02*
X106230Y-77765D01*
X107258Y-77622D02*
X106915Y-77622D01*
X107087Y-77622D02*
X107087Y-77022D01*
X107029Y-77108D01*
X106972Y-77165D01*
X106915Y-77194D01*
X70969Y-74622D02*
X71312Y-74622D01*
X71065Y-75222D02*
X71140Y-74622D01*
X71437Y-75222D02*
X71487Y-74822D01*
X71512Y-74622D02*
X71480Y-74651D01*
X71505Y-74680D01*
X71537Y-74651D01*
X71512Y-74622D01*
X71505Y-74680D01*
X71687Y-74822D02*
X71915Y-74822D01*
X71797Y-74622D02*
X71733Y-75137D01*
X71755Y-75194D01*
X71808Y-75222D01*
X71865Y-75222D01*
X72151Y-75222D02*
X72097Y-75194D01*
X72076Y-75137D01*
X72140Y-74622D01*
X72612Y-75194D02*
X72551Y-75222D01*
X72437Y-75222D01*
X72383Y-75194D01*
X72362Y-75137D01*
X72390Y-74908D01*
X72426Y-74851D01*
X72487Y-74822D01*
X72601Y-74822D01*
X72655Y-74851D01*
X72676Y-74908D01*
X72669Y-74965D01*
X72376Y-75022D01*
X72901Y-75165D02*
X72926Y-75194D01*
X72894Y-75222D01*
X72869Y-75194D01*
X72901Y-75165D01*
X72894Y-75222D01*
X72940Y-74851D02*
X72965Y-74880D01*
X72933Y-74908D01*
X72908Y-74880D01*
X72940Y-74851D01*
X72933Y-74908D01*
X73637Y-75222D02*
X73712Y-74622D01*
X73858Y-75051D01*
X74112Y-74622D01*
X74037Y-75222D01*
X74315Y-74822D02*
X74408Y-75222D01*
X74601Y-74822D02*
X74408Y-75222D01*
X74333Y-75365D01*
X74301Y-75394D01*
X74240Y-75422D01*
X74780Y-75222D02*
X74830Y-74822D01*
X74815Y-74937D02*
X74851Y-74880D01*
X74883Y-74851D01*
X74944Y-74822D01*
X75001Y-74822D01*
X75151Y-75222D02*
X75201Y-74822D01*
X75226Y-74622D02*
X75194Y-74651D01*
X75219Y-74680D01*
X75251Y-74651D01*
X75226Y-74622D01*
X75219Y-74680D01*
X75694Y-75222D02*
X75733Y-74908D01*
X75712Y-74851D01*
X75658Y-74822D01*
X75544Y-74822D01*
X75483Y-74851D01*
X75697Y-75194D02*
X75637Y-75222D01*
X75494Y-75222D01*
X75440Y-75194D01*
X75419Y-75137D01*
X75426Y-75080D01*
X75462Y-75022D01*
X75522Y-74994D01*
X75665Y-74994D01*
X75726Y-74965D01*
X76237Y-75222D02*
X76312Y-74622D01*
X76240Y-75194D02*
X76180Y-75222D01*
X76065Y-75222D01*
X76012Y-75194D01*
X75987Y-75165D01*
X75965Y-75108D01*
X75987Y-74937D01*
X76022Y-74880D01*
X76055Y-74851D01*
X76115Y-74822D01*
X76230Y-74822D01*
X76283Y-74851D01*
X77322Y-75222D02*
X77158Y-74937D01*
X76980Y-75222D02*
X77055Y-74622D01*
X77283Y-74622D01*
X77337Y-74651D01*
X77362Y-74680D01*
X77383Y-74737D01*
X77372Y-74822D01*
X77337Y-74880D01*
X77305Y-74908D01*
X77244Y-74937D01*
X77015Y-74937D01*
X77819Y-74908D02*
X77619Y-74908D01*
X77580Y-75222D02*
X77655Y-74622D01*
X77940Y-74622D01*
X78544Y-74822D02*
X78637Y-75222D01*
X78830Y-74822D01*
X79015Y-75165D02*
X79040Y-75194D01*
X79008Y-75222D01*
X78983Y-75194D01*
X79015Y-75165D01*
X79008Y-75222D01*
X79608Y-75222D02*
X79265Y-75222D01*
X79437Y-75222D02*
X79512Y-74622D01*
X79444Y-74708D01*
X79380Y-74765D01*
X79319Y-74794D01*
X71172Y-72508D02*
X70972Y-72508D01*
X70972Y-72822D02*
X70972Y-72222D01*
X71258Y-72222D01*
X71487Y-72822D02*
X71487Y-72422D01*
X71487Y-72222D02*
X71458Y-72251D01*
X71487Y-72280D01*
X71515Y-72251D01*
X71487Y-72222D01*
X71487Y-72280D01*
X71858Y-72822D02*
X71801Y-72794D01*
X71772Y-72737D01*
X71772Y-72222D01*
X72315Y-72794D02*
X72258Y-72822D01*
X72144Y-72822D01*
X72087Y-72794D01*
X72058Y-72737D01*
X72058Y-72508D01*
X72087Y-72451D01*
X72144Y-72422D01*
X72258Y-72422D01*
X72315Y-72451D01*
X72344Y-72508D01*
X72344Y-72565D01*
X72058Y-72622D01*
X72601Y-72765D02*
X72630Y-72794D01*
X72601Y-72822D01*
X72572Y-72794D01*
X72601Y-72765D01*
X72601Y-72822D01*
X72601Y-72451D02*
X72630Y-72480D01*
X72601Y-72508D01*
X72572Y-72480D01*
X72601Y-72451D01*
X72601Y-72508D01*
X73344Y-72822D02*
X73344Y-72222D01*
X73544Y-72651D01*
X73744Y-72222D01*
X73744Y-72822D01*
X74144Y-72537D02*
X74144Y-72822D01*
X73944Y-72222D02*
X74144Y-72537D01*
X74344Y-72222D01*
X74887Y-72822D02*
X74687Y-72537D01*
X74544Y-72822D02*
X74544Y-72222D01*
X74772Y-72222D01*
X74830Y-72251D01*
X74858Y-72280D01*
X74887Y-72337D01*
X74887Y-72422D01*
X74858Y-72480D01*
X74830Y-72508D01*
X74772Y-72537D01*
X74544Y-72537D01*
X75144Y-72822D02*
X75144Y-72222D01*
X75401Y-72651D02*
X75687Y-72651D01*
X75344Y-72822D02*
X75544Y-72222D01*
X75744Y-72822D01*
X75944Y-72822D02*
X75944Y-72222D01*
X76087Y-72222D01*
X76172Y-72251D01*
X76230Y-72308D01*
X76258Y-72365D01*
X76287Y-72480D01*
X76287Y-72565D01*
X76258Y-72680D01*
X76230Y-72737D01*
X76172Y-72794D01*
X76087Y-72822D01*
X75944Y-72822D01*
X76401Y-72880D02*
X76858Y-72880D01*
X77344Y-72822D02*
X77144Y-72537D01*
X77001Y-72822D02*
X77001Y-72222D01*
X77230Y-72222D01*
X77287Y-72251D01*
X77315Y-72280D01*
X77344Y-72337D01*
X77344Y-72422D01*
X77315Y-72480D01*
X77287Y-72508D01*
X77230Y-72537D01*
X77001Y-72537D01*
X77801Y-72508D02*
X77601Y-72508D01*
X77601Y-72822D02*
X77601Y-72222D01*
X77887Y-72222D01*
X78115Y-72765D02*
X78144Y-72794D01*
X78115Y-72822D01*
X78087Y-72794D01*
X78115Y-72765D01*
X78115Y-72822D01*
X78401Y-72822D02*
X78401Y-72222D01*
X78401Y-72451D02*
X78458Y-72422D01*
X78572Y-72422D01*
X78630Y-72451D01*
X78658Y-72480D01*
X78687Y-72537D01*
X78687Y-72708D01*
X78658Y-72765D01*
X78630Y-72794D01*
X78572Y-72822D01*
X78458Y-72822D01*
X78401Y-72794D01*
X78944Y-72822D02*
X78944Y-72422D01*
X78944Y-72537D02*
X78972Y-72480D01*
X79001Y-72451D01*
X79058Y-72422D01*
X79115Y-72422D01*
X79572Y-72822D02*
X79572Y-72222D01*
X79572Y-72794D02*
X79515Y-72822D01*
X79401Y-72822D01*
X79344Y-72794D01*
X79315Y-72765D01*
X79287Y-72708D01*
X79287Y-72537D01*
X79315Y-72480D01*
X79344Y-72451D01*
X79401Y-72422D01*
X79515Y-72422D01*
X79572Y-72451D01*
X70944Y-73994D02*
X71030Y-74022D01*
X71172Y-74022D01*
X71230Y-73994D01*
X71258Y-73965D01*
X71287Y-73908D01*
X71287Y-73851D01*
X71258Y-73794D01*
X71230Y-73765D01*
X71172Y-73737D01*
X71058Y-73708D01*
X71001Y-73680D01*
X70972Y-73651D01*
X70944Y-73594D01*
X70944Y-73537D01*
X70972Y-73480D01*
X71001Y-73451D01*
X71058Y-73422D01*
X71201Y-73422D01*
X71287Y-73451D01*
X71544Y-74022D02*
X71544Y-73422D01*
X71801Y-74022D02*
X71801Y-73708D01*
X71772Y-73651D01*
X71715Y-73622D01*
X71630Y-73622D01*
X71572Y-73651D01*
X71544Y-73680D01*
X72315Y-73994D02*
X72258Y-74022D01*
X72144Y-74022D01*
X72087Y-73994D01*
X72058Y-73937D01*
X72058Y-73708D01*
X72087Y-73651D01*
X72144Y-73622D01*
X72258Y-73622D01*
X72315Y-73651D01*
X72344Y-73708D01*
X72344Y-73765D01*
X72058Y-73822D01*
X72830Y-73994D02*
X72772Y-74022D01*
X72658Y-74022D01*
X72601Y-73994D01*
X72572Y-73937D01*
X72572Y-73708D01*
X72601Y-73651D01*
X72658Y-73622D01*
X72772Y-73622D01*
X72830Y-73651D01*
X72858Y-73708D01*
X72858Y-73765D01*
X72572Y-73822D01*
X73030Y-73622D02*
X73258Y-73622D01*
X73115Y-73422D02*
X73115Y-73937D01*
X73144Y-73994D01*
X73201Y-74022D01*
X73258Y-74022D01*
X73458Y-73965D02*
X73487Y-73994D01*
X73458Y-74022D01*
X73430Y-73994D01*
X73458Y-73965D01*
X73458Y-74022D01*
X73458Y-73651D02*
X73487Y-73680D01*
X73458Y-73708D01*
X73430Y-73680D01*
X73458Y-73651D01*
X73458Y-73708D01*
X70887Y-69822D02*
X71230Y-69822D01*
X71058Y-70422D02*
X71058Y-69822D01*
X71430Y-70422D02*
X71430Y-69822D01*
X71430Y-70108D02*
X71772Y-70108D01*
X71772Y-70422D02*
X71772Y-69822D01*
X72058Y-70422D02*
X72058Y-69822D01*
X72315Y-70394D02*
X72401Y-70422D01*
X72544Y-70422D01*
X72601Y-70394D01*
X72629Y-70365D01*
X72658Y-70308D01*
X72658Y-70251D01*
X72629Y-70194D01*
X72601Y-70165D01*
X72544Y-70137D01*
X72429Y-70108D01*
X72372Y-70080D01*
X72344Y-70051D01*
X72315Y-69994D01*
X72315Y-69937D01*
X72344Y-69880D01*
X72372Y-69851D01*
X72429Y-69822D01*
X72572Y-69822D01*
X72658Y-69851D01*
X73315Y-69822D02*
X73458Y-70422D01*
X73572Y-69994D01*
X73687Y-70422D01*
X73830Y-69822D01*
X74172Y-69822D02*
X74287Y-69822D01*
X74344Y-69851D01*
X74401Y-69908D01*
X74430Y-70022D01*
X74430Y-70222D01*
X74401Y-70337D01*
X74344Y-70394D01*
X74287Y-70422D01*
X74172Y-70422D01*
X74115Y-70394D01*
X74058Y-70337D01*
X74030Y-70222D01*
X74030Y-70022D01*
X74058Y-69908D01*
X74115Y-69851D01*
X74172Y-69822D01*
X75029Y-70422D02*
X74829Y-70137D01*
X74687Y-70422D02*
X74687Y-69822D01*
X74915Y-69822D01*
X74972Y-69851D01*
X75001Y-69880D01*
X75029Y-69937D01*
X75029Y-70022D01*
X75001Y-70080D01*
X74972Y-70108D01*
X74915Y-70137D01*
X74687Y-70137D01*
X75287Y-70422D02*
X75287Y-69822D01*
X75629Y-70422D02*
X75372Y-70080D01*
X75629Y-69822D02*
X75287Y-70165D01*
X76344Y-70422D02*
X76344Y-69822D01*
X76601Y-70394D02*
X76687Y-70422D01*
X76829Y-70422D01*
X76887Y-70394D01*
X76915Y-70365D01*
X76944Y-70308D01*
X76944Y-70251D01*
X76915Y-70194D01*
X76887Y-70165D01*
X76829Y-70137D01*
X76715Y-70108D01*
X76658Y-70080D01*
X76629Y-70051D01*
X76601Y-69994D01*
X76601Y-69937D01*
X76629Y-69880D01*
X76658Y-69851D01*
X76715Y-69822D01*
X76858Y-69822D01*
X76944Y-69851D01*
X78001Y-70365D02*
X77972Y-70394D01*
X77887Y-70422D01*
X77830Y-70422D01*
X77744Y-70394D01*
X77687Y-70337D01*
X77658Y-70280D01*
X77630Y-70165D01*
X77630Y-70080D01*
X77658Y-69965D01*
X77687Y-69908D01*
X77744Y-69851D01*
X77830Y-69822D01*
X77887Y-69822D01*
X77972Y-69851D01*
X78001Y-69880D01*
X78372Y-69822D02*
X78487Y-69822D01*
X78544Y-69851D01*
X78601Y-69908D01*
X78630Y-70022D01*
X78630Y-70222D01*
X78601Y-70337D01*
X78544Y-70394D01*
X78487Y-70422D01*
X78372Y-70422D01*
X78315Y-70394D01*
X78258Y-70337D01*
X78230Y-70222D01*
X78230Y-70022D01*
X78258Y-69908D01*
X78315Y-69851D01*
X78372Y-69822D01*
X78801Y-69822D02*
X79001Y-70422D01*
X79201Y-69822D01*
X79401Y-70108D02*
X79601Y-70108D01*
X79687Y-70422D02*
X79401Y-70422D01*
X79401Y-69822D01*
X79687Y-69822D01*
X80287Y-70422D02*
X80087Y-70137D01*
X79944Y-70422D02*
X79944Y-69822D01*
X80172Y-69822D01*
X80229Y-69851D01*
X80258Y-69880D01*
X80287Y-69937D01*
X80287Y-70022D01*
X80258Y-70080D01*
X80229Y-70108D01*
X80172Y-70137D01*
X79944Y-70137D01*
X80544Y-70108D02*
X80744Y-70108D01*
X80829Y-70422D02*
X80544Y-70422D01*
X80544Y-69822D01*
X80829Y-69822D01*
X81087Y-70422D02*
X81087Y-69822D01*
X81229Y-69822D01*
X81315Y-69851D01*
X81372Y-69908D01*
X81401Y-69965D01*
X81429Y-70080D01*
X81429Y-70165D01*
X81401Y-70280D01*
X81372Y-70337D01*
X81315Y-70394D01*
X81229Y-70422D01*
X81087Y-70422D01*
X82144Y-69822D02*
X82144Y-70308D01*
X82172Y-70365D01*
X82201Y-70394D01*
X82258Y-70422D01*
X82372Y-70422D01*
X82429Y-70394D01*
X82458Y-70365D01*
X82487Y-70308D01*
X82487Y-69822D01*
X82772Y-70422D02*
X82772Y-69822D01*
X83115Y-70422D01*
X83115Y-69822D01*
X83401Y-70422D02*
X83401Y-69822D01*
X83544Y-69822D01*
X83629Y-69851D01*
X83687Y-69908D01*
X83715Y-69965D01*
X83744Y-70080D01*
X83744Y-70165D01*
X83715Y-70280D01*
X83687Y-70337D01*
X83629Y-70394D01*
X83544Y-70422D01*
X83401Y-70422D01*
X84001Y-70108D02*
X84201Y-70108D01*
X84287Y-70422D02*
X84001Y-70422D01*
X84001Y-69822D01*
X84287Y-69822D01*
X84887Y-70422D02*
X84687Y-70137D01*
X84544Y-70422D02*
X84544Y-69822D01*
X84772Y-69822D01*
X84829Y-69851D01*
X84858Y-69880D01*
X84887Y-69937D01*
X84887Y-70022D01*
X84858Y-70080D01*
X84829Y-70108D01*
X84772Y-70137D01*
X84544Y-70137D01*
X85572Y-70251D02*
X85858Y-70251D01*
X85515Y-70422D02*
X85715Y-69822D01*
X85915Y-70422D01*
X86915Y-70365D02*
X86887Y-70394D01*
X86801Y-70422D01*
X86744Y-70422D01*
X86658Y-70394D01*
X86601Y-70337D01*
X86572Y-70280D01*
X86544Y-70165D01*
X86544Y-70080D01*
X86572Y-69965D01*
X86601Y-69908D01*
X86658Y-69851D01*
X86744Y-69822D01*
X86801Y-69822D01*
X86887Y-69851D01*
X86915Y-69880D01*
X87515Y-70422D02*
X87315Y-70137D01*
X87172Y-70422D02*
X87172Y-69822D01*
X87401Y-69822D01*
X87458Y-69851D01*
X87487Y-69880D01*
X87515Y-69937D01*
X87515Y-70022D01*
X87487Y-70080D01*
X87458Y-70108D01*
X87401Y-70137D01*
X87172Y-70137D01*
X87772Y-70108D02*
X87972Y-70108D01*
X88058Y-70422D02*
X87772Y-70422D01*
X87772Y-69822D01*
X88058Y-69822D01*
X88287Y-70251D02*
X88572Y-70251D01*
X88229Y-70422D02*
X88429Y-69822D01*
X88629Y-70422D01*
X88744Y-69822D02*
X89087Y-69822D01*
X88915Y-70422D02*
X88915Y-69822D01*
X89287Y-70422D02*
X89287Y-69822D01*
X89487Y-69822D02*
X89687Y-70422D01*
X89887Y-69822D01*
X90087Y-70108D02*
X90287Y-70108D01*
X90372Y-70422D02*
X90087Y-70422D01*
X90087Y-69822D01*
X90372Y-69822D01*
X91429Y-70365D02*
X91401Y-70394D01*
X91315Y-70422D01*
X91258Y-70422D01*
X91172Y-70394D01*
X91115Y-70337D01*
X91087Y-70280D01*
X91058Y-70165D01*
X91058Y-70080D01*
X91087Y-69965D01*
X91115Y-69908D01*
X91172Y-69851D01*
X91258Y-69822D01*
X91315Y-69822D01*
X91401Y-69851D01*
X91429Y-69880D01*
X91801Y-69822D02*
X91915Y-69822D01*
X91972Y-69851D01*
X92029Y-69908D01*
X92058Y-70022D01*
X92058Y-70222D01*
X92029Y-70337D01*
X91972Y-70394D01*
X91915Y-70422D01*
X91801Y-70422D01*
X91744Y-70394D01*
X91687Y-70337D01*
X91658Y-70222D01*
X91658Y-70022D01*
X91687Y-69908D01*
X91744Y-69851D01*
X91801Y-69822D01*
X92315Y-70422D02*
X92315Y-69822D01*
X92515Y-70251D01*
X92715Y-69822D01*
X92715Y-70422D01*
X93001Y-70422D02*
X93001Y-69822D01*
X93201Y-70251D01*
X93401Y-69822D01*
X93401Y-70422D01*
X93801Y-69822D02*
X93915Y-69822D01*
X93972Y-69851D01*
X94029Y-69908D01*
X94058Y-70022D01*
X94058Y-70222D01*
X94029Y-70337D01*
X93972Y-70394D01*
X93915Y-70422D01*
X93801Y-70422D01*
X93744Y-70394D01*
X93687Y-70337D01*
X93658Y-70222D01*
X93658Y-70022D01*
X93687Y-69908D01*
X93744Y-69851D01*
X93801Y-69822D01*
X94315Y-70422D02*
X94315Y-69822D01*
X94658Y-70422D01*
X94658Y-69822D01*
X94915Y-70394D02*
X95001Y-70422D01*
X95144Y-70422D01*
X95201Y-70394D01*
X95229Y-70365D01*
X95258Y-70308D01*
X95258Y-70251D01*
X95229Y-70194D01*
X95201Y-70165D01*
X95144Y-70137D01*
X95029Y-70108D01*
X94972Y-70080D01*
X94944Y-70051D01*
X94915Y-69994D01*
X94915Y-69937D01*
X94944Y-69880D01*
X94972Y-69851D01*
X95029Y-69822D01*
X95172Y-69822D01*
X95258Y-69851D01*
X96258Y-70422D02*
X95972Y-70422D01*
X95972Y-69822D01*
X96458Y-70422D02*
X96458Y-69822D01*
X97087Y-70365D02*
X97058Y-70394D01*
X96972Y-70422D01*
X96915Y-70422D01*
X96829Y-70394D01*
X96772Y-70337D01*
X96744Y-70280D01*
X96715Y-70165D01*
X96715Y-70080D01*
X96744Y-69965D01*
X96772Y-69908D01*
X96829Y-69851D01*
X96915Y-69822D01*
X96972Y-69822D01*
X97058Y-69851D01*
X97087Y-69880D01*
X97344Y-70108D02*
X97544Y-70108D01*
X97629Y-70422D02*
X97344Y-70422D01*
X97344Y-69822D01*
X97629Y-69822D01*
X97887Y-70422D02*
X97887Y-69822D01*
X98229Y-70422D01*
X98229Y-69822D01*
X98487Y-70394D02*
X98572Y-70422D01*
X98715Y-70422D01*
X98772Y-70394D01*
X98801Y-70365D01*
X98829Y-70308D01*
X98829Y-70251D01*
X98801Y-70194D01*
X98772Y-70165D01*
X98715Y-70137D01*
X98601Y-70108D01*
X98544Y-70080D01*
X98515Y-70051D01*
X98487Y-69994D01*
X98487Y-69937D01*
X98515Y-69880D01*
X98544Y-69851D01*
X98601Y-69822D01*
X98744Y-69822D01*
X98829Y-69851D01*
X99087Y-70108D02*
X99287Y-70108D01*
X99372Y-70422D02*
X99087Y-70422D01*
X99087Y-69822D01*
X99372Y-69822D01*
X100258Y-70651D02*
X100229Y-70622D01*
X100172Y-70537D01*
X100144Y-70480D01*
X100115Y-70394D01*
X100087Y-70251D01*
X100087Y-70137D01*
X100115Y-69994D01*
X100144Y-69908D01*
X100172Y-69851D01*
X100229Y-69765D01*
X100258Y-69737D01*
X100829Y-70365D02*
X100801Y-70394D01*
X100715Y-70422D01*
X100658Y-70422D01*
X100572Y-70394D01*
X100515Y-70337D01*
X100487Y-70280D01*
X100458Y-70165D01*
X100458Y-70080D01*
X100487Y-69965D01*
X100515Y-69908D01*
X100572Y-69851D01*
X100658Y-69822D01*
X100715Y-69822D01*
X100801Y-69851D01*
X100829Y-69880D01*
X101429Y-70365D02*
X101401Y-70394D01*
X101315Y-70422D01*
X101258Y-70422D01*
X101172Y-70394D01*
X101115Y-70337D01*
X101087Y-70280D01*
X101058Y-70165D01*
X101058Y-70080D01*
X101087Y-69965D01*
X101115Y-69908D01*
X101172Y-69851D01*
X101258Y-69822D01*
X101315Y-69822D01*
X101401Y-69851D01*
X101429Y-69880D01*
X102344Y-70108D02*
X102429Y-70137D01*
X102458Y-70165D01*
X102487Y-70222D01*
X102487Y-70308D01*
X102458Y-70365D01*
X102429Y-70394D01*
X102372Y-70422D01*
X102144Y-70422D01*
X102144Y-69822D01*
X102344Y-69822D01*
X102401Y-69851D01*
X102429Y-69880D01*
X102458Y-69937D01*
X102458Y-69994D01*
X102429Y-70051D01*
X102401Y-70080D01*
X102344Y-70108D01*
X102144Y-70108D01*
X102858Y-70137D02*
X102858Y-70422D01*
X102658Y-69822D02*
X102858Y-70137D01*
X103058Y-69822D01*
X103658Y-69822D02*
X104029Y-69822D01*
X103829Y-70051D01*
X103915Y-70051D01*
X103972Y-70080D01*
X104001Y-70108D01*
X104029Y-70165D01*
X104029Y-70308D01*
X104001Y-70365D01*
X103972Y-70394D01*
X103915Y-70422D01*
X103744Y-70422D01*
X103687Y-70394D01*
X103658Y-70365D01*
X104287Y-70365D02*
X104315Y-70394D01*
X104287Y-70422D01*
X104258Y-70394D01*
X104287Y-70365D01*
X104287Y-70422D01*
X104687Y-69822D02*
X104744Y-69822D01*
X104801Y-69851D01*
X104829Y-69880D01*
X104858Y-69937D01*
X104887Y-70051D01*
X104887Y-70194D01*
X104858Y-70308D01*
X104829Y-70365D01*
X104801Y-70394D01*
X104744Y-70422D01*
X104687Y-70422D01*
X104629Y-70394D01*
X104601Y-70365D01*
X104572Y-70308D01*
X104544Y-70194D01*
X104544Y-70051D01*
X104572Y-69937D01*
X104601Y-69880D01*
X104629Y-69851D01*
X104687Y-69822D01*
X105087Y-70651D02*
X105115Y-70622D01*
X105172Y-70537D01*
X105201Y-70480D01*
X105229Y-70394D01*
X105258Y-70251D01*
X105258Y-70137D01*
X105229Y-69994D01*
X105201Y-69908D01*
X105172Y-69851D01*
X105115Y-69765D01*
X105087Y-69737D01*
X71315Y-69165D02*
X71287Y-69194D01*
X71201Y-69222D01*
X71144Y-69222D01*
X71058Y-69194D01*
X71001Y-69137D01*
X70972Y-69080D01*
X70944Y-68965D01*
X70944Y-68880D01*
X70972Y-68765D01*
X71001Y-68708D01*
X71058Y-68651D01*
X71144Y-68622D01*
X71201Y-68622D01*
X71287Y-68651D01*
X71315Y-68680D01*
X71658Y-69222D02*
X71601Y-69194D01*
X71572Y-69165D01*
X71544Y-69108D01*
X71544Y-68937D01*
X71572Y-68880D01*
X71601Y-68851D01*
X71658Y-68822D01*
X71744Y-68822D01*
X71801Y-68851D01*
X71830Y-68880D01*
X71858Y-68937D01*
X71858Y-69108D01*
X71830Y-69165D01*
X71801Y-69194D01*
X71744Y-69222D01*
X71658Y-69222D01*
X72115Y-68822D02*
X72115Y-69422D01*
X72115Y-68851D02*
X72172Y-68822D01*
X72287Y-68822D01*
X72344Y-68851D01*
X72372Y-68880D01*
X72401Y-68937D01*
X72401Y-69108D01*
X72372Y-69165D01*
X72344Y-69194D01*
X72287Y-69222D01*
X72172Y-69222D01*
X72115Y-69194D01*
X72601Y-68822D02*
X72744Y-69222D01*
X72887Y-68822D02*
X72744Y-69222D01*
X72687Y-69365D01*
X72658Y-69394D01*
X72601Y-69422D01*
X73115Y-69222D02*
X73115Y-68822D01*
X73115Y-68937D02*
X73144Y-68880D01*
X73172Y-68851D01*
X73230Y-68822D01*
X73287Y-68822D01*
X73487Y-69222D02*
X73487Y-68822D01*
X73487Y-68622D02*
X73458Y-68651D01*
X73487Y-68680D01*
X73515Y-68651D01*
X73487Y-68622D01*
X73487Y-68680D01*
X74030Y-68822D02*
X74030Y-69308D01*
X74001Y-69365D01*
X73972Y-69394D01*
X73915Y-69422D01*
X73830Y-69422D01*
X73772Y-69394D01*
X74030Y-69194D02*
X73972Y-69222D01*
X73858Y-69222D01*
X73801Y-69194D01*
X73772Y-69165D01*
X73744Y-69108D01*
X73744Y-68937D01*
X73772Y-68880D01*
X73801Y-68851D01*
X73858Y-68822D01*
X73972Y-68822D01*
X74030Y-68851D01*
X74315Y-69222D02*
X74315Y-68622D01*
X74572Y-69222D02*
X74572Y-68908D01*
X74544Y-68851D01*
X74487Y-68822D01*
X74401Y-68822D01*
X74344Y-68851D01*
X74315Y-68880D01*
X74772Y-68822D02*
X75001Y-68822D01*
X74858Y-68622D02*
X74858Y-69137D01*
X74887Y-69194D01*
X74944Y-69222D01*
X75001Y-69222D01*
X75630Y-68680D02*
X75658Y-68651D01*
X75715Y-68622D01*
X75858Y-68622D01*
X75915Y-68651D01*
X75944Y-68680D01*
X75972Y-68737D01*
X75972Y-68794D01*
X75944Y-68880D01*
X75601Y-69222D01*
X75972Y-69222D01*
X76344Y-68622D02*
X76401Y-68622D01*
X76458Y-68651D01*
X76487Y-68680D01*
X76515Y-68737D01*
X76544Y-68851D01*
X76544Y-68994D01*
X76515Y-69108D01*
X76487Y-69165D01*
X76458Y-69194D01*
X76401Y-69222D01*
X76344Y-69222D01*
X76287Y-69194D01*
X76258Y-69165D01*
X76230Y-69108D01*
X76201Y-68994D01*
X76201Y-68851D01*
X76230Y-68737D01*
X76258Y-68680D01*
X76287Y-68651D01*
X76344Y-68622D01*
X77115Y-69222D02*
X76772Y-69222D01*
X76944Y-69222D02*
X76944Y-68622D01*
X76887Y-68708D01*
X76830Y-68765D01*
X76772Y-68794D01*
X77315Y-68622D02*
X77687Y-68622D01*
X77487Y-68851D01*
X77572Y-68851D01*
X77630Y-68880D01*
X77658Y-68908D01*
X77687Y-68965D01*
X77687Y-69108D01*
X77658Y-69165D01*
X77630Y-69194D01*
X77572Y-69222D01*
X77401Y-69222D01*
X77344Y-69194D01*
X77315Y-69165D01*
X78372Y-69051D02*
X78658Y-69051D01*
X78315Y-69222D02*
X78515Y-68622D01*
X78715Y-69222D01*
X78858Y-68622D02*
X79258Y-68622D01*
X78858Y-69222D01*
X79258Y-69222D01*
X79487Y-69222D02*
X79487Y-68622D01*
X79887Y-68622D02*
X80001Y-68622D01*
X80058Y-68651D01*
X80115Y-68708D01*
X80144Y-68822D01*
X80144Y-69022D01*
X80115Y-69137D01*
X80058Y-69194D01*
X80001Y-69222D01*
X79887Y-69222D01*
X79830Y-69194D01*
X79772Y-69137D01*
X79744Y-69022D01*
X79744Y-68822D01*
X79772Y-68708D01*
X79830Y-68651D01*
X79887Y-68622D01*
X80858Y-68908D02*
X81058Y-68908D01*
X81144Y-69222D02*
X80858Y-69222D01*
X80858Y-68622D01*
X81144Y-68622D01*
X81487Y-69222D02*
X81430Y-69194D01*
X81401Y-69137D01*
X81401Y-68622D01*
X81944Y-69194D02*
X81887Y-69222D01*
X81772Y-69222D01*
X81715Y-69194D01*
X81687Y-69137D01*
X81687Y-68908D01*
X81715Y-68851D01*
X81772Y-68822D01*
X81887Y-68822D01*
X81944Y-68851D01*
X81972Y-68908D01*
X81972Y-68965D01*
X81687Y-69022D01*
X82487Y-69194D02*
X82430Y-69222D01*
X82315Y-69222D01*
X82258Y-69194D01*
X82230Y-69165D01*
X82201Y-69108D01*
X82201Y-68937D01*
X82230Y-68880D01*
X82258Y-68851D01*
X82315Y-68822D01*
X82430Y-68822D01*
X82487Y-68851D01*
X82658Y-68822D02*
X82887Y-68822D01*
X82744Y-68622D02*
X82744Y-69137D01*
X82772Y-69194D01*
X82830Y-69222D01*
X82887Y-69222D01*
X83087Y-69222D02*
X83087Y-68822D01*
X83087Y-68937D02*
X83115Y-68880D01*
X83144Y-68851D01*
X83201Y-68822D01*
X83258Y-68822D01*
X83544Y-69222D02*
X83487Y-69194D01*
X83458Y-69165D01*
X83430Y-69108D01*
X83430Y-68937D01*
X83458Y-68880D01*
X83487Y-68851D01*
X83544Y-68822D01*
X83630Y-68822D01*
X83687Y-68851D01*
X83715Y-68880D01*
X83744Y-68937D01*
X83744Y-69108D01*
X83715Y-69165D01*
X83687Y-69194D01*
X83630Y-69222D01*
X83544Y-69222D01*
X84001Y-68822D02*
X84001Y-69222D01*
X84001Y-68880D02*
X84030Y-68851D01*
X84087Y-68822D01*
X84172Y-68822D01*
X84230Y-68851D01*
X84258Y-68908D01*
X84258Y-69222D01*
X84544Y-69222D02*
X84544Y-68822D01*
X84544Y-68622D02*
X84515Y-68651D01*
X84544Y-68680D01*
X84572Y-68651D01*
X84544Y-68622D01*
X84544Y-68680D01*
X85087Y-69194D02*
X85030Y-69222D01*
X84915Y-69222D01*
X84858Y-69194D01*
X84830Y-69165D01*
X84801Y-69108D01*
X84801Y-68937D01*
X84830Y-68880D01*
X84858Y-68851D01*
X84915Y-68822D01*
X85030Y-68822D01*
X85087Y-68851D01*
X85315Y-69194D02*
X85372Y-69222D01*
X85487Y-69222D01*
X85544Y-69194D01*
X85572Y-69137D01*
X85572Y-69108D01*
X85544Y-69051D01*
X85487Y-69022D01*
X85401Y-69022D01*
X85344Y-68994D01*
X85315Y-68937D01*
X85315Y-68908D01*
X85344Y-68851D01*
X85401Y-68822D01*
X85487Y-68822D01*
X85544Y-68851D01*
X86630Y-69165D02*
X86601Y-69194D01*
X86515Y-69222D01*
X86458Y-69222D01*
X86372Y-69194D01*
X86315Y-69137D01*
X86287Y-69080D01*
X86258Y-68965D01*
X86258Y-68880D01*
X86287Y-68765D01*
X86315Y-68708D01*
X86372Y-68651D01*
X86458Y-68622D01*
X86515Y-68622D01*
X86601Y-68651D01*
X86630Y-68680D01*
X86972Y-69222D02*
X86915Y-69194D01*
X86887Y-69165D01*
X86858Y-69108D01*
X86858Y-68937D01*
X86887Y-68880D01*
X86915Y-68851D01*
X86972Y-68822D01*
X87058Y-68822D01*
X87115Y-68851D01*
X87144Y-68880D01*
X87172Y-68937D01*
X87172Y-69108D01*
X87144Y-69165D01*
X87115Y-69194D01*
X87058Y-69222D01*
X86972Y-69222D01*
X87430Y-69165D02*
X87458Y-69194D01*
X87430Y-69222D01*
X87401Y-69194D01*
X87430Y-69165D01*
X87430Y-69222D01*
X87744Y-69194D02*
X87744Y-69222D01*
X87715Y-69280D01*
X87687Y-69308D01*
X88744Y-69222D02*
X88458Y-69222D01*
X88458Y-68622D01*
X88858Y-68822D02*
X89087Y-68822D01*
X88944Y-68622D02*
X88944Y-69137D01*
X88972Y-69194D01*
X89030Y-69222D01*
X89087Y-69222D01*
X89544Y-69222D02*
X89544Y-68622D01*
X89544Y-69194D02*
X89487Y-69222D01*
X89372Y-69222D01*
X89315Y-69194D01*
X89287Y-69165D01*
X89258Y-69108D01*
X89258Y-68937D01*
X89287Y-68880D01*
X89315Y-68851D01*
X89372Y-68822D01*
X89487Y-68822D01*
X89544Y-68851D01*
X89830Y-69165D02*
X89858Y-69194D01*
X89830Y-69222D01*
X89801Y-69194D01*
X89830Y-69165D01*
X89830Y-69222D01*
X70230Y-68380D02*
X70230Y-77980D01*
X70230Y-71980D02*
X112230Y-71980D01*
X70230Y-68380D02*
X112230Y-68380D01*
X70230Y-74380D02*
X112230Y-74380D01*
X103430Y-75580D02*
X103430Y-77980D01*
X70230Y-76780D02*
X112230Y-76780D01*
X70230Y-75580D02*
X112230Y-75580D01*
X76830Y-75580D02*
X76830Y-76780D01*
G54D11*
X42606Y-52483D02*
X42606Y-27680D01*
X68983Y-52483D02*
X42606Y-52483D01*
X68983Y-27680D02*
X68983Y-52483D01*
X42606Y-27680D02*
X68983Y-27680D01*
X66228Y-30437D02*
X66228Y-39492D01*
X57764Y-30437D02*
X66228Y-30437D01*
X57764Y-29650D02*
X57764Y-30437D01*
X67016Y-29650D02*
X57764Y-29650D01*
X67016Y-39492D02*
X67016Y-29650D01*
X66228Y-39492D02*
X67016Y-39492D01*
X57764Y-50515D02*
X57764Y-49728D01*
X67016Y-50515D02*
X57764Y-50515D01*
X67016Y-40948D02*
X67016Y-50515D01*
X66228Y-40948D02*
X67016Y-40948D01*
X66228Y-49728D02*
X66228Y-40948D01*
X57764Y-49728D02*
X66228Y-49728D01*
X46936Y-50515D02*
X46936Y-44413D01*
X56386Y-50515D02*
X46936Y-50515D01*
X56386Y-49728D02*
X56386Y-50515D01*
X47724Y-49728D02*
X56386Y-49728D01*
X47724Y-44413D02*
X47724Y-49728D01*
X46936Y-44413D02*
X47724Y-44413D01*
X46936Y-43390D02*
X46936Y-35555D01*
X47724Y-43390D02*
X46936Y-43390D01*
X47724Y-35555D02*
X47724Y-43390D01*
X46936Y-35555D02*
X47724Y-35555D01*
X47724Y-30437D02*
X47724Y-34570D01*
X46936Y-34570D02*
X47724Y-34570D01*
X46936Y-29648D02*
X46936Y-34570D01*
X46936Y-29648D02*
X56384Y-29648D01*
X56384Y-29648D02*
X56384Y-30437D01*
X47724Y-30437D02*
X56384Y-30437D01*
M02*
