G04 (created by PCBNEW (2013-05-31 BZR 4019)-stable) date 06/03/2014 18:54:47*
%MOIN*%
G04 Gerber Fmt 3.4, Leading zero omitted, Abs format*
%FSLAX34Y34*%
G01*
G70*
G90*
G04 APERTURE LIST*
%ADD10C,0.00590551*%
%ADD11C,0.0077*%
%ADD12C,0.0157*%
%ADD13C,0.0195*%
%ADD14C,0.0354*%
%ADD15C,0.2165*%
%ADD16C,0.051*%
%ADD17C,0.055*%
%ADD18C,0.0597*%
%ADD19R,0.0597X0.0597*%
%ADD20C,0.0432*%
%ADD21C,0.0077*%
%ADD22C,0.0117*%
%ADD23C,0.0196*%
%ADD24C,0.0118*%
%ADD25C,0.0195*%
%ADD26C,0.0039*%
%ADD27C,0.0117*%
G04 APERTURE END LIST*
G54D10*
X4000Y-4000D02*
X112930Y-4000D01*
X112930Y-78680D01*
X4000Y-78680D01*
X4000Y-4000D01*
X4700Y-4700D02*
X112230Y-4700D01*
X112230Y-77980D01*
X4700Y-77980D01*
X4700Y-4700D01*
X25780Y-4000D02*
X25780Y-4700D01*
X15032Y-4552D02*
X14747Y-4552D01*
X14890Y-4552D02*
X14890Y-4052D01*
X14842Y-4123D01*
X14794Y-4171D01*
X14747Y-4195D01*
X25780Y-78680D02*
X25780Y-77980D01*
X15032Y-78532D02*
X14747Y-78532D01*
X14890Y-78532D02*
X14890Y-78032D01*
X14842Y-78103D01*
X14794Y-78151D01*
X14747Y-78175D01*
X47560Y-4000D02*
X47560Y-4700D01*
X36527Y-4100D02*
X36550Y-4076D01*
X36598Y-4052D01*
X36717Y-4052D01*
X36765Y-4076D01*
X36789Y-4100D01*
X36812Y-4147D01*
X36812Y-4195D01*
X36789Y-4266D01*
X36503Y-4552D01*
X36812Y-4552D01*
X47560Y-78680D02*
X47560Y-77980D01*
X36527Y-78080D02*
X36550Y-78056D01*
X36598Y-78032D01*
X36717Y-78032D01*
X36765Y-78056D01*
X36789Y-78080D01*
X36812Y-78127D01*
X36812Y-78175D01*
X36789Y-78246D01*
X36503Y-78532D01*
X36812Y-78532D01*
X69340Y-4000D02*
X69340Y-4700D01*
X58283Y-4052D02*
X58592Y-4052D01*
X58426Y-4242D01*
X58497Y-4242D01*
X58545Y-4266D01*
X58569Y-4290D01*
X58592Y-4338D01*
X58592Y-4457D01*
X58569Y-4504D01*
X58545Y-4528D01*
X58497Y-4552D01*
X58354Y-4552D01*
X58307Y-4528D01*
X58283Y-4504D01*
X69340Y-78680D02*
X69340Y-77980D01*
X58283Y-78032D02*
X58592Y-78032D01*
X58426Y-78222D01*
X58497Y-78222D01*
X58545Y-78246D01*
X58569Y-78270D01*
X58592Y-78318D01*
X58592Y-78437D01*
X58569Y-78484D01*
X58545Y-78508D01*
X58497Y-78532D01*
X58354Y-78532D01*
X58307Y-78508D01*
X58283Y-78484D01*
X91120Y-4000D02*
X91120Y-4700D01*
X80325Y-4219D02*
X80325Y-4552D01*
X80206Y-4028D02*
X80087Y-4385D01*
X80396Y-4385D01*
X91120Y-78680D02*
X91120Y-77980D01*
X80325Y-78199D02*
X80325Y-78532D01*
X80206Y-78008D02*
X80087Y-78365D01*
X80396Y-78365D01*
X102129Y-4052D02*
X101890Y-4052D01*
X101867Y-4290D01*
X101890Y-4266D01*
X101938Y-4242D01*
X102057Y-4242D01*
X102105Y-4266D01*
X102129Y-4290D01*
X102152Y-4338D01*
X102152Y-4457D01*
X102129Y-4504D01*
X102105Y-4528D01*
X102057Y-4552D01*
X101938Y-4552D01*
X101890Y-4528D01*
X101867Y-4504D01*
X102129Y-78032D02*
X101890Y-78032D01*
X101867Y-78270D01*
X101890Y-78246D01*
X101938Y-78222D01*
X102057Y-78222D01*
X102105Y-78246D01*
X102129Y-78270D01*
X102152Y-78318D01*
X102152Y-78437D01*
X102129Y-78484D01*
X102105Y-78508D01*
X102057Y-78532D01*
X101938Y-78532D01*
X101890Y-78508D01*
X101867Y-78484D01*
X4000Y-28890D02*
X4700Y-28890D01*
X4230Y-16509D02*
X4469Y-16509D01*
X4183Y-16652D02*
X4350Y-16152D01*
X4516Y-16652D01*
X112930Y-28890D02*
X112230Y-28890D01*
X112460Y-16509D02*
X112699Y-16509D01*
X112413Y-16652D02*
X112580Y-16152D01*
X112746Y-16652D01*
X4000Y-53780D02*
X4700Y-53780D01*
X4385Y-41280D02*
X4457Y-41304D01*
X4480Y-41328D01*
X4504Y-41375D01*
X4504Y-41447D01*
X4480Y-41494D01*
X4457Y-41518D01*
X4409Y-41542D01*
X4219Y-41542D01*
X4219Y-41042D01*
X4385Y-41042D01*
X4433Y-41066D01*
X4457Y-41090D01*
X4480Y-41137D01*
X4480Y-41185D01*
X4457Y-41232D01*
X4433Y-41256D01*
X4385Y-41280D01*
X4219Y-41280D01*
X112930Y-53780D02*
X112230Y-53780D01*
X112615Y-41280D02*
X112687Y-41304D01*
X112710Y-41328D01*
X112734Y-41375D01*
X112734Y-41447D01*
X112710Y-41494D01*
X112687Y-41518D01*
X112639Y-41542D01*
X112449Y-41542D01*
X112449Y-41042D01*
X112615Y-41042D01*
X112663Y-41066D01*
X112687Y-41090D01*
X112710Y-41137D01*
X112710Y-41185D01*
X112687Y-41232D01*
X112663Y-41256D01*
X112615Y-41280D01*
X112449Y-41280D01*
X4504Y-66384D02*
X4480Y-66408D01*
X4409Y-66432D01*
X4361Y-66432D01*
X4290Y-66408D01*
X4242Y-66360D01*
X4219Y-66313D01*
X4195Y-66218D01*
X4195Y-66146D01*
X4219Y-66051D01*
X4242Y-66003D01*
X4290Y-65956D01*
X4361Y-65932D01*
X4409Y-65932D01*
X4480Y-65956D01*
X4504Y-65980D01*
X112734Y-66384D02*
X112710Y-66408D01*
X112639Y-66432D01*
X112591Y-66432D01*
X112520Y-66408D01*
X112472Y-66360D01*
X112449Y-66313D01*
X112425Y-66218D01*
X112425Y-66146D01*
X112449Y-66051D01*
X112472Y-66003D01*
X112520Y-65956D01*
X112591Y-65932D01*
X112639Y-65932D01*
X112710Y-65956D01*
X112734Y-65980D01*
X79380Y-76422D02*
X79455Y-75822D01*
X79597Y-75822D01*
X79680Y-75851D01*
X79730Y-75908D01*
X79751Y-75965D01*
X79765Y-76080D01*
X79755Y-76165D01*
X79712Y-76280D01*
X79676Y-76337D01*
X79612Y-76394D01*
X79522Y-76422D01*
X79380Y-76422D01*
X80237Y-76422D02*
X80276Y-76108D01*
X80255Y-76051D01*
X80201Y-76022D01*
X80087Y-76022D01*
X80026Y-76051D01*
X80240Y-76394D02*
X80180Y-76422D01*
X80037Y-76422D01*
X79983Y-76394D01*
X79962Y-76337D01*
X79969Y-76280D01*
X80005Y-76222D01*
X80065Y-76194D01*
X80208Y-76194D01*
X80269Y-76165D01*
X80487Y-76022D02*
X80715Y-76022D01*
X80597Y-75822D02*
X80533Y-76337D01*
X80555Y-76394D01*
X80608Y-76422D01*
X80665Y-76422D01*
X81097Y-76394D02*
X81037Y-76422D01*
X80922Y-76422D01*
X80869Y-76394D01*
X80847Y-76337D01*
X80876Y-76108D01*
X80912Y-76051D01*
X80972Y-76022D01*
X81087Y-76022D01*
X81140Y-76051D01*
X81162Y-76108D01*
X81155Y-76165D01*
X80862Y-76222D01*
X81387Y-76365D02*
X81412Y-76394D01*
X81380Y-76422D01*
X81355Y-76394D01*
X81387Y-76365D01*
X81380Y-76422D01*
X81426Y-76051D02*
X81451Y-76080D01*
X81419Y-76108D01*
X81394Y-76080D01*
X81426Y-76051D01*
X81419Y-76108D01*
X82455Y-75822D02*
X82340Y-75822D01*
X82279Y-75851D01*
X82247Y-75880D01*
X82180Y-75965D01*
X82137Y-76080D01*
X82108Y-76308D01*
X82130Y-76365D01*
X82155Y-76394D01*
X82208Y-76422D01*
X82322Y-76422D01*
X82383Y-76394D01*
X82415Y-76365D01*
X82451Y-76308D01*
X82469Y-76165D01*
X82447Y-76108D01*
X82422Y-76080D01*
X82369Y-76051D01*
X82254Y-76051D01*
X82194Y-76080D01*
X82162Y-76108D01*
X82126Y-76165D01*
X83151Y-76422D02*
X83201Y-76022D01*
X83194Y-76080D02*
X83226Y-76051D01*
X83287Y-76022D01*
X83372Y-76022D01*
X83426Y-76051D01*
X83447Y-76108D01*
X83408Y-76422D01*
X83447Y-76108D02*
X83483Y-76051D01*
X83544Y-76022D01*
X83630Y-76022D01*
X83683Y-76051D01*
X83705Y-76108D01*
X83665Y-76422D01*
X84208Y-76422D02*
X84247Y-76108D01*
X84226Y-76051D01*
X84172Y-76022D01*
X84058Y-76022D01*
X83997Y-76051D01*
X84212Y-76394D02*
X84151Y-76422D01*
X84008Y-76422D01*
X83955Y-76394D01*
X83933Y-76337D01*
X83940Y-76280D01*
X83976Y-76222D01*
X84037Y-76194D01*
X84180Y-76194D01*
X84240Y-76165D01*
X84494Y-76422D02*
X84544Y-76022D01*
X84530Y-76137D02*
X84565Y-76080D01*
X84597Y-76051D01*
X84658Y-76022D01*
X84715Y-76022D01*
X85362Y-75880D02*
X85394Y-75851D01*
X85455Y-75822D01*
X85597Y-75822D01*
X85651Y-75851D01*
X85676Y-75880D01*
X85697Y-75937D01*
X85690Y-75994D01*
X85651Y-76080D01*
X85265Y-76422D01*
X85637Y-76422D01*
X86083Y-75822D02*
X86140Y-75822D01*
X86194Y-75851D01*
X86219Y-75880D01*
X86240Y-75937D01*
X86255Y-76051D01*
X86237Y-76194D01*
X86194Y-76308D01*
X86158Y-76365D01*
X86126Y-76394D01*
X86065Y-76422D01*
X86008Y-76422D01*
X85955Y-76394D01*
X85930Y-76365D01*
X85908Y-76308D01*
X85894Y-76194D01*
X85912Y-76051D01*
X85955Y-75937D01*
X85990Y-75880D01*
X86022Y-75851D01*
X86083Y-75822D01*
X86780Y-76422D02*
X86437Y-76422D01*
X86608Y-76422D02*
X86683Y-75822D01*
X86615Y-75908D01*
X86551Y-75965D01*
X86490Y-75994D01*
X87344Y-76022D02*
X87294Y-76422D01*
X87230Y-75794D02*
X87033Y-76222D01*
X87405Y-76222D01*
X70972Y-77622D02*
X70972Y-77022D01*
X71315Y-77622D02*
X71058Y-77280D01*
X71315Y-77022D02*
X70972Y-77365D01*
X71572Y-77622D02*
X71572Y-77222D01*
X71572Y-77022D02*
X71544Y-77051D01*
X71572Y-77080D01*
X71601Y-77051D01*
X71572Y-77022D01*
X71572Y-77080D01*
X72201Y-77565D02*
X72172Y-77594D01*
X72087Y-77622D01*
X72030Y-77622D01*
X71944Y-77594D01*
X71887Y-77537D01*
X71858Y-77480D01*
X71830Y-77365D01*
X71830Y-77280D01*
X71858Y-77165D01*
X71887Y-77108D01*
X71944Y-77051D01*
X72030Y-77022D01*
X72087Y-77022D01*
X72172Y-77051D01*
X72201Y-77080D01*
X72715Y-77622D02*
X72715Y-77308D01*
X72687Y-77251D01*
X72630Y-77222D01*
X72515Y-77222D01*
X72458Y-77251D01*
X72715Y-77594D02*
X72658Y-77622D01*
X72515Y-77622D01*
X72458Y-77594D01*
X72430Y-77537D01*
X72430Y-77480D01*
X72458Y-77422D01*
X72515Y-77394D01*
X72658Y-77394D01*
X72715Y-77365D01*
X73258Y-77622D02*
X73258Y-77022D01*
X73258Y-77594D02*
X73201Y-77622D01*
X73087Y-77622D01*
X73030Y-77594D01*
X73001Y-77565D01*
X72972Y-77508D01*
X72972Y-77337D01*
X73001Y-77280D01*
X73030Y-77251D01*
X73087Y-77222D01*
X73201Y-77222D01*
X73258Y-77251D01*
X74001Y-77308D02*
X74201Y-77308D01*
X74287Y-77622D02*
X74001Y-77622D01*
X74001Y-77022D01*
X74287Y-77022D01*
X74544Y-77565D02*
X74572Y-77594D01*
X74544Y-77622D01*
X74515Y-77594D01*
X74544Y-77565D01*
X74544Y-77622D01*
X74829Y-77622D02*
X74829Y-77022D01*
X74972Y-77022D01*
X75058Y-77051D01*
X75115Y-77108D01*
X75144Y-77165D01*
X75172Y-77280D01*
X75172Y-77365D01*
X75144Y-77480D01*
X75115Y-77537D01*
X75058Y-77594D01*
X74972Y-77622D01*
X74829Y-77622D01*
X75429Y-77565D02*
X75458Y-77594D01*
X75429Y-77622D01*
X75401Y-77594D01*
X75429Y-77565D01*
X75429Y-77622D01*
X75687Y-77451D02*
X75972Y-77451D01*
X75629Y-77622D02*
X75829Y-77022D01*
X76029Y-77622D01*
X76229Y-77565D02*
X76258Y-77594D01*
X76229Y-77622D01*
X76201Y-77594D01*
X76229Y-77565D01*
X76229Y-77622D01*
X104522Y-76422D02*
X104358Y-76137D01*
X104180Y-76422D02*
X104255Y-75822D01*
X104483Y-75822D01*
X104537Y-75851D01*
X104562Y-75880D01*
X104583Y-75937D01*
X104572Y-76022D01*
X104537Y-76080D01*
X104505Y-76108D01*
X104444Y-76137D01*
X104215Y-76137D01*
X105012Y-76394D02*
X104951Y-76422D01*
X104837Y-76422D01*
X104783Y-76394D01*
X104762Y-76337D01*
X104790Y-76108D01*
X104826Y-76051D01*
X104887Y-76022D01*
X105001Y-76022D01*
X105055Y-76051D01*
X105076Y-76108D01*
X105069Y-76165D01*
X104776Y-76222D01*
X105287Y-76022D02*
X105380Y-76422D01*
X105572Y-76022D01*
X105758Y-76365D02*
X105783Y-76394D01*
X105751Y-76422D01*
X105726Y-76394D01*
X105758Y-76365D01*
X105751Y-76422D01*
X105797Y-76051D02*
X105822Y-76080D01*
X105790Y-76108D01*
X105765Y-76080D01*
X105797Y-76051D01*
X105790Y-76108D01*
X106512Y-75822D02*
X106883Y-75822D01*
X106655Y-76051D01*
X106740Y-76051D01*
X106794Y-76080D01*
X106819Y-76108D01*
X106840Y-76165D01*
X106822Y-76308D01*
X106787Y-76365D01*
X106755Y-76394D01*
X106694Y-76422D01*
X106522Y-76422D01*
X106469Y-76394D01*
X106444Y-76365D01*
X70944Y-76394D02*
X71030Y-76422D01*
X71172Y-76422D01*
X71230Y-76394D01*
X71258Y-76365D01*
X71287Y-76308D01*
X71287Y-76251D01*
X71258Y-76194D01*
X71230Y-76165D01*
X71172Y-76137D01*
X71058Y-76108D01*
X71001Y-76080D01*
X70972Y-76051D01*
X70944Y-75994D01*
X70944Y-75937D01*
X70972Y-75880D01*
X71001Y-75851D01*
X71058Y-75822D01*
X71201Y-75822D01*
X71287Y-75851D01*
X71544Y-76422D02*
X71544Y-76022D01*
X71544Y-75822D02*
X71515Y-75851D01*
X71544Y-75880D01*
X71572Y-75851D01*
X71544Y-75822D01*
X71544Y-75880D01*
X71772Y-76022D02*
X72087Y-76022D01*
X71772Y-76422D01*
X72087Y-76422D01*
X72544Y-76394D02*
X72487Y-76422D01*
X72372Y-76422D01*
X72315Y-76394D01*
X72287Y-76337D01*
X72287Y-76108D01*
X72315Y-76051D01*
X72372Y-76022D01*
X72487Y-76022D01*
X72544Y-76051D01*
X72572Y-76108D01*
X72572Y-76165D01*
X72287Y-76222D01*
X72830Y-76365D02*
X72858Y-76394D01*
X72830Y-76422D01*
X72801Y-76394D01*
X72830Y-76365D01*
X72830Y-76422D01*
X72830Y-76051D02*
X72858Y-76080D01*
X72830Y-76108D01*
X72801Y-76080D01*
X72830Y-76051D01*
X72830Y-76108D01*
X73544Y-76251D02*
X73830Y-76251D01*
X73487Y-76422D02*
X73687Y-75822D01*
X73887Y-76422D01*
X74344Y-76022D02*
X74344Y-76422D01*
X74201Y-75794D02*
X74058Y-76222D01*
X74430Y-76222D01*
X104172Y-77622D02*
X104172Y-77022D01*
X104715Y-77622D02*
X104715Y-77022D01*
X104715Y-77594D02*
X104658Y-77622D01*
X104544Y-77622D01*
X104487Y-77594D01*
X104458Y-77565D01*
X104430Y-77508D01*
X104430Y-77337D01*
X104458Y-77280D01*
X104487Y-77251D01*
X104544Y-77222D01*
X104658Y-77222D01*
X104715Y-77251D01*
X105001Y-77565D02*
X105030Y-77594D01*
X105001Y-77622D01*
X104972Y-77594D01*
X105001Y-77565D01*
X105001Y-77622D01*
X105001Y-77251D02*
X105030Y-77280D01*
X105001Y-77308D01*
X104972Y-77280D01*
X105001Y-77251D01*
X105001Y-77308D01*
X106058Y-77622D02*
X105715Y-77622D01*
X105887Y-77622D02*
X105887Y-77022D01*
X105829Y-77108D01*
X105772Y-77165D01*
X105715Y-77194D01*
X106744Y-76994D02*
X106230Y-77765D01*
X107258Y-77622D02*
X106915Y-77622D01*
X107087Y-77622D02*
X107087Y-77022D01*
X107029Y-77108D01*
X106972Y-77165D01*
X106915Y-77194D01*
X70969Y-74622D02*
X71312Y-74622D01*
X71065Y-75222D02*
X71140Y-74622D01*
X71437Y-75222D02*
X71487Y-74822D01*
X71512Y-74622D02*
X71480Y-74651D01*
X71505Y-74680D01*
X71537Y-74651D01*
X71512Y-74622D01*
X71505Y-74680D01*
X71687Y-74822D02*
X71915Y-74822D01*
X71797Y-74622D02*
X71733Y-75137D01*
X71755Y-75194D01*
X71808Y-75222D01*
X71865Y-75222D01*
X72151Y-75222D02*
X72097Y-75194D01*
X72076Y-75137D01*
X72140Y-74622D01*
X72612Y-75194D02*
X72551Y-75222D01*
X72437Y-75222D01*
X72383Y-75194D01*
X72362Y-75137D01*
X72390Y-74908D01*
X72426Y-74851D01*
X72487Y-74822D01*
X72601Y-74822D01*
X72655Y-74851D01*
X72676Y-74908D01*
X72669Y-74965D01*
X72376Y-75022D01*
X72901Y-75165D02*
X72926Y-75194D01*
X72894Y-75222D01*
X72869Y-75194D01*
X72901Y-75165D01*
X72894Y-75222D01*
X72940Y-74851D02*
X72965Y-74880D01*
X72933Y-74908D01*
X72908Y-74880D01*
X72940Y-74851D01*
X72933Y-74908D01*
X73637Y-75222D02*
X73712Y-74622D01*
X73858Y-75051D01*
X74112Y-74622D01*
X74037Y-75222D01*
X74315Y-74822D02*
X74408Y-75222D01*
X74601Y-74822D02*
X74408Y-75222D01*
X74333Y-75365D01*
X74301Y-75394D01*
X74240Y-75422D01*
X74780Y-75222D02*
X74830Y-74822D01*
X74815Y-74937D02*
X74851Y-74880D01*
X74883Y-74851D01*
X74944Y-74822D01*
X75001Y-74822D01*
X75151Y-75222D02*
X75201Y-74822D01*
X75226Y-74622D02*
X75194Y-74651D01*
X75219Y-74680D01*
X75251Y-74651D01*
X75226Y-74622D01*
X75219Y-74680D01*
X75694Y-75222D02*
X75733Y-74908D01*
X75712Y-74851D01*
X75658Y-74822D01*
X75544Y-74822D01*
X75483Y-74851D01*
X75697Y-75194D02*
X75637Y-75222D01*
X75494Y-75222D01*
X75440Y-75194D01*
X75419Y-75137D01*
X75426Y-75080D01*
X75462Y-75022D01*
X75522Y-74994D01*
X75665Y-74994D01*
X75726Y-74965D01*
X76237Y-75222D02*
X76312Y-74622D01*
X76240Y-75194D02*
X76180Y-75222D01*
X76065Y-75222D01*
X76012Y-75194D01*
X75987Y-75165D01*
X75965Y-75108D01*
X75987Y-74937D01*
X76022Y-74880D01*
X76055Y-74851D01*
X76115Y-74822D01*
X76230Y-74822D01*
X76283Y-74851D01*
X77322Y-75222D02*
X77158Y-74937D01*
X76980Y-75222D02*
X77055Y-74622D01*
X77283Y-74622D01*
X77337Y-74651D01*
X77362Y-74680D01*
X77383Y-74737D01*
X77372Y-74822D01*
X77337Y-74880D01*
X77305Y-74908D01*
X77244Y-74937D01*
X77015Y-74937D01*
X77819Y-74908D02*
X77619Y-74908D01*
X77580Y-75222D02*
X77655Y-74622D01*
X77940Y-74622D01*
X78544Y-74822D02*
X78637Y-75222D01*
X78830Y-74822D01*
X79015Y-75165D02*
X79040Y-75194D01*
X79008Y-75222D01*
X78983Y-75194D01*
X79015Y-75165D01*
X79008Y-75222D01*
X79608Y-75222D02*
X79265Y-75222D01*
X79437Y-75222D02*
X79512Y-74622D01*
X79444Y-74708D01*
X79380Y-74765D01*
X79319Y-74794D01*
X71172Y-72508D02*
X70972Y-72508D01*
X70972Y-72822D02*
X70972Y-72222D01*
X71258Y-72222D01*
X71487Y-72822D02*
X71487Y-72422D01*
X71487Y-72222D02*
X71458Y-72251D01*
X71487Y-72280D01*
X71515Y-72251D01*
X71487Y-72222D01*
X71487Y-72280D01*
X71858Y-72822D02*
X71801Y-72794D01*
X71772Y-72737D01*
X71772Y-72222D01*
X72315Y-72794D02*
X72258Y-72822D01*
X72144Y-72822D01*
X72087Y-72794D01*
X72058Y-72737D01*
X72058Y-72508D01*
X72087Y-72451D01*
X72144Y-72422D01*
X72258Y-72422D01*
X72315Y-72451D01*
X72344Y-72508D01*
X72344Y-72565D01*
X72058Y-72622D01*
X72601Y-72765D02*
X72630Y-72794D01*
X72601Y-72822D01*
X72572Y-72794D01*
X72601Y-72765D01*
X72601Y-72822D01*
X72601Y-72451D02*
X72630Y-72480D01*
X72601Y-72508D01*
X72572Y-72480D01*
X72601Y-72451D01*
X72601Y-72508D01*
X73344Y-72822D02*
X73344Y-72222D01*
X73544Y-72651D01*
X73744Y-72222D01*
X73744Y-72822D01*
X74144Y-72537D02*
X74144Y-72822D01*
X73944Y-72222D02*
X74144Y-72537D01*
X74344Y-72222D01*
X74887Y-72822D02*
X74687Y-72537D01*
X74544Y-72822D02*
X74544Y-72222D01*
X74772Y-72222D01*
X74830Y-72251D01*
X74858Y-72280D01*
X74887Y-72337D01*
X74887Y-72422D01*
X74858Y-72480D01*
X74830Y-72508D01*
X74772Y-72537D01*
X74544Y-72537D01*
X75144Y-72822D02*
X75144Y-72222D01*
X75401Y-72651D02*
X75687Y-72651D01*
X75344Y-72822D02*
X75544Y-72222D01*
X75744Y-72822D01*
X75944Y-72822D02*
X75944Y-72222D01*
X76087Y-72222D01*
X76172Y-72251D01*
X76230Y-72308D01*
X76258Y-72365D01*
X76287Y-72480D01*
X76287Y-72565D01*
X76258Y-72680D01*
X76230Y-72737D01*
X76172Y-72794D01*
X76087Y-72822D01*
X75944Y-72822D01*
X76401Y-72880D02*
X76858Y-72880D01*
X77344Y-72822D02*
X77144Y-72537D01*
X77001Y-72822D02*
X77001Y-72222D01*
X77230Y-72222D01*
X77287Y-72251D01*
X77315Y-72280D01*
X77344Y-72337D01*
X77344Y-72422D01*
X77315Y-72480D01*
X77287Y-72508D01*
X77230Y-72537D01*
X77001Y-72537D01*
X77801Y-72508D02*
X77601Y-72508D01*
X77601Y-72822D02*
X77601Y-72222D01*
X77887Y-72222D01*
X78115Y-72765D02*
X78144Y-72794D01*
X78115Y-72822D01*
X78087Y-72794D01*
X78115Y-72765D01*
X78115Y-72822D01*
X78401Y-72822D02*
X78401Y-72222D01*
X78401Y-72451D02*
X78458Y-72422D01*
X78572Y-72422D01*
X78630Y-72451D01*
X78658Y-72480D01*
X78687Y-72537D01*
X78687Y-72708D01*
X78658Y-72765D01*
X78630Y-72794D01*
X78572Y-72822D01*
X78458Y-72822D01*
X78401Y-72794D01*
X78944Y-72822D02*
X78944Y-72422D01*
X78944Y-72537D02*
X78972Y-72480D01*
X79001Y-72451D01*
X79058Y-72422D01*
X79115Y-72422D01*
X79572Y-72822D02*
X79572Y-72222D01*
X79572Y-72794D02*
X79515Y-72822D01*
X79401Y-72822D01*
X79344Y-72794D01*
X79315Y-72765D01*
X79287Y-72708D01*
X79287Y-72537D01*
X79315Y-72480D01*
X79344Y-72451D01*
X79401Y-72422D01*
X79515Y-72422D01*
X79572Y-72451D01*
X70944Y-73994D02*
X71030Y-74022D01*
X71172Y-74022D01*
X71230Y-73994D01*
X71258Y-73965D01*
X71287Y-73908D01*
X71287Y-73851D01*
X71258Y-73794D01*
X71230Y-73765D01*
X71172Y-73737D01*
X71058Y-73708D01*
X71001Y-73680D01*
X70972Y-73651D01*
X70944Y-73594D01*
X70944Y-73537D01*
X70972Y-73480D01*
X71001Y-73451D01*
X71058Y-73422D01*
X71201Y-73422D01*
X71287Y-73451D01*
X71544Y-74022D02*
X71544Y-73422D01*
X71801Y-74022D02*
X71801Y-73708D01*
X71772Y-73651D01*
X71715Y-73622D01*
X71630Y-73622D01*
X71572Y-73651D01*
X71544Y-73680D01*
X72315Y-73994D02*
X72258Y-74022D01*
X72144Y-74022D01*
X72087Y-73994D01*
X72058Y-73937D01*
X72058Y-73708D01*
X72087Y-73651D01*
X72144Y-73622D01*
X72258Y-73622D01*
X72315Y-73651D01*
X72344Y-73708D01*
X72344Y-73765D01*
X72058Y-73822D01*
X72830Y-73994D02*
X72772Y-74022D01*
X72658Y-74022D01*
X72601Y-73994D01*
X72572Y-73937D01*
X72572Y-73708D01*
X72601Y-73651D01*
X72658Y-73622D01*
X72772Y-73622D01*
X72830Y-73651D01*
X72858Y-73708D01*
X72858Y-73765D01*
X72572Y-73822D01*
X73030Y-73622D02*
X73258Y-73622D01*
X73115Y-73422D02*
X73115Y-73937D01*
X73144Y-73994D01*
X73201Y-74022D01*
X73258Y-74022D01*
X73458Y-73965D02*
X73487Y-73994D01*
X73458Y-74022D01*
X73430Y-73994D01*
X73458Y-73965D01*
X73458Y-74022D01*
X73458Y-73651D02*
X73487Y-73680D01*
X73458Y-73708D01*
X73430Y-73680D01*
X73458Y-73651D01*
X73458Y-73708D01*
X70887Y-69822D02*
X71230Y-69822D01*
X71058Y-70422D02*
X71058Y-69822D01*
X71430Y-70422D02*
X71430Y-69822D01*
X71430Y-70108D02*
X71772Y-70108D01*
X71772Y-70422D02*
X71772Y-69822D01*
X72058Y-70422D02*
X72058Y-69822D01*
X72315Y-70394D02*
X72401Y-70422D01*
X72544Y-70422D01*
X72601Y-70394D01*
X72629Y-70365D01*
X72658Y-70308D01*
X72658Y-70251D01*
X72629Y-70194D01*
X72601Y-70165D01*
X72544Y-70137D01*
X72429Y-70108D01*
X72372Y-70080D01*
X72344Y-70051D01*
X72315Y-69994D01*
X72315Y-69937D01*
X72344Y-69880D01*
X72372Y-69851D01*
X72429Y-69822D01*
X72572Y-69822D01*
X72658Y-69851D01*
X73315Y-69822D02*
X73458Y-70422D01*
X73572Y-69994D01*
X73687Y-70422D01*
X73830Y-69822D01*
X74172Y-69822D02*
X74287Y-69822D01*
X74344Y-69851D01*
X74401Y-69908D01*
X74430Y-70022D01*
X74430Y-70222D01*
X74401Y-70337D01*
X74344Y-70394D01*
X74287Y-70422D01*
X74172Y-70422D01*
X74115Y-70394D01*
X74058Y-70337D01*
X74030Y-70222D01*
X74030Y-70022D01*
X74058Y-69908D01*
X74115Y-69851D01*
X74172Y-69822D01*
X75029Y-70422D02*
X74829Y-70137D01*
X74687Y-70422D02*
X74687Y-69822D01*
X74915Y-69822D01*
X74972Y-69851D01*
X75001Y-69880D01*
X75029Y-69937D01*
X75029Y-70022D01*
X75001Y-70080D01*
X74972Y-70108D01*
X74915Y-70137D01*
X74687Y-70137D01*
X75287Y-70422D02*
X75287Y-69822D01*
X75629Y-70422D02*
X75372Y-70080D01*
X75629Y-69822D02*
X75287Y-70165D01*
X76344Y-70422D02*
X76344Y-69822D01*
X76601Y-70394D02*
X76687Y-70422D01*
X76829Y-70422D01*
X76887Y-70394D01*
X76915Y-70365D01*
X76944Y-70308D01*
X76944Y-70251D01*
X76915Y-70194D01*
X76887Y-70165D01*
X76829Y-70137D01*
X76715Y-70108D01*
X76658Y-70080D01*
X76629Y-70051D01*
X76601Y-69994D01*
X76601Y-69937D01*
X76629Y-69880D01*
X76658Y-69851D01*
X76715Y-69822D01*
X76858Y-69822D01*
X76944Y-69851D01*
X78001Y-70365D02*
X77972Y-70394D01*
X77887Y-70422D01*
X77830Y-70422D01*
X77744Y-70394D01*
X77687Y-70337D01*
X77658Y-70280D01*
X77630Y-70165D01*
X77630Y-70080D01*
X77658Y-69965D01*
X77687Y-69908D01*
X77744Y-69851D01*
X77830Y-69822D01*
X77887Y-69822D01*
X77972Y-69851D01*
X78001Y-69880D01*
X78372Y-69822D02*
X78487Y-69822D01*
X78544Y-69851D01*
X78601Y-69908D01*
X78630Y-70022D01*
X78630Y-70222D01*
X78601Y-70337D01*
X78544Y-70394D01*
X78487Y-70422D01*
X78372Y-70422D01*
X78315Y-70394D01*
X78258Y-70337D01*
X78230Y-70222D01*
X78230Y-70022D01*
X78258Y-69908D01*
X78315Y-69851D01*
X78372Y-69822D01*
X78801Y-69822D02*
X79001Y-70422D01*
X79201Y-69822D01*
X79401Y-70108D02*
X79601Y-70108D01*
X79687Y-70422D02*
X79401Y-70422D01*
X79401Y-69822D01*
X79687Y-69822D01*
X80287Y-70422D02*
X80087Y-70137D01*
X79944Y-70422D02*
X79944Y-69822D01*
X80172Y-69822D01*
X80229Y-69851D01*
X80258Y-69880D01*
X80287Y-69937D01*
X80287Y-70022D01*
X80258Y-70080D01*
X80229Y-70108D01*
X80172Y-70137D01*
X79944Y-70137D01*
X80544Y-70108D02*
X80744Y-70108D01*
X80829Y-70422D02*
X80544Y-70422D01*
X80544Y-69822D01*
X80829Y-69822D01*
X81087Y-70422D02*
X81087Y-69822D01*
X81229Y-69822D01*
X81315Y-69851D01*
X81372Y-69908D01*
X81401Y-69965D01*
X81429Y-70080D01*
X81429Y-70165D01*
X81401Y-70280D01*
X81372Y-70337D01*
X81315Y-70394D01*
X81229Y-70422D01*
X81087Y-70422D01*
X82144Y-69822D02*
X82144Y-70308D01*
X82172Y-70365D01*
X82201Y-70394D01*
X82258Y-70422D01*
X82372Y-70422D01*
X82429Y-70394D01*
X82458Y-70365D01*
X82487Y-70308D01*
X82487Y-69822D01*
X82772Y-70422D02*
X82772Y-69822D01*
X83115Y-70422D01*
X83115Y-69822D01*
X83401Y-70422D02*
X83401Y-69822D01*
X83544Y-69822D01*
X83629Y-69851D01*
X83687Y-69908D01*
X83715Y-69965D01*
X83744Y-70080D01*
X83744Y-70165D01*
X83715Y-70280D01*
X83687Y-70337D01*
X83629Y-70394D01*
X83544Y-70422D01*
X83401Y-70422D01*
X84001Y-70108D02*
X84201Y-70108D01*
X84287Y-70422D02*
X84001Y-70422D01*
X84001Y-69822D01*
X84287Y-69822D01*
X84887Y-70422D02*
X84687Y-70137D01*
X84544Y-70422D02*
X84544Y-69822D01*
X84772Y-69822D01*
X84829Y-69851D01*
X84858Y-69880D01*
X84887Y-69937D01*
X84887Y-70022D01*
X84858Y-70080D01*
X84829Y-70108D01*
X84772Y-70137D01*
X84544Y-70137D01*
X85572Y-70251D02*
X85858Y-70251D01*
X85515Y-70422D02*
X85715Y-69822D01*
X85915Y-70422D01*
X86915Y-70365D02*
X86887Y-70394D01*
X86801Y-70422D01*
X86744Y-70422D01*
X86658Y-70394D01*
X86601Y-70337D01*
X86572Y-70280D01*
X86544Y-70165D01*
X86544Y-70080D01*
X86572Y-69965D01*
X86601Y-69908D01*
X86658Y-69851D01*
X86744Y-69822D01*
X86801Y-69822D01*
X86887Y-69851D01*
X86915Y-69880D01*
X87515Y-70422D02*
X87315Y-70137D01*
X87172Y-70422D02*
X87172Y-69822D01*
X87401Y-69822D01*
X87458Y-69851D01*
X87487Y-69880D01*
X87515Y-69937D01*
X87515Y-70022D01*
X87487Y-70080D01*
X87458Y-70108D01*
X87401Y-70137D01*
X87172Y-70137D01*
X87772Y-70108D02*
X87972Y-70108D01*
X88058Y-70422D02*
X87772Y-70422D01*
X87772Y-69822D01*
X88058Y-69822D01*
X88287Y-70251D02*
X88572Y-70251D01*
X88229Y-70422D02*
X88429Y-69822D01*
X88629Y-70422D01*
X88744Y-69822D02*
X89087Y-69822D01*
X88915Y-70422D02*
X88915Y-69822D01*
X89287Y-70422D02*
X89287Y-69822D01*
X89487Y-69822D02*
X89687Y-70422D01*
X89887Y-69822D01*
X90087Y-70108D02*
X90287Y-70108D01*
X90372Y-70422D02*
X90087Y-70422D01*
X90087Y-69822D01*
X90372Y-69822D01*
X91429Y-70365D02*
X91401Y-70394D01*
X91315Y-70422D01*
X91258Y-70422D01*
X91172Y-70394D01*
X91115Y-70337D01*
X91087Y-70280D01*
X91058Y-70165D01*
X91058Y-70080D01*
X91087Y-69965D01*
X91115Y-69908D01*
X91172Y-69851D01*
X91258Y-69822D01*
X91315Y-69822D01*
X91401Y-69851D01*
X91429Y-69880D01*
X91801Y-69822D02*
X91915Y-69822D01*
X91972Y-69851D01*
X92029Y-69908D01*
X92058Y-70022D01*
X92058Y-70222D01*
X92029Y-70337D01*
X91972Y-70394D01*
X91915Y-70422D01*
X91801Y-70422D01*
X91744Y-70394D01*
X91687Y-70337D01*
X91658Y-70222D01*
X91658Y-70022D01*
X91687Y-69908D01*
X91744Y-69851D01*
X91801Y-69822D01*
X92315Y-70422D02*
X92315Y-69822D01*
X92515Y-70251D01*
X92715Y-69822D01*
X92715Y-70422D01*
X93001Y-70422D02*
X93001Y-69822D01*
X93201Y-70251D01*
X93401Y-69822D01*
X93401Y-70422D01*
X93801Y-69822D02*
X93915Y-69822D01*
X93972Y-69851D01*
X94029Y-69908D01*
X94058Y-70022D01*
X94058Y-70222D01*
X94029Y-70337D01*
X93972Y-70394D01*
X93915Y-70422D01*
X93801Y-70422D01*
X93744Y-70394D01*
X93687Y-70337D01*
X93658Y-70222D01*
X93658Y-70022D01*
X93687Y-69908D01*
X93744Y-69851D01*
X93801Y-69822D01*
X94315Y-70422D02*
X94315Y-69822D01*
X94658Y-70422D01*
X94658Y-69822D01*
X94915Y-70394D02*
X95001Y-70422D01*
X95144Y-70422D01*
X95201Y-70394D01*
X95229Y-70365D01*
X95258Y-70308D01*
X95258Y-70251D01*
X95229Y-70194D01*
X95201Y-70165D01*
X95144Y-70137D01*
X95029Y-70108D01*
X94972Y-70080D01*
X94944Y-70051D01*
X94915Y-69994D01*
X94915Y-69937D01*
X94944Y-69880D01*
X94972Y-69851D01*
X95029Y-69822D01*
X95172Y-69822D01*
X95258Y-69851D01*
X96258Y-70422D02*
X95972Y-70422D01*
X95972Y-69822D01*
X96458Y-70422D02*
X96458Y-69822D01*
X97087Y-70365D02*
X97058Y-70394D01*
X96972Y-70422D01*
X96915Y-70422D01*
X96829Y-70394D01*
X96772Y-70337D01*
X96744Y-70280D01*
X96715Y-70165D01*
X96715Y-70080D01*
X96744Y-69965D01*
X96772Y-69908D01*
X96829Y-69851D01*
X96915Y-69822D01*
X96972Y-69822D01*
X97058Y-69851D01*
X97087Y-69880D01*
X97344Y-70108D02*
X97544Y-70108D01*
X97629Y-70422D02*
X97344Y-70422D01*
X97344Y-69822D01*
X97629Y-69822D01*
X97887Y-70422D02*
X97887Y-69822D01*
X98229Y-70422D01*
X98229Y-69822D01*
X98487Y-70394D02*
X98572Y-70422D01*
X98715Y-70422D01*
X98772Y-70394D01*
X98801Y-70365D01*
X98829Y-70308D01*
X98829Y-70251D01*
X98801Y-70194D01*
X98772Y-70165D01*
X98715Y-70137D01*
X98601Y-70108D01*
X98544Y-70080D01*
X98515Y-70051D01*
X98487Y-69994D01*
X98487Y-69937D01*
X98515Y-69880D01*
X98544Y-69851D01*
X98601Y-69822D01*
X98744Y-69822D01*
X98829Y-69851D01*
X99087Y-70108D02*
X99287Y-70108D01*
X99372Y-70422D02*
X99087Y-70422D01*
X99087Y-69822D01*
X99372Y-69822D01*
X100258Y-70651D02*
X100229Y-70622D01*
X100172Y-70537D01*
X100144Y-70480D01*
X100115Y-70394D01*
X100087Y-70251D01*
X100087Y-70137D01*
X100115Y-69994D01*
X100144Y-69908D01*
X100172Y-69851D01*
X100229Y-69765D01*
X100258Y-69737D01*
X100829Y-70365D02*
X100801Y-70394D01*
X100715Y-70422D01*
X100658Y-70422D01*
X100572Y-70394D01*
X100515Y-70337D01*
X100487Y-70280D01*
X100458Y-70165D01*
X100458Y-70080D01*
X100487Y-69965D01*
X100515Y-69908D01*
X100572Y-69851D01*
X100658Y-69822D01*
X100715Y-69822D01*
X100801Y-69851D01*
X100829Y-69880D01*
X101429Y-70365D02*
X101401Y-70394D01*
X101315Y-70422D01*
X101258Y-70422D01*
X101172Y-70394D01*
X101115Y-70337D01*
X101087Y-70280D01*
X101058Y-70165D01*
X101058Y-70080D01*
X101087Y-69965D01*
X101115Y-69908D01*
X101172Y-69851D01*
X101258Y-69822D01*
X101315Y-69822D01*
X101401Y-69851D01*
X101429Y-69880D01*
X102344Y-70108D02*
X102429Y-70137D01*
X102458Y-70165D01*
X102487Y-70222D01*
X102487Y-70308D01*
X102458Y-70365D01*
X102429Y-70394D01*
X102372Y-70422D01*
X102144Y-70422D01*
X102144Y-69822D01*
X102344Y-69822D01*
X102401Y-69851D01*
X102429Y-69880D01*
X102458Y-69937D01*
X102458Y-69994D01*
X102429Y-70051D01*
X102401Y-70080D01*
X102344Y-70108D01*
X102144Y-70108D01*
X102858Y-70137D02*
X102858Y-70422D01*
X102658Y-69822D02*
X102858Y-70137D01*
X103058Y-69822D01*
X103658Y-69822D02*
X104029Y-69822D01*
X103829Y-70051D01*
X103915Y-70051D01*
X103972Y-70080D01*
X104001Y-70108D01*
X104029Y-70165D01*
X104029Y-70308D01*
X104001Y-70365D01*
X103972Y-70394D01*
X103915Y-70422D01*
X103744Y-70422D01*
X103687Y-70394D01*
X103658Y-70365D01*
X104287Y-70365D02*
X104315Y-70394D01*
X104287Y-70422D01*
X104258Y-70394D01*
X104287Y-70365D01*
X104287Y-70422D01*
X104687Y-69822D02*
X104744Y-69822D01*
X104801Y-69851D01*
X104829Y-69880D01*
X104858Y-69937D01*
X104887Y-70051D01*
X104887Y-70194D01*
X104858Y-70308D01*
X104829Y-70365D01*
X104801Y-70394D01*
X104744Y-70422D01*
X104687Y-70422D01*
X104629Y-70394D01*
X104601Y-70365D01*
X104572Y-70308D01*
X104544Y-70194D01*
X104544Y-70051D01*
X104572Y-69937D01*
X104601Y-69880D01*
X104629Y-69851D01*
X104687Y-69822D01*
X105087Y-70651D02*
X105115Y-70622D01*
X105172Y-70537D01*
X105201Y-70480D01*
X105229Y-70394D01*
X105258Y-70251D01*
X105258Y-70137D01*
X105229Y-69994D01*
X105201Y-69908D01*
X105172Y-69851D01*
X105115Y-69765D01*
X105087Y-69737D01*
X71315Y-69165D02*
X71287Y-69194D01*
X71201Y-69222D01*
X71144Y-69222D01*
X71058Y-69194D01*
X71001Y-69137D01*
X70972Y-69080D01*
X70944Y-68965D01*
X70944Y-68880D01*
X70972Y-68765D01*
X71001Y-68708D01*
X71058Y-68651D01*
X71144Y-68622D01*
X71201Y-68622D01*
X71287Y-68651D01*
X71315Y-68680D01*
X71658Y-69222D02*
X71601Y-69194D01*
X71572Y-69165D01*
X71544Y-69108D01*
X71544Y-68937D01*
X71572Y-68880D01*
X71601Y-68851D01*
X71658Y-68822D01*
X71744Y-68822D01*
X71801Y-68851D01*
X71830Y-68880D01*
X71858Y-68937D01*
X71858Y-69108D01*
X71830Y-69165D01*
X71801Y-69194D01*
X71744Y-69222D01*
X71658Y-69222D01*
X72115Y-68822D02*
X72115Y-69422D01*
X72115Y-68851D02*
X72172Y-68822D01*
X72287Y-68822D01*
X72344Y-68851D01*
X72372Y-68880D01*
X72401Y-68937D01*
X72401Y-69108D01*
X72372Y-69165D01*
X72344Y-69194D01*
X72287Y-69222D01*
X72172Y-69222D01*
X72115Y-69194D01*
X72601Y-68822D02*
X72744Y-69222D01*
X72887Y-68822D02*
X72744Y-69222D01*
X72687Y-69365D01*
X72658Y-69394D01*
X72601Y-69422D01*
X73115Y-69222D02*
X73115Y-68822D01*
X73115Y-68937D02*
X73144Y-68880D01*
X73172Y-68851D01*
X73230Y-68822D01*
X73287Y-68822D01*
X73487Y-69222D02*
X73487Y-68822D01*
X73487Y-68622D02*
X73458Y-68651D01*
X73487Y-68680D01*
X73515Y-68651D01*
X73487Y-68622D01*
X73487Y-68680D01*
X74030Y-68822D02*
X74030Y-69308D01*
X74001Y-69365D01*
X73972Y-69394D01*
X73915Y-69422D01*
X73830Y-69422D01*
X73772Y-69394D01*
X74030Y-69194D02*
X73972Y-69222D01*
X73858Y-69222D01*
X73801Y-69194D01*
X73772Y-69165D01*
X73744Y-69108D01*
X73744Y-68937D01*
X73772Y-68880D01*
X73801Y-68851D01*
X73858Y-68822D01*
X73972Y-68822D01*
X74030Y-68851D01*
X74315Y-69222D02*
X74315Y-68622D01*
X74572Y-69222D02*
X74572Y-68908D01*
X74544Y-68851D01*
X74487Y-68822D01*
X74401Y-68822D01*
X74344Y-68851D01*
X74315Y-68880D01*
X74772Y-68822D02*
X75001Y-68822D01*
X74858Y-68622D02*
X74858Y-69137D01*
X74887Y-69194D01*
X74944Y-69222D01*
X75001Y-69222D01*
X75630Y-68680D02*
X75658Y-68651D01*
X75715Y-68622D01*
X75858Y-68622D01*
X75915Y-68651D01*
X75944Y-68680D01*
X75972Y-68737D01*
X75972Y-68794D01*
X75944Y-68880D01*
X75601Y-69222D01*
X75972Y-69222D01*
X76344Y-68622D02*
X76401Y-68622D01*
X76458Y-68651D01*
X76487Y-68680D01*
X76515Y-68737D01*
X76544Y-68851D01*
X76544Y-68994D01*
X76515Y-69108D01*
X76487Y-69165D01*
X76458Y-69194D01*
X76401Y-69222D01*
X76344Y-69222D01*
X76287Y-69194D01*
X76258Y-69165D01*
X76230Y-69108D01*
X76201Y-68994D01*
X76201Y-68851D01*
X76230Y-68737D01*
X76258Y-68680D01*
X76287Y-68651D01*
X76344Y-68622D01*
X77115Y-69222D02*
X76772Y-69222D01*
X76944Y-69222D02*
X76944Y-68622D01*
X76887Y-68708D01*
X76830Y-68765D01*
X76772Y-68794D01*
X77315Y-68622D02*
X77687Y-68622D01*
X77487Y-68851D01*
X77572Y-68851D01*
X77630Y-68880D01*
X77658Y-68908D01*
X77687Y-68965D01*
X77687Y-69108D01*
X77658Y-69165D01*
X77630Y-69194D01*
X77572Y-69222D01*
X77401Y-69222D01*
X77344Y-69194D01*
X77315Y-69165D01*
X78372Y-69051D02*
X78658Y-69051D01*
X78315Y-69222D02*
X78515Y-68622D01*
X78715Y-69222D01*
X78858Y-68622D02*
X79258Y-68622D01*
X78858Y-69222D01*
X79258Y-69222D01*
X79487Y-69222D02*
X79487Y-68622D01*
X79887Y-68622D02*
X80001Y-68622D01*
X80058Y-68651D01*
X80115Y-68708D01*
X80144Y-68822D01*
X80144Y-69022D01*
X80115Y-69137D01*
X80058Y-69194D01*
X80001Y-69222D01*
X79887Y-69222D01*
X79830Y-69194D01*
X79772Y-69137D01*
X79744Y-69022D01*
X79744Y-68822D01*
X79772Y-68708D01*
X79830Y-68651D01*
X79887Y-68622D01*
X80858Y-68908D02*
X81058Y-68908D01*
X81144Y-69222D02*
X80858Y-69222D01*
X80858Y-68622D01*
X81144Y-68622D01*
X81487Y-69222D02*
X81430Y-69194D01*
X81401Y-69137D01*
X81401Y-68622D01*
X81944Y-69194D02*
X81887Y-69222D01*
X81772Y-69222D01*
X81715Y-69194D01*
X81687Y-69137D01*
X81687Y-68908D01*
X81715Y-68851D01*
X81772Y-68822D01*
X81887Y-68822D01*
X81944Y-68851D01*
X81972Y-68908D01*
X81972Y-68965D01*
X81687Y-69022D01*
X82487Y-69194D02*
X82430Y-69222D01*
X82315Y-69222D01*
X82258Y-69194D01*
X82230Y-69165D01*
X82201Y-69108D01*
X82201Y-68937D01*
X82230Y-68880D01*
X82258Y-68851D01*
X82315Y-68822D01*
X82430Y-68822D01*
X82487Y-68851D01*
X82658Y-68822D02*
X82887Y-68822D01*
X82744Y-68622D02*
X82744Y-69137D01*
X82772Y-69194D01*
X82830Y-69222D01*
X82887Y-69222D01*
X83087Y-69222D02*
X83087Y-68822D01*
X83087Y-68937D02*
X83115Y-68880D01*
X83144Y-68851D01*
X83201Y-68822D01*
X83258Y-68822D01*
X83544Y-69222D02*
X83487Y-69194D01*
X83458Y-69165D01*
X83430Y-69108D01*
X83430Y-68937D01*
X83458Y-68880D01*
X83487Y-68851D01*
X83544Y-68822D01*
X83630Y-68822D01*
X83687Y-68851D01*
X83715Y-68880D01*
X83744Y-68937D01*
X83744Y-69108D01*
X83715Y-69165D01*
X83687Y-69194D01*
X83630Y-69222D01*
X83544Y-69222D01*
X84001Y-68822D02*
X84001Y-69222D01*
X84001Y-68880D02*
X84030Y-68851D01*
X84087Y-68822D01*
X84172Y-68822D01*
X84230Y-68851D01*
X84258Y-68908D01*
X84258Y-69222D01*
X84544Y-69222D02*
X84544Y-68822D01*
X84544Y-68622D02*
X84515Y-68651D01*
X84544Y-68680D01*
X84572Y-68651D01*
X84544Y-68622D01*
X84544Y-68680D01*
X85087Y-69194D02*
X85030Y-69222D01*
X84915Y-69222D01*
X84858Y-69194D01*
X84830Y-69165D01*
X84801Y-69108D01*
X84801Y-68937D01*
X84830Y-68880D01*
X84858Y-68851D01*
X84915Y-68822D01*
X85030Y-68822D01*
X85087Y-68851D01*
X85315Y-69194D02*
X85372Y-69222D01*
X85487Y-69222D01*
X85544Y-69194D01*
X85572Y-69137D01*
X85572Y-69108D01*
X85544Y-69051D01*
X85487Y-69022D01*
X85401Y-69022D01*
X85344Y-68994D01*
X85315Y-68937D01*
X85315Y-68908D01*
X85344Y-68851D01*
X85401Y-68822D01*
X85487Y-68822D01*
X85544Y-68851D01*
X86630Y-69165D02*
X86601Y-69194D01*
X86515Y-69222D01*
X86458Y-69222D01*
X86372Y-69194D01*
X86315Y-69137D01*
X86287Y-69080D01*
X86258Y-68965D01*
X86258Y-68880D01*
X86287Y-68765D01*
X86315Y-68708D01*
X86372Y-68651D01*
X86458Y-68622D01*
X86515Y-68622D01*
X86601Y-68651D01*
X86630Y-68680D01*
X86972Y-69222D02*
X86915Y-69194D01*
X86887Y-69165D01*
X86858Y-69108D01*
X86858Y-68937D01*
X86887Y-68880D01*
X86915Y-68851D01*
X86972Y-68822D01*
X87058Y-68822D01*
X87115Y-68851D01*
X87144Y-68880D01*
X87172Y-68937D01*
X87172Y-69108D01*
X87144Y-69165D01*
X87115Y-69194D01*
X87058Y-69222D01*
X86972Y-69222D01*
X87430Y-69165D02*
X87458Y-69194D01*
X87430Y-69222D01*
X87401Y-69194D01*
X87430Y-69165D01*
X87430Y-69222D01*
X87744Y-69194D02*
X87744Y-69222D01*
X87715Y-69280D01*
X87687Y-69308D01*
X88744Y-69222D02*
X88458Y-69222D01*
X88458Y-68622D01*
X88858Y-68822D02*
X89087Y-68822D01*
X88944Y-68622D02*
X88944Y-69137D01*
X88972Y-69194D01*
X89030Y-69222D01*
X89087Y-69222D01*
X89544Y-69222D02*
X89544Y-68622D01*
X89544Y-69194D02*
X89487Y-69222D01*
X89372Y-69222D01*
X89315Y-69194D01*
X89287Y-69165D01*
X89258Y-69108D01*
X89258Y-68937D01*
X89287Y-68880D01*
X89315Y-68851D01*
X89372Y-68822D01*
X89487Y-68822D01*
X89544Y-68851D01*
X89830Y-69165D02*
X89858Y-69194D01*
X89830Y-69222D01*
X89801Y-69194D01*
X89830Y-69165D01*
X89830Y-69222D01*
X70230Y-68380D02*
X70230Y-77980D01*
X70230Y-71980D02*
X112230Y-71980D01*
X70230Y-68380D02*
X112230Y-68380D01*
X70230Y-74380D02*
X112230Y-74380D01*
X103430Y-75580D02*
X103430Y-77980D01*
X70230Y-76780D02*
X112230Y-76780D01*
X70230Y-75580D02*
X112230Y-75580D01*
X76830Y-75580D02*
X76830Y-76780D01*
G54D11*
X42606Y-52483D02*
X42606Y-27680D01*
X68983Y-52483D02*
X42606Y-52483D01*
X68983Y-27680D02*
X68983Y-52483D01*
X42606Y-27680D02*
X68983Y-27680D01*
X66228Y-30437D02*
X66228Y-39492D01*
X57764Y-30437D02*
X66228Y-30437D01*
X57764Y-29650D02*
X57764Y-30437D01*
X67016Y-29650D02*
X57764Y-29650D01*
X67016Y-39492D02*
X67016Y-29650D01*
X66228Y-39492D02*
X67016Y-39492D01*
X57764Y-50515D02*
X57764Y-49728D01*
X67016Y-50515D02*
X57764Y-50515D01*
X67016Y-40948D02*
X67016Y-50515D01*
X66228Y-40948D02*
X67016Y-40948D01*
X66228Y-49728D02*
X66228Y-40948D01*
X57764Y-49728D02*
X66228Y-49728D01*
X46936Y-50515D02*
X46936Y-44413D01*
X56386Y-50515D02*
X46936Y-50515D01*
X56386Y-49728D02*
X56386Y-50515D01*
X47724Y-49728D02*
X56386Y-49728D01*
X47724Y-44413D02*
X47724Y-49728D01*
X46936Y-44413D02*
X47724Y-44413D01*
X46936Y-43390D02*
X46936Y-35555D01*
X47724Y-43390D02*
X46936Y-43390D01*
X47724Y-35555D02*
X47724Y-43390D01*
X46936Y-35555D02*
X47724Y-35555D01*
X47724Y-30437D02*
X47724Y-34570D01*
X46936Y-34570D02*
X47724Y-34570D01*
X46936Y-29648D02*
X46936Y-34570D01*
X46936Y-29648D02*
X56384Y-29648D01*
X56384Y-29648D02*
X56384Y-30437D01*
X47724Y-30437D02*
X56384Y-30437D01*
G54D12*
X49881Y-33858D03*
X49881Y-33543D03*
X50314Y-33385D03*
X50944Y-33228D03*
X48503Y-33188D03*
X48779Y-33149D03*
X51259Y-32913D03*
X51259Y-33228D03*
X49251Y-33858D03*
X49251Y-33543D03*
X49566Y-33543D03*
X49566Y-33858D03*
X48937Y-33858D03*
X48937Y-33543D03*
X48622Y-33543D03*
X48622Y-33858D03*
X52125Y-33622D03*
X52992Y-32716D03*
X52322Y-32952D03*
X52322Y-33267D03*
X54251Y-33346D03*
X54251Y-33031D03*
X52637Y-32952D03*
X52637Y-33267D03*
X61732Y-33779D03*
X54645Y-33818D03*
X61417Y-33779D03*
X54330Y-33818D03*
X54566Y-33031D03*
X54566Y-33346D03*
X60236Y-33228D03*
X60590Y-33228D03*
X61220Y-33228D03*
X60905Y-33228D03*
X59606Y-33228D03*
X56692Y-33740D03*
X57007Y-33740D03*
X59921Y-33228D03*
X59291Y-33228D03*
X59330Y-33779D03*
X59015Y-33779D03*
X58976Y-33228D03*
X54960Y-33346D03*
X54960Y-33031D03*
X55275Y-33031D03*
X55275Y-33346D03*
X55905Y-33346D03*
X55905Y-33031D03*
X55590Y-33031D03*
X55590Y-33346D03*
X56850Y-33346D03*
X56850Y-33031D03*
X57165Y-33031D03*
X57165Y-33346D03*
X56535Y-33346D03*
X56535Y-33031D03*
X56220Y-33031D03*
X56220Y-33346D03*
X59685Y-31023D03*
X62677Y-31023D03*
X62992Y-31023D03*
X60000Y-31023D03*
X60629Y-31023D03*
X63622Y-31023D03*
X63307Y-31023D03*
X60314Y-31023D03*
X59055Y-31023D03*
X62047Y-31023D03*
X62362Y-31023D03*
X59370Y-31023D03*
X58740Y-31023D03*
X61732Y-31023D03*
X61417Y-31023D03*
X58425Y-31023D03*
X62165Y-33464D03*
X62165Y-33149D03*
X62480Y-33149D03*
X62480Y-33464D03*
X63188Y-33464D03*
X63188Y-33149D03*
X62795Y-33149D03*
X62795Y-33464D03*
X63976Y-31141D03*
X65866Y-31417D03*
X65669Y-33149D03*
X64251Y-30866D03*
X63818Y-33464D03*
X63818Y-33149D03*
X63503Y-33149D03*
X63503Y-33464D03*
X54291Y-31023D03*
X56968Y-31023D03*
X57283Y-31023D03*
X54606Y-31023D03*
X55236Y-31023D03*
X57913Y-31023D03*
X57598Y-31023D03*
X54921Y-31023D03*
X53661Y-31023D03*
X56338Y-31023D03*
X56653Y-31023D03*
X53976Y-31023D03*
X53346Y-31023D03*
X56023Y-31023D03*
X55708Y-31023D03*
X53031Y-31023D03*
X48937Y-30905D03*
X64606Y-30866D03*
X64921Y-30866D03*
X49251Y-30905D03*
X49881Y-30905D03*
X65905Y-32834D03*
X65236Y-30866D03*
X49566Y-30905D03*
X50748Y-31299D03*
X48700Y-34921D03*
X49015Y-34921D03*
X50866Y-32913D03*
X50590Y-30905D03*
X63582Y-32755D03*
X63267Y-32755D03*
X50275Y-30905D03*
X65905Y-33700D03*
X65866Y-36850D03*
X65275Y-33700D03*
X65236Y-36850D03*
X65551Y-36850D03*
X65590Y-33700D03*
X64960Y-33700D03*
X64921Y-36850D03*
X64606Y-36850D03*
X64645Y-33700D03*
X65590Y-46692D03*
X65590Y-46377D03*
X65905Y-46377D03*
X65905Y-46692D03*
X63976Y-46141D03*
X63976Y-45826D03*
X63661Y-45826D03*
X63661Y-46141D03*
X64842Y-46692D03*
X64842Y-46377D03*
X65157Y-46377D03*
X65157Y-46692D03*
X64527Y-46692D03*
X64527Y-46377D03*
X64212Y-46377D03*
X64212Y-46692D03*
X64960Y-43267D03*
X63700Y-43897D03*
X64015Y-43897D03*
X65275Y-43267D03*
X65905Y-43267D03*
X65314Y-49370D03*
X65000Y-49370D03*
X65590Y-43267D03*
X64645Y-43267D03*
X64291Y-49370D03*
X64606Y-49370D03*
X64015Y-43582D03*
X64330Y-43267D03*
X63976Y-49370D03*
X65629Y-49370D03*
X64015Y-43267D03*
X62322Y-49173D03*
X59724Y-49173D03*
X60039Y-49173D03*
X62637Y-49173D03*
X63267Y-49173D03*
X60669Y-49173D03*
X60354Y-49173D03*
X62952Y-49173D03*
X61692Y-49173D03*
X59094Y-49173D03*
X59409Y-49173D03*
X62007Y-49173D03*
X61377Y-49173D03*
X58779Y-49173D03*
X58464Y-49173D03*
X61062Y-49173D03*
X58346Y-48779D03*
X58346Y-48464D03*
X58346Y-47677D03*
X58346Y-47992D03*
X62283Y-47086D03*
X62283Y-46771D03*
X61968Y-46771D03*
X61968Y-47086D03*
X63385Y-47086D03*
X63385Y-46771D03*
X63700Y-46771D03*
X63700Y-47086D03*
X63070Y-47086D03*
X63070Y-46771D03*
X62598Y-46771D03*
X62598Y-47086D03*
X59094Y-46299D03*
X57401Y-46850D03*
X58070Y-46850D03*
X59409Y-46299D03*
X57007Y-46299D03*
X55748Y-46811D03*
X58582Y-46850D03*
X56692Y-46299D03*
X61417Y-46299D03*
X55039Y-46811D03*
X56496Y-46850D03*
X61732Y-46299D03*
X61102Y-46811D03*
X54488Y-47952D03*
X54173Y-47952D03*
X54212Y-48937D03*
X48503Y-48464D03*
X48503Y-46771D03*
X48858Y-46889D03*
X65826Y-39921D03*
X65826Y-40551D03*
X48464Y-47755D03*
X48543Y-47244D03*
X65826Y-40236D03*
X48110Y-48582D03*
X65787Y-41889D03*
X65787Y-42204D03*
X48110Y-48897D03*
X48110Y-48267D03*
X65787Y-41574D03*
X65787Y-41259D03*
X48110Y-47952D03*
X62519Y-47519D03*
X61535Y-47440D03*
X59448Y-47559D03*
X60551Y-47637D03*
X48779Y-49251D03*
X49094Y-49251D03*
X48425Y-49251D03*
X48110Y-49251D03*
X65905Y-48779D03*
X65551Y-49055D03*
X63464Y-47519D03*
X65905Y-49094D03*
X50393Y-46850D03*
X50708Y-46850D03*
X48779Y-48897D03*
X65787Y-40866D03*
X54566Y-42440D03*
X54015Y-41338D03*
X53779Y-37716D03*
X54055Y-37992D03*
X54173Y-39173D03*
X54645Y-38110D03*
X54330Y-37716D03*
X48149Y-35314D03*
X48149Y-34763D03*
X48149Y-35078D03*
X48149Y-35629D03*
X50000Y-35708D03*
X49133Y-36456D03*
X49015Y-35314D03*
X48700Y-35314D03*
X49842Y-38228D03*
X49251Y-38228D03*
X50118Y-37952D03*
X49527Y-37952D03*
X49842Y-39055D03*
X49330Y-39055D03*
X49133Y-36771D03*
X49606Y-36771D03*
X48149Y-33188D03*
X48149Y-30826D03*
X48149Y-31141D03*
X48149Y-33503D03*
X48149Y-34133D03*
X48149Y-34448D03*
X48149Y-31456D03*
X48149Y-33818D03*
X48149Y-32440D03*
X48464Y-32440D03*
X48464Y-32755D03*
X48149Y-32755D03*
X48149Y-32125D03*
X48464Y-32125D03*
X48464Y-31811D03*
X48149Y-31811D03*
X49291Y-40157D03*
X49881Y-40157D03*
X49881Y-39606D03*
X49330Y-39606D03*
X49291Y-41299D03*
X49803Y-41299D03*
X49881Y-40551D03*
X49291Y-40551D03*
X49685Y-42913D03*
X50000Y-42913D03*
X50000Y-43228D03*
X49685Y-43228D03*
X49330Y-41968D03*
X50000Y-41968D03*
X50039Y-41574D03*
X49566Y-41574D03*
X54173Y-49291D03*
X48779Y-45905D03*
X48110Y-45944D03*
X48110Y-46929D03*
X48110Y-47559D03*
X48110Y-46574D03*
X48110Y-46259D03*
X48110Y-47244D03*
X48110Y-45590D03*
X49291Y-43740D03*
X48779Y-45590D03*
X48464Y-45590D03*
X49685Y-43740D03*
X50000Y-43740D03*
X49291Y-42913D03*
X49291Y-43228D03*
X65826Y-37992D03*
X65826Y-38307D03*
X65826Y-38937D03*
X65826Y-38622D03*
X63110Y-37519D03*
X64330Y-36850D03*
X63110Y-37834D03*
X65826Y-39566D03*
X65826Y-39251D03*
X63582Y-34330D03*
X63897Y-34330D03*
X64330Y-33700D03*
X64173Y-33385D03*
X63582Y-34015D03*
X63897Y-34015D03*
X65393Y-33385D03*
X65905Y-33267D03*
X63622Y-36220D03*
X63937Y-36220D03*
X63937Y-36535D03*
X63622Y-36535D03*
X63582Y-42322D03*
X63582Y-40629D03*
X63937Y-36850D03*
X63622Y-36850D03*
X63582Y-43267D03*
X63582Y-41574D03*
X63582Y-41889D03*
X63582Y-43582D03*
X63582Y-42952D03*
X63582Y-41259D03*
X63582Y-40944D03*
X63582Y-42637D03*
X49291Y-46692D03*
X49409Y-49251D03*
X49724Y-49251D03*
X49606Y-46692D03*
X55157Y-48582D03*
X50314Y-49251D03*
X50039Y-49251D03*
X49921Y-46692D03*
X54527Y-48582D03*
X54527Y-48267D03*
X54842Y-48267D03*
X54842Y-48582D03*
X54212Y-48582D03*
X54212Y-48267D03*
X50629Y-49251D03*
X55472Y-48582D03*
X63543Y-38700D03*
X63543Y-40275D03*
X63110Y-39921D03*
X63149Y-42244D03*
X65669Y-46968D03*
X65866Y-47283D03*
X63110Y-40236D03*
X63149Y-42559D03*
X63543Y-38070D03*
X63543Y-39645D03*
X63543Y-39960D03*
X63543Y-38385D03*
X63543Y-37755D03*
X63543Y-39330D03*
X63543Y-39015D03*
X63543Y-37440D03*
X62027Y-44709D03*
X62224Y-44901D03*
G54D13*
X51929Y-49251D03*
X52834Y-49251D03*
X52362Y-49251D03*
X51574Y-49251D03*
X51358Y-47342D03*
X52362Y-45944D03*
X52775Y-45393D03*
X51988Y-45787D03*
X52755Y-45807D03*
X51968Y-45393D03*
X52834Y-47342D03*
X52834Y-48208D03*
X52834Y-48602D03*
X52834Y-47716D03*
X51358Y-48070D03*
X51358Y-48956D03*
X51358Y-48562D03*
X51358Y-47696D03*
X51673Y-47342D03*
X52460Y-47342D03*
X52421Y-47775D03*
X52047Y-47342D03*
X51811Y-48858D03*
X52421Y-48720D03*
X51850Y-48011D03*
X56102Y-43975D03*
G54D12*
X61386Y-35540D03*
X61024Y-35536D03*
X61024Y-35198D03*
X61394Y-35193D03*
G54D14*
X47725Y-34630D03*
X47725Y-35063D03*
X47725Y-35496D03*
X47725Y-44335D03*
X47725Y-43902D03*
X47725Y-43469D03*
X66268Y-39571D03*
X66268Y-40004D03*
X66268Y-40437D03*
X66268Y-40870D03*
G54D12*
X58185Y-40460D03*
X58185Y-40027D03*
X57968Y-40244D03*
X58401Y-40244D03*
X58618Y-40460D03*
X57752Y-40460D03*
X57319Y-40460D03*
X56886Y-40460D03*
X56669Y-40677D03*
X57102Y-40677D03*
X57539Y-40677D03*
X57968Y-40677D03*
X58401Y-40677D03*
X58834Y-40677D03*
X58834Y-41110D03*
X58401Y-41110D03*
X57968Y-41110D03*
X57539Y-41110D03*
X57102Y-41110D03*
X56669Y-41110D03*
X56886Y-40893D03*
X57319Y-40893D03*
X58185Y-40893D03*
X57752Y-40893D03*
X58618Y-40893D03*
X58618Y-40027D03*
X57752Y-40027D03*
X57319Y-40027D03*
X56886Y-40027D03*
X56669Y-40244D03*
X57102Y-40244D03*
X57539Y-40244D03*
X58834Y-40244D03*
X58834Y-39811D03*
X58401Y-39811D03*
X57968Y-39811D03*
X57539Y-39811D03*
X57102Y-39811D03*
X56669Y-39811D03*
X56886Y-39594D03*
X57319Y-39594D03*
X58185Y-39594D03*
X57752Y-39594D03*
X58618Y-39594D03*
X58618Y-39161D03*
X57752Y-39161D03*
X58185Y-39161D03*
X57319Y-39161D03*
X56886Y-39161D03*
X56669Y-39378D03*
X57102Y-39378D03*
X57539Y-39378D03*
X57968Y-39378D03*
X58401Y-39378D03*
X58834Y-39378D03*
X58834Y-38945D03*
X58401Y-38945D03*
X57968Y-38945D03*
X57539Y-38945D03*
X57102Y-38945D03*
X56669Y-38945D03*
G54D13*
X48861Y-45087D03*
X48546Y-45087D03*
X48231Y-45087D03*
X52389Y-43424D03*
X52744Y-43424D03*
X52941Y-43620D03*
X52586Y-43621D03*
G54D15*
X49752Y-32228D03*
X64791Y-32228D03*
X64791Y-47975D03*
X49752Y-47975D03*
G54D13*
X56378Y-43975D03*
X52232Y-43621D03*
X52834Y-48917D03*
G54D14*
X56426Y-49768D03*
X56859Y-49768D03*
X57292Y-49768D03*
X57726Y-49768D03*
X56425Y-30437D03*
X56858Y-30437D03*
X57291Y-30437D03*
X57725Y-30437D03*
G54D16*
X51299Y-32217D03*
X52299Y-32217D03*
X52299Y-31217D03*
X51299Y-31217D03*
G54D17*
X51799Y-31717D03*
G54D18*
X58307Y-31834D03*
X57307Y-31834D03*
X56307Y-31834D03*
X55307Y-31834D03*
G54D19*
X53307Y-31814D03*
G54D18*
X54307Y-31834D03*
G54D19*
X57576Y-49079D03*
G54D18*
X56576Y-49079D03*
G54D20*
X49554Y-45454D03*
X49554Y-35062D03*
G54D18*
X63314Y-31834D03*
X62314Y-31834D03*
X61314Y-31834D03*
G54D19*
X59314Y-31814D03*
G54D18*
X60314Y-31834D03*
X63043Y-48350D03*
X62043Y-48350D03*
X61043Y-48350D03*
G54D19*
X59043Y-48330D03*
G54D18*
X60043Y-48350D03*
G54D12*
X61692Y-43251D03*
G54D13*
X56783Y-43173D03*
X61728Y-40646D03*
X61821Y-42018D03*
X61594Y-38083D03*
X55748Y-43512D03*
X55032Y-45276D03*
G54D21*
X61444Y-45011D03*
G54D13*
X58976Y-46772D03*
G54D12*
X60177Y-35130D03*
G54D13*
X54949Y-37343D03*
G54D12*
X52646Y-37508D03*
G54D13*
X54221Y-34441D03*
X51169Y-34244D03*
X57756Y-43449D03*
G54D12*
X56949Y-42618D03*
G54D13*
X58264Y-43146D03*
X60142Y-42921D03*
G54D12*
X55299Y-38228D03*
G54D13*
X62039Y-39803D03*
X59910Y-37815D03*
X62036Y-39500D03*
G54D12*
X49256Y-36028D03*
X53323Y-36453D03*
G54D22*
X62543Y-45208D03*
X61830Y-45295D03*
X61842Y-44421D03*
X62527Y-44421D03*
X60980Y-44818D03*
X60972Y-44472D03*
G54D13*
X58002Y-47500D03*
G54D12*
X59961Y-44311D03*
X58626Y-44390D03*
X58413Y-43508D03*
X60205Y-43484D03*
X59882Y-37386D03*
X58256Y-36228D03*
X57106Y-36587D03*
G54D13*
X58616Y-45230D03*
G54D12*
X61102Y-40835D03*
G54D13*
X57668Y-44518D03*
G54D12*
X52012Y-34799D03*
G54D13*
X50921Y-43799D03*
X51012Y-36701D03*
G54D12*
X48154Y-36225D03*
X48154Y-35831D03*
G54D13*
X48158Y-36717D03*
X48150Y-39079D03*
X48189Y-41437D03*
G54D12*
X48032Y-37599D03*
X48047Y-38189D03*
X48024Y-39571D03*
X48028Y-40551D03*
X48032Y-41933D03*
X48032Y-42918D03*
X48197Y-43508D03*
G54D13*
X48138Y-43807D03*
G54D12*
X61264Y-40071D03*
X54457Y-43477D03*
G54D13*
X53465Y-45815D03*
G54D12*
X54579Y-44225D03*
G54D13*
X54268Y-46508D03*
G54D12*
X48102Y-44492D03*
X50921Y-44492D03*
X60441Y-34681D03*
G54D13*
X57984Y-48284D03*
G54D12*
X61957Y-34823D03*
X60906Y-36260D03*
X61957Y-35933D03*
X62154Y-36559D03*
X61228Y-42177D03*
X60882Y-38087D03*
X60780Y-39406D03*
X59350Y-37213D03*
G54D23*
X56091Y-35378D03*
X55579Y-35130D03*
G54D12*
X59508Y-36051D03*
X59650Y-35925D03*
X57094Y-35291D03*
X58354Y-35528D03*
X58370Y-36783D03*
X48165Y-37402D03*
X60266Y-35482D03*
X48193Y-37205D03*
X60246Y-35719D03*
G54D22*
X49078Y-43251D03*
G54D21*
X61433Y-44618D03*
G54D13*
X55217Y-44988D03*
G54D12*
X55288Y-40421D03*
X55701Y-40618D03*
X55366Y-40819D03*
X55705Y-41839D03*
G54D24*
X59228Y-40327D03*
G54D12*
X51732Y-36461D03*
G54D24*
X56276Y-41307D03*
G54D12*
X53591Y-41236D03*
X59951Y-40876D03*
X51728Y-36957D03*
G54D24*
X59232Y-40524D03*
G54D12*
X52870Y-37327D03*
X51728Y-37240D03*
X52870Y-36752D03*
X59669Y-40425D03*
X55736Y-39831D03*
X53906Y-34843D03*
X48193Y-37984D03*
X60319Y-39984D03*
X52906Y-35095D03*
X52543Y-37827D03*
G54D24*
X56866Y-38555D03*
G54D12*
X55981Y-37386D03*
G54D24*
X59228Y-38752D03*
G54D12*
X57205Y-42071D03*
X60473Y-41000D03*
G54D24*
X59232Y-40918D03*
G54D12*
X60339Y-39244D03*
G54D24*
X59228Y-39343D03*
X57252Y-41504D03*
G54D12*
X57465Y-41937D03*
G54D13*
X52811Y-44992D03*
X53539Y-43862D03*
X53539Y-44197D03*
G54D12*
X60030Y-41211D03*
G54D24*
X59228Y-41114D03*
G54D12*
X60039Y-41437D03*
X55638Y-36756D03*
G54D24*
X57063Y-38555D03*
G54D12*
X59272Y-41807D03*
X59748Y-39020D03*
G54D24*
X58240Y-41504D03*
X59225Y-39146D03*
X59228Y-38949D03*
X59228Y-40130D03*
X57847Y-38555D03*
G54D12*
X59150Y-37972D03*
G54D24*
X57059Y-41504D03*
G54D12*
X55933Y-38528D03*
G54D22*
X56276Y-39736D03*
X56276Y-40327D03*
G54D12*
X56260Y-42953D03*
G54D24*
X56858Y-41504D03*
G54D13*
X60154Y-42638D03*
G54D24*
X59228Y-41311D03*
X59228Y-39933D03*
G54D12*
X55394Y-39638D03*
X53650Y-41536D03*
G54D24*
X56276Y-41110D03*
G54D12*
X53583Y-40201D03*
G54D24*
X56280Y-39933D03*
G54D12*
X55831Y-39047D03*
G54D24*
X56276Y-40914D03*
G54D12*
X53579Y-41925D03*
X53602Y-40559D03*
G54D24*
X56276Y-40130D03*
G54D12*
X55303Y-40032D03*
X53662Y-38355D03*
G54D24*
X56276Y-38748D03*
G54D12*
X55709Y-39445D03*
X56957Y-42059D03*
G54D24*
X56665Y-41504D03*
G54D12*
X52193Y-35890D03*
X59740Y-40740D03*
X54453Y-37319D03*
X51721Y-37508D03*
X54721Y-36075D03*
X59787Y-39870D03*
X55555Y-39028D03*
X53662Y-38555D03*
G54D24*
X56276Y-38945D03*
G54D12*
X53610Y-39571D03*
G54D24*
X56276Y-39540D03*
G54D12*
X53626Y-39370D03*
G54D24*
X56280Y-39343D03*
G54D12*
X53579Y-42122D03*
G54D24*
X56276Y-40717D03*
G54D12*
X55772Y-40232D03*
X55890Y-41016D03*
X55260Y-41209D03*
X55815Y-41406D03*
X55445Y-41846D03*
X56303Y-41937D03*
X53650Y-38981D03*
G54D24*
X56276Y-39138D03*
G54D12*
X53587Y-41040D03*
G54D24*
X56276Y-40524D03*
G54D12*
X59646Y-40225D03*
X54736Y-36331D03*
X49354Y-37402D03*
X53071Y-34862D03*
X52276Y-40847D03*
X52248Y-40394D03*
X48185Y-39965D03*
X48221Y-38386D03*
X52516Y-38162D03*
X48201Y-39768D03*
X52232Y-40016D03*
X48197Y-39370D03*
X52402Y-39815D03*
X48079Y-38783D03*
X52386Y-39181D03*
X48193Y-38591D03*
X52366Y-38772D03*
G54D24*
X59228Y-39732D03*
G54D12*
X51445Y-35929D03*
X52213Y-40654D03*
X48181Y-40355D03*
X55984Y-38016D03*
X56319Y-38122D03*
X56575Y-38130D03*
G54D24*
X56669Y-38555D03*
G54D12*
X49744Y-36425D03*
X49634Y-37205D03*
X49917Y-37012D03*
X49748Y-36225D03*
X51717Y-37992D03*
X52535Y-41732D03*
X48173Y-42331D03*
X52118Y-42354D03*
X54984Y-43063D03*
X48173Y-40748D03*
X55453Y-43067D03*
X51752Y-40748D03*
X48181Y-42130D03*
X51917Y-42355D03*
X48197Y-41732D03*
X51398Y-42355D03*
X48075Y-41142D03*
X51638Y-42355D03*
X48201Y-40949D03*
X54721Y-43055D03*
X51091Y-40949D03*
X55225Y-43067D03*
G54D24*
X59228Y-40721D03*
G54D12*
X51669Y-35288D03*
G54D24*
X58437Y-41508D03*
G54D12*
X58536Y-41973D03*
X59281Y-42067D03*
X58740Y-41969D03*
X52465Y-41043D03*
X49535Y-42618D03*
X48154Y-42725D03*
G54D13*
X51169Y-44827D03*
X51169Y-45063D03*
G54D25*
X55032Y-45276D02*
X55032Y-45197D01*
X55748Y-44079D02*
X55748Y-43512D01*
X54965Y-44862D02*
X55748Y-44079D01*
X54965Y-45130D02*
X54965Y-44862D01*
X55032Y-45197D02*
X54965Y-45130D01*
G54D26*
X48165Y-37402D02*
X48887Y-37402D01*
X60148Y-35364D02*
X60266Y-35482D01*
X58236Y-35362D02*
X60148Y-35364D01*
X57965Y-35638D02*
X58236Y-35362D01*
X52594Y-35634D02*
X57965Y-35638D01*
X52000Y-35043D02*
X52594Y-35634D01*
X51355Y-35043D02*
X52000Y-35043D01*
X51185Y-35213D02*
X51355Y-35043D01*
X51185Y-37708D02*
X51185Y-35213D01*
X51098Y-37795D02*
X51185Y-37708D01*
X49280Y-37795D02*
X51098Y-37795D01*
X48887Y-37402D02*
X49280Y-37795D01*
X48193Y-37205D02*
X48894Y-37205D01*
X60413Y-35719D02*
X60246Y-35719D01*
X60587Y-35539D02*
X60413Y-35719D01*
X60587Y-35430D02*
X60587Y-35539D01*
X60429Y-35272D02*
X60587Y-35430D01*
X58134Y-35274D02*
X60429Y-35272D01*
X57852Y-35547D02*
X58134Y-35274D01*
X52681Y-35547D02*
X57852Y-35547D01*
X52083Y-34949D02*
X52681Y-35547D01*
X51291Y-34949D02*
X52083Y-34949D01*
X50843Y-35397D02*
X51291Y-34949D01*
X50843Y-37472D02*
X50843Y-35397D01*
X50677Y-37638D02*
X50843Y-37472D01*
X49327Y-37638D02*
X50677Y-37638D01*
X48894Y-37205D02*
X49327Y-37638D01*
X49078Y-43251D02*
X49078Y-44011D01*
X60460Y-45590D02*
X61433Y-44618D01*
X54783Y-45590D02*
X60460Y-45590D01*
X53732Y-46641D02*
X54783Y-45590D01*
X51708Y-46641D02*
X53732Y-46641D01*
X49078Y-44011D02*
X51708Y-46641D01*
X59228Y-40327D02*
X59087Y-40327D01*
X54894Y-37161D02*
X52433Y-37161D01*
X52433Y-37161D02*
X51732Y-36461D01*
X55988Y-36594D02*
X55461Y-36594D01*
X55461Y-36594D02*
X54894Y-37161D01*
X57197Y-37803D02*
X55988Y-36594D01*
X57197Y-38563D02*
X57197Y-37803D01*
X57421Y-38787D02*
X57197Y-38563D01*
X58906Y-38787D02*
X57421Y-38787D01*
X58992Y-38873D02*
X58906Y-38787D01*
X58992Y-40232D02*
X58992Y-38873D01*
X59087Y-40327D02*
X58992Y-40232D01*
X53261Y-41236D02*
X52972Y-41528D01*
X52972Y-41528D02*
X52972Y-42398D01*
X52972Y-42398D02*
X53469Y-42898D01*
X53469Y-42898D02*
X54335Y-42898D01*
X54335Y-42898D02*
X54508Y-42724D01*
X54508Y-42724D02*
X55535Y-42721D01*
X55535Y-42721D02*
X55689Y-42567D01*
X53591Y-41236D02*
X53261Y-41236D01*
X55689Y-42567D02*
X55689Y-42209D01*
X55689Y-42209D02*
X56280Y-41618D01*
X56280Y-41618D02*
X56276Y-41307D01*
X51555Y-36961D02*
X51287Y-36693D01*
X51287Y-36693D02*
X51287Y-35263D01*
X51287Y-35263D02*
X51429Y-35142D01*
X51429Y-35142D02*
X51921Y-35142D01*
X51921Y-35142D02*
X52499Y-35720D01*
X52499Y-35720D02*
X56480Y-35720D01*
X56480Y-35720D02*
X58284Y-37524D01*
X58284Y-37524D02*
X59276Y-37524D01*
X59276Y-37524D02*
X60508Y-38756D01*
X60508Y-38756D02*
X60512Y-40315D01*
X60512Y-40315D02*
X59951Y-40876D01*
X51555Y-36961D02*
X51728Y-36957D01*
X52870Y-36752D02*
X54768Y-36752D01*
X52732Y-37240D02*
X52870Y-37327D01*
X51728Y-37240D02*
X52732Y-37240D01*
X59547Y-40425D02*
X59669Y-40425D01*
X59453Y-40327D02*
X59547Y-40425D01*
X59453Y-39870D02*
X59453Y-40327D01*
X59512Y-39811D02*
X59453Y-39870D01*
X59512Y-38531D02*
X59512Y-39811D01*
X59220Y-38240D02*
X59512Y-38531D01*
X57683Y-38240D02*
X59220Y-38240D01*
X57583Y-38140D02*
X57683Y-38240D01*
X57583Y-37788D02*
X57583Y-38140D01*
X56118Y-36323D02*
X57583Y-37788D01*
X55197Y-36323D02*
X56118Y-36323D01*
X54768Y-36752D02*
X55197Y-36323D01*
G54D27*
X55981Y-37386D02*
X56303Y-37386D01*
X56866Y-37949D02*
X56866Y-38555D01*
X56303Y-37386D02*
X56866Y-37949D01*
X57465Y-41882D02*
X57252Y-41669D01*
X57252Y-41669D02*
X57252Y-41504D01*
X57465Y-41937D02*
X57465Y-41882D01*
X55638Y-36756D02*
X55941Y-36756D01*
X55941Y-36756D02*
X57063Y-37878D01*
X57063Y-37878D02*
X57063Y-38555D01*
X60154Y-42638D02*
X59776Y-41823D01*
X59776Y-41823D02*
X59228Y-41311D01*
G54D26*
X53650Y-41536D02*
X53295Y-41536D01*
X56075Y-41307D02*
X56276Y-41110D01*
X56075Y-41693D02*
X56075Y-41622D01*
X56075Y-41622D02*
X56075Y-41307D01*
X55146Y-42630D02*
X56075Y-41693D01*
X53395Y-42630D02*
X55146Y-42630D01*
X53102Y-42337D02*
X53395Y-42630D01*
X53102Y-41729D02*
X53102Y-42337D01*
X53295Y-41536D02*
X53102Y-41729D01*
X53583Y-40201D02*
X55547Y-40205D01*
X55913Y-39933D02*
X56280Y-39933D01*
X55547Y-40205D02*
X55913Y-39933D01*
X53579Y-41925D02*
X55000Y-41925D01*
X55989Y-41201D02*
X56276Y-40914D01*
X55724Y-41201D02*
X55989Y-41201D01*
X55000Y-41925D02*
X55724Y-41201D01*
X53602Y-40559D02*
X55505Y-40559D01*
X56118Y-40130D02*
X56276Y-40130D01*
X55854Y-40394D02*
X56118Y-40130D01*
X55670Y-40394D02*
X55854Y-40394D01*
X55505Y-40559D02*
X55670Y-40394D01*
X53662Y-38355D02*
X55194Y-38355D01*
X55587Y-38748D02*
X56276Y-38748D01*
X55194Y-38355D02*
X55587Y-38748D01*
G54D27*
X56957Y-42059D02*
X56961Y-41878D01*
X56665Y-41654D02*
X56665Y-41504D01*
X56961Y-41878D02*
X56665Y-41654D01*
G54D26*
X59740Y-40740D02*
X59740Y-40607D01*
X56193Y-35890D02*
X52193Y-35890D01*
X57917Y-37614D02*
X56193Y-35890D01*
X59185Y-37614D02*
X57917Y-37614D01*
X60161Y-38590D02*
X59185Y-37614D01*
X60161Y-40186D02*
X60161Y-38590D01*
X59740Y-40607D02*
X60161Y-40186D01*
X59787Y-39870D02*
X59787Y-39445D01*
X52178Y-37508D02*
X52336Y-37666D01*
X52336Y-37666D02*
X52799Y-37666D01*
X52799Y-37666D02*
X53146Y-37319D01*
X53146Y-37319D02*
X54453Y-37319D01*
X51721Y-37508D02*
X52178Y-37508D01*
X56217Y-36075D02*
X54721Y-36075D01*
X57902Y-37760D02*
X56217Y-36075D01*
X59193Y-37760D02*
X57902Y-37760D01*
X60051Y-38618D02*
X59193Y-37760D01*
X60051Y-39181D02*
X60051Y-38618D01*
X59787Y-39445D02*
X60051Y-39181D01*
X53662Y-38555D02*
X55244Y-38555D01*
X55539Y-38843D02*
X56173Y-38843D01*
X56173Y-38843D02*
X56276Y-38945D01*
X55244Y-38555D02*
X55539Y-38843D01*
X53610Y-39571D02*
X55086Y-39571D01*
X55913Y-39540D02*
X56276Y-39540D01*
X55555Y-39783D02*
X55913Y-39540D01*
X55299Y-39784D02*
X55555Y-39783D01*
X55086Y-39571D02*
X55299Y-39784D01*
X53626Y-39370D02*
X55449Y-39366D01*
X56083Y-39343D02*
X56280Y-39343D01*
X56032Y-39292D02*
X56083Y-39343D01*
X55524Y-39291D02*
X56032Y-39292D01*
X55449Y-39366D02*
X55524Y-39291D01*
X53579Y-42122D02*
X53401Y-42122D01*
X55945Y-40717D02*
X56276Y-40717D01*
X54984Y-41744D02*
X55945Y-40717D01*
X53421Y-41744D02*
X54984Y-41744D01*
X53307Y-41858D02*
X53421Y-41744D01*
X53307Y-42028D02*
X53307Y-41858D01*
X53401Y-42122D02*
X53307Y-42028D01*
X53650Y-38981D02*
X55308Y-38981D01*
X56111Y-39138D02*
X56276Y-39138D01*
X56048Y-39201D02*
X56111Y-39138D01*
X55528Y-39201D02*
X56048Y-39201D01*
X55308Y-38981D02*
X55528Y-39201D01*
X53587Y-41040D02*
X55488Y-41040D01*
X56004Y-40524D02*
X56276Y-40524D01*
X55488Y-41040D02*
X56004Y-40524D01*
G54D11*
X59646Y-40225D02*
X59646Y-39977D01*
X54862Y-36205D02*
X54736Y-36331D01*
X56166Y-36205D02*
X54862Y-36205D01*
X58095Y-38134D02*
X56166Y-36205D01*
X59260Y-38134D02*
X58095Y-38134D01*
X59949Y-38823D02*
X59260Y-38134D01*
X59949Y-39074D02*
X59949Y-38823D01*
X59622Y-39401D02*
X59949Y-39074D01*
X59622Y-39953D02*
X59622Y-39401D01*
X59646Y-39977D02*
X59622Y-39953D01*
G54D26*
X49354Y-37402D02*
X49354Y-36324D01*
X52291Y-33850D02*
X54307Y-31834D01*
X51130Y-33850D02*
X52291Y-33850D01*
X50264Y-34716D02*
X51130Y-33850D01*
X50264Y-35732D02*
X50264Y-34716D01*
X50027Y-35969D02*
X50264Y-35732D01*
X49709Y-35969D02*
X50027Y-35969D01*
X49354Y-36324D02*
X49709Y-35969D01*
X48185Y-39965D02*
X51819Y-39965D01*
X51819Y-39965D02*
X52248Y-40394D01*
X48221Y-38386D02*
X52292Y-38386D01*
X52292Y-38386D02*
X52516Y-38162D01*
X48201Y-39768D02*
X51984Y-39768D01*
X51984Y-39768D02*
X52232Y-40016D01*
X48197Y-39370D02*
X51957Y-39370D01*
X51957Y-39370D02*
X52402Y-39815D01*
X48079Y-38783D02*
X51989Y-38784D01*
X51989Y-38784D02*
X52386Y-39181D01*
X48193Y-38591D02*
X52185Y-38591D01*
X52185Y-38591D02*
X52366Y-38772D01*
X59228Y-39732D02*
X59299Y-39732D01*
X52524Y-37008D02*
X51445Y-35929D01*
X54873Y-37008D02*
X52524Y-37008D01*
X55377Y-36504D02*
X54873Y-37008D01*
X56039Y-36504D02*
X55377Y-36504D01*
X57319Y-37784D02*
X56039Y-36504D01*
X57319Y-38331D02*
X57319Y-37784D01*
X57421Y-38433D02*
X57319Y-38331D01*
X59149Y-38433D02*
X57421Y-38433D01*
X59350Y-38638D02*
X59149Y-38433D01*
X59350Y-39681D02*
X59350Y-38638D01*
X59299Y-39732D02*
X59350Y-39681D01*
X48181Y-40355D02*
X51914Y-40355D01*
X51914Y-40355D02*
X52213Y-40654D01*
X49744Y-36425D02*
X50248Y-36425D01*
X52385Y-34121D02*
X54094Y-32421D01*
X54094Y-32421D02*
X55758Y-32421D01*
X55758Y-32421D02*
X56307Y-31834D01*
X51545Y-34123D02*
X52385Y-34121D01*
X50484Y-35213D02*
X51545Y-34123D01*
X50484Y-36189D02*
X50484Y-35213D01*
X50248Y-36425D02*
X50484Y-36189D01*
X49634Y-37205D02*
X49634Y-36995D01*
X56555Y-32569D02*
X57307Y-31834D01*
X54124Y-32569D02*
X56555Y-32569D01*
X52165Y-34528D02*
X54124Y-32569D01*
X51335Y-34528D02*
X52165Y-34528D01*
X50606Y-35257D02*
X51335Y-34528D01*
X50606Y-36650D02*
X50606Y-35257D01*
X50433Y-36823D02*
X50606Y-36650D01*
X49806Y-36823D02*
X50433Y-36823D01*
X49634Y-36995D02*
X49806Y-36823D01*
X49917Y-37012D02*
X50531Y-37012D01*
X52283Y-34656D02*
X54193Y-32746D01*
X54193Y-32746D02*
X57028Y-32746D01*
X57028Y-32746D02*
X58307Y-31834D01*
X51358Y-34661D02*
X52283Y-34656D01*
X50713Y-35306D02*
X51358Y-34661D01*
X50713Y-36830D02*
X50713Y-35306D01*
X50531Y-37012D02*
X50713Y-36830D01*
X49748Y-36225D02*
X50086Y-36225D01*
X52366Y-33965D02*
X54055Y-32276D01*
X54055Y-32276D02*
X54866Y-32276D01*
X54866Y-32276D02*
X55307Y-31834D01*
X51149Y-33965D02*
X52366Y-33965D01*
X50386Y-34728D02*
X51149Y-33965D01*
X50386Y-35925D02*
X50386Y-34728D01*
X50086Y-36225D02*
X50386Y-35925D01*
X52898Y-37992D02*
X51717Y-37992D01*
X53063Y-38157D02*
X52898Y-37992D01*
X53063Y-41260D02*
X53063Y-38157D01*
X52591Y-41732D02*
X53063Y-41260D01*
X52535Y-41732D02*
X52591Y-41732D01*
X48173Y-42331D02*
X50886Y-42331D01*
X52118Y-42528D02*
X52118Y-42354D01*
X52004Y-42642D02*
X52118Y-42528D01*
X51197Y-42642D02*
X52004Y-42642D01*
X50886Y-42331D02*
X51197Y-42642D01*
X48173Y-40748D02*
X50792Y-40748D01*
X54834Y-42913D02*
X54984Y-43063D01*
X54631Y-42913D02*
X54834Y-42913D01*
X54461Y-43083D02*
X54631Y-42913D01*
X53410Y-43083D02*
X54461Y-43083D01*
X51921Y-41610D02*
X53410Y-43083D01*
X51921Y-41146D02*
X51921Y-41610D01*
X51422Y-40642D02*
X51921Y-41146D01*
X50898Y-40642D02*
X51422Y-40642D01*
X50792Y-40748D02*
X50898Y-40642D01*
X51752Y-40748D02*
X51752Y-40854D01*
X55201Y-42815D02*
X55453Y-43067D01*
X54579Y-42815D02*
X55201Y-42815D01*
X54410Y-42984D02*
X54579Y-42815D01*
X53441Y-42984D02*
X54410Y-42984D01*
X52028Y-41571D02*
X53441Y-42984D01*
X52028Y-41130D02*
X52028Y-41571D01*
X51752Y-40854D02*
X52028Y-41130D01*
X48181Y-42130D02*
X50871Y-42130D01*
X51725Y-42547D02*
X51917Y-42355D01*
X51288Y-42547D02*
X51725Y-42547D01*
X50871Y-42130D02*
X51288Y-42547D01*
X48197Y-41732D02*
X50941Y-41732D01*
X51398Y-42189D02*
X51398Y-42355D01*
X50941Y-41732D02*
X51398Y-42189D01*
X48075Y-41142D02*
X50673Y-41142D01*
X51638Y-42107D02*
X51638Y-42355D01*
X50673Y-41142D02*
X51638Y-42107D01*
X48201Y-40949D02*
X50862Y-40949D01*
X54571Y-43205D02*
X54721Y-43055D01*
X53323Y-43205D02*
X54571Y-43205D01*
X51760Y-41587D02*
X53323Y-43205D01*
X51764Y-41146D02*
X51760Y-41587D01*
X51366Y-40744D02*
X51764Y-41146D01*
X51067Y-40744D02*
X51366Y-40744D01*
X50862Y-40949D02*
X51067Y-40744D01*
X51091Y-40949D02*
X51323Y-40949D01*
X54969Y-43323D02*
X55225Y-43067D01*
X53304Y-43323D02*
X54969Y-43323D01*
X52796Y-42815D02*
X53304Y-43323D01*
X52457Y-42815D02*
X52796Y-42815D01*
X52350Y-42708D02*
X52457Y-42815D01*
X52350Y-42315D02*
X52350Y-42708D01*
X52236Y-42201D02*
X52350Y-42315D01*
X51926Y-42201D02*
X52236Y-42201D01*
X51547Y-41822D02*
X51926Y-42201D01*
X51547Y-41173D02*
X51547Y-41822D01*
X51323Y-40949D02*
X51547Y-41173D01*
X59228Y-40721D02*
X59303Y-40718D01*
X51669Y-35902D02*
X51669Y-35288D01*
X52669Y-36902D02*
X51669Y-35902D01*
X54802Y-36902D02*
X52669Y-36902D01*
X55283Y-36421D02*
X54802Y-36902D01*
X56102Y-36421D02*
X55283Y-36421D01*
X57441Y-37760D02*
X56102Y-36421D01*
X57441Y-38252D02*
X57441Y-37760D01*
X57520Y-38331D02*
X57441Y-38252D01*
X59193Y-38331D02*
X57520Y-38331D01*
X59429Y-38571D02*
X59193Y-38331D01*
X59429Y-39728D02*
X59429Y-38571D01*
X59362Y-39795D02*
X59429Y-39728D01*
X59364Y-40659D02*
X59362Y-39795D01*
X59303Y-40718D02*
X59364Y-40659D01*
X49428Y-42725D02*
X49535Y-42618D01*
X48154Y-42725D02*
X49428Y-42725D01*
G54D10*
G36*
X50493Y-36603D02*
X50386Y-36710D01*
X49806Y-36710D01*
X49762Y-36718D01*
X49726Y-36743D01*
X49726Y-36743D01*
X49554Y-36915D01*
X49529Y-36951D01*
X49521Y-36995D01*
X49521Y-37074D01*
X49488Y-37107D01*
X49467Y-37158D01*
X49467Y-36370D01*
X49576Y-36261D01*
X49602Y-36322D01*
X49602Y-36322D01*
X49598Y-36327D01*
X49572Y-36390D01*
X49571Y-36459D01*
X49598Y-36522D01*
X49646Y-36570D01*
X49709Y-36596D01*
X49778Y-36597D01*
X49841Y-36570D01*
X49874Y-36538D01*
X50248Y-36538D01*
X50291Y-36529D01*
X50327Y-36504D01*
X50493Y-36339D01*
X50493Y-36603D01*
X50493Y-36603D01*
G37*
G54D26*
X50493Y-36603D02*
X50386Y-36710D01*
X49806Y-36710D01*
X49762Y-36718D01*
X49726Y-36743D01*
X49726Y-36743D01*
X49554Y-36915D01*
X49529Y-36951D01*
X49521Y-36995D01*
X49521Y-37074D01*
X49488Y-37107D01*
X49467Y-37158D01*
X49467Y-36370D01*
X49576Y-36261D01*
X49602Y-36322D01*
X49602Y-36322D01*
X49598Y-36327D01*
X49572Y-36390D01*
X49571Y-36459D01*
X49598Y-36522D01*
X49646Y-36570D01*
X49709Y-36596D01*
X49778Y-36597D01*
X49841Y-36570D01*
X49874Y-36538D01*
X50248Y-36538D01*
X50291Y-36529D01*
X50327Y-36504D01*
X50493Y-36339D01*
X50493Y-36603D01*
G54D10*
G36*
X51072Y-37661D02*
X51051Y-37682D01*
X50792Y-37682D01*
X50922Y-37551D01*
X50947Y-37515D01*
X50956Y-37472D01*
X50956Y-35443D01*
X51072Y-35327D01*
X51072Y-37661D01*
X51072Y-37661D01*
G37*
G54D26*
X51072Y-37661D02*
X51051Y-37682D01*
X50792Y-37682D01*
X50922Y-37551D01*
X50947Y-37515D01*
X50956Y-37472D01*
X50956Y-35443D01*
X51072Y-35327D01*
X51072Y-37661D01*
G54D10*
G36*
X52950Y-41213D02*
X52637Y-41526D01*
X52637Y-41008D01*
X52610Y-40945D01*
X52562Y-40897D01*
X52499Y-40871D01*
X52447Y-40870D01*
X52448Y-40812D01*
X52421Y-40749D01*
X52377Y-40705D01*
X52384Y-40688D01*
X52385Y-40619D01*
X52358Y-40556D01*
X52343Y-40540D01*
X52345Y-40539D01*
X52393Y-40491D01*
X52419Y-40428D01*
X52420Y-40359D01*
X52393Y-40296D01*
X52345Y-40248D01*
X52282Y-40222D01*
X52235Y-40221D01*
X52201Y-40187D01*
X52266Y-40188D01*
X52329Y-40161D01*
X52377Y-40113D01*
X52403Y-40050D01*
X52404Y-39987D01*
X52436Y-39987D01*
X52499Y-39960D01*
X52547Y-39912D01*
X52573Y-39849D01*
X52574Y-39780D01*
X52547Y-39717D01*
X52499Y-39669D01*
X52436Y-39643D01*
X52389Y-39642D01*
X52036Y-39290D01*
X52000Y-39265D01*
X51957Y-39257D01*
X48327Y-39257D01*
X48294Y-39224D01*
X48231Y-39198D01*
X48162Y-39197D01*
X48099Y-39224D01*
X48051Y-39272D01*
X48025Y-39335D01*
X48024Y-39404D01*
X48051Y-39467D01*
X48099Y-39515D01*
X48162Y-39541D01*
X48231Y-39542D01*
X48294Y-39515D01*
X48327Y-39483D01*
X51910Y-39483D01*
X52230Y-39802D01*
X52229Y-39843D01*
X52219Y-39843D01*
X52063Y-39688D01*
X52027Y-39663D01*
X51984Y-39655D01*
X48331Y-39655D01*
X48298Y-39622D01*
X48235Y-39596D01*
X48166Y-39595D01*
X48103Y-39622D01*
X48055Y-39670D01*
X48029Y-39733D01*
X48028Y-39802D01*
X48051Y-39855D01*
X48039Y-39867D01*
X48013Y-39930D01*
X48012Y-39999D01*
X48039Y-40062D01*
X48087Y-40110D01*
X48150Y-40136D01*
X48219Y-40137D01*
X48282Y-40110D01*
X48315Y-40078D01*
X51772Y-40078D01*
X51941Y-40247D01*
X51914Y-40242D01*
X48311Y-40242D01*
X48278Y-40209D01*
X48215Y-40183D01*
X48146Y-40182D01*
X48083Y-40209D01*
X48035Y-40257D01*
X48009Y-40320D01*
X48008Y-40389D01*
X48035Y-40452D01*
X48083Y-40500D01*
X48146Y-40526D01*
X48215Y-40527D01*
X48278Y-40500D01*
X48311Y-40468D01*
X51867Y-40468D01*
X52041Y-40641D01*
X52040Y-40688D01*
X52067Y-40751D01*
X52111Y-40795D01*
X52104Y-40812D01*
X52103Y-40881D01*
X52130Y-40944D01*
X52178Y-40992D01*
X52241Y-41018D01*
X52293Y-41019D01*
X52292Y-41077D01*
X52319Y-41140D01*
X52367Y-41188D01*
X52430Y-41214D01*
X52499Y-41215D01*
X52562Y-41188D01*
X52610Y-41140D01*
X52636Y-41077D01*
X52637Y-41008D01*
X52637Y-41526D01*
X52593Y-41569D01*
X52569Y-41560D01*
X52500Y-41559D01*
X52437Y-41586D01*
X52389Y-41634D01*
X52363Y-41697D01*
X52362Y-41746D01*
X52141Y-41524D01*
X52141Y-41130D01*
X52132Y-41086D01*
X52107Y-41050D01*
X51899Y-40841D01*
X51923Y-40782D01*
X51924Y-40713D01*
X51897Y-40650D01*
X51849Y-40602D01*
X51786Y-40576D01*
X51717Y-40575D01*
X51654Y-40602D01*
X51606Y-40650D01*
X51601Y-40662D01*
X51502Y-40562D01*
X51502Y-40562D01*
X51501Y-40562D01*
X51483Y-40549D01*
X51465Y-40537D01*
X51465Y-40537D01*
X51465Y-40537D01*
X51443Y-40533D01*
X51422Y-40529D01*
X51422Y-40529D01*
X51422Y-40529D01*
X50898Y-40529D01*
X50897Y-40529D01*
X50854Y-40537D01*
X50818Y-40562D01*
X50818Y-40562D01*
X50745Y-40635D01*
X48303Y-40635D01*
X48270Y-40602D01*
X48207Y-40576D01*
X48138Y-40575D01*
X48075Y-40602D01*
X48027Y-40650D01*
X48001Y-40713D01*
X48000Y-40782D01*
X48027Y-40845D01*
X48048Y-40867D01*
X48029Y-40914D01*
X48028Y-40974D01*
X47977Y-40996D01*
X47972Y-41001D01*
X47972Y-38919D01*
X47981Y-38928D01*
X48044Y-38954D01*
X48113Y-38955D01*
X48176Y-38928D01*
X48209Y-38896D01*
X51941Y-38896D01*
X52214Y-39168D01*
X52213Y-39215D01*
X52240Y-39278D01*
X52288Y-39326D01*
X52351Y-39352D01*
X52420Y-39353D01*
X52483Y-39326D01*
X52531Y-39278D01*
X52557Y-39215D01*
X52558Y-39146D01*
X52531Y-39083D01*
X52483Y-39035D01*
X52420Y-39009D01*
X52373Y-39008D01*
X52292Y-38927D01*
X52331Y-38943D01*
X52400Y-38944D01*
X52463Y-38917D01*
X52511Y-38869D01*
X52537Y-38806D01*
X52538Y-38737D01*
X52511Y-38674D01*
X52463Y-38626D01*
X52400Y-38600D01*
X52353Y-38599D01*
X52264Y-38511D01*
X52246Y-38499D01*
X52292Y-38499D01*
X52335Y-38490D01*
X52371Y-38465D01*
X52503Y-38333D01*
X52550Y-38334D01*
X52613Y-38307D01*
X52661Y-38259D01*
X52687Y-38196D01*
X52688Y-38127D01*
X52678Y-38105D01*
X52851Y-38105D01*
X52950Y-38203D01*
X52950Y-41213D01*
X52950Y-41213D01*
G37*
G54D26*
X52950Y-41213D02*
X52637Y-41526D01*
X52637Y-41008D01*
X52610Y-40945D01*
X52562Y-40897D01*
X52499Y-40871D01*
X52447Y-40870D01*
X52448Y-40812D01*
X52421Y-40749D01*
X52377Y-40705D01*
X52384Y-40688D01*
X52385Y-40619D01*
X52358Y-40556D01*
X52343Y-40540D01*
X52345Y-40539D01*
X52393Y-40491D01*
X52419Y-40428D01*
X52420Y-40359D01*
X52393Y-40296D01*
X52345Y-40248D01*
X52282Y-40222D01*
X52235Y-40221D01*
X52201Y-40187D01*
X52266Y-40188D01*
X52329Y-40161D01*
X52377Y-40113D01*
X52403Y-40050D01*
X52404Y-39987D01*
X52436Y-39987D01*
X52499Y-39960D01*
X52547Y-39912D01*
X52573Y-39849D01*
X52574Y-39780D01*
X52547Y-39717D01*
X52499Y-39669D01*
X52436Y-39643D01*
X52389Y-39642D01*
X52036Y-39290D01*
X52000Y-39265D01*
X51957Y-39257D01*
X48327Y-39257D01*
X48294Y-39224D01*
X48231Y-39198D01*
X48162Y-39197D01*
X48099Y-39224D01*
X48051Y-39272D01*
X48025Y-39335D01*
X48024Y-39404D01*
X48051Y-39467D01*
X48099Y-39515D01*
X48162Y-39541D01*
X48231Y-39542D01*
X48294Y-39515D01*
X48327Y-39483D01*
X51910Y-39483D01*
X52230Y-39802D01*
X52229Y-39843D01*
X52219Y-39843D01*
X52063Y-39688D01*
X52027Y-39663D01*
X51984Y-39655D01*
X48331Y-39655D01*
X48298Y-39622D01*
X48235Y-39596D01*
X48166Y-39595D01*
X48103Y-39622D01*
X48055Y-39670D01*
X48029Y-39733D01*
X48028Y-39802D01*
X48051Y-39855D01*
X48039Y-39867D01*
X48013Y-39930D01*
X48012Y-39999D01*
X48039Y-40062D01*
X48087Y-40110D01*
X48150Y-40136D01*
X48219Y-40137D01*
X48282Y-40110D01*
X48315Y-40078D01*
X51772Y-40078D01*
X51941Y-40247D01*
X51914Y-40242D01*
X48311Y-40242D01*
X48278Y-40209D01*
X48215Y-40183D01*
X48146Y-40182D01*
X48083Y-40209D01*
X48035Y-40257D01*
X48009Y-40320D01*
X48008Y-40389D01*
X48035Y-40452D01*
X48083Y-40500D01*
X48146Y-40526D01*
X48215Y-40527D01*
X48278Y-40500D01*
X48311Y-40468D01*
X51867Y-40468D01*
X52041Y-40641D01*
X52040Y-40688D01*
X52067Y-40751D01*
X52111Y-40795D01*
X52104Y-40812D01*
X52103Y-40881D01*
X52130Y-40944D01*
X52178Y-40992D01*
X52241Y-41018D01*
X52293Y-41019D01*
X52292Y-41077D01*
X52319Y-41140D01*
X52367Y-41188D01*
X52430Y-41214D01*
X52499Y-41215D01*
X52562Y-41188D01*
X52610Y-41140D01*
X52636Y-41077D01*
X52637Y-41008D01*
X52637Y-41526D01*
X52593Y-41569D01*
X52569Y-41560D01*
X52500Y-41559D01*
X52437Y-41586D01*
X52389Y-41634D01*
X52363Y-41697D01*
X52362Y-41746D01*
X52141Y-41524D01*
X52141Y-41130D01*
X52132Y-41086D01*
X52107Y-41050D01*
X51899Y-40841D01*
X51923Y-40782D01*
X51924Y-40713D01*
X51897Y-40650D01*
X51849Y-40602D01*
X51786Y-40576D01*
X51717Y-40575D01*
X51654Y-40602D01*
X51606Y-40650D01*
X51601Y-40662D01*
X51502Y-40562D01*
X51502Y-40562D01*
X51501Y-40562D01*
X51483Y-40549D01*
X51465Y-40537D01*
X51465Y-40537D01*
X51465Y-40537D01*
X51443Y-40533D01*
X51422Y-40529D01*
X51422Y-40529D01*
X51422Y-40529D01*
X50898Y-40529D01*
X50897Y-40529D01*
X50854Y-40537D01*
X50818Y-40562D01*
X50818Y-40562D01*
X50745Y-40635D01*
X48303Y-40635D01*
X48270Y-40602D01*
X48207Y-40576D01*
X48138Y-40575D01*
X48075Y-40602D01*
X48027Y-40650D01*
X48001Y-40713D01*
X48000Y-40782D01*
X48027Y-40845D01*
X48048Y-40867D01*
X48029Y-40914D01*
X48028Y-40974D01*
X47977Y-40996D01*
X47972Y-41001D01*
X47972Y-38919D01*
X47981Y-38928D01*
X48044Y-38954D01*
X48113Y-38955D01*
X48176Y-38928D01*
X48209Y-38896D01*
X51941Y-38896D01*
X52214Y-39168D01*
X52213Y-39215D01*
X52240Y-39278D01*
X52288Y-39326D01*
X52351Y-39352D01*
X52420Y-39353D01*
X52483Y-39326D01*
X52531Y-39278D01*
X52557Y-39215D01*
X52558Y-39146D01*
X52531Y-39083D01*
X52483Y-39035D01*
X52420Y-39009D01*
X52373Y-39008D01*
X52292Y-38927D01*
X52331Y-38943D01*
X52400Y-38944D01*
X52463Y-38917D01*
X52511Y-38869D01*
X52537Y-38806D01*
X52538Y-38737D01*
X52511Y-38674D01*
X52463Y-38626D01*
X52400Y-38600D01*
X52353Y-38599D01*
X52264Y-38511D01*
X52246Y-38499D01*
X52292Y-38499D01*
X52335Y-38490D01*
X52371Y-38465D01*
X52503Y-38333D01*
X52550Y-38334D01*
X52613Y-38307D01*
X52661Y-38259D01*
X52687Y-38196D01*
X52688Y-38127D01*
X52678Y-38105D01*
X52851Y-38105D01*
X52950Y-38203D01*
X52950Y-41213D01*
G54D10*
G36*
X55184Y-41364D02*
X54934Y-41631D01*
X53796Y-41631D01*
X53821Y-41570D01*
X53822Y-41501D01*
X53795Y-41438D01*
X53747Y-41390D01*
X53699Y-41370D01*
X53736Y-41333D01*
X53762Y-41270D01*
X53763Y-41201D01*
X53742Y-41153D01*
X55097Y-41153D01*
X55088Y-41174D01*
X55087Y-41243D01*
X55114Y-41306D01*
X55162Y-41354D01*
X55184Y-41364D01*
X55184Y-41364D01*
G37*
G54D26*
X55184Y-41364D02*
X54934Y-41631D01*
X53796Y-41631D01*
X53821Y-41570D01*
X53822Y-41501D01*
X53795Y-41438D01*
X53747Y-41390D01*
X53699Y-41370D01*
X53736Y-41333D01*
X53762Y-41270D01*
X53763Y-41201D01*
X53742Y-41153D01*
X55097Y-41153D01*
X55088Y-41174D01*
X55087Y-41243D01*
X55114Y-41306D01*
X55162Y-41354D01*
X55184Y-41364D01*
G54D10*
G36*
X55621Y-41990D02*
X55098Y-42517D01*
X53441Y-42517D01*
X53215Y-42290D01*
X53215Y-42089D01*
X53227Y-42107D01*
X53321Y-42201D01*
X53321Y-42201D01*
X53357Y-42226D01*
X53401Y-42235D01*
X53448Y-42235D01*
X53481Y-42267D01*
X53544Y-42293D01*
X53613Y-42294D01*
X53676Y-42267D01*
X53724Y-42219D01*
X53750Y-42156D01*
X53751Y-42087D01*
X53730Y-42038D01*
X55000Y-42038D01*
X55043Y-42029D01*
X55079Y-42004D01*
X55273Y-41811D01*
X55272Y-41880D01*
X55299Y-41943D01*
X55347Y-41991D01*
X55410Y-42017D01*
X55479Y-42018D01*
X55542Y-41991D01*
X55578Y-41955D01*
X55607Y-41984D01*
X55621Y-41990D01*
X55621Y-41990D01*
G37*
G54D26*
X55621Y-41990D02*
X55098Y-42517D01*
X53441Y-42517D01*
X53215Y-42290D01*
X53215Y-42089D01*
X53227Y-42107D01*
X53321Y-42201D01*
X53321Y-42201D01*
X53357Y-42226D01*
X53401Y-42235D01*
X53448Y-42235D01*
X53481Y-42267D01*
X53544Y-42293D01*
X53613Y-42294D01*
X53676Y-42267D01*
X53724Y-42219D01*
X53750Y-42156D01*
X53751Y-42087D01*
X53730Y-42038D01*
X55000Y-42038D01*
X55043Y-42029D01*
X55079Y-42004D01*
X55273Y-41811D01*
X55272Y-41880D01*
X55299Y-41943D01*
X55347Y-41991D01*
X55410Y-42017D01*
X55479Y-42018D01*
X55542Y-41991D01*
X55578Y-41955D01*
X55607Y-41984D01*
X55621Y-41990D01*
G54D10*
G36*
X58101Y-37501D02*
X57963Y-37501D01*
X56295Y-35833D01*
X56433Y-35833D01*
X58101Y-37501D01*
X58101Y-37501D01*
G37*
G54D26*
X58101Y-37501D02*
X57963Y-37501D01*
X56295Y-35833D01*
X56433Y-35833D01*
X58101Y-37501D01*
G54D10*
G36*
X66004Y-49547D02*
X63706Y-49542D01*
X63706Y-31756D01*
X63646Y-31612D01*
X63536Y-31501D01*
X63392Y-31442D01*
X63236Y-31441D01*
X63092Y-31501D01*
X62981Y-31611D01*
X62922Y-31755D01*
X62921Y-31911D01*
X62981Y-32055D01*
X63091Y-32166D01*
X63235Y-32225D01*
X63391Y-32226D01*
X63535Y-32166D01*
X63646Y-32056D01*
X63705Y-31912D01*
X63706Y-31756D01*
X63706Y-49542D01*
X63435Y-49541D01*
X63435Y-48272D01*
X63375Y-48128D01*
X63265Y-48017D01*
X63121Y-47958D01*
X62965Y-47957D01*
X62821Y-48017D01*
X62710Y-48127D01*
X62706Y-48139D01*
X62706Y-31756D01*
X62646Y-31612D01*
X62536Y-31501D01*
X62392Y-31442D01*
X62236Y-31441D01*
X62092Y-31501D01*
X61981Y-31611D01*
X61922Y-31755D01*
X61921Y-31911D01*
X61981Y-32055D01*
X62091Y-32166D01*
X62235Y-32225D01*
X62391Y-32226D01*
X62535Y-32166D01*
X62646Y-32056D01*
X62705Y-31912D01*
X62706Y-31756D01*
X62706Y-48139D01*
X62651Y-48271D01*
X62650Y-48427D01*
X62710Y-48571D01*
X62820Y-48682D01*
X62964Y-48741D01*
X63120Y-48742D01*
X63264Y-48682D01*
X63375Y-48572D01*
X63434Y-48428D01*
X63435Y-48272D01*
X63435Y-49541D01*
X62435Y-49539D01*
X62435Y-48272D01*
X62375Y-48128D01*
X62265Y-48017D01*
X62230Y-48003D01*
X62230Y-39765D01*
X62201Y-39694D01*
X62156Y-39649D01*
X62197Y-39608D01*
X62226Y-39538D01*
X62227Y-39462D01*
X62198Y-39391D01*
X62144Y-39338D01*
X62074Y-39309D01*
X61998Y-39308D01*
X61927Y-39337D01*
X61874Y-39391D01*
X61845Y-39461D01*
X61844Y-39537D01*
X61873Y-39608D01*
X61918Y-39653D01*
X61877Y-39694D01*
X61848Y-39764D01*
X61847Y-39840D01*
X61876Y-39911D01*
X61930Y-39964D01*
X62000Y-39993D01*
X62076Y-39994D01*
X62147Y-39965D01*
X62200Y-39911D01*
X62229Y-39841D01*
X62230Y-39765D01*
X62230Y-48003D01*
X62121Y-47958D01*
X62012Y-47957D01*
X62012Y-41980D01*
X61983Y-41909D01*
X61929Y-41856D01*
X61919Y-41851D01*
X61919Y-40608D01*
X61890Y-40537D01*
X61836Y-40484D01*
X61785Y-40462D01*
X61785Y-38045D01*
X61756Y-37974D01*
X61702Y-37921D01*
X61698Y-37919D01*
X61698Y-31849D01*
X61674Y-31700D01*
X61663Y-31673D01*
X61619Y-31634D01*
X61513Y-31740D01*
X61513Y-31528D01*
X61474Y-31484D01*
X61329Y-31449D01*
X61180Y-31473D01*
X61153Y-31484D01*
X61114Y-31528D01*
X61314Y-31727D01*
X61513Y-31528D01*
X61513Y-31740D01*
X61420Y-31834D01*
X61619Y-32033D01*
X61663Y-31994D01*
X61698Y-31849D01*
X61698Y-37919D01*
X61632Y-37892D01*
X61556Y-37891D01*
X61513Y-37909D01*
X61513Y-32139D01*
X61314Y-31940D01*
X61207Y-32046D01*
X61207Y-31834D01*
X61008Y-31634D01*
X60964Y-31673D01*
X60929Y-31818D01*
X60953Y-31967D01*
X60964Y-31994D01*
X61008Y-32033D01*
X61207Y-31834D01*
X61207Y-32046D01*
X61114Y-32139D01*
X61153Y-32183D01*
X61298Y-32218D01*
X61447Y-32194D01*
X61474Y-32183D01*
X61513Y-32139D01*
X61513Y-37909D01*
X61485Y-37920D01*
X61432Y-37974D01*
X61403Y-38044D01*
X61402Y-38120D01*
X61431Y-38191D01*
X61485Y-38244D01*
X61555Y-38273D01*
X61631Y-38274D01*
X61702Y-38245D01*
X61755Y-38191D01*
X61784Y-38121D01*
X61785Y-38045D01*
X61785Y-40462D01*
X61766Y-40455D01*
X61690Y-40454D01*
X61619Y-40483D01*
X61566Y-40537D01*
X61537Y-40607D01*
X61536Y-40683D01*
X61565Y-40754D01*
X61619Y-40807D01*
X61689Y-40836D01*
X61765Y-40837D01*
X61836Y-40808D01*
X61889Y-40754D01*
X61918Y-40684D01*
X61919Y-40608D01*
X61919Y-41851D01*
X61859Y-41827D01*
X61783Y-41826D01*
X61712Y-41855D01*
X61659Y-41909D01*
X61630Y-41979D01*
X61629Y-42055D01*
X61658Y-42126D01*
X61712Y-42179D01*
X61782Y-42208D01*
X61858Y-42209D01*
X61929Y-42180D01*
X61982Y-42126D01*
X62011Y-42056D01*
X62012Y-41980D01*
X62012Y-47957D01*
X61965Y-47957D01*
X61864Y-47999D01*
X61864Y-43217D01*
X61838Y-43154D01*
X61790Y-43106D01*
X61727Y-43079D01*
X61658Y-43079D01*
X61595Y-43106D01*
X61547Y-43154D01*
X61520Y-43217D01*
X61520Y-43286D01*
X61547Y-43349D01*
X61595Y-43397D01*
X61658Y-43423D01*
X61726Y-43423D01*
X61790Y-43397D01*
X61838Y-43349D01*
X61864Y-43286D01*
X61864Y-43217D01*
X61864Y-47999D01*
X61821Y-48017D01*
X61710Y-48127D01*
X61651Y-48271D01*
X61650Y-48427D01*
X61710Y-48571D01*
X61820Y-48682D01*
X61964Y-48741D01*
X62120Y-48742D01*
X62264Y-48682D01*
X62375Y-48572D01*
X62434Y-48428D01*
X62435Y-48272D01*
X62435Y-49539D01*
X61576Y-49537D01*
X61576Y-44985D01*
X61565Y-44957D01*
X61565Y-44591D01*
X61545Y-44543D01*
X61507Y-44506D01*
X61459Y-44486D01*
X61406Y-44486D01*
X61358Y-44506D01*
X61321Y-44543D01*
X61302Y-44589D01*
X60706Y-45185D01*
X60706Y-31756D01*
X60646Y-31612D01*
X60536Y-31501D01*
X60392Y-31442D01*
X60236Y-31441D01*
X60092Y-31501D01*
X59981Y-31611D01*
X59922Y-31755D01*
X59921Y-31911D01*
X59981Y-32055D01*
X60091Y-32166D01*
X60235Y-32225D01*
X60391Y-32226D01*
X60535Y-32166D01*
X60646Y-32056D01*
X60705Y-31912D01*
X60706Y-31756D01*
X60706Y-45185D01*
X60645Y-45246D01*
X60645Y-40965D01*
X60618Y-40902D01*
X60570Y-40854D01*
X60507Y-40828D01*
X60438Y-40827D01*
X60375Y-40854D01*
X60327Y-40902D01*
X60301Y-40965D01*
X60300Y-41034D01*
X60327Y-41097D01*
X60375Y-41145D01*
X60438Y-41171D01*
X60507Y-41172D01*
X60570Y-41145D01*
X60618Y-41097D01*
X60644Y-41034D01*
X60645Y-40965D01*
X60645Y-45246D01*
X60413Y-45477D01*
X59453Y-45477D01*
X59453Y-42032D01*
X59426Y-41969D01*
X59389Y-41932D01*
X59417Y-41904D01*
X59443Y-41841D01*
X59444Y-41772D01*
X59417Y-41709D01*
X59369Y-41661D01*
X59306Y-41635D01*
X59237Y-41634D01*
X59174Y-41661D01*
X59126Y-41709D01*
X59100Y-41772D01*
X59099Y-41841D01*
X59126Y-41904D01*
X59163Y-41941D01*
X59135Y-41969D01*
X59109Y-42032D01*
X59108Y-42101D01*
X59135Y-42164D01*
X59183Y-42212D01*
X59246Y-42238D01*
X59315Y-42239D01*
X59378Y-42212D01*
X59426Y-42164D01*
X59452Y-42101D01*
X59453Y-42032D01*
X59453Y-45477D01*
X58912Y-45477D01*
X58912Y-41934D01*
X58885Y-41871D01*
X58837Y-41823D01*
X58774Y-41797D01*
X58705Y-41796D01*
X58642Y-41823D01*
X58636Y-41829D01*
X58633Y-41827D01*
X58589Y-41808D01*
X58589Y-41477D01*
X58566Y-41421D01*
X58523Y-41378D01*
X58467Y-41355D01*
X58406Y-41355D01*
X58350Y-41378D01*
X58340Y-41388D01*
X58326Y-41374D01*
X58270Y-41351D01*
X58209Y-41351D01*
X58153Y-41374D01*
X58110Y-41417D01*
X58087Y-41473D01*
X58087Y-41534D01*
X58110Y-41590D01*
X58153Y-41633D01*
X58209Y-41656D01*
X58270Y-41656D01*
X58326Y-41633D01*
X58336Y-41623D01*
X58350Y-41637D01*
X58406Y-41660D01*
X58467Y-41660D01*
X58523Y-41637D01*
X58566Y-41594D01*
X58589Y-41538D01*
X58589Y-41477D01*
X58589Y-41808D01*
X58570Y-41801D01*
X58501Y-41800D01*
X58438Y-41827D01*
X58390Y-41875D01*
X58364Y-41938D01*
X58363Y-42007D01*
X58390Y-42070D01*
X58438Y-42118D01*
X58501Y-42144D01*
X58570Y-42145D01*
X58633Y-42118D01*
X58639Y-42112D01*
X58642Y-42114D01*
X58705Y-42140D01*
X58774Y-42141D01*
X58837Y-42114D01*
X58885Y-42066D01*
X58911Y-42003D01*
X58912Y-41934D01*
X58912Y-45477D01*
X58455Y-45477D01*
X58455Y-43108D01*
X58426Y-43037D01*
X58372Y-42984D01*
X58302Y-42955D01*
X58226Y-42954D01*
X58155Y-42983D01*
X58102Y-43037D01*
X58073Y-43107D01*
X58072Y-43183D01*
X58101Y-43254D01*
X58155Y-43307D01*
X58225Y-43336D01*
X58301Y-43337D01*
X58372Y-43308D01*
X58425Y-43254D01*
X58454Y-43184D01*
X58455Y-43108D01*
X58455Y-45477D01*
X57947Y-45477D01*
X57947Y-43411D01*
X57918Y-43340D01*
X57864Y-43287D01*
X57794Y-43258D01*
X57718Y-43257D01*
X57647Y-43286D01*
X57637Y-43297D01*
X57637Y-41902D01*
X57610Y-41839D01*
X57608Y-41836D01*
X57608Y-41836D01*
X57605Y-41823D01*
X57605Y-41823D01*
X57572Y-41774D01*
X57572Y-41774D01*
X57404Y-41606D01*
X57404Y-41535D01*
X57404Y-41534D01*
X57404Y-41473D01*
X57381Y-41417D01*
X57338Y-41374D01*
X57282Y-41351D01*
X57221Y-41351D01*
X57165Y-41374D01*
X57155Y-41384D01*
X57145Y-41374D01*
X57089Y-41351D01*
X57028Y-41351D01*
X56972Y-41374D01*
X56958Y-41388D01*
X56944Y-41374D01*
X56888Y-41351D01*
X56827Y-41351D01*
X56771Y-41374D01*
X56761Y-41384D01*
X56751Y-41374D01*
X56695Y-41351D01*
X56634Y-41351D01*
X56578Y-41374D01*
X56535Y-41417D01*
X56512Y-41473D01*
X56512Y-41534D01*
X56513Y-41535D01*
X56513Y-41654D01*
X56515Y-41664D01*
X56514Y-41674D01*
X56520Y-41693D01*
X56524Y-41712D01*
X56530Y-41720D01*
X56533Y-41730D01*
X56546Y-41745D01*
X56557Y-41761D01*
X56566Y-41767D01*
X56573Y-41775D01*
X56807Y-41952D01*
X56806Y-41971D01*
X56785Y-42024D01*
X56784Y-42093D01*
X56811Y-42156D01*
X56859Y-42204D01*
X56922Y-42230D01*
X56991Y-42231D01*
X57054Y-42204D01*
X57075Y-42184D01*
X57107Y-42216D01*
X57170Y-42242D01*
X57239Y-42243D01*
X57302Y-42216D01*
X57350Y-42168D01*
X57376Y-42105D01*
X57376Y-42086D01*
X57430Y-42108D01*
X57499Y-42109D01*
X57562Y-42082D01*
X57610Y-42034D01*
X57636Y-41971D01*
X57637Y-41902D01*
X57637Y-43297D01*
X57594Y-43340D01*
X57565Y-43410D01*
X57564Y-43486D01*
X57593Y-43557D01*
X57647Y-43610D01*
X57717Y-43639D01*
X57793Y-43640D01*
X57864Y-43611D01*
X57917Y-43557D01*
X57946Y-43487D01*
X57947Y-43411D01*
X57947Y-45477D01*
X57121Y-45477D01*
X57121Y-42583D01*
X57094Y-42520D01*
X57046Y-42472D01*
X56983Y-42446D01*
X56914Y-42445D01*
X56851Y-42472D01*
X56803Y-42520D01*
X56777Y-42583D01*
X56776Y-42652D01*
X56803Y-42715D01*
X56851Y-42763D01*
X56914Y-42789D01*
X56983Y-42790D01*
X57046Y-42763D01*
X57094Y-42715D01*
X57120Y-42652D01*
X57121Y-42583D01*
X57121Y-45477D01*
X56974Y-45477D01*
X56974Y-43135D01*
X56945Y-43064D01*
X56891Y-43011D01*
X56821Y-42982D01*
X56745Y-42981D01*
X56674Y-43010D01*
X56621Y-43064D01*
X56592Y-43134D01*
X56591Y-43210D01*
X56620Y-43281D01*
X56674Y-43334D01*
X56744Y-43363D01*
X56820Y-43364D01*
X56891Y-43335D01*
X56944Y-43281D01*
X56973Y-43211D01*
X56974Y-43135D01*
X56974Y-45477D01*
X56569Y-45477D01*
X56569Y-43937D01*
X56540Y-43866D01*
X56486Y-43813D01*
X56432Y-43790D01*
X56432Y-42918D01*
X56405Y-42855D01*
X56357Y-42807D01*
X56294Y-42781D01*
X56225Y-42780D01*
X56162Y-42807D01*
X56114Y-42855D01*
X56088Y-42918D01*
X56087Y-42987D01*
X56114Y-43050D01*
X56162Y-43098D01*
X56225Y-43124D01*
X56294Y-43125D01*
X56357Y-43098D01*
X56405Y-43050D01*
X56431Y-42987D01*
X56432Y-42918D01*
X56432Y-43790D01*
X56416Y-43784D01*
X56340Y-43783D01*
X56269Y-43812D01*
X56239Y-43842D01*
X56210Y-43813D01*
X56140Y-43784D01*
X56064Y-43783D01*
X55993Y-43812D01*
X55940Y-43866D01*
X55939Y-43869D01*
X55939Y-43512D01*
X55938Y-43511D01*
X55939Y-43474D01*
X55924Y-43438D01*
X55924Y-43438D01*
X55924Y-43438D01*
X55910Y-43403D01*
X55883Y-43376D01*
X55883Y-43376D01*
X55883Y-43376D01*
X55856Y-43350D01*
X55821Y-43335D01*
X55821Y-43335D01*
X55821Y-43335D01*
X55786Y-43321D01*
X55748Y-43321D01*
X55747Y-43321D01*
X55710Y-43320D01*
X55674Y-43335D01*
X55674Y-43335D01*
X55674Y-43335D01*
X55639Y-43349D01*
X55612Y-43376D01*
X55612Y-43376D01*
X55612Y-43376D01*
X55586Y-43403D01*
X55571Y-43438D01*
X55571Y-43438D01*
X55571Y-43438D01*
X55557Y-43473D01*
X55557Y-43511D01*
X55557Y-43512D01*
X55557Y-43512D01*
X55556Y-43549D01*
X55557Y-43549D01*
X55557Y-43999D01*
X54829Y-44726D01*
X54788Y-44788D01*
X54774Y-44862D01*
X54774Y-45130D01*
X54788Y-45203D01*
X54829Y-45265D01*
X54840Y-45276D01*
X54840Y-45313D01*
X54855Y-45349D01*
X54855Y-45349D01*
X54855Y-45349D01*
X54869Y-45384D01*
X54896Y-45411D01*
X54896Y-45411D01*
X54896Y-45411D01*
X54923Y-45437D01*
X54958Y-45452D01*
X54958Y-45452D01*
X54958Y-45452D01*
X54993Y-45466D01*
X55031Y-45466D01*
X55032Y-45467D01*
X55032Y-45466D01*
X55069Y-45467D01*
X55105Y-45452D01*
X55105Y-45452D01*
X55105Y-45452D01*
X55140Y-45438D01*
X55167Y-45411D01*
X55167Y-45411D01*
X55167Y-45411D01*
X55193Y-45384D01*
X55208Y-45349D01*
X55208Y-45349D01*
X55208Y-45349D01*
X55222Y-45314D01*
X55222Y-45276D01*
X55223Y-45276D01*
X55223Y-45275D01*
X55223Y-45238D01*
X55223Y-45238D01*
X55223Y-45197D01*
X55222Y-45196D01*
X55223Y-45196D01*
X55220Y-45182D01*
X55219Y-45179D01*
X55254Y-45179D01*
X55325Y-45150D01*
X55378Y-45096D01*
X55407Y-45026D01*
X55408Y-44950D01*
X55379Y-44879D01*
X55325Y-44826D01*
X55286Y-44810D01*
X55883Y-44214D01*
X55924Y-44152D01*
X55938Y-44080D01*
X55939Y-44083D01*
X55993Y-44136D01*
X56063Y-44165D01*
X56139Y-44166D01*
X56210Y-44137D01*
X56240Y-44107D01*
X56269Y-44136D01*
X56339Y-44165D01*
X56415Y-44166D01*
X56486Y-44137D01*
X56539Y-44083D01*
X56568Y-44013D01*
X56569Y-43937D01*
X56569Y-45477D01*
X54783Y-45477D01*
X54740Y-45486D01*
X54703Y-45510D01*
X53730Y-46484D01*
X53730Y-44159D01*
X53701Y-44088D01*
X53647Y-44035D01*
X53633Y-44029D01*
X53647Y-44024D01*
X53700Y-43970D01*
X53729Y-43900D01*
X53730Y-43824D01*
X53701Y-43753D01*
X53647Y-43700D01*
X53577Y-43671D01*
X53501Y-43670D01*
X53430Y-43699D01*
X53377Y-43753D01*
X53348Y-43823D01*
X53347Y-43899D01*
X53376Y-43970D01*
X53430Y-44023D01*
X53444Y-44029D01*
X53430Y-44034D01*
X53377Y-44088D01*
X53348Y-44158D01*
X53347Y-44234D01*
X53376Y-44305D01*
X53430Y-44358D01*
X53500Y-44387D01*
X53576Y-44388D01*
X53647Y-44359D01*
X53700Y-44305D01*
X53729Y-44235D01*
X53730Y-44159D01*
X53730Y-46484D01*
X53685Y-46528D01*
X53132Y-46528D01*
X53132Y-43582D01*
X53103Y-43511D01*
X53049Y-43458D01*
X52979Y-43429D01*
X52934Y-43428D01*
X52935Y-43386D01*
X52906Y-43315D01*
X52852Y-43262D01*
X52782Y-43233D01*
X52706Y-43232D01*
X52635Y-43261D01*
X52582Y-43315D01*
X52566Y-43353D01*
X52551Y-43315D01*
X52497Y-43262D01*
X52427Y-43233D01*
X52351Y-43232D01*
X52280Y-43261D01*
X52227Y-43315D01*
X52198Y-43385D01*
X52197Y-43429D01*
X52194Y-43429D01*
X52123Y-43458D01*
X52070Y-43512D01*
X52041Y-43582D01*
X52040Y-43658D01*
X52069Y-43729D01*
X52123Y-43782D01*
X52193Y-43811D01*
X52269Y-43812D01*
X52340Y-43783D01*
X52393Y-43729D01*
X52409Y-43692D01*
X52423Y-43729D01*
X52477Y-43782D01*
X52547Y-43811D01*
X52623Y-43812D01*
X52694Y-43783D01*
X52747Y-43729D01*
X52763Y-43691D01*
X52778Y-43728D01*
X52832Y-43781D01*
X52902Y-43810D01*
X52978Y-43811D01*
X53049Y-43782D01*
X53102Y-43728D01*
X53131Y-43658D01*
X53132Y-43582D01*
X53132Y-46528D01*
X53002Y-46528D01*
X53002Y-44954D01*
X52973Y-44883D01*
X52919Y-44830D01*
X52849Y-44801D01*
X52773Y-44800D01*
X52702Y-44829D01*
X52649Y-44883D01*
X52620Y-44953D01*
X52619Y-45029D01*
X52648Y-45100D01*
X52702Y-45153D01*
X52772Y-45182D01*
X52848Y-45183D01*
X52919Y-45154D01*
X52972Y-45100D01*
X53001Y-45030D01*
X53002Y-44954D01*
X53002Y-46528D01*
X52966Y-46528D01*
X52966Y-45355D01*
X52937Y-45285D01*
X52883Y-45231D01*
X52813Y-45202D01*
X52737Y-45202D01*
X52667Y-45231D01*
X52613Y-45285D01*
X52584Y-45355D01*
X52584Y-45431D01*
X52613Y-45501D01*
X52667Y-45555D01*
X52737Y-45584D01*
X52813Y-45584D01*
X52883Y-45555D01*
X52937Y-45502D01*
X52966Y-45431D01*
X52966Y-45355D01*
X52966Y-46528D01*
X52946Y-46528D01*
X52946Y-45769D01*
X52917Y-45699D01*
X52864Y-45645D01*
X52794Y-45616D01*
X52718Y-45616D01*
X52647Y-45645D01*
X52594Y-45698D01*
X52564Y-45768D01*
X52564Y-45844D01*
X52593Y-45915D01*
X52647Y-45968D01*
X52717Y-45998D01*
X52793Y-45998D01*
X52863Y-45969D01*
X52917Y-45915D01*
X52946Y-45845D01*
X52946Y-45769D01*
X52946Y-46528D01*
X52553Y-46528D01*
X52553Y-45907D01*
X52524Y-45836D01*
X52470Y-45783D01*
X52400Y-45753D01*
X52324Y-45753D01*
X52254Y-45782D01*
X52200Y-45836D01*
X52179Y-45887D01*
X52179Y-45749D01*
X52159Y-45701D01*
X52159Y-45355D01*
X52130Y-45285D01*
X52076Y-45231D01*
X52006Y-45202D01*
X51930Y-45202D01*
X51860Y-45231D01*
X51806Y-45285D01*
X51777Y-45355D01*
X51777Y-45431D01*
X51806Y-45501D01*
X51860Y-45555D01*
X51930Y-45584D01*
X52006Y-45584D01*
X52076Y-45555D01*
X52130Y-45502D01*
X52159Y-45431D01*
X52159Y-45355D01*
X52159Y-45701D01*
X52150Y-45679D01*
X52096Y-45625D01*
X52026Y-45596D01*
X51950Y-45596D01*
X51880Y-45625D01*
X51826Y-45679D01*
X51797Y-45749D01*
X51797Y-45825D01*
X51826Y-45895D01*
X51879Y-45949D01*
X51950Y-45978D01*
X52026Y-45978D01*
X52096Y-45949D01*
X52150Y-45895D01*
X52179Y-45825D01*
X52179Y-45749D01*
X52179Y-45887D01*
X52171Y-45906D01*
X52171Y-45982D01*
X52200Y-46052D01*
X52253Y-46106D01*
X52324Y-46135D01*
X52400Y-46135D01*
X52470Y-46106D01*
X52524Y-46053D01*
X52553Y-45983D01*
X52553Y-45907D01*
X52553Y-46528D01*
X51755Y-46528D01*
X51360Y-46133D01*
X51360Y-45025D01*
X51331Y-44954D01*
X51321Y-44945D01*
X51330Y-44935D01*
X51359Y-44865D01*
X51360Y-44789D01*
X51331Y-44718D01*
X51277Y-44665D01*
X51207Y-44636D01*
X51131Y-44635D01*
X51060Y-44664D01*
X51007Y-44718D01*
X50978Y-44788D01*
X50977Y-44864D01*
X51006Y-44935D01*
X51016Y-44944D01*
X51007Y-44954D01*
X50978Y-45024D01*
X50977Y-45100D01*
X51006Y-45171D01*
X51060Y-45224D01*
X51130Y-45253D01*
X51206Y-45254D01*
X51277Y-45225D01*
X51330Y-45171D01*
X51359Y-45101D01*
X51360Y-45025D01*
X51360Y-46133D01*
X49707Y-44480D01*
X49707Y-42583D01*
X49680Y-42520D01*
X49632Y-42472D01*
X49569Y-42446D01*
X49500Y-42445D01*
X49437Y-42472D01*
X49389Y-42520D01*
X49363Y-42583D01*
X49363Y-42612D01*
X48284Y-42612D01*
X48251Y-42579D01*
X48188Y-42553D01*
X48119Y-42552D01*
X48056Y-42579D01*
X48008Y-42627D01*
X47982Y-42690D01*
X47981Y-42759D01*
X48008Y-42822D01*
X48056Y-42870D01*
X48119Y-42896D01*
X48188Y-42897D01*
X48251Y-42870D01*
X48284Y-42838D01*
X49428Y-42838D01*
X49471Y-42829D01*
X49507Y-42804D01*
X49522Y-42789D01*
X49569Y-42790D01*
X49632Y-42763D01*
X49680Y-42715D01*
X49706Y-42652D01*
X49707Y-42583D01*
X49707Y-44480D01*
X49191Y-43965D01*
X49191Y-43353D01*
X49207Y-43338D01*
X49230Y-43282D01*
X49230Y-43221D01*
X49207Y-43165D01*
X49164Y-43123D01*
X49109Y-43099D01*
X49048Y-43099D01*
X48992Y-43123D01*
X48949Y-43165D01*
X48926Y-43221D01*
X48926Y-43282D01*
X48949Y-43337D01*
X48965Y-43353D01*
X48965Y-44011D01*
X48974Y-44055D01*
X48998Y-44091D01*
X51628Y-46721D01*
X51628Y-46721D01*
X51665Y-46746D01*
X51708Y-46754D01*
X53732Y-46754D01*
X53775Y-46746D01*
X53812Y-46721D01*
X54830Y-45703D01*
X60460Y-45703D01*
X60503Y-45694D01*
X60540Y-45670D01*
X61462Y-44748D01*
X61507Y-44730D01*
X61544Y-44692D01*
X61565Y-44644D01*
X61565Y-44591D01*
X61565Y-44957D01*
X61556Y-44937D01*
X61519Y-44899D01*
X61471Y-44879D01*
X61418Y-44879D01*
X61370Y-44899D01*
X61333Y-44936D01*
X61312Y-44985D01*
X61312Y-45037D01*
X61332Y-45086D01*
X61370Y-45123D01*
X61418Y-45143D01*
X61471Y-45143D01*
X61519Y-45123D01*
X61556Y-45086D01*
X61576Y-45038D01*
X61576Y-44985D01*
X61576Y-49537D01*
X60435Y-49535D01*
X60435Y-48272D01*
X60375Y-48128D01*
X60265Y-48017D01*
X60121Y-47958D01*
X59965Y-47957D01*
X59821Y-48017D01*
X59710Y-48127D01*
X59651Y-48271D01*
X59650Y-48427D01*
X59710Y-48571D01*
X59820Y-48682D01*
X59964Y-48741D01*
X60120Y-48742D01*
X60264Y-48682D01*
X60375Y-48572D01*
X60434Y-48428D01*
X60435Y-48272D01*
X60435Y-49535D01*
X59435Y-49533D01*
X59435Y-48609D01*
X59435Y-48012D01*
X59420Y-47978D01*
X59394Y-47952D01*
X59360Y-47938D01*
X59322Y-47937D01*
X59167Y-47937D01*
X59167Y-46734D01*
X59138Y-46663D01*
X59084Y-46610D01*
X59014Y-46581D01*
X58938Y-46580D01*
X58867Y-46609D01*
X58814Y-46663D01*
X58785Y-46733D01*
X58784Y-46809D01*
X58813Y-46880D01*
X58867Y-46933D01*
X58937Y-46962D01*
X59013Y-46963D01*
X59084Y-46934D01*
X59137Y-46880D01*
X59166Y-46810D01*
X59167Y-46734D01*
X59167Y-47937D01*
X58725Y-47937D01*
X58691Y-47952D01*
X58665Y-47978D01*
X58651Y-48012D01*
X58650Y-48050D01*
X58650Y-48647D01*
X58665Y-48681D01*
X58691Y-48707D01*
X58725Y-48721D01*
X58763Y-48722D01*
X59360Y-48722D01*
X59394Y-48707D01*
X59420Y-48681D01*
X59434Y-48647D01*
X59435Y-48609D01*
X59435Y-49533D01*
X57857Y-49529D01*
X57780Y-49497D01*
X57672Y-49497D01*
X57595Y-49529D01*
X57421Y-49528D01*
X57346Y-49497D01*
X57238Y-49497D01*
X57163Y-49528D01*
X56986Y-49527D01*
X56968Y-49520D01*
X56968Y-49001D01*
X56908Y-48857D01*
X56798Y-48746D01*
X56654Y-48687D01*
X56498Y-48686D01*
X56354Y-48746D01*
X56243Y-48856D01*
X56184Y-49000D01*
X56183Y-49156D01*
X56243Y-49300D01*
X56353Y-49411D01*
X56497Y-49470D01*
X56653Y-49471D01*
X56797Y-49411D01*
X56908Y-49301D01*
X56967Y-49157D01*
X56968Y-49001D01*
X56968Y-49520D01*
X56913Y-49497D01*
X56805Y-49497D01*
X56732Y-49527D01*
X56551Y-49527D01*
X56480Y-49497D01*
X56372Y-49497D01*
X56302Y-49526D01*
X53025Y-49519D01*
X53025Y-49214D01*
X52996Y-49143D01*
X52942Y-49090D01*
X52929Y-49084D01*
X52942Y-49079D01*
X52996Y-49025D01*
X53025Y-48955D01*
X53025Y-48879D01*
X52996Y-48809D01*
X52947Y-48759D01*
X52996Y-48710D01*
X53025Y-48640D01*
X53025Y-48564D01*
X53025Y-48170D01*
X53025Y-47678D01*
X52996Y-47608D01*
X52942Y-47554D01*
X52882Y-47529D01*
X52942Y-47504D01*
X52996Y-47450D01*
X53025Y-47380D01*
X53025Y-47304D01*
X52996Y-47234D01*
X52942Y-47180D01*
X52872Y-47151D01*
X52796Y-47151D01*
X52726Y-47180D01*
X52672Y-47234D01*
X52647Y-47294D01*
X52622Y-47234D01*
X52568Y-47180D01*
X52498Y-47151D01*
X52422Y-47151D01*
X52352Y-47180D01*
X52298Y-47234D01*
X52269Y-47304D01*
X52269Y-47380D01*
X52298Y-47450D01*
X52352Y-47504D01*
X52422Y-47533D01*
X52498Y-47533D01*
X52568Y-47504D01*
X52622Y-47450D01*
X52647Y-47390D01*
X52672Y-47450D01*
X52726Y-47504D01*
X52787Y-47529D01*
X52726Y-47554D01*
X52672Y-47608D01*
X52643Y-47678D01*
X52643Y-47754D01*
X52672Y-47824D01*
X52726Y-47878D01*
X52796Y-47907D01*
X52872Y-47907D01*
X52942Y-47878D01*
X52996Y-47824D01*
X53025Y-47754D01*
X53025Y-47678D01*
X53025Y-48170D01*
X52996Y-48100D01*
X52942Y-48046D01*
X52872Y-48017D01*
X52796Y-48017D01*
X52726Y-48046D01*
X52672Y-48100D01*
X52643Y-48170D01*
X52643Y-48246D01*
X52672Y-48316D01*
X52726Y-48370D01*
X52796Y-48399D01*
X52872Y-48399D01*
X52942Y-48370D01*
X52996Y-48316D01*
X53025Y-48246D01*
X53025Y-48170D01*
X53025Y-48564D01*
X52996Y-48494D01*
X52942Y-48440D01*
X52872Y-48411D01*
X52796Y-48411D01*
X52726Y-48440D01*
X52672Y-48494D01*
X52643Y-48564D01*
X52643Y-48640D01*
X52672Y-48710D01*
X52722Y-48759D01*
X52672Y-48808D01*
X52643Y-48879D01*
X52643Y-48955D01*
X52672Y-49025D01*
X52726Y-49079D01*
X52739Y-49084D01*
X52726Y-49089D01*
X52672Y-49143D01*
X52643Y-49213D01*
X52643Y-49289D01*
X52672Y-49360D01*
X52726Y-49413D01*
X52796Y-49442D01*
X52872Y-49443D01*
X52942Y-49413D01*
X52996Y-49360D01*
X53025Y-49290D01*
X53025Y-49214D01*
X53025Y-49519D01*
X52612Y-49518D01*
X52612Y-48682D01*
X52612Y-47737D01*
X52583Y-47667D01*
X52529Y-47613D01*
X52459Y-47584D01*
X52383Y-47584D01*
X52313Y-47613D01*
X52259Y-47667D01*
X52238Y-47718D01*
X52238Y-47304D01*
X52209Y-47234D01*
X52155Y-47180D01*
X52085Y-47151D01*
X52009Y-47151D01*
X51939Y-47180D01*
X51885Y-47234D01*
X51860Y-47294D01*
X51835Y-47234D01*
X51781Y-47180D01*
X51711Y-47151D01*
X51635Y-47151D01*
X51565Y-47180D01*
X51515Y-47229D01*
X51466Y-47180D01*
X51396Y-47151D01*
X51320Y-47151D01*
X51250Y-47180D01*
X51196Y-47234D01*
X51167Y-47304D01*
X51167Y-47380D01*
X51196Y-47450D01*
X51249Y-47504D01*
X51286Y-47519D01*
X51250Y-47534D01*
X51196Y-47588D01*
X51167Y-47658D01*
X51167Y-47734D01*
X51196Y-47804D01*
X51249Y-47858D01*
X51310Y-47883D01*
X51250Y-47908D01*
X51196Y-47962D01*
X51167Y-48032D01*
X51167Y-48108D01*
X51196Y-48178D01*
X51249Y-48232D01*
X51320Y-48261D01*
X51396Y-48261D01*
X51466Y-48232D01*
X51520Y-48179D01*
X51549Y-48109D01*
X51549Y-48033D01*
X51520Y-47962D01*
X51466Y-47909D01*
X51405Y-47883D01*
X51466Y-47858D01*
X51520Y-47805D01*
X51549Y-47735D01*
X51549Y-47659D01*
X51520Y-47588D01*
X51466Y-47535D01*
X51429Y-47519D01*
X51466Y-47504D01*
X51515Y-47455D01*
X51564Y-47504D01*
X51635Y-47533D01*
X51711Y-47533D01*
X51781Y-47504D01*
X51835Y-47450D01*
X51860Y-47390D01*
X51885Y-47450D01*
X51938Y-47504D01*
X52009Y-47533D01*
X52085Y-47533D01*
X52155Y-47504D01*
X52209Y-47450D01*
X52238Y-47380D01*
X52238Y-47304D01*
X52238Y-47718D01*
X52230Y-47737D01*
X52230Y-47813D01*
X52259Y-47883D01*
X52312Y-47937D01*
X52383Y-47966D01*
X52459Y-47966D01*
X52529Y-47937D01*
X52583Y-47883D01*
X52612Y-47813D01*
X52612Y-47737D01*
X52612Y-48682D01*
X52583Y-48612D01*
X52529Y-48558D01*
X52459Y-48529D01*
X52383Y-48529D01*
X52313Y-48558D01*
X52259Y-48612D01*
X52230Y-48682D01*
X52230Y-48758D01*
X52259Y-48828D01*
X52312Y-48882D01*
X52383Y-48911D01*
X52459Y-48911D01*
X52529Y-48882D01*
X52583Y-48828D01*
X52612Y-48758D01*
X52612Y-48682D01*
X52612Y-49518D01*
X52553Y-49518D01*
X52553Y-49214D01*
X52524Y-49143D01*
X52470Y-49090D01*
X52400Y-49061D01*
X52324Y-49060D01*
X52254Y-49089D01*
X52200Y-49143D01*
X52171Y-49213D01*
X52171Y-49289D01*
X52200Y-49360D01*
X52253Y-49413D01*
X52324Y-49442D01*
X52400Y-49443D01*
X52470Y-49413D01*
X52524Y-49360D01*
X52553Y-49290D01*
X52553Y-49214D01*
X52553Y-49518D01*
X52120Y-49517D01*
X52120Y-49214D01*
X52091Y-49143D01*
X52041Y-49094D01*
X52041Y-47973D01*
X52012Y-47903D01*
X51958Y-47849D01*
X51888Y-47820D01*
X51812Y-47820D01*
X51742Y-47849D01*
X51688Y-47903D01*
X51659Y-47973D01*
X51659Y-48049D01*
X51688Y-48119D01*
X51742Y-48173D01*
X51812Y-48202D01*
X51888Y-48202D01*
X51958Y-48173D01*
X52012Y-48120D01*
X52041Y-48049D01*
X52041Y-47973D01*
X52041Y-49094D01*
X52037Y-49090D01*
X52002Y-49075D01*
X52002Y-48820D01*
X51973Y-48750D01*
X51919Y-48696D01*
X51849Y-48667D01*
X51773Y-48667D01*
X51702Y-48696D01*
X51649Y-48749D01*
X51620Y-48820D01*
X51619Y-48896D01*
X51649Y-48966D01*
X51702Y-49020D01*
X51772Y-49049D01*
X51848Y-49049D01*
X51919Y-49020D01*
X51972Y-48966D01*
X52001Y-48896D01*
X52002Y-48820D01*
X52002Y-49075D01*
X51967Y-49061D01*
X51891Y-49060D01*
X51821Y-49089D01*
X51767Y-49143D01*
X51751Y-49180D01*
X51736Y-49143D01*
X51683Y-49090D01*
X51612Y-49061D01*
X51536Y-49060D01*
X51515Y-49069D01*
X51520Y-49065D01*
X51549Y-48994D01*
X51549Y-48918D01*
X51549Y-48525D01*
X51520Y-48454D01*
X51466Y-48401D01*
X51396Y-48372D01*
X51320Y-48371D01*
X51250Y-48400D01*
X51196Y-48454D01*
X51167Y-48524D01*
X51167Y-48600D01*
X51196Y-48671D01*
X51249Y-48724D01*
X51320Y-48753D01*
X51396Y-48754D01*
X51466Y-48725D01*
X51520Y-48671D01*
X51549Y-48601D01*
X51549Y-48525D01*
X51549Y-48918D01*
X51520Y-48848D01*
X51466Y-48794D01*
X51396Y-48765D01*
X51320Y-48765D01*
X51250Y-48794D01*
X51196Y-48848D01*
X51167Y-48918D01*
X51167Y-48994D01*
X51196Y-49064D01*
X51249Y-49118D01*
X51320Y-49147D01*
X51396Y-49147D01*
X51417Y-49138D01*
X51412Y-49143D01*
X51383Y-49213D01*
X51383Y-49289D01*
X51412Y-49360D01*
X51466Y-49413D01*
X51536Y-49442D01*
X51612Y-49443D01*
X51682Y-49413D01*
X51736Y-49360D01*
X51751Y-49323D01*
X51767Y-49360D01*
X51820Y-49413D01*
X51890Y-49442D01*
X51966Y-49443D01*
X52037Y-49413D01*
X52090Y-49360D01*
X52120Y-49290D01*
X52120Y-49214D01*
X52120Y-49517D01*
X49052Y-49510D01*
X49052Y-45049D01*
X49023Y-44978D01*
X48969Y-44925D01*
X48899Y-44896D01*
X48823Y-44895D01*
X48752Y-44924D01*
X48703Y-44974D01*
X48654Y-44925D01*
X48584Y-44896D01*
X48508Y-44895D01*
X48437Y-44924D01*
X48388Y-44974D01*
X48339Y-44925D01*
X48269Y-44896D01*
X48193Y-44895D01*
X48122Y-44924D01*
X48069Y-44978D01*
X48040Y-45048D01*
X48039Y-45124D01*
X48068Y-45195D01*
X48122Y-45248D01*
X48192Y-45277D01*
X48268Y-45278D01*
X48339Y-45249D01*
X48388Y-45199D01*
X48437Y-45248D01*
X48507Y-45277D01*
X48583Y-45278D01*
X48654Y-45249D01*
X48703Y-45199D01*
X48752Y-45248D01*
X48822Y-45277D01*
X48898Y-45278D01*
X48969Y-45249D01*
X49022Y-45195D01*
X49051Y-45125D01*
X49052Y-45049D01*
X49052Y-49510D01*
X47972Y-49508D01*
X47972Y-44444D01*
X47995Y-44389D01*
X47995Y-44281D01*
X47972Y-44225D01*
X47972Y-44011D01*
X47995Y-43956D01*
X47995Y-43848D01*
X47972Y-43792D01*
X47972Y-43578D01*
X47995Y-43523D01*
X47995Y-43415D01*
X47972Y-43359D01*
X47972Y-41282D01*
X47977Y-41287D01*
X48040Y-41313D01*
X48109Y-41314D01*
X48172Y-41287D01*
X48205Y-41255D01*
X50626Y-41255D01*
X51525Y-42153D01*
X51525Y-42224D01*
X51518Y-42231D01*
X51511Y-42224D01*
X51511Y-42189D01*
X51510Y-42188D01*
X51511Y-42188D01*
X51502Y-42145D01*
X51477Y-42109D01*
X51477Y-42109D01*
X51020Y-41652D01*
X50984Y-41627D01*
X50941Y-41619D01*
X48327Y-41619D01*
X48294Y-41586D01*
X48231Y-41560D01*
X48162Y-41559D01*
X48099Y-41586D01*
X48051Y-41634D01*
X48025Y-41697D01*
X48024Y-41766D01*
X48051Y-41829D01*
X48099Y-41877D01*
X48162Y-41903D01*
X48231Y-41904D01*
X48294Y-41877D01*
X48327Y-41845D01*
X50894Y-41845D01*
X51279Y-42230D01*
X51252Y-42257D01*
X51226Y-42320D01*
X51226Y-42325D01*
X50950Y-42050D01*
X50914Y-42025D01*
X50871Y-42017D01*
X48311Y-42017D01*
X48278Y-41984D01*
X48215Y-41958D01*
X48146Y-41957D01*
X48083Y-41984D01*
X48035Y-42032D01*
X48009Y-42095D01*
X48008Y-42164D01*
X48034Y-42226D01*
X48027Y-42233D01*
X48001Y-42296D01*
X48000Y-42365D01*
X48027Y-42428D01*
X48075Y-42476D01*
X48138Y-42502D01*
X48207Y-42503D01*
X48270Y-42476D01*
X48303Y-42444D01*
X50839Y-42444D01*
X51117Y-42721D01*
X51117Y-42721D01*
X51153Y-42746D01*
X51196Y-42755D01*
X51196Y-42754D01*
X51197Y-42755D01*
X52004Y-42755D01*
X52047Y-42746D01*
X52083Y-42721D01*
X52197Y-42607D01*
X52197Y-42607D01*
X52197Y-42607D01*
X52222Y-42571D01*
X52231Y-42528D01*
X52231Y-42484D01*
X52237Y-42478D01*
X52237Y-42708D01*
X52245Y-42751D01*
X52270Y-42787D01*
X52377Y-42894D01*
X52377Y-42894D01*
X52413Y-42919D01*
X52449Y-42926D01*
X52456Y-42928D01*
X52456Y-42927D01*
X52457Y-42928D01*
X52749Y-42928D01*
X53224Y-43402D01*
X53260Y-43427D01*
X53304Y-43436D01*
X54969Y-43436D01*
X55012Y-43427D01*
X55048Y-43402D01*
X55212Y-43238D01*
X55259Y-43239D01*
X55322Y-43212D01*
X55338Y-43196D01*
X55355Y-43212D01*
X55418Y-43238D01*
X55487Y-43239D01*
X55550Y-43212D01*
X55598Y-43164D01*
X55624Y-43101D01*
X55625Y-43032D01*
X55598Y-42969D01*
X55550Y-42921D01*
X55487Y-42895D01*
X55440Y-42894D01*
X55379Y-42833D01*
X55532Y-42833D01*
X55535Y-42834D01*
X55578Y-42825D01*
X55614Y-42800D01*
X55768Y-42646D01*
X55768Y-42646D01*
X55768Y-42646D01*
X55793Y-42610D01*
X55802Y-42567D01*
X55801Y-42567D01*
X55802Y-42567D01*
X55802Y-42255D01*
X56131Y-41926D01*
X56130Y-41971D01*
X56157Y-42034D01*
X56205Y-42082D01*
X56268Y-42108D01*
X56337Y-42109D01*
X56400Y-42082D01*
X56448Y-42034D01*
X56474Y-41971D01*
X56475Y-41902D01*
X56448Y-41839D01*
X56400Y-41791D01*
X56337Y-41765D01*
X56292Y-41764D01*
X56359Y-41697D01*
X56360Y-41697D01*
X56360Y-41696D01*
X56364Y-41690D01*
X56384Y-41661D01*
X56384Y-41660D01*
X56384Y-41659D01*
X56385Y-41654D01*
X56393Y-41618D01*
X56392Y-41616D01*
X56392Y-41616D01*
X56390Y-41408D01*
X56405Y-41393D01*
X56428Y-41337D01*
X56428Y-41276D01*
X56405Y-41220D01*
X56393Y-41208D01*
X56405Y-41196D01*
X56428Y-41140D01*
X56428Y-41079D01*
X56405Y-41023D01*
X56393Y-41012D01*
X56405Y-41000D01*
X56428Y-40944D01*
X56428Y-40883D01*
X56405Y-40827D01*
X56393Y-40815D01*
X56405Y-40803D01*
X56428Y-40747D01*
X56428Y-40686D01*
X56405Y-40630D01*
X56395Y-40620D01*
X56405Y-40610D01*
X56428Y-40554D01*
X56428Y-40493D01*
X56405Y-40437D01*
X56392Y-40425D01*
X56404Y-40413D01*
X56427Y-40357D01*
X56428Y-40296D01*
X56404Y-40241D01*
X56392Y-40228D01*
X56405Y-40216D01*
X56428Y-40160D01*
X56428Y-40099D01*
X56405Y-40043D01*
X56395Y-40033D01*
X56409Y-40019D01*
X56432Y-39963D01*
X56432Y-39902D01*
X56409Y-39846D01*
X56394Y-39832D01*
X56404Y-39822D01*
X56427Y-39766D01*
X56428Y-39705D01*
X56404Y-39650D01*
X56393Y-39638D01*
X56405Y-39626D01*
X56428Y-39570D01*
X56428Y-39509D01*
X56405Y-39453D01*
X56395Y-39443D01*
X56409Y-39429D01*
X56432Y-39373D01*
X56432Y-39312D01*
X56409Y-39256D01*
X56391Y-39238D01*
X56405Y-39224D01*
X56428Y-39168D01*
X56428Y-39107D01*
X56405Y-39051D01*
X56395Y-39041D01*
X56405Y-39031D01*
X56428Y-38975D01*
X56428Y-38914D01*
X56405Y-38858D01*
X56393Y-38846D01*
X56405Y-38834D01*
X56428Y-38778D01*
X56428Y-38717D01*
X56405Y-38661D01*
X56362Y-38618D01*
X56306Y-38595D01*
X56245Y-38595D01*
X56189Y-38618D01*
X56173Y-38635D01*
X56069Y-38635D01*
X56078Y-38625D01*
X56104Y-38562D01*
X56105Y-38493D01*
X56078Y-38430D01*
X56030Y-38382D01*
X55967Y-38356D01*
X55898Y-38355D01*
X55835Y-38382D01*
X55787Y-38430D01*
X55761Y-38493D01*
X55760Y-38562D01*
X55787Y-38625D01*
X55796Y-38635D01*
X55633Y-38635D01*
X55379Y-38380D01*
X55396Y-38373D01*
X55444Y-38325D01*
X55470Y-38262D01*
X55471Y-38193D01*
X55444Y-38130D01*
X55396Y-38082D01*
X55333Y-38056D01*
X55264Y-38055D01*
X55201Y-38082D01*
X55153Y-38130D01*
X55127Y-38193D01*
X55126Y-38242D01*
X53792Y-38242D01*
X53759Y-38209D01*
X53696Y-38183D01*
X53627Y-38182D01*
X53564Y-38209D01*
X53516Y-38257D01*
X53490Y-38320D01*
X53489Y-38389D01*
X53516Y-38452D01*
X53518Y-38454D01*
X53516Y-38457D01*
X53490Y-38520D01*
X53489Y-38589D01*
X53516Y-38652D01*
X53564Y-38700D01*
X53627Y-38726D01*
X53696Y-38727D01*
X53759Y-38700D01*
X53792Y-38668D01*
X55198Y-38668D01*
X55437Y-38901D01*
X55413Y-38926D01*
X55387Y-38901D01*
X55351Y-38876D01*
X55308Y-38868D01*
X53780Y-38868D01*
X53747Y-38835D01*
X53684Y-38809D01*
X53615Y-38808D01*
X53552Y-38835D01*
X53504Y-38883D01*
X53478Y-38946D01*
X53477Y-39015D01*
X53504Y-39078D01*
X53552Y-39126D01*
X53615Y-39152D01*
X53684Y-39153D01*
X53747Y-39126D01*
X53780Y-39094D01*
X55261Y-39094D01*
X55411Y-39243D01*
X55401Y-39253D01*
X53756Y-39256D01*
X53723Y-39224D01*
X53660Y-39198D01*
X53591Y-39197D01*
X53528Y-39224D01*
X53480Y-39272D01*
X53454Y-39335D01*
X53453Y-39404D01*
X53477Y-39460D01*
X53464Y-39473D01*
X53438Y-39536D01*
X53437Y-39605D01*
X53464Y-39668D01*
X53512Y-39716D01*
X53575Y-39742D01*
X53644Y-39743D01*
X53707Y-39716D01*
X53740Y-39684D01*
X55039Y-39684D01*
X55219Y-39863D01*
X55219Y-39864D01*
X55219Y-39864D01*
X55234Y-39874D01*
X55205Y-39886D01*
X55157Y-39934D01*
X55131Y-39997D01*
X55130Y-40066D01*
X55141Y-40090D01*
X53713Y-40088D01*
X53680Y-40055D01*
X53617Y-40029D01*
X53548Y-40028D01*
X53485Y-40055D01*
X53437Y-40103D01*
X53411Y-40166D01*
X53410Y-40235D01*
X53437Y-40298D01*
X53485Y-40346D01*
X53548Y-40372D01*
X53617Y-40373D01*
X53680Y-40346D01*
X53713Y-40314D01*
X55148Y-40316D01*
X55142Y-40323D01*
X55116Y-40386D01*
X55115Y-40446D01*
X53732Y-40446D01*
X53699Y-40413D01*
X53636Y-40387D01*
X53567Y-40386D01*
X53504Y-40413D01*
X53456Y-40461D01*
X53430Y-40524D01*
X53429Y-40593D01*
X53456Y-40656D01*
X53504Y-40704D01*
X53567Y-40730D01*
X53636Y-40731D01*
X53699Y-40704D01*
X53732Y-40672D01*
X55271Y-40672D01*
X55268Y-40673D01*
X55220Y-40721D01*
X55194Y-40784D01*
X55193Y-40853D01*
X55220Y-40916D01*
X55230Y-40927D01*
X53717Y-40927D01*
X53684Y-40894D01*
X53621Y-40868D01*
X53552Y-40867D01*
X53489Y-40894D01*
X53441Y-40942D01*
X53415Y-41005D01*
X53414Y-41074D01*
X53435Y-41123D01*
X53261Y-41123D01*
X53260Y-41123D01*
X53260Y-41122D01*
X53234Y-41128D01*
X53217Y-41131D01*
X53217Y-41131D01*
X53217Y-41131D01*
X53194Y-41147D01*
X53181Y-41156D01*
X53180Y-41156D01*
X53180Y-41156D01*
X53176Y-41161D01*
X53176Y-38157D01*
X53175Y-38156D01*
X53176Y-38156D01*
X53174Y-38149D01*
X53167Y-38113D01*
X53142Y-38077D01*
X53142Y-38077D01*
X52977Y-37912D01*
X52941Y-37887D01*
X52898Y-37879D01*
X52707Y-37879D01*
X52714Y-37861D01*
X52715Y-37792D01*
X52709Y-37779D01*
X52799Y-37779D01*
X52842Y-37770D01*
X52878Y-37745D01*
X53192Y-37432D01*
X54322Y-37432D01*
X54355Y-37464D01*
X54418Y-37490D01*
X54487Y-37491D01*
X54550Y-37464D01*
X54598Y-37416D01*
X54624Y-37353D01*
X54625Y-37284D01*
X54620Y-37274D01*
X54770Y-37274D01*
X54758Y-37304D01*
X54757Y-37380D01*
X54786Y-37451D01*
X54840Y-37504D01*
X54910Y-37533D01*
X54986Y-37534D01*
X55057Y-37505D01*
X55110Y-37451D01*
X55139Y-37381D01*
X55140Y-37305D01*
X55111Y-37234D01*
X55057Y-37181D01*
X55040Y-37174D01*
X55466Y-36748D01*
X55465Y-36790D01*
X55492Y-36853D01*
X55540Y-36901D01*
X55603Y-36927D01*
X55672Y-36928D01*
X55720Y-36908D01*
X55878Y-36908D01*
X56204Y-37234D01*
X56063Y-37234D01*
X56015Y-37214D01*
X55946Y-37213D01*
X55883Y-37240D01*
X55835Y-37288D01*
X55809Y-37351D01*
X55808Y-37420D01*
X55835Y-37483D01*
X55883Y-37531D01*
X55946Y-37557D01*
X56015Y-37558D01*
X56063Y-37538D01*
X56240Y-37538D01*
X56714Y-38011D01*
X56714Y-38025D01*
X56672Y-37984D01*
X56609Y-37958D01*
X56540Y-37957D01*
X56477Y-37984D01*
X56450Y-38010D01*
X56416Y-37976D01*
X56353Y-37950D01*
X56284Y-37949D01*
X56221Y-37976D01*
X56173Y-38024D01*
X56156Y-38065D01*
X56156Y-37981D01*
X56129Y-37918D01*
X56081Y-37870D01*
X56018Y-37844D01*
X55949Y-37843D01*
X55886Y-37870D01*
X55838Y-37918D01*
X55812Y-37981D01*
X55811Y-38050D01*
X55838Y-38113D01*
X55886Y-38161D01*
X55949Y-38187D01*
X56018Y-38188D01*
X56081Y-38161D01*
X56129Y-38113D01*
X56155Y-38050D01*
X56156Y-37981D01*
X56156Y-38065D01*
X56147Y-38087D01*
X56146Y-38156D01*
X56173Y-38219D01*
X56221Y-38267D01*
X56284Y-38293D01*
X56353Y-38294D01*
X56416Y-38267D01*
X56443Y-38241D01*
X56477Y-38275D01*
X56540Y-38301D01*
X56609Y-38302D01*
X56672Y-38275D01*
X56714Y-38234D01*
X56714Y-38408D01*
X56699Y-38402D01*
X56638Y-38402D01*
X56582Y-38425D01*
X56539Y-38468D01*
X56516Y-38524D01*
X56516Y-38585D01*
X56539Y-38641D01*
X56582Y-38684D01*
X56638Y-38707D01*
X56699Y-38707D01*
X56755Y-38684D01*
X56767Y-38672D01*
X56779Y-38684D01*
X56835Y-38707D01*
X56896Y-38707D01*
X56952Y-38684D01*
X56964Y-38672D01*
X56976Y-38684D01*
X57032Y-38707D01*
X57093Y-38707D01*
X57149Y-38684D01*
X57153Y-38679D01*
X57341Y-38866D01*
X57341Y-38866D01*
X57377Y-38891D01*
X57413Y-38898D01*
X57420Y-38900D01*
X57420Y-38899D01*
X57421Y-38900D01*
X58859Y-38900D01*
X58879Y-38919D01*
X58879Y-40232D01*
X58887Y-40275D01*
X58912Y-40311D01*
X59007Y-40406D01*
X59007Y-40406D01*
X59043Y-40431D01*
X59086Y-40440D01*
X59086Y-40439D01*
X59087Y-40440D01*
X59101Y-40440D01*
X59079Y-40493D01*
X59079Y-40554D01*
X59102Y-40610D01*
X59112Y-40620D01*
X59098Y-40634D01*
X59075Y-40690D01*
X59075Y-40751D01*
X59098Y-40807D01*
X59112Y-40821D01*
X59102Y-40831D01*
X59079Y-40887D01*
X59079Y-40948D01*
X59102Y-41004D01*
X59112Y-41013D01*
X59098Y-41027D01*
X59075Y-41083D01*
X59075Y-41144D01*
X59098Y-41200D01*
X59110Y-41212D01*
X59098Y-41224D01*
X59075Y-41280D01*
X59075Y-41341D01*
X59098Y-41397D01*
X59141Y-41440D01*
X59145Y-41441D01*
X59651Y-41915D01*
X59965Y-42593D01*
X59963Y-42599D01*
X59962Y-42675D01*
X59991Y-42746D01*
X60019Y-42773D01*
X59980Y-42812D01*
X59951Y-42882D01*
X59950Y-42958D01*
X59979Y-43029D01*
X60033Y-43082D01*
X60103Y-43111D01*
X60179Y-43112D01*
X60250Y-43083D01*
X60303Y-43029D01*
X60332Y-42959D01*
X60333Y-42883D01*
X60304Y-42812D01*
X60276Y-42785D01*
X60315Y-42746D01*
X60344Y-42676D01*
X60345Y-42600D01*
X60316Y-42529D01*
X60262Y-42476D01*
X60243Y-42468D01*
X59913Y-41759D01*
X59878Y-41711D01*
X59876Y-41709D01*
X59345Y-41212D01*
X59357Y-41200D01*
X59380Y-41144D01*
X59380Y-41083D01*
X59357Y-41027D01*
X59347Y-41018D01*
X59361Y-41004D01*
X59384Y-40948D01*
X59384Y-40887D01*
X59361Y-40831D01*
X59350Y-40820D01*
X59350Y-40820D01*
X59365Y-40809D01*
X59381Y-40799D01*
X59442Y-40740D01*
X59467Y-40704D01*
X59477Y-40661D01*
X59476Y-40658D01*
X59476Y-40511D01*
X59483Y-40516D01*
X59501Y-40528D01*
X59502Y-40528D01*
X59503Y-40529D01*
X59523Y-40533D01*
X59537Y-40536D01*
X59571Y-40570D01*
X59629Y-40594D01*
X59627Y-40607D01*
X59627Y-40609D01*
X59594Y-40642D01*
X59568Y-40705D01*
X59567Y-40774D01*
X59594Y-40837D01*
X59642Y-40885D01*
X59705Y-40911D01*
X59774Y-40912D01*
X59778Y-40910D01*
X59778Y-40910D01*
X59805Y-40973D01*
X59853Y-41021D01*
X59916Y-41047D01*
X59974Y-41048D01*
X59932Y-41065D01*
X59884Y-41113D01*
X59858Y-41176D01*
X59857Y-41245D01*
X59884Y-41308D01*
X59904Y-41328D01*
X59893Y-41339D01*
X59867Y-41402D01*
X59866Y-41471D01*
X59893Y-41534D01*
X59941Y-41582D01*
X60004Y-41608D01*
X60073Y-41609D01*
X60136Y-41582D01*
X60184Y-41534D01*
X60210Y-41471D01*
X60211Y-41402D01*
X60184Y-41339D01*
X60164Y-41319D01*
X60175Y-41308D01*
X60201Y-41245D01*
X60202Y-41176D01*
X60175Y-41113D01*
X60127Y-41065D01*
X60064Y-41039D01*
X60006Y-41038D01*
X60048Y-41021D01*
X60096Y-40973D01*
X60122Y-40910D01*
X60123Y-40863D01*
X60591Y-40394D01*
X60616Y-40358D01*
X60625Y-40315D01*
X60623Y-40308D01*
X60621Y-38756D01*
X60621Y-38755D01*
X60616Y-38734D01*
X60612Y-38712D01*
X60612Y-38712D01*
X60612Y-38712D01*
X60600Y-38694D01*
X60587Y-38676D01*
X59917Y-38006D01*
X59947Y-38006D01*
X60018Y-37977D01*
X60071Y-37923D01*
X60100Y-37853D01*
X60101Y-37777D01*
X60072Y-37706D01*
X60018Y-37653D01*
X59948Y-37624D01*
X59872Y-37623D01*
X59801Y-37652D01*
X59748Y-37706D01*
X59719Y-37776D01*
X59719Y-37807D01*
X59355Y-37444D01*
X59319Y-37419D01*
X59276Y-37411D01*
X58330Y-37411D01*
X56666Y-35747D01*
X57944Y-35747D01*
X57965Y-35750D01*
X58009Y-35742D01*
X58045Y-35717D01*
X58283Y-35475D01*
X60094Y-35478D01*
X60093Y-35516D01*
X60120Y-35579D01*
X60131Y-35590D01*
X60100Y-35621D01*
X60074Y-35684D01*
X60073Y-35753D01*
X60100Y-35816D01*
X60148Y-35864D01*
X60211Y-35890D01*
X60280Y-35891D01*
X60343Y-35864D01*
X60376Y-35832D01*
X60413Y-35832D01*
X60413Y-35831D01*
X60414Y-35831D01*
X60435Y-35827D01*
X60456Y-35823D01*
X60457Y-35822D01*
X60458Y-35822D01*
X60475Y-35810D01*
X60492Y-35798D01*
X60493Y-35798D01*
X60494Y-35797D01*
X60666Y-35619D01*
X60666Y-35618D01*
X60667Y-35618D01*
X60668Y-35617D01*
X60675Y-35605D01*
X60691Y-35582D01*
X60691Y-35580D01*
X60692Y-35580D01*
X60694Y-35565D01*
X60700Y-35539D01*
X60700Y-35430D01*
X60691Y-35386D01*
X60666Y-35350D01*
X60508Y-35192D01*
X60472Y-35167D01*
X60429Y-35159D01*
X60418Y-35161D01*
X60348Y-35161D01*
X60349Y-35095D01*
X60322Y-35032D01*
X60274Y-34984D01*
X60211Y-34958D01*
X60142Y-34957D01*
X60079Y-34984D01*
X60031Y-35032D01*
X60005Y-35095D01*
X60004Y-35161D01*
X59706Y-35161D01*
X59706Y-32093D01*
X59706Y-31496D01*
X59691Y-31462D01*
X59665Y-31436D01*
X59631Y-31422D01*
X59593Y-31421D01*
X58996Y-31421D01*
X58962Y-31436D01*
X58936Y-31462D01*
X58922Y-31496D01*
X58921Y-31534D01*
X58921Y-32131D01*
X58936Y-32165D01*
X58962Y-32191D01*
X58996Y-32205D01*
X59034Y-32206D01*
X59631Y-32206D01*
X59665Y-32191D01*
X59691Y-32165D01*
X59705Y-32131D01*
X59706Y-32093D01*
X59706Y-35161D01*
X58136Y-35161D01*
X58135Y-35160D01*
X58134Y-35161D01*
X58134Y-35161D01*
X58123Y-35163D01*
X58092Y-35168D01*
X58091Y-35169D01*
X58090Y-35169D01*
X58083Y-35174D01*
X58055Y-35192D01*
X57806Y-35434D01*
X54412Y-35434D01*
X54412Y-34403D01*
X54383Y-34332D01*
X54329Y-34279D01*
X54259Y-34250D01*
X54183Y-34249D01*
X54112Y-34278D01*
X54059Y-34332D01*
X54030Y-34402D01*
X54029Y-34478D01*
X54058Y-34549D01*
X54112Y-34602D01*
X54182Y-34631D01*
X54258Y-34632D01*
X54329Y-34603D01*
X54382Y-34549D01*
X54411Y-34479D01*
X54412Y-34403D01*
X54412Y-35434D01*
X54078Y-35434D01*
X54078Y-34808D01*
X54051Y-34745D01*
X54003Y-34697D01*
X53940Y-34671D01*
X53871Y-34670D01*
X53808Y-34697D01*
X53760Y-34745D01*
X53734Y-34808D01*
X53733Y-34877D01*
X53760Y-34940D01*
X53808Y-34988D01*
X53871Y-35014D01*
X53940Y-35015D01*
X54003Y-34988D01*
X54051Y-34940D01*
X54077Y-34877D01*
X54078Y-34808D01*
X54078Y-35434D01*
X53243Y-35434D01*
X53243Y-34827D01*
X53216Y-34764D01*
X53168Y-34716D01*
X53105Y-34690D01*
X53036Y-34689D01*
X52973Y-34716D01*
X52925Y-34764D01*
X52899Y-34827D01*
X52898Y-34896D01*
X52910Y-34923D01*
X52871Y-34922D01*
X52808Y-34949D01*
X52760Y-34997D01*
X52734Y-35060D01*
X52733Y-35129D01*
X52760Y-35192D01*
X52808Y-35240D01*
X52871Y-35266D01*
X52940Y-35267D01*
X53003Y-35240D01*
X53051Y-35192D01*
X53077Y-35129D01*
X53078Y-35060D01*
X53066Y-35033D01*
X53105Y-35034D01*
X53168Y-35007D01*
X53216Y-34959D01*
X53242Y-34896D01*
X53243Y-34827D01*
X53243Y-35434D01*
X52727Y-35434D01*
X52162Y-34869D01*
X52126Y-34844D01*
X52083Y-34836D01*
X51342Y-34836D01*
X51405Y-34773D01*
X52283Y-34769D01*
X52326Y-34760D01*
X52363Y-34735D01*
X52363Y-34735D01*
X54239Y-32859D01*
X57028Y-32859D01*
X57040Y-32856D01*
X57053Y-32856D01*
X57062Y-32852D01*
X57071Y-32850D01*
X57081Y-32843D01*
X57093Y-32837D01*
X58064Y-32145D01*
X58084Y-32166D01*
X58228Y-32225D01*
X58384Y-32226D01*
X58528Y-32166D01*
X58639Y-32056D01*
X58698Y-31912D01*
X58699Y-31756D01*
X58639Y-31612D01*
X58529Y-31501D01*
X58385Y-31442D01*
X58229Y-31441D01*
X58085Y-31501D01*
X57974Y-31611D01*
X57915Y-31755D01*
X57914Y-31911D01*
X57935Y-31960D01*
X56991Y-32633D01*
X56651Y-32633D01*
X57116Y-32179D01*
X57228Y-32225D01*
X57384Y-32226D01*
X57528Y-32166D01*
X57639Y-32056D01*
X57698Y-31912D01*
X57699Y-31756D01*
X57639Y-31612D01*
X57529Y-31501D01*
X57385Y-31442D01*
X57229Y-31441D01*
X57085Y-31501D01*
X56974Y-31611D01*
X56915Y-31755D01*
X56914Y-31911D01*
X56958Y-32017D01*
X56509Y-32456D01*
X55880Y-32456D01*
X56132Y-32186D01*
X56228Y-32225D01*
X56384Y-32226D01*
X56528Y-32166D01*
X56639Y-32056D01*
X56698Y-31912D01*
X56699Y-31756D01*
X56639Y-31612D01*
X56529Y-31501D01*
X56385Y-31442D01*
X56229Y-31441D01*
X56085Y-31501D01*
X55974Y-31611D01*
X55915Y-31755D01*
X55914Y-31911D01*
X55965Y-32033D01*
X55708Y-32308D01*
X54993Y-32308D01*
X55120Y-32180D01*
X55228Y-32225D01*
X55384Y-32226D01*
X55528Y-32166D01*
X55639Y-32056D01*
X55698Y-31912D01*
X55699Y-31756D01*
X55639Y-31612D01*
X55529Y-31501D01*
X55385Y-31442D01*
X55229Y-31441D01*
X55085Y-31501D01*
X54974Y-31611D01*
X54915Y-31755D01*
X54914Y-31911D01*
X54960Y-32021D01*
X54819Y-32163D01*
X54532Y-32163D01*
X54639Y-32056D01*
X54698Y-31912D01*
X54699Y-31756D01*
X54639Y-31612D01*
X54529Y-31501D01*
X54385Y-31442D01*
X54229Y-31441D01*
X54085Y-31501D01*
X53974Y-31611D01*
X53915Y-31755D01*
X53914Y-31911D01*
X53960Y-32021D01*
X52244Y-33737D01*
X52170Y-33737D01*
X52170Y-31643D01*
X52114Y-31506D01*
X52009Y-31402D01*
X51873Y-31345D01*
X51725Y-31345D01*
X51588Y-31401D01*
X51484Y-31506D01*
X51427Y-31642D01*
X51427Y-31790D01*
X51483Y-31927D01*
X51588Y-32031D01*
X51724Y-32088D01*
X51872Y-32088D01*
X52009Y-32032D01*
X52113Y-31927D01*
X52170Y-31791D01*
X52170Y-31643D01*
X52170Y-33737D01*
X51130Y-33737D01*
X51129Y-33737D01*
X51086Y-33745D01*
X51050Y-33770D01*
X51050Y-33770D01*
X50184Y-34636D01*
X50159Y-34672D01*
X50151Y-34716D01*
X50151Y-35685D01*
X49980Y-35856D01*
X49709Y-35856D01*
X49665Y-35864D01*
X49629Y-35889D01*
X49408Y-36110D01*
X49427Y-36062D01*
X49428Y-35993D01*
X49401Y-35930D01*
X49353Y-35882D01*
X49290Y-35856D01*
X49221Y-35855D01*
X49158Y-35882D01*
X49110Y-35930D01*
X49084Y-35993D01*
X49083Y-36062D01*
X49110Y-36125D01*
X49158Y-36173D01*
X49221Y-36199D01*
X49290Y-36200D01*
X49337Y-36180D01*
X49274Y-36244D01*
X49249Y-36280D01*
X49241Y-36324D01*
X49241Y-37271D01*
X49208Y-37304D01*
X49192Y-37343D01*
X48973Y-37125D01*
X48937Y-37100D01*
X48894Y-37092D01*
X48323Y-37092D01*
X48290Y-37059D01*
X48227Y-37033D01*
X48158Y-37032D01*
X48095Y-37059D01*
X48047Y-37107D01*
X48021Y-37170D01*
X48020Y-37239D01*
X48039Y-37284D01*
X48019Y-37304D01*
X47993Y-37367D01*
X47992Y-37436D01*
X48019Y-37499D01*
X48067Y-37547D01*
X48130Y-37573D01*
X48199Y-37574D01*
X48262Y-37547D01*
X48295Y-37515D01*
X48840Y-37515D01*
X49200Y-37874D01*
X49236Y-37899D01*
X49280Y-37908D01*
X51098Y-37908D01*
X51141Y-37899D01*
X51177Y-37874D01*
X51264Y-37787D01*
X51264Y-37787D01*
X51264Y-37787D01*
X51289Y-37751D01*
X51289Y-37751D01*
X51296Y-37715D01*
X51298Y-37708D01*
X51297Y-37708D01*
X51298Y-37708D01*
X51298Y-36863D01*
X51475Y-37040D01*
X51476Y-37041D01*
X51476Y-37042D01*
X51494Y-37053D01*
X51511Y-37065D01*
X51513Y-37065D01*
X51514Y-37066D01*
X51534Y-37069D01*
X51555Y-37074D01*
X51556Y-37073D01*
X51557Y-37073D01*
X51600Y-37072D01*
X51626Y-37098D01*
X51582Y-37142D01*
X51556Y-37205D01*
X51555Y-37274D01*
X51582Y-37337D01*
X51615Y-37370D01*
X51575Y-37410D01*
X51549Y-37473D01*
X51548Y-37542D01*
X51575Y-37605D01*
X51623Y-37653D01*
X51686Y-37679D01*
X51755Y-37680D01*
X51818Y-37653D01*
X51851Y-37621D01*
X52131Y-37621D01*
X52256Y-37745D01*
X52292Y-37770D01*
X52336Y-37779D01*
X52376Y-37779D01*
X52371Y-37792D01*
X52370Y-37861D01*
X52378Y-37879D01*
X51847Y-37879D01*
X51814Y-37846D01*
X51751Y-37820D01*
X51682Y-37819D01*
X51619Y-37846D01*
X51571Y-37894D01*
X51545Y-37957D01*
X51544Y-38026D01*
X51571Y-38089D01*
X51619Y-38137D01*
X51682Y-38163D01*
X51751Y-38164D01*
X51814Y-38137D01*
X51847Y-38105D01*
X52353Y-38105D01*
X52344Y-38127D01*
X52343Y-38174D01*
X52245Y-38273D01*
X48365Y-38273D01*
X48365Y-37949D01*
X48338Y-37886D01*
X48290Y-37838D01*
X48227Y-37812D01*
X48158Y-37811D01*
X48095Y-37838D01*
X48047Y-37886D01*
X48021Y-37949D01*
X48020Y-38018D01*
X48047Y-38081D01*
X48095Y-38129D01*
X48158Y-38155D01*
X48227Y-38156D01*
X48290Y-38129D01*
X48338Y-38081D01*
X48364Y-38018D01*
X48365Y-37949D01*
X48365Y-38273D01*
X48351Y-38273D01*
X48318Y-38240D01*
X48255Y-38214D01*
X48186Y-38213D01*
X48123Y-38240D01*
X48075Y-38288D01*
X48049Y-38351D01*
X48048Y-38420D01*
X48069Y-38470D01*
X48047Y-38493D01*
X48021Y-38556D01*
X48020Y-38620D01*
X47981Y-38637D01*
X47972Y-38646D01*
X47972Y-35605D01*
X47995Y-35550D01*
X47995Y-35442D01*
X47972Y-35386D01*
X47972Y-35172D01*
X47995Y-35117D01*
X47995Y-35009D01*
X47972Y-34953D01*
X47972Y-34739D01*
X47995Y-34684D01*
X47995Y-34576D01*
X47972Y-34520D01*
X47972Y-30688D01*
X56325Y-30688D01*
X56370Y-30707D01*
X56478Y-30707D01*
X56524Y-30688D01*
X56758Y-30688D01*
X56803Y-30707D01*
X56911Y-30707D01*
X56957Y-30688D01*
X57191Y-30688D01*
X57236Y-30707D01*
X57344Y-30707D01*
X57390Y-30688D01*
X57625Y-30688D01*
X57670Y-30707D01*
X57778Y-30707D01*
X57824Y-30688D01*
X66004Y-30688D01*
X66004Y-39500D01*
X65997Y-39516D01*
X65997Y-39624D01*
X66004Y-39641D01*
X66004Y-39933D01*
X65997Y-39949D01*
X65997Y-40057D01*
X66004Y-40074D01*
X66004Y-40366D01*
X65997Y-40382D01*
X65997Y-40490D01*
X66004Y-40507D01*
X66004Y-40799D01*
X65997Y-40815D01*
X65997Y-40923D01*
X66004Y-40940D01*
X66004Y-49547D01*
X66004Y-49547D01*
G37*
G54D26*
X66004Y-49547D02*
X63706Y-49542D01*
X63706Y-31756D01*
X63646Y-31612D01*
X63536Y-31501D01*
X63392Y-31442D01*
X63236Y-31441D01*
X63092Y-31501D01*
X62981Y-31611D01*
X62922Y-31755D01*
X62921Y-31911D01*
X62981Y-32055D01*
X63091Y-32166D01*
X63235Y-32225D01*
X63391Y-32226D01*
X63535Y-32166D01*
X63646Y-32056D01*
X63705Y-31912D01*
X63706Y-31756D01*
X63706Y-49542D01*
X63435Y-49541D01*
X63435Y-48272D01*
X63375Y-48128D01*
X63265Y-48017D01*
X63121Y-47958D01*
X62965Y-47957D01*
X62821Y-48017D01*
X62710Y-48127D01*
X62706Y-48139D01*
X62706Y-31756D01*
X62646Y-31612D01*
X62536Y-31501D01*
X62392Y-31442D01*
X62236Y-31441D01*
X62092Y-31501D01*
X61981Y-31611D01*
X61922Y-31755D01*
X61921Y-31911D01*
X61981Y-32055D01*
X62091Y-32166D01*
X62235Y-32225D01*
X62391Y-32226D01*
X62535Y-32166D01*
X62646Y-32056D01*
X62705Y-31912D01*
X62706Y-31756D01*
X62706Y-48139D01*
X62651Y-48271D01*
X62650Y-48427D01*
X62710Y-48571D01*
X62820Y-48682D01*
X62964Y-48741D01*
X63120Y-48742D01*
X63264Y-48682D01*
X63375Y-48572D01*
X63434Y-48428D01*
X63435Y-48272D01*
X63435Y-49541D01*
X62435Y-49539D01*
X62435Y-48272D01*
X62375Y-48128D01*
X62265Y-48017D01*
X62230Y-48003D01*
X62230Y-39765D01*
X62201Y-39694D01*
X62156Y-39649D01*
X62197Y-39608D01*
X62226Y-39538D01*
X62227Y-39462D01*
X62198Y-39391D01*
X62144Y-39338D01*
X62074Y-39309D01*
X61998Y-39308D01*
X61927Y-39337D01*
X61874Y-39391D01*
X61845Y-39461D01*
X61844Y-39537D01*
X61873Y-39608D01*
X61918Y-39653D01*
X61877Y-39694D01*
X61848Y-39764D01*
X61847Y-39840D01*
X61876Y-39911D01*
X61930Y-39964D01*
X62000Y-39993D01*
X62076Y-39994D01*
X62147Y-39965D01*
X62200Y-39911D01*
X62229Y-39841D01*
X62230Y-39765D01*
X62230Y-48003D01*
X62121Y-47958D01*
X62012Y-47957D01*
X62012Y-41980D01*
X61983Y-41909D01*
X61929Y-41856D01*
X61919Y-41851D01*
X61919Y-40608D01*
X61890Y-40537D01*
X61836Y-40484D01*
X61785Y-40462D01*
X61785Y-38045D01*
X61756Y-37974D01*
X61702Y-37921D01*
X61698Y-37919D01*
X61698Y-31849D01*
X61674Y-31700D01*
X61663Y-31673D01*
X61619Y-31634D01*
X61513Y-31740D01*
X61513Y-31528D01*
X61474Y-31484D01*
X61329Y-31449D01*
X61180Y-31473D01*
X61153Y-31484D01*
X61114Y-31528D01*
X61314Y-31727D01*
X61513Y-31528D01*
X61513Y-31740D01*
X61420Y-31834D01*
X61619Y-32033D01*
X61663Y-31994D01*
X61698Y-31849D01*
X61698Y-37919D01*
X61632Y-37892D01*
X61556Y-37891D01*
X61513Y-37909D01*
X61513Y-32139D01*
X61314Y-31940D01*
X61207Y-32046D01*
X61207Y-31834D01*
X61008Y-31634D01*
X60964Y-31673D01*
X60929Y-31818D01*
X60953Y-31967D01*
X60964Y-31994D01*
X61008Y-32033D01*
X61207Y-31834D01*
X61207Y-32046D01*
X61114Y-32139D01*
X61153Y-32183D01*
X61298Y-32218D01*
X61447Y-32194D01*
X61474Y-32183D01*
X61513Y-32139D01*
X61513Y-37909D01*
X61485Y-37920D01*
X61432Y-37974D01*
X61403Y-38044D01*
X61402Y-38120D01*
X61431Y-38191D01*
X61485Y-38244D01*
X61555Y-38273D01*
X61631Y-38274D01*
X61702Y-38245D01*
X61755Y-38191D01*
X61784Y-38121D01*
X61785Y-38045D01*
X61785Y-40462D01*
X61766Y-40455D01*
X61690Y-40454D01*
X61619Y-40483D01*
X61566Y-40537D01*
X61537Y-40607D01*
X61536Y-40683D01*
X61565Y-40754D01*
X61619Y-40807D01*
X61689Y-40836D01*
X61765Y-40837D01*
X61836Y-40808D01*
X61889Y-40754D01*
X61918Y-40684D01*
X61919Y-40608D01*
X61919Y-41851D01*
X61859Y-41827D01*
X61783Y-41826D01*
X61712Y-41855D01*
X61659Y-41909D01*
X61630Y-41979D01*
X61629Y-42055D01*
X61658Y-42126D01*
X61712Y-42179D01*
X61782Y-42208D01*
X61858Y-42209D01*
X61929Y-42180D01*
X61982Y-42126D01*
X62011Y-42056D01*
X62012Y-41980D01*
X62012Y-47957D01*
X61965Y-47957D01*
X61864Y-47999D01*
X61864Y-43217D01*
X61838Y-43154D01*
X61790Y-43106D01*
X61727Y-43079D01*
X61658Y-43079D01*
X61595Y-43106D01*
X61547Y-43154D01*
X61520Y-43217D01*
X61520Y-43286D01*
X61547Y-43349D01*
X61595Y-43397D01*
X61658Y-43423D01*
X61726Y-43423D01*
X61790Y-43397D01*
X61838Y-43349D01*
X61864Y-43286D01*
X61864Y-43217D01*
X61864Y-47999D01*
X61821Y-48017D01*
X61710Y-48127D01*
X61651Y-48271D01*
X61650Y-48427D01*
X61710Y-48571D01*
X61820Y-48682D01*
X61964Y-48741D01*
X62120Y-48742D01*
X62264Y-48682D01*
X62375Y-48572D01*
X62434Y-48428D01*
X62435Y-48272D01*
X62435Y-49539D01*
X61576Y-49537D01*
X61576Y-44985D01*
X61565Y-44957D01*
X61565Y-44591D01*
X61545Y-44543D01*
X61507Y-44506D01*
X61459Y-44486D01*
X61406Y-44486D01*
X61358Y-44506D01*
X61321Y-44543D01*
X61302Y-44589D01*
X60706Y-45185D01*
X60706Y-31756D01*
X60646Y-31612D01*
X60536Y-31501D01*
X60392Y-31442D01*
X60236Y-31441D01*
X60092Y-31501D01*
X59981Y-31611D01*
X59922Y-31755D01*
X59921Y-31911D01*
X59981Y-32055D01*
X60091Y-32166D01*
X60235Y-32225D01*
X60391Y-32226D01*
X60535Y-32166D01*
X60646Y-32056D01*
X60705Y-31912D01*
X60706Y-31756D01*
X60706Y-45185D01*
X60645Y-45246D01*
X60645Y-40965D01*
X60618Y-40902D01*
X60570Y-40854D01*
X60507Y-40828D01*
X60438Y-40827D01*
X60375Y-40854D01*
X60327Y-40902D01*
X60301Y-40965D01*
X60300Y-41034D01*
X60327Y-41097D01*
X60375Y-41145D01*
X60438Y-41171D01*
X60507Y-41172D01*
X60570Y-41145D01*
X60618Y-41097D01*
X60644Y-41034D01*
X60645Y-40965D01*
X60645Y-45246D01*
X60413Y-45477D01*
X59453Y-45477D01*
X59453Y-42032D01*
X59426Y-41969D01*
X59389Y-41932D01*
X59417Y-41904D01*
X59443Y-41841D01*
X59444Y-41772D01*
X59417Y-41709D01*
X59369Y-41661D01*
X59306Y-41635D01*
X59237Y-41634D01*
X59174Y-41661D01*
X59126Y-41709D01*
X59100Y-41772D01*
X59099Y-41841D01*
X59126Y-41904D01*
X59163Y-41941D01*
X59135Y-41969D01*
X59109Y-42032D01*
X59108Y-42101D01*
X59135Y-42164D01*
X59183Y-42212D01*
X59246Y-42238D01*
X59315Y-42239D01*
X59378Y-42212D01*
X59426Y-42164D01*
X59452Y-42101D01*
X59453Y-42032D01*
X59453Y-45477D01*
X58912Y-45477D01*
X58912Y-41934D01*
X58885Y-41871D01*
X58837Y-41823D01*
X58774Y-41797D01*
X58705Y-41796D01*
X58642Y-41823D01*
X58636Y-41829D01*
X58633Y-41827D01*
X58589Y-41808D01*
X58589Y-41477D01*
X58566Y-41421D01*
X58523Y-41378D01*
X58467Y-41355D01*
X58406Y-41355D01*
X58350Y-41378D01*
X58340Y-41388D01*
X58326Y-41374D01*
X58270Y-41351D01*
X58209Y-41351D01*
X58153Y-41374D01*
X58110Y-41417D01*
X58087Y-41473D01*
X58087Y-41534D01*
X58110Y-41590D01*
X58153Y-41633D01*
X58209Y-41656D01*
X58270Y-41656D01*
X58326Y-41633D01*
X58336Y-41623D01*
X58350Y-41637D01*
X58406Y-41660D01*
X58467Y-41660D01*
X58523Y-41637D01*
X58566Y-41594D01*
X58589Y-41538D01*
X58589Y-41477D01*
X58589Y-41808D01*
X58570Y-41801D01*
X58501Y-41800D01*
X58438Y-41827D01*
X58390Y-41875D01*
X58364Y-41938D01*
X58363Y-42007D01*
X58390Y-42070D01*
X58438Y-42118D01*
X58501Y-42144D01*
X58570Y-42145D01*
X58633Y-42118D01*
X58639Y-42112D01*
X58642Y-42114D01*
X58705Y-42140D01*
X58774Y-42141D01*
X58837Y-42114D01*
X58885Y-42066D01*
X58911Y-42003D01*
X58912Y-41934D01*
X58912Y-45477D01*
X58455Y-45477D01*
X58455Y-43108D01*
X58426Y-43037D01*
X58372Y-42984D01*
X58302Y-42955D01*
X58226Y-42954D01*
X58155Y-42983D01*
X58102Y-43037D01*
X58073Y-43107D01*
X58072Y-43183D01*
X58101Y-43254D01*
X58155Y-43307D01*
X58225Y-43336D01*
X58301Y-43337D01*
X58372Y-43308D01*
X58425Y-43254D01*
X58454Y-43184D01*
X58455Y-43108D01*
X58455Y-45477D01*
X57947Y-45477D01*
X57947Y-43411D01*
X57918Y-43340D01*
X57864Y-43287D01*
X57794Y-43258D01*
X57718Y-43257D01*
X57647Y-43286D01*
X57637Y-43297D01*
X57637Y-41902D01*
X57610Y-41839D01*
X57608Y-41836D01*
X57608Y-41836D01*
X57605Y-41823D01*
X57605Y-41823D01*
X57572Y-41774D01*
X57572Y-41774D01*
X57404Y-41606D01*
X57404Y-41535D01*
X57404Y-41534D01*
X57404Y-41473D01*
X57381Y-41417D01*
X57338Y-41374D01*
X57282Y-41351D01*
X57221Y-41351D01*
X57165Y-41374D01*
X57155Y-41384D01*
X57145Y-41374D01*
X57089Y-41351D01*
X57028Y-41351D01*
X56972Y-41374D01*
X56958Y-41388D01*
X56944Y-41374D01*
X56888Y-41351D01*
X56827Y-41351D01*
X56771Y-41374D01*
X56761Y-41384D01*
X56751Y-41374D01*
X56695Y-41351D01*
X56634Y-41351D01*
X56578Y-41374D01*
X56535Y-41417D01*
X56512Y-41473D01*
X56512Y-41534D01*
X56513Y-41535D01*
X56513Y-41654D01*
X56515Y-41664D01*
X56514Y-41674D01*
X56520Y-41693D01*
X56524Y-41712D01*
X56530Y-41720D01*
X56533Y-41730D01*
X56546Y-41745D01*
X56557Y-41761D01*
X56566Y-41767D01*
X56573Y-41775D01*
X56807Y-41952D01*
X56806Y-41971D01*
X56785Y-42024D01*
X56784Y-42093D01*
X56811Y-42156D01*
X56859Y-42204D01*
X56922Y-42230D01*
X56991Y-42231D01*
X57054Y-42204D01*
X57075Y-42184D01*
X57107Y-42216D01*
X57170Y-42242D01*
X57239Y-42243D01*
X57302Y-42216D01*
X57350Y-42168D01*
X57376Y-42105D01*
X57376Y-42086D01*
X57430Y-42108D01*
X57499Y-42109D01*
X57562Y-42082D01*
X57610Y-42034D01*
X57636Y-41971D01*
X57637Y-41902D01*
X57637Y-43297D01*
X57594Y-43340D01*
X57565Y-43410D01*
X57564Y-43486D01*
X57593Y-43557D01*
X57647Y-43610D01*
X57717Y-43639D01*
X57793Y-43640D01*
X57864Y-43611D01*
X57917Y-43557D01*
X57946Y-43487D01*
X57947Y-43411D01*
X57947Y-45477D01*
X57121Y-45477D01*
X57121Y-42583D01*
X57094Y-42520D01*
X57046Y-42472D01*
X56983Y-42446D01*
X56914Y-42445D01*
X56851Y-42472D01*
X56803Y-42520D01*
X56777Y-42583D01*
X56776Y-42652D01*
X56803Y-42715D01*
X56851Y-42763D01*
X56914Y-42789D01*
X56983Y-42790D01*
X57046Y-42763D01*
X57094Y-42715D01*
X57120Y-42652D01*
X57121Y-42583D01*
X57121Y-45477D01*
X56974Y-45477D01*
X56974Y-43135D01*
X56945Y-43064D01*
X56891Y-43011D01*
X56821Y-42982D01*
X56745Y-42981D01*
X56674Y-43010D01*
X56621Y-43064D01*
X56592Y-43134D01*
X56591Y-43210D01*
X56620Y-43281D01*
X56674Y-43334D01*
X56744Y-43363D01*
X56820Y-43364D01*
X56891Y-43335D01*
X56944Y-43281D01*
X56973Y-43211D01*
X56974Y-43135D01*
X56974Y-45477D01*
X56569Y-45477D01*
X56569Y-43937D01*
X56540Y-43866D01*
X56486Y-43813D01*
X56432Y-43790D01*
X56432Y-42918D01*
X56405Y-42855D01*
X56357Y-42807D01*
X56294Y-42781D01*
X56225Y-42780D01*
X56162Y-42807D01*
X56114Y-42855D01*
X56088Y-42918D01*
X56087Y-42987D01*
X56114Y-43050D01*
X56162Y-43098D01*
X56225Y-43124D01*
X56294Y-43125D01*
X56357Y-43098D01*
X56405Y-43050D01*
X56431Y-42987D01*
X56432Y-42918D01*
X56432Y-43790D01*
X56416Y-43784D01*
X56340Y-43783D01*
X56269Y-43812D01*
X56239Y-43842D01*
X56210Y-43813D01*
X56140Y-43784D01*
X56064Y-43783D01*
X55993Y-43812D01*
X55940Y-43866D01*
X55939Y-43869D01*
X55939Y-43512D01*
X55938Y-43511D01*
X55939Y-43474D01*
X55924Y-43438D01*
X55924Y-43438D01*
X55924Y-43438D01*
X55910Y-43403D01*
X55883Y-43376D01*
X55883Y-43376D01*
X55883Y-43376D01*
X55856Y-43350D01*
X55821Y-43335D01*
X55821Y-43335D01*
X55821Y-43335D01*
X55786Y-43321D01*
X55748Y-43321D01*
X55747Y-43321D01*
X55710Y-43320D01*
X55674Y-43335D01*
X55674Y-43335D01*
X55674Y-43335D01*
X55639Y-43349D01*
X55612Y-43376D01*
X55612Y-43376D01*
X55612Y-43376D01*
X55586Y-43403D01*
X55571Y-43438D01*
X55571Y-43438D01*
X55571Y-43438D01*
X55557Y-43473D01*
X55557Y-43511D01*
X55557Y-43512D01*
X55557Y-43512D01*
X55556Y-43549D01*
X55557Y-43549D01*
X55557Y-43999D01*
X54829Y-44726D01*
X54788Y-44788D01*
X54774Y-44862D01*
X54774Y-45130D01*
X54788Y-45203D01*
X54829Y-45265D01*
X54840Y-45276D01*
X54840Y-45313D01*
X54855Y-45349D01*
X54855Y-45349D01*
X54855Y-45349D01*
X54869Y-45384D01*
X54896Y-45411D01*
X54896Y-45411D01*
X54896Y-45411D01*
X54923Y-45437D01*
X54958Y-45452D01*
X54958Y-45452D01*
X54958Y-45452D01*
X54993Y-45466D01*
X55031Y-45466D01*
X55032Y-45467D01*
X55032Y-45466D01*
X55069Y-45467D01*
X55105Y-45452D01*
X55105Y-45452D01*
X55105Y-45452D01*
X55140Y-45438D01*
X55167Y-45411D01*
X55167Y-45411D01*
X55167Y-45411D01*
X55193Y-45384D01*
X55208Y-45349D01*
X55208Y-45349D01*
X55208Y-45349D01*
X55222Y-45314D01*
X55222Y-45276D01*
X55223Y-45276D01*
X55223Y-45275D01*
X55223Y-45238D01*
X55223Y-45238D01*
X55223Y-45197D01*
X55222Y-45196D01*
X55223Y-45196D01*
X55220Y-45182D01*
X55219Y-45179D01*
X55254Y-45179D01*
X55325Y-45150D01*
X55378Y-45096D01*
X55407Y-45026D01*
X55408Y-44950D01*
X55379Y-44879D01*
X55325Y-44826D01*
X55286Y-44810D01*
X55883Y-44214D01*
X55924Y-44152D01*
X55938Y-44080D01*
X55939Y-44083D01*
X55993Y-44136D01*
X56063Y-44165D01*
X56139Y-44166D01*
X56210Y-44137D01*
X56240Y-44107D01*
X56269Y-44136D01*
X56339Y-44165D01*
X56415Y-44166D01*
X56486Y-44137D01*
X56539Y-44083D01*
X56568Y-44013D01*
X56569Y-43937D01*
X56569Y-45477D01*
X54783Y-45477D01*
X54740Y-45486D01*
X54703Y-45510D01*
X53730Y-46484D01*
X53730Y-44159D01*
X53701Y-44088D01*
X53647Y-44035D01*
X53633Y-44029D01*
X53647Y-44024D01*
X53700Y-43970D01*
X53729Y-43900D01*
X53730Y-43824D01*
X53701Y-43753D01*
X53647Y-43700D01*
X53577Y-43671D01*
X53501Y-43670D01*
X53430Y-43699D01*
X53377Y-43753D01*
X53348Y-43823D01*
X53347Y-43899D01*
X53376Y-43970D01*
X53430Y-44023D01*
X53444Y-44029D01*
X53430Y-44034D01*
X53377Y-44088D01*
X53348Y-44158D01*
X53347Y-44234D01*
X53376Y-44305D01*
X53430Y-44358D01*
X53500Y-44387D01*
X53576Y-44388D01*
X53647Y-44359D01*
X53700Y-44305D01*
X53729Y-44235D01*
X53730Y-44159D01*
X53730Y-46484D01*
X53685Y-46528D01*
X53132Y-46528D01*
X53132Y-43582D01*
X53103Y-43511D01*
X53049Y-43458D01*
X52979Y-43429D01*
X52934Y-43428D01*
X52935Y-43386D01*
X52906Y-43315D01*
X52852Y-43262D01*
X52782Y-43233D01*
X52706Y-43232D01*
X52635Y-43261D01*
X52582Y-43315D01*
X52566Y-43353D01*
X52551Y-43315D01*
X52497Y-43262D01*
X52427Y-43233D01*
X52351Y-43232D01*
X52280Y-43261D01*
X52227Y-43315D01*
X52198Y-43385D01*
X52197Y-43429D01*
X52194Y-43429D01*
X52123Y-43458D01*
X52070Y-43512D01*
X52041Y-43582D01*
X52040Y-43658D01*
X52069Y-43729D01*
X52123Y-43782D01*
X52193Y-43811D01*
X52269Y-43812D01*
X52340Y-43783D01*
X52393Y-43729D01*
X52409Y-43692D01*
X52423Y-43729D01*
X52477Y-43782D01*
X52547Y-43811D01*
X52623Y-43812D01*
X52694Y-43783D01*
X52747Y-43729D01*
X52763Y-43691D01*
X52778Y-43728D01*
X52832Y-43781D01*
X52902Y-43810D01*
X52978Y-43811D01*
X53049Y-43782D01*
X53102Y-43728D01*
X53131Y-43658D01*
X53132Y-43582D01*
X53132Y-46528D01*
X53002Y-46528D01*
X53002Y-44954D01*
X52973Y-44883D01*
X52919Y-44830D01*
X52849Y-44801D01*
X52773Y-44800D01*
X52702Y-44829D01*
X52649Y-44883D01*
X52620Y-44953D01*
X52619Y-45029D01*
X52648Y-45100D01*
X52702Y-45153D01*
X52772Y-45182D01*
X52848Y-45183D01*
X52919Y-45154D01*
X52972Y-45100D01*
X53001Y-45030D01*
X53002Y-44954D01*
X53002Y-46528D01*
X52966Y-46528D01*
X52966Y-45355D01*
X52937Y-45285D01*
X52883Y-45231D01*
X52813Y-45202D01*
X52737Y-45202D01*
X52667Y-45231D01*
X52613Y-45285D01*
X52584Y-45355D01*
X52584Y-45431D01*
X52613Y-45501D01*
X52667Y-45555D01*
X52737Y-45584D01*
X52813Y-45584D01*
X52883Y-45555D01*
X52937Y-45502D01*
X52966Y-45431D01*
X52966Y-45355D01*
X52966Y-46528D01*
X52946Y-46528D01*
X52946Y-45769D01*
X52917Y-45699D01*
X52864Y-45645D01*
X52794Y-45616D01*
X52718Y-45616D01*
X52647Y-45645D01*
X52594Y-45698D01*
X52564Y-45768D01*
X52564Y-45844D01*
X52593Y-45915D01*
X52647Y-45968D01*
X52717Y-45998D01*
X52793Y-45998D01*
X52863Y-45969D01*
X52917Y-45915D01*
X52946Y-45845D01*
X52946Y-45769D01*
X52946Y-46528D01*
X52553Y-46528D01*
X52553Y-45907D01*
X52524Y-45836D01*
X52470Y-45783D01*
X52400Y-45753D01*
X52324Y-45753D01*
X52254Y-45782D01*
X52200Y-45836D01*
X52179Y-45887D01*
X52179Y-45749D01*
X52159Y-45701D01*
X52159Y-45355D01*
X52130Y-45285D01*
X52076Y-45231D01*
X52006Y-45202D01*
X51930Y-45202D01*
X51860Y-45231D01*
X51806Y-45285D01*
X51777Y-45355D01*
X51777Y-45431D01*
X51806Y-45501D01*
X51860Y-45555D01*
X51930Y-45584D01*
X52006Y-45584D01*
X52076Y-45555D01*
X52130Y-45502D01*
X52159Y-45431D01*
X52159Y-45355D01*
X52159Y-45701D01*
X52150Y-45679D01*
X52096Y-45625D01*
X52026Y-45596D01*
X51950Y-45596D01*
X51880Y-45625D01*
X51826Y-45679D01*
X51797Y-45749D01*
X51797Y-45825D01*
X51826Y-45895D01*
X51879Y-45949D01*
X51950Y-45978D01*
X52026Y-45978D01*
X52096Y-45949D01*
X52150Y-45895D01*
X52179Y-45825D01*
X52179Y-45749D01*
X52179Y-45887D01*
X52171Y-45906D01*
X52171Y-45982D01*
X52200Y-46052D01*
X52253Y-46106D01*
X52324Y-46135D01*
X52400Y-46135D01*
X52470Y-46106D01*
X52524Y-46053D01*
X52553Y-45983D01*
X52553Y-45907D01*
X52553Y-46528D01*
X51755Y-46528D01*
X51360Y-46133D01*
X51360Y-45025D01*
X51331Y-44954D01*
X51321Y-44945D01*
X51330Y-44935D01*
X51359Y-44865D01*
X51360Y-44789D01*
X51331Y-44718D01*
X51277Y-44665D01*
X51207Y-44636D01*
X51131Y-44635D01*
X51060Y-44664D01*
X51007Y-44718D01*
X50978Y-44788D01*
X50977Y-44864D01*
X51006Y-44935D01*
X51016Y-44944D01*
X51007Y-44954D01*
X50978Y-45024D01*
X50977Y-45100D01*
X51006Y-45171D01*
X51060Y-45224D01*
X51130Y-45253D01*
X51206Y-45254D01*
X51277Y-45225D01*
X51330Y-45171D01*
X51359Y-45101D01*
X51360Y-45025D01*
X51360Y-46133D01*
X49707Y-44480D01*
X49707Y-42583D01*
X49680Y-42520D01*
X49632Y-42472D01*
X49569Y-42446D01*
X49500Y-42445D01*
X49437Y-42472D01*
X49389Y-42520D01*
X49363Y-42583D01*
X49363Y-42612D01*
X48284Y-42612D01*
X48251Y-42579D01*
X48188Y-42553D01*
X48119Y-42552D01*
X48056Y-42579D01*
X48008Y-42627D01*
X47982Y-42690D01*
X47981Y-42759D01*
X48008Y-42822D01*
X48056Y-42870D01*
X48119Y-42896D01*
X48188Y-42897D01*
X48251Y-42870D01*
X48284Y-42838D01*
X49428Y-42838D01*
X49471Y-42829D01*
X49507Y-42804D01*
X49522Y-42789D01*
X49569Y-42790D01*
X49632Y-42763D01*
X49680Y-42715D01*
X49706Y-42652D01*
X49707Y-42583D01*
X49707Y-44480D01*
X49191Y-43965D01*
X49191Y-43353D01*
X49207Y-43338D01*
X49230Y-43282D01*
X49230Y-43221D01*
X49207Y-43165D01*
X49164Y-43123D01*
X49109Y-43099D01*
X49048Y-43099D01*
X48992Y-43123D01*
X48949Y-43165D01*
X48926Y-43221D01*
X48926Y-43282D01*
X48949Y-43337D01*
X48965Y-43353D01*
X48965Y-44011D01*
X48974Y-44055D01*
X48998Y-44091D01*
X51628Y-46721D01*
X51628Y-46721D01*
X51665Y-46746D01*
X51708Y-46754D01*
X53732Y-46754D01*
X53775Y-46746D01*
X53812Y-46721D01*
X54830Y-45703D01*
X60460Y-45703D01*
X60503Y-45694D01*
X60540Y-45670D01*
X61462Y-44748D01*
X61507Y-44730D01*
X61544Y-44692D01*
X61565Y-44644D01*
X61565Y-44591D01*
X61565Y-44957D01*
X61556Y-44937D01*
X61519Y-44899D01*
X61471Y-44879D01*
X61418Y-44879D01*
X61370Y-44899D01*
X61333Y-44936D01*
X61312Y-44985D01*
X61312Y-45037D01*
X61332Y-45086D01*
X61370Y-45123D01*
X61418Y-45143D01*
X61471Y-45143D01*
X61519Y-45123D01*
X61556Y-45086D01*
X61576Y-45038D01*
X61576Y-44985D01*
X61576Y-49537D01*
X60435Y-49535D01*
X60435Y-48272D01*
X60375Y-48128D01*
X60265Y-48017D01*
X60121Y-47958D01*
X59965Y-47957D01*
X59821Y-48017D01*
X59710Y-48127D01*
X59651Y-48271D01*
X59650Y-48427D01*
X59710Y-48571D01*
X59820Y-48682D01*
X59964Y-48741D01*
X60120Y-48742D01*
X60264Y-48682D01*
X60375Y-48572D01*
X60434Y-48428D01*
X60435Y-48272D01*
X60435Y-49535D01*
X59435Y-49533D01*
X59435Y-48609D01*
X59435Y-48012D01*
X59420Y-47978D01*
X59394Y-47952D01*
X59360Y-47938D01*
X59322Y-47937D01*
X59167Y-47937D01*
X59167Y-46734D01*
X59138Y-46663D01*
X59084Y-46610D01*
X59014Y-46581D01*
X58938Y-46580D01*
X58867Y-46609D01*
X58814Y-46663D01*
X58785Y-46733D01*
X58784Y-46809D01*
X58813Y-46880D01*
X58867Y-46933D01*
X58937Y-46962D01*
X59013Y-46963D01*
X59084Y-46934D01*
X59137Y-46880D01*
X59166Y-46810D01*
X59167Y-46734D01*
X59167Y-47937D01*
X58725Y-47937D01*
X58691Y-47952D01*
X58665Y-47978D01*
X58651Y-48012D01*
X58650Y-48050D01*
X58650Y-48647D01*
X58665Y-48681D01*
X58691Y-48707D01*
X58725Y-48721D01*
X58763Y-48722D01*
X59360Y-48722D01*
X59394Y-48707D01*
X59420Y-48681D01*
X59434Y-48647D01*
X59435Y-48609D01*
X59435Y-49533D01*
X57857Y-49529D01*
X57780Y-49497D01*
X57672Y-49497D01*
X57595Y-49529D01*
X57421Y-49528D01*
X57346Y-49497D01*
X57238Y-49497D01*
X57163Y-49528D01*
X56986Y-49527D01*
X56968Y-49520D01*
X56968Y-49001D01*
X56908Y-48857D01*
X56798Y-48746D01*
X56654Y-48687D01*
X56498Y-48686D01*
X56354Y-48746D01*
X56243Y-48856D01*
X56184Y-49000D01*
X56183Y-49156D01*
X56243Y-49300D01*
X56353Y-49411D01*
X56497Y-49470D01*
X56653Y-49471D01*
X56797Y-49411D01*
X56908Y-49301D01*
X56967Y-49157D01*
X56968Y-49001D01*
X56968Y-49520D01*
X56913Y-49497D01*
X56805Y-49497D01*
X56732Y-49527D01*
X56551Y-49527D01*
X56480Y-49497D01*
X56372Y-49497D01*
X56302Y-49526D01*
X53025Y-49519D01*
X53025Y-49214D01*
X52996Y-49143D01*
X52942Y-49090D01*
X52929Y-49084D01*
X52942Y-49079D01*
X52996Y-49025D01*
X53025Y-48955D01*
X53025Y-48879D01*
X52996Y-48809D01*
X52947Y-48759D01*
X52996Y-48710D01*
X53025Y-48640D01*
X53025Y-48564D01*
X53025Y-48170D01*
X53025Y-47678D01*
X52996Y-47608D01*
X52942Y-47554D01*
X52882Y-47529D01*
X52942Y-47504D01*
X52996Y-47450D01*
X53025Y-47380D01*
X53025Y-47304D01*
X52996Y-47234D01*
X52942Y-47180D01*
X52872Y-47151D01*
X52796Y-47151D01*
X52726Y-47180D01*
X52672Y-47234D01*
X52647Y-47294D01*
X52622Y-47234D01*
X52568Y-47180D01*
X52498Y-47151D01*
X52422Y-47151D01*
X52352Y-47180D01*
X52298Y-47234D01*
X52269Y-47304D01*
X52269Y-47380D01*
X52298Y-47450D01*
X52352Y-47504D01*
X52422Y-47533D01*
X52498Y-47533D01*
X52568Y-47504D01*
X52622Y-47450D01*
X52647Y-47390D01*
X52672Y-47450D01*
X52726Y-47504D01*
X52787Y-47529D01*
X52726Y-47554D01*
X52672Y-47608D01*
X52643Y-47678D01*
X52643Y-47754D01*
X52672Y-47824D01*
X52726Y-47878D01*
X52796Y-47907D01*
X52872Y-47907D01*
X52942Y-47878D01*
X52996Y-47824D01*
X53025Y-47754D01*
X53025Y-47678D01*
X53025Y-48170D01*
X52996Y-48100D01*
X52942Y-48046D01*
X52872Y-48017D01*
X52796Y-48017D01*
X52726Y-48046D01*
X52672Y-48100D01*
X52643Y-48170D01*
X52643Y-48246D01*
X52672Y-48316D01*
X52726Y-48370D01*
X52796Y-48399D01*
X52872Y-48399D01*
X52942Y-48370D01*
X52996Y-48316D01*
X53025Y-48246D01*
X53025Y-48170D01*
X53025Y-48564D01*
X52996Y-48494D01*
X52942Y-48440D01*
X52872Y-48411D01*
X52796Y-48411D01*
X52726Y-48440D01*
X52672Y-48494D01*
X52643Y-48564D01*
X52643Y-48640D01*
X52672Y-48710D01*
X52722Y-48759D01*
X52672Y-48808D01*
X52643Y-48879D01*
X52643Y-48955D01*
X52672Y-49025D01*
X52726Y-49079D01*
X52739Y-49084D01*
X52726Y-49089D01*
X52672Y-49143D01*
X52643Y-49213D01*
X52643Y-49289D01*
X52672Y-49360D01*
X52726Y-49413D01*
X52796Y-49442D01*
X52872Y-49443D01*
X52942Y-49413D01*
X52996Y-49360D01*
X53025Y-49290D01*
X53025Y-49214D01*
X53025Y-49519D01*
X52612Y-49518D01*
X52612Y-48682D01*
X52612Y-47737D01*
X52583Y-47667D01*
X52529Y-47613D01*
X52459Y-47584D01*
X52383Y-47584D01*
X52313Y-47613D01*
X52259Y-47667D01*
X52238Y-47718D01*
X52238Y-47304D01*
X52209Y-47234D01*
X52155Y-47180D01*
X52085Y-47151D01*
X52009Y-47151D01*
X51939Y-47180D01*
X51885Y-47234D01*
X51860Y-47294D01*
X51835Y-47234D01*
X51781Y-47180D01*
X51711Y-47151D01*
X51635Y-47151D01*
X51565Y-47180D01*
X51515Y-47229D01*
X51466Y-47180D01*
X51396Y-47151D01*
X51320Y-47151D01*
X51250Y-47180D01*
X51196Y-47234D01*
X51167Y-47304D01*
X51167Y-47380D01*
X51196Y-47450D01*
X51249Y-47504D01*
X51286Y-47519D01*
X51250Y-47534D01*
X51196Y-47588D01*
X51167Y-47658D01*
X51167Y-47734D01*
X51196Y-47804D01*
X51249Y-47858D01*
X51310Y-47883D01*
X51250Y-47908D01*
X51196Y-47962D01*
X51167Y-48032D01*
X51167Y-48108D01*
X51196Y-48178D01*
X51249Y-48232D01*
X51320Y-48261D01*
X51396Y-48261D01*
X51466Y-48232D01*
X51520Y-48179D01*
X51549Y-48109D01*
X51549Y-48033D01*
X51520Y-47962D01*
X51466Y-47909D01*
X51405Y-47883D01*
X51466Y-47858D01*
X51520Y-47805D01*
X51549Y-47735D01*
X51549Y-47659D01*
X51520Y-47588D01*
X51466Y-47535D01*
X51429Y-47519D01*
X51466Y-47504D01*
X51515Y-47455D01*
X51564Y-47504D01*
X51635Y-47533D01*
X51711Y-47533D01*
X51781Y-47504D01*
X51835Y-47450D01*
X51860Y-47390D01*
X51885Y-47450D01*
X51938Y-47504D01*
X52009Y-47533D01*
X52085Y-47533D01*
X52155Y-47504D01*
X52209Y-47450D01*
X52238Y-47380D01*
X52238Y-47304D01*
X52238Y-47718D01*
X52230Y-47737D01*
X52230Y-47813D01*
X52259Y-47883D01*
X52312Y-47937D01*
X52383Y-47966D01*
X52459Y-47966D01*
X52529Y-47937D01*
X52583Y-47883D01*
X52612Y-47813D01*
X52612Y-47737D01*
X52612Y-48682D01*
X52583Y-48612D01*
X52529Y-48558D01*
X52459Y-48529D01*
X52383Y-48529D01*
X52313Y-48558D01*
X52259Y-48612D01*
X52230Y-48682D01*
X52230Y-48758D01*
X52259Y-48828D01*
X52312Y-48882D01*
X52383Y-48911D01*
X52459Y-48911D01*
X52529Y-48882D01*
X52583Y-48828D01*
X52612Y-48758D01*
X52612Y-48682D01*
X52612Y-49518D01*
X52553Y-49518D01*
X52553Y-49214D01*
X52524Y-49143D01*
X52470Y-49090D01*
X52400Y-49061D01*
X52324Y-49060D01*
X52254Y-49089D01*
X52200Y-49143D01*
X52171Y-49213D01*
X52171Y-49289D01*
X52200Y-49360D01*
X52253Y-49413D01*
X52324Y-49442D01*
X52400Y-49443D01*
X52470Y-49413D01*
X52524Y-49360D01*
X52553Y-49290D01*
X52553Y-49214D01*
X52553Y-49518D01*
X52120Y-49517D01*
X52120Y-49214D01*
X52091Y-49143D01*
X52041Y-49094D01*
X52041Y-47973D01*
X52012Y-47903D01*
X51958Y-47849D01*
X51888Y-47820D01*
X51812Y-47820D01*
X51742Y-47849D01*
X51688Y-47903D01*
X51659Y-47973D01*
X51659Y-48049D01*
X51688Y-48119D01*
X51742Y-48173D01*
X51812Y-48202D01*
X51888Y-48202D01*
X51958Y-48173D01*
X52012Y-48120D01*
X52041Y-48049D01*
X52041Y-47973D01*
X52041Y-49094D01*
X52037Y-49090D01*
X52002Y-49075D01*
X52002Y-48820D01*
X51973Y-48750D01*
X51919Y-48696D01*
X51849Y-48667D01*
X51773Y-48667D01*
X51702Y-48696D01*
X51649Y-48749D01*
X51620Y-48820D01*
X51619Y-48896D01*
X51649Y-48966D01*
X51702Y-49020D01*
X51772Y-49049D01*
X51848Y-49049D01*
X51919Y-49020D01*
X51972Y-48966D01*
X52001Y-48896D01*
X52002Y-48820D01*
X52002Y-49075D01*
X51967Y-49061D01*
X51891Y-49060D01*
X51821Y-49089D01*
X51767Y-49143D01*
X51751Y-49180D01*
X51736Y-49143D01*
X51683Y-49090D01*
X51612Y-49061D01*
X51536Y-49060D01*
X51515Y-49069D01*
X51520Y-49065D01*
X51549Y-48994D01*
X51549Y-48918D01*
X51549Y-48525D01*
X51520Y-48454D01*
X51466Y-48401D01*
X51396Y-48372D01*
X51320Y-48371D01*
X51250Y-48400D01*
X51196Y-48454D01*
X51167Y-48524D01*
X51167Y-48600D01*
X51196Y-48671D01*
X51249Y-48724D01*
X51320Y-48753D01*
X51396Y-48754D01*
X51466Y-48725D01*
X51520Y-48671D01*
X51549Y-48601D01*
X51549Y-48525D01*
X51549Y-48918D01*
X51520Y-48848D01*
X51466Y-48794D01*
X51396Y-48765D01*
X51320Y-48765D01*
X51250Y-48794D01*
X51196Y-48848D01*
X51167Y-48918D01*
X51167Y-48994D01*
X51196Y-49064D01*
X51249Y-49118D01*
X51320Y-49147D01*
X51396Y-49147D01*
X51417Y-49138D01*
X51412Y-49143D01*
X51383Y-49213D01*
X51383Y-49289D01*
X51412Y-49360D01*
X51466Y-49413D01*
X51536Y-49442D01*
X51612Y-49443D01*
X51682Y-49413D01*
X51736Y-49360D01*
X51751Y-49323D01*
X51767Y-49360D01*
X51820Y-49413D01*
X51890Y-49442D01*
X51966Y-49443D01*
X52037Y-49413D01*
X52090Y-49360D01*
X52120Y-49290D01*
X52120Y-49214D01*
X52120Y-49517D01*
X49052Y-49510D01*
X49052Y-45049D01*
X49023Y-44978D01*
X48969Y-44925D01*
X48899Y-44896D01*
X48823Y-44895D01*
X48752Y-44924D01*
X48703Y-44974D01*
X48654Y-44925D01*
X48584Y-44896D01*
X48508Y-44895D01*
X48437Y-44924D01*
X48388Y-44974D01*
X48339Y-44925D01*
X48269Y-44896D01*
X48193Y-44895D01*
X48122Y-44924D01*
X48069Y-44978D01*
X48040Y-45048D01*
X48039Y-45124D01*
X48068Y-45195D01*
X48122Y-45248D01*
X48192Y-45277D01*
X48268Y-45278D01*
X48339Y-45249D01*
X48388Y-45199D01*
X48437Y-45248D01*
X48507Y-45277D01*
X48583Y-45278D01*
X48654Y-45249D01*
X48703Y-45199D01*
X48752Y-45248D01*
X48822Y-45277D01*
X48898Y-45278D01*
X48969Y-45249D01*
X49022Y-45195D01*
X49051Y-45125D01*
X49052Y-45049D01*
X49052Y-49510D01*
X47972Y-49508D01*
X47972Y-44444D01*
X47995Y-44389D01*
X47995Y-44281D01*
X47972Y-44225D01*
X47972Y-44011D01*
X47995Y-43956D01*
X47995Y-43848D01*
X47972Y-43792D01*
X47972Y-43578D01*
X47995Y-43523D01*
X47995Y-43415D01*
X47972Y-43359D01*
X47972Y-41282D01*
X47977Y-41287D01*
X48040Y-41313D01*
X48109Y-41314D01*
X48172Y-41287D01*
X48205Y-41255D01*
X50626Y-41255D01*
X51525Y-42153D01*
X51525Y-42224D01*
X51518Y-42231D01*
X51511Y-42224D01*
X51511Y-42189D01*
X51510Y-42188D01*
X51511Y-42188D01*
X51502Y-42145D01*
X51477Y-42109D01*
X51477Y-42109D01*
X51020Y-41652D01*
X50984Y-41627D01*
X50941Y-41619D01*
X48327Y-41619D01*
X48294Y-41586D01*
X48231Y-41560D01*
X48162Y-41559D01*
X48099Y-41586D01*
X48051Y-41634D01*
X48025Y-41697D01*
X48024Y-41766D01*
X48051Y-41829D01*
X48099Y-41877D01*
X48162Y-41903D01*
X48231Y-41904D01*
X48294Y-41877D01*
X48327Y-41845D01*
X50894Y-41845D01*
X51279Y-42230D01*
X51252Y-42257D01*
X51226Y-42320D01*
X51226Y-42325D01*
X50950Y-42050D01*
X50914Y-42025D01*
X50871Y-42017D01*
X48311Y-42017D01*
X48278Y-41984D01*
X48215Y-41958D01*
X48146Y-41957D01*
X48083Y-41984D01*
X48035Y-42032D01*
X48009Y-42095D01*
X48008Y-42164D01*
X48034Y-42226D01*
X48027Y-42233D01*
X48001Y-42296D01*
X48000Y-42365D01*
X48027Y-42428D01*
X48075Y-42476D01*
X48138Y-42502D01*
X48207Y-42503D01*
X48270Y-42476D01*
X48303Y-42444D01*
X50839Y-42444D01*
X51117Y-42721D01*
X51117Y-42721D01*
X51153Y-42746D01*
X51196Y-42755D01*
X51196Y-42754D01*
X51197Y-42755D01*
X52004Y-42755D01*
X52047Y-42746D01*
X52083Y-42721D01*
X52197Y-42607D01*
X52197Y-42607D01*
X52197Y-42607D01*
X52222Y-42571D01*
X52231Y-42528D01*
X52231Y-42484D01*
X52237Y-42478D01*
X52237Y-42708D01*
X52245Y-42751D01*
X52270Y-42787D01*
X52377Y-42894D01*
X52377Y-42894D01*
X52413Y-42919D01*
X52449Y-42926D01*
X52456Y-42928D01*
X52456Y-42927D01*
X52457Y-42928D01*
X52749Y-42928D01*
X53224Y-43402D01*
X53260Y-43427D01*
X53304Y-43436D01*
X54969Y-43436D01*
X55012Y-43427D01*
X55048Y-43402D01*
X55212Y-43238D01*
X55259Y-43239D01*
X55322Y-43212D01*
X55338Y-43196D01*
X55355Y-43212D01*
X55418Y-43238D01*
X55487Y-43239D01*
X55550Y-43212D01*
X55598Y-43164D01*
X55624Y-43101D01*
X55625Y-43032D01*
X55598Y-42969D01*
X55550Y-42921D01*
X55487Y-42895D01*
X55440Y-42894D01*
X55379Y-42833D01*
X55532Y-42833D01*
X55535Y-42834D01*
X55578Y-42825D01*
X55614Y-42800D01*
X55768Y-42646D01*
X55768Y-42646D01*
X55768Y-42646D01*
X55793Y-42610D01*
X55802Y-42567D01*
X55801Y-42567D01*
X55802Y-42567D01*
X55802Y-42255D01*
X56131Y-41926D01*
X56130Y-41971D01*
X56157Y-42034D01*
X56205Y-42082D01*
X56268Y-42108D01*
X56337Y-42109D01*
X56400Y-42082D01*
X56448Y-42034D01*
X56474Y-41971D01*
X56475Y-41902D01*
X56448Y-41839D01*
X56400Y-41791D01*
X56337Y-41765D01*
X56292Y-41764D01*
X56359Y-41697D01*
X56360Y-41697D01*
X56360Y-41696D01*
X56364Y-41690D01*
X56384Y-41661D01*
X56384Y-41660D01*
X56384Y-41659D01*
X56385Y-41654D01*
X56393Y-41618D01*
X56392Y-41616D01*
X56392Y-41616D01*
X56390Y-41408D01*
X56405Y-41393D01*
X56428Y-41337D01*
X56428Y-41276D01*
X56405Y-41220D01*
X56393Y-41208D01*
X56405Y-41196D01*
X56428Y-41140D01*
X56428Y-41079D01*
X56405Y-41023D01*
X56393Y-41012D01*
X56405Y-41000D01*
X56428Y-40944D01*
X56428Y-40883D01*
X56405Y-40827D01*
X56393Y-40815D01*
X56405Y-40803D01*
X56428Y-40747D01*
X56428Y-40686D01*
X56405Y-40630D01*
X56395Y-40620D01*
X56405Y-40610D01*
X56428Y-40554D01*
X56428Y-40493D01*
X56405Y-40437D01*
X56392Y-40425D01*
X56404Y-40413D01*
X56427Y-40357D01*
X56428Y-40296D01*
X56404Y-40241D01*
X56392Y-40228D01*
X56405Y-40216D01*
X56428Y-40160D01*
X56428Y-40099D01*
X56405Y-40043D01*
X56395Y-40033D01*
X56409Y-40019D01*
X56432Y-39963D01*
X56432Y-39902D01*
X56409Y-39846D01*
X56394Y-39832D01*
X56404Y-39822D01*
X56427Y-39766D01*
X56428Y-39705D01*
X56404Y-39650D01*
X56393Y-39638D01*
X56405Y-39626D01*
X56428Y-39570D01*
X56428Y-39509D01*
X56405Y-39453D01*
X56395Y-39443D01*
X56409Y-39429D01*
X56432Y-39373D01*
X56432Y-39312D01*
X56409Y-39256D01*
X56391Y-39238D01*
X56405Y-39224D01*
X56428Y-39168D01*
X56428Y-39107D01*
X56405Y-39051D01*
X56395Y-39041D01*
X56405Y-39031D01*
X56428Y-38975D01*
X56428Y-38914D01*
X56405Y-38858D01*
X56393Y-38846D01*
X56405Y-38834D01*
X56428Y-38778D01*
X56428Y-38717D01*
X56405Y-38661D01*
X56362Y-38618D01*
X56306Y-38595D01*
X56245Y-38595D01*
X56189Y-38618D01*
X56173Y-38635D01*
X56069Y-38635D01*
X56078Y-38625D01*
X56104Y-38562D01*
X56105Y-38493D01*
X56078Y-38430D01*
X56030Y-38382D01*
X55967Y-38356D01*
X55898Y-38355D01*
X55835Y-38382D01*
X55787Y-38430D01*
X55761Y-38493D01*
X55760Y-38562D01*
X55787Y-38625D01*
X55796Y-38635D01*
X55633Y-38635D01*
X55379Y-38380D01*
X55396Y-38373D01*
X55444Y-38325D01*
X55470Y-38262D01*
X55471Y-38193D01*
X55444Y-38130D01*
X55396Y-38082D01*
X55333Y-38056D01*
X55264Y-38055D01*
X55201Y-38082D01*
X55153Y-38130D01*
X55127Y-38193D01*
X55126Y-38242D01*
X53792Y-38242D01*
X53759Y-38209D01*
X53696Y-38183D01*
X53627Y-38182D01*
X53564Y-38209D01*
X53516Y-38257D01*
X53490Y-38320D01*
X53489Y-38389D01*
X53516Y-38452D01*
X53518Y-38454D01*
X53516Y-38457D01*
X53490Y-38520D01*
X53489Y-38589D01*
X53516Y-38652D01*
X53564Y-38700D01*
X53627Y-38726D01*
X53696Y-38727D01*
X53759Y-38700D01*
X53792Y-38668D01*
X55198Y-38668D01*
X55437Y-38901D01*
X55413Y-38926D01*
X55387Y-38901D01*
X55351Y-38876D01*
X55308Y-38868D01*
X53780Y-38868D01*
X53747Y-38835D01*
X53684Y-38809D01*
X53615Y-38808D01*
X53552Y-38835D01*
X53504Y-38883D01*
X53478Y-38946D01*
X53477Y-39015D01*
X53504Y-39078D01*
X53552Y-39126D01*
X53615Y-39152D01*
X53684Y-39153D01*
X53747Y-39126D01*
X53780Y-39094D01*
X55261Y-39094D01*
X55411Y-39243D01*
X55401Y-39253D01*
X53756Y-39256D01*
X53723Y-39224D01*
X53660Y-39198D01*
X53591Y-39197D01*
X53528Y-39224D01*
X53480Y-39272D01*
X53454Y-39335D01*
X53453Y-39404D01*
X53477Y-39460D01*
X53464Y-39473D01*
X53438Y-39536D01*
X53437Y-39605D01*
X53464Y-39668D01*
X53512Y-39716D01*
X53575Y-39742D01*
X53644Y-39743D01*
X53707Y-39716D01*
X53740Y-39684D01*
X55039Y-39684D01*
X55219Y-39863D01*
X55219Y-39864D01*
X55219Y-39864D01*
X55234Y-39874D01*
X55205Y-39886D01*
X55157Y-39934D01*
X55131Y-39997D01*
X55130Y-40066D01*
X55141Y-40090D01*
X53713Y-40088D01*
X53680Y-40055D01*
X53617Y-40029D01*
X53548Y-40028D01*
X53485Y-40055D01*
X53437Y-40103D01*
X53411Y-40166D01*
X53410Y-40235D01*
X53437Y-40298D01*
X53485Y-40346D01*
X53548Y-40372D01*
X53617Y-40373D01*
X53680Y-40346D01*
X53713Y-40314D01*
X55148Y-40316D01*
X55142Y-40323D01*
X55116Y-40386D01*
X55115Y-40446D01*
X53732Y-40446D01*
X53699Y-40413D01*
X53636Y-40387D01*
X53567Y-40386D01*
X53504Y-40413D01*
X53456Y-40461D01*
X53430Y-40524D01*
X53429Y-40593D01*
X53456Y-40656D01*
X53504Y-40704D01*
X53567Y-40730D01*
X53636Y-40731D01*
X53699Y-40704D01*
X53732Y-40672D01*
X55271Y-40672D01*
X55268Y-40673D01*
X55220Y-40721D01*
X55194Y-40784D01*
X55193Y-40853D01*
X55220Y-40916D01*
X55230Y-40927D01*
X53717Y-40927D01*
X53684Y-40894D01*
X53621Y-40868D01*
X53552Y-40867D01*
X53489Y-40894D01*
X53441Y-40942D01*
X53415Y-41005D01*
X53414Y-41074D01*
X53435Y-41123D01*
X53261Y-41123D01*
X53260Y-41123D01*
X53260Y-41122D01*
X53234Y-41128D01*
X53217Y-41131D01*
X53217Y-41131D01*
X53217Y-41131D01*
X53194Y-41147D01*
X53181Y-41156D01*
X53180Y-41156D01*
X53180Y-41156D01*
X53176Y-41161D01*
X53176Y-38157D01*
X53175Y-38156D01*
X53176Y-38156D01*
X53174Y-38149D01*
X53167Y-38113D01*
X53142Y-38077D01*
X53142Y-38077D01*
X52977Y-37912D01*
X52941Y-37887D01*
X52898Y-37879D01*
X52707Y-37879D01*
X52714Y-37861D01*
X52715Y-37792D01*
X52709Y-37779D01*
X52799Y-37779D01*
X52842Y-37770D01*
X52878Y-37745D01*
X53192Y-37432D01*
X54322Y-37432D01*
X54355Y-37464D01*
X54418Y-37490D01*
X54487Y-37491D01*
X54550Y-37464D01*
X54598Y-37416D01*
X54624Y-37353D01*
X54625Y-37284D01*
X54620Y-37274D01*
X54770Y-37274D01*
X54758Y-37304D01*
X54757Y-37380D01*
X54786Y-37451D01*
X54840Y-37504D01*
X54910Y-37533D01*
X54986Y-37534D01*
X55057Y-37505D01*
X55110Y-37451D01*
X55139Y-37381D01*
X55140Y-37305D01*
X55111Y-37234D01*
X55057Y-37181D01*
X55040Y-37174D01*
X55466Y-36748D01*
X55465Y-36790D01*
X55492Y-36853D01*
X55540Y-36901D01*
X55603Y-36927D01*
X55672Y-36928D01*
X55720Y-36908D01*
X55878Y-36908D01*
X56204Y-37234D01*
X56063Y-37234D01*
X56015Y-37214D01*
X55946Y-37213D01*
X55883Y-37240D01*
X55835Y-37288D01*
X55809Y-37351D01*
X55808Y-37420D01*
X55835Y-37483D01*
X55883Y-37531D01*
X55946Y-37557D01*
X56015Y-37558D01*
X56063Y-37538D01*
X56240Y-37538D01*
X56714Y-38011D01*
X56714Y-38025D01*
X56672Y-37984D01*
X56609Y-37958D01*
X56540Y-37957D01*
X56477Y-37984D01*
X56450Y-38010D01*
X56416Y-37976D01*
X56353Y-37950D01*
X56284Y-37949D01*
X56221Y-37976D01*
X56173Y-38024D01*
X56156Y-38065D01*
X56156Y-37981D01*
X56129Y-37918D01*
X56081Y-37870D01*
X56018Y-37844D01*
X55949Y-37843D01*
X55886Y-37870D01*
X55838Y-37918D01*
X55812Y-37981D01*
X55811Y-38050D01*
X55838Y-38113D01*
X55886Y-38161D01*
X55949Y-38187D01*
X56018Y-38188D01*
X56081Y-38161D01*
X56129Y-38113D01*
X56155Y-38050D01*
X56156Y-37981D01*
X56156Y-38065D01*
X56147Y-38087D01*
X56146Y-38156D01*
X56173Y-38219D01*
X56221Y-38267D01*
X56284Y-38293D01*
X56353Y-38294D01*
X56416Y-38267D01*
X56443Y-38241D01*
X56477Y-38275D01*
X56540Y-38301D01*
X56609Y-38302D01*
X56672Y-38275D01*
X56714Y-38234D01*
X56714Y-38408D01*
X56699Y-38402D01*
X56638Y-38402D01*
X56582Y-38425D01*
X56539Y-38468D01*
X56516Y-38524D01*
X56516Y-38585D01*
X56539Y-38641D01*
X56582Y-38684D01*
X56638Y-38707D01*
X56699Y-38707D01*
X56755Y-38684D01*
X56767Y-38672D01*
X56779Y-38684D01*
X56835Y-38707D01*
X56896Y-38707D01*
X56952Y-38684D01*
X56964Y-38672D01*
X56976Y-38684D01*
X57032Y-38707D01*
X57093Y-38707D01*
X57149Y-38684D01*
X57153Y-38679D01*
X57341Y-38866D01*
X57341Y-38866D01*
X57377Y-38891D01*
X57413Y-38898D01*
X57420Y-38900D01*
X57420Y-38899D01*
X57421Y-38900D01*
X58859Y-38900D01*
X58879Y-38919D01*
X58879Y-40232D01*
X58887Y-40275D01*
X58912Y-40311D01*
X59007Y-40406D01*
X59007Y-40406D01*
X59043Y-40431D01*
X59086Y-40440D01*
X59086Y-40439D01*
X59087Y-40440D01*
X59101Y-40440D01*
X59079Y-40493D01*
X59079Y-40554D01*
X59102Y-40610D01*
X59112Y-40620D01*
X59098Y-40634D01*
X59075Y-40690D01*
X59075Y-40751D01*
X59098Y-40807D01*
X59112Y-40821D01*
X59102Y-40831D01*
X59079Y-40887D01*
X59079Y-40948D01*
X59102Y-41004D01*
X59112Y-41013D01*
X59098Y-41027D01*
X59075Y-41083D01*
X59075Y-41144D01*
X59098Y-41200D01*
X59110Y-41212D01*
X59098Y-41224D01*
X59075Y-41280D01*
X59075Y-41341D01*
X59098Y-41397D01*
X59141Y-41440D01*
X59145Y-41441D01*
X59651Y-41915D01*
X59965Y-42593D01*
X59963Y-42599D01*
X59962Y-42675D01*
X59991Y-42746D01*
X60019Y-42773D01*
X59980Y-42812D01*
X59951Y-42882D01*
X59950Y-42958D01*
X59979Y-43029D01*
X60033Y-43082D01*
X60103Y-43111D01*
X60179Y-43112D01*
X60250Y-43083D01*
X60303Y-43029D01*
X60332Y-42959D01*
X60333Y-42883D01*
X60304Y-42812D01*
X60276Y-42785D01*
X60315Y-42746D01*
X60344Y-42676D01*
X60345Y-42600D01*
X60316Y-42529D01*
X60262Y-42476D01*
X60243Y-42468D01*
X59913Y-41759D01*
X59878Y-41711D01*
X59876Y-41709D01*
X59345Y-41212D01*
X59357Y-41200D01*
X59380Y-41144D01*
X59380Y-41083D01*
X59357Y-41027D01*
X59347Y-41018D01*
X59361Y-41004D01*
X59384Y-40948D01*
X59384Y-40887D01*
X59361Y-40831D01*
X59350Y-40820D01*
X59350Y-40820D01*
X59365Y-40809D01*
X59381Y-40799D01*
X59442Y-40740D01*
X59467Y-40704D01*
X59477Y-40661D01*
X59476Y-40658D01*
X59476Y-40511D01*
X59483Y-40516D01*
X59501Y-40528D01*
X59502Y-40528D01*
X59503Y-40529D01*
X59523Y-40533D01*
X59537Y-40536D01*
X59571Y-40570D01*
X59629Y-40594D01*
X59627Y-40607D01*
X59627Y-40609D01*
X59594Y-40642D01*
X59568Y-40705D01*
X59567Y-40774D01*
X59594Y-40837D01*
X59642Y-40885D01*
X59705Y-40911D01*
X59774Y-40912D01*
X59778Y-40910D01*
X59778Y-40910D01*
X59805Y-40973D01*
X59853Y-41021D01*
X59916Y-41047D01*
X59974Y-41048D01*
X59932Y-41065D01*
X59884Y-41113D01*
X59858Y-41176D01*
X59857Y-41245D01*
X59884Y-41308D01*
X59904Y-41328D01*
X59893Y-41339D01*
X59867Y-41402D01*
X59866Y-41471D01*
X59893Y-41534D01*
X59941Y-41582D01*
X60004Y-41608D01*
X60073Y-41609D01*
X60136Y-41582D01*
X60184Y-41534D01*
X60210Y-41471D01*
X60211Y-41402D01*
X60184Y-41339D01*
X60164Y-41319D01*
X60175Y-41308D01*
X60201Y-41245D01*
X60202Y-41176D01*
X60175Y-41113D01*
X60127Y-41065D01*
X60064Y-41039D01*
X60006Y-41038D01*
X60048Y-41021D01*
X60096Y-40973D01*
X60122Y-40910D01*
X60123Y-40863D01*
X60591Y-40394D01*
X60616Y-40358D01*
X60625Y-40315D01*
X60623Y-40308D01*
X60621Y-38756D01*
X60621Y-38755D01*
X60616Y-38734D01*
X60612Y-38712D01*
X60612Y-38712D01*
X60612Y-38712D01*
X60600Y-38694D01*
X60587Y-38676D01*
X59917Y-38006D01*
X59947Y-38006D01*
X60018Y-37977D01*
X60071Y-37923D01*
X60100Y-37853D01*
X60101Y-37777D01*
X60072Y-37706D01*
X60018Y-37653D01*
X59948Y-37624D01*
X59872Y-37623D01*
X59801Y-37652D01*
X59748Y-37706D01*
X59719Y-37776D01*
X59719Y-37807D01*
X59355Y-37444D01*
X59319Y-37419D01*
X59276Y-37411D01*
X58330Y-37411D01*
X56666Y-35747D01*
X57944Y-35747D01*
X57965Y-35750D01*
X58009Y-35742D01*
X58045Y-35717D01*
X58283Y-35475D01*
X60094Y-35478D01*
X60093Y-35516D01*
X60120Y-35579D01*
X60131Y-35590D01*
X60100Y-35621D01*
X60074Y-35684D01*
X60073Y-35753D01*
X60100Y-35816D01*
X60148Y-35864D01*
X60211Y-35890D01*
X60280Y-35891D01*
X60343Y-35864D01*
X60376Y-35832D01*
X60413Y-35832D01*
X60413Y-35831D01*
X60414Y-35831D01*
X60435Y-35827D01*
X60456Y-35823D01*
X60457Y-35822D01*
X60458Y-35822D01*
X60475Y-35810D01*
X60492Y-35798D01*
X60493Y-35798D01*
X60494Y-35797D01*
X60666Y-35619D01*
X60666Y-35618D01*
X60667Y-35618D01*
X60668Y-35617D01*
X60675Y-35605D01*
X60691Y-35582D01*
X60691Y-35580D01*
X60692Y-35580D01*
X60694Y-35565D01*
X60700Y-35539D01*
X60700Y-35430D01*
X60691Y-35386D01*
X60666Y-35350D01*
X60508Y-35192D01*
X60472Y-35167D01*
X60429Y-35159D01*
X60418Y-35161D01*
X60348Y-35161D01*
X60349Y-35095D01*
X60322Y-35032D01*
X60274Y-34984D01*
X60211Y-34958D01*
X60142Y-34957D01*
X60079Y-34984D01*
X60031Y-35032D01*
X60005Y-35095D01*
X60004Y-35161D01*
X59706Y-35161D01*
X59706Y-32093D01*
X59706Y-31496D01*
X59691Y-31462D01*
X59665Y-31436D01*
X59631Y-31422D01*
X59593Y-31421D01*
X58996Y-31421D01*
X58962Y-31436D01*
X58936Y-31462D01*
X58922Y-31496D01*
X58921Y-31534D01*
X58921Y-32131D01*
X58936Y-32165D01*
X58962Y-32191D01*
X58996Y-32205D01*
X59034Y-32206D01*
X59631Y-32206D01*
X59665Y-32191D01*
X59691Y-32165D01*
X59705Y-32131D01*
X59706Y-32093D01*
X59706Y-35161D01*
X58136Y-35161D01*
X58135Y-35160D01*
X58134Y-35161D01*
X58134Y-35161D01*
X58123Y-35163D01*
X58092Y-35168D01*
X58091Y-35169D01*
X58090Y-35169D01*
X58083Y-35174D01*
X58055Y-35192D01*
X57806Y-35434D01*
X54412Y-35434D01*
X54412Y-34403D01*
X54383Y-34332D01*
X54329Y-34279D01*
X54259Y-34250D01*
X54183Y-34249D01*
X54112Y-34278D01*
X54059Y-34332D01*
X54030Y-34402D01*
X54029Y-34478D01*
X54058Y-34549D01*
X54112Y-34602D01*
X54182Y-34631D01*
X54258Y-34632D01*
X54329Y-34603D01*
X54382Y-34549D01*
X54411Y-34479D01*
X54412Y-34403D01*
X54412Y-35434D01*
X54078Y-35434D01*
X54078Y-34808D01*
X54051Y-34745D01*
X54003Y-34697D01*
X53940Y-34671D01*
X53871Y-34670D01*
X53808Y-34697D01*
X53760Y-34745D01*
X53734Y-34808D01*
X53733Y-34877D01*
X53760Y-34940D01*
X53808Y-34988D01*
X53871Y-35014D01*
X53940Y-35015D01*
X54003Y-34988D01*
X54051Y-34940D01*
X54077Y-34877D01*
X54078Y-34808D01*
X54078Y-35434D01*
X53243Y-35434D01*
X53243Y-34827D01*
X53216Y-34764D01*
X53168Y-34716D01*
X53105Y-34690D01*
X53036Y-34689D01*
X52973Y-34716D01*
X52925Y-34764D01*
X52899Y-34827D01*
X52898Y-34896D01*
X52910Y-34923D01*
X52871Y-34922D01*
X52808Y-34949D01*
X52760Y-34997D01*
X52734Y-35060D01*
X52733Y-35129D01*
X52760Y-35192D01*
X52808Y-35240D01*
X52871Y-35266D01*
X52940Y-35267D01*
X53003Y-35240D01*
X53051Y-35192D01*
X53077Y-35129D01*
X53078Y-35060D01*
X53066Y-35033D01*
X53105Y-35034D01*
X53168Y-35007D01*
X53216Y-34959D01*
X53242Y-34896D01*
X53243Y-34827D01*
X53243Y-35434D01*
X52727Y-35434D01*
X52162Y-34869D01*
X52126Y-34844D01*
X52083Y-34836D01*
X51342Y-34836D01*
X51405Y-34773D01*
X52283Y-34769D01*
X52326Y-34760D01*
X52363Y-34735D01*
X52363Y-34735D01*
X54239Y-32859D01*
X57028Y-32859D01*
X57040Y-32856D01*
X57053Y-32856D01*
X57062Y-32852D01*
X57071Y-32850D01*
X57081Y-32843D01*
X57093Y-32837D01*
X58064Y-32145D01*
X58084Y-32166D01*
X58228Y-32225D01*
X58384Y-32226D01*
X58528Y-32166D01*
X58639Y-32056D01*
X58698Y-31912D01*
X58699Y-31756D01*
X58639Y-31612D01*
X58529Y-31501D01*
X58385Y-31442D01*
X58229Y-31441D01*
X58085Y-31501D01*
X57974Y-31611D01*
X57915Y-31755D01*
X57914Y-31911D01*
X57935Y-31960D01*
X56991Y-32633D01*
X56651Y-32633D01*
X57116Y-32179D01*
X57228Y-32225D01*
X57384Y-32226D01*
X57528Y-32166D01*
X57639Y-32056D01*
X57698Y-31912D01*
X57699Y-31756D01*
X57639Y-31612D01*
X57529Y-31501D01*
X57385Y-31442D01*
X57229Y-31441D01*
X57085Y-31501D01*
X56974Y-31611D01*
X56915Y-31755D01*
X56914Y-31911D01*
X56958Y-32017D01*
X56509Y-32456D01*
X55880Y-32456D01*
X56132Y-32186D01*
X56228Y-32225D01*
X56384Y-32226D01*
X56528Y-32166D01*
X56639Y-32056D01*
X56698Y-31912D01*
X56699Y-31756D01*
X56639Y-31612D01*
X56529Y-31501D01*
X56385Y-31442D01*
X56229Y-31441D01*
X56085Y-31501D01*
X55974Y-31611D01*
X55915Y-31755D01*
X55914Y-31911D01*
X55965Y-32033D01*
X55708Y-32308D01*
X54993Y-32308D01*
X55120Y-32180D01*
X55228Y-32225D01*
X55384Y-32226D01*
X55528Y-32166D01*
X55639Y-32056D01*
X55698Y-31912D01*
X55699Y-31756D01*
X55639Y-31612D01*
X55529Y-31501D01*
X55385Y-31442D01*
X55229Y-31441D01*
X55085Y-31501D01*
X54974Y-31611D01*
X54915Y-31755D01*
X54914Y-31911D01*
X54960Y-32021D01*
X54819Y-32163D01*
X54532Y-32163D01*
X54639Y-32056D01*
X54698Y-31912D01*
X54699Y-31756D01*
X54639Y-31612D01*
X54529Y-31501D01*
X54385Y-31442D01*
X54229Y-31441D01*
X54085Y-31501D01*
X53974Y-31611D01*
X53915Y-31755D01*
X53914Y-31911D01*
X53960Y-32021D01*
X52244Y-33737D01*
X52170Y-33737D01*
X52170Y-31643D01*
X52114Y-31506D01*
X52009Y-31402D01*
X51873Y-31345D01*
X51725Y-31345D01*
X51588Y-31401D01*
X51484Y-31506D01*
X51427Y-31642D01*
X51427Y-31790D01*
X51483Y-31927D01*
X51588Y-32031D01*
X51724Y-32088D01*
X51872Y-32088D01*
X52009Y-32032D01*
X52113Y-31927D01*
X52170Y-31791D01*
X52170Y-31643D01*
X52170Y-33737D01*
X51130Y-33737D01*
X51129Y-33737D01*
X51086Y-33745D01*
X51050Y-33770D01*
X51050Y-33770D01*
X50184Y-34636D01*
X50159Y-34672D01*
X50151Y-34716D01*
X50151Y-35685D01*
X49980Y-35856D01*
X49709Y-35856D01*
X49665Y-35864D01*
X49629Y-35889D01*
X49408Y-36110D01*
X49427Y-36062D01*
X49428Y-35993D01*
X49401Y-35930D01*
X49353Y-35882D01*
X49290Y-35856D01*
X49221Y-35855D01*
X49158Y-35882D01*
X49110Y-35930D01*
X49084Y-35993D01*
X49083Y-36062D01*
X49110Y-36125D01*
X49158Y-36173D01*
X49221Y-36199D01*
X49290Y-36200D01*
X49337Y-36180D01*
X49274Y-36244D01*
X49249Y-36280D01*
X49241Y-36324D01*
X49241Y-37271D01*
X49208Y-37304D01*
X49192Y-37343D01*
X48973Y-37125D01*
X48937Y-37100D01*
X48894Y-37092D01*
X48323Y-37092D01*
X48290Y-37059D01*
X48227Y-37033D01*
X48158Y-37032D01*
X48095Y-37059D01*
X48047Y-37107D01*
X48021Y-37170D01*
X48020Y-37239D01*
X48039Y-37284D01*
X48019Y-37304D01*
X47993Y-37367D01*
X47992Y-37436D01*
X48019Y-37499D01*
X48067Y-37547D01*
X48130Y-37573D01*
X48199Y-37574D01*
X48262Y-37547D01*
X48295Y-37515D01*
X48840Y-37515D01*
X49200Y-37874D01*
X49236Y-37899D01*
X49280Y-37908D01*
X51098Y-37908D01*
X51141Y-37899D01*
X51177Y-37874D01*
X51264Y-37787D01*
X51264Y-37787D01*
X51264Y-37787D01*
X51289Y-37751D01*
X51289Y-37751D01*
X51296Y-37715D01*
X51298Y-37708D01*
X51297Y-37708D01*
X51298Y-37708D01*
X51298Y-36863D01*
X51475Y-37040D01*
X51476Y-37041D01*
X51476Y-37042D01*
X51494Y-37053D01*
X51511Y-37065D01*
X51513Y-37065D01*
X51514Y-37066D01*
X51534Y-37069D01*
X51555Y-37074D01*
X51556Y-37073D01*
X51557Y-37073D01*
X51600Y-37072D01*
X51626Y-37098D01*
X51582Y-37142D01*
X51556Y-37205D01*
X51555Y-37274D01*
X51582Y-37337D01*
X51615Y-37370D01*
X51575Y-37410D01*
X51549Y-37473D01*
X51548Y-37542D01*
X51575Y-37605D01*
X51623Y-37653D01*
X51686Y-37679D01*
X51755Y-37680D01*
X51818Y-37653D01*
X51851Y-37621D01*
X52131Y-37621D01*
X52256Y-37745D01*
X52292Y-37770D01*
X52336Y-37779D01*
X52376Y-37779D01*
X52371Y-37792D01*
X52370Y-37861D01*
X52378Y-37879D01*
X51847Y-37879D01*
X51814Y-37846D01*
X51751Y-37820D01*
X51682Y-37819D01*
X51619Y-37846D01*
X51571Y-37894D01*
X51545Y-37957D01*
X51544Y-38026D01*
X51571Y-38089D01*
X51619Y-38137D01*
X51682Y-38163D01*
X51751Y-38164D01*
X51814Y-38137D01*
X51847Y-38105D01*
X52353Y-38105D01*
X52344Y-38127D01*
X52343Y-38174D01*
X52245Y-38273D01*
X48365Y-38273D01*
X48365Y-37949D01*
X48338Y-37886D01*
X48290Y-37838D01*
X48227Y-37812D01*
X48158Y-37811D01*
X48095Y-37838D01*
X48047Y-37886D01*
X48021Y-37949D01*
X48020Y-38018D01*
X48047Y-38081D01*
X48095Y-38129D01*
X48158Y-38155D01*
X48227Y-38156D01*
X48290Y-38129D01*
X48338Y-38081D01*
X48364Y-38018D01*
X48365Y-37949D01*
X48365Y-38273D01*
X48351Y-38273D01*
X48318Y-38240D01*
X48255Y-38214D01*
X48186Y-38213D01*
X48123Y-38240D01*
X48075Y-38288D01*
X48049Y-38351D01*
X48048Y-38420D01*
X48069Y-38470D01*
X48047Y-38493D01*
X48021Y-38556D01*
X48020Y-38620D01*
X47981Y-38637D01*
X47972Y-38646D01*
X47972Y-35605D01*
X47995Y-35550D01*
X47995Y-35442D01*
X47972Y-35386D01*
X47972Y-35172D01*
X47995Y-35117D01*
X47995Y-35009D01*
X47972Y-34953D01*
X47972Y-34739D01*
X47995Y-34684D01*
X47995Y-34576D01*
X47972Y-34520D01*
X47972Y-30688D01*
X56325Y-30688D01*
X56370Y-30707D01*
X56478Y-30707D01*
X56524Y-30688D01*
X56758Y-30688D01*
X56803Y-30707D01*
X56911Y-30707D01*
X56957Y-30688D01*
X57191Y-30688D01*
X57236Y-30707D01*
X57344Y-30707D01*
X57390Y-30688D01*
X57625Y-30688D01*
X57670Y-30707D01*
X57778Y-30707D01*
X57824Y-30688D01*
X66004Y-30688D01*
X66004Y-39500D01*
X65997Y-39516D01*
X65997Y-39624D01*
X66004Y-39641D01*
X66004Y-39933D01*
X65997Y-39949D01*
X65997Y-40057D01*
X66004Y-40074D01*
X66004Y-40366D01*
X65997Y-40382D01*
X65997Y-40490D01*
X66004Y-40507D01*
X66004Y-40799D01*
X65997Y-40815D01*
X65997Y-40923D01*
X66004Y-40940D01*
X66004Y-49547D01*
M02*
