M48
;DRILL file {Pcbnew (2013-05-31 BZR 4019)-stable} date 06/03/2014 18:54:51
;FORMAT={-:-/ absolute / metric / decimal}
FMAT,2
METRIC,TZ
T1C0.099
T2C0.196
T3C0.198
T4C0.297
T5C0.300
T6C0.798
T7C0.899
T8C1.097
T9C3.198
%
G90
G05
M71
T1
X156.04Y-113.33
X156.07Y-114.33
T2
X121.981Y-100.51
X121.991Y-103.
X122.001Y-95.501
X122.001Y-106.51
X122.001Y-109.012
X122.039Y-97.
X122.11Y-104.501
X122.121Y-98.509
X122.179Y-113.01
X122.2Y-115.8
X122.2Y-116.7
X122.2Y-117.5
X122.2Y-118.3
X122.2Y-119.2
X122.2Y-120.
X122.2Y-120.8
X122.2Y-121.8
X122.2Y-122.6
X122.2Y-123.4
X122.2Y-124.2
X122.2Y-125.1
X122.3Y-78.3
X122.3Y-79.1
X122.3Y-79.9
X122.3Y-80.8
X122.3Y-81.6
X122.3Y-82.4
X122.3Y-83.2
X122.3Y-84.3
X122.3Y-85.1
X122.3Y-85.9
X122.3Y-86.7
X122.3Y-87.5
X122.3Y-88.3
X122.3Y-89.1
X122.3Y-89.7
X122.3Y-90.5
X122.311Y-91.011
X122.311Y-92.011
X122.311Y-108.521
X122.339Y-95.001
X122.359Y-103.5
X122.359Y-107.521
X122.38Y-102.502
X122.38Y-107.01
X122.39Y-101.511
X122.41Y-94.501
X122.41Y-96.479
X122.41Y-98.021
X122.42Y-100.
X122.42Y-105.999
X122.42Y-110.51
X122.431Y-101.011
X122.431Y-104.01
X122.481Y-97.5
X123.Y-125.1
X123.1Y-80.8
X123.1Y-81.6
X123.1Y-82.4
X123.1Y-83.2
X123.1Y-115.8
X123.1Y-121.3
X123.2Y-84.3
X123.2Y-118.8
X123.2Y-123.1
X123.3Y-120.
X123.5Y-85.2
X123.5Y-86.
X123.7Y-88.7
X123.7Y-89.7
X123.9Y-84.2
X123.9Y-115.8
X123.9Y-116.6
X123.9Y-124.2
X123.9Y-125.1
X124.1Y-119.1
X124.3Y-78.5
X124.3Y-85.2
X124.3Y-86.
X124.5Y-88.7
X124.5Y-89.7
X124.66Y-109.86
X124.7Y-125.1
X124.8Y-92.6
X124.8Y-93.4
X125.1Y-78.5
X125.1Y-85.2
X125.1Y-86.
X125.1Y-97.1
X125.11Y-91.511
X125.2Y-102.
X125.2Y-103.
X125.2Y-104.9
X125.2Y-109.
X125.2Y-109.8
X125.2Y-111.1
X125.2Y-118.6
X125.3Y-99.2
X125.3Y-100.6
X125.3Y-106.6
X125.359Y-95.001
X125.5Y-125.1
X125.8Y-96.4
X125.819Y-108.25
X125.9Y-78.5
X125.9Y-85.2
X125.9Y-86.
X125.9Y-105.6
X126.Y-93.4
X126.Y-118.6
X126.07Y-94.501
X126.2Y-109.
X126.2Y-109.8
X126.2Y-111.1
X126.3Y-125.1
X126.35Y-92.519
X126.36Y-92.011
X126.5Y-104.9
X126.6Y-97.1
X126.6Y-99.2
X126.7Y-78.5
X126.7Y-85.2
X126.7Y-86.
X126.7Y-100.6
X126.7Y-102.
X126.7Y-103.
X126.789Y-94.01
X126.8Y-118.6
X127.Y-90.7
X127.Y-106.6
X127.Y-109.
X127.Y-109.8
X127.Y-111.1
X127.1Y-105.6
X127.1Y-125.1
X127.3Y-96.4
X127.7Y-78.5
X127.8Y-84.8
X127.8Y-125.1
X128.Y-119.
X128.5Y-78.5
X128.6Y-125.1
X128.8Y-119.
X128.9Y-79.5
X129.2Y-83.6
X129.339Y-113.01
X129.4Y-84.4
X129.771Y-104.01
X130.2Y-83.6
X130.2Y-84.4
X130.551Y-107.582
X130.67Y-91.26
X131.161Y-107.582
X131.239Y-89.632
X131.361Y-96.5
X131.371Y-95.27
X131.389Y-93.871
X131.389Y-94.59
X131.399Y-92.611
X131.45Y-103.5
X131.869Y-107.582
X132.11Y-88.389
X132.38Y-107.579
X132.4Y-85.4
X132.57Y-91.161
X132.621Y-103.261
X132.669Y-101.641
X132.71Y-102.601
X132.781Y-103.751
X132.9Y-83.7
X132.9Y-84.5
X133.01Y-98.481
X133.06Y-99.52
X133.101Y-101.13
X133.261Y-104.249
X133.391Y-96.931
X133.439Y-105.999
X133.459Y-96.081
X133.7Y-83.7
X133.7Y-84.5
X133.721Y-95.27
X134.29Y-93.35
X134.29Y-94.811
X134.381Y-89.141
X134.6Y-83.1
X134.7Y-78.8
X134.8Y-88.549
X135.44Y-92.591
X135.5Y-78.8
X136.091Y-106.489
X136.091Y-106.99
X136.101Y-102.111
X136.111Y-104.242
X136.121Y-104.739
X136.149Y-103.02
X136.169Y-100.51
X136.21Y-100.
X136.271Y-99.012
X136.271Y-105.501
X136.3Y-78.8
X136.301Y-97.422
X136.301Y-97.93
X136.6Y-95.8
X136.921Y-88.501
X137.1Y-78.8
X137.2Y-105.
X137.3Y-96.5
X137.6Y-99.5
X137.6Y-121.8
X137.6Y-125.2
X137.7Y-122.6
X137.7Y-123.4
X137.7Y-124.3
X137.8Y-83.9
X137.8Y-84.7
X137.9Y-78.8
X138.Y-85.9
X138.Y-95.8
X138.311Y-94.79
X138.321Y-110.432
X138.4Y-121.8
X138.5Y-122.6
X138.5Y-123.4
X138.6Y-83.9
X138.6Y-84.7
X138.6Y-107.8
X138.631Y-112.331
X138.7Y-78.8
X138.8Y-85.9
X138.8Y-96.8
X138.991Y-91.63
X138.991Y-109.36
X139.029Y-92.281
X139.3Y-122.6
X139.3Y-123.4
X139.5Y-78.8
X139.6Y-83.9
X139.6Y-84.7
X139.659Y-109.38
X139.8Y-118.9
X140.1Y-123.4
X140.272Y-109.39
X140.3Y-78.8
X140.36Y-104.671
X140.4Y-83.9
X140.4Y-84.7
X140.432Y-102.669
X140.459Y-97.099
X140.47Y-101.681
X140.63Y-103.68
X140.701Y-100.681
X140.83Y-106.289
X140.851Y-109.39
X140.9Y-123.4
X141.11Y-99.131
X141.2Y-83.9
X141.2Y-84.7
X141.321Y-93.36
X141.481Y-103.17
X141.491Y-106.271
X141.5Y-78.8
X141.501Y-100.19
X141.569Y-101.171
X141.6Y-118.9
X141.661Y-102.189
X141.77Y-105.171
X141.811Y-99.179
X141.961Y-104.181
X142.Y-83.9
X142.Y-84.7
X142.07Y-97.861
X142.192Y-94.96
X142.199Y-96.561
X142.3Y-78.8
X142.8Y-83.9
X142.8Y-84.7
X142.9Y-109.101
X142.941Y-100.929
X142.941Y-102.431
X143.01Y-106.52
X143.05Y-96.83
X143.1Y-78.8
X143.5Y-119.
X143.6Y-83.9
X143.6Y-84.7
X143.701Y-96.85
X143.9Y-78.8
X143.939Y-98.92
X143.939Y-100.02
X143.939Y-101.12
X143.939Y-102.22
X143.939Y-103.32
X143.939Y-104.419
X144.Y-85.7
X144.Y-117.6
X144.4Y-83.9
X144.4Y-84.7
X144.49Y-99.469
X144.49Y-100.569
X144.49Y-101.669
X144.49Y-102.768
X144.49Y-103.868
X144.65Y-108.25
X144.671Y-106.83
X144.7Y-78.8
X144.8Y-85.7
X144.8Y-117.6
X145.019Y-89.639
X145.039Y-98.92
X145.039Y-100.02
X145.039Y-101.12
X145.039Y-102.22
X145.039Y-103.32
X145.039Y-104.419
X145.049Y-92.931
X145.2Y-83.9
X145.2Y-84.7
X145.301Y-106.86
X145.5Y-78.8
X145.59Y-99.469
X145.59Y-100.569
X145.59Y-101.669
X145.59Y-102.768
X145.59Y-103.868
X145.8Y-119.
X145.961Y-106.52
X146.149Y-98.92
X146.149Y-100.02
X146.149Y-101.12
X146.149Y-102.22
X146.149Y-103.32
X146.149Y-104.419
X146.3Y-78.8
X146.69Y-99.469
X146.69Y-100.569
X146.69Y-101.669
X146.69Y-102.768
X146.69Y-103.868
X147.1Y-78.8
X147.239Y-98.92
X147.239Y-100.02
X147.239Y-101.12
X147.239Y-102.22
X147.239Y-103.32
X147.239Y-104.419
X147.5Y-119.
X147.79Y-99.469
X147.79Y-100.569
X147.79Y-101.669
X147.79Y-102.768
X147.79Y-103.868
X147.97Y-92.019
X148.2Y-121.1
X148.2Y-121.9
X148.2Y-123.1
X148.2Y-123.9
X148.219Y-90.241
X148.26Y-93.429
X148.339Y-98.92
X148.339Y-100.02
X148.339Y-101.12
X148.339Y-102.22
X148.339Y-103.32
X148.339Y-104.419
X148.369Y-110.51
X148.4Y-78.8
X148.5Y-124.9
X148.681Y-106.611
X148.8Y-119.
X148.89Y-99.469
X148.89Y-100.569
X148.89Y-101.669
X148.89Y-102.768
X148.89Y-103.868
X148.91Y-112.751
X149.2Y-106.601
X149.2Y-78.8
X149.3Y-124.9
X149.438Y-98.92
X149.438Y-100.02
X149.438Y-101.12
X149.438Y-102.22
X149.438Y-103.32
X149.438Y-104.419
X149.8Y-84.4
X149.9Y-85.8
X150.Y-78.8
X150.1Y-117.6
X150.1Y-124.9
X150.241Y-96.449
X150.551Y-106.19
X150.574Y-106.85
X150.6Y-84.4
X150.7Y-85.8
X150.8Y-78.8
X150.9Y-117.6
X150.9Y-124.9
X151.Y-120.8
X151.15Y-91.57
X151.4Y-84.4
X151.501Y-102.171
X151.511Y-91.249
X151.559Y-102.679
X151.6Y-78.8
X151.7Y-124.9
X151.859Y-101.27
X152.2Y-84.4
X152.276Y-103.825
X152.301Y-112.55
X152.4Y-78.8
X152.5Y-124.9
X152.85Y-89.23
X152.921Y-110.449
X153.Y-84.4
X153.025Y-90.726
X153.076Y-90.124
X153.2Y-78.8
X153.3Y-124.9
X153.8Y-121.
X153.9Y-84.4
X154.Y-78.8
X154.1Y-124.9
X154.64Y-96.741
X154.7Y-84.4
X154.87Y-112.96
X154.89Y-113.84
X155.001Y-89.403
X155.001Y-90.261
X155.1Y-124.9
X155.2Y-118.9
X155.5Y-84.4
X155.611Y-101.78
X155.9Y-124.9
X155.92Y-90.272
X155.941Y-89.39
X156.Y-78.8
X156.Y-85.8
X156.Y-117.6
X156.3Y-120.5
X156.7Y-109.86
X156.7Y-124.9
X156.8Y-78.8
X156.8Y-85.8
X156.8Y-117.6
X157.05Y-115.05
X157.08Y-112.83
X157.4Y-118.8
X157.4Y-119.6
X157.5Y-124.9
X157.551Y-113.561
X157.6Y-78.8
X157.871Y-92.86
X157.9Y-84.2
X157.9Y-85.
X158.05Y-114.05
X158.2Y-118.8
X158.2Y-119.6
X158.3Y-124.9
X158.4Y-78.8
X158.7Y-84.2
X158.7Y-85.
X158.8Y-120.7
X158.82Y-112.83
X158.86Y-114.83
X159.Y-118.8
X159.Y-119.6
X159.1Y-124.9
X159.2Y-78.8
X159.5Y-84.2
X159.5Y-85.
X159.9Y-124.9
X160.Y-78.8
X160.2Y-118.8
X160.2Y-119.6
X160.3Y-95.3
X160.3Y-96.1
X160.3Y-101.4
X160.3Y-102.2
X160.4Y-107.3
X160.4Y-108.1
X160.5Y-84.2
X160.5Y-85.
X160.7Y-83.2
X160.7Y-124.9
X160.8Y-78.8
X161.Y-118.8
X161.Y-119.6
X161.2Y-120.7
X161.3Y-84.2
X161.3Y-85.
X161.4Y-95.1
X161.4Y-95.9
X161.4Y-96.7
X161.4Y-97.5
X161.4Y-98.3
X161.4Y-99.1
X161.4Y-99.9
X161.4Y-100.7
X161.4Y-101.5
X161.4Y-102.3
X161.5Y-83.2
X161.5Y-86.4
X161.5Y-87.2
X161.5Y-103.2
X161.5Y-104.
X161.5Y-104.8
X161.5Y-105.6
X161.5Y-106.4
X161.5Y-107.5
X161.5Y-108.3
X161.5Y-109.1
X161.5Y-109.9
X161.5Y-110.7
X161.6Y-78.8
X161.6Y-92.
X161.6Y-92.8
X161.6Y-93.6
X161.7Y-116.4
X161.7Y-117.2
X161.8Y-111.5
X161.8Y-118.8
X161.8Y-119.6
X162.1Y-84.2
X162.1Y-85.
X162.3Y-86.4
X162.3Y-87.2
X162.4Y-92.
X162.4Y-92.8
X162.4Y-93.6
X162.5Y-79.1
X162.5Y-116.4
X162.5Y-117.2
X162.5Y-125.4
X162.6Y-109.9
X162.6Y-110.7
X162.6Y-111.5
X163.Y-84.8
X163.1Y-117.8
X163.1Y-118.6
X163.2Y-78.4
X163.3Y-125.4
X163.4Y-85.6
X163.4Y-93.6
X163.4Y-109.9
X163.9Y-117.8
X163.9Y-118.6
X164.1Y-78.4
X164.1Y-93.6
X164.1Y-125.4
X164.2Y-85.6
X164.2Y-109.9
X164.7Y-117.8
X164.7Y-118.6
X164.9Y-78.4
X164.9Y-93.6
X165.Y-85.6
X165.Y-109.9
X165.1Y-125.4
X165.5Y-117.8
X165.5Y-118.6
X165.7Y-78.4
X165.7Y-93.6
X165.8Y-85.6
X165.8Y-109.9
X165.9Y-125.4
X166.1Y-84.8
X166.5Y-93.6
X166.5Y-124.6
X166.6Y-85.6
X166.6Y-109.9
X166.6Y-117.8
X166.6Y-118.6
X166.7Y-125.4
X166.8Y-84.2
X166.8Y-119.3
X167.1Y-103.8
X167.1Y-104.8
X167.1Y-105.6
X167.1Y-106.4
X167.1Y-107.2
X167.2Y-96.5
X167.2Y-97.3
X167.2Y-98.1
X167.2Y-98.9
X167.2Y-99.7
X167.2Y-100.5
X167.2Y-101.4
X167.2Y-102.2
X167.2Y-103.
X167.3Y-79.8
X167.3Y-93.6
X167.3Y-120.1
X167.4Y-83.4
X167.4Y-84.5
X167.4Y-85.6
X167.4Y-109.9
X167.4Y-117.8
X167.4Y-118.6
X167.4Y-123.9
X167.4Y-124.7
T3
X142.941Y-98.42
X142.941Y-98.92
X142.941Y-99.411
X142.941Y-100.432
X142.941Y-101.93
X142.941Y-102.931
X142.941Y-103.421
X142.941Y-103.922
X142.941Y-104.419
X142.941Y-104.92
X142.951Y-99.931
X142.951Y-101.43
X143.929Y-105.42
X143.939Y-97.93
X144.419Y-105.42
X144.44Y-97.93
X144.93Y-105.42
X144.94Y-97.93
X145.42Y-105.42
X146.931Y-97.93
X147.93Y-105.42
X148.43Y-105.43
X150.431Y-99.431
X150.439Y-98.43
X150.439Y-98.93
X150.439Y-99.931
X150.439Y-100.919
X150.439Y-101.43
X150.439Y-101.93
X150.439Y-102.431
X150.439Y-103.431
X150.439Y-104.43
X150.439Y-104.93
X150.449Y-102.931
X150.449Y-103.932
X150.749Y-94.521
X151.74Y-103.48
X151.76Y-99.111
X152.1Y-94.96
X152.476Y-104.676
X152.499Y-105.25
X153.21Y-101.559
X153.261Y-99.68
X153.52Y-88.09
X153.601Y-104.14
X154.381Y-100.091
X154.701Y-92.1
X155.199Y-103.721
X155.519Y-107.13
X157.371Y-88.45
X157.371Y-91.27
T4
X122.271Y-111.27
X122.301Y-99.261
X122.321Y-93.261
X122.4Y-105.25
X122.507Y-114.521
X123.307Y-114.521
X124.107Y-114.521
X129.339Y-111.249
X129.57Y-93.221
X129.969Y-86.98
X129.969Y-113.861
X129.969Y-114.46
X130.45Y-120.25
X130.45Y-121.15
X130.45Y-122.1
X130.45Y-123.35
X130.45Y-124.35
X131.Y-125.1
X131.25Y-120.25
X131.6Y-124.1
X131.7Y-121.95
X131.9Y-125.1
X132.Y-115.3
X132.05Y-116.3
X132.2Y-120.25
X132.669Y-110.797
X133.Y-116.7
X133.Y-125.1
X133.068Y-110.297
X133.15Y-121.35
X133.15Y-123.75
X133.25Y-120.25
X133.568Y-110.797
X133.97Y-110.297
X134.Y-116.35
X134.05Y-115.3
X134.14Y-114.28
X134.2Y-120.25
X134.2Y-121.2
X134.2Y-122.45
X134.2Y-123.45
X134.2Y-124.25
X134.2Y-125.1
X134.47Y-110.795
X135.801Y-116.37
X135.989Y-111.409
X135.989Y-112.26
X137.721Y-87.48
X137.841Y-118.13
X139.57Y-94.851
X139.781Y-115.001
X140.251Y-114.27
X141.6Y-110.52
X142.499Y-111.697
X143.2Y-111.697
X144.229Y-109.659
X146.477Y-113.076
X146.7Y-110.36
X147.279Y-122.641
X147.325Y-120.65
X147.991Y-109.591
X148.885Y-114.884
X149.799Y-118.801
X152.171Y-96.05
X152.761Y-109.019
X152.791Y-108.301
X156.449Y-96.731
X156.789Y-103.241
X157.025Y-106.726
X157.571Y-100.33
X157.579Y-101.1
T5
X141.171Y-89.23
X142.471Y-89.86
T6
X130.299Y-79.291
X130.299Y-81.831
X131.569Y-80.561
X132.839Y-79.291
X132.839Y-81.831
T7
X121.221Y-87.96
X121.221Y-89.06
X121.221Y-90.16
X121.221Y-110.411
X121.221Y-111.511
X121.221Y-112.611
X135.4Y-80.808
X137.94Y-80.858
X140.48Y-80.858
X143.02Y-80.858
X143.32Y-77.31
X143.322Y-126.411
X143.703Y-124.661
X144.419Y-77.31
X144.422Y-126.411
X145.519Y-77.31
X145.522Y-126.411
X145.56Y-80.858
X146.243Y-124.661
X146.621Y-77.31
X146.624Y-126.411
X148.1Y-80.858
X149.969Y-122.758
X150.658Y-80.808
X152.509Y-122.809
X153.198Y-80.858
X155.049Y-122.809
X155.738Y-80.858
X157.589Y-122.809
X158.278Y-80.858
X160.129Y-122.809
X160.818Y-80.858
X168.321Y-100.51
X168.321Y-101.61
X168.321Y-102.71
X168.321Y-103.81
T8
X125.867Y-89.057
X125.867Y-115.453
T9
X126.37Y-81.859
X126.37Y-121.856
X164.569Y-81.859
X164.569Y-121.856
T0
M30
