G04 (created by PCBNEW (2013-05-31 BZR 4019)-stable) date 06/03/2014 18:54:47*
%MOIN*%
G04 Gerber Fmt 3.4, Leading zero omitted, Abs format*
%FSLAX34Y34*%
G01*
G70*
G90*
G04 APERTURE LIST*
%ADD10C,0.00590551*%
%ADD11C,0.0077*%
%ADD12C,0.0157*%
%ADD13C,0.0195*%
%ADD14C,0.0354*%
%ADD15R,0.0392X0.0392*%
%ADD16R,0.0472X0.051*%
%ADD17R,0.051X0.0472*%
%ADD18R,0.0195X0.0175*%
%ADD19R,0.0175X0.0195*%
%ADD20R,0.0259X0.014*%
%ADD21R,0.014X0.0259*%
%ADD22R,0.0275X0.0314*%
%ADD23R,0.0314X0.0275*%
%ADD24R,0.0195X0.0195*%
%ADD25C,0.2165*%
%ADD26R,0.1417X0.055*%
%ADD27R,0.244X0.2598*%
%ADD28R,0.0314X0.0314*%
%ADD29R,0.1849X0.0589*%
%ADD30R,0.0589X0.0275*%
%ADD31C,0.051*%
%ADD32C,0.055*%
%ADD33C,0.0597*%
%ADD34R,0.0597X0.0597*%
%ADD35R,0.0299X0.0649*%
%ADD36R,0.0669X0.0669*%
%ADD37O,0.0117X0.0335*%
%ADD38O,0.0122X0.0335*%
%ADD39O,0.0118X0.0335*%
%ADD40O,0.0335X0.0118*%
%ADD41R,0.0335X0.0118*%
%ADD42O,0.0335X0.0122*%
%ADD43C,0.0432*%
%ADD44R,0.0117X0.0275*%
%ADD45R,0.0117X0.0117*%
%ADD46R,0.0117X0.0177*%
%ADD47R,0.0177X0.0117*%
%ADD48R,0.0157X0.0209*%
%ADD49R,0.002X0.0114*%
%ADD50R,0.0276X0.0095*%
%ADD51R,0.0327X0.0095*%
%ADD52R,0.0354X0.0095*%
%ADD53R,0.0559X0.0095*%
%ADD54R,0.0019X0.0095*%
%ADD55R,0.0019X0.0083*%
%ADD56R,0.002X0.0095*%
%ADD57R,0.0019X0.0171*%
%ADD58R,0.0019X0.0342*%
%ADD59R,0.0019X0.0304*%
%ADD60R,0.0019X0.0094*%
%ADD61R,0.0019X0.0209*%
%ADD62R,0.0019X0.038*%
%ADD63R,0.0019X0.0475*%
%ADD64R,0.0019X0.0589*%
%ADD65R,0.0019X0.0646*%
%ADD66R,0.0019X0.0703*%
%ADD67R,0.0019X0.0779*%
%ADD68R,0.0019X0.0285*%
%ADD69R,0.0019X0.0247*%
%ADD70R,0.0019X0.0228*%
%ADD71R,0.0019X0.019*%
%ADD72R,0.0019X0.0133*%
%ADD73R,0.0019X0.0076*%
%ADD74R,0.0019X0.0038*%
%ADD75R,0.0019X0.0437*%
%ADD76R,0.0019X0.0551*%
%ADD77R,0.0019X0.0114*%
%ADD78R,0.0019X0.0057*%
%ADD79R,0.002X0.014*%
%ADD80R,0.0019X0.0335*%
%ADD81R,0.0019X0.0152*%
%ADD82R,0.0019X0.0361*%
%ADD83R,0.0019X0.0399*%
%ADD84R,0.0019X0.0323*%
%ADD85R,0.0019X0.0266*%
%ADD86R,0.0591X0.0095*%
%ADD87R,0.0157X0.0095*%
%ADD88R,0.002X0.038*%
%ADD89R,0.0019X0.0418*%
%ADD90R,0.0295X0.0095*%
%ADD91R,0.0217X0.0095*%
%ADD92R,0.0724X0.0095*%
%ADD93R,0.0019X0.3781*%
%ADD94R,0.00984252X0.0216535*%
%ADD95R,0.0216535X0.00984252*%
%ADD96R,0.0433071X0.0433071*%
%ADD97C,0.023622*%
%ADD98R,0.1495X0.0392*%
%ADD99R,0.1299X0.0392*%
%ADD100R,0.0392X0.1299*%
%ADD101R,0.0392X0.1495*%
%ADD102C,0.0077*%
%ADD103C,0.0117*%
%ADD104C,0.0196*%
%ADD105C,0.0118*%
%ADD106C,0.0196*%
%ADD107C,0.0157*%
%ADD108C,0.0117*%
%ADD109C,0.0118*%
%ADD110C,0.0122*%
%ADD111C,0.0195*%
%ADD112C,0.0314*%
%ADD113C,0.0059*%
%ADD114C,0.0078*%
%ADD115C,0.0039*%
%ADD116C,0.0235*%
G04 APERTURE END LIST*
G54D10*
X4000Y-4000D02*
X112930Y-4000D01*
X112930Y-78680D01*
X4000Y-78680D01*
X4000Y-4000D01*
X4700Y-4700D02*
X112230Y-4700D01*
X112230Y-77980D01*
X4700Y-77980D01*
X4700Y-4700D01*
X25780Y-4000D02*
X25780Y-4700D01*
X15032Y-4552D02*
X14747Y-4552D01*
X14890Y-4552D02*
X14890Y-4052D01*
X14842Y-4123D01*
X14794Y-4171D01*
X14747Y-4195D01*
X25780Y-78680D02*
X25780Y-77980D01*
X15032Y-78532D02*
X14747Y-78532D01*
X14890Y-78532D02*
X14890Y-78032D01*
X14842Y-78103D01*
X14794Y-78151D01*
X14747Y-78175D01*
X47560Y-4000D02*
X47560Y-4700D01*
X36527Y-4100D02*
X36550Y-4076D01*
X36598Y-4052D01*
X36717Y-4052D01*
X36765Y-4076D01*
X36789Y-4100D01*
X36812Y-4147D01*
X36812Y-4195D01*
X36789Y-4266D01*
X36503Y-4552D01*
X36812Y-4552D01*
X47560Y-78680D02*
X47560Y-77980D01*
X36527Y-78080D02*
X36550Y-78056D01*
X36598Y-78032D01*
X36717Y-78032D01*
X36765Y-78056D01*
X36789Y-78080D01*
X36812Y-78127D01*
X36812Y-78175D01*
X36789Y-78246D01*
X36503Y-78532D01*
X36812Y-78532D01*
X69340Y-4000D02*
X69340Y-4700D01*
X58283Y-4052D02*
X58592Y-4052D01*
X58426Y-4242D01*
X58497Y-4242D01*
X58545Y-4266D01*
X58569Y-4290D01*
X58592Y-4338D01*
X58592Y-4457D01*
X58569Y-4504D01*
X58545Y-4528D01*
X58497Y-4552D01*
X58354Y-4552D01*
X58307Y-4528D01*
X58283Y-4504D01*
X69340Y-78680D02*
X69340Y-77980D01*
X58283Y-78032D02*
X58592Y-78032D01*
X58426Y-78222D01*
X58497Y-78222D01*
X58545Y-78246D01*
X58569Y-78270D01*
X58592Y-78318D01*
X58592Y-78437D01*
X58569Y-78484D01*
X58545Y-78508D01*
X58497Y-78532D01*
X58354Y-78532D01*
X58307Y-78508D01*
X58283Y-78484D01*
X91120Y-4000D02*
X91120Y-4700D01*
X80325Y-4219D02*
X80325Y-4552D01*
X80206Y-4028D02*
X80087Y-4385D01*
X80396Y-4385D01*
X91120Y-78680D02*
X91120Y-77980D01*
X80325Y-78199D02*
X80325Y-78532D01*
X80206Y-78008D02*
X80087Y-78365D01*
X80396Y-78365D01*
X102129Y-4052D02*
X101890Y-4052D01*
X101867Y-4290D01*
X101890Y-4266D01*
X101938Y-4242D01*
X102057Y-4242D01*
X102105Y-4266D01*
X102129Y-4290D01*
X102152Y-4338D01*
X102152Y-4457D01*
X102129Y-4504D01*
X102105Y-4528D01*
X102057Y-4552D01*
X101938Y-4552D01*
X101890Y-4528D01*
X101867Y-4504D01*
X102129Y-78032D02*
X101890Y-78032D01*
X101867Y-78270D01*
X101890Y-78246D01*
X101938Y-78222D01*
X102057Y-78222D01*
X102105Y-78246D01*
X102129Y-78270D01*
X102152Y-78318D01*
X102152Y-78437D01*
X102129Y-78484D01*
X102105Y-78508D01*
X102057Y-78532D01*
X101938Y-78532D01*
X101890Y-78508D01*
X101867Y-78484D01*
X4000Y-28890D02*
X4700Y-28890D01*
X4230Y-16509D02*
X4469Y-16509D01*
X4183Y-16652D02*
X4350Y-16152D01*
X4516Y-16652D01*
X112930Y-28890D02*
X112230Y-28890D01*
X112460Y-16509D02*
X112699Y-16509D01*
X112413Y-16652D02*
X112580Y-16152D01*
X112746Y-16652D01*
X4000Y-53780D02*
X4700Y-53780D01*
X4385Y-41280D02*
X4457Y-41304D01*
X4480Y-41328D01*
X4504Y-41375D01*
X4504Y-41447D01*
X4480Y-41494D01*
X4457Y-41518D01*
X4409Y-41542D01*
X4219Y-41542D01*
X4219Y-41042D01*
X4385Y-41042D01*
X4433Y-41066D01*
X4457Y-41090D01*
X4480Y-41137D01*
X4480Y-41185D01*
X4457Y-41232D01*
X4433Y-41256D01*
X4385Y-41280D01*
X4219Y-41280D01*
X112930Y-53780D02*
X112230Y-53780D01*
X112615Y-41280D02*
X112687Y-41304D01*
X112710Y-41328D01*
X112734Y-41375D01*
X112734Y-41447D01*
X112710Y-41494D01*
X112687Y-41518D01*
X112639Y-41542D01*
X112449Y-41542D01*
X112449Y-41042D01*
X112615Y-41042D01*
X112663Y-41066D01*
X112687Y-41090D01*
X112710Y-41137D01*
X112710Y-41185D01*
X112687Y-41232D01*
X112663Y-41256D01*
X112615Y-41280D01*
X112449Y-41280D01*
X4504Y-66384D02*
X4480Y-66408D01*
X4409Y-66432D01*
X4361Y-66432D01*
X4290Y-66408D01*
X4242Y-66360D01*
X4219Y-66313D01*
X4195Y-66218D01*
X4195Y-66146D01*
X4219Y-66051D01*
X4242Y-66003D01*
X4290Y-65956D01*
X4361Y-65932D01*
X4409Y-65932D01*
X4480Y-65956D01*
X4504Y-65980D01*
X112734Y-66384D02*
X112710Y-66408D01*
X112639Y-66432D01*
X112591Y-66432D01*
X112520Y-66408D01*
X112472Y-66360D01*
X112449Y-66313D01*
X112425Y-66218D01*
X112425Y-66146D01*
X112449Y-66051D01*
X112472Y-66003D01*
X112520Y-65956D01*
X112591Y-65932D01*
X112639Y-65932D01*
X112710Y-65956D01*
X112734Y-65980D01*
X79380Y-76422D02*
X79455Y-75822D01*
X79597Y-75822D01*
X79680Y-75851D01*
X79730Y-75908D01*
X79751Y-75965D01*
X79765Y-76080D01*
X79755Y-76165D01*
X79712Y-76280D01*
X79676Y-76337D01*
X79612Y-76394D01*
X79522Y-76422D01*
X79380Y-76422D01*
X80237Y-76422D02*
X80276Y-76108D01*
X80255Y-76051D01*
X80201Y-76022D01*
X80087Y-76022D01*
X80026Y-76051D01*
X80240Y-76394D02*
X80180Y-76422D01*
X80037Y-76422D01*
X79983Y-76394D01*
X79962Y-76337D01*
X79969Y-76280D01*
X80005Y-76222D01*
X80065Y-76194D01*
X80208Y-76194D01*
X80269Y-76165D01*
X80487Y-76022D02*
X80715Y-76022D01*
X80597Y-75822D02*
X80533Y-76337D01*
X80555Y-76394D01*
X80608Y-76422D01*
X80665Y-76422D01*
X81097Y-76394D02*
X81037Y-76422D01*
X80922Y-76422D01*
X80869Y-76394D01*
X80847Y-76337D01*
X80876Y-76108D01*
X80912Y-76051D01*
X80972Y-76022D01*
X81087Y-76022D01*
X81140Y-76051D01*
X81162Y-76108D01*
X81155Y-76165D01*
X80862Y-76222D01*
X81387Y-76365D02*
X81412Y-76394D01*
X81380Y-76422D01*
X81355Y-76394D01*
X81387Y-76365D01*
X81380Y-76422D01*
X81426Y-76051D02*
X81451Y-76080D01*
X81419Y-76108D01*
X81394Y-76080D01*
X81426Y-76051D01*
X81419Y-76108D01*
X82455Y-75822D02*
X82340Y-75822D01*
X82279Y-75851D01*
X82247Y-75880D01*
X82180Y-75965D01*
X82137Y-76080D01*
X82108Y-76308D01*
X82130Y-76365D01*
X82155Y-76394D01*
X82208Y-76422D01*
X82322Y-76422D01*
X82383Y-76394D01*
X82415Y-76365D01*
X82451Y-76308D01*
X82469Y-76165D01*
X82447Y-76108D01*
X82422Y-76080D01*
X82369Y-76051D01*
X82254Y-76051D01*
X82194Y-76080D01*
X82162Y-76108D01*
X82126Y-76165D01*
X83151Y-76422D02*
X83201Y-76022D01*
X83194Y-76080D02*
X83226Y-76051D01*
X83287Y-76022D01*
X83372Y-76022D01*
X83426Y-76051D01*
X83447Y-76108D01*
X83408Y-76422D01*
X83447Y-76108D02*
X83483Y-76051D01*
X83544Y-76022D01*
X83630Y-76022D01*
X83683Y-76051D01*
X83705Y-76108D01*
X83665Y-76422D01*
X84208Y-76422D02*
X84247Y-76108D01*
X84226Y-76051D01*
X84172Y-76022D01*
X84058Y-76022D01*
X83997Y-76051D01*
X84212Y-76394D02*
X84151Y-76422D01*
X84008Y-76422D01*
X83955Y-76394D01*
X83933Y-76337D01*
X83940Y-76280D01*
X83976Y-76222D01*
X84037Y-76194D01*
X84180Y-76194D01*
X84240Y-76165D01*
X84494Y-76422D02*
X84544Y-76022D01*
X84530Y-76137D02*
X84565Y-76080D01*
X84597Y-76051D01*
X84658Y-76022D01*
X84715Y-76022D01*
X85362Y-75880D02*
X85394Y-75851D01*
X85455Y-75822D01*
X85597Y-75822D01*
X85651Y-75851D01*
X85676Y-75880D01*
X85697Y-75937D01*
X85690Y-75994D01*
X85651Y-76080D01*
X85265Y-76422D01*
X85637Y-76422D01*
X86083Y-75822D02*
X86140Y-75822D01*
X86194Y-75851D01*
X86219Y-75880D01*
X86240Y-75937D01*
X86255Y-76051D01*
X86237Y-76194D01*
X86194Y-76308D01*
X86158Y-76365D01*
X86126Y-76394D01*
X86065Y-76422D01*
X86008Y-76422D01*
X85955Y-76394D01*
X85930Y-76365D01*
X85908Y-76308D01*
X85894Y-76194D01*
X85912Y-76051D01*
X85955Y-75937D01*
X85990Y-75880D01*
X86022Y-75851D01*
X86083Y-75822D01*
X86780Y-76422D02*
X86437Y-76422D01*
X86608Y-76422D02*
X86683Y-75822D01*
X86615Y-75908D01*
X86551Y-75965D01*
X86490Y-75994D01*
X87344Y-76022D02*
X87294Y-76422D01*
X87230Y-75794D02*
X87033Y-76222D01*
X87405Y-76222D01*
X70972Y-77622D02*
X70972Y-77022D01*
X71315Y-77622D02*
X71058Y-77280D01*
X71315Y-77022D02*
X70972Y-77365D01*
X71572Y-77622D02*
X71572Y-77222D01*
X71572Y-77022D02*
X71544Y-77051D01*
X71572Y-77080D01*
X71601Y-77051D01*
X71572Y-77022D01*
X71572Y-77080D01*
X72201Y-77565D02*
X72172Y-77594D01*
X72087Y-77622D01*
X72030Y-77622D01*
X71944Y-77594D01*
X71887Y-77537D01*
X71858Y-77480D01*
X71830Y-77365D01*
X71830Y-77280D01*
X71858Y-77165D01*
X71887Y-77108D01*
X71944Y-77051D01*
X72030Y-77022D01*
X72087Y-77022D01*
X72172Y-77051D01*
X72201Y-77080D01*
X72715Y-77622D02*
X72715Y-77308D01*
X72687Y-77251D01*
X72630Y-77222D01*
X72515Y-77222D01*
X72458Y-77251D01*
X72715Y-77594D02*
X72658Y-77622D01*
X72515Y-77622D01*
X72458Y-77594D01*
X72430Y-77537D01*
X72430Y-77480D01*
X72458Y-77422D01*
X72515Y-77394D01*
X72658Y-77394D01*
X72715Y-77365D01*
X73258Y-77622D02*
X73258Y-77022D01*
X73258Y-77594D02*
X73201Y-77622D01*
X73087Y-77622D01*
X73030Y-77594D01*
X73001Y-77565D01*
X72972Y-77508D01*
X72972Y-77337D01*
X73001Y-77280D01*
X73030Y-77251D01*
X73087Y-77222D01*
X73201Y-77222D01*
X73258Y-77251D01*
X74001Y-77308D02*
X74201Y-77308D01*
X74287Y-77622D02*
X74001Y-77622D01*
X74001Y-77022D01*
X74287Y-77022D01*
X74544Y-77565D02*
X74572Y-77594D01*
X74544Y-77622D01*
X74515Y-77594D01*
X74544Y-77565D01*
X74544Y-77622D01*
X74829Y-77622D02*
X74829Y-77022D01*
X74972Y-77022D01*
X75058Y-77051D01*
X75115Y-77108D01*
X75144Y-77165D01*
X75172Y-77280D01*
X75172Y-77365D01*
X75144Y-77480D01*
X75115Y-77537D01*
X75058Y-77594D01*
X74972Y-77622D01*
X74829Y-77622D01*
X75429Y-77565D02*
X75458Y-77594D01*
X75429Y-77622D01*
X75401Y-77594D01*
X75429Y-77565D01*
X75429Y-77622D01*
X75687Y-77451D02*
X75972Y-77451D01*
X75629Y-77622D02*
X75829Y-77022D01*
X76029Y-77622D01*
X76229Y-77565D02*
X76258Y-77594D01*
X76229Y-77622D01*
X76201Y-77594D01*
X76229Y-77565D01*
X76229Y-77622D01*
X104522Y-76422D02*
X104358Y-76137D01*
X104180Y-76422D02*
X104255Y-75822D01*
X104483Y-75822D01*
X104537Y-75851D01*
X104562Y-75880D01*
X104583Y-75937D01*
X104572Y-76022D01*
X104537Y-76080D01*
X104505Y-76108D01*
X104444Y-76137D01*
X104215Y-76137D01*
X105012Y-76394D02*
X104951Y-76422D01*
X104837Y-76422D01*
X104783Y-76394D01*
X104762Y-76337D01*
X104790Y-76108D01*
X104826Y-76051D01*
X104887Y-76022D01*
X105001Y-76022D01*
X105055Y-76051D01*
X105076Y-76108D01*
X105069Y-76165D01*
X104776Y-76222D01*
X105287Y-76022D02*
X105380Y-76422D01*
X105572Y-76022D01*
X105758Y-76365D02*
X105783Y-76394D01*
X105751Y-76422D01*
X105726Y-76394D01*
X105758Y-76365D01*
X105751Y-76422D01*
X105797Y-76051D02*
X105822Y-76080D01*
X105790Y-76108D01*
X105765Y-76080D01*
X105797Y-76051D01*
X105790Y-76108D01*
X106512Y-75822D02*
X106883Y-75822D01*
X106655Y-76051D01*
X106740Y-76051D01*
X106794Y-76080D01*
X106819Y-76108D01*
X106840Y-76165D01*
X106822Y-76308D01*
X106787Y-76365D01*
X106755Y-76394D01*
X106694Y-76422D01*
X106522Y-76422D01*
X106469Y-76394D01*
X106444Y-76365D01*
X70944Y-76394D02*
X71030Y-76422D01*
X71172Y-76422D01*
X71230Y-76394D01*
X71258Y-76365D01*
X71287Y-76308D01*
X71287Y-76251D01*
X71258Y-76194D01*
X71230Y-76165D01*
X71172Y-76137D01*
X71058Y-76108D01*
X71001Y-76080D01*
X70972Y-76051D01*
X70944Y-75994D01*
X70944Y-75937D01*
X70972Y-75880D01*
X71001Y-75851D01*
X71058Y-75822D01*
X71201Y-75822D01*
X71287Y-75851D01*
X71544Y-76422D02*
X71544Y-76022D01*
X71544Y-75822D02*
X71515Y-75851D01*
X71544Y-75880D01*
X71572Y-75851D01*
X71544Y-75822D01*
X71544Y-75880D01*
X71772Y-76022D02*
X72087Y-76022D01*
X71772Y-76422D01*
X72087Y-76422D01*
X72544Y-76394D02*
X72487Y-76422D01*
X72372Y-76422D01*
X72315Y-76394D01*
X72287Y-76337D01*
X72287Y-76108D01*
X72315Y-76051D01*
X72372Y-76022D01*
X72487Y-76022D01*
X72544Y-76051D01*
X72572Y-76108D01*
X72572Y-76165D01*
X72287Y-76222D01*
X72830Y-76365D02*
X72858Y-76394D01*
X72830Y-76422D01*
X72801Y-76394D01*
X72830Y-76365D01*
X72830Y-76422D01*
X72830Y-76051D02*
X72858Y-76080D01*
X72830Y-76108D01*
X72801Y-76080D01*
X72830Y-76051D01*
X72830Y-76108D01*
X73544Y-76251D02*
X73830Y-76251D01*
X73487Y-76422D02*
X73687Y-75822D01*
X73887Y-76422D01*
X74344Y-76022D02*
X74344Y-76422D01*
X74201Y-75794D02*
X74058Y-76222D01*
X74430Y-76222D01*
X104172Y-77622D02*
X104172Y-77022D01*
X104715Y-77622D02*
X104715Y-77022D01*
X104715Y-77594D02*
X104658Y-77622D01*
X104544Y-77622D01*
X104487Y-77594D01*
X104458Y-77565D01*
X104430Y-77508D01*
X104430Y-77337D01*
X104458Y-77280D01*
X104487Y-77251D01*
X104544Y-77222D01*
X104658Y-77222D01*
X104715Y-77251D01*
X105001Y-77565D02*
X105030Y-77594D01*
X105001Y-77622D01*
X104972Y-77594D01*
X105001Y-77565D01*
X105001Y-77622D01*
X105001Y-77251D02*
X105030Y-77280D01*
X105001Y-77308D01*
X104972Y-77280D01*
X105001Y-77251D01*
X105001Y-77308D01*
X106058Y-77622D02*
X105715Y-77622D01*
X105887Y-77622D02*
X105887Y-77022D01*
X105829Y-77108D01*
X105772Y-77165D01*
X105715Y-77194D01*
X106744Y-76994D02*
X106230Y-77765D01*
X107258Y-77622D02*
X106915Y-77622D01*
X107087Y-77622D02*
X107087Y-77022D01*
X107029Y-77108D01*
X106972Y-77165D01*
X106915Y-77194D01*
X70969Y-74622D02*
X71312Y-74622D01*
X71065Y-75222D02*
X71140Y-74622D01*
X71437Y-75222D02*
X71487Y-74822D01*
X71512Y-74622D02*
X71480Y-74651D01*
X71505Y-74680D01*
X71537Y-74651D01*
X71512Y-74622D01*
X71505Y-74680D01*
X71687Y-74822D02*
X71915Y-74822D01*
X71797Y-74622D02*
X71733Y-75137D01*
X71755Y-75194D01*
X71808Y-75222D01*
X71865Y-75222D01*
X72151Y-75222D02*
X72097Y-75194D01*
X72076Y-75137D01*
X72140Y-74622D01*
X72612Y-75194D02*
X72551Y-75222D01*
X72437Y-75222D01*
X72383Y-75194D01*
X72362Y-75137D01*
X72390Y-74908D01*
X72426Y-74851D01*
X72487Y-74822D01*
X72601Y-74822D01*
X72655Y-74851D01*
X72676Y-74908D01*
X72669Y-74965D01*
X72376Y-75022D01*
X72901Y-75165D02*
X72926Y-75194D01*
X72894Y-75222D01*
X72869Y-75194D01*
X72901Y-75165D01*
X72894Y-75222D01*
X72940Y-74851D02*
X72965Y-74880D01*
X72933Y-74908D01*
X72908Y-74880D01*
X72940Y-74851D01*
X72933Y-74908D01*
X73637Y-75222D02*
X73712Y-74622D01*
X73858Y-75051D01*
X74112Y-74622D01*
X74037Y-75222D01*
X74315Y-74822D02*
X74408Y-75222D01*
X74601Y-74822D02*
X74408Y-75222D01*
X74333Y-75365D01*
X74301Y-75394D01*
X74240Y-75422D01*
X74780Y-75222D02*
X74830Y-74822D01*
X74815Y-74937D02*
X74851Y-74880D01*
X74883Y-74851D01*
X74944Y-74822D01*
X75001Y-74822D01*
X75151Y-75222D02*
X75201Y-74822D01*
X75226Y-74622D02*
X75194Y-74651D01*
X75219Y-74680D01*
X75251Y-74651D01*
X75226Y-74622D01*
X75219Y-74680D01*
X75694Y-75222D02*
X75733Y-74908D01*
X75712Y-74851D01*
X75658Y-74822D01*
X75544Y-74822D01*
X75483Y-74851D01*
X75697Y-75194D02*
X75637Y-75222D01*
X75494Y-75222D01*
X75440Y-75194D01*
X75419Y-75137D01*
X75426Y-75080D01*
X75462Y-75022D01*
X75522Y-74994D01*
X75665Y-74994D01*
X75726Y-74965D01*
X76237Y-75222D02*
X76312Y-74622D01*
X76240Y-75194D02*
X76180Y-75222D01*
X76065Y-75222D01*
X76012Y-75194D01*
X75987Y-75165D01*
X75965Y-75108D01*
X75987Y-74937D01*
X76022Y-74880D01*
X76055Y-74851D01*
X76115Y-74822D01*
X76230Y-74822D01*
X76283Y-74851D01*
X77322Y-75222D02*
X77158Y-74937D01*
X76980Y-75222D02*
X77055Y-74622D01*
X77283Y-74622D01*
X77337Y-74651D01*
X77362Y-74680D01*
X77383Y-74737D01*
X77372Y-74822D01*
X77337Y-74880D01*
X77305Y-74908D01*
X77244Y-74937D01*
X77015Y-74937D01*
X77819Y-74908D02*
X77619Y-74908D01*
X77580Y-75222D02*
X77655Y-74622D01*
X77940Y-74622D01*
X78544Y-74822D02*
X78637Y-75222D01*
X78830Y-74822D01*
X79015Y-75165D02*
X79040Y-75194D01*
X79008Y-75222D01*
X78983Y-75194D01*
X79015Y-75165D01*
X79008Y-75222D01*
X79608Y-75222D02*
X79265Y-75222D01*
X79437Y-75222D02*
X79512Y-74622D01*
X79444Y-74708D01*
X79380Y-74765D01*
X79319Y-74794D01*
X71172Y-72508D02*
X70972Y-72508D01*
X70972Y-72822D02*
X70972Y-72222D01*
X71258Y-72222D01*
X71487Y-72822D02*
X71487Y-72422D01*
X71487Y-72222D02*
X71458Y-72251D01*
X71487Y-72280D01*
X71515Y-72251D01*
X71487Y-72222D01*
X71487Y-72280D01*
X71858Y-72822D02*
X71801Y-72794D01*
X71772Y-72737D01*
X71772Y-72222D01*
X72315Y-72794D02*
X72258Y-72822D01*
X72144Y-72822D01*
X72087Y-72794D01*
X72058Y-72737D01*
X72058Y-72508D01*
X72087Y-72451D01*
X72144Y-72422D01*
X72258Y-72422D01*
X72315Y-72451D01*
X72344Y-72508D01*
X72344Y-72565D01*
X72058Y-72622D01*
X72601Y-72765D02*
X72630Y-72794D01*
X72601Y-72822D01*
X72572Y-72794D01*
X72601Y-72765D01*
X72601Y-72822D01*
X72601Y-72451D02*
X72630Y-72480D01*
X72601Y-72508D01*
X72572Y-72480D01*
X72601Y-72451D01*
X72601Y-72508D01*
X73344Y-72822D02*
X73344Y-72222D01*
X73544Y-72651D01*
X73744Y-72222D01*
X73744Y-72822D01*
X74144Y-72537D02*
X74144Y-72822D01*
X73944Y-72222D02*
X74144Y-72537D01*
X74344Y-72222D01*
X74887Y-72822D02*
X74687Y-72537D01*
X74544Y-72822D02*
X74544Y-72222D01*
X74772Y-72222D01*
X74830Y-72251D01*
X74858Y-72280D01*
X74887Y-72337D01*
X74887Y-72422D01*
X74858Y-72480D01*
X74830Y-72508D01*
X74772Y-72537D01*
X74544Y-72537D01*
X75144Y-72822D02*
X75144Y-72222D01*
X75401Y-72651D02*
X75687Y-72651D01*
X75344Y-72822D02*
X75544Y-72222D01*
X75744Y-72822D01*
X75944Y-72822D02*
X75944Y-72222D01*
X76087Y-72222D01*
X76172Y-72251D01*
X76230Y-72308D01*
X76258Y-72365D01*
X76287Y-72480D01*
X76287Y-72565D01*
X76258Y-72680D01*
X76230Y-72737D01*
X76172Y-72794D01*
X76087Y-72822D01*
X75944Y-72822D01*
X76401Y-72880D02*
X76858Y-72880D01*
X77344Y-72822D02*
X77144Y-72537D01*
X77001Y-72822D02*
X77001Y-72222D01*
X77230Y-72222D01*
X77287Y-72251D01*
X77315Y-72280D01*
X77344Y-72337D01*
X77344Y-72422D01*
X77315Y-72480D01*
X77287Y-72508D01*
X77230Y-72537D01*
X77001Y-72537D01*
X77801Y-72508D02*
X77601Y-72508D01*
X77601Y-72822D02*
X77601Y-72222D01*
X77887Y-72222D01*
X78115Y-72765D02*
X78144Y-72794D01*
X78115Y-72822D01*
X78087Y-72794D01*
X78115Y-72765D01*
X78115Y-72822D01*
X78401Y-72822D02*
X78401Y-72222D01*
X78401Y-72451D02*
X78458Y-72422D01*
X78572Y-72422D01*
X78630Y-72451D01*
X78658Y-72480D01*
X78687Y-72537D01*
X78687Y-72708D01*
X78658Y-72765D01*
X78630Y-72794D01*
X78572Y-72822D01*
X78458Y-72822D01*
X78401Y-72794D01*
X78944Y-72822D02*
X78944Y-72422D01*
X78944Y-72537D02*
X78972Y-72480D01*
X79001Y-72451D01*
X79058Y-72422D01*
X79115Y-72422D01*
X79572Y-72822D02*
X79572Y-72222D01*
X79572Y-72794D02*
X79515Y-72822D01*
X79401Y-72822D01*
X79344Y-72794D01*
X79315Y-72765D01*
X79287Y-72708D01*
X79287Y-72537D01*
X79315Y-72480D01*
X79344Y-72451D01*
X79401Y-72422D01*
X79515Y-72422D01*
X79572Y-72451D01*
X70944Y-73994D02*
X71030Y-74022D01*
X71172Y-74022D01*
X71230Y-73994D01*
X71258Y-73965D01*
X71287Y-73908D01*
X71287Y-73851D01*
X71258Y-73794D01*
X71230Y-73765D01*
X71172Y-73737D01*
X71058Y-73708D01*
X71001Y-73680D01*
X70972Y-73651D01*
X70944Y-73594D01*
X70944Y-73537D01*
X70972Y-73480D01*
X71001Y-73451D01*
X71058Y-73422D01*
X71201Y-73422D01*
X71287Y-73451D01*
X71544Y-74022D02*
X71544Y-73422D01*
X71801Y-74022D02*
X71801Y-73708D01*
X71772Y-73651D01*
X71715Y-73622D01*
X71630Y-73622D01*
X71572Y-73651D01*
X71544Y-73680D01*
X72315Y-73994D02*
X72258Y-74022D01*
X72144Y-74022D01*
X72087Y-73994D01*
X72058Y-73937D01*
X72058Y-73708D01*
X72087Y-73651D01*
X72144Y-73622D01*
X72258Y-73622D01*
X72315Y-73651D01*
X72344Y-73708D01*
X72344Y-73765D01*
X72058Y-73822D01*
X72830Y-73994D02*
X72772Y-74022D01*
X72658Y-74022D01*
X72601Y-73994D01*
X72572Y-73937D01*
X72572Y-73708D01*
X72601Y-73651D01*
X72658Y-73622D01*
X72772Y-73622D01*
X72830Y-73651D01*
X72858Y-73708D01*
X72858Y-73765D01*
X72572Y-73822D01*
X73030Y-73622D02*
X73258Y-73622D01*
X73115Y-73422D02*
X73115Y-73937D01*
X73144Y-73994D01*
X73201Y-74022D01*
X73258Y-74022D01*
X73458Y-73965D02*
X73487Y-73994D01*
X73458Y-74022D01*
X73430Y-73994D01*
X73458Y-73965D01*
X73458Y-74022D01*
X73458Y-73651D02*
X73487Y-73680D01*
X73458Y-73708D01*
X73430Y-73680D01*
X73458Y-73651D01*
X73458Y-73708D01*
X70887Y-69822D02*
X71230Y-69822D01*
X71058Y-70422D02*
X71058Y-69822D01*
X71430Y-70422D02*
X71430Y-69822D01*
X71430Y-70108D02*
X71772Y-70108D01*
X71772Y-70422D02*
X71772Y-69822D01*
X72058Y-70422D02*
X72058Y-69822D01*
X72315Y-70394D02*
X72401Y-70422D01*
X72544Y-70422D01*
X72601Y-70394D01*
X72629Y-70365D01*
X72658Y-70308D01*
X72658Y-70251D01*
X72629Y-70194D01*
X72601Y-70165D01*
X72544Y-70137D01*
X72429Y-70108D01*
X72372Y-70080D01*
X72344Y-70051D01*
X72315Y-69994D01*
X72315Y-69937D01*
X72344Y-69880D01*
X72372Y-69851D01*
X72429Y-69822D01*
X72572Y-69822D01*
X72658Y-69851D01*
X73315Y-69822D02*
X73458Y-70422D01*
X73572Y-69994D01*
X73687Y-70422D01*
X73830Y-69822D01*
X74172Y-69822D02*
X74287Y-69822D01*
X74344Y-69851D01*
X74401Y-69908D01*
X74430Y-70022D01*
X74430Y-70222D01*
X74401Y-70337D01*
X74344Y-70394D01*
X74287Y-70422D01*
X74172Y-70422D01*
X74115Y-70394D01*
X74058Y-70337D01*
X74030Y-70222D01*
X74030Y-70022D01*
X74058Y-69908D01*
X74115Y-69851D01*
X74172Y-69822D01*
X75029Y-70422D02*
X74829Y-70137D01*
X74687Y-70422D02*
X74687Y-69822D01*
X74915Y-69822D01*
X74972Y-69851D01*
X75001Y-69880D01*
X75029Y-69937D01*
X75029Y-70022D01*
X75001Y-70080D01*
X74972Y-70108D01*
X74915Y-70137D01*
X74687Y-70137D01*
X75287Y-70422D02*
X75287Y-69822D01*
X75629Y-70422D02*
X75372Y-70080D01*
X75629Y-69822D02*
X75287Y-70165D01*
X76344Y-70422D02*
X76344Y-69822D01*
X76601Y-70394D02*
X76687Y-70422D01*
X76829Y-70422D01*
X76887Y-70394D01*
X76915Y-70365D01*
X76944Y-70308D01*
X76944Y-70251D01*
X76915Y-70194D01*
X76887Y-70165D01*
X76829Y-70137D01*
X76715Y-70108D01*
X76658Y-70080D01*
X76629Y-70051D01*
X76601Y-69994D01*
X76601Y-69937D01*
X76629Y-69880D01*
X76658Y-69851D01*
X76715Y-69822D01*
X76858Y-69822D01*
X76944Y-69851D01*
X78001Y-70365D02*
X77972Y-70394D01*
X77887Y-70422D01*
X77830Y-70422D01*
X77744Y-70394D01*
X77687Y-70337D01*
X77658Y-70280D01*
X77630Y-70165D01*
X77630Y-70080D01*
X77658Y-69965D01*
X77687Y-69908D01*
X77744Y-69851D01*
X77830Y-69822D01*
X77887Y-69822D01*
X77972Y-69851D01*
X78001Y-69880D01*
X78372Y-69822D02*
X78487Y-69822D01*
X78544Y-69851D01*
X78601Y-69908D01*
X78630Y-70022D01*
X78630Y-70222D01*
X78601Y-70337D01*
X78544Y-70394D01*
X78487Y-70422D01*
X78372Y-70422D01*
X78315Y-70394D01*
X78258Y-70337D01*
X78230Y-70222D01*
X78230Y-70022D01*
X78258Y-69908D01*
X78315Y-69851D01*
X78372Y-69822D01*
X78801Y-69822D02*
X79001Y-70422D01*
X79201Y-69822D01*
X79401Y-70108D02*
X79601Y-70108D01*
X79687Y-70422D02*
X79401Y-70422D01*
X79401Y-69822D01*
X79687Y-69822D01*
X80287Y-70422D02*
X80087Y-70137D01*
X79944Y-70422D02*
X79944Y-69822D01*
X80172Y-69822D01*
X80229Y-69851D01*
X80258Y-69880D01*
X80287Y-69937D01*
X80287Y-70022D01*
X80258Y-70080D01*
X80229Y-70108D01*
X80172Y-70137D01*
X79944Y-70137D01*
X80544Y-70108D02*
X80744Y-70108D01*
X80829Y-70422D02*
X80544Y-70422D01*
X80544Y-69822D01*
X80829Y-69822D01*
X81087Y-70422D02*
X81087Y-69822D01*
X81229Y-69822D01*
X81315Y-69851D01*
X81372Y-69908D01*
X81401Y-69965D01*
X81429Y-70080D01*
X81429Y-70165D01*
X81401Y-70280D01*
X81372Y-70337D01*
X81315Y-70394D01*
X81229Y-70422D01*
X81087Y-70422D01*
X82144Y-69822D02*
X82144Y-70308D01*
X82172Y-70365D01*
X82201Y-70394D01*
X82258Y-70422D01*
X82372Y-70422D01*
X82429Y-70394D01*
X82458Y-70365D01*
X82487Y-70308D01*
X82487Y-69822D01*
X82772Y-70422D02*
X82772Y-69822D01*
X83115Y-70422D01*
X83115Y-69822D01*
X83401Y-70422D02*
X83401Y-69822D01*
X83544Y-69822D01*
X83629Y-69851D01*
X83687Y-69908D01*
X83715Y-69965D01*
X83744Y-70080D01*
X83744Y-70165D01*
X83715Y-70280D01*
X83687Y-70337D01*
X83629Y-70394D01*
X83544Y-70422D01*
X83401Y-70422D01*
X84001Y-70108D02*
X84201Y-70108D01*
X84287Y-70422D02*
X84001Y-70422D01*
X84001Y-69822D01*
X84287Y-69822D01*
X84887Y-70422D02*
X84687Y-70137D01*
X84544Y-70422D02*
X84544Y-69822D01*
X84772Y-69822D01*
X84829Y-69851D01*
X84858Y-69880D01*
X84887Y-69937D01*
X84887Y-70022D01*
X84858Y-70080D01*
X84829Y-70108D01*
X84772Y-70137D01*
X84544Y-70137D01*
X85572Y-70251D02*
X85858Y-70251D01*
X85515Y-70422D02*
X85715Y-69822D01*
X85915Y-70422D01*
X86915Y-70365D02*
X86887Y-70394D01*
X86801Y-70422D01*
X86744Y-70422D01*
X86658Y-70394D01*
X86601Y-70337D01*
X86572Y-70280D01*
X86544Y-70165D01*
X86544Y-70080D01*
X86572Y-69965D01*
X86601Y-69908D01*
X86658Y-69851D01*
X86744Y-69822D01*
X86801Y-69822D01*
X86887Y-69851D01*
X86915Y-69880D01*
X87515Y-70422D02*
X87315Y-70137D01*
X87172Y-70422D02*
X87172Y-69822D01*
X87401Y-69822D01*
X87458Y-69851D01*
X87487Y-69880D01*
X87515Y-69937D01*
X87515Y-70022D01*
X87487Y-70080D01*
X87458Y-70108D01*
X87401Y-70137D01*
X87172Y-70137D01*
X87772Y-70108D02*
X87972Y-70108D01*
X88058Y-70422D02*
X87772Y-70422D01*
X87772Y-69822D01*
X88058Y-69822D01*
X88287Y-70251D02*
X88572Y-70251D01*
X88229Y-70422D02*
X88429Y-69822D01*
X88629Y-70422D01*
X88744Y-69822D02*
X89087Y-69822D01*
X88915Y-70422D02*
X88915Y-69822D01*
X89287Y-70422D02*
X89287Y-69822D01*
X89487Y-69822D02*
X89687Y-70422D01*
X89887Y-69822D01*
X90087Y-70108D02*
X90287Y-70108D01*
X90372Y-70422D02*
X90087Y-70422D01*
X90087Y-69822D01*
X90372Y-69822D01*
X91429Y-70365D02*
X91401Y-70394D01*
X91315Y-70422D01*
X91258Y-70422D01*
X91172Y-70394D01*
X91115Y-70337D01*
X91087Y-70280D01*
X91058Y-70165D01*
X91058Y-70080D01*
X91087Y-69965D01*
X91115Y-69908D01*
X91172Y-69851D01*
X91258Y-69822D01*
X91315Y-69822D01*
X91401Y-69851D01*
X91429Y-69880D01*
X91801Y-69822D02*
X91915Y-69822D01*
X91972Y-69851D01*
X92029Y-69908D01*
X92058Y-70022D01*
X92058Y-70222D01*
X92029Y-70337D01*
X91972Y-70394D01*
X91915Y-70422D01*
X91801Y-70422D01*
X91744Y-70394D01*
X91687Y-70337D01*
X91658Y-70222D01*
X91658Y-70022D01*
X91687Y-69908D01*
X91744Y-69851D01*
X91801Y-69822D01*
X92315Y-70422D02*
X92315Y-69822D01*
X92515Y-70251D01*
X92715Y-69822D01*
X92715Y-70422D01*
X93001Y-70422D02*
X93001Y-69822D01*
X93201Y-70251D01*
X93401Y-69822D01*
X93401Y-70422D01*
X93801Y-69822D02*
X93915Y-69822D01*
X93972Y-69851D01*
X94029Y-69908D01*
X94058Y-70022D01*
X94058Y-70222D01*
X94029Y-70337D01*
X93972Y-70394D01*
X93915Y-70422D01*
X93801Y-70422D01*
X93744Y-70394D01*
X93687Y-70337D01*
X93658Y-70222D01*
X93658Y-70022D01*
X93687Y-69908D01*
X93744Y-69851D01*
X93801Y-69822D01*
X94315Y-70422D02*
X94315Y-69822D01*
X94658Y-70422D01*
X94658Y-69822D01*
X94915Y-70394D02*
X95001Y-70422D01*
X95144Y-70422D01*
X95201Y-70394D01*
X95229Y-70365D01*
X95258Y-70308D01*
X95258Y-70251D01*
X95229Y-70194D01*
X95201Y-70165D01*
X95144Y-70137D01*
X95029Y-70108D01*
X94972Y-70080D01*
X94944Y-70051D01*
X94915Y-69994D01*
X94915Y-69937D01*
X94944Y-69880D01*
X94972Y-69851D01*
X95029Y-69822D01*
X95172Y-69822D01*
X95258Y-69851D01*
X96258Y-70422D02*
X95972Y-70422D01*
X95972Y-69822D01*
X96458Y-70422D02*
X96458Y-69822D01*
X97087Y-70365D02*
X97058Y-70394D01*
X96972Y-70422D01*
X96915Y-70422D01*
X96829Y-70394D01*
X96772Y-70337D01*
X96744Y-70280D01*
X96715Y-70165D01*
X96715Y-70080D01*
X96744Y-69965D01*
X96772Y-69908D01*
X96829Y-69851D01*
X96915Y-69822D01*
X96972Y-69822D01*
X97058Y-69851D01*
X97087Y-69880D01*
X97344Y-70108D02*
X97544Y-70108D01*
X97629Y-70422D02*
X97344Y-70422D01*
X97344Y-69822D01*
X97629Y-69822D01*
X97887Y-70422D02*
X97887Y-69822D01*
X98229Y-70422D01*
X98229Y-69822D01*
X98487Y-70394D02*
X98572Y-70422D01*
X98715Y-70422D01*
X98772Y-70394D01*
X98801Y-70365D01*
X98829Y-70308D01*
X98829Y-70251D01*
X98801Y-70194D01*
X98772Y-70165D01*
X98715Y-70137D01*
X98601Y-70108D01*
X98544Y-70080D01*
X98515Y-70051D01*
X98487Y-69994D01*
X98487Y-69937D01*
X98515Y-69880D01*
X98544Y-69851D01*
X98601Y-69822D01*
X98744Y-69822D01*
X98829Y-69851D01*
X99087Y-70108D02*
X99287Y-70108D01*
X99372Y-70422D02*
X99087Y-70422D01*
X99087Y-69822D01*
X99372Y-69822D01*
X100258Y-70651D02*
X100229Y-70622D01*
X100172Y-70537D01*
X100144Y-70480D01*
X100115Y-70394D01*
X100087Y-70251D01*
X100087Y-70137D01*
X100115Y-69994D01*
X100144Y-69908D01*
X100172Y-69851D01*
X100229Y-69765D01*
X100258Y-69737D01*
X100829Y-70365D02*
X100801Y-70394D01*
X100715Y-70422D01*
X100658Y-70422D01*
X100572Y-70394D01*
X100515Y-70337D01*
X100487Y-70280D01*
X100458Y-70165D01*
X100458Y-70080D01*
X100487Y-69965D01*
X100515Y-69908D01*
X100572Y-69851D01*
X100658Y-69822D01*
X100715Y-69822D01*
X100801Y-69851D01*
X100829Y-69880D01*
X101429Y-70365D02*
X101401Y-70394D01*
X101315Y-70422D01*
X101258Y-70422D01*
X101172Y-70394D01*
X101115Y-70337D01*
X101087Y-70280D01*
X101058Y-70165D01*
X101058Y-70080D01*
X101087Y-69965D01*
X101115Y-69908D01*
X101172Y-69851D01*
X101258Y-69822D01*
X101315Y-69822D01*
X101401Y-69851D01*
X101429Y-69880D01*
X102344Y-70108D02*
X102429Y-70137D01*
X102458Y-70165D01*
X102487Y-70222D01*
X102487Y-70308D01*
X102458Y-70365D01*
X102429Y-70394D01*
X102372Y-70422D01*
X102144Y-70422D01*
X102144Y-69822D01*
X102344Y-69822D01*
X102401Y-69851D01*
X102429Y-69880D01*
X102458Y-69937D01*
X102458Y-69994D01*
X102429Y-70051D01*
X102401Y-70080D01*
X102344Y-70108D01*
X102144Y-70108D01*
X102858Y-70137D02*
X102858Y-70422D01*
X102658Y-69822D02*
X102858Y-70137D01*
X103058Y-69822D01*
X103658Y-69822D02*
X104029Y-69822D01*
X103829Y-70051D01*
X103915Y-70051D01*
X103972Y-70080D01*
X104001Y-70108D01*
X104029Y-70165D01*
X104029Y-70308D01*
X104001Y-70365D01*
X103972Y-70394D01*
X103915Y-70422D01*
X103744Y-70422D01*
X103687Y-70394D01*
X103658Y-70365D01*
X104287Y-70365D02*
X104315Y-70394D01*
X104287Y-70422D01*
X104258Y-70394D01*
X104287Y-70365D01*
X104287Y-70422D01*
X104687Y-69822D02*
X104744Y-69822D01*
X104801Y-69851D01*
X104829Y-69880D01*
X104858Y-69937D01*
X104887Y-70051D01*
X104887Y-70194D01*
X104858Y-70308D01*
X104829Y-70365D01*
X104801Y-70394D01*
X104744Y-70422D01*
X104687Y-70422D01*
X104629Y-70394D01*
X104601Y-70365D01*
X104572Y-70308D01*
X104544Y-70194D01*
X104544Y-70051D01*
X104572Y-69937D01*
X104601Y-69880D01*
X104629Y-69851D01*
X104687Y-69822D01*
X105087Y-70651D02*
X105115Y-70622D01*
X105172Y-70537D01*
X105201Y-70480D01*
X105229Y-70394D01*
X105258Y-70251D01*
X105258Y-70137D01*
X105229Y-69994D01*
X105201Y-69908D01*
X105172Y-69851D01*
X105115Y-69765D01*
X105087Y-69737D01*
X71315Y-69165D02*
X71287Y-69194D01*
X71201Y-69222D01*
X71144Y-69222D01*
X71058Y-69194D01*
X71001Y-69137D01*
X70972Y-69080D01*
X70944Y-68965D01*
X70944Y-68880D01*
X70972Y-68765D01*
X71001Y-68708D01*
X71058Y-68651D01*
X71144Y-68622D01*
X71201Y-68622D01*
X71287Y-68651D01*
X71315Y-68680D01*
X71658Y-69222D02*
X71601Y-69194D01*
X71572Y-69165D01*
X71544Y-69108D01*
X71544Y-68937D01*
X71572Y-68880D01*
X71601Y-68851D01*
X71658Y-68822D01*
X71744Y-68822D01*
X71801Y-68851D01*
X71830Y-68880D01*
X71858Y-68937D01*
X71858Y-69108D01*
X71830Y-69165D01*
X71801Y-69194D01*
X71744Y-69222D01*
X71658Y-69222D01*
X72115Y-68822D02*
X72115Y-69422D01*
X72115Y-68851D02*
X72172Y-68822D01*
X72287Y-68822D01*
X72344Y-68851D01*
X72372Y-68880D01*
X72401Y-68937D01*
X72401Y-69108D01*
X72372Y-69165D01*
X72344Y-69194D01*
X72287Y-69222D01*
X72172Y-69222D01*
X72115Y-69194D01*
X72601Y-68822D02*
X72744Y-69222D01*
X72887Y-68822D02*
X72744Y-69222D01*
X72687Y-69365D01*
X72658Y-69394D01*
X72601Y-69422D01*
X73115Y-69222D02*
X73115Y-68822D01*
X73115Y-68937D02*
X73144Y-68880D01*
X73172Y-68851D01*
X73230Y-68822D01*
X73287Y-68822D01*
X73487Y-69222D02*
X73487Y-68822D01*
X73487Y-68622D02*
X73458Y-68651D01*
X73487Y-68680D01*
X73515Y-68651D01*
X73487Y-68622D01*
X73487Y-68680D01*
X74030Y-68822D02*
X74030Y-69308D01*
X74001Y-69365D01*
X73972Y-69394D01*
X73915Y-69422D01*
X73830Y-69422D01*
X73772Y-69394D01*
X74030Y-69194D02*
X73972Y-69222D01*
X73858Y-69222D01*
X73801Y-69194D01*
X73772Y-69165D01*
X73744Y-69108D01*
X73744Y-68937D01*
X73772Y-68880D01*
X73801Y-68851D01*
X73858Y-68822D01*
X73972Y-68822D01*
X74030Y-68851D01*
X74315Y-69222D02*
X74315Y-68622D01*
X74572Y-69222D02*
X74572Y-68908D01*
X74544Y-68851D01*
X74487Y-68822D01*
X74401Y-68822D01*
X74344Y-68851D01*
X74315Y-68880D01*
X74772Y-68822D02*
X75001Y-68822D01*
X74858Y-68622D02*
X74858Y-69137D01*
X74887Y-69194D01*
X74944Y-69222D01*
X75001Y-69222D01*
X75630Y-68680D02*
X75658Y-68651D01*
X75715Y-68622D01*
X75858Y-68622D01*
X75915Y-68651D01*
X75944Y-68680D01*
X75972Y-68737D01*
X75972Y-68794D01*
X75944Y-68880D01*
X75601Y-69222D01*
X75972Y-69222D01*
X76344Y-68622D02*
X76401Y-68622D01*
X76458Y-68651D01*
X76487Y-68680D01*
X76515Y-68737D01*
X76544Y-68851D01*
X76544Y-68994D01*
X76515Y-69108D01*
X76487Y-69165D01*
X76458Y-69194D01*
X76401Y-69222D01*
X76344Y-69222D01*
X76287Y-69194D01*
X76258Y-69165D01*
X76230Y-69108D01*
X76201Y-68994D01*
X76201Y-68851D01*
X76230Y-68737D01*
X76258Y-68680D01*
X76287Y-68651D01*
X76344Y-68622D01*
X77115Y-69222D02*
X76772Y-69222D01*
X76944Y-69222D02*
X76944Y-68622D01*
X76887Y-68708D01*
X76830Y-68765D01*
X76772Y-68794D01*
X77315Y-68622D02*
X77687Y-68622D01*
X77487Y-68851D01*
X77572Y-68851D01*
X77630Y-68880D01*
X77658Y-68908D01*
X77687Y-68965D01*
X77687Y-69108D01*
X77658Y-69165D01*
X77630Y-69194D01*
X77572Y-69222D01*
X77401Y-69222D01*
X77344Y-69194D01*
X77315Y-69165D01*
X78372Y-69051D02*
X78658Y-69051D01*
X78315Y-69222D02*
X78515Y-68622D01*
X78715Y-69222D01*
X78858Y-68622D02*
X79258Y-68622D01*
X78858Y-69222D01*
X79258Y-69222D01*
X79487Y-69222D02*
X79487Y-68622D01*
X79887Y-68622D02*
X80001Y-68622D01*
X80058Y-68651D01*
X80115Y-68708D01*
X80144Y-68822D01*
X80144Y-69022D01*
X80115Y-69137D01*
X80058Y-69194D01*
X80001Y-69222D01*
X79887Y-69222D01*
X79830Y-69194D01*
X79772Y-69137D01*
X79744Y-69022D01*
X79744Y-68822D01*
X79772Y-68708D01*
X79830Y-68651D01*
X79887Y-68622D01*
X80858Y-68908D02*
X81058Y-68908D01*
X81144Y-69222D02*
X80858Y-69222D01*
X80858Y-68622D01*
X81144Y-68622D01*
X81487Y-69222D02*
X81430Y-69194D01*
X81401Y-69137D01*
X81401Y-68622D01*
X81944Y-69194D02*
X81887Y-69222D01*
X81772Y-69222D01*
X81715Y-69194D01*
X81687Y-69137D01*
X81687Y-68908D01*
X81715Y-68851D01*
X81772Y-68822D01*
X81887Y-68822D01*
X81944Y-68851D01*
X81972Y-68908D01*
X81972Y-68965D01*
X81687Y-69022D01*
X82487Y-69194D02*
X82430Y-69222D01*
X82315Y-69222D01*
X82258Y-69194D01*
X82230Y-69165D01*
X82201Y-69108D01*
X82201Y-68937D01*
X82230Y-68880D01*
X82258Y-68851D01*
X82315Y-68822D01*
X82430Y-68822D01*
X82487Y-68851D01*
X82658Y-68822D02*
X82887Y-68822D01*
X82744Y-68622D02*
X82744Y-69137D01*
X82772Y-69194D01*
X82830Y-69222D01*
X82887Y-69222D01*
X83087Y-69222D02*
X83087Y-68822D01*
X83087Y-68937D02*
X83115Y-68880D01*
X83144Y-68851D01*
X83201Y-68822D01*
X83258Y-68822D01*
X83544Y-69222D02*
X83487Y-69194D01*
X83458Y-69165D01*
X83430Y-69108D01*
X83430Y-68937D01*
X83458Y-68880D01*
X83487Y-68851D01*
X83544Y-68822D01*
X83630Y-68822D01*
X83687Y-68851D01*
X83715Y-68880D01*
X83744Y-68937D01*
X83744Y-69108D01*
X83715Y-69165D01*
X83687Y-69194D01*
X83630Y-69222D01*
X83544Y-69222D01*
X84001Y-68822D02*
X84001Y-69222D01*
X84001Y-68880D02*
X84030Y-68851D01*
X84087Y-68822D01*
X84172Y-68822D01*
X84230Y-68851D01*
X84258Y-68908D01*
X84258Y-69222D01*
X84544Y-69222D02*
X84544Y-68822D01*
X84544Y-68622D02*
X84515Y-68651D01*
X84544Y-68680D01*
X84572Y-68651D01*
X84544Y-68622D01*
X84544Y-68680D01*
X85087Y-69194D02*
X85030Y-69222D01*
X84915Y-69222D01*
X84858Y-69194D01*
X84830Y-69165D01*
X84801Y-69108D01*
X84801Y-68937D01*
X84830Y-68880D01*
X84858Y-68851D01*
X84915Y-68822D01*
X85030Y-68822D01*
X85087Y-68851D01*
X85315Y-69194D02*
X85372Y-69222D01*
X85487Y-69222D01*
X85544Y-69194D01*
X85572Y-69137D01*
X85572Y-69108D01*
X85544Y-69051D01*
X85487Y-69022D01*
X85401Y-69022D01*
X85344Y-68994D01*
X85315Y-68937D01*
X85315Y-68908D01*
X85344Y-68851D01*
X85401Y-68822D01*
X85487Y-68822D01*
X85544Y-68851D01*
X86630Y-69165D02*
X86601Y-69194D01*
X86515Y-69222D01*
X86458Y-69222D01*
X86372Y-69194D01*
X86315Y-69137D01*
X86287Y-69080D01*
X86258Y-68965D01*
X86258Y-68880D01*
X86287Y-68765D01*
X86315Y-68708D01*
X86372Y-68651D01*
X86458Y-68622D01*
X86515Y-68622D01*
X86601Y-68651D01*
X86630Y-68680D01*
X86972Y-69222D02*
X86915Y-69194D01*
X86887Y-69165D01*
X86858Y-69108D01*
X86858Y-68937D01*
X86887Y-68880D01*
X86915Y-68851D01*
X86972Y-68822D01*
X87058Y-68822D01*
X87115Y-68851D01*
X87144Y-68880D01*
X87172Y-68937D01*
X87172Y-69108D01*
X87144Y-69165D01*
X87115Y-69194D01*
X87058Y-69222D01*
X86972Y-69222D01*
X87430Y-69165D02*
X87458Y-69194D01*
X87430Y-69222D01*
X87401Y-69194D01*
X87430Y-69165D01*
X87430Y-69222D01*
X87744Y-69194D02*
X87744Y-69222D01*
X87715Y-69280D01*
X87687Y-69308D01*
X88744Y-69222D02*
X88458Y-69222D01*
X88458Y-68622D01*
X88858Y-68822D02*
X89087Y-68822D01*
X88944Y-68622D02*
X88944Y-69137D01*
X88972Y-69194D01*
X89030Y-69222D01*
X89087Y-69222D01*
X89544Y-69222D02*
X89544Y-68622D01*
X89544Y-69194D02*
X89487Y-69222D01*
X89372Y-69222D01*
X89315Y-69194D01*
X89287Y-69165D01*
X89258Y-69108D01*
X89258Y-68937D01*
X89287Y-68880D01*
X89315Y-68851D01*
X89372Y-68822D01*
X89487Y-68822D01*
X89544Y-68851D01*
X89830Y-69165D02*
X89858Y-69194D01*
X89830Y-69222D01*
X89801Y-69194D01*
X89830Y-69165D01*
X89830Y-69222D01*
X70230Y-68380D02*
X70230Y-77980D01*
X70230Y-71980D02*
X112230Y-71980D01*
X70230Y-68380D02*
X112230Y-68380D01*
X70230Y-74380D02*
X112230Y-74380D01*
X103430Y-75580D02*
X103430Y-77980D01*
X70230Y-76780D02*
X112230Y-76780D01*
X70230Y-75580D02*
X112230Y-75580D01*
X76830Y-75580D02*
X76830Y-76780D01*
G54D11*
X42606Y-52483D02*
X42606Y-27680D01*
X68983Y-52483D02*
X42606Y-52483D01*
X68983Y-27680D02*
X68983Y-52483D01*
X42606Y-27680D02*
X68983Y-27680D01*
X66228Y-30437D02*
X66228Y-39492D01*
X57764Y-30437D02*
X66228Y-30437D01*
X57764Y-29650D02*
X57764Y-30437D01*
X67016Y-29650D02*
X57764Y-29650D01*
X67016Y-39492D02*
X67016Y-29650D01*
X66228Y-39492D02*
X67016Y-39492D01*
X57764Y-50515D02*
X57764Y-49728D01*
X67016Y-50515D02*
X57764Y-50515D01*
X67016Y-40948D02*
X67016Y-50515D01*
X66228Y-40948D02*
X67016Y-40948D01*
X66228Y-49728D02*
X66228Y-40948D01*
X57764Y-49728D02*
X66228Y-49728D01*
X46936Y-50515D02*
X46936Y-44413D01*
X56386Y-50515D02*
X46936Y-50515D01*
X56386Y-49728D02*
X56386Y-50515D01*
X47724Y-49728D02*
X56386Y-49728D01*
X47724Y-44413D02*
X47724Y-49728D01*
X46936Y-44413D02*
X47724Y-44413D01*
X46936Y-43390D02*
X46936Y-35555D01*
X47724Y-43390D02*
X46936Y-43390D01*
X47724Y-35555D02*
X47724Y-43390D01*
X46936Y-35555D02*
X47724Y-35555D01*
X47724Y-30437D02*
X47724Y-34570D01*
X46936Y-34570D02*
X47724Y-34570D01*
X46936Y-29648D02*
X46936Y-34570D01*
X46936Y-29648D02*
X56384Y-29648D01*
X56384Y-29648D02*
X56384Y-30437D01*
X47724Y-30437D02*
X56384Y-30437D01*
G54D12*
X49881Y-33858D03*
X49881Y-33543D03*
X50314Y-33385D03*
X50944Y-33228D03*
X48503Y-33188D03*
X48779Y-33149D03*
X51259Y-32913D03*
X51259Y-33228D03*
X49251Y-33858D03*
X49251Y-33543D03*
X49566Y-33543D03*
X49566Y-33858D03*
X48937Y-33858D03*
X48937Y-33543D03*
X48622Y-33543D03*
X48622Y-33858D03*
X52125Y-33622D03*
X52992Y-32716D03*
X52322Y-32952D03*
X52322Y-33267D03*
X54251Y-33346D03*
X54251Y-33031D03*
X52637Y-32952D03*
X52637Y-33267D03*
X61732Y-33779D03*
X54645Y-33818D03*
X61417Y-33779D03*
X54330Y-33818D03*
X54566Y-33031D03*
X54566Y-33346D03*
X60236Y-33228D03*
X60590Y-33228D03*
X61220Y-33228D03*
X60905Y-33228D03*
X59606Y-33228D03*
X56692Y-33740D03*
X57007Y-33740D03*
X59921Y-33228D03*
X59291Y-33228D03*
X59330Y-33779D03*
X59015Y-33779D03*
X58976Y-33228D03*
X54960Y-33346D03*
X54960Y-33031D03*
X55275Y-33031D03*
X55275Y-33346D03*
X55905Y-33346D03*
X55905Y-33031D03*
X55590Y-33031D03*
X55590Y-33346D03*
X56850Y-33346D03*
X56850Y-33031D03*
X57165Y-33031D03*
X57165Y-33346D03*
X56535Y-33346D03*
X56535Y-33031D03*
X56220Y-33031D03*
X56220Y-33346D03*
X59685Y-31023D03*
X62677Y-31023D03*
X62992Y-31023D03*
X60000Y-31023D03*
X60629Y-31023D03*
X63622Y-31023D03*
X63307Y-31023D03*
X60314Y-31023D03*
X59055Y-31023D03*
X62047Y-31023D03*
X62362Y-31023D03*
X59370Y-31023D03*
X58740Y-31023D03*
X61732Y-31023D03*
X61417Y-31023D03*
X58425Y-31023D03*
X62165Y-33464D03*
X62165Y-33149D03*
X62480Y-33149D03*
X62480Y-33464D03*
X63188Y-33464D03*
X63188Y-33149D03*
X62795Y-33149D03*
X62795Y-33464D03*
X63976Y-31141D03*
X65866Y-31417D03*
X65669Y-33149D03*
X64251Y-30866D03*
X63818Y-33464D03*
X63818Y-33149D03*
X63503Y-33149D03*
X63503Y-33464D03*
X54291Y-31023D03*
X56968Y-31023D03*
X57283Y-31023D03*
X54606Y-31023D03*
X55236Y-31023D03*
X57913Y-31023D03*
X57598Y-31023D03*
X54921Y-31023D03*
X53661Y-31023D03*
X56338Y-31023D03*
X56653Y-31023D03*
X53976Y-31023D03*
X53346Y-31023D03*
X56023Y-31023D03*
X55708Y-31023D03*
X53031Y-31023D03*
X48937Y-30905D03*
X64606Y-30866D03*
X64921Y-30866D03*
X49251Y-30905D03*
X49881Y-30905D03*
X65905Y-32834D03*
X65236Y-30866D03*
X49566Y-30905D03*
X50748Y-31299D03*
X48700Y-34921D03*
X49015Y-34921D03*
X50866Y-32913D03*
X50590Y-30905D03*
X63582Y-32755D03*
X63267Y-32755D03*
X50275Y-30905D03*
X65905Y-33700D03*
X65866Y-36850D03*
X65275Y-33700D03*
X65236Y-36850D03*
X65551Y-36850D03*
X65590Y-33700D03*
X64960Y-33700D03*
X64921Y-36850D03*
X64606Y-36850D03*
X64645Y-33700D03*
X65590Y-46692D03*
X65590Y-46377D03*
X65905Y-46377D03*
X65905Y-46692D03*
X63976Y-46141D03*
X63976Y-45826D03*
X63661Y-45826D03*
X63661Y-46141D03*
X64842Y-46692D03*
X64842Y-46377D03*
X65157Y-46377D03*
X65157Y-46692D03*
X64527Y-46692D03*
X64527Y-46377D03*
X64212Y-46377D03*
X64212Y-46692D03*
X64960Y-43267D03*
X63700Y-43897D03*
X64015Y-43897D03*
X65275Y-43267D03*
X65905Y-43267D03*
X65314Y-49370D03*
X65000Y-49370D03*
X65590Y-43267D03*
X64645Y-43267D03*
X64291Y-49370D03*
X64606Y-49370D03*
X64015Y-43582D03*
X64330Y-43267D03*
X63976Y-49370D03*
X65629Y-49370D03*
X64015Y-43267D03*
X62322Y-49173D03*
X59724Y-49173D03*
X60039Y-49173D03*
X62637Y-49173D03*
X63267Y-49173D03*
X60669Y-49173D03*
X60354Y-49173D03*
X62952Y-49173D03*
X61692Y-49173D03*
X59094Y-49173D03*
X59409Y-49173D03*
X62007Y-49173D03*
X61377Y-49173D03*
X58779Y-49173D03*
X58464Y-49173D03*
X61062Y-49173D03*
X58346Y-48779D03*
X58346Y-48464D03*
X58346Y-47677D03*
X58346Y-47992D03*
X62283Y-47086D03*
X62283Y-46771D03*
X61968Y-46771D03*
X61968Y-47086D03*
X63385Y-47086D03*
X63385Y-46771D03*
X63700Y-46771D03*
X63700Y-47086D03*
X63070Y-47086D03*
X63070Y-46771D03*
X62598Y-46771D03*
X62598Y-47086D03*
X59094Y-46299D03*
X57401Y-46850D03*
X58070Y-46850D03*
X59409Y-46299D03*
X57007Y-46299D03*
X55748Y-46811D03*
X58582Y-46850D03*
X56692Y-46299D03*
X61417Y-46299D03*
X55039Y-46811D03*
X56496Y-46850D03*
X61732Y-46299D03*
X61102Y-46811D03*
X54488Y-47952D03*
X54173Y-47952D03*
X54212Y-48937D03*
X48503Y-48464D03*
X48503Y-46771D03*
X48858Y-46889D03*
X65826Y-39921D03*
X65826Y-40551D03*
X48464Y-47755D03*
X48543Y-47244D03*
X65826Y-40236D03*
X48110Y-48582D03*
X65787Y-41889D03*
X65787Y-42204D03*
X48110Y-48897D03*
X48110Y-48267D03*
X65787Y-41574D03*
X65787Y-41259D03*
X48110Y-47952D03*
X62519Y-47519D03*
X61535Y-47440D03*
X59448Y-47559D03*
X60551Y-47637D03*
X48779Y-49251D03*
X49094Y-49251D03*
X48425Y-49251D03*
X48110Y-49251D03*
X65905Y-48779D03*
X65551Y-49055D03*
X63464Y-47519D03*
X65905Y-49094D03*
X50393Y-46850D03*
X50708Y-46850D03*
X48779Y-48897D03*
X65787Y-40866D03*
X54566Y-42440D03*
X54015Y-41338D03*
X53779Y-37716D03*
X54055Y-37992D03*
X54173Y-39173D03*
X54645Y-38110D03*
X54330Y-37716D03*
X48149Y-35314D03*
X48149Y-34763D03*
X48149Y-35078D03*
X48149Y-35629D03*
X50000Y-35708D03*
X49133Y-36456D03*
X49015Y-35314D03*
X48700Y-35314D03*
X49842Y-38228D03*
X49251Y-38228D03*
X50118Y-37952D03*
X49527Y-37952D03*
X49842Y-39055D03*
X49330Y-39055D03*
X49133Y-36771D03*
X49606Y-36771D03*
X48149Y-33188D03*
X48149Y-30826D03*
X48149Y-31141D03*
X48149Y-33503D03*
X48149Y-34133D03*
X48149Y-34448D03*
X48149Y-31456D03*
X48149Y-33818D03*
X48149Y-32440D03*
X48464Y-32440D03*
X48464Y-32755D03*
X48149Y-32755D03*
X48149Y-32125D03*
X48464Y-32125D03*
X48464Y-31811D03*
X48149Y-31811D03*
X49291Y-40157D03*
X49881Y-40157D03*
X49881Y-39606D03*
X49330Y-39606D03*
X49291Y-41299D03*
X49803Y-41299D03*
X49881Y-40551D03*
X49291Y-40551D03*
X49685Y-42913D03*
X50000Y-42913D03*
X50000Y-43228D03*
X49685Y-43228D03*
X49330Y-41968D03*
X50000Y-41968D03*
X50039Y-41574D03*
X49566Y-41574D03*
X54173Y-49291D03*
X48779Y-45905D03*
X48110Y-45944D03*
X48110Y-46929D03*
X48110Y-47559D03*
X48110Y-46574D03*
X48110Y-46259D03*
X48110Y-47244D03*
X48110Y-45590D03*
X49291Y-43740D03*
X48779Y-45590D03*
X48464Y-45590D03*
X49685Y-43740D03*
X50000Y-43740D03*
X49291Y-42913D03*
X49291Y-43228D03*
X65826Y-37992D03*
X65826Y-38307D03*
X65826Y-38937D03*
X65826Y-38622D03*
X63110Y-37519D03*
X64330Y-36850D03*
X63110Y-37834D03*
X65826Y-39566D03*
X65826Y-39251D03*
X63582Y-34330D03*
X63897Y-34330D03*
X64330Y-33700D03*
X64173Y-33385D03*
X63582Y-34015D03*
X63897Y-34015D03*
X65393Y-33385D03*
X65905Y-33267D03*
X63622Y-36220D03*
X63937Y-36220D03*
X63937Y-36535D03*
X63622Y-36535D03*
X63582Y-42322D03*
X63582Y-40629D03*
X63937Y-36850D03*
X63622Y-36850D03*
X63582Y-43267D03*
X63582Y-41574D03*
X63582Y-41889D03*
X63582Y-43582D03*
X63582Y-42952D03*
X63582Y-41259D03*
X63582Y-40944D03*
X63582Y-42637D03*
X49291Y-46692D03*
X49409Y-49251D03*
X49724Y-49251D03*
X49606Y-46692D03*
X55157Y-48582D03*
X50314Y-49251D03*
X50039Y-49251D03*
X49921Y-46692D03*
X54527Y-48582D03*
X54527Y-48267D03*
X54842Y-48267D03*
X54842Y-48582D03*
X54212Y-48582D03*
X54212Y-48267D03*
X50629Y-49251D03*
X55472Y-48582D03*
X63543Y-38700D03*
X63543Y-40275D03*
X63110Y-39921D03*
X63149Y-42244D03*
X65669Y-46968D03*
X65866Y-47283D03*
X63110Y-40236D03*
X63149Y-42559D03*
X63543Y-38070D03*
X63543Y-39645D03*
X63543Y-39960D03*
X63543Y-38385D03*
X63543Y-37755D03*
X63543Y-39330D03*
X63543Y-39015D03*
X63543Y-37440D03*
X62027Y-44709D03*
X62224Y-44901D03*
G54D13*
X51929Y-49251D03*
X52834Y-49251D03*
X52362Y-49251D03*
X51574Y-49251D03*
X51358Y-47342D03*
X52362Y-45944D03*
X52775Y-45393D03*
X51988Y-45787D03*
X52755Y-45807D03*
X51968Y-45393D03*
X52834Y-47342D03*
X52834Y-48208D03*
X52834Y-48602D03*
X52834Y-47716D03*
X51358Y-48070D03*
X51358Y-48956D03*
X51358Y-48562D03*
X51358Y-47696D03*
X51673Y-47342D03*
X52460Y-47342D03*
X52421Y-47775D03*
X52047Y-47342D03*
X51811Y-48858D03*
X52421Y-48720D03*
X51850Y-48011D03*
X56102Y-43975D03*
G54D12*
X61386Y-35540D03*
X61024Y-35536D03*
X61024Y-35198D03*
X61394Y-35193D03*
G54D14*
X47725Y-34630D03*
X47725Y-35063D03*
X47725Y-35496D03*
X47725Y-44335D03*
X47725Y-43902D03*
X47725Y-43469D03*
X66268Y-39571D03*
X66268Y-40004D03*
X66268Y-40437D03*
X66268Y-40870D03*
G54D15*
X49299Y-51303D03*
X66622Y-51303D03*
X66621Y-28862D03*
G54D12*
X58185Y-40460D03*
X58185Y-40027D03*
X57968Y-40244D03*
X58401Y-40244D03*
X58618Y-40460D03*
X57752Y-40460D03*
X57319Y-40460D03*
X56886Y-40460D03*
X56669Y-40677D03*
X57102Y-40677D03*
X57539Y-40677D03*
X57968Y-40677D03*
X58401Y-40677D03*
X58834Y-40677D03*
X58834Y-41110D03*
X58401Y-41110D03*
X57968Y-41110D03*
X57539Y-41110D03*
X57102Y-41110D03*
X56669Y-41110D03*
X56886Y-40893D03*
X57319Y-40893D03*
X58185Y-40893D03*
X57752Y-40893D03*
X58618Y-40893D03*
X58618Y-40027D03*
X57752Y-40027D03*
X57319Y-40027D03*
X56886Y-40027D03*
X56669Y-40244D03*
X57102Y-40244D03*
X57539Y-40244D03*
X58834Y-40244D03*
X58834Y-39811D03*
X58401Y-39811D03*
X57968Y-39811D03*
X57539Y-39811D03*
X57102Y-39811D03*
X56669Y-39811D03*
X56886Y-39594D03*
X57319Y-39594D03*
X58185Y-39594D03*
X57752Y-39594D03*
X58618Y-39594D03*
X58618Y-39161D03*
X57752Y-39161D03*
X58185Y-39161D03*
X57319Y-39161D03*
X56886Y-39161D03*
X56669Y-39378D03*
X57102Y-39378D03*
X57539Y-39378D03*
X57968Y-39378D03*
X58401Y-39378D03*
X58834Y-39378D03*
X58834Y-38945D03*
X58401Y-38945D03*
X57968Y-38945D03*
X57539Y-38945D03*
X57102Y-38945D03*
X56669Y-38945D03*
G54D13*
X48861Y-45087D03*
X48546Y-45087D03*
X48231Y-45087D03*
X52389Y-43424D03*
X52744Y-43424D03*
X52941Y-43620D03*
X52586Y-43621D03*
G54D16*
X56532Y-48310D03*
X56532Y-47406D03*
G54D17*
X51568Y-44036D03*
X52472Y-44036D03*
X51568Y-44772D03*
X52472Y-44772D03*
G54D18*
X51445Y-35036D03*
X51445Y-35406D03*
G54D19*
X61870Y-36559D03*
X61500Y-36559D03*
G54D18*
X60461Y-41890D03*
X60461Y-41520D03*
X55299Y-38559D03*
X55299Y-38929D03*
X60827Y-41504D03*
X60827Y-41874D03*
X60618Y-38784D03*
X60618Y-38414D03*
X60264Y-38402D03*
X60264Y-38772D03*
X59665Y-38024D03*
X59665Y-37654D03*
G54D20*
X58799Y-43133D03*
X58799Y-42793D03*
X57825Y-35952D03*
X57825Y-36292D03*
X59843Y-43123D03*
X59843Y-42783D03*
G54D21*
X58800Y-35740D03*
X58460Y-35740D03*
X57442Y-36787D03*
X57102Y-36787D03*
G54D20*
X58472Y-36568D03*
X58472Y-36228D03*
G54D21*
X57434Y-35512D03*
X57094Y-35512D03*
X58957Y-37870D03*
X58617Y-37870D03*
G54D20*
X59252Y-36247D03*
X59252Y-36587D03*
G54D21*
X58296Y-42520D03*
X57956Y-42520D03*
X57123Y-42500D03*
X57463Y-42500D03*
X59692Y-44606D03*
X60032Y-44606D03*
G54D20*
X58976Y-44225D03*
X58976Y-43885D03*
G54D21*
X59692Y-43484D03*
X60032Y-43484D03*
X57237Y-37984D03*
X56897Y-37984D03*
X56568Y-36500D03*
X56228Y-36500D03*
X55550Y-36496D03*
X55890Y-36496D03*
X58044Y-37992D03*
X57704Y-37992D03*
G54D22*
X57078Y-47500D03*
X57508Y-47500D03*
X57088Y-48284D03*
X57518Y-48284D03*
X54542Y-45276D03*
X54112Y-45276D03*
G54D23*
X51469Y-43372D03*
X51469Y-42943D03*
G54D22*
X53057Y-44851D03*
X53487Y-44851D03*
X55215Y-44638D03*
X54785Y-44638D03*
X53990Y-43882D03*
X54420Y-43882D03*
G54D24*
X59016Y-35305D03*
X59370Y-35305D03*
X59327Y-45031D03*
X59681Y-45031D03*
X58976Y-44606D03*
X58622Y-44606D03*
X59693Y-43878D03*
X59693Y-44232D03*
X58976Y-43504D03*
X58622Y-43504D03*
X59124Y-42776D03*
X59124Y-43130D03*
X59488Y-42776D03*
X59488Y-43130D03*
X59130Y-42477D03*
X59484Y-42477D03*
X59577Y-36584D03*
X59577Y-36230D03*
X57469Y-45799D03*
X57823Y-45799D03*
X57622Y-35059D03*
X57976Y-35059D03*
X58004Y-42933D03*
X58004Y-43287D03*
X57461Y-42933D03*
X57461Y-43287D03*
X57667Y-42165D03*
X58021Y-42165D03*
X59012Y-37480D03*
X59012Y-37126D03*
X59248Y-35744D03*
X59602Y-35744D03*
X58799Y-36575D03*
X58799Y-36221D03*
X57441Y-36289D03*
X57441Y-35935D03*
X51976Y-36496D03*
X52330Y-36496D03*
X57825Y-35522D03*
X58179Y-35522D03*
X58071Y-37579D03*
X58071Y-37225D03*
X57677Y-37579D03*
X57677Y-37225D03*
X57260Y-37575D03*
X57260Y-37221D03*
X57825Y-36781D03*
X58179Y-36781D03*
X57764Y-34433D03*
X58118Y-34433D03*
X56874Y-37567D03*
X56874Y-37213D03*
X58547Y-37480D03*
X58547Y-37126D03*
X63775Y-35299D03*
X64129Y-35299D03*
X48532Y-37130D03*
X48532Y-36776D03*
X48532Y-37457D03*
X48532Y-37811D03*
X60264Y-38110D03*
X60618Y-38110D03*
X60268Y-39083D03*
X60622Y-39083D03*
X60264Y-39406D03*
X60618Y-39406D03*
X60473Y-40831D03*
X60827Y-40831D03*
X60461Y-42173D03*
X60815Y-42173D03*
X55283Y-39252D03*
X54929Y-39252D03*
X60481Y-41173D03*
X60835Y-41173D03*
G54D25*
X49752Y-32228D03*
X64791Y-32228D03*
X64791Y-47975D03*
X49752Y-47975D03*
G54D26*
X55145Y-49107D03*
G54D27*
X52271Y-48173D03*
G54D26*
X55145Y-47309D03*
G54D13*
X56378Y-43975D03*
X52232Y-43621D03*
G54D19*
X59347Y-47051D03*
X58977Y-47051D03*
G54D28*
X60421Y-46992D03*
X59791Y-46992D03*
G54D13*
X52834Y-48917D03*
G54D15*
X49299Y-28862D03*
G54D14*
X56426Y-49768D03*
X56859Y-49768D03*
X57292Y-49768D03*
X57726Y-49768D03*
X56425Y-30437D03*
X56858Y-30437D03*
X57291Y-30437D03*
X57725Y-30437D03*
G54D29*
X65161Y-43763D03*
X65161Y-45867D03*
G54D30*
X65711Y-44815D03*
G54D29*
X65145Y-34246D03*
X65145Y-36350D03*
G54D30*
X65695Y-35298D03*
G54D31*
X51299Y-32217D03*
X52299Y-32217D03*
X52299Y-31217D03*
X51299Y-31217D03*
G54D32*
X51799Y-31717D03*
G54D33*
X58307Y-31834D03*
X57307Y-31834D03*
X56307Y-31834D03*
X55307Y-31834D03*
G54D34*
X53307Y-31814D03*
G54D33*
X54307Y-31834D03*
G54D34*
X57576Y-49079D03*
G54D33*
X56576Y-49079D03*
G54D35*
X57164Y-43981D03*
X57664Y-43981D03*
X58164Y-43981D03*
X58164Y-45232D03*
X57164Y-45232D03*
G54D36*
X61200Y-35379D03*
G54D37*
X61298Y-34799D03*
G54D38*
X61102Y-34799D03*
G54D37*
X60905Y-34799D03*
G54D38*
X61495Y-34799D03*
X61102Y-35959D03*
G54D39*
X60905Y-35960D03*
X61298Y-35960D03*
X61495Y-35960D03*
G54D40*
X60619Y-35281D03*
G54D41*
X60619Y-35084D03*
G54D40*
X60619Y-35477D03*
X60619Y-35674D03*
G54D42*
X61780Y-35281D03*
G54D40*
X61781Y-35084D03*
X61781Y-35477D03*
X61781Y-35674D03*
G54D35*
X56579Y-35874D03*
X56079Y-35874D03*
X55579Y-35874D03*
X55579Y-34623D03*
X56579Y-34623D03*
G54D43*
X49554Y-45454D03*
X49554Y-35062D03*
G54D44*
X58133Y-41147D03*
X58133Y-40782D03*
X58133Y-40414D03*
X58133Y-40050D03*
X58133Y-39679D03*
X58133Y-39314D03*
X58133Y-38947D03*
X58328Y-38947D03*
X58330Y-39314D03*
X58330Y-39679D03*
X58330Y-40050D03*
X58330Y-40414D03*
X58330Y-40782D03*
X58330Y-41147D03*
X58718Y-41147D03*
X58718Y-40782D03*
X58718Y-40414D03*
X58718Y-40050D03*
X58718Y-39679D03*
X58718Y-39314D03*
X58718Y-38947D03*
X58521Y-38947D03*
X58521Y-39314D03*
X58521Y-39679D03*
X58521Y-40050D03*
X58521Y-40414D03*
X58521Y-40782D03*
X58521Y-41147D03*
X58916Y-38947D03*
X58916Y-39314D03*
X58916Y-39679D03*
X58916Y-40050D03*
X58916Y-40414D03*
X58916Y-40782D03*
X58916Y-41147D03*
X57353Y-41147D03*
X57353Y-40782D03*
X57353Y-40414D03*
X57353Y-40050D03*
X57353Y-39679D03*
X57353Y-39314D03*
X57353Y-38947D03*
X57548Y-38947D03*
X57550Y-39314D03*
X57550Y-39679D03*
X57550Y-40050D03*
X57550Y-40414D03*
X57550Y-40782D03*
X57550Y-41147D03*
X57938Y-41147D03*
X57938Y-40782D03*
X57938Y-40414D03*
X57938Y-40050D03*
X57938Y-39679D03*
X57938Y-39314D03*
X57938Y-38947D03*
X57741Y-38947D03*
X57741Y-39314D03*
X57741Y-39679D03*
X57741Y-40050D03*
X57741Y-40414D03*
X57741Y-40782D03*
X57741Y-41147D03*
X56958Y-41147D03*
X56958Y-40782D03*
X56958Y-40414D03*
X56958Y-40050D03*
X56958Y-39679D03*
X56958Y-39314D03*
X56958Y-38947D03*
X57155Y-38947D03*
X57156Y-39314D03*
X57156Y-39679D03*
X57156Y-40050D03*
X57156Y-40414D03*
X57156Y-40782D03*
X57156Y-41147D03*
X56766Y-41147D03*
X56766Y-40782D03*
X56766Y-40414D03*
X56766Y-40050D03*
X56766Y-39679D03*
X56766Y-39314D03*
X56766Y-38947D03*
G54D45*
X58836Y-38554D03*
X59033Y-38554D03*
X58638Y-38554D03*
X58441Y-38554D03*
X58245Y-38554D03*
X58048Y-38554D03*
X57851Y-38554D03*
X57655Y-38554D03*
X57458Y-38554D03*
X57260Y-38554D03*
X57063Y-38554D03*
X56866Y-38554D03*
X56671Y-38554D03*
G54D46*
X59130Y-38330D03*
X58933Y-38330D03*
X58738Y-38330D03*
X58541Y-38330D03*
X58343Y-38330D03*
X58146Y-38330D03*
X57950Y-38330D03*
X57753Y-38330D03*
X57556Y-38330D03*
X57360Y-38330D03*
X57163Y-38330D03*
X56966Y-38330D03*
X56768Y-38330D03*
X56571Y-38330D03*
G54D45*
X56473Y-38554D03*
G54D47*
X59453Y-38653D03*
G54D45*
X59228Y-38753D03*
G54D47*
X59453Y-38852D03*
X59453Y-39048D03*
X59453Y-39245D03*
X59453Y-39442D03*
X59453Y-39638D03*
X59451Y-39835D03*
X59453Y-40032D03*
X59453Y-40228D03*
X59453Y-40427D03*
X59453Y-40622D03*
X59453Y-40820D03*
X59453Y-41017D03*
X59453Y-41212D03*
X59453Y-41400D03*
G54D45*
X59228Y-38950D03*
X59228Y-39145D03*
X59228Y-39343D03*
X59228Y-39540D03*
X59228Y-39737D03*
X59228Y-39933D03*
X59228Y-40132D03*
X59228Y-40327D03*
X59228Y-40523D03*
X59228Y-40722D03*
X59228Y-40918D03*
X59228Y-41312D03*
X59228Y-41115D03*
X58830Y-41505D03*
X59026Y-41505D03*
X58633Y-41505D03*
X58436Y-41505D03*
X58238Y-41505D03*
X58043Y-41505D03*
X57846Y-41505D03*
X57648Y-41505D03*
X57451Y-41505D03*
X57255Y-41505D03*
X57058Y-41505D03*
X56860Y-41505D03*
X56665Y-41505D03*
G54D46*
X59123Y-41730D03*
X58926Y-41730D03*
X58731Y-41730D03*
X58535Y-41730D03*
X58338Y-41730D03*
X58141Y-41730D03*
X57943Y-41730D03*
X57746Y-41730D03*
X57550Y-41729D03*
X57353Y-41730D03*
X57156Y-41730D03*
X56960Y-41730D03*
X56763Y-41730D03*
X56566Y-41730D03*
G54D45*
X56468Y-41505D03*
G54D46*
X56368Y-41730D03*
X56374Y-38330D03*
G54D47*
X56051Y-38652D03*
G54D45*
X56276Y-38751D03*
G54D47*
X56051Y-38849D03*
X56051Y-39046D03*
X56051Y-39243D03*
X56051Y-39440D03*
X56051Y-39637D03*
X56051Y-39833D03*
X56051Y-40030D03*
X56051Y-40227D03*
X56051Y-40424D03*
X56051Y-40621D03*
X56051Y-40818D03*
X56051Y-41015D03*
X56051Y-41210D03*
X56051Y-41407D03*
G54D45*
X56276Y-38948D03*
X56276Y-39144D03*
X56276Y-39341D03*
X56276Y-39538D03*
X56276Y-39735D03*
X56276Y-39932D03*
X56276Y-40129D03*
X56276Y-40326D03*
X56276Y-40522D03*
X56276Y-40719D03*
X56276Y-40916D03*
X56276Y-41310D03*
X56276Y-41113D03*
G54D44*
X56570Y-38947D03*
X56570Y-39314D03*
X56570Y-39679D03*
X56570Y-40050D03*
X56570Y-40414D03*
X56570Y-40782D03*
X56570Y-41147D03*
G54D48*
X65303Y-39141D03*
G54D49*
X65063Y-40479D03*
G54D50*
X64551Y-40832D03*
G54D51*
X64905Y-40832D03*
G54D52*
X64890Y-41137D03*
G54D53*
X64791Y-41438D03*
G54D54*
X65437Y-39141D03*
G54D55*
X64362Y-40940D03*
G54D56*
X64377Y-41328D03*
G54D55*
X64358Y-41334D03*
G54D57*
X64378Y-41479D03*
G54D58*
X65043Y-39587D03*
G54D59*
X65059Y-39606D03*
G54D54*
X65063Y-40224D03*
G54D56*
X65044Y-40224D03*
G54D60*
X65059Y-39826D03*
G54D61*
X63960Y-38571D03*
G54D62*
X63979Y-38561D03*
G54D63*
X63998Y-38571D03*
G54D64*
X64017Y-38571D03*
G54D65*
X64036Y-38561D03*
G54D66*
X64055Y-38571D03*
G54D67*
X64074Y-38571D03*
G54D68*
X64093Y-38837D03*
X64093Y-38305D03*
G54D69*
X64112Y-38875D03*
X64112Y-38267D03*
G54D70*
X64131Y-38903D03*
G54D61*
X64131Y-38229D03*
G54D71*
X64150Y-38922D03*
G54D57*
X64150Y-38210D03*
G54D72*
X64169Y-38932D03*
X64169Y-38210D03*
G54D54*
X64188Y-38932D03*
G54D69*
X64188Y-38571D03*
G54D73*
X64188Y-38200D03*
G54D74*
X64207Y-38941D03*
G54D58*
X64207Y-38561D03*
G54D74*
X64207Y-38200D03*
G54D75*
X64226Y-38571D03*
G54D63*
X64245Y-38571D03*
G54D76*
X64264Y-38571D03*
G54D70*
X64283Y-38751D03*
G54D61*
X64283Y-38381D03*
G54D57*
X64302Y-38780D03*
X64302Y-38362D03*
G54D77*
X64321Y-38789D03*
X64321Y-38352D03*
G54D78*
X64340Y-38799D03*
X64340Y-38343D03*
G54D72*
X64359Y-41915D03*
G54D79*
X64358Y-41464D03*
G54D80*
X64362Y-40712D03*
G54D77*
X64359Y-40024D03*
G54D59*
X64359Y-39606D03*
G54D54*
X64359Y-38571D03*
G54D81*
X64378Y-41905D03*
G54D54*
X64378Y-40946D03*
G54D82*
X64378Y-40699D03*
G54D81*
X64378Y-40024D03*
G54D58*
X64378Y-39587D03*
G54D61*
X64378Y-38571D03*
G54D81*
X64397Y-41905D03*
G54D57*
X64397Y-41478D03*
G54D54*
X64397Y-41326D03*
X64397Y-40946D03*
G54D62*
X64397Y-40689D03*
G54D81*
X64397Y-40024D03*
G54D62*
X64397Y-39568D03*
G54D68*
X64397Y-38571D03*
G54D81*
X64416Y-41905D03*
G54D57*
X64416Y-41478D03*
G54D54*
X64416Y-41307D03*
X64416Y-40965D03*
G54D83*
X64416Y-40680D03*
G54D81*
X64416Y-40024D03*
G54D83*
X64416Y-39559D03*
G54D84*
X64416Y-38571D03*
G54D57*
X64435Y-41896D03*
X64435Y-41478D03*
G54D54*
X64435Y-41307D03*
X64435Y-40965D03*
G54D72*
X64435Y-40528D03*
G54D57*
X64435Y-40034D03*
G54D81*
X64435Y-39416D03*
G54D54*
X64435Y-38685D03*
X64435Y-38457D03*
G54D57*
X64454Y-41896D03*
X64454Y-41478D03*
G54D54*
X64454Y-41288D03*
X64454Y-40984D03*
G54D77*
X64454Y-40499D03*
G54D71*
X64454Y-40024D03*
G54D72*
X64454Y-39388D03*
G54D74*
X64454Y-38694D03*
X64454Y-38447D03*
G54D57*
X64473Y-41896D03*
G54D71*
X64473Y-41487D03*
G54D54*
X64473Y-41288D03*
X64473Y-40984D03*
X64473Y-40490D03*
G54D73*
X64473Y-40081D03*
G54D54*
X64473Y-39977D03*
G54D77*
X64473Y-39359D03*
G54D57*
X64492Y-41896D03*
G54D71*
X64492Y-41487D03*
G54D54*
X64492Y-41269D03*
G54D73*
X64492Y-40993D03*
G54D54*
X64492Y-40490D03*
X64492Y-40091D03*
G54D73*
X64492Y-39967D03*
G54D77*
X64492Y-39359D03*
G54D71*
X64511Y-41886D03*
X64511Y-41487D03*
G54D54*
X64511Y-41269D03*
X64511Y-41003D03*
X64511Y-40471D03*
X64511Y-40091D03*
X64511Y-39958D03*
G54D77*
X64511Y-39340D03*
G54D73*
X64530Y-41829D03*
G54D71*
X64530Y-41487D03*
G54D54*
X64530Y-41250D03*
G54D73*
X64530Y-41012D03*
G54D54*
X64530Y-40471D03*
X64530Y-40091D03*
X64530Y-39958D03*
X64530Y-39331D03*
G54D73*
X64549Y-41829D03*
G54D61*
X64549Y-41497D03*
G54D54*
X64549Y-41250D03*
X64549Y-41022D03*
X64549Y-40471D03*
G54D73*
X64549Y-40100D03*
G54D54*
X64549Y-39958D03*
X64549Y-39331D03*
X64568Y-41820D03*
X64568Y-41554D03*
X64568Y-41231D03*
G54D73*
X64568Y-41031D03*
G54D54*
X64568Y-40471D03*
X64568Y-40110D03*
G54D73*
X64568Y-39948D03*
G54D85*
X64568Y-38789D03*
G54D59*
X64568Y-38333D03*
G54D73*
X64587Y-41810D03*
X64587Y-41563D03*
G54D54*
X64587Y-41231D03*
X64587Y-41041D03*
X64587Y-40471D03*
X64587Y-40110D03*
X64587Y-39939D03*
G54D68*
X64587Y-38780D03*
G54D59*
X64587Y-38333D03*
G54D73*
X64606Y-41810D03*
G54D54*
X64606Y-41573D03*
X64606Y-41212D03*
G54D73*
X64606Y-41050D03*
G54D54*
X64606Y-40490D03*
G54D73*
X64606Y-40119D03*
G54D54*
X64606Y-39939D03*
G54D84*
X64606Y-38761D03*
G54D59*
X64606Y-38333D03*
G54D73*
X64625Y-41810D03*
G54D54*
X64625Y-41573D03*
X64625Y-41212D03*
X64625Y-41060D03*
G54D77*
X64625Y-40499D03*
G54D54*
X64625Y-40129D03*
X64625Y-39939D03*
G54D84*
X64625Y-38761D03*
G54D59*
X64625Y-38333D03*
G54D54*
X64644Y-41801D03*
X64644Y-41573D03*
X64644Y-41193D03*
G54D73*
X64644Y-41069D03*
G54D77*
X64644Y-40518D03*
G54D54*
X64644Y-40129D03*
X64644Y-39920D03*
G54D72*
X64644Y-38647D03*
G54D73*
X64663Y-41791D03*
X64663Y-41582D03*
G54D71*
X64663Y-41126D03*
G54D81*
X64663Y-40537D03*
G54D54*
X64663Y-40129D03*
X64663Y-39920D03*
X64663Y-38628D03*
G54D73*
X64682Y-41791D03*
G54D54*
X64682Y-41592D03*
G54D57*
X64682Y-41136D03*
G54D83*
X64682Y-40680D03*
G54D73*
X64682Y-40138D03*
G54D54*
X64682Y-39920D03*
X64682Y-38609D03*
G54D73*
X64701Y-41791D03*
G54D54*
X64701Y-41592D03*
G54D81*
X64701Y-41126D03*
G54D62*
X64701Y-40689D03*
G54D54*
X64701Y-40148D03*
X64701Y-39901D03*
G54D86*
X64704Y-39711D03*
G54D87*
X64701Y-38875D03*
G54D54*
X64701Y-38609D03*
G54D87*
X64701Y-38438D03*
G54D54*
X64720Y-41782D03*
G54D73*
X64720Y-41601D03*
G54D72*
X64720Y-41136D03*
G54D58*
X64720Y-40708D03*
G54D54*
X64720Y-40148D03*
X64720Y-39901D03*
G54D73*
X64720Y-38618D03*
G54D53*
X64791Y-41934D03*
G54D73*
X64739Y-41772D03*
X64739Y-41601D03*
G54D84*
X64739Y-40718D03*
G54D54*
X64739Y-40148D03*
X64739Y-39901D03*
X64739Y-38628D03*
G54D73*
X64758Y-41772D03*
G54D54*
X64758Y-41611D03*
X64758Y-40604D03*
G54D77*
X64758Y-40157D03*
G54D54*
X64758Y-39901D03*
G54D77*
X64758Y-38637D03*
G54D54*
X64777Y-41763D03*
X64777Y-41611D03*
G54D77*
X64777Y-40594D03*
G54D88*
X64777Y-40024D03*
G54D84*
X64777Y-38761D03*
G54D69*
X64777Y-38362D03*
G54D73*
X64796Y-41753D03*
X64796Y-41620D03*
G54D54*
X64796Y-40585D03*
G54D62*
X64796Y-40024D03*
G54D59*
X64796Y-38770D03*
G54D69*
X64796Y-38362D03*
G54D73*
X64815Y-41753D03*
X64815Y-41620D03*
G54D77*
X64815Y-40575D03*
G54D62*
X64815Y-40024D03*
G54D68*
X64815Y-38780D03*
G54D69*
X64815Y-38362D03*
G54D73*
X64834Y-41753D03*
G54D54*
X64834Y-41630D03*
G54D77*
X64834Y-40575D03*
G54D89*
X64834Y-40024D03*
G54D90*
X64701Y-39311D03*
G54D85*
X64834Y-38789D03*
G54D69*
X64834Y-38362D03*
G54D54*
X64853Y-41744D03*
X64853Y-41630D03*
X64853Y-40566D03*
X64853Y-40186D03*
X64853Y-39863D03*
G54D77*
X64853Y-39321D03*
X64853Y-38694D03*
G54D73*
X64872Y-41734D03*
X64872Y-41639D03*
G54D77*
X64872Y-40556D03*
G54D54*
X64872Y-40186D03*
X64872Y-39863D03*
X64872Y-39331D03*
X64872Y-38685D03*
G54D57*
X64891Y-41687D03*
G54D54*
X64891Y-40547D03*
X64891Y-40205D03*
X64891Y-39863D03*
G54D77*
X64891Y-39340D03*
G54D54*
X64891Y-38685D03*
G54D57*
X64910Y-41687D03*
G54D77*
X64910Y-40537D03*
G54D54*
X64910Y-40205D03*
X64910Y-39844D03*
X64910Y-39350D03*
X64910Y-38666D03*
G54D81*
X64929Y-41696D03*
G54D77*
X64929Y-40537D03*
G54D54*
X64929Y-40205D03*
X64929Y-39844D03*
G54D77*
X64929Y-39359D03*
G54D54*
X64929Y-38666D03*
G54D72*
X64948Y-41687D03*
G54D54*
X64948Y-40528D03*
X64948Y-40205D03*
X64948Y-39844D03*
G54D77*
X64948Y-39378D03*
G54D54*
X64948Y-38647D03*
G54D91*
X64945Y-38438D03*
G54D72*
X64967Y-41687D03*
G54D77*
X64967Y-40518D03*
G54D54*
X64967Y-40224D03*
X64967Y-39825D03*
G54D81*
X64967Y-39397D03*
G54D91*
X64945Y-38875D03*
G54D54*
X64967Y-38647D03*
G54D72*
X64986Y-41687D03*
G54D54*
X64986Y-40509D03*
G54D92*
X64712Y-40345D03*
G54D54*
X64986Y-40224D03*
X64986Y-39825D03*
G54D77*
X64986Y-39701D03*
G54D61*
X64986Y-39445D03*
G54D54*
X64986Y-39141D03*
X64986Y-38628D03*
X65005Y-41687D03*
G54D77*
X65005Y-40499D03*
G54D54*
X65005Y-40224D03*
X65005Y-39825D03*
G54D83*
X65005Y-39559D03*
G54D72*
X65005Y-39141D03*
G54D54*
X65005Y-38628D03*
X65024Y-41687D03*
X65024Y-40490D03*
X65024Y-40224D03*
X65024Y-39825D03*
G54D82*
X65024Y-39578D03*
G54D57*
X65024Y-39141D03*
G54D73*
X65024Y-38618D03*
G54D54*
X65043Y-41687D03*
G54D77*
X65043Y-40480D03*
G54D60*
X65043Y-39826D03*
G54D54*
X65043Y-38609D03*
G54D78*
X65062Y-41687D03*
G54D48*
X65110Y-39141D03*
G54D93*
X65195Y-40091D03*
X65214Y-40091D03*
X65233Y-40091D03*
G54D71*
X65386Y-39141D03*
G54D57*
X65404Y-39141D03*
G54D72*
X65421Y-39141D03*
G54D33*
X63314Y-31834D03*
X62314Y-31834D03*
X61314Y-31834D03*
G54D34*
X59314Y-31814D03*
G54D33*
X60314Y-31834D03*
X63043Y-48350D03*
X62043Y-48350D03*
X61043Y-48350D03*
G54D34*
X59043Y-48330D03*
G54D33*
X60043Y-48350D03*
G54D94*
X62145Y-45208D03*
X61948Y-45208D03*
X62342Y-45208D03*
X62342Y-44421D03*
X62145Y-44421D03*
X61948Y-44421D03*
G54D95*
X61751Y-45011D03*
X61751Y-44814D03*
X61751Y-44618D03*
X62539Y-44814D03*
X62539Y-44618D03*
X62539Y-45011D03*
G54D96*
X62145Y-44814D03*
G54D24*
X64106Y-44814D03*
X64460Y-44814D03*
G54D97*
X48547Y-31149D03*
X63685Y-49043D03*
X65688Y-30944D03*
G54D98*
X60400Y-33783D03*
X58038Y-33783D03*
X55676Y-33783D03*
X53313Y-33783D03*
G54D99*
X51051Y-33783D03*
G54D100*
X50599Y-34235D03*
G54D101*
X63116Y-36500D03*
X63116Y-38862D03*
X63116Y-41223D03*
X63116Y-43587D03*
G54D99*
X62663Y-46301D03*
G54D100*
X63116Y-45847D03*
X50599Y-45847D03*
G54D99*
X51051Y-46301D03*
G54D98*
X53313Y-46301D03*
X55676Y-46301D03*
X58038Y-46301D03*
X60400Y-46301D03*
G54D101*
X50599Y-43587D03*
X50599Y-41223D03*
X50599Y-38862D03*
X50599Y-36500D03*
G54D99*
X62663Y-33783D03*
G54D100*
X63116Y-34235D03*
G54D12*
X61692Y-43251D03*
G54D13*
X56783Y-43173D03*
X61728Y-40646D03*
X61821Y-42018D03*
X61594Y-38083D03*
X55748Y-43512D03*
X55032Y-45276D03*
G54D102*
X61444Y-45011D03*
G54D13*
X58976Y-46772D03*
G54D12*
X60177Y-35130D03*
G54D13*
X54949Y-37343D03*
G54D12*
X52646Y-37508D03*
G54D13*
X54221Y-34441D03*
X51169Y-34244D03*
X57756Y-43449D03*
G54D12*
X56949Y-42618D03*
G54D13*
X58264Y-43146D03*
X60142Y-42921D03*
G54D12*
X55299Y-38228D03*
G54D13*
X62039Y-39803D03*
X59910Y-37815D03*
X62036Y-39500D03*
G54D12*
X49256Y-36028D03*
X53323Y-36453D03*
G54D103*
X62543Y-45208D03*
X61830Y-45295D03*
X61842Y-44421D03*
X62527Y-44421D03*
X60980Y-44818D03*
X60972Y-44472D03*
G54D13*
X58002Y-47500D03*
G54D12*
X59961Y-44311D03*
X58626Y-44390D03*
X58413Y-43508D03*
X60205Y-43484D03*
X59882Y-37386D03*
X58256Y-36228D03*
X57106Y-36587D03*
G54D13*
X58616Y-45230D03*
G54D12*
X61102Y-40835D03*
G54D13*
X57668Y-44518D03*
G54D12*
X52012Y-34799D03*
G54D13*
X50921Y-43799D03*
X51012Y-36701D03*
G54D12*
X48154Y-36225D03*
X48154Y-35831D03*
G54D13*
X48158Y-36717D03*
X48150Y-39079D03*
X48189Y-41437D03*
G54D12*
X48032Y-37599D03*
X48047Y-38189D03*
X48024Y-39571D03*
X48028Y-40551D03*
X48032Y-41933D03*
X48032Y-42918D03*
X48197Y-43508D03*
G54D13*
X48138Y-43807D03*
G54D12*
X61264Y-40071D03*
X54457Y-43477D03*
G54D13*
X53465Y-45815D03*
G54D12*
X54579Y-44225D03*
G54D13*
X54268Y-46508D03*
G54D12*
X48102Y-44492D03*
X50921Y-44492D03*
X60441Y-34681D03*
G54D13*
X57984Y-48284D03*
G54D12*
X61957Y-34823D03*
X60906Y-36260D03*
X61957Y-35933D03*
X62154Y-36559D03*
X61228Y-42177D03*
X60882Y-38087D03*
X60780Y-39406D03*
X59350Y-37213D03*
G54D104*
X56091Y-35378D03*
X55579Y-35130D03*
G54D12*
X59508Y-36051D03*
X59650Y-35925D03*
X57094Y-35291D03*
X58354Y-35528D03*
X58370Y-36783D03*
X48165Y-37402D03*
X60266Y-35482D03*
X48193Y-37205D03*
X60246Y-35719D03*
G54D103*
X49078Y-43251D03*
G54D102*
X61433Y-44618D03*
G54D13*
X55217Y-44988D03*
G54D12*
X55288Y-40421D03*
X55701Y-40618D03*
X55366Y-40819D03*
X55705Y-41839D03*
G54D105*
X59228Y-40327D03*
G54D12*
X51732Y-36461D03*
G54D105*
X56276Y-41307D03*
G54D12*
X53591Y-41236D03*
X59951Y-40876D03*
X51728Y-36957D03*
G54D105*
X59232Y-40524D03*
G54D12*
X52870Y-37327D03*
X51728Y-37240D03*
X52870Y-36752D03*
X59669Y-40425D03*
X55736Y-39831D03*
X53906Y-34843D03*
X48193Y-37984D03*
X60319Y-39984D03*
X52906Y-35095D03*
X52543Y-37827D03*
G54D105*
X56866Y-38555D03*
G54D12*
X55981Y-37386D03*
G54D105*
X59228Y-38752D03*
G54D12*
X57205Y-42071D03*
X60473Y-41000D03*
G54D105*
X59232Y-40918D03*
G54D12*
X60339Y-39244D03*
G54D105*
X59228Y-39343D03*
X57252Y-41504D03*
G54D12*
X57465Y-41937D03*
G54D13*
X52811Y-44992D03*
X53539Y-43862D03*
X53539Y-44197D03*
G54D12*
X60030Y-41211D03*
G54D105*
X59228Y-41114D03*
G54D12*
X60039Y-41437D03*
X55638Y-36756D03*
G54D105*
X57063Y-38555D03*
G54D12*
X59272Y-41807D03*
X59748Y-39020D03*
G54D105*
X58240Y-41504D03*
X59225Y-39146D03*
X59228Y-38949D03*
X59228Y-40130D03*
X57847Y-38555D03*
G54D12*
X59150Y-37972D03*
G54D105*
X57059Y-41504D03*
G54D12*
X55933Y-38528D03*
G54D103*
X56276Y-39736D03*
X56276Y-40327D03*
G54D12*
X56260Y-42953D03*
G54D105*
X56858Y-41504D03*
G54D13*
X60154Y-42638D03*
G54D105*
X59228Y-41311D03*
X59228Y-39933D03*
G54D12*
X55394Y-39638D03*
X53650Y-41536D03*
G54D105*
X56276Y-41110D03*
G54D12*
X53583Y-40201D03*
G54D105*
X56280Y-39933D03*
G54D12*
X55831Y-39047D03*
G54D105*
X56276Y-40914D03*
G54D12*
X53579Y-41925D03*
X53602Y-40559D03*
G54D105*
X56276Y-40130D03*
G54D12*
X55303Y-40032D03*
X53662Y-38355D03*
G54D105*
X56276Y-38748D03*
G54D12*
X55709Y-39445D03*
X56957Y-42059D03*
G54D105*
X56665Y-41504D03*
G54D12*
X52193Y-35890D03*
X59740Y-40740D03*
X54453Y-37319D03*
X51721Y-37508D03*
X54721Y-36075D03*
X59787Y-39870D03*
X55555Y-39028D03*
X53662Y-38555D03*
G54D105*
X56276Y-38945D03*
G54D12*
X53610Y-39571D03*
G54D105*
X56276Y-39540D03*
G54D12*
X53626Y-39370D03*
G54D105*
X56280Y-39343D03*
G54D12*
X53579Y-42122D03*
G54D105*
X56276Y-40717D03*
G54D12*
X55772Y-40232D03*
X55890Y-41016D03*
X55260Y-41209D03*
X55815Y-41406D03*
X55445Y-41846D03*
X56303Y-41937D03*
X53650Y-38981D03*
G54D105*
X56276Y-39138D03*
G54D12*
X53587Y-41040D03*
G54D105*
X56276Y-40524D03*
G54D12*
X59646Y-40225D03*
X54736Y-36331D03*
X49354Y-37402D03*
X53071Y-34862D03*
X52276Y-40847D03*
X52248Y-40394D03*
X48185Y-39965D03*
X48221Y-38386D03*
X52516Y-38162D03*
X48201Y-39768D03*
X52232Y-40016D03*
X48197Y-39370D03*
X52402Y-39815D03*
X48079Y-38783D03*
X52386Y-39181D03*
X48193Y-38591D03*
X52366Y-38772D03*
G54D105*
X59228Y-39732D03*
G54D12*
X51445Y-35929D03*
X52213Y-40654D03*
X48181Y-40355D03*
X55984Y-38016D03*
X56319Y-38122D03*
X56575Y-38130D03*
G54D105*
X56669Y-38555D03*
G54D12*
X49744Y-36425D03*
X49634Y-37205D03*
X49917Y-37012D03*
X49748Y-36225D03*
X51717Y-37992D03*
X52535Y-41732D03*
X48173Y-42331D03*
X52118Y-42354D03*
X54984Y-43063D03*
X48173Y-40748D03*
X55453Y-43067D03*
X51752Y-40748D03*
X48181Y-42130D03*
X51917Y-42355D03*
X48197Y-41732D03*
X51398Y-42355D03*
X48075Y-41142D03*
X51638Y-42355D03*
X48201Y-40949D03*
X54721Y-43055D03*
X51091Y-40949D03*
X55225Y-43067D03*
G54D105*
X59228Y-40721D03*
G54D12*
X51669Y-35288D03*
G54D105*
X58437Y-41508D03*
G54D12*
X58536Y-41973D03*
X59281Y-42067D03*
X58740Y-41969D03*
X52465Y-41043D03*
X49535Y-42618D03*
X48154Y-42725D03*
G54D13*
X51169Y-44827D03*
X51169Y-45063D03*
G54D106*
X54752Y-45276D02*
X55032Y-45276D01*
X54542Y-45276D02*
X54752Y-45276D01*
G54D107*
X61751Y-44814D02*
X61641Y-44814D01*
X61641Y-44814D02*
X61444Y-45011D01*
X61751Y-45011D02*
X61751Y-44814D01*
X61444Y-45011D02*
X61751Y-45011D01*
G54D108*
X58976Y-46919D02*
X58976Y-46772D01*
X58976Y-46919D02*
X58977Y-47051D01*
X59843Y-43123D02*
X59940Y-43123D01*
X59940Y-43123D02*
X60142Y-42921D01*
X58799Y-43133D02*
X58277Y-43133D01*
X58277Y-43133D02*
X58264Y-43146D01*
X60215Y-35281D02*
X60177Y-35243D01*
X60177Y-35243D02*
X60177Y-35130D01*
X60215Y-35281D02*
X60619Y-35281D01*
X51445Y-34552D02*
X51169Y-34244D01*
X51445Y-34552D02*
X51445Y-35036D01*
G54D11*
X57756Y-43449D02*
X57756Y-43409D01*
X57067Y-42500D02*
X56949Y-42618D01*
X57123Y-42500D02*
X57067Y-42500D01*
X58272Y-43150D02*
X58264Y-43146D01*
G54D108*
X58272Y-43150D02*
X58270Y-42520D01*
G54D109*
X55299Y-38335D02*
X55299Y-38228D01*
X55299Y-38559D02*
X55299Y-38335D01*
G54D110*
X65695Y-35298D02*
X64130Y-35298D01*
X64130Y-35298D02*
X64129Y-35299D01*
X65711Y-44815D02*
X64460Y-44815D01*
X64460Y-44815D02*
X64460Y-44814D01*
G54D11*
X62543Y-45208D02*
X62543Y-45015D01*
X62342Y-45208D02*
X62543Y-45208D01*
X62543Y-45015D02*
X62539Y-45011D01*
X61948Y-45208D02*
X61917Y-45208D01*
X61917Y-45208D02*
X61830Y-45295D01*
X61948Y-44421D02*
X61842Y-44421D01*
X62527Y-44421D02*
X62527Y-44606D01*
X62342Y-44421D02*
X62527Y-44421D01*
X62527Y-44606D02*
X62539Y-44618D01*
X62342Y-45208D02*
X62342Y-45011D01*
X62342Y-45011D02*
X62145Y-44814D01*
X61948Y-45208D02*
X61948Y-45011D01*
X61948Y-45011D02*
X62145Y-44814D01*
X62539Y-45011D02*
X62342Y-45011D01*
X62342Y-45011D02*
X62145Y-44814D01*
X62539Y-44618D02*
X62342Y-44618D01*
X62342Y-44618D02*
X62145Y-44814D01*
X62342Y-44421D02*
X62342Y-44618D01*
X62342Y-44618D02*
X62145Y-44814D01*
X61948Y-44421D02*
X61948Y-44618D01*
X61948Y-44618D02*
X62145Y-44814D01*
G54D108*
X58401Y-38945D02*
X58519Y-38945D01*
X58519Y-38945D02*
X58521Y-38947D01*
X58718Y-38947D02*
X58713Y-38947D01*
X58713Y-38947D02*
X58638Y-38872D01*
X58521Y-38947D02*
X58718Y-38947D01*
X58638Y-38872D02*
X58474Y-38872D01*
X58474Y-38872D02*
X58401Y-38945D01*
X58638Y-38554D02*
X58638Y-38872D01*
X58150Y-38554D02*
X58150Y-38930D01*
X58135Y-38945D02*
X57968Y-38945D01*
X58150Y-38930D02*
X58135Y-38945D01*
X58048Y-38554D02*
X58150Y-38554D01*
X58150Y-38554D02*
X58245Y-38554D01*
X58633Y-41232D02*
X58835Y-41107D01*
X58633Y-41505D02*
X58633Y-41232D01*
X58830Y-41259D02*
X58835Y-41107D01*
X58830Y-41505D02*
X58830Y-41259D01*
G54D111*
X57508Y-47500D02*
X58002Y-47500D01*
G54D11*
X60032Y-44606D02*
X60032Y-44390D01*
X60032Y-44390D02*
X59961Y-44311D01*
X58622Y-44606D02*
X58626Y-44555D01*
X58626Y-44555D02*
X58626Y-44390D01*
X58437Y-43504D02*
X58413Y-43508D01*
X58622Y-43504D02*
X58437Y-43504D01*
X60032Y-43484D02*
X60205Y-43484D01*
G54D109*
X59665Y-37406D02*
X59882Y-37386D01*
X59665Y-37406D02*
X59665Y-37654D01*
G54D11*
X58472Y-36228D02*
X58256Y-36228D01*
X57102Y-36787D02*
X57102Y-36591D01*
X57102Y-36591D02*
X57106Y-36587D01*
G54D108*
X58388Y-45230D02*
X58616Y-45230D01*
X58172Y-45226D02*
X58258Y-45226D01*
X58172Y-45226D02*
X58192Y-45233D01*
X58192Y-45233D02*
X58388Y-45230D01*
G54D107*
X57666Y-44516D02*
X57668Y-44518D01*
G54D108*
X58245Y-38554D02*
X58244Y-38988D01*
X58244Y-38988D02*
X58047Y-38984D01*
G54D11*
X48154Y-36225D02*
X48158Y-36225D01*
G54D108*
X60441Y-34681D02*
X60441Y-35071D01*
X60454Y-35084D02*
X60619Y-35084D01*
X60441Y-35071D02*
X60454Y-35084D01*
G54D112*
X57518Y-48284D02*
X57984Y-48284D01*
G54D109*
X61298Y-34799D02*
X61298Y-35281D01*
X61298Y-35281D02*
X61299Y-35477D01*
X61298Y-35960D02*
X61298Y-35477D01*
G54D113*
X61298Y-35477D02*
X61299Y-35477D01*
G54D109*
X61823Y-35476D02*
X61298Y-35477D01*
G54D113*
X61298Y-35477D02*
X61299Y-35477D01*
G54D109*
X61781Y-35084D02*
X61961Y-35079D01*
X61961Y-35079D02*
X61957Y-34823D01*
X61957Y-34823D02*
X61957Y-34823D01*
X60905Y-35960D02*
X60906Y-36063D01*
X60906Y-36063D02*
X60906Y-36260D01*
X61781Y-35674D02*
X61780Y-35677D01*
X61780Y-35677D02*
X61957Y-35673D01*
X61957Y-35673D02*
X61957Y-35933D01*
G54D108*
X61870Y-36559D02*
X62154Y-36559D01*
G54D114*
X60197Y-41870D02*
X60197Y-41520D01*
X61102Y-40712D02*
X61102Y-40835D01*
X61228Y-42177D02*
X61228Y-40992D01*
X61228Y-40992D02*
X61102Y-40835D01*
X61224Y-42173D02*
X61228Y-42177D01*
X61228Y-42324D02*
X61127Y-42425D01*
X61127Y-42425D02*
X60303Y-42425D01*
X60303Y-42425D02*
X60205Y-42327D01*
X60205Y-42327D02*
X60205Y-42181D01*
X61228Y-42177D02*
X61228Y-42324D01*
X60831Y-40835D02*
X60827Y-40831D01*
X61102Y-40835D02*
X60831Y-40835D01*
X60197Y-40792D02*
X60197Y-41520D01*
X60347Y-40642D02*
X60197Y-40792D01*
X61032Y-40642D02*
X60347Y-40642D01*
X61102Y-40712D02*
X61032Y-40642D01*
G54D11*
X60882Y-38087D02*
X60882Y-37996D01*
X60618Y-38110D02*
X60641Y-38087D01*
X60641Y-38087D02*
X60882Y-38087D01*
X60012Y-38008D02*
X60012Y-38276D01*
X60098Y-37921D02*
X60012Y-38008D01*
X60788Y-37921D02*
X60098Y-37921D01*
X60882Y-37996D02*
X60788Y-37921D01*
G54D114*
X60882Y-38087D02*
X60882Y-39299D01*
X60882Y-39299D02*
X60776Y-39405D01*
G54D11*
X60618Y-38414D02*
X60618Y-38110D01*
G54D114*
X60776Y-39405D02*
X60780Y-39406D01*
X60780Y-39406D02*
X60780Y-39551D01*
X60035Y-39504D02*
X60035Y-38630D01*
X60177Y-39646D02*
X60035Y-39504D01*
X60685Y-39646D02*
X60177Y-39646D01*
X60780Y-39551D02*
X60685Y-39646D01*
X60780Y-39406D02*
X60618Y-39406D01*
X60815Y-42173D02*
X61224Y-42173D01*
X60815Y-41862D02*
X60815Y-42173D01*
G54D109*
X59130Y-38330D02*
X59147Y-38330D01*
X59147Y-38330D02*
X59354Y-38123D01*
X59354Y-38123D02*
X59350Y-37213D01*
G54D107*
X56079Y-35874D02*
X56079Y-35374D01*
X56079Y-35374D02*
X56091Y-35378D01*
X55579Y-34623D02*
X55579Y-35130D01*
X57666Y-43982D02*
X57666Y-44516D01*
G54D108*
X58048Y-38554D02*
X58047Y-38984D01*
G54D11*
X59577Y-36230D02*
X59577Y-36073D01*
X59577Y-36073D02*
X59508Y-36051D01*
X59602Y-35744D02*
X59602Y-35858D01*
X59602Y-35858D02*
X59650Y-35925D01*
X58460Y-35634D02*
X58354Y-35528D01*
X58460Y-35634D02*
X58460Y-35740D01*
X57094Y-35512D02*
X57094Y-35315D01*
X57094Y-35315D02*
X57094Y-35291D01*
X58179Y-35522D02*
X58348Y-35522D01*
X58348Y-35522D02*
X58354Y-35528D01*
X58179Y-36781D02*
X58368Y-36781D01*
X58368Y-36781D02*
X58370Y-36783D01*
G54D115*
X48299Y-37402D02*
X48532Y-37457D01*
X48299Y-37402D02*
X48165Y-37402D01*
X60266Y-35482D02*
X60619Y-35477D01*
X48339Y-37205D02*
X48193Y-37205D01*
X48339Y-37205D02*
X48555Y-37126D01*
X60327Y-35674D02*
X60246Y-35719D01*
X60327Y-35674D02*
X60619Y-35674D01*
G54D110*
X61751Y-44618D02*
X61433Y-44618D01*
G54D106*
X55217Y-44988D02*
X55217Y-44622D01*
G54D11*
X55288Y-40421D02*
X56051Y-40421D01*
X56051Y-40621D02*
X55816Y-40621D01*
X55816Y-40621D02*
X55701Y-40618D01*
G54D113*
X55366Y-40819D02*
X56055Y-40815D01*
G54D115*
X55830Y-41730D02*
X55728Y-41832D01*
X55705Y-41839D02*
X55728Y-41832D01*
X56368Y-41730D02*
X55830Y-41730D01*
X51732Y-36461D02*
X51941Y-36461D01*
X51941Y-36461D02*
X51976Y-36496D01*
X59228Y-40523D02*
X59231Y-40523D01*
X59232Y-40524D02*
X59231Y-40523D01*
X59449Y-40425D02*
X59669Y-40425D01*
X59669Y-40425D02*
X59669Y-40425D01*
G54D113*
X56051Y-39833D02*
X55821Y-39833D01*
X55821Y-39833D02*
X55736Y-39831D01*
G54D114*
X60193Y-40031D02*
X60319Y-39984D01*
G54D11*
X60193Y-40031D02*
X59429Y-40031D01*
G54D108*
X56866Y-38555D02*
X56866Y-38554D01*
G54D115*
X55981Y-37386D02*
X55973Y-37386D01*
X56866Y-38554D02*
X56768Y-38398D01*
X56768Y-38398D02*
X56768Y-38330D01*
G54D110*
X61780Y-35281D02*
X63757Y-35281D01*
X63757Y-35281D02*
X63775Y-35299D01*
G54D11*
X61495Y-35960D02*
X61495Y-36554D01*
X61495Y-36554D02*
X61500Y-36559D01*
G54D110*
X64106Y-44814D02*
X62539Y-44814D01*
G54D108*
X59228Y-38752D02*
X59228Y-38753D01*
X57154Y-41717D02*
X57154Y-41913D01*
X57154Y-41949D02*
X57205Y-42071D01*
X57154Y-41913D02*
X57154Y-41949D01*
G54D11*
X59232Y-40918D02*
X59228Y-40918D01*
G54D114*
X60473Y-41181D02*
X60473Y-41540D01*
X60473Y-41000D02*
X60473Y-41181D01*
X60473Y-40831D02*
X60473Y-41000D01*
X60461Y-42012D02*
X60461Y-41890D01*
X59026Y-41505D02*
X59283Y-41504D01*
X59283Y-41504D02*
X59799Y-42024D01*
X59799Y-42024D02*
X60449Y-42024D01*
X60449Y-42024D02*
X60461Y-42012D01*
X60461Y-42012D02*
X60461Y-42173D01*
X60264Y-38772D02*
X60264Y-39079D01*
X60264Y-39079D02*
X60264Y-39150D01*
X60264Y-39150D02*
X60339Y-39244D01*
X60339Y-39244D02*
X60264Y-39319D01*
X60264Y-39319D02*
X60264Y-39406D01*
X59453Y-38653D02*
X59572Y-38653D01*
X59823Y-38402D02*
X60264Y-38402D01*
X59572Y-38653D02*
X59823Y-38402D01*
G54D11*
X60264Y-38402D02*
X60264Y-38110D01*
G54D114*
X60618Y-38784D02*
X60618Y-39079D01*
X60618Y-39079D02*
X60622Y-39083D01*
G54D11*
X59665Y-38300D02*
X59508Y-38300D01*
X59665Y-38024D02*
X59665Y-38300D01*
X59254Y-38554D02*
X59033Y-38554D01*
X59508Y-38300D02*
X59254Y-38554D01*
X60835Y-41173D02*
X60835Y-41496D01*
G54D115*
X57655Y-38554D02*
X57655Y-38537D01*
X57556Y-38438D02*
X57556Y-38330D01*
X57655Y-38537D02*
X57556Y-38438D01*
X58836Y-38554D02*
X58836Y-38517D01*
X58738Y-38419D02*
X58738Y-38330D01*
X58836Y-38517D02*
X58738Y-38419D01*
X57458Y-38554D02*
X57458Y-38529D01*
X57360Y-38431D02*
X57360Y-38330D01*
X57458Y-38529D02*
X57360Y-38431D01*
G54D11*
X56890Y-37220D02*
X56134Y-37220D01*
X56134Y-37220D02*
X55886Y-36972D01*
X55886Y-36972D02*
X55886Y-36480D01*
X57260Y-37221D02*
X57260Y-37099D01*
X56228Y-36780D02*
X56228Y-36500D01*
X56456Y-37008D02*
X56228Y-36780D01*
X57169Y-37008D02*
X56456Y-37008D01*
X57260Y-37099D02*
X57169Y-37008D01*
X56576Y-36547D02*
X56576Y-35877D01*
X56576Y-35877D02*
X56579Y-35874D01*
X55575Y-36473D02*
X55574Y-35879D01*
X55574Y-35879D02*
X55579Y-35874D01*
X56874Y-37567D02*
X56874Y-37961D01*
X56874Y-37961D02*
X56897Y-37984D01*
X56966Y-38330D02*
X56966Y-38053D01*
X56966Y-38053D02*
X56897Y-37984D01*
G54D111*
X52788Y-44906D02*
X53106Y-44906D01*
X52788Y-44906D02*
X52788Y-44912D01*
X52788Y-44912D02*
X52811Y-44992D01*
X52473Y-44906D02*
X52788Y-44906D01*
G54D11*
X57677Y-37225D02*
X57677Y-37022D01*
X57677Y-37022D02*
X57441Y-36786D01*
X57441Y-36786D02*
X57441Y-36289D01*
X57753Y-38330D02*
X57753Y-38041D01*
X57677Y-37965D02*
X57677Y-37579D01*
X57753Y-38041D02*
X57677Y-37965D01*
G54D113*
X56853Y-45203D02*
X56278Y-45203D01*
X56278Y-45203D02*
X56278Y-45034D01*
X56278Y-45034D02*
X57164Y-45034D01*
X56853Y-45427D02*
X56853Y-45207D01*
X56853Y-45207D02*
X56853Y-45203D01*
X56282Y-45427D02*
X56853Y-45427D01*
G54D110*
X57480Y-45803D02*
X56591Y-45803D01*
X56591Y-45803D02*
X56453Y-45795D01*
X56453Y-45795D02*
X56348Y-45728D01*
X56348Y-45728D02*
X56299Y-45659D01*
X56299Y-45659D02*
X56299Y-45453D01*
G54D113*
X57164Y-45030D02*
X57164Y-45230D01*
G54D11*
X57950Y-38330D02*
X57950Y-38086D01*
X58071Y-37965D02*
X58071Y-37579D01*
X57950Y-38086D02*
X58071Y-37965D01*
X58004Y-43287D02*
X58004Y-43421D01*
X58164Y-43581D02*
X58164Y-43981D01*
X58004Y-43421D02*
X58164Y-43581D01*
X58976Y-43885D02*
X58976Y-43504D01*
X58976Y-43504D02*
X59124Y-43356D01*
X59124Y-43356D02*
X59124Y-43130D01*
X58343Y-38330D02*
X58343Y-38247D01*
X58701Y-38126D02*
X58957Y-37870D01*
X58464Y-38126D02*
X58701Y-38126D01*
X58343Y-38247D02*
X58464Y-38126D01*
X58957Y-37870D02*
X58957Y-37665D01*
X58957Y-37665D02*
X59016Y-37606D01*
X59016Y-37606D02*
X59016Y-37484D01*
X59016Y-37484D02*
X59012Y-37480D01*
G54D115*
X58441Y-38554D02*
X58441Y-38501D01*
X58541Y-38401D02*
X58541Y-38330D01*
X58441Y-38501D02*
X58541Y-38401D01*
G54D11*
X58799Y-42793D02*
X59107Y-42793D01*
X59130Y-42770D02*
X59130Y-42477D01*
X59107Y-42793D02*
X59130Y-42770D01*
X59130Y-42477D02*
X58567Y-42476D01*
X58567Y-42476D02*
X58141Y-41960D01*
X58141Y-41960D02*
X58141Y-41730D01*
X57461Y-43287D02*
X57461Y-43386D01*
X57164Y-43683D02*
X57164Y-43981D01*
X57461Y-43386D02*
X57164Y-43683D01*
G54D108*
X53539Y-43862D02*
X53858Y-43858D01*
X53858Y-43858D02*
X53990Y-43882D01*
G54D116*
X53539Y-43870D02*
X53539Y-43862D01*
X53539Y-44197D02*
X53539Y-43870D01*
X53453Y-44036D02*
X53539Y-44197D01*
X52472Y-44036D02*
X53453Y-44036D01*
G54D11*
X57163Y-38330D02*
X57163Y-38058D01*
X57260Y-37961D02*
X57260Y-37575D01*
X57163Y-38058D02*
X57260Y-37961D01*
G54D110*
X57114Y-34433D02*
X56866Y-34433D01*
X57744Y-34433D02*
X57114Y-34433D01*
G54D115*
X56587Y-34623D02*
X56579Y-34623D01*
X56587Y-34776D02*
X56587Y-34623D01*
X57421Y-34776D02*
X56587Y-34776D01*
X57433Y-34776D02*
X57421Y-34776D01*
X57433Y-34642D02*
X57433Y-34776D01*
X57433Y-34642D02*
X57433Y-34642D01*
X56866Y-34642D02*
X57433Y-34642D01*
X56866Y-34433D02*
X56866Y-34642D01*
X56866Y-34433D02*
X56866Y-34433D01*
G54D11*
X58071Y-37027D02*
X57825Y-36781D01*
X58071Y-37225D02*
X58071Y-37027D01*
X57825Y-36781D02*
X57825Y-36292D01*
X57667Y-42165D02*
X57667Y-42296D01*
X57461Y-42502D02*
X57461Y-42933D01*
X57667Y-42296D02*
X57461Y-42502D01*
X57746Y-41730D02*
X57746Y-41900D01*
X57667Y-41979D02*
X57667Y-42165D01*
X57746Y-41900D02*
X57667Y-41979D01*
X58021Y-42165D02*
X58021Y-42455D01*
X58021Y-42455D02*
X57956Y-42520D01*
X57956Y-42520D02*
X57956Y-42885D01*
X57956Y-42885D02*
X58004Y-42933D01*
X57943Y-41730D02*
X57943Y-41881D01*
X58021Y-41959D02*
X58021Y-42165D01*
X57943Y-41881D02*
X58021Y-41959D01*
X59693Y-43878D02*
X59693Y-43485D01*
X59488Y-43280D02*
X59488Y-43130D01*
X59693Y-43485D02*
X59488Y-43280D01*
X59012Y-37126D02*
X59012Y-37047D01*
X59252Y-36807D02*
X59252Y-36587D01*
X59012Y-37047D02*
X59252Y-36807D01*
X59252Y-36587D02*
X59255Y-36584D01*
X59255Y-36584D02*
X59577Y-36584D01*
X59693Y-44232D02*
X59693Y-44605D01*
X59693Y-44605D02*
X59692Y-44606D01*
X58976Y-44606D02*
X58976Y-44225D01*
X59327Y-45031D02*
X59327Y-44614D01*
X59327Y-44614D02*
X59335Y-44606D01*
X58976Y-44606D02*
X59335Y-44606D01*
X59335Y-44606D02*
X59692Y-44606D01*
X57825Y-35952D02*
X57825Y-35522D01*
X57825Y-35522D02*
X57815Y-35512D01*
X57815Y-35512D02*
X57622Y-35512D01*
X57622Y-35512D02*
X57434Y-35512D01*
X57434Y-35512D02*
X57441Y-35519D01*
X57441Y-35519D02*
X57441Y-35935D01*
X57622Y-35512D02*
X57622Y-35059D01*
X58547Y-37126D02*
X58547Y-37067D01*
X58547Y-37067D02*
X58799Y-36815D01*
X58792Y-36568D02*
X58472Y-36568D01*
X58799Y-36815D02*
X58799Y-36575D01*
X58799Y-36575D02*
X58792Y-36568D01*
X59453Y-41212D02*
X60050Y-41212D01*
X60050Y-41212D02*
X60030Y-41211D01*
G54D114*
X60019Y-41212D02*
X60030Y-41211D01*
X60014Y-41400D02*
X60039Y-41437D01*
X60014Y-41400D02*
X59453Y-41400D01*
G54D115*
X59228Y-41114D02*
X59295Y-41114D01*
X59362Y-41020D02*
X59461Y-41020D01*
X59295Y-41114D02*
X59362Y-41020D01*
G54D11*
X59016Y-35740D02*
X58800Y-35740D01*
X58800Y-35740D02*
X58799Y-35741D01*
X59252Y-36247D02*
X59252Y-35748D01*
X59244Y-35740D02*
X59016Y-35740D01*
X59252Y-35748D02*
X59244Y-35740D01*
X58799Y-35741D02*
X58799Y-36221D01*
X59016Y-35305D02*
X59016Y-35740D01*
X59484Y-42477D02*
X59484Y-42772D01*
X59495Y-42783D02*
X59843Y-42783D01*
X59484Y-42772D02*
X59495Y-42783D01*
X59484Y-42477D02*
X59484Y-42388D01*
X59484Y-42388D02*
X59379Y-42283D01*
X59379Y-42283D02*
X58571Y-42283D01*
X58571Y-42283D02*
X58339Y-41984D01*
X58339Y-41984D02*
X58339Y-41713D01*
X58146Y-38330D02*
X58146Y-38224D01*
X58500Y-37870D02*
X58617Y-37870D01*
X58146Y-38224D02*
X58500Y-37870D01*
X58617Y-37870D02*
X58614Y-37867D01*
X58614Y-37867D02*
X58614Y-37712D01*
X58614Y-37712D02*
X58547Y-37645D01*
X58547Y-37645D02*
X58547Y-37480D01*
G54D112*
X56492Y-47343D02*
X55087Y-47343D01*
X57047Y-47480D02*
X56585Y-47480D01*
X56585Y-47480D02*
X56492Y-47343D01*
G54D108*
X55638Y-36756D02*
X55642Y-36760D01*
X57063Y-38555D02*
X57063Y-38554D01*
X57063Y-38554D02*
X57260Y-38554D01*
G54D109*
X59195Y-41730D02*
X59272Y-41807D01*
X59195Y-41730D02*
X59123Y-41730D01*
G54D108*
X59347Y-47051D02*
X59732Y-47051D01*
X59732Y-47051D02*
X59791Y-46992D01*
G54D114*
X59453Y-39048D02*
X59645Y-39048D01*
X59645Y-39048D02*
X59748Y-39020D01*
G54D108*
X57846Y-41505D02*
X57648Y-41505D01*
X57846Y-41505D02*
X58043Y-41505D01*
X58043Y-41505D02*
X58238Y-41505D01*
G54D11*
X59453Y-38852D02*
X59843Y-38854D01*
X59462Y-39236D02*
X59453Y-39245D01*
X59843Y-39240D02*
X59462Y-39236D01*
X59917Y-39173D02*
X59843Y-39240D01*
X59917Y-38929D02*
X59917Y-39173D01*
X59843Y-38854D02*
X59917Y-38929D01*
G54D115*
X59453Y-39245D02*
X59390Y-39217D01*
X59295Y-39217D02*
X59228Y-39145D01*
X59295Y-39217D02*
X59295Y-39217D01*
X59390Y-39217D02*
X59295Y-39217D01*
X59453Y-39442D02*
X59453Y-39445D01*
X59453Y-39445D02*
X59417Y-39481D01*
X59417Y-39481D02*
X59276Y-39481D01*
X59276Y-39481D02*
X59225Y-39500D01*
X59225Y-39500D02*
X59225Y-39551D01*
G54D114*
X59453Y-39245D02*
X59453Y-39442D01*
G54D109*
X56051Y-39243D02*
X55292Y-39243D01*
X55292Y-39243D02*
X55299Y-39236D01*
X55299Y-39236D02*
X55299Y-38929D01*
G54D11*
X57848Y-38554D02*
X57851Y-38554D01*
X57847Y-38555D02*
X57848Y-38554D01*
G54D115*
X58933Y-38232D02*
X58933Y-38330D01*
X58933Y-38232D02*
X59142Y-38126D01*
X59142Y-38126D02*
X59150Y-37972D01*
G54D11*
X56051Y-38652D02*
X55967Y-38652D01*
X55967Y-38652D02*
X55933Y-38618D01*
X55933Y-38618D02*
X55933Y-38528D01*
G54D108*
X56276Y-39736D02*
X56276Y-39735D01*
X56276Y-40327D02*
X56276Y-40326D01*
G54D11*
X56763Y-41730D02*
X56763Y-42056D01*
X56763Y-42056D02*
X56260Y-42559D01*
X56260Y-42559D02*
X56260Y-42953D01*
X59228Y-41311D02*
X59228Y-41312D01*
X55623Y-39637D02*
X55394Y-39638D01*
X56051Y-39637D02*
X55623Y-39637D01*
G54D115*
X56276Y-41110D02*
X56276Y-41113D01*
X56279Y-39932D02*
X56276Y-39932D01*
X56280Y-39933D02*
X56279Y-39932D01*
G54D11*
X56051Y-39046D02*
X55941Y-39047D01*
X55941Y-39047D02*
X55831Y-39047D01*
X55831Y-39047D02*
X55831Y-39047D01*
G54D115*
X56276Y-40916D02*
X56276Y-40914D01*
X56276Y-40130D02*
X56276Y-40129D01*
G54D11*
X56071Y-40032D02*
X55303Y-40032D01*
G54D115*
X56276Y-38748D02*
X56276Y-38751D01*
G54D11*
X55709Y-39441D02*
X56043Y-39441D01*
X55709Y-39441D02*
X55709Y-39445D01*
X56960Y-42064D02*
X56957Y-42059D01*
X56960Y-42064D02*
X56960Y-41730D01*
G54D108*
X56665Y-41504D02*
X56665Y-41505D01*
G54D114*
X59583Y-40622D02*
X59453Y-40622D01*
X59583Y-40622D02*
X59740Y-40740D01*
G54D115*
X59701Y-39835D02*
X59787Y-39870D01*
X59701Y-39835D02*
X59451Y-39835D01*
G54D11*
X55848Y-38849D02*
X55555Y-39028D01*
X56051Y-38849D02*
X55848Y-38849D01*
G54D115*
X56276Y-39540D02*
X56276Y-39538D01*
X56278Y-39341D02*
X56276Y-39341D01*
X56280Y-39343D02*
X56278Y-39341D01*
X56276Y-40717D02*
X56276Y-40719D01*
G54D108*
X56051Y-40227D02*
X55817Y-40227D01*
X55817Y-40227D02*
X55772Y-40232D01*
G54D11*
X55890Y-41016D02*
X56051Y-41015D01*
G54D113*
X55890Y-41016D02*
X55890Y-41016D01*
G54D11*
X55260Y-41209D02*
X56055Y-41209D01*
G54D113*
X55816Y-41407D02*
X55815Y-41406D01*
G54D11*
X56051Y-41407D02*
X55816Y-41407D01*
G54D115*
X56267Y-41505D02*
X56181Y-41591D01*
X56181Y-41591D02*
X55697Y-41591D01*
X55697Y-41591D02*
X55445Y-41846D01*
X56468Y-41505D02*
X56267Y-41505D01*
G54D11*
X56506Y-41937D02*
X56303Y-41937D01*
X56566Y-41877D02*
X56506Y-41937D01*
X56566Y-41877D02*
X56566Y-41730D01*
G54D115*
X56276Y-39138D02*
X56276Y-39144D01*
X56276Y-40524D02*
X56276Y-40522D01*
G54D11*
X59453Y-40228D02*
X59643Y-40228D01*
X59643Y-40228D02*
X59646Y-40225D01*
G54D115*
X59228Y-39737D02*
X59228Y-39732D01*
X51445Y-35418D02*
X51445Y-35929D01*
G54D113*
X56227Y-38554D02*
X55984Y-38311D01*
X55984Y-38311D02*
X55984Y-38016D01*
X56227Y-38554D02*
X56473Y-38554D01*
X56374Y-38177D02*
X56319Y-38122D01*
X56374Y-38177D02*
X56374Y-38330D01*
X56571Y-38134D02*
X56575Y-38130D01*
X56571Y-38134D02*
X56571Y-38330D01*
G54D115*
X56670Y-38554D02*
X56671Y-38554D01*
X56669Y-38555D02*
X56670Y-38554D01*
G54D110*
X60972Y-36531D02*
X61059Y-36417D01*
X59717Y-35299D02*
X59854Y-35323D01*
X59854Y-35323D02*
X59961Y-35413D01*
X59961Y-35413D02*
X60035Y-35539D01*
X60035Y-35539D02*
X60051Y-35693D01*
X60051Y-35693D02*
X60051Y-35988D01*
X60051Y-35988D02*
X60051Y-36394D01*
X60051Y-36394D02*
X60098Y-36520D01*
X60098Y-36520D02*
X60224Y-36618D01*
X60224Y-36618D02*
X60378Y-36642D01*
X60378Y-36642D02*
X60713Y-36642D01*
X60713Y-36642D02*
X60862Y-36606D01*
X60862Y-36606D02*
X60972Y-36531D01*
X59370Y-35299D02*
X59717Y-35299D01*
X61102Y-36264D02*
X61102Y-35959D01*
X61059Y-36417D02*
X61102Y-36264D01*
X57976Y-35059D02*
X58177Y-35062D01*
X61102Y-34681D02*
X61102Y-34799D01*
X60681Y-34417D02*
X60885Y-34421D01*
X60885Y-34421D02*
X61007Y-34468D01*
X61007Y-34468D02*
X61082Y-34566D01*
X61082Y-34566D02*
X61102Y-34681D01*
X60464Y-34429D02*
X60681Y-34417D01*
X59275Y-34736D02*
X59629Y-34555D01*
X59629Y-34555D02*
X59940Y-34468D01*
X59940Y-34468D02*
X60220Y-34440D01*
X60220Y-34440D02*
X60464Y-34429D01*
X58413Y-35059D02*
X58681Y-35011D01*
X58681Y-35011D02*
X58937Y-34921D01*
X58937Y-34921D02*
X59275Y-34736D01*
X58177Y-35062D02*
X58413Y-35059D01*
X58118Y-34433D02*
X58334Y-34433D01*
X61496Y-34649D02*
X61495Y-34799D01*
X60925Y-34212D02*
X61110Y-34228D01*
X61110Y-34228D02*
X61236Y-34255D01*
X61236Y-34255D02*
X61338Y-34322D01*
X61338Y-34322D02*
X61425Y-34421D01*
X61425Y-34421D02*
X61472Y-34507D01*
X61472Y-34507D02*
X61496Y-34649D01*
X59543Y-34216D02*
X60925Y-34212D01*
X58334Y-34433D02*
X58547Y-34405D01*
X58547Y-34405D02*
X58889Y-34318D01*
X58889Y-34318D02*
X59232Y-34244D01*
X59232Y-34244D02*
X59543Y-34216D01*
G54D115*
X59228Y-40722D02*
X59228Y-40721D01*
X58436Y-41507D02*
X58436Y-41505D01*
X58437Y-41508D02*
X58436Y-41507D01*
X58535Y-41972D02*
X58536Y-41973D01*
X58535Y-41972D02*
X58535Y-41730D01*
X58925Y-41953D02*
X58925Y-41756D01*
X59201Y-41953D02*
X59281Y-42067D01*
X58925Y-41953D02*
X59201Y-41953D01*
X58732Y-41969D02*
X58740Y-41969D01*
X58732Y-41969D02*
X58732Y-41713D01*
G54D110*
X59681Y-45031D02*
X59893Y-45031D01*
X62145Y-44251D02*
X62145Y-44421D01*
X62007Y-43992D02*
X62098Y-44098D01*
X62098Y-44098D02*
X62145Y-44251D01*
X61232Y-43885D02*
X61468Y-43858D01*
X61468Y-43858D02*
X61669Y-43858D01*
X61669Y-43858D02*
X61862Y-43917D01*
X61862Y-43917D02*
X62007Y-43992D01*
X59893Y-45031D02*
X60102Y-45007D01*
X60102Y-45007D02*
X60271Y-44960D01*
X60271Y-44960D02*
X60444Y-44850D01*
X60444Y-44850D02*
X60586Y-44665D01*
X60586Y-44665D02*
X60645Y-44425D01*
X60645Y-44425D02*
X60724Y-44224D01*
X60724Y-44224D02*
X60862Y-44051D01*
X60862Y-44051D02*
X61039Y-43956D01*
X61039Y-43956D02*
X61232Y-43885D01*
X62145Y-45208D02*
X62145Y-45377D01*
X58102Y-45799D02*
X57823Y-45799D01*
X59893Y-45472D02*
X59519Y-45472D01*
X59519Y-45472D02*
X59204Y-45511D01*
X59204Y-45511D02*
X58984Y-45570D01*
X58984Y-45570D02*
X58791Y-45685D01*
X58791Y-45685D02*
X58492Y-45767D01*
X58492Y-45767D02*
X58102Y-45799D01*
X60055Y-45472D02*
X59893Y-45472D01*
X61283Y-45870D02*
X61062Y-45842D01*
X61062Y-45842D02*
X60834Y-45732D01*
X60834Y-45732D02*
X60622Y-45618D01*
X60622Y-45618D02*
X60342Y-45500D01*
X60342Y-45500D02*
X60055Y-45472D01*
X61539Y-45870D02*
X61283Y-45870D01*
X62145Y-45377D02*
X62082Y-45574D01*
X62082Y-45574D02*
X61940Y-45720D01*
X61940Y-45720D02*
X61751Y-45826D01*
X61751Y-45826D02*
X61539Y-45870D01*
G54D112*
X57126Y-48292D02*
X56583Y-48292D01*
X56575Y-48311D02*
X56576Y-49079D01*
G54D107*
X51169Y-45063D02*
X51169Y-44827D01*
X51169Y-44827D02*
X51169Y-44827D01*
X51169Y-44827D02*
X51563Y-44827D01*
G54D111*
X51469Y-43937D02*
X51568Y-44036D01*
X51469Y-43372D02*
X51469Y-43937D01*
G54D10*
G36*
X66004Y-49508D02*
X63901Y-49508D01*
X63901Y-49000D01*
X63868Y-48920D01*
X63807Y-48860D01*
X63728Y-48826D01*
X63642Y-48826D01*
X63562Y-48859D01*
X63501Y-48920D01*
X63468Y-49000D01*
X63468Y-49086D01*
X63501Y-49165D01*
X63562Y-49226D01*
X63641Y-49259D01*
X63727Y-49259D01*
X63807Y-49226D01*
X63868Y-49166D01*
X63901Y-49086D01*
X63901Y-49000D01*
X63901Y-49508D01*
X63435Y-49508D01*
X63435Y-48272D01*
X63375Y-48128D01*
X63265Y-48017D01*
X63121Y-47958D01*
X62965Y-47957D01*
X62821Y-48017D01*
X62710Y-48127D01*
X62651Y-48271D01*
X62650Y-48427D01*
X62710Y-48571D01*
X62820Y-48682D01*
X62964Y-48741D01*
X63120Y-48742D01*
X63264Y-48682D01*
X63375Y-48572D01*
X63434Y-48428D01*
X63435Y-48272D01*
X63435Y-49508D01*
X62435Y-49508D01*
X62435Y-48272D01*
X62375Y-48128D01*
X62265Y-48017D01*
X62121Y-47958D01*
X61965Y-47957D01*
X61821Y-48017D01*
X61710Y-48127D01*
X61651Y-48271D01*
X61650Y-48427D01*
X61710Y-48571D01*
X61820Y-48682D01*
X61964Y-48741D01*
X62120Y-48742D01*
X62264Y-48682D01*
X62375Y-48572D01*
X62434Y-48428D01*
X62435Y-48272D01*
X62435Y-49508D01*
X60435Y-49508D01*
X60435Y-48272D01*
X60375Y-48128D01*
X60265Y-48017D01*
X60121Y-47958D01*
X60041Y-47957D01*
X60041Y-47130D01*
X60041Y-46816D01*
X60027Y-46782D01*
X60001Y-46755D01*
X59966Y-46741D01*
X59929Y-46741D01*
X59615Y-46741D01*
X59581Y-46755D01*
X59554Y-46781D01*
X59540Y-46816D01*
X59540Y-46853D01*
X59540Y-46899D01*
X59512Y-46899D01*
X59487Y-46874D01*
X59453Y-46860D01*
X59415Y-46859D01*
X59240Y-46859D01*
X59206Y-46874D01*
X59180Y-46900D01*
X59167Y-46932D01*
X59167Y-46734D01*
X59138Y-46663D01*
X59084Y-46610D01*
X59014Y-46581D01*
X58938Y-46580D01*
X58867Y-46609D01*
X58814Y-46663D01*
X58785Y-46733D01*
X58784Y-46809D01*
X58813Y-46880D01*
X58822Y-46888D01*
X58810Y-46900D01*
X58796Y-46934D01*
X58795Y-46972D01*
X58795Y-47167D01*
X58810Y-47201D01*
X58836Y-47227D01*
X58870Y-47241D01*
X58908Y-47242D01*
X59083Y-47242D01*
X59117Y-47227D01*
X59143Y-47201D01*
X59157Y-47167D01*
X59158Y-47129D01*
X59158Y-46934D01*
X59143Y-46900D01*
X59130Y-46887D01*
X59137Y-46880D01*
X59166Y-46810D01*
X59167Y-46734D01*
X59167Y-46932D01*
X59166Y-46934D01*
X59165Y-46972D01*
X59165Y-47167D01*
X59180Y-47201D01*
X59206Y-47227D01*
X59240Y-47241D01*
X59278Y-47242D01*
X59453Y-47242D01*
X59487Y-47227D01*
X59512Y-47203D01*
X59555Y-47203D01*
X59580Y-47228D01*
X59615Y-47242D01*
X59652Y-47242D01*
X59966Y-47242D01*
X60000Y-47228D01*
X60027Y-47202D01*
X60041Y-47167D01*
X60041Y-47130D01*
X60041Y-47957D01*
X59965Y-47957D01*
X59821Y-48017D01*
X59710Y-48127D01*
X59651Y-48271D01*
X59650Y-48427D01*
X59710Y-48571D01*
X59820Y-48682D01*
X59964Y-48741D01*
X60120Y-48742D01*
X60264Y-48682D01*
X60375Y-48572D01*
X60434Y-48428D01*
X60435Y-48272D01*
X60435Y-49508D01*
X59435Y-49508D01*
X59435Y-48609D01*
X59435Y-48012D01*
X59420Y-47978D01*
X59394Y-47952D01*
X59360Y-47938D01*
X59322Y-47937D01*
X58725Y-47937D01*
X58691Y-47952D01*
X58665Y-47978D01*
X58651Y-48012D01*
X58650Y-48050D01*
X58650Y-48647D01*
X58665Y-48681D01*
X58691Y-48707D01*
X58725Y-48721D01*
X58763Y-48722D01*
X59360Y-48722D01*
X59394Y-48707D01*
X59420Y-48681D01*
X59434Y-48647D01*
X59435Y-48609D01*
X59435Y-49508D01*
X57806Y-49508D01*
X57780Y-49497D01*
X57672Y-49497D01*
X57645Y-49508D01*
X57376Y-49508D01*
X57376Y-48292D01*
X57357Y-48196D01*
X57319Y-48138D01*
X57319Y-48108D01*
X57309Y-48084D01*
X57309Y-47638D01*
X57309Y-47324D01*
X57294Y-47290D01*
X57268Y-47263D01*
X57234Y-47249D01*
X57196Y-47249D01*
X57144Y-47249D01*
X57142Y-47248D01*
X57047Y-47229D01*
X56861Y-47229D01*
X56861Y-47132D01*
X56847Y-47098D01*
X56821Y-47071D01*
X56786Y-47057D01*
X56749Y-47057D01*
X56277Y-47057D01*
X56243Y-47071D01*
X56222Y-47092D01*
X55950Y-47092D01*
X55950Y-47014D01*
X55935Y-46979D01*
X55908Y-46952D01*
X55872Y-46937D01*
X55834Y-46937D01*
X54417Y-46937D01*
X54381Y-46952D01*
X54354Y-46979D01*
X54340Y-47014D01*
X54339Y-47053D01*
X54339Y-47603D01*
X54354Y-47638D01*
X54381Y-47665D01*
X54417Y-47680D01*
X54455Y-47680D01*
X55872Y-47680D01*
X55908Y-47665D01*
X55935Y-47638D01*
X55949Y-47603D01*
X55949Y-47593D01*
X56202Y-47593D01*
X56202Y-47679D01*
X56216Y-47713D01*
X56242Y-47740D01*
X56277Y-47754D01*
X56314Y-47754D01*
X56786Y-47754D01*
X56820Y-47740D01*
X56830Y-47730D01*
X56881Y-47730D01*
X56887Y-47736D01*
X56921Y-47750D01*
X56959Y-47750D01*
X57234Y-47750D01*
X57268Y-47736D01*
X57294Y-47710D01*
X57308Y-47675D01*
X57309Y-47638D01*
X57309Y-48084D01*
X57304Y-48074D01*
X57278Y-48047D01*
X57244Y-48033D01*
X57206Y-48033D01*
X56931Y-48033D01*
X56912Y-48041D01*
X56861Y-48041D01*
X56861Y-48036D01*
X56847Y-48002D01*
X56821Y-47975D01*
X56786Y-47961D01*
X56749Y-47961D01*
X56277Y-47961D01*
X56243Y-47975D01*
X56216Y-48001D01*
X56202Y-48036D01*
X56202Y-48073D01*
X56202Y-48583D01*
X56216Y-48617D01*
X56242Y-48644D01*
X56277Y-48658D01*
X56314Y-48658D01*
X56325Y-48658D01*
X56325Y-48775D01*
X56243Y-48856D01*
X56184Y-49000D01*
X56183Y-49156D01*
X56243Y-49300D01*
X56353Y-49411D01*
X56497Y-49470D01*
X56653Y-49471D01*
X56797Y-49411D01*
X56908Y-49301D01*
X56967Y-49157D01*
X56968Y-49001D01*
X56908Y-48857D01*
X56826Y-48774D01*
X56826Y-48639D01*
X56847Y-48618D01*
X56861Y-48583D01*
X56861Y-48546D01*
X56861Y-48542D01*
X57126Y-48542D01*
X57166Y-48534D01*
X57244Y-48534D01*
X57278Y-48520D01*
X57304Y-48494D01*
X57318Y-48459D01*
X57318Y-48445D01*
X57357Y-48387D01*
X57376Y-48292D01*
X57376Y-49508D01*
X57372Y-49508D01*
X57346Y-49497D01*
X57238Y-49497D01*
X57211Y-49508D01*
X56939Y-49508D01*
X56913Y-49497D01*
X56805Y-49497D01*
X56778Y-49508D01*
X56506Y-49508D01*
X56480Y-49497D01*
X56372Y-49497D01*
X56345Y-49508D01*
X54299Y-49508D01*
X54299Y-44205D01*
X54299Y-43674D01*
X54167Y-43587D01*
X54078Y-43587D01*
X54078Y-34808D01*
X54051Y-34745D01*
X54003Y-34697D01*
X53940Y-34671D01*
X53871Y-34670D01*
X53808Y-34697D01*
X53760Y-34745D01*
X53734Y-34808D01*
X53733Y-34877D01*
X53760Y-34940D01*
X53808Y-34988D01*
X53871Y-35014D01*
X53940Y-35015D01*
X54003Y-34988D01*
X54051Y-34940D01*
X54077Y-34877D01*
X54078Y-34808D01*
X54078Y-43587D01*
X53834Y-43587D01*
X53834Y-38520D01*
X53807Y-38457D01*
X53805Y-38455D01*
X53807Y-38452D01*
X53833Y-38389D01*
X53834Y-38320D01*
X53807Y-38257D01*
X53759Y-38209D01*
X53696Y-38183D01*
X53627Y-38182D01*
X53564Y-38209D01*
X53516Y-38257D01*
X53495Y-38308D01*
X53495Y-36418D01*
X53468Y-36355D01*
X53420Y-36307D01*
X53357Y-36281D01*
X53288Y-36280D01*
X53243Y-36299D01*
X53243Y-34827D01*
X53216Y-34764D01*
X53168Y-34716D01*
X53105Y-34690D01*
X53036Y-34689D01*
X52973Y-34716D01*
X52925Y-34764D01*
X52899Y-34827D01*
X52898Y-34896D01*
X52910Y-34923D01*
X52871Y-34922D01*
X52808Y-34949D01*
X52760Y-34997D01*
X52734Y-35060D01*
X52733Y-35129D01*
X52760Y-35192D01*
X52808Y-35240D01*
X52871Y-35266D01*
X52940Y-35267D01*
X53003Y-35240D01*
X53051Y-35192D01*
X53077Y-35129D01*
X53078Y-35060D01*
X53066Y-35033D01*
X53105Y-35034D01*
X53168Y-35007D01*
X53216Y-34959D01*
X53242Y-34896D01*
X53243Y-34827D01*
X53243Y-36299D01*
X53225Y-36307D01*
X53177Y-36355D01*
X53151Y-36418D01*
X53150Y-36487D01*
X53177Y-36550D01*
X53225Y-36598D01*
X53288Y-36624D01*
X53357Y-36625D01*
X53420Y-36598D01*
X53468Y-36550D01*
X53494Y-36487D01*
X53495Y-36418D01*
X53495Y-38308D01*
X53490Y-38320D01*
X53489Y-38389D01*
X53516Y-38452D01*
X53518Y-38454D01*
X53516Y-38457D01*
X53490Y-38520D01*
X53489Y-38589D01*
X53516Y-38652D01*
X53564Y-38700D01*
X53627Y-38726D01*
X53696Y-38727D01*
X53759Y-38700D01*
X53807Y-38652D01*
X53833Y-38589D01*
X53834Y-38520D01*
X53834Y-43587D01*
X53822Y-43587D01*
X53822Y-41501D01*
X53822Y-38946D01*
X53795Y-38883D01*
X53747Y-38835D01*
X53684Y-38809D01*
X53615Y-38808D01*
X53552Y-38835D01*
X53504Y-38883D01*
X53478Y-38946D01*
X53477Y-39015D01*
X53504Y-39078D01*
X53552Y-39126D01*
X53615Y-39152D01*
X53684Y-39153D01*
X53747Y-39126D01*
X53795Y-39078D01*
X53821Y-39015D01*
X53822Y-38946D01*
X53822Y-41501D01*
X53798Y-41443D01*
X53798Y-39335D01*
X53771Y-39272D01*
X53723Y-39224D01*
X53660Y-39198D01*
X53591Y-39197D01*
X53528Y-39224D01*
X53480Y-39272D01*
X53454Y-39335D01*
X53453Y-39404D01*
X53477Y-39460D01*
X53464Y-39473D01*
X53438Y-39536D01*
X53437Y-39605D01*
X53464Y-39668D01*
X53512Y-39716D01*
X53575Y-39742D01*
X53644Y-39743D01*
X53707Y-39716D01*
X53755Y-39668D01*
X53781Y-39605D01*
X53782Y-39536D01*
X53758Y-39480D01*
X53771Y-39467D01*
X53797Y-39404D01*
X53798Y-39335D01*
X53798Y-41443D01*
X53795Y-41438D01*
X53774Y-41416D01*
X53774Y-40524D01*
X53755Y-40478D01*
X53755Y-40166D01*
X53728Y-40103D01*
X53680Y-40055D01*
X53617Y-40029D01*
X53548Y-40028D01*
X53485Y-40055D01*
X53437Y-40103D01*
X53411Y-40166D01*
X53410Y-40235D01*
X53437Y-40298D01*
X53485Y-40346D01*
X53548Y-40372D01*
X53617Y-40373D01*
X53680Y-40346D01*
X53728Y-40298D01*
X53754Y-40235D01*
X53755Y-40166D01*
X53755Y-40478D01*
X53747Y-40461D01*
X53699Y-40413D01*
X53636Y-40387D01*
X53567Y-40386D01*
X53504Y-40413D01*
X53456Y-40461D01*
X53430Y-40524D01*
X53429Y-40593D01*
X53456Y-40656D01*
X53504Y-40704D01*
X53567Y-40730D01*
X53636Y-40731D01*
X53699Y-40704D01*
X53747Y-40656D01*
X53773Y-40593D01*
X53774Y-40524D01*
X53774Y-41416D01*
X53747Y-41390D01*
X53699Y-41370D01*
X53736Y-41333D01*
X53762Y-41270D01*
X53763Y-41201D01*
X53736Y-41138D01*
X53733Y-41135D01*
X53758Y-41074D01*
X53759Y-41005D01*
X53732Y-40942D01*
X53684Y-40894D01*
X53621Y-40868D01*
X53552Y-40867D01*
X53489Y-40894D01*
X53441Y-40942D01*
X53415Y-41005D01*
X53414Y-41074D01*
X53441Y-41137D01*
X53444Y-41140D01*
X53419Y-41201D01*
X53418Y-41270D01*
X53445Y-41333D01*
X53493Y-41381D01*
X53541Y-41401D01*
X53504Y-41438D01*
X53478Y-41501D01*
X53477Y-41570D01*
X53504Y-41633D01*
X53552Y-41681D01*
X53615Y-41707D01*
X53684Y-41708D01*
X53747Y-41681D01*
X53795Y-41633D01*
X53821Y-41570D01*
X53822Y-41501D01*
X53822Y-43587D01*
X53751Y-43587D01*
X53751Y-42087D01*
X53724Y-42024D01*
X53723Y-42023D01*
X53724Y-42022D01*
X53750Y-41959D01*
X53751Y-41890D01*
X53724Y-41827D01*
X53676Y-41779D01*
X53613Y-41753D01*
X53544Y-41752D01*
X53481Y-41779D01*
X53433Y-41827D01*
X53407Y-41890D01*
X53406Y-41959D01*
X53433Y-42022D01*
X53434Y-42023D01*
X53433Y-42024D01*
X53407Y-42087D01*
X53406Y-42156D01*
X53433Y-42219D01*
X53481Y-42267D01*
X53544Y-42293D01*
X53613Y-42294D01*
X53676Y-42267D01*
X53724Y-42219D01*
X53750Y-42156D01*
X53751Y-42087D01*
X53751Y-43587D01*
X53328Y-43587D01*
X53099Y-43768D01*
X53062Y-43768D01*
X53102Y-43728D01*
X53131Y-43658D01*
X53132Y-43582D01*
X53103Y-43511D01*
X53049Y-43458D01*
X53042Y-43455D01*
X53042Y-37292D01*
X53042Y-36717D01*
X53015Y-36654D01*
X52967Y-36606D01*
X52904Y-36580D01*
X52835Y-36579D01*
X52772Y-36606D01*
X52724Y-36654D01*
X52698Y-36717D01*
X52697Y-36786D01*
X52724Y-36849D01*
X52772Y-36897D01*
X52835Y-36923D01*
X52904Y-36924D01*
X52967Y-36897D01*
X53015Y-36849D01*
X53041Y-36786D01*
X53042Y-36717D01*
X53042Y-37292D01*
X53015Y-37229D01*
X52967Y-37181D01*
X52904Y-37155D01*
X52835Y-37154D01*
X52772Y-37181D01*
X52724Y-37229D01*
X52698Y-37292D01*
X52697Y-37343D01*
X52680Y-37336D01*
X52611Y-37335D01*
X52548Y-37362D01*
X52500Y-37410D01*
X52474Y-37473D01*
X52473Y-37542D01*
X52500Y-37605D01*
X52548Y-37653D01*
X52551Y-37655D01*
X52508Y-37654D01*
X52445Y-37681D01*
X52397Y-37729D01*
X52371Y-37792D01*
X52370Y-37861D01*
X52397Y-37924D01*
X52445Y-37972D01*
X52486Y-37989D01*
X52481Y-37989D01*
X52418Y-38016D01*
X52370Y-38064D01*
X52365Y-38077D01*
X52365Y-35855D01*
X52338Y-35792D01*
X52290Y-35744D01*
X52227Y-35718D01*
X52170Y-35717D01*
X52170Y-31643D01*
X52114Y-31506D01*
X52009Y-31402D01*
X51873Y-31345D01*
X51725Y-31345D01*
X51588Y-31401D01*
X51484Y-31506D01*
X51427Y-31642D01*
X51427Y-31790D01*
X51483Y-31927D01*
X51588Y-32031D01*
X51724Y-32088D01*
X51872Y-32088D01*
X52009Y-32032D01*
X52113Y-31927D01*
X52170Y-31791D01*
X52170Y-31643D01*
X52170Y-35717D01*
X52158Y-35717D01*
X52095Y-35744D01*
X52047Y-35792D01*
X52021Y-35855D01*
X52020Y-35924D01*
X52047Y-35987D01*
X52095Y-36035D01*
X52158Y-36061D01*
X52227Y-36062D01*
X52290Y-36035D01*
X52338Y-35987D01*
X52364Y-35924D01*
X52365Y-35855D01*
X52365Y-38077D01*
X52344Y-38127D01*
X52343Y-38196D01*
X52370Y-38259D01*
X52418Y-38307D01*
X52481Y-38333D01*
X52550Y-38334D01*
X52613Y-38307D01*
X52661Y-38259D01*
X52687Y-38196D01*
X52688Y-38127D01*
X52661Y-38064D01*
X52613Y-38016D01*
X52572Y-37999D01*
X52577Y-37999D01*
X52640Y-37972D01*
X52688Y-37924D01*
X52714Y-37861D01*
X52715Y-37792D01*
X52688Y-37729D01*
X52640Y-37681D01*
X52637Y-37679D01*
X52680Y-37680D01*
X52743Y-37653D01*
X52791Y-37605D01*
X52817Y-37542D01*
X52818Y-37491D01*
X52835Y-37498D01*
X52904Y-37499D01*
X52967Y-37472D01*
X53015Y-37424D01*
X53041Y-37361D01*
X53042Y-37292D01*
X53042Y-43455D01*
X52979Y-43429D01*
X52934Y-43428D01*
X52935Y-43386D01*
X52906Y-43315D01*
X52852Y-43262D01*
X52782Y-43233D01*
X52707Y-43232D01*
X52707Y-41697D01*
X52680Y-41634D01*
X52637Y-41590D01*
X52637Y-41008D01*
X52610Y-40945D01*
X52574Y-40908D01*
X52574Y-39780D01*
X52558Y-39742D01*
X52558Y-39146D01*
X52538Y-39098D01*
X52538Y-38737D01*
X52511Y-38674D01*
X52463Y-38626D01*
X52400Y-38600D01*
X52331Y-38599D01*
X52268Y-38626D01*
X52220Y-38674D01*
X52194Y-38737D01*
X52193Y-38806D01*
X52220Y-38869D01*
X52268Y-38917D01*
X52331Y-38943D01*
X52400Y-38944D01*
X52463Y-38917D01*
X52511Y-38869D01*
X52537Y-38806D01*
X52538Y-38737D01*
X52538Y-39098D01*
X52531Y-39083D01*
X52483Y-39035D01*
X52420Y-39009D01*
X52351Y-39008D01*
X52288Y-39035D01*
X52240Y-39083D01*
X52214Y-39146D01*
X52213Y-39215D01*
X52240Y-39278D01*
X52288Y-39326D01*
X52351Y-39352D01*
X52420Y-39353D01*
X52483Y-39326D01*
X52531Y-39278D01*
X52557Y-39215D01*
X52558Y-39146D01*
X52558Y-39742D01*
X52547Y-39717D01*
X52499Y-39669D01*
X52436Y-39643D01*
X52367Y-39642D01*
X52304Y-39669D01*
X52256Y-39717D01*
X52230Y-39780D01*
X52229Y-39843D01*
X52197Y-39843D01*
X52167Y-39856D01*
X52167Y-36574D01*
X52167Y-36379D01*
X52152Y-36345D01*
X52126Y-36319D01*
X52092Y-36305D01*
X52054Y-36304D01*
X51859Y-36304D01*
X51841Y-36312D01*
X51841Y-35253D01*
X51814Y-35190D01*
X51766Y-35142D01*
X51703Y-35116D01*
X51636Y-35115D01*
X51636Y-35104D01*
X51636Y-34929D01*
X51621Y-34895D01*
X51597Y-34870D01*
X51597Y-34552D01*
X51592Y-34530D01*
X51588Y-34501D01*
X51586Y-34497D01*
X51585Y-34493D01*
X51573Y-34476D01*
X51558Y-34450D01*
X51360Y-34229D01*
X51360Y-34206D01*
X51331Y-34135D01*
X51277Y-34082D01*
X51207Y-34053D01*
X51131Y-34052D01*
X51060Y-34081D01*
X51007Y-34135D01*
X50978Y-34205D01*
X50977Y-34281D01*
X51006Y-34352D01*
X51060Y-34405D01*
X51130Y-34434D01*
X51136Y-34434D01*
X51293Y-34609D01*
X51293Y-34870D01*
X51268Y-34895D01*
X51254Y-34929D01*
X51253Y-34967D01*
X51253Y-35142D01*
X51268Y-35176D01*
X51294Y-35202D01*
X51328Y-35216D01*
X51366Y-35217D01*
X51512Y-35217D01*
X51508Y-35224D01*
X51328Y-35224D01*
X51294Y-35239D01*
X51268Y-35265D01*
X51254Y-35299D01*
X51253Y-35337D01*
X51253Y-35512D01*
X51268Y-35546D01*
X51294Y-35572D01*
X51328Y-35586D01*
X51332Y-35586D01*
X51332Y-35798D01*
X51299Y-35831D01*
X51273Y-35894D01*
X51272Y-35963D01*
X51299Y-36026D01*
X51347Y-36074D01*
X51410Y-36100D01*
X51479Y-36101D01*
X51542Y-36074D01*
X51590Y-36026D01*
X51616Y-35963D01*
X51617Y-35894D01*
X51590Y-35831D01*
X51558Y-35798D01*
X51558Y-35587D01*
X51561Y-35587D01*
X51595Y-35572D01*
X51621Y-35546D01*
X51635Y-35512D01*
X51636Y-35474D01*
X51636Y-35459D01*
X51703Y-35460D01*
X51766Y-35433D01*
X51814Y-35385D01*
X51840Y-35322D01*
X51841Y-35253D01*
X51841Y-36312D01*
X51831Y-36316D01*
X51829Y-36315D01*
X51766Y-36289D01*
X51697Y-36288D01*
X51634Y-36315D01*
X51586Y-36363D01*
X51560Y-36426D01*
X51559Y-36495D01*
X51586Y-36558D01*
X51634Y-36606D01*
X51697Y-36632D01*
X51766Y-36633D01*
X51789Y-36623D01*
X51799Y-36646D01*
X51825Y-36672D01*
X51859Y-36686D01*
X51897Y-36687D01*
X52092Y-36687D01*
X52126Y-36672D01*
X52152Y-36646D01*
X52166Y-36612D01*
X52167Y-36574D01*
X52167Y-39856D01*
X52134Y-39870D01*
X52086Y-39918D01*
X52060Y-39981D01*
X52059Y-40050D01*
X52086Y-40113D01*
X52134Y-40161D01*
X52197Y-40187D01*
X52266Y-40188D01*
X52329Y-40161D01*
X52377Y-40113D01*
X52403Y-40050D01*
X52404Y-39987D01*
X52436Y-39987D01*
X52499Y-39960D01*
X52547Y-39912D01*
X52573Y-39849D01*
X52574Y-39780D01*
X52574Y-40908D01*
X52562Y-40897D01*
X52499Y-40871D01*
X52447Y-40870D01*
X52448Y-40812D01*
X52421Y-40749D01*
X52377Y-40705D01*
X52384Y-40688D01*
X52385Y-40619D01*
X52358Y-40556D01*
X52343Y-40540D01*
X52345Y-40539D01*
X52393Y-40491D01*
X52419Y-40428D01*
X52420Y-40359D01*
X52393Y-40296D01*
X52345Y-40248D01*
X52282Y-40222D01*
X52213Y-40221D01*
X52150Y-40248D01*
X52102Y-40296D01*
X52076Y-40359D01*
X52075Y-40428D01*
X52102Y-40491D01*
X52117Y-40507D01*
X52115Y-40508D01*
X52067Y-40556D01*
X52041Y-40619D01*
X52040Y-40688D01*
X52067Y-40751D01*
X52111Y-40795D01*
X52104Y-40812D01*
X52103Y-40881D01*
X52130Y-40944D01*
X52178Y-40992D01*
X52241Y-41018D01*
X52293Y-41019D01*
X52292Y-41077D01*
X52319Y-41140D01*
X52367Y-41188D01*
X52430Y-41214D01*
X52499Y-41215D01*
X52562Y-41188D01*
X52610Y-41140D01*
X52636Y-41077D01*
X52637Y-41008D01*
X52637Y-41590D01*
X52632Y-41586D01*
X52569Y-41560D01*
X52500Y-41559D01*
X52437Y-41586D01*
X52389Y-41634D01*
X52363Y-41697D01*
X52362Y-41766D01*
X52389Y-41829D01*
X52437Y-41877D01*
X52500Y-41903D01*
X52569Y-41904D01*
X52632Y-41877D01*
X52680Y-41829D01*
X52706Y-41766D01*
X52707Y-41697D01*
X52707Y-43232D01*
X52706Y-43232D01*
X52635Y-43261D01*
X52582Y-43315D01*
X52566Y-43353D01*
X52551Y-43315D01*
X52497Y-43262D01*
X52427Y-43233D01*
X52351Y-43232D01*
X52290Y-43258D01*
X52290Y-42319D01*
X52263Y-42256D01*
X52215Y-42208D01*
X52152Y-42182D01*
X52083Y-42181D01*
X52020Y-42208D01*
X52017Y-42211D01*
X52014Y-42209D01*
X51951Y-42183D01*
X51924Y-42183D01*
X51924Y-40713D01*
X51900Y-40655D01*
X51900Y-37205D01*
X51873Y-37142D01*
X51829Y-37098D01*
X51873Y-37054D01*
X51899Y-36991D01*
X51900Y-36922D01*
X51873Y-36859D01*
X51825Y-36811D01*
X51762Y-36785D01*
X51693Y-36784D01*
X51630Y-36811D01*
X51582Y-36859D01*
X51556Y-36922D01*
X51555Y-36991D01*
X51582Y-37054D01*
X51626Y-37098D01*
X51582Y-37142D01*
X51556Y-37205D01*
X51555Y-37274D01*
X51582Y-37337D01*
X51615Y-37370D01*
X51575Y-37410D01*
X51549Y-37473D01*
X51548Y-37542D01*
X51575Y-37605D01*
X51623Y-37653D01*
X51686Y-37679D01*
X51755Y-37680D01*
X51818Y-37653D01*
X51866Y-37605D01*
X51892Y-37542D01*
X51893Y-37473D01*
X51866Y-37410D01*
X51833Y-37377D01*
X51873Y-37337D01*
X51899Y-37274D01*
X51900Y-37205D01*
X51900Y-40655D01*
X51897Y-40650D01*
X51889Y-40641D01*
X51889Y-37957D01*
X51862Y-37894D01*
X51814Y-37846D01*
X51751Y-37820D01*
X51682Y-37819D01*
X51619Y-37846D01*
X51571Y-37894D01*
X51545Y-37957D01*
X51544Y-38026D01*
X51571Y-38089D01*
X51619Y-38137D01*
X51682Y-38163D01*
X51751Y-38164D01*
X51814Y-38137D01*
X51862Y-38089D01*
X51888Y-38026D01*
X51889Y-37957D01*
X51889Y-40641D01*
X51849Y-40602D01*
X51786Y-40576D01*
X51717Y-40575D01*
X51654Y-40602D01*
X51606Y-40650D01*
X51580Y-40713D01*
X51579Y-40782D01*
X51606Y-40845D01*
X51654Y-40893D01*
X51717Y-40919D01*
X51786Y-40920D01*
X51849Y-40893D01*
X51897Y-40845D01*
X51923Y-40782D01*
X51924Y-40713D01*
X51924Y-42183D01*
X51882Y-42182D01*
X51819Y-42209D01*
X51777Y-42251D01*
X51735Y-42209D01*
X51672Y-42183D01*
X51603Y-42182D01*
X51540Y-42209D01*
X51518Y-42231D01*
X51495Y-42209D01*
X51432Y-42183D01*
X51363Y-42182D01*
X51300Y-42209D01*
X51263Y-42246D01*
X51263Y-40914D01*
X51236Y-40851D01*
X51188Y-40803D01*
X51125Y-40777D01*
X51056Y-40776D01*
X50993Y-40803D01*
X50945Y-40851D01*
X50919Y-40914D01*
X50918Y-40983D01*
X50945Y-41046D01*
X50993Y-41094D01*
X51056Y-41120D01*
X51125Y-41121D01*
X51188Y-41094D01*
X51236Y-41046D01*
X51262Y-40983D01*
X51263Y-40914D01*
X51263Y-42246D01*
X51252Y-42257D01*
X51226Y-42320D01*
X51225Y-42389D01*
X51252Y-42452D01*
X51300Y-42500D01*
X51363Y-42526D01*
X51432Y-42527D01*
X51495Y-42500D01*
X51517Y-42478D01*
X51540Y-42500D01*
X51603Y-42526D01*
X51672Y-42527D01*
X51735Y-42500D01*
X51777Y-42458D01*
X51819Y-42500D01*
X51882Y-42526D01*
X51951Y-42527D01*
X52014Y-42500D01*
X52017Y-42497D01*
X52020Y-42499D01*
X52083Y-42525D01*
X52152Y-42526D01*
X52215Y-42499D01*
X52263Y-42451D01*
X52289Y-42388D01*
X52290Y-42319D01*
X52290Y-43258D01*
X52280Y-43261D01*
X52227Y-43315D01*
X52198Y-43385D01*
X52197Y-43429D01*
X52194Y-43429D01*
X52123Y-43458D01*
X52070Y-43512D01*
X52041Y-43582D01*
X52040Y-43658D01*
X52069Y-43729D01*
X52109Y-43768D01*
X52047Y-43768D01*
X52055Y-44531D01*
X52123Y-44531D01*
X52123Y-44554D01*
X52123Y-45026D01*
X52137Y-45060D01*
X52163Y-45087D01*
X52198Y-45101D01*
X52235Y-45101D01*
X52650Y-45101D01*
X52702Y-45153D01*
X52772Y-45182D01*
X52848Y-45183D01*
X52919Y-45154D01*
X52971Y-45101D01*
X53213Y-45101D01*
X53247Y-45087D01*
X53273Y-45061D01*
X53287Y-45026D01*
X53288Y-44989D01*
X53288Y-44951D01*
X53297Y-44906D01*
X53288Y-44860D01*
X53288Y-44675D01*
X53273Y-44641D01*
X53247Y-44614D01*
X53213Y-44600D01*
X53175Y-44600D01*
X52900Y-44600D01*
X52866Y-44614D01*
X52840Y-44640D01*
X52826Y-44675D01*
X52825Y-44712D01*
X52825Y-44715D01*
X52820Y-44715D01*
X52820Y-44531D01*
X53932Y-44531D01*
X54299Y-44205D01*
X54299Y-49508D01*
X54280Y-49508D01*
X53580Y-49508D01*
X53587Y-49491D01*
X53587Y-49452D01*
X53587Y-46854D01*
X53572Y-46819D01*
X53545Y-46792D01*
X53510Y-46777D01*
X53471Y-46777D01*
X52966Y-46777D01*
X52966Y-45355D01*
X52937Y-45285D01*
X52883Y-45231D01*
X52813Y-45202D01*
X52737Y-45202D01*
X52667Y-45231D01*
X52613Y-45285D01*
X52584Y-45355D01*
X52584Y-45431D01*
X52613Y-45501D01*
X52667Y-45555D01*
X52737Y-45584D01*
X52813Y-45584D01*
X52883Y-45555D01*
X52937Y-45502D01*
X52966Y-45431D01*
X52966Y-45355D01*
X52966Y-46777D01*
X52946Y-46777D01*
X52946Y-45769D01*
X52917Y-45699D01*
X52864Y-45645D01*
X52794Y-45616D01*
X52718Y-45616D01*
X52647Y-45645D01*
X52594Y-45698D01*
X52564Y-45768D01*
X52564Y-45844D01*
X52593Y-45915D01*
X52647Y-45968D01*
X52717Y-45998D01*
X52793Y-45998D01*
X52863Y-45969D01*
X52917Y-45915D01*
X52946Y-45845D01*
X52946Y-45769D01*
X52946Y-46777D01*
X52553Y-46777D01*
X52553Y-45907D01*
X52524Y-45836D01*
X52470Y-45783D01*
X52400Y-45753D01*
X52324Y-45753D01*
X52254Y-45782D01*
X52200Y-45836D01*
X52179Y-45887D01*
X52179Y-45749D01*
X52159Y-45701D01*
X52159Y-45355D01*
X52130Y-45285D01*
X52076Y-45231D01*
X52019Y-45208D01*
X52006Y-45202D01*
X51998Y-45202D01*
X52019Y-45180D01*
X52015Y-43071D01*
X51870Y-42996D01*
X51200Y-42996D01*
X51106Y-43090D01*
X51106Y-44424D01*
X50882Y-44649D01*
X50882Y-45090D01*
X51058Y-45271D01*
X51820Y-45271D01*
X51806Y-45285D01*
X51777Y-45355D01*
X51777Y-45431D01*
X51806Y-45501D01*
X51860Y-45555D01*
X51930Y-45584D01*
X52006Y-45584D01*
X52019Y-45579D01*
X52076Y-45555D01*
X52130Y-45502D01*
X52159Y-45431D01*
X52159Y-45355D01*
X52159Y-45701D01*
X52150Y-45679D01*
X52096Y-45625D01*
X52026Y-45596D01*
X52019Y-45596D01*
X51950Y-45596D01*
X51880Y-45625D01*
X51826Y-45679D01*
X51797Y-45749D01*
X51797Y-45825D01*
X51826Y-45895D01*
X51879Y-45949D01*
X51950Y-45978D01*
X52019Y-45978D01*
X52026Y-45978D01*
X52096Y-45949D01*
X52150Y-45895D01*
X52179Y-45825D01*
X52179Y-45749D01*
X52179Y-45887D01*
X52171Y-45906D01*
X52171Y-45982D01*
X52200Y-46052D01*
X52253Y-46106D01*
X52324Y-46135D01*
X52400Y-46135D01*
X52470Y-46106D01*
X52524Y-46053D01*
X52553Y-45983D01*
X52553Y-45907D01*
X52553Y-46777D01*
X52019Y-46777D01*
X51031Y-46777D01*
X50996Y-46792D01*
X50969Y-46819D01*
X50954Y-46854D01*
X50954Y-46893D01*
X50954Y-49491D01*
X50961Y-49508D01*
X50089Y-49508D01*
X50089Y-36977D01*
X50062Y-36914D01*
X50014Y-36866D01*
X49951Y-36840D01*
X49920Y-36840D01*
X49920Y-36190D01*
X49893Y-36127D01*
X49845Y-36079D01*
X49782Y-36053D01*
X49713Y-36052D01*
X49650Y-36079D01*
X49602Y-36127D01*
X49576Y-36190D01*
X49575Y-36259D01*
X49602Y-36322D01*
X49602Y-36322D01*
X49598Y-36327D01*
X49572Y-36390D01*
X49571Y-36459D01*
X49598Y-36522D01*
X49646Y-36570D01*
X49709Y-36596D01*
X49778Y-36597D01*
X49841Y-36570D01*
X49889Y-36522D01*
X49915Y-36459D01*
X49916Y-36390D01*
X49889Y-36327D01*
X49889Y-36327D01*
X49893Y-36322D01*
X49919Y-36259D01*
X49920Y-36190D01*
X49920Y-36840D01*
X49882Y-36839D01*
X49819Y-36866D01*
X49771Y-36914D01*
X49745Y-36977D01*
X49744Y-37046D01*
X49763Y-37091D01*
X49731Y-37059D01*
X49668Y-37033D01*
X49599Y-37032D01*
X49536Y-37059D01*
X49488Y-37107D01*
X49462Y-37170D01*
X49461Y-37239D01*
X49481Y-37286D01*
X49451Y-37256D01*
X49428Y-37246D01*
X49428Y-35993D01*
X49401Y-35930D01*
X49353Y-35882D01*
X49290Y-35856D01*
X49221Y-35855D01*
X49158Y-35882D01*
X49110Y-35930D01*
X49084Y-35993D01*
X49083Y-36062D01*
X49110Y-36125D01*
X49158Y-36173D01*
X49221Y-36199D01*
X49290Y-36200D01*
X49353Y-36173D01*
X49401Y-36125D01*
X49427Y-36062D01*
X49428Y-35993D01*
X49428Y-37246D01*
X49388Y-37230D01*
X49319Y-37229D01*
X49256Y-37256D01*
X49208Y-37304D01*
X49182Y-37367D01*
X49181Y-37436D01*
X49208Y-37499D01*
X49256Y-37547D01*
X49319Y-37573D01*
X49388Y-37574D01*
X49451Y-37547D01*
X49499Y-37499D01*
X49525Y-37436D01*
X49526Y-37367D01*
X49506Y-37320D01*
X49536Y-37350D01*
X49599Y-37376D01*
X49668Y-37377D01*
X49731Y-37350D01*
X49779Y-37302D01*
X49805Y-37239D01*
X49806Y-37170D01*
X49787Y-37125D01*
X49819Y-37157D01*
X49882Y-37183D01*
X49951Y-37184D01*
X50014Y-37157D01*
X50062Y-37109D01*
X50088Y-37046D01*
X50089Y-36977D01*
X50089Y-49508D01*
X49707Y-49508D01*
X49707Y-42583D01*
X49680Y-42520D01*
X49632Y-42472D01*
X49569Y-42446D01*
X49500Y-42445D01*
X49437Y-42472D01*
X49389Y-42520D01*
X49363Y-42583D01*
X49362Y-42652D01*
X49389Y-42715D01*
X49437Y-42763D01*
X49500Y-42789D01*
X49569Y-42790D01*
X49632Y-42763D01*
X49680Y-42715D01*
X49706Y-42652D01*
X49707Y-42583D01*
X49707Y-49508D01*
X49230Y-49508D01*
X49230Y-43221D01*
X49207Y-43165D01*
X49164Y-43123D01*
X49109Y-43099D01*
X49048Y-43099D01*
X48992Y-43123D01*
X48949Y-43165D01*
X48926Y-43221D01*
X48926Y-43282D01*
X48949Y-43337D01*
X48992Y-43380D01*
X49048Y-43403D01*
X49108Y-43403D01*
X49164Y-43380D01*
X49207Y-43338D01*
X49230Y-43282D01*
X49230Y-43221D01*
X49230Y-49508D01*
X49052Y-49508D01*
X49052Y-45049D01*
X49023Y-44978D01*
X48969Y-44925D01*
X48899Y-44896D01*
X48823Y-44895D01*
X48763Y-44920D01*
X48763Y-31106D01*
X48730Y-31027D01*
X48669Y-30966D01*
X48590Y-30933D01*
X48504Y-30933D01*
X48424Y-30966D01*
X48363Y-31026D01*
X48330Y-31106D01*
X48330Y-31192D01*
X48363Y-31271D01*
X48424Y-31332D01*
X48504Y-31365D01*
X48590Y-31365D01*
X48669Y-31333D01*
X48730Y-31272D01*
X48763Y-31192D01*
X48763Y-31106D01*
X48763Y-44920D01*
X48752Y-44924D01*
X48723Y-44954D01*
X48723Y-37535D01*
X48723Y-37340D01*
X48708Y-37306D01*
X48695Y-37293D01*
X48708Y-37280D01*
X48722Y-37246D01*
X48723Y-37208D01*
X48723Y-37013D01*
X48708Y-36979D01*
X48682Y-36953D01*
X48648Y-36939D01*
X48610Y-36938D01*
X48415Y-36938D01*
X48381Y-36953D01*
X48355Y-36979D01*
X48341Y-37013D01*
X48340Y-37051D01*
X48340Y-37083D01*
X48322Y-37090D01*
X48290Y-37059D01*
X48227Y-37033D01*
X48158Y-37032D01*
X48095Y-37059D01*
X48047Y-37107D01*
X48021Y-37170D01*
X48020Y-37239D01*
X48039Y-37284D01*
X48019Y-37304D01*
X47993Y-37367D01*
X47992Y-37436D01*
X48019Y-37499D01*
X48067Y-37547D01*
X48130Y-37573D01*
X48199Y-37574D01*
X48262Y-37547D01*
X48293Y-37516D01*
X48340Y-37528D01*
X48340Y-37573D01*
X48355Y-37607D01*
X48381Y-37633D01*
X48415Y-37647D01*
X48453Y-37648D01*
X48648Y-37648D01*
X48682Y-37633D01*
X48708Y-37607D01*
X48722Y-37573D01*
X48723Y-37535D01*
X48723Y-44954D01*
X48703Y-44974D01*
X48654Y-44925D01*
X48584Y-44896D01*
X48508Y-44895D01*
X48437Y-44924D01*
X48388Y-44974D01*
X48369Y-44954D01*
X48369Y-41697D01*
X48342Y-41634D01*
X48294Y-41586D01*
X48231Y-41560D01*
X48162Y-41559D01*
X48099Y-41586D01*
X48051Y-41634D01*
X48025Y-41697D01*
X48024Y-41766D01*
X48051Y-41829D01*
X48099Y-41877D01*
X48162Y-41903D01*
X48231Y-41904D01*
X48294Y-41877D01*
X48342Y-41829D01*
X48368Y-41766D01*
X48369Y-41697D01*
X48369Y-44954D01*
X48353Y-44938D01*
X48353Y-42095D01*
X48326Y-42032D01*
X48278Y-41984D01*
X48215Y-41958D01*
X48146Y-41957D01*
X48083Y-41984D01*
X48035Y-42032D01*
X48009Y-42095D01*
X48008Y-42164D01*
X48034Y-42226D01*
X48027Y-42233D01*
X48001Y-42296D01*
X48000Y-42365D01*
X48027Y-42428D01*
X48075Y-42476D01*
X48138Y-42502D01*
X48207Y-42503D01*
X48270Y-42476D01*
X48318Y-42428D01*
X48344Y-42365D01*
X48345Y-42296D01*
X48319Y-42234D01*
X48326Y-42227D01*
X48352Y-42164D01*
X48353Y-42095D01*
X48353Y-44938D01*
X48339Y-44925D01*
X48326Y-44919D01*
X48326Y-42690D01*
X48299Y-42627D01*
X48251Y-42579D01*
X48188Y-42553D01*
X48119Y-42552D01*
X48056Y-42579D01*
X48008Y-42627D01*
X47982Y-42690D01*
X47981Y-42759D01*
X48008Y-42822D01*
X48056Y-42870D01*
X48119Y-42896D01*
X48188Y-42897D01*
X48251Y-42870D01*
X48299Y-42822D01*
X48325Y-42759D01*
X48326Y-42690D01*
X48326Y-44919D01*
X48269Y-44896D01*
X48193Y-44895D01*
X48122Y-44924D01*
X48069Y-44978D01*
X48040Y-45048D01*
X48039Y-45124D01*
X48068Y-45195D01*
X48122Y-45248D01*
X48192Y-45277D01*
X48268Y-45278D01*
X48339Y-45249D01*
X48388Y-45199D01*
X48437Y-45248D01*
X48507Y-45277D01*
X48583Y-45278D01*
X48654Y-45249D01*
X48703Y-45199D01*
X48752Y-45248D01*
X48822Y-45277D01*
X48898Y-45278D01*
X48969Y-45249D01*
X49022Y-45195D01*
X49051Y-45125D01*
X49052Y-45049D01*
X49052Y-49508D01*
X47972Y-49508D01*
X47972Y-44444D01*
X47995Y-44389D01*
X47995Y-44281D01*
X47972Y-44225D01*
X47972Y-44011D01*
X47995Y-43956D01*
X47995Y-43848D01*
X47972Y-43792D01*
X47972Y-43578D01*
X47995Y-43523D01*
X47995Y-43415D01*
X47972Y-43359D01*
X47972Y-41282D01*
X47977Y-41287D01*
X48040Y-41313D01*
X48109Y-41314D01*
X48172Y-41287D01*
X48220Y-41239D01*
X48246Y-41176D01*
X48247Y-41116D01*
X48298Y-41094D01*
X48346Y-41046D01*
X48372Y-40983D01*
X48373Y-40914D01*
X48373Y-39733D01*
X48369Y-39724D01*
X48369Y-39335D01*
X48342Y-39272D01*
X48294Y-39224D01*
X48231Y-39198D01*
X48162Y-39197D01*
X48099Y-39224D01*
X48051Y-39272D01*
X48025Y-39335D01*
X48024Y-39404D01*
X48051Y-39467D01*
X48099Y-39515D01*
X48162Y-39541D01*
X48231Y-39542D01*
X48294Y-39515D01*
X48342Y-39467D01*
X48368Y-39404D01*
X48369Y-39335D01*
X48369Y-39724D01*
X48346Y-39670D01*
X48298Y-39622D01*
X48235Y-39596D01*
X48166Y-39595D01*
X48103Y-39622D01*
X48055Y-39670D01*
X48029Y-39733D01*
X48028Y-39802D01*
X48051Y-39855D01*
X48039Y-39867D01*
X48013Y-39930D01*
X48012Y-39999D01*
X48039Y-40062D01*
X48087Y-40110D01*
X48150Y-40136D01*
X48219Y-40137D01*
X48282Y-40110D01*
X48330Y-40062D01*
X48356Y-39999D01*
X48357Y-39930D01*
X48334Y-39877D01*
X48346Y-39865D01*
X48372Y-39802D01*
X48373Y-39733D01*
X48373Y-40914D01*
X48353Y-40866D01*
X48353Y-40320D01*
X48326Y-40257D01*
X48278Y-40209D01*
X48215Y-40183D01*
X48146Y-40182D01*
X48083Y-40209D01*
X48035Y-40257D01*
X48009Y-40320D01*
X48008Y-40389D01*
X48035Y-40452D01*
X48083Y-40500D01*
X48146Y-40526D01*
X48215Y-40527D01*
X48278Y-40500D01*
X48326Y-40452D01*
X48352Y-40389D01*
X48353Y-40320D01*
X48353Y-40866D01*
X48346Y-40851D01*
X48325Y-40829D01*
X48344Y-40782D01*
X48345Y-40713D01*
X48318Y-40650D01*
X48270Y-40602D01*
X48207Y-40576D01*
X48138Y-40575D01*
X48075Y-40602D01*
X48027Y-40650D01*
X48001Y-40713D01*
X48000Y-40782D01*
X48027Y-40845D01*
X48048Y-40867D01*
X48029Y-40914D01*
X48028Y-40974D01*
X47977Y-40996D01*
X47972Y-41001D01*
X47972Y-38919D01*
X47981Y-38928D01*
X48044Y-38954D01*
X48113Y-38955D01*
X48176Y-38928D01*
X48224Y-38880D01*
X48250Y-38817D01*
X48251Y-38753D01*
X48290Y-38736D01*
X48338Y-38688D01*
X48364Y-38625D01*
X48365Y-38556D01*
X48344Y-38506D01*
X48366Y-38483D01*
X48392Y-38420D01*
X48393Y-38351D01*
X48366Y-38288D01*
X48365Y-38286D01*
X48365Y-37949D01*
X48338Y-37886D01*
X48290Y-37838D01*
X48227Y-37812D01*
X48158Y-37811D01*
X48095Y-37838D01*
X48047Y-37886D01*
X48021Y-37949D01*
X48020Y-38018D01*
X48047Y-38081D01*
X48095Y-38129D01*
X48158Y-38155D01*
X48227Y-38156D01*
X48290Y-38129D01*
X48338Y-38081D01*
X48364Y-38018D01*
X48365Y-37949D01*
X48365Y-38286D01*
X48318Y-38240D01*
X48255Y-38214D01*
X48186Y-38213D01*
X48123Y-38240D01*
X48075Y-38288D01*
X48049Y-38351D01*
X48048Y-38420D01*
X48069Y-38470D01*
X48047Y-38493D01*
X48021Y-38556D01*
X48020Y-38620D01*
X47981Y-38637D01*
X47972Y-38646D01*
X47972Y-35605D01*
X47995Y-35550D01*
X47995Y-35442D01*
X47972Y-35386D01*
X47972Y-35172D01*
X47995Y-35117D01*
X47995Y-35009D01*
X47972Y-34953D01*
X47972Y-34739D01*
X47995Y-34684D01*
X47995Y-34576D01*
X47972Y-34520D01*
X47972Y-30688D01*
X56325Y-30688D01*
X56370Y-30707D01*
X56478Y-30707D01*
X56524Y-30688D01*
X56758Y-30688D01*
X56803Y-30707D01*
X56911Y-30707D01*
X56957Y-30688D01*
X57191Y-30688D01*
X57236Y-30707D01*
X57344Y-30707D01*
X57390Y-30688D01*
X57625Y-30688D01*
X57670Y-30707D01*
X57778Y-30707D01*
X57824Y-30688D01*
X66004Y-30688D01*
X66004Y-34508D01*
X65905Y-34508D01*
X65905Y-30902D01*
X65872Y-30822D01*
X65811Y-30761D01*
X65732Y-30728D01*
X65646Y-30728D01*
X65566Y-30761D01*
X65505Y-30822D01*
X65472Y-30901D01*
X65472Y-30987D01*
X65505Y-31067D01*
X65566Y-31128D01*
X65645Y-31161D01*
X65731Y-31161D01*
X65811Y-31128D01*
X65872Y-31067D01*
X65905Y-30988D01*
X65905Y-30902D01*
X65905Y-34508D01*
X63706Y-34508D01*
X63706Y-31756D01*
X63646Y-31612D01*
X63536Y-31501D01*
X63392Y-31442D01*
X63236Y-31441D01*
X63092Y-31501D01*
X62981Y-31611D01*
X62922Y-31755D01*
X62921Y-31911D01*
X62981Y-32055D01*
X63091Y-32166D01*
X63235Y-32225D01*
X63391Y-32226D01*
X63535Y-32166D01*
X63646Y-32056D01*
X63705Y-31912D01*
X63706Y-31756D01*
X63706Y-34508D01*
X62893Y-34508D01*
X62893Y-33996D01*
X62706Y-33996D01*
X62706Y-31756D01*
X62646Y-31612D01*
X62536Y-31501D01*
X62392Y-31442D01*
X62236Y-31441D01*
X62092Y-31501D01*
X61981Y-31611D01*
X61922Y-31755D01*
X61921Y-31911D01*
X61981Y-32055D01*
X62091Y-32166D01*
X62235Y-32225D01*
X62391Y-32226D01*
X62535Y-32166D01*
X62646Y-32056D01*
X62705Y-31912D01*
X62706Y-31756D01*
X62706Y-33996D01*
X61698Y-33996D01*
X61698Y-31849D01*
X61674Y-31700D01*
X61663Y-31673D01*
X61619Y-31634D01*
X61513Y-31740D01*
X61513Y-31528D01*
X61474Y-31484D01*
X61329Y-31449D01*
X61180Y-31473D01*
X61153Y-31484D01*
X61114Y-31528D01*
X61314Y-31727D01*
X61513Y-31528D01*
X61513Y-31740D01*
X61420Y-31834D01*
X61619Y-32033D01*
X61663Y-31994D01*
X61698Y-31849D01*
X61698Y-33996D01*
X61513Y-33996D01*
X61513Y-32139D01*
X61314Y-31940D01*
X61207Y-32046D01*
X61207Y-31834D01*
X61008Y-31634D01*
X60964Y-31673D01*
X60929Y-31818D01*
X60953Y-31967D01*
X60964Y-31994D01*
X61008Y-32033D01*
X61207Y-31834D01*
X61207Y-32046D01*
X61114Y-32139D01*
X61153Y-32183D01*
X61298Y-32218D01*
X61447Y-32194D01*
X61474Y-32183D01*
X61513Y-32139D01*
X61513Y-33996D01*
X60706Y-33996D01*
X60706Y-31756D01*
X60646Y-31612D01*
X60536Y-31501D01*
X60392Y-31442D01*
X60236Y-31441D01*
X60092Y-31501D01*
X59981Y-31611D01*
X59922Y-31755D01*
X59921Y-31911D01*
X59981Y-32055D01*
X60091Y-32166D01*
X60235Y-32225D01*
X60391Y-32226D01*
X60535Y-32166D01*
X60646Y-32056D01*
X60705Y-31912D01*
X60706Y-31756D01*
X60706Y-33996D01*
X59706Y-33996D01*
X59706Y-32093D01*
X59706Y-31496D01*
X59691Y-31462D01*
X59665Y-31436D01*
X59631Y-31422D01*
X59593Y-31421D01*
X58996Y-31421D01*
X58962Y-31436D01*
X58936Y-31462D01*
X58922Y-31496D01*
X58921Y-31534D01*
X58921Y-32131D01*
X58936Y-32165D01*
X58962Y-32191D01*
X58996Y-32205D01*
X59034Y-32206D01*
X59631Y-32206D01*
X59665Y-32191D01*
X59691Y-32165D01*
X59705Y-32131D01*
X59706Y-32093D01*
X59706Y-33996D01*
X58699Y-33996D01*
X58699Y-31756D01*
X58639Y-31612D01*
X58529Y-31501D01*
X58385Y-31442D01*
X58229Y-31441D01*
X58085Y-31501D01*
X57974Y-31611D01*
X57915Y-31755D01*
X57914Y-31911D01*
X57974Y-32055D01*
X58084Y-32166D01*
X58228Y-32225D01*
X58384Y-32226D01*
X58528Y-32166D01*
X58639Y-32056D01*
X58698Y-31912D01*
X58699Y-31756D01*
X58699Y-33996D01*
X57699Y-33996D01*
X57699Y-31756D01*
X57639Y-31612D01*
X57529Y-31501D01*
X57385Y-31442D01*
X57229Y-31441D01*
X57085Y-31501D01*
X56974Y-31611D01*
X56915Y-31755D01*
X56914Y-31911D01*
X56974Y-32055D01*
X57084Y-32166D01*
X57228Y-32225D01*
X57384Y-32226D01*
X57528Y-32166D01*
X57639Y-32056D01*
X57698Y-31912D01*
X57699Y-31756D01*
X57699Y-33996D01*
X56699Y-33996D01*
X56699Y-31756D01*
X56639Y-31612D01*
X56529Y-31501D01*
X56385Y-31442D01*
X56229Y-31441D01*
X56085Y-31501D01*
X55974Y-31611D01*
X55915Y-31755D01*
X55914Y-31911D01*
X55974Y-32055D01*
X56084Y-32166D01*
X56228Y-32225D01*
X56384Y-32226D01*
X56528Y-32166D01*
X56639Y-32056D01*
X56698Y-31912D01*
X56699Y-31756D01*
X56699Y-33996D01*
X55699Y-33996D01*
X55699Y-31756D01*
X55639Y-31612D01*
X55529Y-31501D01*
X55385Y-31442D01*
X55229Y-31441D01*
X55085Y-31501D01*
X54974Y-31611D01*
X54915Y-31755D01*
X54914Y-31911D01*
X54974Y-32055D01*
X55084Y-32166D01*
X55228Y-32225D01*
X55384Y-32226D01*
X55528Y-32166D01*
X55639Y-32056D01*
X55698Y-31912D01*
X55699Y-31756D01*
X55699Y-33996D01*
X54980Y-33996D01*
X54980Y-37152D01*
X54911Y-37151D01*
X54908Y-37153D01*
X54908Y-36296D01*
X54881Y-36233D01*
X54843Y-36195D01*
X54866Y-36172D01*
X54892Y-36109D01*
X54893Y-36040D01*
X54866Y-35977D01*
X54818Y-35929D01*
X54755Y-35903D01*
X54699Y-35902D01*
X54699Y-31756D01*
X54639Y-31612D01*
X54529Y-31501D01*
X54385Y-31442D01*
X54229Y-31441D01*
X54085Y-31501D01*
X53974Y-31611D01*
X53915Y-31755D01*
X53914Y-31911D01*
X53974Y-32055D01*
X54084Y-32166D01*
X54228Y-32225D01*
X54384Y-32226D01*
X54528Y-32166D01*
X54639Y-32056D01*
X54698Y-31912D01*
X54699Y-31756D01*
X54699Y-35902D01*
X54686Y-35902D01*
X54623Y-35929D01*
X54575Y-35977D01*
X54549Y-36040D01*
X54548Y-36109D01*
X54575Y-36172D01*
X54613Y-36210D01*
X54590Y-36233D01*
X54564Y-36296D01*
X54563Y-36365D01*
X54590Y-36428D01*
X54638Y-36476D01*
X54701Y-36502D01*
X54770Y-36503D01*
X54833Y-36476D01*
X54881Y-36428D01*
X54907Y-36365D01*
X54908Y-36296D01*
X54908Y-37153D01*
X54840Y-37180D01*
X54787Y-37234D01*
X54758Y-37304D01*
X54757Y-37380D01*
X54786Y-37451D01*
X54840Y-37504D01*
X54910Y-37533D01*
X54980Y-37534D01*
X54980Y-42890D01*
X54949Y-42890D01*
X54886Y-42917D01*
X54856Y-42947D01*
X54818Y-42909D01*
X54755Y-42883D01*
X54686Y-42882D01*
X54625Y-42908D01*
X54625Y-37284D01*
X54598Y-37221D01*
X54550Y-37173D01*
X54487Y-37147D01*
X54418Y-37146D01*
X54412Y-37149D01*
X54412Y-34403D01*
X54383Y-34332D01*
X54329Y-34279D01*
X54259Y-34250D01*
X54183Y-34249D01*
X54112Y-34278D01*
X54059Y-34332D01*
X54030Y-34402D01*
X54029Y-34478D01*
X54058Y-34549D01*
X54112Y-34602D01*
X54182Y-34631D01*
X54258Y-34632D01*
X54329Y-34603D01*
X54382Y-34549D01*
X54411Y-34479D01*
X54412Y-34403D01*
X54412Y-37149D01*
X54355Y-37173D01*
X54307Y-37221D01*
X54281Y-37284D01*
X54280Y-37353D01*
X54307Y-37416D01*
X54355Y-37464D01*
X54418Y-37490D01*
X54487Y-37491D01*
X54550Y-37464D01*
X54598Y-37416D01*
X54624Y-37353D01*
X54625Y-37284D01*
X54625Y-42908D01*
X54623Y-42909D01*
X54575Y-42957D01*
X54549Y-43020D01*
X54548Y-43089D01*
X54575Y-43152D01*
X54623Y-43200D01*
X54686Y-43226D01*
X54755Y-43227D01*
X54818Y-43200D01*
X54848Y-43170D01*
X54886Y-43208D01*
X54949Y-43234D01*
X54980Y-43234D01*
X54980Y-45084D01*
X54766Y-45084D01*
X54758Y-45066D01*
X54732Y-45039D01*
X54698Y-45025D01*
X54660Y-45025D01*
X54385Y-45025D01*
X54351Y-45039D01*
X54325Y-45065D01*
X54311Y-45100D01*
X54310Y-45137D01*
X54310Y-45451D01*
X54325Y-45485D01*
X54351Y-45512D01*
X54385Y-45526D01*
X54423Y-45526D01*
X54698Y-45526D01*
X54732Y-45512D01*
X54758Y-45486D01*
X54766Y-45467D01*
X54980Y-45467D01*
X54980Y-46082D01*
X62893Y-46082D01*
X62893Y-45610D01*
X66004Y-45610D01*
X66004Y-49508D01*
X66004Y-49508D01*
G37*
G54D115*
X66004Y-49508D02*
X63901Y-49508D01*
X63901Y-49000D01*
X63868Y-48920D01*
X63807Y-48860D01*
X63728Y-48826D01*
X63642Y-48826D01*
X63562Y-48859D01*
X63501Y-48920D01*
X63468Y-49000D01*
X63468Y-49086D01*
X63501Y-49165D01*
X63562Y-49226D01*
X63641Y-49259D01*
X63727Y-49259D01*
X63807Y-49226D01*
X63868Y-49166D01*
X63901Y-49086D01*
X63901Y-49000D01*
X63901Y-49508D01*
X63435Y-49508D01*
X63435Y-48272D01*
X63375Y-48128D01*
X63265Y-48017D01*
X63121Y-47958D01*
X62965Y-47957D01*
X62821Y-48017D01*
X62710Y-48127D01*
X62651Y-48271D01*
X62650Y-48427D01*
X62710Y-48571D01*
X62820Y-48682D01*
X62964Y-48741D01*
X63120Y-48742D01*
X63264Y-48682D01*
X63375Y-48572D01*
X63434Y-48428D01*
X63435Y-48272D01*
X63435Y-49508D01*
X62435Y-49508D01*
X62435Y-48272D01*
X62375Y-48128D01*
X62265Y-48017D01*
X62121Y-47958D01*
X61965Y-47957D01*
X61821Y-48017D01*
X61710Y-48127D01*
X61651Y-48271D01*
X61650Y-48427D01*
X61710Y-48571D01*
X61820Y-48682D01*
X61964Y-48741D01*
X62120Y-48742D01*
X62264Y-48682D01*
X62375Y-48572D01*
X62434Y-48428D01*
X62435Y-48272D01*
X62435Y-49508D01*
X60435Y-49508D01*
X60435Y-48272D01*
X60375Y-48128D01*
X60265Y-48017D01*
X60121Y-47958D01*
X60041Y-47957D01*
X60041Y-47130D01*
X60041Y-46816D01*
X60027Y-46782D01*
X60001Y-46755D01*
X59966Y-46741D01*
X59929Y-46741D01*
X59615Y-46741D01*
X59581Y-46755D01*
X59554Y-46781D01*
X59540Y-46816D01*
X59540Y-46853D01*
X59540Y-46899D01*
X59512Y-46899D01*
X59487Y-46874D01*
X59453Y-46860D01*
X59415Y-46859D01*
X59240Y-46859D01*
X59206Y-46874D01*
X59180Y-46900D01*
X59167Y-46932D01*
X59167Y-46734D01*
X59138Y-46663D01*
X59084Y-46610D01*
X59014Y-46581D01*
X58938Y-46580D01*
X58867Y-46609D01*
X58814Y-46663D01*
X58785Y-46733D01*
X58784Y-46809D01*
X58813Y-46880D01*
X58822Y-46888D01*
X58810Y-46900D01*
X58796Y-46934D01*
X58795Y-46972D01*
X58795Y-47167D01*
X58810Y-47201D01*
X58836Y-47227D01*
X58870Y-47241D01*
X58908Y-47242D01*
X59083Y-47242D01*
X59117Y-47227D01*
X59143Y-47201D01*
X59157Y-47167D01*
X59158Y-47129D01*
X59158Y-46934D01*
X59143Y-46900D01*
X59130Y-46887D01*
X59137Y-46880D01*
X59166Y-46810D01*
X59167Y-46734D01*
X59167Y-46932D01*
X59166Y-46934D01*
X59165Y-46972D01*
X59165Y-47167D01*
X59180Y-47201D01*
X59206Y-47227D01*
X59240Y-47241D01*
X59278Y-47242D01*
X59453Y-47242D01*
X59487Y-47227D01*
X59512Y-47203D01*
X59555Y-47203D01*
X59580Y-47228D01*
X59615Y-47242D01*
X59652Y-47242D01*
X59966Y-47242D01*
X60000Y-47228D01*
X60027Y-47202D01*
X60041Y-47167D01*
X60041Y-47130D01*
X60041Y-47957D01*
X59965Y-47957D01*
X59821Y-48017D01*
X59710Y-48127D01*
X59651Y-48271D01*
X59650Y-48427D01*
X59710Y-48571D01*
X59820Y-48682D01*
X59964Y-48741D01*
X60120Y-48742D01*
X60264Y-48682D01*
X60375Y-48572D01*
X60434Y-48428D01*
X60435Y-48272D01*
X60435Y-49508D01*
X59435Y-49508D01*
X59435Y-48609D01*
X59435Y-48012D01*
X59420Y-47978D01*
X59394Y-47952D01*
X59360Y-47938D01*
X59322Y-47937D01*
X58725Y-47937D01*
X58691Y-47952D01*
X58665Y-47978D01*
X58651Y-48012D01*
X58650Y-48050D01*
X58650Y-48647D01*
X58665Y-48681D01*
X58691Y-48707D01*
X58725Y-48721D01*
X58763Y-48722D01*
X59360Y-48722D01*
X59394Y-48707D01*
X59420Y-48681D01*
X59434Y-48647D01*
X59435Y-48609D01*
X59435Y-49508D01*
X57806Y-49508D01*
X57780Y-49497D01*
X57672Y-49497D01*
X57645Y-49508D01*
X57376Y-49508D01*
X57376Y-48292D01*
X57357Y-48196D01*
X57319Y-48138D01*
X57319Y-48108D01*
X57309Y-48084D01*
X57309Y-47638D01*
X57309Y-47324D01*
X57294Y-47290D01*
X57268Y-47263D01*
X57234Y-47249D01*
X57196Y-47249D01*
X57144Y-47249D01*
X57142Y-47248D01*
X57047Y-47229D01*
X56861Y-47229D01*
X56861Y-47132D01*
X56847Y-47098D01*
X56821Y-47071D01*
X56786Y-47057D01*
X56749Y-47057D01*
X56277Y-47057D01*
X56243Y-47071D01*
X56222Y-47092D01*
X55950Y-47092D01*
X55950Y-47014D01*
X55935Y-46979D01*
X55908Y-46952D01*
X55872Y-46937D01*
X55834Y-46937D01*
X54417Y-46937D01*
X54381Y-46952D01*
X54354Y-46979D01*
X54340Y-47014D01*
X54339Y-47053D01*
X54339Y-47603D01*
X54354Y-47638D01*
X54381Y-47665D01*
X54417Y-47680D01*
X54455Y-47680D01*
X55872Y-47680D01*
X55908Y-47665D01*
X55935Y-47638D01*
X55949Y-47603D01*
X55949Y-47593D01*
X56202Y-47593D01*
X56202Y-47679D01*
X56216Y-47713D01*
X56242Y-47740D01*
X56277Y-47754D01*
X56314Y-47754D01*
X56786Y-47754D01*
X56820Y-47740D01*
X56830Y-47730D01*
X56881Y-47730D01*
X56887Y-47736D01*
X56921Y-47750D01*
X56959Y-47750D01*
X57234Y-47750D01*
X57268Y-47736D01*
X57294Y-47710D01*
X57308Y-47675D01*
X57309Y-47638D01*
X57309Y-48084D01*
X57304Y-48074D01*
X57278Y-48047D01*
X57244Y-48033D01*
X57206Y-48033D01*
X56931Y-48033D01*
X56912Y-48041D01*
X56861Y-48041D01*
X56861Y-48036D01*
X56847Y-48002D01*
X56821Y-47975D01*
X56786Y-47961D01*
X56749Y-47961D01*
X56277Y-47961D01*
X56243Y-47975D01*
X56216Y-48001D01*
X56202Y-48036D01*
X56202Y-48073D01*
X56202Y-48583D01*
X56216Y-48617D01*
X56242Y-48644D01*
X56277Y-48658D01*
X56314Y-48658D01*
X56325Y-48658D01*
X56325Y-48775D01*
X56243Y-48856D01*
X56184Y-49000D01*
X56183Y-49156D01*
X56243Y-49300D01*
X56353Y-49411D01*
X56497Y-49470D01*
X56653Y-49471D01*
X56797Y-49411D01*
X56908Y-49301D01*
X56967Y-49157D01*
X56968Y-49001D01*
X56908Y-48857D01*
X56826Y-48774D01*
X56826Y-48639D01*
X56847Y-48618D01*
X56861Y-48583D01*
X56861Y-48546D01*
X56861Y-48542D01*
X57126Y-48542D01*
X57166Y-48534D01*
X57244Y-48534D01*
X57278Y-48520D01*
X57304Y-48494D01*
X57318Y-48459D01*
X57318Y-48445D01*
X57357Y-48387D01*
X57376Y-48292D01*
X57376Y-49508D01*
X57372Y-49508D01*
X57346Y-49497D01*
X57238Y-49497D01*
X57211Y-49508D01*
X56939Y-49508D01*
X56913Y-49497D01*
X56805Y-49497D01*
X56778Y-49508D01*
X56506Y-49508D01*
X56480Y-49497D01*
X56372Y-49497D01*
X56345Y-49508D01*
X54299Y-49508D01*
X54299Y-44205D01*
X54299Y-43674D01*
X54167Y-43587D01*
X54078Y-43587D01*
X54078Y-34808D01*
X54051Y-34745D01*
X54003Y-34697D01*
X53940Y-34671D01*
X53871Y-34670D01*
X53808Y-34697D01*
X53760Y-34745D01*
X53734Y-34808D01*
X53733Y-34877D01*
X53760Y-34940D01*
X53808Y-34988D01*
X53871Y-35014D01*
X53940Y-35015D01*
X54003Y-34988D01*
X54051Y-34940D01*
X54077Y-34877D01*
X54078Y-34808D01*
X54078Y-43587D01*
X53834Y-43587D01*
X53834Y-38520D01*
X53807Y-38457D01*
X53805Y-38455D01*
X53807Y-38452D01*
X53833Y-38389D01*
X53834Y-38320D01*
X53807Y-38257D01*
X53759Y-38209D01*
X53696Y-38183D01*
X53627Y-38182D01*
X53564Y-38209D01*
X53516Y-38257D01*
X53495Y-38308D01*
X53495Y-36418D01*
X53468Y-36355D01*
X53420Y-36307D01*
X53357Y-36281D01*
X53288Y-36280D01*
X53243Y-36299D01*
X53243Y-34827D01*
X53216Y-34764D01*
X53168Y-34716D01*
X53105Y-34690D01*
X53036Y-34689D01*
X52973Y-34716D01*
X52925Y-34764D01*
X52899Y-34827D01*
X52898Y-34896D01*
X52910Y-34923D01*
X52871Y-34922D01*
X52808Y-34949D01*
X52760Y-34997D01*
X52734Y-35060D01*
X52733Y-35129D01*
X52760Y-35192D01*
X52808Y-35240D01*
X52871Y-35266D01*
X52940Y-35267D01*
X53003Y-35240D01*
X53051Y-35192D01*
X53077Y-35129D01*
X53078Y-35060D01*
X53066Y-35033D01*
X53105Y-35034D01*
X53168Y-35007D01*
X53216Y-34959D01*
X53242Y-34896D01*
X53243Y-34827D01*
X53243Y-36299D01*
X53225Y-36307D01*
X53177Y-36355D01*
X53151Y-36418D01*
X53150Y-36487D01*
X53177Y-36550D01*
X53225Y-36598D01*
X53288Y-36624D01*
X53357Y-36625D01*
X53420Y-36598D01*
X53468Y-36550D01*
X53494Y-36487D01*
X53495Y-36418D01*
X53495Y-38308D01*
X53490Y-38320D01*
X53489Y-38389D01*
X53516Y-38452D01*
X53518Y-38454D01*
X53516Y-38457D01*
X53490Y-38520D01*
X53489Y-38589D01*
X53516Y-38652D01*
X53564Y-38700D01*
X53627Y-38726D01*
X53696Y-38727D01*
X53759Y-38700D01*
X53807Y-38652D01*
X53833Y-38589D01*
X53834Y-38520D01*
X53834Y-43587D01*
X53822Y-43587D01*
X53822Y-41501D01*
X53822Y-38946D01*
X53795Y-38883D01*
X53747Y-38835D01*
X53684Y-38809D01*
X53615Y-38808D01*
X53552Y-38835D01*
X53504Y-38883D01*
X53478Y-38946D01*
X53477Y-39015D01*
X53504Y-39078D01*
X53552Y-39126D01*
X53615Y-39152D01*
X53684Y-39153D01*
X53747Y-39126D01*
X53795Y-39078D01*
X53821Y-39015D01*
X53822Y-38946D01*
X53822Y-41501D01*
X53798Y-41443D01*
X53798Y-39335D01*
X53771Y-39272D01*
X53723Y-39224D01*
X53660Y-39198D01*
X53591Y-39197D01*
X53528Y-39224D01*
X53480Y-39272D01*
X53454Y-39335D01*
X53453Y-39404D01*
X53477Y-39460D01*
X53464Y-39473D01*
X53438Y-39536D01*
X53437Y-39605D01*
X53464Y-39668D01*
X53512Y-39716D01*
X53575Y-39742D01*
X53644Y-39743D01*
X53707Y-39716D01*
X53755Y-39668D01*
X53781Y-39605D01*
X53782Y-39536D01*
X53758Y-39480D01*
X53771Y-39467D01*
X53797Y-39404D01*
X53798Y-39335D01*
X53798Y-41443D01*
X53795Y-41438D01*
X53774Y-41416D01*
X53774Y-40524D01*
X53755Y-40478D01*
X53755Y-40166D01*
X53728Y-40103D01*
X53680Y-40055D01*
X53617Y-40029D01*
X53548Y-40028D01*
X53485Y-40055D01*
X53437Y-40103D01*
X53411Y-40166D01*
X53410Y-40235D01*
X53437Y-40298D01*
X53485Y-40346D01*
X53548Y-40372D01*
X53617Y-40373D01*
X53680Y-40346D01*
X53728Y-40298D01*
X53754Y-40235D01*
X53755Y-40166D01*
X53755Y-40478D01*
X53747Y-40461D01*
X53699Y-40413D01*
X53636Y-40387D01*
X53567Y-40386D01*
X53504Y-40413D01*
X53456Y-40461D01*
X53430Y-40524D01*
X53429Y-40593D01*
X53456Y-40656D01*
X53504Y-40704D01*
X53567Y-40730D01*
X53636Y-40731D01*
X53699Y-40704D01*
X53747Y-40656D01*
X53773Y-40593D01*
X53774Y-40524D01*
X53774Y-41416D01*
X53747Y-41390D01*
X53699Y-41370D01*
X53736Y-41333D01*
X53762Y-41270D01*
X53763Y-41201D01*
X53736Y-41138D01*
X53733Y-41135D01*
X53758Y-41074D01*
X53759Y-41005D01*
X53732Y-40942D01*
X53684Y-40894D01*
X53621Y-40868D01*
X53552Y-40867D01*
X53489Y-40894D01*
X53441Y-40942D01*
X53415Y-41005D01*
X53414Y-41074D01*
X53441Y-41137D01*
X53444Y-41140D01*
X53419Y-41201D01*
X53418Y-41270D01*
X53445Y-41333D01*
X53493Y-41381D01*
X53541Y-41401D01*
X53504Y-41438D01*
X53478Y-41501D01*
X53477Y-41570D01*
X53504Y-41633D01*
X53552Y-41681D01*
X53615Y-41707D01*
X53684Y-41708D01*
X53747Y-41681D01*
X53795Y-41633D01*
X53821Y-41570D01*
X53822Y-41501D01*
X53822Y-43587D01*
X53751Y-43587D01*
X53751Y-42087D01*
X53724Y-42024D01*
X53723Y-42023D01*
X53724Y-42022D01*
X53750Y-41959D01*
X53751Y-41890D01*
X53724Y-41827D01*
X53676Y-41779D01*
X53613Y-41753D01*
X53544Y-41752D01*
X53481Y-41779D01*
X53433Y-41827D01*
X53407Y-41890D01*
X53406Y-41959D01*
X53433Y-42022D01*
X53434Y-42023D01*
X53433Y-42024D01*
X53407Y-42087D01*
X53406Y-42156D01*
X53433Y-42219D01*
X53481Y-42267D01*
X53544Y-42293D01*
X53613Y-42294D01*
X53676Y-42267D01*
X53724Y-42219D01*
X53750Y-42156D01*
X53751Y-42087D01*
X53751Y-43587D01*
X53328Y-43587D01*
X53099Y-43768D01*
X53062Y-43768D01*
X53102Y-43728D01*
X53131Y-43658D01*
X53132Y-43582D01*
X53103Y-43511D01*
X53049Y-43458D01*
X53042Y-43455D01*
X53042Y-37292D01*
X53042Y-36717D01*
X53015Y-36654D01*
X52967Y-36606D01*
X52904Y-36580D01*
X52835Y-36579D01*
X52772Y-36606D01*
X52724Y-36654D01*
X52698Y-36717D01*
X52697Y-36786D01*
X52724Y-36849D01*
X52772Y-36897D01*
X52835Y-36923D01*
X52904Y-36924D01*
X52967Y-36897D01*
X53015Y-36849D01*
X53041Y-36786D01*
X53042Y-36717D01*
X53042Y-37292D01*
X53015Y-37229D01*
X52967Y-37181D01*
X52904Y-37155D01*
X52835Y-37154D01*
X52772Y-37181D01*
X52724Y-37229D01*
X52698Y-37292D01*
X52697Y-37343D01*
X52680Y-37336D01*
X52611Y-37335D01*
X52548Y-37362D01*
X52500Y-37410D01*
X52474Y-37473D01*
X52473Y-37542D01*
X52500Y-37605D01*
X52548Y-37653D01*
X52551Y-37655D01*
X52508Y-37654D01*
X52445Y-37681D01*
X52397Y-37729D01*
X52371Y-37792D01*
X52370Y-37861D01*
X52397Y-37924D01*
X52445Y-37972D01*
X52486Y-37989D01*
X52481Y-37989D01*
X52418Y-38016D01*
X52370Y-38064D01*
X52365Y-38077D01*
X52365Y-35855D01*
X52338Y-35792D01*
X52290Y-35744D01*
X52227Y-35718D01*
X52170Y-35717D01*
X52170Y-31643D01*
X52114Y-31506D01*
X52009Y-31402D01*
X51873Y-31345D01*
X51725Y-31345D01*
X51588Y-31401D01*
X51484Y-31506D01*
X51427Y-31642D01*
X51427Y-31790D01*
X51483Y-31927D01*
X51588Y-32031D01*
X51724Y-32088D01*
X51872Y-32088D01*
X52009Y-32032D01*
X52113Y-31927D01*
X52170Y-31791D01*
X52170Y-31643D01*
X52170Y-35717D01*
X52158Y-35717D01*
X52095Y-35744D01*
X52047Y-35792D01*
X52021Y-35855D01*
X52020Y-35924D01*
X52047Y-35987D01*
X52095Y-36035D01*
X52158Y-36061D01*
X52227Y-36062D01*
X52290Y-36035D01*
X52338Y-35987D01*
X52364Y-35924D01*
X52365Y-35855D01*
X52365Y-38077D01*
X52344Y-38127D01*
X52343Y-38196D01*
X52370Y-38259D01*
X52418Y-38307D01*
X52481Y-38333D01*
X52550Y-38334D01*
X52613Y-38307D01*
X52661Y-38259D01*
X52687Y-38196D01*
X52688Y-38127D01*
X52661Y-38064D01*
X52613Y-38016D01*
X52572Y-37999D01*
X52577Y-37999D01*
X52640Y-37972D01*
X52688Y-37924D01*
X52714Y-37861D01*
X52715Y-37792D01*
X52688Y-37729D01*
X52640Y-37681D01*
X52637Y-37679D01*
X52680Y-37680D01*
X52743Y-37653D01*
X52791Y-37605D01*
X52817Y-37542D01*
X52818Y-37491D01*
X52835Y-37498D01*
X52904Y-37499D01*
X52967Y-37472D01*
X53015Y-37424D01*
X53041Y-37361D01*
X53042Y-37292D01*
X53042Y-43455D01*
X52979Y-43429D01*
X52934Y-43428D01*
X52935Y-43386D01*
X52906Y-43315D01*
X52852Y-43262D01*
X52782Y-43233D01*
X52707Y-43232D01*
X52707Y-41697D01*
X52680Y-41634D01*
X52637Y-41590D01*
X52637Y-41008D01*
X52610Y-40945D01*
X52574Y-40908D01*
X52574Y-39780D01*
X52558Y-39742D01*
X52558Y-39146D01*
X52538Y-39098D01*
X52538Y-38737D01*
X52511Y-38674D01*
X52463Y-38626D01*
X52400Y-38600D01*
X52331Y-38599D01*
X52268Y-38626D01*
X52220Y-38674D01*
X52194Y-38737D01*
X52193Y-38806D01*
X52220Y-38869D01*
X52268Y-38917D01*
X52331Y-38943D01*
X52400Y-38944D01*
X52463Y-38917D01*
X52511Y-38869D01*
X52537Y-38806D01*
X52538Y-38737D01*
X52538Y-39098D01*
X52531Y-39083D01*
X52483Y-39035D01*
X52420Y-39009D01*
X52351Y-39008D01*
X52288Y-39035D01*
X52240Y-39083D01*
X52214Y-39146D01*
X52213Y-39215D01*
X52240Y-39278D01*
X52288Y-39326D01*
X52351Y-39352D01*
X52420Y-39353D01*
X52483Y-39326D01*
X52531Y-39278D01*
X52557Y-39215D01*
X52558Y-39146D01*
X52558Y-39742D01*
X52547Y-39717D01*
X52499Y-39669D01*
X52436Y-39643D01*
X52367Y-39642D01*
X52304Y-39669D01*
X52256Y-39717D01*
X52230Y-39780D01*
X52229Y-39843D01*
X52197Y-39843D01*
X52167Y-39856D01*
X52167Y-36574D01*
X52167Y-36379D01*
X52152Y-36345D01*
X52126Y-36319D01*
X52092Y-36305D01*
X52054Y-36304D01*
X51859Y-36304D01*
X51841Y-36312D01*
X51841Y-35253D01*
X51814Y-35190D01*
X51766Y-35142D01*
X51703Y-35116D01*
X51636Y-35115D01*
X51636Y-35104D01*
X51636Y-34929D01*
X51621Y-34895D01*
X51597Y-34870D01*
X51597Y-34552D01*
X51592Y-34530D01*
X51588Y-34501D01*
X51586Y-34497D01*
X51585Y-34493D01*
X51573Y-34476D01*
X51558Y-34450D01*
X51360Y-34229D01*
X51360Y-34206D01*
X51331Y-34135D01*
X51277Y-34082D01*
X51207Y-34053D01*
X51131Y-34052D01*
X51060Y-34081D01*
X51007Y-34135D01*
X50978Y-34205D01*
X50977Y-34281D01*
X51006Y-34352D01*
X51060Y-34405D01*
X51130Y-34434D01*
X51136Y-34434D01*
X51293Y-34609D01*
X51293Y-34870D01*
X51268Y-34895D01*
X51254Y-34929D01*
X51253Y-34967D01*
X51253Y-35142D01*
X51268Y-35176D01*
X51294Y-35202D01*
X51328Y-35216D01*
X51366Y-35217D01*
X51512Y-35217D01*
X51508Y-35224D01*
X51328Y-35224D01*
X51294Y-35239D01*
X51268Y-35265D01*
X51254Y-35299D01*
X51253Y-35337D01*
X51253Y-35512D01*
X51268Y-35546D01*
X51294Y-35572D01*
X51328Y-35586D01*
X51332Y-35586D01*
X51332Y-35798D01*
X51299Y-35831D01*
X51273Y-35894D01*
X51272Y-35963D01*
X51299Y-36026D01*
X51347Y-36074D01*
X51410Y-36100D01*
X51479Y-36101D01*
X51542Y-36074D01*
X51590Y-36026D01*
X51616Y-35963D01*
X51617Y-35894D01*
X51590Y-35831D01*
X51558Y-35798D01*
X51558Y-35587D01*
X51561Y-35587D01*
X51595Y-35572D01*
X51621Y-35546D01*
X51635Y-35512D01*
X51636Y-35474D01*
X51636Y-35459D01*
X51703Y-35460D01*
X51766Y-35433D01*
X51814Y-35385D01*
X51840Y-35322D01*
X51841Y-35253D01*
X51841Y-36312D01*
X51831Y-36316D01*
X51829Y-36315D01*
X51766Y-36289D01*
X51697Y-36288D01*
X51634Y-36315D01*
X51586Y-36363D01*
X51560Y-36426D01*
X51559Y-36495D01*
X51586Y-36558D01*
X51634Y-36606D01*
X51697Y-36632D01*
X51766Y-36633D01*
X51789Y-36623D01*
X51799Y-36646D01*
X51825Y-36672D01*
X51859Y-36686D01*
X51897Y-36687D01*
X52092Y-36687D01*
X52126Y-36672D01*
X52152Y-36646D01*
X52166Y-36612D01*
X52167Y-36574D01*
X52167Y-39856D01*
X52134Y-39870D01*
X52086Y-39918D01*
X52060Y-39981D01*
X52059Y-40050D01*
X52086Y-40113D01*
X52134Y-40161D01*
X52197Y-40187D01*
X52266Y-40188D01*
X52329Y-40161D01*
X52377Y-40113D01*
X52403Y-40050D01*
X52404Y-39987D01*
X52436Y-39987D01*
X52499Y-39960D01*
X52547Y-39912D01*
X52573Y-39849D01*
X52574Y-39780D01*
X52574Y-40908D01*
X52562Y-40897D01*
X52499Y-40871D01*
X52447Y-40870D01*
X52448Y-40812D01*
X52421Y-40749D01*
X52377Y-40705D01*
X52384Y-40688D01*
X52385Y-40619D01*
X52358Y-40556D01*
X52343Y-40540D01*
X52345Y-40539D01*
X52393Y-40491D01*
X52419Y-40428D01*
X52420Y-40359D01*
X52393Y-40296D01*
X52345Y-40248D01*
X52282Y-40222D01*
X52213Y-40221D01*
X52150Y-40248D01*
X52102Y-40296D01*
X52076Y-40359D01*
X52075Y-40428D01*
X52102Y-40491D01*
X52117Y-40507D01*
X52115Y-40508D01*
X52067Y-40556D01*
X52041Y-40619D01*
X52040Y-40688D01*
X52067Y-40751D01*
X52111Y-40795D01*
X52104Y-40812D01*
X52103Y-40881D01*
X52130Y-40944D01*
X52178Y-40992D01*
X52241Y-41018D01*
X52293Y-41019D01*
X52292Y-41077D01*
X52319Y-41140D01*
X52367Y-41188D01*
X52430Y-41214D01*
X52499Y-41215D01*
X52562Y-41188D01*
X52610Y-41140D01*
X52636Y-41077D01*
X52637Y-41008D01*
X52637Y-41590D01*
X52632Y-41586D01*
X52569Y-41560D01*
X52500Y-41559D01*
X52437Y-41586D01*
X52389Y-41634D01*
X52363Y-41697D01*
X52362Y-41766D01*
X52389Y-41829D01*
X52437Y-41877D01*
X52500Y-41903D01*
X52569Y-41904D01*
X52632Y-41877D01*
X52680Y-41829D01*
X52706Y-41766D01*
X52707Y-41697D01*
X52707Y-43232D01*
X52706Y-43232D01*
X52635Y-43261D01*
X52582Y-43315D01*
X52566Y-43353D01*
X52551Y-43315D01*
X52497Y-43262D01*
X52427Y-43233D01*
X52351Y-43232D01*
X52290Y-43258D01*
X52290Y-42319D01*
X52263Y-42256D01*
X52215Y-42208D01*
X52152Y-42182D01*
X52083Y-42181D01*
X52020Y-42208D01*
X52017Y-42211D01*
X52014Y-42209D01*
X51951Y-42183D01*
X51924Y-42183D01*
X51924Y-40713D01*
X51900Y-40655D01*
X51900Y-37205D01*
X51873Y-37142D01*
X51829Y-37098D01*
X51873Y-37054D01*
X51899Y-36991D01*
X51900Y-36922D01*
X51873Y-36859D01*
X51825Y-36811D01*
X51762Y-36785D01*
X51693Y-36784D01*
X51630Y-36811D01*
X51582Y-36859D01*
X51556Y-36922D01*
X51555Y-36991D01*
X51582Y-37054D01*
X51626Y-37098D01*
X51582Y-37142D01*
X51556Y-37205D01*
X51555Y-37274D01*
X51582Y-37337D01*
X51615Y-37370D01*
X51575Y-37410D01*
X51549Y-37473D01*
X51548Y-37542D01*
X51575Y-37605D01*
X51623Y-37653D01*
X51686Y-37679D01*
X51755Y-37680D01*
X51818Y-37653D01*
X51866Y-37605D01*
X51892Y-37542D01*
X51893Y-37473D01*
X51866Y-37410D01*
X51833Y-37377D01*
X51873Y-37337D01*
X51899Y-37274D01*
X51900Y-37205D01*
X51900Y-40655D01*
X51897Y-40650D01*
X51889Y-40641D01*
X51889Y-37957D01*
X51862Y-37894D01*
X51814Y-37846D01*
X51751Y-37820D01*
X51682Y-37819D01*
X51619Y-37846D01*
X51571Y-37894D01*
X51545Y-37957D01*
X51544Y-38026D01*
X51571Y-38089D01*
X51619Y-38137D01*
X51682Y-38163D01*
X51751Y-38164D01*
X51814Y-38137D01*
X51862Y-38089D01*
X51888Y-38026D01*
X51889Y-37957D01*
X51889Y-40641D01*
X51849Y-40602D01*
X51786Y-40576D01*
X51717Y-40575D01*
X51654Y-40602D01*
X51606Y-40650D01*
X51580Y-40713D01*
X51579Y-40782D01*
X51606Y-40845D01*
X51654Y-40893D01*
X51717Y-40919D01*
X51786Y-40920D01*
X51849Y-40893D01*
X51897Y-40845D01*
X51923Y-40782D01*
X51924Y-40713D01*
X51924Y-42183D01*
X51882Y-42182D01*
X51819Y-42209D01*
X51777Y-42251D01*
X51735Y-42209D01*
X51672Y-42183D01*
X51603Y-42182D01*
X51540Y-42209D01*
X51518Y-42231D01*
X51495Y-42209D01*
X51432Y-42183D01*
X51363Y-42182D01*
X51300Y-42209D01*
X51263Y-42246D01*
X51263Y-40914D01*
X51236Y-40851D01*
X51188Y-40803D01*
X51125Y-40777D01*
X51056Y-40776D01*
X50993Y-40803D01*
X50945Y-40851D01*
X50919Y-40914D01*
X50918Y-40983D01*
X50945Y-41046D01*
X50993Y-41094D01*
X51056Y-41120D01*
X51125Y-41121D01*
X51188Y-41094D01*
X51236Y-41046D01*
X51262Y-40983D01*
X51263Y-40914D01*
X51263Y-42246D01*
X51252Y-42257D01*
X51226Y-42320D01*
X51225Y-42389D01*
X51252Y-42452D01*
X51300Y-42500D01*
X51363Y-42526D01*
X51432Y-42527D01*
X51495Y-42500D01*
X51517Y-42478D01*
X51540Y-42500D01*
X51603Y-42526D01*
X51672Y-42527D01*
X51735Y-42500D01*
X51777Y-42458D01*
X51819Y-42500D01*
X51882Y-42526D01*
X51951Y-42527D01*
X52014Y-42500D01*
X52017Y-42497D01*
X52020Y-42499D01*
X52083Y-42525D01*
X52152Y-42526D01*
X52215Y-42499D01*
X52263Y-42451D01*
X52289Y-42388D01*
X52290Y-42319D01*
X52290Y-43258D01*
X52280Y-43261D01*
X52227Y-43315D01*
X52198Y-43385D01*
X52197Y-43429D01*
X52194Y-43429D01*
X52123Y-43458D01*
X52070Y-43512D01*
X52041Y-43582D01*
X52040Y-43658D01*
X52069Y-43729D01*
X52109Y-43768D01*
X52047Y-43768D01*
X52055Y-44531D01*
X52123Y-44531D01*
X52123Y-44554D01*
X52123Y-45026D01*
X52137Y-45060D01*
X52163Y-45087D01*
X52198Y-45101D01*
X52235Y-45101D01*
X52650Y-45101D01*
X52702Y-45153D01*
X52772Y-45182D01*
X52848Y-45183D01*
X52919Y-45154D01*
X52971Y-45101D01*
X53213Y-45101D01*
X53247Y-45087D01*
X53273Y-45061D01*
X53287Y-45026D01*
X53288Y-44989D01*
X53288Y-44951D01*
X53297Y-44906D01*
X53288Y-44860D01*
X53288Y-44675D01*
X53273Y-44641D01*
X53247Y-44614D01*
X53213Y-44600D01*
X53175Y-44600D01*
X52900Y-44600D01*
X52866Y-44614D01*
X52840Y-44640D01*
X52826Y-44675D01*
X52825Y-44712D01*
X52825Y-44715D01*
X52820Y-44715D01*
X52820Y-44531D01*
X53932Y-44531D01*
X54299Y-44205D01*
X54299Y-49508D01*
X54280Y-49508D01*
X53580Y-49508D01*
X53587Y-49491D01*
X53587Y-49452D01*
X53587Y-46854D01*
X53572Y-46819D01*
X53545Y-46792D01*
X53510Y-46777D01*
X53471Y-46777D01*
X52966Y-46777D01*
X52966Y-45355D01*
X52937Y-45285D01*
X52883Y-45231D01*
X52813Y-45202D01*
X52737Y-45202D01*
X52667Y-45231D01*
X52613Y-45285D01*
X52584Y-45355D01*
X52584Y-45431D01*
X52613Y-45501D01*
X52667Y-45555D01*
X52737Y-45584D01*
X52813Y-45584D01*
X52883Y-45555D01*
X52937Y-45502D01*
X52966Y-45431D01*
X52966Y-45355D01*
X52966Y-46777D01*
X52946Y-46777D01*
X52946Y-45769D01*
X52917Y-45699D01*
X52864Y-45645D01*
X52794Y-45616D01*
X52718Y-45616D01*
X52647Y-45645D01*
X52594Y-45698D01*
X52564Y-45768D01*
X52564Y-45844D01*
X52593Y-45915D01*
X52647Y-45968D01*
X52717Y-45998D01*
X52793Y-45998D01*
X52863Y-45969D01*
X52917Y-45915D01*
X52946Y-45845D01*
X52946Y-45769D01*
X52946Y-46777D01*
X52553Y-46777D01*
X52553Y-45907D01*
X52524Y-45836D01*
X52470Y-45783D01*
X52400Y-45753D01*
X52324Y-45753D01*
X52254Y-45782D01*
X52200Y-45836D01*
X52179Y-45887D01*
X52179Y-45749D01*
X52159Y-45701D01*
X52159Y-45355D01*
X52130Y-45285D01*
X52076Y-45231D01*
X52019Y-45208D01*
X52006Y-45202D01*
X51998Y-45202D01*
X52019Y-45180D01*
X52015Y-43071D01*
X51870Y-42996D01*
X51200Y-42996D01*
X51106Y-43090D01*
X51106Y-44424D01*
X50882Y-44649D01*
X50882Y-45090D01*
X51058Y-45271D01*
X51820Y-45271D01*
X51806Y-45285D01*
X51777Y-45355D01*
X51777Y-45431D01*
X51806Y-45501D01*
X51860Y-45555D01*
X51930Y-45584D01*
X52006Y-45584D01*
X52019Y-45579D01*
X52076Y-45555D01*
X52130Y-45502D01*
X52159Y-45431D01*
X52159Y-45355D01*
X52159Y-45701D01*
X52150Y-45679D01*
X52096Y-45625D01*
X52026Y-45596D01*
X52019Y-45596D01*
X51950Y-45596D01*
X51880Y-45625D01*
X51826Y-45679D01*
X51797Y-45749D01*
X51797Y-45825D01*
X51826Y-45895D01*
X51879Y-45949D01*
X51950Y-45978D01*
X52019Y-45978D01*
X52026Y-45978D01*
X52096Y-45949D01*
X52150Y-45895D01*
X52179Y-45825D01*
X52179Y-45749D01*
X52179Y-45887D01*
X52171Y-45906D01*
X52171Y-45982D01*
X52200Y-46052D01*
X52253Y-46106D01*
X52324Y-46135D01*
X52400Y-46135D01*
X52470Y-46106D01*
X52524Y-46053D01*
X52553Y-45983D01*
X52553Y-45907D01*
X52553Y-46777D01*
X52019Y-46777D01*
X51031Y-46777D01*
X50996Y-46792D01*
X50969Y-46819D01*
X50954Y-46854D01*
X50954Y-46893D01*
X50954Y-49491D01*
X50961Y-49508D01*
X50089Y-49508D01*
X50089Y-36977D01*
X50062Y-36914D01*
X50014Y-36866D01*
X49951Y-36840D01*
X49920Y-36840D01*
X49920Y-36190D01*
X49893Y-36127D01*
X49845Y-36079D01*
X49782Y-36053D01*
X49713Y-36052D01*
X49650Y-36079D01*
X49602Y-36127D01*
X49576Y-36190D01*
X49575Y-36259D01*
X49602Y-36322D01*
X49602Y-36322D01*
X49598Y-36327D01*
X49572Y-36390D01*
X49571Y-36459D01*
X49598Y-36522D01*
X49646Y-36570D01*
X49709Y-36596D01*
X49778Y-36597D01*
X49841Y-36570D01*
X49889Y-36522D01*
X49915Y-36459D01*
X49916Y-36390D01*
X49889Y-36327D01*
X49889Y-36327D01*
X49893Y-36322D01*
X49919Y-36259D01*
X49920Y-36190D01*
X49920Y-36840D01*
X49882Y-36839D01*
X49819Y-36866D01*
X49771Y-36914D01*
X49745Y-36977D01*
X49744Y-37046D01*
X49763Y-37091D01*
X49731Y-37059D01*
X49668Y-37033D01*
X49599Y-37032D01*
X49536Y-37059D01*
X49488Y-37107D01*
X49462Y-37170D01*
X49461Y-37239D01*
X49481Y-37286D01*
X49451Y-37256D01*
X49428Y-37246D01*
X49428Y-35993D01*
X49401Y-35930D01*
X49353Y-35882D01*
X49290Y-35856D01*
X49221Y-35855D01*
X49158Y-35882D01*
X49110Y-35930D01*
X49084Y-35993D01*
X49083Y-36062D01*
X49110Y-36125D01*
X49158Y-36173D01*
X49221Y-36199D01*
X49290Y-36200D01*
X49353Y-36173D01*
X49401Y-36125D01*
X49427Y-36062D01*
X49428Y-35993D01*
X49428Y-37246D01*
X49388Y-37230D01*
X49319Y-37229D01*
X49256Y-37256D01*
X49208Y-37304D01*
X49182Y-37367D01*
X49181Y-37436D01*
X49208Y-37499D01*
X49256Y-37547D01*
X49319Y-37573D01*
X49388Y-37574D01*
X49451Y-37547D01*
X49499Y-37499D01*
X49525Y-37436D01*
X49526Y-37367D01*
X49506Y-37320D01*
X49536Y-37350D01*
X49599Y-37376D01*
X49668Y-37377D01*
X49731Y-37350D01*
X49779Y-37302D01*
X49805Y-37239D01*
X49806Y-37170D01*
X49787Y-37125D01*
X49819Y-37157D01*
X49882Y-37183D01*
X49951Y-37184D01*
X50014Y-37157D01*
X50062Y-37109D01*
X50088Y-37046D01*
X50089Y-36977D01*
X50089Y-49508D01*
X49707Y-49508D01*
X49707Y-42583D01*
X49680Y-42520D01*
X49632Y-42472D01*
X49569Y-42446D01*
X49500Y-42445D01*
X49437Y-42472D01*
X49389Y-42520D01*
X49363Y-42583D01*
X49362Y-42652D01*
X49389Y-42715D01*
X49437Y-42763D01*
X49500Y-42789D01*
X49569Y-42790D01*
X49632Y-42763D01*
X49680Y-42715D01*
X49706Y-42652D01*
X49707Y-42583D01*
X49707Y-49508D01*
X49230Y-49508D01*
X49230Y-43221D01*
X49207Y-43165D01*
X49164Y-43123D01*
X49109Y-43099D01*
X49048Y-43099D01*
X48992Y-43123D01*
X48949Y-43165D01*
X48926Y-43221D01*
X48926Y-43282D01*
X48949Y-43337D01*
X48992Y-43380D01*
X49048Y-43403D01*
X49108Y-43403D01*
X49164Y-43380D01*
X49207Y-43338D01*
X49230Y-43282D01*
X49230Y-43221D01*
X49230Y-49508D01*
X49052Y-49508D01*
X49052Y-45049D01*
X49023Y-44978D01*
X48969Y-44925D01*
X48899Y-44896D01*
X48823Y-44895D01*
X48763Y-44920D01*
X48763Y-31106D01*
X48730Y-31027D01*
X48669Y-30966D01*
X48590Y-30933D01*
X48504Y-30933D01*
X48424Y-30966D01*
X48363Y-31026D01*
X48330Y-31106D01*
X48330Y-31192D01*
X48363Y-31271D01*
X48424Y-31332D01*
X48504Y-31365D01*
X48590Y-31365D01*
X48669Y-31333D01*
X48730Y-31272D01*
X48763Y-31192D01*
X48763Y-31106D01*
X48763Y-44920D01*
X48752Y-44924D01*
X48723Y-44954D01*
X48723Y-37535D01*
X48723Y-37340D01*
X48708Y-37306D01*
X48695Y-37293D01*
X48708Y-37280D01*
X48722Y-37246D01*
X48723Y-37208D01*
X48723Y-37013D01*
X48708Y-36979D01*
X48682Y-36953D01*
X48648Y-36939D01*
X48610Y-36938D01*
X48415Y-36938D01*
X48381Y-36953D01*
X48355Y-36979D01*
X48341Y-37013D01*
X48340Y-37051D01*
X48340Y-37083D01*
X48322Y-37090D01*
X48290Y-37059D01*
X48227Y-37033D01*
X48158Y-37032D01*
X48095Y-37059D01*
X48047Y-37107D01*
X48021Y-37170D01*
X48020Y-37239D01*
X48039Y-37284D01*
X48019Y-37304D01*
X47993Y-37367D01*
X47992Y-37436D01*
X48019Y-37499D01*
X48067Y-37547D01*
X48130Y-37573D01*
X48199Y-37574D01*
X48262Y-37547D01*
X48293Y-37516D01*
X48340Y-37528D01*
X48340Y-37573D01*
X48355Y-37607D01*
X48381Y-37633D01*
X48415Y-37647D01*
X48453Y-37648D01*
X48648Y-37648D01*
X48682Y-37633D01*
X48708Y-37607D01*
X48722Y-37573D01*
X48723Y-37535D01*
X48723Y-44954D01*
X48703Y-44974D01*
X48654Y-44925D01*
X48584Y-44896D01*
X48508Y-44895D01*
X48437Y-44924D01*
X48388Y-44974D01*
X48369Y-44954D01*
X48369Y-41697D01*
X48342Y-41634D01*
X48294Y-41586D01*
X48231Y-41560D01*
X48162Y-41559D01*
X48099Y-41586D01*
X48051Y-41634D01*
X48025Y-41697D01*
X48024Y-41766D01*
X48051Y-41829D01*
X48099Y-41877D01*
X48162Y-41903D01*
X48231Y-41904D01*
X48294Y-41877D01*
X48342Y-41829D01*
X48368Y-41766D01*
X48369Y-41697D01*
X48369Y-44954D01*
X48353Y-44938D01*
X48353Y-42095D01*
X48326Y-42032D01*
X48278Y-41984D01*
X48215Y-41958D01*
X48146Y-41957D01*
X48083Y-41984D01*
X48035Y-42032D01*
X48009Y-42095D01*
X48008Y-42164D01*
X48034Y-42226D01*
X48027Y-42233D01*
X48001Y-42296D01*
X48000Y-42365D01*
X48027Y-42428D01*
X48075Y-42476D01*
X48138Y-42502D01*
X48207Y-42503D01*
X48270Y-42476D01*
X48318Y-42428D01*
X48344Y-42365D01*
X48345Y-42296D01*
X48319Y-42234D01*
X48326Y-42227D01*
X48352Y-42164D01*
X48353Y-42095D01*
X48353Y-44938D01*
X48339Y-44925D01*
X48326Y-44919D01*
X48326Y-42690D01*
X48299Y-42627D01*
X48251Y-42579D01*
X48188Y-42553D01*
X48119Y-42552D01*
X48056Y-42579D01*
X48008Y-42627D01*
X47982Y-42690D01*
X47981Y-42759D01*
X48008Y-42822D01*
X48056Y-42870D01*
X48119Y-42896D01*
X48188Y-42897D01*
X48251Y-42870D01*
X48299Y-42822D01*
X48325Y-42759D01*
X48326Y-42690D01*
X48326Y-44919D01*
X48269Y-44896D01*
X48193Y-44895D01*
X48122Y-44924D01*
X48069Y-44978D01*
X48040Y-45048D01*
X48039Y-45124D01*
X48068Y-45195D01*
X48122Y-45248D01*
X48192Y-45277D01*
X48268Y-45278D01*
X48339Y-45249D01*
X48388Y-45199D01*
X48437Y-45248D01*
X48507Y-45277D01*
X48583Y-45278D01*
X48654Y-45249D01*
X48703Y-45199D01*
X48752Y-45248D01*
X48822Y-45277D01*
X48898Y-45278D01*
X48969Y-45249D01*
X49022Y-45195D01*
X49051Y-45125D01*
X49052Y-45049D01*
X49052Y-49508D01*
X47972Y-49508D01*
X47972Y-44444D01*
X47995Y-44389D01*
X47995Y-44281D01*
X47972Y-44225D01*
X47972Y-44011D01*
X47995Y-43956D01*
X47995Y-43848D01*
X47972Y-43792D01*
X47972Y-43578D01*
X47995Y-43523D01*
X47995Y-43415D01*
X47972Y-43359D01*
X47972Y-41282D01*
X47977Y-41287D01*
X48040Y-41313D01*
X48109Y-41314D01*
X48172Y-41287D01*
X48220Y-41239D01*
X48246Y-41176D01*
X48247Y-41116D01*
X48298Y-41094D01*
X48346Y-41046D01*
X48372Y-40983D01*
X48373Y-40914D01*
X48373Y-39733D01*
X48369Y-39724D01*
X48369Y-39335D01*
X48342Y-39272D01*
X48294Y-39224D01*
X48231Y-39198D01*
X48162Y-39197D01*
X48099Y-39224D01*
X48051Y-39272D01*
X48025Y-39335D01*
X48024Y-39404D01*
X48051Y-39467D01*
X48099Y-39515D01*
X48162Y-39541D01*
X48231Y-39542D01*
X48294Y-39515D01*
X48342Y-39467D01*
X48368Y-39404D01*
X48369Y-39335D01*
X48369Y-39724D01*
X48346Y-39670D01*
X48298Y-39622D01*
X48235Y-39596D01*
X48166Y-39595D01*
X48103Y-39622D01*
X48055Y-39670D01*
X48029Y-39733D01*
X48028Y-39802D01*
X48051Y-39855D01*
X48039Y-39867D01*
X48013Y-39930D01*
X48012Y-39999D01*
X48039Y-40062D01*
X48087Y-40110D01*
X48150Y-40136D01*
X48219Y-40137D01*
X48282Y-40110D01*
X48330Y-40062D01*
X48356Y-39999D01*
X48357Y-39930D01*
X48334Y-39877D01*
X48346Y-39865D01*
X48372Y-39802D01*
X48373Y-39733D01*
X48373Y-40914D01*
X48353Y-40866D01*
X48353Y-40320D01*
X48326Y-40257D01*
X48278Y-40209D01*
X48215Y-40183D01*
X48146Y-40182D01*
X48083Y-40209D01*
X48035Y-40257D01*
X48009Y-40320D01*
X48008Y-40389D01*
X48035Y-40452D01*
X48083Y-40500D01*
X48146Y-40526D01*
X48215Y-40527D01*
X48278Y-40500D01*
X48326Y-40452D01*
X48352Y-40389D01*
X48353Y-40320D01*
X48353Y-40866D01*
X48346Y-40851D01*
X48325Y-40829D01*
X48344Y-40782D01*
X48345Y-40713D01*
X48318Y-40650D01*
X48270Y-40602D01*
X48207Y-40576D01*
X48138Y-40575D01*
X48075Y-40602D01*
X48027Y-40650D01*
X48001Y-40713D01*
X48000Y-40782D01*
X48027Y-40845D01*
X48048Y-40867D01*
X48029Y-40914D01*
X48028Y-40974D01*
X47977Y-40996D01*
X47972Y-41001D01*
X47972Y-38919D01*
X47981Y-38928D01*
X48044Y-38954D01*
X48113Y-38955D01*
X48176Y-38928D01*
X48224Y-38880D01*
X48250Y-38817D01*
X48251Y-38753D01*
X48290Y-38736D01*
X48338Y-38688D01*
X48364Y-38625D01*
X48365Y-38556D01*
X48344Y-38506D01*
X48366Y-38483D01*
X48392Y-38420D01*
X48393Y-38351D01*
X48366Y-38288D01*
X48365Y-38286D01*
X48365Y-37949D01*
X48338Y-37886D01*
X48290Y-37838D01*
X48227Y-37812D01*
X48158Y-37811D01*
X48095Y-37838D01*
X48047Y-37886D01*
X48021Y-37949D01*
X48020Y-38018D01*
X48047Y-38081D01*
X48095Y-38129D01*
X48158Y-38155D01*
X48227Y-38156D01*
X48290Y-38129D01*
X48338Y-38081D01*
X48364Y-38018D01*
X48365Y-37949D01*
X48365Y-38286D01*
X48318Y-38240D01*
X48255Y-38214D01*
X48186Y-38213D01*
X48123Y-38240D01*
X48075Y-38288D01*
X48049Y-38351D01*
X48048Y-38420D01*
X48069Y-38470D01*
X48047Y-38493D01*
X48021Y-38556D01*
X48020Y-38620D01*
X47981Y-38637D01*
X47972Y-38646D01*
X47972Y-35605D01*
X47995Y-35550D01*
X47995Y-35442D01*
X47972Y-35386D01*
X47972Y-35172D01*
X47995Y-35117D01*
X47995Y-35009D01*
X47972Y-34953D01*
X47972Y-34739D01*
X47995Y-34684D01*
X47995Y-34576D01*
X47972Y-34520D01*
X47972Y-30688D01*
X56325Y-30688D01*
X56370Y-30707D01*
X56478Y-30707D01*
X56524Y-30688D01*
X56758Y-30688D01*
X56803Y-30707D01*
X56911Y-30707D01*
X56957Y-30688D01*
X57191Y-30688D01*
X57236Y-30707D01*
X57344Y-30707D01*
X57390Y-30688D01*
X57625Y-30688D01*
X57670Y-30707D01*
X57778Y-30707D01*
X57824Y-30688D01*
X66004Y-30688D01*
X66004Y-34508D01*
X65905Y-34508D01*
X65905Y-30902D01*
X65872Y-30822D01*
X65811Y-30761D01*
X65732Y-30728D01*
X65646Y-30728D01*
X65566Y-30761D01*
X65505Y-30822D01*
X65472Y-30901D01*
X65472Y-30987D01*
X65505Y-31067D01*
X65566Y-31128D01*
X65645Y-31161D01*
X65731Y-31161D01*
X65811Y-31128D01*
X65872Y-31067D01*
X65905Y-30988D01*
X65905Y-30902D01*
X65905Y-34508D01*
X63706Y-34508D01*
X63706Y-31756D01*
X63646Y-31612D01*
X63536Y-31501D01*
X63392Y-31442D01*
X63236Y-31441D01*
X63092Y-31501D01*
X62981Y-31611D01*
X62922Y-31755D01*
X62921Y-31911D01*
X62981Y-32055D01*
X63091Y-32166D01*
X63235Y-32225D01*
X63391Y-32226D01*
X63535Y-32166D01*
X63646Y-32056D01*
X63705Y-31912D01*
X63706Y-31756D01*
X63706Y-34508D01*
X62893Y-34508D01*
X62893Y-33996D01*
X62706Y-33996D01*
X62706Y-31756D01*
X62646Y-31612D01*
X62536Y-31501D01*
X62392Y-31442D01*
X62236Y-31441D01*
X62092Y-31501D01*
X61981Y-31611D01*
X61922Y-31755D01*
X61921Y-31911D01*
X61981Y-32055D01*
X62091Y-32166D01*
X62235Y-32225D01*
X62391Y-32226D01*
X62535Y-32166D01*
X62646Y-32056D01*
X62705Y-31912D01*
X62706Y-31756D01*
X62706Y-33996D01*
X61698Y-33996D01*
X61698Y-31849D01*
X61674Y-31700D01*
X61663Y-31673D01*
X61619Y-31634D01*
X61513Y-31740D01*
X61513Y-31528D01*
X61474Y-31484D01*
X61329Y-31449D01*
X61180Y-31473D01*
X61153Y-31484D01*
X61114Y-31528D01*
X61314Y-31727D01*
X61513Y-31528D01*
X61513Y-31740D01*
X61420Y-31834D01*
X61619Y-32033D01*
X61663Y-31994D01*
X61698Y-31849D01*
X61698Y-33996D01*
X61513Y-33996D01*
X61513Y-32139D01*
X61314Y-31940D01*
X61207Y-32046D01*
X61207Y-31834D01*
X61008Y-31634D01*
X60964Y-31673D01*
X60929Y-31818D01*
X60953Y-31967D01*
X60964Y-31994D01*
X61008Y-32033D01*
X61207Y-31834D01*
X61207Y-32046D01*
X61114Y-32139D01*
X61153Y-32183D01*
X61298Y-32218D01*
X61447Y-32194D01*
X61474Y-32183D01*
X61513Y-32139D01*
X61513Y-33996D01*
X60706Y-33996D01*
X60706Y-31756D01*
X60646Y-31612D01*
X60536Y-31501D01*
X60392Y-31442D01*
X60236Y-31441D01*
X60092Y-31501D01*
X59981Y-31611D01*
X59922Y-31755D01*
X59921Y-31911D01*
X59981Y-32055D01*
X60091Y-32166D01*
X60235Y-32225D01*
X60391Y-32226D01*
X60535Y-32166D01*
X60646Y-32056D01*
X60705Y-31912D01*
X60706Y-31756D01*
X60706Y-33996D01*
X59706Y-33996D01*
X59706Y-32093D01*
X59706Y-31496D01*
X59691Y-31462D01*
X59665Y-31436D01*
X59631Y-31422D01*
X59593Y-31421D01*
X58996Y-31421D01*
X58962Y-31436D01*
X58936Y-31462D01*
X58922Y-31496D01*
X58921Y-31534D01*
X58921Y-32131D01*
X58936Y-32165D01*
X58962Y-32191D01*
X58996Y-32205D01*
X59034Y-32206D01*
X59631Y-32206D01*
X59665Y-32191D01*
X59691Y-32165D01*
X59705Y-32131D01*
X59706Y-32093D01*
X59706Y-33996D01*
X58699Y-33996D01*
X58699Y-31756D01*
X58639Y-31612D01*
X58529Y-31501D01*
X58385Y-31442D01*
X58229Y-31441D01*
X58085Y-31501D01*
X57974Y-31611D01*
X57915Y-31755D01*
X57914Y-31911D01*
X57974Y-32055D01*
X58084Y-32166D01*
X58228Y-32225D01*
X58384Y-32226D01*
X58528Y-32166D01*
X58639Y-32056D01*
X58698Y-31912D01*
X58699Y-31756D01*
X58699Y-33996D01*
X57699Y-33996D01*
X57699Y-31756D01*
X57639Y-31612D01*
X57529Y-31501D01*
X57385Y-31442D01*
X57229Y-31441D01*
X57085Y-31501D01*
X56974Y-31611D01*
X56915Y-31755D01*
X56914Y-31911D01*
X56974Y-32055D01*
X57084Y-32166D01*
X57228Y-32225D01*
X57384Y-32226D01*
X57528Y-32166D01*
X57639Y-32056D01*
X57698Y-31912D01*
X57699Y-31756D01*
X57699Y-33996D01*
X56699Y-33996D01*
X56699Y-31756D01*
X56639Y-31612D01*
X56529Y-31501D01*
X56385Y-31442D01*
X56229Y-31441D01*
X56085Y-31501D01*
X55974Y-31611D01*
X55915Y-31755D01*
X55914Y-31911D01*
X55974Y-32055D01*
X56084Y-32166D01*
X56228Y-32225D01*
X56384Y-32226D01*
X56528Y-32166D01*
X56639Y-32056D01*
X56698Y-31912D01*
X56699Y-31756D01*
X56699Y-33996D01*
X55699Y-33996D01*
X55699Y-31756D01*
X55639Y-31612D01*
X55529Y-31501D01*
X55385Y-31442D01*
X55229Y-31441D01*
X55085Y-31501D01*
X54974Y-31611D01*
X54915Y-31755D01*
X54914Y-31911D01*
X54974Y-32055D01*
X55084Y-32166D01*
X55228Y-32225D01*
X55384Y-32226D01*
X55528Y-32166D01*
X55639Y-32056D01*
X55698Y-31912D01*
X55699Y-31756D01*
X55699Y-33996D01*
X54980Y-33996D01*
X54980Y-37152D01*
X54911Y-37151D01*
X54908Y-37153D01*
X54908Y-36296D01*
X54881Y-36233D01*
X54843Y-36195D01*
X54866Y-36172D01*
X54892Y-36109D01*
X54893Y-36040D01*
X54866Y-35977D01*
X54818Y-35929D01*
X54755Y-35903D01*
X54699Y-35902D01*
X54699Y-31756D01*
X54639Y-31612D01*
X54529Y-31501D01*
X54385Y-31442D01*
X54229Y-31441D01*
X54085Y-31501D01*
X53974Y-31611D01*
X53915Y-31755D01*
X53914Y-31911D01*
X53974Y-32055D01*
X54084Y-32166D01*
X54228Y-32225D01*
X54384Y-32226D01*
X54528Y-32166D01*
X54639Y-32056D01*
X54698Y-31912D01*
X54699Y-31756D01*
X54699Y-35902D01*
X54686Y-35902D01*
X54623Y-35929D01*
X54575Y-35977D01*
X54549Y-36040D01*
X54548Y-36109D01*
X54575Y-36172D01*
X54613Y-36210D01*
X54590Y-36233D01*
X54564Y-36296D01*
X54563Y-36365D01*
X54590Y-36428D01*
X54638Y-36476D01*
X54701Y-36502D01*
X54770Y-36503D01*
X54833Y-36476D01*
X54881Y-36428D01*
X54907Y-36365D01*
X54908Y-36296D01*
X54908Y-37153D01*
X54840Y-37180D01*
X54787Y-37234D01*
X54758Y-37304D01*
X54757Y-37380D01*
X54786Y-37451D01*
X54840Y-37504D01*
X54910Y-37533D01*
X54980Y-37534D01*
X54980Y-42890D01*
X54949Y-42890D01*
X54886Y-42917D01*
X54856Y-42947D01*
X54818Y-42909D01*
X54755Y-42883D01*
X54686Y-42882D01*
X54625Y-42908D01*
X54625Y-37284D01*
X54598Y-37221D01*
X54550Y-37173D01*
X54487Y-37147D01*
X54418Y-37146D01*
X54412Y-37149D01*
X54412Y-34403D01*
X54383Y-34332D01*
X54329Y-34279D01*
X54259Y-34250D01*
X54183Y-34249D01*
X54112Y-34278D01*
X54059Y-34332D01*
X54030Y-34402D01*
X54029Y-34478D01*
X54058Y-34549D01*
X54112Y-34602D01*
X54182Y-34631D01*
X54258Y-34632D01*
X54329Y-34603D01*
X54382Y-34549D01*
X54411Y-34479D01*
X54412Y-34403D01*
X54412Y-37149D01*
X54355Y-37173D01*
X54307Y-37221D01*
X54281Y-37284D01*
X54280Y-37353D01*
X54307Y-37416D01*
X54355Y-37464D01*
X54418Y-37490D01*
X54487Y-37491D01*
X54550Y-37464D01*
X54598Y-37416D01*
X54624Y-37353D01*
X54625Y-37284D01*
X54625Y-42908D01*
X54623Y-42909D01*
X54575Y-42957D01*
X54549Y-43020D01*
X54548Y-43089D01*
X54575Y-43152D01*
X54623Y-43200D01*
X54686Y-43226D01*
X54755Y-43227D01*
X54818Y-43200D01*
X54848Y-43170D01*
X54886Y-43208D01*
X54949Y-43234D01*
X54980Y-43234D01*
X54980Y-45084D01*
X54766Y-45084D01*
X54758Y-45066D01*
X54732Y-45039D01*
X54698Y-45025D01*
X54660Y-45025D01*
X54385Y-45025D01*
X54351Y-45039D01*
X54325Y-45065D01*
X54311Y-45100D01*
X54310Y-45137D01*
X54310Y-45451D01*
X54325Y-45485D01*
X54351Y-45512D01*
X54385Y-45526D01*
X54423Y-45526D01*
X54698Y-45526D01*
X54732Y-45512D01*
X54758Y-45486D01*
X54766Y-45467D01*
X54980Y-45467D01*
X54980Y-46082D01*
X62893Y-46082D01*
X62893Y-45610D01*
X66004Y-45610D01*
X66004Y-49508D01*
G54D10*
G36*
X54111Y-44083D02*
X53831Y-44363D01*
X53388Y-44363D01*
X53388Y-43811D01*
X53464Y-43735D01*
X54111Y-43735D01*
X54111Y-44083D01*
X54111Y-44083D01*
G37*
G54D11*
X54111Y-44083D02*
X53831Y-44363D01*
X53388Y-44363D01*
X53388Y-43811D01*
X53464Y-43735D01*
X54111Y-43735D01*
X54111Y-44083D01*
G54D10*
G36*
X51854Y-45110D02*
X51098Y-45110D01*
X51043Y-45058D01*
X51043Y-44747D01*
X51127Y-44659D01*
X51283Y-44504D01*
X51283Y-43196D01*
X51854Y-43196D01*
X51854Y-45110D01*
X51854Y-45110D01*
G37*
G54D115*
X51854Y-45110D02*
X51098Y-45110D01*
X51043Y-45058D01*
X51043Y-44747D01*
X51127Y-44659D01*
X51283Y-44504D01*
X51283Y-43196D01*
X51854Y-43196D01*
X51854Y-45110D01*
G54D10*
G36*
X57417Y-34500D02*
X56807Y-34500D01*
X56807Y-34240D01*
X57417Y-34240D01*
X57417Y-34500D01*
X57417Y-34500D01*
G37*
G54D115*
X57417Y-34500D02*
X56807Y-34500D01*
X56807Y-34240D01*
X57417Y-34240D01*
X57417Y-34500D01*
G54D10*
G36*
X56866Y-45636D02*
X56259Y-45636D01*
X56259Y-45375D01*
X56866Y-45375D01*
X56866Y-45636D01*
X56866Y-45636D01*
G37*
G54D115*
X56866Y-45636D02*
X56259Y-45636D01*
X56259Y-45375D01*
X56866Y-45375D01*
X56866Y-45636D01*
G54D10*
G36*
X66004Y-44035D02*
X65728Y-44035D01*
X65728Y-39344D01*
X65728Y-38962D01*
X65531Y-38884D01*
X65531Y-38101D01*
X65362Y-37933D01*
X63849Y-37933D01*
X63681Y-38101D01*
X63681Y-39303D01*
X63956Y-39421D01*
X63956Y-42016D01*
X64125Y-42184D01*
X65362Y-42184D01*
X65531Y-42016D01*
X65531Y-39422D01*
X65728Y-39344D01*
X65728Y-44035D01*
X65709Y-44035D01*
X62893Y-44035D01*
X62893Y-36082D01*
X66004Y-36082D01*
X66004Y-39500D01*
X65997Y-39516D01*
X65997Y-39624D01*
X66004Y-39641D01*
X66004Y-39933D01*
X65997Y-39949D01*
X65997Y-40057D01*
X66004Y-40074D01*
X66004Y-40366D01*
X65997Y-40382D01*
X65997Y-40490D01*
X66004Y-40507D01*
X66004Y-40799D01*
X65997Y-40815D01*
X65997Y-40923D01*
X66004Y-40940D01*
X66004Y-44035D01*
X66004Y-44035D01*
G37*
G54D115*
X66004Y-44035D02*
X65728Y-44035D01*
X65728Y-39344D01*
X65728Y-38962D01*
X65531Y-38884D01*
X65531Y-38101D01*
X65362Y-37933D01*
X63849Y-37933D01*
X63681Y-38101D01*
X63681Y-39303D01*
X63956Y-39421D01*
X63956Y-42016D01*
X64125Y-42184D01*
X65362Y-42184D01*
X65531Y-42016D01*
X65531Y-39422D01*
X65728Y-39344D01*
X65728Y-44035D01*
X65709Y-44035D01*
X62893Y-44035D01*
X62893Y-36082D01*
X66004Y-36082D01*
X66004Y-39500D01*
X65997Y-39516D01*
X65997Y-39624D01*
X66004Y-39641D01*
X66004Y-39933D01*
X65997Y-39949D01*
X65997Y-40057D01*
X66004Y-40074D01*
X66004Y-40366D01*
X65997Y-40382D01*
X65997Y-40490D01*
X66004Y-40507D01*
X66004Y-40799D01*
X65997Y-40815D01*
X65997Y-40923D01*
X66004Y-40940D01*
X66004Y-44035D01*
G54D10*
G36*
X59074Y-41358D02*
X56436Y-41358D01*
X56436Y-38720D01*
X59074Y-38720D01*
X59074Y-41358D01*
X59074Y-41358D01*
G37*
G54D115*
X59074Y-41358D02*
X56436Y-41358D01*
X56436Y-38720D01*
X59074Y-38720D01*
X59074Y-41358D01*
M02*
