G04 (created by PCBNEW-RS274X (2012-08-04 BZR 3667)-testing) date 10/19/2012 6:39:08 PM*
%MOIN*%
G04 Gerber Fmt 3.4, Leading zero omitted, Abs format*
%FSLAX34Y34*%
G01*
G70*
G90*
G04 APERTURE LIST*
%ADD10C,0.0017*%
%ADD11C,0.0059*%
%ADD12C,0.0077*%
%ADD13C,0.0432*%
%ADD14C,0.0195*%
%ADD15C,0.0157*%
%ADD16C,0.0354*%
%ADD17C,0.2165*%
%ADD18C,0.051*%
%ADD19C,0.055*%
%ADD20C,0.0597*%
%ADD21R,0.0597X0.0597*%
%ADD22C,0.0196*%
%ADD23C,0.0138*%
%ADD24C,0.0039*%
G04 APERTURE END LIST*
G54D10*
G54D11*
X41831Y-53937D02*
G75*
G03X41831Y-53937I-492J0D01*
G74*
G01*
X40355Y-53937D02*
X42323Y-53937D01*
X41339Y-52953D02*
X41339Y-54921D01*
X70964Y-26378D02*
G75*
G03X70964Y-26378I-492J0D01*
G74*
G01*
X69488Y-26378D02*
X71456Y-26378D01*
X70472Y-25394D02*
X70472Y-27362D01*
X41831Y-26378D02*
G75*
G03X41831Y-26378I-492J0D01*
G74*
G01*
X40355Y-26378D02*
X42323Y-26378D01*
X41339Y-25394D02*
X41339Y-27362D01*
G54D12*
X42606Y-52483D02*
X42606Y-27680D01*
X68983Y-52483D02*
X42606Y-52483D01*
X68983Y-27680D02*
X68983Y-52483D01*
X42606Y-27680D02*
X68983Y-27680D01*
X66228Y-30437D02*
X66228Y-39492D01*
X57764Y-30437D02*
X66228Y-30437D01*
X57764Y-29650D02*
X57764Y-30437D01*
X67016Y-29650D02*
X57764Y-29650D01*
X67016Y-39492D02*
X67016Y-29650D01*
X66228Y-39492D02*
X67016Y-39492D01*
X57764Y-50515D02*
X57764Y-49728D01*
X67016Y-50515D02*
X57764Y-50515D01*
X67016Y-40948D02*
X67016Y-50515D01*
X66228Y-40948D02*
X67016Y-40948D01*
X66228Y-49728D02*
X66228Y-40948D01*
X57764Y-49728D02*
X66228Y-49728D01*
X46936Y-50515D02*
X46936Y-44413D01*
X56386Y-50515D02*
X46936Y-50515D01*
X56386Y-49728D02*
X56386Y-50515D01*
X47724Y-49728D02*
X56386Y-49728D01*
X47724Y-44413D02*
X47724Y-49728D01*
X46936Y-44413D02*
X47724Y-44413D01*
X46936Y-43390D02*
X46936Y-35555D01*
X47724Y-43390D02*
X46936Y-43390D01*
X47724Y-35555D02*
X47724Y-43390D01*
X46936Y-35555D02*
X47724Y-35555D01*
X47724Y-30437D02*
X47724Y-34570D01*
X46936Y-34570D02*
X47724Y-34570D01*
X46936Y-29648D02*
X46936Y-34570D01*
X46936Y-29648D02*
X56384Y-29648D01*
X56384Y-29648D02*
X56384Y-30437D01*
X47724Y-30437D02*
X56384Y-30437D01*
G54D13*
X49554Y-45454D03*
X49554Y-35062D03*
G54D14*
X56102Y-43975D03*
G54D15*
X61013Y-44997D03*
X61363Y-45005D03*
X61158Y-45292D03*
X61386Y-35540D03*
X61024Y-35536D03*
X61024Y-35198D03*
X61394Y-35193D03*
X56791Y-43535D03*
X63583Y-34409D03*
G54D16*
X47725Y-34630D03*
X47725Y-35063D03*
X47725Y-35496D03*
X47725Y-44335D03*
X47725Y-43902D03*
X47725Y-43469D03*
X66268Y-39571D03*
X66268Y-40004D03*
X66268Y-40437D03*
X66268Y-40870D03*
G54D15*
X58299Y-40354D03*
X58299Y-39921D03*
X58082Y-40138D03*
X58515Y-40138D03*
X61129Y-38252D03*
X61011Y-37386D03*
X63553Y-36201D03*
X63571Y-36520D03*
X63571Y-36993D03*
X52273Y-32898D03*
X52272Y-33331D03*
X51445Y-33331D03*
X51446Y-32898D03*
X59398Y-33803D03*
X59005Y-33804D03*
X61367Y-33804D03*
X61760Y-33803D03*
X64005Y-31204D03*
X65736Y-31283D03*
X53610Y-30890D03*
X53059Y-30890D03*
X59791Y-30889D03*
X59201Y-30889D03*
X58571Y-30889D03*
X57901Y-30889D03*
X57311Y-30890D03*
X54240Y-30890D03*
X54831Y-30890D03*
X55461Y-30890D03*
X56130Y-30890D03*
X56721Y-30890D03*
X62783Y-30889D03*
X62193Y-30889D03*
X61563Y-30889D03*
X60893Y-30889D03*
X60382Y-30890D03*
X63335Y-30890D03*
X63846Y-30889D03*
X64516Y-30889D03*
X65146Y-30889D03*
X65736Y-30889D03*
X63127Y-32925D03*
X63138Y-33292D03*
X63600Y-33280D03*
X62655Y-33280D03*
X63453Y-32544D03*
X61484Y-32544D03*
X62065Y-32532D03*
X60894Y-32544D03*
X62744Y-32544D03*
X60658Y-33292D03*
X61120Y-33280D03*
X62065Y-33280D03*
X61603Y-33292D03*
X59752Y-33292D03*
X60214Y-33280D03*
X55953Y-33291D03*
X55312Y-33271D03*
X60343Y-32544D03*
X59269Y-33280D03*
X56465Y-33291D03*
X56965Y-33280D03*
X54289Y-33271D03*
X54762Y-33271D03*
X58807Y-33292D03*
X57410Y-33291D03*
X50618Y-30929D03*
X50895Y-32898D03*
X50894Y-33331D03*
X49281Y-33527D03*
X50028Y-30929D03*
X49950Y-33567D03*
X49398Y-30929D03*
X48728Y-30929D03*
X48256Y-35103D03*
X48650Y-35102D03*
X48650Y-34552D03*
X48256Y-34552D03*
X48256Y-33410D03*
X48650Y-33410D03*
X48650Y-33961D03*
X48256Y-33961D03*
X48255Y-32898D03*
X48255Y-32504D03*
X48255Y-32032D03*
X48255Y-31520D03*
X48256Y-30929D03*
X52627Y-36166D03*
X51995Y-39173D03*
X51680Y-39173D03*
X51365Y-39173D03*
X51010Y-39212D03*
X51004Y-38953D03*
X51012Y-39551D03*
X51012Y-40181D03*
X55718Y-42968D03*
X55450Y-43472D03*
X54248Y-41252D03*
X53937Y-41520D03*
X53925Y-41248D03*
X52413Y-41387D03*
X51196Y-41394D03*
X63602Y-33632D03*
X63612Y-33967D03*
X64016Y-36220D03*
X64043Y-36559D03*
X64035Y-34409D03*
X64043Y-34039D03*
X65462Y-33764D03*
X65776Y-33764D03*
X65146Y-33764D03*
X64832Y-33764D03*
X64202Y-33764D03*
X64516Y-33764D03*
X64516Y-36835D03*
X64202Y-36835D03*
X64832Y-36835D03*
X65146Y-36835D03*
X65776Y-36835D03*
X65462Y-36835D03*
X65697Y-42268D03*
X65696Y-41677D03*
X65696Y-41087D03*
X65696Y-40535D03*
X65697Y-37977D03*
X65697Y-38646D03*
X65697Y-39906D03*
X63570Y-40024D03*
X63570Y-39591D03*
X63571Y-39079D03*
X63571Y-38528D03*
X63571Y-37977D03*
X63570Y-42937D03*
X63570Y-40535D03*
X63570Y-41087D03*
X63570Y-41677D03*
X63571Y-42268D03*
X63137Y-42584D03*
X63138Y-42230D03*
X63138Y-39867D03*
X63137Y-40221D03*
X63136Y-37859D03*
X63137Y-37505D03*
X62626Y-36717D03*
X62626Y-36205D03*
X62626Y-35772D03*
X62626Y-37229D03*
X62626Y-37858D03*
X63571Y-37504D03*
X62114Y-38488D03*
X62665Y-38488D03*
X62114Y-37858D03*
X62114Y-37229D03*
X61169Y-44473D03*
X61721Y-43882D03*
X61681Y-44355D03*
X62274Y-40728D03*
X62271Y-41166D03*
X62271Y-41756D03*
X62271Y-42307D03*
X62271Y-44315D03*
X62272Y-43646D03*
X62271Y-42937D03*
X62704Y-42307D03*
X62704Y-41756D03*
X62704Y-41166D03*
X62697Y-40728D03*
X62704Y-42937D03*
X62705Y-43646D03*
X62704Y-44315D03*
X58732Y-40354D03*
X57866Y-40354D03*
X57433Y-40354D03*
X57000Y-40354D03*
X56783Y-40571D03*
X57216Y-40571D03*
X57653Y-40571D03*
X58082Y-40571D03*
X58515Y-40571D03*
X58515Y-41004D03*
X58082Y-41004D03*
X57653Y-41004D03*
X57216Y-41004D03*
X56783Y-41004D03*
X57000Y-40787D03*
X57433Y-40787D03*
X58299Y-40787D03*
X57866Y-40787D03*
X58732Y-40787D03*
X58732Y-39921D03*
X57866Y-39921D03*
X57433Y-39921D03*
X57000Y-39921D03*
X56783Y-40138D03*
X57216Y-40138D03*
X57653Y-40138D03*
X58515Y-39705D03*
X58082Y-39705D03*
X57653Y-39705D03*
X57216Y-39705D03*
X56783Y-39705D03*
X57000Y-39488D03*
X57433Y-39488D03*
X58299Y-39488D03*
X57866Y-39488D03*
X58732Y-39488D03*
X58732Y-39055D03*
X57866Y-39055D03*
X58299Y-39055D03*
X57433Y-39055D03*
X57000Y-39055D03*
X56783Y-39272D03*
X57216Y-39272D03*
X57653Y-39272D03*
X58082Y-39272D03*
X58515Y-39272D03*
X64055Y-43533D03*
X64045Y-43858D03*
X64555Y-43282D03*
X64241Y-43282D03*
X64871Y-43282D03*
X65185Y-43282D03*
X65815Y-43282D03*
X65501Y-43282D03*
X65510Y-46353D03*
X65824Y-46353D03*
X65194Y-46353D03*
X64880Y-46353D03*
X64065Y-46083D03*
X64035Y-45758D03*
X63514Y-46358D03*
X64250Y-46353D03*
X64564Y-46353D03*
X63553Y-43435D03*
X63553Y-43907D03*
X63494Y-45856D03*
X60472Y-44461D03*
X57598Y-45152D03*
X57598Y-44837D03*
X56249Y-44866D03*
X55658Y-44866D03*
X54516Y-38173D03*
X54516Y-37858D03*
X54005Y-37858D03*
X55028Y-44236D03*
X54162Y-43488D03*
X54756Y-43909D03*
X65736Y-47032D03*
X64319Y-49355D03*
X65736Y-49355D03*
X65106Y-49355D03*
X60622Y-47855D03*
X62889Y-49028D03*
X62889Y-49343D03*
X63480Y-49343D03*
X63480Y-49028D03*
X60566Y-49028D03*
X60566Y-49343D03*
X61118Y-49343D03*
X61118Y-49028D03*
X62260Y-49028D03*
X62260Y-49343D03*
X61709Y-49343D03*
X61709Y-49028D03*
X59465Y-49028D03*
X59465Y-49343D03*
X60016Y-49343D03*
X60016Y-49028D03*
X58914Y-49028D03*
X58914Y-49343D03*
X58323Y-49343D03*
X58323Y-49028D03*
X58335Y-48567D03*
X63138Y-46953D03*
X62587Y-46953D03*
X61012Y-46941D03*
X62004Y-46957D03*
X58465Y-46850D03*
X58099Y-46835D03*
X57547Y-46835D03*
X56996Y-46835D03*
X56484Y-46835D03*
X56012Y-46835D03*
X53932Y-47357D03*
X59417Y-46406D03*
X61760Y-46284D03*
X61406Y-46284D03*
X56642Y-46284D03*
X56996Y-46284D03*
X52378Y-46382D03*
X52031Y-46382D03*
X50539Y-46873D03*
X49870Y-46676D03*
X49240Y-46755D03*
X48295Y-45968D03*
X48689Y-45968D03*
X48689Y-45496D03*
X48295Y-45496D03*
X48295Y-46441D03*
X48689Y-46441D03*
X48689Y-46913D03*
X48295Y-46913D03*
X48295Y-47386D03*
X48295Y-47937D03*
X48295Y-48449D03*
X48295Y-48921D03*
X48295Y-49315D03*
X48965Y-49315D03*
X49673Y-49315D03*
X50382Y-49315D03*
G54D14*
X48861Y-45087D03*
X48546Y-45087D03*
X48231Y-45087D03*
X52389Y-43424D03*
X52744Y-43424D03*
X52941Y-43620D03*
X52586Y-43621D03*
X52782Y-45375D03*
X52782Y-45690D03*
X52584Y-45927D03*
X52190Y-45927D03*
X51994Y-45690D03*
X51994Y-45375D03*
G54D17*
X49752Y-32228D03*
X64791Y-32228D03*
X64791Y-47975D03*
X49752Y-47975D03*
G54D14*
X56378Y-43975D03*
X52232Y-43621D03*
X52112Y-49195D03*
X51720Y-49197D03*
X52507Y-49197D03*
X51325Y-49197D03*
X52902Y-49197D03*
X51325Y-48802D03*
X51325Y-48410D03*
X51325Y-48015D03*
X51325Y-47622D03*
X51325Y-47267D03*
X51720Y-47267D03*
X52114Y-47267D03*
X52507Y-47267D03*
X52900Y-47267D03*
X52900Y-47622D03*
X52900Y-48015D03*
X52900Y-48410D03*
X52900Y-48802D03*
G54D16*
X56426Y-49768D03*
X56859Y-49768D03*
X57292Y-49768D03*
X57726Y-49768D03*
X56425Y-30437D03*
X56858Y-30437D03*
X57291Y-30437D03*
X57725Y-30437D03*
G54D14*
X54516Y-48607D03*
X54831Y-48607D03*
X55146Y-48607D03*
X55461Y-48607D03*
X59419Y-47520D03*
X60512Y-47510D03*
X62312Y-47426D03*
X63336Y-47426D03*
G54D18*
X51299Y-32217D03*
X52299Y-32217D03*
X52299Y-31217D03*
X51299Y-31217D03*
G54D19*
X51799Y-31717D03*
G54D20*
X58307Y-31834D03*
X57307Y-31834D03*
X56307Y-31834D03*
X55307Y-31834D03*
G54D21*
X53307Y-31814D03*
G54D20*
X54307Y-31834D03*
G54D21*
X57576Y-49079D03*
G54D20*
X56576Y-49079D03*
X63314Y-31834D03*
X62314Y-31834D03*
X61314Y-31834D03*
G54D21*
X59314Y-31814D03*
G54D20*
X60314Y-31834D03*
X63043Y-48350D03*
X62043Y-48350D03*
X61043Y-48350D03*
G54D21*
X59043Y-48330D03*
G54D20*
X60043Y-48350D03*
G54D14*
X56783Y-43173D03*
X61728Y-40646D03*
X61398Y-43563D03*
X61821Y-42018D03*
X61594Y-38083D03*
X55748Y-43512D03*
X55032Y-45276D03*
X58976Y-46772D03*
G54D15*
X60177Y-35130D03*
G54D14*
X54949Y-37343D03*
G54D15*
X52646Y-37508D03*
G54D14*
X54221Y-34441D03*
X51169Y-34244D03*
X57756Y-43449D03*
G54D15*
X56949Y-42618D03*
G54D14*
X58264Y-43146D03*
X61614Y-45787D03*
X60142Y-42921D03*
G54D15*
X55299Y-38228D03*
G54D14*
X62039Y-39803D03*
X59910Y-37815D03*
X62036Y-39500D03*
G54D15*
X49256Y-36028D03*
X53323Y-36453D03*
G54D14*
X50921Y-43799D03*
X51012Y-36701D03*
G54D15*
X48154Y-36225D03*
X48154Y-35831D03*
G54D14*
X48158Y-36717D03*
X48150Y-39079D03*
X48189Y-41437D03*
G54D15*
X48032Y-37599D03*
X48047Y-38189D03*
X48024Y-39571D03*
X48028Y-40551D03*
X48032Y-41933D03*
X48032Y-42918D03*
X48197Y-43508D03*
G54D14*
X48138Y-43807D03*
G54D15*
X48102Y-44492D03*
X50921Y-44492D03*
G54D14*
X58002Y-47500D03*
G54D15*
X59961Y-44311D03*
X58626Y-44390D03*
X58413Y-43508D03*
X60205Y-43484D03*
X61614Y-45291D03*
X60531Y-45295D03*
X59882Y-37386D03*
X58256Y-36228D03*
X57106Y-36587D03*
G54D14*
X58616Y-45230D03*
G54D15*
X61102Y-40835D03*
G54D14*
X57668Y-44518D03*
G54D15*
X52012Y-34799D03*
X61264Y-40071D03*
X54457Y-43477D03*
G54D14*
X53465Y-45815D03*
G54D15*
X54579Y-44225D03*
G54D14*
X54268Y-46508D03*
G54D15*
X60441Y-34681D03*
G54D14*
X57984Y-48284D03*
G54D15*
X61957Y-34823D03*
X60906Y-36260D03*
X61957Y-35933D03*
X62154Y-36559D03*
X61228Y-42177D03*
X60882Y-38087D03*
X60780Y-39406D03*
X59350Y-37213D03*
G54D22*
X56091Y-35378D03*
X55579Y-35130D03*
G54D15*
X59508Y-36051D03*
X59650Y-35925D03*
X57094Y-35291D03*
X58354Y-35528D03*
X58370Y-36783D03*
X48165Y-37402D03*
X60266Y-35482D03*
X48193Y-37205D03*
X60246Y-35719D03*
X49132Y-37012D03*
X49565Y-42918D03*
X62392Y-45541D03*
G54D14*
X55217Y-44988D03*
G54D15*
X60030Y-41211D03*
G54D23*
X59065Y-39931D03*
G54D15*
X56957Y-42059D03*
G54D23*
X56663Y-41339D03*
G54D15*
X60319Y-39984D03*
G54D23*
X56870Y-38720D03*
G54D15*
X55981Y-37386D03*
G54D23*
X59065Y-38750D03*
G54D14*
X52811Y-44992D03*
X53539Y-43862D03*
X53539Y-44197D03*
G54D23*
X59075Y-41112D03*
G54D15*
X60039Y-41437D03*
X55638Y-36756D03*
G54D23*
X57067Y-38720D03*
G54D15*
X59272Y-41807D03*
X59748Y-39020D03*
G54D23*
X58238Y-41339D03*
X59065Y-39144D03*
X59065Y-38947D03*
X59055Y-40128D03*
X57854Y-38720D03*
G54D15*
X59150Y-37972D03*
G54D23*
X57057Y-41339D03*
G54D15*
X55933Y-38528D03*
G54D23*
X56437Y-39734D03*
X56437Y-40325D03*
G54D15*
X56260Y-42953D03*
G54D23*
X56860Y-41339D03*
G54D14*
X60154Y-42638D03*
G54D23*
X59065Y-41309D03*
G54D15*
X55394Y-39638D03*
X53650Y-41536D03*
G54D23*
X56437Y-41112D03*
G54D15*
X53583Y-40201D03*
G54D23*
X56437Y-39931D03*
G54D15*
X55831Y-39047D03*
G54D23*
X56437Y-40915D03*
G54D15*
X53579Y-41925D03*
X53602Y-40559D03*
G54D23*
X56437Y-40128D03*
G54D15*
X55303Y-40032D03*
X53662Y-38355D03*
G54D23*
X56437Y-38750D03*
G54D15*
X55709Y-39445D03*
X52193Y-35890D03*
X59740Y-40740D03*
X54453Y-37319D03*
X51721Y-37508D03*
X54721Y-36075D03*
X59787Y-39870D03*
X55555Y-39028D03*
G54D23*
X56437Y-38947D03*
G54D15*
X53662Y-38555D03*
X53610Y-39571D03*
G54D23*
X56437Y-39537D03*
G54D15*
X53626Y-39370D03*
G54D23*
X56437Y-39341D03*
G54D15*
X53579Y-42122D03*
G54D23*
X56437Y-40719D03*
G54D15*
X55772Y-40232D03*
X55890Y-41016D03*
X55260Y-41209D03*
X55815Y-41406D03*
X55445Y-41846D03*
X56303Y-41937D03*
X53650Y-38981D03*
G54D23*
X56437Y-39144D03*
G54D15*
X53587Y-41040D03*
G54D23*
X56437Y-40522D03*
G54D15*
X55288Y-40421D03*
X55701Y-40618D03*
X55366Y-40819D03*
X55705Y-41839D03*
G54D23*
X59065Y-40325D03*
G54D15*
X51732Y-36461D03*
X53591Y-41236D03*
G54D23*
X56447Y-41309D03*
G54D15*
X59951Y-40876D03*
X51728Y-36957D03*
G54D23*
X59065Y-40522D03*
G54D15*
X52870Y-37327D03*
X51728Y-37240D03*
X52870Y-36752D03*
X59669Y-40425D03*
X55736Y-39831D03*
X53906Y-34843D03*
X48193Y-37984D03*
X52906Y-35095D03*
X52543Y-37827D03*
X57205Y-42071D03*
X60473Y-41000D03*
G54D23*
X59065Y-40915D03*
X59065Y-39341D03*
G54D15*
X60339Y-39244D03*
X57465Y-41937D03*
G54D23*
X57254Y-41339D03*
G54D15*
X59646Y-40225D03*
X54736Y-36331D03*
X49354Y-37402D03*
X53071Y-34862D03*
X52276Y-40847D03*
X52248Y-40394D03*
X48185Y-39965D03*
X48221Y-38386D03*
X52516Y-38162D03*
X48201Y-39768D03*
X52232Y-40016D03*
X48197Y-39370D03*
X52402Y-39815D03*
X48079Y-38783D03*
X52386Y-39181D03*
X48193Y-38591D03*
X52366Y-38772D03*
G54D23*
X59065Y-39734D03*
G54D15*
X51445Y-35929D03*
X52213Y-40654D03*
X48181Y-40355D03*
X55984Y-38016D03*
X56319Y-38122D03*
X56575Y-38130D03*
G54D23*
X56673Y-38711D03*
G54D15*
X49744Y-36425D03*
X49634Y-37205D03*
X49917Y-37012D03*
X49748Y-36225D03*
X51717Y-37992D03*
X52535Y-41732D03*
X48173Y-42331D03*
X52118Y-42354D03*
X54984Y-43063D03*
X48173Y-40748D03*
X55453Y-43067D03*
X51752Y-40748D03*
X48181Y-42130D03*
X51917Y-42355D03*
X48197Y-41732D03*
X51398Y-42355D03*
X48075Y-41142D03*
X51638Y-42355D03*
X48201Y-40949D03*
X54721Y-43055D03*
X51091Y-40949D03*
X55225Y-43067D03*
G54D23*
X59065Y-40719D03*
G54D15*
X51669Y-35288D03*
G54D23*
X58435Y-41339D03*
G54D15*
X58536Y-41973D03*
X59281Y-42067D03*
X58740Y-41969D03*
X52465Y-41043D03*
X49535Y-42618D03*
X48154Y-42725D03*
G54D14*
X51169Y-44827D03*
X51169Y-45063D03*
G54D12*
X58489Y-42921D02*
X58264Y-43146D01*
X57756Y-43148D02*
X57756Y-43405D01*
X57756Y-43405D02*
X57756Y-43449D01*
X56949Y-42618D02*
X56949Y-42811D01*
X57288Y-43150D02*
X57756Y-43148D01*
X56949Y-42811D02*
X57288Y-43150D01*
X57756Y-43148D02*
X58264Y-43146D01*
X60142Y-42921D02*
X58489Y-42921D01*
X53323Y-36453D02*
X52338Y-36453D01*
X50060Y-36028D02*
X49256Y-36028D01*
X50139Y-36107D02*
X50060Y-36028D01*
X51992Y-36107D02*
X50139Y-36107D01*
X52338Y-36453D02*
X51992Y-36107D01*
G54D24*
X49132Y-42593D02*
X49132Y-37012D01*
X49565Y-42918D02*
X49132Y-42593D01*
G54D12*
X59715Y-41437D02*
X59386Y-41114D01*
X59386Y-41114D02*
X59075Y-41112D01*
X60039Y-41437D02*
X59715Y-41437D01*
X59150Y-37972D02*
X58445Y-37972D01*
X58445Y-37972D02*
X57854Y-38720D01*
G54D24*
X54453Y-37319D02*
X54453Y-36343D01*
X54453Y-36343D02*
X54721Y-36075D01*
X52870Y-36752D02*
X52870Y-37327D01*
G54D12*
X53906Y-34843D02*
X53363Y-34843D01*
X48862Y-37162D02*
X48193Y-37984D01*
X48862Y-36036D02*
X48862Y-37162D01*
X49122Y-35776D02*
X48862Y-36036D01*
X49314Y-35776D02*
X49122Y-35776D01*
X50491Y-34599D02*
X49314Y-35776D01*
X53119Y-34599D02*
X50491Y-34599D01*
X53363Y-34843D02*
X53119Y-34599D01*
X52906Y-35095D02*
X52906Y-35752D01*
X52949Y-37827D02*
X52543Y-37827D01*
X53543Y-37232D02*
X52949Y-37827D01*
X53543Y-36389D02*
X53543Y-37232D01*
X52906Y-35752D02*
X53543Y-36389D01*
X60473Y-41000D02*
X60354Y-41043D01*
X60354Y-41043D02*
X59646Y-41043D01*
X59508Y-40918D02*
X59065Y-40915D01*
X59646Y-41043D02*
X59508Y-40918D01*
X59587Y-39244D02*
X59488Y-39343D01*
X59488Y-39343D02*
X59065Y-39341D01*
X59587Y-39244D02*
X60339Y-39244D01*
X53071Y-34862D02*
X53067Y-35646D01*
X52610Y-40513D02*
X52276Y-40847D01*
X52610Y-38579D02*
X52610Y-40513D01*
X53705Y-37484D02*
X52610Y-38579D01*
X53705Y-36284D02*
X53705Y-37484D01*
X53067Y-35646D02*
X53705Y-36284D01*
G54D24*
X59314Y-31814D02*
X59314Y-31820D01*
X55476Y-37508D02*
X55984Y-38016D01*
X55476Y-35658D02*
X55476Y-37508D01*
X59314Y-31820D02*
X55476Y-35658D01*
X60314Y-31834D02*
X60314Y-32155D01*
X56319Y-34949D02*
X56319Y-38122D01*
X58721Y-32547D02*
X56319Y-34949D01*
X59922Y-32547D02*
X58721Y-32547D01*
X60314Y-32155D02*
X59922Y-32547D01*
X62314Y-31834D02*
X62314Y-32624D01*
X56575Y-34886D02*
X56575Y-38130D01*
X58705Y-32756D02*
X56575Y-34886D01*
X62182Y-32756D02*
X58705Y-32756D01*
X62314Y-32624D02*
X62182Y-32756D01*
X63314Y-31834D02*
X63314Y-32371D01*
X56764Y-38461D02*
X56673Y-38711D01*
X56776Y-34984D02*
X56764Y-38461D01*
X58796Y-32969D02*
X56776Y-34984D01*
X62716Y-32969D02*
X58796Y-32969D01*
X63314Y-32371D02*
X62716Y-32969D01*
X59043Y-48330D02*
X59048Y-48330D01*
X58398Y-41374D02*
X58435Y-41339D01*
X58396Y-42106D02*
X58398Y-41374D01*
X58760Y-42470D02*
X58396Y-42106D01*
X60266Y-42470D02*
X58760Y-42470D01*
X60374Y-42579D02*
X60266Y-42470D01*
X60374Y-43674D02*
X60374Y-42579D01*
X60138Y-43910D02*
X60374Y-43674D01*
X60138Y-47240D02*
X60138Y-43910D01*
X59048Y-48330D02*
X60138Y-47240D01*
X60043Y-48350D02*
X60043Y-48201D01*
X58937Y-42372D02*
X58536Y-41973D01*
X60384Y-42372D02*
X58937Y-42372D01*
X60492Y-42480D02*
X60384Y-42372D01*
X60492Y-43780D02*
X60492Y-42480D01*
X60276Y-43996D02*
X60492Y-43780D01*
X60276Y-47972D02*
X60276Y-43996D01*
X60043Y-48201D02*
X60276Y-47972D01*
X63043Y-48350D02*
X62791Y-48350D01*
X60482Y-42077D02*
X59281Y-42067D01*
X60846Y-42441D02*
X60482Y-42077D01*
X60846Y-47293D02*
X60846Y-42441D01*
X61240Y-47697D02*
X60846Y-47293D01*
X62136Y-47697D02*
X61240Y-47697D01*
X62791Y-48350D02*
X62136Y-47697D01*
X62057Y-48356D02*
X61693Y-48356D01*
X59006Y-42254D02*
X58740Y-41969D01*
X60463Y-42254D02*
X59006Y-42254D01*
X60699Y-42490D02*
X60463Y-42254D01*
X60699Y-47362D02*
X60699Y-42490D01*
X61693Y-48356D02*
X60699Y-47362D01*
X49535Y-42618D02*
X50370Y-42618D01*
X51945Y-41043D02*
X52465Y-41043D01*
X50370Y-42618D02*
X51945Y-41043D01*
G54D10*
G36*
X53255Y-36291D02*
X53224Y-36305D01*
X53211Y-36318D01*
X52393Y-36318D01*
X52127Y-36051D01*
X52158Y-36065D01*
X52228Y-36065D01*
X52292Y-36038D01*
X52341Y-35989D01*
X52368Y-35925D01*
X52368Y-35855D01*
X52341Y-35791D01*
X52292Y-35742D01*
X52228Y-35715D01*
X52158Y-35715D01*
X52094Y-35742D01*
X52045Y-35791D01*
X52018Y-35855D01*
X52018Y-35925D01*
X52041Y-35981D01*
X51992Y-35972D01*
X51844Y-35972D01*
X51844Y-35323D01*
X51844Y-35253D01*
X51817Y-35189D01*
X51768Y-35140D01*
X51704Y-35113D01*
X51634Y-35113D01*
X51570Y-35140D01*
X51521Y-35189D01*
X51494Y-35253D01*
X51494Y-35323D01*
X51521Y-35387D01*
X51570Y-35436D01*
X51634Y-35463D01*
X51704Y-35463D01*
X51768Y-35436D01*
X51817Y-35387D01*
X51844Y-35323D01*
X51844Y-35972D01*
X51616Y-35972D01*
X51620Y-35964D01*
X51620Y-35894D01*
X51593Y-35830D01*
X51544Y-35781D01*
X51480Y-35754D01*
X51410Y-35754D01*
X51346Y-35781D01*
X51297Y-35830D01*
X51270Y-35894D01*
X51270Y-35964D01*
X51273Y-35972D01*
X50194Y-35972D01*
X50155Y-35933D01*
X50112Y-35903D01*
X50060Y-35893D01*
X49377Y-35893D01*
X49409Y-35871D01*
X50546Y-34734D01*
X52952Y-34734D01*
X52923Y-34763D01*
X52896Y-34827D01*
X52896Y-34897D01*
X52905Y-34920D01*
X52871Y-34920D01*
X52807Y-34947D01*
X52758Y-34996D01*
X52731Y-35060D01*
X52731Y-35130D01*
X52758Y-35194D01*
X52771Y-35207D01*
X52771Y-35752D01*
X52781Y-35804D01*
X52811Y-35847D01*
X53255Y-36291D01*
X53255Y-36291D01*
G37*
G54D24*
X53255Y-36291D02*
X53224Y-36305D01*
X53211Y-36318D01*
X52393Y-36318D01*
X52127Y-36051D01*
X52158Y-36065D01*
X52228Y-36065D01*
X52292Y-36038D01*
X52341Y-35989D01*
X52368Y-35925D01*
X52368Y-35855D01*
X52341Y-35791D01*
X52292Y-35742D01*
X52228Y-35715D01*
X52158Y-35715D01*
X52094Y-35742D01*
X52045Y-35791D01*
X52018Y-35855D01*
X52018Y-35925D01*
X52041Y-35981D01*
X51992Y-35972D01*
X51844Y-35972D01*
X51844Y-35323D01*
X51844Y-35253D01*
X51817Y-35189D01*
X51768Y-35140D01*
X51704Y-35113D01*
X51634Y-35113D01*
X51570Y-35140D01*
X51521Y-35189D01*
X51494Y-35253D01*
X51494Y-35323D01*
X51521Y-35387D01*
X51570Y-35436D01*
X51634Y-35463D01*
X51704Y-35463D01*
X51768Y-35436D01*
X51817Y-35387D01*
X51844Y-35323D01*
X51844Y-35972D01*
X51616Y-35972D01*
X51620Y-35964D01*
X51620Y-35894D01*
X51593Y-35830D01*
X51544Y-35781D01*
X51480Y-35754D01*
X51410Y-35754D01*
X51346Y-35781D01*
X51297Y-35830D01*
X51270Y-35894D01*
X51270Y-35964D01*
X51273Y-35972D01*
X50194Y-35972D01*
X50155Y-35933D01*
X50112Y-35903D01*
X50060Y-35893D01*
X49377Y-35893D01*
X49409Y-35871D01*
X50546Y-34734D01*
X52952Y-34734D01*
X52923Y-34763D01*
X52896Y-34827D01*
X52896Y-34897D01*
X52905Y-34920D01*
X52871Y-34920D01*
X52807Y-34947D01*
X52758Y-34996D01*
X52731Y-35060D01*
X52731Y-35130D01*
X52758Y-35194D01*
X52771Y-35207D01*
X52771Y-35752D01*
X52781Y-35804D01*
X52811Y-35847D01*
X53255Y-36291D01*
G54D10*
G36*
X53570Y-37428D02*
X52515Y-38484D01*
X52485Y-38527D01*
X52475Y-38579D01*
X52475Y-38634D01*
X52465Y-38624D01*
X52401Y-38597D01*
X52331Y-38597D01*
X52267Y-38624D01*
X52218Y-38673D01*
X52191Y-38737D01*
X52191Y-38807D01*
X52218Y-38871D01*
X52267Y-38920D01*
X52331Y-38947D01*
X52401Y-38947D01*
X52465Y-38920D01*
X52475Y-38910D01*
X52475Y-39028D01*
X52421Y-39006D01*
X52351Y-39006D01*
X52287Y-39033D01*
X52238Y-39082D01*
X52211Y-39146D01*
X52211Y-39216D01*
X52238Y-39280D01*
X52287Y-39329D01*
X52351Y-39356D01*
X52421Y-39356D01*
X52475Y-39333D01*
X52475Y-39656D01*
X52437Y-39640D01*
X52367Y-39640D01*
X52303Y-39667D01*
X52254Y-39716D01*
X52227Y-39780D01*
X52227Y-39841D01*
X52197Y-39841D01*
X52133Y-39868D01*
X52084Y-39917D01*
X52057Y-39981D01*
X52057Y-40051D01*
X52084Y-40115D01*
X52133Y-40164D01*
X52197Y-40191D01*
X52267Y-40191D01*
X52331Y-40164D01*
X52380Y-40115D01*
X52407Y-40051D01*
X52407Y-39990D01*
X52437Y-39990D01*
X52475Y-39973D01*
X52475Y-40457D01*
X52365Y-40566D01*
X52361Y-40555D01*
X52347Y-40541D01*
X52396Y-40493D01*
X52423Y-40429D01*
X52423Y-40359D01*
X52396Y-40295D01*
X52347Y-40246D01*
X52283Y-40219D01*
X52213Y-40219D01*
X52149Y-40246D01*
X52100Y-40295D01*
X52073Y-40359D01*
X52073Y-40429D01*
X52100Y-40493D01*
X52113Y-40506D01*
X52065Y-40555D01*
X52038Y-40619D01*
X52038Y-40689D01*
X52065Y-40753D01*
X52107Y-40795D01*
X52101Y-40812D01*
X52101Y-40882D01*
X52119Y-40927D01*
X51945Y-40927D01*
X51927Y-40930D01*
X51927Y-40783D01*
X51927Y-40713D01*
X51907Y-40665D01*
X51907Y-36496D01*
X51907Y-36426D01*
X51880Y-36362D01*
X51831Y-36313D01*
X51767Y-36286D01*
X51697Y-36286D01*
X51633Y-36313D01*
X51584Y-36362D01*
X51557Y-36426D01*
X51557Y-36496D01*
X51584Y-36560D01*
X51633Y-36609D01*
X51697Y-36636D01*
X51767Y-36636D01*
X51831Y-36609D01*
X51880Y-36560D01*
X51907Y-36496D01*
X51907Y-40665D01*
X51903Y-40656D01*
X51903Y-37275D01*
X51903Y-37205D01*
X51876Y-37141D01*
X51833Y-37098D01*
X51876Y-37056D01*
X51903Y-36992D01*
X51903Y-36922D01*
X51876Y-36858D01*
X51827Y-36809D01*
X51763Y-36782D01*
X51693Y-36782D01*
X51629Y-36809D01*
X51580Y-36858D01*
X51553Y-36922D01*
X51553Y-36992D01*
X51580Y-37056D01*
X51622Y-37098D01*
X51580Y-37141D01*
X51553Y-37205D01*
X51553Y-37275D01*
X51580Y-37339D01*
X51611Y-37370D01*
X51573Y-37409D01*
X51546Y-37473D01*
X51546Y-37543D01*
X51573Y-37607D01*
X51622Y-37656D01*
X51686Y-37683D01*
X51756Y-37683D01*
X51820Y-37656D01*
X51869Y-37607D01*
X51896Y-37543D01*
X51896Y-37473D01*
X51869Y-37409D01*
X51837Y-37377D01*
X51876Y-37339D01*
X51903Y-37275D01*
X51903Y-40656D01*
X51900Y-40649D01*
X51892Y-40641D01*
X51892Y-38027D01*
X51892Y-37957D01*
X51865Y-37893D01*
X51816Y-37844D01*
X51752Y-37817D01*
X51682Y-37817D01*
X51618Y-37844D01*
X51569Y-37893D01*
X51542Y-37957D01*
X51542Y-38027D01*
X51569Y-38091D01*
X51618Y-38140D01*
X51682Y-38167D01*
X51752Y-38167D01*
X51816Y-38140D01*
X51865Y-38091D01*
X51892Y-38027D01*
X51892Y-40641D01*
X51851Y-40600D01*
X51787Y-40573D01*
X51717Y-40573D01*
X51653Y-40600D01*
X51604Y-40649D01*
X51577Y-40713D01*
X51577Y-40783D01*
X51604Y-40847D01*
X51653Y-40896D01*
X51717Y-40923D01*
X51787Y-40923D01*
X51851Y-40896D01*
X51900Y-40847D01*
X51927Y-40783D01*
X51927Y-40930D01*
X51901Y-40936D01*
X51863Y-40961D01*
X51266Y-41558D01*
X51266Y-40984D01*
X51266Y-40914D01*
X51239Y-40850D01*
X51190Y-40801D01*
X51126Y-40774D01*
X51056Y-40774D01*
X50992Y-40801D01*
X50943Y-40850D01*
X50916Y-40914D01*
X50916Y-40984D01*
X50943Y-41048D01*
X50992Y-41097D01*
X51056Y-41124D01*
X51126Y-41124D01*
X51190Y-41097D01*
X51239Y-41048D01*
X51266Y-40984D01*
X51266Y-41558D01*
X50322Y-42502D01*
X49666Y-42502D01*
X49634Y-42470D01*
X49570Y-42443D01*
X49500Y-42443D01*
X49436Y-42470D01*
X49387Y-42519D01*
X49360Y-42583D01*
X49360Y-42618D01*
X49248Y-42534D01*
X49248Y-37543D01*
X49255Y-37550D01*
X49319Y-37577D01*
X49389Y-37577D01*
X49453Y-37550D01*
X49502Y-37501D01*
X49529Y-37437D01*
X49529Y-37367D01*
X49514Y-37332D01*
X49535Y-37353D01*
X49599Y-37380D01*
X49669Y-37380D01*
X49733Y-37353D01*
X49782Y-37304D01*
X49809Y-37240D01*
X49809Y-37170D01*
X49795Y-37137D01*
X49818Y-37160D01*
X49882Y-37187D01*
X49952Y-37187D01*
X50016Y-37160D01*
X50065Y-37111D01*
X50092Y-37047D01*
X50092Y-36977D01*
X50065Y-36913D01*
X50016Y-36864D01*
X49952Y-36837D01*
X49882Y-36837D01*
X49818Y-36864D01*
X49769Y-36913D01*
X49742Y-36977D01*
X49742Y-37047D01*
X49755Y-37079D01*
X49733Y-37057D01*
X49669Y-37030D01*
X49599Y-37030D01*
X49535Y-37057D01*
X49486Y-37106D01*
X49459Y-37170D01*
X49459Y-37240D01*
X49473Y-37274D01*
X49453Y-37254D01*
X49389Y-37227D01*
X49319Y-37227D01*
X49255Y-37254D01*
X49248Y-37261D01*
X49248Y-37143D01*
X49280Y-37111D01*
X49307Y-37047D01*
X49307Y-36977D01*
X49280Y-36913D01*
X49231Y-36864D01*
X49167Y-36837D01*
X49097Y-36837D01*
X49033Y-36864D01*
X48997Y-36900D01*
X48997Y-36091D01*
X49081Y-36007D01*
X49081Y-36063D01*
X49108Y-36127D01*
X49157Y-36176D01*
X49221Y-36203D01*
X49291Y-36203D01*
X49355Y-36176D01*
X49368Y-36163D01*
X49584Y-36163D01*
X49573Y-36190D01*
X49573Y-36260D01*
X49599Y-36322D01*
X49596Y-36326D01*
X49569Y-36390D01*
X49569Y-36460D01*
X49596Y-36524D01*
X49645Y-36573D01*
X49709Y-36600D01*
X49779Y-36600D01*
X49843Y-36573D01*
X49892Y-36524D01*
X49919Y-36460D01*
X49919Y-36390D01*
X49892Y-36327D01*
X49896Y-36324D01*
X49923Y-36260D01*
X49923Y-36190D01*
X49911Y-36163D01*
X50004Y-36163D01*
X50043Y-36202D01*
X50044Y-36202D01*
X50087Y-36232D01*
X50138Y-36241D01*
X50139Y-36242D01*
X51936Y-36242D01*
X52242Y-36548D01*
X52243Y-36548D01*
X52286Y-36578D01*
X52338Y-36588D01*
X52808Y-36588D01*
X52771Y-36604D01*
X52722Y-36653D01*
X52695Y-36717D01*
X52695Y-36787D01*
X52722Y-36851D01*
X52754Y-36883D01*
X52754Y-37196D01*
X52722Y-37228D01*
X52695Y-37292D01*
X52695Y-37338D01*
X52681Y-37333D01*
X52611Y-37333D01*
X52547Y-37360D01*
X52498Y-37409D01*
X52471Y-37473D01*
X52471Y-37543D01*
X52498Y-37607D01*
X52543Y-37652D01*
X52508Y-37652D01*
X52444Y-37679D01*
X52395Y-37728D01*
X52368Y-37792D01*
X52368Y-37862D01*
X52395Y-37926D01*
X52444Y-37975D01*
X52476Y-37988D01*
X52417Y-38014D01*
X52368Y-38063D01*
X52341Y-38127D01*
X52341Y-38197D01*
X52368Y-38261D01*
X52417Y-38310D01*
X52481Y-38337D01*
X52551Y-38337D01*
X52615Y-38310D01*
X52664Y-38261D01*
X52691Y-38197D01*
X52691Y-38127D01*
X52664Y-38063D01*
X52615Y-38014D01*
X52582Y-38000D01*
X52642Y-37975D01*
X52655Y-37962D01*
X52949Y-37962D01*
X52949Y-37961D01*
X53001Y-37952D01*
X53044Y-37922D01*
X53570Y-37396D01*
X53570Y-37428D01*
X53570Y-37428D01*
G37*
G54D24*
X53570Y-37428D02*
X52515Y-38484D01*
X52485Y-38527D01*
X52475Y-38579D01*
X52475Y-38634D01*
X52465Y-38624D01*
X52401Y-38597D01*
X52331Y-38597D01*
X52267Y-38624D01*
X52218Y-38673D01*
X52191Y-38737D01*
X52191Y-38807D01*
X52218Y-38871D01*
X52267Y-38920D01*
X52331Y-38947D01*
X52401Y-38947D01*
X52465Y-38920D01*
X52475Y-38910D01*
X52475Y-39028D01*
X52421Y-39006D01*
X52351Y-39006D01*
X52287Y-39033D01*
X52238Y-39082D01*
X52211Y-39146D01*
X52211Y-39216D01*
X52238Y-39280D01*
X52287Y-39329D01*
X52351Y-39356D01*
X52421Y-39356D01*
X52475Y-39333D01*
X52475Y-39656D01*
X52437Y-39640D01*
X52367Y-39640D01*
X52303Y-39667D01*
X52254Y-39716D01*
X52227Y-39780D01*
X52227Y-39841D01*
X52197Y-39841D01*
X52133Y-39868D01*
X52084Y-39917D01*
X52057Y-39981D01*
X52057Y-40051D01*
X52084Y-40115D01*
X52133Y-40164D01*
X52197Y-40191D01*
X52267Y-40191D01*
X52331Y-40164D01*
X52380Y-40115D01*
X52407Y-40051D01*
X52407Y-39990D01*
X52437Y-39990D01*
X52475Y-39973D01*
X52475Y-40457D01*
X52365Y-40566D01*
X52361Y-40555D01*
X52347Y-40541D01*
X52396Y-40493D01*
X52423Y-40429D01*
X52423Y-40359D01*
X52396Y-40295D01*
X52347Y-40246D01*
X52283Y-40219D01*
X52213Y-40219D01*
X52149Y-40246D01*
X52100Y-40295D01*
X52073Y-40359D01*
X52073Y-40429D01*
X52100Y-40493D01*
X52113Y-40506D01*
X52065Y-40555D01*
X52038Y-40619D01*
X52038Y-40689D01*
X52065Y-40753D01*
X52107Y-40795D01*
X52101Y-40812D01*
X52101Y-40882D01*
X52119Y-40927D01*
X51945Y-40927D01*
X51927Y-40930D01*
X51927Y-40783D01*
X51927Y-40713D01*
X51907Y-40665D01*
X51907Y-36496D01*
X51907Y-36426D01*
X51880Y-36362D01*
X51831Y-36313D01*
X51767Y-36286D01*
X51697Y-36286D01*
X51633Y-36313D01*
X51584Y-36362D01*
X51557Y-36426D01*
X51557Y-36496D01*
X51584Y-36560D01*
X51633Y-36609D01*
X51697Y-36636D01*
X51767Y-36636D01*
X51831Y-36609D01*
X51880Y-36560D01*
X51907Y-36496D01*
X51907Y-40665D01*
X51903Y-40656D01*
X51903Y-37275D01*
X51903Y-37205D01*
X51876Y-37141D01*
X51833Y-37098D01*
X51876Y-37056D01*
X51903Y-36992D01*
X51903Y-36922D01*
X51876Y-36858D01*
X51827Y-36809D01*
X51763Y-36782D01*
X51693Y-36782D01*
X51629Y-36809D01*
X51580Y-36858D01*
X51553Y-36922D01*
X51553Y-36992D01*
X51580Y-37056D01*
X51622Y-37098D01*
X51580Y-37141D01*
X51553Y-37205D01*
X51553Y-37275D01*
X51580Y-37339D01*
X51611Y-37370D01*
X51573Y-37409D01*
X51546Y-37473D01*
X51546Y-37543D01*
X51573Y-37607D01*
X51622Y-37656D01*
X51686Y-37683D01*
X51756Y-37683D01*
X51820Y-37656D01*
X51869Y-37607D01*
X51896Y-37543D01*
X51896Y-37473D01*
X51869Y-37409D01*
X51837Y-37377D01*
X51876Y-37339D01*
X51903Y-37275D01*
X51903Y-40656D01*
X51900Y-40649D01*
X51892Y-40641D01*
X51892Y-38027D01*
X51892Y-37957D01*
X51865Y-37893D01*
X51816Y-37844D01*
X51752Y-37817D01*
X51682Y-37817D01*
X51618Y-37844D01*
X51569Y-37893D01*
X51542Y-37957D01*
X51542Y-38027D01*
X51569Y-38091D01*
X51618Y-38140D01*
X51682Y-38167D01*
X51752Y-38167D01*
X51816Y-38140D01*
X51865Y-38091D01*
X51892Y-38027D01*
X51892Y-40641D01*
X51851Y-40600D01*
X51787Y-40573D01*
X51717Y-40573D01*
X51653Y-40600D01*
X51604Y-40649D01*
X51577Y-40713D01*
X51577Y-40783D01*
X51604Y-40847D01*
X51653Y-40896D01*
X51717Y-40923D01*
X51787Y-40923D01*
X51851Y-40896D01*
X51900Y-40847D01*
X51927Y-40783D01*
X51927Y-40930D01*
X51901Y-40936D01*
X51863Y-40961D01*
X51266Y-41558D01*
X51266Y-40984D01*
X51266Y-40914D01*
X51239Y-40850D01*
X51190Y-40801D01*
X51126Y-40774D01*
X51056Y-40774D01*
X50992Y-40801D01*
X50943Y-40850D01*
X50916Y-40914D01*
X50916Y-40984D01*
X50943Y-41048D01*
X50992Y-41097D01*
X51056Y-41124D01*
X51126Y-41124D01*
X51190Y-41097D01*
X51239Y-41048D01*
X51266Y-40984D01*
X51266Y-41558D01*
X50322Y-42502D01*
X49666Y-42502D01*
X49634Y-42470D01*
X49570Y-42443D01*
X49500Y-42443D01*
X49436Y-42470D01*
X49387Y-42519D01*
X49360Y-42583D01*
X49360Y-42618D01*
X49248Y-42534D01*
X49248Y-37543D01*
X49255Y-37550D01*
X49319Y-37577D01*
X49389Y-37577D01*
X49453Y-37550D01*
X49502Y-37501D01*
X49529Y-37437D01*
X49529Y-37367D01*
X49514Y-37332D01*
X49535Y-37353D01*
X49599Y-37380D01*
X49669Y-37380D01*
X49733Y-37353D01*
X49782Y-37304D01*
X49809Y-37240D01*
X49809Y-37170D01*
X49795Y-37137D01*
X49818Y-37160D01*
X49882Y-37187D01*
X49952Y-37187D01*
X50016Y-37160D01*
X50065Y-37111D01*
X50092Y-37047D01*
X50092Y-36977D01*
X50065Y-36913D01*
X50016Y-36864D01*
X49952Y-36837D01*
X49882Y-36837D01*
X49818Y-36864D01*
X49769Y-36913D01*
X49742Y-36977D01*
X49742Y-37047D01*
X49755Y-37079D01*
X49733Y-37057D01*
X49669Y-37030D01*
X49599Y-37030D01*
X49535Y-37057D01*
X49486Y-37106D01*
X49459Y-37170D01*
X49459Y-37240D01*
X49473Y-37274D01*
X49453Y-37254D01*
X49389Y-37227D01*
X49319Y-37227D01*
X49255Y-37254D01*
X49248Y-37261D01*
X49248Y-37143D01*
X49280Y-37111D01*
X49307Y-37047D01*
X49307Y-36977D01*
X49280Y-36913D01*
X49231Y-36864D01*
X49167Y-36837D01*
X49097Y-36837D01*
X49033Y-36864D01*
X48997Y-36900D01*
X48997Y-36091D01*
X49081Y-36007D01*
X49081Y-36063D01*
X49108Y-36127D01*
X49157Y-36176D01*
X49221Y-36203D01*
X49291Y-36203D01*
X49355Y-36176D01*
X49368Y-36163D01*
X49584Y-36163D01*
X49573Y-36190D01*
X49573Y-36260D01*
X49599Y-36322D01*
X49596Y-36326D01*
X49569Y-36390D01*
X49569Y-36460D01*
X49596Y-36524D01*
X49645Y-36573D01*
X49709Y-36600D01*
X49779Y-36600D01*
X49843Y-36573D01*
X49892Y-36524D01*
X49919Y-36460D01*
X49919Y-36390D01*
X49892Y-36327D01*
X49896Y-36324D01*
X49923Y-36260D01*
X49923Y-36190D01*
X49911Y-36163D01*
X50004Y-36163D01*
X50043Y-36202D01*
X50044Y-36202D01*
X50087Y-36232D01*
X50138Y-36241D01*
X50139Y-36242D01*
X51936Y-36242D01*
X52242Y-36548D01*
X52243Y-36548D01*
X52286Y-36578D01*
X52338Y-36588D01*
X52808Y-36588D01*
X52771Y-36604D01*
X52722Y-36653D01*
X52695Y-36717D01*
X52695Y-36787D01*
X52722Y-36851D01*
X52754Y-36883D01*
X52754Y-37196D01*
X52722Y-37228D01*
X52695Y-37292D01*
X52695Y-37338D01*
X52681Y-37333D01*
X52611Y-37333D01*
X52547Y-37360D01*
X52498Y-37409D01*
X52471Y-37473D01*
X52471Y-37543D01*
X52498Y-37607D01*
X52543Y-37652D01*
X52508Y-37652D01*
X52444Y-37679D01*
X52395Y-37728D01*
X52368Y-37792D01*
X52368Y-37862D01*
X52395Y-37926D01*
X52444Y-37975D01*
X52476Y-37988D01*
X52417Y-38014D01*
X52368Y-38063D01*
X52341Y-38127D01*
X52341Y-38197D01*
X52368Y-38261D01*
X52417Y-38310D01*
X52481Y-38337D01*
X52551Y-38337D01*
X52615Y-38310D01*
X52664Y-38261D01*
X52691Y-38197D01*
X52691Y-38127D01*
X52664Y-38063D01*
X52615Y-38014D01*
X52582Y-38000D01*
X52642Y-37975D01*
X52655Y-37962D01*
X52949Y-37962D01*
X52949Y-37961D01*
X53001Y-37952D01*
X53044Y-37922D01*
X53570Y-37396D01*
X53570Y-37428D01*
G54D10*
G36*
X56203Y-37991D02*
X56171Y-38023D01*
X56159Y-38051D01*
X56159Y-37981D01*
X56156Y-37973D01*
X56156Y-37421D01*
X56156Y-37351D01*
X56129Y-37287D01*
X56080Y-37238D01*
X56016Y-37211D01*
X55946Y-37211D01*
X55882Y-37238D01*
X55833Y-37287D01*
X55806Y-37351D01*
X55806Y-37421D01*
X55833Y-37485D01*
X55882Y-37534D01*
X55946Y-37561D01*
X56016Y-37561D01*
X56080Y-37534D01*
X56129Y-37485D01*
X56156Y-37421D01*
X56156Y-37973D01*
X56132Y-37917D01*
X56083Y-37868D01*
X56019Y-37841D01*
X55973Y-37841D01*
X55592Y-37460D01*
X55592Y-36926D01*
X55603Y-36931D01*
X55673Y-36931D01*
X55737Y-36904D01*
X55786Y-36855D01*
X55813Y-36791D01*
X55813Y-36721D01*
X55786Y-36657D01*
X55737Y-36608D01*
X55673Y-36581D01*
X55603Y-36581D01*
X55592Y-36585D01*
X55592Y-35706D01*
X56203Y-35095D01*
X56203Y-37991D01*
X56203Y-37991D01*
G37*
G54D24*
X56203Y-37991D02*
X56171Y-38023D01*
X56159Y-38051D01*
X56159Y-37981D01*
X56156Y-37973D01*
X56156Y-37421D01*
X56156Y-37351D01*
X56129Y-37287D01*
X56080Y-37238D01*
X56016Y-37211D01*
X55946Y-37211D01*
X55882Y-37238D01*
X55833Y-37287D01*
X55806Y-37351D01*
X55806Y-37421D01*
X55833Y-37485D01*
X55882Y-37534D01*
X55946Y-37561D01*
X56016Y-37561D01*
X56080Y-37534D01*
X56129Y-37485D01*
X56156Y-37421D01*
X56156Y-37973D01*
X56132Y-37917D01*
X56083Y-37868D01*
X56019Y-37841D01*
X55973Y-37841D01*
X55592Y-37460D01*
X55592Y-36926D01*
X55603Y-36931D01*
X55673Y-36931D01*
X55737Y-36904D01*
X55786Y-36855D01*
X55813Y-36791D01*
X55813Y-36721D01*
X55786Y-36657D01*
X55737Y-36608D01*
X55673Y-36581D01*
X55603Y-36581D01*
X55592Y-36585D01*
X55592Y-35706D01*
X56203Y-35095D01*
X56203Y-37991D01*
G54D10*
G36*
X66005Y-49548D02*
X63708Y-49542D01*
X63708Y-31913D01*
X63708Y-31756D01*
X63648Y-31611D01*
X63537Y-31500D01*
X63393Y-31440D01*
X63236Y-31440D01*
X63091Y-31500D01*
X62980Y-31611D01*
X62920Y-31755D01*
X62920Y-31912D01*
X62980Y-32057D01*
X63091Y-32168D01*
X63198Y-32212D01*
X63198Y-32322D01*
X62667Y-32853D01*
X62241Y-32853D01*
X62264Y-32838D01*
X62396Y-32707D01*
X62396Y-32706D01*
X62411Y-32682D01*
X62420Y-32669D01*
X62421Y-32668D01*
X62429Y-32624D01*
X62430Y-32624D01*
X62430Y-32212D01*
X62537Y-32168D01*
X62648Y-32057D01*
X62708Y-31913D01*
X62708Y-31756D01*
X62648Y-31611D01*
X62537Y-31500D01*
X62393Y-31440D01*
X62236Y-31440D01*
X62091Y-31500D01*
X61980Y-31611D01*
X61920Y-31755D01*
X61920Y-31912D01*
X61980Y-32057D01*
X62091Y-32168D01*
X62198Y-32212D01*
X62198Y-32575D01*
X62133Y-32640D01*
X61697Y-32640D01*
X61697Y-31849D01*
X61673Y-31701D01*
X61662Y-31674D01*
X61619Y-31635D01*
X61513Y-31741D01*
X61513Y-31529D01*
X61474Y-31486D01*
X61329Y-31451D01*
X61181Y-31475D01*
X61154Y-31486D01*
X61115Y-31529D01*
X61314Y-31728D01*
X61513Y-31529D01*
X61513Y-31741D01*
X61420Y-31834D01*
X61619Y-32033D01*
X61662Y-31994D01*
X61697Y-31849D01*
X61697Y-32640D01*
X61513Y-32640D01*
X61513Y-32139D01*
X61314Y-31940D01*
X61208Y-32046D01*
X61208Y-31834D01*
X61009Y-31635D01*
X60966Y-31674D01*
X60931Y-31819D01*
X60955Y-31967D01*
X60966Y-31994D01*
X61009Y-32033D01*
X61208Y-31834D01*
X61208Y-32046D01*
X61115Y-32139D01*
X61154Y-32182D01*
X61299Y-32217D01*
X61447Y-32193D01*
X61474Y-32182D01*
X61513Y-32139D01*
X61513Y-32640D01*
X59987Y-32640D01*
X60004Y-32629D01*
X60396Y-32237D01*
X60405Y-32222D01*
X60537Y-32168D01*
X60648Y-32057D01*
X60708Y-31913D01*
X60708Y-31756D01*
X60648Y-31611D01*
X60537Y-31500D01*
X60393Y-31440D01*
X60236Y-31440D01*
X60091Y-31500D01*
X59980Y-31611D01*
X59920Y-31755D01*
X59920Y-31912D01*
X59980Y-32057D01*
X60091Y-32168D01*
X60123Y-32181D01*
X59874Y-32431D01*
X58867Y-32431D01*
X59090Y-32208D01*
X59631Y-32208D01*
X59666Y-32193D01*
X59693Y-32166D01*
X59708Y-32131D01*
X59708Y-32093D01*
X59708Y-31497D01*
X59693Y-31462D01*
X59666Y-31435D01*
X59631Y-31420D01*
X59593Y-31420D01*
X58997Y-31420D01*
X58962Y-31435D01*
X58935Y-31462D01*
X58920Y-31497D01*
X58920Y-31535D01*
X58920Y-32050D01*
X58701Y-32269D01*
X58701Y-31913D01*
X58701Y-31756D01*
X58641Y-31611D01*
X58530Y-31500D01*
X58386Y-31440D01*
X58229Y-31440D01*
X58084Y-31500D01*
X57973Y-31611D01*
X57913Y-31755D01*
X57913Y-31912D01*
X57973Y-32057D01*
X58084Y-32168D01*
X58228Y-32228D01*
X58385Y-32228D01*
X58530Y-32168D01*
X58641Y-32057D01*
X58701Y-31913D01*
X58701Y-32269D01*
X57701Y-33269D01*
X57701Y-31913D01*
X57701Y-31756D01*
X57641Y-31611D01*
X57530Y-31500D01*
X57386Y-31440D01*
X57229Y-31440D01*
X57084Y-31500D01*
X56973Y-31611D01*
X56913Y-31755D01*
X56913Y-31912D01*
X56973Y-32057D01*
X57084Y-32168D01*
X57228Y-32228D01*
X57385Y-32228D01*
X57530Y-32168D01*
X57641Y-32057D01*
X57701Y-31913D01*
X57701Y-33269D01*
X56701Y-34269D01*
X56701Y-31913D01*
X56701Y-31756D01*
X56641Y-31611D01*
X56530Y-31500D01*
X56386Y-31440D01*
X56229Y-31440D01*
X56084Y-31500D01*
X55973Y-31611D01*
X55913Y-31755D01*
X55913Y-31912D01*
X55973Y-32057D01*
X56084Y-32168D01*
X56228Y-32228D01*
X56385Y-32228D01*
X56530Y-32168D01*
X56641Y-32057D01*
X56701Y-31913D01*
X56701Y-34269D01*
X55701Y-35269D01*
X55701Y-31913D01*
X55701Y-31756D01*
X55641Y-31611D01*
X55530Y-31500D01*
X55386Y-31440D01*
X55229Y-31440D01*
X55084Y-31500D01*
X54973Y-31611D01*
X54913Y-31755D01*
X54913Y-31912D01*
X54973Y-32057D01*
X55084Y-32168D01*
X55228Y-32228D01*
X55385Y-32228D01*
X55530Y-32168D01*
X55641Y-32057D01*
X55701Y-31913D01*
X55701Y-35269D01*
X55394Y-35576D01*
X55369Y-35613D01*
X55360Y-35658D01*
X55360Y-37508D01*
X55369Y-37553D01*
X55394Y-37590D01*
X55809Y-38005D01*
X55809Y-38051D01*
X55836Y-38115D01*
X55885Y-38164D01*
X55949Y-38191D01*
X56019Y-38191D01*
X56083Y-38164D01*
X56132Y-38115D01*
X56159Y-38051D01*
X56144Y-38087D01*
X56144Y-38157D01*
X56171Y-38221D01*
X56220Y-38270D01*
X56284Y-38297D01*
X56354Y-38297D01*
X56418Y-38270D01*
X56443Y-38245D01*
X56476Y-38278D01*
X56540Y-38305D01*
X56610Y-38305D01*
X56648Y-38288D01*
X56648Y-38440D01*
X56604Y-38559D01*
X56579Y-38570D01*
X56535Y-38613D01*
X56531Y-38609D01*
X56470Y-38584D01*
X56404Y-38584D01*
X56343Y-38609D01*
X56296Y-38656D01*
X56271Y-38717D01*
X56271Y-38783D01*
X56296Y-38844D01*
X56300Y-38848D01*
X56296Y-38853D01*
X56271Y-38914D01*
X56271Y-38980D01*
X56296Y-39041D01*
X56300Y-39045D01*
X56296Y-39050D01*
X56271Y-39111D01*
X56271Y-39177D01*
X56296Y-39238D01*
X56300Y-39242D01*
X56296Y-39247D01*
X56271Y-39308D01*
X56271Y-39374D01*
X56296Y-39435D01*
X56300Y-39439D01*
X56296Y-39443D01*
X56271Y-39504D01*
X56271Y-39570D01*
X56296Y-39631D01*
X56300Y-39635D01*
X56296Y-39640D01*
X56271Y-39701D01*
X56271Y-39767D01*
X56296Y-39828D01*
X56300Y-39832D01*
X56296Y-39837D01*
X56271Y-39898D01*
X56271Y-39964D01*
X56296Y-40025D01*
X56300Y-40029D01*
X56296Y-40034D01*
X56271Y-40095D01*
X56271Y-40161D01*
X56296Y-40222D01*
X56300Y-40226D01*
X56296Y-40231D01*
X56271Y-40292D01*
X56271Y-40358D01*
X56296Y-40419D01*
X56300Y-40423D01*
X56296Y-40428D01*
X56271Y-40489D01*
X56271Y-40555D01*
X56296Y-40616D01*
X56300Y-40620D01*
X56296Y-40625D01*
X56271Y-40686D01*
X56271Y-40752D01*
X56296Y-40813D01*
X56300Y-40817D01*
X56296Y-40821D01*
X56271Y-40882D01*
X56271Y-40948D01*
X56296Y-41009D01*
X56300Y-41013D01*
X56296Y-41018D01*
X56271Y-41079D01*
X56271Y-41145D01*
X56296Y-41206D01*
X56305Y-41215D01*
X56281Y-41276D01*
X56281Y-41342D01*
X56306Y-41403D01*
X56353Y-41450D01*
X56414Y-41475D01*
X56480Y-41475D01*
X56539Y-41450D01*
X56569Y-41480D01*
X56630Y-41505D01*
X56696Y-41505D01*
X56757Y-41480D01*
X56761Y-41475D01*
X56766Y-41480D01*
X56827Y-41505D01*
X56893Y-41505D01*
X56954Y-41480D01*
X56958Y-41475D01*
X56963Y-41480D01*
X57024Y-41505D01*
X57090Y-41505D01*
X57151Y-41480D01*
X57155Y-41475D01*
X57160Y-41480D01*
X57221Y-41505D01*
X57287Y-41505D01*
X57348Y-41480D01*
X57395Y-41433D01*
X57420Y-41372D01*
X57420Y-41306D01*
X57395Y-41245D01*
X57348Y-41198D01*
X57287Y-41173D01*
X57221Y-41173D01*
X57160Y-41198D01*
X57155Y-41202D01*
X57151Y-41198D01*
X57090Y-41173D01*
X57024Y-41173D01*
X56963Y-41198D01*
X56958Y-41202D01*
X56954Y-41198D01*
X56893Y-41173D01*
X56827Y-41173D01*
X56766Y-41198D01*
X56761Y-41202D01*
X56757Y-41198D01*
X56696Y-41173D01*
X56630Y-41173D01*
X56583Y-41191D01*
X56603Y-41145D01*
X56603Y-41079D01*
X56578Y-41018D01*
X56573Y-41013D01*
X56578Y-41009D01*
X56603Y-40948D01*
X56603Y-40882D01*
X56578Y-40821D01*
X56574Y-40817D01*
X56578Y-40813D01*
X56603Y-40752D01*
X56603Y-40686D01*
X56578Y-40625D01*
X56573Y-40620D01*
X56578Y-40616D01*
X56603Y-40555D01*
X56603Y-40489D01*
X56578Y-40428D01*
X56573Y-40423D01*
X56578Y-40419D01*
X56603Y-40358D01*
X56603Y-40292D01*
X56578Y-40231D01*
X56573Y-40226D01*
X56578Y-40222D01*
X56603Y-40161D01*
X56603Y-40095D01*
X56578Y-40034D01*
X56573Y-40029D01*
X56578Y-40025D01*
X56603Y-39964D01*
X56603Y-39898D01*
X56578Y-39837D01*
X56573Y-39832D01*
X56578Y-39828D01*
X56603Y-39767D01*
X56603Y-39701D01*
X56578Y-39640D01*
X56573Y-39635D01*
X56578Y-39631D01*
X56603Y-39570D01*
X56603Y-39504D01*
X56578Y-39443D01*
X56574Y-39439D01*
X56578Y-39435D01*
X56603Y-39374D01*
X56603Y-39308D01*
X56578Y-39247D01*
X56573Y-39242D01*
X56578Y-39238D01*
X56603Y-39177D01*
X56603Y-39111D01*
X56578Y-39050D01*
X56573Y-39045D01*
X56578Y-39041D01*
X56603Y-38980D01*
X56603Y-38914D01*
X56578Y-38853D01*
X56573Y-38848D01*
X56574Y-38847D01*
X56579Y-38852D01*
X56640Y-38877D01*
X56706Y-38877D01*
X56767Y-38852D01*
X56776Y-38861D01*
X56837Y-38886D01*
X56903Y-38886D01*
X56964Y-38861D01*
X56968Y-38856D01*
X56973Y-38861D01*
X57034Y-38886D01*
X57100Y-38886D01*
X57161Y-38861D01*
X57208Y-38814D01*
X57233Y-38753D01*
X57233Y-38687D01*
X57208Y-38626D01*
X57161Y-38579D01*
X57100Y-38554D01*
X57034Y-38554D01*
X56973Y-38579D01*
X56968Y-38583D01*
X56964Y-38579D01*
X56903Y-38554D01*
X56853Y-38554D01*
X56871Y-38505D01*
X56873Y-38501D01*
X56876Y-38476D01*
X56880Y-38461D01*
X56880Y-38456D01*
X56891Y-35032D01*
X58845Y-33085D01*
X62716Y-33085D01*
X62760Y-33076D01*
X62761Y-33076D01*
X62798Y-33051D01*
X63396Y-32454D01*
X63396Y-32453D01*
X63411Y-32429D01*
X63420Y-32416D01*
X63421Y-32415D01*
X63429Y-32371D01*
X63430Y-32371D01*
X63430Y-32212D01*
X63537Y-32168D01*
X63648Y-32057D01*
X63708Y-31913D01*
X63708Y-49542D01*
X63437Y-49542D01*
X63437Y-48429D01*
X63437Y-48272D01*
X63377Y-48127D01*
X63266Y-48016D01*
X63122Y-47956D01*
X62965Y-47956D01*
X62820Y-48016D01*
X62720Y-48115D01*
X62567Y-47962D01*
X62567Y-45576D01*
X62567Y-45506D01*
X62540Y-45442D01*
X62491Y-45393D01*
X62427Y-45366D01*
X62357Y-45366D01*
X62293Y-45393D01*
X62244Y-45442D01*
X62232Y-45470D01*
X62232Y-39842D01*
X62232Y-39765D01*
X62203Y-39694D01*
X62159Y-39650D01*
X62199Y-39610D01*
X62229Y-39539D01*
X62229Y-39462D01*
X62200Y-39391D01*
X62146Y-39337D01*
X62075Y-39307D01*
X61998Y-39307D01*
X61927Y-39336D01*
X61873Y-39390D01*
X61843Y-39461D01*
X61843Y-39538D01*
X61872Y-39609D01*
X61916Y-39653D01*
X61876Y-39693D01*
X61846Y-39764D01*
X61846Y-39841D01*
X61875Y-39912D01*
X61929Y-39966D01*
X62000Y-39996D01*
X62077Y-39996D01*
X62148Y-39967D01*
X62202Y-39913D01*
X62232Y-39842D01*
X62232Y-45470D01*
X62217Y-45506D01*
X62217Y-45576D01*
X62244Y-45640D01*
X62293Y-45689D01*
X62357Y-45716D01*
X62427Y-45716D01*
X62491Y-45689D01*
X62540Y-45640D01*
X62567Y-45576D01*
X62567Y-47962D01*
X62218Y-47615D01*
X62180Y-47590D01*
X62136Y-47581D01*
X62014Y-47581D01*
X62014Y-42057D01*
X62014Y-41980D01*
X61985Y-41909D01*
X61931Y-41855D01*
X61921Y-41850D01*
X61921Y-40685D01*
X61921Y-40608D01*
X61892Y-40537D01*
X61838Y-40483D01*
X61787Y-40461D01*
X61787Y-38122D01*
X61787Y-38045D01*
X61758Y-37974D01*
X61704Y-37920D01*
X61633Y-37890D01*
X61556Y-37890D01*
X61485Y-37919D01*
X61431Y-37973D01*
X61401Y-38044D01*
X61401Y-38121D01*
X61430Y-38192D01*
X61484Y-38246D01*
X61555Y-38276D01*
X61632Y-38276D01*
X61703Y-38247D01*
X61757Y-38193D01*
X61787Y-38122D01*
X61787Y-40461D01*
X61767Y-40453D01*
X61690Y-40453D01*
X61619Y-40482D01*
X61565Y-40536D01*
X61535Y-40607D01*
X61535Y-40684D01*
X61564Y-40755D01*
X61618Y-40809D01*
X61689Y-40839D01*
X61766Y-40839D01*
X61837Y-40810D01*
X61891Y-40756D01*
X61921Y-40685D01*
X61921Y-41850D01*
X61860Y-41825D01*
X61783Y-41825D01*
X61712Y-41854D01*
X61658Y-41908D01*
X61628Y-41979D01*
X61628Y-42056D01*
X61657Y-42127D01*
X61711Y-42181D01*
X61782Y-42211D01*
X61859Y-42211D01*
X61930Y-42182D01*
X61984Y-42128D01*
X62014Y-42057D01*
X62014Y-47581D01*
X61807Y-47581D01*
X61807Y-45826D01*
X61807Y-45749D01*
X61778Y-45678D01*
X61724Y-45624D01*
X61653Y-45594D01*
X61591Y-45594D01*
X61591Y-43602D01*
X61591Y-43525D01*
X61562Y-43454D01*
X61508Y-43400D01*
X61437Y-43370D01*
X61360Y-43370D01*
X61289Y-43399D01*
X61235Y-43453D01*
X61205Y-43524D01*
X61205Y-43601D01*
X61234Y-43672D01*
X61288Y-43726D01*
X61359Y-43756D01*
X61436Y-43756D01*
X61507Y-43727D01*
X61561Y-43673D01*
X61591Y-43602D01*
X61591Y-45594D01*
X61576Y-45594D01*
X61505Y-45623D01*
X61451Y-45677D01*
X61421Y-45748D01*
X61421Y-45825D01*
X61450Y-45896D01*
X61504Y-45950D01*
X61575Y-45980D01*
X61652Y-45980D01*
X61723Y-45951D01*
X61777Y-45897D01*
X61807Y-45826D01*
X61807Y-47581D01*
X61288Y-47581D01*
X60962Y-47245D01*
X60962Y-42441D01*
X60961Y-42440D01*
X60953Y-42397D01*
X60952Y-42396D01*
X60928Y-42359D01*
X60927Y-42358D01*
X60648Y-42079D01*
X60648Y-41035D01*
X60648Y-40965D01*
X60621Y-40901D01*
X60572Y-40852D01*
X60514Y-40827D01*
X60514Y-39279D01*
X60514Y-39209D01*
X60487Y-39145D01*
X60441Y-39099D01*
X60441Y-35517D01*
X60441Y-35447D01*
X60414Y-35383D01*
X60365Y-35334D01*
X60352Y-35328D01*
X60352Y-35165D01*
X60352Y-35095D01*
X60325Y-35031D01*
X60276Y-34982D01*
X60212Y-34955D01*
X60142Y-34955D01*
X60078Y-34982D01*
X60029Y-35031D01*
X60002Y-35095D01*
X60002Y-35165D01*
X60029Y-35229D01*
X60078Y-35278D01*
X60142Y-35305D01*
X60212Y-35305D01*
X60276Y-35278D01*
X60325Y-35229D01*
X60352Y-35165D01*
X60352Y-35328D01*
X60301Y-35307D01*
X60231Y-35307D01*
X60167Y-35334D01*
X60118Y-35383D01*
X60091Y-35447D01*
X60091Y-35517D01*
X60118Y-35581D01*
X60127Y-35590D01*
X60098Y-35620D01*
X60071Y-35684D01*
X60071Y-35754D01*
X60098Y-35818D01*
X60147Y-35867D01*
X60211Y-35894D01*
X60281Y-35894D01*
X60345Y-35867D01*
X60394Y-35818D01*
X60421Y-35754D01*
X60421Y-35684D01*
X60394Y-35620D01*
X60384Y-35610D01*
X60414Y-35581D01*
X60441Y-35517D01*
X60441Y-39099D01*
X60438Y-39096D01*
X60374Y-39069D01*
X60304Y-39069D01*
X60240Y-39096D01*
X60227Y-39109D01*
X60103Y-39109D01*
X60103Y-37854D01*
X60103Y-37777D01*
X60074Y-37706D01*
X60020Y-37652D01*
X59949Y-37622D01*
X59872Y-37622D01*
X59801Y-37651D01*
X59747Y-37705D01*
X59717Y-37776D01*
X59717Y-37853D01*
X59746Y-37924D01*
X59800Y-37978D01*
X59871Y-38008D01*
X59948Y-38008D01*
X60019Y-37979D01*
X60073Y-37925D01*
X60103Y-37854D01*
X60103Y-39109D01*
X59900Y-39109D01*
X59923Y-39055D01*
X59923Y-38985D01*
X59896Y-38921D01*
X59847Y-38872D01*
X59783Y-38845D01*
X59713Y-38845D01*
X59649Y-38872D01*
X59600Y-38921D01*
X59573Y-38985D01*
X59573Y-39055D01*
X59595Y-39109D01*
X59587Y-39109D01*
X59535Y-39119D01*
X59492Y-39149D01*
X59433Y-39207D01*
X59325Y-39206D01*
X59325Y-38007D01*
X59325Y-37937D01*
X59298Y-37873D01*
X59249Y-37824D01*
X59185Y-37797D01*
X59115Y-37797D01*
X59051Y-37824D01*
X59038Y-37837D01*
X58445Y-37837D01*
X58433Y-37839D01*
X58429Y-37839D01*
X58419Y-37842D01*
X58393Y-37847D01*
X58385Y-37851D01*
X58379Y-37854D01*
X58360Y-37869D01*
X58350Y-37877D01*
X58347Y-37881D01*
X58339Y-37888D01*
X57808Y-38558D01*
X57760Y-38579D01*
X57713Y-38626D01*
X57688Y-38687D01*
X57688Y-38753D01*
X57713Y-38814D01*
X57760Y-38861D01*
X57821Y-38886D01*
X57887Y-38886D01*
X57948Y-38861D01*
X57995Y-38814D01*
X58020Y-38753D01*
X58020Y-38728D01*
X58510Y-38107D01*
X59038Y-38107D01*
X59051Y-38120D01*
X59115Y-38147D01*
X59185Y-38147D01*
X59249Y-38120D01*
X59298Y-38071D01*
X59325Y-38007D01*
X59325Y-39206D01*
X59218Y-39206D01*
X59231Y-39177D01*
X59231Y-39111D01*
X59206Y-39050D01*
X59201Y-39045D01*
X59206Y-39041D01*
X59231Y-38980D01*
X59231Y-38914D01*
X59206Y-38853D01*
X59201Y-38848D01*
X59206Y-38844D01*
X59231Y-38783D01*
X59231Y-38717D01*
X59206Y-38656D01*
X59159Y-38609D01*
X59098Y-38584D01*
X59032Y-38584D01*
X58971Y-38609D01*
X58924Y-38656D01*
X58899Y-38717D01*
X58899Y-38783D01*
X58924Y-38844D01*
X58928Y-38848D01*
X58924Y-38853D01*
X58899Y-38914D01*
X58899Y-38980D01*
X58924Y-39041D01*
X58928Y-39045D01*
X58924Y-39050D01*
X58899Y-39111D01*
X58899Y-39177D01*
X58924Y-39238D01*
X58928Y-39242D01*
X58924Y-39247D01*
X58899Y-39308D01*
X58899Y-39374D01*
X58924Y-39435D01*
X58971Y-39482D01*
X59032Y-39507D01*
X59098Y-39507D01*
X59159Y-39482D01*
X59164Y-39476D01*
X59487Y-39478D01*
X59488Y-39477D01*
X59530Y-39469D01*
X59539Y-39468D01*
X59540Y-39468D01*
X59569Y-39447D01*
X59582Y-39439D01*
X59582Y-39438D01*
X59583Y-39438D01*
X59642Y-39379D01*
X60227Y-39379D01*
X60240Y-39392D01*
X60304Y-39419D01*
X60374Y-39419D01*
X60438Y-39392D01*
X60487Y-39343D01*
X60514Y-39279D01*
X60514Y-40827D01*
X60508Y-40825D01*
X60494Y-40825D01*
X60494Y-40019D01*
X60494Y-39949D01*
X60467Y-39885D01*
X60418Y-39836D01*
X60354Y-39809D01*
X60284Y-39809D01*
X60220Y-39836D01*
X60171Y-39885D01*
X60144Y-39949D01*
X60144Y-40019D01*
X60171Y-40083D01*
X60220Y-40132D01*
X60284Y-40159D01*
X60354Y-40159D01*
X60418Y-40132D01*
X60467Y-40083D01*
X60494Y-40019D01*
X60494Y-40825D01*
X60438Y-40825D01*
X60374Y-40852D01*
X60325Y-40901D01*
X60322Y-40908D01*
X60126Y-40908D01*
X60126Y-40841D01*
X60099Y-40777D01*
X60050Y-40728D01*
X59986Y-40701D01*
X59962Y-40701D01*
X59962Y-39905D01*
X59962Y-39835D01*
X59935Y-39771D01*
X59886Y-39722D01*
X59822Y-39695D01*
X59752Y-39695D01*
X59688Y-39722D01*
X59639Y-39771D01*
X59612Y-39835D01*
X59612Y-39905D01*
X59639Y-39969D01*
X59688Y-40018D01*
X59752Y-40045D01*
X59822Y-40045D01*
X59886Y-40018D01*
X59935Y-39969D01*
X59962Y-39905D01*
X59962Y-40701D01*
X59916Y-40701D01*
X59913Y-40701D01*
X59888Y-40641D01*
X59839Y-40592D01*
X59775Y-40565D01*
X59817Y-40524D01*
X59844Y-40460D01*
X59844Y-40390D01*
X59817Y-40326D01*
X59800Y-40309D01*
X59821Y-40260D01*
X59821Y-40190D01*
X59794Y-40126D01*
X59745Y-40077D01*
X59681Y-40050D01*
X59611Y-40050D01*
X59547Y-40077D01*
X59498Y-40126D01*
X59471Y-40190D01*
X59471Y-40260D01*
X59498Y-40324D01*
X59514Y-40340D01*
X59494Y-40390D01*
X59494Y-40460D01*
X59521Y-40524D01*
X59570Y-40573D01*
X59633Y-40599D01*
X59592Y-40641D01*
X59565Y-40705D01*
X59565Y-40775D01*
X59577Y-40805D01*
X59561Y-40793D01*
X59556Y-40792D01*
X59553Y-40790D01*
X59534Y-40787D01*
X59509Y-40783D01*
X59219Y-40781D01*
X59231Y-40752D01*
X59231Y-40686D01*
X59206Y-40625D01*
X59201Y-40620D01*
X59206Y-40616D01*
X59231Y-40555D01*
X59231Y-40489D01*
X59206Y-40428D01*
X59201Y-40423D01*
X59206Y-40419D01*
X59231Y-40358D01*
X59231Y-40292D01*
X59206Y-40231D01*
X59196Y-40221D01*
X59221Y-40161D01*
X59221Y-40095D01*
X59196Y-40034D01*
X59206Y-40025D01*
X59231Y-39964D01*
X59231Y-39898D01*
X59206Y-39837D01*
X59201Y-39832D01*
X59206Y-39828D01*
X59231Y-39767D01*
X59231Y-39701D01*
X59206Y-39640D01*
X59159Y-39593D01*
X59098Y-39568D01*
X59032Y-39568D01*
X58971Y-39593D01*
X58924Y-39640D01*
X58899Y-39701D01*
X58899Y-39767D01*
X58924Y-39828D01*
X58928Y-39832D01*
X58924Y-39837D01*
X58899Y-39898D01*
X58899Y-39964D01*
X58923Y-40024D01*
X58914Y-40034D01*
X58889Y-40095D01*
X58889Y-40161D01*
X58914Y-40222D01*
X58923Y-40231D01*
X58899Y-40292D01*
X58899Y-40358D01*
X58924Y-40419D01*
X58928Y-40423D01*
X58924Y-40428D01*
X58899Y-40489D01*
X58899Y-40555D01*
X58924Y-40616D01*
X58928Y-40620D01*
X58924Y-40625D01*
X58899Y-40686D01*
X58899Y-40752D01*
X58924Y-40813D01*
X58928Y-40817D01*
X58924Y-40821D01*
X58899Y-40882D01*
X58899Y-40948D01*
X58924Y-41009D01*
X58933Y-41018D01*
X58909Y-41079D01*
X58909Y-41145D01*
X58933Y-41205D01*
X58924Y-41215D01*
X58899Y-41276D01*
X58899Y-41342D01*
X58924Y-41403D01*
X58971Y-41450D01*
X59032Y-41475D01*
X59098Y-41475D01*
X59159Y-41450D01*
X59206Y-41403D01*
X59231Y-41342D01*
X59231Y-41276D01*
X59219Y-41247D01*
X59330Y-41248D01*
X59620Y-41533D01*
X59663Y-41562D01*
X59664Y-41563D01*
X59685Y-41566D01*
X59715Y-41572D01*
X59927Y-41572D01*
X59940Y-41585D01*
X60004Y-41612D01*
X60074Y-41612D01*
X60138Y-41585D01*
X60187Y-41536D01*
X60214Y-41472D01*
X60214Y-41402D01*
X60187Y-41338D01*
X60168Y-41319D01*
X60178Y-41310D01*
X60205Y-41246D01*
X60205Y-41178D01*
X60348Y-41178D01*
X60354Y-41178D01*
X60378Y-41173D01*
X60400Y-41170D01*
X60404Y-41168D01*
X60406Y-41168D01*
X60406Y-41167D01*
X60414Y-41164D01*
X60438Y-41175D01*
X60508Y-41175D01*
X60572Y-41148D01*
X60621Y-41099D01*
X60648Y-41035D01*
X60648Y-42079D01*
X60565Y-41996D01*
X60564Y-41995D01*
X60527Y-41970D01*
X60490Y-41962D01*
X60483Y-41961D01*
X59413Y-41952D01*
X59393Y-41932D01*
X59420Y-41906D01*
X59447Y-41842D01*
X59447Y-41772D01*
X59420Y-41708D01*
X59371Y-41659D01*
X59307Y-41632D01*
X59237Y-41632D01*
X59173Y-41659D01*
X59124Y-41708D01*
X59097Y-41772D01*
X59097Y-41842D01*
X59124Y-41906D01*
X59159Y-41941D01*
X59133Y-41968D01*
X59106Y-42032D01*
X59106Y-42102D01*
X59121Y-42138D01*
X59056Y-42138D01*
X58915Y-41986D01*
X58915Y-41934D01*
X58888Y-41870D01*
X58839Y-41821D01*
X58775Y-41794D01*
X58705Y-41794D01*
X58641Y-41821D01*
X58636Y-41826D01*
X58635Y-41825D01*
X58571Y-41798D01*
X58513Y-41798D01*
X58514Y-41485D01*
X58529Y-41480D01*
X58576Y-41433D01*
X58601Y-41372D01*
X58601Y-41306D01*
X58576Y-41245D01*
X58529Y-41198D01*
X58468Y-41173D01*
X58402Y-41173D01*
X58341Y-41198D01*
X58336Y-41202D01*
X58332Y-41198D01*
X58271Y-41173D01*
X58205Y-41173D01*
X58144Y-41198D01*
X58097Y-41245D01*
X58072Y-41306D01*
X58072Y-41372D01*
X58097Y-41433D01*
X58144Y-41480D01*
X58205Y-41505D01*
X58271Y-41505D01*
X58282Y-41500D01*
X58280Y-42106D01*
X58289Y-42151D01*
X58314Y-42188D01*
X58677Y-42551D01*
X58678Y-42552D01*
X58715Y-42576D01*
X58716Y-42577D01*
X58759Y-42585D01*
X58760Y-42586D01*
X59966Y-42586D01*
X59961Y-42599D01*
X59961Y-42676D01*
X59990Y-42747D01*
X60016Y-42773D01*
X60004Y-42786D01*
X58489Y-42786D01*
X58437Y-42796D01*
X58393Y-42826D01*
X58266Y-42953D01*
X58226Y-42953D01*
X58155Y-42982D01*
X58125Y-43011D01*
X57756Y-43013D01*
X57640Y-43013D01*
X57640Y-41972D01*
X57640Y-41902D01*
X57613Y-41838D01*
X57564Y-41789D01*
X57500Y-41762D01*
X57430Y-41762D01*
X57366Y-41789D01*
X57317Y-41838D01*
X57290Y-41902D01*
X57290Y-41917D01*
X57240Y-41896D01*
X57170Y-41896D01*
X57106Y-41923D01*
X57087Y-41942D01*
X57056Y-41911D01*
X56992Y-41884D01*
X56922Y-41884D01*
X56858Y-41911D01*
X56809Y-41960D01*
X56782Y-42024D01*
X56782Y-42094D01*
X56809Y-42158D01*
X56858Y-42207D01*
X56922Y-42234D01*
X56992Y-42234D01*
X57056Y-42207D01*
X57075Y-42188D01*
X57106Y-42219D01*
X57170Y-42246D01*
X57240Y-42246D01*
X57304Y-42219D01*
X57353Y-42170D01*
X57380Y-42106D01*
X57380Y-42090D01*
X57430Y-42112D01*
X57500Y-42112D01*
X57564Y-42085D01*
X57613Y-42036D01*
X57640Y-41972D01*
X57640Y-43013D01*
X57343Y-43014D01*
X57084Y-42755D01*
X57084Y-42730D01*
X57097Y-42717D01*
X57124Y-42653D01*
X57124Y-42583D01*
X57097Y-42519D01*
X57048Y-42470D01*
X56984Y-42443D01*
X56914Y-42443D01*
X56850Y-42470D01*
X56801Y-42519D01*
X56774Y-42583D01*
X56774Y-42653D01*
X56801Y-42717D01*
X56814Y-42730D01*
X56814Y-42811D01*
X56824Y-42863D01*
X56854Y-42906D01*
X57192Y-43245D01*
X57193Y-43245D01*
X57236Y-43275D01*
X57288Y-43285D01*
X57288Y-43284D01*
X57621Y-43283D01*
X57621Y-43311D01*
X57593Y-43339D01*
X57563Y-43410D01*
X57563Y-43487D01*
X57592Y-43558D01*
X57646Y-43612D01*
X57717Y-43642D01*
X57794Y-43642D01*
X57865Y-43613D01*
X57919Y-43559D01*
X57949Y-43488D01*
X57949Y-43411D01*
X57920Y-43340D01*
X57891Y-43311D01*
X57891Y-43282D01*
X58126Y-43281D01*
X58154Y-43309D01*
X58225Y-43339D01*
X58302Y-43339D01*
X58373Y-43310D01*
X58427Y-43256D01*
X58457Y-43185D01*
X58457Y-43143D01*
X58544Y-43056D01*
X60004Y-43056D01*
X60032Y-43084D01*
X60103Y-43114D01*
X60180Y-43114D01*
X60251Y-43085D01*
X60258Y-43078D01*
X60258Y-43626D01*
X60056Y-43828D01*
X60031Y-43865D01*
X60022Y-43910D01*
X60022Y-47192D01*
X59278Y-47936D01*
X59169Y-47936D01*
X59169Y-46811D01*
X59169Y-46734D01*
X59140Y-46663D01*
X59086Y-46609D01*
X59015Y-46579D01*
X58938Y-46579D01*
X58867Y-46608D01*
X58813Y-46662D01*
X58783Y-46733D01*
X58783Y-46810D01*
X58812Y-46881D01*
X58866Y-46935D01*
X58937Y-46965D01*
X59014Y-46965D01*
X59085Y-46936D01*
X59139Y-46882D01*
X59169Y-46811D01*
X59169Y-47936D01*
X58726Y-47936D01*
X58691Y-47951D01*
X58664Y-47978D01*
X58649Y-48013D01*
X58649Y-48051D01*
X58649Y-48647D01*
X58664Y-48682D01*
X58691Y-48709D01*
X58726Y-48724D01*
X58764Y-48724D01*
X59360Y-48724D01*
X59395Y-48709D01*
X59422Y-48682D01*
X59437Y-48647D01*
X59437Y-48609D01*
X59437Y-48105D01*
X60160Y-47382D01*
X60160Y-47923D01*
X60125Y-47957D01*
X60122Y-47956D01*
X59965Y-47956D01*
X59820Y-48016D01*
X59709Y-48127D01*
X59649Y-48271D01*
X59649Y-48428D01*
X59709Y-48573D01*
X59820Y-48684D01*
X59964Y-48744D01*
X60121Y-48744D01*
X60266Y-48684D01*
X60377Y-48573D01*
X60437Y-48429D01*
X60437Y-48272D01*
X60377Y-48127D01*
X60330Y-48080D01*
X60357Y-48055D01*
X60357Y-48054D01*
X60358Y-48054D01*
X60370Y-48035D01*
X60382Y-48018D01*
X60382Y-48017D01*
X60383Y-48016D01*
X60391Y-47974D01*
X60392Y-47972D01*
X60392Y-44044D01*
X60574Y-43862D01*
X60583Y-43848D01*
X60583Y-47362D01*
X60592Y-47407D01*
X60617Y-47444D01*
X61610Y-48438D01*
X61611Y-48438D01*
X61635Y-48453D01*
X61648Y-48462D01*
X61649Y-48463D01*
X61664Y-48466D01*
X61709Y-48573D01*
X61820Y-48684D01*
X61964Y-48744D01*
X62121Y-48744D01*
X62266Y-48684D01*
X62377Y-48573D01*
X62437Y-48429D01*
X62437Y-48272D01*
X62377Y-48127D01*
X62266Y-48016D01*
X62122Y-47956D01*
X61965Y-47956D01*
X61820Y-48016D01*
X61709Y-48127D01*
X61685Y-48183D01*
X61314Y-47813D01*
X62088Y-47813D01*
X62649Y-48371D01*
X62649Y-48428D01*
X62709Y-48573D01*
X62820Y-48684D01*
X62964Y-48744D01*
X63121Y-48744D01*
X63266Y-48684D01*
X63377Y-48573D01*
X63437Y-48429D01*
X63437Y-49542D01*
X57868Y-49530D01*
X57781Y-49494D01*
X57672Y-49494D01*
X57585Y-49529D01*
X57432Y-49529D01*
X57347Y-49494D01*
X57238Y-49494D01*
X57154Y-49528D01*
X56997Y-49528D01*
X56976Y-49519D01*
X56976Y-43212D01*
X56976Y-43135D01*
X56947Y-43064D01*
X56893Y-43010D01*
X56822Y-42980D01*
X56745Y-42980D01*
X56674Y-43009D01*
X56620Y-43063D01*
X56590Y-43134D01*
X56590Y-43211D01*
X56619Y-43282D01*
X56673Y-43336D01*
X56744Y-43366D01*
X56821Y-43366D01*
X56892Y-43337D01*
X56946Y-43283D01*
X56976Y-43212D01*
X56976Y-49519D01*
X56970Y-49516D01*
X56970Y-49158D01*
X56970Y-49001D01*
X56910Y-48856D01*
X56799Y-48745D01*
X56655Y-48685D01*
X56571Y-48685D01*
X56571Y-44014D01*
X56571Y-43937D01*
X56542Y-43866D01*
X56488Y-43812D01*
X56478Y-43807D01*
X56478Y-41972D01*
X56478Y-41902D01*
X56451Y-41838D01*
X56402Y-41789D01*
X56338Y-41762D01*
X56268Y-41762D01*
X56204Y-41789D01*
X56155Y-41838D01*
X56128Y-41902D01*
X56128Y-41972D01*
X56155Y-42036D01*
X56204Y-42085D01*
X56268Y-42112D01*
X56338Y-42112D01*
X56402Y-42085D01*
X56451Y-42036D01*
X56478Y-41972D01*
X56478Y-43807D01*
X56435Y-43789D01*
X56435Y-42988D01*
X56435Y-42918D01*
X56408Y-42854D01*
X56359Y-42805D01*
X56295Y-42778D01*
X56225Y-42778D01*
X56161Y-42805D01*
X56112Y-42854D01*
X56108Y-42863D01*
X56108Y-38563D01*
X56108Y-38493D01*
X56081Y-38429D01*
X56032Y-38380D01*
X55968Y-38353D01*
X55898Y-38353D01*
X55834Y-38380D01*
X55785Y-38429D01*
X55758Y-38493D01*
X55758Y-38563D01*
X55785Y-38627D01*
X55834Y-38676D01*
X55898Y-38703D01*
X55968Y-38703D01*
X56032Y-38676D01*
X56081Y-38627D01*
X56108Y-38563D01*
X56108Y-42863D01*
X56085Y-42918D01*
X56085Y-42988D01*
X56112Y-43052D01*
X56161Y-43101D01*
X56225Y-43128D01*
X56295Y-43128D01*
X56359Y-43101D01*
X56408Y-43052D01*
X56435Y-42988D01*
X56435Y-43789D01*
X56417Y-43782D01*
X56340Y-43782D01*
X56269Y-43811D01*
X56240Y-43840D01*
X56212Y-43812D01*
X56141Y-43782D01*
X56065Y-43782D01*
X56065Y-41051D01*
X56065Y-40981D01*
X56038Y-40917D01*
X56006Y-40885D01*
X56006Y-39082D01*
X56006Y-39012D01*
X55979Y-38948D01*
X55930Y-38899D01*
X55866Y-38872D01*
X55796Y-38872D01*
X55732Y-38899D01*
X55702Y-38928D01*
X55654Y-38880D01*
X55590Y-38853D01*
X55520Y-38853D01*
X55474Y-38872D01*
X55474Y-38263D01*
X55474Y-38193D01*
X55447Y-38129D01*
X55398Y-38080D01*
X55334Y-38053D01*
X55264Y-38053D01*
X55200Y-38080D01*
X55151Y-38129D01*
X55142Y-38150D01*
X55142Y-37382D01*
X55142Y-37305D01*
X55113Y-37234D01*
X55059Y-37180D01*
X54988Y-37150D01*
X54911Y-37150D01*
X54911Y-36366D01*
X54911Y-36296D01*
X54884Y-36232D01*
X54847Y-36195D01*
X54869Y-36174D01*
X54896Y-36110D01*
X54896Y-36040D01*
X54869Y-35976D01*
X54820Y-35927D01*
X54756Y-35900D01*
X54701Y-35900D01*
X54701Y-31913D01*
X54701Y-31756D01*
X54641Y-31611D01*
X54530Y-31500D01*
X54386Y-31440D01*
X54229Y-31440D01*
X54084Y-31500D01*
X53973Y-31611D01*
X53913Y-31755D01*
X53913Y-31912D01*
X53973Y-32057D01*
X54084Y-32168D01*
X54228Y-32228D01*
X54385Y-32228D01*
X54530Y-32168D01*
X54641Y-32057D01*
X54701Y-31913D01*
X54701Y-35900D01*
X54686Y-35900D01*
X54622Y-35927D01*
X54573Y-35976D01*
X54546Y-36040D01*
X54546Y-36086D01*
X54414Y-36218D01*
X54414Y-34480D01*
X54414Y-34403D01*
X54385Y-34332D01*
X54331Y-34278D01*
X54260Y-34248D01*
X54183Y-34248D01*
X54112Y-34277D01*
X54058Y-34331D01*
X54028Y-34402D01*
X54028Y-34479D01*
X54057Y-34550D01*
X54111Y-34604D01*
X54182Y-34634D01*
X54259Y-34634D01*
X54330Y-34605D01*
X54384Y-34551D01*
X54414Y-34480D01*
X54414Y-36218D01*
X54371Y-36261D01*
X54346Y-36298D01*
X54337Y-36343D01*
X54337Y-37188D01*
X54305Y-37220D01*
X54278Y-37284D01*
X54278Y-37354D01*
X54305Y-37418D01*
X54354Y-37467D01*
X54418Y-37494D01*
X54488Y-37494D01*
X54552Y-37467D01*
X54601Y-37418D01*
X54628Y-37354D01*
X54628Y-37284D01*
X54601Y-37220D01*
X54569Y-37188D01*
X54569Y-36391D01*
X54570Y-36389D01*
X54588Y-36430D01*
X54637Y-36479D01*
X54701Y-36506D01*
X54771Y-36506D01*
X54835Y-36479D01*
X54884Y-36430D01*
X54911Y-36366D01*
X54911Y-37150D01*
X54840Y-37179D01*
X54786Y-37233D01*
X54756Y-37304D01*
X54756Y-37381D01*
X54785Y-37452D01*
X54839Y-37506D01*
X54910Y-37536D01*
X54987Y-37536D01*
X55058Y-37507D01*
X55112Y-37453D01*
X55142Y-37382D01*
X55142Y-38150D01*
X55124Y-38193D01*
X55124Y-38263D01*
X55151Y-38327D01*
X55200Y-38376D01*
X55264Y-38403D01*
X55334Y-38403D01*
X55398Y-38376D01*
X55447Y-38327D01*
X55474Y-38263D01*
X55474Y-38872D01*
X55456Y-38880D01*
X55407Y-38929D01*
X55380Y-38993D01*
X55380Y-39063D01*
X55407Y-39127D01*
X55456Y-39176D01*
X55520Y-39203D01*
X55590Y-39203D01*
X55654Y-39176D01*
X55683Y-39146D01*
X55732Y-39195D01*
X55796Y-39222D01*
X55866Y-39222D01*
X55930Y-39195D01*
X55979Y-39146D01*
X56006Y-39082D01*
X56006Y-40885D01*
X55989Y-40868D01*
X55947Y-40850D01*
X55947Y-40267D01*
X55947Y-40197D01*
X55920Y-40133D01*
X55911Y-40124D01*
X55911Y-39866D01*
X55911Y-39796D01*
X55884Y-39732D01*
X55884Y-39480D01*
X55884Y-39410D01*
X55857Y-39346D01*
X55808Y-39297D01*
X55744Y-39270D01*
X55674Y-39270D01*
X55610Y-39297D01*
X55561Y-39346D01*
X55534Y-39410D01*
X55534Y-39480D01*
X55561Y-39544D01*
X55610Y-39593D01*
X55674Y-39620D01*
X55744Y-39620D01*
X55808Y-39593D01*
X55857Y-39544D01*
X55884Y-39480D01*
X55884Y-39732D01*
X55835Y-39683D01*
X55771Y-39656D01*
X55701Y-39656D01*
X55637Y-39683D01*
X55588Y-39732D01*
X55569Y-39777D01*
X55569Y-39673D01*
X55569Y-39603D01*
X55542Y-39539D01*
X55493Y-39490D01*
X55429Y-39463D01*
X55359Y-39463D01*
X55295Y-39490D01*
X55246Y-39539D01*
X55219Y-39603D01*
X55219Y-39673D01*
X55246Y-39737D01*
X55295Y-39786D01*
X55359Y-39813D01*
X55429Y-39813D01*
X55493Y-39786D01*
X55542Y-39737D01*
X55569Y-39673D01*
X55569Y-39777D01*
X55561Y-39796D01*
X55561Y-39866D01*
X55588Y-39930D01*
X55637Y-39979D01*
X55701Y-40006D01*
X55771Y-40006D01*
X55835Y-39979D01*
X55884Y-39930D01*
X55911Y-39866D01*
X55911Y-40124D01*
X55871Y-40084D01*
X55807Y-40057D01*
X55737Y-40057D01*
X55673Y-40084D01*
X55624Y-40133D01*
X55597Y-40197D01*
X55597Y-40267D01*
X55624Y-40331D01*
X55673Y-40380D01*
X55737Y-40407D01*
X55807Y-40407D01*
X55871Y-40380D01*
X55920Y-40331D01*
X55947Y-40267D01*
X55947Y-40850D01*
X55925Y-40841D01*
X55876Y-40841D01*
X55876Y-40653D01*
X55876Y-40583D01*
X55849Y-40519D01*
X55800Y-40470D01*
X55736Y-40443D01*
X55666Y-40443D01*
X55602Y-40470D01*
X55553Y-40519D01*
X55526Y-40583D01*
X55526Y-40653D01*
X55553Y-40717D01*
X55602Y-40766D01*
X55666Y-40793D01*
X55736Y-40793D01*
X55800Y-40766D01*
X55849Y-40717D01*
X55876Y-40653D01*
X55876Y-40841D01*
X55855Y-40841D01*
X55791Y-40868D01*
X55742Y-40917D01*
X55715Y-40981D01*
X55715Y-41051D01*
X55742Y-41115D01*
X55791Y-41164D01*
X55855Y-41191D01*
X55925Y-41191D01*
X55989Y-41164D01*
X56038Y-41115D01*
X56065Y-41051D01*
X56065Y-43782D01*
X56064Y-43782D01*
X55993Y-43811D01*
X55990Y-43814D01*
X55990Y-41441D01*
X55990Y-41371D01*
X55963Y-41307D01*
X55914Y-41258D01*
X55850Y-41231D01*
X55780Y-41231D01*
X55716Y-41258D01*
X55667Y-41307D01*
X55640Y-41371D01*
X55640Y-41441D01*
X55667Y-41505D01*
X55716Y-41554D01*
X55780Y-41581D01*
X55850Y-41581D01*
X55914Y-41554D01*
X55963Y-41505D01*
X55990Y-41441D01*
X55990Y-43814D01*
X55941Y-43863D01*
X55941Y-43551D01*
X55941Y-43474D01*
X55912Y-43403D01*
X55880Y-43371D01*
X55880Y-41874D01*
X55880Y-41804D01*
X55853Y-41740D01*
X55804Y-41691D01*
X55740Y-41664D01*
X55670Y-41664D01*
X55606Y-41691D01*
X55571Y-41725D01*
X55544Y-41698D01*
X55541Y-41696D01*
X55541Y-40854D01*
X55541Y-40784D01*
X55514Y-40720D01*
X55478Y-40684D01*
X55478Y-40067D01*
X55478Y-39997D01*
X55451Y-39933D01*
X55402Y-39884D01*
X55338Y-39857D01*
X55268Y-39857D01*
X55204Y-39884D01*
X55155Y-39933D01*
X55128Y-39997D01*
X55128Y-40067D01*
X55155Y-40131D01*
X55204Y-40180D01*
X55268Y-40207D01*
X55338Y-40207D01*
X55402Y-40180D01*
X55451Y-40131D01*
X55478Y-40067D01*
X55478Y-40684D01*
X55465Y-40671D01*
X55463Y-40670D01*
X55463Y-40456D01*
X55463Y-40386D01*
X55436Y-40322D01*
X55387Y-40273D01*
X55323Y-40246D01*
X55253Y-40246D01*
X55189Y-40273D01*
X55140Y-40322D01*
X55113Y-40386D01*
X55113Y-40456D01*
X55140Y-40520D01*
X55189Y-40569D01*
X55253Y-40596D01*
X55323Y-40596D01*
X55387Y-40569D01*
X55436Y-40520D01*
X55463Y-40456D01*
X55463Y-40670D01*
X55401Y-40644D01*
X55331Y-40644D01*
X55267Y-40671D01*
X55218Y-40720D01*
X55191Y-40784D01*
X55191Y-40854D01*
X55218Y-40918D01*
X55267Y-40967D01*
X55331Y-40994D01*
X55401Y-40994D01*
X55465Y-40967D01*
X55514Y-40918D01*
X55541Y-40854D01*
X55541Y-41696D01*
X55480Y-41671D01*
X55435Y-41671D01*
X55435Y-41244D01*
X55435Y-41174D01*
X55408Y-41110D01*
X55359Y-41061D01*
X55295Y-41034D01*
X55225Y-41034D01*
X55161Y-41061D01*
X55112Y-41110D01*
X55085Y-41174D01*
X55085Y-41244D01*
X55112Y-41308D01*
X55161Y-41357D01*
X55225Y-41384D01*
X55295Y-41384D01*
X55359Y-41357D01*
X55408Y-41308D01*
X55435Y-41244D01*
X55435Y-41671D01*
X55410Y-41671D01*
X55346Y-41698D01*
X55297Y-41747D01*
X55270Y-41811D01*
X55270Y-41881D01*
X55297Y-41945D01*
X55346Y-41994D01*
X55410Y-42021D01*
X55480Y-42021D01*
X55544Y-41994D01*
X55578Y-41959D01*
X55606Y-41987D01*
X55670Y-42014D01*
X55740Y-42014D01*
X55804Y-41987D01*
X55853Y-41938D01*
X55880Y-41874D01*
X55880Y-43371D01*
X55858Y-43349D01*
X55787Y-43319D01*
X55710Y-43319D01*
X55639Y-43348D01*
X55628Y-43359D01*
X55628Y-43102D01*
X55628Y-43032D01*
X55601Y-42968D01*
X55552Y-42919D01*
X55488Y-42892D01*
X55418Y-42892D01*
X55354Y-42919D01*
X55339Y-42934D01*
X55324Y-42919D01*
X55260Y-42892D01*
X55190Y-42892D01*
X55126Y-42919D01*
X55106Y-42938D01*
X55083Y-42915D01*
X55019Y-42888D01*
X54949Y-42888D01*
X54885Y-42915D01*
X54856Y-42943D01*
X54820Y-42907D01*
X54756Y-42880D01*
X54686Y-42880D01*
X54622Y-42907D01*
X54573Y-42956D01*
X54546Y-43020D01*
X54546Y-43090D01*
X54573Y-43154D01*
X54622Y-43203D01*
X54686Y-43230D01*
X54756Y-43230D01*
X54820Y-43203D01*
X54848Y-43174D01*
X54885Y-43211D01*
X54949Y-43238D01*
X55019Y-43238D01*
X55083Y-43211D01*
X55102Y-43191D01*
X55126Y-43215D01*
X55190Y-43242D01*
X55260Y-43242D01*
X55324Y-43215D01*
X55339Y-43200D01*
X55354Y-43215D01*
X55418Y-43242D01*
X55488Y-43242D01*
X55552Y-43215D01*
X55601Y-43166D01*
X55628Y-43102D01*
X55628Y-43359D01*
X55585Y-43402D01*
X55555Y-43473D01*
X55555Y-43550D01*
X55584Y-43621D01*
X55638Y-43675D01*
X55709Y-43705D01*
X55786Y-43705D01*
X55857Y-43676D01*
X55911Y-43622D01*
X55941Y-43551D01*
X55941Y-43863D01*
X55939Y-43865D01*
X55909Y-43936D01*
X55909Y-44013D01*
X55938Y-44084D01*
X55992Y-44138D01*
X56063Y-44168D01*
X56140Y-44168D01*
X56211Y-44139D01*
X56240Y-44110D01*
X56268Y-44138D01*
X56339Y-44168D01*
X56416Y-44168D01*
X56487Y-44139D01*
X56541Y-44085D01*
X56571Y-44014D01*
X56571Y-48685D01*
X56498Y-48685D01*
X56353Y-48745D01*
X56242Y-48856D01*
X56182Y-49000D01*
X56182Y-49157D01*
X56242Y-49302D01*
X56353Y-49413D01*
X56497Y-49473D01*
X56654Y-49473D01*
X56799Y-49413D01*
X56910Y-49302D01*
X56970Y-49158D01*
X56970Y-49516D01*
X56914Y-49494D01*
X56805Y-49494D01*
X56723Y-49527D01*
X56561Y-49527D01*
X56481Y-49494D01*
X56372Y-49494D01*
X56292Y-49526D01*
X55410Y-49524D01*
X55410Y-45027D01*
X55410Y-44950D01*
X55381Y-44879D01*
X55327Y-44825D01*
X55256Y-44795D01*
X55179Y-44795D01*
X55108Y-44824D01*
X55054Y-44878D01*
X55024Y-44949D01*
X55024Y-45026D01*
X55047Y-45083D01*
X54994Y-45083D01*
X54923Y-45112D01*
X54869Y-45166D01*
X54839Y-45237D01*
X54839Y-45314D01*
X54868Y-45385D01*
X54922Y-45439D01*
X54993Y-45469D01*
X55070Y-45469D01*
X55141Y-45440D01*
X55195Y-45386D01*
X55225Y-45315D01*
X55225Y-45238D01*
X55201Y-45181D01*
X55255Y-45181D01*
X55326Y-45152D01*
X55380Y-45098D01*
X55410Y-45027D01*
X55410Y-49524D01*
X54081Y-49521D01*
X54081Y-34878D01*
X54081Y-34808D01*
X54054Y-34744D01*
X54005Y-34695D01*
X53941Y-34668D01*
X53871Y-34668D01*
X53807Y-34695D01*
X53794Y-34708D01*
X53418Y-34708D01*
X53214Y-34504D01*
X53171Y-34474D01*
X53119Y-34464D01*
X52171Y-34464D01*
X52171Y-31791D01*
X52171Y-31643D01*
X52114Y-31506D01*
X52010Y-31402D01*
X51873Y-31345D01*
X51725Y-31345D01*
X51588Y-31402D01*
X51484Y-31506D01*
X51427Y-31643D01*
X51427Y-31791D01*
X51484Y-31928D01*
X51588Y-32032D01*
X51725Y-32089D01*
X51873Y-32089D01*
X52010Y-32032D01*
X52114Y-31928D01*
X52171Y-31791D01*
X52171Y-34464D01*
X51362Y-34464D01*
X51362Y-34283D01*
X51362Y-34206D01*
X51333Y-34135D01*
X51279Y-34081D01*
X51208Y-34051D01*
X51131Y-34051D01*
X51060Y-34080D01*
X51006Y-34134D01*
X50976Y-34205D01*
X50976Y-34282D01*
X51005Y-34353D01*
X51059Y-34407D01*
X51130Y-34437D01*
X51207Y-34437D01*
X51278Y-34408D01*
X51332Y-34354D01*
X51362Y-34283D01*
X51362Y-34464D01*
X50491Y-34464D01*
X50439Y-34474D01*
X50395Y-34504D01*
X49258Y-35641D01*
X49122Y-35641D01*
X49070Y-35651D01*
X49026Y-35681D01*
X48767Y-35941D01*
X48737Y-35984D01*
X48727Y-36036D01*
X48727Y-37112D01*
X48368Y-37554D01*
X48368Y-37240D01*
X48368Y-37170D01*
X48341Y-37106D01*
X48292Y-37057D01*
X48228Y-37030D01*
X48158Y-37030D01*
X48094Y-37057D01*
X48045Y-37106D01*
X48018Y-37170D01*
X48018Y-37240D01*
X48036Y-37283D01*
X48017Y-37303D01*
X47990Y-37367D01*
X47990Y-37437D01*
X48017Y-37501D01*
X48066Y-37550D01*
X48130Y-37577D01*
X48200Y-37577D01*
X48264Y-37550D01*
X48313Y-37501D01*
X48340Y-37437D01*
X48340Y-37367D01*
X48321Y-37323D01*
X48341Y-37304D01*
X48368Y-37240D01*
X48368Y-37554D01*
X48161Y-37809D01*
X48158Y-37809D01*
X48094Y-37836D01*
X48045Y-37885D01*
X48018Y-37949D01*
X48018Y-38019D01*
X48045Y-38083D01*
X48094Y-38132D01*
X48158Y-38159D01*
X48228Y-38159D01*
X48292Y-38132D01*
X48341Y-38083D01*
X48368Y-38019D01*
X48368Y-37982D01*
X48957Y-37257D01*
X48966Y-37247D01*
X48973Y-37233D01*
X48987Y-37214D01*
X48988Y-37205D01*
X48991Y-37201D01*
X48991Y-37188D01*
X48997Y-37162D01*
X48997Y-37124D01*
X49016Y-37143D01*
X49016Y-42593D01*
X49017Y-42600D01*
X49017Y-42609D01*
X49022Y-42622D01*
X49025Y-42637D01*
X49030Y-42645D01*
X49033Y-42652D01*
X49041Y-42661D01*
X49050Y-42675D01*
X49055Y-42678D01*
X49062Y-42686D01*
X49390Y-42932D01*
X49390Y-42953D01*
X49417Y-43017D01*
X49466Y-43066D01*
X49530Y-43093D01*
X49600Y-43093D01*
X49664Y-43066D01*
X49713Y-43017D01*
X49740Y-42953D01*
X49740Y-42883D01*
X49713Y-42819D01*
X49664Y-42770D01*
X49640Y-42759D01*
X49666Y-42734D01*
X50370Y-42734D01*
X50414Y-42725D01*
X50415Y-42725D01*
X50452Y-42700D01*
X51993Y-41159D01*
X52334Y-41159D01*
X52366Y-41191D01*
X52430Y-41218D01*
X52500Y-41218D01*
X52564Y-41191D01*
X52613Y-41142D01*
X52640Y-41078D01*
X52640Y-41008D01*
X52613Y-40944D01*
X52564Y-40895D01*
X52500Y-40868D01*
X52451Y-40868D01*
X52451Y-40862D01*
X52705Y-40609D01*
X52705Y-40608D01*
X52735Y-40565D01*
X52744Y-40513D01*
X52745Y-40513D01*
X52745Y-38634D01*
X53800Y-37580D01*
X53800Y-37579D01*
X53830Y-37536D01*
X53839Y-37484D01*
X53840Y-37484D01*
X53840Y-36284D01*
X53830Y-36232D01*
X53800Y-36189D01*
X53800Y-36188D01*
X53202Y-35591D01*
X53205Y-34974D01*
X53219Y-34961D01*
X53240Y-34910D01*
X53267Y-34938D01*
X53268Y-34938D01*
X53311Y-34968D01*
X53363Y-34978D01*
X53794Y-34978D01*
X53807Y-34991D01*
X53871Y-35018D01*
X53941Y-35018D01*
X54005Y-34991D01*
X54054Y-34942D01*
X54081Y-34878D01*
X54081Y-49521D01*
X53837Y-49520D01*
X53837Y-38590D01*
X53837Y-38520D01*
X53810Y-38456D01*
X53809Y-38455D01*
X53810Y-38454D01*
X53837Y-38390D01*
X53837Y-38320D01*
X53810Y-38256D01*
X53761Y-38207D01*
X53697Y-38180D01*
X53627Y-38180D01*
X53563Y-38207D01*
X53514Y-38256D01*
X53487Y-38320D01*
X53487Y-38390D01*
X53514Y-38454D01*
X53515Y-38455D01*
X53514Y-38456D01*
X53487Y-38520D01*
X53487Y-38590D01*
X53514Y-38654D01*
X53563Y-38703D01*
X53627Y-38730D01*
X53697Y-38730D01*
X53761Y-38703D01*
X53810Y-38654D01*
X53837Y-38590D01*
X53837Y-49520D01*
X53825Y-49520D01*
X53825Y-41571D01*
X53825Y-41501D01*
X53825Y-39016D01*
X53825Y-38946D01*
X53798Y-38882D01*
X53749Y-38833D01*
X53685Y-38806D01*
X53615Y-38806D01*
X53551Y-38833D01*
X53502Y-38882D01*
X53475Y-38946D01*
X53475Y-39016D01*
X53502Y-39080D01*
X53551Y-39129D01*
X53615Y-39156D01*
X53685Y-39156D01*
X53749Y-39129D01*
X53798Y-39080D01*
X53825Y-39016D01*
X53825Y-41501D01*
X53801Y-41444D01*
X53801Y-39405D01*
X53801Y-39335D01*
X53774Y-39271D01*
X53725Y-39222D01*
X53661Y-39195D01*
X53591Y-39195D01*
X53527Y-39222D01*
X53478Y-39271D01*
X53451Y-39335D01*
X53451Y-39405D01*
X53474Y-39459D01*
X53462Y-39472D01*
X53435Y-39536D01*
X53435Y-39606D01*
X53462Y-39670D01*
X53511Y-39719D01*
X53575Y-39746D01*
X53645Y-39746D01*
X53709Y-39719D01*
X53758Y-39670D01*
X53785Y-39606D01*
X53785Y-39536D01*
X53761Y-39481D01*
X53774Y-39469D01*
X53801Y-39405D01*
X53801Y-41444D01*
X53798Y-41437D01*
X53777Y-41416D01*
X53777Y-40594D01*
X53777Y-40524D01*
X53758Y-40478D01*
X53758Y-40236D01*
X53758Y-40166D01*
X53731Y-40102D01*
X53682Y-40053D01*
X53618Y-40026D01*
X53548Y-40026D01*
X53484Y-40053D01*
X53435Y-40102D01*
X53408Y-40166D01*
X53408Y-40236D01*
X53435Y-40300D01*
X53484Y-40349D01*
X53548Y-40376D01*
X53618Y-40376D01*
X53682Y-40349D01*
X53731Y-40300D01*
X53758Y-40236D01*
X53758Y-40478D01*
X53750Y-40460D01*
X53701Y-40411D01*
X53637Y-40384D01*
X53567Y-40384D01*
X53503Y-40411D01*
X53454Y-40460D01*
X53427Y-40524D01*
X53427Y-40594D01*
X53454Y-40658D01*
X53503Y-40707D01*
X53567Y-40734D01*
X53637Y-40734D01*
X53701Y-40707D01*
X53750Y-40658D01*
X53777Y-40594D01*
X53777Y-41416D01*
X53749Y-41388D01*
X53704Y-41369D01*
X53739Y-41335D01*
X53766Y-41271D01*
X53766Y-41201D01*
X53739Y-41137D01*
X53736Y-41134D01*
X53762Y-41075D01*
X53762Y-41005D01*
X53735Y-40941D01*
X53686Y-40892D01*
X53622Y-40865D01*
X53552Y-40865D01*
X53488Y-40892D01*
X53439Y-40941D01*
X53412Y-41005D01*
X53412Y-41075D01*
X53439Y-41139D01*
X53441Y-41141D01*
X53416Y-41201D01*
X53416Y-41271D01*
X53443Y-41335D01*
X53492Y-41384D01*
X53536Y-41402D01*
X53502Y-41437D01*
X53475Y-41501D01*
X53475Y-41571D01*
X53502Y-41635D01*
X53551Y-41684D01*
X53615Y-41711D01*
X53685Y-41711D01*
X53749Y-41684D01*
X53798Y-41635D01*
X53825Y-41571D01*
X53825Y-49520D01*
X53754Y-49520D01*
X53754Y-42157D01*
X53754Y-42087D01*
X53727Y-42024D01*
X53727Y-42023D01*
X53754Y-41960D01*
X53754Y-41890D01*
X53727Y-41826D01*
X53678Y-41777D01*
X53614Y-41750D01*
X53544Y-41750D01*
X53480Y-41777D01*
X53431Y-41826D01*
X53404Y-41890D01*
X53404Y-41960D01*
X53430Y-42023D01*
X53404Y-42087D01*
X53404Y-42157D01*
X53431Y-42221D01*
X53480Y-42270D01*
X53544Y-42297D01*
X53614Y-42297D01*
X53678Y-42270D01*
X53727Y-42221D01*
X53754Y-42157D01*
X53754Y-49520D01*
X53732Y-49520D01*
X53732Y-44236D01*
X53732Y-44159D01*
X53703Y-44088D01*
X53649Y-44034D01*
X53638Y-44029D01*
X53648Y-44026D01*
X53702Y-43972D01*
X53732Y-43901D01*
X53732Y-43824D01*
X53703Y-43753D01*
X53649Y-43699D01*
X53578Y-43669D01*
X53501Y-43669D01*
X53430Y-43698D01*
X53376Y-43752D01*
X53346Y-43823D01*
X53346Y-43900D01*
X53375Y-43971D01*
X53429Y-44025D01*
X53439Y-44029D01*
X53430Y-44033D01*
X53376Y-44087D01*
X53346Y-44158D01*
X53346Y-44235D01*
X53375Y-44306D01*
X53429Y-44360D01*
X53500Y-44390D01*
X53577Y-44390D01*
X53648Y-44361D01*
X53702Y-44307D01*
X53732Y-44236D01*
X53732Y-49520D01*
X53134Y-49519D01*
X53134Y-43659D01*
X53134Y-43582D01*
X53105Y-43511D01*
X53051Y-43457D01*
X52980Y-43427D01*
X52937Y-43427D01*
X52937Y-43386D01*
X52908Y-43315D01*
X52854Y-43261D01*
X52783Y-43231D01*
X52710Y-43231D01*
X52710Y-41767D01*
X52710Y-41697D01*
X52683Y-41633D01*
X52634Y-41584D01*
X52570Y-41557D01*
X52500Y-41557D01*
X52436Y-41584D01*
X52387Y-41633D01*
X52360Y-41697D01*
X52360Y-41767D01*
X52387Y-41831D01*
X52436Y-41880D01*
X52500Y-41907D01*
X52570Y-41907D01*
X52634Y-41880D01*
X52683Y-41831D01*
X52710Y-41767D01*
X52710Y-43231D01*
X52706Y-43231D01*
X52635Y-43260D01*
X52581Y-43314D01*
X52566Y-43348D01*
X52553Y-43315D01*
X52499Y-43261D01*
X52428Y-43231D01*
X52351Y-43231D01*
X52293Y-43254D01*
X52293Y-42389D01*
X52293Y-42319D01*
X52266Y-42255D01*
X52217Y-42206D01*
X52153Y-42179D01*
X52083Y-42179D01*
X52019Y-42206D01*
X52017Y-42208D01*
X52016Y-42207D01*
X51952Y-42180D01*
X51882Y-42180D01*
X51818Y-42207D01*
X51777Y-42247D01*
X51737Y-42207D01*
X51673Y-42180D01*
X51603Y-42180D01*
X51539Y-42207D01*
X51518Y-42228D01*
X51497Y-42207D01*
X51433Y-42180D01*
X51363Y-42180D01*
X51299Y-42207D01*
X51250Y-42256D01*
X51223Y-42320D01*
X51223Y-42390D01*
X51250Y-42454D01*
X51299Y-42503D01*
X51363Y-42530D01*
X51433Y-42530D01*
X51497Y-42503D01*
X51518Y-42482D01*
X51539Y-42503D01*
X51603Y-42530D01*
X51673Y-42530D01*
X51737Y-42503D01*
X51777Y-42462D01*
X51818Y-42503D01*
X51882Y-42530D01*
X51952Y-42530D01*
X52016Y-42503D01*
X52018Y-42501D01*
X52019Y-42502D01*
X52083Y-42529D01*
X52153Y-42529D01*
X52217Y-42502D01*
X52266Y-42453D01*
X52293Y-42389D01*
X52293Y-43254D01*
X52280Y-43260D01*
X52226Y-43314D01*
X52196Y-43385D01*
X52196Y-43428D01*
X52194Y-43428D01*
X52123Y-43457D01*
X52069Y-43511D01*
X52039Y-43582D01*
X52039Y-43659D01*
X52068Y-43730D01*
X52122Y-43784D01*
X52193Y-43814D01*
X52270Y-43814D01*
X52341Y-43785D01*
X52395Y-43731D01*
X52408Y-43698D01*
X52422Y-43730D01*
X52476Y-43784D01*
X52547Y-43814D01*
X52624Y-43814D01*
X52695Y-43785D01*
X52749Y-43731D01*
X52763Y-43696D01*
X52777Y-43729D01*
X52831Y-43783D01*
X52902Y-43813D01*
X52979Y-43813D01*
X53050Y-43784D01*
X53104Y-43730D01*
X53134Y-43659D01*
X53134Y-49519D01*
X53095Y-49519D01*
X53095Y-49236D01*
X53095Y-49159D01*
X53093Y-49154D01*
X53093Y-48841D01*
X53093Y-48764D01*
X53093Y-48449D01*
X53093Y-48372D01*
X53093Y-48054D01*
X53093Y-47977D01*
X53093Y-47661D01*
X53093Y-47584D01*
X53064Y-47513D01*
X53010Y-47459D01*
X52975Y-47444D01*
X53009Y-47431D01*
X53063Y-47377D01*
X53093Y-47306D01*
X53093Y-47229D01*
X53064Y-47158D01*
X53010Y-47104D01*
X53004Y-47101D01*
X53004Y-45031D01*
X53004Y-44954D01*
X52975Y-44883D01*
X52921Y-44829D01*
X52850Y-44799D01*
X52773Y-44799D01*
X52702Y-44828D01*
X52648Y-44882D01*
X52618Y-44953D01*
X52618Y-45030D01*
X52647Y-45101D01*
X52701Y-45155D01*
X52764Y-45182D01*
X52744Y-45182D01*
X52673Y-45211D01*
X52619Y-45265D01*
X52589Y-45336D01*
X52589Y-45413D01*
X52618Y-45484D01*
X52666Y-45532D01*
X52619Y-45580D01*
X52589Y-45651D01*
X52589Y-45728D01*
X52591Y-45734D01*
X52546Y-45734D01*
X52475Y-45763D01*
X52421Y-45817D01*
X52391Y-45888D01*
X52391Y-45965D01*
X52420Y-46036D01*
X52474Y-46090D01*
X52545Y-46120D01*
X52622Y-46120D01*
X52693Y-46091D01*
X52747Y-46037D01*
X52777Y-45966D01*
X52777Y-45889D01*
X52774Y-45883D01*
X52820Y-45883D01*
X52891Y-45854D01*
X52945Y-45800D01*
X52975Y-45729D01*
X52975Y-45652D01*
X52946Y-45581D01*
X52897Y-45532D01*
X52945Y-45485D01*
X52975Y-45414D01*
X52975Y-45337D01*
X52946Y-45266D01*
X52892Y-45212D01*
X52828Y-45185D01*
X52849Y-45185D01*
X52920Y-45156D01*
X52974Y-45102D01*
X53004Y-45031D01*
X53004Y-47101D01*
X52939Y-47074D01*
X52862Y-47074D01*
X52791Y-47103D01*
X52737Y-47157D01*
X52707Y-47228D01*
X52707Y-47305D01*
X52736Y-47376D01*
X52790Y-47430D01*
X52824Y-47444D01*
X52791Y-47458D01*
X52737Y-47512D01*
X52707Y-47583D01*
X52707Y-47660D01*
X52736Y-47731D01*
X52790Y-47785D01*
X52861Y-47815D01*
X52938Y-47815D01*
X53009Y-47786D01*
X53063Y-47732D01*
X53093Y-47661D01*
X53093Y-47977D01*
X53064Y-47906D01*
X53010Y-47852D01*
X52939Y-47822D01*
X52862Y-47822D01*
X52791Y-47851D01*
X52737Y-47905D01*
X52707Y-47976D01*
X52707Y-48053D01*
X52736Y-48124D01*
X52790Y-48178D01*
X52861Y-48208D01*
X52938Y-48208D01*
X53009Y-48179D01*
X53063Y-48125D01*
X53093Y-48054D01*
X53093Y-48372D01*
X53064Y-48301D01*
X53010Y-48247D01*
X52939Y-48217D01*
X52862Y-48217D01*
X52791Y-48246D01*
X52737Y-48300D01*
X52707Y-48371D01*
X52707Y-48448D01*
X52736Y-48519D01*
X52790Y-48573D01*
X52861Y-48603D01*
X52938Y-48603D01*
X53009Y-48574D01*
X53063Y-48520D01*
X53093Y-48449D01*
X53093Y-48764D01*
X53064Y-48693D01*
X53010Y-48639D01*
X52939Y-48609D01*
X52862Y-48609D01*
X52791Y-48638D01*
X52737Y-48692D01*
X52707Y-48763D01*
X52707Y-48840D01*
X52736Y-48911D01*
X52790Y-48965D01*
X52861Y-48995D01*
X52938Y-48995D01*
X53009Y-48966D01*
X53063Y-48912D01*
X53093Y-48841D01*
X53093Y-49154D01*
X53066Y-49088D01*
X53012Y-49034D01*
X52941Y-49004D01*
X52864Y-49004D01*
X52793Y-49033D01*
X52739Y-49087D01*
X52709Y-49158D01*
X52709Y-49235D01*
X52738Y-49306D01*
X52792Y-49360D01*
X52863Y-49390D01*
X52940Y-49390D01*
X53011Y-49361D01*
X53065Y-49307D01*
X53095Y-49236D01*
X53095Y-49519D01*
X52700Y-49518D01*
X52700Y-49236D01*
X52700Y-49159D01*
X52700Y-47306D01*
X52700Y-47229D01*
X52671Y-47158D01*
X52617Y-47104D01*
X52546Y-47074D01*
X52469Y-47074D01*
X52398Y-47103D01*
X52383Y-47118D01*
X52383Y-45966D01*
X52383Y-45889D01*
X52354Y-45818D01*
X52300Y-45764D01*
X52229Y-45734D01*
X52184Y-45734D01*
X52187Y-45729D01*
X52187Y-45652D01*
X52158Y-45581D01*
X52109Y-45532D01*
X52157Y-45485D01*
X52187Y-45414D01*
X52187Y-45337D01*
X52158Y-45266D01*
X52104Y-45212D01*
X52033Y-45182D01*
X51956Y-45182D01*
X51885Y-45211D01*
X51831Y-45265D01*
X51801Y-45336D01*
X51801Y-45413D01*
X51830Y-45484D01*
X51878Y-45532D01*
X51831Y-45580D01*
X51801Y-45651D01*
X51801Y-45728D01*
X51830Y-45799D01*
X51884Y-45853D01*
X51955Y-45883D01*
X51999Y-45883D01*
X51997Y-45888D01*
X51997Y-45965D01*
X52026Y-46036D01*
X52080Y-46090D01*
X52151Y-46120D01*
X52228Y-46120D01*
X52299Y-46091D01*
X52353Y-46037D01*
X52383Y-45966D01*
X52383Y-47118D01*
X52344Y-47157D01*
X52314Y-47228D01*
X52314Y-47305D01*
X52343Y-47376D01*
X52397Y-47430D01*
X52468Y-47460D01*
X52545Y-47460D01*
X52616Y-47431D01*
X52670Y-47377D01*
X52700Y-47306D01*
X52700Y-49159D01*
X52671Y-49088D01*
X52617Y-49034D01*
X52546Y-49004D01*
X52469Y-49004D01*
X52398Y-49033D01*
X52344Y-49087D01*
X52314Y-49158D01*
X52314Y-49235D01*
X52343Y-49306D01*
X52397Y-49360D01*
X52468Y-49390D01*
X52545Y-49390D01*
X52616Y-49361D01*
X52670Y-49307D01*
X52700Y-49236D01*
X52700Y-49518D01*
X52307Y-49517D01*
X52307Y-47306D01*
X52307Y-47229D01*
X52278Y-47158D01*
X52224Y-47104D01*
X52153Y-47074D01*
X52076Y-47074D01*
X52005Y-47103D01*
X51951Y-47157D01*
X51921Y-47228D01*
X51921Y-47305D01*
X51950Y-47376D01*
X52004Y-47430D01*
X52075Y-47460D01*
X52152Y-47460D01*
X52223Y-47431D01*
X52277Y-47377D01*
X52307Y-47306D01*
X52307Y-49517D01*
X52305Y-49517D01*
X52305Y-49234D01*
X52305Y-49157D01*
X52276Y-49086D01*
X52222Y-49032D01*
X52151Y-49002D01*
X52074Y-49002D01*
X52003Y-49031D01*
X51949Y-49085D01*
X51919Y-49156D01*
X51919Y-49233D01*
X51948Y-49304D01*
X52002Y-49358D01*
X52073Y-49388D01*
X52150Y-49388D01*
X52221Y-49359D01*
X52275Y-49305D01*
X52305Y-49234D01*
X52305Y-49517D01*
X51913Y-49517D01*
X51913Y-49236D01*
X51913Y-49159D01*
X51913Y-47306D01*
X51913Y-47229D01*
X51884Y-47158D01*
X51830Y-47104D01*
X51759Y-47074D01*
X51682Y-47074D01*
X51611Y-47103D01*
X51557Y-47157D01*
X51527Y-47228D01*
X51527Y-47305D01*
X51556Y-47376D01*
X51610Y-47430D01*
X51681Y-47460D01*
X51758Y-47460D01*
X51829Y-47431D01*
X51883Y-47377D01*
X51913Y-47306D01*
X51913Y-49159D01*
X51884Y-49088D01*
X51830Y-49034D01*
X51759Y-49004D01*
X51682Y-49004D01*
X51611Y-49033D01*
X51557Y-49087D01*
X51527Y-49158D01*
X51527Y-49235D01*
X51556Y-49306D01*
X51610Y-49360D01*
X51681Y-49390D01*
X51758Y-49390D01*
X51829Y-49361D01*
X51883Y-49307D01*
X51913Y-49236D01*
X51913Y-49517D01*
X51518Y-49516D01*
X51518Y-49236D01*
X51518Y-49159D01*
X51518Y-48841D01*
X51518Y-48764D01*
X51518Y-48449D01*
X51518Y-48372D01*
X51518Y-48054D01*
X51518Y-47977D01*
X51518Y-47661D01*
X51518Y-47584D01*
X51489Y-47513D01*
X51435Y-47459D01*
X51400Y-47444D01*
X51434Y-47431D01*
X51488Y-47377D01*
X51518Y-47306D01*
X51518Y-47229D01*
X51489Y-47158D01*
X51435Y-47104D01*
X51364Y-47074D01*
X51362Y-47074D01*
X51362Y-45102D01*
X51362Y-45025D01*
X51333Y-44954D01*
X51324Y-44945D01*
X51332Y-44937D01*
X51362Y-44866D01*
X51362Y-44789D01*
X51333Y-44718D01*
X51279Y-44664D01*
X51208Y-44634D01*
X51131Y-44634D01*
X51060Y-44663D01*
X51006Y-44717D01*
X50976Y-44788D01*
X50976Y-44865D01*
X51005Y-44936D01*
X51014Y-44945D01*
X51006Y-44953D01*
X50976Y-45024D01*
X50976Y-45101D01*
X51005Y-45172D01*
X51059Y-45226D01*
X51130Y-45256D01*
X51207Y-45256D01*
X51278Y-45227D01*
X51332Y-45173D01*
X51362Y-45102D01*
X51362Y-47074D01*
X51287Y-47074D01*
X51216Y-47103D01*
X51162Y-47157D01*
X51132Y-47228D01*
X51132Y-47305D01*
X51161Y-47376D01*
X51215Y-47430D01*
X51249Y-47444D01*
X51216Y-47458D01*
X51162Y-47512D01*
X51132Y-47583D01*
X51132Y-47660D01*
X51161Y-47731D01*
X51215Y-47785D01*
X51286Y-47815D01*
X51363Y-47815D01*
X51434Y-47786D01*
X51488Y-47732D01*
X51518Y-47661D01*
X51518Y-47977D01*
X51489Y-47906D01*
X51435Y-47852D01*
X51364Y-47822D01*
X51287Y-47822D01*
X51216Y-47851D01*
X51162Y-47905D01*
X51132Y-47976D01*
X51132Y-48053D01*
X51161Y-48124D01*
X51215Y-48178D01*
X51286Y-48208D01*
X51363Y-48208D01*
X51434Y-48179D01*
X51488Y-48125D01*
X51518Y-48054D01*
X51518Y-48372D01*
X51489Y-48301D01*
X51435Y-48247D01*
X51364Y-48217D01*
X51287Y-48217D01*
X51216Y-48246D01*
X51162Y-48300D01*
X51132Y-48371D01*
X51132Y-48448D01*
X51161Y-48519D01*
X51215Y-48573D01*
X51286Y-48603D01*
X51363Y-48603D01*
X51434Y-48574D01*
X51488Y-48520D01*
X51518Y-48449D01*
X51518Y-48764D01*
X51489Y-48693D01*
X51435Y-48639D01*
X51364Y-48609D01*
X51287Y-48609D01*
X51216Y-48638D01*
X51162Y-48692D01*
X51132Y-48763D01*
X51132Y-48840D01*
X51161Y-48911D01*
X51215Y-48965D01*
X51286Y-48995D01*
X51363Y-48995D01*
X51434Y-48966D01*
X51488Y-48912D01*
X51518Y-48841D01*
X51518Y-49159D01*
X51489Y-49088D01*
X51435Y-49034D01*
X51364Y-49004D01*
X51287Y-49004D01*
X51216Y-49033D01*
X51162Y-49087D01*
X51132Y-49158D01*
X51132Y-49235D01*
X51161Y-49306D01*
X51215Y-49360D01*
X51286Y-49390D01*
X51363Y-49390D01*
X51434Y-49361D01*
X51488Y-49307D01*
X51518Y-49236D01*
X51518Y-49516D01*
X49054Y-49511D01*
X49054Y-45126D01*
X49054Y-45049D01*
X49025Y-44978D01*
X48971Y-44924D01*
X48900Y-44894D01*
X48823Y-44894D01*
X48752Y-44923D01*
X48703Y-44971D01*
X48656Y-44924D01*
X48585Y-44894D01*
X48508Y-44894D01*
X48437Y-44923D01*
X48388Y-44971D01*
X48372Y-44955D01*
X48372Y-41767D01*
X48372Y-41697D01*
X48345Y-41633D01*
X48296Y-41584D01*
X48232Y-41557D01*
X48162Y-41557D01*
X48098Y-41584D01*
X48049Y-41633D01*
X48022Y-41697D01*
X48022Y-41767D01*
X48049Y-41831D01*
X48098Y-41880D01*
X48162Y-41907D01*
X48232Y-41907D01*
X48296Y-41880D01*
X48345Y-41831D01*
X48372Y-41767D01*
X48372Y-44955D01*
X48356Y-44939D01*
X48356Y-42165D01*
X48356Y-42095D01*
X48329Y-42031D01*
X48280Y-41982D01*
X48216Y-41955D01*
X48146Y-41955D01*
X48082Y-41982D01*
X48033Y-42031D01*
X48006Y-42095D01*
X48006Y-42165D01*
X48031Y-42225D01*
X48025Y-42232D01*
X47998Y-42296D01*
X47998Y-42366D01*
X48025Y-42430D01*
X48074Y-42479D01*
X48138Y-42506D01*
X48208Y-42506D01*
X48272Y-42479D01*
X48321Y-42430D01*
X48348Y-42366D01*
X48348Y-42296D01*
X48322Y-42235D01*
X48329Y-42229D01*
X48356Y-42165D01*
X48356Y-44939D01*
X48341Y-44924D01*
X48329Y-44918D01*
X48329Y-42760D01*
X48329Y-42690D01*
X48302Y-42626D01*
X48253Y-42577D01*
X48189Y-42550D01*
X48119Y-42550D01*
X48055Y-42577D01*
X48006Y-42626D01*
X47979Y-42690D01*
X47979Y-42760D01*
X48006Y-42824D01*
X48055Y-42873D01*
X48119Y-42900D01*
X48189Y-42900D01*
X48253Y-42873D01*
X48302Y-42824D01*
X48329Y-42760D01*
X48329Y-44918D01*
X48270Y-44894D01*
X48193Y-44894D01*
X48122Y-44923D01*
X48068Y-44977D01*
X48038Y-45048D01*
X48038Y-45125D01*
X48067Y-45196D01*
X48121Y-45250D01*
X48192Y-45280D01*
X48269Y-45280D01*
X48340Y-45251D01*
X48388Y-45202D01*
X48436Y-45250D01*
X48507Y-45280D01*
X48584Y-45280D01*
X48655Y-45251D01*
X48703Y-45202D01*
X48751Y-45250D01*
X48822Y-45280D01*
X48899Y-45280D01*
X48970Y-45251D01*
X49024Y-45197D01*
X49054Y-45126D01*
X49054Y-49511D01*
X47972Y-49509D01*
X47972Y-44454D01*
X47999Y-44390D01*
X47999Y-44281D01*
X47972Y-44216D01*
X47972Y-44021D01*
X47999Y-43957D01*
X47999Y-43848D01*
X47972Y-43783D01*
X47972Y-43588D01*
X47999Y-43524D01*
X47999Y-43415D01*
X47972Y-43350D01*
X47972Y-41286D01*
X47976Y-41290D01*
X48040Y-41317D01*
X48110Y-41317D01*
X48174Y-41290D01*
X48223Y-41241D01*
X48250Y-41177D01*
X48250Y-41118D01*
X48300Y-41097D01*
X48349Y-41048D01*
X48376Y-40984D01*
X48376Y-40914D01*
X48376Y-39803D01*
X48376Y-39733D01*
X48372Y-39723D01*
X48372Y-39405D01*
X48372Y-39335D01*
X48345Y-39271D01*
X48296Y-39222D01*
X48232Y-39195D01*
X48162Y-39195D01*
X48098Y-39222D01*
X48049Y-39271D01*
X48022Y-39335D01*
X48022Y-39405D01*
X48049Y-39469D01*
X48098Y-39518D01*
X48162Y-39545D01*
X48232Y-39545D01*
X48296Y-39518D01*
X48345Y-39469D01*
X48372Y-39405D01*
X48372Y-39723D01*
X48349Y-39669D01*
X48300Y-39620D01*
X48236Y-39593D01*
X48166Y-39593D01*
X48102Y-39620D01*
X48053Y-39669D01*
X48026Y-39733D01*
X48026Y-39803D01*
X48047Y-39855D01*
X48037Y-39866D01*
X48010Y-39930D01*
X48010Y-40000D01*
X48037Y-40064D01*
X48086Y-40113D01*
X48150Y-40140D01*
X48220Y-40140D01*
X48284Y-40113D01*
X48333Y-40064D01*
X48360Y-40000D01*
X48360Y-39930D01*
X48338Y-39877D01*
X48349Y-39867D01*
X48376Y-39803D01*
X48376Y-40914D01*
X48356Y-40866D01*
X48356Y-40390D01*
X48356Y-40320D01*
X48329Y-40256D01*
X48280Y-40207D01*
X48216Y-40180D01*
X48146Y-40180D01*
X48082Y-40207D01*
X48033Y-40256D01*
X48006Y-40320D01*
X48006Y-40390D01*
X48033Y-40454D01*
X48082Y-40503D01*
X48146Y-40530D01*
X48216Y-40530D01*
X48280Y-40503D01*
X48329Y-40454D01*
X48356Y-40390D01*
X48356Y-40866D01*
X48349Y-40850D01*
X48328Y-40829D01*
X48348Y-40783D01*
X48348Y-40713D01*
X48321Y-40649D01*
X48272Y-40600D01*
X48208Y-40573D01*
X48138Y-40573D01*
X48074Y-40600D01*
X48025Y-40649D01*
X47998Y-40713D01*
X47998Y-40783D01*
X48025Y-40847D01*
X48045Y-40867D01*
X48026Y-40914D01*
X48026Y-40972D01*
X47976Y-40994D01*
X47972Y-40998D01*
X47972Y-38923D01*
X47980Y-38931D01*
X48044Y-38958D01*
X48114Y-38958D01*
X48178Y-38931D01*
X48227Y-38882D01*
X48254Y-38818D01*
X48254Y-38755D01*
X48292Y-38739D01*
X48341Y-38690D01*
X48368Y-38626D01*
X48368Y-38556D01*
X48347Y-38506D01*
X48369Y-38485D01*
X48396Y-38421D01*
X48396Y-38351D01*
X48369Y-38287D01*
X48320Y-38238D01*
X48256Y-38211D01*
X48186Y-38211D01*
X48122Y-38238D01*
X48073Y-38287D01*
X48046Y-38351D01*
X48046Y-38421D01*
X48066Y-38470D01*
X48045Y-38492D01*
X48018Y-38556D01*
X48018Y-38618D01*
X47980Y-38635D01*
X47972Y-38643D01*
X47972Y-35615D01*
X47999Y-35551D01*
X47999Y-35442D01*
X47972Y-35377D01*
X47972Y-35182D01*
X47999Y-35118D01*
X47999Y-35009D01*
X47972Y-34944D01*
X47972Y-34749D01*
X47999Y-34685D01*
X47999Y-34576D01*
X47972Y-34511D01*
X47972Y-30688D01*
X56314Y-30688D01*
X56370Y-30711D01*
X56479Y-30711D01*
X56534Y-30688D01*
X56747Y-30688D01*
X56803Y-30711D01*
X56912Y-30711D01*
X56967Y-30688D01*
X57180Y-30688D01*
X57236Y-30711D01*
X57345Y-30711D01*
X57400Y-30688D01*
X57614Y-30688D01*
X57670Y-30711D01*
X57779Y-30711D01*
X57834Y-30688D01*
X66005Y-30688D01*
X66005Y-39489D01*
X65994Y-39516D01*
X65994Y-39625D01*
X66005Y-39651D01*
X66005Y-39922D01*
X65994Y-39949D01*
X65994Y-40058D01*
X66005Y-40084D01*
X66005Y-40355D01*
X65994Y-40382D01*
X65994Y-40491D01*
X66005Y-40517D01*
X66005Y-40788D01*
X65994Y-40815D01*
X65994Y-40924D01*
X66005Y-40950D01*
X66005Y-49548D01*
X66005Y-49548D01*
G37*
G54D24*
X66005Y-49548D02*
X63708Y-49542D01*
X63708Y-31913D01*
X63708Y-31756D01*
X63648Y-31611D01*
X63537Y-31500D01*
X63393Y-31440D01*
X63236Y-31440D01*
X63091Y-31500D01*
X62980Y-31611D01*
X62920Y-31755D01*
X62920Y-31912D01*
X62980Y-32057D01*
X63091Y-32168D01*
X63198Y-32212D01*
X63198Y-32322D01*
X62667Y-32853D01*
X62241Y-32853D01*
X62264Y-32838D01*
X62396Y-32707D01*
X62396Y-32706D01*
X62411Y-32682D01*
X62420Y-32669D01*
X62421Y-32668D01*
X62429Y-32624D01*
X62430Y-32624D01*
X62430Y-32212D01*
X62537Y-32168D01*
X62648Y-32057D01*
X62708Y-31913D01*
X62708Y-31756D01*
X62648Y-31611D01*
X62537Y-31500D01*
X62393Y-31440D01*
X62236Y-31440D01*
X62091Y-31500D01*
X61980Y-31611D01*
X61920Y-31755D01*
X61920Y-31912D01*
X61980Y-32057D01*
X62091Y-32168D01*
X62198Y-32212D01*
X62198Y-32575D01*
X62133Y-32640D01*
X61697Y-32640D01*
X61697Y-31849D01*
X61673Y-31701D01*
X61662Y-31674D01*
X61619Y-31635D01*
X61513Y-31741D01*
X61513Y-31529D01*
X61474Y-31486D01*
X61329Y-31451D01*
X61181Y-31475D01*
X61154Y-31486D01*
X61115Y-31529D01*
X61314Y-31728D01*
X61513Y-31529D01*
X61513Y-31741D01*
X61420Y-31834D01*
X61619Y-32033D01*
X61662Y-31994D01*
X61697Y-31849D01*
X61697Y-32640D01*
X61513Y-32640D01*
X61513Y-32139D01*
X61314Y-31940D01*
X61208Y-32046D01*
X61208Y-31834D01*
X61009Y-31635D01*
X60966Y-31674D01*
X60931Y-31819D01*
X60955Y-31967D01*
X60966Y-31994D01*
X61009Y-32033D01*
X61208Y-31834D01*
X61208Y-32046D01*
X61115Y-32139D01*
X61154Y-32182D01*
X61299Y-32217D01*
X61447Y-32193D01*
X61474Y-32182D01*
X61513Y-32139D01*
X61513Y-32640D01*
X59987Y-32640D01*
X60004Y-32629D01*
X60396Y-32237D01*
X60405Y-32222D01*
X60537Y-32168D01*
X60648Y-32057D01*
X60708Y-31913D01*
X60708Y-31756D01*
X60648Y-31611D01*
X60537Y-31500D01*
X60393Y-31440D01*
X60236Y-31440D01*
X60091Y-31500D01*
X59980Y-31611D01*
X59920Y-31755D01*
X59920Y-31912D01*
X59980Y-32057D01*
X60091Y-32168D01*
X60123Y-32181D01*
X59874Y-32431D01*
X58867Y-32431D01*
X59090Y-32208D01*
X59631Y-32208D01*
X59666Y-32193D01*
X59693Y-32166D01*
X59708Y-32131D01*
X59708Y-32093D01*
X59708Y-31497D01*
X59693Y-31462D01*
X59666Y-31435D01*
X59631Y-31420D01*
X59593Y-31420D01*
X58997Y-31420D01*
X58962Y-31435D01*
X58935Y-31462D01*
X58920Y-31497D01*
X58920Y-31535D01*
X58920Y-32050D01*
X58701Y-32269D01*
X58701Y-31913D01*
X58701Y-31756D01*
X58641Y-31611D01*
X58530Y-31500D01*
X58386Y-31440D01*
X58229Y-31440D01*
X58084Y-31500D01*
X57973Y-31611D01*
X57913Y-31755D01*
X57913Y-31912D01*
X57973Y-32057D01*
X58084Y-32168D01*
X58228Y-32228D01*
X58385Y-32228D01*
X58530Y-32168D01*
X58641Y-32057D01*
X58701Y-31913D01*
X58701Y-32269D01*
X57701Y-33269D01*
X57701Y-31913D01*
X57701Y-31756D01*
X57641Y-31611D01*
X57530Y-31500D01*
X57386Y-31440D01*
X57229Y-31440D01*
X57084Y-31500D01*
X56973Y-31611D01*
X56913Y-31755D01*
X56913Y-31912D01*
X56973Y-32057D01*
X57084Y-32168D01*
X57228Y-32228D01*
X57385Y-32228D01*
X57530Y-32168D01*
X57641Y-32057D01*
X57701Y-31913D01*
X57701Y-33269D01*
X56701Y-34269D01*
X56701Y-31913D01*
X56701Y-31756D01*
X56641Y-31611D01*
X56530Y-31500D01*
X56386Y-31440D01*
X56229Y-31440D01*
X56084Y-31500D01*
X55973Y-31611D01*
X55913Y-31755D01*
X55913Y-31912D01*
X55973Y-32057D01*
X56084Y-32168D01*
X56228Y-32228D01*
X56385Y-32228D01*
X56530Y-32168D01*
X56641Y-32057D01*
X56701Y-31913D01*
X56701Y-34269D01*
X55701Y-35269D01*
X55701Y-31913D01*
X55701Y-31756D01*
X55641Y-31611D01*
X55530Y-31500D01*
X55386Y-31440D01*
X55229Y-31440D01*
X55084Y-31500D01*
X54973Y-31611D01*
X54913Y-31755D01*
X54913Y-31912D01*
X54973Y-32057D01*
X55084Y-32168D01*
X55228Y-32228D01*
X55385Y-32228D01*
X55530Y-32168D01*
X55641Y-32057D01*
X55701Y-31913D01*
X55701Y-35269D01*
X55394Y-35576D01*
X55369Y-35613D01*
X55360Y-35658D01*
X55360Y-37508D01*
X55369Y-37553D01*
X55394Y-37590D01*
X55809Y-38005D01*
X55809Y-38051D01*
X55836Y-38115D01*
X55885Y-38164D01*
X55949Y-38191D01*
X56019Y-38191D01*
X56083Y-38164D01*
X56132Y-38115D01*
X56159Y-38051D01*
X56144Y-38087D01*
X56144Y-38157D01*
X56171Y-38221D01*
X56220Y-38270D01*
X56284Y-38297D01*
X56354Y-38297D01*
X56418Y-38270D01*
X56443Y-38245D01*
X56476Y-38278D01*
X56540Y-38305D01*
X56610Y-38305D01*
X56648Y-38288D01*
X56648Y-38440D01*
X56604Y-38559D01*
X56579Y-38570D01*
X56535Y-38613D01*
X56531Y-38609D01*
X56470Y-38584D01*
X56404Y-38584D01*
X56343Y-38609D01*
X56296Y-38656D01*
X56271Y-38717D01*
X56271Y-38783D01*
X56296Y-38844D01*
X56300Y-38848D01*
X56296Y-38853D01*
X56271Y-38914D01*
X56271Y-38980D01*
X56296Y-39041D01*
X56300Y-39045D01*
X56296Y-39050D01*
X56271Y-39111D01*
X56271Y-39177D01*
X56296Y-39238D01*
X56300Y-39242D01*
X56296Y-39247D01*
X56271Y-39308D01*
X56271Y-39374D01*
X56296Y-39435D01*
X56300Y-39439D01*
X56296Y-39443D01*
X56271Y-39504D01*
X56271Y-39570D01*
X56296Y-39631D01*
X56300Y-39635D01*
X56296Y-39640D01*
X56271Y-39701D01*
X56271Y-39767D01*
X56296Y-39828D01*
X56300Y-39832D01*
X56296Y-39837D01*
X56271Y-39898D01*
X56271Y-39964D01*
X56296Y-40025D01*
X56300Y-40029D01*
X56296Y-40034D01*
X56271Y-40095D01*
X56271Y-40161D01*
X56296Y-40222D01*
X56300Y-40226D01*
X56296Y-40231D01*
X56271Y-40292D01*
X56271Y-40358D01*
X56296Y-40419D01*
X56300Y-40423D01*
X56296Y-40428D01*
X56271Y-40489D01*
X56271Y-40555D01*
X56296Y-40616D01*
X56300Y-40620D01*
X56296Y-40625D01*
X56271Y-40686D01*
X56271Y-40752D01*
X56296Y-40813D01*
X56300Y-40817D01*
X56296Y-40821D01*
X56271Y-40882D01*
X56271Y-40948D01*
X56296Y-41009D01*
X56300Y-41013D01*
X56296Y-41018D01*
X56271Y-41079D01*
X56271Y-41145D01*
X56296Y-41206D01*
X56305Y-41215D01*
X56281Y-41276D01*
X56281Y-41342D01*
X56306Y-41403D01*
X56353Y-41450D01*
X56414Y-41475D01*
X56480Y-41475D01*
X56539Y-41450D01*
X56569Y-41480D01*
X56630Y-41505D01*
X56696Y-41505D01*
X56757Y-41480D01*
X56761Y-41475D01*
X56766Y-41480D01*
X56827Y-41505D01*
X56893Y-41505D01*
X56954Y-41480D01*
X56958Y-41475D01*
X56963Y-41480D01*
X57024Y-41505D01*
X57090Y-41505D01*
X57151Y-41480D01*
X57155Y-41475D01*
X57160Y-41480D01*
X57221Y-41505D01*
X57287Y-41505D01*
X57348Y-41480D01*
X57395Y-41433D01*
X57420Y-41372D01*
X57420Y-41306D01*
X57395Y-41245D01*
X57348Y-41198D01*
X57287Y-41173D01*
X57221Y-41173D01*
X57160Y-41198D01*
X57155Y-41202D01*
X57151Y-41198D01*
X57090Y-41173D01*
X57024Y-41173D01*
X56963Y-41198D01*
X56958Y-41202D01*
X56954Y-41198D01*
X56893Y-41173D01*
X56827Y-41173D01*
X56766Y-41198D01*
X56761Y-41202D01*
X56757Y-41198D01*
X56696Y-41173D01*
X56630Y-41173D01*
X56583Y-41191D01*
X56603Y-41145D01*
X56603Y-41079D01*
X56578Y-41018D01*
X56573Y-41013D01*
X56578Y-41009D01*
X56603Y-40948D01*
X56603Y-40882D01*
X56578Y-40821D01*
X56574Y-40817D01*
X56578Y-40813D01*
X56603Y-40752D01*
X56603Y-40686D01*
X56578Y-40625D01*
X56573Y-40620D01*
X56578Y-40616D01*
X56603Y-40555D01*
X56603Y-40489D01*
X56578Y-40428D01*
X56573Y-40423D01*
X56578Y-40419D01*
X56603Y-40358D01*
X56603Y-40292D01*
X56578Y-40231D01*
X56573Y-40226D01*
X56578Y-40222D01*
X56603Y-40161D01*
X56603Y-40095D01*
X56578Y-40034D01*
X56573Y-40029D01*
X56578Y-40025D01*
X56603Y-39964D01*
X56603Y-39898D01*
X56578Y-39837D01*
X56573Y-39832D01*
X56578Y-39828D01*
X56603Y-39767D01*
X56603Y-39701D01*
X56578Y-39640D01*
X56573Y-39635D01*
X56578Y-39631D01*
X56603Y-39570D01*
X56603Y-39504D01*
X56578Y-39443D01*
X56574Y-39439D01*
X56578Y-39435D01*
X56603Y-39374D01*
X56603Y-39308D01*
X56578Y-39247D01*
X56573Y-39242D01*
X56578Y-39238D01*
X56603Y-39177D01*
X56603Y-39111D01*
X56578Y-39050D01*
X56573Y-39045D01*
X56578Y-39041D01*
X56603Y-38980D01*
X56603Y-38914D01*
X56578Y-38853D01*
X56573Y-38848D01*
X56574Y-38847D01*
X56579Y-38852D01*
X56640Y-38877D01*
X56706Y-38877D01*
X56767Y-38852D01*
X56776Y-38861D01*
X56837Y-38886D01*
X56903Y-38886D01*
X56964Y-38861D01*
X56968Y-38856D01*
X56973Y-38861D01*
X57034Y-38886D01*
X57100Y-38886D01*
X57161Y-38861D01*
X57208Y-38814D01*
X57233Y-38753D01*
X57233Y-38687D01*
X57208Y-38626D01*
X57161Y-38579D01*
X57100Y-38554D01*
X57034Y-38554D01*
X56973Y-38579D01*
X56968Y-38583D01*
X56964Y-38579D01*
X56903Y-38554D01*
X56853Y-38554D01*
X56871Y-38505D01*
X56873Y-38501D01*
X56876Y-38476D01*
X56880Y-38461D01*
X56880Y-38456D01*
X56891Y-35032D01*
X58845Y-33085D01*
X62716Y-33085D01*
X62760Y-33076D01*
X62761Y-33076D01*
X62798Y-33051D01*
X63396Y-32454D01*
X63396Y-32453D01*
X63411Y-32429D01*
X63420Y-32416D01*
X63421Y-32415D01*
X63429Y-32371D01*
X63430Y-32371D01*
X63430Y-32212D01*
X63537Y-32168D01*
X63648Y-32057D01*
X63708Y-31913D01*
X63708Y-49542D01*
X63437Y-49542D01*
X63437Y-48429D01*
X63437Y-48272D01*
X63377Y-48127D01*
X63266Y-48016D01*
X63122Y-47956D01*
X62965Y-47956D01*
X62820Y-48016D01*
X62720Y-48115D01*
X62567Y-47962D01*
X62567Y-45576D01*
X62567Y-45506D01*
X62540Y-45442D01*
X62491Y-45393D01*
X62427Y-45366D01*
X62357Y-45366D01*
X62293Y-45393D01*
X62244Y-45442D01*
X62232Y-45470D01*
X62232Y-39842D01*
X62232Y-39765D01*
X62203Y-39694D01*
X62159Y-39650D01*
X62199Y-39610D01*
X62229Y-39539D01*
X62229Y-39462D01*
X62200Y-39391D01*
X62146Y-39337D01*
X62075Y-39307D01*
X61998Y-39307D01*
X61927Y-39336D01*
X61873Y-39390D01*
X61843Y-39461D01*
X61843Y-39538D01*
X61872Y-39609D01*
X61916Y-39653D01*
X61876Y-39693D01*
X61846Y-39764D01*
X61846Y-39841D01*
X61875Y-39912D01*
X61929Y-39966D01*
X62000Y-39996D01*
X62077Y-39996D01*
X62148Y-39967D01*
X62202Y-39913D01*
X62232Y-39842D01*
X62232Y-45470D01*
X62217Y-45506D01*
X62217Y-45576D01*
X62244Y-45640D01*
X62293Y-45689D01*
X62357Y-45716D01*
X62427Y-45716D01*
X62491Y-45689D01*
X62540Y-45640D01*
X62567Y-45576D01*
X62567Y-47962D01*
X62218Y-47615D01*
X62180Y-47590D01*
X62136Y-47581D01*
X62014Y-47581D01*
X62014Y-42057D01*
X62014Y-41980D01*
X61985Y-41909D01*
X61931Y-41855D01*
X61921Y-41850D01*
X61921Y-40685D01*
X61921Y-40608D01*
X61892Y-40537D01*
X61838Y-40483D01*
X61787Y-40461D01*
X61787Y-38122D01*
X61787Y-38045D01*
X61758Y-37974D01*
X61704Y-37920D01*
X61633Y-37890D01*
X61556Y-37890D01*
X61485Y-37919D01*
X61431Y-37973D01*
X61401Y-38044D01*
X61401Y-38121D01*
X61430Y-38192D01*
X61484Y-38246D01*
X61555Y-38276D01*
X61632Y-38276D01*
X61703Y-38247D01*
X61757Y-38193D01*
X61787Y-38122D01*
X61787Y-40461D01*
X61767Y-40453D01*
X61690Y-40453D01*
X61619Y-40482D01*
X61565Y-40536D01*
X61535Y-40607D01*
X61535Y-40684D01*
X61564Y-40755D01*
X61618Y-40809D01*
X61689Y-40839D01*
X61766Y-40839D01*
X61837Y-40810D01*
X61891Y-40756D01*
X61921Y-40685D01*
X61921Y-41850D01*
X61860Y-41825D01*
X61783Y-41825D01*
X61712Y-41854D01*
X61658Y-41908D01*
X61628Y-41979D01*
X61628Y-42056D01*
X61657Y-42127D01*
X61711Y-42181D01*
X61782Y-42211D01*
X61859Y-42211D01*
X61930Y-42182D01*
X61984Y-42128D01*
X62014Y-42057D01*
X62014Y-47581D01*
X61807Y-47581D01*
X61807Y-45826D01*
X61807Y-45749D01*
X61778Y-45678D01*
X61724Y-45624D01*
X61653Y-45594D01*
X61591Y-45594D01*
X61591Y-43602D01*
X61591Y-43525D01*
X61562Y-43454D01*
X61508Y-43400D01*
X61437Y-43370D01*
X61360Y-43370D01*
X61289Y-43399D01*
X61235Y-43453D01*
X61205Y-43524D01*
X61205Y-43601D01*
X61234Y-43672D01*
X61288Y-43726D01*
X61359Y-43756D01*
X61436Y-43756D01*
X61507Y-43727D01*
X61561Y-43673D01*
X61591Y-43602D01*
X61591Y-45594D01*
X61576Y-45594D01*
X61505Y-45623D01*
X61451Y-45677D01*
X61421Y-45748D01*
X61421Y-45825D01*
X61450Y-45896D01*
X61504Y-45950D01*
X61575Y-45980D01*
X61652Y-45980D01*
X61723Y-45951D01*
X61777Y-45897D01*
X61807Y-45826D01*
X61807Y-47581D01*
X61288Y-47581D01*
X60962Y-47245D01*
X60962Y-42441D01*
X60961Y-42440D01*
X60953Y-42397D01*
X60952Y-42396D01*
X60928Y-42359D01*
X60927Y-42358D01*
X60648Y-42079D01*
X60648Y-41035D01*
X60648Y-40965D01*
X60621Y-40901D01*
X60572Y-40852D01*
X60514Y-40827D01*
X60514Y-39279D01*
X60514Y-39209D01*
X60487Y-39145D01*
X60441Y-39099D01*
X60441Y-35517D01*
X60441Y-35447D01*
X60414Y-35383D01*
X60365Y-35334D01*
X60352Y-35328D01*
X60352Y-35165D01*
X60352Y-35095D01*
X60325Y-35031D01*
X60276Y-34982D01*
X60212Y-34955D01*
X60142Y-34955D01*
X60078Y-34982D01*
X60029Y-35031D01*
X60002Y-35095D01*
X60002Y-35165D01*
X60029Y-35229D01*
X60078Y-35278D01*
X60142Y-35305D01*
X60212Y-35305D01*
X60276Y-35278D01*
X60325Y-35229D01*
X60352Y-35165D01*
X60352Y-35328D01*
X60301Y-35307D01*
X60231Y-35307D01*
X60167Y-35334D01*
X60118Y-35383D01*
X60091Y-35447D01*
X60091Y-35517D01*
X60118Y-35581D01*
X60127Y-35590D01*
X60098Y-35620D01*
X60071Y-35684D01*
X60071Y-35754D01*
X60098Y-35818D01*
X60147Y-35867D01*
X60211Y-35894D01*
X60281Y-35894D01*
X60345Y-35867D01*
X60394Y-35818D01*
X60421Y-35754D01*
X60421Y-35684D01*
X60394Y-35620D01*
X60384Y-35610D01*
X60414Y-35581D01*
X60441Y-35517D01*
X60441Y-39099D01*
X60438Y-39096D01*
X60374Y-39069D01*
X60304Y-39069D01*
X60240Y-39096D01*
X60227Y-39109D01*
X60103Y-39109D01*
X60103Y-37854D01*
X60103Y-37777D01*
X60074Y-37706D01*
X60020Y-37652D01*
X59949Y-37622D01*
X59872Y-37622D01*
X59801Y-37651D01*
X59747Y-37705D01*
X59717Y-37776D01*
X59717Y-37853D01*
X59746Y-37924D01*
X59800Y-37978D01*
X59871Y-38008D01*
X59948Y-38008D01*
X60019Y-37979D01*
X60073Y-37925D01*
X60103Y-37854D01*
X60103Y-39109D01*
X59900Y-39109D01*
X59923Y-39055D01*
X59923Y-38985D01*
X59896Y-38921D01*
X59847Y-38872D01*
X59783Y-38845D01*
X59713Y-38845D01*
X59649Y-38872D01*
X59600Y-38921D01*
X59573Y-38985D01*
X59573Y-39055D01*
X59595Y-39109D01*
X59587Y-39109D01*
X59535Y-39119D01*
X59492Y-39149D01*
X59433Y-39207D01*
X59325Y-39206D01*
X59325Y-38007D01*
X59325Y-37937D01*
X59298Y-37873D01*
X59249Y-37824D01*
X59185Y-37797D01*
X59115Y-37797D01*
X59051Y-37824D01*
X59038Y-37837D01*
X58445Y-37837D01*
X58433Y-37839D01*
X58429Y-37839D01*
X58419Y-37842D01*
X58393Y-37847D01*
X58385Y-37851D01*
X58379Y-37854D01*
X58360Y-37869D01*
X58350Y-37877D01*
X58347Y-37881D01*
X58339Y-37888D01*
X57808Y-38558D01*
X57760Y-38579D01*
X57713Y-38626D01*
X57688Y-38687D01*
X57688Y-38753D01*
X57713Y-38814D01*
X57760Y-38861D01*
X57821Y-38886D01*
X57887Y-38886D01*
X57948Y-38861D01*
X57995Y-38814D01*
X58020Y-38753D01*
X58020Y-38728D01*
X58510Y-38107D01*
X59038Y-38107D01*
X59051Y-38120D01*
X59115Y-38147D01*
X59185Y-38147D01*
X59249Y-38120D01*
X59298Y-38071D01*
X59325Y-38007D01*
X59325Y-39206D01*
X59218Y-39206D01*
X59231Y-39177D01*
X59231Y-39111D01*
X59206Y-39050D01*
X59201Y-39045D01*
X59206Y-39041D01*
X59231Y-38980D01*
X59231Y-38914D01*
X59206Y-38853D01*
X59201Y-38848D01*
X59206Y-38844D01*
X59231Y-38783D01*
X59231Y-38717D01*
X59206Y-38656D01*
X59159Y-38609D01*
X59098Y-38584D01*
X59032Y-38584D01*
X58971Y-38609D01*
X58924Y-38656D01*
X58899Y-38717D01*
X58899Y-38783D01*
X58924Y-38844D01*
X58928Y-38848D01*
X58924Y-38853D01*
X58899Y-38914D01*
X58899Y-38980D01*
X58924Y-39041D01*
X58928Y-39045D01*
X58924Y-39050D01*
X58899Y-39111D01*
X58899Y-39177D01*
X58924Y-39238D01*
X58928Y-39242D01*
X58924Y-39247D01*
X58899Y-39308D01*
X58899Y-39374D01*
X58924Y-39435D01*
X58971Y-39482D01*
X59032Y-39507D01*
X59098Y-39507D01*
X59159Y-39482D01*
X59164Y-39476D01*
X59487Y-39478D01*
X59488Y-39477D01*
X59530Y-39469D01*
X59539Y-39468D01*
X59540Y-39468D01*
X59569Y-39447D01*
X59582Y-39439D01*
X59582Y-39438D01*
X59583Y-39438D01*
X59642Y-39379D01*
X60227Y-39379D01*
X60240Y-39392D01*
X60304Y-39419D01*
X60374Y-39419D01*
X60438Y-39392D01*
X60487Y-39343D01*
X60514Y-39279D01*
X60514Y-40827D01*
X60508Y-40825D01*
X60494Y-40825D01*
X60494Y-40019D01*
X60494Y-39949D01*
X60467Y-39885D01*
X60418Y-39836D01*
X60354Y-39809D01*
X60284Y-39809D01*
X60220Y-39836D01*
X60171Y-39885D01*
X60144Y-39949D01*
X60144Y-40019D01*
X60171Y-40083D01*
X60220Y-40132D01*
X60284Y-40159D01*
X60354Y-40159D01*
X60418Y-40132D01*
X60467Y-40083D01*
X60494Y-40019D01*
X60494Y-40825D01*
X60438Y-40825D01*
X60374Y-40852D01*
X60325Y-40901D01*
X60322Y-40908D01*
X60126Y-40908D01*
X60126Y-40841D01*
X60099Y-40777D01*
X60050Y-40728D01*
X59986Y-40701D01*
X59962Y-40701D01*
X59962Y-39905D01*
X59962Y-39835D01*
X59935Y-39771D01*
X59886Y-39722D01*
X59822Y-39695D01*
X59752Y-39695D01*
X59688Y-39722D01*
X59639Y-39771D01*
X59612Y-39835D01*
X59612Y-39905D01*
X59639Y-39969D01*
X59688Y-40018D01*
X59752Y-40045D01*
X59822Y-40045D01*
X59886Y-40018D01*
X59935Y-39969D01*
X59962Y-39905D01*
X59962Y-40701D01*
X59916Y-40701D01*
X59913Y-40701D01*
X59888Y-40641D01*
X59839Y-40592D01*
X59775Y-40565D01*
X59817Y-40524D01*
X59844Y-40460D01*
X59844Y-40390D01*
X59817Y-40326D01*
X59800Y-40309D01*
X59821Y-40260D01*
X59821Y-40190D01*
X59794Y-40126D01*
X59745Y-40077D01*
X59681Y-40050D01*
X59611Y-40050D01*
X59547Y-40077D01*
X59498Y-40126D01*
X59471Y-40190D01*
X59471Y-40260D01*
X59498Y-40324D01*
X59514Y-40340D01*
X59494Y-40390D01*
X59494Y-40460D01*
X59521Y-40524D01*
X59570Y-40573D01*
X59633Y-40599D01*
X59592Y-40641D01*
X59565Y-40705D01*
X59565Y-40775D01*
X59577Y-40805D01*
X59561Y-40793D01*
X59556Y-40792D01*
X59553Y-40790D01*
X59534Y-40787D01*
X59509Y-40783D01*
X59219Y-40781D01*
X59231Y-40752D01*
X59231Y-40686D01*
X59206Y-40625D01*
X59201Y-40620D01*
X59206Y-40616D01*
X59231Y-40555D01*
X59231Y-40489D01*
X59206Y-40428D01*
X59201Y-40423D01*
X59206Y-40419D01*
X59231Y-40358D01*
X59231Y-40292D01*
X59206Y-40231D01*
X59196Y-40221D01*
X59221Y-40161D01*
X59221Y-40095D01*
X59196Y-40034D01*
X59206Y-40025D01*
X59231Y-39964D01*
X59231Y-39898D01*
X59206Y-39837D01*
X59201Y-39832D01*
X59206Y-39828D01*
X59231Y-39767D01*
X59231Y-39701D01*
X59206Y-39640D01*
X59159Y-39593D01*
X59098Y-39568D01*
X59032Y-39568D01*
X58971Y-39593D01*
X58924Y-39640D01*
X58899Y-39701D01*
X58899Y-39767D01*
X58924Y-39828D01*
X58928Y-39832D01*
X58924Y-39837D01*
X58899Y-39898D01*
X58899Y-39964D01*
X58923Y-40024D01*
X58914Y-40034D01*
X58889Y-40095D01*
X58889Y-40161D01*
X58914Y-40222D01*
X58923Y-40231D01*
X58899Y-40292D01*
X58899Y-40358D01*
X58924Y-40419D01*
X58928Y-40423D01*
X58924Y-40428D01*
X58899Y-40489D01*
X58899Y-40555D01*
X58924Y-40616D01*
X58928Y-40620D01*
X58924Y-40625D01*
X58899Y-40686D01*
X58899Y-40752D01*
X58924Y-40813D01*
X58928Y-40817D01*
X58924Y-40821D01*
X58899Y-40882D01*
X58899Y-40948D01*
X58924Y-41009D01*
X58933Y-41018D01*
X58909Y-41079D01*
X58909Y-41145D01*
X58933Y-41205D01*
X58924Y-41215D01*
X58899Y-41276D01*
X58899Y-41342D01*
X58924Y-41403D01*
X58971Y-41450D01*
X59032Y-41475D01*
X59098Y-41475D01*
X59159Y-41450D01*
X59206Y-41403D01*
X59231Y-41342D01*
X59231Y-41276D01*
X59219Y-41247D01*
X59330Y-41248D01*
X59620Y-41533D01*
X59663Y-41562D01*
X59664Y-41563D01*
X59685Y-41566D01*
X59715Y-41572D01*
X59927Y-41572D01*
X59940Y-41585D01*
X60004Y-41612D01*
X60074Y-41612D01*
X60138Y-41585D01*
X60187Y-41536D01*
X60214Y-41472D01*
X60214Y-41402D01*
X60187Y-41338D01*
X60168Y-41319D01*
X60178Y-41310D01*
X60205Y-41246D01*
X60205Y-41178D01*
X60348Y-41178D01*
X60354Y-41178D01*
X60378Y-41173D01*
X60400Y-41170D01*
X60404Y-41168D01*
X60406Y-41168D01*
X60406Y-41167D01*
X60414Y-41164D01*
X60438Y-41175D01*
X60508Y-41175D01*
X60572Y-41148D01*
X60621Y-41099D01*
X60648Y-41035D01*
X60648Y-42079D01*
X60565Y-41996D01*
X60564Y-41995D01*
X60527Y-41970D01*
X60490Y-41962D01*
X60483Y-41961D01*
X59413Y-41952D01*
X59393Y-41932D01*
X59420Y-41906D01*
X59447Y-41842D01*
X59447Y-41772D01*
X59420Y-41708D01*
X59371Y-41659D01*
X59307Y-41632D01*
X59237Y-41632D01*
X59173Y-41659D01*
X59124Y-41708D01*
X59097Y-41772D01*
X59097Y-41842D01*
X59124Y-41906D01*
X59159Y-41941D01*
X59133Y-41968D01*
X59106Y-42032D01*
X59106Y-42102D01*
X59121Y-42138D01*
X59056Y-42138D01*
X58915Y-41986D01*
X58915Y-41934D01*
X58888Y-41870D01*
X58839Y-41821D01*
X58775Y-41794D01*
X58705Y-41794D01*
X58641Y-41821D01*
X58636Y-41826D01*
X58635Y-41825D01*
X58571Y-41798D01*
X58513Y-41798D01*
X58514Y-41485D01*
X58529Y-41480D01*
X58576Y-41433D01*
X58601Y-41372D01*
X58601Y-41306D01*
X58576Y-41245D01*
X58529Y-41198D01*
X58468Y-41173D01*
X58402Y-41173D01*
X58341Y-41198D01*
X58336Y-41202D01*
X58332Y-41198D01*
X58271Y-41173D01*
X58205Y-41173D01*
X58144Y-41198D01*
X58097Y-41245D01*
X58072Y-41306D01*
X58072Y-41372D01*
X58097Y-41433D01*
X58144Y-41480D01*
X58205Y-41505D01*
X58271Y-41505D01*
X58282Y-41500D01*
X58280Y-42106D01*
X58289Y-42151D01*
X58314Y-42188D01*
X58677Y-42551D01*
X58678Y-42552D01*
X58715Y-42576D01*
X58716Y-42577D01*
X58759Y-42585D01*
X58760Y-42586D01*
X59966Y-42586D01*
X59961Y-42599D01*
X59961Y-42676D01*
X59990Y-42747D01*
X60016Y-42773D01*
X60004Y-42786D01*
X58489Y-42786D01*
X58437Y-42796D01*
X58393Y-42826D01*
X58266Y-42953D01*
X58226Y-42953D01*
X58155Y-42982D01*
X58125Y-43011D01*
X57756Y-43013D01*
X57640Y-43013D01*
X57640Y-41972D01*
X57640Y-41902D01*
X57613Y-41838D01*
X57564Y-41789D01*
X57500Y-41762D01*
X57430Y-41762D01*
X57366Y-41789D01*
X57317Y-41838D01*
X57290Y-41902D01*
X57290Y-41917D01*
X57240Y-41896D01*
X57170Y-41896D01*
X57106Y-41923D01*
X57087Y-41942D01*
X57056Y-41911D01*
X56992Y-41884D01*
X56922Y-41884D01*
X56858Y-41911D01*
X56809Y-41960D01*
X56782Y-42024D01*
X56782Y-42094D01*
X56809Y-42158D01*
X56858Y-42207D01*
X56922Y-42234D01*
X56992Y-42234D01*
X57056Y-42207D01*
X57075Y-42188D01*
X57106Y-42219D01*
X57170Y-42246D01*
X57240Y-42246D01*
X57304Y-42219D01*
X57353Y-42170D01*
X57380Y-42106D01*
X57380Y-42090D01*
X57430Y-42112D01*
X57500Y-42112D01*
X57564Y-42085D01*
X57613Y-42036D01*
X57640Y-41972D01*
X57640Y-43013D01*
X57343Y-43014D01*
X57084Y-42755D01*
X57084Y-42730D01*
X57097Y-42717D01*
X57124Y-42653D01*
X57124Y-42583D01*
X57097Y-42519D01*
X57048Y-42470D01*
X56984Y-42443D01*
X56914Y-42443D01*
X56850Y-42470D01*
X56801Y-42519D01*
X56774Y-42583D01*
X56774Y-42653D01*
X56801Y-42717D01*
X56814Y-42730D01*
X56814Y-42811D01*
X56824Y-42863D01*
X56854Y-42906D01*
X57192Y-43245D01*
X57193Y-43245D01*
X57236Y-43275D01*
X57288Y-43285D01*
X57288Y-43284D01*
X57621Y-43283D01*
X57621Y-43311D01*
X57593Y-43339D01*
X57563Y-43410D01*
X57563Y-43487D01*
X57592Y-43558D01*
X57646Y-43612D01*
X57717Y-43642D01*
X57794Y-43642D01*
X57865Y-43613D01*
X57919Y-43559D01*
X57949Y-43488D01*
X57949Y-43411D01*
X57920Y-43340D01*
X57891Y-43311D01*
X57891Y-43282D01*
X58126Y-43281D01*
X58154Y-43309D01*
X58225Y-43339D01*
X58302Y-43339D01*
X58373Y-43310D01*
X58427Y-43256D01*
X58457Y-43185D01*
X58457Y-43143D01*
X58544Y-43056D01*
X60004Y-43056D01*
X60032Y-43084D01*
X60103Y-43114D01*
X60180Y-43114D01*
X60251Y-43085D01*
X60258Y-43078D01*
X60258Y-43626D01*
X60056Y-43828D01*
X60031Y-43865D01*
X60022Y-43910D01*
X60022Y-47192D01*
X59278Y-47936D01*
X59169Y-47936D01*
X59169Y-46811D01*
X59169Y-46734D01*
X59140Y-46663D01*
X59086Y-46609D01*
X59015Y-46579D01*
X58938Y-46579D01*
X58867Y-46608D01*
X58813Y-46662D01*
X58783Y-46733D01*
X58783Y-46810D01*
X58812Y-46881D01*
X58866Y-46935D01*
X58937Y-46965D01*
X59014Y-46965D01*
X59085Y-46936D01*
X59139Y-46882D01*
X59169Y-46811D01*
X59169Y-47936D01*
X58726Y-47936D01*
X58691Y-47951D01*
X58664Y-47978D01*
X58649Y-48013D01*
X58649Y-48051D01*
X58649Y-48647D01*
X58664Y-48682D01*
X58691Y-48709D01*
X58726Y-48724D01*
X58764Y-48724D01*
X59360Y-48724D01*
X59395Y-48709D01*
X59422Y-48682D01*
X59437Y-48647D01*
X59437Y-48609D01*
X59437Y-48105D01*
X60160Y-47382D01*
X60160Y-47923D01*
X60125Y-47957D01*
X60122Y-47956D01*
X59965Y-47956D01*
X59820Y-48016D01*
X59709Y-48127D01*
X59649Y-48271D01*
X59649Y-48428D01*
X59709Y-48573D01*
X59820Y-48684D01*
X59964Y-48744D01*
X60121Y-48744D01*
X60266Y-48684D01*
X60377Y-48573D01*
X60437Y-48429D01*
X60437Y-48272D01*
X60377Y-48127D01*
X60330Y-48080D01*
X60357Y-48055D01*
X60357Y-48054D01*
X60358Y-48054D01*
X60370Y-48035D01*
X60382Y-48018D01*
X60382Y-48017D01*
X60383Y-48016D01*
X60391Y-47974D01*
X60392Y-47972D01*
X60392Y-44044D01*
X60574Y-43862D01*
X60583Y-43848D01*
X60583Y-47362D01*
X60592Y-47407D01*
X60617Y-47444D01*
X61610Y-48438D01*
X61611Y-48438D01*
X61635Y-48453D01*
X61648Y-48462D01*
X61649Y-48463D01*
X61664Y-48466D01*
X61709Y-48573D01*
X61820Y-48684D01*
X61964Y-48744D01*
X62121Y-48744D01*
X62266Y-48684D01*
X62377Y-48573D01*
X62437Y-48429D01*
X62437Y-48272D01*
X62377Y-48127D01*
X62266Y-48016D01*
X62122Y-47956D01*
X61965Y-47956D01*
X61820Y-48016D01*
X61709Y-48127D01*
X61685Y-48183D01*
X61314Y-47813D01*
X62088Y-47813D01*
X62649Y-48371D01*
X62649Y-48428D01*
X62709Y-48573D01*
X62820Y-48684D01*
X62964Y-48744D01*
X63121Y-48744D01*
X63266Y-48684D01*
X63377Y-48573D01*
X63437Y-48429D01*
X63437Y-49542D01*
X57868Y-49530D01*
X57781Y-49494D01*
X57672Y-49494D01*
X57585Y-49529D01*
X57432Y-49529D01*
X57347Y-49494D01*
X57238Y-49494D01*
X57154Y-49528D01*
X56997Y-49528D01*
X56976Y-49519D01*
X56976Y-43212D01*
X56976Y-43135D01*
X56947Y-43064D01*
X56893Y-43010D01*
X56822Y-42980D01*
X56745Y-42980D01*
X56674Y-43009D01*
X56620Y-43063D01*
X56590Y-43134D01*
X56590Y-43211D01*
X56619Y-43282D01*
X56673Y-43336D01*
X56744Y-43366D01*
X56821Y-43366D01*
X56892Y-43337D01*
X56946Y-43283D01*
X56976Y-43212D01*
X56976Y-49519D01*
X56970Y-49516D01*
X56970Y-49158D01*
X56970Y-49001D01*
X56910Y-48856D01*
X56799Y-48745D01*
X56655Y-48685D01*
X56571Y-48685D01*
X56571Y-44014D01*
X56571Y-43937D01*
X56542Y-43866D01*
X56488Y-43812D01*
X56478Y-43807D01*
X56478Y-41972D01*
X56478Y-41902D01*
X56451Y-41838D01*
X56402Y-41789D01*
X56338Y-41762D01*
X56268Y-41762D01*
X56204Y-41789D01*
X56155Y-41838D01*
X56128Y-41902D01*
X56128Y-41972D01*
X56155Y-42036D01*
X56204Y-42085D01*
X56268Y-42112D01*
X56338Y-42112D01*
X56402Y-42085D01*
X56451Y-42036D01*
X56478Y-41972D01*
X56478Y-43807D01*
X56435Y-43789D01*
X56435Y-42988D01*
X56435Y-42918D01*
X56408Y-42854D01*
X56359Y-42805D01*
X56295Y-42778D01*
X56225Y-42778D01*
X56161Y-42805D01*
X56112Y-42854D01*
X56108Y-42863D01*
X56108Y-38563D01*
X56108Y-38493D01*
X56081Y-38429D01*
X56032Y-38380D01*
X55968Y-38353D01*
X55898Y-38353D01*
X55834Y-38380D01*
X55785Y-38429D01*
X55758Y-38493D01*
X55758Y-38563D01*
X55785Y-38627D01*
X55834Y-38676D01*
X55898Y-38703D01*
X55968Y-38703D01*
X56032Y-38676D01*
X56081Y-38627D01*
X56108Y-38563D01*
X56108Y-42863D01*
X56085Y-42918D01*
X56085Y-42988D01*
X56112Y-43052D01*
X56161Y-43101D01*
X56225Y-43128D01*
X56295Y-43128D01*
X56359Y-43101D01*
X56408Y-43052D01*
X56435Y-42988D01*
X56435Y-43789D01*
X56417Y-43782D01*
X56340Y-43782D01*
X56269Y-43811D01*
X56240Y-43840D01*
X56212Y-43812D01*
X56141Y-43782D01*
X56065Y-43782D01*
X56065Y-41051D01*
X56065Y-40981D01*
X56038Y-40917D01*
X56006Y-40885D01*
X56006Y-39082D01*
X56006Y-39012D01*
X55979Y-38948D01*
X55930Y-38899D01*
X55866Y-38872D01*
X55796Y-38872D01*
X55732Y-38899D01*
X55702Y-38928D01*
X55654Y-38880D01*
X55590Y-38853D01*
X55520Y-38853D01*
X55474Y-38872D01*
X55474Y-38263D01*
X55474Y-38193D01*
X55447Y-38129D01*
X55398Y-38080D01*
X55334Y-38053D01*
X55264Y-38053D01*
X55200Y-38080D01*
X55151Y-38129D01*
X55142Y-38150D01*
X55142Y-37382D01*
X55142Y-37305D01*
X55113Y-37234D01*
X55059Y-37180D01*
X54988Y-37150D01*
X54911Y-37150D01*
X54911Y-36366D01*
X54911Y-36296D01*
X54884Y-36232D01*
X54847Y-36195D01*
X54869Y-36174D01*
X54896Y-36110D01*
X54896Y-36040D01*
X54869Y-35976D01*
X54820Y-35927D01*
X54756Y-35900D01*
X54701Y-35900D01*
X54701Y-31913D01*
X54701Y-31756D01*
X54641Y-31611D01*
X54530Y-31500D01*
X54386Y-31440D01*
X54229Y-31440D01*
X54084Y-31500D01*
X53973Y-31611D01*
X53913Y-31755D01*
X53913Y-31912D01*
X53973Y-32057D01*
X54084Y-32168D01*
X54228Y-32228D01*
X54385Y-32228D01*
X54530Y-32168D01*
X54641Y-32057D01*
X54701Y-31913D01*
X54701Y-35900D01*
X54686Y-35900D01*
X54622Y-35927D01*
X54573Y-35976D01*
X54546Y-36040D01*
X54546Y-36086D01*
X54414Y-36218D01*
X54414Y-34480D01*
X54414Y-34403D01*
X54385Y-34332D01*
X54331Y-34278D01*
X54260Y-34248D01*
X54183Y-34248D01*
X54112Y-34277D01*
X54058Y-34331D01*
X54028Y-34402D01*
X54028Y-34479D01*
X54057Y-34550D01*
X54111Y-34604D01*
X54182Y-34634D01*
X54259Y-34634D01*
X54330Y-34605D01*
X54384Y-34551D01*
X54414Y-34480D01*
X54414Y-36218D01*
X54371Y-36261D01*
X54346Y-36298D01*
X54337Y-36343D01*
X54337Y-37188D01*
X54305Y-37220D01*
X54278Y-37284D01*
X54278Y-37354D01*
X54305Y-37418D01*
X54354Y-37467D01*
X54418Y-37494D01*
X54488Y-37494D01*
X54552Y-37467D01*
X54601Y-37418D01*
X54628Y-37354D01*
X54628Y-37284D01*
X54601Y-37220D01*
X54569Y-37188D01*
X54569Y-36391D01*
X54570Y-36389D01*
X54588Y-36430D01*
X54637Y-36479D01*
X54701Y-36506D01*
X54771Y-36506D01*
X54835Y-36479D01*
X54884Y-36430D01*
X54911Y-36366D01*
X54911Y-37150D01*
X54840Y-37179D01*
X54786Y-37233D01*
X54756Y-37304D01*
X54756Y-37381D01*
X54785Y-37452D01*
X54839Y-37506D01*
X54910Y-37536D01*
X54987Y-37536D01*
X55058Y-37507D01*
X55112Y-37453D01*
X55142Y-37382D01*
X55142Y-38150D01*
X55124Y-38193D01*
X55124Y-38263D01*
X55151Y-38327D01*
X55200Y-38376D01*
X55264Y-38403D01*
X55334Y-38403D01*
X55398Y-38376D01*
X55447Y-38327D01*
X55474Y-38263D01*
X55474Y-38872D01*
X55456Y-38880D01*
X55407Y-38929D01*
X55380Y-38993D01*
X55380Y-39063D01*
X55407Y-39127D01*
X55456Y-39176D01*
X55520Y-39203D01*
X55590Y-39203D01*
X55654Y-39176D01*
X55683Y-39146D01*
X55732Y-39195D01*
X55796Y-39222D01*
X55866Y-39222D01*
X55930Y-39195D01*
X55979Y-39146D01*
X56006Y-39082D01*
X56006Y-40885D01*
X55989Y-40868D01*
X55947Y-40850D01*
X55947Y-40267D01*
X55947Y-40197D01*
X55920Y-40133D01*
X55911Y-40124D01*
X55911Y-39866D01*
X55911Y-39796D01*
X55884Y-39732D01*
X55884Y-39480D01*
X55884Y-39410D01*
X55857Y-39346D01*
X55808Y-39297D01*
X55744Y-39270D01*
X55674Y-39270D01*
X55610Y-39297D01*
X55561Y-39346D01*
X55534Y-39410D01*
X55534Y-39480D01*
X55561Y-39544D01*
X55610Y-39593D01*
X55674Y-39620D01*
X55744Y-39620D01*
X55808Y-39593D01*
X55857Y-39544D01*
X55884Y-39480D01*
X55884Y-39732D01*
X55835Y-39683D01*
X55771Y-39656D01*
X55701Y-39656D01*
X55637Y-39683D01*
X55588Y-39732D01*
X55569Y-39777D01*
X55569Y-39673D01*
X55569Y-39603D01*
X55542Y-39539D01*
X55493Y-39490D01*
X55429Y-39463D01*
X55359Y-39463D01*
X55295Y-39490D01*
X55246Y-39539D01*
X55219Y-39603D01*
X55219Y-39673D01*
X55246Y-39737D01*
X55295Y-39786D01*
X55359Y-39813D01*
X55429Y-39813D01*
X55493Y-39786D01*
X55542Y-39737D01*
X55569Y-39673D01*
X55569Y-39777D01*
X55561Y-39796D01*
X55561Y-39866D01*
X55588Y-39930D01*
X55637Y-39979D01*
X55701Y-40006D01*
X55771Y-40006D01*
X55835Y-39979D01*
X55884Y-39930D01*
X55911Y-39866D01*
X55911Y-40124D01*
X55871Y-40084D01*
X55807Y-40057D01*
X55737Y-40057D01*
X55673Y-40084D01*
X55624Y-40133D01*
X55597Y-40197D01*
X55597Y-40267D01*
X55624Y-40331D01*
X55673Y-40380D01*
X55737Y-40407D01*
X55807Y-40407D01*
X55871Y-40380D01*
X55920Y-40331D01*
X55947Y-40267D01*
X55947Y-40850D01*
X55925Y-40841D01*
X55876Y-40841D01*
X55876Y-40653D01*
X55876Y-40583D01*
X55849Y-40519D01*
X55800Y-40470D01*
X55736Y-40443D01*
X55666Y-40443D01*
X55602Y-40470D01*
X55553Y-40519D01*
X55526Y-40583D01*
X55526Y-40653D01*
X55553Y-40717D01*
X55602Y-40766D01*
X55666Y-40793D01*
X55736Y-40793D01*
X55800Y-40766D01*
X55849Y-40717D01*
X55876Y-40653D01*
X55876Y-40841D01*
X55855Y-40841D01*
X55791Y-40868D01*
X55742Y-40917D01*
X55715Y-40981D01*
X55715Y-41051D01*
X55742Y-41115D01*
X55791Y-41164D01*
X55855Y-41191D01*
X55925Y-41191D01*
X55989Y-41164D01*
X56038Y-41115D01*
X56065Y-41051D01*
X56065Y-43782D01*
X56064Y-43782D01*
X55993Y-43811D01*
X55990Y-43814D01*
X55990Y-41441D01*
X55990Y-41371D01*
X55963Y-41307D01*
X55914Y-41258D01*
X55850Y-41231D01*
X55780Y-41231D01*
X55716Y-41258D01*
X55667Y-41307D01*
X55640Y-41371D01*
X55640Y-41441D01*
X55667Y-41505D01*
X55716Y-41554D01*
X55780Y-41581D01*
X55850Y-41581D01*
X55914Y-41554D01*
X55963Y-41505D01*
X55990Y-41441D01*
X55990Y-43814D01*
X55941Y-43863D01*
X55941Y-43551D01*
X55941Y-43474D01*
X55912Y-43403D01*
X55880Y-43371D01*
X55880Y-41874D01*
X55880Y-41804D01*
X55853Y-41740D01*
X55804Y-41691D01*
X55740Y-41664D01*
X55670Y-41664D01*
X55606Y-41691D01*
X55571Y-41725D01*
X55544Y-41698D01*
X55541Y-41696D01*
X55541Y-40854D01*
X55541Y-40784D01*
X55514Y-40720D01*
X55478Y-40684D01*
X55478Y-40067D01*
X55478Y-39997D01*
X55451Y-39933D01*
X55402Y-39884D01*
X55338Y-39857D01*
X55268Y-39857D01*
X55204Y-39884D01*
X55155Y-39933D01*
X55128Y-39997D01*
X55128Y-40067D01*
X55155Y-40131D01*
X55204Y-40180D01*
X55268Y-40207D01*
X55338Y-40207D01*
X55402Y-40180D01*
X55451Y-40131D01*
X55478Y-40067D01*
X55478Y-40684D01*
X55465Y-40671D01*
X55463Y-40670D01*
X55463Y-40456D01*
X55463Y-40386D01*
X55436Y-40322D01*
X55387Y-40273D01*
X55323Y-40246D01*
X55253Y-40246D01*
X55189Y-40273D01*
X55140Y-40322D01*
X55113Y-40386D01*
X55113Y-40456D01*
X55140Y-40520D01*
X55189Y-40569D01*
X55253Y-40596D01*
X55323Y-40596D01*
X55387Y-40569D01*
X55436Y-40520D01*
X55463Y-40456D01*
X55463Y-40670D01*
X55401Y-40644D01*
X55331Y-40644D01*
X55267Y-40671D01*
X55218Y-40720D01*
X55191Y-40784D01*
X55191Y-40854D01*
X55218Y-40918D01*
X55267Y-40967D01*
X55331Y-40994D01*
X55401Y-40994D01*
X55465Y-40967D01*
X55514Y-40918D01*
X55541Y-40854D01*
X55541Y-41696D01*
X55480Y-41671D01*
X55435Y-41671D01*
X55435Y-41244D01*
X55435Y-41174D01*
X55408Y-41110D01*
X55359Y-41061D01*
X55295Y-41034D01*
X55225Y-41034D01*
X55161Y-41061D01*
X55112Y-41110D01*
X55085Y-41174D01*
X55085Y-41244D01*
X55112Y-41308D01*
X55161Y-41357D01*
X55225Y-41384D01*
X55295Y-41384D01*
X55359Y-41357D01*
X55408Y-41308D01*
X55435Y-41244D01*
X55435Y-41671D01*
X55410Y-41671D01*
X55346Y-41698D01*
X55297Y-41747D01*
X55270Y-41811D01*
X55270Y-41881D01*
X55297Y-41945D01*
X55346Y-41994D01*
X55410Y-42021D01*
X55480Y-42021D01*
X55544Y-41994D01*
X55578Y-41959D01*
X55606Y-41987D01*
X55670Y-42014D01*
X55740Y-42014D01*
X55804Y-41987D01*
X55853Y-41938D01*
X55880Y-41874D01*
X55880Y-43371D01*
X55858Y-43349D01*
X55787Y-43319D01*
X55710Y-43319D01*
X55639Y-43348D01*
X55628Y-43359D01*
X55628Y-43102D01*
X55628Y-43032D01*
X55601Y-42968D01*
X55552Y-42919D01*
X55488Y-42892D01*
X55418Y-42892D01*
X55354Y-42919D01*
X55339Y-42934D01*
X55324Y-42919D01*
X55260Y-42892D01*
X55190Y-42892D01*
X55126Y-42919D01*
X55106Y-42938D01*
X55083Y-42915D01*
X55019Y-42888D01*
X54949Y-42888D01*
X54885Y-42915D01*
X54856Y-42943D01*
X54820Y-42907D01*
X54756Y-42880D01*
X54686Y-42880D01*
X54622Y-42907D01*
X54573Y-42956D01*
X54546Y-43020D01*
X54546Y-43090D01*
X54573Y-43154D01*
X54622Y-43203D01*
X54686Y-43230D01*
X54756Y-43230D01*
X54820Y-43203D01*
X54848Y-43174D01*
X54885Y-43211D01*
X54949Y-43238D01*
X55019Y-43238D01*
X55083Y-43211D01*
X55102Y-43191D01*
X55126Y-43215D01*
X55190Y-43242D01*
X55260Y-43242D01*
X55324Y-43215D01*
X55339Y-43200D01*
X55354Y-43215D01*
X55418Y-43242D01*
X55488Y-43242D01*
X55552Y-43215D01*
X55601Y-43166D01*
X55628Y-43102D01*
X55628Y-43359D01*
X55585Y-43402D01*
X55555Y-43473D01*
X55555Y-43550D01*
X55584Y-43621D01*
X55638Y-43675D01*
X55709Y-43705D01*
X55786Y-43705D01*
X55857Y-43676D01*
X55911Y-43622D01*
X55941Y-43551D01*
X55941Y-43863D01*
X55939Y-43865D01*
X55909Y-43936D01*
X55909Y-44013D01*
X55938Y-44084D01*
X55992Y-44138D01*
X56063Y-44168D01*
X56140Y-44168D01*
X56211Y-44139D01*
X56240Y-44110D01*
X56268Y-44138D01*
X56339Y-44168D01*
X56416Y-44168D01*
X56487Y-44139D01*
X56541Y-44085D01*
X56571Y-44014D01*
X56571Y-48685D01*
X56498Y-48685D01*
X56353Y-48745D01*
X56242Y-48856D01*
X56182Y-49000D01*
X56182Y-49157D01*
X56242Y-49302D01*
X56353Y-49413D01*
X56497Y-49473D01*
X56654Y-49473D01*
X56799Y-49413D01*
X56910Y-49302D01*
X56970Y-49158D01*
X56970Y-49516D01*
X56914Y-49494D01*
X56805Y-49494D01*
X56723Y-49527D01*
X56561Y-49527D01*
X56481Y-49494D01*
X56372Y-49494D01*
X56292Y-49526D01*
X55410Y-49524D01*
X55410Y-45027D01*
X55410Y-44950D01*
X55381Y-44879D01*
X55327Y-44825D01*
X55256Y-44795D01*
X55179Y-44795D01*
X55108Y-44824D01*
X55054Y-44878D01*
X55024Y-44949D01*
X55024Y-45026D01*
X55047Y-45083D01*
X54994Y-45083D01*
X54923Y-45112D01*
X54869Y-45166D01*
X54839Y-45237D01*
X54839Y-45314D01*
X54868Y-45385D01*
X54922Y-45439D01*
X54993Y-45469D01*
X55070Y-45469D01*
X55141Y-45440D01*
X55195Y-45386D01*
X55225Y-45315D01*
X55225Y-45238D01*
X55201Y-45181D01*
X55255Y-45181D01*
X55326Y-45152D01*
X55380Y-45098D01*
X55410Y-45027D01*
X55410Y-49524D01*
X54081Y-49521D01*
X54081Y-34878D01*
X54081Y-34808D01*
X54054Y-34744D01*
X54005Y-34695D01*
X53941Y-34668D01*
X53871Y-34668D01*
X53807Y-34695D01*
X53794Y-34708D01*
X53418Y-34708D01*
X53214Y-34504D01*
X53171Y-34474D01*
X53119Y-34464D01*
X52171Y-34464D01*
X52171Y-31791D01*
X52171Y-31643D01*
X52114Y-31506D01*
X52010Y-31402D01*
X51873Y-31345D01*
X51725Y-31345D01*
X51588Y-31402D01*
X51484Y-31506D01*
X51427Y-31643D01*
X51427Y-31791D01*
X51484Y-31928D01*
X51588Y-32032D01*
X51725Y-32089D01*
X51873Y-32089D01*
X52010Y-32032D01*
X52114Y-31928D01*
X52171Y-31791D01*
X52171Y-34464D01*
X51362Y-34464D01*
X51362Y-34283D01*
X51362Y-34206D01*
X51333Y-34135D01*
X51279Y-34081D01*
X51208Y-34051D01*
X51131Y-34051D01*
X51060Y-34080D01*
X51006Y-34134D01*
X50976Y-34205D01*
X50976Y-34282D01*
X51005Y-34353D01*
X51059Y-34407D01*
X51130Y-34437D01*
X51207Y-34437D01*
X51278Y-34408D01*
X51332Y-34354D01*
X51362Y-34283D01*
X51362Y-34464D01*
X50491Y-34464D01*
X50439Y-34474D01*
X50395Y-34504D01*
X49258Y-35641D01*
X49122Y-35641D01*
X49070Y-35651D01*
X49026Y-35681D01*
X48767Y-35941D01*
X48737Y-35984D01*
X48727Y-36036D01*
X48727Y-37112D01*
X48368Y-37554D01*
X48368Y-37240D01*
X48368Y-37170D01*
X48341Y-37106D01*
X48292Y-37057D01*
X48228Y-37030D01*
X48158Y-37030D01*
X48094Y-37057D01*
X48045Y-37106D01*
X48018Y-37170D01*
X48018Y-37240D01*
X48036Y-37283D01*
X48017Y-37303D01*
X47990Y-37367D01*
X47990Y-37437D01*
X48017Y-37501D01*
X48066Y-37550D01*
X48130Y-37577D01*
X48200Y-37577D01*
X48264Y-37550D01*
X48313Y-37501D01*
X48340Y-37437D01*
X48340Y-37367D01*
X48321Y-37323D01*
X48341Y-37304D01*
X48368Y-37240D01*
X48368Y-37554D01*
X48161Y-37809D01*
X48158Y-37809D01*
X48094Y-37836D01*
X48045Y-37885D01*
X48018Y-37949D01*
X48018Y-38019D01*
X48045Y-38083D01*
X48094Y-38132D01*
X48158Y-38159D01*
X48228Y-38159D01*
X48292Y-38132D01*
X48341Y-38083D01*
X48368Y-38019D01*
X48368Y-37982D01*
X48957Y-37257D01*
X48966Y-37247D01*
X48973Y-37233D01*
X48987Y-37214D01*
X48988Y-37205D01*
X48991Y-37201D01*
X48991Y-37188D01*
X48997Y-37162D01*
X48997Y-37124D01*
X49016Y-37143D01*
X49016Y-42593D01*
X49017Y-42600D01*
X49017Y-42609D01*
X49022Y-42622D01*
X49025Y-42637D01*
X49030Y-42645D01*
X49033Y-42652D01*
X49041Y-42661D01*
X49050Y-42675D01*
X49055Y-42678D01*
X49062Y-42686D01*
X49390Y-42932D01*
X49390Y-42953D01*
X49417Y-43017D01*
X49466Y-43066D01*
X49530Y-43093D01*
X49600Y-43093D01*
X49664Y-43066D01*
X49713Y-43017D01*
X49740Y-42953D01*
X49740Y-42883D01*
X49713Y-42819D01*
X49664Y-42770D01*
X49640Y-42759D01*
X49666Y-42734D01*
X50370Y-42734D01*
X50414Y-42725D01*
X50415Y-42725D01*
X50452Y-42700D01*
X51993Y-41159D01*
X52334Y-41159D01*
X52366Y-41191D01*
X52430Y-41218D01*
X52500Y-41218D01*
X52564Y-41191D01*
X52613Y-41142D01*
X52640Y-41078D01*
X52640Y-41008D01*
X52613Y-40944D01*
X52564Y-40895D01*
X52500Y-40868D01*
X52451Y-40868D01*
X52451Y-40862D01*
X52705Y-40609D01*
X52705Y-40608D01*
X52735Y-40565D01*
X52744Y-40513D01*
X52745Y-40513D01*
X52745Y-38634D01*
X53800Y-37580D01*
X53800Y-37579D01*
X53830Y-37536D01*
X53839Y-37484D01*
X53840Y-37484D01*
X53840Y-36284D01*
X53830Y-36232D01*
X53800Y-36189D01*
X53800Y-36188D01*
X53202Y-35591D01*
X53205Y-34974D01*
X53219Y-34961D01*
X53240Y-34910D01*
X53267Y-34938D01*
X53268Y-34938D01*
X53311Y-34968D01*
X53363Y-34978D01*
X53794Y-34978D01*
X53807Y-34991D01*
X53871Y-35018D01*
X53941Y-35018D01*
X54005Y-34991D01*
X54054Y-34942D01*
X54081Y-34878D01*
X54081Y-49521D01*
X53837Y-49520D01*
X53837Y-38590D01*
X53837Y-38520D01*
X53810Y-38456D01*
X53809Y-38455D01*
X53810Y-38454D01*
X53837Y-38390D01*
X53837Y-38320D01*
X53810Y-38256D01*
X53761Y-38207D01*
X53697Y-38180D01*
X53627Y-38180D01*
X53563Y-38207D01*
X53514Y-38256D01*
X53487Y-38320D01*
X53487Y-38390D01*
X53514Y-38454D01*
X53515Y-38455D01*
X53514Y-38456D01*
X53487Y-38520D01*
X53487Y-38590D01*
X53514Y-38654D01*
X53563Y-38703D01*
X53627Y-38730D01*
X53697Y-38730D01*
X53761Y-38703D01*
X53810Y-38654D01*
X53837Y-38590D01*
X53837Y-49520D01*
X53825Y-49520D01*
X53825Y-41571D01*
X53825Y-41501D01*
X53825Y-39016D01*
X53825Y-38946D01*
X53798Y-38882D01*
X53749Y-38833D01*
X53685Y-38806D01*
X53615Y-38806D01*
X53551Y-38833D01*
X53502Y-38882D01*
X53475Y-38946D01*
X53475Y-39016D01*
X53502Y-39080D01*
X53551Y-39129D01*
X53615Y-39156D01*
X53685Y-39156D01*
X53749Y-39129D01*
X53798Y-39080D01*
X53825Y-39016D01*
X53825Y-41501D01*
X53801Y-41444D01*
X53801Y-39405D01*
X53801Y-39335D01*
X53774Y-39271D01*
X53725Y-39222D01*
X53661Y-39195D01*
X53591Y-39195D01*
X53527Y-39222D01*
X53478Y-39271D01*
X53451Y-39335D01*
X53451Y-39405D01*
X53474Y-39459D01*
X53462Y-39472D01*
X53435Y-39536D01*
X53435Y-39606D01*
X53462Y-39670D01*
X53511Y-39719D01*
X53575Y-39746D01*
X53645Y-39746D01*
X53709Y-39719D01*
X53758Y-39670D01*
X53785Y-39606D01*
X53785Y-39536D01*
X53761Y-39481D01*
X53774Y-39469D01*
X53801Y-39405D01*
X53801Y-41444D01*
X53798Y-41437D01*
X53777Y-41416D01*
X53777Y-40594D01*
X53777Y-40524D01*
X53758Y-40478D01*
X53758Y-40236D01*
X53758Y-40166D01*
X53731Y-40102D01*
X53682Y-40053D01*
X53618Y-40026D01*
X53548Y-40026D01*
X53484Y-40053D01*
X53435Y-40102D01*
X53408Y-40166D01*
X53408Y-40236D01*
X53435Y-40300D01*
X53484Y-40349D01*
X53548Y-40376D01*
X53618Y-40376D01*
X53682Y-40349D01*
X53731Y-40300D01*
X53758Y-40236D01*
X53758Y-40478D01*
X53750Y-40460D01*
X53701Y-40411D01*
X53637Y-40384D01*
X53567Y-40384D01*
X53503Y-40411D01*
X53454Y-40460D01*
X53427Y-40524D01*
X53427Y-40594D01*
X53454Y-40658D01*
X53503Y-40707D01*
X53567Y-40734D01*
X53637Y-40734D01*
X53701Y-40707D01*
X53750Y-40658D01*
X53777Y-40594D01*
X53777Y-41416D01*
X53749Y-41388D01*
X53704Y-41369D01*
X53739Y-41335D01*
X53766Y-41271D01*
X53766Y-41201D01*
X53739Y-41137D01*
X53736Y-41134D01*
X53762Y-41075D01*
X53762Y-41005D01*
X53735Y-40941D01*
X53686Y-40892D01*
X53622Y-40865D01*
X53552Y-40865D01*
X53488Y-40892D01*
X53439Y-40941D01*
X53412Y-41005D01*
X53412Y-41075D01*
X53439Y-41139D01*
X53441Y-41141D01*
X53416Y-41201D01*
X53416Y-41271D01*
X53443Y-41335D01*
X53492Y-41384D01*
X53536Y-41402D01*
X53502Y-41437D01*
X53475Y-41501D01*
X53475Y-41571D01*
X53502Y-41635D01*
X53551Y-41684D01*
X53615Y-41711D01*
X53685Y-41711D01*
X53749Y-41684D01*
X53798Y-41635D01*
X53825Y-41571D01*
X53825Y-49520D01*
X53754Y-49520D01*
X53754Y-42157D01*
X53754Y-42087D01*
X53727Y-42024D01*
X53727Y-42023D01*
X53754Y-41960D01*
X53754Y-41890D01*
X53727Y-41826D01*
X53678Y-41777D01*
X53614Y-41750D01*
X53544Y-41750D01*
X53480Y-41777D01*
X53431Y-41826D01*
X53404Y-41890D01*
X53404Y-41960D01*
X53430Y-42023D01*
X53404Y-42087D01*
X53404Y-42157D01*
X53431Y-42221D01*
X53480Y-42270D01*
X53544Y-42297D01*
X53614Y-42297D01*
X53678Y-42270D01*
X53727Y-42221D01*
X53754Y-42157D01*
X53754Y-49520D01*
X53732Y-49520D01*
X53732Y-44236D01*
X53732Y-44159D01*
X53703Y-44088D01*
X53649Y-44034D01*
X53638Y-44029D01*
X53648Y-44026D01*
X53702Y-43972D01*
X53732Y-43901D01*
X53732Y-43824D01*
X53703Y-43753D01*
X53649Y-43699D01*
X53578Y-43669D01*
X53501Y-43669D01*
X53430Y-43698D01*
X53376Y-43752D01*
X53346Y-43823D01*
X53346Y-43900D01*
X53375Y-43971D01*
X53429Y-44025D01*
X53439Y-44029D01*
X53430Y-44033D01*
X53376Y-44087D01*
X53346Y-44158D01*
X53346Y-44235D01*
X53375Y-44306D01*
X53429Y-44360D01*
X53500Y-44390D01*
X53577Y-44390D01*
X53648Y-44361D01*
X53702Y-44307D01*
X53732Y-44236D01*
X53732Y-49520D01*
X53134Y-49519D01*
X53134Y-43659D01*
X53134Y-43582D01*
X53105Y-43511D01*
X53051Y-43457D01*
X52980Y-43427D01*
X52937Y-43427D01*
X52937Y-43386D01*
X52908Y-43315D01*
X52854Y-43261D01*
X52783Y-43231D01*
X52710Y-43231D01*
X52710Y-41767D01*
X52710Y-41697D01*
X52683Y-41633D01*
X52634Y-41584D01*
X52570Y-41557D01*
X52500Y-41557D01*
X52436Y-41584D01*
X52387Y-41633D01*
X52360Y-41697D01*
X52360Y-41767D01*
X52387Y-41831D01*
X52436Y-41880D01*
X52500Y-41907D01*
X52570Y-41907D01*
X52634Y-41880D01*
X52683Y-41831D01*
X52710Y-41767D01*
X52710Y-43231D01*
X52706Y-43231D01*
X52635Y-43260D01*
X52581Y-43314D01*
X52566Y-43348D01*
X52553Y-43315D01*
X52499Y-43261D01*
X52428Y-43231D01*
X52351Y-43231D01*
X52293Y-43254D01*
X52293Y-42389D01*
X52293Y-42319D01*
X52266Y-42255D01*
X52217Y-42206D01*
X52153Y-42179D01*
X52083Y-42179D01*
X52019Y-42206D01*
X52017Y-42208D01*
X52016Y-42207D01*
X51952Y-42180D01*
X51882Y-42180D01*
X51818Y-42207D01*
X51777Y-42247D01*
X51737Y-42207D01*
X51673Y-42180D01*
X51603Y-42180D01*
X51539Y-42207D01*
X51518Y-42228D01*
X51497Y-42207D01*
X51433Y-42180D01*
X51363Y-42180D01*
X51299Y-42207D01*
X51250Y-42256D01*
X51223Y-42320D01*
X51223Y-42390D01*
X51250Y-42454D01*
X51299Y-42503D01*
X51363Y-42530D01*
X51433Y-42530D01*
X51497Y-42503D01*
X51518Y-42482D01*
X51539Y-42503D01*
X51603Y-42530D01*
X51673Y-42530D01*
X51737Y-42503D01*
X51777Y-42462D01*
X51818Y-42503D01*
X51882Y-42530D01*
X51952Y-42530D01*
X52016Y-42503D01*
X52018Y-42501D01*
X52019Y-42502D01*
X52083Y-42529D01*
X52153Y-42529D01*
X52217Y-42502D01*
X52266Y-42453D01*
X52293Y-42389D01*
X52293Y-43254D01*
X52280Y-43260D01*
X52226Y-43314D01*
X52196Y-43385D01*
X52196Y-43428D01*
X52194Y-43428D01*
X52123Y-43457D01*
X52069Y-43511D01*
X52039Y-43582D01*
X52039Y-43659D01*
X52068Y-43730D01*
X52122Y-43784D01*
X52193Y-43814D01*
X52270Y-43814D01*
X52341Y-43785D01*
X52395Y-43731D01*
X52408Y-43698D01*
X52422Y-43730D01*
X52476Y-43784D01*
X52547Y-43814D01*
X52624Y-43814D01*
X52695Y-43785D01*
X52749Y-43731D01*
X52763Y-43696D01*
X52777Y-43729D01*
X52831Y-43783D01*
X52902Y-43813D01*
X52979Y-43813D01*
X53050Y-43784D01*
X53104Y-43730D01*
X53134Y-43659D01*
X53134Y-49519D01*
X53095Y-49519D01*
X53095Y-49236D01*
X53095Y-49159D01*
X53093Y-49154D01*
X53093Y-48841D01*
X53093Y-48764D01*
X53093Y-48449D01*
X53093Y-48372D01*
X53093Y-48054D01*
X53093Y-47977D01*
X53093Y-47661D01*
X53093Y-47584D01*
X53064Y-47513D01*
X53010Y-47459D01*
X52975Y-47444D01*
X53009Y-47431D01*
X53063Y-47377D01*
X53093Y-47306D01*
X53093Y-47229D01*
X53064Y-47158D01*
X53010Y-47104D01*
X53004Y-47101D01*
X53004Y-45031D01*
X53004Y-44954D01*
X52975Y-44883D01*
X52921Y-44829D01*
X52850Y-44799D01*
X52773Y-44799D01*
X52702Y-44828D01*
X52648Y-44882D01*
X52618Y-44953D01*
X52618Y-45030D01*
X52647Y-45101D01*
X52701Y-45155D01*
X52764Y-45182D01*
X52744Y-45182D01*
X52673Y-45211D01*
X52619Y-45265D01*
X52589Y-45336D01*
X52589Y-45413D01*
X52618Y-45484D01*
X52666Y-45532D01*
X52619Y-45580D01*
X52589Y-45651D01*
X52589Y-45728D01*
X52591Y-45734D01*
X52546Y-45734D01*
X52475Y-45763D01*
X52421Y-45817D01*
X52391Y-45888D01*
X52391Y-45965D01*
X52420Y-46036D01*
X52474Y-46090D01*
X52545Y-46120D01*
X52622Y-46120D01*
X52693Y-46091D01*
X52747Y-46037D01*
X52777Y-45966D01*
X52777Y-45889D01*
X52774Y-45883D01*
X52820Y-45883D01*
X52891Y-45854D01*
X52945Y-45800D01*
X52975Y-45729D01*
X52975Y-45652D01*
X52946Y-45581D01*
X52897Y-45532D01*
X52945Y-45485D01*
X52975Y-45414D01*
X52975Y-45337D01*
X52946Y-45266D01*
X52892Y-45212D01*
X52828Y-45185D01*
X52849Y-45185D01*
X52920Y-45156D01*
X52974Y-45102D01*
X53004Y-45031D01*
X53004Y-47101D01*
X52939Y-47074D01*
X52862Y-47074D01*
X52791Y-47103D01*
X52737Y-47157D01*
X52707Y-47228D01*
X52707Y-47305D01*
X52736Y-47376D01*
X52790Y-47430D01*
X52824Y-47444D01*
X52791Y-47458D01*
X52737Y-47512D01*
X52707Y-47583D01*
X52707Y-47660D01*
X52736Y-47731D01*
X52790Y-47785D01*
X52861Y-47815D01*
X52938Y-47815D01*
X53009Y-47786D01*
X53063Y-47732D01*
X53093Y-47661D01*
X53093Y-47977D01*
X53064Y-47906D01*
X53010Y-47852D01*
X52939Y-47822D01*
X52862Y-47822D01*
X52791Y-47851D01*
X52737Y-47905D01*
X52707Y-47976D01*
X52707Y-48053D01*
X52736Y-48124D01*
X52790Y-48178D01*
X52861Y-48208D01*
X52938Y-48208D01*
X53009Y-48179D01*
X53063Y-48125D01*
X53093Y-48054D01*
X53093Y-48372D01*
X53064Y-48301D01*
X53010Y-48247D01*
X52939Y-48217D01*
X52862Y-48217D01*
X52791Y-48246D01*
X52737Y-48300D01*
X52707Y-48371D01*
X52707Y-48448D01*
X52736Y-48519D01*
X52790Y-48573D01*
X52861Y-48603D01*
X52938Y-48603D01*
X53009Y-48574D01*
X53063Y-48520D01*
X53093Y-48449D01*
X53093Y-48764D01*
X53064Y-48693D01*
X53010Y-48639D01*
X52939Y-48609D01*
X52862Y-48609D01*
X52791Y-48638D01*
X52737Y-48692D01*
X52707Y-48763D01*
X52707Y-48840D01*
X52736Y-48911D01*
X52790Y-48965D01*
X52861Y-48995D01*
X52938Y-48995D01*
X53009Y-48966D01*
X53063Y-48912D01*
X53093Y-48841D01*
X53093Y-49154D01*
X53066Y-49088D01*
X53012Y-49034D01*
X52941Y-49004D01*
X52864Y-49004D01*
X52793Y-49033D01*
X52739Y-49087D01*
X52709Y-49158D01*
X52709Y-49235D01*
X52738Y-49306D01*
X52792Y-49360D01*
X52863Y-49390D01*
X52940Y-49390D01*
X53011Y-49361D01*
X53065Y-49307D01*
X53095Y-49236D01*
X53095Y-49519D01*
X52700Y-49518D01*
X52700Y-49236D01*
X52700Y-49159D01*
X52700Y-47306D01*
X52700Y-47229D01*
X52671Y-47158D01*
X52617Y-47104D01*
X52546Y-47074D01*
X52469Y-47074D01*
X52398Y-47103D01*
X52383Y-47118D01*
X52383Y-45966D01*
X52383Y-45889D01*
X52354Y-45818D01*
X52300Y-45764D01*
X52229Y-45734D01*
X52184Y-45734D01*
X52187Y-45729D01*
X52187Y-45652D01*
X52158Y-45581D01*
X52109Y-45532D01*
X52157Y-45485D01*
X52187Y-45414D01*
X52187Y-45337D01*
X52158Y-45266D01*
X52104Y-45212D01*
X52033Y-45182D01*
X51956Y-45182D01*
X51885Y-45211D01*
X51831Y-45265D01*
X51801Y-45336D01*
X51801Y-45413D01*
X51830Y-45484D01*
X51878Y-45532D01*
X51831Y-45580D01*
X51801Y-45651D01*
X51801Y-45728D01*
X51830Y-45799D01*
X51884Y-45853D01*
X51955Y-45883D01*
X51999Y-45883D01*
X51997Y-45888D01*
X51997Y-45965D01*
X52026Y-46036D01*
X52080Y-46090D01*
X52151Y-46120D01*
X52228Y-46120D01*
X52299Y-46091D01*
X52353Y-46037D01*
X52383Y-45966D01*
X52383Y-47118D01*
X52344Y-47157D01*
X52314Y-47228D01*
X52314Y-47305D01*
X52343Y-47376D01*
X52397Y-47430D01*
X52468Y-47460D01*
X52545Y-47460D01*
X52616Y-47431D01*
X52670Y-47377D01*
X52700Y-47306D01*
X52700Y-49159D01*
X52671Y-49088D01*
X52617Y-49034D01*
X52546Y-49004D01*
X52469Y-49004D01*
X52398Y-49033D01*
X52344Y-49087D01*
X52314Y-49158D01*
X52314Y-49235D01*
X52343Y-49306D01*
X52397Y-49360D01*
X52468Y-49390D01*
X52545Y-49390D01*
X52616Y-49361D01*
X52670Y-49307D01*
X52700Y-49236D01*
X52700Y-49518D01*
X52307Y-49517D01*
X52307Y-47306D01*
X52307Y-47229D01*
X52278Y-47158D01*
X52224Y-47104D01*
X52153Y-47074D01*
X52076Y-47074D01*
X52005Y-47103D01*
X51951Y-47157D01*
X51921Y-47228D01*
X51921Y-47305D01*
X51950Y-47376D01*
X52004Y-47430D01*
X52075Y-47460D01*
X52152Y-47460D01*
X52223Y-47431D01*
X52277Y-47377D01*
X52307Y-47306D01*
X52307Y-49517D01*
X52305Y-49517D01*
X52305Y-49234D01*
X52305Y-49157D01*
X52276Y-49086D01*
X52222Y-49032D01*
X52151Y-49002D01*
X52074Y-49002D01*
X52003Y-49031D01*
X51949Y-49085D01*
X51919Y-49156D01*
X51919Y-49233D01*
X51948Y-49304D01*
X52002Y-49358D01*
X52073Y-49388D01*
X52150Y-49388D01*
X52221Y-49359D01*
X52275Y-49305D01*
X52305Y-49234D01*
X52305Y-49517D01*
X51913Y-49517D01*
X51913Y-49236D01*
X51913Y-49159D01*
X51913Y-47306D01*
X51913Y-47229D01*
X51884Y-47158D01*
X51830Y-47104D01*
X51759Y-47074D01*
X51682Y-47074D01*
X51611Y-47103D01*
X51557Y-47157D01*
X51527Y-47228D01*
X51527Y-47305D01*
X51556Y-47376D01*
X51610Y-47430D01*
X51681Y-47460D01*
X51758Y-47460D01*
X51829Y-47431D01*
X51883Y-47377D01*
X51913Y-47306D01*
X51913Y-49159D01*
X51884Y-49088D01*
X51830Y-49034D01*
X51759Y-49004D01*
X51682Y-49004D01*
X51611Y-49033D01*
X51557Y-49087D01*
X51527Y-49158D01*
X51527Y-49235D01*
X51556Y-49306D01*
X51610Y-49360D01*
X51681Y-49390D01*
X51758Y-49390D01*
X51829Y-49361D01*
X51883Y-49307D01*
X51913Y-49236D01*
X51913Y-49517D01*
X51518Y-49516D01*
X51518Y-49236D01*
X51518Y-49159D01*
X51518Y-48841D01*
X51518Y-48764D01*
X51518Y-48449D01*
X51518Y-48372D01*
X51518Y-48054D01*
X51518Y-47977D01*
X51518Y-47661D01*
X51518Y-47584D01*
X51489Y-47513D01*
X51435Y-47459D01*
X51400Y-47444D01*
X51434Y-47431D01*
X51488Y-47377D01*
X51518Y-47306D01*
X51518Y-47229D01*
X51489Y-47158D01*
X51435Y-47104D01*
X51364Y-47074D01*
X51362Y-47074D01*
X51362Y-45102D01*
X51362Y-45025D01*
X51333Y-44954D01*
X51324Y-44945D01*
X51332Y-44937D01*
X51362Y-44866D01*
X51362Y-44789D01*
X51333Y-44718D01*
X51279Y-44664D01*
X51208Y-44634D01*
X51131Y-44634D01*
X51060Y-44663D01*
X51006Y-44717D01*
X50976Y-44788D01*
X50976Y-44865D01*
X51005Y-44936D01*
X51014Y-44945D01*
X51006Y-44953D01*
X50976Y-45024D01*
X50976Y-45101D01*
X51005Y-45172D01*
X51059Y-45226D01*
X51130Y-45256D01*
X51207Y-45256D01*
X51278Y-45227D01*
X51332Y-45173D01*
X51362Y-45102D01*
X51362Y-47074D01*
X51287Y-47074D01*
X51216Y-47103D01*
X51162Y-47157D01*
X51132Y-47228D01*
X51132Y-47305D01*
X51161Y-47376D01*
X51215Y-47430D01*
X51249Y-47444D01*
X51216Y-47458D01*
X51162Y-47512D01*
X51132Y-47583D01*
X51132Y-47660D01*
X51161Y-47731D01*
X51215Y-47785D01*
X51286Y-47815D01*
X51363Y-47815D01*
X51434Y-47786D01*
X51488Y-47732D01*
X51518Y-47661D01*
X51518Y-47977D01*
X51489Y-47906D01*
X51435Y-47852D01*
X51364Y-47822D01*
X51287Y-47822D01*
X51216Y-47851D01*
X51162Y-47905D01*
X51132Y-47976D01*
X51132Y-48053D01*
X51161Y-48124D01*
X51215Y-48178D01*
X51286Y-48208D01*
X51363Y-48208D01*
X51434Y-48179D01*
X51488Y-48125D01*
X51518Y-48054D01*
X51518Y-48372D01*
X51489Y-48301D01*
X51435Y-48247D01*
X51364Y-48217D01*
X51287Y-48217D01*
X51216Y-48246D01*
X51162Y-48300D01*
X51132Y-48371D01*
X51132Y-48448D01*
X51161Y-48519D01*
X51215Y-48573D01*
X51286Y-48603D01*
X51363Y-48603D01*
X51434Y-48574D01*
X51488Y-48520D01*
X51518Y-48449D01*
X51518Y-48764D01*
X51489Y-48693D01*
X51435Y-48639D01*
X51364Y-48609D01*
X51287Y-48609D01*
X51216Y-48638D01*
X51162Y-48692D01*
X51132Y-48763D01*
X51132Y-48840D01*
X51161Y-48911D01*
X51215Y-48965D01*
X51286Y-48995D01*
X51363Y-48995D01*
X51434Y-48966D01*
X51488Y-48912D01*
X51518Y-48841D01*
X51518Y-49159D01*
X51489Y-49088D01*
X51435Y-49034D01*
X51364Y-49004D01*
X51287Y-49004D01*
X51216Y-49033D01*
X51162Y-49087D01*
X51132Y-49158D01*
X51132Y-49235D01*
X51161Y-49306D01*
X51215Y-49360D01*
X51286Y-49390D01*
X51363Y-49390D01*
X51434Y-49361D01*
X51488Y-49307D01*
X51518Y-49236D01*
X51518Y-49516D01*
X49054Y-49511D01*
X49054Y-45126D01*
X49054Y-45049D01*
X49025Y-44978D01*
X48971Y-44924D01*
X48900Y-44894D01*
X48823Y-44894D01*
X48752Y-44923D01*
X48703Y-44971D01*
X48656Y-44924D01*
X48585Y-44894D01*
X48508Y-44894D01*
X48437Y-44923D01*
X48388Y-44971D01*
X48372Y-44955D01*
X48372Y-41767D01*
X48372Y-41697D01*
X48345Y-41633D01*
X48296Y-41584D01*
X48232Y-41557D01*
X48162Y-41557D01*
X48098Y-41584D01*
X48049Y-41633D01*
X48022Y-41697D01*
X48022Y-41767D01*
X48049Y-41831D01*
X48098Y-41880D01*
X48162Y-41907D01*
X48232Y-41907D01*
X48296Y-41880D01*
X48345Y-41831D01*
X48372Y-41767D01*
X48372Y-44955D01*
X48356Y-44939D01*
X48356Y-42165D01*
X48356Y-42095D01*
X48329Y-42031D01*
X48280Y-41982D01*
X48216Y-41955D01*
X48146Y-41955D01*
X48082Y-41982D01*
X48033Y-42031D01*
X48006Y-42095D01*
X48006Y-42165D01*
X48031Y-42225D01*
X48025Y-42232D01*
X47998Y-42296D01*
X47998Y-42366D01*
X48025Y-42430D01*
X48074Y-42479D01*
X48138Y-42506D01*
X48208Y-42506D01*
X48272Y-42479D01*
X48321Y-42430D01*
X48348Y-42366D01*
X48348Y-42296D01*
X48322Y-42235D01*
X48329Y-42229D01*
X48356Y-42165D01*
X48356Y-44939D01*
X48341Y-44924D01*
X48329Y-44918D01*
X48329Y-42760D01*
X48329Y-42690D01*
X48302Y-42626D01*
X48253Y-42577D01*
X48189Y-42550D01*
X48119Y-42550D01*
X48055Y-42577D01*
X48006Y-42626D01*
X47979Y-42690D01*
X47979Y-42760D01*
X48006Y-42824D01*
X48055Y-42873D01*
X48119Y-42900D01*
X48189Y-42900D01*
X48253Y-42873D01*
X48302Y-42824D01*
X48329Y-42760D01*
X48329Y-44918D01*
X48270Y-44894D01*
X48193Y-44894D01*
X48122Y-44923D01*
X48068Y-44977D01*
X48038Y-45048D01*
X48038Y-45125D01*
X48067Y-45196D01*
X48121Y-45250D01*
X48192Y-45280D01*
X48269Y-45280D01*
X48340Y-45251D01*
X48388Y-45202D01*
X48436Y-45250D01*
X48507Y-45280D01*
X48584Y-45280D01*
X48655Y-45251D01*
X48703Y-45202D01*
X48751Y-45250D01*
X48822Y-45280D01*
X48899Y-45280D01*
X48970Y-45251D01*
X49024Y-45197D01*
X49054Y-45126D01*
X49054Y-49511D01*
X47972Y-49509D01*
X47972Y-44454D01*
X47999Y-44390D01*
X47999Y-44281D01*
X47972Y-44216D01*
X47972Y-44021D01*
X47999Y-43957D01*
X47999Y-43848D01*
X47972Y-43783D01*
X47972Y-43588D01*
X47999Y-43524D01*
X47999Y-43415D01*
X47972Y-43350D01*
X47972Y-41286D01*
X47976Y-41290D01*
X48040Y-41317D01*
X48110Y-41317D01*
X48174Y-41290D01*
X48223Y-41241D01*
X48250Y-41177D01*
X48250Y-41118D01*
X48300Y-41097D01*
X48349Y-41048D01*
X48376Y-40984D01*
X48376Y-40914D01*
X48376Y-39803D01*
X48376Y-39733D01*
X48372Y-39723D01*
X48372Y-39405D01*
X48372Y-39335D01*
X48345Y-39271D01*
X48296Y-39222D01*
X48232Y-39195D01*
X48162Y-39195D01*
X48098Y-39222D01*
X48049Y-39271D01*
X48022Y-39335D01*
X48022Y-39405D01*
X48049Y-39469D01*
X48098Y-39518D01*
X48162Y-39545D01*
X48232Y-39545D01*
X48296Y-39518D01*
X48345Y-39469D01*
X48372Y-39405D01*
X48372Y-39723D01*
X48349Y-39669D01*
X48300Y-39620D01*
X48236Y-39593D01*
X48166Y-39593D01*
X48102Y-39620D01*
X48053Y-39669D01*
X48026Y-39733D01*
X48026Y-39803D01*
X48047Y-39855D01*
X48037Y-39866D01*
X48010Y-39930D01*
X48010Y-40000D01*
X48037Y-40064D01*
X48086Y-40113D01*
X48150Y-40140D01*
X48220Y-40140D01*
X48284Y-40113D01*
X48333Y-40064D01*
X48360Y-40000D01*
X48360Y-39930D01*
X48338Y-39877D01*
X48349Y-39867D01*
X48376Y-39803D01*
X48376Y-40914D01*
X48356Y-40866D01*
X48356Y-40390D01*
X48356Y-40320D01*
X48329Y-40256D01*
X48280Y-40207D01*
X48216Y-40180D01*
X48146Y-40180D01*
X48082Y-40207D01*
X48033Y-40256D01*
X48006Y-40320D01*
X48006Y-40390D01*
X48033Y-40454D01*
X48082Y-40503D01*
X48146Y-40530D01*
X48216Y-40530D01*
X48280Y-40503D01*
X48329Y-40454D01*
X48356Y-40390D01*
X48356Y-40866D01*
X48349Y-40850D01*
X48328Y-40829D01*
X48348Y-40783D01*
X48348Y-40713D01*
X48321Y-40649D01*
X48272Y-40600D01*
X48208Y-40573D01*
X48138Y-40573D01*
X48074Y-40600D01*
X48025Y-40649D01*
X47998Y-40713D01*
X47998Y-40783D01*
X48025Y-40847D01*
X48045Y-40867D01*
X48026Y-40914D01*
X48026Y-40972D01*
X47976Y-40994D01*
X47972Y-40998D01*
X47972Y-38923D01*
X47980Y-38931D01*
X48044Y-38958D01*
X48114Y-38958D01*
X48178Y-38931D01*
X48227Y-38882D01*
X48254Y-38818D01*
X48254Y-38755D01*
X48292Y-38739D01*
X48341Y-38690D01*
X48368Y-38626D01*
X48368Y-38556D01*
X48347Y-38506D01*
X48369Y-38485D01*
X48396Y-38421D01*
X48396Y-38351D01*
X48369Y-38287D01*
X48320Y-38238D01*
X48256Y-38211D01*
X48186Y-38211D01*
X48122Y-38238D01*
X48073Y-38287D01*
X48046Y-38351D01*
X48046Y-38421D01*
X48066Y-38470D01*
X48045Y-38492D01*
X48018Y-38556D01*
X48018Y-38618D01*
X47980Y-38635D01*
X47972Y-38643D01*
X47972Y-35615D01*
X47999Y-35551D01*
X47999Y-35442D01*
X47972Y-35377D01*
X47972Y-35182D01*
X47999Y-35118D01*
X47999Y-35009D01*
X47972Y-34944D01*
X47972Y-34749D01*
X47999Y-34685D01*
X47999Y-34576D01*
X47972Y-34511D01*
X47972Y-30688D01*
X56314Y-30688D01*
X56370Y-30711D01*
X56479Y-30711D01*
X56534Y-30688D01*
X56747Y-30688D01*
X56803Y-30711D01*
X56912Y-30711D01*
X56967Y-30688D01*
X57180Y-30688D01*
X57236Y-30711D01*
X57345Y-30711D01*
X57400Y-30688D01*
X57614Y-30688D01*
X57670Y-30711D01*
X57779Y-30711D01*
X57834Y-30688D01*
X66005Y-30688D01*
X66005Y-39489D01*
X65994Y-39516D01*
X65994Y-39625D01*
X66005Y-39651D01*
X66005Y-39922D01*
X65994Y-39949D01*
X65994Y-40058D01*
X66005Y-40084D01*
X66005Y-40355D01*
X65994Y-40382D01*
X65994Y-40491D01*
X66005Y-40517D01*
X66005Y-40788D01*
X65994Y-40815D01*
X65994Y-40924D01*
X66005Y-40950D01*
X66005Y-49548D01*
M02*
