G04 (created by PCBNEW-RS274X (2012-08-04 BZR 3667)-testing) date 10/19/2012 6:39:08 PM*
%MOIN*%
G04 Gerber Fmt 3.4, Leading zero omitted, Abs format*
%FSLAX34Y34*%
G01*
G70*
G90*
G04 APERTURE LIST*
%ADD10C,0.0017*%
%ADD11C,0.0059*%
%ADD12C,0.0049*%
%ADD13C,0.0077*%
%ADD14C,0.0117*%
%ADD15C,0.005*%
%ADD16C,0.0078*%
%ADD17C,0.0039*%
G04 APERTURE END LIST*
G54D10*
G54D11*
X64777Y-37806D02*
X64777Y-37675D01*
X64383Y-37675D01*
X64777Y-37898D02*
X64383Y-37898D01*
X64665Y-37990D01*
X64383Y-38082D01*
X64777Y-38082D01*
X64759Y-38200D02*
X64777Y-38239D01*
X64777Y-38305D01*
X64759Y-38331D01*
X64740Y-38344D01*
X64702Y-38357D01*
X64665Y-38357D01*
X64627Y-38344D01*
X64609Y-38331D01*
X64590Y-38305D01*
X64571Y-38252D01*
X64552Y-38226D01*
X64534Y-38213D01*
X64496Y-38200D01*
X64459Y-38200D01*
X64421Y-38213D01*
X64402Y-38226D01*
X64383Y-38252D01*
X64383Y-38318D01*
X64402Y-38357D01*
X64383Y-38594D02*
X64383Y-38541D01*
X64402Y-38515D01*
X64421Y-38502D01*
X64477Y-38476D01*
X64552Y-38463D01*
X64702Y-38463D01*
X64740Y-38476D01*
X64759Y-38489D01*
X64777Y-38515D01*
X64777Y-38568D01*
X64759Y-38594D01*
X64740Y-38607D01*
X64702Y-38620D01*
X64609Y-38620D01*
X64571Y-38607D01*
X64552Y-38594D01*
X64534Y-38568D01*
X64534Y-38515D01*
X64552Y-38489D01*
X64571Y-38476D01*
X64609Y-38463D01*
X64383Y-38791D02*
X64383Y-38818D01*
X64402Y-38844D01*
X64421Y-38857D01*
X64459Y-38870D01*
X64534Y-38883D01*
X64627Y-38883D01*
X64702Y-38870D01*
X64740Y-38857D01*
X64759Y-38844D01*
X64777Y-38818D01*
X64777Y-38791D01*
X64759Y-38765D01*
X64740Y-38752D01*
X64702Y-38739D01*
X64627Y-38726D01*
X64534Y-38726D01*
X64459Y-38739D01*
X64421Y-38752D01*
X64402Y-38765D01*
X64383Y-38791D01*
X64383Y-39054D02*
X64383Y-39081D01*
X64402Y-39107D01*
X64421Y-39120D01*
X64459Y-39133D01*
X64534Y-39146D01*
X64627Y-39146D01*
X64702Y-39133D01*
X64740Y-39120D01*
X64759Y-39107D01*
X64777Y-39081D01*
X64777Y-39054D01*
X64759Y-39028D01*
X64740Y-39015D01*
X64702Y-39002D01*
X64627Y-38989D01*
X64534Y-38989D01*
X64459Y-39002D01*
X64421Y-39015D01*
X64402Y-39028D01*
X64383Y-39054D01*
X64421Y-39252D02*
X64402Y-39265D01*
X64383Y-39291D01*
X64383Y-39357D01*
X64402Y-39383D01*
X64421Y-39396D01*
X64459Y-39409D01*
X64496Y-39409D01*
X64552Y-39396D01*
X64777Y-39238D01*
X64777Y-39409D01*
X64515Y-39698D02*
X64515Y-39803D01*
X64777Y-39738D02*
X64440Y-39738D01*
X64402Y-39751D01*
X64383Y-39777D01*
X64383Y-39803D01*
X64777Y-39935D02*
X64759Y-39909D01*
X64740Y-39896D01*
X64702Y-39883D01*
X64590Y-39883D01*
X64552Y-39896D01*
X64534Y-39909D01*
X64515Y-39935D01*
X64515Y-39975D01*
X64534Y-40001D01*
X64552Y-40014D01*
X64590Y-40027D01*
X64702Y-40027D01*
X64740Y-40014D01*
X64759Y-40001D01*
X64777Y-39975D01*
X64777Y-39935D01*
X64777Y-40185D02*
X64759Y-40159D01*
X64740Y-40146D01*
X64702Y-40133D01*
X64590Y-40133D01*
X64552Y-40146D01*
X64534Y-40159D01*
X64515Y-40185D01*
X64515Y-40225D01*
X64534Y-40251D01*
X64552Y-40264D01*
X64590Y-40277D01*
X64702Y-40277D01*
X64740Y-40264D01*
X64759Y-40251D01*
X64777Y-40225D01*
X64777Y-40185D01*
X64515Y-40356D02*
X64515Y-40461D01*
X64383Y-40396D02*
X64721Y-40396D01*
X64759Y-40409D01*
X64777Y-40435D01*
X64777Y-40461D01*
X64515Y-40554D02*
X64909Y-40554D01*
X64534Y-40554D02*
X64515Y-40580D01*
X64515Y-40633D01*
X64534Y-40659D01*
X64552Y-40672D01*
X64590Y-40685D01*
X64702Y-40685D01*
X64740Y-40672D01*
X64759Y-40659D01*
X64777Y-40633D01*
X64777Y-40580D01*
X64759Y-40554D01*
X64777Y-40804D02*
X64515Y-40804D01*
X64590Y-40804D02*
X64552Y-40817D01*
X64534Y-40830D01*
X64515Y-40856D01*
X64515Y-40883D01*
X64777Y-40975D02*
X64515Y-40975D01*
X64383Y-40975D02*
X64402Y-40962D01*
X64421Y-40975D01*
X64402Y-40988D01*
X64383Y-40975D01*
X64421Y-40975D01*
X64515Y-41106D02*
X64777Y-41106D01*
X64552Y-41106D02*
X64534Y-41119D01*
X64515Y-41145D01*
X64515Y-41185D01*
X64534Y-41211D01*
X64571Y-41224D01*
X64777Y-41224D01*
X64515Y-41316D02*
X64515Y-41421D01*
X64383Y-41356D02*
X64721Y-41356D01*
X64759Y-41369D01*
X64777Y-41395D01*
X64777Y-41421D01*
X64515Y-41684D02*
X64515Y-41789D01*
X64383Y-41724D02*
X64721Y-41724D01*
X64759Y-41737D01*
X64777Y-41763D01*
X64777Y-41789D01*
X64515Y-41855D02*
X64777Y-41921D01*
X64515Y-41987D02*
X64777Y-41921D01*
X64871Y-41895D01*
X64890Y-41882D01*
X64909Y-41855D01*
X64515Y-42092D02*
X64909Y-42092D01*
X64534Y-42092D02*
X64515Y-42118D01*
X64515Y-42171D01*
X64534Y-42197D01*
X64552Y-42210D01*
X64590Y-42223D01*
X64702Y-42223D01*
X64740Y-42210D01*
X64759Y-42197D01*
X64777Y-42171D01*
X64777Y-42118D01*
X64759Y-42092D01*
X64759Y-42447D02*
X64777Y-42421D01*
X64777Y-42368D01*
X64759Y-42342D01*
X64721Y-42329D01*
X64571Y-42329D01*
X64534Y-42342D01*
X64515Y-42368D01*
X64515Y-42421D01*
X64534Y-42447D01*
X64571Y-42460D01*
X64609Y-42460D01*
X64646Y-42329D01*
X64740Y-42579D02*
X64759Y-42592D01*
X64777Y-42579D01*
X64759Y-42566D01*
X64740Y-42579D01*
X64777Y-42579D01*
X64534Y-42579D02*
X64552Y-42592D01*
X64571Y-42579D01*
X64552Y-42566D01*
X64534Y-42579D01*
X64571Y-42579D01*
X64993Y-38909D02*
X65387Y-39001D01*
X64993Y-39093D01*
X65387Y-39186D02*
X65125Y-39186D01*
X64993Y-39186D02*
X65012Y-39173D01*
X65031Y-39186D01*
X65012Y-39199D01*
X64993Y-39186D01*
X65031Y-39186D01*
X65387Y-39435D02*
X65181Y-39435D01*
X65144Y-39422D01*
X65125Y-39396D01*
X65125Y-39343D01*
X65144Y-39317D01*
X65369Y-39435D02*
X65387Y-39409D01*
X65387Y-39343D01*
X65369Y-39317D01*
X65331Y-39304D01*
X65294Y-39304D01*
X65256Y-39317D01*
X65237Y-39343D01*
X65237Y-39409D01*
X65219Y-39435D01*
X65387Y-39816D02*
X65369Y-39790D01*
X65350Y-39777D01*
X65312Y-39764D01*
X65200Y-39764D01*
X65162Y-39777D01*
X65144Y-39790D01*
X65125Y-39816D01*
X65125Y-39856D01*
X65144Y-39882D01*
X65162Y-39895D01*
X65200Y-39908D01*
X65312Y-39908D01*
X65350Y-39895D01*
X65369Y-39882D01*
X65387Y-39856D01*
X65387Y-39816D01*
X65125Y-39987D02*
X65125Y-40092D01*
X65387Y-40027D02*
X65050Y-40027D01*
X65012Y-40040D01*
X64993Y-40066D01*
X64993Y-40092D01*
X65125Y-40145D02*
X65125Y-40250D01*
X65387Y-40185D02*
X65050Y-40185D01*
X65012Y-40198D01*
X64993Y-40224D01*
X64993Y-40250D01*
X65237Y-40343D02*
X65237Y-40553D01*
X65125Y-40685D02*
X65519Y-40685D01*
X65144Y-40685D02*
X65125Y-40711D01*
X65125Y-40764D01*
X65144Y-40790D01*
X65162Y-40803D01*
X65200Y-40816D01*
X65312Y-40816D01*
X65350Y-40803D01*
X65369Y-40790D01*
X65387Y-40764D01*
X65387Y-40711D01*
X65369Y-40685D01*
X65387Y-41053D02*
X65181Y-41053D01*
X65144Y-41040D01*
X65125Y-41014D01*
X65125Y-40961D01*
X65144Y-40935D01*
X65369Y-41053D02*
X65387Y-41027D01*
X65387Y-40961D01*
X65369Y-40935D01*
X65331Y-40922D01*
X65294Y-40922D01*
X65256Y-40935D01*
X65237Y-40961D01*
X65237Y-41027D01*
X65219Y-41053D01*
X65387Y-41303D02*
X64993Y-41303D01*
X65369Y-41303D02*
X65387Y-41277D01*
X65387Y-41224D01*
X65369Y-41198D01*
X65350Y-41185D01*
X65312Y-41172D01*
X65200Y-41172D01*
X65162Y-41185D01*
X65144Y-41198D01*
X65125Y-41224D01*
X65125Y-41277D01*
X65144Y-41303D01*
X41831Y-53937D02*
G75*
G03X41831Y-53937I-492J0D01*
G74*
G01*
X40355Y-53937D02*
X42323Y-53937D01*
X41339Y-52953D02*
X41339Y-54921D01*
X70964Y-26378D02*
G75*
G03X70964Y-26378I-492J0D01*
G74*
G01*
X69488Y-26378D02*
X71456Y-26378D01*
X70472Y-25394D02*
X70472Y-27362D01*
X41831Y-26378D02*
G75*
G03X41831Y-26378I-492J0D01*
G74*
G01*
X40355Y-26378D02*
X42323Y-26378D01*
X41339Y-25394D02*
X41339Y-27362D01*
G54D12*
X48214Y-35737D02*
X48214Y-35528D01*
X47979Y-35662D01*
X47979Y-35393D02*
X47979Y-35333D01*
X47991Y-35304D01*
X48002Y-35289D01*
X48035Y-35259D01*
X48080Y-35244D01*
X48170Y-35244D01*
X48192Y-35259D01*
X48203Y-35274D01*
X48214Y-35304D01*
X48214Y-35363D01*
X48203Y-35393D01*
X48192Y-35408D01*
X48170Y-35423D01*
X48114Y-35423D01*
X48091Y-35408D01*
X48080Y-35393D01*
X48069Y-35363D01*
X48069Y-35304D01*
X48080Y-35274D01*
X48091Y-35259D01*
X48114Y-35244D01*
X51114Y-44936D02*
X51125Y-44921D01*
X51136Y-44891D01*
X51136Y-44817D01*
X51125Y-44787D01*
X51114Y-44772D01*
X51092Y-44757D01*
X51069Y-44757D01*
X51036Y-44772D01*
X50901Y-44951D01*
X50901Y-44757D01*
G54D13*
X42606Y-52483D02*
X42606Y-27680D01*
X68983Y-52483D02*
X42606Y-52483D01*
X68983Y-27680D02*
X68983Y-52483D01*
X42606Y-27680D02*
X68983Y-27680D01*
X66228Y-30437D02*
X66228Y-39492D01*
X57764Y-30437D02*
X66228Y-30437D01*
X57764Y-29650D02*
X57764Y-30437D01*
X67016Y-29650D02*
X57764Y-29650D01*
X67016Y-39492D02*
X67016Y-29650D01*
X66228Y-39492D02*
X67016Y-39492D01*
X57764Y-50515D02*
X57764Y-49728D01*
X67016Y-50515D02*
X57764Y-50515D01*
X67016Y-40948D02*
X67016Y-50515D01*
X66228Y-40948D02*
X67016Y-40948D01*
X66228Y-49728D02*
X66228Y-40948D01*
X57764Y-49728D02*
X66228Y-49728D01*
X46936Y-50515D02*
X46936Y-44413D01*
X56386Y-50515D02*
X46936Y-50515D01*
X56386Y-49728D02*
X56386Y-50515D01*
X47724Y-49728D02*
X56386Y-49728D01*
X47724Y-44413D02*
X47724Y-49728D01*
X46936Y-44413D02*
X47724Y-44413D01*
X46936Y-43390D02*
X46936Y-35555D01*
X47724Y-43390D02*
X46936Y-43390D01*
X47724Y-35555D02*
X47724Y-43390D01*
X46936Y-35555D02*
X47724Y-35555D01*
X47724Y-30437D02*
X47724Y-34570D01*
X46936Y-34570D02*
X47724Y-34570D01*
X46936Y-29648D02*
X46936Y-34570D01*
X46936Y-29648D02*
X56384Y-29648D01*
X56384Y-29648D02*
X56384Y-30437D01*
X47724Y-30437D02*
X56384Y-30437D01*
G54D12*
X48039Y-44737D02*
X48039Y-44916D01*
X48039Y-44826D02*
X48274Y-44826D01*
X48241Y-44856D01*
X48218Y-44886D01*
X48207Y-44916D01*
G54D11*
X50913Y-34591D02*
X50913Y-33567D01*
X51543Y-34591D02*
X50913Y-34591D01*
X51543Y-33567D02*
X51543Y-34591D01*
X50913Y-33567D02*
X51543Y-33567D01*
X50874Y-40437D02*
X50874Y-38626D01*
X51681Y-40437D02*
X50874Y-40437D01*
X51681Y-38626D02*
X51681Y-40437D01*
X50874Y-38625D02*
X51681Y-38625D01*
G54D13*
X48847Y-34099D02*
X48354Y-34099D01*
X48354Y-35496D02*
X48354Y-34099D01*
X50754Y-35496D02*
X50754Y-34099D01*
X50754Y-46420D02*
X50754Y-45031D01*
X50754Y-34099D02*
X50262Y-34099D01*
X48354Y-46085D02*
X48354Y-45032D01*
X48689Y-46428D02*
X48354Y-46083D01*
X50754Y-46420D02*
X50261Y-46420D01*
G54D14*
X52194Y-45063D02*
X52586Y-45063D01*
X56052Y-44866D02*
X56444Y-44866D01*
G54D13*
X53721Y-34332D02*
X53721Y-34488D01*
X51327Y-36111D02*
X51327Y-36267D01*
X62480Y-45865D02*
X62480Y-45709D01*
X53146Y-36068D02*
X53146Y-36224D01*
X51808Y-35374D02*
X51964Y-35374D01*
X51217Y-35560D02*
X51217Y-35716D01*
X51303Y-37930D02*
X51303Y-38086D01*
X53662Y-36351D02*
X53818Y-36351D01*
X51327Y-36383D02*
X51327Y-36539D01*
X51291Y-37154D02*
X51291Y-37310D01*
X52154Y-37318D02*
X52154Y-37162D01*
X52126Y-36275D02*
X52126Y-36119D01*
X54188Y-36358D02*
X54032Y-36358D01*
X52130Y-38070D02*
X52130Y-37914D01*
X52894Y-34332D02*
X52894Y-34488D01*
X54379Y-36331D02*
X54535Y-36331D01*
X51295Y-37430D02*
X51295Y-37586D01*
X54638Y-34511D02*
X54638Y-34355D01*
X59528Y-35315D02*
X59684Y-35315D01*
X59883Y-35315D02*
X60039Y-35315D01*
X59117Y-47528D02*
X58961Y-47528D01*
X60125Y-47536D02*
X59969Y-47536D01*
X62114Y-47622D02*
X61958Y-47622D01*
X63129Y-47591D02*
X62973Y-47591D01*
X56562Y-42607D02*
X56406Y-42607D01*
X58272Y-42720D02*
X58272Y-42564D01*
X55473Y-37536D02*
X55473Y-37692D01*
X55206Y-36949D02*
X55362Y-36949D01*
X59567Y-38306D02*
X59567Y-38150D01*
X59673Y-42425D02*
X59673Y-42269D01*
X60016Y-42122D02*
X60016Y-41966D01*
X61528Y-39422D02*
X61528Y-39578D01*
X59567Y-38688D02*
X59567Y-38532D01*
X60560Y-40169D02*
X60716Y-40169D01*
X60154Y-40433D02*
X60154Y-40277D01*
X61543Y-40429D02*
X61543Y-40273D01*
X61473Y-41827D02*
X61629Y-41827D01*
X56686Y-42606D02*
X56842Y-42606D01*
X60882Y-37846D02*
X60882Y-37690D01*
X52150Y-37031D02*
X52150Y-36875D01*
X60568Y-42945D02*
X60724Y-42945D01*
X61213Y-43178D02*
X61213Y-43334D01*
X60980Y-37059D02*
X60980Y-36903D01*
X61649Y-37571D02*
X61493Y-37571D01*
X57846Y-42500D02*
X57690Y-42500D01*
X61536Y-39721D02*
X61536Y-39877D01*
X55756Y-38698D02*
X55756Y-38854D01*
X55973Y-43331D02*
X56129Y-43331D01*
X51225Y-34812D02*
X51225Y-34968D01*
X51225Y-35358D02*
X51225Y-35202D01*
X52154Y-37434D02*
X52154Y-37590D01*
X51291Y-36879D02*
X51291Y-37035D01*
X52126Y-36547D02*
X52126Y-36391D01*
X57299Y-43044D02*
X57299Y-43200D01*
X57387Y-42634D02*
X57543Y-42634D01*
X51610Y-43110D02*
X51336Y-43110D01*
X60225Y-36847D02*
X60225Y-37121D01*
X53524Y-48365D02*
X53524Y-48091D01*
X61288Y-42984D02*
X61288Y-42710D01*
X51032Y-45520D02*
X51306Y-45520D01*
X61306Y-41449D02*
X61150Y-41449D01*
X61027Y-40169D02*
X60871Y-40169D01*
X60956Y-41449D02*
X60800Y-41449D01*
X60811Y-38712D02*
X60811Y-38556D01*
X56260Y-41467D02*
X56260Y-41623D01*
X60811Y-39023D02*
X60811Y-38867D01*
X55969Y-42603D02*
X56125Y-42603D01*
X54953Y-43399D02*
X54953Y-43555D01*
X57323Y-43705D02*
X57323Y-43861D01*
X56158Y-37688D02*
X56158Y-37532D01*
X57323Y-43375D02*
X57323Y-43531D01*
X57072Y-42622D02*
X57228Y-42622D01*
X55386Y-34503D02*
X55386Y-34347D01*
X60622Y-35208D02*
X60622Y-35052D01*
X61905Y-45366D02*
X61749Y-45366D01*
X61142Y-45733D02*
X61142Y-45889D01*
X59617Y-41870D02*
X59461Y-41870D01*
X55027Y-36949D02*
X54871Y-36949D01*
X57846Y-41544D02*
X57690Y-41544D01*
X57562Y-41540D02*
X57406Y-41540D01*
X59554Y-39666D02*
X59398Y-39666D01*
X55752Y-38221D02*
X55752Y-38377D01*
X56359Y-43343D02*
X56515Y-43343D01*
X58890Y-38139D02*
X58890Y-38295D01*
X58898Y-38517D02*
X58898Y-38673D01*
X61421Y-39032D02*
X61265Y-39032D01*
X59961Y-39346D02*
X60117Y-39346D01*
X59113Y-41722D02*
X58957Y-41722D01*
X60240Y-37555D02*
X60084Y-37555D01*
X60028Y-41607D02*
X60028Y-41763D01*
X60863Y-42067D02*
X61019Y-42067D01*
X56158Y-37247D02*
X56158Y-37091D01*
X56154Y-36834D02*
X56154Y-36678D01*
X56165Y-36531D02*
X56165Y-36375D01*
X59314Y-37603D02*
X59158Y-37603D01*
X59657Y-37603D02*
X59501Y-37603D01*
X58264Y-42417D02*
X58264Y-42261D01*
X58256Y-41795D02*
X58256Y-41639D01*
X53391Y-45402D02*
X53547Y-45402D01*
X59622Y-41421D02*
X59622Y-41265D01*
G54D14*
X51957Y-43848D02*
X51957Y-44240D01*
X54550Y-44697D02*
X54550Y-44693D01*
G54D15*
X54959Y-43628D02*
X54409Y-43628D01*
X54409Y-43628D02*
X54409Y-44828D01*
X54409Y-44828D02*
X54959Y-44828D01*
X54959Y-44828D02*
X54959Y-43628D01*
G54D14*
X54740Y-45834D02*
X54736Y-45834D01*
G54D15*
X53671Y-45425D02*
X53671Y-45975D01*
X53671Y-45975D02*
X54871Y-45975D01*
X54871Y-45975D02*
X54871Y-45425D01*
X54871Y-45425D02*
X53671Y-45425D01*
G54D14*
X52787Y-35516D02*
X52787Y-35508D01*
G54D16*
X54259Y-34701D02*
X54259Y-35685D01*
X54259Y-35685D02*
X52607Y-35685D01*
X52607Y-34701D02*
X54259Y-34701D01*
X52607Y-35685D02*
X52607Y-34701D01*
G54D11*
X53059Y-38791D02*
X53059Y-38123D01*
X53059Y-39606D02*
X53059Y-38938D01*
X53059Y-40441D02*
X53059Y-39773D01*
X53059Y-41275D02*
X53059Y-40607D01*
X53059Y-42161D02*
X53059Y-41493D01*
X53059Y-42980D02*
X53059Y-42312D01*
X55464Y-42516D02*
X54796Y-42516D01*
G54D16*
X48845Y-33554D02*
X48636Y-33947D01*
X48636Y-33554D02*
X48845Y-33947D01*
X48546Y-33554D02*
X48352Y-33554D01*
X48456Y-33703D01*
X48412Y-33703D01*
X48382Y-33722D01*
X48367Y-33741D01*
X48352Y-33778D01*
X48352Y-33872D01*
X48367Y-33909D01*
X48382Y-33928D01*
X48412Y-33947D01*
X48501Y-33947D01*
X48531Y-33928D01*
X48546Y-33909D01*
G54D17*
X52055Y-45026D02*
X51963Y-44974D01*
X52055Y-44936D02*
X51860Y-44936D01*
X51860Y-44996D01*
X51870Y-45011D01*
X51879Y-45019D01*
X51898Y-45026D01*
X51925Y-45026D01*
X51944Y-45019D01*
X51953Y-45011D01*
X51963Y-44996D01*
X51963Y-44936D01*
X52055Y-45176D02*
X52055Y-45086D01*
X52055Y-45131D02*
X51860Y-45131D01*
X51888Y-45116D01*
X51907Y-45101D01*
X51916Y-45086D01*
X56743Y-44729D02*
X56651Y-44677D01*
X56743Y-44639D02*
X56548Y-44639D01*
X56548Y-44699D01*
X56558Y-44714D01*
X56567Y-44722D01*
X56586Y-44729D01*
X56613Y-44729D01*
X56632Y-44722D01*
X56641Y-44714D01*
X56651Y-44699D01*
X56651Y-44639D01*
X56632Y-44819D02*
X56623Y-44804D01*
X56613Y-44796D01*
X56595Y-44789D01*
X56586Y-44789D01*
X56567Y-44796D01*
X56558Y-44804D01*
X56548Y-44819D01*
X56548Y-44849D01*
X56558Y-44864D01*
X56567Y-44871D01*
X56586Y-44879D01*
X56595Y-44879D01*
X56613Y-44871D01*
X56623Y-44864D01*
X56632Y-44849D01*
X56632Y-44819D01*
X56641Y-44804D01*
X56651Y-44796D01*
X56669Y-44789D01*
X56706Y-44789D01*
X56725Y-44796D01*
X56734Y-44804D01*
X56743Y-44819D01*
X56743Y-44849D01*
X56734Y-44864D01*
X56725Y-44871D01*
X56706Y-44879D01*
X56669Y-44879D01*
X56651Y-44871D01*
X56641Y-44864D01*
X56632Y-44849D01*
X56567Y-44939D02*
X56558Y-44946D01*
X56548Y-44961D01*
X56548Y-44999D01*
X56558Y-45014D01*
X56567Y-45021D01*
X56586Y-45029D01*
X56604Y-45029D01*
X56632Y-45021D01*
X56743Y-44931D01*
X56743Y-45029D01*
X53810Y-34255D02*
X53862Y-34163D01*
X53900Y-34255D02*
X53900Y-34060D01*
X53840Y-34060D01*
X53825Y-34070D01*
X53817Y-34079D01*
X53810Y-34098D01*
X53810Y-34125D01*
X53817Y-34144D01*
X53825Y-34153D01*
X53840Y-34163D01*
X53900Y-34163D01*
X53675Y-34125D02*
X53675Y-34255D01*
X53713Y-34051D02*
X53750Y-34190D01*
X53653Y-34190D01*
X53525Y-34060D02*
X53555Y-34060D01*
X53570Y-34070D01*
X53578Y-34079D01*
X53593Y-34107D01*
X53600Y-34144D01*
X53600Y-34218D01*
X53593Y-34237D01*
X53585Y-34246D01*
X53570Y-34255D01*
X53540Y-34255D01*
X53525Y-34246D01*
X53518Y-34237D01*
X53510Y-34218D01*
X53510Y-34172D01*
X53518Y-34153D01*
X53525Y-34144D01*
X53540Y-34135D01*
X53570Y-34135D01*
X53585Y-34144D01*
X53593Y-34153D01*
X53600Y-34172D01*
X51444Y-38921D02*
X51496Y-38829D01*
X51534Y-38921D02*
X51534Y-38726D01*
X51474Y-38726D01*
X51459Y-38736D01*
X51451Y-38745D01*
X51444Y-38764D01*
X51444Y-38791D01*
X51451Y-38810D01*
X51459Y-38819D01*
X51474Y-38829D01*
X51534Y-38829D01*
X51294Y-38921D02*
X51384Y-38921D01*
X51339Y-38921D02*
X51339Y-38726D01*
X51354Y-38754D01*
X51369Y-38773D01*
X51384Y-38782D01*
X51242Y-38726D02*
X51144Y-38726D01*
X51197Y-38801D01*
X51174Y-38801D01*
X51159Y-38810D01*
X51152Y-38819D01*
X51144Y-38838D01*
X51144Y-38884D01*
X51152Y-38903D01*
X51159Y-38912D01*
X51174Y-38921D01*
X51219Y-38921D01*
X51234Y-38912D01*
X51242Y-38903D01*
X51047Y-38726D02*
X51032Y-38726D01*
X51017Y-38736D01*
X51009Y-38745D01*
X51002Y-38764D01*
X50994Y-38801D01*
X50994Y-38847D01*
X51002Y-38884D01*
X51009Y-38903D01*
X51017Y-38912D01*
X51032Y-38921D01*
X51047Y-38921D01*
X51062Y-38912D01*
X51069Y-38903D01*
X51077Y-38884D01*
X51084Y-38847D01*
X51084Y-38801D01*
X51077Y-38764D01*
X51069Y-38745D01*
X51062Y-38736D01*
X51047Y-38726D01*
X62554Y-45628D02*
X62606Y-45536D01*
X62644Y-45628D02*
X62644Y-45433D01*
X62584Y-45433D01*
X62569Y-45443D01*
X62561Y-45452D01*
X62554Y-45471D01*
X62554Y-45498D01*
X62561Y-45517D01*
X62569Y-45526D01*
X62584Y-45536D01*
X62644Y-45536D01*
X62412Y-45433D02*
X62487Y-45433D01*
X62494Y-45526D01*
X62487Y-45517D01*
X62472Y-45508D01*
X62434Y-45508D01*
X62419Y-45517D01*
X62412Y-45526D01*
X62404Y-45545D01*
X62404Y-45591D01*
X62412Y-45610D01*
X62419Y-45619D01*
X62434Y-45628D01*
X62472Y-45628D01*
X62487Y-45619D01*
X62494Y-45610D01*
X62307Y-45433D02*
X62292Y-45433D01*
X62277Y-45443D01*
X62269Y-45452D01*
X62262Y-45471D01*
X62254Y-45508D01*
X62254Y-45554D01*
X62262Y-45591D01*
X62269Y-45610D01*
X62277Y-45619D01*
X62292Y-45628D01*
X62307Y-45628D01*
X62322Y-45619D01*
X62329Y-45610D01*
X62337Y-45591D01*
X62344Y-45554D01*
X62344Y-45508D01*
X62337Y-45471D01*
X62329Y-45452D01*
X62322Y-45443D01*
X62307Y-45433D01*
X53188Y-35984D02*
X53240Y-35892D01*
X53278Y-35984D02*
X53278Y-35789D01*
X53218Y-35789D01*
X53203Y-35799D01*
X53195Y-35808D01*
X53188Y-35827D01*
X53188Y-35854D01*
X53195Y-35873D01*
X53203Y-35882D01*
X53218Y-35892D01*
X53278Y-35892D01*
X53053Y-35854D02*
X53053Y-35984D01*
X53091Y-35780D02*
X53128Y-35919D01*
X53031Y-35919D01*
X51732Y-35269D02*
X51640Y-35217D01*
X51732Y-35179D02*
X51537Y-35179D01*
X51537Y-35239D01*
X51547Y-35254D01*
X51556Y-35262D01*
X51575Y-35269D01*
X51602Y-35269D01*
X51621Y-35262D01*
X51630Y-35254D01*
X51640Y-35239D01*
X51640Y-35179D01*
X51602Y-35404D02*
X51732Y-35404D01*
X51528Y-35366D02*
X51667Y-35329D01*
X51667Y-35426D01*
X51732Y-35494D02*
X51732Y-35524D01*
X51723Y-35539D01*
X51714Y-35546D01*
X51686Y-35561D01*
X51649Y-35569D01*
X51575Y-35569D01*
X51556Y-35561D01*
X51547Y-35554D01*
X51537Y-35539D01*
X51537Y-35509D01*
X51547Y-35494D01*
X51556Y-35486D01*
X51575Y-35479D01*
X51621Y-35479D01*
X51640Y-35486D01*
X51649Y-35494D01*
X51658Y-35509D01*
X51658Y-35539D01*
X51649Y-35554D01*
X51640Y-35561D01*
X51621Y-35569D01*
X51329Y-34492D02*
X51381Y-34400D01*
X51419Y-34492D02*
X51419Y-34297D01*
X51359Y-34297D01*
X51344Y-34307D01*
X51336Y-34316D01*
X51329Y-34335D01*
X51329Y-34362D01*
X51336Y-34381D01*
X51344Y-34390D01*
X51359Y-34400D01*
X51419Y-34400D01*
X51269Y-34316D02*
X51262Y-34307D01*
X51247Y-34297D01*
X51209Y-34297D01*
X51194Y-34307D01*
X51187Y-34316D01*
X51179Y-34335D01*
X51179Y-34353D01*
X51187Y-34381D01*
X51277Y-34492D01*
X51179Y-34492D01*
X51127Y-34297D02*
X51029Y-34297D01*
X51082Y-34372D01*
X51059Y-34372D01*
X51044Y-34381D01*
X51037Y-34390D01*
X51029Y-34409D01*
X51029Y-34455D01*
X51037Y-34474D01*
X51044Y-34483D01*
X51059Y-34492D01*
X51104Y-34492D01*
X51119Y-34483D01*
X51127Y-34474D01*
X51389Y-38370D02*
X51441Y-38278D01*
X51479Y-38370D02*
X51479Y-38175D01*
X51419Y-38175D01*
X51404Y-38185D01*
X51396Y-38194D01*
X51389Y-38213D01*
X51389Y-38240D01*
X51396Y-38259D01*
X51404Y-38268D01*
X51419Y-38278D01*
X51479Y-38278D01*
X51254Y-38240D02*
X51254Y-38370D01*
X51292Y-38166D02*
X51329Y-38305D01*
X51232Y-38305D01*
X51104Y-38240D02*
X51104Y-38370D01*
X51142Y-38166D02*
X51179Y-38305D01*
X51082Y-38305D01*
X53838Y-36773D02*
X53746Y-36721D01*
X53838Y-36683D02*
X53643Y-36683D01*
X53643Y-36743D01*
X53653Y-36758D01*
X53662Y-36766D01*
X53681Y-36773D01*
X53708Y-36773D01*
X53727Y-36766D01*
X53736Y-36758D01*
X53746Y-36743D01*
X53746Y-36683D01*
X53662Y-36833D02*
X53653Y-36840D01*
X53643Y-36855D01*
X53643Y-36893D01*
X53653Y-36908D01*
X53662Y-36915D01*
X53681Y-36923D01*
X53699Y-36923D01*
X53727Y-36915D01*
X53838Y-36825D01*
X53838Y-36923D01*
X53838Y-36998D02*
X53838Y-37028D01*
X53829Y-37043D01*
X53820Y-37050D01*
X53792Y-37065D01*
X53755Y-37073D01*
X53681Y-37073D01*
X53662Y-37065D01*
X53653Y-37058D01*
X53643Y-37043D01*
X53643Y-37013D01*
X53653Y-36998D01*
X53662Y-36990D01*
X53681Y-36983D01*
X53727Y-36983D01*
X53746Y-36990D01*
X53755Y-36998D01*
X53764Y-37013D01*
X53764Y-37043D01*
X53755Y-37058D01*
X53746Y-37065D01*
X53727Y-37073D01*
X51444Y-39216D02*
X51496Y-39124D01*
X51534Y-39216D02*
X51534Y-39021D01*
X51474Y-39021D01*
X51459Y-39031D01*
X51451Y-39040D01*
X51444Y-39059D01*
X51444Y-39086D01*
X51451Y-39105D01*
X51459Y-39114D01*
X51474Y-39124D01*
X51534Y-39124D01*
X51294Y-39216D02*
X51384Y-39216D01*
X51339Y-39216D02*
X51339Y-39021D01*
X51354Y-39049D01*
X51369Y-39068D01*
X51384Y-39077D01*
X51242Y-39021D02*
X51144Y-39021D01*
X51197Y-39096D01*
X51174Y-39096D01*
X51159Y-39105D01*
X51152Y-39114D01*
X51144Y-39133D01*
X51144Y-39179D01*
X51152Y-39198D01*
X51159Y-39207D01*
X51174Y-39216D01*
X51219Y-39216D01*
X51234Y-39207D01*
X51242Y-39198D01*
X50994Y-39216D02*
X51084Y-39216D01*
X51039Y-39216D02*
X51039Y-39021D01*
X51054Y-39049D01*
X51069Y-39068D01*
X51084Y-39077D01*
X51444Y-40023D02*
X51496Y-39931D01*
X51534Y-40023D02*
X51534Y-39828D01*
X51474Y-39828D01*
X51459Y-39838D01*
X51451Y-39847D01*
X51444Y-39866D01*
X51444Y-39893D01*
X51451Y-39912D01*
X51459Y-39921D01*
X51474Y-39931D01*
X51534Y-39931D01*
X51294Y-40023D02*
X51384Y-40023D01*
X51339Y-40023D02*
X51339Y-39828D01*
X51354Y-39856D01*
X51369Y-39875D01*
X51384Y-39884D01*
X51242Y-39828D02*
X51144Y-39828D01*
X51197Y-39903D01*
X51174Y-39903D01*
X51159Y-39912D01*
X51152Y-39921D01*
X51144Y-39940D01*
X51144Y-39986D01*
X51152Y-40005D01*
X51159Y-40014D01*
X51174Y-40023D01*
X51219Y-40023D01*
X51234Y-40014D01*
X51242Y-40005D01*
X51084Y-39847D02*
X51077Y-39838D01*
X51062Y-39828D01*
X51024Y-39828D01*
X51009Y-39838D01*
X51002Y-39847D01*
X50994Y-39866D01*
X50994Y-39884D01*
X51002Y-39912D01*
X51092Y-40023D01*
X50994Y-40023D01*
X52786Y-37326D02*
X52838Y-37234D01*
X52876Y-37326D02*
X52876Y-37131D01*
X52816Y-37131D01*
X52801Y-37141D01*
X52793Y-37150D01*
X52786Y-37169D01*
X52786Y-37196D01*
X52793Y-37215D01*
X52801Y-37224D01*
X52816Y-37234D01*
X52876Y-37234D01*
X52711Y-37326D02*
X52681Y-37326D01*
X52666Y-37317D01*
X52659Y-37308D01*
X52644Y-37280D01*
X52636Y-37243D01*
X52636Y-37169D01*
X52644Y-37150D01*
X52651Y-37141D01*
X52666Y-37131D01*
X52696Y-37131D01*
X52711Y-37141D01*
X52719Y-37150D01*
X52726Y-37169D01*
X52726Y-37215D01*
X52719Y-37234D01*
X52711Y-37243D01*
X52696Y-37252D01*
X52666Y-37252D01*
X52651Y-37243D01*
X52644Y-37234D01*
X52636Y-37215D01*
X52501Y-37131D02*
X52531Y-37131D01*
X52546Y-37141D01*
X52554Y-37150D01*
X52569Y-37178D01*
X52576Y-37215D01*
X52576Y-37289D01*
X52569Y-37308D01*
X52561Y-37317D01*
X52546Y-37326D01*
X52516Y-37326D01*
X52501Y-37317D01*
X52494Y-37308D01*
X52486Y-37289D01*
X52486Y-37243D01*
X52494Y-37224D01*
X52501Y-37215D01*
X52516Y-37206D01*
X52546Y-37206D01*
X52561Y-37215D01*
X52569Y-37224D01*
X52576Y-37243D01*
X52747Y-36303D02*
X52799Y-36211D01*
X52837Y-36303D02*
X52837Y-36108D01*
X52777Y-36108D01*
X52762Y-36118D01*
X52754Y-36127D01*
X52747Y-36146D01*
X52747Y-36173D01*
X52754Y-36192D01*
X52762Y-36201D01*
X52777Y-36211D01*
X52837Y-36211D01*
X52672Y-36303D02*
X52642Y-36303D01*
X52627Y-36294D01*
X52620Y-36285D01*
X52605Y-36257D01*
X52597Y-36220D01*
X52597Y-36146D01*
X52605Y-36127D01*
X52612Y-36118D01*
X52627Y-36108D01*
X52657Y-36108D01*
X52672Y-36118D01*
X52680Y-36127D01*
X52687Y-36146D01*
X52687Y-36192D01*
X52680Y-36211D01*
X52672Y-36220D01*
X52657Y-36229D01*
X52627Y-36229D01*
X52612Y-36220D01*
X52605Y-36211D01*
X52597Y-36192D01*
X52455Y-36108D02*
X52530Y-36108D01*
X52537Y-36201D01*
X52530Y-36192D01*
X52515Y-36183D01*
X52477Y-36183D01*
X52462Y-36192D01*
X52455Y-36201D01*
X52447Y-36220D01*
X52447Y-36266D01*
X52455Y-36285D01*
X52462Y-36294D01*
X52477Y-36303D01*
X52515Y-36303D01*
X52530Y-36294D01*
X52537Y-36285D01*
X54204Y-36780D02*
X54112Y-36728D01*
X54204Y-36690D02*
X54009Y-36690D01*
X54009Y-36750D01*
X54019Y-36765D01*
X54028Y-36773D01*
X54047Y-36780D01*
X54074Y-36780D01*
X54093Y-36773D01*
X54102Y-36765D01*
X54112Y-36750D01*
X54112Y-36690D01*
X54028Y-36840D02*
X54019Y-36847D01*
X54009Y-36862D01*
X54009Y-36900D01*
X54019Y-36915D01*
X54028Y-36922D01*
X54047Y-36930D01*
X54065Y-36930D01*
X54093Y-36922D01*
X54204Y-36832D01*
X54204Y-36930D01*
X54093Y-37020D02*
X54084Y-37005D01*
X54074Y-36997D01*
X54056Y-36990D01*
X54047Y-36990D01*
X54028Y-36997D01*
X54019Y-37005D01*
X54009Y-37020D01*
X54009Y-37050D01*
X54019Y-37065D01*
X54028Y-37072D01*
X54047Y-37080D01*
X54056Y-37080D01*
X54074Y-37072D01*
X54084Y-37065D01*
X54093Y-37050D01*
X54093Y-37020D01*
X54102Y-37005D01*
X54112Y-36997D01*
X54130Y-36990D01*
X54167Y-36990D01*
X54186Y-36997D01*
X54195Y-37005D01*
X54204Y-37020D01*
X54204Y-37050D01*
X54195Y-37065D01*
X54186Y-37072D01*
X54167Y-37080D01*
X54130Y-37080D01*
X54112Y-37072D01*
X54102Y-37065D01*
X54093Y-37050D01*
X52766Y-38055D02*
X52818Y-37963D01*
X52856Y-38055D02*
X52856Y-37860D01*
X52796Y-37860D01*
X52781Y-37870D01*
X52773Y-37879D01*
X52766Y-37898D01*
X52766Y-37925D01*
X52773Y-37944D01*
X52781Y-37953D01*
X52796Y-37963D01*
X52856Y-37963D01*
X52706Y-37879D02*
X52699Y-37870D01*
X52684Y-37860D01*
X52646Y-37860D01*
X52631Y-37870D01*
X52624Y-37879D01*
X52616Y-37898D01*
X52616Y-37916D01*
X52624Y-37944D01*
X52714Y-38055D01*
X52616Y-38055D01*
X52564Y-37860D02*
X52459Y-37860D01*
X52526Y-38055D01*
X52983Y-34255D02*
X53035Y-34163D01*
X53073Y-34255D02*
X53073Y-34060D01*
X53013Y-34060D01*
X52998Y-34070D01*
X52990Y-34079D01*
X52983Y-34098D01*
X52983Y-34125D01*
X52990Y-34144D01*
X52998Y-34153D01*
X53013Y-34163D01*
X53073Y-34163D01*
X52923Y-34079D02*
X52916Y-34070D01*
X52901Y-34060D01*
X52863Y-34060D01*
X52848Y-34070D01*
X52841Y-34079D01*
X52833Y-34098D01*
X52833Y-34116D01*
X52841Y-34144D01*
X52931Y-34255D01*
X52833Y-34255D01*
X52698Y-34060D02*
X52728Y-34060D01*
X52743Y-34070D01*
X52751Y-34079D01*
X52766Y-34107D01*
X52773Y-34144D01*
X52773Y-34218D01*
X52766Y-34237D01*
X52758Y-34246D01*
X52743Y-34255D01*
X52713Y-34255D01*
X52698Y-34246D01*
X52691Y-34237D01*
X52683Y-34218D01*
X52683Y-34172D01*
X52691Y-34153D01*
X52698Y-34144D01*
X52713Y-34135D01*
X52743Y-34135D01*
X52758Y-34144D01*
X52766Y-34153D01*
X52773Y-34172D01*
X54558Y-36753D02*
X54466Y-36701D01*
X54558Y-36663D02*
X54363Y-36663D01*
X54363Y-36723D01*
X54373Y-36738D01*
X54382Y-36746D01*
X54401Y-36753D01*
X54428Y-36753D01*
X54447Y-36746D01*
X54456Y-36738D01*
X54466Y-36723D01*
X54466Y-36663D01*
X54558Y-36828D02*
X54558Y-36858D01*
X54549Y-36873D01*
X54540Y-36880D01*
X54512Y-36895D01*
X54475Y-36903D01*
X54401Y-36903D01*
X54382Y-36895D01*
X54373Y-36888D01*
X54363Y-36873D01*
X54363Y-36843D01*
X54373Y-36828D01*
X54382Y-36820D01*
X54401Y-36813D01*
X54447Y-36813D01*
X54466Y-36820D01*
X54475Y-36828D01*
X54484Y-36843D01*
X54484Y-36873D01*
X54475Y-36888D01*
X54466Y-36895D01*
X54447Y-36903D01*
X54382Y-36963D02*
X54373Y-36970D01*
X54363Y-36985D01*
X54363Y-37023D01*
X54373Y-37038D01*
X54382Y-37045D01*
X54401Y-37053D01*
X54419Y-37053D01*
X54447Y-37045D01*
X54558Y-36955D01*
X54558Y-37053D01*
X51444Y-40318D02*
X51496Y-40226D01*
X51534Y-40318D02*
X51534Y-40123D01*
X51474Y-40123D01*
X51459Y-40133D01*
X51451Y-40142D01*
X51444Y-40161D01*
X51444Y-40188D01*
X51451Y-40207D01*
X51459Y-40216D01*
X51474Y-40226D01*
X51534Y-40226D01*
X51294Y-40318D02*
X51384Y-40318D01*
X51339Y-40318D02*
X51339Y-40123D01*
X51354Y-40151D01*
X51369Y-40170D01*
X51384Y-40179D01*
X51242Y-40123D02*
X51144Y-40123D01*
X51197Y-40198D01*
X51174Y-40198D01*
X51159Y-40207D01*
X51152Y-40216D01*
X51144Y-40235D01*
X51144Y-40281D01*
X51152Y-40300D01*
X51159Y-40309D01*
X51174Y-40318D01*
X51219Y-40318D01*
X51234Y-40309D01*
X51242Y-40300D01*
X51009Y-40188D02*
X51009Y-40318D01*
X51047Y-40114D02*
X51084Y-40253D01*
X50987Y-40253D01*
X54724Y-34278D02*
X54776Y-34186D01*
X54814Y-34278D02*
X54814Y-34083D01*
X54754Y-34083D01*
X54739Y-34093D01*
X54731Y-34102D01*
X54724Y-34121D01*
X54724Y-34148D01*
X54731Y-34167D01*
X54739Y-34176D01*
X54754Y-34186D01*
X54814Y-34186D01*
X54664Y-34102D02*
X54657Y-34093D01*
X54642Y-34083D01*
X54604Y-34083D01*
X54589Y-34093D01*
X54582Y-34102D01*
X54574Y-34121D01*
X54574Y-34139D01*
X54582Y-34167D01*
X54672Y-34278D01*
X54574Y-34278D01*
X54432Y-34083D02*
X54507Y-34083D01*
X54514Y-34176D01*
X54507Y-34167D01*
X54492Y-34158D01*
X54454Y-34158D01*
X54439Y-34167D01*
X54432Y-34176D01*
X54424Y-34195D01*
X54424Y-34241D01*
X54432Y-34260D01*
X54439Y-34269D01*
X54454Y-34278D01*
X54492Y-34278D01*
X54507Y-34269D01*
X54514Y-34260D01*
X59699Y-34833D02*
X59607Y-34781D01*
X59699Y-34743D02*
X59504Y-34743D01*
X59504Y-34803D01*
X59514Y-34818D01*
X59523Y-34826D01*
X59542Y-34833D01*
X59569Y-34833D01*
X59588Y-34826D01*
X59597Y-34818D01*
X59607Y-34803D01*
X59607Y-34743D01*
X59504Y-34885D02*
X59504Y-34983D01*
X59579Y-34930D01*
X59579Y-34953D01*
X59588Y-34968D01*
X59597Y-34975D01*
X59616Y-34983D01*
X59662Y-34983D01*
X59681Y-34975D01*
X59690Y-34968D01*
X59699Y-34953D01*
X59699Y-34908D01*
X59690Y-34893D01*
X59681Y-34885D01*
X60054Y-34833D02*
X59962Y-34781D01*
X60054Y-34743D02*
X59859Y-34743D01*
X59859Y-34803D01*
X59869Y-34818D01*
X59878Y-34826D01*
X59897Y-34833D01*
X59924Y-34833D01*
X59943Y-34826D01*
X59952Y-34818D01*
X59962Y-34803D01*
X59962Y-34743D01*
X59878Y-34893D02*
X59869Y-34900D01*
X59859Y-34915D01*
X59859Y-34953D01*
X59869Y-34968D01*
X59878Y-34975D01*
X59897Y-34983D01*
X59915Y-34983D01*
X59943Y-34975D01*
X60054Y-34885D01*
X60054Y-34983D01*
X58877Y-47427D02*
X58785Y-47375D01*
X58877Y-47337D02*
X58682Y-47337D01*
X58682Y-47397D01*
X58692Y-47412D01*
X58701Y-47420D01*
X58720Y-47427D01*
X58747Y-47427D01*
X58766Y-47420D01*
X58775Y-47412D01*
X58785Y-47397D01*
X58785Y-47337D01*
X58682Y-47562D02*
X58682Y-47532D01*
X58692Y-47517D01*
X58701Y-47509D01*
X58729Y-47494D01*
X58766Y-47487D01*
X58840Y-47487D01*
X58859Y-47494D01*
X58868Y-47502D01*
X58877Y-47517D01*
X58877Y-47547D01*
X58868Y-47562D01*
X58859Y-47569D01*
X58840Y-47577D01*
X58794Y-47577D01*
X58775Y-47569D01*
X58766Y-47562D01*
X58757Y-47547D01*
X58757Y-47517D01*
X58766Y-47502D01*
X58775Y-47494D01*
X58794Y-47487D01*
X58747Y-47712D02*
X58877Y-47712D01*
X58673Y-47674D02*
X58812Y-47637D01*
X58812Y-47734D01*
X59885Y-47419D02*
X59793Y-47367D01*
X59885Y-47329D02*
X59690Y-47329D01*
X59690Y-47389D01*
X59700Y-47404D01*
X59709Y-47412D01*
X59728Y-47419D01*
X59755Y-47419D01*
X59774Y-47412D01*
X59783Y-47404D01*
X59793Y-47389D01*
X59793Y-47329D01*
X59690Y-47561D02*
X59690Y-47486D01*
X59783Y-47479D01*
X59774Y-47486D01*
X59765Y-47501D01*
X59765Y-47539D01*
X59774Y-47554D01*
X59783Y-47561D01*
X59802Y-47569D01*
X59848Y-47569D01*
X59867Y-47561D01*
X59876Y-47554D01*
X59885Y-47539D01*
X59885Y-47501D01*
X59876Y-47486D01*
X59867Y-47479D01*
X59885Y-47644D02*
X59885Y-47674D01*
X59876Y-47689D01*
X59867Y-47696D01*
X59839Y-47711D01*
X59802Y-47719D01*
X59728Y-47719D01*
X59709Y-47711D01*
X59700Y-47704D01*
X59690Y-47689D01*
X59690Y-47659D01*
X59700Y-47644D01*
X59709Y-47636D01*
X59728Y-47629D01*
X59774Y-47629D01*
X59793Y-47636D01*
X59802Y-47644D01*
X59811Y-47659D01*
X59811Y-47689D01*
X59802Y-47704D01*
X59793Y-47711D01*
X59774Y-47719D01*
X61878Y-47501D02*
X61786Y-47449D01*
X61878Y-47411D02*
X61683Y-47411D01*
X61683Y-47471D01*
X61693Y-47486D01*
X61702Y-47494D01*
X61721Y-47501D01*
X61748Y-47501D01*
X61767Y-47494D01*
X61776Y-47486D01*
X61786Y-47471D01*
X61786Y-47411D01*
X61683Y-47636D02*
X61683Y-47606D01*
X61693Y-47591D01*
X61702Y-47583D01*
X61730Y-47568D01*
X61767Y-47561D01*
X61841Y-47561D01*
X61860Y-47568D01*
X61869Y-47576D01*
X61878Y-47591D01*
X61878Y-47621D01*
X61869Y-47636D01*
X61860Y-47643D01*
X61841Y-47651D01*
X61795Y-47651D01*
X61776Y-47643D01*
X61767Y-47636D01*
X61758Y-47621D01*
X61758Y-47591D01*
X61767Y-47576D01*
X61776Y-47568D01*
X61795Y-47561D01*
X61683Y-47748D02*
X61683Y-47763D01*
X61693Y-47778D01*
X61702Y-47786D01*
X61721Y-47793D01*
X61758Y-47801D01*
X61804Y-47801D01*
X61841Y-47793D01*
X61860Y-47786D01*
X61869Y-47778D01*
X61878Y-47763D01*
X61878Y-47748D01*
X61869Y-47733D01*
X61860Y-47726D01*
X61841Y-47718D01*
X61804Y-47711D01*
X61758Y-47711D01*
X61721Y-47718D01*
X61702Y-47726D01*
X61693Y-47733D01*
X61683Y-47748D01*
X62893Y-47463D02*
X62801Y-47411D01*
X62893Y-47373D02*
X62698Y-47373D01*
X62698Y-47433D01*
X62708Y-47448D01*
X62717Y-47456D01*
X62736Y-47463D01*
X62763Y-47463D01*
X62782Y-47456D01*
X62791Y-47448D01*
X62801Y-47433D01*
X62801Y-47373D01*
X62698Y-47598D02*
X62698Y-47568D01*
X62708Y-47553D01*
X62717Y-47545D01*
X62745Y-47530D01*
X62782Y-47523D01*
X62856Y-47523D01*
X62875Y-47530D01*
X62884Y-47538D01*
X62893Y-47553D01*
X62893Y-47583D01*
X62884Y-47598D01*
X62875Y-47605D01*
X62856Y-47613D01*
X62810Y-47613D01*
X62791Y-47605D01*
X62782Y-47598D01*
X62773Y-47583D01*
X62773Y-47553D01*
X62782Y-47538D01*
X62791Y-47530D01*
X62810Y-47523D01*
X62698Y-47665D02*
X62698Y-47763D01*
X62773Y-47710D01*
X62773Y-47733D01*
X62782Y-47748D01*
X62791Y-47755D01*
X62810Y-47763D01*
X62856Y-47763D01*
X62875Y-47755D01*
X62884Y-47748D01*
X62893Y-47733D01*
X62893Y-47688D01*
X62884Y-47673D01*
X62875Y-47665D01*
X56578Y-42124D02*
X56486Y-42072D01*
X56578Y-42034D02*
X56383Y-42034D01*
X56383Y-42094D01*
X56393Y-42109D01*
X56402Y-42117D01*
X56421Y-42124D01*
X56448Y-42124D01*
X56467Y-42117D01*
X56476Y-42109D01*
X56486Y-42094D01*
X56486Y-42034D01*
X56578Y-42199D02*
X56578Y-42229D01*
X56569Y-42244D01*
X56560Y-42251D01*
X56532Y-42266D01*
X56495Y-42274D01*
X56421Y-42274D01*
X56402Y-42266D01*
X56393Y-42259D01*
X56383Y-42244D01*
X56383Y-42214D01*
X56393Y-42199D01*
X56402Y-42191D01*
X56421Y-42184D01*
X56467Y-42184D01*
X56486Y-42191D01*
X56495Y-42199D01*
X56504Y-42214D01*
X56504Y-42244D01*
X56495Y-42259D01*
X56486Y-42266D01*
X56467Y-42274D01*
X58349Y-43027D02*
X58401Y-42935D01*
X58439Y-43027D02*
X58439Y-42832D01*
X58379Y-42832D01*
X58364Y-42842D01*
X58356Y-42851D01*
X58349Y-42870D01*
X58349Y-42897D01*
X58356Y-42916D01*
X58364Y-42925D01*
X58379Y-42935D01*
X58439Y-42935D01*
X58289Y-42851D02*
X58282Y-42842D01*
X58267Y-42832D01*
X58229Y-42832D01*
X58214Y-42842D01*
X58207Y-42851D01*
X58199Y-42870D01*
X58199Y-42888D01*
X58207Y-42916D01*
X58297Y-43027D01*
X58199Y-43027D01*
X58139Y-42851D02*
X58132Y-42842D01*
X58117Y-42832D01*
X58079Y-42832D01*
X58064Y-42842D01*
X58057Y-42851D01*
X58049Y-42870D01*
X58049Y-42888D01*
X58057Y-42916D01*
X58147Y-43027D01*
X58049Y-43027D01*
X55562Y-37452D02*
X55614Y-37360D01*
X55652Y-37452D02*
X55652Y-37257D01*
X55592Y-37257D01*
X55577Y-37267D01*
X55569Y-37276D01*
X55562Y-37295D01*
X55562Y-37322D01*
X55569Y-37341D01*
X55577Y-37350D01*
X55592Y-37360D01*
X55652Y-37360D01*
X55502Y-37276D02*
X55495Y-37267D01*
X55480Y-37257D01*
X55442Y-37257D01*
X55427Y-37267D01*
X55420Y-37276D01*
X55412Y-37295D01*
X55412Y-37313D01*
X55420Y-37341D01*
X55510Y-37452D01*
X55412Y-37452D01*
X55315Y-37257D02*
X55300Y-37257D01*
X55285Y-37267D01*
X55277Y-37276D01*
X55270Y-37295D01*
X55262Y-37332D01*
X55262Y-37378D01*
X55270Y-37415D01*
X55277Y-37434D01*
X55285Y-37443D01*
X55300Y-37452D01*
X55315Y-37452D01*
X55330Y-37443D01*
X55337Y-37434D01*
X55345Y-37415D01*
X55352Y-37378D01*
X55352Y-37332D01*
X55345Y-37295D01*
X55337Y-37276D01*
X55330Y-37267D01*
X55315Y-37257D01*
X55362Y-36309D02*
X55270Y-36257D01*
X55362Y-36219D02*
X55167Y-36219D01*
X55167Y-36279D01*
X55177Y-36294D01*
X55186Y-36302D01*
X55205Y-36309D01*
X55232Y-36309D01*
X55251Y-36302D01*
X55260Y-36294D01*
X55270Y-36279D01*
X55270Y-36219D01*
X55232Y-36444D02*
X55362Y-36444D01*
X55158Y-36406D02*
X55297Y-36369D01*
X55297Y-36466D01*
X55167Y-36556D02*
X55167Y-36571D01*
X55177Y-36586D01*
X55186Y-36594D01*
X55205Y-36601D01*
X55242Y-36609D01*
X55288Y-36609D01*
X55325Y-36601D01*
X55344Y-36594D01*
X55353Y-36586D01*
X55362Y-36571D01*
X55362Y-36556D01*
X55353Y-36541D01*
X55344Y-36534D01*
X55325Y-36526D01*
X55288Y-36519D01*
X55242Y-36519D01*
X55205Y-36526D01*
X55186Y-36534D01*
X55177Y-36541D01*
X55167Y-36556D01*
X60203Y-38326D02*
X60255Y-38234D01*
X60293Y-38326D02*
X60293Y-38131D01*
X60233Y-38131D01*
X60218Y-38141D01*
X60210Y-38150D01*
X60203Y-38169D01*
X60203Y-38196D01*
X60210Y-38215D01*
X60218Y-38224D01*
X60233Y-38234D01*
X60293Y-38234D01*
X60143Y-38150D02*
X60136Y-38141D01*
X60121Y-38131D01*
X60083Y-38131D01*
X60068Y-38141D01*
X60061Y-38150D01*
X60053Y-38169D01*
X60053Y-38187D01*
X60061Y-38215D01*
X60151Y-38326D01*
X60053Y-38326D01*
X59903Y-38326D02*
X59993Y-38326D01*
X59948Y-38326D02*
X59948Y-38131D01*
X59963Y-38159D01*
X59978Y-38178D01*
X59993Y-38187D01*
X60337Y-42441D02*
X60389Y-42349D01*
X60427Y-42441D02*
X60427Y-42246D01*
X60367Y-42246D01*
X60352Y-42256D01*
X60344Y-42265D01*
X60337Y-42284D01*
X60337Y-42311D01*
X60344Y-42330D01*
X60352Y-42339D01*
X60367Y-42349D01*
X60427Y-42349D01*
X60187Y-42441D02*
X60277Y-42441D01*
X60232Y-42441D02*
X60232Y-42246D01*
X60247Y-42274D01*
X60262Y-42293D01*
X60277Y-42302D01*
X60112Y-42441D02*
X60082Y-42441D01*
X60067Y-42432D01*
X60060Y-42423D01*
X60045Y-42395D01*
X60037Y-42358D01*
X60037Y-42284D01*
X60045Y-42265D01*
X60052Y-42256D01*
X60067Y-42246D01*
X60097Y-42246D01*
X60112Y-42256D01*
X60120Y-42265D01*
X60127Y-42284D01*
X60127Y-42330D01*
X60120Y-42349D01*
X60112Y-42358D01*
X60097Y-42367D01*
X60067Y-42367D01*
X60052Y-42358D01*
X60045Y-42349D01*
X60037Y-42330D01*
X60657Y-42114D02*
X60709Y-42022D01*
X60747Y-42114D02*
X60747Y-41919D01*
X60687Y-41919D01*
X60672Y-41929D01*
X60664Y-41938D01*
X60657Y-41957D01*
X60657Y-41984D01*
X60664Y-42003D01*
X60672Y-42012D01*
X60687Y-42022D01*
X60747Y-42022D01*
X60507Y-42114D02*
X60597Y-42114D01*
X60552Y-42114D02*
X60552Y-41919D01*
X60567Y-41947D01*
X60582Y-41966D01*
X60597Y-41975D01*
X60417Y-42003D02*
X60432Y-41994D01*
X60440Y-41984D01*
X60447Y-41966D01*
X60447Y-41957D01*
X60440Y-41938D01*
X60432Y-41929D01*
X60417Y-41919D01*
X60387Y-41919D01*
X60372Y-41929D01*
X60365Y-41938D01*
X60357Y-41957D01*
X60357Y-41966D01*
X60365Y-41984D01*
X60372Y-41994D01*
X60387Y-42003D01*
X60417Y-42003D01*
X60432Y-42012D01*
X60440Y-42022D01*
X60447Y-42040D01*
X60447Y-42077D01*
X60440Y-42096D01*
X60432Y-42105D01*
X60417Y-42114D01*
X60387Y-42114D01*
X60372Y-42105D01*
X60365Y-42096D01*
X60357Y-42077D01*
X60357Y-42040D01*
X60365Y-42022D01*
X60372Y-42012D01*
X60387Y-42003D01*
X62165Y-39589D02*
X62217Y-39497D01*
X62255Y-39589D02*
X62255Y-39394D01*
X62195Y-39394D01*
X62180Y-39404D01*
X62172Y-39413D01*
X62165Y-39432D01*
X62165Y-39459D01*
X62172Y-39478D01*
X62180Y-39487D01*
X62195Y-39497D01*
X62255Y-39497D01*
X62015Y-39589D02*
X62105Y-39589D01*
X62060Y-39589D02*
X62060Y-39394D01*
X62075Y-39422D01*
X62090Y-39441D01*
X62105Y-39450D01*
X61955Y-39413D02*
X61948Y-39404D01*
X61933Y-39394D01*
X61895Y-39394D01*
X61880Y-39404D01*
X61873Y-39413D01*
X61865Y-39432D01*
X61865Y-39450D01*
X61873Y-39478D01*
X61963Y-39589D01*
X61865Y-39589D01*
X60207Y-38704D02*
X60259Y-38612D01*
X60297Y-38704D02*
X60297Y-38509D01*
X60237Y-38509D01*
X60222Y-38519D01*
X60214Y-38528D01*
X60207Y-38547D01*
X60207Y-38574D01*
X60214Y-38593D01*
X60222Y-38602D01*
X60237Y-38612D01*
X60297Y-38612D01*
X60057Y-38704D02*
X60147Y-38704D01*
X60102Y-38704D02*
X60102Y-38509D01*
X60117Y-38537D01*
X60132Y-38556D01*
X60147Y-38565D01*
X59915Y-38509D02*
X59990Y-38509D01*
X59997Y-38602D01*
X59990Y-38593D01*
X59975Y-38584D01*
X59937Y-38584D01*
X59922Y-38593D01*
X59915Y-38602D01*
X59907Y-38621D01*
X59907Y-38667D01*
X59915Y-38686D01*
X59922Y-38695D01*
X59937Y-38704D01*
X59975Y-38704D01*
X59990Y-38695D01*
X59997Y-38686D01*
X60720Y-39336D02*
X60628Y-39284D01*
X60720Y-39246D02*
X60525Y-39246D01*
X60525Y-39306D01*
X60535Y-39321D01*
X60544Y-39329D01*
X60563Y-39336D01*
X60590Y-39336D01*
X60609Y-39329D01*
X60618Y-39321D01*
X60628Y-39306D01*
X60628Y-39246D01*
X60720Y-39486D02*
X60720Y-39396D01*
X60720Y-39441D02*
X60525Y-39441D01*
X60553Y-39426D01*
X60572Y-39411D01*
X60581Y-39396D01*
X60525Y-39538D02*
X60525Y-39636D01*
X60600Y-39583D01*
X60600Y-39606D01*
X60609Y-39621D01*
X60618Y-39628D01*
X60637Y-39636D01*
X60683Y-39636D01*
X60702Y-39628D01*
X60711Y-39621D01*
X60720Y-39606D01*
X60720Y-39561D01*
X60711Y-39546D01*
X60702Y-39538D01*
X60720Y-39711D02*
X60720Y-39741D01*
X60711Y-39756D01*
X60702Y-39763D01*
X60674Y-39778D01*
X60637Y-39786D01*
X60563Y-39786D01*
X60544Y-39778D01*
X60535Y-39771D01*
X60525Y-39756D01*
X60525Y-39726D01*
X60535Y-39711D01*
X60544Y-39703D01*
X60563Y-39696D01*
X60609Y-39696D01*
X60628Y-39703D01*
X60637Y-39711D01*
X60646Y-39726D01*
X60646Y-39756D01*
X60637Y-39771D01*
X60628Y-39778D01*
X60609Y-39786D01*
X60318Y-40197D02*
X60370Y-40105D01*
X60408Y-40197D02*
X60408Y-40002D01*
X60348Y-40002D01*
X60333Y-40012D01*
X60325Y-40021D01*
X60318Y-40040D01*
X60318Y-40067D01*
X60325Y-40086D01*
X60333Y-40095D01*
X60348Y-40105D01*
X60408Y-40105D01*
X60168Y-40197D02*
X60258Y-40197D01*
X60213Y-40197D02*
X60213Y-40002D01*
X60228Y-40030D01*
X60243Y-40049D01*
X60258Y-40058D01*
X60033Y-40002D02*
X60063Y-40002D01*
X60078Y-40012D01*
X60086Y-40021D01*
X60101Y-40049D01*
X60108Y-40086D01*
X60108Y-40160D01*
X60101Y-40179D01*
X60093Y-40188D01*
X60078Y-40197D01*
X60048Y-40197D01*
X60033Y-40188D01*
X60026Y-40179D01*
X60018Y-40160D01*
X60018Y-40114D01*
X60026Y-40095D01*
X60033Y-40086D01*
X60048Y-40077D01*
X60078Y-40077D01*
X60093Y-40086D01*
X60101Y-40095D01*
X60108Y-40114D01*
X59883Y-40067D02*
X59883Y-40197D01*
X59921Y-39993D02*
X59958Y-40132D01*
X59861Y-40132D01*
X62188Y-40457D02*
X62240Y-40365D01*
X62278Y-40457D02*
X62278Y-40262D01*
X62218Y-40262D01*
X62203Y-40272D01*
X62195Y-40281D01*
X62188Y-40300D01*
X62188Y-40327D01*
X62195Y-40346D01*
X62203Y-40355D01*
X62218Y-40365D01*
X62278Y-40365D01*
X62136Y-40262D02*
X62038Y-40262D01*
X62091Y-40337D01*
X62068Y-40337D01*
X62053Y-40346D01*
X62046Y-40355D01*
X62038Y-40374D01*
X62038Y-40420D01*
X62046Y-40439D01*
X62053Y-40448D01*
X62068Y-40457D01*
X62113Y-40457D01*
X62128Y-40448D01*
X62136Y-40439D01*
X61986Y-40262D02*
X61881Y-40262D01*
X61948Y-40457D01*
X61621Y-41317D02*
X61529Y-41265D01*
X61621Y-41227D02*
X61426Y-41227D01*
X61426Y-41287D01*
X61436Y-41302D01*
X61445Y-41310D01*
X61464Y-41317D01*
X61491Y-41317D01*
X61510Y-41310D01*
X61519Y-41302D01*
X61529Y-41287D01*
X61529Y-41227D01*
X61426Y-41452D02*
X61426Y-41422D01*
X61436Y-41407D01*
X61445Y-41399D01*
X61473Y-41384D01*
X61510Y-41377D01*
X61584Y-41377D01*
X61603Y-41384D01*
X61612Y-41392D01*
X61621Y-41407D01*
X61621Y-41437D01*
X61612Y-41452D01*
X61603Y-41459D01*
X61584Y-41467D01*
X61538Y-41467D01*
X61519Y-41459D01*
X61510Y-41452D01*
X61501Y-41437D01*
X61501Y-41407D01*
X61510Y-41392D01*
X61519Y-41384D01*
X61538Y-41377D01*
X56862Y-42115D02*
X56770Y-42063D01*
X56862Y-42025D02*
X56667Y-42025D01*
X56667Y-42085D01*
X56677Y-42100D01*
X56686Y-42108D01*
X56705Y-42115D01*
X56732Y-42115D01*
X56751Y-42108D01*
X56760Y-42100D01*
X56770Y-42085D01*
X56770Y-42025D01*
X56667Y-42167D02*
X56667Y-42272D01*
X56862Y-42205D01*
X60892Y-37606D02*
X60944Y-37514D01*
X60982Y-37606D02*
X60982Y-37411D01*
X60922Y-37411D01*
X60907Y-37421D01*
X60899Y-37430D01*
X60892Y-37449D01*
X60892Y-37476D01*
X60899Y-37495D01*
X60907Y-37504D01*
X60922Y-37514D01*
X60982Y-37514D01*
X60802Y-37495D02*
X60817Y-37486D01*
X60825Y-37476D01*
X60832Y-37458D01*
X60832Y-37449D01*
X60825Y-37430D01*
X60817Y-37421D01*
X60802Y-37411D01*
X60772Y-37411D01*
X60757Y-37421D01*
X60750Y-37430D01*
X60742Y-37449D01*
X60742Y-37458D01*
X60750Y-37476D01*
X60757Y-37486D01*
X60772Y-37495D01*
X60802Y-37495D01*
X60817Y-37504D01*
X60825Y-37514D01*
X60832Y-37532D01*
X60832Y-37569D01*
X60825Y-37588D01*
X60817Y-37597D01*
X60802Y-37606D01*
X60772Y-37606D01*
X60757Y-37597D01*
X60750Y-37588D01*
X60742Y-37569D01*
X60742Y-37532D01*
X60750Y-37514D01*
X60757Y-37504D01*
X60772Y-37495D01*
X52786Y-37031D02*
X52838Y-36939D01*
X52876Y-37031D02*
X52876Y-36836D01*
X52816Y-36836D01*
X52801Y-36846D01*
X52793Y-36855D01*
X52786Y-36874D01*
X52786Y-36901D01*
X52793Y-36920D01*
X52801Y-36929D01*
X52816Y-36939D01*
X52876Y-36939D01*
X52711Y-37031D02*
X52681Y-37031D01*
X52666Y-37022D01*
X52659Y-37013D01*
X52644Y-36985D01*
X52636Y-36948D01*
X52636Y-36874D01*
X52644Y-36855D01*
X52651Y-36846D01*
X52666Y-36836D01*
X52696Y-36836D01*
X52711Y-36846D01*
X52719Y-36855D01*
X52726Y-36874D01*
X52726Y-36920D01*
X52719Y-36939D01*
X52711Y-36948D01*
X52696Y-36957D01*
X52666Y-36957D01*
X52651Y-36948D01*
X52644Y-36939D01*
X52636Y-36920D01*
X52546Y-36920D02*
X52561Y-36911D01*
X52569Y-36901D01*
X52576Y-36883D01*
X52576Y-36874D01*
X52569Y-36855D01*
X52561Y-36846D01*
X52546Y-36836D01*
X52516Y-36836D01*
X52501Y-36846D01*
X52494Y-36855D01*
X52486Y-36874D01*
X52486Y-36883D01*
X52494Y-36901D01*
X52501Y-36911D01*
X52516Y-36920D01*
X52546Y-36920D01*
X52561Y-36929D01*
X52569Y-36939D01*
X52576Y-36957D01*
X52576Y-36994D01*
X52569Y-37013D01*
X52561Y-37022D01*
X52546Y-37031D01*
X52516Y-37031D01*
X52501Y-37022D01*
X52494Y-37013D01*
X52486Y-36994D01*
X52486Y-36957D01*
X52494Y-36939D01*
X52501Y-36929D01*
X52516Y-36920D01*
X60488Y-42871D02*
X60396Y-42819D01*
X60488Y-42781D02*
X60293Y-42781D01*
X60293Y-42841D01*
X60303Y-42856D01*
X60312Y-42864D01*
X60331Y-42871D01*
X60358Y-42871D01*
X60377Y-42864D01*
X60386Y-42856D01*
X60396Y-42841D01*
X60396Y-42781D01*
X60293Y-42923D02*
X60293Y-43028D01*
X60488Y-42961D01*
X60358Y-43156D02*
X60488Y-43156D01*
X60284Y-43118D02*
X60423Y-43081D01*
X60423Y-43178D01*
X61849Y-43342D02*
X61901Y-43250D01*
X61939Y-43342D02*
X61939Y-43147D01*
X61879Y-43147D01*
X61864Y-43157D01*
X61856Y-43166D01*
X61849Y-43185D01*
X61849Y-43212D01*
X61856Y-43231D01*
X61864Y-43240D01*
X61879Y-43250D01*
X61939Y-43250D01*
X61699Y-43342D02*
X61789Y-43342D01*
X61744Y-43342D02*
X61744Y-43147D01*
X61759Y-43175D01*
X61774Y-43194D01*
X61789Y-43203D01*
X61602Y-43147D02*
X61587Y-43147D01*
X61572Y-43157D01*
X61564Y-43166D01*
X61557Y-43185D01*
X61549Y-43222D01*
X61549Y-43268D01*
X61557Y-43305D01*
X61564Y-43324D01*
X61572Y-43333D01*
X61587Y-43342D01*
X61602Y-43342D01*
X61617Y-43333D01*
X61624Y-43324D01*
X61632Y-43305D01*
X61639Y-43268D01*
X61639Y-43222D01*
X61632Y-43185D01*
X61624Y-43166D01*
X61617Y-43157D01*
X61602Y-43147D01*
X61073Y-36819D02*
X61125Y-36727D01*
X61163Y-36819D02*
X61163Y-36624D01*
X61103Y-36624D01*
X61088Y-36634D01*
X61080Y-36643D01*
X61073Y-36662D01*
X61073Y-36689D01*
X61080Y-36708D01*
X61088Y-36717D01*
X61103Y-36727D01*
X61163Y-36727D01*
X61021Y-36624D02*
X60916Y-36624D01*
X60983Y-36819D01*
X60781Y-36624D02*
X60856Y-36624D01*
X60863Y-36717D01*
X60856Y-36708D01*
X60841Y-36699D01*
X60803Y-36699D01*
X60788Y-36708D01*
X60781Y-36717D01*
X60773Y-36736D01*
X60773Y-36782D01*
X60781Y-36801D01*
X60788Y-36810D01*
X60803Y-36819D01*
X60841Y-36819D01*
X60856Y-36810D01*
X60863Y-36801D01*
X61405Y-37470D02*
X61313Y-37418D01*
X61405Y-37380D02*
X61210Y-37380D01*
X61210Y-37440D01*
X61220Y-37455D01*
X61229Y-37463D01*
X61248Y-37470D01*
X61275Y-37470D01*
X61294Y-37463D01*
X61303Y-37455D01*
X61313Y-37440D01*
X61313Y-37380D01*
X61405Y-37620D02*
X61405Y-37530D01*
X61405Y-37575D02*
X61210Y-37575D01*
X61238Y-37560D01*
X61257Y-37545D01*
X61266Y-37530D01*
X61405Y-37770D02*
X61405Y-37680D01*
X61405Y-37725D02*
X61210Y-37725D01*
X61238Y-37710D01*
X61257Y-37695D01*
X61266Y-37680D01*
X57873Y-42923D02*
X57781Y-42871D01*
X57873Y-42833D02*
X57678Y-42833D01*
X57678Y-42893D01*
X57688Y-42908D01*
X57697Y-42916D01*
X57716Y-42923D01*
X57743Y-42923D01*
X57762Y-42916D01*
X57771Y-42908D01*
X57781Y-42893D01*
X57781Y-42833D01*
X57873Y-43073D02*
X57873Y-42983D01*
X57873Y-43028D02*
X57678Y-43028D01*
X57706Y-43013D01*
X57725Y-42998D01*
X57734Y-42983D01*
X57678Y-43125D02*
X57678Y-43223D01*
X57753Y-43170D01*
X57753Y-43193D01*
X57762Y-43208D01*
X57771Y-43215D01*
X57790Y-43223D01*
X57836Y-43223D01*
X57855Y-43215D01*
X57864Y-43208D01*
X57873Y-43193D01*
X57873Y-43148D01*
X57864Y-43133D01*
X57855Y-43125D01*
X62172Y-39909D02*
X62224Y-39817D01*
X62262Y-39909D02*
X62262Y-39714D01*
X62202Y-39714D01*
X62187Y-39724D01*
X62179Y-39733D01*
X62172Y-39752D01*
X62172Y-39779D01*
X62179Y-39798D01*
X62187Y-39807D01*
X62202Y-39817D01*
X62262Y-39817D01*
X62082Y-39798D02*
X62097Y-39789D01*
X62105Y-39779D01*
X62112Y-39761D01*
X62112Y-39752D01*
X62105Y-39733D01*
X62097Y-39724D01*
X62082Y-39714D01*
X62052Y-39714D01*
X62037Y-39724D01*
X62030Y-39733D01*
X62022Y-39752D01*
X62022Y-39761D01*
X62030Y-39779D01*
X62037Y-39789D01*
X62052Y-39798D01*
X62082Y-39798D01*
X62097Y-39807D01*
X62105Y-39817D01*
X62112Y-39835D01*
X62112Y-39872D01*
X62105Y-39891D01*
X62097Y-39900D01*
X62082Y-39909D01*
X62052Y-39909D01*
X62037Y-39900D01*
X62030Y-39891D01*
X62022Y-39872D01*
X62022Y-39835D01*
X62030Y-39817D01*
X62037Y-39807D01*
X62052Y-39798D01*
X61970Y-39714D02*
X61865Y-39714D01*
X61932Y-39909D01*
X55850Y-38618D02*
X55902Y-38526D01*
X55940Y-38618D02*
X55940Y-38423D01*
X55880Y-38423D01*
X55865Y-38433D01*
X55857Y-38442D01*
X55850Y-38461D01*
X55850Y-38488D01*
X55857Y-38507D01*
X55865Y-38516D01*
X55880Y-38526D01*
X55940Y-38526D01*
X55715Y-38488D02*
X55715Y-38618D01*
X55753Y-38414D02*
X55790Y-38553D01*
X55693Y-38553D01*
X55640Y-38442D02*
X55633Y-38433D01*
X55618Y-38423D01*
X55580Y-38423D01*
X55565Y-38433D01*
X55558Y-38442D01*
X55550Y-38461D01*
X55550Y-38479D01*
X55558Y-38507D01*
X55648Y-38618D01*
X55550Y-38618D01*
X55869Y-43143D02*
X55777Y-43091D01*
X55869Y-43053D02*
X55674Y-43053D01*
X55674Y-43113D01*
X55684Y-43128D01*
X55693Y-43136D01*
X55712Y-43143D01*
X55739Y-43143D01*
X55758Y-43136D01*
X55767Y-43128D01*
X55777Y-43113D01*
X55777Y-43053D01*
X55869Y-43293D02*
X55869Y-43203D01*
X55869Y-43248D02*
X55674Y-43248D01*
X55702Y-43233D01*
X55721Y-43218D01*
X55730Y-43203D01*
X55674Y-43435D02*
X55674Y-43360D01*
X55767Y-43353D01*
X55758Y-43360D01*
X55749Y-43375D01*
X55749Y-43413D01*
X55758Y-43428D01*
X55767Y-43435D01*
X55786Y-43443D01*
X55832Y-43443D01*
X55851Y-43435D01*
X55860Y-43428D01*
X55869Y-43413D01*
X55869Y-43375D01*
X55860Y-43360D01*
X55851Y-43353D01*
X55674Y-43495D02*
X55674Y-43593D01*
X55749Y-43540D01*
X55749Y-43563D01*
X55758Y-43578D01*
X55767Y-43585D01*
X55786Y-43593D01*
X55832Y-43593D01*
X55851Y-43585D01*
X55860Y-43578D01*
X55869Y-43563D01*
X55869Y-43518D01*
X55860Y-43503D01*
X55851Y-43495D01*
X51329Y-33881D02*
X51381Y-33789D01*
X51419Y-33881D02*
X51419Y-33686D01*
X51359Y-33686D01*
X51344Y-33696D01*
X51336Y-33705D01*
X51329Y-33724D01*
X51329Y-33751D01*
X51336Y-33770D01*
X51344Y-33779D01*
X51359Y-33789D01*
X51419Y-33789D01*
X51239Y-33770D02*
X51254Y-33761D01*
X51262Y-33751D01*
X51269Y-33733D01*
X51269Y-33724D01*
X51262Y-33705D01*
X51254Y-33696D01*
X51239Y-33686D01*
X51209Y-33686D01*
X51194Y-33696D01*
X51187Y-33705D01*
X51179Y-33724D01*
X51179Y-33733D01*
X51187Y-33751D01*
X51194Y-33761D01*
X51209Y-33770D01*
X51239Y-33770D01*
X51254Y-33779D01*
X51262Y-33789D01*
X51269Y-33807D01*
X51269Y-33844D01*
X51262Y-33863D01*
X51254Y-33872D01*
X51239Y-33881D01*
X51209Y-33881D01*
X51194Y-33872D01*
X51187Y-33863D01*
X51179Y-33844D01*
X51179Y-33807D01*
X51187Y-33789D01*
X51194Y-33779D01*
X51209Y-33770D01*
X51127Y-33686D02*
X51029Y-33686D01*
X51082Y-33761D01*
X51059Y-33761D01*
X51044Y-33770D01*
X51037Y-33779D01*
X51029Y-33798D01*
X51029Y-33844D01*
X51037Y-33863D01*
X51044Y-33872D01*
X51059Y-33881D01*
X51104Y-33881D01*
X51119Y-33872D01*
X51127Y-33863D01*
X51329Y-34177D02*
X51381Y-34085D01*
X51419Y-34177D02*
X51419Y-33982D01*
X51359Y-33982D01*
X51344Y-33992D01*
X51336Y-34001D01*
X51329Y-34020D01*
X51329Y-34047D01*
X51336Y-34066D01*
X51344Y-34075D01*
X51359Y-34085D01*
X51419Y-34085D01*
X51269Y-34001D02*
X51262Y-33992D01*
X51247Y-33982D01*
X51209Y-33982D01*
X51194Y-33992D01*
X51187Y-34001D01*
X51179Y-34020D01*
X51179Y-34038D01*
X51187Y-34066D01*
X51277Y-34177D01*
X51179Y-34177D01*
X51044Y-34047D02*
X51044Y-34177D01*
X51082Y-33973D02*
X51119Y-34112D01*
X51022Y-34112D01*
X52786Y-37602D02*
X52838Y-37510D01*
X52876Y-37602D02*
X52876Y-37407D01*
X52816Y-37407D01*
X52801Y-37417D01*
X52793Y-37426D01*
X52786Y-37445D01*
X52786Y-37472D01*
X52793Y-37491D01*
X52801Y-37500D01*
X52816Y-37510D01*
X52876Y-37510D01*
X52696Y-37491D02*
X52711Y-37482D01*
X52719Y-37472D01*
X52726Y-37454D01*
X52726Y-37445D01*
X52719Y-37426D01*
X52711Y-37417D01*
X52696Y-37407D01*
X52666Y-37407D01*
X52651Y-37417D01*
X52644Y-37426D01*
X52636Y-37445D01*
X52636Y-37454D01*
X52644Y-37472D01*
X52651Y-37482D01*
X52666Y-37491D01*
X52696Y-37491D01*
X52711Y-37500D01*
X52719Y-37510D01*
X52726Y-37528D01*
X52726Y-37565D01*
X52719Y-37584D01*
X52711Y-37593D01*
X52696Y-37602D01*
X52666Y-37602D01*
X52651Y-37593D01*
X52644Y-37584D01*
X52636Y-37565D01*
X52636Y-37528D01*
X52644Y-37510D01*
X52651Y-37500D01*
X52666Y-37491D01*
X52494Y-37407D02*
X52569Y-37407D01*
X52576Y-37500D01*
X52569Y-37491D01*
X52554Y-37482D01*
X52516Y-37482D01*
X52501Y-37491D01*
X52494Y-37500D01*
X52486Y-37519D01*
X52486Y-37565D01*
X52494Y-37584D01*
X52501Y-37593D01*
X52516Y-37602D01*
X52554Y-37602D01*
X52569Y-37593D01*
X52576Y-37584D01*
X51444Y-39708D02*
X51496Y-39616D01*
X51534Y-39708D02*
X51534Y-39513D01*
X51474Y-39513D01*
X51459Y-39523D01*
X51451Y-39532D01*
X51444Y-39551D01*
X51444Y-39578D01*
X51451Y-39597D01*
X51459Y-39606D01*
X51474Y-39616D01*
X51534Y-39616D01*
X51294Y-39708D02*
X51384Y-39708D01*
X51339Y-39708D02*
X51339Y-39513D01*
X51354Y-39541D01*
X51369Y-39560D01*
X51384Y-39569D01*
X51242Y-39513D02*
X51144Y-39513D01*
X51197Y-39588D01*
X51174Y-39588D01*
X51159Y-39597D01*
X51152Y-39606D01*
X51144Y-39625D01*
X51144Y-39671D01*
X51152Y-39690D01*
X51159Y-39699D01*
X51174Y-39708D01*
X51219Y-39708D01*
X51234Y-39699D01*
X51242Y-39690D01*
X51092Y-39513D02*
X50994Y-39513D01*
X51047Y-39588D01*
X51024Y-39588D01*
X51009Y-39597D01*
X51002Y-39606D01*
X50994Y-39625D01*
X50994Y-39671D01*
X51002Y-39690D01*
X51009Y-39699D01*
X51024Y-39708D01*
X51069Y-39708D01*
X51084Y-39699D01*
X51092Y-39690D01*
X52747Y-36559D02*
X52799Y-36467D01*
X52837Y-36559D02*
X52837Y-36364D01*
X52777Y-36364D01*
X52762Y-36374D01*
X52754Y-36383D01*
X52747Y-36402D01*
X52747Y-36429D01*
X52754Y-36448D01*
X52762Y-36457D01*
X52777Y-36467D01*
X52837Y-36467D01*
X52672Y-36559D02*
X52642Y-36559D01*
X52627Y-36550D01*
X52620Y-36541D01*
X52605Y-36513D01*
X52597Y-36476D01*
X52597Y-36402D01*
X52605Y-36383D01*
X52612Y-36374D01*
X52627Y-36364D01*
X52657Y-36364D01*
X52672Y-36374D01*
X52680Y-36383D01*
X52687Y-36402D01*
X52687Y-36448D01*
X52680Y-36467D01*
X52672Y-36476D01*
X52657Y-36485D01*
X52627Y-36485D01*
X52612Y-36476D01*
X52605Y-36467D01*
X52597Y-36448D01*
X52462Y-36429D02*
X52462Y-36559D01*
X52500Y-36355D02*
X52537Y-36494D01*
X52440Y-36494D01*
X56900Y-43243D02*
X56952Y-43151D01*
X56990Y-43243D02*
X56990Y-43048D01*
X56930Y-43048D01*
X56915Y-43058D01*
X56907Y-43067D01*
X56900Y-43086D01*
X56900Y-43113D01*
X56907Y-43132D01*
X56915Y-43141D01*
X56930Y-43151D01*
X56990Y-43151D01*
X56848Y-43048D02*
X56750Y-43048D01*
X56803Y-43123D01*
X56780Y-43123D01*
X56765Y-43132D01*
X56758Y-43141D01*
X56750Y-43160D01*
X56750Y-43206D01*
X56758Y-43225D01*
X56765Y-43234D01*
X56780Y-43243D01*
X56825Y-43243D01*
X56840Y-43234D01*
X56848Y-43225D01*
X56608Y-43048D02*
X56683Y-43048D01*
X56690Y-43141D01*
X56683Y-43132D01*
X56668Y-43123D01*
X56630Y-43123D01*
X56615Y-43132D01*
X56608Y-43141D01*
X56600Y-43160D01*
X56600Y-43206D01*
X56608Y-43225D01*
X56615Y-43234D01*
X56630Y-43243D01*
X56668Y-43243D01*
X56683Y-43234D01*
X56690Y-43225D01*
X57559Y-41998D02*
X57467Y-41946D01*
X57559Y-41908D02*
X57364Y-41908D01*
X57364Y-41968D01*
X57374Y-41983D01*
X57383Y-41991D01*
X57402Y-41998D01*
X57429Y-41998D01*
X57448Y-41991D01*
X57457Y-41983D01*
X57467Y-41968D01*
X57467Y-41908D01*
X57364Y-42050D02*
X57364Y-42148D01*
X57439Y-42095D01*
X57439Y-42118D01*
X57448Y-42133D01*
X57457Y-42140D01*
X57476Y-42148D01*
X57522Y-42148D01*
X57541Y-42140D01*
X57550Y-42133D01*
X57559Y-42118D01*
X57559Y-42073D01*
X57550Y-42058D01*
X57541Y-42050D01*
X57364Y-42283D02*
X57364Y-42253D01*
X57374Y-42238D01*
X57383Y-42230D01*
X57411Y-42215D01*
X57448Y-42208D01*
X57522Y-42208D01*
X57541Y-42215D01*
X57550Y-42223D01*
X57559Y-42238D01*
X57559Y-42268D01*
X57550Y-42283D01*
X57541Y-42290D01*
X57522Y-42298D01*
X57476Y-42298D01*
X57457Y-42290D01*
X57448Y-42283D01*
X57439Y-42268D01*
X57439Y-42238D01*
X57448Y-42223D01*
X57457Y-42215D01*
X57476Y-42208D01*
X51238Y-42986D02*
X51247Y-42979D01*
X51256Y-42956D01*
X51256Y-42941D01*
X51247Y-42919D01*
X51229Y-42904D01*
X51210Y-42896D01*
X51173Y-42889D01*
X51145Y-42889D01*
X51108Y-42896D01*
X51089Y-42904D01*
X51071Y-42919D01*
X51061Y-42941D01*
X51061Y-42956D01*
X51071Y-42979D01*
X51080Y-42986D01*
X51145Y-43076D02*
X51136Y-43061D01*
X51126Y-43053D01*
X51108Y-43046D01*
X51099Y-43046D01*
X51080Y-43053D01*
X51071Y-43061D01*
X51061Y-43076D01*
X51061Y-43106D01*
X51071Y-43121D01*
X51080Y-43128D01*
X51099Y-43136D01*
X51108Y-43136D01*
X51126Y-43128D01*
X51136Y-43121D01*
X51145Y-43106D01*
X51145Y-43076D01*
X51154Y-43061D01*
X51164Y-43053D01*
X51182Y-43046D01*
X51219Y-43046D01*
X51238Y-43053D01*
X51247Y-43061D01*
X51256Y-43076D01*
X51256Y-43106D01*
X51247Y-43121D01*
X51238Y-43128D01*
X51219Y-43136D01*
X51182Y-43136D01*
X51164Y-43128D01*
X51154Y-43121D01*
X51145Y-43106D01*
X51061Y-43188D02*
X51061Y-43286D01*
X51136Y-43233D01*
X51136Y-43256D01*
X51145Y-43271D01*
X51154Y-43278D01*
X51173Y-43286D01*
X51219Y-43286D01*
X51238Y-43278D01*
X51247Y-43271D01*
X51256Y-43256D01*
X51256Y-43211D01*
X51247Y-43196D01*
X51238Y-43188D01*
X60389Y-36744D02*
X60396Y-36753D01*
X60419Y-36762D01*
X60434Y-36762D01*
X60456Y-36753D01*
X60471Y-36735D01*
X60479Y-36716D01*
X60486Y-36679D01*
X60486Y-36651D01*
X60479Y-36614D01*
X60471Y-36595D01*
X60456Y-36577D01*
X60434Y-36567D01*
X60419Y-36567D01*
X60396Y-36577D01*
X60389Y-36586D01*
X60329Y-36586D02*
X60322Y-36577D01*
X60307Y-36567D01*
X60269Y-36567D01*
X60254Y-36577D01*
X60247Y-36586D01*
X60239Y-36605D01*
X60239Y-36623D01*
X60247Y-36651D01*
X60337Y-36762D01*
X60239Y-36762D01*
X60179Y-36586D02*
X60172Y-36577D01*
X60157Y-36567D01*
X60119Y-36567D01*
X60104Y-36577D01*
X60097Y-36586D01*
X60089Y-36605D01*
X60089Y-36623D01*
X60097Y-36651D01*
X60187Y-36762D01*
X60089Y-36762D01*
X60037Y-36567D02*
X59939Y-36567D01*
X59992Y-36642D01*
X59969Y-36642D01*
X59954Y-36651D01*
X59947Y-36660D01*
X59939Y-36679D01*
X59939Y-36725D01*
X59947Y-36744D01*
X59954Y-36753D01*
X59969Y-36762D01*
X60014Y-36762D01*
X60029Y-36753D01*
X60037Y-36744D01*
X53629Y-47993D02*
X53636Y-48002D01*
X53659Y-48011D01*
X53674Y-48011D01*
X53696Y-48002D01*
X53711Y-47984D01*
X53719Y-47965D01*
X53726Y-47928D01*
X53726Y-47900D01*
X53719Y-47863D01*
X53711Y-47844D01*
X53696Y-47826D01*
X53674Y-47816D01*
X53659Y-47816D01*
X53636Y-47826D01*
X53629Y-47835D01*
X53487Y-47816D02*
X53562Y-47816D01*
X53569Y-47909D01*
X53562Y-47900D01*
X53547Y-47891D01*
X53509Y-47891D01*
X53494Y-47900D01*
X53487Y-47909D01*
X53479Y-47928D01*
X53479Y-47974D01*
X53487Y-47993D01*
X53494Y-48002D01*
X53509Y-48011D01*
X53547Y-48011D01*
X53562Y-48002D01*
X53569Y-47993D01*
X53419Y-47835D02*
X53412Y-47826D01*
X53397Y-47816D01*
X53359Y-47816D01*
X53344Y-47826D01*
X53337Y-47835D01*
X53329Y-47854D01*
X53329Y-47872D01*
X53337Y-47900D01*
X53427Y-48011D01*
X53329Y-48011D01*
X61444Y-42611D02*
X61451Y-42620D01*
X61474Y-42629D01*
X61489Y-42629D01*
X61511Y-42620D01*
X61526Y-42602D01*
X61534Y-42583D01*
X61541Y-42546D01*
X61541Y-42518D01*
X61534Y-42481D01*
X61526Y-42462D01*
X61511Y-42444D01*
X61489Y-42434D01*
X61474Y-42434D01*
X61451Y-42444D01*
X61444Y-42453D01*
X61384Y-42453D02*
X61377Y-42444D01*
X61362Y-42434D01*
X61324Y-42434D01*
X61309Y-42444D01*
X61302Y-42453D01*
X61294Y-42472D01*
X61294Y-42490D01*
X61302Y-42518D01*
X61392Y-42629D01*
X61294Y-42629D01*
X61234Y-42453D02*
X61227Y-42444D01*
X61212Y-42434D01*
X61174Y-42434D01*
X61159Y-42444D01*
X61152Y-42453D01*
X61144Y-42472D01*
X61144Y-42490D01*
X61152Y-42518D01*
X61242Y-42629D01*
X61144Y-42629D01*
X61084Y-42453D02*
X61077Y-42444D01*
X61062Y-42434D01*
X61024Y-42434D01*
X61009Y-42444D01*
X61002Y-42453D01*
X60994Y-42472D01*
X60994Y-42490D01*
X61002Y-42518D01*
X61092Y-42629D01*
X60994Y-42629D01*
X51564Y-45395D02*
X51573Y-45388D01*
X51582Y-45365D01*
X51582Y-45350D01*
X51573Y-45328D01*
X51555Y-45313D01*
X51536Y-45305D01*
X51499Y-45298D01*
X51471Y-45298D01*
X51434Y-45305D01*
X51415Y-45313D01*
X51397Y-45328D01*
X51387Y-45350D01*
X51387Y-45365D01*
X51397Y-45388D01*
X51406Y-45395D01*
X51406Y-45455D02*
X51397Y-45462D01*
X51387Y-45477D01*
X51387Y-45515D01*
X51397Y-45530D01*
X51406Y-45537D01*
X51425Y-45545D01*
X51443Y-45545D01*
X51471Y-45537D01*
X51582Y-45447D01*
X51582Y-45545D01*
X51406Y-45605D02*
X51397Y-45612D01*
X51387Y-45627D01*
X51387Y-45665D01*
X51397Y-45680D01*
X51406Y-45687D01*
X51425Y-45695D01*
X51443Y-45695D01*
X51471Y-45687D01*
X51582Y-45597D01*
X51582Y-45695D01*
X61288Y-40647D02*
X61297Y-40640D01*
X61306Y-40617D01*
X61306Y-40602D01*
X61297Y-40580D01*
X61279Y-40565D01*
X61260Y-40557D01*
X61223Y-40550D01*
X61195Y-40550D01*
X61158Y-40557D01*
X61139Y-40565D01*
X61121Y-40580D01*
X61111Y-40602D01*
X61111Y-40617D01*
X61121Y-40640D01*
X61130Y-40647D01*
X61130Y-40707D02*
X61121Y-40714D01*
X61111Y-40729D01*
X61111Y-40767D01*
X61121Y-40782D01*
X61130Y-40789D01*
X61149Y-40797D01*
X61167Y-40797D01*
X61195Y-40789D01*
X61306Y-40699D01*
X61306Y-40797D01*
X61306Y-40947D02*
X61306Y-40857D01*
X61306Y-40902D02*
X61111Y-40902D01*
X61139Y-40887D01*
X61158Y-40872D01*
X61167Y-40857D01*
X61306Y-41022D02*
X61306Y-41052D01*
X61297Y-41067D01*
X61288Y-41074D01*
X61260Y-41089D01*
X61223Y-41097D01*
X61149Y-41097D01*
X61130Y-41089D01*
X61121Y-41082D01*
X61111Y-41067D01*
X61111Y-41037D01*
X61121Y-41022D01*
X61130Y-41014D01*
X61149Y-41007D01*
X61195Y-41007D01*
X61214Y-41014D01*
X61223Y-41022D01*
X61232Y-41037D01*
X61232Y-41067D01*
X61223Y-41082D01*
X61214Y-41089D01*
X61195Y-41097D01*
X61016Y-39344D02*
X61025Y-39337D01*
X61034Y-39314D01*
X61034Y-39299D01*
X61025Y-39277D01*
X61007Y-39262D01*
X60988Y-39254D01*
X60951Y-39247D01*
X60923Y-39247D01*
X60886Y-39254D01*
X60867Y-39262D01*
X60849Y-39277D01*
X60839Y-39299D01*
X60839Y-39314D01*
X60849Y-39337D01*
X60858Y-39344D01*
X60858Y-39404D02*
X60849Y-39411D01*
X60839Y-39426D01*
X60839Y-39464D01*
X60849Y-39479D01*
X60858Y-39486D01*
X60877Y-39494D01*
X60895Y-39494D01*
X60923Y-39486D01*
X61034Y-39396D01*
X61034Y-39494D01*
X60858Y-39554D02*
X60849Y-39561D01*
X60839Y-39576D01*
X60839Y-39614D01*
X60849Y-39629D01*
X60858Y-39636D01*
X60877Y-39644D01*
X60895Y-39644D01*
X60923Y-39636D01*
X61034Y-39546D01*
X61034Y-39644D01*
X60904Y-39779D02*
X61034Y-39779D01*
X60830Y-39741D02*
X60969Y-39704D01*
X60969Y-39801D01*
X60965Y-40805D02*
X60974Y-40798D01*
X60983Y-40775D01*
X60983Y-40760D01*
X60974Y-40738D01*
X60956Y-40723D01*
X60937Y-40715D01*
X60900Y-40708D01*
X60872Y-40708D01*
X60835Y-40715D01*
X60816Y-40723D01*
X60798Y-40738D01*
X60788Y-40760D01*
X60788Y-40775D01*
X60798Y-40798D01*
X60807Y-40805D01*
X60788Y-40947D02*
X60788Y-40872D01*
X60881Y-40865D01*
X60872Y-40872D01*
X60863Y-40887D01*
X60863Y-40925D01*
X60872Y-40940D01*
X60881Y-40947D01*
X60900Y-40955D01*
X60946Y-40955D01*
X60965Y-40947D01*
X60974Y-40940D01*
X60983Y-40925D01*
X60983Y-40887D01*
X60974Y-40872D01*
X60965Y-40865D01*
X60788Y-41007D02*
X60788Y-41105D01*
X60863Y-41052D01*
X60863Y-41075D01*
X60872Y-41090D01*
X60881Y-41097D01*
X60900Y-41105D01*
X60946Y-41105D01*
X60965Y-41097D01*
X60974Y-41090D01*
X60983Y-41075D01*
X60983Y-41030D01*
X60974Y-41015D01*
X60965Y-41007D01*
X61455Y-38698D02*
X61462Y-38707D01*
X61485Y-38716D01*
X61500Y-38716D01*
X61522Y-38707D01*
X61537Y-38689D01*
X61545Y-38670D01*
X61552Y-38633D01*
X61552Y-38605D01*
X61545Y-38568D01*
X61537Y-38549D01*
X61522Y-38531D01*
X61500Y-38521D01*
X61485Y-38521D01*
X61462Y-38531D01*
X61455Y-38540D01*
X61313Y-38521D02*
X61388Y-38521D01*
X61395Y-38614D01*
X61388Y-38605D01*
X61373Y-38596D01*
X61335Y-38596D01*
X61320Y-38605D01*
X61313Y-38614D01*
X61305Y-38633D01*
X61305Y-38679D01*
X61313Y-38698D01*
X61320Y-38707D01*
X61335Y-38716D01*
X61373Y-38716D01*
X61388Y-38707D01*
X61395Y-38698D01*
X61163Y-38521D02*
X61238Y-38521D01*
X61245Y-38614D01*
X61238Y-38605D01*
X61223Y-38596D01*
X61185Y-38596D01*
X61170Y-38605D01*
X61163Y-38614D01*
X61155Y-38633D01*
X61155Y-38679D01*
X61163Y-38698D01*
X61170Y-38707D01*
X61185Y-38716D01*
X61223Y-38716D01*
X61238Y-38707D01*
X61245Y-38698D01*
X56432Y-41368D02*
X56439Y-41377D01*
X56462Y-41386D01*
X56477Y-41386D01*
X56499Y-41377D01*
X56514Y-41359D01*
X56522Y-41340D01*
X56529Y-41303D01*
X56529Y-41275D01*
X56522Y-41238D01*
X56514Y-41219D01*
X56499Y-41201D01*
X56477Y-41191D01*
X56462Y-41191D01*
X56439Y-41201D01*
X56432Y-41210D01*
X56372Y-41210D02*
X56365Y-41201D01*
X56350Y-41191D01*
X56312Y-41191D01*
X56297Y-41201D01*
X56290Y-41210D01*
X56282Y-41229D01*
X56282Y-41247D01*
X56290Y-41275D01*
X56380Y-41386D01*
X56282Y-41386D01*
X56132Y-41386D02*
X56222Y-41386D01*
X56177Y-41386D02*
X56177Y-41191D01*
X56192Y-41219D01*
X56207Y-41238D01*
X56222Y-41247D01*
X56042Y-41275D02*
X56057Y-41266D01*
X56065Y-41256D01*
X56072Y-41238D01*
X56072Y-41229D01*
X56065Y-41210D01*
X56057Y-41201D01*
X56042Y-41191D01*
X56012Y-41191D01*
X55997Y-41201D01*
X55990Y-41210D01*
X55982Y-41229D01*
X55982Y-41238D01*
X55990Y-41256D01*
X55997Y-41266D01*
X56012Y-41275D01*
X56042Y-41275D01*
X56057Y-41284D01*
X56065Y-41294D01*
X56072Y-41312D01*
X56072Y-41349D01*
X56065Y-41368D01*
X56057Y-41377D01*
X56042Y-41386D01*
X56012Y-41386D01*
X55997Y-41377D01*
X55990Y-41368D01*
X55982Y-41349D01*
X55982Y-41312D01*
X55990Y-41294D01*
X55997Y-41284D01*
X56012Y-41275D01*
X60369Y-38993D02*
X60376Y-39002D01*
X60399Y-39011D01*
X60414Y-39011D01*
X60436Y-39002D01*
X60451Y-38984D01*
X60459Y-38965D01*
X60466Y-38928D01*
X60466Y-38900D01*
X60459Y-38863D01*
X60451Y-38844D01*
X60436Y-38826D01*
X60414Y-38816D01*
X60399Y-38816D01*
X60376Y-38826D01*
X60369Y-38835D01*
X60309Y-38835D02*
X60302Y-38826D01*
X60287Y-38816D01*
X60249Y-38816D01*
X60234Y-38826D01*
X60227Y-38835D01*
X60219Y-38854D01*
X60219Y-38872D01*
X60227Y-38900D01*
X60317Y-39011D01*
X60219Y-39011D01*
X60159Y-38835D02*
X60152Y-38826D01*
X60137Y-38816D01*
X60099Y-38816D01*
X60084Y-38826D01*
X60077Y-38835D01*
X60069Y-38854D01*
X60069Y-38872D01*
X60077Y-38900D01*
X60167Y-39011D01*
X60069Y-39011D01*
X59972Y-38816D02*
X59957Y-38816D01*
X59942Y-38826D01*
X59934Y-38835D01*
X59927Y-38854D01*
X59919Y-38891D01*
X59919Y-38937D01*
X59927Y-38974D01*
X59934Y-38993D01*
X59942Y-39002D01*
X59957Y-39011D01*
X59972Y-39011D01*
X59987Y-39002D01*
X59994Y-38993D01*
X60002Y-38974D01*
X60009Y-38937D01*
X60009Y-38891D01*
X60002Y-38854D01*
X59994Y-38835D01*
X59987Y-38826D01*
X59972Y-38816D01*
X56115Y-42112D02*
X56124Y-42105D01*
X56133Y-42082D01*
X56133Y-42067D01*
X56124Y-42045D01*
X56106Y-42030D01*
X56087Y-42022D01*
X56050Y-42015D01*
X56022Y-42015D01*
X55985Y-42022D01*
X55966Y-42030D01*
X55948Y-42045D01*
X55938Y-42067D01*
X55938Y-42082D01*
X55948Y-42105D01*
X55957Y-42112D01*
X56133Y-42262D02*
X56133Y-42172D01*
X56133Y-42217D02*
X55938Y-42217D01*
X55966Y-42202D01*
X55985Y-42187D01*
X55994Y-42172D01*
X54495Y-43533D02*
X54502Y-43542D01*
X54525Y-43551D01*
X54540Y-43551D01*
X54562Y-43542D01*
X54577Y-43524D01*
X54585Y-43505D01*
X54592Y-43468D01*
X54592Y-43440D01*
X54585Y-43403D01*
X54577Y-43384D01*
X54562Y-43366D01*
X54540Y-43356D01*
X54525Y-43356D01*
X54502Y-43366D01*
X54495Y-43375D01*
X54345Y-43551D02*
X54435Y-43551D01*
X54390Y-43551D02*
X54390Y-43356D01*
X54405Y-43384D01*
X54420Y-43403D01*
X54435Y-43412D01*
X54293Y-43356D02*
X54195Y-43356D01*
X54248Y-43431D01*
X54225Y-43431D01*
X54210Y-43440D01*
X54203Y-43449D01*
X54195Y-43468D01*
X54195Y-43514D01*
X54203Y-43533D01*
X54210Y-43542D01*
X54225Y-43551D01*
X54270Y-43551D01*
X54285Y-43542D01*
X54293Y-43533D01*
X54060Y-43356D02*
X54090Y-43356D01*
X54105Y-43366D01*
X54113Y-43375D01*
X54128Y-43403D01*
X54135Y-43440D01*
X54135Y-43514D01*
X54128Y-43533D01*
X54120Y-43542D01*
X54105Y-43551D01*
X54075Y-43551D01*
X54060Y-43542D01*
X54053Y-43533D01*
X54045Y-43514D01*
X54045Y-43468D01*
X54053Y-43449D01*
X54060Y-43440D01*
X54075Y-43431D01*
X54105Y-43431D01*
X54120Y-43440D01*
X54128Y-43449D01*
X54135Y-43468D01*
X56921Y-43878D02*
X56928Y-43887D01*
X56951Y-43896D01*
X56966Y-43896D01*
X56988Y-43887D01*
X57003Y-43869D01*
X57011Y-43850D01*
X57018Y-43813D01*
X57018Y-43785D01*
X57011Y-43748D01*
X57003Y-43729D01*
X56988Y-43711D01*
X56966Y-43701D01*
X56951Y-43701D01*
X56928Y-43711D01*
X56921Y-43720D01*
X56869Y-43701D02*
X56771Y-43701D01*
X56824Y-43776D01*
X56801Y-43776D01*
X56786Y-43785D01*
X56779Y-43794D01*
X56771Y-43813D01*
X56771Y-43859D01*
X56779Y-43878D01*
X56786Y-43887D01*
X56801Y-43896D01*
X56846Y-43896D01*
X56861Y-43887D01*
X56869Y-43878D01*
X56629Y-43701D02*
X56704Y-43701D01*
X56711Y-43794D01*
X56704Y-43785D01*
X56689Y-43776D01*
X56651Y-43776D01*
X56636Y-43785D01*
X56629Y-43794D01*
X56621Y-43813D01*
X56621Y-43859D01*
X56629Y-43878D01*
X56636Y-43887D01*
X56651Y-43896D01*
X56689Y-43896D01*
X56704Y-43887D01*
X56711Y-43878D01*
X56944Y-37678D02*
X56951Y-37687D01*
X56974Y-37696D01*
X56989Y-37696D01*
X57011Y-37687D01*
X57026Y-37669D01*
X57034Y-37650D01*
X57041Y-37613D01*
X57041Y-37585D01*
X57034Y-37548D01*
X57026Y-37529D01*
X57011Y-37511D01*
X56989Y-37501D01*
X56974Y-37501D01*
X56951Y-37511D01*
X56944Y-37520D01*
X56794Y-37696D02*
X56884Y-37696D01*
X56839Y-37696D02*
X56839Y-37501D01*
X56854Y-37529D01*
X56869Y-37548D01*
X56884Y-37557D01*
X56644Y-37696D02*
X56734Y-37696D01*
X56689Y-37696D02*
X56689Y-37501D01*
X56704Y-37529D01*
X56719Y-37548D01*
X56734Y-37557D01*
X56547Y-37501D02*
X56532Y-37501D01*
X56517Y-37511D01*
X56509Y-37520D01*
X56502Y-37539D01*
X56494Y-37576D01*
X56494Y-37622D01*
X56502Y-37659D01*
X56509Y-37678D01*
X56517Y-37687D01*
X56532Y-37696D01*
X56547Y-37696D01*
X56562Y-37687D01*
X56569Y-37678D01*
X56577Y-37659D01*
X56584Y-37622D01*
X56584Y-37576D01*
X56577Y-37539D01*
X56569Y-37520D01*
X56562Y-37511D01*
X56547Y-37501D01*
X56920Y-43529D02*
X56927Y-43538D01*
X56950Y-43547D01*
X56965Y-43547D01*
X56987Y-43538D01*
X57002Y-43520D01*
X57010Y-43501D01*
X57017Y-43464D01*
X57017Y-43436D01*
X57010Y-43399D01*
X57002Y-43380D01*
X56987Y-43362D01*
X56965Y-43352D01*
X56950Y-43352D01*
X56927Y-43362D01*
X56920Y-43371D01*
X56845Y-43547D02*
X56815Y-43547D01*
X56800Y-43538D01*
X56793Y-43529D01*
X56778Y-43501D01*
X56770Y-43464D01*
X56770Y-43390D01*
X56778Y-43371D01*
X56785Y-43362D01*
X56800Y-43352D01*
X56830Y-43352D01*
X56845Y-43362D01*
X56853Y-43371D01*
X56860Y-43390D01*
X56860Y-43436D01*
X56853Y-43455D01*
X56845Y-43464D01*
X56830Y-43473D01*
X56800Y-43473D01*
X56785Y-43464D01*
X56778Y-43455D01*
X56770Y-43436D01*
X56673Y-43352D02*
X56658Y-43352D01*
X56643Y-43362D01*
X56635Y-43371D01*
X56628Y-43390D01*
X56620Y-43427D01*
X56620Y-43473D01*
X56628Y-43510D01*
X56635Y-43529D01*
X56643Y-43538D01*
X56658Y-43547D01*
X56673Y-43547D01*
X56688Y-43538D01*
X56695Y-43529D01*
X56703Y-43510D01*
X56710Y-43473D01*
X56710Y-43427D01*
X56703Y-43390D01*
X56695Y-43371D01*
X56688Y-43362D01*
X56673Y-43352D01*
X57225Y-41986D02*
X57234Y-41979D01*
X57243Y-41956D01*
X57243Y-41941D01*
X57234Y-41919D01*
X57216Y-41904D01*
X57197Y-41896D01*
X57160Y-41889D01*
X57132Y-41889D01*
X57095Y-41896D01*
X57076Y-41904D01*
X57058Y-41919D01*
X57048Y-41941D01*
X57048Y-41956D01*
X57058Y-41979D01*
X57067Y-41986D01*
X57243Y-42136D02*
X57243Y-42046D01*
X57243Y-42091D02*
X57048Y-42091D01*
X57076Y-42076D01*
X57095Y-42061D01*
X57104Y-42046D01*
X57243Y-42211D02*
X57243Y-42241D01*
X57234Y-42256D01*
X57225Y-42263D01*
X57197Y-42278D01*
X57160Y-42286D01*
X57086Y-42286D01*
X57067Y-42278D01*
X57058Y-42271D01*
X57048Y-42256D01*
X57048Y-42226D01*
X57058Y-42211D01*
X57067Y-42203D01*
X57086Y-42196D01*
X57132Y-42196D01*
X57151Y-42203D01*
X57160Y-42211D01*
X57169Y-42226D01*
X57169Y-42256D01*
X57160Y-42271D01*
X57151Y-42278D01*
X57132Y-42286D01*
X55491Y-34248D02*
X55498Y-34257D01*
X55521Y-34266D01*
X55536Y-34266D01*
X55558Y-34257D01*
X55573Y-34239D01*
X55581Y-34220D01*
X55588Y-34183D01*
X55588Y-34155D01*
X55581Y-34118D01*
X55573Y-34099D01*
X55558Y-34081D01*
X55536Y-34071D01*
X55521Y-34071D01*
X55498Y-34081D01*
X55491Y-34090D01*
X55341Y-34266D02*
X55431Y-34266D01*
X55386Y-34266D02*
X55386Y-34071D01*
X55401Y-34099D01*
X55416Y-34118D01*
X55431Y-34127D01*
X55281Y-34090D02*
X55274Y-34081D01*
X55259Y-34071D01*
X55221Y-34071D01*
X55206Y-34081D01*
X55199Y-34090D01*
X55191Y-34109D01*
X55191Y-34127D01*
X55199Y-34155D01*
X55289Y-34266D01*
X55191Y-34266D01*
X60723Y-34950D02*
X60730Y-34959D01*
X60753Y-34968D01*
X60768Y-34968D01*
X60790Y-34959D01*
X60805Y-34941D01*
X60813Y-34922D01*
X60820Y-34885D01*
X60820Y-34857D01*
X60813Y-34820D01*
X60805Y-34801D01*
X60790Y-34783D01*
X60768Y-34773D01*
X60753Y-34773D01*
X60730Y-34783D01*
X60723Y-34792D01*
X60671Y-34773D02*
X60566Y-34773D01*
X60633Y-34968D01*
X60438Y-34838D02*
X60438Y-34968D01*
X60476Y-34764D02*
X60513Y-34903D01*
X60416Y-34903D01*
X62174Y-45253D02*
X62183Y-45246D01*
X62192Y-45223D01*
X62192Y-45208D01*
X62183Y-45186D01*
X62165Y-45171D01*
X62146Y-45163D01*
X62109Y-45156D01*
X62081Y-45156D01*
X62044Y-45163D01*
X62025Y-45171D01*
X62007Y-45186D01*
X61997Y-45208D01*
X61997Y-45223D01*
X62007Y-45246D01*
X62016Y-45253D01*
X62081Y-45343D02*
X62072Y-45328D01*
X62062Y-45320D01*
X62044Y-45313D01*
X62035Y-45313D01*
X62016Y-45320D01*
X62007Y-45328D01*
X61997Y-45343D01*
X61997Y-45373D01*
X62007Y-45388D01*
X62016Y-45395D01*
X62035Y-45403D01*
X62044Y-45403D01*
X62062Y-45395D01*
X62072Y-45388D01*
X62081Y-45373D01*
X62081Y-45343D01*
X62090Y-45328D01*
X62100Y-45320D01*
X62118Y-45313D01*
X62155Y-45313D01*
X62174Y-45320D01*
X62183Y-45328D01*
X62192Y-45343D01*
X62192Y-45373D01*
X62183Y-45388D01*
X62174Y-45395D01*
X62155Y-45403D01*
X62118Y-45403D01*
X62100Y-45395D01*
X62090Y-45388D01*
X62081Y-45373D01*
X61997Y-45545D02*
X61997Y-45470D01*
X62090Y-45463D01*
X62081Y-45470D01*
X62072Y-45485D01*
X62072Y-45523D01*
X62081Y-45538D01*
X62090Y-45545D01*
X62109Y-45553D01*
X62155Y-45553D01*
X62174Y-45545D01*
X62183Y-45538D01*
X62192Y-45523D01*
X62192Y-45485D01*
X62183Y-45470D01*
X62174Y-45463D01*
X61247Y-45635D02*
X61254Y-45644D01*
X61277Y-45653D01*
X61292Y-45653D01*
X61314Y-45644D01*
X61329Y-45626D01*
X61337Y-45607D01*
X61344Y-45570D01*
X61344Y-45542D01*
X61337Y-45505D01*
X61329Y-45486D01*
X61314Y-45468D01*
X61292Y-45458D01*
X61277Y-45458D01*
X61254Y-45468D01*
X61247Y-45477D01*
X61157Y-45542D02*
X61172Y-45533D01*
X61180Y-45523D01*
X61187Y-45505D01*
X61187Y-45496D01*
X61180Y-45477D01*
X61172Y-45468D01*
X61157Y-45458D01*
X61127Y-45458D01*
X61112Y-45468D01*
X61105Y-45477D01*
X61097Y-45496D01*
X61097Y-45505D01*
X61105Y-45523D01*
X61112Y-45533D01*
X61127Y-45542D01*
X61157Y-45542D01*
X61172Y-45551D01*
X61180Y-45561D01*
X61187Y-45579D01*
X61187Y-45616D01*
X61180Y-45635D01*
X61172Y-45644D01*
X61157Y-45653D01*
X61127Y-45653D01*
X61112Y-45644D01*
X61105Y-45635D01*
X61097Y-45616D01*
X61097Y-45579D01*
X61105Y-45561D01*
X61112Y-45551D01*
X61127Y-45542D01*
X60962Y-45523D02*
X60962Y-45653D01*
X61000Y-45449D02*
X61037Y-45588D01*
X60940Y-45588D01*
X59343Y-41804D02*
X59352Y-41797D01*
X59361Y-41774D01*
X59361Y-41759D01*
X59352Y-41737D01*
X59334Y-41722D01*
X59315Y-41714D01*
X59278Y-41707D01*
X59250Y-41707D01*
X59213Y-41714D01*
X59194Y-41722D01*
X59176Y-41737D01*
X59166Y-41759D01*
X59166Y-41774D01*
X59176Y-41797D01*
X59185Y-41804D01*
X59361Y-41954D02*
X59361Y-41864D01*
X59361Y-41909D02*
X59166Y-41909D01*
X59194Y-41894D01*
X59213Y-41879D01*
X59222Y-41864D01*
X59166Y-42051D02*
X59166Y-42066D01*
X59176Y-42081D01*
X59185Y-42089D01*
X59204Y-42096D01*
X59241Y-42104D01*
X59287Y-42104D01*
X59324Y-42096D01*
X59343Y-42089D01*
X59352Y-42081D01*
X59361Y-42066D01*
X59361Y-42051D01*
X59352Y-42036D01*
X59343Y-42029D01*
X59324Y-42021D01*
X59287Y-42014D01*
X59241Y-42014D01*
X59204Y-42021D01*
X59185Y-42029D01*
X59176Y-42036D01*
X59166Y-42051D01*
X55029Y-36312D02*
X55038Y-36305D01*
X55047Y-36282D01*
X55047Y-36267D01*
X55038Y-36245D01*
X55020Y-36230D01*
X55001Y-36222D01*
X54964Y-36215D01*
X54936Y-36215D01*
X54899Y-36222D01*
X54880Y-36230D01*
X54862Y-36245D01*
X54852Y-36267D01*
X54852Y-36282D01*
X54862Y-36305D01*
X54871Y-36312D01*
X54871Y-36372D02*
X54862Y-36379D01*
X54852Y-36394D01*
X54852Y-36432D01*
X54862Y-36447D01*
X54871Y-36454D01*
X54890Y-36462D01*
X54908Y-36462D01*
X54936Y-36454D01*
X55047Y-36364D01*
X55047Y-36462D01*
X54852Y-36559D02*
X54852Y-36574D01*
X54862Y-36589D01*
X54871Y-36597D01*
X54890Y-36604D01*
X54927Y-36612D01*
X54973Y-36612D01*
X55010Y-36604D01*
X55029Y-36597D01*
X55038Y-36589D01*
X55047Y-36574D01*
X55047Y-36559D01*
X55038Y-36544D01*
X55029Y-36537D01*
X55010Y-36529D01*
X54973Y-36522D01*
X54927Y-36522D01*
X54890Y-36529D01*
X54871Y-36537D01*
X54862Y-36544D01*
X54852Y-36559D01*
X57836Y-41967D02*
X57845Y-41960D01*
X57854Y-41937D01*
X57854Y-41922D01*
X57845Y-41900D01*
X57827Y-41885D01*
X57808Y-41877D01*
X57771Y-41870D01*
X57743Y-41870D01*
X57706Y-41877D01*
X57687Y-41885D01*
X57669Y-41900D01*
X57659Y-41922D01*
X57659Y-41937D01*
X57669Y-41960D01*
X57678Y-41967D01*
X57678Y-42027D02*
X57669Y-42034D01*
X57659Y-42049D01*
X57659Y-42087D01*
X57669Y-42102D01*
X57678Y-42109D01*
X57697Y-42117D01*
X57715Y-42117D01*
X57743Y-42109D01*
X57854Y-42019D01*
X57854Y-42117D01*
X57288Y-41340D02*
X57297Y-41333D01*
X57306Y-41310D01*
X57306Y-41295D01*
X57297Y-41273D01*
X57279Y-41258D01*
X57260Y-41250D01*
X57223Y-41243D01*
X57195Y-41243D01*
X57158Y-41250D01*
X57139Y-41258D01*
X57121Y-41273D01*
X57111Y-41295D01*
X57111Y-41310D01*
X57121Y-41333D01*
X57130Y-41340D01*
X57306Y-41490D02*
X57306Y-41400D01*
X57306Y-41445D02*
X57111Y-41445D01*
X57139Y-41430D01*
X57158Y-41415D01*
X57167Y-41400D01*
X57306Y-41640D02*
X57306Y-41550D01*
X57306Y-41595D02*
X57111Y-41595D01*
X57139Y-41580D01*
X57158Y-41565D01*
X57167Y-41550D01*
X57306Y-41790D02*
X57306Y-41700D01*
X57306Y-41745D02*
X57111Y-41745D01*
X57139Y-41730D01*
X57158Y-41715D01*
X57167Y-41700D01*
X59816Y-39632D02*
X59825Y-39625D01*
X59834Y-39602D01*
X59834Y-39587D01*
X59825Y-39565D01*
X59807Y-39550D01*
X59788Y-39542D01*
X59751Y-39535D01*
X59723Y-39535D01*
X59686Y-39542D01*
X59667Y-39550D01*
X59649Y-39565D01*
X59639Y-39587D01*
X59639Y-39602D01*
X59649Y-39625D01*
X59658Y-39632D01*
X59639Y-39684D02*
X59639Y-39782D01*
X59714Y-39729D01*
X59714Y-39752D01*
X59723Y-39767D01*
X59732Y-39774D01*
X59751Y-39782D01*
X59797Y-39782D01*
X59816Y-39774D01*
X59825Y-39767D01*
X59834Y-39752D01*
X59834Y-39707D01*
X59825Y-39692D01*
X59816Y-39684D01*
X55774Y-38111D02*
X55781Y-38120D01*
X55804Y-38129D01*
X55819Y-38129D01*
X55841Y-38120D01*
X55856Y-38102D01*
X55864Y-38083D01*
X55871Y-38046D01*
X55871Y-38018D01*
X55864Y-37981D01*
X55856Y-37962D01*
X55841Y-37944D01*
X55819Y-37934D01*
X55804Y-37934D01*
X55781Y-37944D01*
X55774Y-37953D01*
X55639Y-37999D02*
X55639Y-38129D01*
X55677Y-37925D02*
X55714Y-38064D01*
X55617Y-38064D01*
X56501Y-43777D02*
X56510Y-43770D01*
X56519Y-43747D01*
X56519Y-43732D01*
X56510Y-43710D01*
X56492Y-43695D01*
X56473Y-43687D01*
X56436Y-43680D01*
X56408Y-43680D01*
X56371Y-43687D01*
X56352Y-43695D01*
X56334Y-43710D01*
X56324Y-43732D01*
X56324Y-43747D01*
X56334Y-43770D01*
X56343Y-43777D01*
X56324Y-43912D02*
X56324Y-43882D01*
X56334Y-43867D01*
X56343Y-43859D01*
X56371Y-43844D01*
X56408Y-43837D01*
X56482Y-43837D01*
X56501Y-43844D01*
X56510Y-43852D01*
X56519Y-43867D01*
X56519Y-43897D01*
X56510Y-43912D01*
X56501Y-43919D01*
X56482Y-43927D01*
X56436Y-43927D01*
X56417Y-43919D01*
X56408Y-43912D01*
X56399Y-43897D01*
X56399Y-43867D01*
X56408Y-43852D01*
X56417Y-43844D01*
X56436Y-43837D01*
X58440Y-38301D02*
X58447Y-38310D01*
X58470Y-38319D01*
X58485Y-38319D01*
X58507Y-38310D01*
X58522Y-38292D01*
X58530Y-38273D01*
X58537Y-38236D01*
X58537Y-38208D01*
X58530Y-38171D01*
X58522Y-38152D01*
X58507Y-38134D01*
X58485Y-38124D01*
X58470Y-38124D01*
X58447Y-38134D01*
X58440Y-38143D01*
X58380Y-38143D02*
X58373Y-38134D01*
X58358Y-38124D01*
X58320Y-38124D01*
X58305Y-38134D01*
X58298Y-38143D01*
X58290Y-38162D01*
X58290Y-38180D01*
X58298Y-38208D01*
X58388Y-38319D01*
X58290Y-38319D01*
X58140Y-38319D02*
X58230Y-38319D01*
X58185Y-38319D02*
X58185Y-38124D01*
X58200Y-38152D01*
X58215Y-38171D01*
X58230Y-38180D01*
X58088Y-38124D02*
X57983Y-38124D01*
X58050Y-38319D01*
X58456Y-38678D02*
X58463Y-38687D01*
X58486Y-38696D01*
X58501Y-38696D01*
X58523Y-38687D01*
X58538Y-38669D01*
X58546Y-38650D01*
X58553Y-38613D01*
X58553Y-38585D01*
X58546Y-38548D01*
X58538Y-38529D01*
X58523Y-38511D01*
X58501Y-38501D01*
X58486Y-38501D01*
X58463Y-38511D01*
X58456Y-38520D01*
X58306Y-38696D02*
X58396Y-38696D01*
X58351Y-38696D02*
X58351Y-38501D01*
X58366Y-38529D01*
X58381Y-38548D01*
X58396Y-38557D01*
X58156Y-38696D02*
X58246Y-38696D01*
X58201Y-38696D02*
X58201Y-38501D01*
X58216Y-38529D01*
X58231Y-38548D01*
X58246Y-38557D01*
X58014Y-38501D02*
X58089Y-38501D01*
X58096Y-38594D01*
X58089Y-38585D01*
X58074Y-38576D01*
X58036Y-38576D01*
X58021Y-38585D01*
X58014Y-38594D01*
X58006Y-38613D01*
X58006Y-38659D01*
X58014Y-38678D01*
X58021Y-38687D01*
X58036Y-38696D01*
X58074Y-38696D01*
X58089Y-38687D01*
X58096Y-38678D01*
X61722Y-38829D02*
X61731Y-38822D01*
X61740Y-38799D01*
X61740Y-38784D01*
X61731Y-38762D01*
X61713Y-38747D01*
X61694Y-38739D01*
X61657Y-38732D01*
X61629Y-38732D01*
X61592Y-38739D01*
X61573Y-38747D01*
X61555Y-38762D01*
X61545Y-38784D01*
X61545Y-38799D01*
X61555Y-38822D01*
X61564Y-38829D01*
X61564Y-38889D02*
X61555Y-38896D01*
X61545Y-38911D01*
X61545Y-38949D01*
X61555Y-38964D01*
X61564Y-38971D01*
X61583Y-38979D01*
X61601Y-38979D01*
X61629Y-38971D01*
X61740Y-38881D01*
X61740Y-38979D01*
X61740Y-39129D02*
X61740Y-39039D01*
X61740Y-39084D02*
X61545Y-39084D01*
X61573Y-39069D01*
X61592Y-39054D01*
X61601Y-39039D01*
X61545Y-39264D02*
X61545Y-39234D01*
X61555Y-39219D01*
X61564Y-39211D01*
X61592Y-39196D01*
X61629Y-39189D01*
X61703Y-39189D01*
X61722Y-39196D01*
X61731Y-39204D01*
X61740Y-39219D01*
X61740Y-39249D01*
X61731Y-39264D01*
X61722Y-39271D01*
X61703Y-39279D01*
X61657Y-39279D01*
X61638Y-39271D01*
X61629Y-39264D01*
X61620Y-39249D01*
X61620Y-39219D01*
X61629Y-39204D01*
X61638Y-39196D01*
X61657Y-39189D01*
X60335Y-39162D02*
X60344Y-39155D01*
X60353Y-39132D01*
X60353Y-39117D01*
X60344Y-39095D01*
X60326Y-39080D01*
X60307Y-39072D01*
X60270Y-39065D01*
X60242Y-39065D01*
X60205Y-39072D01*
X60186Y-39080D01*
X60168Y-39095D01*
X60158Y-39117D01*
X60158Y-39132D01*
X60168Y-39155D01*
X60177Y-39162D01*
X60353Y-39312D02*
X60353Y-39222D01*
X60353Y-39267D02*
X60158Y-39267D01*
X60186Y-39252D01*
X60205Y-39237D01*
X60214Y-39222D01*
X60353Y-39462D02*
X60353Y-39372D01*
X60353Y-39417D02*
X60158Y-39417D01*
X60186Y-39402D01*
X60205Y-39387D01*
X60214Y-39372D01*
X60223Y-39597D02*
X60353Y-39597D01*
X60149Y-39559D02*
X60288Y-39522D01*
X60288Y-39619D01*
X58840Y-41546D02*
X58849Y-41539D01*
X58858Y-41516D01*
X58858Y-41501D01*
X58849Y-41479D01*
X58831Y-41464D01*
X58812Y-41456D01*
X58775Y-41449D01*
X58747Y-41449D01*
X58710Y-41456D01*
X58691Y-41464D01*
X58673Y-41479D01*
X58663Y-41501D01*
X58663Y-41516D01*
X58673Y-41539D01*
X58682Y-41546D01*
X58858Y-41696D02*
X58858Y-41606D01*
X58858Y-41651D02*
X58663Y-41651D01*
X58691Y-41636D01*
X58710Y-41621D01*
X58719Y-41606D01*
X58858Y-41846D02*
X58858Y-41756D01*
X58858Y-41801D02*
X58663Y-41801D01*
X58691Y-41786D01*
X58710Y-41771D01*
X58719Y-41756D01*
X58682Y-41906D02*
X58673Y-41913D01*
X58663Y-41928D01*
X58663Y-41966D01*
X58673Y-41981D01*
X58682Y-41988D01*
X58701Y-41996D01*
X58719Y-41996D01*
X58747Y-41988D01*
X58858Y-41898D01*
X58858Y-41996D01*
X59982Y-37446D02*
X59991Y-37439D01*
X60000Y-37416D01*
X60000Y-37401D01*
X59991Y-37379D01*
X59973Y-37364D01*
X59954Y-37356D01*
X59917Y-37349D01*
X59889Y-37349D01*
X59852Y-37356D01*
X59833Y-37364D01*
X59815Y-37379D01*
X59805Y-37401D01*
X59805Y-37416D01*
X59815Y-37439D01*
X59824Y-37446D01*
X59805Y-37498D02*
X59805Y-37603D01*
X60000Y-37536D01*
X59805Y-37648D02*
X59805Y-37746D01*
X59880Y-37693D01*
X59880Y-37716D01*
X59889Y-37731D01*
X59898Y-37738D01*
X59917Y-37746D01*
X59963Y-37746D01*
X59982Y-37738D01*
X59991Y-37731D01*
X60000Y-37716D01*
X60000Y-37671D01*
X59991Y-37656D01*
X59982Y-37648D01*
X60421Y-41485D02*
X60428Y-41494D01*
X60451Y-41503D01*
X60466Y-41503D01*
X60488Y-41494D01*
X60503Y-41476D01*
X60511Y-41457D01*
X60518Y-41420D01*
X60518Y-41392D01*
X60511Y-41355D01*
X60503Y-41336D01*
X60488Y-41318D01*
X60466Y-41308D01*
X60451Y-41308D01*
X60428Y-41318D01*
X60421Y-41327D01*
X60271Y-41503D02*
X60361Y-41503D01*
X60316Y-41503D02*
X60316Y-41308D01*
X60331Y-41336D01*
X60346Y-41355D01*
X60361Y-41364D01*
X60121Y-41503D02*
X60211Y-41503D01*
X60166Y-41503D02*
X60166Y-41308D01*
X60181Y-41336D01*
X60196Y-41355D01*
X60211Y-41364D01*
X60069Y-41308D02*
X59971Y-41308D01*
X60024Y-41383D01*
X60001Y-41383D01*
X59986Y-41392D01*
X59979Y-41401D01*
X59971Y-41420D01*
X59971Y-41466D01*
X59979Y-41485D01*
X59986Y-41494D01*
X60001Y-41503D01*
X60046Y-41503D01*
X60061Y-41494D01*
X60069Y-41485D01*
X61296Y-41935D02*
X61305Y-41928D01*
X61314Y-41905D01*
X61314Y-41890D01*
X61305Y-41868D01*
X61287Y-41853D01*
X61268Y-41845D01*
X61231Y-41838D01*
X61203Y-41838D01*
X61166Y-41845D01*
X61147Y-41853D01*
X61129Y-41868D01*
X61119Y-41890D01*
X61119Y-41905D01*
X61129Y-41928D01*
X61138Y-41935D01*
X61314Y-42085D02*
X61314Y-41995D01*
X61314Y-42040D02*
X61119Y-42040D01*
X61147Y-42025D01*
X61166Y-42010D01*
X61175Y-41995D01*
X61314Y-42235D02*
X61314Y-42145D01*
X61314Y-42190D02*
X61119Y-42190D01*
X61147Y-42175D01*
X61166Y-42160D01*
X61175Y-42145D01*
X56652Y-37257D02*
X56659Y-37266D01*
X56682Y-37275D01*
X56697Y-37275D01*
X56719Y-37266D01*
X56734Y-37248D01*
X56742Y-37229D01*
X56749Y-37192D01*
X56749Y-37164D01*
X56742Y-37127D01*
X56734Y-37108D01*
X56719Y-37090D01*
X56697Y-37080D01*
X56682Y-37080D01*
X56659Y-37090D01*
X56652Y-37099D01*
X56600Y-37080D02*
X56495Y-37080D01*
X56562Y-37275D01*
X56790Y-36824D02*
X56797Y-36833D01*
X56820Y-36842D01*
X56835Y-36842D01*
X56857Y-36833D01*
X56872Y-36815D01*
X56880Y-36796D01*
X56887Y-36759D01*
X56887Y-36731D01*
X56880Y-36694D01*
X56872Y-36675D01*
X56857Y-36657D01*
X56835Y-36647D01*
X56820Y-36647D01*
X56797Y-36657D01*
X56790Y-36666D01*
X56700Y-36731D02*
X56715Y-36722D01*
X56723Y-36712D01*
X56730Y-36694D01*
X56730Y-36685D01*
X56723Y-36666D01*
X56715Y-36657D01*
X56700Y-36647D01*
X56670Y-36647D01*
X56655Y-36657D01*
X56648Y-36666D01*
X56640Y-36685D01*
X56640Y-36694D01*
X56648Y-36712D01*
X56655Y-36722D01*
X56670Y-36731D01*
X56700Y-36731D01*
X56715Y-36740D01*
X56723Y-36750D01*
X56730Y-36768D01*
X56730Y-36805D01*
X56723Y-36824D01*
X56715Y-36833D01*
X56700Y-36842D01*
X56670Y-36842D01*
X56655Y-36833D01*
X56648Y-36824D01*
X56640Y-36805D01*
X56640Y-36768D01*
X56648Y-36750D01*
X56655Y-36740D01*
X56670Y-36731D01*
X56580Y-36666D02*
X56573Y-36657D01*
X56558Y-36647D01*
X56520Y-36647D01*
X56505Y-36657D01*
X56498Y-36666D01*
X56490Y-36685D01*
X56490Y-36703D01*
X56498Y-36731D01*
X56588Y-36842D01*
X56490Y-36842D01*
X56947Y-36521D02*
X56954Y-36530D01*
X56977Y-36539D01*
X56992Y-36539D01*
X57014Y-36530D01*
X57029Y-36512D01*
X57037Y-36493D01*
X57044Y-36456D01*
X57044Y-36428D01*
X57037Y-36391D01*
X57029Y-36372D01*
X57014Y-36354D01*
X56992Y-36344D01*
X56977Y-36344D01*
X56954Y-36354D01*
X56947Y-36363D01*
X56797Y-36539D02*
X56887Y-36539D01*
X56842Y-36539D02*
X56842Y-36344D01*
X56857Y-36372D01*
X56872Y-36391D01*
X56887Y-36400D01*
X56700Y-36344D02*
X56685Y-36344D01*
X56670Y-36354D01*
X56662Y-36363D01*
X56655Y-36382D01*
X56647Y-36419D01*
X56647Y-36465D01*
X56655Y-36502D01*
X56662Y-36521D01*
X56670Y-36530D01*
X56685Y-36539D01*
X56700Y-36539D01*
X56715Y-36530D01*
X56722Y-36521D01*
X56730Y-36502D01*
X56737Y-36465D01*
X56737Y-36419D01*
X56730Y-36382D01*
X56722Y-36363D01*
X56715Y-36354D01*
X56700Y-36344D01*
X56572Y-36539D02*
X56542Y-36539D01*
X56527Y-36530D01*
X56520Y-36521D01*
X56505Y-36493D01*
X56497Y-36456D01*
X56497Y-36382D01*
X56505Y-36363D01*
X56512Y-36354D01*
X56527Y-36344D01*
X56557Y-36344D01*
X56572Y-36354D01*
X56580Y-36363D01*
X56587Y-36382D01*
X56587Y-36428D01*
X56580Y-36447D01*
X56572Y-36456D01*
X56557Y-36465D01*
X56527Y-36465D01*
X56512Y-36456D01*
X56505Y-36447D01*
X56497Y-36428D01*
X59320Y-37101D02*
X59329Y-37094D01*
X59338Y-37071D01*
X59338Y-37056D01*
X59329Y-37034D01*
X59311Y-37019D01*
X59292Y-37011D01*
X59255Y-37004D01*
X59227Y-37004D01*
X59190Y-37011D01*
X59171Y-37019D01*
X59153Y-37034D01*
X59143Y-37056D01*
X59143Y-37071D01*
X59153Y-37094D01*
X59162Y-37101D01*
X59227Y-37191D02*
X59218Y-37176D01*
X59208Y-37168D01*
X59190Y-37161D01*
X59181Y-37161D01*
X59162Y-37168D01*
X59153Y-37176D01*
X59143Y-37191D01*
X59143Y-37221D01*
X59153Y-37236D01*
X59162Y-37243D01*
X59181Y-37251D01*
X59190Y-37251D01*
X59208Y-37243D01*
X59218Y-37236D01*
X59227Y-37221D01*
X59227Y-37191D01*
X59236Y-37176D01*
X59246Y-37168D01*
X59264Y-37161D01*
X59301Y-37161D01*
X59320Y-37168D01*
X59329Y-37176D01*
X59338Y-37191D01*
X59338Y-37221D01*
X59329Y-37236D01*
X59320Y-37243D01*
X59301Y-37251D01*
X59264Y-37251D01*
X59246Y-37243D01*
X59236Y-37236D01*
X59227Y-37221D01*
X59650Y-36816D02*
X59659Y-36809D01*
X59668Y-36786D01*
X59668Y-36771D01*
X59659Y-36749D01*
X59641Y-36734D01*
X59622Y-36726D01*
X59585Y-36719D01*
X59557Y-36719D01*
X59520Y-36726D01*
X59501Y-36734D01*
X59483Y-36749D01*
X59473Y-36771D01*
X59473Y-36786D01*
X59483Y-36809D01*
X59492Y-36816D01*
X59668Y-36966D02*
X59668Y-36876D01*
X59668Y-36921D02*
X59473Y-36921D01*
X59501Y-36906D01*
X59520Y-36891D01*
X59529Y-36876D01*
X59473Y-37063D02*
X59473Y-37078D01*
X59483Y-37093D01*
X59492Y-37101D01*
X59511Y-37108D01*
X59548Y-37116D01*
X59594Y-37116D01*
X59631Y-37108D01*
X59650Y-37101D01*
X59659Y-37093D01*
X59668Y-37078D01*
X59668Y-37063D01*
X59659Y-37048D01*
X59650Y-37041D01*
X59631Y-37033D01*
X59594Y-37026D01*
X59548Y-37026D01*
X59511Y-37033D01*
X59492Y-37041D01*
X59483Y-37048D01*
X59473Y-37063D01*
X59473Y-37251D02*
X59473Y-37221D01*
X59483Y-37206D01*
X59492Y-37198D01*
X59520Y-37183D01*
X59557Y-37176D01*
X59631Y-37176D01*
X59650Y-37183D01*
X59659Y-37191D01*
X59668Y-37206D01*
X59668Y-37236D01*
X59659Y-37251D01*
X59650Y-37258D01*
X59631Y-37266D01*
X59585Y-37266D01*
X59566Y-37258D01*
X59557Y-37251D01*
X59548Y-37236D01*
X59548Y-37206D01*
X59557Y-37191D01*
X59566Y-37183D01*
X59585Y-37176D01*
X58286Y-42163D02*
X58293Y-42172D01*
X58316Y-42181D01*
X58331Y-42181D01*
X58353Y-42172D01*
X58368Y-42154D01*
X58376Y-42135D01*
X58383Y-42098D01*
X58383Y-42070D01*
X58376Y-42033D01*
X58368Y-42014D01*
X58353Y-41996D01*
X58331Y-41986D01*
X58316Y-41986D01*
X58293Y-41996D01*
X58286Y-42005D01*
X58211Y-42181D02*
X58181Y-42181D01*
X58166Y-42172D01*
X58159Y-42163D01*
X58144Y-42135D01*
X58136Y-42098D01*
X58136Y-42024D01*
X58144Y-42005D01*
X58151Y-41996D01*
X58166Y-41986D01*
X58196Y-41986D01*
X58211Y-41996D01*
X58219Y-42005D01*
X58226Y-42024D01*
X58226Y-42070D01*
X58219Y-42089D01*
X58211Y-42098D01*
X58196Y-42107D01*
X58166Y-42107D01*
X58151Y-42098D01*
X58144Y-42089D01*
X58136Y-42070D01*
X58413Y-41533D02*
X58420Y-41542D01*
X58443Y-41551D01*
X58458Y-41551D01*
X58480Y-41542D01*
X58495Y-41524D01*
X58503Y-41505D01*
X58510Y-41468D01*
X58510Y-41440D01*
X58503Y-41403D01*
X58495Y-41384D01*
X58480Y-41366D01*
X58458Y-41356D01*
X58443Y-41356D01*
X58420Y-41366D01*
X58413Y-41375D01*
X58263Y-41551D02*
X58353Y-41551D01*
X58308Y-41551D02*
X58308Y-41356D01*
X58323Y-41384D01*
X58338Y-41403D01*
X58353Y-41412D01*
X58166Y-41356D02*
X58151Y-41356D01*
X58136Y-41366D01*
X58128Y-41375D01*
X58121Y-41394D01*
X58113Y-41431D01*
X58113Y-41477D01*
X58121Y-41514D01*
X58128Y-41533D01*
X58136Y-41542D01*
X58151Y-41551D01*
X58166Y-41551D01*
X58181Y-41542D01*
X58188Y-41533D01*
X58196Y-41514D01*
X58203Y-41477D01*
X58203Y-41431D01*
X58196Y-41394D01*
X58188Y-41375D01*
X58181Y-41366D01*
X58166Y-41356D01*
X57971Y-41356D02*
X58046Y-41356D01*
X58053Y-41449D01*
X58046Y-41440D01*
X58031Y-41431D01*
X57993Y-41431D01*
X57978Y-41440D01*
X57971Y-41449D01*
X57963Y-41468D01*
X57963Y-41514D01*
X57971Y-41533D01*
X57978Y-41542D01*
X57993Y-41551D01*
X58031Y-41551D01*
X58046Y-41542D01*
X58053Y-41533D01*
X53529Y-44750D02*
X53538Y-44743D01*
X53547Y-44720D01*
X53547Y-44705D01*
X53538Y-44683D01*
X53520Y-44668D01*
X53501Y-44660D01*
X53464Y-44653D01*
X53436Y-44653D01*
X53399Y-44660D01*
X53380Y-44668D01*
X53362Y-44683D01*
X53352Y-44705D01*
X53352Y-44720D01*
X53362Y-44743D01*
X53371Y-44750D01*
X53371Y-44810D02*
X53362Y-44817D01*
X53352Y-44832D01*
X53352Y-44870D01*
X53362Y-44885D01*
X53371Y-44892D01*
X53390Y-44900D01*
X53408Y-44900D01*
X53436Y-44892D01*
X53547Y-44802D01*
X53547Y-44900D01*
X53352Y-45042D02*
X53352Y-44967D01*
X53445Y-44960D01*
X53436Y-44967D01*
X53427Y-44982D01*
X53427Y-45020D01*
X53436Y-45035D01*
X53445Y-45042D01*
X53464Y-45050D01*
X53510Y-45050D01*
X53529Y-45042D01*
X53538Y-45035D01*
X53547Y-45020D01*
X53547Y-44982D01*
X53538Y-44967D01*
X53529Y-44960D01*
X59719Y-41171D02*
X59726Y-41180D01*
X59749Y-41189D01*
X59764Y-41189D01*
X59786Y-41180D01*
X59801Y-41162D01*
X59809Y-41143D01*
X59816Y-41106D01*
X59816Y-41078D01*
X59809Y-41041D01*
X59801Y-41022D01*
X59786Y-41004D01*
X59764Y-40994D01*
X59749Y-40994D01*
X59726Y-41004D01*
X59719Y-41013D01*
X59667Y-40994D02*
X59562Y-40994D01*
X59629Y-41189D01*
X59479Y-41078D02*
X59494Y-41069D01*
X59502Y-41059D01*
X59509Y-41041D01*
X59509Y-41032D01*
X59502Y-41013D01*
X59494Y-41004D01*
X59479Y-40994D01*
X59449Y-40994D01*
X59434Y-41004D01*
X59427Y-41013D01*
X59419Y-41032D01*
X59419Y-41041D01*
X59427Y-41059D01*
X59434Y-41069D01*
X59449Y-41078D01*
X59479Y-41078D01*
X59494Y-41087D01*
X59502Y-41097D01*
X59509Y-41115D01*
X59509Y-41152D01*
X59502Y-41171D01*
X59494Y-41180D01*
X59479Y-41189D01*
X59449Y-41189D01*
X59434Y-41180D01*
X59427Y-41171D01*
X59419Y-41152D01*
X59419Y-41115D01*
X59427Y-41097D01*
X59434Y-41087D01*
X59449Y-41078D01*
X51976Y-43752D02*
X52028Y-43660D01*
X52066Y-43752D02*
X52066Y-43557D01*
X52006Y-43557D01*
X51991Y-43567D01*
X51983Y-43576D01*
X51976Y-43595D01*
X51976Y-43622D01*
X51983Y-43641D01*
X51991Y-43650D01*
X52006Y-43660D01*
X52066Y-43660D01*
X51834Y-43557D02*
X51909Y-43557D01*
X51916Y-43650D01*
X51909Y-43641D01*
X51894Y-43632D01*
X51856Y-43632D01*
X51841Y-43641D01*
X51834Y-43650D01*
X51826Y-43669D01*
X51826Y-43715D01*
X51834Y-43734D01*
X51841Y-43743D01*
X51856Y-43752D01*
X51894Y-43752D01*
X51909Y-43743D01*
X51916Y-43734D01*
G54D11*
X53834Y-44407D02*
X53834Y-44093D01*
X53778Y-44093D01*
X53744Y-44108D01*
X53721Y-44138D01*
X53710Y-44168D01*
X53699Y-44228D01*
X53699Y-44273D01*
X53710Y-44332D01*
X53721Y-44362D01*
X53744Y-44392D01*
X53778Y-44407D01*
X53834Y-44407D01*
X53609Y-44317D02*
X53497Y-44317D01*
X53632Y-44407D02*
X53553Y-44093D01*
X53474Y-44407D01*
X53407Y-44123D02*
X53396Y-44108D01*
X53373Y-44093D01*
X53317Y-44093D01*
X53295Y-44108D01*
X53283Y-44123D01*
X53272Y-44153D01*
X53272Y-44183D01*
X53283Y-44228D01*
X53418Y-44407D01*
X53272Y-44407D01*
G54D16*
X53801Y-44844D02*
X53894Y-44844D01*
X53857Y-44769D02*
X53894Y-44844D01*
X53857Y-44918D01*
X53969Y-44799D02*
X53894Y-44844D01*
X53969Y-44888D01*
G54D11*
X55265Y-45402D02*
X54951Y-45402D01*
X54951Y-45458D01*
X54966Y-45492D01*
X54996Y-45515D01*
X55026Y-45526D01*
X55086Y-45537D01*
X55131Y-45537D01*
X55190Y-45526D01*
X55220Y-45515D01*
X55250Y-45492D01*
X55265Y-45458D01*
X55265Y-45402D01*
X55175Y-45627D02*
X55175Y-45739D01*
X55265Y-45604D02*
X54951Y-45683D01*
X55265Y-45762D01*
X54951Y-45818D02*
X54951Y-45975D01*
X55265Y-45874D01*
G54D16*
X54822Y-46449D02*
X54822Y-46542D01*
X54897Y-46505D02*
X54822Y-46542D01*
X54748Y-46505D01*
X54867Y-46617D02*
X54822Y-46542D01*
X54778Y-46617D01*
G54D11*
X52511Y-34580D02*
X52511Y-34266D01*
X52455Y-34266D01*
X52421Y-34281D01*
X52398Y-34311D01*
X52387Y-34341D01*
X52376Y-34401D01*
X52376Y-34446D01*
X52387Y-34505D01*
X52398Y-34535D01*
X52421Y-34565D01*
X52455Y-34580D01*
X52511Y-34580D01*
X52286Y-34490D02*
X52174Y-34490D01*
X52309Y-34580D02*
X52230Y-34266D01*
X52151Y-34580D01*
X51972Y-34371D02*
X51972Y-34580D01*
X52028Y-34251D02*
X52084Y-34475D01*
X51938Y-34475D01*
G54D16*
X51902Y-35759D02*
X51995Y-35759D01*
X51958Y-35684D02*
X51995Y-35759D01*
X51958Y-35833D01*
X52070Y-35714D02*
X51995Y-35759D01*
X52070Y-35803D01*
G54D11*
X53701Y-38305D02*
X53570Y-38226D01*
X53701Y-38170D02*
X53426Y-38170D01*
X53426Y-38260D01*
X53439Y-38283D01*
X53452Y-38294D01*
X53478Y-38305D01*
X53517Y-38305D01*
X53544Y-38294D01*
X53557Y-38283D01*
X53570Y-38260D01*
X53570Y-38170D01*
X53517Y-38507D02*
X53701Y-38507D01*
X53413Y-38451D02*
X53609Y-38395D01*
X53609Y-38541D01*
X53544Y-38665D02*
X53531Y-38642D01*
X53517Y-38631D01*
X53491Y-38620D01*
X53478Y-38620D01*
X53452Y-38631D01*
X53439Y-38642D01*
X53426Y-38665D01*
X53426Y-38710D01*
X53439Y-38732D01*
X53452Y-38744D01*
X53478Y-38755D01*
X53491Y-38755D01*
X53517Y-38744D01*
X53531Y-38732D01*
X53544Y-38710D01*
X53544Y-38665D01*
X53557Y-38642D01*
X53570Y-38631D01*
X53596Y-38620D01*
X53648Y-38620D01*
X53675Y-38631D01*
X53688Y-38642D01*
X53701Y-38665D01*
X53701Y-38710D01*
X53688Y-38732D01*
X53675Y-38744D01*
X53648Y-38755D01*
X53596Y-38755D01*
X53570Y-38744D01*
X53557Y-38732D01*
X53544Y-38710D01*
X53701Y-39120D02*
X53570Y-39041D01*
X53701Y-38985D02*
X53426Y-38985D01*
X53426Y-39075D01*
X53439Y-39098D01*
X53452Y-39109D01*
X53478Y-39120D01*
X53517Y-39120D01*
X53544Y-39109D01*
X53557Y-39098D01*
X53570Y-39075D01*
X53570Y-38985D01*
X53517Y-39322D02*
X53701Y-39322D01*
X53413Y-39266D02*
X53609Y-39210D01*
X53609Y-39356D01*
X53426Y-39424D02*
X53426Y-39581D01*
X53701Y-39480D01*
X53701Y-39955D02*
X53570Y-39876D01*
X53701Y-39820D02*
X53426Y-39820D01*
X53426Y-39910D01*
X53439Y-39933D01*
X53452Y-39944D01*
X53478Y-39955D01*
X53517Y-39955D01*
X53544Y-39944D01*
X53557Y-39933D01*
X53570Y-39910D01*
X53570Y-39820D01*
X53517Y-40157D02*
X53701Y-40157D01*
X53413Y-40101D02*
X53609Y-40045D01*
X53609Y-40191D01*
X53426Y-40394D02*
X53426Y-40281D01*
X53557Y-40270D01*
X53544Y-40281D01*
X53531Y-40304D01*
X53531Y-40360D01*
X53544Y-40382D01*
X53557Y-40394D01*
X53583Y-40405D01*
X53648Y-40405D01*
X53675Y-40394D01*
X53688Y-40382D01*
X53701Y-40360D01*
X53701Y-40304D01*
X53688Y-40281D01*
X53675Y-40270D01*
X53701Y-40789D02*
X53570Y-40710D01*
X53701Y-40654D02*
X53426Y-40654D01*
X53426Y-40744D01*
X53439Y-40767D01*
X53452Y-40778D01*
X53478Y-40789D01*
X53517Y-40789D01*
X53544Y-40778D01*
X53557Y-40767D01*
X53570Y-40744D01*
X53570Y-40654D01*
X53701Y-41014D02*
X53701Y-40879D01*
X53701Y-40946D02*
X53426Y-40946D01*
X53465Y-40924D01*
X53491Y-40901D01*
X53504Y-40879D01*
X53426Y-41093D02*
X53426Y-41250D01*
X53701Y-41149D01*
X53701Y-41675D02*
X53570Y-41596D01*
X53701Y-41540D02*
X53426Y-41540D01*
X53426Y-41630D01*
X53439Y-41653D01*
X53452Y-41664D01*
X53478Y-41675D01*
X53517Y-41675D01*
X53544Y-41664D01*
X53557Y-41653D01*
X53570Y-41630D01*
X53570Y-41540D01*
X53426Y-41754D02*
X53426Y-41900D01*
X53531Y-41821D01*
X53531Y-41855D01*
X53544Y-41877D01*
X53557Y-41889D01*
X53583Y-41900D01*
X53648Y-41900D01*
X53675Y-41889D01*
X53688Y-41877D01*
X53701Y-41855D01*
X53701Y-41787D01*
X53688Y-41765D01*
X53675Y-41754D01*
X53544Y-42035D02*
X53531Y-42012D01*
X53517Y-42001D01*
X53491Y-41990D01*
X53478Y-41990D01*
X53452Y-42001D01*
X53439Y-42012D01*
X53426Y-42035D01*
X53426Y-42080D01*
X53439Y-42102D01*
X53452Y-42114D01*
X53478Y-42125D01*
X53491Y-42125D01*
X53517Y-42114D01*
X53531Y-42102D01*
X53544Y-42080D01*
X53544Y-42035D01*
X53557Y-42012D01*
X53570Y-42001D01*
X53596Y-41990D01*
X53648Y-41990D01*
X53675Y-42001D01*
X53688Y-42012D01*
X53701Y-42035D01*
X53701Y-42080D01*
X53688Y-42102D01*
X53675Y-42114D01*
X53648Y-42125D01*
X53596Y-42125D01*
X53570Y-42114D01*
X53557Y-42102D01*
X53544Y-42080D01*
X53701Y-42494D02*
X53570Y-42415D01*
X53701Y-42359D02*
X53426Y-42359D01*
X53426Y-42449D01*
X53439Y-42472D01*
X53452Y-42483D01*
X53478Y-42494D01*
X53517Y-42494D01*
X53544Y-42483D01*
X53557Y-42472D01*
X53570Y-42449D01*
X53570Y-42359D01*
X53426Y-42573D02*
X53426Y-42719D01*
X53531Y-42640D01*
X53531Y-42674D01*
X53544Y-42696D01*
X53557Y-42708D01*
X53583Y-42719D01*
X53648Y-42719D01*
X53675Y-42708D01*
X53688Y-42696D01*
X53701Y-42674D01*
X53701Y-42606D01*
X53688Y-42584D01*
X53675Y-42573D01*
X53701Y-42831D02*
X53701Y-42876D01*
X53688Y-42899D01*
X53675Y-42910D01*
X53635Y-42933D01*
X53583Y-42944D01*
X53478Y-42944D01*
X53452Y-42933D01*
X53439Y-42921D01*
X53426Y-42899D01*
X53426Y-42854D01*
X53439Y-42831D01*
X53452Y-42820D01*
X53478Y-42809D01*
X53544Y-42809D01*
X53570Y-42820D01*
X53583Y-42831D01*
X53596Y-42854D01*
X53596Y-42899D01*
X53583Y-42921D01*
X53570Y-42933D01*
X53544Y-42944D01*
X55282Y-42096D02*
X55361Y-41965D01*
X55417Y-42096D02*
X55417Y-41821D01*
X55327Y-41821D01*
X55304Y-41834D01*
X55293Y-41847D01*
X55282Y-41873D01*
X55282Y-41912D01*
X55293Y-41939D01*
X55304Y-41952D01*
X55327Y-41965D01*
X55417Y-41965D01*
X55057Y-42096D02*
X55192Y-42096D01*
X55125Y-42096D02*
X55125Y-41821D01*
X55147Y-41860D01*
X55170Y-41886D01*
X55192Y-41899D01*
X54855Y-41821D02*
X54900Y-41821D01*
X54922Y-41834D01*
X54933Y-41847D01*
X54956Y-41886D01*
X54967Y-41939D01*
X54967Y-42043D01*
X54956Y-42070D01*
X54945Y-42083D01*
X54922Y-42096D01*
X54877Y-42096D01*
X54855Y-42083D01*
X54843Y-42070D01*
X54832Y-42043D01*
X54832Y-41978D01*
X54843Y-41952D01*
X54855Y-41939D01*
X54877Y-41926D01*
X54922Y-41926D01*
X54945Y-41939D01*
X54956Y-41952D01*
X54967Y-41978D01*
M02*
