G04 (created by PCBNEW-RS274X (2012-08-04 BZR 3667)-testing) date 10/19/2012 6:39:08 PM*
%MOIN*%
G04 Gerber Fmt 3.4, Leading zero omitted, Abs format*
%FSLAX34Y34*%
G01*
G70*
G90*
G04 APERTURE LIST*
%ADD10C,0.0017*%
%ADD11C,0.0059*%
%ADD12C,0.0077*%
%ADD13C,0.0395*%
%ADD14C,0.0357*%
%ADD15C,0.0554*%
%ADD16R,0.0592X0.0592*%
%ADD17R,0.055X0.0588*%
%ADD18R,0.0588X0.055*%
%ADD19R,0.0273X0.0253*%
%ADD20R,0.0253X0.0273*%
%ADD21R,0.0337X0.0218*%
%ADD22R,0.0218X0.0337*%
%ADD23R,0.0353X0.0392*%
%ADD24R,0.0392X0.0353*%
%ADD25R,0.0273X0.0273*%
%ADD26C,0.2365*%
%ADD27R,0.1571X0.0704*%
%ADD28R,0.2594X0.2752*%
%ADD29R,0.0514X0.0514*%
%ADD30R,0.1649X0.0546*%
%ADD31R,0.1453X0.0546*%
%ADD32R,0.0546X0.1453*%
%ADD33R,0.0546X0.1649*%
%ADD34R,0.2049X0.0789*%
%ADD35R,0.0789X0.0475*%
%ADD36C,0.071*%
%ADD37C,0.075*%
%ADD38C,0.0797*%
%ADD39C,0.0675*%
%ADD40R,0.0797X0.0797*%
%ADD41R,0.0626X0.0304*%
%ADD42O,0.0626X0.0304*%
%ADD43R,0.0453X0.0803*%
%ADD44R,0.0823X0.0823*%
%ADD45O,0.0271X0.0489*%
%ADD46O,0.0276X0.0489*%
%ADD47O,0.0272X0.0489*%
%ADD48O,0.0489X0.0272*%
%ADD49R,0.0489X0.0272*%
%ADD50O,0.0489X0.0276*%
%ADD51R,0.0357X0.0409*%
%ADD52R,0.022X0.0314*%
%ADD53R,0.0476X0.0295*%
%ADD54R,0.0527X0.0295*%
%ADD55R,0.0554X0.0295*%
%ADD56R,0.0759X0.0295*%
%ADD57R,0.0219X0.0295*%
%ADD58R,0.0219X0.0283*%
%ADD59R,0.022X0.0295*%
%ADD60R,0.0219X0.0371*%
%ADD61R,0.0219X0.0542*%
%ADD62R,0.0219X0.0504*%
%ADD63R,0.0219X0.0294*%
%ADD64R,0.0219X0.0409*%
%ADD65R,0.0219X0.058*%
%ADD66R,0.0219X0.0675*%
%ADD67R,0.0219X0.0789*%
%ADD68R,0.0219X0.0846*%
%ADD69R,0.0219X0.0903*%
%ADD70R,0.0219X0.0979*%
%ADD71R,0.0219X0.0485*%
%ADD72R,0.0219X0.0447*%
%ADD73R,0.0219X0.0428*%
%ADD74R,0.0219X0.039*%
%ADD75R,0.0219X0.0333*%
%ADD76R,0.0219X0.0276*%
%ADD77R,0.0219X0.0238*%
%ADD78R,0.0219X0.0637*%
%ADD79R,0.0219X0.0751*%
%ADD80R,0.0219X0.0314*%
%ADD81R,0.0219X0.0257*%
%ADD82R,0.022X0.034*%
%ADD83R,0.0219X0.0535*%
%ADD84R,0.0219X0.0352*%
%ADD85R,0.0219X0.0561*%
%ADD86R,0.0219X0.0599*%
%ADD87R,0.0219X0.0523*%
%ADD88R,0.0219X0.0466*%
%ADD89R,0.0791X0.0295*%
%ADD90R,0.0357X0.0295*%
%ADD91R,0.022X0.058*%
%ADD92R,0.0219X0.0618*%
%ADD93R,0.0495X0.0295*%
%ADD94R,0.0417X0.0295*%
%ADD95R,0.0924X0.0295*%
%ADD96R,0.0219X0.3981*%
%ADD97R,0.0235X0.0393*%
%ADD98R,0.0155X0.0155*%
%ADD99R,0.0155X0.0215*%
%ADD100R,0.0215X0.0155*%
%ADD101C,0.0039*%
G04 APERTURE END LIST*
G54D10*
G54D11*
X41831Y-53937D02*
G75*
G03X41831Y-53937I-492J0D01*
G74*
G01*
X40355Y-53937D02*
X42323Y-53937D01*
X41339Y-52953D02*
X41339Y-54921D01*
X70964Y-26378D02*
G75*
G03X70964Y-26378I-492J0D01*
G74*
G01*
X69488Y-26378D02*
X71456Y-26378D01*
X70472Y-25394D02*
X70472Y-27362D01*
X41831Y-26378D02*
G75*
G03X41831Y-26378I-492J0D01*
G74*
G01*
X40355Y-26378D02*
X42323Y-26378D01*
X41339Y-25394D02*
X41339Y-27362D01*
G54D12*
X42606Y-52483D02*
X42606Y-27680D01*
X68983Y-52483D02*
X42606Y-52483D01*
X68983Y-27680D02*
X68983Y-52483D01*
X42606Y-27680D02*
X68983Y-27680D01*
X66228Y-30437D02*
X66228Y-39492D01*
X57764Y-30437D02*
X66228Y-30437D01*
X57764Y-29650D02*
X57764Y-30437D01*
X67016Y-29650D02*
X57764Y-29650D01*
X67016Y-39492D02*
X67016Y-29650D01*
X66228Y-39492D02*
X67016Y-39492D01*
X57764Y-50515D02*
X57764Y-49728D01*
X67016Y-50515D02*
X57764Y-50515D01*
X67016Y-40948D02*
X67016Y-50515D01*
X66228Y-40948D02*
X67016Y-40948D01*
X66228Y-49728D02*
X66228Y-40948D01*
X57764Y-49728D02*
X66228Y-49728D01*
X46936Y-50515D02*
X46936Y-44413D01*
X56386Y-50515D02*
X46936Y-50515D01*
X56386Y-49728D02*
X56386Y-50515D01*
X47724Y-49728D02*
X56386Y-49728D01*
X47724Y-44413D02*
X47724Y-49728D01*
X46936Y-44413D02*
X47724Y-44413D01*
X46936Y-43390D02*
X46936Y-35555D01*
X47724Y-43390D02*
X46936Y-43390D01*
X47724Y-35555D02*
X47724Y-43390D01*
X46936Y-35555D02*
X47724Y-35555D01*
X47724Y-30437D02*
X47724Y-34570D01*
X46936Y-34570D02*
X47724Y-34570D01*
X46936Y-29648D02*
X46936Y-34570D01*
X46936Y-29648D02*
X56384Y-29648D01*
X56384Y-29648D02*
X56384Y-30437D01*
X47724Y-30437D02*
X56384Y-30437D01*
G54D13*
X56102Y-43975D03*
G54D14*
X61013Y-44997D03*
X61363Y-45005D03*
X61158Y-45292D03*
X61386Y-35540D03*
X61024Y-35536D03*
X61024Y-35198D03*
X61394Y-35193D03*
X56791Y-43535D03*
X63583Y-34409D03*
G54D15*
X47725Y-34630D03*
X47725Y-35063D03*
X47725Y-35496D03*
X47725Y-44335D03*
X47725Y-43902D03*
X47725Y-43469D03*
X66268Y-39571D03*
X66268Y-40004D03*
X66268Y-40437D03*
X66268Y-40870D03*
G54D16*
X49299Y-51303D03*
X49299Y-51303D03*
X66622Y-51303D03*
X66622Y-51303D03*
X66621Y-28862D03*
X66621Y-28862D03*
G54D14*
X58299Y-40354D03*
X58299Y-39921D03*
X58082Y-40138D03*
X58515Y-40138D03*
X61129Y-38252D03*
X61011Y-37386D03*
X63553Y-36201D03*
X63571Y-36520D03*
X63571Y-36993D03*
X52273Y-32898D03*
X52272Y-33331D03*
X51445Y-33331D03*
X51446Y-32898D03*
X59398Y-33803D03*
X59005Y-33804D03*
X61367Y-33804D03*
X61760Y-33803D03*
X64005Y-31204D03*
X65736Y-31283D03*
X53610Y-30890D03*
X53059Y-30890D03*
X59791Y-30889D03*
X59201Y-30889D03*
X58571Y-30889D03*
X57901Y-30889D03*
X57311Y-30890D03*
X54240Y-30890D03*
X54831Y-30890D03*
X55461Y-30890D03*
X56130Y-30890D03*
X56721Y-30890D03*
X62783Y-30889D03*
X62193Y-30889D03*
X61563Y-30889D03*
X60893Y-30889D03*
X60382Y-30890D03*
X63335Y-30890D03*
X63846Y-30889D03*
X64516Y-30889D03*
X65146Y-30889D03*
X65736Y-30889D03*
X63127Y-32925D03*
X63138Y-33292D03*
X63600Y-33280D03*
X62655Y-33280D03*
X63453Y-32544D03*
X61484Y-32544D03*
X62065Y-32532D03*
X60894Y-32544D03*
X62744Y-32544D03*
X60658Y-33292D03*
X61120Y-33280D03*
X62065Y-33280D03*
X61603Y-33292D03*
X59752Y-33292D03*
X60214Y-33280D03*
X55953Y-33291D03*
X55312Y-33271D03*
X60343Y-32544D03*
X59269Y-33280D03*
X56465Y-33291D03*
X56965Y-33280D03*
X54289Y-33271D03*
X54762Y-33271D03*
X58807Y-33292D03*
X57410Y-33291D03*
X50618Y-30929D03*
X50895Y-32898D03*
X50894Y-33331D03*
X49281Y-33527D03*
X50028Y-30929D03*
X49950Y-33567D03*
X49398Y-30929D03*
X48728Y-30929D03*
X48256Y-35103D03*
X48650Y-35102D03*
X48650Y-34552D03*
X48256Y-34552D03*
X48256Y-33410D03*
X48650Y-33410D03*
X48650Y-33961D03*
X48256Y-33961D03*
X48255Y-32898D03*
X48255Y-32504D03*
X48255Y-32032D03*
X48255Y-31520D03*
X48256Y-30929D03*
X52627Y-36166D03*
X51995Y-39173D03*
X51680Y-39173D03*
X51365Y-39173D03*
X51010Y-39212D03*
X51004Y-38953D03*
X51012Y-39551D03*
X51012Y-40181D03*
X55718Y-42968D03*
X55450Y-43472D03*
X54248Y-41252D03*
X53937Y-41520D03*
X53925Y-41248D03*
X52413Y-41387D03*
X51196Y-41394D03*
X63602Y-33632D03*
X63612Y-33967D03*
X64016Y-36220D03*
X64043Y-36559D03*
X64035Y-34409D03*
X64043Y-34039D03*
X65462Y-33764D03*
X65776Y-33764D03*
X65146Y-33764D03*
X64832Y-33764D03*
X64202Y-33764D03*
X64516Y-33764D03*
X64516Y-36835D03*
X64202Y-36835D03*
X64832Y-36835D03*
X65146Y-36835D03*
X65776Y-36835D03*
X65462Y-36835D03*
X65697Y-42268D03*
X65696Y-41677D03*
X65696Y-41087D03*
X65696Y-40535D03*
X65697Y-37977D03*
X65697Y-38646D03*
X65697Y-39906D03*
X63570Y-40024D03*
X63570Y-39591D03*
X63571Y-39079D03*
X63571Y-38528D03*
X63571Y-37977D03*
X63570Y-42937D03*
X63570Y-40535D03*
X63570Y-41087D03*
X63570Y-41677D03*
X63571Y-42268D03*
X63137Y-42584D03*
X63138Y-42230D03*
X63138Y-39867D03*
X63137Y-40221D03*
X63136Y-37859D03*
X63137Y-37505D03*
X62626Y-36717D03*
X62626Y-36205D03*
X62626Y-35772D03*
X62626Y-37229D03*
X62626Y-37858D03*
X63571Y-37504D03*
X62114Y-38488D03*
X62665Y-38488D03*
X62114Y-37858D03*
X62114Y-37229D03*
X61169Y-44473D03*
X61721Y-43882D03*
X61681Y-44355D03*
X62274Y-40728D03*
X62271Y-41166D03*
X62271Y-41756D03*
X62271Y-42307D03*
X62271Y-44315D03*
X62272Y-43646D03*
X62271Y-42937D03*
X62704Y-42307D03*
X62704Y-41756D03*
X62704Y-41166D03*
X62697Y-40728D03*
X62704Y-42937D03*
X62705Y-43646D03*
X62704Y-44315D03*
X58732Y-40354D03*
X57866Y-40354D03*
X57433Y-40354D03*
X57000Y-40354D03*
X56783Y-40571D03*
X57216Y-40571D03*
X57653Y-40571D03*
X58082Y-40571D03*
X58515Y-40571D03*
X58515Y-41004D03*
X58082Y-41004D03*
X57653Y-41004D03*
X57216Y-41004D03*
X56783Y-41004D03*
X57000Y-40787D03*
X57433Y-40787D03*
X58299Y-40787D03*
X57866Y-40787D03*
X58732Y-40787D03*
X58732Y-39921D03*
X57866Y-39921D03*
X57433Y-39921D03*
X57000Y-39921D03*
X56783Y-40138D03*
X57216Y-40138D03*
X57653Y-40138D03*
X58515Y-39705D03*
X58082Y-39705D03*
X57653Y-39705D03*
X57216Y-39705D03*
X56783Y-39705D03*
X57000Y-39488D03*
X57433Y-39488D03*
X58299Y-39488D03*
X57866Y-39488D03*
X58732Y-39488D03*
X58732Y-39055D03*
X57866Y-39055D03*
X58299Y-39055D03*
X57433Y-39055D03*
X57000Y-39055D03*
X56783Y-39272D03*
X57216Y-39272D03*
X57653Y-39272D03*
X58082Y-39272D03*
X58515Y-39272D03*
X64055Y-43533D03*
X64045Y-43858D03*
X64555Y-43282D03*
X64241Y-43282D03*
X64871Y-43282D03*
X65185Y-43282D03*
X65815Y-43282D03*
X65501Y-43282D03*
X65510Y-46353D03*
X65824Y-46353D03*
X65194Y-46353D03*
X64880Y-46353D03*
X64065Y-46083D03*
X64035Y-45758D03*
X63514Y-46358D03*
X64250Y-46353D03*
X64564Y-46353D03*
X63553Y-43435D03*
X63553Y-43907D03*
X63494Y-45856D03*
X60472Y-44461D03*
X57598Y-45152D03*
X57598Y-44837D03*
X56249Y-44866D03*
X55658Y-44866D03*
X54516Y-38173D03*
X54516Y-37858D03*
X54005Y-37858D03*
X55028Y-44236D03*
X54162Y-43488D03*
X54756Y-43909D03*
X65736Y-47032D03*
X64319Y-49355D03*
X65736Y-49355D03*
X65106Y-49355D03*
X60622Y-47855D03*
X62889Y-49028D03*
X62889Y-49343D03*
X63480Y-49343D03*
X63480Y-49028D03*
X60566Y-49028D03*
X60566Y-49343D03*
X61118Y-49343D03*
X61118Y-49028D03*
X62260Y-49028D03*
X62260Y-49343D03*
X61709Y-49343D03*
X61709Y-49028D03*
X59465Y-49028D03*
X59465Y-49343D03*
X60016Y-49343D03*
X60016Y-49028D03*
X58914Y-49028D03*
X58914Y-49343D03*
X58323Y-49343D03*
X58323Y-49028D03*
X58335Y-48567D03*
X63138Y-46953D03*
X62587Y-46953D03*
X61012Y-46941D03*
X62004Y-46957D03*
X58465Y-46850D03*
X58099Y-46835D03*
X57547Y-46835D03*
X56996Y-46835D03*
X56484Y-46835D03*
X56012Y-46835D03*
X53932Y-47357D03*
X59417Y-46406D03*
X61760Y-46284D03*
X61406Y-46284D03*
X56642Y-46284D03*
X56996Y-46284D03*
X52378Y-46382D03*
X52031Y-46382D03*
X50539Y-46873D03*
X49870Y-46676D03*
X49240Y-46755D03*
X48295Y-45968D03*
X48689Y-45968D03*
X48689Y-45496D03*
X48295Y-45496D03*
X48295Y-46441D03*
X48689Y-46441D03*
X48689Y-46913D03*
X48295Y-46913D03*
X48295Y-47386D03*
X48295Y-47937D03*
X48295Y-48449D03*
X48295Y-48921D03*
X48295Y-49315D03*
X48965Y-49315D03*
X49673Y-49315D03*
X50382Y-49315D03*
G54D13*
X48861Y-45087D03*
X48546Y-45087D03*
X48231Y-45087D03*
X52389Y-43424D03*
X52744Y-43424D03*
X52941Y-43620D03*
X52586Y-43621D03*
X52782Y-45375D03*
X52782Y-45690D03*
X52584Y-45927D03*
X52190Y-45927D03*
X51994Y-45690D03*
X51994Y-45375D03*
G54D17*
X56532Y-48310D03*
X56532Y-47406D03*
G54D18*
X51568Y-44036D03*
X52472Y-44036D03*
X51568Y-44772D03*
X52472Y-44772D03*
G54D19*
X51445Y-35036D03*
X51445Y-35406D03*
G54D20*
X61870Y-36559D03*
X61500Y-36559D03*
G54D19*
X60461Y-41890D03*
X60461Y-41520D03*
X55299Y-38559D03*
X55299Y-38929D03*
X60827Y-41504D03*
X60827Y-41874D03*
X60618Y-38784D03*
X60618Y-38414D03*
X60264Y-38402D03*
X60264Y-38772D03*
X59665Y-38024D03*
X59665Y-37654D03*
G54D21*
X58799Y-43133D03*
X58799Y-42793D03*
X57825Y-35952D03*
X57825Y-36292D03*
X59843Y-43123D03*
X59843Y-42783D03*
G54D22*
X58800Y-35740D03*
X58460Y-35740D03*
X57442Y-36787D03*
X57102Y-36787D03*
G54D21*
X58472Y-36568D03*
X58472Y-36228D03*
G54D22*
X57434Y-35512D03*
X57094Y-35512D03*
X58957Y-37870D03*
X58617Y-37870D03*
G54D21*
X59252Y-36247D03*
X59252Y-36587D03*
G54D22*
X58296Y-42520D03*
X57956Y-42520D03*
X57123Y-42500D03*
X57463Y-42500D03*
X59692Y-44606D03*
X60032Y-44606D03*
G54D21*
X58976Y-44225D03*
X58976Y-43885D03*
G54D22*
X59692Y-43484D03*
X60032Y-43484D03*
X57237Y-37984D03*
X56897Y-37984D03*
X56568Y-36500D03*
X56228Y-36500D03*
X55550Y-36496D03*
X55890Y-36496D03*
X58044Y-37992D03*
X57704Y-37992D03*
G54D23*
X57078Y-47500D03*
X57508Y-47500D03*
X57088Y-48284D03*
X57518Y-48284D03*
X54542Y-45276D03*
X54112Y-45276D03*
G54D24*
X51469Y-43372D03*
X51469Y-42943D03*
G54D23*
X53057Y-44851D03*
X53487Y-44851D03*
X55215Y-44638D03*
X54785Y-44638D03*
X53990Y-43882D03*
X54420Y-43882D03*
G54D25*
X59016Y-35305D03*
X59370Y-35305D03*
X59327Y-45031D03*
X59681Y-45031D03*
X58976Y-44606D03*
X58622Y-44606D03*
X59693Y-43878D03*
X59693Y-44232D03*
X58976Y-43504D03*
X58622Y-43504D03*
X59124Y-42776D03*
X59124Y-43130D03*
X59488Y-42776D03*
X59488Y-43130D03*
X59130Y-42477D03*
X59484Y-42477D03*
X59577Y-36584D03*
X59577Y-36230D03*
X57469Y-45799D03*
X57823Y-45799D03*
X57622Y-35059D03*
X57976Y-35059D03*
X58004Y-42933D03*
X58004Y-43287D03*
X57461Y-42933D03*
X57461Y-43287D03*
X57667Y-42165D03*
X58021Y-42165D03*
X59012Y-37480D03*
X59012Y-37126D03*
X59248Y-35744D03*
X59602Y-35744D03*
X58799Y-36575D03*
X58799Y-36221D03*
X57441Y-36289D03*
X57441Y-35935D03*
X51976Y-36496D03*
X52330Y-36496D03*
X57825Y-35522D03*
X58179Y-35522D03*
X58071Y-37579D03*
X58071Y-37225D03*
X57677Y-37579D03*
X57677Y-37225D03*
X57260Y-37575D03*
X57260Y-37221D03*
X57825Y-36781D03*
X58179Y-36781D03*
X57764Y-34433D03*
X58118Y-34433D03*
X56874Y-37567D03*
X56874Y-37213D03*
X58547Y-37480D03*
X58547Y-37126D03*
X62217Y-35299D03*
X62571Y-35299D03*
X48532Y-37130D03*
X48532Y-36776D03*
X48532Y-37457D03*
X48532Y-37811D03*
X60264Y-38110D03*
X60618Y-38110D03*
X60268Y-39083D03*
X60622Y-39083D03*
X60264Y-39406D03*
X60618Y-39406D03*
X60473Y-40831D03*
X60827Y-40831D03*
X60461Y-42173D03*
X60815Y-42173D03*
X55283Y-39252D03*
X54929Y-39252D03*
X60481Y-41173D03*
X60835Y-41173D03*
G54D26*
X49752Y-32228D03*
X64791Y-32228D03*
X64791Y-47975D03*
X49752Y-47975D03*
G54D27*
X55145Y-49107D03*
G54D28*
X52271Y-48173D03*
G54D27*
X55145Y-47309D03*
G54D13*
X56378Y-43975D03*
X52232Y-43621D03*
G54D20*
X59347Y-47051D03*
X58977Y-47051D03*
G54D29*
X60421Y-46992D03*
X59791Y-46992D03*
G54D13*
X52112Y-49195D03*
X51720Y-49197D03*
X52507Y-49197D03*
X51325Y-49197D03*
X52902Y-49197D03*
X51325Y-48802D03*
X51325Y-48410D03*
X51325Y-48015D03*
X51325Y-47622D03*
X51325Y-47267D03*
X51720Y-47267D03*
X52114Y-47267D03*
X52507Y-47267D03*
X52900Y-47267D03*
X52900Y-47622D03*
X52900Y-48015D03*
X52900Y-48410D03*
X52900Y-48802D03*
G54D16*
X49299Y-28862D03*
X49299Y-28862D03*
G54D15*
X56426Y-49768D03*
X56859Y-49768D03*
X57292Y-49768D03*
X57726Y-49768D03*
X56425Y-30437D03*
X56858Y-30437D03*
X57291Y-30437D03*
X57725Y-30437D03*
G54D13*
X54516Y-48607D03*
X54831Y-48607D03*
X55146Y-48607D03*
X55461Y-48607D03*
X59419Y-47520D03*
X60512Y-47510D03*
X62312Y-47426D03*
X63336Y-47426D03*
G54D30*
X60400Y-33783D03*
X58038Y-33783D03*
X55676Y-33783D03*
X53313Y-33783D03*
G54D31*
X51051Y-33783D03*
G54D32*
X50599Y-34235D03*
G54D33*
X63116Y-36500D03*
X63116Y-38862D03*
X63116Y-41223D03*
X63116Y-43587D03*
G54D31*
X62663Y-46301D03*
G54D32*
X63116Y-45847D03*
X50599Y-45847D03*
G54D31*
X51051Y-46301D03*
G54D30*
X53313Y-46301D03*
X55676Y-46301D03*
X58038Y-46301D03*
X60400Y-46301D03*
G54D33*
X50599Y-43587D03*
X50599Y-41223D03*
X50599Y-38862D03*
X50599Y-36500D03*
G54D31*
X62663Y-33783D03*
G54D32*
X63116Y-34235D03*
G54D34*
X65161Y-43763D03*
X65161Y-45867D03*
G54D35*
X65711Y-44815D03*
G54D34*
X65145Y-34246D03*
X65145Y-36350D03*
G54D35*
X65695Y-35298D03*
G54D36*
X51299Y-32217D03*
X52299Y-32217D03*
X52299Y-31217D03*
X51299Y-31217D03*
G54D37*
X51799Y-31717D03*
G54D38*
X58307Y-31834D03*
X57307Y-31834D03*
G54D39*
X56307Y-31834D03*
G54D38*
X55307Y-31834D03*
G54D40*
X53307Y-31814D03*
G54D38*
X54307Y-31834D03*
G54D40*
X57576Y-49079D03*
G54D38*
X56576Y-49079D03*
G54D41*
X62005Y-45800D03*
G54D42*
X62005Y-45543D03*
X62005Y-45289D03*
X62005Y-45032D03*
X60235Y-45032D03*
X60235Y-45289D03*
X60235Y-45543D03*
X60235Y-45800D03*
G54D43*
X57164Y-43981D03*
X57664Y-43981D03*
X58164Y-43981D03*
X58164Y-45232D03*
X57164Y-45232D03*
G54D44*
X61200Y-35379D03*
G54D45*
X61298Y-34799D03*
G54D46*
X61102Y-34799D03*
G54D45*
X60905Y-34799D03*
G54D46*
X61495Y-34799D03*
X61102Y-35959D03*
G54D47*
X60905Y-35960D03*
X61298Y-35960D03*
X61495Y-35960D03*
G54D48*
X60619Y-35281D03*
G54D49*
X60619Y-35084D03*
G54D48*
X60619Y-35477D03*
X60619Y-35674D03*
G54D50*
X61780Y-35281D03*
G54D48*
X61781Y-35084D03*
X61781Y-35477D03*
X61781Y-35674D03*
G54D43*
X56579Y-35874D03*
X56079Y-35874D03*
X55579Y-35874D03*
X55579Y-34623D03*
X56579Y-34623D03*
G54D51*
X65303Y-39141D03*
G54D52*
X65063Y-40479D03*
G54D53*
X64551Y-40832D03*
G54D54*
X64905Y-40832D03*
G54D55*
X64890Y-41137D03*
G54D56*
X64791Y-41438D03*
G54D57*
X65437Y-39141D03*
G54D58*
X64362Y-40940D03*
G54D59*
X64377Y-41328D03*
G54D58*
X64358Y-41334D03*
G54D60*
X64378Y-41479D03*
G54D61*
X65043Y-39587D03*
G54D62*
X65059Y-39606D03*
G54D57*
X65063Y-40224D03*
G54D59*
X65044Y-40224D03*
G54D63*
X65059Y-39826D03*
G54D64*
X63960Y-38571D03*
G54D65*
X63979Y-38561D03*
G54D66*
X63998Y-38571D03*
G54D67*
X64017Y-38571D03*
G54D68*
X64036Y-38561D03*
G54D69*
X64055Y-38571D03*
G54D70*
X64074Y-38571D03*
G54D71*
X64093Y-38837D03*
X64093Y-38305D03*
G54D72*
X64112Y-38875D03*
X64112Y-38267D03*
G54D73*
X64131Y-38903D03*
G54D64*
X64131Y-38229D03*
G54D74*
X64150Y-38922D03*
G54D60*
X64150Y-38210D03*
G54D75*
X64169Y-38932D03*
X64169Y-38210D03*
G54D57*
X64188Y-38932D03*
G54D72*
X64188Y-38571D03*
G54D76*
X64188Y-38200D03*
G54D77*
X64207Y-38941D03*
G54D61*
X64207Y-38561D03*
G54D77*
X64207Y-38200D03*
G54D78*
X64226Y-38571D03*
G54D66*
X64245Y-38571D03*
G54D79*
X64264Y-38571D03*
G54D73*
X64283Y-38751D03*
G54D64*
X64283Y-38381D03*
G54D60*
X64302Y-38780D03*
X64302Y-38362D03*
G54D80*
X64321Y-38789D03*
X64321Y-38352D03*
G54D81*
X64340Y-38799D03*
X64340Y-38343D03*
G54D75*
X64359Y-41915D03*
G54D82*
X64358Y-41464D03*
G54D83*
X64362Y-40712D03*
G54D80*
X64359Y-40024D03*
G54D62*
X64359Y-39606D03*
G54D57*
X64359Y-38571D03*
G54D84*
X64378Y-41905D03*
G54D57*
X64378Y-40946D03*
G54D85*
X64378Y-40699D03*
G54D84*
X64378Y-40024D03*
G54D61*
X64378Y-39587D03*
G54D64*
X64378Y-38571D03*
G54D84*
X64397Y-41905D03*
G54D60*
X64397Y-41478D03*
G54D57*
X64397Y-41326D03*
X64397Y-40946D03*
G54D65*
X64397Y-40689D03*
G54D84*
X64397Y-40024D03*
G54D65*
X64397Y-39568D03*
G54D71*
X64397Y-38571D03*
G54D84*
X64416Y-41905D03*
G54D60*
X64416Y-41478D03*
G54D57*
X64416Y-41307D03*
X64416Y-40965D03*
G54D86*
X64416Y-40680D03*
G54D84*
X64416Y-40024D03*
G54D86*
X64416Y-39559D03*
G54D87*
X64416Y-38571D03*
G54D60*
X64435Y-41896D03*
X64435Y-41478D03*
G54D57*
X64435Y-41307D03*
X64435Y-40965D03*
G54D75*
X64435Y-40528D03*
G54D60*
X64435Y-40034D03*
G54D84*
X64435Y-39416D03*
G54D57*
X64435Y-38685D03*
X64435Y-38457D03*
G54D60*
X64454Y-41896D03*
X64454Y-41478D03*
G54D57*
X64454Y-41288D03*
X64454Y-40984D03*
G54D80*
X64454Y-40499D03*
G54D74*
X64454Y-40024D03*
G54D75*
X64454Y-39388D03*
G54D77*
X64454Y-38694D03*
X64454Y-38447D03*
G54D60*
X64473Y-41896D03*
G54D74*
X64473Y-41487D03*
G54D57*
X64473Y-41288D03*
X64473Y-40984D03*
X64473Y-40490D03*
G54D76*
X64473Y-40081D03*
G54D57*
X64473Y-39977D03*
G54D80*
X64473Y-39359D03*
G54D60*
X64492Y-41896D03*
G54D74*
X64492Y-41487D03*
G54D57*
X64492Y-41269D03*
G54D76*
X64492Y-40993D03*
G54D57*
X64492Y-40490D03*
X64492Y-40091D03*
G54D76*
X64492Y-39967D03*
G54D80*
X64492Y-39359D03*
G54D74*
X64511Y-41886D03*
X64511Y-41487D03*
G54D57*
X64511Y-41269D03*
X64511Y-41003D03*
X64511Y-40471D03*
X64511Y-40091D03*
X64511Y-39958D03*
G54D80*
X64511Y-39340D03*
G54D76*
X64530Y-41829D03*
G54D74*
X64530Y-41487D03*
G54D57*
X64530Y-41250D03*
G54D76*
X64530Y-41012D03*
G54D57*
X64530Y-40471D03*
X64530Y-40091D03*
X64530Y-39958D03*
X64530Y-39331D03*
G54D76*
X64549Y-41829D03*
G54D64*
X64549Y-41497D03*
G54D57*
X64549Y-41250D03*
X64549Y-41022D03*
X64549Y-40471D03*
G54D76*
X64549Y-40100D03*
G54D57*
X64549Y-39958D03*
X64549Y-39331D03*
X64568Y-41820D03*
X64568Y-41554D03*
X64568Y-41231D03*
G54D76*
X64568Y-41031D03*
G54D57*
X64568Y-40471D03*
X64568Y-40110D03*
G54D76*
X64568Y-39948D03*
G54D88*
X64568Y-38789D03*
G54D62*
X64568Y-38333D03*
G54D76*
X64587Y-41810D03*
X64587Y-41563D03*
G54D57*
X64587Y-41231D03*
X64587Y-41041D03*
X64587Y-40471D03*
X64587Y-40110D03*
X64587Y-39939D03*
G54D71*
X64587Y-38780D03*
G54D62*
X64587Y-38333D03*
G54D76*
X64606Y-41810D03*
G54D57*
X64606Y-41573D03*
X64606Y-41212D03*
G54D76*
X64606Y-41050D03*
G54D57*
X64606Y-40490D03*
G54D76*
X64606Y-40119D03*
G54D57*
X64606Y-39939D03*
G54D87*
X64606Y-38761D03*
G54D62*
X64606Y-38333D03*
G54D76*
X64625Y-41810D03*
G54D57*
X64625Y-41573D03*
X64625Y-41212D03*
X64625Y-41060D03*
G54D80*
X64625Y-40499D03*
G54D57*
X64625Y-40129D03*
X64625Y-39939D03*
G54D87*
X64625Y-38761D03*
G54D62*
X64625Y-38333D03*
G54D57*
X64644Y-41801D03*
X64644Y-41573D03*
X64644Y-41193D03*
G54D76*
X64644Y-41069D03*
G54D80*
X64644Y-40518D03*
G54D57*
X64644Y-40129D03*
X64644Y-39920D03*
G54D75*
X64644Y-38647D03*
G54D76*
X64663Y-41791D03*
X64663Y-41582D03*
G54D74*
X64663Y-41126D03*
G54D84*
X64663Y-40537D03*
G54D57*
X64663Y-40129D03*
X64663Y-39920D03*
X64663Y-38628D03*
G54D76*
X64682Y-41791D03*
G54D57*
X64682Y-41592D03*
G54D60*
X64682Y-41136D03*
G54D86*
X64682Y-40680D03*
G54D76*
X64682Y-40138D03*
G54D57*
X64682Y-39920D03*
X64682Y-38609D03*
G54D76*
X64701Y-41791D03*
G54D57*
X64701Y-41592D03*
G54D84*
X64701Y-41126D03*
G54D65*
X64701Y-40689D03*
G54D57*
X64701Y-40148D03*
X64701Y-39901D03*
G54D89*
X64704Y-39711D03*
G54D90*
X64701Y-38875D03*
G54D57*
X64701Y-38609D03*
G54D90*
X64701Y-38438D03*
G54D57*
X64720Y-41782D03*
G54D76*
X64720Y-41601D03*
G54D75*
X64720Y-41136D03*
G54D61*
X64720Y-40708D03*
G54D57*
X64720Y-40148D03*
X64720Y-39901D03*
G54D76*
X64720Y-38618D03*
G54D56*
X64791Y-41934D03*
G54D76*
X64739Y-41772D03*
X64739Y-41601D03*
G54D87*
X64739Y-40718D03*
G54D57*
X64739Y-40148D03*
X64739Y-39901D03*
X64739Y-38628D03*
G54D76*
X64758Y-41772D03*
G54D57*
X64758Y-41611D03*
X64758Y-40604D03*
G54D80*
X64758Y-40157D03*
G54D57*
X64758Y-39901D03*
G54D80*
X64758Y-38637D03*
G54D57*
X64777Y-41763D03*
X64777Y-41611D03*
G54D80*
X64777Y-40594D03*
G54D91*
X64777Y-40024D03*
G54D87*
X64777Y-38761D03*
G54D72*
X64777Y-38362D03*
G54D76*
X64796Y-41753D03*
X64796Y-41620D03*
G54D57*
X64796Y-40585D03*
G54D65*
X64796Y-40024D03*
G54D62*
X64796Y-38770D03*
G54D72*
X64796Y-38362D03*
G54D76*
X64815Y-41753D03*
X64815Y-41620D03*
G54D80*
X64815Y-40575D03*
G54D65*
X64815Y-40024D03*
G54D71*
X64815Y-38780D03*
G54D72*
X64815Y-38362D03*
G54D76*
X64834Y-41753D03*
G54D57*
X64834Y-41630D03*
G54D80*
X64834Y-40575D03*
G54D92*
X64834Y-40024D03*
G54D93*
X64701Y-39311D03*
G54D88*
X64834Y-38789D03*
G54D72*
X64834Y-38362D03*
G54D57*
X64853Y-41744D03*
X64853Y-41630D03*
X64853Y-40566D03*
X64853Y-40186D03*
X64853Y-39863D03*
G54D80*
X64853Y-39321D03*
X64853Y-38694D03*
G54D76*
X64872Y-41734D03*
X64872Y-41639D03*
G54D80*
X64872Y-40556D03*
G54D57*
X64872Y-40186D03*
X64872Y-39863D03*
X64872Y-39331D03*
X64872Y-38685D03*
G54D60*
X64891Y-41687D03*
G54D57*
X64891Y-40547D03*
X64891Y-40205D03*
X64891Y-39863D03*
G54D80*
X64891Y-39340D03*
G54D57*
X64891Y-38685D03*
G54D60*
X64910Y-41687D03*
G54D80*
X64910Y-40537D03*
G54D57*
X64910Y-40205D03*
X64910Y-39844D03*
X64910Y-39350D03*
X64910Y-38666D03*
G54D84*
X64929Y-41696D03*
G54D80*
X64929Y-40537D03*
G54D57*
X64929Y-40205D03*
X64929Y-39844D03*
G54D80*
X64929Y-39359D03*
G54D57*
X64929Y-38666D03*
G54D75*
X64948Y-41687D03*
G54D57*
X64948Y-40528D03*
X64948Y-40205D03*
X64948Y-39844D03*
G54D80*
X64948Y-39378D03*
G54D57*
X64948Y-38647D03*
G54D94*
X64945Y-38438D03*
G54D75*
X64967Y-41687D03*
G54D80*
X64967Y-40518D03*
G54D57*
X64967Y-40224D03*
X64967Y-39825D03*
G54D84*
X64967Y-39397D03*
G54D94*
X64945Y-38875D03*
G54D57*
X64967Y-38647D03*
G54D75*
X64986Y-41687D03*
G54D57*
X64986Y-40509D03*
G54D95*
X64712Y-40345D03*
G54D57*
X64986Y-40224D03*
X64986Y-39825D03*
G54D80*
X64986Y-39701D03*
G54D64*
X64986Y-39445D03*
G54D57*
X64986Y-39141D03*
X64986Y-38628D03*
X65005Y-41687D03*
G54D80*
X65005Y-40499D03*
G54D57*
X65005Y-40224D03*
X65005Y-39825D03*
G54D86*
X65005Y-39559D03*
G54D75*
X65005Y-39141D03*
G54D57*
X65005Y-38628D03*
X65024Y-41687D03*
X65024Y-40490D03*
X65024Y-40224D03*
X65024Y-39825D03*
G54D85*
X65024Y-39578D03*
G54D60*
X65024Y-39141D03*
G54D76*
X65024Y-38618D03*
G54D57*
X65043Y-41687D03*
G54D80*
X65043Y-40480D03*
G54D63*
X65043Y-39826D03*
G54D57*
X65043Y-38609D03*
G54D81*
X65062Y-41687D03*
G54D51*
X65110Y-39141D03*
G54D96*
X65195Y-40091D03*
X65214Y-40091D03*
X65233Y-40091D03*
G54D74*
X65386Y-39141D03*
G54D60*
X65404Y-39141D03*
G54D75*
X65421Y-39141D03*
G54D97*
X58242Y-40948D03*
X58242Y-40580D03*
X58242Y-40216D03*
X58242Y-39845D03*
X58242Y-39480D03*
X58242Y-39113D03*
X58437Y-39113D03*
X58439Y-39480D03*
X58439Y-39845D03*
X58439Y-40216D03*
X58439Y-40580D03*
X58439Y-40948D03*
X58827Y-40948D03*
X58827Y-40580D03*
X58827Y-40216D03*
X58827Y-39845D03*
X58827Y-39480D03*
X58827Y-39113D03*
X58630Y-39113D03*
X58630Y-39480D03*
X58630Y-39845D03*
X58630Y-40216D03*
X58630Y-40580D03*
X58630Y-40948D03*
X57462Y-40948D03*
X57462Y-40580D03*
X57462Y-40216D03*
X57462Y-39845D03*
X57462Y-39480D03*
X57462Y-39113D03*
X57657Y-39113D03*
X57659Y-39480D03*
X57659Y-39845D03*
X57659Y-40216D03*
X57659Y-40580D03*
X57659Y-40948D03*
X58047Y-40948D03*
X58047Y-40580D03*
X58047Y-40216D03*
X58047Y-39845D03*
X58047Y-39480D03*
X58047Y-39113D03*
X57850Y-39113D03*
X57850Y-39480D03*
X57850Y-39845D03*
X57850Y-40216D03*
X57850Y-40580D03*
X57850Y-40948D03*
X57067Y-40948D03*
X57067Y-40580D03*
X57067Y-40216D03*
X57067Y-39845D03*
X57067Y-39480D03*
X57067Y-39113D03*
X57264Y-39113D03*
X57265Y-39480D03*
X57265Y-39845D03*
X57265Y-40216D03*
X57265Y-40580D03*
X57265Y-40948D03*
X56875Y-40948D03*
X56875Y-40580D03*
X56875Y-40216D03*
X56875Y-39845D03*
X56875Y-39480D03*
X56875Y-39113D03*
G54D98*
X58836Y-38554D03*
X59033Y-38554D03*
X58638Y-38554D03*
X58441Y-38554D03*
X58245Y-38554D03*
X58048Y-38554D03*
X57851Y-38554D03*
X57655Y-38554D03*
X57458Y-38554D03*
X57260Y-38554D03*
X57063Y-38554D03*
X56866Y-38554D03*
X56671Y-38554D03*
G54D99*
X59130Y-38330D03*
X58933Y-38330D03*
X58738Y-38330D03*
X58541Y-38330D03*
X58343Y-38330D03*
X58146Y-38330D03*
X57950Y-38330D03*
X57753Y-38330D03*
X57556Y-38330D03*
X57360Y-38330D03*
X57163Y-38330D03*
X56966Y-38330D03*
X56768Y-38330D03*
X56571Y-38330D03*
G54D98*
X56473Y-38554D03*
G54D100*
X59453Y-38653D03*
G54D98*
X59228Y-38753D03*
G54D100*
X59453Y-38852D03*
X59453Y-39048D03*
X59453Y-39245D03*
X59453Y-39442D03*
X59453Y-39638D03*
X59451Y-39835D03*
X59453Y-40032D03*
X59453Y-40228D03*
X59453Y-40427D03*
X59453Y-40622D03*
X59453Y-40820D03*
X59453Y-41017D03*
X59453Y-41212D03*
X59453Y-41400D03*
G54D98*
X59228Y-38950D03*
X59228Y-39145D03*
X59228Y-39343D03*
X59228Y-39540D03*
X59228Y-39737D03*
X59228Y-39933D03*
X59228Y-40132D03*
X59228Y-40327D03*
X59228Y-40523D03*
X59228Y-40722D03*
X59228Y-40918D03*
X59228Y-41312D03*
X59228Y-41115D03*
X58830Y-41505D03*
X59026Y-41505D03*
X58633Y-41505D03*
X58436Y-41505D03*
X58238Y-41505D03*
X58043Y-41505D03*
X57846Y-41505D03*
X57648Y-41505D03*
X57451Y-41505D03*
X57255Y-41505D03*
X57058Y-41505D03*
X56860Y-41505D03*
X56665Y-41505D03*
G54D99*
X59123Y-41730D03*
X58926Y-41730D03*
X58731Y-41730D03*
X58535Y-41730D03*
X58338Y-41730D03*
X58141Y-41730D03*
X57943Y-41730D03*
X57746Y-41730D03*
X57550Y-41729D03*
X57353Y-41730D03*
X57156Y-41730D03*
X56960Y-41730D03*
X56763Y-41730D03*
X56566Y-41730D03*
G54D98*
X56468Y-41505D03*
G54D99*
X56368Y-41730D03*
X56374Y-38330D03*
G54D100*
X56051Y-38652D03*
G54D98*
X56276Y-38751D03*
G54D100*
X56051Y-38849D03*
X56051Y-39046D03*
X56051Y-39243D03*
X56051Y-39440D03*
X56051Y-39637D03*
X56051Y-39833D03*
X56051Y-40030D03*
X56051Y-40227D03*
X56051Y-40424D03*
X56051Y-40621D03*
X56051Y-40818D03*
X56051Y-41015D03*
X56051Y-41210D03*
X56051Y-41407D03*
G54D98*
X56276Y-38948D03*
X56276Y-39144D03*
X56276Y-39341D03*
X56276Y-39538D03*
X56276Y-39735D03*
X56276Y-39932D03*
X56276Y-40129D03*
X56276Y-40326D03*
X56276Y-40522D03*
X56276Y-40719D03*
X56276Y-40916D03*
X56276Y-41310D03*
X56276Y-41113D03*
G54D97*
X56679Y-39113D03*
X56679Y-39480D03*
X56679Y-39845D03*
X56679Y-40216D03*
X56679Y-40580D03*
X56679Y-40948D03*
G54D38*
X63314Y-31834D03*
X62314Y-31834D03*
X61314Y-31834D03*
G54D40*
X59314Y-31814D03*
G54D38*
X60314Y-31834D03*
X63043Y-48350D03*
X62043Y-48350D03*
X61043Y-48350D03*
G54D40*
X59043Y-48330D03*
G54D38*
X60043Y-48350D03*
G54D10*
G36*
X50799Y-34890D02*
X50799Y-33984D01*
X51705Y-33984D01*
X51705Y-33583D01*
X50398Y-33583D01*
X50398Y-34890D01*
X50799Y-34890D01*
X50799Y-34890D01*
G37*
G54D101*
X50799Y-34890D02*
X50799Y-33984D01*
X51705Y-33984D01*
X51705Y-33583D01*
X50398Y-33583D01*
X50398Y-34890D01*
X50799Y-34890D01*
G54D10*
G36*
X54063Y-33984D02*
X54063Y-33583D01*
X52563Y-33583D01*
X52563Y-33984D01*
X54063Y-33984D01*
X54063Y-33984D01*
G37*
G54D101*
X54063Y-33984D02*
X54063Y-33583D01*
X52563Y-33583D01*
X52563Y-33984D01*
X54063Y-33984D01*
G54D10*
G36*
X56425Y-33984D02*
X56425Y-33583D01*
X54925Y-33583D01*
X54925Y-33981D01*
X56425Y-33984D01*
X56425Y-33984D01*
G37*
G54D101*
X56425Y-33984D02*
X56425Y-33583D01*
X54925Y-33583D01*
X54925Y-33981D01*
X56425Y-33984D01*
G54D10*
G36*
X58788Y-33984D02*
X58788Y-33583D01*
X57288Y-33583D01*
X57288Y-33981D01*
X58788Y-33984D01*
X58788Y-33984D01*
G37*
G54D101*
X58788Y-33984D02*
X58788Y-33583D01*
X57288Y-33583D01*
X57288Y-33981D01*
X58788Y-33984D01*
G54D10*
G36*
X61154Y-33984D02*
X61154Y-33583D01*
X59654Y-33583D01*
X59654Y-33981D01*
X61154Y-33984D01*
X61154Y-33984D01*
G37*
G54D101*
X61154Y-33984D02*
X61154Y-33583D01*
X59654Y-33583D01*
X59654Y-33981D01*
X61154Y-33984D01*
G54D10*
G36*
X54067Y-46504D02*
X54067Y-46103D01*
X52567Y-46103D01*
X52567Y-46501D01*
X54067Y-46504D01*
X54067Y-46504D01*
G37*
G54D101*
X54067Y-46504D02*
X54067Y-46103D01*
X52567Y-46103D01*
X52567Y-46501D01*
X54067Y-46504D01*
G54D10*
G36*
X56429Y-46504D02*
X56429Y-46103D01*
X54929Y-46103D01*
X54929Y-46501D01*
X56429Y-46504D01*
X56429Y-46504D01*
G37*
G54D101*
X56429Y-46504D02*
X56429Y-46103D01*
X54929Y-46103D01*
X54929Y-46501D01*
X56429Y-46504D01*
G54D10*
G36*
X58791Y-46504D02*
X58791Y-46103D01*
X57291Y-46103D01*
X57291Y-46501D01*
X58791Y-46504D01*
X58791Y-46504D01*
G37*
G54D101*
X58791Y-46504D02*
X58791Y-46103D01*
X57291Y-46103D01*
X57291Y-46501D01*
X58791Y-46504D01*
G54D10*
G36*
X61153Y-46503D02*
X61153Y-46102D01*
X59653Y-46102D01*
X59653Y-46500D01*
X61153Y-46503D01*
X61153Y-46503D01*
G37*
G54D101*
X61153Y-46503D02*
X61153Y-46102D01*
X59653Y-46102D01*
X59653Y-46500D01*
X61153Y-46503D01*
G54D10*
G36*
X63315Y-34886D02*
X63315Y-33583D01*
X62012Y-33583D01*
X62012Y-33984D01*
X62917Y-33984D01*
X62917Y-34886D01*
X63315Y-34886D01*
X63315Y-34886D01*
G37*
G54D101*
X63315Y-34886D02*
X63315Y-33583D01*
X62012Y-33583D01*
X62012Y-33984D01*
X62917Y-33984D01*
X62917Y-34886D01*
X63315Y-34886D01*
G54D10*
G36*
X63315Y-46500D02*
X63315Y-45193D01*
X62917Y-45193D01*
X62917Y-46103D01*
X62012Y-46103D01*
X62012Y-46500D01*
X63315Y-46500D01*
X63315Y-46500D01*
G37*
G54D101*
X63315Y-46500D02*
X63315Y-45193D01*
X62917Y-45193D01*
X62917Y-46103D01*
X62012Y-46103D01*
X62012Y-46500D01*
X63315Y-46500D01*
G54D10*
G36*
X51705Y-46500D02*
X51705Y-46103D01*
X50799Y-46103D01*
X50799Y-45193D01*
X50398Y-45193D01*
X50398Y-46500D01*
X51705Y-46500D01*
X51705Y-46500D01*
G37*
G54D101*
X51705Y-46500D02*
X51705Y-46103D01*
X50799Y-46103D01*
X50799Y-45193D01*
X50398Y-45193D01*
X50398Y-46500D01*
X51705Y-46500D01*
G54D10*
G36*
X50799Y-37252D02*
X50799Y-35748D01*
X50398Y-35748D01*
X50398Y-37252D01*
X50799Y-37252D01*
X50799Y-37252D01*
G37*
G54D101*
X50799Y-37252D02*
X50799Y-35748D01*
X50398Y-35748D01*
X50398Y-37252D01*
X50799Y-37252D01*
G54D10*
G36*
X63315Y-37252D02*
X63315Y-35748D01*
X62917Y-35748D01*
X62917Y-37252D01*
X63315Y-37252D01*
X63315Y-37252D01*
G37*
G54D101*
X63315Y-37252D02*
X63315Y-35748D01*
X62917Y-35748D01*
X62917Y-37252D01*
X63315Y-37252D01*
G54D10*
G36*
X63315Y-41972D02*
X63315Y-40468D01*
X62917Y-40468D01*
X62917Y-41972D01*
X63315Y-41972D01*
X63315Y-41972D01*
G37*
G54D101*
X63315Y-41972D02*
X63315Y-40468D01*
X62917Y-40468D01*
X62917Y-41972D01*
X63315Y-41972D01*
G54D10*
G36*
X50799Y-39614D02*
X50799Y-38110D01*
X50401Y-38110D01*
X50401Y-39614D01*
X50799Y-39614D01*
X50799Y-39614D01*
G37*
G54D101*
X50799Y-39614D02*
X50799Y-38110D01*
X50401Y-38110D01*
X50401Y-39614D01*
X50799Y-39614D01*
G54D10*
G36*
X63315Y-39614D02*
X63315Y-38110D01*
X62917Y-38110D01*
X62917Y-39614D01*
X63315Y-39614D01*
X63315Y-39614D01*
G37*
G54D101*
X63315Y-39614D02*
X63315Y-38110D01*
X62917Y-38110D01*
X62917Y-39614D01*
X63315Y-39614D01*
G54D10*
G36*
X63316Y-44338D02*
X63316Y-42834D01*
X62918Y-42834D01*
X62918Y-44338D01*
X63316Y-44338D01*
X63316Y-44338D01*
G37*
G54D101*
X63316Y-44338D02*
X63316Y-42834D01*
X62918Y-42834D01*
X62918Y-44338D01*
X63316Y-44338D01*
G54D10*
G36*
X50800Y-44338D02*
X50800Y-42834D01*
X50402Y-42834D01*
X50402Y-44338D01*
X50800Y-44338D01*
X50800Y-44338D01*
G37*
G54D101*
X50800Y-44338D02*
X50800Y-42834D01*
X50402Y-42834D01*
X50402Y-44338D01*
X50800Y-44338D01*
G54D10*
G36*
X50800Y-41972D02*
X50800Y-40468D01*
X50402Y-40468D01*
X50402Y-41972D01*
X50800Y-41972D01*
X50800Y-41972D01*
G37*
G54D101*
X50800Y-41972D02*
X50800Y-40468D01*
X50402Y-40468D01*
X50402Y-41972D01*
X50800Y-41972D01*
G54D10*
G36*
X65315Y-42126D02*
X65472Y-41969D01*
X65472Y-39370D01*
X65669Y-39291D01*
X65669Y-39016D01*
X65472Y-38937D01*
X65472Y-38150D01*
X65315Y-37992D01*
X63898Y-37992D01*
X63740Y-38150D01*
X63740Y-39252D01*
X64016Y-39370D01*
X64016Y-41969D01*
X64173Y-42126D01*
X65315Y-42126D01*
X65315Y-42126D01*
G37*
G54D101*
X65315Y-42126D02*
X65472Y-41969D01*
X65472Y-39370D01*
X65669Y-39291D01*
X65669Y-39016D01*
X65472Y-38937D01*
X65472Y-38150D01*
X65315Y-37992D01*
X63898Y-37992D01*
X63740Y-38150D01*
X63740Y-39252D01*
X64016Y-39370D01*
X64016Y-41969D01*
X64173Y-42126D01*
X65315Y-42126D01*
M02*
