G04 (created by PCBNEW-RS274X (2012-08-04 BZR 3667)-testing) date 10/19/2012 6:39:08 PM*
%MOIN*%
G04 Gerber Fmt 3.4, Leading zero omitted, Abs format*
%FSLAX34Y34*%
G01*
G70*
G90*
G04 APERTURE LIST*
%ADD10C,0.0017*%
%ADD11C,0.0059*%
%ADD12C,0.0077*%
%ADD13C,0.0432*%
%ADD14C,0.0195*%
%ADD15C,0.0157*%
%ADD16C,0.0354*%
%ADD17C,0.2165*%
%ADD18C,0.051*%
%ADD19C,0.055*%
%ADD20C,0.0597*%
%ADD21R,0.0597X0.0597*%
%ADD22C,0.0196*%
%ADD23C,0.0138*%
%ADD24C,0.0195*%
%ADD25C,0.0039*%
%ADD26C,0.0117*%
G04 APERTURE END LIST*
G54D10*
G54D11*
X41831Y-53937D02*
G75*
G03X41831Y-53937I-492J0D01*
G74*
G01*
X40355Y-53937D02*
X42323Y-53937D01*
X41339Y-52953D02*
X41339Y-54921D01*
X70964Y-26378D02*
G75*
G03X70964Y-26378I-492J0D01*
G74*
G01*
X69488Y-26378D02*
X71456Y-26378D01*
X70472Y-25394D02*
X70472Y-27362D01*
X41831Y-26378D02*
G75*
G03X41831Y-26378I-492J0D01*
G74*
G01*
X40355Y-26378D02*
X42323Y-26378D01*
X41339Y-25394D02*
X41339Y-27362D01*
G54D12*
X42606Y-52483D02*
X42606Y-27680D01*
X68983Y-52483D02*
X42606Y-52483D01*
X68983Y-27680D02*
X68983Y-52483D01*
X42606Y-27680D02*
X68983Y-27680D01*
X66228Y-30437D02*
X66228Y-39492D01*
X57764Y-30437D02*
X66228Y-30437D01*
X57764Y-29650D02*
X57764Y-30437D01*
X67016Y-29650D02*
X57764Y-29650D01*
X67016Y-39492D02*
X67016Y-29650D01*
X66228Y-39492D02*
X67016Y-39492D01*
X57764Y-50515D02*
X57764Y-49728D01*
X67016Y-50515D02*
X57764Y-50515D01*
X67016Y-40948D02*
X67016Y-50515D01*
X66228Y-40948D02*
X67016Y-40948D01*
X66228Y-49728D02*
X66228Y-40948D01*
X57764Y-49728D02*
X66228Y-49728D01*
X46936Y-50515D02*
X46936Y-44413D01*
X56386Y-50515D02*
X46936Y-50515D01*
X56386Y-49728D02*
X56386Y-50515D01*
X47724Y-49728D02*
X56386Y-49728D01*
X47724Y-44413D02*
X47724Y-49728D01*
X46936Y-44413D02*
X47724Y-44413D01*
X46936Y-43390D02*
X46936Y-35555D01*
X47724Y-43390D02*
X46936Y-43390D01*
X47724Y-35555D02*
X47724Y-43390D01*
X46936Y-35555D02*
X47724Y-35555D01*
X47724Y-30437D02*
X47724Y-34570D01*
X46936Y-34570D02*
X47724Y-34570D01*
X46936Y-29648D02*
X46936Y-34570D01*
X46936Y-29648D02*
X56384Y-29648D01*
X56384Y-29648D02*
X56384Y-30437D01*
X47724Y-30437D02*
X56384Y-30437D01*
G54D13*
X49554Y-45454D03*
X49554Y-35062D03*
G54D14*
X56102Y-43975D03*
G54D15*
X61013Y-44997D03*
X61363Y-45005D03*
X61158Y-45292D03*
X61386Y-35540D03*
X61024Y-35536D03*
X61024Y-35198D03*
X61394Y-35193D03*
X56791Y-43535D03*
X63583Y-34409D03*
G54D16*
X47725Y-34630D03*
X47725Y-35063D03*
X47725Y-35496D03*
X47725Y-44335D03*
X47725Y-43902D03*
X47725Y-43469D03*
X66268Y-39571D03*
X66268Y-40004D03*
X66268Y-40437D03*
X66268Y-40870D03*
G54D15*
X58299Y-40354D03*
X58299Y-39921D03*
X58082Y-40138D03*
X58515Y-40138D03*
X61129Y-38252D03*
X61011Y-37386D03*
X63553Y-36201D03*
X63571Y-36520D03*
X63571Y-36993D03*
X52273Y-32898D03*
X52272Y-33331D03*
X51445Y-33331D03*
X51446Y-32898D03*
X59398Y-33803D03*
X59005Y-33804D03*
X61367Y-33804D03*
X61760Y-33803D03*
X64005Y-31204D03*
X65736Y-31283D03*
X53610Y-30890D03*
X53059Y-30890D03*
X59791Y-30889D03*
X59201Y-30889D03*
X58571Y-30889D03*
X57901Y-30889D03*
X57311Y-30890D03*
X54240Y-30890D03*
X54831Y-30890D03*
X55461Y-30890D03*
X56130Y-30890D03*
X56721Y-30890D03*
X62783Y-30889D03*
X62193Y-30889D03*
X61563Y-30889D03*
X60893Y-30889D03*
X60382Y-30890D03*
X63335Y-30890D03*
X63846Y-30889D03*
X64516Y-30889D03*
X65146Y-30889D03*
X65736Y-30889D03*
X63127Y-32925D03*
X63138Y-33292D03*
X63600Y-33280D03*
X62655Y-33280D03*
X63453Y-32544D03*
X61484Y-32544D03*
X62065Y-32532D03*
X60894Y-32544D03*
X62744Y-32544D03*
X60658Y-33292D03*
X61120Y-33280D03*
X62065Y-33280D03*
X61603Y-33292D03*
X59752Y-33292D03*
X60214Y-33280D03*
X55953Y-33291D03*
X55312Y-33271D03*
X60343Y-32544D03*
X59269Y-33280D03*
X56465Y-33291D03*
X56965Y-33280D03*
X54289Y-33271D03*
X54762Y-33271D03*
X58807Y-33292D03*
X57410Y-33291D03*
X50618Y-30929D03*
X50895Y-32898D03*
X50894Y-33331D03*
X49281Y-33527D03*
X50028Y-30929D03*
X49950Y-33567D03*
X49398Y-30929D03*
X48728Y-30929D03*
X48256Y-35103D03*
X48650Y-35102D03*
X48650Y-34552D03*
X48256Y-34552D03*
X48256Y-33410D03*
X48650Y-33410D03*
X48650Y-33961D03*
X48256Y-33961D03*
X48255Y-32898D03*
X48255Y-32504D03*
X48255Y-32032D03*
X48255Y-31520D03*
X48256Y-30929D03*
X52627Y-36166D03*
X51995Y-39173D03*
X51680Y-39173D03*
X51365Y-39173D03*
X51010Y-39212D03*
X51004Y-38953D03*
X51012Y-39551D03*
X51012Y-40181D03*
X55718Y-42968D03*
X55450Y-43472D03*
X54248Y-41252D03*
X53937Y-41520D03*
X53925Y-41248D03*
X52413Y-41387D03*
X51196Y-41394D03*
X63602Y-33632D03*
X63612Y-33967D03*
X64016Y-36220D03*
X64043Y-36559D03*
X64035Y-34409D03*
X64043Y-34039D03*
X65462Y-33764D03*
X65776Y-33764D03*
X65146Y-33764D03*
X64832Y-33764D03*
X64202Y-33764D03*
X64516Y-33764D03*
X64516Y-36835D03*
X64202Y-36835D03*
X64832Y-36835D03*
X65146Y-36835D03*
X65776Y-36835D03*
X65462Y-36835D03*
X65697Y-42268D03*
X65696Y-41677D03*
X65696Y-41087D03*
X65696Y-40535D03*
X65697Y-37977D03*
X65697Y-38646D03*
X65697Y-39906D03*
X63570Y-40024D03*
X63570Y-39591D03*
X63571Y-39079D03*
X63571Y-38528D03*
X63571Y-37977D03*
X63570Y-42937D03*
X63570Y-40535D03*
X63570Y-41087D03*
X63570Y-41677D03*
X63571Y-42268D03*
X63137Y-42584D03*
X63138Y-42230D03*
X63138Y-39867D03*
X63137Y-40221D03*
X63136Y-37859D03*
X63137Y-37505D03*
X62626Y-36717D03*
X62626Y-36205D03*
X62626Y-35772D03*
X62626Y-37229D03*
X62626Y-37858D03*
X63571Y-37504D03*
X62114Y-38488D03*
X62665Y-38488D03*
X62114Y-37858D03*
X62114Y-37229D03*
X61169Y-44473D03*
X61721Y-43882D03*
X61681Y-44355D03*
X62274Y-40728D03*
X62271Y-41166D03*
X62271Y-41756D03*
X62271Y-42307D03*
X62271Y-44315D03*
X62272Y-43646D03*
X62271Y-42937D03*
X62704Y-42307D03*
X62704Y-41756D03*
X62704Y-41166D03*
X62697Y-40728D03*
X62704Y-42937D03*
X62705Y-43646D03*
X62704Y-44315D03*
X58732Y-40354D03*
X57866Y-40354D03*
X57433Y-40354D03*
X57000Y-40354D03*
X56783Y-40571D03*
X57216Y-40571D03*
X57653Y-40571D03*
X58082Y-40571D03*
X58515Y-40571D03*
X58515Y-41004D03*
X58082Y-41004D03*
X57653Y-41004D03*
X57216Y-41004D03*
X56783Y-41004D03*
X57000Y-40787D03*
X57433Y-40787D03*
X58299Y-40787D03*
X57866Y-40787D03*
X58732Y-40787D03*
X58732Y-39921D03*
X57866Y-39921D03*
X57433Y-39921D03*
X57000Y-39921D03*
X56783Y-40138D03*
X57216Y-40138D03*
X57653Y-40138D03*
X58515Y-39705D03*
X58082Y-39705D03*
X57653Y-39705D03*
X57216Y-39705D03*
X56783Y-39705D03*
X57000Y-39488D03*
X57433Y-39488D03*
X58299Y-39488D03*
X57866Y-39488D03*
X58732Y-39488D03*
X58732Y-39055D03*
X57866Y-39055D03*
X58299Y-39055D03*
X57433Y-39055D03*
X57000Y-39055D03*
X56783Y-39272D03*
X57216Y-39272D03*
X57653Y-39272D03*
X58082Y-39272D03*
X58515Y-39272D03*
X64055Y-43533D03*
X64045Y-43858D03*
X64555Y-43282D03*
X64241Y-43282D03*
X64871Y-43282D03*
X65185Y-43282D03*
X65815Y-43282D03*
X65501Y-43282D03*
X65510Y-46353D03*
X65824Y-46353D03*
X65194Y-46353D03*
X64880Y-46353D03*
X64065Y-46083D03*
X64035Y-45758D03*
X63514Y-46358D03*
X64250Y-46353D03*
X64564Y-46353D03*
X63553Y-43435D03*
X63553Y-43907D03*
X63494Y-45856D03*
X60472Y-44461D03*
X57598Y-45152D03*
X57598Y-44837D03*
X56249Y-44866D03*
X55658Y-44866D03*
X54516Y-38173D03*
X54516Y-37858D03*
X54005Y-37858D03*
X55028Y-44236D03*
X54162Y-43488D03*
X54756Y-43909D03*
X65736Y-47032D03*
X64319Y-49355D03*
X65736Y-49355D03*
X65106Y-49355D03*
X60622Y-47855D03*
X62889Y-49028D03*
X62889Y-49343D03*
X63480Y-49343D03*
X63480Y-49028D03*
X60566Y-49028D03*
X60566Y-49343D03*
X61118Y-49343D03*
X61118Y-49028D03*
X62260Y-49028D03*
X62260Y-49343D03*
X61709Y-49343D03*
X61709Y-49028D03*
X59465Y-49028D03*
X59465Y-49343D03*
X60016Y-49343D03*
X60016Y-49028D03*
X58914Y-49028D03*
X58914Y-49343D03*
X58323Y-49343D03*
X58323Y-49028D03*
X58335Y-48567D03*
X63138Y-46953D03*
X62587Y-46953D03*
X61012Y-46941D03*
X62004Y-46957D03*
X58465Y-46850D03*
X58099Y-46835D03*
X57547Y-46835D03*
X56996Y-46835D03*
X56484Y-46835D03*
X56012Y-46835D03*
X53932Y-47357D03*
X59417Y-46406D03*
X61760Y-46284D03*
X61406Y-46284D03*
X56642Y-46284D03*
X56996Y-46284D03*
X52378Y-46382D03*
X52031Y-46382D03*
X50539Y-46873D03*
X49870Y-46676D03*
X49240Y-46755D03*
X48295Y-45968D03*
X48689Y-45968D03*
X48689Y-45496D03*
X48295Y-45496D03*
X48295Y-46441D03*
X48689Y-46441D03*
X48689Y-46913D03*
X48295Y-46913D03*
X48295Y-47386D03*
X48295Y-47937D03*
X48295Y-48449D03*
X48295Y-48921D03*
X48295Y-49315D03*
X48965Y-49315D03*
X49673Y-49315D03*
X50382Y-49315D03*
G54D14*
X48861Y-45087D03*
X48546Y-45087D03*
X48231Y-45087D03*
X52389Y-43424D03*
X52744Y-43424D03*
X52941Y-43620D03*
X52586Y-43621D03*
X52782Y-45375D03*
X52782Y-45690D03*
X52584Y-45927D03*
X52190Y-45927D03*
X51994Y-45690D03*
X51994Y-45375D03*
G54D17*
X49752Y-32228D03*
X64791Y-32228D03*
X64791Y-47975D03*
X49752Y-47975D03*
G54D14*
X56378Y-43975D03*
X52232Y-43621D03*
X52112Y-49195D03*
X51720Y-49197D03*
X52507Y-49197D03*
X51325Y-49197D03*
X52902Y-49197D03*
X51325Y-48802D03*
X51325Y-48410D03*
X51325Y-48015D03*
X51325Y-47622D03*
X51325Y-47267D03*
X51720Y-47267D03*
X52114Y-47267D03*
X52507Y-47267D03*
X52900Y-47267D03*
X52900Y-47622D03*
X52900Y-48015D03*
X52900Y-48410D03*
X52900Y-48802D03*
G54D16*
X56426Y-49768D03*
X56859Y-49768D03*
X57292Y-49768D03*
X57726Y-49768D03*
X56425Y-30437D03*
X56858Y-30437D03*
X57291Y-30437D03*
X57725Y-30437D03*
G54D14*
X54516Y-48607D03*
X54831Y-48607D03*
X55146Y-48607D03*
X55461Y-48607D03*
X59419Y-47520D03*
X60512Y-47510D03*
X62312Y-47426D03*
X63336Y-47426D03*
G54D18*
X51299Y-32217D03*
X52299Y-32217D03*
X52299Y-31217D03*
X51299Y-31217D03*
G54D19*
X51799Y-31717D03*
G54D20*
X58307Y-31834D03*
X57307Y-31834D03*
X56307Y-31834D03*
X55307Y-31834D03*
G54D21*
X53307Y-31814D03*
G54D20*
X54307Y-31834D03*
G54D21*
X57576Y-49079D03*
G54D20*
X56576Y-49079D03*
X63314Y-31834D03*
X62314Y-31834D03*
X61314Y-31834D03*
G54D21*
X59314Y-31814D03*
G54D20*
X60314Y-31834D03*
X63043Y-48350D03*
X62043Y-48350D03*
X61043Y-48350D03*
G54D21*
X59043Y-48330D03*
G54D20*
X60043Y-48350D03*
G54D14*
X56783Y-43173D03*
X61728Y-40646D03*
X61398Y-43563D03*
X61821Y-42018D03*
X61594Y-38083D03*
X55748Y-43512D03*
X55032Y-45276D03*
X58976Y-46772D03*
G54D15*
X60177Y-35130D03*
G54D14*
X54949Y-37343D03*
G54D15*
X52646Y-37508D03*
G54D14*
X54221Y-34441D03*
X51169Y-34244D03*
X57756Y-43449D03*
G54D15*
X56949Y-42618D03*
G54D14*
X58264Y-43146D03*
X61614Y-45787D03*
X60142Y-42921D03*
G54D15*
X55299Y-38228D03*
G54D14*
X62039Y-39803D03*
X59910Y-37815D03*
X62036Y-39500D03*
G54D15*
X49256Y-36028D03*
X53323Y-36453D03*
G54D14*
X50921Y-43799D03*
X51012Y-36701D03*
G54D15*
X48154Y-36225D03*
X48154Y-35831D03*
G54D14*
X48158Y-36717D03*
X48150Y-39079D03*
X48189Y-41437D03*
G54D15*
X48032Y-37599D03*
X48047Y-38189D03*
X48024Y-39571D03*
X48028Y-40551D03*
X48032Y-41933D03*
X48032Y-42918D03*
X48197Y-43508D03*
G54D14*
X48138Y-43807D03*
G54D15*
X48102Y-44492D03*
X50921Y-44492D03*
G54D14*
X58002Y-47500D03*
G54D15*
X59961Y-44311D03*
X58626Y-44390D03*
X58413Y-43508D03*
X60205Y-43484D03*
X61614Y-45291D03*
X60531Y-45295D03*
X59882Y-37386D03*
X58256Y-36228D03*
X57106Y-36587D03*
G54D14*
X58616Y-45230D03*
G54D15*
X61102Y-40835D03*
G54D14*
X57668Y-44518D03*
G54D15*
X52012Y-34799D03*
X61264Y-40071D03*
X54457Y-43477D03*
G54D14*
X53465Y-45815D03*
G54D15*
X54579Y-44225D03*
G54D14*
X54268Y-46508D03*
G54D15*
X60441Y-34681D03*
G54D14*
X57984Y-48284D03*
G54D15*
X61957Y-34823D03*
X60906Y-36260D03*
X61957Y-35933D03*
X62154Y-36559D03*
X61228Y-42177D03*
X60882Y-38087D03*
X60780Y-39406D03*
X59350Y-37213D03*
G54D22*
X56091Y-35378D03*
X55579Y-35130D03*
G54D15*
X59508Y-36051D03*
X59650Y-35925D03*
X57094Y-35291D03*
X58354Y-35528D03*
X58370Y-36783D03*
X48165Y-37402D03*
X60266Y-35482D03*
X48193Y-37205D03*
X60246Y-35719D03*
X49132Y-37012D03*
X49565Y-42918D03*
X62392Y-45541D03*
G54D14*
X55217Y-44988D03*
G54D15*
X60030Y-41211D03*
G54D23*
X59065Y-39931D03*
G54D15*
X56957Y-42059D03*
G54D23*
X56663Y-41339D03*
G54D15*
X60319Y-39984D03*
G54D23*
X56870Y-38720D03*
G54D15*
X55981Y-37386D03*
G54D23*
X59065Y-38750D03*
G54D14*
X52811Y-44992D03*
X53539Y-43862D03*
X53539Y-44197D03*
G54D23*
X59075Y-41112D03*
G54D15*
X60039Y-41437D03*
X55638Y-36756D03*
G54D23*
X57067Y-38720D03*
G54D15*
X59272Y-41807D03*
X59748Y-39020D03*
G54D23*
X58238Y-41339D03*
X59065Y-39144D03*
X59065Y-38947D03*
X59055Y-40128D03*
X57854Y-38720D03*
G54D15*
X59150Y-37972D03*
G54D23*
X57057Y-41339D03*
G54D15*
X55933Y-38528D03*
G54D23*
X56437Y-39734D03*
X56437Y-40325D03*
G54D15*
X56260Y-42953D03*
G54D23*
X56860Y-41339D03*
G54D14*
X60154Y-42638D03*
G54D23*
X59065Y-41309D03*
G54D15*
X55394Y-39638D03*
X53650Y-41536D03*
G54D23*
X56437Y-41112D03*
G54D15*
X53583Y-40201D03*
G54D23*
X56437Y-39931D03*
G54D15*
X55831Y-39047D03*
G54D23*
X56437Y-40915D03*
G54D15*
X53579Y-41925D03*
X53602Y-40559D03*
G54D23*
X56437Y-40128D03*
G54D15*
X55303Y-40032D03*
X53662Y-38355D03*
G54D23*
X56437Y-38750D03*
G54D15*
X55709Y-39445D03*
X52193Y-35890D03*
X59740Y-40740D03*
X54453Y-37319D03*
X51721Y-37508D03*
X54721Y-36075D03*
X59787Y-39870D03*
X55555Y-39028D03*
G54D23*
X56437Y-38947D03*
G54D15*
X53662Y-38555D03*
X53610Y-39571D03*
G54D23*
X56437Y-39537D03*
G54D15*
X53626Y-39370D03*
G54D23*
X56437Y-39341D03*
G54D15*
X53579Y-42122D03*
G54D23*
X56437Y-40719D03*
G54D15*
X55772Y-40232D03*
X55890Y-41016D03*
X55260Y-41209D03*
X55815Y-41406D03*
X55445Y-41846D03*
X56303Y-41937D03*
X53650Y-38981D03*
G54D23*
X56437Y-39144D03*
G54D15*
X53587Y-41040D03*
G54D23*
X56437Y-40522D03*
G54D15*
X55288Y-40421D03*
X55701Y-40618D03*
X55366Y-40819D03*
X55705Y-41839D03*
G54D23*
X59065Y-40325D03*
G54D15*
X51732Y-36461D03*
X53591Y-41236D03*
G54D23*
X56447Y-41309D03*
G54D15*
X59951Y-40876D03*
X51728Y-36957D03*
G54D23*
X59065Y-40522D03*
G54D15*
X52870Y-37327D03*
X51728Y-37240D03*
X52870Y-36752D03*
X59669Y-40425D03*
X55736Y-39831D03*
X53906Y-34843D03*
X48193Y-37984D03*
X52906Y-35095D03*
X52543Y-37827D03*
X57205Y-42071D03*
X60473Y-41000D03*
G54D23*
X59065Y-40915D03*
X59065Y-39341D03*
G54D15*
X60339Y-39244D03*
X57465Y-41937D03*
G54D23*
X57254Y-41339D03*
G54D15*
X59646Y-40225D03*
X54736Y-36331D03*
X49354Y-37402D03*
X53071Y-34862D03*
X52276Y-40847D03*
X52248Y-40394D03*
X48185Y-39965D03*
X48221Y-38386D03*
X52516Y-38162D03*
X48201Y-39768D03*
X52232Y-40016D03*
X48197Y-39370D03*
X52402Y-39815D03*
X48079Y-38783D03*
X52386Y-39181D03*
X48193Y-38591D03*
X52366Y-38772D03*
G54D23*
X59065Y-39734D03*
G54D15*
X51445Y-35929D03*
X52213Y-40654D03*
X48181Y-40355D03*
X55984Y-38016D03*
X56319Y-38122D03*
X56575Y-38130D03*
G54D23*
X56673Y-38711D03*
G54D15*
X49744Y-36425D03*
X49634Y-37205D03*
X49917Y-37012D03*
X49748Y-36225D03*
X51717Y-37992D03*
X52535Y-41732D03*
X48173Y-42331D03*
X52118Y-42354D03*
X54984Y-43063D03*
X48173Y-40748D03*
X55453Y-43067D03*
X51752Y-40748D03*
X48181Y-42130D03*
X51917Y-42355D03*
X48197Y-41732D03*
X51398Y-42355D03*
X48075Y-41142D03*
X51638Y-42355D03*
X48201Y-40949D03*
X54721Y-43055D03*
X51091Y-40949D03*
X55225Y-43067D03*
G54D23*
X59065Y-40719D03*
G54D15*
X51669Y-35288D03*
G54D23*
X58435Y-41339D03*
G54D15*
X58536Y-41973D03*
X59281Y-42067D03*
X58740Y-41969D03*
X52465Y-41043D03*
X49535Y-42618D03*
X48154Y-42725D03*
G54D14*
X51169Y-44827D03*
X51169Y-45063D03*
G54D24*
X55032Y-45276D02*
X55032Y-45197D01*
X55748Y-44079D02*
X55748Y-43512D01*
X54965Y-44862D02*
X55748Y-44079D01*
X54965Y-45130D02*
X54965Y-44862D01*
X55032Y-45197D02*
X54965Y-45130D01*
G54D25*
X48165Y-37402D02*
X48887Y-37402D01*
X60148Y-35364D02*
X60266Y-35482D01*
X58236Y-35362D02*
X60148Y-35364D01*
X57965Y-35638D02*
X58236Y-35362D01*
X52594Y-35634D02*
X57965Y-35638D01*
X52000Y-35043D02*
X52594Y-35634D01*
X51355Y-35043D02*
X52000Y-35043D01*
X51185Y-35213D02*
X51355Y-35043D01*
X51185Y-37708D02*
X51185Y-35213D01*
X51098Y-37795D02*
X51185Y-37708D01*
X49280Y-37795D02*
X51098Y-37795D01*
X48887Y-37402D02*
X49280Y-37795D01*
X48193Y-37205D02*
X48894Y-37205D01*
X60413Y-35719D02*
X60246Y-35719D01*
X60587Y-35539D02*
X60413Y-35719D01*
X60587Y-35430D02*
X60587Y-35539D01*
X60429Y-35272D02*
X60587Y-35430D01*
X58134Y-35274D02*
X60429Y-35272D01*
X57852Y-35547D02*
X58134Y-35274D01*
X52681Y-35547D02*
X57852Y-35547D01*
X52083Y-34949D02*
X52681Y-35547D01*
X51291Y-34949D02*
X52083Y-34949D01*
X50843Y-35397D02*
X51291Y-34949D01*
X50843Y-37472D02*
X50843Y-35397D01*
X50677Y-37638D02*
X50843Y-37472D01*
X49327Y-37638D02*
X50677Y-37638D01*
X48894Y-37205D02*
X49327Y-37638D01*
X49565Y-42918D02*
X52642Y-42918D01*
X53899Y-45541D02*
X62392Y-45541D01*
X53201Y-44843D02*
X53899Y-45541D01*
X53201Y-43477D02*
X53201Y-44843D01*
X52642Y-42918D02*
X53201Y-43477D01*
G54D26*
X56957Y-42059D02*
X56961Y-41878D01*
X56665Y-41654D02*
X56663Y-41339D01*
X56961Y-41878D02*
X56665Y-41654D01*
X55981Y-37386D02*
X56303Y-37386D01*
X56866Y-37949D02*
X56870Y-38720D01*
X56303Y-37386D02*
X56866Y-37949D01*
X55638Y-36756D02*
X55941Y-36756D01*
X55941Y-36756D02*
X57063Y-37878D01*
X57063Y-37878D02*
X57067Y-38720D01*
X60154Y-42638D02*
X59776Y-41823D01*
X59776Y-41823D02*
X59065Y-41309D01*
G54D25*
X53650Y-41536D02*
X53295Y-41536D01*
X56075Y-41307D02*
X56437Y-41112D01*
X56075Y-41693D02*
X56075Y-41622D01*
X56075Y-41622D02*
X56075Y-41307D01*
X55146Y-42630D02*
X56075Y-41693D01*
X53395Y-42630D02*
X55146Y-42630D01*
X53102Y-42337D02*
X53395Y-42630D01*
X53102Y-41729D02*
X53102Y-42337D01*
X53295Y-41536D02*
X53102Y-41729D01*
X53583Y-40201D02*
X55547Y-40205D01*
X55913Y-39933D02*
X56437Y-39931D01*
X55547Y-40205D02*
X55913Y-39933D01*
X53579Y-41925D02*
X55000Y-41925D01*
X55989Y-41201D02*
X56437Y-40915D01*
X55724Y-41201D02*
X55989Y-41201D01*
X55000Y-41925D02*
X55724Y-41201D01*
X53602Y-40559D02*
X55505Y-40559D01*
X56118Y-40130D02*
X56437Y-40128D01*
X55854Y-40394D02*
X56118Y-40130D01*
X55670Y-40394D02*
X55854Y-40394D01*
X55505Y-40559D02*
X55670Y-40394D01*
X53662Y-38355D02*
X55194Y-38355D01*
X55587Y-38748D02*
X56437Y-38750D01*
X55194Y-38355D02*
X55587Y-38748D01*
X59740Y-40740D02*
X59740Y-40607D01*
X56193Y-35890D02*
X52193Y-35890D01*
X57917Y-37614D02*
X56193Y-35890D01*
X59185Y-37614D02*
X57917Y-37614D01*
X60161Y-38590D02*
X59185Y-37614D01*
X60161Y-40186D02*
X60161Y-38590D01*
X59740Y-40607D02*
X60161Y-40186D01*
X59787Y-39870D02*
X59787Y-39445D01*
X52178Y-37508D02*
X52336Y-37666D01*
X52336Y-37666D02*
X52799Y-37666D01*
X52799Y-37666D02*
X53146Y-37319D01*
X53146Y-37319D02*
X54453Y-37319D01*
X51721Y-37508D02*
X52178Y-37508D01*
X56217Y-36075D02*
X54721Y-36075D01*
X57902Y-37760D02*
X56217Y-36075D01*
X59193Y-37760D02*
X57902Y-37760D01*
X60051Y-38618D02*
X59193Y-37760D01*
X60051Y-39181D02*
X60051Y-38618D01*
X59787Y-39445D02*
X60051Y-39181D01*
X55244Y-38555D02*
X55539Y-38843D01*
X56173Y-38843D02*
X56437Y-38947D01*
X55539Y-38843D02*
X56173Y-38843D01*
X53662Y-38555D02*
X55244Y-38555D01*
X53610Y-39571D02*
X55086Y-39571D01*
X55913Y-39540D02*
X56437Y-39537D01*
X55555Y-39783D02*
X55913Y-39540D01*
X55299Y-39784D02*
X55555Y-39783D01*
X55086Y-39571D02*
X55299Y-39784D01*
X53626Y-39370D02*
X55449Y-39366D01*
X56083Y-39343D02*
X56437Y-39341D01*
X56032Y-39292D02*
X56083Y-39343D01*
X55524Y-39291D02*
X56032Y-39292D01*
X55449Y-39366D02*
X55524Y-39291D01*
X53579Y-42122D02*
X53401Y-42122D01*
X55945Y-40717D02*
X56437Y-40719D01*
X54984Y-41744D02*
X55945Y-40717D01*
X53421Y-41744D02*
X54984Y-41744D01*
X53307Y-41858D02*
X53421Y-41744D01*
X53307Y-42028D02*
X53307Y-41858D01*
X53401Y-42122D02*
X53307Y-42028D01*
X53650Y-38981D02*
X55308Y-38981D01*
X56111Y-39138D02*
X56437Y-39144D01*
X56048Y-39201D02*
X56111Y-39138D01*
X55528Y-39201D02*
X56048Y-39201D01*
X55308Y-38981D02*
X55528Y-39201D01*
X53587Y-41040D02*
X55488Y-41040D01*
X56004Y-40524D02*
X56437Y-40522D01*
X55488Y-41040D02*
X56004Y-40524D01*
X57197Y-38563D02*
X57197Y-37803D01*
X57197Y-37803D02*
X55988Y-36594D01*
X55461Y-36594D02*
X54894Y-37161D01*
X55988Y-36594D02*
X55461Y-36594D01*
X52433Y-37161D02*
X51732Y-36461D01*
X54894Y-37161D02*
X52433Y-37161D01*
X59065Y-40325D02*
X59087Y-40327D01*
X59087Y-40327D02*
X58878Y-40167D01*
X58878Y-40167D02*
X58878Y-38947D01*
X58878Y-38947D02*
X58819Y-38888D01*
X58819Y-38888D02*
X57490Y-38888D01*
X57490Y-38888D02*
X57197Y-38563D01*
X56280Y-41618D02*
X56447Y-41309D01*
X55689Y-42209D02*
X56280Y-41618D01*
X55689Y-42567D02*
X55689Y-42209D01*
X53591Y-41236D02*
X53261Y-41236D01*
X55535Y-42721D02*
X55689Y-42567D01*
X54508Y-42724D02*
X55535Y-42721D01*
X54335Y-42898D02*
X54508Y-42724D01*
X53469Y-42898D02*
X54335Y-42898D01*
X52972Y-42398D02*
X53469Y-42898D01*
X52972Y-41528D02*
X52972Y-42398D01*
X53261Y-41236D02*
X52972Y-41528D01*
X51555Y-36961D02*
X51287Y-36693D01*
X51287Y-36693D02*
X51287Y-35263D01*
X51287Y-35263D02*
X51429Y-35142D01*
X51429Y-35142D02*
X51921Y-35142D01*
X51921Y-35142D02*
X52499Y-35720D01*
X52499Y-35720D02*
X56480Y-35720D01*
X56480Y-35720D02*
X58284Y-37524D01*
X58284Y-37524D02*
X59276Y-37524D01*
X59276Y-37524D02*
X60508Y-38756D01*
X60508Y-38756D02*
X60512Y-40315D01*
X60512Y-40315D02*
X59951Y-40876D01*
X51555Y-36961D02*
X51728Y-36957D01*
X52870Y-36752D02*
X54768Y-36752D01*
X52732Y-37240D02*
X52870Y-37327D01*
X51728Y-37240D02*
X52732Y-37240D01*
X59547Y-40425D02*
X59669Y-40425D01*
X59453Y-40327D02*
X59547Y-40425D01*
X59453Y-39870D02*
X59453Y-40327D01*
X59512Y-39811D02*
X59453Y-39870D01*
X59512Y-38531D02*
X59512Y-39811D01*
X59220Y-38240D02*
X59512Y-38531D01*
X57683Y-38240D02*
X59220Y-38240D01*
X57583Y-38140D02*
X57683Y-38240D01*
X57583Y-37788D02*
X57583Y-38140D01*
X56118Y-36323D02*
X57583Y-37788D01*
X55197Y-36323D02*
X56118Y-36323D01*
X54768Y-36752D02*
X55197Y-36323D01*
G54D26*
X57465Y-41937D02*
X57465Y-41882D01*
X57252Y-41669D02*
X57254Y-41339D01*
X57465Y-41882D02*
X57252Y-41669D01*
G54D12*
X59646Y-40225D02*
X59646Y-39977D01*
X54862Y-36205D02*
X54736Y-36331D01*
X56166Y-36205D02*
X54862Y-36205D01*
X58095Y-38134D02*
X56166Y-36205D01*
X59260Y-38134D02*
X58095Y-38134D01*
X59949Y-38823D02*
X59260Y-38134D01*
X59949Y-39074D02*
X59949Y-38823D01*
X59622Y-39401D02*
X59949Y-39074D01*
X59622Y-39953D02*
X59622Y-39401D01*
X59646Y-39977D02*
X59622Y-39953D01*
G54D25*
X49354Y-37402D02*
X49354Y-36324D01*
X52291Y-33850D02*
X54307Y-31834D01*
X51130Y-33850D02*
X52291Y-33850D01*
X50264Y-34716D02*
X51130Y-33850D01*
X50264Y-35732D02*
X50264Y-34716D01*
X50027Y-35969D02*
X50264Y-35732D01*
X49709Y-35969D02*
X50027Y-35969D01*
X49354Y-36324D02*
X49709Y-35969D01*
X48185Y-39965D02*
X51819Y-39965D01*
X51819Y-39965D02*
X52248Y-40394D01*
X48221Y-38386D02*
X52292Y-38386D01*
X52292Y-38386D02*
X52516Y-38162D01*
X48201Y-39768D02*
X51984Y-39768D01*
X51984Y-39768D02*
X52232Y-40016D01*
X48197Y-39370D02*
X51957Y-39370D01*
X51957Y-39370D02*
X52402Y-39815D01*
X48079Y-38783D02*
X51989Y-38784D01*
X51989Y-38784D02*
X52386Y-39181D01*
X48193Y-38591D02*
X52185Y-38591D01*
X52185Y-38591D02*
X52366Y-38772D01*
X59065Y-39734D02*
X59299Y-39732D01*
X52524Y-37008D02*
X51445Y-35929D01*
X54873Y-37008D02*
X52524Y-37008D01*
X55377Y-36504D02*
X54873Y-37008D01*
X56039Y-36504D02*
X55377Y-36504D01*
X57319Y-37784D02*
X56039Y-36504D01*
X57319Y-38331D02*
X57319Y-37784D01*
X57421Y-38433D02*
X57319Y-38331D01*
X59149Y-38433D02*
X57421Y-38433D01*
X59350Y-38638D02*
X59149Y-38433D01*
X59350Y-39681D02*
X59350Y-38638D01*
X59299Y-39732D02*
X59350Y-39681D01*
X48181Y-40355D02*
X51914Y-40355D01*
X51914Y-40355D02*
X52213Y-40654D01*
X49744Y-36425D02*
X50248Y-36425D01*
X52385Y-34121D02*
X54094Y-32421D01*
X54094Y-32421D02*
X55758Y-32421D01*
X55758Y-32421D02*
X56307Y-31834D01*
X51545Y-34123D02*
X52385Y-34121D01*
X50484Y-35213D02*
X51545Y-34123D01*
X50484Y-36189D02*
X50484Y-35213D01*
X50248Y-36425D02*
X50484Y-36189D01*
X49634Y-37205D02*
X49634Y-36995D01*
X56555Y-32569D02*
X57307Y-31834D01*
X54124Y-32569D02*
X56555Y-32569D01*
X52165Y-34528D02*
X54124Y-32569D01*
X51335Y-34528D02*
X52165Y-34528D01*
X50606Y-35257D02*
X51335Y-34528D01*
X50606Y-36650D02*
X50606Y-35257D01*
X50433Y-36823D02*
X50606Y-36650D01*
X49806Y-36823D02*
X50433Y-36823D01*
X49634Y-36995D02*
X49806Y-36823D01*
X49917Y-37012D02*
X50531Y-37012D01*
X52283Y-34656D02*
X54193Y-32746D01*
X54193Y-32746D02*
X57028Y-32746D01*
X57028Y-32746D02*
X58307Y-31834D01*
X51358Y-34661D02*
X52283Y-34656D01*
X50713Y-35306D02*
X51358Y-34661D01*
X50713Y-36830D02*
X50713Y-35306D01*
X50531Y-37012D02*
X50713Y-36830D01*
X49748Y-36225D02*
X50086Y-36225D01*
X52366Y-33965D02*
X54055Y-32276D01*
X54055Y-32276D02*
X54866Y-32276D01*
X54866Y-32276D02*
X55307Y-31834D01*
X51149Y-33965D02*
X52366Y-33965D01*
X50386Y-34728D02*
X51149Y-33965D01*
X50386Y-35925D02*
X50386Y-34728D01*
X50086Y-36225D02*
X50386Y-35925D01*
X52898Y-37992D02*
X51717Y-37992D01*
X53063Y-38157D02*
X52898Y-37992D01*
X53063Y-41260D02*
X53063Y-38157D01*
X52591Y-41732D02*
X53063Y-41260D01*
X52535Y-41732D02*
X52591Y-41732D01*
X48173Y-42331D02*
X50886Y-42331D01*
X52118Y-42528D02*
X52118Y-42354D01*
X52004Y-42642D02*
X52118Y-42528D01*
X51197Y-42642D02*
X52004Y-42642D01*
X50886Y-42331D02*
X51197Y-42642D01*
X48173Y-40748D02*
X50792Y-40748D01*
X54834Y-42913D02*
X54984Y-43063D01*
X54631Y-42913D02*
X54834Y-42913D01*
X54461Y-43083D02*
X54631Y-42913D01*
X53410Y-43083D02*
X54461Y-43083D01*
X51921Y-41610D02*
X53410Y-43083D01*
X51921Y-41146D02*
X51921Y-41610D01*
X51422Y-40642D02*
X51921Y-41146D01*
X50898Y-40642D02*
X51422Y-40642D01*
X50792Y-40748D02*
X50898Y-40642D01*
X51752Y-40748D02*
X51752Y-40854D01*
X55201Y-42815D02*
X55453Y-43067D01*
X54579Y-42815D02*
X55201Y-42815D01*
X54410Y-42984D02*
X54579Y-42815D01*
X53441Y-42984D02*
X54410Y-42984D01*
X52028Y-41571D02*
X53441Y-42984D01*
X52028Y-41130D02*
X52028Y-41571D01*
X51752Y-40854D02*
X52028Y-41130D01*
X48181Y-42130D02*
X50871Y-42130D01*
X51725Y-42547D02*
X51917Y-42355D01*
X51288Y-42547D02*
X51725Y-42547D01*
X50871Y-42130D02*
X51288Y-42547D01*
X48197Y-41732D02*
X50941Y-41732D01*
X51398Y-42189D02*
X51398Y-42355D01*
X50941Y-41732D02*
X51398Y-42189D01*
X48075Y-41142D02*
X50673Y-41142D01*
X51638Y-42107D02*
X51638Y-42355D01*
X50673Y-41142D02*
X51638Y-42107D01*
X48201Y-40949D02*
X50862Y-40949D01*
X54571Y-43205D02*
X54721Y-43055D01*
X53323Y-43205D02*
X54571Y-43205D01*
X51760Y-41587D02*
X53323Y-43205D01*
X51764Y-41146D02*
X51760Y-41587D01*
X51366Y-40744D02*
X51764Y-41146D01*
X51067Y-40744D02*
X51366Y-40744D01*
X50862Y-40949D02*
X51067Y-40744D01*
X51091Y-40949D02*
X51323Y-40949D01*
X54969Y-43323D02*
X55225Y-43067D01*
X53304Y-43323D02*
X54969Y-43323D01*
X52796Y-42815D02*
X53304Y-43323D01*
X52457Y-42815D02*
X52796Y-42815D01*
X52350Y-42708D02*
X52457Y-42815D01*
X52350Y-42315D02*
X52350Y-42708D01*
X52236Y-42201D02*
X52350Y-42315D01*
X51926Y-42201D02*
X52236Y-42201D01*
X51547Y-41822D02*
X51926Y-42201D01*
X51547Y-41173D02*
X51547Y-41822D01*
X51323Y-40949D02*
X51547Y-41173D01*
X59065Y-40719D02*
X59303Y-40718D01*
X51669Y-35902D02*
X51669Y-35288D01*
X52669Y-36902D02*
X51669Y-35902D01*
X54802Y-36902D02*
X52669Y-36902D01*
X55283Y-36421D02*
X54802Y-36902D01*
X56102Y-36421D02*
X55283Y-36421D01*
X57441Y-37760D02*
X56102Y-36421D01*
X57441Y-38252D02*
X57441Y-37760D01*
X57520Y-38331D02*
X57441Y-38252D01*
X59193Y-38331D02*
X57520Y-38331D01*
X59429Y-38571D02*
X59193Y-38331D01*
X59429Y-39728D02*
X59429Y-38571D01*
X59362Y-39795D02*
X59429Y-39728D01*
X59364Y-40659D02*
X59362Y-39795D01*
X59303Y-40718D02*
X59364Y-40659D01*
X49428Y-42725D02*
X49535Y-42618D01*
X48154Y-42725D02*
X49428Y-42725D01*
G54D10*
G36*
X51073Y-37662D02*
X51052Y-37683D01*
X50790Y-37683D01*
X50922Y-37552D01*
X50922Y-37551D01*
X50946Y-37515D01*
X50954Y-37473D01*
X50955Y-37472D01*
X50955Y-35443D01*
X51073Y-35325D01*
X51073Y-37662D01*
X51073Y-37662D01*
G37*
G54D25*
X51073Y-37662D02*
X51052Y-37683D01*
X50790Y-37683D01*
X50922Y-37552D01*
X50922Y-37551D01*
X50946Y-37515D01*
X50954Y-37473D01*
X50955Y-37472D01*
X50955Y-35443D01*
X51073Y-35325D01*
X51073Y-37662D01*
G54D10*
G36*
X51435Y-41745D02*
X50752Y-41063D01*
X50749Y-41061D01*
X50862Y-41061D01*
X50904Y-41052D01*
X50905Y-41052D01*
X50939Y-41029D01*
X50946Y-41046D01*
X50994Y-41094D01*
X51057Y-41120D01*
X51125Y-41120D01*
X51188Y-41094D01*
X51221Y-41061D01*
X51276Y-41061D01*
X51435Y-41219D01*
X51435Y-41745D01*
X51435Y-41745D01*
G37*
G54D25*
X51435Y-41745D02*
X50752Y-41063D01*
X50749Y-41061D01*
X50862Y-41061D01*
X50904Y-41052D01*
X50905Y-41052D01*
X50939Y-41029D01*
X50946Y-41046D01*
X50994Y-41094D01*
X51057Y-41120D01*
X51125Y-41120D01*
X51188Y-41094D01*
X51221Y-41061D01*
X51276Y-41061D01*
X51435Y-41219D01*
X51435Y-41745D01*
G54D10*
G36*
X52951Y-41213D02*
X52636Y-41528D01*
X52636Y-41077D01*
X52636Y-41009D01*
X52610Y-40946D01*
X52562Y-40898D01*
X52499Y-40872D01*
X52447Y-40872D01*
X52447Y-40813D01*
X52421Y-40750D01*
X52376Y-40705D01*
X52384Y-40688D01*
X52384Y-40620D01*
X52358Y-40557D01*
X52341Y-40540D01*
X52345Y-40539D01*
X52393Y-40491D01*
X52419Y-40428D01*
X52419Y-40360D01*
X52393Y-40297D01*
X52345Y-40249D01*
X52282Y-40223D01*
X52235Y-40223D01*
X52199Y-40187D01*
X52266Y-40187D01*
X52329Y-40161D01*
X52377Y-40113D01*
X52403Y-40050D01*
X52403Y-39986D01*
X52436Y-39986D01*
X52499Y-39960D01*
X52547Y-39912D01*
X52573Y-39849D01*
X52573Y-39781D01*
X52547Y-39718D01*
X52499Y-39670D01*
X52436Y-39644D01*
X52389Y-39644D01*
X52036Y-39291D01*
X52000Y-39267D01*
X51957Y-39258D01*
X48327Y-39258D01*
X48294Y-39225D01*
X48231Y-39199D01*
X48163Y-39199D01*
X48100Y-39225D01*
X48052Y-39273D01*
X48026Y-39336D01*
X48026Y-39404D01*
X48052Y-39467D01*
X48100Y-39515D01*
X48163Y-39541D01*
X48231Y-39541D01*
X48294Y-39515D01*
X48327Y-39482D01*
X51911Y-39482D01*
X52231Y-39802D01*
X52231Y-39845D01*
X52219Y-39845D01*
X52063Y-39689D01*
X52027Y-39665D01*
X51984Y-39656D01*
X48331Y-39656D01*
X48298Y-39623D01*
X48235Y-39597D01*
X48167Y-39597D01*
X48104Y-39623D01*
X48056Y-39671D01*
X48030Y-39734D01*
X48030Y-39802D01*
X48052Y-39855D01*
X48040Y-39868D01*
X48014Y-39931D01*
X48014Y-39999D01*
X48040Y-40062D01*
X48088Y-40110D01*
X48151Y-40136D01*
X48219Y-40136D01*
X48282Y-40110D01*
X48315Y-40077D01*
X51772Y-40077D01*
X51945Y-40249D01*
X51914Y-40243D01*
X48311Y-40243D01*
X48278Y-40210D01*
X48215Y-40184D01*
X48147Y-40184D01*
X48084Y-40210D01*
X48036Y-40258D01*
X48010Y-40321D01*
X48010Y-40389D01*
X48036Y-40452D01*
X48084Y-40500D01*
X48147Y-40526D01*
X48215Y-40526D01*
X48278Y-40500D01*
X48311Y-40467D01*
X51867Y-40467D01*
X52042Y-40641D01*
X52042Y-40688D01*
X52068Y-40751D01*
X52112Y-40795D01*
X52105Y-40813D01*
X52105Y-40881D01*
X52131Y-40944D01*
X52179Y-40992D01*
X52242Y-41018D01*
X52294Y-41018D01*
X52294Y-41077D01*
X52320Y-41140D01*
X52368Y-41188D01*
X52431Y-41214D01*
X52499Y-41214D01*
X52562Y-41188D01*
X52610Y-41140D01*
X52636Y-41077D01*
X52636Y-41528D01*
X52593Y-41571D01*
X52569Y-41561D01*
X52501Y-41561D01*
X52438Y-41587D01*
X52390Y-41635D01*
X52364Y-41698D01*
X52364Y-41749D01*
X52140Y-41525D01*
X52140Y-41130D01*
X52131Y-41087D01*
X52107Y-41051D01*
X51898Y-40842D01*
X51923Y-40782D01*
X51923Y-40714D01*
X51897Y-40651D01*
X51849Y-40603D01*
X51786Y-40577D01*
X51718Y-40577D01*
X51655Y-40603D01*
X51607Y-40651D01*
X51601Y-40663D01*
X51502Y-40563D01*
X51465Y-40539D01*
X51423Y-40530D01*
X51422Y-40530D01*
X50898Y-40530D01*
X50855Y-40539D01*
X50818Y-40563D01*
X50745Y-40636D01*
X48303Y-40636D01*
X48270Y-40603D01*
X48207Y-40577D01*
X48139Y-40577D01*
X48076Y-40603D01*
X48028Y-40651D01*
X48002Y-40714D01*
X48002Y-40782D01*
X48028Y-40845D01*
X48049Y-40866D01*
X48030Y-40915D01*
X48030Y-40975D01*
X47978Y-40997D01*
X47972Y-41003D01*
X47972Y-38918D01*
X47982Y-38928D01*
X48045Y-38954D01*
X48113Y-38954D01*
X48176Y-38928D01*
X48209Y-38895D01*
X51941Y-38895D01*
X52215Y-39168D01*
X52215Y-39215D01*
X52241Y-39278D01*
X52289Y-39326D01*
X52352Y-39352D01*
X52420Y-39352D01*
X52483Y-39326D01*
X52531Y-39278D01*
X52557Y-39215D01*
X52557Y-39147D01*
X52531Y-39084D01*
X52483Y-39036D01*
X52420Y-39010D01*
X52373Y-39010D01*
X52288Y-38925D01*
X52332Y-38943D01*
X52400Y-38943D01*
X52463Y-38917D01*
X52511Y-38869D01*
X52537Y-38806D01*
X52537Y-38738D01*
X52511Y-38675D01*
X52463Y-38627D01*
X52400Y-38601D01*
X52353Y-38601D01*
X52264Y-38512D01*
X52243Y-38498D01*
X52292Y-38498D01*
X52334Y-38489D01*
X52335Y-38489D01*
X52371Y-38465D01*
X52503Y-38333D01*
X52550Y-38333D01*
X52613Y-38307D01*
X52661Y-38259D01*
X52687Y-38196D01*
X52687Y-38128D01*
X52677Y-38104D01*
X52852Y-38104D01*
X52951Y-38203D01*
X52951Y-41213D01*
X52951Y-41213D01*
G37*
G54D25*
X52951Y-41213D02*
X52636Y-41528D01*
X52636Y-41077D01*
X52636Y-41009D01*
X52610Y-40946D01*
X52562Y-40898D01*
X52499Y-40872D01*
X52447Y-40872D01*
X52447Y-40813D01*
X52421Y-40750D01*
X52376Y-40705D01*
X52384Y-40688D01*
X52384Y-40620D01*
X52358Y-40557D01*
X52341Y-40540D01*
X52345Y-40539D01*
X52393Y-40491D01*
X52419Y-40428D01*
X52419Y-40360D01*
X52393Y-40297D01*
X52345Y-40249D01*
X52282Y-40223D01*
X52235Y-40223D01*
X52199Y-40187D01*
X52266Y-40187D01*
X52329Y-40161D01*
X52377Y-40113D01*
X52403Y-40050D01*
X52403Y-39986D01*
X52436Y-39986D01*
X52499Y-39960D01*
X52547Y-39912D01*
X52573Y-39849D01*
X52573Y-39781D01*
X52547Y-39718D01*
X52499Y-39670D01*
X52436Y-39644D01*
X52389Y-39644D01*
X52036Y-39291D01*
X52000Y-39267D01*
X51957Y-39258D01*
X48327Y-39258D01*
X48294Y-39225D01*
X48231Y-39199D01*
X48163Y-39199D01*
X48100Y-39225D01*
X48052Y-39273D01*
X48026Y-39336D01*
X48026Y-39404D01*
X48052Y-39467D01*
X48100Y-39515D01*
X48163Y-39541D01*
X48231Y-39541D01*
X48294Y-39515D01*
X48327Y-39482D01*
X51911Y-39482D01*
X52231Y-39802D01*
X52231Y-39845D01*
X52219Y-39845D01*
X52063Y-39689D01*
X52027Y-39665D01*
X51984Y-39656D01*
X48331Y-39656D01*
X48298Y-39623D01*
X48235Y-39597D01*
X48167Y-39597D01*
X48104Y-39623D01*
X48056Y-39671D01*
X48030Y-39734D01*
X48030Y-39802D01*
X48052Y-39855D01*
X48040Y-39868D01*
X48014Y-39931D01*
X48014Y-39999D01*
X48040Y-40062D01*
X48088Y-40110D01*
X48151Y-40136D01*
X48219Y-40136D01*
X48282Y-40110D01*
X48315Y-40077D01*
X51772Y-40077D01*
X51945Y-40249D01*
X51914Y-40243D01*
X48311Y-40243D01*
X48278Y-40210D01*
X48215Y-40184D01*
X48147Y-40184D01*
X48084Y-40210D01*
X48036Y-40258D01*
X48010Y-40321D01*
X48010Y-40389D01*
X48036Y-40452D01*
X48084Y-40500D01*
X48147Y-40526D01*
X48215Y-40526D01*
X48278Y-40500D01*
X48311Y-40467D01*
X51867Y-40467D01*
X52042Y-40641D01*
X52042Y-40688D01*
X52068Y-40751D01*
X52112Y-40795D01*
X52105Y-40813D01*
X52105Y-40881D01*
X52131Y-40944D01*
X52179Y-40992D01*
X52242Y-41018D01*
X52294Y-41018D01*
X52294Y-41077D01*
X52320Y-41140D01*
X52368Y-41188D01*
X52431Y-41214D01*
X52499Y-41214D01*
X52562Y-41188D01*
X52610Y-41140D01*
X52636Y-41077D01*
X52636Y-41528D01*
X52593Y-41571D01*
X52569Y-41561D01*
X52501Y-41561D01*
X52438Y-41587D01*
X52390Y-41635D01*
X52364Y-41698D01*
X52364Y-41749D01*
X52140Y-41525D01*
X52140Y-41130D01*
X52131Y-41087D01*
X52107Y-41051D01*
X51898Y-40842D01*
X51923Y-40782D01*
X51923Y-40714D01*
X51897Y-40651D01*
X51849Y-40603D01*
X51786Y-40577D01*
X51718Y-40577D01*
X51655Y-40603D01*
X51607Y-40651D01*
X51601Y-40663D01*
X51502Y-40563D01*
X51465Y-40539D01*
X51423Y-40530D01*
X51422Y-40530D01*
X50898Y-40530D01*
X50855Y-40539D01*
X50818Y-40563D01*
X50745Y-40636D01*
X48303Y-40636D01*
X48270Y-40603D01*
X48207Y-40577D01*
X48139Y-40577D01*
X48076Y-40603D01*
X48028Y-40651D01*
X48002Y-40714D01*
X48002Y-40782D01*
X48028Y-40845D01*
X48049Y-40866D01*
X48030Y-40915D01*
X48030Y-40975D01*
X47978Y-40997D01*
X47972Y-41003D01*
X47972Y-38918D01*
X47982Y-38928D01*
X48045Y-38954D01*
X48113Y-38954D01*
X48176Y-38928D01*
X48209Y-38895D01*
X51941Y-38895D01*
X52215Y-39168D01*
X52215Y-39215D01*
X52241Y-39278D01*
X52289Y-39326D01*
X52352Y-39352D01*
X52420Y-39352D01*
X52483Y-39326D01*
X52531Y-39278D01*
X52557Y-39215D01*
X52557Y-39147D01*
X52531Y-39084D01*
X52483Y-39036D01*
X52420Y-39010D01*
X52373Y-39010D01*
X52288Y-38925D01*
X52332Y-38943D01*
X52400Y-38943D01*
X52463Y-38917D01*
X52511Y-38869D01*
X52537Y-38806D01*
X52537Y-38738D01*
X52511Y-38675D01*
X52463Y-38627D01*
X52400Y-38601D01*
X52353Y-38601D01*
X52264Y-38512D01*
X52243Y-38498D01*
X52292Y-38498D01*
X52334Y-38489D01*
X52335Y-38489D01*
X52371Y-38465D01*
X52503Y-38333D01*
X52550Y-38333D01*
X52613Y-38307D01*
X52661Y-38259D01*
X52687Y-38196D01*
X52687Y-38128D01*
X52677Y-38104D01*
X52852Y-38104D01*
X52951Y-38203D01*
X52951Y-41213D01*
G54D10*
G36*
X55025Y-36336D02*
X54721Y-36640D01*
X53494Y-36640D01*
X53494Y-36487D01*
X53494Y-36419D01*
X53468Y-36356D01*
X53420Y-36308D01*
X53357Y-36282D01*
X53289Y-36282D01*
X53226Y-36308D01*
X53178Y-36356D01*
X53152Y-36419D01*
X53152Y-36487D01*
X53178Y-36550D01*
X53226Y-36598D01*
X53289Y-36624D01*
X53357Y-36624D01*
X53420Y-36598D01*
X53468Y-36550D01*
X53494Y-36487D01*
X53494Y-36640D01*
X53000Y-36640D01*
X52967Y-36607D01*
X52904Y-36581D01*
X52836Y-36581D01*
X52773Y-36607D01*
X52725Y-36655D01*
X52699Y-36718D01*
X52699Y-36774D01*
X51781Y-35856D01*
X51781Y-35418D01*
X51814Y-35385D01*
X51840Y-35322D01*
X51840Y-35254D01*
X51875Y-35254D01*
X52399Y-35778D01*
X52323Y-35778D01*
X52290Y-35745D01*
X52227Y-35719D01*
X52159Y-35719D01*
X52096Y-35745D01*
X52048Y-35793D01*
X52022Y-35856D01*
X52022Y-35924D01*
X52048Y-35987D01*
X52096Y-36035D01*
X52159Y-36061D01*
X52227Y-36061D01*
X52290Y-36035D01*
X52323Y-36002D01*
X54566Y-36002D01*
X54550Y-36041D01*
X54550Y-36109D01*
X54576Y-36172D01*
X54614Y-36210D01*
X54591Y-36234D01*
X54565Y-36297D01*
X54565Y-36365D01*
X54591Y-36428D01*
X54639Y-36476D01*
X54702Y-36502D01*
X54770Y-36502D01*
X54833Y-36476D01*
X54881Y-36428D01*
X54907Y-36365D01*
X54907Y-36345D01*
X54916Y-36336D01*
X55025Y-36336D01*
X55025Y-36336D01*
G37*
G54D25*
X55025Y-36336D02*
X54721Y-36640D01*
X53494Y-36640D01*
X53494Y-36487D01*
X53494Y-36419D01*
X53468Y-36356D01*
X53420Y-36308D01*
X53357Y-36282D01*
X53289Y-36282D01*
X53226Y-36308D01*
X53178Y-36356D01*
X53152Y-36419D01*
X53152Y-36487D01*
X53178Y-36550D01*
X53226Y-36598D01*
X53289Y-36624D01*
X53357Y-36624D01*
X53420Y-36598D01*
X53468Y-36550D01*
X53494Y-36487D01*
X53494Y-36640D01*
X53000Y-36640D01*
X52967Y-36607D01*
X52904Y-36581D01*
X52836Y-36581D01*
X52773Y-36607D01*
X52725Y-36655D01*
X52699Y-36718D01*
X52699Y-36774D01*
X51781Y-35856D01*
X51781Y-35418D01*
X51814Y-35385D01*
X51840Y-35322D01*
X51840Y-35254D01*
X51875Y-35254D01*
X52399Y-35778D01*
X52323Y-35778D01*
X52290Y-35745D01*
X52227Y-35719D01*
X52159Y-35719D01*
X52096Y-35745D01*
X52048Y-35793D01*
X52022Y-35856D01*
X52022Y-35924D01*
X52048Y-35987D01*
X52096Y-36035D01*
X52159Y-36061D01*
X52227Y-36061D01*
X52290Y-36035D01*
X52323Y-36002D01*
X54566Y-36002D01*
X54550Y-36041D01*
X54550Y-36109D01*
X54576Y-36172D01*
X54614Y-36210D01*
X54591Y-36234D01*
X54565Y-36297D01*
X54565Y-36365D01*
X54591Y-36428D01*
X54639Y-36476D01*
X54702Y-36502D01*
X54770Y-36502D01*
X54833Y-36476D01*
X54881Y-36428D01*
X54907Y-36365D01*
X54907Y-36345D01*
X54916Y-36336D01*
X55025Y-36336D01*
G54D10*
G36*
X55186Y-41363D02*
X54934Y-41632D01*
X53795Y-41632D01*
X53821Y-41570D01*
X53821Y-41502D01*
X53795Y-41439D01*
X53747Y-41391D01*
X53698Y-41370D01*
X53736Y-41333D01*
X53762Y-41270D01*
X53762Y-41202D01*
X53741Y-41152D01*
X55098Y-41152D01*
X55089Y-41175D01*
X55089Y-41243D01*
X55115Y-41306D01*
X55163Y-41354D01*
X55186Y-41363D01*
X55186Y-41363D01*
G37*
G54D25*
X55186Y-41363D02*
X54934Y-41632D01*
X53795Y-41632D01*
X53821Y-41570D01*
X53821Y-41502D01*
X53795Y-41439D01*
X53747Y-41391D01*
X53698Y-41370D01*
X53736Y-41333D01*
X53762Y-41270D01*
X53762Y-41202D01*
X53741Y-41152D01*
X55098Y-41152D01*
X55089Y-41175D01*
X55089Y-41243D01*
X55115Y-41306D01*
X55163Y-41354D01*
X55186Y-41363D01*
G54D10*
G36*
X56718Y-38554D02*
X56705Y-38549D01*
X56641Y-38549D01*
X56581Y-38574D01*
X56536Y-38619D01*
X56535Y-38619D01*
X56529Y-38613D01*
X56469Y-38588D01*
X56405Y-38588D01*
X56345Y-38613D01*
X56321Y-38636D01*
X56066Y-38636D01*
X56078Y-38625D01*
X56104Y-38562D01*
X56104Y-38494D01*
X56078Y-38431D01*
X56030Y-38383D01*
X55967Y-38357D01*
X55899Y-38357D01*
X55836Y-38383D01*
X55788Y-38431D01*
X55762Y-38494D01*
X55762Y-38562D01*
X55788Y-38625D01*
X55799Y-38636D01*
X55633Y-38636D01*
X55377Y-38380D01*
X55396Y-38373D01*
X55444Y-38325D01*
X55470Y-38262D01*
X55470Y-38194D01*
X55444Y-38131D01*
X55396Y-38083D01*
X55333Y-38057D01*
X55265Y-38057D01*
X55202Y-38083D01*
X55154Y-38131D01*
X55128Y-38194D01*
X55128Y-38243D01*
X53792Y-38243D01*
X53759Y-38210D01*
X53696Y-38184D01*
X53628Y-38184D01*
X53565Y-38210D01*
X53517Y-38258D01*
X53491Y-38321D01*
X53491Y-38389D01*
X53517Y-38452D01*
X53520Y-38455D01*
X53517Y-38458D01*
X53491Y-38521D01*
X53491Y-38589D01*
X53517Y-38652D01*
X53565Y-38700D01*
X53628Y-38726D01*
X53696Y-38726D01*
X53759Y-38700D01*
X53792Y-38667D01*
X55198Y-38667D01*
X55439Y-38901D01*
X55413Y-38928D01*
X55387Y-38902D01*
X55351Y-38878D01*
X55308Y-38869D01*
X53780Y-38869D01*
X53747Y-38836D01*
X53684Y-38810D01*
X53616Y-38810D01*
X53553Y-38836D01*
X53505Y-38884D01*
X53479Y-38947D01*
X53479Y-39015D01*
X53505Y-39078D01*
X53553Y-39126D01*
X53616Y-39152D01*
X53684Y-39152D01*
X53747Y-39126D01*
X53780Y-39093D01*
X55262Y-39093D01*
X55413Y-39244D01*
X55401Y-39255D01*
X53755Y-39257D01*
X53723Y-39225D01*
X53660Y-39199D01*
X53592Y-39199D01*
X53529Y-39225D01*
X53481Y-39273D01*
X53455Y-39336D01*
X53455Y-39404D01*
X53478Y-39460D01*
X53465Y-39474D01*
X53439Y-39537D01*
X53439Y-39605D01*
X53465Y-39668D01*
X53513Y-39716D01*
X53576Y-39742D01*
X53644Y-39742D01*
X53707Y-39716D01*
X53740Y-39683D01*
X55040Y-39683D01*
X55220Y-39863D01*
X55236Y-39874D01*
X55206Y-39887D01*
X55158Y-39935D01*
X55132Y-39998D01*
X55132Y-40066D01*
X55142Y-40091D01*
X53713Y-40089D01*
X53680Y-40056D01*
X53617Y-40030D01*
X53549Y-40030D01*
X53486Y-40056D01*
X53438Y-40104D01*
X53412Y-40167D01*
X53412Y-40235D01*
X53438Y-40298D01*
X53486Y-40346D01*
X53549Y-40372D01*
X53617Y-40372D01*
X53680Y-40346D01*
X53712Y-40313D01*
X55151Y-40315D01*
X55143Y-40324D01*
X55117Y-40387D01*
X55117Y-40447D01*
X53732Y-40447D01*
X53699Y-40414D01*
X53636Y-40388D01*
X53568Y-40388D01*
X53505Y-40414D01*
X53457Y-40462D01*
X53431Y-40525D01*
X53431Y-40593D01*
X53457Y-40656D01*
X53505Y-40704D01*
X53568Y-40730D01*
X53636Y-40730D01*
X53699Y-40704D01*
X53732Y-40671D01*
X55276Y-40671D01*
X55269Y-40674D01*
X55221Y-40722D01*
X55195Y-40785D01*
X55195Y-40853D01*
X55221Y-40916D01*
X55233Y-40928D01*
X53717Y-40928D01*
X53684Y-40895D01*
X53621Y-40869D01*
X53553Y-40869D01*
X53490Y-40895D01*
X53442Y-40943D01*
X53416Y-41006D01*
X53416Y-41074D01*
X53436Y-41124D01*
X53261Y-41124D01*
X53218Y-41133D01*
X53182Y-41157D01*
X53181Y-41157D01*
X53181Y-41158D01*
X53175Y-41164D01*
X53175Y-38157D01*
X53166Y-38114D01*
X53142Y-38078D01*
X52977Y-37913D01*
X52941Y-37889D01*
X52898Y-37880D01*
X52706Y-37880D01*
X52714Y-37861D01*
X52714Y-37793D01*
X52707Y-37778D01*
X52799Y-37778D01*
X52841Y-37769D01*
X52842Y-37769D01*
X52878Y-37745D01*
X53192Y-37431D01*
X54323Y-37431D01*
X54356Y-37464D01*
X54419Y-37490D01*
X54487Y-37490D01*
X54550Y-37464D01*
X54598Y-37416D01*
X54624Y-37353D01*
X54624Y-37285D01*
X54619Y-37273D01*
X54773Y-37273D01*
X54760Y-37305D01*
X54760Y-37380D01*
X54789Y-37450D01*
X54842Y-37503D01*
X54911Y-37532D01*
X54986Y-37532D01*
X55056Y-37503D01*
X55109Y-37450D01*
X55138Y-37381D01*
X55138Y-37306D01*
X55109Y-37236D01*
X55056Y-37183D01*
X55037Y-37175D01*
X55467Y-36746D01*
X55467Y-36790D01*
X55493Y-36853D01*
X55541Y-36901D01*
X55604Y-36927D01*
X55672Y-36927D01*
X55720Y-36907D01*
X55878Y-36907D01*
X56206Y-37235D01*
X56063Y-37235D01*
X56015Y-37215D01*
X55947Y-37215D01*
X55884Y-37241D01*
X55836Y-37289D01*
X55810Y-37352D01*
X55810Y-37420D01*
X55836Y-37483D01*
X55884Y-37531D01*
X55947Y-37557D01*
X56015Y-37557D01*
X56063Y-37537D01*
X56240Y-37537D01*
X56715Y-38012D01*
X56715Y-38028D01*
X56672Y-37985D01*
X56609Y-37959D01*
X56541Y-37959D01*
X56478Y-37985D01*
X56451Y-38012D01*
X56416Y-37977D01*
X56353Y-37951D01*
X56285Y-37951D01*
X56222Y-37977D01*
X56174Y-38025D01*
X56155Y-38071D01*
X56155Y-38050D01*
X56155Y-37982D01*
X56129Y-37919D01*
X56081Y-37871D01*
X56018Y-37845D01*
X55950Y-37845D01*
X55887Y-37871D01*
X55839Y-37919D01*
X55813Y-37982D01*
X55813Y-38050D01*
X55839Y-38113D01*
X55887Y-38161D01*
X55950Y-38187D01*
X56018Y-38187D01*
X56081Y-38161D01*
X56129Y-38113D01*
X56155Y-38050D01*
X56155Y-38071D01*
X56148Y-38088D01*
X56148Y-38156D01*
X56174Y-38219D01*
X56222Y-38267D01*
X56285Y-38293D01*
X56353Y-38293D01*
X56416Y-38267D01*
X56443Y-38240D01*
X56478Y-38275D01*
X56541Y-38301D01*
X56609Y-38301D01*
X56672Y-38275D01*
X56716Y-38230D01*
X56718Y-38554D01*
X56718Y-38554D01*
G37*
G54D25*
X56718Y-38554D02*
X56705Y-38549D01*
X56641Y-38549D01*
X56581Y-38574D01*
X56536Y-38619D01*
X56535Y-38619D01*
X56529Y-38613D01*
X56469Y-38588D01*
X56405Y-38588D01*
X56345Y-38613D01*
X56321Y-38636D01*
X56066Y-38636D01*
X56078Y-38625D01*
X56104Y-38562D01*
X56104Y-38494D01*
X56078Y-38431D01*
X56030Y-38383D01*
X55967Y-38357D01*
X55899Y-38357D01*
X55836Y-38383D01*
X55788Y-38431D01*
X55762Y-38494D01*
X55762Y-38562D01*
X55788Y-38625D01*
X55799Y-38636D01*
X55633Y-38636D01*
X55377Y-38380D01*
X55396Y-38373D01*
X55444Y-38325D01*
X55470Y-38262D01*
X55470Y-38194D01*
X55444Y-38131D01*
X55396Y-38083D01*
X55333Y-38057D01*
X55265Y-38057D01*
X55202Y-38083D01*
X55154Y-38131D01*
X55128Y-38194D01*
X55128Y-38243D01*
X53792Y-38243D01*
X53759Y-38210D01*
X53696Y-38184D01*
X53628Y-38184D01*
X53565Y-38210D01*
X53517Y-38258D01*
X53491Y-38321D01*
X53491Y-38389D01*
X53517Y-38452D01*
X53520Y-38455D01*
X53517Y-38458D01*
X53491Y-38521D01*
X53491Y-38589D01*
X53517Y-38652D01*
X53565Y-38700D01*
X53628Y-38726D01*
X53696Y-38726D01*
X53759Y-38700D01*
X53792Y-38667D01*
X55198Y-38667D01*
X55439Y-38901D01*
X55413Y-38928D01*
X55387Y-38902D01*
X55351Y-38878D01*
X55308Y-38869D01*
X53780Y-38869D01*
X53747Y-38836D01*
X53684Y-38810D01*
X53616Y-38810D01*
X53553Y-38836D01*
X53505Y-38884D01*
X53479Y-38947D01*
X53479Y-39015D01*
X53505Y-39078D01*
X53553Y-39126D01*
X53616Y-39152D01*
X53684Y-39152D01*
X53747Y-39126D01*
X53780Y-39093D01*
X55262Y-39093D01*
X55413Y-39244D01*
X55401Y-39255D01*
X53755Y-39257D01*
X53723Y-39225D01*
X53660Y-39199D01*
X53592Y-39199D01*
X53529Y-39225D01*
X53481Y-39273D01*
X53455Y-39336D01*
X53455Y-39404D01*
X53478Y-39460D01*
X53465Y-39474D01*
X53439Y-39537D01*
X53439Y-39605D01*
X53465Y-39668D01*
X53513Y-39716D01*
X53576Y-39742D01*
X53644Y-39742D01*
X53707Y-39716D01*
X53740Y-39683D01*
X55040Y-39683D01*
X55220Y-39863D01*
X55236Y-39874D01*
X55206Y-39887D01*
X55158Y-39935D01*
X55132Y-39998D01*
X55132Y-40066D01*
X55142Y-40091D01*
X53713Y-40089D01*
X53680Y-40056D01*
X53617Y-40030D01*
X53549Y-40030D01*
X53486Y-40056D01*
X53438Y-40104D01*
X53412Y-40167D01*
X53412Y-40235D01*
X53438Y-40298D01*
X53486Y-40346D01*
X53549Y-40372D01*
X53617Y-40372D01*
X53680Y-40346D01*
X53712Y-40313D01*
X55151Y-40315D01*
X55143Y-40324D01*
X55117Y-40387D01*
X55117Y-40447D01*
X53732Y-40447D01*
X53699Y-40414D01*
X53636Y-40388D01*
X53568Y-40388D01*
X53505Y-40414D01*
X53457Y-40462D01*
X53431Y-40525D01*
X53431Y-40593D01*
X53457Y-40656D01*
X53505Y-40704D01*
X53568Y-40730D01*
X53636Y-40730D01*
X53699Y-40704D01*
X53732Y-40671D01*
X55276Y-40671D01*
X55269Y-40674D01*
X55221Y-40722D01*
X55195Y-40785D01*
X55195Y-40853D01*
X55221Y-40916D01*
X55233Y-40928D01*
X53717Y-40928D01*
X53684Y-40895D01*
X53621Y-40869D01*
X53553Y-40869D01*
X53490Y-40895D01*
X53442Y-40943D01*
X53416Y-41006D01*
X53416Y-41074D01*
X53436Y-41124D01*
X53261Y-41124D01*
X53218Y-41133D01*
X53182Y-41157D01*
X53181Y-41157D01*
X53181Y-41158D01*
X53175Y-41164D01*
X53175Y-38157D01*
X53166Y-38114D01*
X53142Y-38078D01*
X52977Y-37913D01*
X52941Y-37889D01*
X52898Y-37880D01*
X52706Y-37880D01*
X52714Y-37861D01*
X52714Y-37793D01*
X52707Y-37778D01*
X52799Y-37778D01*
X52841Y-37769D01*
X52842Y-37769D01*
X52878Y-37745D01*
X53192Y-37431D01*
X54323Y-37431D01*
X54356Y-37464D01*
X54419Y-37490D01*
X54487Y-37490D01*
X54550Y-37464D01*
X54598Y-37416D01*
X54624Y-37353D01*
X54624Y-37285D01*
X54619Y-37273D01*
X54773Y-37273D01*
X54760Y-37305D01*
X54760Y-37380D01*
X54789Y-37450D01*
X54842Y-37503D01*
X54911Y-37532D01*
X54986Y-37532D01*
X55056Y-37503D01*
X55109Y-37450D01*
X55138Y-37381D01*
X55138Y-37306D01*
X55109Y-37236D01*
X55056Y-37183D01*
X55037Y-37175D01*
X55467Y-36746D01*
X55467Y-36790D01*
X55493Y-36853D01*
X55541Y-36901D01*
X55604Y-36927D01*
X55672Y-36927D01*
X55720Y-36907D01*
X55878Y-36907D01*
X56206Y-37235D01*
X56063Y-37235D01*
X56015Y-37215D01*
X55947Y-37215D01*
X55884Y-37241D01*
X55836Y-37289D01*
X55810Y-37352D01*
X55810Y-37420D01*
X55836Y-37483D01*
X55884Y-37531D01*
X55947Y-37557D01*
X56015Y-37557D01*
X56063Y-37537D01*
X56240Y-37537D01*
X56715Y-38012D01*
X56715Y-38028D01*
X56672Y-37985D01*
X56609Y-37959D01*
X56541Y-37959D01*
X56478Y-37985D01*
X56451Y-38012D01*
X56416Y-37977D01*
X56353Y-37951D01*
X56285Y-37951D01*
X56222Y-37977D01*
X56174Y-38025D01*
X56155Y-38071D01*
X56155Y-38050D01*
X56155Y-37982D01*
X56129Y-37919D01*
X56081Y-37871D01*
X56018Y-37845D01*
X55950Y-37845D01*
X55887Y-37871D01*
X55839Y-37919D01*
X55813Y-37982D01*
X55813Y-38050D01*
X55839Y-38113D01*
X55887Y-38161D01*
X55950Y-38187D01*
X56018Y-38187D01*
X56081Y-38161D01*
X56129Y-38113D01*
X56155Y-38050D01*
X56155Y-38071D01*
X56148Y-38088D01*
X56148Y-38156D01*
X56174Y-38219D01*
X56222Y-38267D01*
X56285Y-38293D01*
X56353Y-38293D01*
X56416Y-38267D01*
X56443Y-38240D01*
X56478Y-38275D01*
X56541Y-38301D01*
X56609Y-38301D01*
X56672Y-38275D01*
X56716Y-38230D01*
X56718Y-38554D01*
G54D10*
G36*
X58104Y-37502D02*
X57963Y-37502D01*
X56293Y-35832D01*
X56434Y-35832D01*
X58104Y-37502D01*
X58104Y-37502D01*
G37*
G54D25*
X58104Y-37502D02*
X57963Y-37502D01*
X56293Y-35832D01*
X56434Y-35832D01*
X58104Y-37502D01*
G54D10*
G36*
X66005Y-49548D02*
X63704Y-49542D01*
X63704Y-31912D01*
X63704Y-31757D01*
X63645Y-31614D01*
X63535Y-31504D01*
X63392Y-31444D01*
X63237Y-31444D01*
X63094Y-31503D01*
X62984Y-31613D01*
X62924Y-31756D01*
X62924Y-31911D01*
X62983Y-32054D01*
X63093Y-32164D01*
X63236Y-32224D01*
X63391Y-32224D01*
X63534Y-32165D01*
X63644Y-32055D01*
X63704Y-31912D01*
X63704Y-49542D01*
X63433Y-49542D01*
X63433Y-48428D01*
X63433Y-48273D01*
X63374Y-48130D01*
X63264Y-48020D01*
X63121Y-47960D01*
X62966Y-47960D01*
X62823Y-48019D01*
X62713Y-48129D01*
X62704Y-48150D01*
X62704Y-31912D01*
X62704Y-31757D01*
X62645Y-31614D01*
X62535Y-31504D01*
X62392Y-31444D01*
X62237Y-31444D01*
X62094Y-31503D01*
X61984Y-31613D01*
X61924Y-31756D01*
X61924Y-31911D01*
X61983Y-32054D01*
X62093Y-32164D01*
X62236Y-32224D01*
X62391Y-32224D01*
X62534Y-32165D01*
X62644Y-32055D01*
X62704Y-31912D01*
X62704Y-48150D01*
X62653Y-48272D01*
X62653Y-48427D01*
X62712Y-48570D01*
X62822Y-48680D01*
X62965Y-48740D01*
X63120Y-48740D01*
X63263Y-48681D01*
X63373Y-48571D01*
X63433Y-48428D01*
X63433Y-49542D01*
X62433Y-49540D01*
X62433Y-48428D01*
X62433Y-48273D01*
X62374Y-48130D01*
X62264Y-48020D01*
X62121Y-47960D01*
X61966Y-47960D01*
X61823Y-48019D01*
X61713Y-48129D01*
X61653Y-48272D01*
X61653Y-48427D01*
X61712Y-48570D01*
X61822Y-48680D01*
X61965Y-48740D01*
X62120Y-48740D01*
X62263Y-48681D01*
X62373Y-48571D01*
X62433Y-48428D01*
X62433Y-49540D01*
X60433Y-49535D01*
X60433Y-48428D01*
X60433Y-48273D01*
X60374Y-48130D01*
X60264Y-48020D01*
X60121Y-47960D01*
X59966Y-47960D01*
X59823Y-48019D01*
X59713Y-48129D01*
X59653Y-48272D01*
X59653Y-48427D01*
X59712Y-48570D01*
X59822Y-48680D01*
X59965Y-48740D01*
X60120Y-48740D01*
X60263Y-48681D01*
X60373Y-48571D01*
X60433Y-48428D01*
X60433Y-49535D01*
X59433Y-49533D01*
X59433Y-48647D01*
X59433Y-48610D01*
X59433Y-48014D01*
X59419Y-47980D01*
X59393Y-47954D01*
X59360Y-47940D01*
X59323Y-47940D01*
X59165Y-47940D01*
X59165Y-46810D01*
X59165Y-46735D01*
X59136Y-46665D01*
X59083Y-46612D01*
X59014Y-46583D01*
X58939Y-46583D01*
X58869Y-46612D01*
X58816Y-46665D01*
X58787Y-46734D01*
X58787Y-46809D01*
X58816Y-46879D01*
X58869Y-46932D01*
X58938Y-46961D01*
X59013Y-46961D01*
X59083Y-46932D01*
X59136Y-46879D01*
X59165Y-46810D01*
X59165Y-47940D01*
X58727Y-47940D01*
X58693Y-47954D01*
X58667Y-47980D01*
X58653Y-48013D01*
X58653Y-48050D01*
X58653Y-48646D01*
X58667Y-48680D01*
X58693Y-48706D01*
X58726Y-48720D01*
X58763Y-48720D01*
X59359Y-48720D01*
X59393Y-48706D01*
X59419Y-48680D01*
X59433Y-48647D01*
X59433Y-49533D01*
X57856Y-49530D01*
X57780Y-49498D01*
X57673Y-49498D01*
X57596Y-49529D01*
X57420Y-49529D01*
X57346Y-49498D01*
X57239Y-49498D01*
X57164Y-49528D01*
X56984Y-49528D01*
X56966Y-49520D01*
X56966Y-49157D01*
X56966Y-49002D01*
X56907Y-48859D01*
X56797Y-48749D01*
X56654Y-48689D01*
X56499Y-48689D01*
X56356Y-48748D01*
X56246Y-48858D01*
X56186Y-49001D01*
X56186Y-49156D01*
X56245Y-49299D01*
X56355Y-49409D01*
X56498Y-49469D01*
X56653Y-49469D01*
X56796Y-49410D01*
X56906Y-49300D01*
X56966Y-49157D01*
X56966Y-49520D01*
X56913Y-49498D01*
X56806Y-49498D01*
X56733Y-49527D01*
X56549Y-49527D01*
X56480Y-49498D01*
X56373Y-49498D01*
X56302Y-49527D01*
X53091Y-49520D01*
X53091Y-49235D01*
X53091Y-49160D01*
X53089Y-49155D01*
X53089Y-48840D01*
X53089Y-48765D01*
X53089Y-48448D01*
X53089Y-48373D01*
X53089Y-48053D01*
X53089Y-47978D01*
X53089Y-47660D01*
X53089Y-47585D01*
X53060Y-47515D01*
X53007Y-47462D01*
X52965Y-47444D01*
X53007Y-47427D01*
X53060Y-47374D01*
X53089Y-47305D01*
X53089Y-47230D01*
X53060Y-47160D01*
X53007Y-47107D01*
X53000Y-47104D01*
X53000Y-45030D01*
X53000Y-44955D01*
X52971Y-44885D01*
X52918Y-44832D01*
X52849Y-44803D01*
X52774Y-44803D01*
X52704Y-44832D01*
X52651Y-44885D01*
X52622Y-44954D01*
X52622Y-45029D01*
X52651Y-45099D01*
X52704Y-45152D01*
X52773Y-45181D01*
X52848Y-45181D01*
X52918Y-45152D01*
X52971Y-45099D01*
X53000Y-45030D01*
X53000Y-47104D01*
X52971Y-47091D01*
X52971Y-45728D01*
X52971Y-45653D01*
X52942Y-45583D01*
X52891Y-45532D01*
X52942Y-45482D01*
X52971Y-45413D01*
X52971Y-45338D01*
X52942Y-45268D01*
X52889Y-45215D01*
X52820Y-45186D01*
X52745Y-45186D01*
X52675Y-45215D01*
X52622Y-45268D01*
X52593Y-45337D01*
X52593Y-45412D01*
X52622Y-45482D01*
X52672Y-45532D01*
X52622Y-45583D01*
X52593Y-45652D01*
X52593Y-45727D01*
X52597Y-45738D01*
X52547Y-45738D01*
X52477Y-45767D01*
X52424Y-45820D01*
X52395Y-45889D01*
X52395Y-45964D01*
X52424Y-46034D01*
X52477Y-46087D01*
X52546Y-46116D01*
X52621Y-46116D01*
X52691Y-46087D01*
X52744Y-46034D01*
X52773Y-45965D01*
X52773Y-45890D01*
X52768Y-45879D01*
X52819Y-45879D01*
X52889Y-45850D01*
X52942Y-45797D01*
X52971Y-45728D01*
X52971Y-47091D01*
X52938Y-47078D01*
X52863Y-47078D01*
X52793Y-47107D01*
X52740Y-47160D01*
X52711Y-47229D01*
X52711Y-47304D01*
X52740Y-47374D01*
X52793Y-47427D01*
X52834Y-47444D01*
X52793Y-47462D01*
X52740Y-47515D01*
X52711Y-47584D01*
X52711Y-47659D01*
X52740Y-47729D01*
X52793Y-47782D01*
X52862Y-47811D01*
X52937Y-47811D01*
X53007Y-47782D01*
X53060Y-47729D01*
X53089Y-47660D01*
X53089Y-47978D01*
X53060Y-47908D01*
X53007Y-47855D01*
X52938Y-47826D01*
X52863Y-47826D01*
X52793Y-47855D01*
X52740Y-47908D01*
X52711Y-47977D01*
X52711Y-48052D01*
X52740Y-48122D01*
X52793Y-48175D01*
X52862Y-48204D01*
X52937Y-48204D01*
X53007Y-48175D01*
X53060Y-48122D01*
X53089Y-48053D01*
X53089Y-48373D01*
X53060Y-48303D01*
X53007Y-48250D01*
X52938Y-48221D01*
X52863Y-48221D01*
X52793Y-48250D01*
X52740Y-48303D01*
X52711Y-48372D01*
X52711Y-48447D01*
X52740Y-48517D01*
X52793Y-48570D01*
X52862Y-48599D01*
X52937Y-48599D01*
X53007Y-48570D01*
X53060Y-48517D01*
X53089Y-48448D01*
X53089Y-48765D01*
X53060Y-48695D01*
X53007Y-48642D01*
X52938Y-48613D01*
X52863Y-48613D01*
X52793Y-48642D01*
X52740Y-48695D01*
X52711Y-48764D01*
X52711Y-48839D01*
X52740Y-48909D01*
X52793Y-48962D01*
X52862Y-48991D01*
X52937Y-48991D01*
X53007Y-48962D01*
X53060Y-48909D01*
X53089Y-48840D01*
X53089Y-49155D01*
X53062Y-49090D01*
X53009Y-49037D01*
X52940Y-49008D01*
X52865Y-49008D01*
X52795Y-49037D01*
X52742Y-49090D01*
X52713Y-49159D01*
X52713Y-49234D01*
X52742Y-49304D01*
X52795Y-49357D01*
X52864Y-49386D01*
X52939Y-49386D01*
X53009Y-49357D01*
X53062Y-49304D01*
X53091Y-49235D01*
X53091Y-49520D01*
X52696Y-49519D01*
X52696Y-49235D01*
X52696Y-49160D01*
X52696Y-47305D01*
X52696Y-47230D01*
X52667Y-47160D01*
X52614Y-47107D01*
X52545Y-47078D01*
X52470Y-47078D01*
X52400Y-47107D01*
X52379Y-47128D01*
X52379Y-45965D01*
X52379Y-45890D01*
X52350Y-45820D01*
X52297Y-45767D01*
X52228Y-45738D01*
X52178Y-45738D01*
X52183Y-45728D01*
X52183Y-45653D01*
X52154Y-45583D01*
X52103Y-45532D01*
X52154Y-45482D01*
X52183Y-45413D01*
X52183Y-45338D01*
X52154Y-45268D01*
X52101Y-45215D01*
X52032Y-45186D01*
X51957Y-45186D01*
X51887Y-45215D01*
X51834Y-45268D01*
X51805Y-45337D01*
X51805Y-45412D01*
X51834Y-45482D01*
X51884Y-45532D01*
X51834Y-45583D01*
X51805Y-45652D01*
X51805Y-45727D01*
X51834Y-45797D01*
X51887Y-45850D01*
X51956Y-45879D01*
X52005Y-45879D01*
X52001Y-45889D01*
X52001Y-45964D01*
X52030Y-46034D01*
X52083Y-46087D01*
X52152Y-46116D01*
X52227Y-46116D01*
X52297Y-46087D01*
X52350Y-46034D01*
X52379Y-45965D01*
X52379Y-47128D01*
X52347Y-47160D01*
X52318Y-47229D01*
X52318Y-47304D01*
X52347Y-47374D01*
X52400Y-47427D01*
X52469Y-47456D01*
X52544Y-47456D01*
X52614Y-47427D01*
X52667Y-47374D01*
X52696Y-47305D01*
X52696Y-49160D01*
X52667Y-49090D01*
X52614Y-49037D01*
X52545Y-49008D01*
X52470Y-49008D01*
X52400Y-49037D01*
X52347Y-49090D01*
X52318Y-49159D01*
X52318Y-49234D01*
X52347Y-49304D01*
X52400Y-49357D01*
X52469Y-49386D01*
X52544Y-49386D01*
X52614Y-49357D01*
X52667Y-49304D01*
X52696Y-49235D01*
X52696Y-49519D01*
X52303Y-49518D01*
X52303Y-47305D01*
X52303Y-47230D01*
X52274Y-47160D01*
X52221Y-47107D01*
X52152Y-47078D01*
X52077Y-47078D01*
X52007Y-47107D01*
X51954Y-47160D01*
X51925Y-47229D01*
X51925Y-47304D01*
X51954Y-47374D01*
X52007Y-47427D01*
X52076Y-47456D01*
X52151Y-47456D01*
X52221Y-47427D01*
X52274Y-47374D01*
X52303Y-47305D01*
X52303Y-49518D01*
X52301Y-49518D01*
X52301Y-49233D01*
X52301Y-49158D01*
X52272Y-49088D01*
X52219Y-49035D01*
X52150Y-49006D01*
X52075Y-49006D01*
X52005Y-49035D01*
X51952Y-49088D01*
X51923Y-49157D01*
X51923Y-49232D01*
X51952Y-49302D01*
X52005Y-49355D01*
X52074Y-49384D01*
X52149Y-49384D01*
X52219Y-49355D01*
X52272Y-49302D01*
X52301Y-49233D01*
X52301Y-49518D01*
X51909Y-49517D01*
X51909Y-49235D01*
X51909Y-49160D01*
X51909Y-47305D01*
X51909Y-47230D01*
X51880Y-47160D01*
X51827Y-47107D01*
X51758Y-47078D01*
X51683Y-47078D01*
X51613Y-47107D01*
X51560Y-47160D01*
X51531Y-47229D01*
X51531Y-47304D01*
X51560Y-47374D01*
X51613Y-47427D01*
X51682Y-47456D01*
X51757Y-47456D01*
X51827Y-47427D01*
X51880Y-47374D01*
X51909Y-47305D01*
X51909Y-49160D01*
X51880Y-49090D01*
X51827Y-49037D01*
X51758Y-49008D01*
X51683Y-49008D01*
X51613Y-49037D01*
X51560Y-49090D01*
X51531Y-49159D01*
X51531Y-49234D01*
X51560Y-49304D01*
X51613Y-49357D01*
X51682Y-49386D01*
X51757Y-49386D01*
X51827Y-49357D01*
X51880Y-49304D01*
X51909Y-49235D01*
X51909Y-49517D01*
X51514Y-49516D01*
X51514Y-49235D01*
X51514Y-49160D01*
X51514Y-48840D01*
X51514Y-48765D01*
X51514Y-48448D01*
X51514Y-48373D01*
X51514Y-48053D01*
X51514Y-47978D01*
X51514Y-47660D01*
X51514Y-47585D01*
X51485Y-47515D01*
X51432Y-47462D01*
X51390Y-47444D01*
X51432Y-47427D01*
X51485Y-47374D01*
X51514Y-47305D01*
X51514Y-47230D01*
X51485Y-47160D01*
X51432Y-47107D01*
X51363Y-47078D01*
X51358Y-47078D01*
X51358Y-45101D01*
X51358Y-45026D01*
X51329Y-44956D01*
X51318Y-44945D01*
X51329Y-44934D01*
X51358Y-44865D01*
X51358Y-44790D01*
X51329Y-44720D01*
X51276Y-44667D01*
X51207Y-44638D01*
X51132Y-44638D01*
X51062Y-44667D01*
X51009Y-44720D01*
X50980Y-44789D01*
X50980Y-44864D01*
X51009Y-44934D01*
X51020Y-44945D01*
X51009Y-44956D01*
X50980Y-45025D01*
X50980Y-45100D01*
X51009Y-45170D01*
X51062Y-45223D01*
X51131Y-45252D01*
X51206Y-45252D01*
X51276Y-45223D01*
X51329Y-45170D01*
X51358Y-45101D01*
X51358Y-47078D01*
X51288Y-47078D01*
X51218Y-47107D01*
X51165Y-47160D01*
X51136Y-47229D01*
X51136Y-47304D01*
X51165Y-47374D01*
X51218Y-47427D01*
X51259Y-47444D01*
X51218Y-47462D01*
X51165Y-47515D01*
X51136Y-47584D01*
X51136Y-47659D01*
X51165Y-47729D01*
X51218Y-47782D01*
X51287Y-47811D01*
X51362Y-47811D01*
X51432Y-47782D01*
X51485Y-47729D01*
X51514Y-47660D01*
X51514Y-47978D01*
X51485Y-47908D01*
X51432Y-47855D01*
X51363Y-47826D01*
X51288Y-47826D01*
X51218Y-47855D01*
X51165Y-47908D01*
X51136Y-47977D01*
X51136Y-48052D01*
X51165Y-48122D01*
X51218Y-48175D01*
X51287Y-48204D01*
X51362Y-48204D01*
X51432Y-48175D01*
X51485Y-48122D01*
X51514Y-48053D01*
X51514Y-48373D01*
X51485Y-48303D01*
X51432Y-48250D01*
X51363Y-48221D01*
X51288Y-48221D01*
X51218Y-48250D01*
X51165Y-48303D01*
X51136Y-48372D01*
X51136Y-48447D01*
X51165Y-48517D01*
X51218Y-48570D01*
X51287Y-48599D01*
X51362Y-48599D01*
X51432Y-48570D01*
X51485Y-48517D01*
X51514Y-48448D01*
X51514Y-48765D01*
X51485Y-48695D01*
X51432Y-48642D01*
X51363Y-48613D01*
X51288Y-48613D01*
X51218Y-48642D01*
X51165Y-48695D01*
X51136Y-48764D01*
X51136Y-48839D01*
X51165Y-48909D01*
X51218Y-48962D01*
X51287Y-48991D01*
X51362Y-48991D01*
X51432Y-48962D01*
X51485Y-48909D01*
X51514Y-48840D01*
X51514Y-49160D01*
X51485Y-49090D01*
X51432Y-49037D01*
X51363Y-49008D01*
X51288Y-49008D01*
X51218Y-49037D01*
X51165Y-49090D01*
X51136Y-49159D01*
X51136Y-49234D01*
X51165Y-49304D01*
X51218Y-49357D01*
X51287Y-49386D01*
X51362Y-49386D01*
X51432Y-49357D01*
X51485Y-49304D01*
X51514Y-49235D01*
X51514Y-49516D01*
X49050Y-49511D01*
X49050Y-45125D01*
X49050Y-45050D01*
X49021Y-44980D01*
X48968Y-44927D01*
X48899Y-44898D01*
X48824Y-44898D01*
X48754Y-44927D01*
X48703Y-44977D01*
X48653Y-44927D01*
X48584Y-44898D01*
X48509Y-44898D01*
X48439Y-44927D01*
X48388Y-44977D01*
X48338Y-44927D01*
X48269Y-44898D01*
X48194Y-44898D01*
X48124Y-44927D01*
X48071Y-44980D01*
X48042Y-45049D01*
X48042Y-45124D01*
X48071Y-45194D01*
X48124Y-45247D01*
X48193Y-45276D01*
X48268Y-45276D01*
X48338Y-45247D01*
X48388Y-45196D01*
X48439Y-45247D01*
X48508Y-45276D01*
X48583Y-45276D01*
X48653Y-45247D01*
X48703Y-45196D01*
X48754Y-45247D01*
X48823Y-45276D01*
X48898Y-45276D01*
X48968Y-45247D01*
X49021Y-45194D01*
X49050Y-45125D01*
X49050Y-49511D01*
X47972Y-49509D01*
X47972Y-44443D01*
X47995Y-44389D01*
X47995Y-44282D01*
X47972Y-44226D01*
X47972Y-44010D01*
X47995Y-43956D01*
X47995Y-43849D01*
X47972Y-43793D01*
X47972Y-43577D01*
X47995Y-43523D01*
X47995Y-43416D01*
X47972Y-43360D01*
X47972Y-41281D01*
X47978Y-41287D01*
X48041Y-41313D01*
X48109Y-41313D01*
X48172Y-41287D01*
X48205Y-41254D01*
X50626Y-41254D01*
X51526Y-42153D01*
X51526Y-42225D01*
X51518Y-42233D01*
X51510Y-42225D01*
X51510Y-42189D01*
X51501Y-42146D01*
X51477Y-42110D01*
X51020Y-41653D01*
X50984Y-41629D01*
X50941Y-41620D01*
X48327Y-41620D01*
X48294Y-41587D01*
X48231Y-41561D01*
X48163Y-41561D01*
X48100Y-41587D01*
X48052Y-41635D01*
X48026Y-41698D01*
X48026Y-41766D01*
X48052Y-41829D01*
X48100Y-41877D01*
X48163Y-41903D01*
X48231Y-41903D01*
X48294Y-41877D01*
X48327Y-41844D01*
X50895Y-41844D01*
X51281Y-42230D01*
X51253Y-42258D01*
X51227Y-42321D01*
X51227Y-42327D01*
X50950Y-42051D01*
X50914Y-42027D01*
X50871Y-42018D01*
X48311Y-42018D01*
X48278Y-41985D01*
X48215Y-41959D01*
X48147Y-41959D01*
X48084Y-41985D01*
X48036Y-42033D01*
X48010Y-42096D01*
X48010Y-42164D01*
X48035Y-42226D01*
X48028Y-42234D01*
X48002Y-42297D01*
X48002Y-42365D01*
X48028Y-42428D01*
X48076Y-42476D01*
X48139Y-42502D01*
X48207Y-42502D01*
X48270Y-42476D01*
X48303Y-42443D01*
X50839Y-42443D01*
X51117Y-42721D01*
X51118Y-42721D01*
X51154Y-42745D01*
X51196Y-42753D01*
X51197Y-42754D01*
X52004Y-42754D01*
X52046Y-42745D01*
X52047Y-42745D01*
X52083Y-42721D01*
X52197Y-42607D01*
X52221Y-42571D01*
X52230Y-42528D01*
X52230Y-42484D01*
X52238Y-42476D01*
X52238Y-42708D01*
X52247Y-42751D01*
X52271Y-42787D01*
X52290Y-42806D01*
X49695Y-42806D01*
X49662Y-42773D01*
X49633Y-42761D01*
X49680Y-42715D01*
X49706Y-42652D01*
X49706Y-42584D01*
X49680Y-42521D01*
X49632Y-42473D01*
X49569Y-42447D01*
X49501Y-42447D01*
X49438Y-42473D01*
X49390Y-42521D01*
X49364Y-42584D01*
X49364Y-42613D01*
X48284Y-42613D01*
X48251Y-42580D01*
X48188Y-42554D01*
X48120Y-42554D01*
X48057Y-42580D01*
X48009Y-42628D01*
X47983Y-42691D01*
X47983Y-42759D01*
X48009Y-42822D01*
X48057Y-42870D01*
X48120Y-42896D01*
X48188Y-42896D01*
X48251Y-42870D01*
X48284Y-42837D01*
X49413Y-42837D01*
X49394Y-42884D01*
X49394Y-42952D01*
X49420Y-43015D01*
X49468Y-43063D01*
X49531Y-43089D01*
X49599Y-43089D01*
X49662Y-43063D01*
X49695Y-43030D01*
X52595Y-43030D01*
X52813Y-43248D01*
X52782Y-43235D01*
X52707Y-43235D01*
X52637Y-43264D01*
X52584Y-43317D01*
X52566Y-43358D01*
X52549Y-43317D01*
X52496Y-43264D01*
X52427Y-43235D01*
X52352Y-43235D01*
X52282Y-43264D01*
X52229Y-43317D01*
X52200Y-43386D01*
X52200Y-43432D01*
X52195Y-43432D01*
X52125Y-43461D01*
X52072Y-43514D01*
X52043Y-43583D01*
X52043Y-43658D01*
X52072Y-43728D01*
X52125Y-43781D01*
X52194Y-43810D01*
X52269Y-43810D01*
X52339Y-43781D01*
X52392Y-43728D01*
X52409Y-43687D01*
X52426Y-43728D01*
X52479Y-43781D01*
X52548Y-43810D01*
X52623Y-43810D01*
X52693Y-43781D01*
X52746Y-43728D01*
X52763Y-43685D01*
X52781Y-43727D01*
X52834Y-43780D01*
X52903Y-43809D01*
X52978Y-43809D01*
X53048Y-43780D01*
X53089Y-43739D01*
X53089Y-44843D01*
X53098Y-44886D01*
X53122Y-44922D01*
X53820Y-45620D01*
X53856Y-45644D01*
X53899Y-45653D01*
X61481Y-45653D01*
X61454Y-45680D01*
X61425Y-45749D01*
X61425Y-45824D01*
X61454Y-45894D01*
X61507Y-45947D01*
X61576Y-45976D01*
X61651Y-45976D01*
X61721Y-45947D01*
X61774Y-45894D01*
X61803Y-45825D01*
X61803Y-45750D01*
X61774Y-45680D01*
X61747Y-45653D01*
X62262Y-45653D01*
X62295Y-45686D01*
X62358Y-45712D01*
X62426Y-45712D01*
X62489Y-45686D01*
X62537Y-45638D01*
X62563Y-45575D01*
X62563Y-45507D01*
X62537Y-45444D01*
X62489Y-45396D01*
X62426Y-45370D01*
X62358Y-45370D01*
X62295Y-45396D01*
X62262Y-45429D01*
X62228Y-45429D01*
X62228Y-39841D01*
X62228Y-39766D01*
X62199Y-39696D01*
X62153Y-39650D01*
X62196Y-39607D01*
X62225Y-39538D01*
X62225Y-39463D01*
X62196Y-39393D01*
X62143Y-39340D01*
X62074Y-39311D01*
X61999Y-39311D01*
X61929Y-39340D01*
X61876Y-39393D01*
X61847Y-39462D01*
X61847Y-39537D01*
X61876Y-39607D01*
X61922Y-39653D01*
X61879Y-39696D01*
X61850Y-39765D01*
X61850Y-39840D01*
X61879Y-39910D01*
X61932Y-39963D01*
X62001Y-39992D01*
X62076Y-39992D01*
X62146Y-39963D01*
X62199Y-39910D01*
X62228Y-39841D01*
X62228Y-45429D01*
X62010Y-45429D01*
X62010Y-42056D01*
X62010Y-41981D01*
X61981Y-41911D01*
X61928Y-41858D01*
X61917Y-41853D01*
X61917Y-40684D01*
X61917Y-40609D01*
X61888Y-40539D01*
X61835Y-40486D01*
X61783Y-40464D01*
X61783Y-38121D01*
X61783Y-38046D01*
X61754Y-37976D01*
X61701Y-37923D01*
X61697Y-37921D01*
X61697Y-31849D01*
X61673Y-31701D01*
X61662Y-31674D01*
X61619Y-31635D01*
X61513Y-31741D01*
X61513Y-31529D01*
X61474Y-31486D01*
X61329Y-31451D01*
X61181Y-31475D01*
X61154Y-31486D01*
X61115Y-31529D01*
X61314Y-31728D01*
X61513Y-31529D01*
X61513Y-31741D01*
X61420Y-31834D01*
X61619Y-32033D01*
X61662Y-31994D01*
X61697Y-31849D01*
X61697Y-37921D01*
X61632Y-37894D01*
X61557Y-37894D01*
X61513Y-37912D01*
X61513Y-32139D01*
X61314Y-31940D01*
X61208Y-32046D01*
X61208Y-31834D01*
X61009Y-31635D01*
X60966Y-31674D01*
X60931Y-31819D01*
X60955Y-31967D01*
X60966Y-31994D01*
X61009Y-32033D01*
X61208Y-31834D01*
X61208Y-32046D01*
X61115Y-32139D01*
X61154Y-32182D01*
X61299Y-32217D01*
X61447Y-32193D01*
X61474Y-32182D01*
X61513Y-32139D01*
X61513Y-37912D01*
X61487Y-37923D01*
X61434Y-37976D01*
X61405Y-38045D01*
X61405Y-38120D01*
X61434Y-38190D01*
X61487Y-38243D01*
X61556Y-38272D01*
X61631Y-38272D01*
X61701Y-38243D01*
X61754Y-38190D01*
X61783Y-38121D01*
X61783Y-40464D01*
X61766Y-40457D01*
X61691Y-40457D01*
X61621Y-40486D01*
X61568Y-40539D01*
X61539Y-40608D01*
X61539Y-40683D01*
X61568Y-40753D01*
X61621Y-40806D01*
X61690Y-40835D01*
X61765Y-40835D01*
X61835Y-40806D01*
X61888Y-40753D01*
X61917Y-40684D01*
X61917Y-41853D01*
X61859Y-41829D01*
X61784Y-41829D01*
X61714Y-41858D01*
X61661Y-41911D01*
X61632Y-41980D01*
X61632Y-42055D01*
X61661Y-42125D01*
X61714Y-42178D01*
X61783Y-42207D01*
X61858Y-42207D01*
X61928Y-42178D01*
X61981Y-42125D01*
X62010Y-42056D01*
X62010Y-45429D01*
X61587Y-45429D01*
X61587Y-43601D01*
X61587Y-43526D01*
X61558Y-43456D01*
X61505Y-43403D01*
X61436Y-43374D01*
X61361Y-43374D01*
X61291Y-43403D01*
X61238Y-43456D01*
X61209Y-43525D01*
X61209Y-43600D01*
X61238Y-43670D01*
X61291Y-43723D01*
X61360Y-43752D01*
X61435Y-43752D01*
X61505Y-43723D01*
X61558Y-43670D01*
X61587Y-43601D01*
X61587Y-45429D01*
X60704Y-45429D01*
X60704Y-31912D01*
X60704Y-31757D01*
X60645Y-31614D01*
X60535Y-31504D01*
X60392Y-31444D01*
X60237Y-31444D01*
X60094Y-31503D01*
X59984Y-31613D01*
X59924Y-31756D01*
X59924Y-31911D01*
X59983Y-32054D01*
X60093Y-32164D01*
X60236Y-32224D01*
X60391Y-32224D01*
X60534Y-32165D01*
X60644Y-32055D01*
X60704Y-31912D01*
X60704Y-45429D01*
X60644Y-45429D01*
X60644Y-41034D01*
X60644Y-40966D01*
X60618Y-40903D01*
X60570Y-40855D01*
X60507Y-40829D01*
X60439Y-40829D01*
X60376Y-40855D01*
X60328Y-40903D01*
X60302Y-40966D01*
X60302Y-41034D01*
X60328Y-41097D01*
X60376Y-41145D01*
X60439Y-41171D01*
X60507Y-41171D01*
X60570Y-41145D01*
X60618Y-41097D01*
X60644Y-41034D01*
X60644Y-45429D01*
X58911Y-45429D01*
X58911Y-42003D01*
X58911Y-41935D01*
X58885Y-41872D01*
X58837Y-41824D01*
X58774Y-41798D01*
X58706Y-41798D01*
X58643Y-41824D01*
X58636Y-41831D01*
X58633Y-41828D01*
X58597Y-41813D01*
X58597Y-41371D01*
X58597Y-41307D01*
X58572Y-41247D01*
X58527Y-41202D01*
X58467Y-41177D01*
X58403Y-41177D01*
X58343Y-41202D01*
X58336Y-41208D01*
X58330Y-41202D01*
X58270Y-41177D01*
X58206Y-41177D01*
X58146Y-41202D01*
X58101Y-41247D01*
X58076Y-41307D01*
X58076Y-41371D01*
X58101Y-41431D01*
X58146Y-41476D01*
X58206Y-41501D01*
X58270Y-41501D01*
X58330Y-41476D01*
X58336Y-41469D01*
X58343Y-41476D01*
X58403Y-41501D01*
X58467Y-41501D01*
X58527Y-41476D01*
X58572Y-41431D01*
X58597Y-41371D01*
X58597Y-41813D01*
X58570Y-41802D01*
X58502Y-41802D01*
X58439Y-41828D01*
X58391Y-41876D01*
X58365Y-41939D01*
X58365Y-42007D01*
X58391Y-42070D01*
X58439Y-42118D01*
X58502Y-42144D01*
X58570Y-42144D01*
X58633Y-42118D01*
X58640Y-42111D01*
X58643Y-42114D01*
X58706Y-42140D01*
X58774Y-42140D01*
X58837Y-42114D01*
X58885Y-42066D01*
X58911Y-42003D01*
X58911Y-45429D01*
X58453Y-45429D01*
X58453Y-43184D01*
X58453Y-43109D01*
X58424Y-43039D01*
X58371Y-42986D01*
X58302Y-42957D01*
X58227Y-42957D01*
X58157Y-42986D01*
X58104Y-43039D01*
X58075Y-43108D01*
X58075Y-43183D01*
X58104Y-43253D01*
X58157Y-43306D01*
X58226Y-43335D01*
X58301Y-43335D01*
X58371Y-43306D01*
X58424Y-43253D01*
X58453Y-43184D01*
X58453Y-45429D01*
X57945Y-45429D01*
X57945Y-43487D01*
X57945Y-43412D01*
X57916Y-43342D01*
X57863Y-43289D01*
X57794Y-43260D01*
X57719Y-43260D01*
X57649Y-43289D01*
X57596Y-43342D01*
X57567Y-43411D01*
X57567Y-43486D01*
X57596Y-43556D01*
X57649Y-43609D01*
X57718Y-43638D01*
X57793Y-43638D01*
X57863Y-43609D01*
X57916Y-43556D01*
X57945Y-43487D01*
X57945Y-45429D01*
X57120Y-45429D01*
X57120Y-42652D01*
X57120Y-42584D01*
X57094Y-42521D01*
X57046Y-42473D01*
X56983Y-42447D01*
X56915Y-42447D01*
X56852Y-42473D01*
X56804Y-42521D01*
X56778Y-42584D01*
X56778Y-42652D01*
X56804Y-42715D01*
X56852Y-42763D01*
X56915Y-42789D01*
X56983Y-42789D01*
X57046Y-42763D01*
X57094Y-42715D01*
X57120Y-42652D01*
X57120Y-45429D01*
X56972Y-45429D01*
X56972Y-43211D01*
X56972Y-43136D01*
X56943Y-43066D01*
X56890Y-43013D01*
X56821Y-42984D01*
X56746Y-42984D01*
X56676Y-43013D01*
X56623Y-43066D01*
X56594Y-43135D01*
X56594Y-43210D01*
X56623Y-43280D01*
X56676Y-43333D01*
X56745Y-43362D01*
X56820Y-43362D01*
X56890Y-43333D01*
X56943Y-43280D01*
X56972Y-43211D01*
X56972Y-45429D01*
X55146Y-45429D01*
X55162Y-45412D01*
X55166Y-45410D01*
X55168Y-45406D01*
X55192Y-45383D01*
X55203Y-45355D01*
X55208Y-45349D01*
X55209Y-45341D01*
X55221Y-45314D01*
X55221Y-45281D01*
X55222Y-45276D01*
X55222Y-45197D01*
X55221Y-45196D01*
X55218Y-45177D01*
X55254Y-45177D01*
X55324Y-45148D01*
X55377Y-45095D01*
X55406Y-45026D01*
X55406Y-44951D01*
X55377Y-44881D01*
X55324Y-44828D01*
X55284Y-44811D01*
X55882Y-44214D01*
X55882Y-44213D01*
X55924Y-44152D01*
X55937Y-44079D01*
X55938Y-44079D01*
X55938Y-44072D01*
X55942Y-44082D01*
X55995Y-44135D01*
X56064Y-44164D01*
X56139Y-44164D01*
X56209Y-44135D01*
X56240Y-44104D01*
X56271Y-44135D01*
X56340Y-44164D01*
X56415Y-44164D01*
X56485Y-44135D01*
X56538Y-44082D01*
X56567Y-44013D01*
X56567Y-43938D01*
X56538Y-43868D01*
X56485Y-43815D01*
X56431Y-43792D01*
X56431Y-42987D01*
X56431Y-42919D01*
X56405Y-42856D01*
X56357Y-42808D01*
X56294Y-42782D01*
X56226Y-42782D01*
X56163Y-42808D01*
X56115Y-42856D01*
X56089Y-42919D01*
X56089Y-42987D01*
X56115Y-43050D01*
X56163Y-43098D01*
X56226Y-43124D01*
X56294Y-43124D01*
X56357Y-43098D01*
X56405Y-43050D01*
X56431Y-42987D01*
X56431Y-43792D01*
X56416Y-43786D01*
X56341Y-43786D01*
X56271Y-43815D01*
X56240Y-43846D01*
X56209Y-43815D01*
X56140Y-43786D01*
X56065Y-43786D01*
X55995Y-43815D01*
X55942Y-43868D01*
X55938Y-43877D01*
X55938Y-43512D01*
X55937Y-43506D01*
X55937Y-43475D01*
X55925Y-43447D01*
X55924Y-43439D01*
X55919Y-43432D01*
X55908Y-43405D01*
X55884Y-43381D01*
X55882Y-43378D01*
X55878Y-43375D01*
X55855Y-43352D01*
X55827Y-43340D01*
X55821Y-43336D01*
X55813Y-43334D01*
X55786Y-43323D01*
X55753Y-43323D01*
X55748Y-43322D01*
X55742Y-43323D01*
X55711Y-43323D01*
X55683Y-43334D01*
X55675Y-43336D01*
X55668Y-43340D01*
X55641Y-43352D01*
X55617Y-43375D01*
X55614Y-43378D01*
X55611Y-43381D01*
X55588Y-43405D01*
X55576Y-43432D01*
X55572Y-43439D01*
X55570Y-43446D01*
X55559Y-43474D01*
X55559Y-43506D01*
X55558Y-43512D01*
X55558Y-44000D01*
X54831Y-44728D01*
X54789Y-44789D01*
X54775Y-44862D01*
X54775Y-45130D01*
X54789Y-45203D01*
X54831Y-45264D01*
X54842Y-45275D01*
X54842Y-45276D01*
X54843Y-45281D01*
X54843Y-45313D01*
X54854Y-45340D01*
X54856Y-45349D01*
X54860Y-45355D01*
X54872Y-45383D01*
X54895Y-45406D01*
X54898Y-45410D01*
X54901Y-45412D01*
X54918Y-45429D01*
X53945Y-45429D01*
X53728Y-45212D01*
X53728Y-44235D01*
X53728Y-44160D01*
X53699Y-44090D01*
X53646Y-44037D01*
X53628Y-44029D01*
X53646Y-44022D01*
X53699Y-43969D01*
X53728Y-43900D01*
X53728Y-43825D01*
X53699Y-43755D01*
X53646Y-43702D01*
X53577Y-43673D01*
X53502Y-43673D01*
X53432Y-43702D01*
X53379Y-43755D01*
X53350Y-43824D01*
X53350Y-43899D01*
X53379Y-43969D01*
X53432Y-44022D01*
X53449Y-44029D01*
X53432Y-44037D01*
X53379Y-44090D01*
X53350Y-44159D01*
X53350Y-44234D01*
X53379Y-44304D01*
X53432Y-44357D01*
X53501Y-44386D01*
X53576Y-44386D01*
X53646Y-44357D01*
X53699Y-44304D01*
X53728Y-44235D01*
X53728Y-45212D01*
X53313Y-44797D01*
X53313Y-43477D01*
X53304Y-43435D01*
X54969Y-43435D01*
X55011Y-43426D01*
X55012Y-43426D01*
X55048Y-43402D01*
X55212Y-43238D01*
X55259Y-43238D01*
X55322Y-43212D01*
X55339Y-43195D01*
X55356Y-43212D01*
X55419Y-43238D01*
X55487Y-43238D01*
X55550Y-43212D01*
X55598Y-43164D01*
X55624Y-43101D01*
X55624Y-43033D01*
X55598Y-42970D01*
X55550Y-42922D01*
X55487Y-42896D01*
X55440Y-42896D01*
X55376Y-42832D01*
X55530Y-42832D01*
X55535Y-42833D01*
X55535Y-42832D01*
X55577Y-42824D01*
X55578Y-42823D01*
X55614Y-42800D01*
X55614Y-42799D01*
X55768Y-42647D01*
X55768Y-42646D01*
X55792Y-42610D01*
X55800Y-42568D01*
X55801Y-42567D01*
X55801Y-42255D01*
X56132Y-41924D01*
X56132Y-41971D01*
X56158Y-42034D01*
X56206Y-42082D01*
X56269Y-42108D01*
X56337Y-42108D01*
X56400Y-42082D01*
X56448Y-42034D01*
X56474Y-41971D01*
X56474Y-41903D01*
X56448Y-41840D01*
X56400Y-41792D01*
X56337Y-41766D01*
X56290Y-41766D01*
X56350Y-41705D01*
X56359Y-41698D01*
X56368Y-41683D01*
X56379Y-41671D01*
X56383Y-41661D01*
X56489Y-41466D01*
X56512Y-41456D01*
X56514Y-41655D01*
X56515Y-41662D01*
X56515Y-41675D01*
X56523Y-41698D01*
X56526Y-41713D01*
X56529Y-41718D01*
X56534Y-41731D01*
X56548Y-41747D01*
X56559Y-41762D01*
X56568Y-41768D01*
X56574Y-41774D01*
X56808Y-41951D01*
X56807Y-41972D01*
X56786Y-42025D01*
X56786Y-42093D01*
X56812Y-42156D01*
X56860Y-42204D01*
X56923Y-42230D01*
X56991Y-42230D01*
X57054Y-42204D01*
X57075Y-42183D01*
X57108Y-42216D01*
X57171Y-42242D01*
X57239Y-42242D01*
X57302Y-42216D01*
X57350Y-42168D01*
X57376Y-42105D01*
X57376Y-42085D01*
X57431Y-42108D01*
X57499Y-42108D01*
X57562Y-42082D01*
X57610Y-42034D01*
X57636Y-41971D01*
X57636Y-41903D01*
X57610Y-41840D01*
X57607Y-41837D01*
X57605Y-41824D01*
X57572Y-41775D01*
X57403Y-41606D01*
X57404Y-41398D01*
X57416Y-41371D01*
X57416Y-41307D01*
X57391Y-41247D01*
X57346Y-41202D01*
X57286Y-41177D01*
X57222Y-41177D01*
X57162Y-41202D01*
X57155Y-41208D01*
X57149Y-41202D01*
X57089Y-41177D01*
X57025Y-41177D01*
X56965Y-41202D01*
X56958Y-41208D01*
X56952Y-41202D01*
X56892Y-41177D01*
X56828Y-41177D01*
X56768Y-41202D01*
X56761Y-41208D01*
X56755Y-41202D01*
X56695Y-41177D01*
X56631Y-41177D01*
X56575Y-41200D01*
X56599Y-41144D01*
X56599Y-41080D01*
X56574Y-41020D01*
X56567Y-41013D01*
X56574Y-41007D01*
X56599Y-40947D01*
X56599Y-40883D01*
X56574Y-40823D01*
X56568Y-40817D01*
X56574Y-40811D01*
X56599Y-40751D01*
X56599Y-40687D01*
X56574Y-40627D01*
X56567Y-40620D01*
X56574Y-40614D01*
X56599Y-40554D01*
X56599Y-40490D01*
X56574Y-40430D01*
X56567Y-40423D01*
X56574Y-40417D01*
X56599Y-40357D01*
X56599Y-40293D01*
X56574Y-40233D01*
X56567Y-40226D01*
X56574Y-40220D01*
X56599Y-40160D01*
X56599Y-40096D01*
X56574Y-40036D01*
X56567Y-40029D01*
X56574Y-40023D01*
X56599Y-39963D01*
X56599Y-39899D01*
X56574Y-39839D01*
X56567Y-39832D01*
X56574Y-39826D01*
X56599Y-39766D01*
X56599Y-39702D01*
X56574Y-39642D01*
X56567Y-39635D01*
X56574Y-39629D01*
X56599Y-39569D01*
X56599Y-39505D01*
X56574Y-39445D01*
X56568Y-39439D01*
X56574Y-39433D01*
X56599Y-39373D01*
X56599Y-39309D01*
X56574Y-39249D01*
X56567Y-39242D01*
X56574Y-39236D01*
X56599Y-39176D01*
X56599Y-39112D01*
X56574Y-39052D01*
X56567Y-39045D01*
X56574Y-39039D01*
X56599Y-38979D01*
X56599Y-38915D01*
X56574Y-38855D01*
X56567Y-38848D01*
X56574Y-38842D01*
X56574Y-38841D01*
X56581Y-38848D01*
X56641Y-38873D01*
X56705Y-38873D01*
X56765Y-38848D01*
X56767Y-38846D01*
X56778Y-38857D01*
X56838Y-38882D01*
X56902Y-38882D01*
X56962Y-38857D01*
X56968Y-38850D01*
X56975Y-38857D01*
X57035Y-38882D01*
X57099Y-38882D01*
X57159Y-38857D01*
X57204Y-38812D01*
X57225Y-38761D01*
X57406Y-38963D01*
X57410Y-38966D01*
X57411Y-38967D01*
X57418Y-38971D01*
X57442Y-38989D01*
X57445Y-38989D01*
X57447Y-38991D01*
X57475Y-38996D01*
X57484Y-38999D01*
X57484Y-38998D01*
X57490Y-39000D01*
X58766Y-39000D01*
X58766Y-40167D01*
X58767Y-40174D01*
X58767Y-40182D01*
X58772Y-40198D01*
X58775Y-40210D01*
X58778Y-40214D01*
X58781Y-40223D01*
X58792Y-40235D01*
X58799Y-40246D01*
X58804Y-40249D01*
X58810Y-40256D01*
X58903Y-40327D01*
X58903Y-40357D01*
X58928Y-40417D01*
X58934Y-40423D01*
X58928Y-40430D01*
X58903Y-40490D01*
X58903Y-40554D01*
X58928Y-40614D01*
X58934Y-40620D01*
X58928Y-40627D01*
X58903Y-40687D01*
X58903Y-40751D01*
X58928Y-40811D01*
X58934Y-40817D01*
X58928Y-40823D01*
X58903Y-40883D01*
X58903Y-40947D01*
X58928Y-41007D01*
X58939Y-41018D01*
X58938Y-41020D01*
X58913Y-41080D01*
X58913Y-41144D01*
X58938Y-41204D01*
X58939Y-41205D01*
X58928Y-41217D01*
X58903Y-41277D01*
X58903Y-41341D01*
X58928Y-41401D01*
X58973Y-41446D01*
X59028Y-41469D01*
X59259Y-41636D01*
X59238Y-41636D01*
X59175Y-41662D01*
X59127Y-41710D01*
X59101Y-41773D01*
X59101Y-41841D01*
X59127Y-41904D01*
X59164Y-41941D01*
X59136Y-41970D01*
X59110Y-42033D01*
X59110Y-42101D01*
X59136Y-42164D01*
X59184Y-42212D01*
X59247Y-42238D01*
X59315Y-42238D01*
X59378Y-42212D01*
X59426Y-42164D01*
X59452Y-42101D01*
X59452Y-42033D01*
X59426Y-41970D01*
X59388Y-41932D01*
X59417Y-41904D01*
X59443Y-41841D01*
X59443Y-41773D01*
X59440Y-41767D01*
X59655Y-41923D01*
X59967Y-42594D01*
X59965Y-42600D01*
X59965Y-42675D01*
X59994Y-42745D01*
X60022Y-42773D01*
X59982Y-42814D01*
X59953Y-42883D01*
X59953Y-42958D01*
X59982Y-43028D01*
X60035Y-43081D01*
X60104Y-43110D01*
X60179Y-43110D01*
X60249Y-43081D01*
X60302Y-43028D01*
X60331Y-42959D01*
X60331Y-42884D01*
X60302Y-42814D01*
X60273Y-42785D01*
X60314Y-42745D01*
X60343Y-42676D01*
X60343Y-42601D01*
X60314Y-42531D01*
X60261Y-42478D01*
X60242Y-42470D01*
X59913Y-41759D01*
X59905Y-41748D01*
X59904Y-41744D01*
X59897Y-41736D01*
X59879Y-41711D01*
X59866Y-41703D01*
X59864Y-41701D01*
X59204Y-41223D01*
X59202Y-41217D01*
X59200Y-41215D01*
X59212Y-41204D01*
X59237Y-41144D01*
X59237Y-41080D01*
X59212Y-41020D01*
X59200Y-41008D01*
X59202Y-41007D01*
X59227Y-40947D01*
X59227Y-40883D01*
X59205Y-40830D01*
X59301Y-40830D01*
X59303Y-40830D01*
X59319Y-40826D01*
X59344Y-40822D01*
X59345Y-40821D01*
X59346Y-40821D01*
X59351Y-40817D01*
X59381Y-40799D01*
X59382Y-40797D01*
X59441Y-40740D01*
X59441Y-40738D01*
X59443Y-40738D01*
X59457Y-40716D01*
X59466Y-40704D01*
X59466Y-40703D01*
X59467Y-40702D01*
X59475Y-40662D01*
X59476Y-40659D01*
X59475Y-40509D01*
X59490Y-40518D01*
X59502Y-40527D01*
X59504Y-40528D01*
X59536Y-40534D01*
X59572Y-40570D01*
X59630Y-40594D01*
X59628Y-40607D01*
X59628Y-40609D01*
X59628Y-40610D01*
X59595Y-40643D01*
X59569Y-40706D01*
X59569Y-40774D01*
X59595Y-40837D01*
X59643Y-40885D01*
X59706Y-40911D01*
X59774Y-40911D01*
X59780Y-40908D01*
X59780Y-40910D01*
X59806Y-40973D01*
X59854Y-41021D01*
X59917Y-41047D01*
X59979Y-41047D01*
X59933Y-41066D01*
X59885Y-41114D01*
X59859Y-41177D01*
X59859Y-41245D01*
X59885Y-41308D01*
X59905Y-41328D01*
X59894Y-41340D01*
X59868Y-41403D01*
X59868Y-41471D01*
X59894Y-41534D01*
X59942Y-41582D01*
X60005Y-41608D01*
X60073Y-41608D01*
X60136Y-41582D01*
X60184Y-41534D01*
X60210Y-41471D01*
X60210Y-41403D01*
X60184Y-41340D01*
X60163Y-41319D01*
X60175Y-41308D01*
X60201Y-41245D01*
X60201Y-41177D01*
X60175Y-41114D01*
X60127Y-41066D01*
X60064Y-41040D01*
X60001Y-41040D01*
X60048Y-41021D01*
X60096Y-40973D01*
X60122Y-40910D01*
X60122Y-40863D01*
X60590Y-40394D01*
X60591Y-40394D01*
X60614Y-40358D01*
X60615Y-40358D01*
X60623Y-40315D01*
X60620Y-38756D01*
X60611Y-38713D01*
X60587Y-38677D01*
X59914Y-38004D01*
X59947Y-38004D01*
X60017Y-37975D01*
X60070Y-37922D01*
X60099Y-37853D01*
X60099Y-37778D01*
X60070Y-37708D01*
X60017Y-37655D01*
X59948Y-37626D01*
X59873Y-37626D01*
X59803Y-37655D01*
X59750Y-37708D01*
X59721Y-37777D01*
X59721Y-37811D01*
X59355Y-37445D01*
X59319Y-37421D01*
X59276Y-37412D01*
X58330Y-37412D01*
X56664Y-35746D01*
X57944Y-35746D01*
X57966Y-35750D01*
X58008Y-35741D01*
X58045Y-35717D01*
X58282Y-35474D01*
X60095Y-35476D01*
X60095Y-35516D01*
X60121Y-35579D01*
X60132Y-35590D01*
X60101Y-35622D01*
X60075Y-35685D01*
X60075Y-35753D01*
X60101Y-35816D01*
X60149Y-35864D01*
X60212Y-35890D01*
X60280Y-35890D01*
X60343Y-35864D01*
X60376Y-35831D01*
X60413Y-35831D01*
X60413Y-35830D01*
X60415Y-35831D01*
X60429Y-35827D01*
X60456Y-35822D01*
X60457Y-35821D01*
X60475Y-35809D01*
X60492Y-35798D01*
X60494Y-35797D01*
X60666Y-35618D01*
X60667Y-35617D01*
X60679Y-35598D01*
X60690Y-35582D01*
X60690Y-35581D01*
X60691Y-35580D01*
X60693Y-35567D01*
X60699Y-35539D01*
X60699Y-35430D01*
X60690Y-35387D01*
X60666Y-35351D01*
X60666Y-35350D01*
X60508Y-35193D01*
X60471Y-35169D01*
X60429Y-35160D01*
X60419Y-35162D01*
X60348Y-35162D01*
X60348Y-35096D01*
X60322Y-35033D01*
X60274Y-34985D01*
X60211Y-34959D01*
X60143Y-34959D01*
X60080Y-34985D01*
X60032Y-35033D01*
X60006Y-35096D01*
X60006Y-35162D01*
X59704Y-35162D01*
X59704Y-32131D01*
X59704Y-32094D01*
X59704Y-31498D01*
X59690Y-31464D01*
X59664Y-31438D01*
X59631Y-31424D01*
X59594Y-31424D01*
X58998Y-31424D01*
X58964Y-31438D01*
X58938Y-31464D01*
X58924Y-31497D01*
X58924Y-31534D01*
X58924Y-32130D01*
X58938Y-32164D01*
X58964Y-32190D01*
X58997Y-32204D01*
X59034Y-32204D01*
X59630Y-32204D01*
X59664Y-32190D01*
X59690Y-32164D01*
X59704Y-32131D01*
X59704Y-35162D01*
X58135Y-35162D01*
X58134Y-35162D01*
X58123Y-35164D01*
X58093Y-35170D01*
X58091Y-35170D01*
X58091Y-35171D01*
X58074Y-35182D01*
X58056Y-35194D01*
X57807Y-35435D01*
X54410Y-35435D01*
X54410Y-34479D01*
X54410Y-34404D01*
X54381Y-34334D01*
X54328Y-34281D01*
X54259Y-34252D01*
X54184Y-34252D01*
X54114Y-34281D01*
X54061Y-34334D01*
X54032Y-34403D01*
X54032Y-34478D01*
X54061Y-34548D01*
X54114Y-34601D01*
X54183Y-34630D01*
X54258Y-34630D01*
X54328Y-34601D01*
X54381Y-34548D01*
X54410Y-34479D01*
X54410Y-35435D01*
X54077Y-35435D01*
X54077Y-34877D01*
X54077Y-34809D01*
X54051Y-34746D01*
X54003Y-34698D01*
X53940Y-34672D01*
X53872Y-34672D01*
X53809Y-34698D01*
X53761Y-34746D01*
X53735Y-34809D01*
X53735Y-34877D01*
X53761Y-34940D01*
X53809Y-34988D01*
X53872Y-35014D01*
X53940Y-35014D01*
X54003Y-34988D01*
X54051Y-34940D01*
X54077Y-34877D01*
X54077Y-35435D01*
X53242Y-35435D01*
X53242Y-34896D01*
X53242Y-34828D01*
X53216Y-34765D01*
X53168Y-34717D01*
X53105Y-34691D01*
X53037Y-34691D01*
X52974Y-34717D01*
X52926Y-34765D01*
X52900Y-34828D01*
X52900Y-34896D01*
X52911Y-34924D01*
X52872Y-34924D01*
X52809Y-34950D01*
X52761Y-34998D01*
X52735Y-35061D01*
X52735Y-35129D01*
X52761Y-35192D01*
X52809Y-35240D01*
X52872Y-35266D01*
X52940Y-35266D01*
X53003Y-35240D01*
X53051Y-35192D01*
X53077Y-35129D01*
X53077Y-35061D01*
X53065Y-35033D01*
X53105Y-35033D01*
X53168Y-35007D01*
X53216Y-34959D01*
X53242Y-34896D01*
X53242Y-35435D01*
X52727Y-35435D01*
X52162Y-34870D01*
X52126Y-34846D01*
X52083Y-34837D01*
X51340Y-34837D01*
X51404Y-34772D01*
X52283Y-34768D01*
X52284Y-34768D01*
X52325Y-34759D01*
X52327Y-34759D01*
X52362Y-34735D01*
X54239Y-32858D01*
X57028Y-32858D01*
X57041Y-32855D01*
X57053Y-32855D01*
X57062Y-32850D01*
X57071Y-32849D01*
X57080Y-32842D01*
X57093Y-32837D01*
X58065Y-32143D01*
X58086Y-32164D01*
X58229Y-32224D01*
X58384Y-32224D01*
X58527Y-32165D01*
X58637Y-32055D01*
X58697Y-31912D01*
X58697Y-31757D01*
X58638Y-31614D01*
X58528Y-31504D01*
X58385Y-31444D01*
X58230Y-31444D01*
X58087Y-31503D01*
X57977Y-31613D01*
X57917Y-31756D01*
X57917Y-31911D01*
X57937Y-31959D01*
X56992Y-32634D01*
X56648Y-32634D01*
X57116Y-32176D01*
X57229Y-32224D01*
X57384Y-32224D01*
X57527Y-32165D01*
X57637Y-32055D01*
X57697Y-31912D01*
X57697Y-31757D01*
X57638Y-31614D01*
X57528Y-31504D01*
X57385Y-31444D01*
X57230Y-31444D01*
X57087Y-31503D01*
X56977Y-31613D01*
X56917Y-31756D01*
X56917Y-31911D01*
X56960Y-32016D01*
X56509Y-32457D01*
X55878Y-32457D01*
X56133Y-32183D01*
X56229Y-32224D01*
X56384Y-32224D01*
X56527Y-32165D01*
X56637Y-32055D01*
X56697Y-31912D01*
X56697Y-31757D01*
X56638Y-31614D01*
X56528Y-31504D01*
X56385Y-31444D01*
X56230Y-31444D01*
X56087Y-31503D01*
X55977Y-31613D01*
X55917Y-31756D01*
X55917Y-31911D01*
X55967Y-32033D01*
X55708Y-32309D01*
X54990Y-32309D01*
X55120Y-32178D01*
X55229Y-32224D01*
X55384Y-32224D01*
X55527Y-32165D01*
X55637Y-32055D01*
X55697Y-31912D01*
X55697Y-31757D01*
X55638Y-31614D01*
X55528Y-31504D01*
X55385Y-31444D01*
X55230Y-31444D01*
X55087Y-31503D01*
X54977Y-31613D01*
X54917Y-31756D01*
X54917Y-31911D01*
X54962Y-32020D01*
X54819Y-32164D01*
X54528Y-32164D01*
X54637Y-32055D01*
X54697Y-31912D01*
X54697Y-31757D01*
X54638Y-31614D01*
X54528Y-31504D01*
X54385Y-31444D01*
X54230Y-31444D01*
X54087Y-31503D01*
X53977Y-31613D01*
X53917Y-31756D01*
X53917Y-31911D01*
X53962Y-32020D01*
X52245Y-33738D01*
X52170Y-33738D01*
X52170Y-31792D01*
X52170Y-31644D01*
X52114Y-31508D01*
X52010Y-31403D01*
X51874Y-31346D01*
X51726Y-31346D01*
X51590Y-31402D01*
X51485Y-31506D01*
X51428Y-31642D01*
X51428Y-31790D01*
X51484Y-31926D01*
X51588Y-32031D01*
X51724Y-32088D01*
X51872Y-32088D01*
X52008Y-32032D01*
X52113Y-31928D01*
X52170Y-31792D01*
X52170Y-33738D01*
X51130Y-33738D01*
X51087Y-33747D01*
X51050Y-33771D01*
X50185Y-34637D01*
X50161Y-34673D01*
X50152Y-34716D01*
X50152Y-35686D01*
X49981Y-35857D01*
X49709Y-35857D01*
X49666Y-35866D01*
X49630Y-35890D01*
X49405Y-36114D01*
X49427Y-36062D01*
X49427Y-35994D01*
X49401Y-35931D01*
X49353Y-35883D01*
X49290Y-35857D01*
X49222Y-35857D01*
X49159Y-35883D01*
X49111Y-35931D01*
X49085Y-35994D01*
X49085Y-36062D01*
X49111Y-36125D01*
X49159Y-36173D01*
X49222Y-36199D01*
X49290Y-36199D01*
X49342Y-36177D01*
X49275Y-36245D01*
X49251Y-36281D01*
X49242Y-36324D01*
X49242Y-36880D01*
X49229Y-36867D01*
X49166Y-36841D01*
X49098Y-36841D01*
X49035Y-36867D01*
X48987Y-36915D01*
X48961Y-36978D01*
X48961Y-37046D01*
X48987Y-37109D01*
X49035Y-37157D01*
X49098Y-37183D01*
X49166Y-37183D01*
X49229Y-37157D01*
X49242Y-37144D01*
X49242Y-37272D01*
X49209Y-37305D01*
X49192Y-37345D01*
X48973Y-37126D01*
X48937Y-37102D01*
X48894Y-37093D01*
X48323Y-37093D01*
X48290Y-37060D01*
X48227Y-37034D01*
X48159Y-37034D01*
X48096Y-37060D01*
X48048Y-37108D01*
X48022Y-37171D01*
X48022Y-37239D01*
X48040Y-37284D01*
X48020Y-37305D01*
X47994Y-37368D01*
X47994Y-37436D01*
X48020Y-37499D01*
X48068Y-37547D01*
X48131Y-37573D01*
X48199Y-37573D01*
X48262Y-37547D01*
X48295Y-37514D01*
X48840Y-37514D01*
X49200Y-37874D01*
X49201Y-37874D01*
X49237Y-37898D01*
X49279Y-37906D01*
X49280Y-37907D01*
X51098Y-37907D01*
X51140Y-37898D01*
X51141Y-37898D01*
X51177Y-37874D01*
X51264Y-37787D01*
X51288Y-37751D01*
X51288Y-37750D01*
X51297Y-37708D01*
X51297Y-36861D01*
X51476Y-37040D01*
X51477Y-37040D01*
X51478Y-37042D01*
X51513Y-37064D01*
X51514Y-37065D01*
X51538Y-37069D01*
X51555Y-37073D01*
X51556Y-37072D01*
X51558Y-37073D01*
X51601Y-37072D01*
X51627Y-37098D01*
X51583Y-37143D01*
X51557Y-37206D01*
X51557Y-37274D01*
X51583Y-37337D01*
X51616Y-37370D01*
X51576Y-37411D01*
X51550Y-37474D01*
X51550Y-37542D01*
X51576Y-37605D01*
X51624Y-37653D01*
X51687Y-37679D01*
X51755Y-37679D01*
X51818Y-37653D01*
X51851Y-37620D01*
X52131Y-37620D01*
X52256Y-37745D01*
X52257Y-37745D01*
X52293Y-37769D01*
X52336Y-37778D01*
X52378Y-37778D01*
X52372Y-37793D01*
X52372Y-37861D01*
X52379Y-37880D01*
X51847Y-37880D01*
X51814Y-37847D01*
X51751Y-37821D01*
X51683Y-37821D01*
X51620Y-37847D01*
X51572Y-37895D01*
X51546Y-37958D01*
X51546Y-38026D01*
X51572Y-38089D01*
X51620Y-38137D01*
X51683Y-38163D01*
X51751Y-38163D01*
X51814Y-38137D01*
X51847Y-38104D01*
X52354Y-38104D01*
X52345Y-38128D01*
X52345Y-38174D01*
X52245Y-38274D01*
X48364Y-38274D01*
X48364Y-38018D01*
X48364Y-37950D01*
X48338Y-37887D01*
X48290Y-37839D01*
X48227Y-37813D01*
X48159Y-37813D01*
X48096Y-37839D01*
X48048Y-37887D01*
X48022Y-37950D01*
X48022Y-38018D01*
X48048Y-38081D01*
X48096Y-38129D01*
X48159Y-38155D01*
X48227Y-38155D01*
X48290Y-38129D01*
X48338Y-38081D01*
X48364Y-38018D01*
X48364Y-38274D01*
X48351Y-38274D01*
X48318Y-38241D01*
X48255Y-38215D01*
X48187Y-38215D01*
X48124Y-38241D01*
X48076Y-38289D01*
X48050Y-38352D01*
X48050Y-38420D01*
X48071Y-38470D01*
X48048Y-38494D01*
X48022Y-38557D01*
X48022Y-38621D01*
X47982Y-38638D01*
X47972Y-38648D01*
X47972Y-35604D01*
X47995Y-35550D01*
X47995Y-35443D01*
X47972Y-35387D01*
X47972Y-35171D01*
X47995Y-35117D01*
X47995Y-35010D01*
X47972Y-34954D01*
X47972Y-34738D01*
X47995Y-34684D01*
X47995Y-34577D01*
X47972Y-34521D01*
X47972Y-30688D01*
X56326Y-30688D01*
X56371Y-30707D01*
X56478Y-30707D01*
X56523Y-30688D01*
X56759Y-30688D01*
X56804Y-30707D01*
X56911Y-30707D01*
X56956Y-30688D01*
X57192Y-30688D01*
X57237Y-30707D01*
X57344Y-30707D01*
X57389Y-30688D01*
X57626Y-30688D01*
X57671Y-30707D01*
X57778Y-30707D01*
X57823Y-30688D01*
X66005Y-30688D01*
X66005Y-39500D01*
X65998Y-39517D01*
X65998Y-39624D01*
X66005Y-39640D01*
X66005Y-39933D01*
X65998Y-39950D01*
X65998Y-40057D01*
X66005Y-40073D01*
X66005Y-40366D01*
X65998Y-40383D01*
X65998Y-40490D01*
X66005Y-40506D01*
X66005Y-40799D01*
X65998Y-40816D01*
X65998Y-40923D01*
X66005Y-40939D01*
X66005Y-49548D01*
X66005Y-49548D01*
G37*
G54D25*
X66005Y-49548D02*
X63704Y-49542D01*
X63704Y-31912D01*
X63704Y-31757D01*
X63645Y-31614D01*
X63535Y-31504D01*
X63392Y-31444D01*
X63237Y-31444D01*
X63094Y-31503D01*
X62984Y-31613D01*
X62924Y-31756D01*
X62924Y-31911D01*
X62983Y-32054D01*
X63093Y-32164D01*
X63236Y-32224D01*
X63391Y-32224D01*
X63534Y-32165D01*
X63644Y-32055D01*
X63704Y-31912D01*
X63704Y-49542D01*
X63433Y-49542D01*
X63433Y-48428D01*
X63433Y-48273D01*
X63374Y-48130D01*
X63264Y-48020D01*
X63121Y-47960D01*
X62966Y-47960D01*
X62823Y-48019D01*
X62713Y-48129D01*
X62704Y-48150D01*
X62704Y-31912D01*
X62704Y-31757D01*
X62645Y-31614D01*
X62535Y-31504D01*
X62392Y-31444D01*
X62237Y-31444D01*
X62094Y-31503D01*
X61984Y-31613D01*
X61924Y-31756D01*
X61924Y-31911D01*
X61983Y-32054D01*
X62093Y-32164D01*
X62236Y-32224D01*
X62391Y-32224D01*
X62534Y-32165D01*
X62644Y-32055D01*
X62704Y-31912D01*
X62704Y-48150D01*
X62653Y-48272D01*
X62653Y-48427D01*
X62712Y-48570D01*
X62822Y-48680D01*
X62965Y-48740D01*
X63120Y-48740D01*
X63263Y-48681D01*
X63373Y-48571D01*
X63433Y-48428D01*
X63433Y-49542D01*
X62433Y-49540D01*
X62433Y-48428D01*
X62433Y-48273D01*
X62374Y-48130D01*
X62264Y-48020D01*
X62121Y-47960D01*
X61966Y-47960D01*
X61823Y-48019D01*
X61713Y-48129D01*
X61653Y-48272D01*
X61653Y-48427D01*
X61712Y-48570D01*
X61822Y-48680D01*
X61965Y-48740D01*
X62120Y-48740D01*
X62263Y-48681D01*
X62373Y-48571D01*
X62433Y-48428D01*
X62433Y-49540D01*
X60433Y-49535D01*
X60433Y-48428D01*
X60433Y-48273D01*
X60374Y-48130D01*
X60264Y-48020D01*
X60121Y-47960D01*
X59966Y-47960D01*
X59823Y-48019D01*
X59713Y-48129D01*
X59653Y-48272D01*
X59653Y-48427D01*
X59712Y-48570D01*
X59822Y-48680D01*
X59965Y-48740D01*
X60120Y-48740D01*
X60263Y-48681D01*
X60373Y-48571D01*
X60433Y-48428D01*
X60433Y-49535D01*
X59433Y-49533D01*
X59433Y-48647D01*
X59433Y-48610D01*
X59433Y-48014D01*
X59419Y-47980D01*
X59393Y-47954D01*
X59360Y-47940D01*
X59323Y-47940D01*
X59165Y-47940D01*
X59165Y-46810D01*
X59165Y-46735D01*
X59136Y-46665D01*
X59083Y-46612D01*
X59014Y-46583D01*
X58939Y-46583D01*
X58869Y-46612D01*
X58816Y-46665D01*
X58787Y-46734D01*
X58787Y-46809D01*
X58816Y-46879D01*
X58869Y-46932D01*
X58938Y-46961D01*
X59013Y-46961D01*
X59083Y-46932D01*
X59136Y-46879D01*
X59165Y-46810D01*
X59165Y-47940D01*
X58727Y-47940D01*
X58693Y-47954D01*
X58667Y-47980D01*
X58653Y-48013D01*
X58653Y-48050D01*
X58653Y-48646D01*
X58667Y-48680D01*
X58693Y-48706D01*
X58726Y-48720D01*
X58763Y-48720D01*
X59359Y-48720D01*
X59393Y-48706D01*
X59419Y-48680D01*
X59433Y-48647D01*
X59433Y-49533D01*
X57856Y-49530D01*
X57780Y-49498D01*
X57673Y-49498D01*
X57596Y-49529D01*
X57420Y-49529D01*
X57346Y-49498D01*
X57239Y-49498D01*
X57164Y-49528D01*
X56984Y-49528D01*
X56966Y-49520D01*
X56966Y-49157D01*
X56966Y-49002D01*
X56907Y-48859D01*
X56797Y-48749D01*
X56654Y-48689D01*
X56499Y-48689D01*
X56356Y-48748D01*
X56246Y-48858D01*
X56186Y-49001D01*
X56186Y-49156D01*
X56245Y-49299D01*
X56355Y-49409D01*
X56498Y-49469D01*
X56653Y-49469D01*
X56796Y-49410D01*
X56906Y-49300D01*
X56966Y-49157D01*
X56966Y-49520D01*
X56913Y-49498D01*
X56806Y-49498D01*
X56733Y-49527D01*
X56549Y-49527D01*
X56480Y-49498D01*
X56373Y-49498D01*
X56302Y-49527D01*
X53091Y-49520D01*
X53091Y-49235D01*
X53091Y-49160D01*
X53089Y-49155D01*
X53089Y-48840D01*
X53089Y-48765D01*
X53089Y-48448D01*
X53089Y-48373D01*
X53089Y-48053D01*
X53089Y-47978D01*
X53089Y-47660D01*
X53089Y-47585D01*
X53060Y-47515D01*
X53007Y-47462D01*
X52965Y-47444D01*
X53007Y-47427D01*
X53060Y-47374D01*
X53089Y-47305D01*
X53089Y-47230D01*
X53060Y-47160D01*
X53007Y-47107D01*
X53000Y-47104D01*
X53000Y-45030D01*
X53000Y-44955D01*
X52971Y-44885D01*
X52918Y-44832D01*
X52849Y-44803D01*
X52774Y-44803D01*
X52704Y-44832D01*
X52651Y-44885D01*
X52622Y-44954D01*
X52622Y-45029D01*
X52651Y-45099D01*
X52704Y-45152D01*
X52773Y-45181D01*
X52848Y-45181D01*
X52918Y-45152D01*
X52971Y-45099D01*
X53000Y-45030D01*
X53000Y-47104D01*
X52971Y-47091D01*
X52971Y-45728D01*
X52971Y-45653D01*
X52942Y-45583D01*
X52891Y-45532D01*
X52942Y-45482D01*
X52971Y-45413D01*
X52971Y-45338D01*
X52942Y-45268D01*
X52889Y-45215D01*
X52820Y-45186D01*
X52745Y-45186D01*
X52675Y-45215D01*
X52622Y-45268D01*
X52593Y-45337D01*
X52593Y-45412D01*
X52622Y-45482D01*
X52672Y-45532D01*
X52622Y-45583D01*
X52593Y-45652D01*
X52593Y-45727D01*
X52597Y-45738D01*
X52547Y-45738D01*
X52477Y-45767D01*
X52424Y-45820D01*
X52395Y-45889D01*
X52395Y-45964D01*
X52424Y-46034D01*
X52477Y-46087D01*
X52546Y-46116D01*
X52621Y-46116D01*
X52691Y-46087D01*
X52744Y-46034D01*
X52773Y-45965D01*
X52773Y-45890D01*
X52768Y-45879D01*
X52819Y-45879D01*
X52889Y-45850D01*
X52942Y-45797D01*
X52971Y-45728D01*
X52971Y-47091D01*
X52938Y-47078D01*
X52863Y-47078D01*
X52793Y-47107D01*
X52740Y-47160D01*
X52711Y-47229D01*
X52711Y-47304D01*
X52740Y-47374D01*
X52793Y-47427D01*
X52834Y-47444D01*
X52793Y-47462D01*
X52740Y-47515D01*
X52711Y-47584D01*
X52711Y-47659D01*
X52740Y-47729D01*
X52793Y-47782D01*
X52862Y-47811D01*
X52937Y-47811D01*
X53007Y-47782D01*
X53060Y-47729D01*
X53089Y-47660D01*
X53089Y-47978D01*
X53060Y-47908D01*
X53007Y-47855D01*
X52938Y-47826D01*
X52863Y-47826D01*
X52793Y-47855D01*
X52740Y-47908D01*
X52711Y-47977D01*
X52711Y-48052D01*
X52740Y-48122D01*
X52793Y-48175D01*
X52862Y-48204D01*
X52937Y-48204D01*
X53007Y-48175D01*
X53060Y-48122D01*
X53089Y-48053D01*
X53089Y-48373D01*
X53060Y-48303D01*
X53007Y-48250D01*
X52938Y-48221D01*
X52863Y-48221D01*
X52793Y-48250D01*
X52740Y-48303D01*
X52711Y-48372D01*
X52711Y-48447D01*
X52740Y-48517D01*
X52793Y-48570D01*
X52862Y-48599D01*
X52937Y-48599D01*
X53007Y-48570D01*
X53060Y-48517D01*
X53089Y-48448D01*
X53089Y-48765D01*
X53060Y-48695D01*
X53007Y-48642D01*
X52938Y-48613D01*
X52863Y-48613D01*
X52793Y-48642D01*
X52740Y-48695D01*
X52711Y-48764D01*
X52711Y-48839D01*
X52740Y-48909D01*
X52793Y-48962D01*
X52862Y-48991D01*
X52937Y-48991D01*
X53007Y-48962D01*
X53060Y-48909D01*
X53089Y-48840D01*
X53089Y-49155D01*
X53062Y-49090D01*
X53009Y-49037D01*
X52940Y-49008D01*
X52865Y-49008D01*
X52795Y-49037D01*
X52742Y-49090D01*
X52713Y-49159D01*
X52713Y-49234D01*
X52742Y-49304D01*
X52795Y-49357D01*
X52864Y-49386D01*
X52939Y-49386D01*
X53009Y-49357D01*
X53062Y-49304D01*
X53091Y-49235D01*
X53091Y-49520D01*
X52696Y-49519D01*
X52696Y-49235D01*
X52696Y-49160D01*
X52696Y-47305D01*
X52696Y-47230D01*
X52667Y-47160D01*
X52614Y-47107D01*
X52545Y-47078D01*
X52470Y-47078D01*
X52400Y-47107D01*
X52379Y-47128D01*
X52379Y-45965D01*
X52379Y-45890D01*
X52350Y-45820D01*
X52297Y-45767D01*
X52228Y-45738D01*
X52178Y-45738D01*
X52183Y-45728D01*
X52183Y-45653D01*
X52154Y-45583D01*
X52103Y-45532D01*
X52154Y-45482D01*
X52183Y-45413D01*
X52183Y-45338D01*
X52154Y-45268D01*
X52101Y-45215D01*
X52032Y-45186D01*
X51957Y-45186D01*
X51887Y-45215D01*
X51834Y-45268D01*
X51805Y-45337D01*
X51805Y-45412D01*
X51834Y-45482D01*
X51884Y-45532D01*
X51834Y-45583D01*
X51805Y-45652D01*
X51805Y-45727D01*
X51834Y-45797D01*
X51887Y-45850D01*
X51956Y-45879D01*
X52005Y-45879D01*
X52001Y-45889D01*
X52001Y-45964D01*
X52030Y-46034D01*
X52083Y-46087D01*
X52152Y-46116D01*
X52227Y-46116D01*
X52297Y-46087D01*
X52350Y-46034D01*
X52379Y-45965D01*
X52379Y-47128D01*
X52347Y-47160D01*
X52318Y-47229D01*
X52318Y-47304D01*
X52347Y-47374D01*
X52400Y-47427D01*
X52469Y-47456D01*
X52544Y-47456D01*
X52614Y-47427D01*
X52667Y-47374D01*
X52696Y-47305D01*
X52696Y-49160D01*
X52667Y-49090D01*
X52614Y-49037D01*
X52545Y-49008D01*
X52470Y-49008D01*
X52400Y-49037D01*
X52347Y-49090D01*
X52318Y-49159D01*
X52318Y-49234D01*
X52347Y-49304D01*
X52400Y-49357D01*
X52469Y-49386D01*
X52544Y-49386D01*
X52614Y-49357D01*
X52667Y-49304D01*
X52696Y-49235D01*
X52696Y-49519D01*
X52303Y-49518D01*
X52303Y-47305D01*
X52303Y-47230D01*
X52274Y-47160D01*
X52221Y-47107D01*
X52152Y-47078D01*
X52077Y-47078D01*
X52007Y-47107D01*
X51954Y-47160D01*
X51925Y-47229D01*
X51925Y-47304D01*
X51954Y-47374D01*
X52007Y-47427D01*
X52076Y-47456D01*
X52151Y-47456D01*
X52221Y-47427D01*
X52274Y-47374D01*
X52303Y-47305D01*
X52303Y-49518D01*
X52301Y-49518D01*
X52301Y-49233D01*
X52301Y-49158D01*
X52272Y-49088D01*
X52219Y-49035D01*
X52150Y-49006D01*
X52075Y-49006D01*
X52005Y-49035D01*
X51952Y-49088D01*
X51923Y-49157D01*
X51923Y-49232D01*
X51952Y-49302D01*
X52005Y-49355D01*
X52074Y-49384D01*
X52149Y-49384D01*
X52219Y-49355D01*
X52272Y-49302D01*
X52301Y-49233D01*
X52301Y-49518D01*
X51909Y-49517D01*
X51909Y-49235D01*
X51909Y-49160D01*
X51909Y-47305D01*
X51909Y-47230D01*
X51880Y-47160D01*
X51827Y-47107D01*
X51758Y-47078D01*
X51683Y-47078D01*
X51613Y-47107D01*
X51560Y-47160D01*
X51531Y-47229D01*
X51531Y-47304D01*
X51560Y-47374D01*
X51613Y-47427D01*
X51682Y-47456D01*
X51757Y-47456D01*
X51827Y-47427D01*
X51880Y-47374D01*
X51909Y-47305D01*
X51909Y-49160D01*
X51880Y-49090D01*
X51827Y-49037D01*
X51758Y-49008D01*
X51683Y-49008D01*
X51613Y-49037D01*
X51560Y-49090D01*
X51531Y-49159D01*
X51531Y-49234D01*
X51560Y-49304D01*
X51613Y-49357D01*
X51682Y-49386D01*
X51757Y-49386D01*
X51827Y-49357D01*
X51880Y-49304D01*
X51909Y-49235D01*
X51909Y-49517D01*
X51514Y-49516D01*
X51514Y-49235D01*
X51514Y-49160D01*
X51514Y-48840D01*
X51514Y-48765D01*
X51514Y-48448D01*
X51514Y-48373D01*
X51514Y-48053D01*
X51514Y-47978D01*
X51514Y-47660D01*
X51514Y-47585D01*
X51485Y-47515D01*
X51432Y-47462D01*
X51390Y-47444D01*
X51432Y-47427D01*
X51485Y-47374D01*
X51514Y-47305D01*
X51514Y-47230D01*
X51485Y-47160D01*
X51432Y-47107D01*
X51363Y-47078D01*
X51358Y-47078D01*
X51358Y-45101D01*
X51358Y-45026D01*
X51329Y-44956D01*
X51318Y-44945D01*
X51329Y-44934D01*
X51358Y-44865D01*
X51358Y-44790D01*
X51329Y-44720D01*
X51276Y-44667D01*
X51207Y-44638D01*
X51132Y-44638D01*
X51062Y-44667D01*
X51009Y-44720D01*
X50980Y-44789D01*
X50980Y-44864D01*
X51009Y-44934D01*
X51020Y-44945D01*
X51009Y-44956D01*
X50980Y-45025D01*
X50980Y-45100D01*
X51009Y-45170D01*
X51062Y-45223D01*
X51131Y-45252D01*
X51206Y-45252D01*
X51276Y-45223D01*
X51329Y-45170D01*
X51358Y-45101D01*
X51358Y-47078D01*
X51288Y-47078D01*
X51218Y-47107D01*
X51165Y-47160D01*
X51136Y-47229D01*
X51136Y-47304D01*
X51165Y-47374D01*
X51218Y-47427D01*
X51259Y-47444D01*
X51218Y-47462D01*
X51165Y-47515D01*
X51136Y-47584D01*
X51136Y-47659D01*
X51165Y-47729D01*
X51218Y-47782D01*
X51287Y-47811D01*
X51362Y-47811D01*
X51432Y-47782D01*
X51485Y-47729D01*
X51514Y-47660D01*
X51514Y-47978D01*
X51485Y-47908D01*
X51432Y-47855D01*
X51363Y-47826D01*
X51288Y-47826D01*
X51218Y-47855D01*
X51165Y-47908D01*
X51136Y-47977D01*
X51136Y-48052D01*
X51165Y-48122D01*
X51218Y-48175D01*
X51287Y-48204D01*
X51362Y-48204D01*
X51432Y-48175D01*
X51485Y-48122D01*
X51514Y-48053D01*
X51514Y-48373D01*
X51485Y-48303D01*
X51432Y-48250D01*
X51363Y-48221D01*
X51288Y-48221D01*
X51218Y-48250D01*
X51165Y-48303D01*
X51136Y-48372D01*
X51136Y-48447D01*
X51165Y-48517D01*
X51218Y-48570D01*
X51287Y-48599D01*
X51362Y-48599D01*
X51432Y-48570D01*
X51485Y-48517D01*
X51514Y-48448D01*
X51514Y-48765D01*
X51485Y-48695D01*
X51432Y-48642D01*
X51363Y-48613D01*
X51288Y-48613D01*
X51218Y-48642D01*
X51165Y-48695D01*
X51136Y-48764D01*
X51136Y-48839D01*
X51165Y-48909D01*
X51218Y-48962D01*
X51287Y-48991D01*
X51362Y-48991D01*
X51432Y-48962D01*
X51485Y-48909D01*
X51514Y-48840D01*
X51514Y-49160D01*
X51485Y-49090D01*
X51432Y-49037D01*
X51363Y-49008D01*
X51288Y-49008D01*
X51218Y-49037D01*
X51165Y-49090D01*
X51136Y-49159D01*
X51136Y-49234D01*
X51165Y-49304D01*
X51218Y-49357D01*
X51287Y-49386D01*
X51362Y-49386D01*
X51432Y-49357D01*
X51485Y-49304D01*
X51514Y-49235D01*
X51514Y-49516D01*
X49050Y-49511D01*
X49050Y-45125D01*
X49050Y-45050D01*
X49021Y-44980D01*
X48968Y-44927D01*
X48899Y-44898D01*
X48824Y-44898D01*
X48754Y-44927D01*
X48703Y-44977D01*
X48653Y-44927D01*
X48584Y-44898D01*
X48509Y-44898D01*
X48439Y-44927D01*
X48388Y-44977D01*
X48338Y-44927D01*
X48269Y-44898D01*
X48194Y-44898D01*
X48124Y-44927D01*
X48071Y-44980D01*
X48042Y-45049D01*
X48042Y-45124D01*
X48071Y-45194D01*
X48124Y-45247D01*
X48193Y-45276D01*
X48268Y-45276D01*
X48338Y-45247D01*
X48388Y-45196D01*
X48439Y-45247D01*
X48508Y-45276D01*
X48583Y-45276D01*
X48653Y-45247D01*
X48703Y-45196D01*
X48754Y-45247D01*
X48823Y-45276D01*
X48898Y-45276D01*
X48968Y-45247D01*
X49021Y-45194D01*
X49050Y-45125D01*
X49050Y-49511D01*
X47972Y-49509D01*
X47972Y-44443D01*
X47995Y-44389D01*
X47995Y-44282D01*
X47972Y-44226D01*
X47972Y-44010D01*
X47995Y-43956D01*
X47995Y-43849D01*
X47972Y-43793D01*
X47972Y-43577D01*
X47995Y-43523D01*
X47995Y-43416D01*
X47972Y-43360D01*
X47972Y-41281D01*
X47978Y-41287D01*
X48041Y-41313D01*
X48109Y-41313D01*
X48172Y-41287D01*
X48205Y-41254D01*
X50626Y-41254D01*
X51526Y-42153D01*
X51526Y-42225D01*
X51518Y-42233D01*
X51510Y-42225D01*
X51510Y-42189D01*
X51501Y-42146D01*
X51477Y-42110D01*
X51020Y-41653D01*
X50984Y-41629D01*
X50941Y-41620D01*
X48327Y-41620D01*
X48294Y-41587D01*
X48231Y-41561D01*
X48163Y-41561D01*
X48100Y-41587D01*
X48052Y-41635D01*
X48026Y-41698D01*
X48026Y-41766D01*
X48052Y-41829D01*
X48100Y-41877D01*
X48163Y-41903D01*
X48231Y-41903D01*
X48294Y-41877D01*
X48327Y-41844D01*
X50895Y-41844D01*
X51281Y-42230D01*
X51253Y-42258D01*
X51227Y-42321D01*
X51227Y-42327D01*
X50950Y-42051D01*
X50914Y-42027D01*
X50871Y-42018D01*
X48311Y-42018D01*
X48278Y-41985D01*
X48215Y-41959D01*
X48147Y-41959D01*
X48084Y-41985D01*
X48036Y-42033D01*
X48010Y-42096D01*
X48010Y-42164D01*
X48035Y-42226D01*
X48028Y-42234D01*
X48002Y-42297D01*
X48002Y-42365D01*
X48028Y-42428D01*
X48076Y-42476D01*
X48139Y-42502D01*
X48207Y-42502D01*
X48270Y-42476D01*
X48303Y-42443D01*
X50839Y-42443D01*
X51117Y-42721D01*
X51118Y-42721D01*
X51154Y-42745D01*
X51196Y-42753D01*
X51197Y-42754D01*
X52004Y-42754D01*
X52046Y-42745D01*
X52047Y-42745D01*
X52083Y-42721D01*
X52197Y-42607D01*
X52221Y-42571D01*
X52230Y-42528D01*
X52230Y-42484D01*
X52238Y-42476D01*
X52238Y-42708D01*
X52247Y-42751D01*
X52271Y-42787D01*
X52290Y-42806D01*
X49695Y-42806D01*
X49662Y-42773D01*
X49633Y-42761D01*
X49680Y-42715D01*
X49706Y-42652D01*
X49706Y-42584D01*
X49680Y-42521D01*
X49632Y-42473D01*
X49569Y-42447D01*
X49501Y-42447D01*
X49438Y-42473D01*
X49390Y-42521D01*
X49364Y-42584D01*
X49364Y-42613D01*
X48284Y-42613D01*
X48251Y-42580D01*
X48188Y-42554D01*
X48120Y-42554D01*
X48057Y-42580D01*
X48009Y-42628D01*
X47983Y-42691D01*
X47983Y-42759D01*
X48009Y-42822D01*
X48057Y-42870D01*
X48120Y-42896D01*
X48188Y-42896D01*
X48251Y-42870D01*
X48284Y-42837D01*
X49413Y-42837D01*
X49394Y-42884D01*
X49394Y-42952D01*
X49420Y-43015D01*
X49468Y-43063D01*
X49531Y-43089D01*
X49599Y-43089D01*
X49662Y-43063D01*
X49695Y-43030D01*
X52595Y-43030D01*
X52813Y-43248D01*
X52782Y-43235D01*
X52707Y-43235D01*
X52637Y-43264D01*
X52584Y-43317D01*
X52566Y-43358D01*
X52549Y-43317D01*
X52496Y-43264D01*
X52427Y-43235D01*
X52352Y-43235D01*
X52282Y-43264D01*
X52229Y-43317D01*
X52200Y-43386D01*
X52200Y-43432D01*
X52195Y-43432D01*
X52125Y-43461D01*
X52072Y-43514D01*
X52043Y-43583D01*
X52043Y-43658D01*
X52072Y-43728D01*
X52125Y-43781D01*
X52194Y-43810D01*
X52269Y-43810D01*
X52339Y-43781D01*
X52392Y-43728D01*
X52409Y-43687D01*
X52426Y-43728D01*
X52479Y-43781D01*
X52548Y-43810D01*
X52623Y-43810D01*
X52693Y-43781D01*
X52746Y-43728D01*
X52763Y-43685D01*
X52781Y-43727D01*
X52834Y-43780D01*
X52903Y-43809D01*
X52978Y-43809D01*
X53048Y-43780D01*
X53089Y-43739D01*
X53089Y-44843D01*
X53098Y-44886D01*
X53122Y-44922D01*
X53820Y-45620D01*
X53856Y-45644D01*
X53899Y-45653D01*
X61481Y-45653D01*
X61454Y-45680D01*
X61425Y-45749D01*
X61425Y-45824D01*
X61454Y-45894D01*
X61507Y-45947D01*
X61576Y-45976D01*
X61651Y-45976D01*
X61721Y-45947D01*
X61774Y-45894D01*
X61803Y-45825D01*
X61803Y-45750D01*
X61774Y-45680D01*
X61747Y-45653D01*
X62262Y-45653D01*
X62295Y-45686D01*
X62358Y-45712D01*
X62426Y-45712D01*
X62489Y-45686D01*
X62537Y-45638D01*
X62563Y-45575D01*
X62563Y-45507D01*
X62537Y-45444D01*
X62489Y-45396D01*
X62426Y-45370D01*
X62358Y-45370D01*
X62295Y-45396D01*
X62262Y-45429D01*
X62228Y-45429D01*
X62228Y-39841D01*
X62228Y-39766D01*
X62199Y-39696D01*
X62153Y-39650D01*
X62196Y-39607D01*
X62225Y-39538D01*
X62225Y-39463D01*
X62196Y-39393D01*
X62143Y-39340D01*
X62074Y-39311D01*
X61999Y-39311D01*
X61929Y-39340D01*
X61876Y-39393D01*
X61847Y-39462D01*
X61847Y-39537D01*
X61876Y-39607D01*
X61922Y-39653D01*
X61879Y-39696D01*
X61850Y-39765D01*
X61850Y-39840D01*
X61879Y-39910D01*
X61932Y-39963D01*
X62001Y-39992D01*
X62076Y-39992D01*
X62146Y-39963D01*
X62199Y-39910D01*
X62228Y-39841D01*
X62228Y-45429D01*
X62010Y-45429D01*
X62010Y-42056D01*
X62010Y-41981D01*
X61981Y-41911D01*
X61928Y-41858D01*
X61917Y-41853D01*
X61917Y-40684D01*
X61917Y-40609D01*
X61888Y-40539D01*
X61835Y-40486D01*
X61783Y-40464D01*
X61783Y-38121D01*
X61783Y-38046D01*
X61754Y-37976D01*
X61701Y-37923D01*
X61697Y-37921D01*
X61697Y-31849D01*
X61673Y-31701D01*
X61662Y-31674D01*
X61619Y-31635D01*
X61513Y-31741D01*
X61513Y-31529D01*
X61474Y-31486D01*
X61329Y-31451D01*
X61181Y-31475D01*
X61154Y-31486D01*
X61115Y-31529D01*
X61314Y-31728D01*
X61513Y-31529D01*
X61513Y-31741D01*
X61420Y-31834D01*
X61619Y-32033D01*
X61662Y-31994D01*
X61697Y-31849D01*
X61697Y-37921D01*
X61632Y-37894D01*
X61557Y-37894D01*
X61513Y-37912D01*
X61513Y-32139D01*
X61314Y-31940D01*
X61208Y-32046D01*
X61208Y-31834D01*
X61009Y-31635D01*
X60966Y-31674D01*
X60931Y-31819D01*
X60955Y-31967D01*
X60966Y-31994D01*
X61009Y-32033D01*
X61208Y-31834D01*
X61208Y-32046D01*
X61115Y-32139D01*
X61154Y-32182D01*
X61299Y-32217D01*
X61447Y-32193D01*
X61474Y-32182D01*
X61513Y-32139D01*
X61513Y-37912D01*
X61487Y-37923D01*
X61434Y-37976D01*
X61405Y-38045D01*
X61405Y-38120D01*
X61434Y-38190D01*
X61487Y-38243D01*
X61556Y-38272D01*
X61631Y-38272D01*
X61701Y-38243D01*
X61754Y-38190D01*
X61783Y-38121D01*
X61783Y-40464D01*
X61766Y-40457D01*
X61691Y-40457D01*
X61621Y-40486D01*
X61568Y-40539D01*
X61539Y-40608D01*
X61539Y-40683D01*
X61568Y-40753D01*
X61621Y-40806D01*
X61690Y-40835D01*
X61765Y-40835D01*
X61835Y-40806D01*
X61888Y-40753D01*
X61917Y-40684D01*
X61917Y-41853D01*
X61859Y-41829D01*
X61784Y-41829D01*
X61714Y-41858D01*
X61661Y-41911D01*
X61632Y-41980D01*
X61632Y-42055D01*
X61661Y-42125D01*
X61714Y-42178D01*
X61783Y-42207D01*
X61858Y-42207D01*
X61928Y-42178D01*
X61981Y-42125D01*
X62010Y-42056D01*
X62010Y-45429D01*
X61587Y-45429D01*
X61587Y-43601D01*
X61587Y-43526D01*
X61558Y-43456D01*
X61505Y-43403D01*
X61436Y-43374D01*
X61361Y-43374D01*
X61291Y-43403D01*
X61238Y-43456D01*
X61209Y-43525D01*
X61209Y-43600D01*
X61238Y-43670D01*
X61291Y-43723D01*
X61360Y-43752D01*
X61435Y-43752D01*
X61505Y-43723D01*
X61558Y-43670D01*
X61587Y-43601D01*
X61587Y-45429D01*
X60704Y-45429D01*
X60704Y-31912D01*
X60704Y-31757D01*
X60645Y-31614D01*
X60535Y-31504D01*
X60392Y-31444D01*
X60237Y-31444D01*
X60094Y-31503D01*
X59984Y-31613D01*
X59924Y-31756D01*
X59924Y-31911D01*
X59983Y-32054D01*
X60093Y-32164D01*
X60236Y-32224D01*
X60391Y-32224D01*
X60534Y-32165D01*
X60644Y-32055D01*
X60704Y-31912D01*
X60704Y-45429D01*
X60644Y-45429D01*
X60644Y-41034D01*
X60644Y-40966D01*
X60618Y-40903D01*
X60570Y-40855D01*
X60507Y-40829D01*
X60439Y-40829D01*
X60376Y-40855D01*
X60328Y-40903D01*
X60302Y-40966D01*
X60302Y-41034D01*
X60328Y-41097D01*
X60376Y-41145D01*
X60439Y-41171D01*
X60507Y-41171D01*
X60570Y-41145D01*
X60618Y-41097D01*
X60644Y-41034D01*
X60644Y-45429D01*
X58911Y-45429D01*
X58911Y-42003D01*
X58911Y-41935D01*
X58885Y-41872D01*
X58837Y-41824D01*
X58774Y-41798D01*
X58706Y-41798D01*
X58643Y-41824D01*
X58636Y-41831D01*
X58633Y-41828D01*
X58597Y-41813D01*
X58597Y-41371D01*
X58597Y-41307D01*
X58572Y-41247D01*
X58527Y-41202D01*
X58467Y-41177D01*
X58403Y-41177D01*
X58343Y-41202D01*
X58336Y-41208D01*
X58330Y-41202D01*
X58270Y-41177D01*
X58206Y-41177D01*
X58146Y-41202D01*
X58101Y-41247D01*
X58076Y-41307D01*
X58076Y-41371D01*
X58101Y-41431D01*
X58146Y-41476D01*
X58206Y-41501D01*
X58270Y-41501D01*
X58330Y-41476D01*
X58336Y-41469D01*
X58343Y-41476D01*
X58403Y-41501D01*
X58467Y-41501D01*
X58527Y-41476D01*
X58572Y-41431D01*
X58597Y-41371D01*
X58597Y-41813D01*
X58570Y-41802D01*
X58502Y-41802D01*
X58439Y-41828D01*
X58391Y-41876D01*
X58365Y-41939D01*
X58365Y-42007D01*
X58391Y-42070D01*
X58439Y-42118D01*
X58502Y-42144D01*
X58570Y-42144D01*
X58633Y-42118D01*
X58640Y-42111D01*
X58643Y-42114D01*
X58706Y-42140D01*
X58774Y-42140D01*
X58837Y-42114D01*
X58885Y-42066D01*
X58911Y-42003D01*
X58911Y-45429D01*
X58453Y-45429D01*
X58453Y-43184D01*
X58453Y-43109D01*
X58424Y-43039D01*
X58371Y-42986D01*
X58302Y-42957D01*
X58227Y-42957D01*
X58157Y-42986D01*
X58104Y-43039D01*
X58075Y-43108D01*
X58075Y-43183D01*
X58104Y-43253D01*
X58157Y-43306D01*
X58226Y-43335D01*
X58301Y-43335D01*
X58371Y-43306D01*
X58424Y-43253D01*
X58453Y-43184D01*
X58453Y-45429D01*
X57945Y-45429D01*
X57945Y-43487D01*
X57945Y-43412D01*
X57916Y-43342D01*
X57863Y-43289D01*
X57794Y-43260D01*
X57719Y-43260D01*
X57649Y-43289D01*
X57596Y-43342D01*
X57567Y-43411D01*
X57567Y-43486D01*
X57596Y-43556D01*
X57649Y-43609D01*
X57718Y-43638D01*
X57793Y-43638D01*
X57863Y-43609D01*
X57916Y-43556D01*
X57945Y-43487D01*
X57945Y-45429D01*
X57120Y-45429D01*
X57120Y-42652D01*
X57120Y-42584D01*
X57094Y-42521D01*
X57046Y-42473D01*
X56983Y-42447D01*
X56915Y-42447D01*
X56852Y-42473D01*
X56804Y-42521D01*
X56778Y-42584D01*
X56778Y-42652D01*
X56804Y-42715D01*
X56852Y-42763D01*
X56915Y-42789D01*
X56983Y-42789D01*
X57046Y-42763D01*
X57094Y-42715D01*
X57120Y-42652D01*
X57120Y-45429D01*
X56972Y-45429D01*
X56972Y-43211D01*
X56972Y-43136D01*
X56943Y-43066D01*
X56890Y-43013D01*
X56821Y-42984D01*
X56746Y-42984D01*
X56676Y-43013D01*
X56623Y-43066D01*
X56594Y-43135D01*
X56594Y-43210D01*
X56623Y-43280D01*
X56676Y-43333D01*
X56745Y-43362D01*
X56820Y-43362D01*
X56890Y-43333D01*
X56943Y-43280D01*
X56972Y-43211D01*
X56972Y-45429D01*
X55146Y-45429D01*
X55162Y-45412D01*
X55166Y-45410D01*
X55168Y-45406D01*
X55192Y-45383D01*
X55203Y-45355D01*
X55208Y-45349D01*
X55209Y-45341D01*
X55221Y-45314D01*
X55221Y-45281D01*
X55222Y-45276D01*
X55222Y-45197D01*
X55221Y-45196D01*
X55218Y-45177D01*
X55254Y-45177D01*
X55324Y-45148D01*
X55377Y-45095D01*
X55406Y-45026D01*
X55406Y-44951D01*
X55377Y-44881D01*
X55324Y-44828D01*
X55284Y-44811D01*
X55882Y-44214D01*
X55882Y-44213D01*
X55924Y-44152D01*
X55937Y-44079D01*
X55938Y-44079D01*
X55938Y-44072D01*
X55942Y-44082D01*
X55995Y-44135D01*
X56064Y-44164D01*
X56139Y-44164D01*
X56209Y-44135D01*
X56240Y-44104D01*
X56271Y-44135D01*
X56340Y-44164D01*
X56415Y-44164D01*
X56485Y-44135D01*
X56538Y-44082D01*
X56567Y-44013D01*
X56567Y-43938D01*
X56538Y-43868D01*
X56485Y-43815D01*
X56431Y-43792D01*
X56431Y-42987D01*
X56431Y-42919D01*
X56405Y-42856D01*
X56357Y-42808D01*
X56294Y-42782D01*
X56226Y-42782D01*
X56163Y-42808D01*
X56115Y-42856D01*
X56089Y-42919D01*
X56089Y-42987D01*
X56115Y-43050D01*
X56163Y-43098D01*
X56226Y-43124D01*
X56294Y-43124D01*
X56357Y-43098D01*
X56405Y-43050D01*
X56431Y-42987D01*
X56431Y-43792D01*
X56416Y-43786D01*
X56341Y-43786D01*
X56271Y-43815D01*
X56240Y-43846D01*
X56209Y-43815D01*
X56140Y-43786D01*
X56065Y-43786D01*
X55995Y-43815D01*
X55942Y-43868D01*
X55938Y-43877D01*
X55938Y-43512D01*
X55937Y-43506D01*
X55937Y-43475D01*
X55925Y-43447D01*
X55924Y-43439D01*
X55919Y-43432D01*
X55908Y-43405D01*
X55884Y-43381D01*
X55882Y-43378D01*
X55878Y-43375D01*
X55855Y-43352D01*
X55827Y-43340D01*
X55821Y-43336D01*
X55813Y-43334D01*
X55786Y-43323D01*
X55753Y-43323D01*
X55748Y-43322D01*
X55742Y-43323D01*
X55711Y-43323D01*
X55683Y-43334D01*
X55675Y-43336D01*
X55668Y-43340D01*
X55641Y-43352D01*
X55617Y-43375D01*
X55614Y-43378D01*
X55611Y-43381D01*
X55588Y-43405D01*
X55576Y-43432D01*
X55572Y-43439D01*
X55570Y-43446D01*
X55559Y-43474D01*
X55559Y-43506D01*
X55558Y-43512D01*
X55558Y-44000D01*
X54831Y-44728D01*
X54789Y-44789D01*
X54775Y-44862D01*
X54775Y-45130D01*
X54789Y-45203D01*
X54831Y-45264D01*
X54842Y-45275D01*
X54842Y-45276D01*
X54843Y-45281D01*
X54843Y-45313D01*
X54854Y-45340D01*
X54856Y-45349D01*
X54860Y-45355D01*
X54872Y-45383D01*
X54895Y-45406D01*
X54898Y-45410D01*
X54901Y-45412D01*
X54918Y-45429D01*
X53945Y-45429D01*
X53728Y-45212D01*
X53728Y-44235D01*
X53728Y-44160D01*
X53699Y-44090D01*
X53646Y-44037D01*
X53628Y-44029D01*
X53646Y-44022D01*
X53699Y-43969D01*
X53728Y-43900D01*
X53728Y-43825D01*
X53699Y-43755D01*
X53646Y-43702D01*
X53577Y-43673D01*
X53502Y-43673D01*
X53432Y-43702D01*
X53379Y-43755D01*
X53350Y-43824D01*
X53350Y-43899D01*
X53379Y-43969D01*
X53432Y-44022D01*
X53449Y-44029D01*
X53432Y-44037D01*
X53379Y-44090D01*
X53350Y-44159D01*
X53350Y-44234D01*
X53379Y-44304D01*
X53432Y-44357D01*
X53501Y-44386D01*
X53576Y-44386D01*
X53646Y-44357D01*
X53699Y-44304D01*
X53728Y-44235D01*
X53728Y-45212D01*
X53313Y-44797D01*
X53313Y-43477D01*
X53304Y-43435D01*
X54969Y-43435D01*
X55011Y-43426D01*
X55012Y-43426D01*
X55048Y-43402D01*
X55212Y-43238D01*
X55259Y-43238D01*
X55322Y-43212D01*
X55339Y-43195D01*
X55356Y-43212D01*
X55419Y-43238D01*
X55487Y-43238D01*
X55550Y-43212D01*
X55598Y-43164D01*
X55624Y-43101D01*
X55624Y-43033D01*
X55598Y-42970D01*
X55550Y-42922D01*
X55487Y-42896D01*
X55440Y-42896D01*
X55376Y-42832D01*
X55530Y-42832D01*
X55535Y-42833D01*
X55535Y-42832D01*
X55577Y-42824D01*
X55578Y-42823D01*
X55614Y-42800D01*
X55614Y-42799D01*
X55768Y-42647D01*
X55768Y-42646D01*
X55792Y-42610D01*
X55800Y-42568D01*
X55801Y-42567D01*
X55801Y-42255D01*
X56132Y-41924D01*
X56132Y-41971D01*
X56158Y-42034D01*
X56206Y-42082D01*
X56269Y-42108D01*
X56337Y-42108D01*
X56400Y-42082D01*
X56448Y-42034D01*
X56474Y-41971D01*
X56474Y-41903D01*
X56448Y-41840D01*
X56400Y-41792D01*
X56337Y-41766D01*
X56290Y-41766D01*
X56350Y-41705D01*
X56359Y-41698D01*
X56368Y-41683D01*
X56379Y-41671D01*
X56383Y-41661D01*
X56489Y-41466D01*
X56512Y-41456D01*
X56514Y-41655D01*
X56515Y-41662D01*
X56515Y-41675D01*
X56523Y-41698D01*
X56526Y-41713D01*
X56529Y-41718D01*
X56534Y-41731D01*
X56548Y-41747D01*
X56559Y-41762D01*
X56568Y-41768D01*
X56574Y-41774D01*
X56808Y-41951D01*
X56807Y-41972D01*
X56786Y-42025D01*
X56786Y-42093D01*
X56812Y-42156D01*
X56860Y-42204D01*
X56923Y-42230D01*
X56991Y-42230D01*
X57054Y-42204D01*
X57075Y-42183D01*
X57108Y-42216D01*
X57171Y-42242D01*
X57239Y-42242D01*
X57302Y-42216D01*
X57350Y-42168D01*
X57376Y-42105D01*
X57376Y-42085D01*
X57431Y-42108D01*
X57499Y-42108D01*
X57562Y-42082D01*
X57610Y-42034D01*
X57636Y-41971D01*
X57636Y-41903D01*
X57610Y-41840D01*
X57607Y-41837D01*
X57605Y-41824D01*
X57572Y-41775D01*
X57403Y-41606D01*
X57404Y-41398D01*
X57416Y-41371D01*
X57416Y-41307D01*
X57391Y-41247D01*
X57346Y-41202D01*
X57286Y-41177D01*
X57222Y-41177D01*
X57162Y-41202D01*
X57155Y-41208D01*
X57149Y-41202D01*
X57089Y-41177D01*
X57025Y-41177D01*
X56965Y-41202D01*
X56958Y-41208D01*
X56952Y-41202D01*
X56892Y-41177D01*
X56828Y-41177D01*
X56768Y-41202D01*
X56761Y-41208D01*
X56755Y-41202D01*
X56695Y-41177D01*
X56631Y-41177D01*
X56575Y-41200D01*
X56599Y-41144D01*
X56599Y-41080D01*
X56574Y-41020D01*
X56567Y-41013D01*
X56574Y-41007D01*
X56599Y-40947D01*
X56599Y-40883D01*
X56574Y-40823D01*
X56568Y-40817D01*
X56574Y-40811D01*
X56599Y-40751D01*
X56599Y-40687D01*
X56574Y-40627D01*
X56567Y-40620D01*
X56574Y-40614D01*
X56599Y-40554D01*
X56599Y-40490D01*
X56574Y-40430D01*
X56567Y-40423D01*
X56574Y-40417D01*
X56599Y-40357D01*
X56599Y-40293D01*
X56574Y-40233D01*
X56567Y-40226D01*
X56574Y-40220D01*
X56599Y-40160D01*
X56599Y-40096D01*
X56574Y-40036D01*
X56567Y-40029D01*
X56574Y-40023D01*
X56599Y-39963D01*
X56599Y-39899D01*
X56574Y-39839D01*
X56567Y-39832D01*
X56574Y-39826D01*
X56599Y-39766D01*
X56599Y-39702D01*
X56574Y-39642D01*
X56567Y-39635D01*
X56574Y-39629D01*
X56599Y-39569D01*
X56599Y-39505D01*
X56574Y-39445D01*
X56568Y-39439D01*
X56574Y-39433D01*
X56599Y-39373D01*
X56599Y-39309D01*
X56574Y-39249D01*
X56567Y-39242D01*
X56574Y-39236D01*
X56599Y-39176D01*
X56599Y-39112D01*
X56574Y-39052D01*
X56567Y-39045D01*
X56574Y-39039D01*
X56599Y-38979D01*
X56599Y-38915D01*
X56574Y-38855D01*
X56567Y-38848D01*
X56574Y-38842D01*
X56574Y-38841D01*
X56581Y-38848D01*
X56641Y-38873D01*
X56705Y-38873D01*
X56765Y-38848D01*
X56767Y-38846D01*
X56778Y-38857D01*
X56838Y-38882D01*
X56902Y-38882D01*
X56962Y-38857D01*
X56968Y-38850D01*
X56975Y-38857D01*
X57035Y-38882D01*
X57099Y-38882D01*
X57159Y-38857D01*
X57204Y-38812D01*
X57225Y-38761D01*
X57406Y-38963D01*
X57410Y-38966D01*
X57411Y-38967D01*
X57418Y-38971D01*
X57442Y-38989D01*
X57445Y-38989D01*
X57447Y-38991D01*
X57475Y-38996D01*
X57484Y-38999D01*
X57484Y-38998D01*
X57490Y-39000D01*
X58766Y-39000D01*
X58766Y-40167D01*
X58767Y-40174D01*
X58767Y-40182D01*
X58772Y-40198D01*
X58775Y-40210D01*
X58778Y-40214D01*
X58781Y-40223D01*
X58792Y-40235D01*
X58799Y-40246D01*
X58804Y-40249D01*
X58810Y-40256D01*
X58903Y-40327D01*
X58903Y-40357D01*
X58928Y-40417D01*
X58934Y-40423D01*
X58928Y-40430D01*
X58903Y-40490D01*
X58903Y-40554D01*
X58928Y-40614D01*
X58934Y-40620D01*
X58928Y-40627D01*
X58903Y-40687D01*
X58903Y-40751D01*
X58928Y-40811D01*
X58934Y-40817D01*
X58928Y-40823D01*
X58903Y-40883D01*
X58903Y-40947D01*
X58928Y-41007D01*
X58939Y-41018D01*
X58938Y-41020D01*
X58913Y-41080D01*
X58913Y-41144D01*
X58938Y-41204D01*
X58939Y-41205D01*
X58928Y-41217D01*
X58903Y-41277D01*
X58903Y-41341D01*
X58928Y-41401D01*
X58973Y-41446D01*
X59028Y-41469D01*
X59259Y-41636D01*
X59238Y-41636D01*
X59175Y-41662D01*
X59127Y-41710D01*
X59101Y-41773D01*
X59101Y-41841D01*
X59127Y-41904D01*
X59164Y-41941D01*
X59136Y-41970D01*
X59110Y-42033D01*
X59110Y-42101D01*
X59136Y-42164D01*
X59184Y-42212D01*
X59247Y-42238D01*
X59315Y-42238D01*
X59378Y-42212D01*
X59426Y-42164D01*
X59452Y-42101D01*
X59452Y-42033D01*
X59426Y-41970D01*
X59388Y-41932D01*
X59417Y-41904D01*
X59443Y-41841D01*
X59443Y-41773D01*
X59440Y-41767D01*
X59655Y-41923D01*
X59967Y-42594D01*
X59965Y-42600D01*
X59965Y-42675D01*
X59994Y-42745D01*
X60022Y-42773D01*
X59982Y-42814D01*
X59953Y-42883D01*
X59953Y-42958D01*
X59982Y-43028D01*
X60035Y-43081D01*
X60104Y-43110D01*
X60179Y-43110D01*
X60249Y-43081D01*
X60302Y-43028D01*
X60331Y-42959D01*
X60331Y-42884D01*
X60302Y-42814D01*
X60273Y-42785D01*
X60314Y-42745D01*
X60343Y-42676D01*
X60343Y-42601D01*
X60314Y-42531D01*
X60261Y-42478D01*
X60242Y-42470D01*
X59913Y-41759D01*
X59905Y-41748D01*
X59904Y-41744D01*
X59897Y-41736D01*
X59879Y-41711D01*
X59866Y-41703D01*
X59864Y-41701D01*
X59204Y-41223D01*
X59202Y-41217D01*
X59200Y-41215D01*
X59212Y-41204D01*
X59237Y-41144D01*
X59237Y-41080D01*
X59212Y-41020D01*
X59200Y-41008D01*
X59202Y-41007D01*
X59227Y-40947D01*
X59227Y-40883D01*
X59205Y-40830D01*
X59301Y-40830D01*
X59303Y-40830D01*
X59319Y-40826D01*
X59344Y-40822D01*
X59345Y-40821D01*
X59346Y-40821D01*
X59351Y-40817D01*
X59381Y-40799D01*
X59382Y-40797D01*
X59441Y-40740D01*
X59441Y-40738D01*
X59443Y-40738D01*
X59457Y-40716D01*
X59466Y-40704D01*
X59466Y-40703D01*
X59467Y-40702D01*
X59475Y-40662D01*
X59476Y-40659D01*
X59475Y-40509D01*
X59490Y-40518D01*
X59502Y-40527D01*
X59504Y-40528D01*
X59536Y-40534D01*
X59572Y-40570D01*
X59630Y-40594D01*
X59628Y-40607D01*
X59628Y-40609D01*
X59628Y-40610D01*
X59595Y-40643D01*
X59569Y-40706D01*
X59569Y-40774D01*
X59595Y-40837D01*
X59643Y-40885D01*
X59706Y-40911D01*
X59774Y-40911D01*
X59780Y-40908D01*
X59780Y-40910D01*
X59806Y-40973D01*
X59854Y-41021D01*
X59917Y-41047D01*
X59979Y-41047D01*
X59933Y-41066D01*
X59885Y-41114D01*
X59859Y-41177D01*
X59859Y-41245D01*
X59885Y-41308D01*
X59905Y-41328D01*
X59894Y-41340D01*
X59868Y-41403D01*
X59868Y-41471D01*
X59894Y-41534D01*
X59942Y-41582D01*
X60005Y-41608D01*
X60073Y-41608D01*
X60136Y-41582D01*
X60184Y-41534D01*
X60210Y-41471D01*
X60210Y-41403D01*
X60184Y-41340D01*
X60163Y-41319D01*
X60175Y-41308D01*
X60201Y-41245D01*
X60201Y-41177D01*
X60175Y-41114D01*
X60127Y-41066D01*
X60064Y-41040D01*
X60001Y-41040D01*
X60048Y-41021D01*
X60096Y-40973D01*
X60122Y-40910D01*
X60122Y-40863D01*
X60590Y-40394D01*
X60591Y-40394D01*
X60614Y-40358D01*
X60615Y-40358D01*
X60623Y-40315D01*
X60620Y-38756D01*
X60611Y-38713D01*
X60587Y-38677D01*
X59914Y-38004D01*
X59947Y-38004D01*
X60017Y-37975D01*
X60070Y-37922D01*
X60099Y-37853D01*
X60099Y-37778D01*
X60070Y-37708D01*
X60017Y-37655D01*
X59948Y-37626D01*
X59873Y-37626D01*
X59803Y-37655D01*
X59750Y-37708D01*
X59721Y-37777D01*
X59721Y-37811D01*
X59355Y-37445D01*
X59319Y-37421D01*
X59276Y-37412D01*
X58330Y-37412D01*
X56664Y-35746D01*
X57944Y-35746D01*
X57966Y-35750D01*
X58008Y-35741D01*
X58045Y-35717D01*
X58282Y-35474D01*
X60095Y-35476D01*
X60095Y-35516D01*
X60121Y-35579D01*
X60132Y-35590D01*
X60101Y-35622D01*
X60075Y-35685D01*
X60075Y-35753D01*
X60101Y-35816D01*
X60149Y-35864D01*
X60212Y-35890D01*
X60280Y-35890D01*
X60343Y-35864D01*
X60376Y-35831D01*
X60413Y-35831D01*
X60413Y-35830D01*
X60415Y-35831D01*
X60429Y-35827D01*
X60456Y-35822D01*
X60457Y-35821D01*
X60475Y-35809D01*
X60492Y-35798D01*
X60494Y-35797D01*
X60666Y-35618D01*
X60667Y-35617D01*
X60679Y-35598D01*
X60690Y-35582D01*
X60690Y-35581D01*
X60691Y-35580D01*
X60693Y-35567D01*
X60699Y-35539D01*
X60699Y-35430D01*
X60690Y-35387D01*
X60666Y-35351D01*
X60666Y-35350D01*
X60508Y-35193D01*
X60471Y-35169D01*
X60429Y-35160D01*
X60419Y-35162D01*
X60348Y-35162D01*
X60348Y-35096D01*
X60322Y-35033D01*
X60274Y-34985D01*
X60211Y-34959D01*
X60143Y-34959D01*
X60080Y-34985D01*
X60032Y-35033D01*
X60006Y-35096D01*
X60006Y-35162D01*
X59704Y-35162D01*
X59704Y-32131D01*
X59704Y-32094D01*
X59704Y-31498D01*
X59690Y-31464D01*
X59664Y-31438D01*
X59631Y-31424D01*
X59594Y-31424D01*
X58998Y-31424D01*
X58964Y-31438D01*
X58938Y-31464D01*
X58924Y-31497D01*
X58924Y-31534D01*
X58924Y-32130D01*
X58938Y-32164D01*
X58964Y-32190D01*
X58997Y-32204D01*
X59034Y-32204D01*
X59630Y-32204D01*
X59664Y-32190D01*
X59690Y-32164D01*
X59704Y-32131D01*
X59704Y-35162D01*
X58135Y-35162D01*
X58134Y-35162D01*
X58123Y-35164D01*
X58093Y-35170D01*
X58091Y-35170D01*
X58091Y-35171D01*
X58074Y-35182D01*
X58056Y-35194D01*
X57807Y-35435D01*
X54410Y-35435D01*
X54410Y-34479D01*
X54410Y-34404D01*
X54381Y-34334D01*
X54328Y-34281D01*
X54259Y-34252D01*
X54184Y-34252D01*
X54114Y-34281D01*
X54061Y-34334D01*
X54032Y-34403D01*
X54032Y-34478D01*
X54061Y-34548D01*
X54114Y-34601D01*
X54183Y-34630D01*
X54258Y-34630D01*
X54328Y-34601D01*
X54381Y-34548D01*
X54410Y-34479D01*
X54410Y-35435D01*
X54077Y-35435D01*
X54077Y-34877D01*
X54077Y-34809D01*
X54051Y-34746D01*
X54003Y-34698D01*
X53940Y-34672D01*
X53872Y-34672D01*
X53809Y-34698D01*
X53761Y-34746D01*
X53735Y-34809D01*
X53735Y-34877D01*
X53761Y-34940D01*
X53809Y-34988D01*
X53872Y-35014D01*
X53940Y-35014D01*
X54003Y-34988D01*
X54051Y-34940D01*
X54077Y-34877D01*
X54077Y-35435D01*
X53242Y-35435D01*
X53242Y-34896D01*
X53242Y-34828D01*
X53216Y-34765D01*
X53168Y-34717D01*
X53105Y-34691D01*
X53037Y-34691D01*
X52974Y-34717D01*
X52926Y-34765D01*
X52900Y-34828D01*
X52900Y-34896D01*
X52911Y-34924D01*
X52872Y-34924D01*
X52809Y-34950D01*
X52761Y-34998D01*
X52735Y-35061D01*
X52735Y-35129D01*
X52761Y-35192D01*
X52809Y-35240D01*
X52872Y-35266D01*
X52940Y-35266D01*
X53003Y-35240D01*
X53051Y-35192D01*
X53077Y-35129D01*
X53077Y-35061D01*
X53065Y-35033D01*
X53105Y-35033D01*
X53168Y-35007D01*
X53216Y-34959D01*
X53242Y-34896D01*
X53242Y-35435D01*
X52727Y-35435D01*
X52162Y-34870D01*
X52126Y-34846D01*
X52083Y-34837D01*
X51340Y-34837D01*
X51404Y-34772D01*
X52283Y-34768D01*
X52284Y-34768D01*
X52325Y-34759D01*
X52327Y-34759D01*
X52362Y-34735D01*
X54239Y-32858D01*
X57028Y-32858D01*
X57041Y-32855D01*
X57053Y-32855D01*
X57062Y-32850D01*
X57071Y-32849D01*
X57080Y-32842D01*
X57093Y-32837D01*
X58065Y-32143D01*
X58086Y-32164D01*
X58229Y-32224D01*
X58384Y-32224D01*
X58527Y-32165D01*
X58637Y-32055D01*
X58697Y-31912D01*
X58697Y-31757D01*
X58638Y-31614D01*
X58528Y-31504D01*
X58385Y-31444D01*
X58230Y-31444D01*
X58087Y-31503D01*
X57977Y-31613D01*
X57917Y-31756D01*
X57917Y-31911D01*
X57937Y-31959D01*
X56992Y-32634D01*
X56648Y-32634D01*
X57116Y-32176D01*
X57229Y-32224D01*
X57384Y-32224D01*
X57527Y-32165D01*
X57637Y-32055D01*
X57697Y-31912D01*
X57697Y-31757D01*
X57638Y-31614D01*
X57528Y-31504D01*
X57385Y-31444D01*
X57230Y-31444D01*
X57087Y-31503D01*
X56977Y-31613D01*
X56917Y-31756D01*
X56917Y-31911D01*
X56960Y-32016D01*
X56509Y-32457D01*
X55878Y-32457D01*
X56133Y-32183D01*
X56229Y-32224D01*
X56384Y-32224D01*
X56527Y-32165D01*
X56637Y-32055D01*
X56697Y-31912D01*
X56697Y-31757D01*
X56638Y-31614D01*
X56528Y-31504D01*
X56385Y-31444D01*
X56230Y-31444D01*
X56087Y-31503D01*
X55977Y-31613D01*
X55917Y-31756D01*
X55917Y-31911D01*
X55967Y-32033D01*
X55708Y-32309D01*
X54990Y-32309D01*
X55120Y-32178D01*
X55229Y-32224D01*
X55384Y-32224D01*
X55527Y-32165D01*
X55637Y-32055D01*
X55697Y-31912D01*
X55697Y-31757D01*
X55638Y-31614D01*
X55528Y-31504D01*
X55385Y-31444D01*
X55230Y-31444D01*
X55087Y-31503D01*
X54977Y-31613D01*
X54917Y-31756D01*
X54917Y-31911D01*
X54962Y-32020D01*
X54819Y-32164D01*
X54528Y-32164D01*
X54637Y-32055D01*
X54697Y-31912D01*
X54697Y-31757D01*
X54638Y-31614D01*
X54528Y-31504D01*
X54385Y-31444D01*
X54230Y-31444D01*
X54087Y-31503D01*
X53977Y-31613D01*
X53917Y-31756D01*
X53917Y-31911D01*
X53962Y-32020D01*
X52245Y-33738D01*
X52170Y-33738D01*
X52170Y-31792D01*
X52170Y-31644D01*
X52114Y-31508D01*
X52010Y-31403D01*
X51874Y-31346D01*
X51726Y-31346D01*
X51590Y-31402D01*
X51485Y-31506D01*
X51428Y-31642D01*
X51428Y-31790D01*
X51484Y-31926D01*
X51588Y-32031D01*
X51724Y-32088D01*
X51872Y-32088D01*
X52008Y-32032D01*
X52113Y-31928D01*
X52170Y-31792D01*
X52170Y-33738D01*
X51130Y-33738D01*
X51087Y-33747D01*
X51050Y-33771D01*
X50185Y-34637D01*
X50161Y-34673D01*
X50152Y-34716D01*
X50152Y-35686D01*
X49981Y-35857D01*
X49709Y-35857D01*
X49666Y-35866D01*
X49630Y-35890D01*
X49405Y-36114D01*
X49427Y-36062D01*
X49427Y-35994D01*
X49401Y-35931D01*
X49353Y-35883D01*
X49290Y-35857D01*
X49222Y-35857D01*
X49159Y-35883D01*
X49111Y-35931D01*
X49085Y-35994D01*
X49085Y-36062D01*
X49111Y-36125D01*
X49159Y-36173D01*
X49222Y-36199D01*
X49290Y-36199D01*
X49342Y-36177D01*
X49275Y-36245D01*
X49251Y-36281D01*
X49242Y-36324D01*
X49242Y-36880D01*
X49229Y-36867D01*
X49166Y-36841D01*
X49098Y-36841D01*
X49035Y-36867D01*
X48987Y-36915D01*
X48961Y-36978D01*
X48961Y-37046D01*
X48987Y-37109D01*
X49035Y-37157D01*
X49098Y-37183D01*
X49166Y-37183D01*
X49229Y-37157D01*
X49242Y-37144D01*
X49242Y-37272D01*
X49209Y-37305D01*
X49192Y-37345D01*
X48973Y-37126D01*
X48937Y-37102D01*
X48894Y-37093D01*
X48323Y-37093D01*
X48290Y-37060D01*
X48227Y-37034D01*
X48159Y-37034D01*
X48096Y-37060D01*
X48048Y-37108D01*
X48022Y-37171D01*
X48022Y-37239D01*
X48040Y-37284D01*
X48020Y-37305D01*
X47994Y-37368D01*
X47994Y-37436D01*
X48020Y-37499D01*
X48068Y-37547D01*
X48131Y-37573D01*
X48199Y-37573D01*
X48262Y-37547D01*
X48295Y-37514D01*
X48840Y-37514D01*
X49200Y-37874D01*
X49201Y-37874D01*
X49237Y-37898D01*
X49279Y-37906D01*
X49280Y-37907D01*
X51098Y-37907D01*
X51140Y-37898D01*
X51141Y-37898D01*
X51177Y-37874D01*
X51264Y-37787D01*
X51288Y-37751D01*
X51288Y-37750D01*
X51297Y-37708D01*
X51297Y-36861D01*
X51476Y-37040D01*
X51477Y-37040D01*
X51478Y-37042D01*
X51513Y-37064D01*
X51514Y-37065D01*
X51538Y-37069D01*
X51555Y-37073D01*
X51556Y-37072D01*
X51558Y-37073D01*
X51601Y-37072D01*
X51627Y-37098D01*
X51583Y-37143D01*
X51557Y-37206D01*
X51557Y-37274D01*
X51583Y-37337D01*
X51616Y-37370D01*
X51576Y-37411D01*
X51550Y-37474D01*
X51550Y-37542D01*
X51576Y-37605D01*
X51624Y-37653D01*
X51687Y-37679D01*
X51755Y-37679D01*
X51818Y-37653D01*
X51851Y-37620D01*
X52131Y-37620D01*
X52256Y-37745D01*
X52257Y-37745D01*
X52293Y-37769D01*
X52336Y-37778D01*
X52378Y-37778D01*
X52372Y-37793D01*
X52372Y-37861D01*
X52379Y-37880D01*
X51847Y-37880D01*
X51814Y-37847D01*
X51751Y-37821D01*
X51683Y-37821D01*
X51620Y-37847D01*
X51572Y-37895D01*
X51546Y-37958D01*
X51546Y-38026D01*
X51572Y-38089D01*
X51620Y-38137D01*
X51683Y-38163D01*
X51751Y-38163D01*
X51814Y-38137D01*
X51847Y-38104D01*
X52354Y-38104D01*
X52345Y-38128D01*
X52345Y-38174D01*
X52245Y-38274D01*
X48364Y-38274D01*
X48364Y-38018D01*
X48364Y-37950D01*
X48338Y-37887D01*
X48290Y-37839D01*
X48227Y-37813D01*
X48159Y-37813D01*
X48096Y-37839D01*
X48048Y-37887D01*
X48022Y-37950D01*
X48022Y-38018D01*
X48048Y-38081D01*
X48096Y-38129D01*
X48159Y-38155D01*
X48227Y-38155D01*
X48290Y-38129D01*
X48338Y-38081D01*
X48364Y-38018D01*
X48364Y-38274D01*
X48351Y-38274D01*
X48318Y-38241D01*
X48255Y-38215D01*
X48187Y-38215D01*
X48124Y-38241D01*
X48076Y-38289D01*
X48050Y-38352D01*
X48050Y-38420D01*
X48071Y-38470D01*
X48048Y-38494D01*
X48022Y-38557D01*
X48022Y-38621D01*
X47982Y-38638D01*
X47972Y-38648D01*
X47972Y-35604D01*
X47995Y-35550D01*
X47995Y-35443D01*
X47972Y-35387D01*
X47972Y-35171D01*
X47995Y-35117D01*
X47995Y-35010D01*
X47972Y-34954D01*
X47972Y-34738D01*
X47995Y-34684D01*
X47995Y-34577D01*
X47972Y-34521D01*
X47972Y-30688D01*
X56326Y-30688D01*
X56371Y-30707D01*
X56478Y-30707D01*
X56523Y-30688D01*
X56759Y-30688D01*
X56804Y-30707D01*
X56911Y-30707D01*
X56956Y-30688D01*
X57192Y-30688D01*
X57237Y-30707D01*
X57344Y-30707D01*
X57389Y-30688D01*
X57626Y-30688D01*
X57671Y-30707D01*
X57778Y-30707D01*
X57823Y-30688D01*
X66005Y-30688D01*
X66005Y-39500D01*
X65998Y-39517D01*
X65998Y-39624D01*
X66005Y-39640D01*
X66005Y-39933D01*
X65998Y-39950D01*
X65998Y-40057D01*
X66005Y-40073D01*
X66005Y-40366D01*
X65998Y-40383D01*
X65998Y-40490D01*
X66005Y-40506D01*
X66005Y-40799D01*
X65998Y-40816D01*
X65998Y-40923D01*
X66005Y-40939D01*
X66005Y-49548D01*
M02*
