M48
;DRILL file {Pcbnew (2013-05-31 BZR 4019)-stable} date 03/03/2014 21:17:13
;FORMAT={-:-/ absolute / metric / decimal}
FMAT,2
METRIC,TZ
T1C0.099
T2C0.196
T3C0.198
T4C0.201
T5C0.297
T6C0.300
T7C0.798
T8C0.899
T9C1.097
T10C3.198
%
G90
G05
M71
T1
X154.12Y-88.41
X156.18Y-114.33
X156.24Y-113.33
X157.11Y-112.83
X157.45Y-115.38
X158.95Y-112.88
T2
X121.981Y-100.51
X121.991Y-103.
X122.001Y-95.501
X122.001Y-106.51
X122.001Y-109.012
X122.039Y-97.
X122.11Y-104.501
X122.121Y-98.509
X122.179Y-113.01
X122.2Y-78.3
X122.2Y-79.2
X122.2Y-80.2
X122.2Y-81.
X122.2Y-82.
X122.2Y-83.2
X122.2Y-84.2
X122.2Y-85.2
X122.2Y-86.2
X122.2Y-87.4
X122.2Y-88.2
X122.2Y-89.2
X122.2Y-90.4
X122.2Y-116.
X122.2Y-117.2
X122.2Y-118.2
X122.2Y-119.4
X122.2Y-120.4
X122.2Y-121.4
X122.2Y-122.4
X122.2Y-123.6
X122.2Y-124.6
X122.2Y-125.4
X122.311Y-91.011
X122.311Y-92.011
X122.311Y-108.521
X122.339Y-95.001
X122.359Y-103.5
X122.359Y-107.521
X122.38Y-102.502
X122.38Y-107.01
X122.39Y-101.511
X122.41Y-94.501
X122.41Y-96.479
X122.41Y-98.021
X122.42Y-100.
X122.42Y-105.999
X122.42Y-110.51
X122.431Y-101.011
X122.431Y-104.01
X122.481Y-97.5
X123.Y-81.
X123.Y-82.
X123.Y-83.2
X123.Y-84.2
X123.Y-116.
X123.Y-117.2
X123.Y-118.2
X123.Y-119.4
X123.Y-120.4
X123.Y-121.4
X123.Y-122.4
X123.Y-123.6
X123.Y-124.6
X123.2Y-78.3
X123.2Y-125.4
X123.4Y-87.4
X123.4Y-88.4
X123.4Y-89.6
X123.8Y-85.2
X123.8Y-86.
X123.8Y-119.6
X124.Y-84.4
X124.Y-124.6
X124.2Y-89.
X124.2Y-118.8
X124.25Y-79.25
X124.4Y-78.3
X124.4Y-89.8
X124.4Y-97.
X124.4Y-109.6
X124.4Y-110.6
X124.4Y-125.4
X124.795Y-94.01
X124.8Y-85.2
X124.8Y-86.
X124.8Y-92.6
X125.Y-118.8
X125.11Y-91.511
X125.2Y-109.6
X125.2Y-110.6
X125.359Y-95.001
X125.4Y-78.3
X125.4Y-96.6
X125.4Y-105.2
X125.4Y-106.4
X125.4Y-125.4
X125.6Y-99.4
X125.6Y-100.4
X125.8Y-93.2
X125.8Y-102.
X125.8Y-103.
X125.819Y-108.25
X125.895Y-109.012
X126.Y-85.2
X126.Y-86.
X126.07Y-94.501
X126.35Y-92.519
X126.36Y-92.011
X126.4Y-97.
X126.4Y-99.4
X126.4Y-100.4
X126.4Y-109.6
X126.4Y-110.6
X126.4Y-118.6
X126.4Y-125.4
X126.6Y-78.3
X126.6Y-102.
X126.6Y-103.
X126.789Y-94.01
X126.8Y-105.2
X126.8Y-106.4
X127.Y-85.2
X127.Y-86.
X127.2Y-109.6
X127.2Y-110.6
X127.4Y-96.6
X127.6Y-78.3
X127.6Y-125.4
X127.8Y-118.8
X128.Y-124.8
X128.6Y-79.4
X128.8Y-78.3
X128.8Y-119.6
X129.Y-83.8
X129.Y-124.
X129.339Y-113.01
X129.771Y-104.01
X130.Y-83.6
X130.Y-84.6
X130.551Y-107.582
X130.67Y-91.26
X131.Y-83.6
X131.Y-84.6
X131.161Y-107.582
X131.239Y-89.632
X131.361Y-96.5
X131.371Y-95.27
X131.389Y-93.871
X131.389Y-94.59
X131.399Y-92.611
X131.45Y-103.5
X131.869Y-107.582
X132.11Y-88.389
X132.2Y-83.6
X132.2Y-84.6
X132.38Y-107.579
X132.57Y-91.161
X132.621Y-103.261
X132.669Y-101.641
X132.71Y-102.601
X132.781Y-103.751
X133.01Y-98.481
X133.06Y-99.52
X133.101Y-101.13
X133.2Y-83.6
X133.2Y-84.6
X133.261Y-104.249
X133.391Y-96.931
X133.439Y-105.999
X133.459Y-96.081
X133.721Y-95.27
X134.29Y-93.35
X134.29Y-94.811
X134.381Y-89.141
X134.8Y-78.75
X134.8Y-88.549
X135.44Y-92.591
X135.8Y-78.75
X136.091Y-106.489
X136.091Y-106.99
X136.101Y-102.111
X136.111Y-104.242
X136.121Y-104.739
X136.149Y-103.02
X136.169Y-100.51
X136.21Y-100.
X136.271Y-99.012
X136.271Y-105.501
X136.301Y-97.422
X136.301Y-97.93
X136.6Y-96.
X136.6Y-120.
X136.6Y-121.4
X136.921Y-88.501
X137.Y-78.75
X137.Y-123.6
X137.2Y-105.
X137.6Y-99.4
X137.6Y-122.8
X137.8Y-121.4
X138.Y-78.75
X138.Y-96.
X138.2Y-83.8
X138.2Y-84.6
X138.2Y-123.6
X138.311Y-94.79
X138.321Y-110.432
X138.6Y-85.8
X138.6Y-107.6
X138.6Y-122.8
X138.631Y-112.331
X138.991Y-91.63
X138.991Y-109.36
X139.029Y-92.281
X139.2Y-78.75
X139.2Y-83.8
X139.2Y-84.6
X139.2Y-112.
X139.2Y-123.6
X139.659Y-109.38
X139.8Y-122.8
X140.2Y-78.75
X140.272Y-109.39
X140.36Y-104.671
X140.4Y-83.8
X140.4Y-84.6
X140.4Y-123.6
X140.432Y-102.669
X140.459Y-97.099
X140.47Y-101.681
X140.63Y-103.68
X140.701Y-100.681
X140.8Y-110.4
X140.8Y-118.8
X140.83Y-106.289
X140.851Y-109.39
X141.11Y-99.131
X141.321Y-93.36
X141.4Y-78.75
X141.4Y-83.8
X141.4Y-84.6
X141.4Y-114.2
X141.4Y-123.6
X141.481Y-103.17
X141.491Y-106.271
X141.501Y-100.19
X141.569Y-101.171
X141.661Y-102.189
X141.77Y-105.171
X141.8Y-118.8
X141.811Y-99.179
X141.961Y-104.181
X142.07Y-97.861
X142.192Y-94.96
X142.199Y-96.561
X142.4Y-78.75
X142.6Y-83.8
X142.6Y-84.6
X142.9Y-109.101
X143.Y-118.8
X143.01Y-106.52
X143.05Y-96.83
X143.6Y-83.8
X143.6Y-84.6
X143.7Y-78.8
X143.701Y-96.85
X143.8Y-117.6
X144.Y-118.8
X144.2Y-85.8
X144.229Y-99.751
X144.229Y-100.851
X144.229Y-101.951
X144.229Y-103.05
X144.229Y-104.15
X144.65Y-108.25
X144.671Y-106.83
X144.7Y-78.8
X144.78Y-99.2
X144.78Y-100.3
X144.78Y-101.399
X144.78Y-102.499
X144.78Y-103.599
X144.8Y-83.8
X144.8Y-84.6
X144.8Y-117.6
X145.019Y-89.639
X145.049Y-92.931
X145.2Y-118.8
X145.301Y-106.86
X145.329Y-99.751
X145.329Y-100.851
X145.329Y-101.951
X145.329Y-103.05
X145.329Y-104.15
X145.8Y-83.8
X145.8Y-84.6
X145.88Y-99.2
X145.88Y-100.3
X145.88Y-101.399
X145.88Y-102.499
X145.88Y-103.599
X145.9Y-78.8
X145.961Y-106.52
X146.2Y-118.8
X146.439Y-99.751
X146.439Y-100.851
X146.439Y-101.951
X146.439Y-103.05
X146.439Y-104.15
X146.9Y-78.8
X146.98Y-99.2
X146.98Y-100.3
X146.98Y-101.399
X146.98Y-102.499
X146.98Y-103.599
X147.4Y-118.8
X147.528Y-99.751
X147.528Y-100.851
X147.528Y-101.951
X147.528Y-103.05
X147.528Y-104.15
X147.8Y-124.6
X147.8Y-125.4
X147.97Y-92.019
X148.079Y-99.2
X148.079Y-100.3
X148.079Y-101.399
X148.079Y-102.499
X148.079Y-103.599
X148.1Y-78.8
X148.2Y-121.4
X148.2Y-122.6
X148.2Y-123.6
X148.219Y-90.241
X148.26Y-93.429
X148.369Y-110.51
X148.4Y-118.8
X148.628Y-99.751
X148.628Y-100.851
X148.628Y-101.951
X148.628Y-103.05
X148.628Y-104.15
X148.681Y-106.611
X148.91Y-112.751
X149.Y-124.6
X149.Y-125.4
X149.1Y-78.8
X149.179Y-99.2
X149.179Y-100.3
X149.179Y-101.399
X149.179Y-102.499
X149.179Y-103.599
X149.2Y-106.601
X149.4Y-84.6
X150.Y-117.6
X150.Y-124.6
X150.Y-125.4
X150.241Y-96.449
X150.3Y-78.8
X150.4Y-85.8
X150.551Y-106.19
X150.574Y-106.85
X150.6Y-84.6
X151.Y-117.6
X151.Y-124.6
X151.Y-125.4
X151.15Y-91.57
X151.3Y-78.8
X151.501Y-102.171
X151.511Y-91.249
X151.559Y-102.679
X151.8Y-84.6
X151.859Y-101.27
X152.2Y-124.6
X152.2Y-125.4
X152.276Y-103.825
X152.301Y-112.55
X152.7Y-78.8
X152.8Y-84.6
X152.85Y-89.23
X152.921Y-110.449
X153.Y-82.8
X153.025Y-90.726
X153.076Y-90.124
X153.2Y-124.6
X153.2Y-125.4
X153.7Y-78.8
X154.2Y-82.8
X154.2Y-124.6
X154.2Y-125.4
X154.4Y-84.6
X154.64Y-96.741
X154.9Y-78.8
X154.968Y-94.96
X155.001Y-89.403
X155.001Y-90.261
X155.4Y-82.8
X155.4Y-124.6
X155.4Y-125.4
X155.611Y-101.78
X155.8Y-84.6
X155.9Y-78.8
X155.92Y-90.272
X155.941Y-89.39
X156.2Y-117.8
X156.4Y-124.6
X156.4Y-125.4
X156.6Y-85.8
X156.68Y-109.87
X157.1Y-78.8
X157.6Y-82.8
X157.6Y-84.6
X157.6Y-124.6
X157.6Y-125.4
X157.68Y-113.56
X157.8Y-118.8
X157.8Y-119.6
X157.871Y-92.86
X158.1Y-78.8
X158.18Y-114.05
X158.6Y-124.6
X158.6Y-125.4
X158.8Y-118.8
X158.8Y-119.6
X159.Y-84.6
X159.2Y-82.8
X159.3Y-78.8
X159.8Y-124.6
X159.8Y-125.4
X160.Y-118.8
X160.Y-119.6
X160.2Y-95.2
X160.2Y-96.2
X160.2Y-101.2
X160.2Y-102.2
X160.3Y-78.8
X160.4Y-107.2
X160.4Y-108.2
X160.8Y-84.4
X160.8Y-124.6
X160.8Y-125.4
X161.Y-118.8
X161.Y-119.6
X161.15Y-82.9
X161.2Y-120.8
X161.35Y-78.8
X161.4Y-86.6
X161.4Y-87.4
X161.4Y-92.
X161.4Y-92.8
X161.4Y-93.8
X161.4Y-95.
X161.4Y-96.
X161.4Y-97.2
X161.4Y-98.2
X161.4Y-99.4
X161.4Y-100.4
X161.4Y-101.6
X161.4Y-110.6
X161.4Y-111.4
X161.4Y-116.4
X161.4Y-117.2
X161.6Y-102.6
X161.6Y-103.6
X161.6Y-104.8
X161.6Y-105.8
X161.6Y-107.
X161.6Y-108.
X161.6Y-109.2
X161.6Y-118.2
X161.8Y-85.6
X162.Y-119.6
X162.2Y-118.8
X162.35Y-78.8
X162.4Y-84.4
X162.4Y-86.6
X162.4Y-87.4
X162.4Y-92.
X162.4Y-92.8
X162.4Y-93.6
X162.4Y-110.6
X162.4Y-111.4
X162.4Y-116.4
X162.4Y-117.2
X162.6Y-125.4
X163.Y-85.8
X163.2Y-110.
X163.2Y-118.2
X163.4Y-93.6
X163.7Y-78.4
X163.8Y-125.4
X164.Y-85.8
X164.2Y-110.
X164.2Y-118.2
X164.4Y-93.6
X164.7Y-78.4
X164.8Y-125.4
X165.2Y-85.8
X165.4Y-110.
X165.4Y-118.2
X165.6Y-93.6
X166.Y-125.4
X166.2Y-84.8
X166.2Y-85.8
X166.4Y-110.
X166.4Y-118.2
X166.4Y-119.
X166.6Y-93.6
X166.6Y-124.6
X167.Y-125.4
X167.2Y-84.4
X167.2Y-85.6
X167.2Y-96.6
X167.2Y-97.6
X167.2Y-98.8
X167.2Y-99.8
X167.2Y-101.
X167.2Y-102.
X167.2Y-103.6
X167.2Y-104.6
X167.2Y-105.8
X167.2Y-106.8
X167.2Y-118.2
X167.2Y-119.
X167.2Y-119.8
X167.4Y-80.
X167.4Y-93.6
X167.4Y-110.
X167.4Y-123.6
X167.4Y-124.6
T3
X150.749Y-94.521
X151.74Y-103.48
X151.76Y-99.111
X152.1Y-94.96
X152.476Y-104.676
X152.499Y-105.25
X153.21Y-101.559
X153.261Y-99.68
X153.601Y-104.14
X154.381Y-100.091
X154.701Y-92.1
X155.199Y-103.721
X155.519Y-107.13
X157.371Y-88.45
X157.371Y-91.27
T4
X143.35Y-98.425
X143.35Y-98.925
X143.35Y-99.426
X143.35Y-99.926
X143.35Y-100.424
X143.35Y-100.924
X143.35Y-101.425
X143.35Y-101.925
X143.35Y-102.425
X143.35Y-102.926
X143.35Y-103.426
X143.35Y-103.924
X143.35Y-104.424
X143.375Y-104.925
X143.924Y-105.001
X143.949Y-98.326
X144.424Y-105.001
X144.45Y-98.349
X144.925Y-105.001
X144.95Y-98.349
X145.425Y-105.001
X146.949Y-98.349
X147.925Y-105.001
X148.425Y-105.001
X150.Y-101.925
X150.025Y-98.425
X150.025Y-98.925
X150.025Y-99.426
X150.025Y-99.926
X150.025Y-100.924
X150.025Y-101.425
X150.025Y-102.425
X150.025Y-102.926
X150.025Y-103.426
X150.025Y-103.924
X150.025Y-104.925
X150.05Y-104.424
T5
X122.271Y-111.27
X122.301Y-99.261
X122.321Y-93.261
X122.4Y-105.25
X122.507Y-114.521
X123.307Y-114.521
X124.107Y-114.521
X129.339Y-111.249
X129.57Y-93.221
X129.969Y-86.98
X129.969Y-113.861
X129.969Y-114.46
X130.365Y-120.058
X130.365Y-120.96
X130.365Y-121.958
X130.365Y-122.961
X130.365Y-123.957
X130.365Y-124.96
X131.369Y-120.058
X131.369Y-124.96
X132.065Y-115.252
X132.065Y-116.053
X132.364Y-124.955
X132.37Y-120.058
X132.563Y-116.655
X132.669Y-110.797
X133.068Y-110.297
X133.368Y-120.058
X133.368Y-124.96
X133.563Y-116.655
X133.568Y-110.797
X133.97Y-110.297
X134.066Y-115.252
X134.066Y-116.053
X134.14Y-114.28
X134.366Y-120.058
X134.366Y-120.96
X134.366Y-121.958
X134.366Y-122.961
X134.366Y-123.957
X134.371Y-124.96
X134.47Y-110.795
X135.801Y-116.37
X135.989Y-111.409
X135.989Y-112.26
X137.721Y-87.48
X137.841Y-118.13
X139.57Y-94.851
X139.781Y-115.001
X140.251Y-114.27
X141.6Y-110.52
X142.499Y-111.697
X143.2Y-111.697
X144.229Y-109.659
X146.477Y-113.076
X146.7Y-110.36
X147.279Y-122.641
X147.325Y-120.65
X147.991Y-109.591
X148.885Y-114.884
X149.799Y-118.801
X152.171Y-96.05
X152.761Y-109.019
X152.791Y-108.301
X156.449Y-96.731
X156.789Y-103.241
X157.025Y-106.726
X157.571Y-100.33
X157.579Y-101.1
T6
X141.171Y-89.23
X142.471Y-89.86
T7
X130.299Y-79.291
X130.299Y-81.831
X131.569Y-80.561
X132.839Y-79.291
X132.839Y-81.831
T8
X121.221Y-87.96
X121.221Y-89.06
X121.221Y-90.16
X121.221Y-110.411
X121.221Y-111.511
X121.221Y-112.611
X135.4Y-80.808
X137.94Y-80.858
X140.48Y-80.858
X143.02Y-80.858
X143.32Y-77.31
X143.322Y-126.411
X143.703Y-124.661
X144.419Y-77.31
X144.422Y-126.411
X145.519Y-77.31
X145.522Y-126.411
X145.56Y-80.858
X146.243Y-124.661
X146.621Y-77.31
X146.624Y-126.411
X148.1Y-80.858
X149.969Y-122.758
X150.658Y-80.808
X152.509Y-122.809
X153.198Y-80.858
X155.049Y-122.809
X155.738Y-80.858
X157.589Y-122.809
X158.278Y-80.858
X160.129Y-122.809
X160.818Y-80.858
X168.321Y-100.51
X168.321Y-101.61
X168.321Y-102.71
X168.321Y-103.81
T9
X125.867Y-89.057
X125.867Y-115.453
T10
X126.37Y-81.859
X126.37Y-121.856
X164.569Y-81.859
X164.569Y-121.856
T0
M30
