G04 (created by PCBNEW-RS274X (2012-08-04 BZR 3667)-testing) date 10/19/2012 7:17:05 PM*
%MOIN*%
G04 Gerber Fmt 3.4, Leading zero omitted, Abs format*
%FSLAX34Y34*%
G01*
G70*
G90*
G04 APERTURE LIST*
%ADD10C,0.0017*%
%ADD11C,0.0077*%
%ADD12C,0.0059*%
%ADD13C,0.0078*%
%ADD14C,0.0079*%
%ADD15C,0.0117*%
%ADD16C,0.0039*%
%ADD17C,0.0097*%
%ADD18C,0.0069*%
G04 APERTURE END LIST*
G54D10*
G54D11*
X60335Y-43268D02*
X60335Y-42677D01*
X61575Y-43268D02*
X60335Y-43268D01*
X61575Y-42677D02*
X61575Y-43268D01*
X60334Y-42677D02*
X61574Y-42677D01*
X59843Y-37343D02*
X59843Y-36260D01*
X61142Y-37343D02*
X59843Y-37343D01*
X61142Y-36260D02*
X61142Y-37343D01*
X59842Y-36259D02*
X61142Y-36259D01*
X55413Y-37106D02*
X55433Y-37106D01*
X55412Y-37697D02*
X55412Y-37106D01*
X56634Y-37697D02*
X55413Y-37697D01*
X56634Y-37106D02*
X56634Y-37697D01*
X55413Y-37106D02*
X56634Y-37106D01*
G54D12*
X41831Y-53937D02*
G75*
G03X41831Y-53937I-492J0D01*
G74*
G01*
X40355Y-53937D02*
X42323Y-53937D01*
X41339Y-52953D02*
X41339Y-54921D01*
X70964Y-26378D02*
G75*
G03X70964Y-26378I-492J0D01*
G74*
G01*
X69488Y-26378D02*
X71456Y-26378D01*
X70472Y-25394D02*
X70472Y-27362D01*
X41831Y-26378D02*
G75*
G03X41831Y-26378I-492J0D01*
G74*
G01*
X40355Y-26378D02*
X42323Y-26378D01*
X41339Y-25394D02*
X41339Y-27362D01*
G54D11*
X66126Y-37091D02*
X66126Y-37736D01*
X63813Y-37092D02*
X63813Y-37732D01*
X42606Y-52483D02*
X42606Y-27680D01*
X68983Y-52483D02*
X42606Y-52483D01*
X68983Y-27680D02*
X68983Y-52483D01*
X42606Y-27680D02*
X68983Y-27680D01*
X66228Y-30437D02*
X66228Y-39492D01*
X57764Y-30437D02*
X66228Y-30437D01*
X57764Y-29650D02*
X57764Y-30437D01*
X67016Y-29650D02*
X57764Y-29650D01*
X67016Y-39492D02*
X67016Y-29650D01*
X66228Y-39492D02*
X67016Y-39492D01*
X57764Y-50515D02*
X57764Y-49728D01*
X67016Y-50515D02*
X57764Y-50515D01*
X67016Y-40948D02*
X67016Y-50515D01*
X66228Y-40948D02*
X67016Y-40948D01*
X66228Y-49728D02*
X66228Y-40948D01*
X57764Y-49728D02*
X66228Y-49728D01*
X46936Y-50515D02*
X46936Y-44413D01*
X56386Y-50515D02*
X46936Y-50515D01*
X56386Y-49728D02*
X56386Y-50515D01*
X47724Y-49728D02*
X56386Y-49728D01*
X47724Y-44413D02*
X47724Y-49728D01*
X46936Y-44413D02*
X47724Y-44413D01*
X46936Y-43390D02*
X46936Y-35555D01*
X47724Y-43390D02*
X46936Y-43390D01*
X47724Y-35555D02*
X47724Y-43390D01*
X46936Y-35555D02*
X47724Y-35555D01*
X47724Y-30437D02*
X47724Y-34570D01*
X46936Y-34570D02*
X47724Y-34570D01*
X46936Y-29648D02*
X46936Y-34570D01*
X46936Y-29648D02*
X56384Y-29648D01*
X56384Y-29648D02*
X56384Y-30437D01*
X47724Y-30437D02*
X56384Y-30437D01*
G54D13*
X63815Y-37091D02*
X66125Y-37091D01*
G54D14*
X64018Y-42572D02*
X64242Y-42572D01*
X64130Y-42964D02*
X64130Y-42572D01*
X64336Y-42572D02*
X64597Y-42964D01*
X64597Y-42572D02*
X64336Y-42964D01*
X64690Y-42572D02*
X64914Y-42572D01*
X64802Y-42964D02*
X64802Y-42572D01*
X65045Y-42758D02*
X65176Y-42758D01*
X65232Y-42964D02*
X65045Y-42964D01*
X65045Y-42572D01*
X65232Y-42572D01*
X65382Y-42945D02*
X65438Y-42964D01*
X65531Y-42964D01*
X65568Y-42945D01*
X65587Y-42926D01*
X65606Y-42889D01*
X65606Y-42852D01*
X65587Y-42814D01*
X65568Y-42796D01*
X65531Y-42777D01*
X65456Y-42758D01*
X65419Y-42740D01*
X65400Y-42721D01*
X65382Y-42684D01*
X65382Y-42646D01*
X65400Y-42609D01*
X65419Y-42590D01*
X65456Y-42572D01*
X65550Y-42572D01*
X65606Y-42590D01*
X65717Y-42572D02*
X65941Y-42572D01*
X65829Y-42964D02*
X65829Y-42572D01*
G54D13*
X63850Y-43075D02*
X66162Y-43075D01*
G54D11*
X63849Y-42447D02*
X63849Y-43075D01*
G54D13*
X63850Y-42449D02*
X66162Y-42449D01*
G54D11*
X66165Y-42447D02*
X66165Y-43075D01*
G54D13*
X63815Y-37737D02*
X66125Y-37737D01*
G54D14*
X64217Y-37607D02*
X64087Y-37420D01*
X63993Y-37607D02*
X63993Y-37215D01*
X64143Y-37215D01*
X64180Y-37233D01*
X64199Y-37252D01*
X64217Y-37289D01*
X64217Y-37345D01*
X64199Y-37383D01*
X64180Y-37401D01*
X64143Y-37420D01*
X63993Y-37420D01*
X64348Y-37215D02*
X64609Y-37607D01*
X64609Y-37215D02*
X64348Y-37607D01*
X64702Y-37215D02*
X64926Y-37215D01*
X64814Y-37607D02*
X64814Y-37215D01*
X65057Y-37401D02*
X65188Y-37401D01*
X65244Y-37607D02*
X65057Y-37607D01*
X65057Y-37215D01*
X65244Y-37215D01*
X65394Y-37588D02*
X65450Y-37607D01*
X65543Y-37607D01*
X65580Y-37588D01*
X65599Y-37569D01*
X65618Y-37532D01*
X65618Y-37495D01*
X65599Y-37457D01*
X65580Y-37439D01*
X65543Y-37420D01*
X65468Y-37401D01*
X65431Y-37383D01*
X65412Y-37364D01*
X65394Y-37327D01*
X65394Y-37289D01*
X65412Y-37252D01*
X65431Y-37233D01*
X65468Y-37215D01*
X65562Y-37215D01*
X65618Y-37233D01*
X65729Y-37215D02*
X65953Y-37215D01*
X65841Y-37607D02*
X65841Y-37215D01*
G54D15*
X56336Y-47858D02*
X56728Y-47858D01*
X52020Y-43840D02*
X52020Y-44232D01*
X52020Y-44576D02*
X52020Y-44968D01*
G54D11*
X51523Y-35221D02*
X51367Y-35221D01*
X61685Y-36637D02*
X61685Y-36481D01*
X60383Y-41705D02*
X60539Y-41705D01*
X55377Y-38744D02*
X55221Y-38744D01*
X60905Y-41689D02*
X60749Y-41689D01*
X60540Y-38599D02*
X60696Y-38599D01*
X60342Y-38587D02*
X60186Y-38587D01*
X59587Y-37839D02*
X59743Y-37839D01*
X58701Y-42963D02*
X58897Y-42963D01*
X57923Y-36122D02*
X57727Y-36122D01*
X59745Y-42953D02*
X59941Y-42953D01*
X58630Y-35838D02*
X58630Y-35642D01*
X57272Y-36885D02*
X57272Y-36689D01*
X58374Y-36398D02*
X58570Y-36398D01*
X57264Y-35610D02*
X57264Y-35414D01*
X58787Y-37968D02*
X58787Y-37772D01*
X59350Y-36417D02*
X59154Y-36417D01*
X58126Y-42618D02*
X58126Y-42422D01*
X57293Y-42402D02*
X57293Y-42598D01*
X59862Y-44508D02*
X59862Y-44704D01*
X58878Y-44055D02*
X59074Y-44055D01*
X59862Y-43386D02*
X59862Y-43582D01*
X57067Y-38082D02*
X57067Y-37886D01*
X56398Y-36598D02*
X56398Y-36402D01*
X55720Y-36398D02*
X55720Y-36594D01*
X57874Y-38090D02*
X57874Y-37894D01*
X57293Y-47363D02*
X57293Y-47637D01*
X57303Y-48147D02*
X57303Y-48421D01*
X54327Y-45413D02*
X54327Y-45139D01*
X51332Y-43158D02*
X51606Y-43158D01*
X53272Y-44714D02*
X53272Y-44988D01*
X55000Y-44775D02*
X55000Y-44501D01*
X54205Y-43745D02*
X54205Y-44019D01*
X59193Y-35227D02*
X59193Y-35383D01*
X59504Y-44953D02*
X59504Y-45109D01*
X58799Y-44684D02*
X58799Y-44528D01*
X59771Y-44055D02*
X59615Y-44055D01*
X58799Y-43582D02*
X58799Y-43426D01*
X59202Y-42953D02*
X59046Y-42953D01*
X59566Y-42953D02*
X59410Y-42953D01*
X59307Y-42399D02*
X59307Y-42555D01*
X59499Y-36407D02*
X59655Y-36407D01*
X57646Y-45721D02*
X57646Y-45877D01*
X57799Y-34981D02*
X57799Y-35137D01*
X58082Y-43110D02*
X57926Y-43110D01*
X57539Y-43110D02*
X57383Y-43110D01*
X57844Y-42087D02*
X57844Y-42243D01*
X58934Y-37303D02*
X59090Y-37303D01*
X59425Y-35666D02*
X59425Y-35822D01*
X58721Y-36398D02*
X58877Y-36398D01*
X57363Y-36112D02*
X57519Y-36112D01*
X52153Y-36418D02*
X52153Y-36574D01*
X58002Y-35444D02*
X58002Y-35600D01*
X57993Y-37402D02*
X58149Y-37402D01*
X57599Y-37402D02*
X57755Y-37402D01*
X57182Y-37398D02*
X57338Y-37398D01*
X58002Y-36703D02*
X58002Y-36859D01*
X57941Y-34355D02*
X57941Y-34511D01*
X56796Y-37390D02*
X56952Y-37390D01*
X58469Y-37303D02*
X58625Y-37303D01*
X62394Y-35221D02*
X62394Y-35377D01*
X48454Y-36953D02*
X48610Y-36953D01*
X48610Y-37634D02*
X48454Y-37634D01*
X60441Y-38032D02*
X60441Y-38188D01*
X60445Y-39005D02*
X60445Y-39161D01*
X60441Y-39328D02*
X60441Y-39484D01*
X60650Y-40753D02*
X60650Y-40909D01*
X60638Y-42095D02*
X60638Y-42251D01*
X55106Y-39330D02*
X55106Y-39174D01*
X60658Y-41095D02*
X60658Y-41251D01*
X53688Y-46914D02*
X53923Y-46914D01*
X53923Y-46914D02*
X53923Y-49432D01*
X53688Y-49432D02*
X53923Y-49432D01*
X59162Y-47129D02*
X59162Y-46973D01*
G54D16*
X66736Y-43476D02*
X66736Y-46154D01*
X66736Y-46154D02*
X66263Y-46154D01*
X66263Y-43476D02*
X66735Y-43476D01*
X66720Y-33959D02*
X66720Y-36637D01*
X66720Y-36637D02*
X66247Y-36637D01*
X66247Y-33959D02*
X66719Y-33959D01*
G54D13*
X50935Y-30853D02*
X52663Y-30853D01*
X52663Y-30853D02*
X52663Y-32581D01*
X50935Y-32581D02*
X52663Y-32581D01*
X50935Y-30853D02*
X50935Y-32581D01*
X52815Y-31342D02*
X52815Y-32326D01*
X52815Y-31342D02*
X58799Y-31342D01*
X58799Y-31342D02*
X58799Y-32326D01*
X52815Y-32326D02*
X58799Y-32326D01*
X58106Y-49551D02*
X58106Y-48607D01*
X58106Y-49551D02*
X56072Y-49551D01*
X56072Y-49551D02*
X56072Y-48607D01*
X58106Y-48607D02*
X56072Y-48607D01*
G54D15*
X61557Y-45802D02*
G75*
G03X61557Y-45802I-8J0D01*
G74*
G01*
G54D14*
X61709Y-45986D02*
X61709Y-44846D01*
X61709Y-44846D02*
X60531Y-44846D01*
X60531Y-44846D02*
X60531Y-45986D01*
X60531Y-45986D02*
X61709Y-45986D01*
G54D13*
X56808Y-45481D02*
X56870Y-45481D01*
X56870Y-43981D02*
X56808Y-43981D01*
X58540Y-43981D02*
X58462Y-43981D01*
X58540Y-43981D02*
X58540Y-45481D01*
X58540Y-45481D02*
X58462Y-45481D01*
X56808Y-43981D02*
X56808Y-45481D01*
G54D15*
X61829Y-34750D02*
X61829Y-34887D01*
X61829Y-34750D02*
X61692Y-34750D01*
X61692Y-36008D02*
X61829Y-36008D01*
X61829Y-36008D02*
X61829Y-35871D01*
X60571Y-35871D02*
X60571Y-36008D01*
X60708Y-36008D02*
X60571Y-36008D01*
X60708Y-34750D02*
X60571Y-34887D01*
X56936Y-34374D02*
X56874Y-34374D01*
X56874Y-35874D02*
X56936Y-35874D01*
X55202Y-35874D02*
X55280Y-35874D01*
X55202Y-35874D02*
X55202Y-34374D01*
X55202Y-34374D02*
X55280Y-34374D01*
X56936Y-35874D02*
X56936Y-34374D01*
G54D13*
X56051Y-41580D02*
X56051Y-41742D01*
X56051Y-41742D02*
X56208Y-41742D01*
X59446Y-41739D02*
X59290Y-41739D01*
X59446Y-41577D02*
X59446Y-41739D01*
X59278Y-38330D02*
X59441Y-38330D01*
X59441Y-38330D02*
X59441Y-38487D01*
X56012Y-38502D02*
X56223Y-38291D01*
X58822Y-31342D02*
X58822Y-32326D01*
X58822Y-31342D02*
X63782Y-31342D01*
X63782Y-31342D02*
X63782Y-32326D01*
X58822Y-32326D02*
X63782Y-32326D01*
X58551Y-47858D02*
X58551Y-48842D01*
X58551Y-47858D02*
X63511Y-47858D01*
X63511Y-47858D02*
X63511Y-48842D01*
X58551Y-48842D02*
X63511Y-48842D01*
G54D17*
G54D16*
X56228Y-48023D02*
X56136Y-48075D01*
X56228Y-48113D02*
X56033Y-48113D01*
X56033Y-48053D01*
X56043Y-48038D01*
X56052Y-48030D01*
X56071Y-48023D01*
X56098Y-48023D01*
X56117Y-48030D01*
X56126Y-48038D01*
X56136Y-48053D01*
X56136Y-48113D01*
X56052Y-47963D02*
X56043Y-47956D01*
X56033Y-47941D01*
X56033Y-47903D01*
X56043Y-47888D01*
X56052Y-47881D01*
X56071Y-47873D01*
X56089Y-47873D01*
X56117Y-47881D01*
X56228Y-47971D01*
X56228Y-47873D01*
X56228Y-47723D02*
X56228Y-47813D01*
X56228Y-47768D02*
X56033Y-47768D01*
X56061Y-47783D01*
X56080Y-47798D01*
X56089Y-47813D01*
X56033Y-47581D02*
X56033Y-47656D01*
X56126Y-47663D01*
X56117Y-47656D01*
X56108Y-47641D01*
X56108Y-47603D01*
X56117Y-47588D01*
X56126Y-47581D01*
X56145Y-47573D01*
X56191Y-47573D01*
X56210Y-47581D01*
X56219Y-47588D01*
X56228Y-47603D01*
X56228Y-47641D01*
X56219Y-47656D01*
X56210Y-47663D01*
X51844Y-43728D02*
X51792Y-43636D01*
X51754Y-43728D02*
X51754Y-43533D01*
X51814Y-43533D01*
X51829Y-43543D01*
X51837Y-43552D01*
X51844Y-43571D01*
X51844Y-43598D01*
X51837Y-43617D01*
X51829Y-43626D01*
X51814Y-43636D01*
X51754Y-43636D01*
X51904Y-43552D02*
X51911Y-43543D01*
X51926Y-43533D01*
X51964Y-43533D01*
X51979Y-43543D01*
X51986Y-43552D01*
X51994Y-43571D01*
X51994Y-43589D01*
X51986Y-43617D01*
X51896Y-43728D01*
X51994Y-43728D01*
X52144Y-43728D02*
X52054Y-43728D01*
X52099Y-43728D02*
X52099Y-43533D01*
X52084Y-43561D01*
X52069Y-43580D01*
X52054Y-43589D01*
X52294Y-43728D02*
X52204Y-43728D01*
X52249Y-43728D02*
X52249Y-43533D01*
X52234Y-43561D01*
X52219Y-43580D01*
X52204Y-43589D01*
X51919Y-44503D02*
X51867Y-44411D01*
X51829Y-44503D02*
X51829Y-44308D01*
X51889Y-44308D01*
X51904Y-44318D01*
X51912Y-44327D01*
X51919Y-44346D01*
X51919Y-44373D01*
X51912Y-44392D01*
X51904Y-44401D01*
X51889Y-44411D01*
X51829Y-44411D01*
X52054Y-44373D02*
X52054Y-44503D01*
X52016Y-44299D02*
X51979Y-44438D01*
X52076Y-44438D01*
X52219Y-44503D02*
X52129Y-44503D01*
X52174Y-44503D02*
X52174Y-44308D01*
X52159Y-44336D01*
X52144Y-44355D01*
X52129Y-44364D01*
X51810Y-35318D02*
X51718Y-35370D01*
X51810Y-35408D02*
X51615Y-35408D01*
X51615Y-35348D01*
X51625Y-35333D01*
X51634Y-35325D01*
X51653Y-35318D01*
X51680Y-35318D01*
X51699Y-35325D01*
X51708Y-35333D01*
X51718Y-35348D01*
X51718Y-35408D01*
X51699Y-35228D02*
X51690Y-35243D01*
X51680Y-35251D01*
X51662Y-35258D01*
X51653Y-35258D01*
X51634Y-35251D01*
X51625Y-35243D01*
X51615Y-35228D01*
X51615Y-35198D01*
X51625Y-35183D01*
X51634Y-35176D01*
X51653Y-35168D01*
X51662Y-35168D01*
X51680Y-35176D01*
X51690Y-35183D01*
X51699Y-35198D01*
X51699Y-35228D01*
X51708Y-35243D01*
X51718Y-35251D01*
X51736Y-35258D01*
X51773Y-35258D01*
X51792Y-35251D01*
X51801Y-35243D01*
X51810Y-35228D01*
X51810Y-35198D01*
X51801Y-35183D01*
X51792Y-35176D01*
X51773Y-35168D01*
X51736Y-35168D01*
X51718Y-35176D01*
X51708Y-35183D01*
X51699Y-35198D01*
X51680Y-35033D02*
X51810Y-35033D01*
X51606Y-35071D02*
X51745Y-35108D01*
X51745Y-35011D01*
X61584Y-36397D02*
X61532Y-36305D01*
X61494Y-36397D02*
X61494Y-36202D01*
X61554Y-36202D01*
X61569Y-36212D01*
X61577Y-36221D01*
X61584Y-36240D01*
X61584Y-36267D01*
X61577Y-36286D01*
X61569Y-36295D01*
X61554Y-36305D01*
X61494Y-36305D01*
X61719Y-36202D02*
X61689Y-36202D01*
X61674Y-36212D01*
X61666Y-36221D01*
X61651Y-36249D01*
X61644Y-36286D01*
X61644Y-36360D01*
X61651Y-36379D01*
X61659Y-36388D01*
X61674Y-36397D01*
X61704Y-36397D01*
X61719Y-36388D01*
X61726Y-36379D01*
X61734Y-36360D01*
X61734Y-36314D01*
X61726Y-36295D01*
X61719Y-36286D01*
X61704Y-36277D01*
X61674Y-36277D01*
X61659Y-36286D01*
X61651Y-36295D01*
X61644Y-36314D01*
X61809Y-36397D02*
X61839Y-36397D01*
X61854Y-36388D01*
X61861Y-36379D01*
X61876Y-36351D01*
X61884Y-36314D01*
X61884Y-36240D01*
X61876Y-36221D01*
X61869Y-36212D01*
X61854Y-36202D01*
X61824Y-36202D01*
X61809Y-36212D01*
X61801Y-36221D01*
X61794Y-36240D01*
X61794Y-36286D01*
X61801Y-36305D01*
X61809Y-36314D01*
X61824Y-36323D01*
X61854Y-36323D01*
X61869Y-36314D01*
X61876Y-36305D01*
X61884Y-36286D01*
X60303Y-41790D02*
X60211Y-41842D01*
X60303Y-41880D02*
X60108Y-41880D01*
X60108Y-41820D01*
X60118Y-41805D01*
X60127Y-41797D01*
X60146Y-41790D01*
X60173Y-41790D01*
X60192Y-41797D01*
X60201Y-41805D01*
X60211Y-41820D01*
X60211Y-41880D01*
X60108Y-41738D02*
X60108Y-41640D01*
X60183Y-41693D01*
X60183Y-41670D01*
X60192Y-41655D01*
X60201Y-41648D01*
X60220Y-41640D01*
X60266Y-41640D01*
X60285Y-41648D01*
X60294Y-41655D01*
X60303Y-41670D01*
X60303Y-41715D01*
X60294Y-41730D01*
X60285Y-41738D01*
X60108Y-41543D02*
X60108Y-41528D01*
X60118Y-41513D01*
X60127Y-41505D01*
X60146Y-41498D01*
X60183Y-41490D01*
X60229Y-41490D01*
X60266Y-41498D01*
X60285Y-41505D01*
X60294Y-41513D01*
X60303Y-41528D01*
X60303Y-41543D01*
X60294Y-41558D01*
X60285Y-41565D01*
X60266Y-41573D01*
X60229Y-41580D01*
X60183Y-41580D01*
X60146Y-41573D01*
X60127Y-41565D01*
X60118Y-41558D01*
X60108Y-41543D01*
X55133Y-38845D02*
X55041Y-38897D01*
X55133Y-38935D02*
X54938Y-38935D01*
X54938Y-38875D01*
X54948Y-38860D01*
X54957Y-38852D01*
X54976Y-38845D01*
X55003Y-38845D01*
X55022Y-38852D01*
X55031Y-38860D01*
X55041Y-38875D01*
X55041Y-38935D01*
X55133Y-38695D02*
X55133Y-38785D01*
X55133Y-38740D02*
X54938Y-38740D01*
X54966Y-38755D01*
X54985Y-38770D01*
X54994Y-38785D01*
X55003Y-38560D02*
X55133Y-38560D01*
X54929Y-38598D02*
X55068Y-38635D01*
X55068Y-38538D01*
X61184Y-41786D02*
X61092Y-41838D01*
X61184Y-41876D02*
X60989Y-41876D01*
X60989Y-41816D01*
X60999Y-41801D01*
X61008Y-41793D01*
X61027Y-41786D01*
X61054Y-41786D01*
X61073Y-41793D01*
X61082Y-41801D01*
X61092Y-41816D01*
X61092Y-41876D01*
X60989Y-41734D02*
X60989Y-41636D01*
X61064Y-41689D01*
X61064Y-41666D01*
X61073Y-41651D01*
X61082Y-41644D01*
X61101Y-41636D01*
X61147Y-41636D01*
X61166Y-41644D01*
X61175Y-41651D01*
X61184Y-41666D01*
X61184Y-41711D01*
X61175Y-41726D01*
X61166Y-41734D01*
X61184Y-41486D02*
X61184Y-41576D01*
X61184Y-41531D02*
X60989Y-41531D01*
X61017Y-41546D01*
X61036Y-41561D01*
X61045Y-41576D01*
X60972Y-38708D02*
X60880Y-38760D01*
X60972Y-38798D02*
X60777Y-38798D01*
X60777Y-38738D01*
X60787Y-38723D01*
X60796Y-38715D01*
X60815Y-38708D01*
X60842Y-38708D01*
X60861Y-38715D01*
X60870Y-38723D01*
X60880Y-38738D01*
X60880Y-38798D01*
X60777Y-38656D02*
X60777Y-38558D01*
X60852Y-38611D01*
X60852Y-38588D01*
X60861Y-38573D01*
X60870Y-38566D01*
X60889Y-38558D01*
X60935Y-38558D01*
X60954Y-38566D01*
X60963Y-38573D01*
X60972Y-38588D01*
X60972Y-38633D01*
X60963Y-38648D01*
X60954Y-38656D01*
X60777Y-38506D02*
X60777Y-38408D01*
X60852Y-38461D01*
X60852Y-38438D01*
X60861Y-38423D01*
X60870Y-38416D01*
X60889Y-38408D01*
X60935Y-38408D01*
X60954Y-38416D01*
X60963Y-38423D01*
X60972Y-38438D01*
X60972Y-38483D01*
X60963Y-38498D01*
X60954Y-38506D01*
X60106Y-38684D02*
X60014Y-38736D01*
X60106Y-38774D02*
X59911Y-38774D01*
X59911Y-38714D01*
X59921Y-38699D01*
X59930Y-38691D01*
X59949Y-38684D01*
X59976Y-38684D01*
X59995Y-38691D01*
X60004Y-38699D01*
X60014Y-38714D01*
X60014Y-38774D01*
X59911Y-38632D02*
X59911Y-38534D01*
X59986Y-38587D01*
X59986Y-38564D01*
X59995Y-38549D01*
X60004Y-38542D01*
X60023Y-38534D01*
X60069Y-38534D01*
X60088Y-38542D01*
X60097Y-38549D01*
X60106Y-38564D01*
X60106Y-38609D01*
X60097Y-38624D01*
X60088Y-38632D01*
X59930Y-38474D02*
X59921Y-38467D01*
X59911Y-38452D01*
X59911Y-38414D01*
X59921Y-38399D01*
X59930Y-38392D01*
X59949Y-38384D01*
X59967Y-38384D01*
X59995Y-38392D01*
X60106Y-38482D01*
X60106Y-38384D01*
X59751Y-37400D02*
X59659Y-37452D01*
X59751Y-37490D02*
X59556Y-37490D01*
X59556Y-37430D01*
X59566Y-37415D01*
X59575Y-37407D01*
X59594Y-37400D01*
X59621Y-37400D01*
X59640Y-37407D01*
X59649Y-37415D01*
X59659Y-37430D01*
X59659Y-37490D01*
X59556Y-37348D02*
X59556Y-37250D01*
X59631Y-37303D01*
X59631Y-37280D01*
X59640Y-37265D01*
X59649Y-37258D01*
X59668Y-37250D01*
X59714Y-37250D01*
X59733Y-37258D01*
X59742Y-37265D01*
X59751Y-37280D01*
X59751Y-37325D01*
X59742Y-37340D01*
X59733Y-37348D01*
X59621Y-37115D02*
X59751Y-37115D01*
X59547Y-37153D02*
X59686Y-37190D01*
X59686Y-37093D01*
X60629Y-43093D02*
X60629Y-43168D01*
X60434Y-43168D01*
X60629Y-42958D02*
X60629Y-43048D01*
X60629Y-43003D02*
X60434Y-43003D01*
X60462Y-43018D01*
X60481Y-43033D01*
X60490Y-43048D01*
X60453Y-42898D02*
X60444Y-42891D01*
X60434Y-42876D01*
X60434Y-42838D01*
X60444Y-42823D01*
X60453Y-42816D01*
X60472Y-42808D01*
X60490Y-42808D01*
X60518Y-42816D01*
X60629Y-42906D01*
X60629Y-42808D01*
X58216Y-36219D02*
X58216Y-36294D01*
X58021Y-36294D01*
X58040Y-36174D02*
X58031Y-36167D01*
X58021Y-36152D01*
X58021Y-36114D01*
X58031Y-36099D01*
X58040Y-36092D01*
X58059Y-36084D01*
X58077Y-36084D01*
X58105Y-36092D01*
X58216Y-36182D01*
X58216Y-36084D01*
X58021Y-36032D02*
X58021Y-35927D01*
X58216Y-35994D01*
X61476Y-43054D02*
X61476Y-43129D01*
X61281Y-43129D01*
X61476Y-42919D02*
X61476Y-43009D01*
X61476Y-42964D02*
X61281Y-42964D01*
X61309Y-42979D01*
X61328Y-42994D01*
X61337Y-43009D01*
X61476Y-42769D02*
X61476Y-42859D01*
X61476Y-42814D02*
X61281Y-42814D01*
X61309Y-42829D01*
X61328Y-42844D01*
X61337Y-42859D01*
X58537Y-35586D02*
X58462Y-35586D01*
X58462Y-35391D01*
X58574Y-35391D02*
X58672Y-35391D01*
X58619Y-35466D01*
X58642Y-35466D01*
X58657Y-35475D01*
X58664Y-35484D01*
X58672Y-35503D01*
X58672Y-35549D01*
X58664Y-35568D01*
X58657Y-35577D01*
X58642Y-35586D01*
X58597Y-35586D01*
X58582Y-35577D01*
X58574Y-35568D01*
X58724Y-35391D02*
X58829Y-35391D01*
X58762Y-35586D01*
X57179Y-36617D02*
X57104Y-36617D01*
X57104Y-36422D01*
X57224Y-36441D02*
X57231Y-36432D01*
X57246Y-36422D01*
X57284Y-36422D01*
X57299Y-36432D01*
X57306Y-36441D01*
X57314Y-36460D01*
X57314Y-36478D01*
X57306Y-36506D01*
X57216Y-36617D01*
X57314Y-36617D01*
X57404Y-36506D02*
X57389Y-36497D01*
X57381Y-36487D01*
X57374Y-36469D01*
X57374Y-36460D01*
X57381Y-36441D01*
X57389Y-36432D01*
X57404Y-36422D01*
X57434Y-36422D01*
X57449Y-36432D01*
X57456Y-36441D01*
X57464Y-36460D01*
X57464Y-36469D01*
X57456Y-36487D01*
X57449Y-36497D01*
X57434Y-36506D01*
X57404Y-36506D01*
X57389Y-36515D01*
X57381Y-36525D01*
X57374Y-36543D01*
X57374Y-36580D01*
X57381Y-36599D01*
X57389Y-36608D01*
X57404Y-36617D01*
X57434Y-36617D01*
X57449Y-36608D01*
X57456Y-36599D01*
X57464Y-36580D01*
X57464Y-36543D01*
X57456Y-36525D01*
X57449Y-36515D01*
X57434Y-36506D01*
X60176Y-36656D02*
X60176Y-36731D01*
X59981Y-36731D01*
X59981Y-36619D02*
X59981Y-36521D01*
X60056Y-36574D01*
X60056Y-36551D01*
X60065Y-36536D01*
X60074Y-36529D01*
X60093Y-36521D01*
X60139Y-36521D01*
X60158Y-36529D01*
X60167Y-36536D01*
X60176Y-36551D01*
X60176Y-36596D01*
X60167Y-36611D01*
X60158Y-36619D01*
X59981Y-36386D02*
X59981Y-36416D01*
X59991Y-36431D01*
X60000Y-36439D01*
X60028Y-36454D01*
X60065Y-36461D01*
X60139Y-36461D01*
X60158Y-36454D01*
X60167Y-36446D01*
X60176Y-36431D01*
X60176Y-36401D01*
X60167Y-36386D01*
X60158Y-36379D01*
X60139Y-36371D01*
X60093Y-36371D01*
X60074Y-36379D01*
X60065Y-36386D01*
X60056Y-36401D01*
X60056Y-36431D01*
X60065Y-36446D01*
X60074Y-36454D01*
X60093Y-36461D01*
X57155Y-35350D02*
X57080Y-35350D01*
X57080Y-35155D01*
X57200Y-35174D02*
X57207Y-35165D01*
X57222Y-35155D01*
X57260Y-35155D01*
X57275Y-35165D01*
X57282Y-35174D01*
X57290Y-35193D01*
X57290Y-35211D01*
X57282Y-35239D01*
X57192Y-35350D01*
X57290Y-35350D01*
X57365Y-35350D02*
X57395Y-35350D01*
X57410Y-35341D01*
X57417Y-35332D01*
X57432Y-35304D01*
X57440Y-35267D01*
X57440Y-35193D01*
X57432Y-35174D01*
X57425Y-35165D01*
X57410Y-35155D01*
X57380Y-35155D01*
X57365Y-35165D01*
X57357Y-35174D01*
X57350Y-35193D01*
X57350Y-35239D01*
X57357Y-35258D01*
X57365Y-35267D01*
X57380Y-35276D01*
X57410Y-35276D01*
X57425Y-35267D01*
X57432Y-35258D01*
X57440Y-35239D01*
X59171Y-37948D02*
X59096Y-37948D01*
X59096Y-37753D01*
X59291Y-37818D02*
X59291Y-37948D01*
X59253Y-37744D02*
X59216Y-37883D01*
X59313Y-37883D01*
X59366Y-37772D02*
X59373Y-37763D01*
X59388Y-37753D01*
X59426Y-37753D01*
X59441Y-37763D01*
X59448Y-37772D01*
X59456Y-37791D01*
X59456Y-37809D01*
X59448Y-37837D01*
X59358Y-37948D01*
X59456Y-37948D01*
X60767Y-36656D02*
X60767Y-36731D01*
X60572Y-36731D01*
X60572Y-36619D02*
X60572Y-36521D01*
X60647Y-36574D01*
X60647Y-36551D01*
X60656Y-36536D01*
X60665Y-36529D01*
X60684Y-36521D01*
X60730Y-36521D01*
X60749Y-36529D01*
X60758Y-36536D01*
X60767Y-36551D01*
X60767Y-36596D01*
X60758Y-36611D01*
X60749Y-36619D01*
X60591Y-36461D02*
X60582Y-36454D01*
X60572Y-36439D01*
X60572Y-36401D01*
X60582Y-36386D01*
X60591Y-36379D01*
X60610Y-36371D01*
X60628Y-36371D01*
X60656Y-36379D01*
X60767Y-36469D01*
X60767Y-36371D01*
X58482Y-42617D02*
X58407Y-42617D01*
X58407Y-42422D01*
X58617Y-42617D02*
X58527Y-42617D01*
X58572Y-42617D02*
X58572Y-42422D01*
X58557Y-42450D01*
X58542Y-42469D01*
X58527Y-42478D01*
X58669Y-42422D02*
X58767Y-42422D01*
X58714Y-42497D01*
X58737Y-42497D01*
X58752Y-42506D01*
X58759Y-42515D01*
X58767Y-42534D01*
X58767Y-42580D01*
X58759Y-42599D01*
X58752Y-42608D01*
X58737Y-42617D01*
X58692Y-42617D01*
X58677Y-42608D01*
X58669Y-42599D01*
X56730Y-42598D02*
X56655Y-42598D01*
X56655Y-42403D01*
X56767Y-42403D02*
X56865Y-42403D01*
X56812Y-42478D01*
X56835Y-42478D01*
X56850Y-42487D01*
X56857Y-42496D01*
X56865Y-42515D01*
X56865Y-42561D01*
X56857Y-42580D01*
X56850Y-42589D01*
X56835Y-42598D01*
X56790Y-42598D01*
X56775Y-42589D01*
X56767Y-42580D01*
X56917Y-42403D02*
X57015Y-42403D01*
X56962Y-42478D01*
X56985Y-42478D01*
X57000Y-42487D01*
X57007Y-42496D01*
X57015Y-42515D01*
X57015Y-42561D01*
X57007Y-42580D01*
X57000Y-42589D01*
X56985Y-42598D01*
X56940Y-42598D01*
X56925Y-42589D01*
X56917Y-42580D01*
X60245Y-44688D02*
X60170Y-44688D01*
X60170Y-44493D01*
X60290Y-44512D02*
X60297Y-44503D01*
X60312Y-44493D01*
X60350Y-44493D01*
X60365Y-44503D01*
X60372Y-44512D01*
X60380Y-44531D01*
X60380Y-44549D01*
X60372Y-44577D01*
X60282Y-44688D01*
X60380Y-44688D01*
X60515Y-44493D02*
X60485Y-44493D01*
X60470Y-44503D01*
X60462Y-44512D01*
X60447Y-44540D01*
X60440Y-44577D01*
X60440Y-44651D01*
X60447Y-44670D01*
X60455Y-44679D01*
X60470Y-44688D01*
X60500Y-44688D01*
X60515Y-44679D01*
X60522Y-44670D01*
X60530Y-44651D01*
X60530Y-44605D01*
X60522Y-44586D01*
X60515Y-44577D01*
X60500Y-44568D01*
X60470Y-44568D01*
X60455Y-44577D01*
X60447Y-44586D01*
X60440Y-44605D01*
X58798Y-44156D02*
X58798Y-44231D01*
X58603Y-44231D01*
X58798Y-44021D02*
X58798Y-44111D01*
X58798Y-44066D02*
X58603Y-44066D01*
X58631Y-44081D01*
X58650Y-44096D01*
X58659Y-44111D01*
X58603Y-43969D02*
X58603Y-43864D01*
X58798Y-43931D01*
X60391Y-43582D02*
X60316Y-43582D01*
X60316Y-43387D01*
X60436Y-43406D02*
X60443Y-43397D01*
X60458Y-43387D01*
X60496Y-43387D01*
X60511Y-43397D01*
X60518Y-43406D01*
X60526Y-43425D01*
X60526Y-43443D01*
X60518Y-43471D01*
X60428Y-43582D01*
X60526Y-43582D01*
X60586Y-43406D02*
X60593Y-43397D01*
X60608Y-43387D01*
X60646Y-43387D01*
X60661Y-43397D01*
X60668Y-43406D01*
X60676Y-43425D01*
X60676Y-43443D01*
X60668Y-43471D01*
X60578Y-43582D01*
X60676Y-43582D01*
X56513Y-38074D02*
X56438Y-38074D01*
X56438Y-37879D01*
X56550Y-37879D02*
X56648Y-37879D01*
X56595Y-37954D01*
X56618Y-37954D01*
X56633Y-37963D01*
X56640Y-37972D01*
X56648Y-37991D01*
X56648Y-38037D01*
X56640Y-38056D01*
X56633Y-38065D01*
X56618Y-38074D01*
X56573Y-38074D01*
X56558Y-38065D01*
X56550Y-38056D01*
X56738Y-37963D02*
X56723Y-37954D01*
X56715Y-37944D01*
X56708Y-37926D01*
X56708Y-37917D01*
X56715Y-37898D01*
X56723Y-37889D01*
X56738Y-37879D01*
X56768Y-37879D01*
X56783Y-37889D01*
X56790Y-37898D01*
X56798Y-37917D01*
X56798Y-37926D01*
X56790Y-37944D01*
X56783Y-37954D01*
X56768Y-37963D01*
X56738Y-37963D01*
X56723Y-37972D01*
X56715Y-37982D01*
X56708Y-38000D01*
X56708Y-38037D01*
X56715Y-38056D01*
X56723Y-38065D01*
X56738Y-38074D01*
X56768Y-38074D01*
X56783Y-38065D01*
X56790Y-38056D01*
X56798Y-38037D01*
X56798Y-38000D01*
X56790Y-37982D01*
X56783Y-37972D01*
X56768Y-37963D01*
X56242Y-36905D02*
X56167Y-36905D01*
X56167Y-36710D01*
X56279Y-36710D02*
X56377Y-36710D01*
X56324Y-36785D01*
X56347Y-36785D01*
X56362Y-36794D01*
X56369Y-36803D01*
X56377Y-36822D01*
X56377Y-36868D01*
X56369Y-36887D01*
X56362Y-36896D01*
X56347Y-36905D01*
X56302Y-36905D01*
X56287Y-36896D01*
X56279Y-36887D01*
X56512Y-36775D02*
X56512Y-36905D01*
X56474Y-36701D02*
X56437Y-36840D01*
X56534Y-36840D01*
X55623Y-36881D02*
X55548Y-36881D01*
X55548Y-36686D01*
X55660Y-36686D02*
X55758Y-36686D01*
X55705Y-36761D01*
X55728Y-36761D01*
X55743Y-36770D01*
X55750Y-36779D01*
X55758Y-36798D01*
X55758Y-36844D01*
X55750Y-36863D01*
X55743Y-36872D01*
X55728Y-36881D01*
X55683Y-36881D01*
X55668Y-36872D01*
X55660Y-36863D01*
X55900Y-36686D02*
X55825Y-36686D01*
X55818Y-36779D01*
X55825Y-36770D01*
X55840Y-36761D01*
X55878Y-36761D01*
X55893Y-36770D01*
X55900Y-36779D01*
X55908Y-36798D01*
X55908Y-36844D01*
X55900Y-36863D01*
X55893Y-36872D01*
X55878Y-36881D01*
X55840Y-36881D01*
X55825Y-36872D01*
X55818Y-36863D01*
X58226Y-38125D02*
X58151Y-38125D01*
X58151Y-37930D01*
X58346Y-37995D02*
X58346Y-38125D01*
X58308Y-37921D02*
X58271Y-38060D01*
X58368Y-38060D01*
X58458Y-37930D02*
X58473Y-37930D01*
X58488Y-37940D01*
X58496Y-37949D01*
X58503Y-37968D01*
X58511Y-38005D01*
X58511Y-38051D01*
X58503Y-38088D01*
X58496Y-38107D01*
X58488Y-38116D01*
X58473Y-38125D01*
X58458Y-38125D01*
X58443Y-38116D01*
X58436Y-38107D01*
X58428Y-38088D01*
X58421Y-38051D01*
X58421Y-38005D01*
X58428Y-37968D01*
X58436Y-37949D01*
X58443Y-37940D01*
X58458Y-37930D01*
X57196Y-47241D02*
X57189Y-47250D01*
X57166Y-47259D01*
X57151Y-47259D01*
X57129Y-47250D01*
X57114Y-47232D01*
X57106Y-47213D01*
X57099Y-47176D01*
X57099Y-47148D01*
X57106Y-47111D01*
X57114Y-47092D01*
X57129Y-47074D01*
X57151Y-47064D01*
X57166Y-47064D01*
X57189Y-47074D01*
X57196Y-47083D01*
X57286Y-47148D02*
X57271Y-47139D01*
X57263Y-47129D01*
X57256Y-47111D01*
X57256Y-47102D01*
X57263Y-47083D01*
X57271Y-47074D01*
X57286Y-47064D01*
X57316Y-47064D01*
X57331Y-47074D01*
X57338Y-47083D01*
X57346Y-47102D01*
X57346Y-47111D01*
X57338Y-47129D01*
X57331Y-47139D01*
X57316Y-47148D01*
X57286Y-47148D01*
X57271Y-47157D01*
X57263Y-47167D01*
X57256Y-47185D01*
X57256Y-47222D01*
X57263Y-47241D01*
X57271Y-47250D01*
X57286Y-47259D01*
X57316Y-47259D01*
X57331Y-47250D01*
X57338Y-47241D01*
X57346Y-47222D01*
X57346Y-47185D01*
X57338Y-47167D01*
X57331Y-47157D01*
X57316Y-47148D01*
X57496Y-47259D02*
X57406Y-47259D01*
X57451Y-47259D02*
X57451Y-47064D01*
X57436Y-47092D01*
X57421Y-47111D01*
X57406Y-47120D01*
X57198Y-48048D02*
X57191Y-48057D01*
X57168Y-48066D01*
X57153Y-48066D01*
X57131Y-48057D01*
X57116Y-48039D01*
X57108Y-48020D01*
X57101Y-47983D01*
X57101Y-47955D01*
X57108Y-47918D01*
X57116Y-47899D01*
X57131Y-47881D01*
X57153Y-47871D01*
X57168Y-47871D01*
X57191Y-47881D01*
X57198Y-47890D01*
X57288Y-47955D02*
X57273Y-47946D01*
X57265Y-47936D01*
X57258Y-47918D01*
X57258Y-47909D01*
X57265Y-47890D01*
X57273Y-47881D01*
X57288Y-47871D01*
X57318Y-47871D01*
X57333Y-47881D01*
X57340Y-47890D01*
X57348Y-47909D01*
X57348Y-47918D01*
X57340Y-47936D01*
X57333Y-47946D01*
X57318Y-47955D01*
X57288Y-47955D01*
X57273Y-47964D01*
X57265Y-47974D01*
X57258Y-47992D01*
X57258Y-48029D01*
X57265Y-48048D01*
X57273Y-48057D01*
X57288Y-48066D01*
X57318Y-48066D01*
X57333Y-48057D01*
X57340Y-48048D01*
X57348Y-48029D01*
X57348Y-47992D01*
X57340Y-47974D01*
X57333Y-47964D01*
X57318Y-47955D01*
X57438Y-47955D02*
X57423Y-47946D01*
X57415Y-47936D01*
X57408Y-47918D01*
X57408Y-47909D01*
X57415Y-47890D01*
X57423Y-47881D01*
X57438Y-47871D01*
X57468Y-47871D01*
X57483Y-47881D01*
X57490Y-47890D01*
X57498Y-47909D01*
X57498Y-47918D01*
X57490Y-47936D01*
X57483Y-47946D01*
X57468Y-47955D01*
X57438Y-47955D01*
X57423Y-47964D01*
X57415Y-47974D01*
X57408Y-47992D01*
X57408Y-48029D01*
X57415Y-48048D01*
X57423Y-48057D01*
X57438Y-48066D01*
X57468Y-48066D01*
X57483Y-48057D01*
X57490Y-48048D01*
X57498Y-48029D01*
X57498Y-47992D01*
X57490Y-47974D01*
X57483Y-47964D01*
X57468Y-47955D01*
X54234Y-45041D02*
X54227Y-45050D01*
X54204Y-45059D01*
X54189Y-45059D01*
X54167Y-45050D01*
X54152Y-45032D01*
X54144Y-45013D01*
X54137Y-44976D01*
X54137Y-44948D01*
X54144Y-44911D01*
X54152Y-44892D01*
X54167Y-44874D01*
X54189Y-44864D01*
X54204Y-44864D01*
X54227Y-44874D01*
X54234Y-44883D01*
X54294Y-44883D02*
X54301Y-44874D01*
X54316Y-44864D01*
X54354Y-44864D01*
X54369Y-44874D01*
X54376Y-44883D01*
X54384Y-44902D01*
X54384Y-44920D01*
X54376Y-44948D01*
X54286Y-45059D01*
X54384Y-45059D01*
X54519Y-44929D02*
X54519Y-45059D01*
X54481Y-44855D02*
X54444Y-44994D01*
X54541Y-44994D01*
X51867Y-43338D02*
X51876Y-43345D01*
X51885Y-43368D01*
X51885Y-43383D01*
X51876Y-43405D01*
X51858Y-43420D01*
X51839Y-43428D01*
X51802Y-43435D01*
X51774Y-43435D01*
X51737Y-43428D01*
X51718Y-43420D01*
X51700Y-43405D01*
X51690Y-43383D01*
X51690Y-43368D01*
X51700Y-43345D01*
X51709Y-43338D01*
X51885Y-43188D02*
X51885Y-43278D01*
X51885Y-43233D02*
X51690Y-43233D01*
X51718Y-43248D01*
X51737Y-43263D01*
X51746Y-43278D01*
X51755Y-43053D02*
X51885Y-43053D01*
X51681Y-43091D02*
X51820Y-43128D01*
X51820Y-43031D01*
X51755Y-42903D02*
X51885Y-42903D01*
X51681Y-42941D02*
X51820Y-42978D01*
X51820Y-42881D01*
X53167Y-44611D02*
X53160Y-44620D01*
X53137Y-44629D01*
X53122Y-44629D01*
X53100Y-44620D01*
X53085Y-44602D01*
X53077Y-44583D01*
X53070Y-44546D01*
X53070Y-44518D01*
X53077Y-44481D01*
X53085Y-44462D01*
X53100Y-44444D01*
X53122Y-44434D01*
X53137Y-44434D01*
X53160Y-44444D01*
X53167Y-44453D01*
X53227Y-44453D02*
X53234Y-44444D01*
X53249Y-44434D01*
X53287Y-44434D01*
X53302Y-44444D01*
X53309Y-44453D01*
X53317Y-44472D01*
X53317Y-44490D01*
X53309Y-44518D01*
X53219Y-44629D01*
X53317Y-44629D01*
X53369Y-44434D02*
X53467Y-44434D01*
X53414Y-44509D01*
X53437Y-44509D01*
X53452Y-44518D01*
X53459Y-44527D01*
X53467Y-44546D01*
X53467Y-44592D01*
X53459Y-44611D01*
X53452Y-44620D01*
X53437Y-44629D01*
X53392Y-44629D01*
X53377Y-44620D01*
X53369Y-44611D01*
X54824Y-44403D02*
X54817Y-44412D01*
X54794Y-44421D01*
X54779Y-44421D01*
X54757Y-44412D01*
X54742Y-44394D01*
X54734Y-44375D01*
X54727Y-44338D01*
X54727Y-44310D01*
X54734Y-44273D01*
X54742Y-44254D01*
X54757Y-44236D01*
X54779Y-44226D01*
X54794Y-44226D01*
X54817Y-44236D01*
X54824Y-44245D01*
X54974Y-44421D02*
X54884Y-44421D01*
X54929Y-44421D02*
X54929Y-44226D01*
X54914Y-44254D01*
X54899Y-44273D01*
X54884Y-44282D01*
X55124Y-44421D02*
X55034Y-44421D01*
X55079Y-44421D02*
X55079Y-44226D01*
X55064Y-44254D01*
X55049Y-44273D01*
X55034Y-44282D01*
X55176Y-44226D02*
X55281Y-44226D01*
X55214Y-44421D01*
X54029Y-43643D02*
X54022Y-43652D01*
X53999Y-43661D01*
X53984Y-43661D01*
X53962Y-43652D01*
X53947Y-43634D01*
X53939Y-43615D01*
X53932Y-43578D01*
X53932Y-43550D01*
X53939Y-43513D01*
X53947Y-43494D01*
X53962Y-43476D01*
X53984Y-43466D01*
X53999Y-43466D01*
X54022Y-43476D01*
X54029Y-43485D01*
X54179Y-43661D02*
X54089Y-43661D01*
X54134Y-43661D02*
X54134Y-43466D01*
X54119Y-43494D01*
X54104Y-43513D01*
X54089Y-43522D01*
X54239Y-43485D02*
X54246Y-43476D01*
X54261Y-43466D01*
X54299Y-43466D01*
X54314Y-43476D01*
X54321Y-43485D01*
X54329Y-43504D01*
X54329Y-43522D01*
X54321Y-43550D01*
X54231Y-43661D01*
X54329Y-43661D01*
X54389Y-43485D02*
X54396Y-43476D01*
X54411Y-43466D01*
X54449Y-43466D01*
X54464Y-43476D01*
X54471Y-43485D01*
X54479Y-43504D01*
X54479Y-43522D01*
X54471Y-43550D01*
X54381Y-43661D01*
X54479Y-43661D01*
X59084Y-35151D02*
X59077Y-35160D01*
X59054Y-35169D01*
X59039Y-35169D01*
X59017Y-35160D01*
X59002Y-35142D01*
X58994Y-35123D01*
X58987Y-35086D01*
X58987Y-35058D01*
X58994Y-35021D01*
X59002Y-35002D01*
X59017Y-34984D01*
X59039Y-34974D01*
X59054Y-34974D01*
X59077Y-34984D01*
X59084Y-34993D01*
X59226Y-34974D02*
X59151Y-34974D01*
X59144Y-35067D01*
X59151Y-35058D01*
X59166Y-35049D01*
X59204Y-35049D01*
X59219Y-35058D01*
X59226Y-35067D01*
X59234Y-35086D01*
X59234Y-35132D01*
X59226Y-35151D01*
X59219Y-35160D01*
X59204Y-35169D01*
X59166Y-35169D01*
X59151Y-35160D01*
X59144Y-35151D01*
X59286Y-34974D02*
X59391Y-34974D01*
X59324Y-35169D01*
X58773Y-45091D02*
X58766Y-45100D01*
X58743Y-45109D01*
X58728Y-45109D01*
X58706Y-45100D01*
X58691Y-45082D01*
X58683Y-45063D01*
X58676Y-45026D01*
X58676Y-44998D01*
X58683Y-44961D01*
X58691Y-44942D01*
X58706Y-44924D01*
X58728Y-44914D01*
X58743Y-44914D01*
X58766Y-44924D01*
X58773Y-44933D01*
X58923Y-45109D02*
X58833Y-45109D01*
X58878Y-45109D02*
X58878Y-44914D01*
X58863Y-44942D01*
X58848Y-44961D01*
X58833Y-44970D01*
X59020Y-44914D02*
X59035Y-44914D01*
X59050Y-44924D01*
X59058Y-44933D01*
X59065Y-44952D01*
X59073Y-44989D01*
X59073Y-45035D01*
X59065Y-45072D01*
X59058Y-45091D01*
X59050Y-45100D01*
X59035Y-45109D01*
X59020Y-45109D01*
X59005Y-45100D01*
X58998Y-45091D01*
X58990Y-45072D01*
X58983Y-45035D01*
X58983Y-44989D01*
X58990Y-44952D01*
X58998Y-44933D01*
X59005Y-44924D01*
X59020Y-44914D01*
X59223Y-45109D02*
X59133Y-45109D01*
X59178Y-45109D02*
X59178Y-44914D01*
X59163Y-44942D01*
X59148Y-44961D01*
X59133Y-44970D01*
X58190Y-44694D02*
X58183Y-44703D01*
X58160Y-44712D01*
X58145Y-44712D01*
X58123Y-44703D01*
X58108Y-44685D01*
X58100Y-44666D01*
X58093Y-44629D01*
X58093Y-44601D01*
X58100Y-44564D01*
X58108Y-44545D01*
X58123Y-44527D01*
X58145Y-44517D01*
X58160Y-44517D01*
X58183Y-44527D01*
X58190Y-44536D01*
X58242Y-44517D02*
X58340Y-44517D01*
X58287Y-44592D01*
X58310Y-44592D01*
X58325Y-44601D01*
X58332Y-44610D01*
X58340Y-44629D01*
X58340Y-44675D01*
X58332Y-44694D01*
X58325Y-44703D01*
X58310Y-44712D01*
X58265Y-44712D01*
X58250Y-44703D01*
X58242Y-44694D01*
X58392Y-44517D02*
X58490Y-44517D01*
X58437Y-44592D01*
X58460Y-44592D01*
X58475Y-44601D01*
X58482Y-44610D01*
X58490Y-44629D01*
X58490Y-44675D01*
X58482Y-44694D01*
X58475Y-44703D01*
X58460Y-44712D01*
X58415Y-44712D01*
X58400Y-44703D01*
X58392Y-44694D01*
X59529Y-44156D02*
X59538Y-44163D01*
X59547Y-44186D01*
X59547Y-44201D01*
X59538Y-44223D01*
X59520Y-44238D01*
X59501Y-44246D01*
X59464Y-44253D01*
X59436Y-44253D01*
X59399Y-44246D01*
X59380Y-44238D01*
X59362Y-44223D01*
X59352Y-44201D01*
X59352Y-44186D01*
X59362Y-44163D01*
X59371Y-44156D01*
X59352Y-44104D02*
X59352Y-44006D01*
X59427Y-44059D01*
X59427Y-44036D01*
X59436Y-44021D01*
X59445Y-44014D01*
X59464Y-44006D01*
X59510Y-44006D01*
X59529Y-44014D01*
X59538Y-44021D01*
X59547Y-44036D01*
X59547Y-44081D01*
X59538Y-44096D01*
X59529Y-44104D01*
X59417Y-43871D02*
X59547Y-43871D01*
X59343Y-43909D02*
X59482Y-43946D01*
X59482Y-43849D01*
X58186Y-43584D02*
X58179Y-43593D01*
X58156Y-43602D01*
X58141Y-43602D01*
X58119Y-43593D01*
X58104Y-43575D01*
X58096Y-43556D01*
X58089Y-43519D01*
X58089Y-43491D01*
X58096Y-43454D01*
X58104Y-43435D01*
X58119Y-43417D01*
X58141Y-43407D01*
X58156Y-43407D01*
X58179Y-43417D01*
X58186Y-43426D01*
X58238Y-43407D02*
X58343Y-43407D01*
X58276Y-43602D01*
X58396Y-43426D02*
X58403Y-43417D01*
X58418Y-43407D01*
X58456Y-43407D01*
X58471Y-43417D01*
X58478Y-43426D01*
X58486Y-43445D01*
X58486Y-43463D01*
X58478Y-43491D01*
X58388Y-43602D01*
X58486Y-43602D01*
X60906Y-43093D02*
X60915Y-43100D01*
X60924Y-43123D01*
X60924Y-43138D01*
X60915Y-43160D01*
X60897Y-43175D01*
X60878Y-43183D01*
X60841Y-43190D01*
X60813Y-43190D01*
X60776Y-43183D01*
X60757Y-43175D01*
X60739Y-43160D01*
X60729Y-43138D01*
X60729Y-43123D01*
X60739Y-43100D01*
X60748Y-43093D01*
X60729Y-42951D02*
X60729Y-43026D01*
X60822Y-43033D01*
X60813Y-43026D01*
X60804Y-43011D01*
X60804Y-42973D01*
X60813Y-42958D01*
X60822Y-42951D01*
X60841Y-42943D01*
X60887Y-42943D01*
X60906Y-42951D01*
X60915Y-42958D01*
X60924Y-42973D01*
X60924Y-43011D01*
X60915Y-43026D01*
X60906Y-43033D01*
X60794Y-42808D02*
X60924Y-42808D01*
X60720Y-42846D02*
X60859Y-42883D01*
X60859Y-42786D01*
X61182Y-43073D02*
X61191Y-43080D01*
X61200Y-43103D01*
X61200Y-43118D01*
X61191Y-43140D01*
X61173Y-43155D01*
X61154Y-43163D01*
X61117Y-43170D01*
X61089Y-43170D01*
X61052Y-43163D01*
X61033Y-43155D01*
X61015Y-43140D01*
X61005Y-43118D01*
X61005Y-43103D01*
X61015Y-43080D01*
X61024Y-43073D01*
X61005Y-42931D02*
X61005Y-43006D01*
X61098Y-43013D01*
X61089Y-43006D01*
X61080Y-42991D01*
X61080Y-42953D01*
X61089Y-42938D01*
X61098Y-42931D01*
X61117Y-42923D01*
X61163Y-42923D01*
X61182Y-42931D01*
X61191Y-42938D01*
X61200Y-42953D01*
X61200Y-42991D01*
X61191Y-43006D01*
X61182Y-43013D01*
X61200Y-42773D02*
X61200Y-42863D01*
X61200Y-42818D02*
X61005Y-42818D01*
X61033Y-42833D01*
X61052Y-42848D01*
X61061Y-42863D01*
X59115Y-42304D02*
X59108Y-42313D01*
X59085Y-42322D01*
X59070Y-42322D01*
X59048Y-42313D01*
X59033Y-42295D01*
X59025Y-42276D01*
X59018Y-42239D01*
X59018Y-42211D01*
X59025Y-42174D01*
X59033Y-42155D01*
X59048Y-42137D01*
X59070Y-42127D01*
X59085Y-42127D01*
X59108Y-42137D01*
X59115Y-42146D01*
X59265Y-42322D02*
X59175Y-42322D01*
X59220Y-42322D02*
X59220Y-42127D01*
X59205Y-42155D01*
X59190Y-42174D01*
X59175Y-42183D01*
X59325Y-42146D02*
X59332Y-42137D01*
X59347Y-42127D01*
X59385Y-42127D01*
X59400Y-42137D01*
X59407Y-42146D01*
X59415Y-42165D01*
X59415Y-42183D01*
X59407Y-42211D01*
X59317Y-42322D01*
X59415Y-42322D01*
X59512Y-42127D02*
X59527Y-42127D01*
X59542Y-42137D01*
X59550Y-42146D01*
X59557Y-42165D01*
X59565Y-42202D01*
X59565Y-42248D01*
X59557Y-42285D01*
X59550Y-42304D01*
X59542Y-42313D01*
X59527Y-42322D01*
X59512Y-42322D01*
X59497Y-42313D01*
X59490Y-42304D01*
X59482Y-42285D01*
X59475Y-42248D01*
X59475Y-42202D01*
X59482Y-42165D01*
X59490Y-42146D01*
X59497Y-42137D01*
X59512Y-42127D01*
X61036Y-36636D02*
X61045Y-36643D01*
X61054Y-36666D01*
X61054Y-36681D01*
X61045Y-36703D01*
X61027Y-36718D01*
X61008Y-36726D01*
X60971Y-36733D01*
X60943Y-36733D01*
X60906Y-36726D01*
X60887Y-36718D01*
X60869Y-36703D01*
X60859Y-36681D01*
X60859Y-36666D01*
X60869Y-36643D01*
X60878Y-36636D01*
X61054Y-36561D02*
X61054Y-36531D01*
X61045Y-36516D01*
X61036Y-36509D01*
X61008Y-36494D01*
X60971Y-36486D01*
X60897Y-36486D01*
X60878Y-36494D01*
X60869Y-36501D01*
X60859Y-36516D01*
X60859Y-36546D01*
X60869Y-36561D01*
X60878Y-36569D01*
X60897Y-36576D01*
X60943Y-36576D01*
X60962Y-36569D01*
X60971Y-36561D01*
X60980Y-36546D01*
X60980Y-36516D01*
X60971Y-36501D01*
X60962Y-36494D01*
X60943Y-36486D01*
X61054Y-36336D02*
X61054Y-36426D01*
X61054Y-36381D02*
X60859Y-36381D01*
X60887Y-36396D01*
X60906Y-36411D01*
X60915Y-36426D01*
X56998Y-45862D02*
X56991Y-45871D01*
X56968Y-45880D01*
X56953Y-45880D01*
X56931Y-45871D01*
X56916Y-45853D01*
X56908Y-45834D01*
X56901Y-45797D01*
X56901Y-45769D01*
X56908Y-45732D01*
X56916Y-45713D01*
X56931Y-45695D01*
X56953Y-45685D01*
X56968Y-45685D01*
X56991Y-45695D01*
X56998Y-45704D01*
X57140Y-45685D02*
X57065Y-45685D01*
X57058Y-45778D01*
X57065Y-45769D01*
X57080Y-45760D01*
X57118Y-45760D01*
X57133Y-45769D01*
X57140Y-45778D01*
X57148Y-45797D01*
X57148Y-45843D01*
X57140Y-45862D01*
X57133Y-45871D01*
X57118Y-45880D01*
X57080Y-45880D01*
X57065Y-45871D01*
X57058Y-45862D01*
X57223Y-45880D02*
X57253Y-45880D01*
X57268Y-45871D01*
X57275Y-45862D01*
X57290Y-45834D01*
X57298Y-45797D01*
X57298Y-45723D01*
X57290Y-45704D01*
X57283Y-45695D01*
X57268Y-45685D01*
X57238Y-45685D01*
X57223Y-45695D01*
X57215Y-45704D01*
X57208Y-45723D01*
X57208Y-45769D01*
X57215Y-45788D01*
X57223Y-45797D01*
X57238Y-45806D01*
X57268Y-45806D01*
X57283Y-45797D01*
X57290Y-45788D01*
X57298Y-45769D01*
X57698Y-34879D02*
X57691Y-34888D01*
X57668Y-34897D01*
X57653Y-34897D01*
X57631Y-34888D01*
X57616Y-34870D01*
X57608Y-34851D01*
X57601Y-34814D01*
X57601Y-34786D01*
X57608Y-34749D01*
X57616Y-34730D01*
X57631Y-34712D01*
X57653Y-34702D01*
X57668Y-34702D01*
X57691Y-34712D01*
X57698Y-34721D01*
X57758Y-34721D02*
X57765Y-34712D01*
X57780Y-34702D01*
X57818Y-34702D01*
X57833Y-34712D01*
X57840Y-34721D01*
X57848Y-34740D01*
X57848Y-34758D01*
X57840Y-34786D01*
X57750Y-34897D01*
X57848Y-34897D01*
X57900Y-34702D02*
X58005Y-34702D01*
X57938Y-34897D01*
X57816Y-43192D02*
X57825Y-43199D01*
X57834Y-43222D01*
X57834Y-43237D01*
X57825Y-43259D01*
X57807Y-43274D01*
X57788Y-43282D01*
X57751Y-43289D01*
X57723Y-43289D01*
X57686Y-43282D01*
X57667Y-43274D01*
X57649Y-43259D01*
X57639Y-43237D01*
X57639Y-43222D01*
X57649Y-43199D01*
X57658Y-43192D01*
X57639Y-43057D02*
X57639Y-43087D01*
X57649Y-43102D01*
X57658Y-43110D01*
X57686Y-43125D01*
X57723Y-43132D01*
X57797Y-43132D01*
X57816Y-43125D01*
X57825Y-43117D01*
X57834Y-43102D01*
X57834Y-43072D01*
X57825Y-43057D01*
X57816Y-43050D01*
X57797Y-43042D01*
X57751Y-43042D01*
X57732Y-43050D01*
X57723Y-43057D01*
X57714Y-43072D01*
X57714Y-43102D01*
X57723Y-43117D01*
X57732Y-43125D01*
X57751Y-43132D01*
X57834Y-42892D02*
X57834Y-42982D01*
X57834Y-42937D02*
X57639Y-42937D01*
X57667Y-42952D01*
X57686Y-42967D01*
X57695Y-42982D01*
X57284Y-43211D02*
X57293Y-43218D01*
X57302Y-43241D01*
X57302Y-43256D01*
X57293Y-43278D01*
X57275Y-43293D01*
X57256Y-43301D01*
X57219Y-43308D01*
X57191Y-43308D01*
X57154Y-43301D01*
X57135Y-43293D01*
X57117Y-43278D01*
X57107Y-43256D01*
X57107Y-43241D01*
X57117Y-43218D01*
X57126Y-43211D01*
X57107Y-43076D02*
X57107Y-43106D01*
X57117Y-43121D01*
X57126Y-43129D01*
X57154Y-43144D01*
X57191Y-43151D01*
X57265Y-43151D01*
X57284Y-43144D01*
X57293Y-43136D01*
X57302Y-43121D01*
X57302Y-43091D01*
X57293Y-43076D01*
X57284Y-43069D01*
X57265Y-43061D01*
X57219Y-43061D01*
X57200Y-43069D01*
X57191Y-43076D01*
X57182Y-43091D01*
X57182Y-43121D01*
X57191Y-43136D01*
X57200Y-43144D01*
X57219Y-43151D01*
X57107Y-43009D02*
X57107Y-42911D01*
X57182Y-42964D01*
X57182Y-42941D01*
X57191Y-42926D01*
X57200Y-42919D01*
X57219Y-42911D01*
X57265Y-42911D01*
X57284Y-42919D01*
X57293Y-42926D01*
X57302Y-42941D01*
X57302Y-42986D01*
X57293Y-43001D01*
X57284Y-43009D01*
X58265Y-42245D02*
X58258Y-42254D01*
X58235Y-42263D01*
X58220Y-42263D01*
X58198Y-42254D01*
X58183Y-42236D01*
X58175Y-42217D01*
X58168Y-42180D01*
X58168Y-42152D01*
X58175Y-42115D01*
X58183Y-42096D01*
X58198Y-42078D01*
X58220Y-42068D01*
X58235Y-42068D01*
X58258Y-42078D01*
X58265Y-42087D01*
X58325Y-42087D02*
X58332Y-42078D01*
X58347Y-42068D01*
X58385Y-42068D01*
X58400Y-42078D01*
X58407Y-42087D01*
X58415Y-42106D01*
X58415Y-42124D01*
X58407Y-42152D01*
X58317Y-42263D01*
X58415Y-42263D01*
X58565Y-42263D02*
X58475Y-42263D01*
X58520Y-42263D02*
X58520Y-42068D01*
X58505Y-42096D01*
X58490Y-42115D01*
X58475Y-42124D01*
X60690Y-37148D02*
X60699Y-37155D01*
X60708Y-37178D01*
X60708Y-37193D01*
X60699Y-37215D01*
X60681Y-37230D01*
X60662Y-37238D01*
X60625Y-37245D01*
X60597Y-37245D01*
X60560Y-37238D01*
X60541Y-37230D01*
X60523Y-37215D01*
X60513Y-37193D01*
X60513Y-37178D01*
X60523Y-37155D01*
X60532Y-37148D01*
X60708Y-37073D02*
X60708Y-37043D01*
X60699Y-37028D01*
X60690Y-37021D01*
X60662Y-37006D01*
X60625Y-36998D01*
X60551Y-36998D01*
X60532Y-37006D01*
X60523Y-37013D01*
X60513Y-37028D01*
X60513Y-37058D01*
X60523Y-37073D01*
X60532Y-37081D01*
X60551Y-37088D01*
X60597Y-37088D01*
X60616Y-37081D01*
X60625Y-37073D01*
X60634Y-37058D01*
X60634Y-37028D01*
X60625Y-37013D01*
X60616Y-37006D01*
X60597Y-36998D01*
X60578Y-36863D02*
X60708Y-36863D01*
X60504Y-36901D02*
X60643Y-36938D01*
X60643Y-36841D01*
X59305Y-35603D02*
X59298Y-35612D01*
X59275Y-35621D01*
X59260Y-35621D01*
X59238Y-35612D01*
X59223Y-35594D01*
X59215Y-35575D01*
X59208Y-35538D01*
X59208Y-35510D01*
X59215Y-35473D01*
X59223Y-35454D01*
X59238Y-35436D01*
X59260Y-35426D01*
X59275Y-35426D01*
X59298Y-35436D01*
X59305Y-35445D01*
X59380Y-35621D02*
X59410Y-35621D01*
X59425Y-35612D01*
X59432Y-35603D01*
X59447Y-35575D01*
X59455Y-35538D01*
X59455Y-35464D01*
X59447Y-35445D01*
X59440Y-35436D01*
X59425Y-35426D01*
X59395Y-35426D01*
X59380Y-35436D01*
X59372Y-35445D01*
X59365Y-35464D01*
X59365Y-35510D01*
X59372Y-35529D01*
X59380Y-35538D01*
X59395Y-35547D01*
X59425Y-35547D01*
X59440Y-35538D01*
X59447Y-35529D01*
X59455Y-35510D01*
X59515Y-35445D02*
X59522Y-35436D01*
X59537Y-35426D01*
X59575Y-35426D01*
X59590Y-35436D01*
X59597Y-35445D01*
X59605Y-35464D01*
X59605Y-35482D01*
X59597Y-35510D01*
X59507Y-35621D01*
X59605Y-35621D01*
X60444Y-36666D02*
X60453Y-36673D01*
X60462Y-36696D01*
X60462Y-36711D01*
X60453Y-36733D01*
X60435Y-36748D01*
X60416Y-36756D01*
X60379Y-36763D01*
X60351Y-36763D01*
X60314Y-36756D01*
X60295Y-36748D01*
X60277Y-36733D01*
X60267Y-36711D01*
X60267Y-36696D01*
X60277Y-36673D01*
X60286Y-36666D01*
X60462Y-36591D02*
X60462Y-36561D01*
X60453Y-36546D01*
X60444Y-36539D01*
X60416Y-36524D01*
X60379Y-36516D01*
X60305Y-36516D01*
X60286Y-36524D01*
X60277Y-36531D01*
X60267Y-36546D01*
X60267Y-36576D01*
X60277Y-36591D01*
X60286Y-36599D01*
X60305Y-36606D01*
X60351Y-36606D01*
X60370Y-36599D01*
X60379Y-36591D01*
X60388Y-36576D01*
X60388Y-36546D01*
X60379Y-36531D01*
X60370Y-36524D01*
X60351Y-36516D01*
X60267Y-36464D02*
X60267Y-36366D01*
X60342Y-36419D01*
X60342Y-36396D01*
X60351Y-36381D01*
X60360Y-36374D01*
X60379Y-36366D01*
X60425Y-36366D01*
X60444Y-36374D01*
X60453Y-36381D01*
X60462Y-36396D01*
X60462Y-36441D01*
X60453Y-36456D01*
X60444Y-36464D01*
X57269Y-36211D02*
X57278Y-36218D01*
X57287Y-36241D01*
X57287Y-36256D01*
X57278Y-36278D01*
X57260Y-36293D01*
X57241Y-36301D01*
X57204Y-36308D01*
X57176Y-36308D01*
X57139Y-36301D01*
X57120Y-36293D01*
X57102Y-36278D01*
X57092Y-36256D01*
X57092Y-36241D01*
X57102Y-36218D01*
X57111Y-36211D01*
X57157Y-36076D02*
X57287Y-36076D01*
X57083Y-36114D02*
X57222Y-36151D01*
X57222Y-36054D01*
X57287Y-35986D02*
X57287Y-35956D01*
X57278Y-35941D01*
X57269Y-35934D01*
X57241Y-35919D01*
X57204Y-35911D01*
X57130Y-35911D01*
X57111Y-35919D01*
X57102Y-35926D01*
X57092Y-35941D01*
X57092Y-35971D01*
X57102Y-35986D01*
X57111Y-35994D01*
X57130Y-36001D01*
X57176Y-36001D01*
X57195Y-35994D01*
X57204Y-35986D01*
X57213Y-35971D01*
X57213Y-35941D01*
X57204Y-35926D01*
X57195Y-35919D01*
X57176Y-35911D01*
X51986Y-36320D02*
X51979Y-36329D01*
X51956Y-36338D01*
X51941Y-36338D01*
X51919Y-36329D01*
X51904Y-36311D01*
X51896Y-36292D01*
X51889Y-36255D01*
X51889Y-36227D01*
X51896Y-36190D01*
X51904Y-36171D01*
X51919Y-36153D01*
X51941Y-36143D01*
X51956Y-36143D01*
X51979Y-36153D01*
X51986Y-36162D01*
X52046Y-36162D02*
X52053Y-36153D01*
X52068Y-36143D01*
X52106Y-36143D01*
X52121Y-36153D01*
X52128Y-36162D01*
X52136Y-36181D01*
X52136Y-36199D01*
X52128Y-36227D01*
X52038Y-36338D01*
X52136Y-36338D01*
X52196Y-36162D02*
X52203Y-36153D01*
X52218Y-36143D01*
X52256Y-36143D01*
X52271Y-36153D01*
X52278Y-36162D01*
X52286Y-36181D01*
X52286Y-36199D01*
X52278Y-36227D01*
X52188Y-36338D01*
X52286Y-36338D01*
X52436Y-36338D02*
X52346Y-36338D01*
X52391Y-36338D02*
X52391Y-36143D01*
X52376Y-36171D01*
X52361Y-36190D01*
X52346Y-36199D01*
X57883Y-35375D02*
X57876Y-35384D01*
X57853Y-35393D01*
X57838Y-35393D01*
X57816Y-35384D01*
X57801Y-35366D01*
X57793Y-35347D01*
X57786Y-35310D01*
X57786Y-35282D01*
X57793Y-35245D01*
X57801Y-35226D01*
X57816Y-35208D01*
X57838Y-35198D01*
X57853Y-35198D01*
X57876Y-35208D01*
X57883Y-35217D01*
X58018Y-35263D02*
X58018Y-35393D01*
X57980Y-35189D02*
X57943Y-35328D01*
X58040Y-35328D01*
X58168Y-35263D02*
X58168Y-35393D01*
X58130Y-35189D02*
X58093Y-35328D01*
X58190Y-35328D01*
X56540Y-37503D02*
X56549Y-37510D01*
X56558Y-37533D01*
X56558Y-37548D01*
X56549Y-37570D01*
X56531Y-37585D01*
X56512Y-37593D01*
X56475Y-37600D01*
X56447Y-37600D01*
X56410Y-37593D01*
X56391Y-37585D01*
X56373Y-37570D01*
X56363Y-37548D01*
X56363Y-37533D01*
X56373Y-37510D01*
X56382Y-37503D01*
X56363Y-37451D02*
X56363Y-37353D01*
X56438Y-37406D01*
X56438Y-37383D01*
X56447Y-37368D01*
X56456Y-37361D01*
X56475Y-37353D01*
X56521Y-37353D01*
X56540Y-37361D01*
X56549Y-37368D01*
X56558Y-37383D01*
X56558Y-37428D01*
X56549Y-37443D01*
X56540Y-37451D01*
X56558Y-37203D02*
X56558Y-37293D01*
X56558Y-37248D02*
X56363Y-37248D01*
X56391Y-37263D01*
X56410Y-37278D01*
X56419Y-37293D01*
X56245Y-37518D02*
X56254Y-37525D01*
X56263Y-37548D01*
X56263Y-37563D01*
X56254Y-37585D01*
X56236Y-37600D01*
X56217Y-37608D01*
X56180Y-37615D01*
X56152Y-37615D01*
X56115Y-37608D01*
X56096Y-37600D01*
X56078Y-37585D01*
X56068Y-37563D01*
X56068Y-37548D01*
X56078Y-37525D01*
X56087Y-37518D01*
X56068Y-37383D02*
X56068Y-37413D01*
X56078Y-37428D01*
X56087Y-37436D01*
X56115Y-37451D01*
X56152Y-37458D01*
X56226Y-37458D01*
X56245Y-37451D01*
X56254Y-37443D01*
X56263Y-37428D01*
X56263Y-37398D01*
X56254Y-37383D01*
X56245Y-37376D01*
X56226Y-37368D01*
X56180Y-37368D01*
X56161Y-37376D01*
X56152Y-37383D01*
X56143Y-37398D01*
X56143Y-37428D01*
X56152Y-37443D01*
X56161Y-37451D01*
X56180Y-37458D01*
X56152Y-37278D02*
X56143Y-37293D01*
X56133Y-37301D01*
X56115Y-37308D01*
X56106Y-37308D01*
X56087Y-37301D01*
X56078Y-37293D01*
X56068Y-37278D01*
X56068Y-37248D01*
X56078Y-37233D01*
X56087Y-37226D01*
X56106Y-37218D01*
X56115Y-37218D01*
X56133Y-37226D01*
X56143Y-37233D01*
X56152Y-37248D01*
X56152Y-37278D01*
X56161Y-37293D01*
X56171Y-37301D01*
X56189Y-37308D01*
X56226Y-37308D01*
X56245Y-37301D01*
X56254Y-37293D01*
X56263Y-37278D01*
X56263Y-37248D01*
X56254Y-37233D01*
X56245Y-37226D01*
X56226Y-37218D01*
X56189Y-37218D01*
X56171Y-37226D01*
X56161Y-37233D01*
X56152Y-37248D01*
X55969Y-37503D02*
X55978Y-37510D01*
X55987Y-37533D01*
X55987Y-37548D01*
X55978Y-37570D01*
X55960Y-37585D01*
X55941Y-37593D01*
X55904Y-37600D01*
X55876Y-37600D01*
X55839Y-37593D01*
X55820Y-37585D01*
X55802Y-37570D01*
X55792Y-37548D01*
X55792Y-37533D01*
X55802Y-37510D01*
X55811Y-37503D01*
X55792Y-37368D02*
X55792Y-37398D01*
X55802Y-37413D01*
X55811Y-37421D01*
X55839Y-37436D01*
X55876Y-37443D01*
X55950Y-37443D01*
X55969Y-37436D01*
X55978Y-37428D01*
X55987Y-37413D01*
X55987Y-37383D01*
X55978Y-37368D01*
X55969Y-37361D01*
X55950Y-37353D01*
X55904Y-37353D01*
X55885Y-37361D01*
X55876Y-37368D01*
X55867Y-37383D01*
X55867Y-37413D01*
X55876Y-37428D01*
X55885Y-37436D01*
X55904Y-37443D01*
X55792Y-37256D02*
X55792Y-37241D01*
X55802Y-37226D01*
X55811Y-37218D01*
X55830Y-37211D01*
X55867Y-37203D01*
X55913Y-37203D01*
X55950Y-37211D01*
X55969Y-37218D01*
X55978Y-37226D01*
X55987Y-37241D01*
X55987Y-37256D01*
X55978Y-37271D01*
X55969Y-37278D01*
X55950Y-37286D01*
X55913Y-37293D01*
X55867Y-37293D01*
X55830Y-37286D01*
X55811Y-37278D01*
X55802Y-37271D01*
X55792Y-37256D01*
X57860Y-36619D02*
X57853Y-36628D01*
X57830Y-36637D01*
X57815Y-36637D01*
X57793Y-36628D01*
X57778Y-36610D01*
X57770Y-36591D01*
X57763Y-36554D01*
X57763Y-36526D01*
X57770Y-36489D01*
X57778Y-36470D01*
X57793Y-36452D01*
X57815Y-36442D01*
X57830Y-36442D01*
X57853Y-36452D01*
X57860Y-36461D01*
X57912Y-36442D02*
X58010Y-36442D01*
X57957Y-36517D01*
X57980Y-36517D01*
X57995Y-36526D01*
X58002Y-36535D01*
X58010Y-36554D01*
X58010Y-36600D01*
X58002Y-36619D01*
X57995Y-36628D01*
X57980Y-36637D01*
X57935Y-36637D01*
X57920Y-36628D01*
X57912Y-36619D01*
X58145Y-36442D02*
X58115Y-36442D01*
X58100Y-36452D01*
X58092Y-36461D01*
X58077Y-36489D01*
X58070Y-36526D01*
X58070Y-36600D01*
X58077Y-36619D01*
X58085Y-36628D01*
X58100Y-36637D01*
X58130Y-36637D01*
X58145Y-36628D01*
X58152Y-36619D01*
X58160Y-36600D01*
X58160Y-36554D01*
X58152Y-36535D01*
X58145Y-36526D01*
X58130Y-36517D01*
X58100Y-36517D01*
X58085Y-36526D01*
X58077Y-36535D01*
X58070Y-36554D01*
X57832Y-34257D02*
X57825Y-34266D01*
X57802Y-34275D01*
X57787Y-34275D01*
X57765Y-34266D01*
X57750Y-34248D01*
X57742Y-34229D01*
X57735Y-34192D01*
X57735Y-34164D01*
X57742Y-34127D01*
X57750Y-34108D01*
X57765Y-34090D01*
X57787Y-34080D01*
X57802Y-34080D01*
X57825Y-34090D01*
X57832Y-34099D01*
X57967Y-34080D02*
X57937Y-34080D01*
X57922Y-34090D01*
X57914Y-34099D01*
X57899Y-34127D01*
X57892Y-34164D01*
X57892Y-34238D01*
X57899Y-34257D01*
X57907Y-34266D01*
X57922Y-34275D01*
X57952Y-34275D01*
X57967Y-34266D01*
X57974Y-34257D01*
X57982Y-34238D01*
X57982Y-34192D01*
X57974Y-34173D01*
X57967Y-34164D01*
X57952Y-34155D01*
X57922Y-34155D01*
X57907Y-34164D01*
X57899Y-34173D01*
X57892Y-34192D01*
X58057Y-34275D02*
X58087Y-34275D01*
X58102Y-34266D01*
X58109Y-34257D01*
X58124Y-34229D01*
X58132Y-34192D01*
X58132Y-34118D01*
X58124Y-34099D01*
X58117Y-34090D01*
X58102Y-34080D01*
X58072Y-34080D01*
X58057Y-34090D01*
X58049Y-34099D01*
X58042Y-34118D01*
X58042Y-34164D01*
X58049Y-34183D01*
X58057Y-34192D01*
X58072Y-34201D01*
X58102Y-34201D01*
X58117Y-34192D01*
X58124Y-34183D01*
X58132Y-34164D01*
X55686Y-37510D02*
X55695Y-37517D01*
X55704Y-37540D01*
X55704Y-37555D01*
X55695Y-37577D01*
X55677Y-37592D01*
X55658Y-37600D01*
X55621Y-37607D01*
X55593Y-37607D01*
X55556Y-37600D01*
X55537Y-37592D01*
X55519Y-37577D01*
X55509Y-37555D01*
X55509Y-37540D01*
X55519Y-37517D01*
X55528Y-37510D01*
X55509Y-37368D02*
X55509Y-37443D01*
X55602Y-37450D01*
X55593Y-37443D01*
X55584Y-37428D01*
X55584Y-37390D01*
X55593Y-37375D01*
X55602Y-37368D01*
X55621Y-37360D01*
X55667Y-37360D01*
X55686Y-37368D01*
X55695Y-37375D01*
X55704Y-37390D01*
X55704Y-37428D01*
X55695Y-37443D01*
X55686Y-37450D01*
X55509Y-37225D02*
X55509Y-37255D01*
X55519Y-37270D01*
X55528Y-37278D01*
X55556Y-37293D01*
X55593Y-37300D01*
X55667Y-37300D01*
X55686Y-37293D01*
X55695Y-37285D01*
X55704Y-37270D01*
X55704Y-37240D01*
X55695Y-37225D01*
X55686Y-37218D01*
X55667Y-37210D01*
X55621Y-37210D01*
X55602Y-37218D01*
X55593Y-37225D01*
X55584Y-37240D01*
X55584Y-37270D01*
X55593Y-37285D01*
X55602Y-37293D01*
X55621Y-37300D01*
X60395Y-37148D02*
X60404Y-37155D01*
X60413Y-37178D01*
X60413Y-37193D01*
X60404Y-37215D01*
X60386Y-37230D01*
X60367Y-37238D01*
X60330Y-37245D01*
X60302Y-37245D01*
X60265Y-37238D01*
X60246Y-37230D01*
X60228Y-37215D01*
X60218Y-37193D01*
X60218Y-37178D01*
X60228Y-37155D01*
X60237Y-37148D01*
X60413Y-37073D02*
X60413Y-37043D01*
X60404Y-37028D01*
X60395Y-37021D01*
X60367Y-37006D01*
X60330Y-36998D01*
X60256Y-36998D01*
X60237Y-37006D01*
X60228Y-37013D01*
X60218Y-37028D01*
X60218Y-37058D01*
X60228Y-37073D01*
X60237Y-37081D01*
X60256Y-37088D01*
X60302Y-37088D01*
X60321Y-37081D01*
X60330Y-37073D01*
X60339Y-37058D01*
X60339Y-37028D01*
X60330Y-37013D01*
X60321Y-37006D01*
X60302Y-36998D01*
X60218Y-36856D02*
X60218Y-36931D01*
X60311Y-36938D01*
X60302Y-36931D01*
X60293Y-36916D01*
X60293Y-36878D01*
X60302Y-36863D01*
X60311Y-36856D01*
X60330Y-36848D01*
X60376Y-36848D01*
X60395Y-36856D01*
X60404Y-36863D01*
X60413Y-36878D01*
X60413Y-36916D01*
X60404Y-36931D01*
X60395Y-36938D01*
X62293Y-35123D02*
X62286Y-35132D01*
X62263Y-35141D01*
X62248Y-35141D01*
X62226Y-35132D01*
X62211Y-35114D01*
X62203Y-35095D01*
X62196Y-35058D01*
X62196Y-35030D01*
X62203Y-34993D01*
X62211Y-34974D01*
X62226Y-34956D01*
X62248Y-34946D01*
X62263Y-34946D01*
X62286Y-34956D01*
X62293Y-34965D01*
X62345Y-34946D02*
X62450Y-34946D01*
X62383Y-35141D01*
X62495Y-34946D02*
X62600Y-34946D01*
X62533Y-35141D01*
X48355Y-37054D02*
X48364Y-37061D01*
X48373Y-37084D01*
X48373Y-37099D01*
X48364Y-37121D01*
X48346Y-37136D01*
X48327Y-37144D01*
X48290Y-37151D01*
X48262Y-37151D01*
X48225Y-37144D01*
X48206Y-37136D01*
X48188Y-37121D01*
X48178Y-37099D01*
X48178Y-37084D01*
X48188Y-37061D01*
X48197Y-37054D01*
X48178Y-37002D02*
X48178Y-36897D01*
X48373Y-36964D01*
X48178Y-36762D02*
X48178Y-36837D01*
X48271Y-36844D01*
X48262Y-36837D01*
X48253Y-36822D01*
X48253Y-36784D01*
X48262Y-36769D01*
X48271Y-36762D01*
X48290Y-36754D01*
X48336Y-36754D01*
X48355Y-36762D01*
X48364Y-36769D01*
X48373Y-36784D01*
X48373Y-36822D01*
X48364Y-36837D01*
X48355Y-36844D01*
X48355Y-37731D02*
X48364Y-37738D01*
X48373Y-37761D01*
X48373Y-37776D01*
X48364Y-37798D01*
X48346Y-37813D01*
X48327Y-37821D01*
X48290Y-37828D01*
X48262Y-37828D01*
X48225Y-37821D01*
X48206Y-37813D01*
X48188Y-37798D01*
X48178Y-37776D01*
X48178Y-37761D01*
X48188Y-37738D01*
X48197Y-37731D01*
X48178Y-37679D02*
X48178Y-37574D01*
X48373Y-37641D01*
X48178Y-37446D02*
X48178Y-37476D01*
X48188Y-37491D01*
X48197Y-37499D01*
X48225Y-37514D01*
X48262Y-37521D01*
X48336Y-37521D01*
X48355Y-37514D01*
X48364Y-37506D01*
X48373Y-37491D01*
X48373Y-37461D01*
X48364Y-37446D01*
X48355Y-37439D01*
X48336Y-37431D01*
X48290Y-37431D01*
X48271Y-37439D01*
X48262Y-37446D01*
X48253Y-37461D01*
X48253Y-37491D01*
X48262Y-37506D01*
X48271Y-37514D01*
X48290Y-37521D01*
X60340Y-37926D02*
X60333Y-37935D01*
X60310Y-37944D01*
X60295Y-37944D01*
X60273Y-37935D01*
X60258Y-37917D01*
X60250Y-37898D01*
X60243Y-37861D01*
X60243Y-37833D01*
X60250Y-37796D01*
X60258Y-37777D01*
X60273Y-37759D01*
X60295Y-37749D01*
X60310Y-37749D01*
X60333Y-37759D01*
X60340Y-37768D01*
X60490Y-37944D02*
X60400Y-37944D01*
X60445Y-37944D02*
X60445Y-37749D01*
X60430Y-37777D01*
X60415Y-37796D01*
X60400Y-37805D01*
X60580Y-37833D02*
X60565Y-37824D01*
X60557Y-37814D01*
X60550Y-37796D01*
X60550Y-37787D01*
X60557Y-37768D01*
X60565Y-37759D01*
X60580Y-37749D01*
X60610Y-37749D01*
X60625Y-37759D01*
X60632Y-37768D01*
X60640Y-37787D01*
X60640Y-37796D01*
X60632Y-37814D01*
X60625Y-37824D01*
X60610Y-37833D01*
X60580Y-37833D01*
X60565Y-37842D01*
X60557Y-37852D01*
X60550Y-37870D01*
X60550Y-37907D01*
X60557Y-37926D01*
X60565Y-37935D01*
X60580Y-37944D01*
X60610Y-37944D01*
X60625Y-37935D01*
X60632Y-37926D01*
X60640Y-37907D01*
X60640Y-37870D01*
X60632Y-37852D01*
X60625Y-37842D01*
X60610Y-37833D01*
X59801Y-39143D02*
X59794Y-39152D01*
X59771Y-39161D01*
X59756Y-39161D01*
X59734Y-39152D01*
X59719Y-39134D01*
X59711Y-39115D01*
X59704Y-39078D01*
X59704Y-39050D01*
X59711Y-39013D01*
X59719Y-38994D01*
X59734Y-38976D01*
X59756Y-38966D01*
X59771Y-38966D01*
X59794Y-38976D01*
X59801Y-38985D01*
X59951Y-39161D02*
X59861Y-39161D01*
X59906Y-39161D02*
X59906Y-38966D01*
X59891Y-38994D01*
X59876Y-39013D01*
X59861Y-39022D01*
X60003Y-38966D02*
X60108Y-38966D01*
X60041Y-39161D01*
X59805Y-39466D02*
X59798Y-39475D01*
X59775Y-39484D01*
X59760Y-39484D01*
X59738Y-39475D01*
X59723Y-39457D01*
X59715Y-39438D01*
X59708Y-39401D01*
X59708Y-39373D01*
X59715Y-39336D01*
X59723Y-39317D01*
X59738Y-39299D01*
X59760Y-39289D01*
X59775Y-39289D01*
X59798Y-39299D01*
X59805Y-39308D01*
X59955Y-39484D02*
X59865Y-39484D01*
X59910Y-39484D02*
X59910Y-39289D01*
X59895Y-39317D01*
X59880Y-39336D01*
X59865Y-39345D01*
X60090Y-39289D02*
X60060Y-39289D01*
X60045Y-39299D01*
X60037Y-39308D01*
X60022Y-39336D01*
X60015Y-39373D01*
X60015Y-39447D01*
X60022Y-39466D01*
X60030Y-39475D01*
X60045Y-39484D01*
X60075Y-39484D01*
X60090Y-39475D01*
X60097Y-39466D01*
X60105Y-39447D01*
X60105Y-39401D01*
X60097Y-39382D01*
X60090Y-39373D01*
X60075Y-39364D01*
X60045Y-39364D01*
X60030Y-39373D01*
X60022Y-39382D01*
X60015Y-39401D01*
X60009Y-40891D02*
X60002Y-40900D01*
X59979Y-40909D01*
X59964Y-40909D01*
X59942Y-40900D01*
X59927Y-40882D01*
X59919Y-40863D01*
X59912Y-40826D01*
X59912Y-40798D01*
X59919Y-40761D01*
X59927Y-40742D01*
X59942Y-40724D01*
X59964Y-40714D01*
X59979Y-40714D01*
X60002Y-40724D01*
X60009Y-40733D01*
X60159Y-40909D02*
X60069Y-40909D01*
X60114Y-40909D02*
X60114Y-40714D01*
X60099Y-40742D01*
X60084Y-40761D01*
X60069Y-40770D01*
X60211Y-40714D02*
X60309Y-40714D01*
X60256Y-40789D01*
X60279Y-40789D01*
X60294Y-40798D01*
X60301Y-40807D01*
X60309Y-40826D01*
X60309Y-40872D01*
X60301Y-40891D01*
X60294Y-40900D01*
X60279Y-40909D01*
X60234Y-40909D01*
X60219Y-40900D01*
X60211Y-40891D01*
X60001Y-42229D02*
X59994Y-42238D01*
X59971Y-42247D01*
X59956Y-42247D01*
X59934Y-42238D01*
X59919Y-42220D01*
X59911Y-42201D01*
X59904Y-42164D01*
X59904Y-42136D01*
X59911Y-42099D01*
X59919Y-42080D01*
X59934Y-42062D01*
X59956Y-42052D01*
X59971Y-42052D01*
X59994Y-42062D01*
X60001Y-42071D01*
X60151Y-42247D02*
X60061Y-42247D01*
X60106Y-42247D02*
X60106Y-42052D01*
X60091Y-42080D01*
X60076Y-42099D01*
X60061Y-42108D01*
X60293Y-42052D02*
X60218Y-42052D01*
X60211Y-42145D01*
X60218Y-42136D01*
X60233Y-42127D01*
X60271Y-42127D01*
X60286Y-42136D01*
X60293Y-42145D01*
X60301Y-42164D01*
X60301Y-42210D01*
X60293Y-42229D01*
X60286Y-42238D01*
X60271Y-42247D01*
X60233Y-42247D01*
X60218Y-42238D01*
X60211Y-42229D01*
X54620Y-39320D02*
X54613Y-39329D01*
X54590Y-39338D01*
X54575Y-39338D01*
X54553Y-39329D01*
X54538Y-39311D01*
X54530Y-39292D01*
X54523Y-39255D01*
X54523Y-39227D01*
X54530Y-39190D01*
X54538Y-39171D01*
X54553Y-39153D01*
X54575Y-39143D01*
X54590Y-39143D01*
X54613Y-39153D01*
X54620Y-39162D01*
X54762Y-39143D02*
X54687Y-39143D01*
X54680Y-39236D01*
X54687Y-39227D01*
X54702Y-39218D01*
X54740Y-39218D01*
X54755Y-39227D01*
X54762Y-39236D01*
X54770Y-39255D01*
X54770Y-39301D01*
X54762Y-39320D01*
X54755Y-39329D01*
X54740Y-39338D01*
X54702Y-39338D01*
X54687Y-39329D01*
X54680Y-39320D01*
X60021Y-41233D02*
X60014Y-41242D01*
X59991Y-41251D01*
X59976Y-41251D01*
X59954Y-41242D01*
X59939Y-41224D01*
X59931Y-41205D01*
X59924Y-41168D01*
X59924Y-41140D01*
X59931Y-41103D01*
X59939Y-41084D01*
X59954Y-41066D01*
X59976Y-41056D01*
X59991Y-41056D01*
X60014Y-41066D01*
X60021Y-41075D01*
X60171Y-41251D02*
X60081Y-41251D01*
X60126Y-41251D02*
X60126Y-41056D01*
X60111Y-41084D01*
X60096Y-41103D01*
X60081Y-41112D01*
X60306Y-41121D02*
X60306Y-41251D01*
X60268Y-41047D02*
X60231Y-41186D01*
X60328Y-41186D01*
G54D17*
G54D12*
X50891Y-49433D02*
X50577Y-49433D01*
X50577Y-49377D01*
X50592Y-49343D01*
X50622Y-49320D01*
X50652Y-49309D01*
X50712Y-49298D01*
X50757Y-49298D01*
X50816Y-49309D01*
X50846Y-49320D01*
X50876Y-49343D01*
X50891Y-49377D01*
X50891Y-49433D01*
X50801Y-49208D02*
X50801Y-49096D01*
X50891Y-49231D02*
X50577Y-49152D01*
X50891Y-49073D01*
X50891Y-48871D02*
X50891Y-49006D01*
X50891Y-48939D02*
X50577Y-48939D01*
X50622Y-48961D01*
X50652Y-48984D01*
X50667Y-49006D01*
G54D17*
G54D16*
X59190Y-46869D02*
X59138Y-46777D01*
X59100Y-46869D02*
X59100Y-46674D01*
X59160Y-46674D01*
X59175Y-46684D01*
X59183Y-46693D01*
X59190Y-46712D01*
X59190Y-46739D01*
X59183Y-46758D01*
X59175Y-46767D01*
X59160Y-46777D01*
X59100Y-46777D01*
X59325Y-46739D02*
X59325Y-46869D01*
X59287Y-46665D02*
X59250Y-46804D01*
X59347Y-46804D01*
X59392Y-46674D02*
X59490Y-46674D01*
X59437Y-46749D01*
X59460Y-46749D01*
X59475Y-46758D01*
X59482Y-46767D01*
X59490Y-46786D01*
X59490Y-46832D01*
X59482Y-46851D01*
X59475Y-46860D01*
X59460Y-46869D01*
X59415Y-46869D01*
X59400Y-46860D01*
X59392Y-46851D01*
X59686Y-46796D02*
X59611Y-46796D01*
X59611Y-46600D01*
X59738Y-46796D02*
X59738Y-46600D01*
X59776Y-46600D01*
X59798Y-46610D01*
X59813Y-46628D01*
X59821Y-46647D01*
X59828Y-46684D01*
X59828Y-46712D01*
X59821Y-46750D01*
X59813Y-46768D01*
X59798Y-46787D01*
X59776Y-46796D01*
X59738Y-46796D01*
X59978Y-46796D02*
X59888Y-46796D01*
X59933Y-46796D02*
X59933Y-46600D01*
X59918Y-46628D01*
X59903Y-46647D01*
X59888Y-46656D01*
G54D17*
G54D12*
X50491Y-33294D02*
X50570Y-33294D01*
X50604Y-33458D02*
X50491Y-33458D01*
X50491Y-33144D01*
X50604Y-33144D01*
X50705Y-33458D02*
X50705Y-33144D01*
X50840Y-33458D02*
X50739Y-33279D01*
X50840Y-33144D02*
X50705Y-33324D01*
X51065Y-33458D02*
X50930Y-33458D01*
X50997Y-33458D02*
X50997Y-33144D01*
X50975Y-33189D01*
X50952Y-33219D01*
X50930Y-33234D01*
G54D18*
X63762Y-46238D02*
X63971Y-46630D01*
X63971Y-46238D02*
X63762Y-46630D01*
X64061Y-46238D02*
X64270Y-46238D01*
X64136Y-46630D01*
X64092Y-33385D02*
X64301Y-33777D01*
X64301Y-33385D02*
X64092Y-33777D01*
X64555Y-33385D02*
X64496Y-33385D01*
X64466Y-33403D01*
X64451Y-33422D01*
X64421Y-33478D01*
X64406Y-33553D01*
X64406Y-33702D01*
X64421Y-33739D01*
X64436Y-33758D01*
X64466Y-33777D01*
X64525Y-33777D01*
X64555Y-33758D01*
X64570Y-33739D01*
X64585Y-33702D01*
X64585Y-33609D01*
X64570Y-33571D01*
X64555Y-33553D01*
X64525Y-33534D01*
X64466Y-33534D01*
X64436Y-33553D01*
X64421Y-33571D01*
X64406Y-33609D01*
G54D14*
X51557Y-32724D02*
X51766Y-33116D01*
X51766Y-32724D02*
X51557Y-33116D01*
X51931Y-32892D02*
X51901Y-32873D01*
X51886Y-32854D01*
X51871Y-32817D01*
X51871Y-32798D01*
X51886Y-32761D01*
X51901Y-32742D01*
X51931Y-32724D01*
X51990Y-32724D01*
X52020Y-32742D01*
X52035Y-32761D01*
X52050Y-32798D01*
X52050Y-32817D01*
X52035Y-32854D01*
X52020Y-32873D01*
X51990Y-32892D01*
X51931Y-32892D01*
X51901Y-32910D01*
X51886Y-32929D01*
X51871Y-32966D01*
X51871Y-33041D01*
X51886Y-33078D01*
X51901Y-33097D01*
X51931Y-33116D01*
X51990Y-33116D01*
X52020Y-33097D01*
X52035Y-33078D01*
X52050Y-33041D01*
X52050Y-32966D01*
X52035Y-32929D01*
X52020Y-32910D01*
X51990Y-32892D01*
G54D13*
X55596Y-32487D02*
X55805Y-32879D01*
X55805Y-32487D02*
X55596Y-32879D01*
X55940Y-32879D02*
X56000Y-32879D01*
X56029Y-32860D01*
X56044Y-32841D01*
X56074Y-32785D01*
X56089Y-32711D01*
X56089Y-32561D01*
X56074Y-32524D01*
X56059Y-32505D01*
X56029Y-32487D01*
X55970Y-32487D01*
X55940Y-32505D01*
X55925Y-32524D01*
X55910Y-32561D01*
X55910Y-32655D01*
X55925Y-32692D01*
X55940Y-32711D01*
X55970Y-32729D01*
X56029Y-32729D01*
X56059Y-32711D01*
X56074Y-32692D01*
X56089Y-32655D01*
X53377Y-32847D02*
X53198Y-32847D01*
X53288Y-32847D02*
X53288Y-32454D01*
X53258Y-32510D01*
X53228Y-32547D01*
X53198Y-32566D01*
X58254Y-49129D02*
X58463Y-49521D01*
X58463Y-49129D02*
X58254Y-49521D01*
X58568Y-49166D02*
X58583Y-49147D01*
X58613Y-49129D01*
X58687Y-49129D01*
X58717Y-49147D01*
X58732Y-49166D01*
X58747Y-49203D01*
X58747Y-49241D01*
X58732Y-49297D01*
X58553Y-49521D01*
X58747Y-49521D01*
G54D12*
X55331Y-48403D02*
X55511Y-48403D01*
X55421Y-48523D02*
X55421Y-48284D01*
X55589Y-48209D02*
X55668Y-48523D01*
X55747Y-48209D01*
X55960Y-48493D02*
X55949Y-48508D01*
X55915Y-48523D01*
X55893Y-48523D01*
X55859Y-48508D01*
X55836Y-48478D01*
X55825Y-48448D01*
X55814Y-48389D01*
X55814Y-48344D01*
X55825Y-48284D01*
X55836Y-48254D01*
X55859Y-48224D01*
X55893Y-48209D01*
X55915Y-48209D01*
X55949Y-48224D01*
X55960Y-48239D01*
X56196Y-48493D02*
X56185Y-48508D01*
X56151Y-48523D01*
X56129Y-48523D01*
X56095Y-48508D01*
X56072Y-48478D01*
X56061Y-48448D01*
X56050Y-48389D01*
X56050Y-48344D01*
X56061Y-48284D01*
X56072Y-48254D01*
X56095Y-48224D01*
X56129Y-48209D01*
X56151Y-48209D01*
X56185Y-48224D01*
X56196Y-48239D01*
X61741Y-44804D02*
X61741Y-44490D01*
X61797Y-44490D01*
X61831Y-44505D01*
X61854Y-44535D01*
X61865Y-44565D01*
X61876Y-44625D01*
X61876Y-44670D01*
X61865Y-44729D01*
X61854Y-44759D01*
X61831Y-44789D01*
X61797Y-44804D01*
X61741Y-44804D01*
X61966Y-44714D02*
X62078Y-44714D01*
X61943Y-44804D02*
X62022Y-44490D01*
X62101Y-44804D01*
X62280Y-44490D02*
X62235Y-44490D01*
X62213Y-44505D01*
X62202Y-44520D01*
X62179Y-44565D01*
X62168Y-44625D01*
X62168Y-44744D01*
X62179Y-44774D01*
X62190Y-44789D01*
X62213Y-44804D01*
X62258Y-44804D01*
X62280Y-44789D01*
X62292Y-44774D01*
X62303Y-44744D01*
X62303Y-44670D01*
X62292Y-44640D01*
X62280Y-44625D01*
X62258Y-44610D01*
X62213Y-44610D01*
X62190Y-44625D01*
X62179Y-44640D01*
X62168Y-44670D01*
G54D13*
X62488Y-45713D02*
X62488Y-45806D01*
X62413Y-45769D02*
X62488Y-45806D01*
X62562Y-45769D01*
X62443Y-45881D02*
X62488Y-45806D01*
X62532Y-45881D01*
G54D11*
X56250Y-44500D02*
X56429Y-44500D01*
X56340Y-44892D02*
X56340Y-44500D01*
X56698Y-44892D02*
X56519Y-44892D01*
X56609Y-44892D02*
X56609Y-44500D01*
X56579Y-44556D01*
X56549Y-44593D01*
X56519Y-44612D01*
G54D13*
X57088Y-43368D02*
X57088Y-43461D01*
X57013Y-43424D02*
X57088Y-43461D01*
X57162Y-43424D01*
X57043Y-43536D02*
X57088Y-43461D01*
X57132Y-43536D01*
G54D12*
X60733Y-34564D02*
X60733Y-34250D01*
X60789Y-34250D01*
X60823Y-34265D01*
X60846Y-34295D01*
X60857Y-34325D01*
X60868Y-34385D01*
X60868Y-34430D01*
X60857Y-34489D01*
X60846Y-34519D01*
X60823Y-34549D01*
X60789Y-34564D01*
X60733Y-34564D01*
X60958Y-34474D02*
X61070Y-34474D01*
X60935Y-34564D02*
X61014Y-34250D01*
X61093Y-34564D01*
X61284Y-34250D02*
X61171Y-34250D01*
X61160Y-34400D01*
X61171Y-34385D01*
X61194Y-34370D01*
X61250Y-34370D01*
X61272Y-34385D01*
X61284Y-34400D01*
X61295Y-34430D01*
X61295Y-34504D01*
X61284Y-34534D01*
X61272Y-34549D01*
X61250Y-34564D01*
X61194Y-34564D01*
X61171Y-34549D01*
X61160Y-34534D01*
G54D13*
X60257Y-34825D02*
X60257Y-34918D01*
X60182Y-34881D02*
X60257Y-34918D01*
X60331Y-34881D01*
X60212Y-34993D02*
X60257Y-34918D01*
X60301Y-34993D01*
G54D11*
X54635Y-35015D02*
X54814Y-35015D01*
X54725Y-35407D02*
X54725Y-35015D01*
X54904Y-35052D02*
X54919Y-35033D01*
X54949Y-35015D01*
X55023Y-35015D01*
X55053Y-35033D01*
X55068Y-35052D01*
X55083Y-35089D01*
X55083Y-35127D01*
X55068Y-35183D01*
X54889Y-35407D01*
X55083Y-35407D01*
G54D13*
X56822Y-36282D02*
X56822Y-36375D01*
X56747Y-36338D02*
X56822Y-36375D01*
X56896Y-36338D01*
X56777Y-36450D02*
X56822Y-36375D01*
X56866Y-36450D01*
G54D12*
X55670Y-38135D02*
X55670Y-37821D01*
X55726Y-37821D01*
X55760Y-37836D01*
X55783Y-37866D01*
X55794Y-37896D01*
X55805Y-37956D01*
X55805Y-38001D01*
X55794Y-38060D01*
X55783Y-38090D01*
X55760Y-38120D01*
X55726Y-38135D01*
X55670Y-38135D01*
X55895Y-38045D02*
X56007Y-38045D01*
X55872Y-38135D02*
X55951Y-37821D01*
X56030Y-38135D01*
X56086Y-37821D02*
X56232Y-37821D01*
X56153Y-37941D01*
X56187Y-37941D01*
X56209Y-37956D01*
X56221Y-37971D01*
X56232Y-38001D01*
X56232Y-38075D01*
X56221Y-38105D01*
X56209Y-38120D01*
X56187Y-38135D01*
X56119Y-38135D01*
X56097Y-38120D01*
X56086Y-38105D01*
G54D13*
X61321Y-32468D02*
X61530Y-32860D01*
X61530Y-32468D02*
X61321Y-32860D01*
X61799Y-32468D02*
X61650Y-32468D01*
X61635Y-32654D01*
X61650Y-32636D01*
X61680Y-32617D01*
X61754Y-32617D01*
X61784Y-32636D01*
X61799Y-32654D01*
X61814Y-32692D01*
X61814Y-32785D01*
X61799Y-32822D01*
X61784Y-32841D01*
X61754Y-32860D01*
X61680Y-32860D01*
X61650Y-32841D01*
X61635Y-32822D01*
X59388Y-32828D02*
X59209Y-32828D01*
X59299Y-32828D02*
X59299Y-32435D01*
X59269Y-32491D01*
X59239Y-32528D01*
X59209Y-32547D01*
X60844Y-47306D02*
X61053Y-47698D01*
X61053Y-47306D02*
X60844Y-47698D01*
X61307Y-47436D02*
X61307Y-47698D01*
X61233Y-47287D02*
X61158Y-47567D01*
X61352Y-47567D01*
X59117Y-49344D02*
X58938Y-49344D01*
X59028Y-49344D02*
X59028Y-48951D01*
X58998Y-49007D01*
X58968Y-49044D01*
X58938Y-49063D01*
M02*
