G04 (created by PCBNEW-RS274X (2012-08-04 BZR 3667)-testing) date 10/19/2012 7:17:05 PM*
%MOIN*%
G04 Gerber Fmt 3.4, Leading zero omitted, Abs format*
%FSLAX34Y34*%
G01*
G70*
G90*
G04 APERTURE LIST*
%ADD10C,0.0017*%
%ADD11C,0.0059*%
%ADD12C,0.0077*%
%ADD13R,0.0392X0.0392*%
%ADD14R,0.0472X0.051*%
%ADD15R,0.051X0.0472*%
%ADD16R,0.0195X0.0175*%
%ADD17R,0.0175X0.0195*%
%ADD18R,0.0259X0.014*%
%ADD19R,0.014X0.0259*%
%ADD20R,0.0275X0.0314*%
%ADD21R,0.0314X0.0275*%
%ADD22R,0.0195X0.0195*%
%ADD23R,0.1417X0.055*%
%ADD24R,0.244X0.2598*%
%ADD25R,0.0314X0.0314*%
%ADD26R,0.1849X0.0589*%
%ADD27R,0.0589X0.0275*%
%ADD28C,0.0597*%
%ADD29R,0.0597X0.0597*%
%ADD30R,0.0472X0.015*%
%ADD31O,0.0472X0.015*%
%ADD32R,0.0299X0.0649*%
%ADD33R,0.0669X0.0669*%
%ADD34O,0.0117X0.0335*%
%ADD35O,0.0122X0.0335*%
%ADD36O,0.0118X0.0335*%
%ADD37O,0.0335X0.0118*%
%ADD38R,0.0335X0.0118*%
%ADD39O,0.0335X0.0122*%
%ADD40R,0.0117X0.0275*%
%ADD41R,0.0117X0.0117*%
%ADD42R,0.0117X0.0177*%
%ADD43R,0.0177X0.0117*%
G04 APERTURE END LIST*
G54D10*
G54D11*
X41831Y-53937D02*
G75*
G03X41831Y-53937I-492J0D01*
G74*
G01*
X40355Y-53937D02*
X42323Y-53937D01*
X41339Y-52953D02*
X41339Y-54921D01*
X70964Y-26378D02*
G75*
G03X70964Y-26378I-492J0D01*
G74*
G01*
X69488Y-26378D02*
X71456Y-26378D01*
X70472Y-25394D02*
X70472Y-27362D01*
X41831Y-26378D02*
G75*
G03X41831Y-26378I-492J0D01*
G74*
G01*
X40355Y-26378D02*
X42323Y-26378D01*
X41339Y-25394D02*
X41339Y-27362D01*
G54D12*
X42606Y-52483D02*
X42606Y-27680D01*
X68983Y-52483D02*
X42606Y-52483D01*
X68983Y-27680D02*
X68983Y-52483D01*
X42606Y-27680D02*
X68983Y-27680D01*
X66228Y-30437D02*
X66228Y-39492D01*
X57764Y-30437D02*
X66228Y-30437D01*
X57764Y-29650D02*
X57764Y-30437D01*
X67016Y-29650D02*
X57764Y-29650D01*
X67016Y-39492D02*
X67016Y-29650D01*
X66228Y-39492D02*
X67016Y-39492D01*
X57764Y-50515D02*
X57764Y-49728D01*
X67016Y-50515D02*
X57764Y-50515D01*
X67016Y-40948D02*
X67016Y-50515D01*
X66228Y-40948D02*
X67016Y-40948D01*
X66228Y-49728D02*
X66228Y-40948D01*
X57764Y-49728D02*
X66228Y-49728D01*
X46936Y-50515D02*
X46936Y-44413D01*
X56386Y-50515D02*
X46936Y-50515D01*
X56386Y-49728D02*
X56386Y-50515D01*
X47724Y-49728D02*
X56386Y-49728D01*
X47724Y-44413D02*
X47724Y-49728D01*
X46936Y-44413D02*
X47724Y-44413D01*
X46936Y-43390D02*
X46936Y-35555D01*
X47724Y-43390D02*
X46936Y-43390D01*
X47724Y-35555D02*
X47724Y-43390D01*
X46936Y-35555D02*
X47724Y-35555D01*
X47724Y-30437D02*
X47724Y-34570D01*
X46936Y-34570D02*
X47724Y-34570D01*
X46936Y-29648D02*
X46936Y-34570D01*
X46936Y-29648D02*
X56384Y-29648D01*
X56384Y-29648D02*
X56384Y-30437D01*
X47724Y-30437D02*
X56384Y-30437D01*
G54D13*
X49299Y-51303D03*
X49299Y-51303D03*
X66622Y-51303D03*
X66622Y-51303D03*
X66621Y-28862D03*
X66621Y-28862D03*
G54D14*
X56532Y-48310D03*
X56532Y-47406D03*
G54D15*
X51568Y-44036D03*
X52472Y-44036D03*
X51568Y-44772D03*
X52472Y-44772D03*
G54D16*
X51445Y-35036D03*
X51445Y-35406D03*
G54D17*
X61870Y-36559D03*
X61500Y-36559D03*
G54D16*
X60461Y-41890D03*
X60461Y-41520D03*
X55299Y-38559D03*
X55299Y-38929D03*
X60827Y-41504D03*
X60827Y-41874D03*
X60618Y-38784D03*
X60618Y-38414D03*
X60264Y-38402D03*
X60264Y-38772D03*
X59665Y-38024D03*
X59665Y-37654D03*
G54D18*
X58799Y-43133D03*
X58799Y-42793D03*
X57825Y-35952D03*
X57825Y-36292D03*
X59843Y-43123D03*
X59843Y-42783D03*
G54D19*
X58800Y-35740D03*
X58460Y-35740D03*
X57442Y-36787D03*
X57102Y-36787D03*
G54D18*
X58472Y-36568D03*
X58472Y-36228D03*
G54D19*
X57434Y-35512D03*
X57094Y-35512D03*
X58957Y-37870D03*
X58617Y-37870D03*
G54D18*
X59252Y-36247D03*
X59252Y-36587D03*
G54D19*
X58296Y-42520D03*
X57956Y-42520D03*
X57123Y-42500D03*
X57463Y-42500D03*
X59692Y-44606D03*
X60032Y-44606D03*
G54D18*
X58976Y-44225D03*
X58976Y-43885D03*
G54D19*
X59692Y-43484D03*
X60032Y-43484D03*
X57237Y-37984D03*
X56897Y-37984D03*
X56568Y-36500D03*
X56228Y-36500D03*
X55550Y-36496D03*
X55890Y-36496D03*
X58044Y-37992D03*
X57704Y-37992D03*
G54D20*
X57078Y-47500D03*
X57508Y-47500D03*
X57088Y-48284D03*
X57518Y-48284D03*
X54542Y-45276D03*
X54112Y-45276D03*
G54D21*
X51469Y-43372D03*
X51469Y-42943D03*
G54D20*
X53057Y-44851D03*
X53487Y-44851D03*
X55215Y-44638D03*
X54785Y-44638D03*
X53990Y-43882D03*
X54420Y-43882D03*
G54D22*
X59016Y-35305D03*
X59370Y-35305D03*
X59327Y-45031D03*
X59681Y-45031D03*
X58976Y-44606D03*
X58622Y-44606D03*
X59693Y-43878D03*
X59693Y-44232D03*
X58976Y-43504D03*
X58622Y-43504D03*
X59124Y-42776D03*
X59124Y-43130D03*
X59488Y-42776D03*
X59488Y-43130D03*
X59130Y-42477D03*
X59484Y-42477D03*
X59577Y-36584D03*
X59577Y-36230D03*
X57469Y-45799D03*
X57823Y-45799D03*
X57622Y-35059D03*
X57976Y-35059D03*
X58004Y-42933D03*
X58004Y-43287D03*
X57461Y-42933D03*
X57461Y-43287D03*
X57667Y-42165D03*
X58021Y-42165D03*
X59012Y-37480D03*
X59012Y-37126D03*
X59248Y-35744D03*
X59602Y-35744D03*
X58799Y-36575D03*
X58799Y-36221D03*
X57441Y-36289D03*
X57441Y-35935D03*
X51976Y-36496D03*
X52330Y-36496D03*
X57825Y-35522D03*
X58179Y-35522D03*
X58071Y-37579D03*
X58071Y-37225D03*
X57677Y-37579D03*
X57677Y-37225D03*
X57260Y-37575D03*
X57260Y-37221D03*
X57825Y-36781D03*
X58179Y-36781D03*
X57764Y-34433D03*
X58118Y-34433D03*
X56874Y-37567D03*
X56874Y-37213D03*
X58547Y-37480D03*
X58547Y-37126D03*
X62217Y-35299D03*
X62571Y-35299D03*
X48532Y-37130D03*
X48532Y-36776D03*
X48532Y-37457D03*
X48532Y-37811D03*
X60264Y-38110D03*
X60618Y-38110D03*
X60268Y-39083D03*
X60622Y-39083D03*
X60264Y-39406D03*
X60618Y-39406D03*
X60473Y-40831D03*
X60827Y-40831D03*
X60461Y-42173D03*
X60815Y-42173D03*
X55283Y-39252D03*
X54929Y-39252D03*
X60481Y-41173D03*
X60835Y-41173D03*
G54D23*
X55145Y-49107D03*
G54D24*
X52271Y-48173D03*
G54D23*
X55145Y-47309D03*
G54D17*
X59347Y-47051D03*
X58977Y-47051D03*
G54D25*
X60421Y-46992D03*
X59791Y-46992D03*
G54D13*
X49299Y-28862D03*
X49299Y-28862D03*
G54D26*
X65161Y-43763D03*
X65161Y-45867D03*
G54D27*
X65711Y-44815D03*
G54D26*
X65145Y-34246D03*
X65145Y-36350D03*
G54D27*
X65695Y-35298D03*
G54D28*
X58307Y-31834D03*
X57307Y-31834D03*
X56307Y-31834D03*
X55307Y-31834D03*
G54D29*
X53307Y-31814D03*
G54D28*
X54307Y-31834D03*
G54D29*
X57576Y-49079D03*
G54D28*
X56576Y-49079D03*
G54D30*
X62005Y-45800D03*
G54D31*
X62005Y-45543D03*
X62005Y-45289D03*
X62005Y-45032D03*
X60235Y-45032D03*
X60235Y-45289D03*
X60235Y-45543D03*
X60235Y-45800D03*
G54D32*
X57164Y-43981D03*
X57664Y-43981D03*
X58164Y-43981D03*
X58164Y-45232D03*
X57164Y-45232D03*
G54D33*
X61200Y-35379D03*
G54D34*
X61298Y-34799D03*
G54D35*
X61102Y-34799D03*
G54D34*
X60905Y-34799D03*
G54D35*
X61495Y-34799D03*
X61102Y-35959D03*
G54D36*
X60905Y-35960D03*
X61298Y-35960D03*
X61495Y-35960D03*
G54D37*
X60619Y-35281D03*
G54D38*
X60619Y-35084D03*
G54D37*
X60619Y-35477D03*
X60619Y-35674D03*
G54D39*
X61780Y-35281D03*
G54D37*
X61781Y-35084D03*
X61781Y-35477D03*
X61781Y-35674D03*
G54D32*
X56579Y-35874D03*
X56079Y-35874D03*
X55579Y-35874D03*
X55579Y-34623D03*
X56579Y-34623D03*
G54D40*
X58133Y-41147D03*
X58133Y-40782D03*
X58133Y-40414D03*
X58133Y-40050D03*
X58133Y-39679D03*
X58133Y-39314D03*
X58133Y-38947D03*
X58328Y-38947D03*
X58330Y-39314D03*
X58330Y-39679D03*
X58330Y-40050D03*
X58330Y-40414D03*
X58330Y-40782D03*
X58330Y-41147D03*
X58718Y-41147D03*
X58718Y-40782D03*
X58718Y-40414D03*
X58718Y-40050D03*
X58718Y-39679D03*
X58718Y-39314D03*
X58718Y-38947D03*
X58521Y-38947D03*
X58521Y-39314D03*
X58521Y-39679D03*
X58521Y-40050D03*
X58521Y-40414D03*
X58521Y-40782D03*
X58521Y-41147D03*
X58916Y-38947D03*
X58916Y-39314D03*
X58916Y-39679D03*
X58916Y-40050D03*
X58916Y-40414D03*
X58916Y-40782D03*
X58916Y-41147D03*
X57353Y-41147D03*
X57353Y-40782D03*
X57353Y-40414D03*
X57353Y-40050D03*
X57353Y-39679D03*
X57353Y-39314D03*
X57353Y-38947D03*
X57548Y-38947D03*
X57550Y-39314D03*
X57550Y-39679D03*
X57550Y-40050D03*
X57550Y-40414D03*
X57550Y-40782D03*
X57550Y-41147D03*
X57938Y-41147D03*
X57938Y-40782D03*
X57938Y-40414D03*
X57938Y-40050D03*
X57938Y-39679D03*
X57938Y-39314D03*
X57938Y-38947D03*
X57741Y-38947D03*
X57741Y-39314D03*
X57741Y-39679D03*
X57741Y-40050D03*
X57741Y-40414D03*
X57741Y-40782D03*
X57741Y-41147D03*
X56958Y-41147D03*
X56958Y-40782D03*
X56958Y-40414D03*
X56958Y-40050D03*
X56958Y-39679D03*
X56958Y-39314D03*
X56958Y-38947D03*
X57155Y-38947D03*
X57156Y-39314D03*
X57156Y-39679D03*
X57156Y-40050D03*
X57156Y-40414D03*
X57156Y-40782D03*
X57156Y-41147D03*
X56766Y-41147D03*
X56766Y-40782D03*
X56766Y-40414D03*
X56766Y-40050D03*
X56766Y-39679D03*
X56766Y-39314D03*
X56766Y-38947D03*
G54D41*
X58836Y-38554D03*
X59033Y-38554D03*
X58638Y-38554D03*
X58441Y-38554D03*
X58245Y-38554D03*
X58048Y-38554D03*
X57851Y-38554D03*
X57655Y-38554D03*
X57458Y-38554D03*
X57260Y-38554D03*
X57063Y-38554D03*
X56866Y-38554D03*
X56671Y-38554D03*
G54D42*
X59130Y-38330D03*
X58933Y-38330D03*
X58738Y-38330D03*
X58541Y-38330D03*
X58343Y-38330D03*
X58146Y-38330D03*
X57950Y-38330D03*
X57753Y-38330D03*
X57556Y-38330D03*
X57360Y-38330D03*
X57163Y-38330D03*
X56966Y-38330D03*
X56768Y-38330D03*
X56571Y-38330D03*
G54D41*
X56473Y-38554D03*
G54D43*
X59453Y-38653D03*
G54D41*
X59228Y-38753D03*
G54D43*
X59453Y-38852D03*
X59453Y-39048D03*
X59453Y-39245D03*
X59453Y-39442D03*
X59453Y-39638D03*
X59451Y-39835D03*
X59453Y-40032D03*
X59453Y-40228D03*
X59453Y-40427D03*
X59453Y-40622D03*
X59453Y-40820D03*
X59453Y-41017D03*
X59453Y-41212D03*
X59453Y-41400D03*
G54D41*
X59228Y-38950D03*
X59228Y-39145D03*
X59228Y-39343D03*
X59228Y-39540D03*
X59228Y-39737D03*
X59228Y-39933D03*
X59228Y-40132D03*
X59228Y-40327D03*
X59228Y-40523D03*
X59228Y-40722D03*
X59228Y-40918D03*
X59228Y-41312D03*
X59228Y-41115D03*
X58830Y-41505D03*
X59026Y-41505D03*
X58633Y-41505D03*
X58436Y-41505D03*
X58238Y-41505D03*
X58043Y-41505D03*
X57846Y-41505D03*
X57648Y-41505D03*
X57451Y-41505D03*
X57255Y-41505D03*
X57058Y-41505D03*
X56860Y-41505D03*
X56665Y-41505D03*
G54D42*
X59123Y-41730D03*
X58926Y-41730D03*
X58731Y-41730D03*
X58535Y-41730D03*
X58338Y-41730D03*
X58141Y-41730D03*
X57943Y-41730D03*
X57746Y-41730D03*
X57550Y-41729D03*
X57353Y-41730D03*
X57156Y-41730D03*
X56960Y-41730D03*
X56763Y-41730D03*
X56566Y-41730D03*
G54D41*
X56468Y-41505D03*
G54D42*
X56368Y-41730D03*
X56374Y-38330D03*
G54D43*
X56051Y-38652D03*
G54D41*
X56276Y-38751D03*
G54D43*
X56051Y-38849D03*
X56051Y-39046D03*
X56051Y-39243D03*
X56051Y-39440D03*
X56051Y-39637D03*
X56051Y-39833D03*
X56051Y-40030D03*
X56051Y-40227D03*
X56051Y-40424D03*
X56051Y-40621D03*
X56051Y-40818D03*
X56051Y-41015D03*
X56051Y-41210D03*
X56051Y-41407D03*
G54D41*
X56276Y-38948D03*
X56276Y-39144D03*
X56276Y-39341D03*
X56276Y-39538D03*
X56276Y-39735D03*
X56276Y-39932D03*
X56276Y-40129D03*
X56276Y-40326D03*
X56276Y-40522D03*
X56276Y-40719D03*
X56276Y-40916D03*
X56276Y-41310D03*
X56276Y-41113D03*
G54D40*
X56570Y-38947D03*
X56570Y-39314D03*
X56570Y-39679D03*
X56570Y-40050D03*
X56570Y-40414D03*
X56570Y-40782D03*
X56570Y-41147D03*
G54D28*
X63314Y-31834D03*
X62314Y-31834D03*
X61314Y-31834D03*
G54D29*
X59314Y-31814D03*
G54D28*
X60314Y-31834D03*
X63043Y-48350D03*
X62043Y-48350D03*
X61043Y-48350D03*
G54D29*
X59043Y-48330D03*
G54D28*
X60043Y-48350D03*
M02*
