%FSLAX34Y34*%
G04 Gerber Fmt 3.4, Leading zero omitted, Abs format*
G04 (created by PCBNEW (2013-10-29 BZR 4389)-product) date 1/27/2015 9:26:37 PM*
%MOIN*%
G01*
G70*
G90*
G04 APERTURE LIST*
%ADD10C,0.005906*%
%ADD11R,0.043200X0.011700*%
%ADD12R,0.058900X0.027500*%
%ADD13R,0.122000X0.062900*%
%ADD14R,0.043300X0.011800*%
%ADD15R,0.047200X0.051000*%
%ADD16R,0.017500X0.019500*%
%ADD17R,0.019500X0.017500*%
%ADD18R,0.031400X0.027500*%
%ADD19R,0.027500X0.031400*%
%ADD20R,0.019500X0.019500*%
%ADD21R,0.051000X0.047200*%
%ADD22R,0.184900X0.058900*%
%ADD23C,0.051000*%
%ADD24C,0.055000*%
%ADD25C,0.059700*%
%ADD26R,0.059700X0.059700*%
%ADD27R,0.038900X0.027100*%
%ADD28R,0.027100X0.038900*%
%ADD29R,0.039400X0.013800*%
%ADD30O,0.039400X0.013800*%
%ADD31O,0.039400X0.013700*%
%ADD32O,0.023500X0.011700*%
%ADD33R,0.023500X0.011700*%
%ADD34O,0.011700X0.023500*%
%ADD35R,0.011700X0.023500*%
G04 APERTURE END LIST*
G54D10*
G54D11*
X48532Y-35636D03*
X48532Y-35832D03*
X48532Y-36029D03*
X48532Y-36226D03*
X48532Y-36422D03*
X50576Y-36422D03*
X50576Y-36226D03*
X50578Y-36029D03*
X50578Y-35832D03*
X50578Y-35636D03*
X48534Y-37009D03*
X48534Y-37207D03*
X48534Y-37404D03*
X48534Y-37599D03*
X48534Y-37797D03*
X48534Y-37994D03*
X48534Y-38189D03*
X48534Y-38387D03*
X48534Y-38586D03*
X48534Y-38782D03*
X50578Y-38782D03*
X50581Y-38584D03*
X50581Y-38387D03*
X50578Y-38189D03*
X50578Y-37994D03*
X50581Y-37796D03*
X50581Y-37599D03*
X50581Y-37402D03*
X50581Y-37206D03*
X50581Y-37009D03*
X50581Y-39371D03*
X50581Y-39567D03*
X50581Y-39764D03*
X50581Y-39961D03*
X50581Y-40157D03*
X50579Y-40356D03*
X50579Y-40551D03*
X50581Y-40749D03*
X50581Y-40946D03*
X50579Y-41144D03*
X48534Y-41144D03*
X48534Y-40947D03*
X48534Y-40749D03*
X48534Y-40551D03*
X48534Y-40356D03*
X48534Y-40159D03*
X48534Y-39961D03*
X48534Y-39766D03*
X48534Y-39569D03*
X48534Y-39371D03*
X48530Y-41736D03*
X48530Y-41934D03*
X48530Y-42131D03*
X48530Y-42327D03*
X48530Y-42524D03*
X48530Y-42721D03*
X48530Y-42917D03*
X48530Y-43114D03*
X48530Y-43312D03*
X48530Y-43509D03*
X50578Y-44099D03*
X50578Y-44296D03*
X50578Y-44492D03*
X50576Y-44689D03*
X50576Y-44886D03*
G54D12*
X50498Y-39079D03*
X48610Y-39079D03*
X48610Y-41441D03*
X50498Y-41441D03*
X48610Y-36716D03*
X50498Y-36716D03*
X50498Y-43804D03*
G54D13*
X49554Y-34374D03*
X49554Y-46140D03*
G54D12*
X48610Y-43804D03*
G54D11*
X48532Y-44886D03*
G54D14*
X48531Y-44689D03*
G54D11*
X48532Y-44492D03*
X48532Y-44296D03*
X48532Y-44099D03*
X50576Y-43509D03*
X50577Y-43311D03*
X50577Y-43114D03*
X50576Y-42917D03*
X50576Y-42721D03*
X50577Y-42523D03*
X50577Y-42327D03*
X50577Y-42130D03*
X50577Y-41933D03*
X50577Y-41736D03*
G54D15*
X52390Y-44611D03*
X52390Y-45515D03*
X56248Y-44414D03*
X56248Y-45318D03*
G54D16*
X53906Y-34410D03*
X53536Y-34410D03*
X51512Y-36189D03*
X51142Y-36189D03*
X61279Y-44618D03*
X60909Y-44618D03*
X53331Y-36146D03*
X52961Y-36146D03*
G54D17*
X51886Y-35189D03*
X51886Y-35559D03*
G54D16*
X51402Y-35638D03*
X51032Y-35638D03*
X51488Y-38008D03*
X51118Y-38008D03*
G54D17*
X53740Y-36166D03*
X53740Y-36536D03*
G54D16*
X51512Y-36461D03*
X51142Y-36461D03*
X51476Y-37232D03*
X51106Y-37232D03*
X51969Y-37240D03*
X52339Y-37240D03*
X51941Y-36197D03*
X52311Y-36197D03*
G54D17*
X54110Y-36543D03*
X54110Y-36173D03*
G54D16*
X51945Y-37992D03*
X52315Y-37992D03*
X53079Y-34410D03*
X52709Y-34410D03*
G54D17*
X54457Y-36146D03*
X54457Y-36516D03*
G54D16*
X51480Y-37508D03*
X51110Y-37508D03*
X54453Y-34433D03*
X54823Y-34433D03*
G54D17*
X59606Y-35130D03*
X59606Y-35500D03*
X59961Y-35130D03*
X59961Y-35500D03*
X59039Y-47713D03*
X59039Y-47343D03*
X60047Y-47721D03*
X60047Y-47351D03*
X62036Y-47807D03*
X62036Y-47437D03*
X63051Y-47776D03*
X63051Y-47406D03*
X56484Y-42792D03*
X56484Y-42422D03*
G54D16*
X58087Y-42642D03*
X58457Y-42642D03*
X55658Y-37614D03*
X55288Y-37614D03*
G54D17*
X55284Y-36764D03*
X55284Y-37134D03*
G54D16*
X59382Y-38228D03*
X59752Y-38228D03*
X59488Y-42347D03*
X59858Y-42347D03*
X59831Y-42044D03*
X60201Y-42044D03*
X61713Y-39500D03*
X61343Y-39500D03*
X59382Y-38610D03*
X59752Y-38610D03*
G54D17*
X60638Y-39984D03*
X60638Y-40354D03*
G54D16*
X59969Y-40355D03*
X60339Y-40355D03*
X61358Y-40351D03*
X61728Y-40351D03*
G54D17*
X61551Y-41642D03*
X61551Y-42012D03*
X56764Y-42421D03*
X56764Y-42791D03*
G54D16*
X60697Y-37768D03*
X61067Y-37768D03*
X51965Y-36953D03*
X52335Y-36953D03*
G54D17*
X60646Y-42760D03*
X60646Y-43130D03*
G54D16*
X61398Y-43256D03*
X61028Y-43256D03*
X60795Y-36981D03*
X61165Y-36981D03*
G54D17*
X61571Y-37756D03*
X61571Y-37386D03*
X57768Y-42685D03*
X57768Y-42315D03*
G54D16*
X61721Y-39799D03*
X61351Y-39799D03*
X55941Y-38776D03*
X55571Y-38776D03*
G54D17*
X56051Y-43146D03*
X56051Y-43516D03*
G54D16*
X51410Y-34890D03*
X51040Y-34890D03*
X51040Y-35280D03*
X51410Y-35280D03*
X52339Y-37512D03*
X51969Y-37512D03*
X51476Y-36957D03*
X51106Y-36957D03*
X51941Y-36469D03*
X52311Y-36469D03*
X57484Y-43122D03*
X57114Y-43122D03*
G54D17*
X57465Y-42449D03*
X57465Y-42819D03*
G54D18*
X51473Y-43325D03*
X51473Y-42895D03*
G54D19*
X60440Y-36984D03*
X60010Y-36984D03*
X53309Y-48228D03*
X53739Y-48228D03*
X61073Y-42847D03*
X61503Y-42847D03*
G54D18*
X51169Y-45305D03*
X51169Y-45735D03*
G54D20*
X61228Y-41626D03*
X61228Y-41272D03*
X60949Y-40346D03*
X60949Y-39992D03*
X60878Y-41626D03*
X60878Y-41272D03*
X60634Y-38634D03*
X60988Y-38634D03*
X56437Y-41545D03*
X56083Y-41545D03*
X60634Y-38945D03*
X60988Y-38945D03*
X56047Y-42426D03*
X56047Y-42780D03*
X55130Y-43477D03*
X54776Y-43477D03*
X57500Y-43783D03*
X57146Y-43783D03*
X55981Y-37610D03*
X56335Y-37610D03*
X57500Y-43453D03*
X57146Y-43453D03*
X57150Y-42445D03*
X57150Y-42799D03*
X55209Y-34425D03*
X55563Y-34425D03*
X60445Y-35130D03*
X60799Y-35130D03*
X61279Y-44259D03*
X60925Y-44259D03*
X61287Y-45011D03*
X60933Y-45011D03*
X59539Y-42047D03*
X59539Y-41693D03*
X54949Y-37126D03*
X54949Y-36772D03*
X57768Y-41721D03*
X57768Y-41367D03*
X57484Y-41717D03*
X57484Y-41363D03*
X59476Y-39843D03*
X59476Y-39489D03*
X55929Y-38299D03*
X55575Y-38299D03*
X56437Y-43166D03*
X56437Y-43520D03*
X59067Y-38217D03*
X58713Y-38217D03*
X59075Y-38595D03*
X58721Y-38595D03*
X61343Y-39209D03*
X61343Y-38855D03*
X60039Y-39169D03*
X60039Y-39523D03*
X59035Y-41899D03*
X59035Y-41545D03*
X60162Y-37732D03*
X60162Y-37378D03*
X60205Y-41685D03*
X59851Y-41685D03*
X60941Y-41890D03*
X60941Y-42244D03*
X55981Y-37169D03*
X56335Y-37169D03*
X55977Y-36756D03*
X56331Y-36756D03*
X55988Y-36453D03*
X56342Y-36453D03*
X59236Y-37780D03*
X59236Y-37426D03*
X59579Y-37780D03*
X59579Y-37426D03*
X58087Y-42339D03*
X58441Y-42339D03*
X58079Y-41717D03*
X58433Y-41717D03*
X53469Y-45225D03*
X53469Y-45579D03*
X59445Y-41343D03*
X59799Y-41343D03*
G54D21*
X52409Y-44044D03*
X51505Y-44044D03*
G54D22*
X65161Y-45867D03*
X65161Y-43763D03*
X65145Y-36350D03*
X65145Y-34246D03*
G54D23*
X51299Y-32217D03*
X52299Y-32217D03*
X52299Y-31217D03*
X51299Y-31217D03*
G54D24*
X51799Y-31717D03*
G54D25*
X58307Y-31834D03*
X57307Y-31834D03*
X56307Y-31834D03*
X55307Y-31834D03*
G54D26*
X53307Y-31814D03*
G54D25*
X54307Y-31834D03*
G54D26*
X57576Y-49079D03*
G54D25*
X56576Y-49079D03*
G54D27*
X54184Y-44603D03*
X54184Y-43853D03*
X55184Y-44603D03*
X54184Y-44228D03*
X55184Y-43853D03*
G54D28*
X54646Y-46200D03*
X53896Y-46200D03*
X54646Y-45200D03*
X54271Y-46200D03*
X53896Y-45200D03*
G54D29*
X52291Y-35567D03*
G54D30*
X52291Y-35311D03*
X52291Y-35055D03*
X52291Y-34799D03*
G54D31*
X54654Y-35567D03*
G54D30*
X54654Y-35311D03*
X54654Y-35055D03*
X54654Y-34799D03*
G54D25*
X63314Y-31834D03*
X62314Y-31834D03*
X61314Y-31834D03*
G54D26*
X59314Y-31814D03*
G54D25*
X60314Y-31834D03*
X63043Y-48350D03*
X62043Y-48350D03*
X61043Y-48350D03*
G54D26*
X59043Y-48330D03*
G54D25*
X60043Y-48350D03*
G54D32*
X53256Y-38752D03*
X53256Y-38555D03*
X53256Y-38162D03*
X52862Y-38162D03*
G54D33*
X52862Y-38752D03*
G54D32*
X53256Y-38359D03*
X52862Y-38359D03*
X52862Y-38555D03*
X53256Y-39567D03*
X53256Y-39370D03*
X53256Y-38977D03*
X52862Y-38977D03*
G54D33*
X52862Y-39567D03*
G54D32*
X53256Y-39174D03*
X52862Y-39174D03*
X52862Y-39370D03*
X53256Y-40402D03*
X53256Y-40205D03*
X53256Y-39812D03*
X52862Y-39812D03*
G54D33*
X52862Y-40402D03*
G54D32*
X53256Y-40009D03*
X52862Y-40009D03*
X52862Y-40205D03*
X53256Y-41236D03*
X53256Y-41039D03*
X53256Y-40646D03*
X52862Y-40646D03*
G54D33*
X52862Y-41236D03*
G54D32*
X53256Y-40843D03*
X52862Y-40843D03*
X52862Y-41039D03*
X53256Y-42122D03*
X53256Y-41925D03*
X53256Y-41532D03*
X52862Y-41532D03*
G54D33*
X52862Y-42122D03*
G54D32*
X53256Y-41729D03*
X52862Y-41729D03*
X52862Y-41925D03*
X53256Y-42941D03*
X53256Y-42744D03*
X53256Y-42351D03*
X52862Y-42351D03*
G54D33*
X52862Y-42941D03*
G54D32*
X53256Y-42548D03*
X52862Y-42548D03*
X52862Y-42744D03*
G54D34*
X55425Y-42319D03*
X55228Y-42319D03*
X54835Y-42319D03*
X54835Y-42713D03*
G54D35*
X55425Y-42713D03*
G54D34*
X55032Y-42319D03*
X55032Y-42713D03*
X55228Y-42713D03*
M02*
